<svg id="Layer_1" data-name="Layer 1" xmlns="http://www.w3.org/2000/svg" viewBox="0 0 433.02 176.99"><defs><style>.cls-1{fill:#891d03;}.cls-2{fill:#adafb1;}</style></defs><title>01-hiaccounting-web-ABOUT_advantage</title><path class="cls-1" d="M49.48,73.39a7.15,7.15,0,0,0-3.31.58c-0.53.29-1.1,1.1-5.21,15.6-0.11.41-.19,0.8,0.18,0.86a18.84,18.84,0,0,0,3.7.13c7.88,0,10.78-6.46,10.78-11.42,0-2.85-1.45-5.74-6.14-5.74M44.14,92a26.67,26.67,0,0,0-3.47.09A1.13,1.13,0,0,0,40,93c-4.06,14.26-4.52,17.1-3.82,17.86s1.79,1.09,5,1.09c7.3,0,12.29-5.32,12.29-12.05,0-4.35-3.35-7.87-9.33-7.87M49.29,91c-0.22,0-.4.51-0.1,0.51,7.41,0.94,10.25,4.89,10.25,9.34,0,6.15-6.9,12.58-18.43,12.58-1.63,0-4.12-.24-7.19-0.24s-8,.05-9.67.24c-0.29.05-.53-0.63,0-0.76,1.5-.35,3.35-0.35,4.22-0.76,0.52-.21,1.27-1.79,6.26-19.16s5.21-19,4.74-19.26c-0.63-.42-2.25-0.42-3.6-0.75-0.39-.11-0.26-0.81,0-0.76,1.59,0.19,6.22.3,9.34,0.3S49.19,72,50.75,72C57.6,72,61.42,75.29,61.42,80S56.84,89.33,49.29,91"/><path class="cls-1" d="M75.9,89c-2.43,0-5,3.81-7.34,10.66,7.06-.93,9-5.39,9-8.51,0-1.33-.53-2.15-1.7-2.15m-7.64,11.42a17.66,17.66,0,0,0-1.16,6c0,2.56,1.34,4.25,3.42,4.25,2.92,0,6.09-2.27,8-4.42a0.23,0.23,0,0,1,.35.3c-2,3.71-6.55,7.3-10.3,7.3-3.42,0-6.57-1.92-6.57-6.9,0-7.25,6.9-19,14.57-19,3,0,5.19,1.74,5.19,4.3,0,4.62-6.3,8.21-13.49,8.21"/><path class="cls-1" d="M96.55,94.25c-2.61,0-2.21-4.89-5.28-4.89-1.62,0-2.89,1.77-2.89,3.56,0,3.18,6.32,8.69,6.32,13.21,0,3.78-3,7.72-8.81,7.72-4.18,0-6.43-2.78-6.43-4.59a2.26,2.26,0,0,1,2.3-2.31c2.91,0,2.58,5.68,6,5.68,1.85,0,3.12-2,3.12-4.11,0-3.83-6-7.77-6-12.88,0-4,3.72-7.7,8.41-7.7,3.35,0,5.52,2.2,5.52,4.07a2.36,2.36,0,0,1-2.28,2.24"/><path class="cls-1" d="M116.15,91c-2-.12-2.22-0.18-5.81-0.18-2,5.34-4.51,11.78-6,16-0.87,2.55-.23,3.35.52,3.35,2.14,0,6.57-5.38,7.07-5.38,0.17,0,.3.12,0.17,0.29-1.74,3-6.9,8.76-10.72,8.76-1.9,0-3.65-1.85-2-6,2.14-5.46,4.28-11.6,6.14-17-2.27.06-2.9,0.06-4.63,0.18-0.51.06-.57-1.73,0.11-1.67,1.69,0.11,2.72.17,5,.17,0.71-2,1.35-3.83,1.74-5.11a1,1,0,0,1,.94-0.29c1,0,4.22.29,4,.88-0.46,1.2-1.09,2.83-1.8,4.52,3.4,0,3.34-.06,5.39-0.17,0.47-.06.52,1.73-0.11,1.67"/><path class="cls-1" d="M144.2,73.39a5.76,5.76,0,0,0-3,.52c-0.51.22-2.14,4.92-6.25,19.42-0.13.46-.18,0.7,0.16,0.81a11.24,11.24,0,0,0,3.14.28c6.45,0,13.11-6,13.11-13.37,0-4.59-2.68-7.65-7.2-7.65m-9.86,22.09c-4.33,15.13-4.29,16.17-3.89,16.38,0.59,0.49,3.08.41,4.41,0.76,0.48,0.12.29,0.81,0,.76-1.56-.19-5.38-0.24-8.46-0.24a69.49,69.49,0,0,0-7.12.24c-0.35.05-.52-0.63,0-0.76,1.52-.35,3.3-0.28,4.18-0.76,0.57-.29,1.33-1.79,6.3-19.16s5.17-19,4.71-19.26-2.21-.42-3.54-0.75c-0.48-.11-0.29-0.81,0-0.76,1.56,0.19,5.62.3,8.69,0.3,2.73,0,4.41-.24,5.86-0.24,7.48,0,12.11,3.77,12.11,9.4,0,8.34-10.5,16-23.25,14.09"/><path class="cls-1" d="M158.52,106.19c-1.16,3.3-.64,3.83.39,3.83,1.29,0,5.5-3.83,6.67-5.3,0.05-.09.41,0.08,0.35,0.19-0.81,2.08-6.66,8.93-10.68,8.93-2.86,0-3.16-3.31-1.89-6.56,3.53-9.32,8.17-22,11.88-32.69,0.92-2.68-.24-3.94-4.4-3.94a0.35,0.35,0,0,1-.07-0.69c3.09-.37,10.2-0.7,10.72-0.7s0.65,0.34.35,1c-5.22,13.51-10.65,28.3-13.31,35.89"/><path class="cls-1" d="M183.15,89.73c-4.92,0-12.23,12.75-12.23,18,0,1.86.76,2.78,1.91,2.78s2.68-1,4.29-2.91c4-4.69,7.69-14,7.94-15.88a1.79,1.79,0,0,0-1.91-2m1.2,16.46c-1.13,3.14-.8,3.94.2,3.94,1.61,0,4.64-4.17,5.21-4.17a0.19,0.19,0,0,1,.17.29c-2,3.66-6.37,7.6-9,7.6a1.55,1.55,0,0,1-1.74-1.66,15.71,15.71,0,0,1,.87-4.36l1.22-3.71a0.54,0.54,0,0,0-.64-0.25c-3.63,6.16-7.23,10-10.37,10a4.52,4.52,0,0,1-4.52-4.86c0-8.64,10.36-20.25,17.12-20.25a5.58,5.58,0,0,1,3,.77c0.29,0.23.4,0.28,0.57,0.06,0.75-.94,1.57-2.05,2-2.68s3.24,0.18,3.14.53Z"/><path class="cls-1" d="M208.83,94c-2.9,0-2.27-4.16-5-4.16-3.7,0-7.35,8.11-7.35,15.7,0,3.53,1.58,5.2,4,5.2,2.61,0,4.76-1.78,7-4.76,0.1-.16.52-0.11,0.4,0.19-2.09,4.87-6.38,7.65-9.57,7.65-3.6,0-6.89-2.15-6.89-7.6,0-7.42,7.25-18.31,15.39-18.31,3.55,0,4.65,2.15,4.65,3.36a2.41,2.41,0,0,1-2.6,2.72"/><path class="cls-1" d="M224,89c-2.43,0-5,3.81-7.36,10.66,7.1-.93,9.05-5.39,9.05-8.51,0-1.33-.53-2.15-1.69-2.15m-7.65,11.42a17.88,17.88,0,0,0-1.16,6c0,2.56,1.33,4.25,3.44,4.25,2.89,0,6.09-2.27,8-4.42a0.23,0.23,0,0,1,.34.3c-2,3.71-6.55,7.3-10.32,7.3-3.42,0-6.54-1.92-6.54-6.9,0-7.25,6.89-19,14.55-19,3,0,5.22,1.74,5.22,4.3,0,4.62-6.34,8.21-13.52,8.21"/><path class="cls-1" d="M244.64,94.25c-2.61,0-2.21-4.89-5.27-4.89-1.63,0-2.9,1.77-2.9,3.56,0,3.18,6.31,8.69,6.31,13.21,0,3.78-3,7.72-8.82,7.72-4.16,0-6.42-2.78-6.42-4.59a2.28,2.28,0,0,1,2.33-2.31c2.9,0,2.54,5.68,6,5.68,1.85,0,3.11-2,3.11-4.11,0-3.83-6-7.77-6-12.88,0-4,3.68-7.7,8.4-7.7,3.35,0,5.5,2.2,5.5,4.07a2.34,2.34,0,0,1-2.26,2.24"/><path class="cls-1" d="M274.27,91.05c-2.05-.11-2.21-0.18-5.81-0.18-2,5.34-4.52,11.77-6,16-0.87,2.55-.23,3.36.52,3.36,2.14,0,6.55-5.39,7.06-5.39,0.2,0,.28.12,0.2,0.28-1.75,3-6.93,8.76-10.74,8.76-1.91,0-3.65-1.86-2-6,2.16-5.46,4.29-11.6,6.16-17-2.27.07-2.9,0.07-4.64,0.18-0.53.06-.57-1.74,0.12-1.68,1.68,0.11,2.72.17,5,.17,0.69-2,1.33-3.82,1.72-5.11a1.08,1.08,0,0,1,.93-0.28c1,0,4.24.28,4,.86-0.48,1.21-1.1,2.84-1.8,4.52,3.43,0,3.35-.07,5.4-0.17,0.48-.06.53,1.74-0.1,1.68"/><path class="cls-1" d="M285,89.08c-4.22,0-9.38,13.56-9.38,19.88,0,2.55.93,3.84,2.68,3.84,4.21,0,9.38-13.5,9.38-19.83,0-2.55-.93-3.89-2.68-3.89m-6.89,24.81c-3.76,0-6.9-2.38-6.9-8.17,0-7.13,5.91-17.75,14-17.75C289,88,292,90.42,292,96.21c0,7.15-5.91,17.68-14,17.68"/><path class="cls-1" d="M331.62,73.27c-1.68,0-2.19.09-2.91,0.59-1.09.73-1.43,1.66-1.55,7.41-0.05,2-.13,3.65-0.13,5.86,5.81-7.54,8-11,8-12.3,0-1-1-1.55-3.37-1.55m21.62,2c-2.49,2.42-14,16.86-30.37,39a1.22,1.22,0,0,1-1.51-.19c0.24-9.79.3-14.84,0.34-20-4.24,5.51-9.38,12.17-15.31,20.18a1.29,1.29,0,0,1-1.56-.16c0.64-34.55.3-39.47-.92-40.35-0.58-.4-2.31-0.59-3.66-0.93-0.39-.12-0.28-0.81,0-0.76a59.28,59.28,0,0,0,6.79.29c3.13,0,6.72-.11,8.35-0.29,0.35,0,.52.64,0,0.76-1.51.35-2.2,0.17-3.07,0.63s-1.5,1.06-1.68,7.9c-0.3,8.28-.47,17.09-0.52,25.15,0,0.17.27,0.11,0.41,0,3.81-4.88,7.46-9.74,11.17-14.55,0.06-15.07-.34-17.56-1.21-18.2a7,7,0,0,0-2.73-.93c-0.47-.05-0.31-0.81,0-0.76,1.57,0.19,5.74.29,13.45,0.29,5.91,0,11.35-.11,13-0.29,0.28,0,.51.71,0,0.76-3.08.41-4.69,1.22-6,2.49s-4.24,4.8-11.19,14c-0.18,6.14-.21,10.39-0.36,17.16,0,0.17.31,0.11,0.4,0C337.9,92.05,350.28,76,350.28,74.37c0-.7-0.56-1.16-3.77-1.63-0.45-.05-0.28-0.81,0-0.76a50,50,0,0,0,6.38.29,44.4,44.4,0,0,0,6-.29,0.38,0.38,0,0,1,0,.76,8.87,8.87,0,0,0-5.62,2.49"/><path class="cls-1" d="M354.76,89.08c-4.23,0-9.39,13.56-9.39,19.88,0,2.55.92,3.84,2.66,3.84,4.23,0,9.38-13.5,9.38-19.83,0-2.55-.91-3.89-2.65-3.89m-6.9,24.81c-3.77,0-6.89-2.38-6.89-8.17C341,98.59,346.86,88,355,88c3.76,0,6.83,2.45,6.83,8.24,0,7.15-5.91,17.68-14,17.68"/><path class="cls-1" d="M382.07,95c-2.69,0-1.42-3.3-3-3.3s-4.1,3.07-12,21.32c-0.17.42-1.62,0.54-2.47,0.54-1,0-2.35-.07-2.15-0.54,3.59-9.73,6.08-17.45,6.08-19.52,0-1.22-.3-1.69-0.92-1.69-1.81,0-4.24,4.76-4.76,5-0.18.07-.46,0.07-0.4-0.17,1.9-4.62,5.67-8.7,8.4-8.7,1.73,0,2.31,1.58,2.31,3.38,0,2.27-1.1,5.9-3.3,12.24-0.1.23,0.57,0.34,0.57,0.23,4.53-11,7.78-16,11.52-16A3,3,0,0,1,385,91.05c0,2-1.38,3.95-2.94,3.95"/><path class="cls-1" d="M402.69,91.3c-3.24,0-11.29,5.8-14.77,10.77,5.8-1.1,16.29-6.67,16.29-9.27a1.37,1.37,0,0,0-1.52-1.51m4.07,25a2.69,2.69,0,0,1,2.42,2.91,3.76,3.76,0,0,1-4,3.78c-6.09,0-9.62-4.69-12.82-12.64-1.79-4.41-2.6-5.56-4.17-6.38a0.68,0.68,0,0,0-.88.06c-1.1,2.44-2.49,6.61-3.36,9-0.16.42-1.23,0.54-2.42,0.54s-2.46-.24-2.32-0.54c5.51-14.42,10.32-27.58,14.08-38.43,0.86-2.61-.23-3.94-4.42-3.94a0.32,0.32,0,0,1-.11-0.63c3.13-.4,10.32-0.74,10.79-0.74s0.62,0.34.33,1c-5.33,13.51-8.68,22.09-10.61,27.29,0,0.24.48,0.3,0.48,0.24,3.88-6.38,7.88-9.15,11.42-9.15,2.93,0,4.63,2.37,4.63,5.22,0,5-7.3,9.46-18,8.92a13.29,13.29,0,0,1,9.52,8.18c3,7.18,5.47,10.77,9.21,10.77a4.06,4.06,0,0,1-1.87-3.08,2.2,2.2,0,0,1,2.09-2.44"/><polygon class="cls-1" points="145.8 51.66 145.8 40 141.14 40 141.14 51.66 136.73 51.66 136.73 23.92 141.14 23.92 141.14 35.95 145.8 35.95 145.8 23.92 150.22 23.92 150.22 51.66 145.8 51.66 145.8 51.66"/><path class="cls-1" d="M158.72,42.16c-2.09.71-3.12,1.88-3.12,3.45V47.2A1.49,1.49,0,0,0,157,49a1.84,1.84,0,0,0,1.75-2V42.16h0ZM162.26,52a2.66,2.66,0,0,1-2.71-2.17A3.89,3.89,0,0,1,156,52c-2.33,0-3.92-1.8-3.92-4.87v-1c0-3.66,2.83-5.42,6.67-6.84V36.25a1.32,1.32,0,0,0-1.37-1.59c-1,0-1.34.59-1.34,1.66v1.75h-3.37V36.49c0-2.94,1.62-5.11,4.87-5.11s4.8,2.25,4.8,5.41V48.19a0.84,0.84,0,0,0,.82,1V52h-0.87Z"/><polygon class="cls-1" points="177.01 51.66 173.89 51.66 172.6 43.74 172.09 39.62 171.55 43.74 170.26 51.66 167.13 51.66 163.68 31.66 167.3 31.66 168.46 41.37 168.93 45.7 169.37 41.37 170.71 31.66 173.76 31.66 174.97 41.37 175.47 45.7 175.93 41.37 177.17 31.66 180.54 31.66 177.01 51.66 177.01 51.66"/><path class="cls-1" d="M187.76,42.16c-2.09.71-3.13,1.88-3.13,3.45V47.2c0,1,.45,1.76,1.37,1.76a1.84,1.84,0,0,0,1.75-2V42.16h0ZM191.3,52a2.65,2.65,0,0,1-2.71-2.17A3.9,3.9,0,0,1,185,52c-2.34,0-3.92-1.8-3.92-4.87v-1c0-3.66,2.83-5.42,6.66-6.84V36.25a1.32,1.32,0,0,0-1.37-1.59c-1,0-1.34.59-1.34,1.66v1.75h-3.37V36.49c0-2.94,1.62-5.11,4.86-5.11s4.79,2.25,4.79,5.41V48.19a0.84,0.84,0,0,0,.84,1V52H191.3Z"/><path class="cls-1" d="M193.92,29.12V25.25h3.54v3.88h-3.54Zm-0.08,22.53v-20h3.71v20h-3.71Z"/><path class="cls-1" d="M200,29.12V25.25h3.53v3.88H200ZM200,51.65v-20h3.69v20H200Z"/><path class="cls-2" d="M214.51,41.29a1.69,1.69,0,0,0-1.72-2h-2.13v8.53H213c1,0,1.51-.62,1.51-1.79V41.29h0Zm0-11.79c0-1.17-.51-1.79-1.55-1.79h-2.25V36h2.09A1.63,1.63,0,0,0,214.46,34V29.5h0Zm-1,22.16H206.2V23.92h7.17c3.09,0,5.33,1.61,5.33,5.37v4c0,2.09-.79,3.59-2.75,4.17a3.9,3.9,0,0,1,2.84,4.17v4.62c0,3.8-2.3,5.37-5.33,5.37h0Z"/><path class="cls-2" d="M228.2,51.65L228,49.24A3.77,3.77,0,0,1,224.45,52c-2.29,0-3.58-1.76-3.58-4.37v-16h3.7V47A1.56,1.56,0,0,0,226,48.78c1,0,1.66-1.29,1.66-2.24V31.66h3.72v20H228.2Z"/><path class="cls-2" d="M238.4,52c-3.28,0-5.12-2.08-5.12-5.42V45.37h3.22v1.51c0,1.37.62,2,1.74,2A1.57,1.57,0,0,0,240,47.12c0-1.84-.92-2.55-3.09-4.54-1.95-1.46-3.46-3.29-3.46-6,0-3.3,2.09-5.25,4.92-5.25,3.2,0,4.87,2.17,4.87,5.25v1.24h-3.08V36.32a1.55,1.55,0,0,0-1.71-1.7,1.44,1.44,0,0,0-1.54,1.58c0,1.46.8,2.38,2.63,4,2.12,1.63,3.88,3.38,3.88,6.46s-1.71,5.38-5,5.38h0Z"/><path class="cls-2" d="M245.19,29.12V25.25h3.54v3.88h-3.54Zm-0.08,22.53v-20h3.71v20h-3.71Z"/><path class="cls-2" d="M258.06,51.65V36.38a1.54,1.54,0,0,0-1.42-1.76c-1,0-1.7,1.29-1.7,2.25V51.65h-3.71v-20h3.29l0.21,2.63c0.67-2,2-2.91,3.5-2.91,2.25,0,3.54,1.74,3.54,4.37V51.65h-3.71Z"/><path class="cls-2" d="M270.64,36.49c0-1.11-.49-1.87-1.54-1.87a1.63,1.63,0,0,0-1.58,1.87V40h3.12V36.49h0ZM269.07,52c-3,0-5.18-2.25-5.18-5.67V37c0-3.37,2.17-5.66,5.18-5.66s5,2.29,5,5.66v5.12h-6.5v4.75a1.59,1.59,0,0,0,1.58,1.84,1.56,1.56,0,0,0,1.59-1.84V44.45H274v1.91c0,3.38-1.92,5.63-5,5.63h0Z"/><path class="cls-2" d="M280.64,52c-3.29,0-5.12-2.08-5.12-5.42V45.37h3.2v1.51c0,1.37.64,2,1.76,2a1.57,1.57,0,0,0,1.75-1.76c0-1.84-.91-2.55-3.09-4.54-2-1.46-3.46-3.29-3.46-6,0-3.3,2.08-5.25,4.91-5.25,3.21,0,4.87,2.17,4.87,5.25v1.24h-3.08V36.32a1.56,1.56,0,0,0-1.71-1.7,1.43,1.43,0,0,0-1.54,1.58c0,1.46.79,2.38,2.62,4,2.13,1.63,3.87,3.38,3.87,6.46s-1.7,5.38-5,5.38h0Z"/><path class="cls-2" d="M291.72,52c-3.29,0-5.11-2.08-5.11-5.42V45.37h3.2v1.51c0,1.37.62,2,1.74,2a1.56,1.56,0,0,0,1.75-1.76c0-1.84-.92-2.55-3.09-4.54-2-1.46-3.45-3.29-3.45-6,0-3.3,2.08-5.25,4.92-5.25,3.2,0,4.87,2.17,4.87,5.25v1.24h-3.08V36.32a1.56,1.56,0,0,0-1.7-1.7,1.43,1.43,0,0,0-1.55,1.58c0,1.46.79,2.38,2.63,4,2.12,1.63,3.88,3.38,3.88,6.46S295,52,291.72,52h0Z"/><path class="cls-2" d="M154.32,157.52l-1,4H138.39v-4.36q0.78-.32,3.68-1.86a22.21,22.21,0,0,0,4.93-3.46,3.66,3.66,0,0,0,1.25-2.57q0-2.39-2.86-2.39-2.07,0-4.86,2.29l-2.86-3a13.15,13.15,0,0,1,9-3.54,7.58,7.58,0,0,1,5.07,1.61,5.3,5.3,0,0,1,1.89,4.25q0,3.29-3.36,5.79-0.79.57-2.39,1.5l-2.5,1.43-0.93.46a27,27,0,0,1,3.46-.18h6.39Z"/><path class="cls-2" d="M165.67,142.88a7.83,7.83,0,0,1,6.18,2.59,11.44,11.44,0,0,1-.07,13.81,8.58,8.58,0,0,1-12.32.05,11.44,11.44,0,0,1,.07-13.81A7.85,7.85,0,0,1,165.67,142.88Zm3.22,9.61q0-3.5-.93-4.93a2.52,2.52,0,0,0-2.29-1.18q-3.25,0-3.25,6,0,3.5.93,4.93a2.52,2.52,0,0,0,2.29,1.18Q168.89,158.45,168.89,152.48Z"/><path class="cls-2" d="M182.74,142.88H186v14.75h2.86v3.89H177.5v-3.89h3.86v-9.25a20.8,20.8,0,0,1-4.29,2.07l-1.21-2.57Z"/><path class="cls-2" d="M197.6,142.88h3.22v14.75h2.86v3.89H192.35v-3.89h3.86v-9.25a20.8,20.8,0,0,1-4.29,2.07l-1.21-2.57Z"/><path class="cls-2" d="M214.89,149.66h8.57v4.14h-8.57v-4.14Z"/><path class="cls-2" d="M243,157.52l-1,4H227.1v-4.36q0.78-.32,3.68-1.86a22.21,22.21,0,0,0,4.93-3.46,3.66,3.66,0,0,0,1.25-2.57q0-2.39-2.86-2.39-2.07,0-4.86,2.29l-2.86-3a13.15,13.15,0,0,1,9-3.54,7.58,7.58,0,0,1,5.07,1.61,5.3,5.3,0,0,1,1.89,4.25q0,3.29-3.36,5.79-0.79.57-2.39,1.5l-2.5,1.43-0.93.46a27,27,0,0,1,3.46-.18H243Z"/><path class="cls-2" d="M254.39,142.88a7.83,7.83,0,0,1,6.18,2.59,11.44,11.44,0,0,1-.07,13.81,8.58,8.58,0,0,1-12.32.05,11.44,11.44,0,0,1,.07-13.81A7.85,7.85,0,0,1,254.39,142.88Zm3.22,9.61q0-3.5-.93-4.93a2.52,2.52,0,0,0-2.29-1.18q-3.25,0-3.25,6,0,3.5.93,4.93a2.52,2.52,0,0,0,2.29,1.18Q257.6,158.45,257.6,152.48Z"/><path class="cls-2" d="M271.46,142.88h3.22v14.75h2.86v3.89H266.21v-3.89h3.86v-9.25a20.8,20.8,0,0,1-4.29,2.07l-1.21-2.57Z"/><path class="cls-2" d="M293.42,143.33l1,3.16q-6.75,2.17-8.56,7.6a5.45,5.45,0,0,1,3.52-1.09,6.86,6.86,0,0,1,5,2,6.68,6.68,0,0,1,2,4.94,7.15,7.15,0,0,1-2.22,5.35,8.08,8.08,0,0,1-11.43-.44,9.65,9.65,0,0,1-2.32-6.68,13,13,0,0,1,.86-4.74,14.8,14.8,0,0,1,3.69-5.33,19.78,19.78,0,0,1,3.94-2.78A21.82,21.82,0,0,1,293.42,143.33Zm-8.1,14.32a13.58,13.58,0,0,0-.1,2,5.45,5.45,0,0,0,.86,3.27,2.81,2.81,0,0,0,2.4,1.17,2.89,2.89,0,0,0,2.37-1.1,4.55,4.55,0,0,0,.89-2.95,3.73,3.73,0,0,0-.81-2.52,2.74,2.74,0,0,0-2.19-.94A7,7,0,0,0,285.32,157.65Z"/></svg>