<svg id="Layer_2" data-name="Layer 2" xmlns="http://www.w3.org/2000/svg" viewBox="0 0 433.02 176.99"><defs><style>.cls-1{fill:#88201b;}.cls-2{fill:#acaeb0;}</style></defs><title>advantage</title><path class="cls-1" d="M52.3,73.15a7,7,0,0,0-3.25.57C48.52,74,48,74.8,43.92,89.05c-0.11.4-.19,0.79,0.18,0.85a18.52,18.52,0,0,0,3.64.13c7.75,0,10.6-6.35,10.6-11.23,0-2.8-1.43-5.64-6-5.64M47,91.44a26.22,26.22,0,0,0-3.41.09,1.11,1.11,0,0,0-.66.89c-4,14-4.44,16.81-3.76,17.56s1.76,1.07,4.92,1.07c7.18,0,12.08-5.23,12.08-11.85,0-4.28-3.29-7.74-9.17-7.74m5.06-1c-0.22,0-.39.5-0.1,0.5,7.29,0.92,10.08,4.81,10.08,9.18,0,6-6.78,12.37-18.12,12.37-1.6,0-4.05-.24-7.07-0.24s-7.87,0-9.51.24c-0.29,0-.52-0.62,0-0.75,1.47-.34,3.29-0.34,4.15-0.75,0.51-.21,1.25-1.76,6.15-18.84s5.12-18.68,4.66-18.94c-0.62-.41-2.21-0.41-3.54-0.74-0.38-.11-0.26-0.8,0-0.75,1.56,0.19,6.12.29,9.18,0.29s4-.28,5.54-0.28C60.28,71.78,64,75,64,79.64s-4.5,9.17-11.93,10.81"/><path class="cls-1" d="M78.27,88.49c-2.39,0-4.92,3.75-7.22,10.48,6.94-.91,8.85-5.3,8.85-8.37,0-1.31-.52-2.11-1.67-2.11M70.72,99.72a17.36,17.36,0,0,0-1.14,5.9c0,2.52,1.32,4.18,3.36,4.18,2.87,0,6-2.23,7.87-4.35a0.23,0.23,0,1,1,.34.29h0c-2,3.65-6.44,7.18-10.13,7.18-3.36,0-6.46-1.89-6.46-6.78,0-7.13,6.78-18.68,14.32-18.68,2.95,0,5.1,1.71,5.1,4.23,0,4.54-6.19,8.07-13.26,8.07"/><path class="cls-1" d="M98.57,93.65c-2.57,0-2.17-4.81-5.19-4.81-1.59,0-2.84,1.74-2.84,3.5,0,3.13,6.21,8.54,6.21,13,0,3.72-2.95,7.59-8.66,7.59-4.11,0-6.32-2.73-6.32-4.51a2.22,2.22,0,0,1,2.17-2.27H84c2.86,0,2.54,5.58,5.9,5.58,1.82,0,3.07-2,3.07-4,0-3.77-5.9-7.64-5.9-12.66,0-3.93,3.66-7.57,8.27-7.57,3.29,0,5.43,2.16,5.43,4a2.32,2.32,0,0,1-2.24,2.2"/><path class="cls-1" d="M117.84,90.46c-2-.12-2.18-0.18-5.71-0.18-2,5.25-4.43,11.58-5.9,15.73-0.86,2.51-.23,3.29.51,3.29,2.1,0,6.46-5.29,7-5.29,0.17,0,.29.12,0.17,0.29-1.71,2.95-6.78,8.61-10.54,8.61-1.87,0-3.59-1.82-2-5.9,2.1-5.37,4.21-11.4,6-16.71-2.23.06-2.85,0.06-4.55,0.18-0.5.06-.56-1.7,0.11-1.64,1.66,0.11,2.67.17,4.92,0.17,0.7-2,1.33-3.77,1.71-5a1,1,0,0,1,.92-0.29c1,0,4.15.29,3.93,0.87-0.45,1.18-1.07,2.78-1.77,4.44,3.34,0,3.28-.06,5.3-0.17,0.46-.06.51,1.7-0.11,1.64"/><path class="cls-1" d="M145.42,73.15a5.66,5.66,0,0,0-2.95.51c-0.5.22-2.1,4.84-6.14,19.09-0.13.45-.18,0.69,0.16,0.8a11.05,11.05,0,0,0,3.09.28c6.34,0,12.89-5.9,12.89-13.14,0-4.51-2.63-7.52-7.08-7.52m-9.69,21.72c-4.26,14.87-4.22,15.9-3.82,16.1,0.58,0.48,3,.4,4.34.75,0.47,0.12.29,0.8,0,.75-1.53-.19-5.29-0.24-8.32-0.24a68.32,68.32,0,0,0-7,.24c-0.34,0-.51-0.62,0-0.75,1.49-.34,3.24-0.28,4.11-0.75,0.56-.29,1.31-1.76,6.19-18.84s5.08-18.68,4.63-18.94-2.17-.41-3.48-0.74c-0.47-.11-0.29-0.8,0-0.75,1.53,0.19,5.53.29,8.54,0.29,2.68,0,4.34-.24,5.76-0.24,7.35,0,11.91,3.71,11.91,9.24,0,8.2-10.32,15.73-22.86,13.85"/><path class="cls-1" d="M159.5,105.39c-1.14,3.24-.63,3.77.38,3.77,1.27,0,5.41-3.77,6.56-5.21,0-.09.4,0.08,0.34,0.19-0.8,2-6.55,8.78-10.5,8.78-2.81,0-3.11-3.25-1.86-6.45,3.47-9.16,8-21.63,11.68-32.14,0.9-2.63-.24-3.87-4.33-3.87a0.34,0.34,0,0,1-.07-0.68c3-.36,10-0.69,10.54-0.69s0.64,0.33.34,1c-5.13,13.28-10.47,27.82-13.09,35.28"/><path class="cls-1" d="M183.71,89.21c-4.84,0-12,12.53-12,17.7,0,1.83.75,2.73,1.88,2.73s2.63-1,4.22-2.86c3.93-4.61,7.56-13.76,7.81-15.61a1.76,1.76,0,0,0-1.88-2m1.18,16.18c-1.11,3.09-.79,3.87.2,3.87,1.58,0,4.56-4.1,5.12-4.1a0.19,0.19,0,0,1,.17.29c-2,3.6-6.26,7.47-8.85,7.47a1.52,1.52,0,0,1-1.71-1.63,15.44,15.44,0,0,1,.86-4.29l1.2-3.65a0.53,0.53,0,0,0-.63-0.25c-3.57,6.06-7.11,9.83-10.2,9.83a4.44,4.44,0,0,1-4.46-4.43q0-.17,0-0.35c0-8.49,10.19-19.91,16.83-19.91a5.49,5.49,0,0,1,2.95.76c0.29,0.23.39,0.28,0.56,0.06,0.74-.92,1.54-2,2-2.63s3.19,0.18,3.09.52Z"/><path class="cls-1" d="M209,93.41c-2.85,0-2.23-4.09-4.92-4.09-3.64,0-7.23,8-7.23,15.44,0,3.47,1.55,5.11,3.93,5.11,2.57,0,4.68-1.75,6.88-4.68,0.1-.16.51-0.11,0.39,0.19-2.05,4.79-6.27,7.52-9.41,7.52-3.54,0-6.77-2.11-6.77-7.47,0-7.29,7.13-18,15.13-18,3.49,0,4.57,2.11,4.57,3.3A2.37,2.37,0,0,1,209,93.4"/><path class="cls-1" d="M223.87,88.49c-2.39,0-4.92,3.75-7.24,10.48,7-.91,8.9-5.3,8.9-8.37,0-1.31-.52-2.11-1.66-2.11m-7.52,11.23a17.58,17.58,0,0,0-1.14,5.9c0,2.52,1.31,4.18,3.38,4.18,2.84,0,6-2.23,7.87-4.35a0.23,0.23,0,0,1,.33.29c-2,3.65-6.44,7.18-10.15,7.18-3.36,0-6.43-1.89-6.43-6.78,0-7.13,6.77-18.68,14.3-18.68,2.95,0,5.13,1.71,5.13,4.23,0,4.54-6.23,8.07-13.29,8.07"/><path class="cls-1" d="M244.16,93.65c-2.57,0-2.17-4.81-5.18-4.81-1.6,0-2.85,1.74-2.85,3.5,0,3.13,6.2,8.54,6.2,13,0,3.72-2.95,7.59-8.67,7.59-4.09,0-6.31-2.73-6.31-4.51a2.24,2.24,0,0,1,2.21-2.27h0.08c2.85,0,2.5,5.58,5.9,5.58,1.82,0,3.06-2,3.06-4,0-3.77-5.9-7.64-5.9-12.66,0-3.93,3.62-7.57,8.26-7.57,3.29,0,5.41,2.16,5.41,4a2.3,2.3,0,0,1-2.22,2.2"/><path class="cls-1" d="M273.29,90.51c-2-.11-2.17-0.18-5.71-0.18-2,5.25-4.44,11.57-5.9,15.73-0.86,2.51-.23,3.3.51,3.3,2.1,0,6.44-5.3,6.94-5.3,0.2,0,.28.12,0.2,0.28-1.72,2.95-6.81,8.61-10.56,8.61-1.88,0-3.59-1.83-2-5.9,2.12-5.37,4.22-11.4,6.06-16.71-2.23.07-2.85,0.07-4.56,0.18-0.52.06-.56-1.71,0.12-1.65,1.65,0.11,2.67.17,4.92,0.17,0.68-2,1.31-3.76,1.69-5a1.06,1.06,0,0,1,.91-0.28c1,0,4.17.28,3.93,0.85-0.47,1.19-1.08,2.79-1.77,4.44,3.37,0,3.29-.07,5.31-0.17,0.47-.06.52,1.71-0.1,1.65"/><path class="cls-1" d="M283.84,88.57c-4.15,0-9.22,13.33-9.22,19.54,0,2.51.91,3.78,2.63,3.78,4.14,0,9.22-13.27,9.22-19.5,0-2.51-.91-3.82-2.63-3.82M277.07,113c-3.7,0-6.78-2.34-6.78-8,0-7,5.81-17.45,13.76-17.45,3.73,0,6.68,2.41,6.68,8.1,0,7-5.81,17.38-13.76,17.38"/><path class="cls-1" d="M329.68,73c-1.65,0-2.15.09-2.86,0.58-1.07.72-1.41,1.63-1.52,7.29,0,2-.13,3.59-0.13,5.76,5.71-7.41,7.87-10.81,7.87-12.09,0-1-1-1.52-3.31-1.52M351,75c-2.45,2.38-13.76,16.58-29.86,38.34a1.2,1.2,0,0,1-1.48-.19c0.24-9.62.29-14.59,0.33-19.66-4.17,5.42-9.22,12-15.05,19.84a1.27,1.27,0,0,1-1.53-.16c0.63-34,.29-38.8-0.9-39.67a18.51,18.51,0,0,0-3.6-.91c-0.38-.12-0.28-0.8,0-0.75a58.28,58.28,0,0,0,6.68.29c3.08,0,6.61-.11,8.21-0.29a0.38,0.38,0,0,1,0,.75c-1.48.34-2.16,0.17-3,.62s-1.47,1-1.65,7.77c-0.29,8.14-.46,16.8-0.51,24.73,0,0.17.27,0.11,0.4,0,3.75-4.8,7.33-9.58,11-14.3,0.06-14.82-.33-17.26-1.19-17.89a6.88,6.88,0,0,0-2.68-.91c-0.46,0-.3-0.8,0-0.75,1.54,0.19,5.64.29,13.22,0.29,5.81,0,11.16-.11,12.78-0.29,0.28,0,.5.7,0,0.75-3,.4-4.61,1.2-5.9,2.45s-4.17,4.72-11,13.76c-0.18,6-.21,10.21-0.35,16.87,0,0.17.3,0.11,0.39,0C335.85,91.49,348,75.71,348,74.11c0-.69-0.55-1.14-3.71-1.6-0.44,0-.28-0.8,0-0.75a49.16,49.16,0,0,0,6.27.29,43.65,43.65,0,0,0,5.9-.29,0.37,0.37,0,1,1,0,.75A8.72,8.72,0,0,0,351,75"/><path class="cls-1" d="M352.43,88.57c-4.16,0-9.23,13.33-9.23,19.54,0,2.51.9,3.78,2.62,3.78,4.16,0,9.22-13.27,9.22-19.5,0-2.51-.89-3.82-2.61-3.82M345.64,113c-3.71,0-6.77-2.34-6.77-8,0-7,5.79-17.42,13.79-17.42,3.7,0,6.71,2.41,6.71,8.1,0,7-5.81,17.38-13.76,17.38"/><path class="cls-1" d="M379.28,94.39c-2.64,0-1.4-3.24-2.95-3.24s-4,3-11.8,21c-0.17.41-1.59,0.53-2.43,0.53s-2.31-.07-2.11-0.53c3.53-9.57,6-17.16,6-19.19,0-1.2-.29-1.66-0.9-1.66-1.78,0-4.17,4.68-4.68,4.92-0.18.07-.45,0.07-0.39-0.17,1.87-4.54,5.57-8.55,8.26-8.55,1.7,0,2.27,1.55,2.27,3.32,0,2.23-1.08,5.8-3.24,12-0.1.23,0.56,0.33,0.56,0.23,4.45-10.81,7.65-15.73,11.33-15.73a2.95,2.95,0,0,1,3,3.21c0,2-1.36,3.88-2.89,3.88"/><path class="cls-1" d="M399.55,90.75c-3.19,0-11.1,5.7-14.52,10.59,5.7-1.08,16-6.56,16-9.11a1.35,1.35,0,0,0-1.49-1.48m4,24.58a2.64,2.64,0,0,1,2.38,2.86,3.7,3.7,0,0,1-3.67,3.72H402c-6,0-9.46-4.61-12.6-12.43-1.76-4.34-2.56-5.47-4.1-6.27a0.67,0.67,0,0,0-.87.06c-1.08,2.4-2.45,6.5-3.3,8.85-0.16.41-1.21,0.53-2.38,0.53s-2.42-.24-2.28-0.53c5.42-14.18,10.15-27.11,13.84-37.78,0.85-2.57-.23-3.87-4.35-3.87a0.31,0.31,0,0,1-.11-0.62c3.08-.39,10.15-0.73,10.61-0.73s0.61,0.33.32,1c-5.24,13.28-8.53,21.72-10.43,26.83a0.39,0.39,0,0,0,.47.24c3.81-6.27,7.75-9,11.23-9,2.88,0,4.55,2.33,4.55,5.13,0,4.92-7.18,9.3-17.7,8.77a13.07,13.07,0,0,1,9.36,8c2.95,7.06,5.38,10.59,9.05,10.59a4,4,0,0,1-1.84-3,2.16,2.16,0,0,1,1.91-2.39h0.14"/><polygon class="cls-1" points="146.99 51.78 146.99 40.32 142.41 40.32 142.41 51.78 138.07 51.78 138.07 24.51 142.41 24.51 142.41 36.34 146.99 36.34 146.99 24.51 151.34 24.51 151.34 51.78 146.99 51.78 146.99 51.78"/><path class="cls-1" d="M159.69,42.44c-2.05.7-3.07,1.85-3.07,3.39V47.4a1.46,1.46,0,0,0,1.13,1.74l0.25,0a1.81,1.81,0,0,0,1.73-1.89V42.44h0Zm3.48,9.67A2.62,2.62,0,0,1,160.51,50,3.82,3.82,0,0,1,157,52.12c-2.29,0-3.85-1.77-3.85-4.79v-1c0-3.6,2.78-5.33,6.56-6.72v-3a1.3,1.3,0,0,0-1.35-1.56c-1,0-1.32.58-1.32,1.63v1.72h-3.31V36.87c0-2.89,1.59-5,4.79-5s4.72,2.21,4.72,5.32V48.37a0.83,0.83,0,0,0,.65,1l0.15,0v2.76h-0.88Z"/><polygon class="cls-1" points="177.67 51.78 174.61 51.78 173.34 44 172.84 39.95 172.31 44 171.04 51.78 167.96 51.78 164.57 32.12 168.13 32.12 169.27 41.67 169.73 45.92 170.16 41.67 171.48 32.12 174.48 32.12 175.67 41.67 176.16 45.92 176.61 41.67 177.83 32.12 181.15 32.12 177.67 51.78 177.67 51.78"/><path class="cls-1" d="M188.24,42.44c-2.05.7-3.08,1.85-3.08,3.39V47.4c0,1,.44,1.73,1.35,1.73a1.81,1.81,0,0,0,1.73-1.89v-4.8h0Zm3.48,9.67A2.61,2.61,0,0,1,189.06,50a3.83,3.83,0,0,1-3.53,2.13c-2.3,0-3.85-1.77-3.85-4.79v-1c0-3.6,2.78-5.33,6.55-6.72v-3a1.3,1.3,0,0,0-1.35-1.56c-1,0-1.32.58-1.32,1.63v1.72h-3.31V36.87c0-2.89,1.59-5,4.78-5s4.71,2.21,4.71,5.32V48.37a0.83,0.83,0,0,0,.65,1l0.17,0v2.76h-0.84Z"/><path class="cls-1" d="M194.3,29.62v-3.8h3.48v3.81H194.3Zm-0.08,22.15V32.11h3.65V51.77h-3.65Z"/><path class="cls-1" d="M200.28,29.62v-3.8h3.47v3.81h-3.47Zm0,22.15V32.11h3.63V51.77h-3.63Z"/><path class="cls-2" d="M214.54,41.59a1.66,1.66,0,0,0-1.69-2h-2.09V48h2.3c1,0,1.48-.61,1.48-1.76V41.59h0Zm0-11.59c0-1.15-.5-1.76-1.52-1.76h-2.21v8.15h2.05a1.6,1.6,0,0,0,1.63-2V30h0Zm-1,21.79h-7.19V24.51h7c3,0,5.24,1.58,5.24,5.28v3.93c0,2.05-.78,3.53-2.7,4.1a3.83,3.83,0,0,1,2.79,4.1v4.54c0,3.74-2.26,5.28-5.24,5.28h0Z"/><path class="cls-2" d="M228,51.77l-0.2-2.37a3.71,3.71,0,0,1-3.49,2.71c-2.25,0-3.52-1.73-3.52-4.3V32.09h3.64V47.2a1.53,1.53,0,0,0,1.3,1.74h0.11c1,0,1.63-1.27,1.63-2.2V32.12h3.66V51.78H228Z"/><path class="cls-2" d="M238,52.12c-3.22,0-5-2-5-5.33V45.6h3.17v1.48c0,1.35.61,2,1.71,2a1.54,1.54,0,0,0,1.73-1.73c0-1.81-.9-2.51-3-4.46-1.92-1.44-3.4-3.23-3.4-5.9,0-3.24,2.05-5.16,4.84-5.16,3.15,0,4.79,2.13,4.79,5.16v1.22h-3V36.7A1.52,1.52,0,0,0,238.08,35a1.42,1.42,0,0,0-1.51,1.55c0,1.44.79,2.34,2.59,3.93,2.08,1.6,3.81,3.32,3.81,6.35s-1.68,5.29-4.92,5.29h0Z"/><path class="cls-2" d="M244.7,29.62v-3.8h3.48v3.81H244.7Zm-0.08,22.15V32.11h3.65V51.77h-3.65Z"/><path class="cls-2" d="M257.36,51.77v-15A1.51,1.51,0,0,0,256.08,35H256c-1,0-1.67,1.27-1.67,2.21V51.77h-3.65V32.11h3.23l0.21,2.59c0.66-2,2-2.86,3.44-2.86,2.21,0,3.48,1.71,3.48,4.3V51.77h-3.65Z"/><path class="cls-2" d="M269.72,36.87c0-1.09-.48-1.84-1.51-1.84a1.6,1.6,0,0,0-1.55,1.84v3.45h3.07V36.87h0Zm-1.54,15.25c-2.95,0-5.09-2.21-5.09-5.57V37.37c0-3.31,2.13-5.56,5.09-5.56s4.92,2.25,4.92,5.56v5h-6.39v4.67a1.56,1.56,0,0,0,1.3,1.79l0.26,0a1.53,1.53,0,0,0,1.56-1.81V44.69H273v1.88c0,3.32-1.89,5.54-4.92,5.54h0.07Z"/><path class="cls-2" d="M279.56,52.12c-3.23,0-5-2-5-5.33V45.6h3.15v1.48c0,1.35.63,2,1.73,2a1.54,1.54,0,0,0,1.72-1.73c0-1.81-.89-2.51-3-4.46-2-1.44-3.4-3.23-3.4-5.9,0-3.24,2-5.16,4.83-5.16,3.16,0,4.79,2.13,4.79,5.16v1.22h-3V36.7A1.53,1.53,0,0,0,279.89,35h-0.3a1.41,1.41,0,0,0-1.51,1.55c0,1.44.78,2.34,2.58,3.93,2.09,1.6,3.8,3.32,3.8,6.35s-1.67,5.29-4.92,5.29h0Z"/><path class="cls-2" d="M290.45,52.12c-3.23,0-5-2-5-5.33V45.6h3.15v1.48c0,1.35.61,2,1.71,2A1.53,1.53,0,0,0,292,47.32c0-1.81-.9-2.51-3-4.46-2-1.44-3.39-3.23-3.39-5.9,0-3.24,2-5.16,4.84-5.16,3.15,0,4.79,2.13,4.79,5.16v1.22h-3V36.7A1.53,1.53,0,0,0,290.79,35H290.5A1.41,1.41,0,0,0,289,36.58c0,1.44.78,2.34,2.59,3.93,2.08,1.6,3.81,3.32,3.81,6.35s-1.7,5.25-4.93,5.25h0Z"/><path class="cls-2" d="M151,156.82l-1,4H135v-4.39q0.79-.32,3.7-1.88a22.47,22.47,0,0,0,5-3.49,3.68,3.68,0,0,0,1.26-2.59q0-2.41-2.87-2.41-2.09,0-4.88,2.31l-2.88-3a13.25,13.25,0,0,1,9.07-3.57,7.63,7.63,0,0,1,5.11,1.62,5.33,5.33,0,0,1,2,4.28q0,3.31-3.38,5.86-0.79.58-2.41,1.51l-2.52,1.44-1,.47a27.26,27.26,0,0,1,3.49-.18H151v0Z"/><path class="cls-2" d="M162.47,142.07a7.89,7.89,0,0,1,6.22,2.61,11.53,11.53,0,0,1-.07,13.92,8.64,8.64,0,0,1-12.21.25l-0.21-.2a11.52,11.52,0,0,1,.07-13.92A7.91,7.91,0,0,1,162.47,142.07Zm3.24,9.68q0-3.53-1-5a2.54,2.54,0,0,0-2.31-1.19q-3.27,0-3.27,6,0,3.53,1,5a2.54,2.54,0,0,0,2.31,1.18q3.27,0,3.27-6h0Z"/><path class="cls-2" d="M179.67,142.07h3.23v14.86h2.88v3.91H174.38v-3.91h3.91v-9.32A20.93,20.93,0,0,1,174,149.7l-1.22-2.59Z"/><path class="cls-2" d="M194.63,142.07h3.24v14.86h2.88v3.91H189.34v-3.91h3.91v-9.32a20.93,20.93,0,0,1-4.32,2.09l-1.22-2.59Z"/><path class="cls-2" d="M210.58,148.91h8.64v4.17h-8.64v-4.17Z"/><path class="cls-2" d="M246,161.54H230.45V157c1.31-.67,1.64-0.67,3.85-1.94,5.16-2.91,6.46-4.59,6.46-6.31s-1.23-2.5-3-2.5-3,.67-5.08,2.39l-3-3.1a13.37,13.37,0,0,1,9.41-3.7c4.44,0,7.28,2.47,7.28,6.13,0,2.73-1.49,4.56-3.51,6.05-1.34,1-3.62,2.17-5.12,3.06-0.19.11-.6,0.3-1,0.49a32.92,32.92,0,0,1,3.62-.19h6.69Z"/><path class="cls-2" d="M258.94,162c-5.45,0-8.85-3.92-8.85-9.94s3.62-10,8.89-10c5.46,0,8.85,3.92,8.85,9.94S264.21,162,258.94,162Zm0-16.29c-2.54,0-3.4,2.47-3.4,6.24,0,5.27,1.46,6.39,3.36,6.39,2.54,0,3.4-2.47,3.4-6.24C262.35,146.83,260.89,145.7,259,145.7Z"/><path class="cls-2" d="M271.87,161.54v-4.07h4V147.8a21.61,21.61,0,0,1-4.48,2.17l-1.27-2.69,7.21-5.23h3.36v15.43h3v4.07H271.87Z"/><path class="cls-2" d="M300.59,146.79a64.18,64.18,0,0,0-7.84,15.65,50.52,50.52,0,0,0-1.08,5.19L286.17,169a70.25,70.25,0,0,1,2.69-9,60,60,0,0,1,3.29-7.51,38.09,38.09,0,0,1,3.47-5.75,6.12,6.12,0,0,1-1.49.15h-9.41l1.12-4.52h15.58Z"/></svg>