<?xml version="1.0" encoding="utf-8"?>
<!-- Generator: Adobe Illustrator 26.0.2, SVG Export Plug-In . SVG Version: 6.00 Build 0)  -->
<svg version="1.1" id="Layer_1" xmlns="http://www.w3.org/2000/svg" xmlns:xlink="http://www.w3.org/1999/xlink" x="0px" y="0px"
	 viewBox="0 0 200 202.4" style="enable-background:new 0 0 200 202.4;" xml:space="preserve">
<style type="text/css">
	.st0{fill:#F9B001;}
</style>
<g>
	<path class="st0" d="M134.9,109c-2.4,3.5-6.4,5.8-11,5.7c-2.3,0-4.5-0.7-6.4-1.7c4.8-7.1,4.8-16.5,0-23.6c1.9-1,4-1.6,6.2-1.6
		c4.6,0,8.6,2.3,11.1,5.9c1.9-1,3.6-2.3,5.2-3.9c5.3-5.3,7.5-12.4,6.6-18.9c0-0.3-0.1-0.6-0.2-0.9c-0.1-0.3-0.1-0.5-0.2-0.8
		c-0.1-0.4-0.2-0.8-0.3-1.2c-0.1-0.2-0.1-0.4-0.2-0.6c-0.1-0.4-0.3-0.7-0.4-1.1c-0.1-0.3-0.2-0.6-0.4-0.8c-0.1-0.3-0.2-0.5-0.4-0.8
		c-0.9-1.7-2-3.4-3.5-4.8c-7.9-7.9-21.3-7.4-29.8,1.2c-1.6,1.6-3,3.5-4,5.3c3.6,2.4,5.9,6.5,5.9,11.1c0,2.2-0.6,4.3-1.5,6.1
		c-7.1-4.8-16.5-4.8-23.6,0.1c-1-1.9-1.7-4-1.7-6.4c0-4.6,2.3-8.6,5.8-11c-1.1-1.9-2.4-3.8-4-5.4c-8.7-8.7-22-9.3-29.9-1.5
		c-7.8,7.8-7.2,21.2,1.5,29.9c1.6,1.6,3.4,2.9,5.3,4c2.4-3.5,6.4-5.7,11-5.7c2.4,0,4.5,0.7,6.5,1.8c-4.8,7.1-4.8,16.4-0.1,23.5
		c-1.9,1-3.9,1.6-6.2,1.6c-4.6,0-8.6-2.3-11.1-5.9c-1.9,1-3.7,2.3-5.3,3.9c-8.6,8.6-9.1,21.9-1.1,29.8c1,1,2,1.8,3.1,2.5
		c0.1,0.1,0.3,0.2,0.4,0.3c0.4,0.2,0.8,0.4,1.2,0.6c0.2,0.1,0.3,0.2,0.5,0.3c7.8,3.8,17.8,2.1,24.7-4.8c1.6-1.6,2.9-3.5,4-5.4
		c-3.5-2.4-5.9-6.5-5.9-11.2c0-2.2,0.6-4.3,1.5-6.1c7.1,4.8,16.6,4.8,23.7-0.1c1,1.9,1.7,4,1.7,6.3c0,4.6-2.3,8.7-5.8,11
		c1.1,1.9,2.4,3.8,4.1,5.4c8.7,8.7,22,9.3,29.9,1.5c0.9-0.9,1.7-1.9,2.4-3c0.1-0.2,0.2-0.4,0.4-0.6c0.2-0.3,0.3-0.6,0.5-0.9
		c0.1-0.3,0.3-0.5,0.4-0.8c0.1-0.2,0.2-0.4,0.3-0.7c0.1-0.3,0.3-0.6,0.4-1c0.2-0.6,0.3-1.1,0.5-1.6c0-0.1,0.1-0.3,0.1-0.4
		c1.6-7-0.6-15-6.4-20.9C138.6,111.4,136.8,110.1,134.9,109z"/>
	<path class="st0" d="M0,0v202.4h200V0H0z M152.1,153.3c-12,12-32.2,11.3-45-1.6c-1.1-1.1-2.1-2.3-3-3.5c0,0-2.8-3.1-4.1-7.2
		c-0.5,2.9-3.5,7.3-3.5,7.3c-0.9,1.2-1.8,2.3-2.9,3.4c-12.7,12.7-32.8,13.2-45,1c-12.1-12.1-11.7-32.3,1-45c1-1,4.3-3.5,3.7-3.1
		c-0.1,0-0.1,0.1-0.2,0.1c0.1-0.1,0.1-0.1,0.2-0.1c3.1-2,6.7-3.4,6.7-3.4c-2.9-1.1-7.1-4.1-7.1-4.1c-1.2-0.9-2.3-1.9-3.4-2.9
		c-12.9-12.9-13.6-33-1.6-45c12-12,32.1-11.3,45,1.6c0.9,0.9,3.1,3.7,3.1,3.6c-0.1-0.1-0.1-0.2-0.2-0.2c0.1,0.2,0.2,0.2,0.2,0.2
		c2.3,3.2,3.9,6.7,3.9,6.7c0.6-3.6,3.6-6.9,3.6-6.9c0.9-1.2,1.9-2.3,3-3.4c12.7-12.7,32.8-13.2,45-1c12.2,12.2,11.7,32.3-1,45
		c-1.1,1.1-2.2,2-3.4,2.9c0,0-4.9,3.5-6.6,3.5l6.7,4.1c1.2,0.9,2.3,1.9,3.4,3C163.4,121.1,164.1,141.3,152.1,153.3z"/>
</g>
</svg>
