<?xml version="1.0" encoding="utf-8"?>
<!-- Generator: Adobe Illustrator 26.0.2, SVG Export Plug-In . SVG Version: 6.00 Build 0)  -->
<svg version="1.1" id="Layer_1" xmlns="http://www.w3.org/2000/svg" xmlns:xlink="http://www.w3.org/1999/xlink" x="0px" y="0px"
	 viewBox="0 0 59.46 71" style="enable-background:new 0 0 59.46 71;" xml:space="preserve">
<style type="text/css">
	.st0{fill:#FFFFFF;}
	.st1{fill:#807F82;}
	.st2{fill:#8AC440;}
	.st3{fill:#81B941;}
	.st4{fill:#F9B001;}
	.st5{fill:#807F83;}
</style>
<g>
	<path class="st0" d="M39.73,37.73c-0.69,1-1.84,1.65-3.15,1.64c-0.67,0-1.29-0.19-1.84-0.5c1.38-2.04,1.38-4.72,0-6.76
		c0.53-0.28,1.14-0.45,1.79-0.45c1.32,0.01,2.48,0.67,3.18,1.68c0.53-0.3,1.04-0.67,1.5-1.12c1.52-1.52,2.15-3.55,1.88-5.43
		c-0.01-0.09-0.03-0.18-0.05-0.26c-0.02-0.08-0.03-0.15-0.05-0.22c-0.02-0.11-0.05-0.23-0.08-0.33c-0.02-0.06-0.04-0.11-0.06-0.17
		c-0.04-0.11-0.07-0.21-0.11-0.31c-0.03-0.08-0.06-0.16-0.1-0.24c-0.04-0.08-0.07-0.15-0.1-0.22c-0.26-0.5-0.59-0.97-1-1.38
		c-2.27-2.27-6.11-2.12-8.56,0.33c-0.47,0.47-0.85,0.99-1.15,1.53c1.03,0.7,1.69,1.87,1.7,3.19c0,0.64-0.16,1.23-0.43,1.75
		c-2.05-1.38-4.74-1.37-6.78,0.03c-0.3-0.55-0.49-1.16-0.49-1.82c-0.01-1.32,0.65-2.48,1.66-3.17c-0.31-0.55-0.69-1.08-1.16-1.55
		c-2.48-2.48-6.32-2.67-8.57-0.43c-2.24,2.24-2.06,6.08,0.43,8.57c0.46,0.46,0.98,0.84,1.52,1.14c0.69-0.99,1.85-1.65,3.15-1.64
		c0.68,0,1.31,0.2,1.86,0.51c-1.38,2.03-1.39,4.71-0.02,6.75c-0.53,0.28-1.13,0.45-1.78,0.45c-1.31-0.01-2.48-0.67-3.18-1.68
		c-0.54,0.3-1.05,0.67-1.51,1.13c-2.46,2.46-2.6,6.29-0.33,8.56c0.28,0.28,0.57,0.51,0.88,0.71c0.04,0.03,0.08,0.05,0.12,0.07
		c0.11,0.07,0.22,0.13,0.33,0.18c0.05,0.03,0.1,0.06,0.15,0.08c2.24,1.08,5.11,0.6,7.09-1.37c0.47-0.47,0.85-0.99,1.14-1.54
		c-1.02-0.7-1.69-1.88-1.71-3.2c0-0.63,0.16-1.22,0.43-1.75c2.05,1.39,4.75,1.38,6.79-0.02c0.29,0.54,0.48,1.15,0.48,1.81
		c0.01,1.32-0.65,2.48-1.66,3.17c0.31,0.56,0.69,1.08,1.17,1.56c2.49,2.49,6.32,2.68,8.56,0.43c0.27-0.27,0.5-0.55,0.69-0.85
		c0.03-0.05,0.07-0.11,0.1-0.16c0.05-0.08,0.1-0.17,0.14-0.26c0.04-0.07,0.08-0.16,0.12-0.24c0.03-0.06,0.06-0.13,0.08-0.2
		c0.04-0.1,0.08-0.18,0.11-0.28c0.05-0.16,0.1-0.31,0.14-0.47c0.01-0.03,0.02-0.07,0.03-0.11c0.47-2.01-0.16-4.32-1.85-6.01
		C40.79,38.41,40.28,38.04,39.73,37.73z"/>
	<path class="st0" d="M0,5.79V65.2h59.45V5.79H0z M44.67,50.44c-3.44,3.44-9.23,3.24-12.92-0.45c-0.32-0.32-0.6-0.66-0.87-1.01
		c0,0-0.79-0.88-1.19-2.07C29.57,47.74,28.71,49,28.71,49c-0.26,0.34-0.53,0.66-0.84,0.97c-3.64,3.64-9.42,3.77-12.91,0.28
		c-3.48-3.48-3.35-9.26,0.29-12.9c0.32-0.32,1.37-1.1,1-0.86c0.9-0.6,1.99-1.01,1.99-1.01c-0.82-0.3-2.04-1.16-2.04-1.16
		c-0.33-0.26-0.66-0.54-0.97-0.85c-3.69-3.69-3.89-9.47-0.45-12.91c3.45-3.45,9.22-3.24,12.91,0.45c0.26,0.26,0.9,1.05,0.9,1.04
		c0.67,0.91,1.11,1.92,1.11,1.92c0.16-1.02,1.02-1.97,1.02-1.97c0.26-0.33,0.54-0.66,0.85-0.97c3.64-3.64,9.41-3.78,12.9-0.29
		c3.49,3.49,3.36,9.26-0.28,12.91c-0.31,0.31-0.64,0.59-0.98,0.85c0,0-1.4,1-1.89,1l1.92,1.19c0.34,0.26,0.67,0.54,0.98,0.85
		C47.91,41.21,48.11,46.99,44.67,50.44z"/>
</g>
</svg>
