<?xml version="1.0" encoding="utf-8"?>
<!-- Generator: Adobe Illustrator 26.0.2, SVG Export Plug-In . SVG Version: 6.00 Build 0)  -->
<svg version="1.1" id="Layer_1" xmlns="http://www.w3.org/2000/svg" xmlns:xlink="http://www.w3.org/1999/xlink" x="0px" y="0px"
	 viewBox="0 0 489.42 71" style="enable-background:new 0 0 489.42 71;" xml:space="preserve">
<style type="text/css">
	.st0{fill:#FFFFFF;}
	.st1{fill:#807F82;}
	.st2{fill:#8AC440;}
	.st3{fill:#81B941;}
	.st4{fill:#F9B001;}
	.st5{fill:#807F83;}
</style>
<g>
	<g>
		<path class="st4" d="M39.35,37.73c-0.69,1-1.84,1.65-3.15,1.64c-0.67,0-1.29-0.19-1.84-0.5c1.38-2.04,1.38-4.72,0-6.76
			c0.53-0.28,1.14-0.45,1.79-0.45c1.32,0.01,2.48,0.67,3.18,1.68c0.53-0.3,1.04-0.67,1.5-1.12c1.52-1.52,2.15-3.55,1.88-5.43
			c-0.01-0.09-0.03-0.18-0.05-0.26c-0.02-0.08-0.03-0.15-0.05-0.22c-0.02-0.11-0.05-0.23-0.08-0.33c-0.02-0.06-0.04-0.11-0.06-0.17
			c-0.04-0.11-0.07-0.21-0.11-0.31c-0.03-0.08-0.06-0.16-0.1-0.24c-0.04-0.08-0.07-0.15-0.1-0.22c-0.26-0.5-0.59-0.97-1-1.38
			c-2.27-2.27-6.11-2.12-8.56,0.33c-0.47,0.47-0.85,0.99-1.15,1.53c1.03,0.7,1.69,1.87,1.7,3.19c0,0.64-0.16,1.23-0.43,1.75
			c-2.05-1.38-4.74-1.37-6.78,0.03c-0.3-0.55-0.49-1.16-0.49-1.82c-0.01-1.32,0.65-2.48,1.66-3.17c-0.31-0.55-0.69-1.08-1.16-1.55
			c-2.48-2.48-6.32-2.67-8.57-0.43c-2.24,2.24-2.06,6.08,0.43,8.57c0.46,0.46,0.98,0.84,1.52,1.14c0.69-0.99,1.85-1.65,3.15-1.64
			c0.68,0,1.31,0.2,1.86,0.51c-1.38,2.03-1.39,4.71-0.02,6.75c-0.53,0.28-1.13,0.45-1.78,0.45c-1.31-0.01-2.48-0.67-3.18-1.68
			c-0.54,0.3-1.05,0.67-1.51,1.13c-2.46,2.46-2.6,6.29-0.33,8.56c0.28,0.28,0.57,0.51,0.88,0.71c0.04,0.03,0.08,0.05,0.12,0.07
			c0.11,0.07,0.22,0.13,0.33,0.18c0.05,0.03,0.1,0.06,0.15,0.08c2.24,1.08,5.11,0.6,7.09-1.37c0.47-0.47,0.85-0.99,1.14-1.54
			c-1.02-0.7-1.69-1.88-1.71-3.2c0-0.63,0.16-1.22,0.43-1.75c2.05,1.39,4.75,1.38,6.79-0.02c0.29,0.54,0.48,1.15,0.48,1.81
			c0.01,1.32-0.65,2.48-1.66,3.17c0.31,0.56,0.69,1.08,1.17,1.56c2.49,2.48,6.32,2.68,8.56,0.43c0.27-0.27,0.5-0.55,0.69-0.85
			c0.04-0.05,0.07-0.11,0.1-0.16c0.05-0.08,0.1-0.17,0.14-0.26c0.04-0.07,0.08-0.16,0.12-0.24c0.03-0.06,0.06-0.13,0.08-0.2
			c0.04-0.1,0.08-0.18,0.11-0.28c0.05-0.16,0.1-0.31,0.14-0.47c0.01-0.03,0.02-0.07,0.03-0.11c0.47-2.01-0.16-4.32-1.85-6.01
			C40.41,38.41,39.9,38.04,39.35,37.73z"/>
		<path class="st4" d="M0,5.79V65.2h58.69V5.79H0z M44.29,50.44c-3.44,3.44-9.23,3.24-12.92-0.45c-0.32-0.32-0.6-0.66-0.87-1.01
			c0,0-0.79-0.88-1.19-2.07C29.19,47.74,28.33,49,28.33,49c-0.26,0.34-0.53,0.66-0.84,0.97c-3.64,3.64-9.42,3.77-12.91,0.28
			c-3.48-3.48-3.35-9.26,0.29-12.9c0.32-0.32,1.37-1.1,1-0.86c0.9-0.6,1.99-1.01,1.99-1.01c-0.82-0.3-2.04-1.16-2.04-1.16
			c-0.33-0.26-0.66-0.54-0.97-0.85c-3.69-3.69-3.89-9.47-0.45-12.91c3.45-3.45,9.22-3.24,12.91,0.45c0.26,0.26,0.9,1.05,0.9,1.04
			c0.67,0.91,1.11,1.92,1.11,1.92c0.16-1.02,1.02-1.97,1.02-1.97c0.26-0.33,0.54-0.66,0.85-0.97c3.64-3.64,9.41-3.78,12.9-0.29
			c3.49,3.49,3.36,9.26-0.28,12.91c-0.31,0.31-0.64,0.59-0.98,0.85c0,0-1.4,1-1.89,1l1.92,1.19c0.34,0.26,0.67,0.54,0.98,0.85
			C47.53,41.21,47.73,46.99,44.29,50.44z"/>
	</g>
	<g>
		<path class="st0" d="M101.76,32.08h-1.25l-0.16-0.31c-0.9-1.72-2.07-4.03-3.4-5.47c-1.72-1.84-3.95-2.7-6.49-2.7
			c-3.01,0-5.36,1.37-6.92,3.83c-1.52,2.46-1.99,5.55-1.99,8.44c0,2.7,0.55,5.86,2.19,8.09c1.72,2.35,4.57,3.68,7.51,3.68
			c3.99,0,7.7-2.46,9.66-5.86l1.68,0.94c-2.58,4.5-6.8,6.88-11.96,6.88c-8.09,0-13.76-5.86-13.76-13.92
			c0-7.47,5.43-14.03,13.13-14.03c2.85,0,5.63,0.86,7.78,2.81l0.86-1.8h1.25L101.76,32.08z"/>
		<path class="st0" d="M126.05,47.92c-0.94,0.9-2.54,1.33-3.83,1.33h-0.16c-1.92-0.04-3.67-0.9-4.26-2.81
			c-2.31,1.8-4.42,2.81-7.35,2.81c-2.74,0-5.98-1.49-5.98-4.61c0-2.66,1.64-3.91,3.87-4.89c2.07-0.94,4.34-1.37,6.57-1.6l2.89-0.31
			v-2.81c-0.08-1.21-0.27-2.23-1.37-2.97c-1.02-0.66-2.35-0.82-3.52-0.82c-1.21,0-3.75,0.59-3.75,2.07v0.51
			c0,1.29-0.51,2.35-1.99,2.35c-0.94,0-1.84-0.74-1.84-1.72c0-1.64,1.8-3.09,3.17-3.67c1.64-0.7,3.75-1.1,5.51-1.13h0.16
			c1.64,0,3.67,0.55,5.08,1.29c2.11,1.13,2.31,2.62,2.31,4.81v7.66c0,1.64,0.24,4.1,2.15,4.1c0.59,0,1.13-0.27,1.6-0.59
			L126.05,47.92z M117.81,39.2c-2.97,0.27-9.38,1.09-9.38,4.96c0,1.99,1.68,3.17,3.56,3.17c2.11,0,4.22-1.25,5.82-2.62V39.2z"/>
		<path class="st0" d="M133.8,43.97c0,2.11,0.31,3.6,2.7,3.75l0.47,0.04v1.17h-10.24v-1.17h0.35c2.54-0.2,2.97-1.45,2.97-3.79V27.2
			c0-2.03-0.2-3.6-2.93-3.79l-0.55-0.04v-1.17c1.92-0.24,3.83-0.55,5.67-1.29h1.56V43.97z"/>
		<path class="st0" d="M146.49,43.97c0,2.15,0.35,3.6,2.77,3.79h0.47v1.17h-10.32v-1.17h0.35c2.58-0.16,2.97-1.41,2.97-3.79v-8.13
			c0-2.19-0.39-3.64-2.85-3.79h-0.63v-1.17l5.98-0.86h1.25V43.97z M144.61,28.06c-1.37,0-2.31-1.09-2.31-2.42
			c0-1.21,1.13-2.27,2.35-2.27c1.37,0,2.35,1.09,2.35,2.42C146.99,27.08,145.86,28.06,144.61,28.06z"/>
		<path class="st0" d="M163.85,31.26h-3.87v12.7c0,2.15,0.31,3.6,2.74,3.75l0.55,0.04v1.17H152.9v-1.17h0.35
			c2.54-0.16,2.97-1.45,2.97-3.79v-12.7h-3.32v-1.25h3.32v-1.6c0-2.07,0.08-3.91,1.68-5.51c1.72-1.72,4.65-2.66,7.08-2.66
			c1.29,0,3.32,0.62,3.32,2.23c0,0.98-0.9,1.72-1.84,1.72c-1.84,0-1.8-2.27-3.71-2.27c-0.66,0-1.45,0.43-1.91,0.9
			c-0.82,0.82-0.86,1.88-0.86,3.01v4.18h3.87V31.26z"/>
		<path class="st0" d="M181.86,32.08c1.92,1.88,2.85,4.81,2.85,7.43c0,5.9-3.68,9.73-9.58,9.73c-5.79,0-9.54-3.83-9.54-9.58
			c0-5.82,3.4-10.05,9.42-10.05C177.44,29.62,180.06,30.33,181.86,32.08z M175.18,31.19c-4.42,0-5.51,4.81-5.51,8.37
			c0,3.79,1.09,8.13,5.75,8.13c4.26,0,5.24-4.42,5.24-7.86c0-1.8-0.16-4.06-0.98-5.71c-0.82-1.68-2.46-2.93-4.38-2.93H175.18z"/>
		<path class="st0" d="M194.06,43.97c0.08,2.23,0.39,3.64,2.89,3.75l0.66,0.04v1.17h-10.75v-1.17h0.43
			c2.58-0.16,3.01-1.37,3.01-3.79v-8.13c0-2.19-0.39-3.64-2.85-3.79h-0.63v-1.17l5.98-0.86h1.25v2.93c1.72-1.76,3.95-3.32,6.57-3.32
			c1.29,0,2.89,0.51,2.89,2.07c0,1.25-0.94,2.11-2.15,2.11c-1.84,0-2.27-1.29-3.48-1.29c-1.33,0-2.97,1.21-3.83,2.15V43.97z"/>
		<path class="st0" d="M226.29,44.01c0,2.11,0.35,3.6,2.77,3.75h0.51v1.17h-10.4v-1.17h0.55c2.46-0.16,2.81-1.6,2.81-3.79v-8.05
			c0-1.02-0.12-1.99-0.63-2.85c-0.59-0.94-1.68-1.41-2.74-1.41c-2.58,0-5.08,1.49-6.96,3.13v9.19c0,2.19,0.35,3.64,2.81,3.79h0.55
			v1.17h-10.59v-1.17h0.43c2.58-0.12,3.05-1.33,3.05-3.79v-8.13c0-2.19-0.39-3.64-2.85-3.79h-0.63v-1.17l5.98-0.86h1.25v3.09
			c2.35-2.19,5.08-3.48,8.33-3.48c1.53,0,3.09,0.55,4.22,1.56c1.33,1.13,1.53,2.42,1.53,4.07V44.01z"/>
		<path class="st0" d="M238.51,43.97c0,2.15,0.35,3.6,2.77,3.79h0.47v1.17h-10.32v-1.17h0.35c2.58-0.16,2.97-1.41,2.97-3.79v-8.13
			c0-2.19-0.39-3.64-2.85-3.79h-0.63v-1.17l5.98-0.86h1.25V43.97z M236.63,28.06c-1.37,0-2.31-1.09-2.31-2.42
			c0-1.21,1.13-2.27,2.35-2.27c1.37,0,2.35,1.09,2.35,2.42C239.01,27.08,237.88,28.06,236.63,28.06z"/>
		<path class="st0" d="M265.17,47.92c-0.94,0.9-2.54,1.33-3.83,1.33h-0.16c-1.92-0.04-3.67-0.9-4.26-2.81
			c-2.31,1.8-4.42,2.81-7.35,2.81c-2.74,0-5.98-1.49-5.98-4.61c0-2.66,1.64-3.91,3.87-4.89c2.07-0.94,4.34-1.37,6.57-1.6l2.89-0.31
			v-2.81c-0.08-1.21-0.27-2.23-1.37-2.97c-1.02-0.66-2.35-0.82-3.52-0.82c-1.21,0-3.75,0.59-3.75,2.07v0.51
			c0,1.29-0.51,2.35-1.99,2.35c-0.94,0-1.84-0.74-1.84-1.72c0-1.64,1.8-3.09,3.17-3.67c1.64-0.7,3.75-1.1,5.51-1.13h0.16
			c1.64,0,3.67,0.55,5.08,1.29c2.11,1.13,2.31,2.62,2.31,4.81v7.66c0,1.64,0.24,4.1,2.15,4.1c0.59,0,1.13-0.27,1.6-0.59
			L265.17,47.92z M256.92,39.2c-2.97,0.27-9.38,1.09-9.38,4.96c0,1.99,1.68,3.17,3.56,3.17c2.11,0,4.22-1.25,5.82-2.62V39.2z"/>
		<path class="st0" d="M296,43.07c0.98,2.42,1.56,4.77,4.65,4.93v1.17h-10.98V48c1.29-0.16,3.05-0.43,3.05-1.95
			c0-0.66-0.35-1.56-0.59-2.15l-1.76-4.61h-10.05l-1.09,2.93c-0.31,0.82-0.9,2.35-0.9,3.24c0,1.95,1.56,2.35,3.44,2.54v1.17h-10.48
			V48l0.43-0.08c1.88-0.43,2.54-0.9,3.52-2.62c0.9-1.6,1.88-4.22,2.54-5.98l6.53-16.77h3.64L296,43.07z M289.67,37.52l-4.46-11.61
			l-4.34,11.61H289.67z"/>
		<path class="st0" d="M318.79,45.14c-1.92,3.01-4.81,4.34-8.37,4.34c-5.82,0-9.66-3.83-9.66-9.66c0-5.9,3.6-9.97,9.62-9.97
			c1.88,0,3.64,0.35,5.24,1.37c1.29,0.82,2.66,2.19,2.66,3.83c0,1.17-0.78,2.15-1.99,2.15c-1.06,0-1.99-0.78-1.99-1.88
			c0-0.51,0.16-0.98,0.16-1.49c0-1.72-2.54-2.5-3.87-2.5c-4.5,0-5.32,4.85-5.36,8.41v0.12c0,3.95,1.76,8.09,6.33,8.09
			c2.74,0,4.5-1.52,6.1-3.56L318.79,45.14z"/>
		<path class="st0" d="M338.64,45.14c-1.92,3.01-4.81,4.34-8.37,4.34c-5.82,0-9.66-3.83-9.66-9.66c0-5.9,3.6-9.97,9.62-9.97
			c1.88,0,3.64,0.35,5.24,1.37c1.29,0.82,2.66,2.19,2.66,3.83c0,1.17-0.78,2.15-1.99,2.15c-1.06,0-1.99-0.78-1.99-1.88
			c0-0.51,0.16-0.98,0.16-1.49c0-1.72-2.54-2.5-3.87-2.5c-4.5,0-5.32,4.85-5.36,8.41v0.12c0,3.95,1.76,8.09,6.33,8.09
			c2.74,0,4.5-1.52,6.1-3.56L338.64,45.14z"/>
		<path class="st0" d="M357.22,32.32c1.92,1.88,2.85,4.81,2.85,7.43c0,5.9-3.68,9.73-9.58,9.73c-5.79,0-9.54-3.83-9.54-9.58
			c0-5.82,3.4-10.05,9.42-10.05C352.8,29.86,355.42,30.56,357.22,32.32z M350.53,31.42c-4.42,0-5.51,4.81-5.51,8.37
			c0,3.79,1.09,8.13,5.75,8.13c4.26,0,5.24-4.42,5.24-7.86c0-1.8-0.16-4.06-0.98-5.71c-0.82-1.68-2.46-2.93-4.38-2.93H350.53z"/>
		<path class="st0" d="M383.72,44.24c0,2.11,0.23,3.79,2.35,3.79h0.27l0.59-0.04v1.17h-6.96v-3.24c-2.23,2.15-5.04,3.56-8.4,3.56
			c-1.64,0-3.56-0.43-4.69-1.68c-1.17-1.29-1.21-2.78-1.21-4.42v-7.31c0-2.19-0.39-3.64-2.85-3.79h-0.63v-1.17l5.98-0.86h1.25V43.3
			c0,0.94,0.04,2.11,0.43,2.81c0.59,1.02,1.88,1.45,2.97,1.45c2.77,0,5.36-1.56,7.15-3.32v-8.17c0-2.19-0.39-3.64-2.85-3.79h-0.63
			v-1.17l5.98-0.86h1.25V44.24z"/>
		<path class="st0" d="M410.08,44.24c0,2.11,0.35,3.6,2.77,3.75h0.51v1.17h-10.4V48h0.55c2.46-0.16,2.81-1.6,2.81-3.79v-8.05
			c0-1.02-0.12-1.99-0.63-2.85c-0.59-0.94-1.68-1.41-2.74-1.41c-2.58,0-5.08,1.49-6.96,3.13v9.19c0,2.19,0.35,3.64,2.81,3.79h0.55
			v1.17h-10.59V48h0.43c2.58-0.12,3.05-1.33,3.05-3.79v-8.13c0-2.19-0.39-3.64-2.85-3.79h-0.63v-1.17l5.98-0.86H396v3.09
			c2.35-2.19,5.08-3.48,8.33-3.48c1.53,0,3.09,0.55,4.22,1.56c1.33,1.13,1.53,2.42,1.53,4.07V44.24z"/>
		<path class="st0" d="M426.68,31.5h-5.55v10.99c0,2.19,0,5.32,2.97,5.32c1.41,0,2.46-0.78,3.4-1.72l0.98,0.86
			c-1.29,1.76-3.4,2.54-5.51,2.54c-1.29,0-2.78-0.27-3.87-0.94c-1.56-1.02-1.72-2.54-1.72-4.26V31.5h-3.28v-1.25
			c4.5-0.16,5.36-3.32,5.36-7.15h1.68v7.15h5.55V31.5z"/>
		<path class="st0" d="M437.14,44.2c0,2.15,0.35,3.6,2.77,3.79h0.47v1.17h-10.32V48h0.35c2.58-0.16,2.97-1.41,2.97-3.79v-8.13
			c0-2.19-0.39-3.64-2.85-3.79h-0.63v-1.17l5.98-0.86h1.25V44.2z M435.27,28.29c-1.37,0-2.31-1.09-2.31-2.42
			c0-1.21,1.13-2.27,2.35-2.27c1.37,0,2.35,1.09,2.35,2.42C437.65,27.32,436.52,28.29,435.27,28.29z"/>
		<path class="st0" d="M463.42,44.24c0,2.11,0.35,3.6,2.77,3.75h0.51v1.17h-10.4V48h0.55c2.46-0.16,2.81-1.6,2.81-3.79v-8.05
			c0-1.02-0.12-1.99-0.63-2.85c-0.59-0.94-1.68-1.41-2.74-1.41c-2.58,0-5.08,1.49-6.96,3.13v9.19c0,2.19,0.35,3.64,2.81,3.79h0.55
			v1.17h-10.59V48h0.43c2.58-0.12,3.05-1.33,3.05-3.79v-8.13c0-2.19-0.39-3.64-2.85-3.79h-0.63v-1.17l5.98-0.86h1.25v3.09
			c2.35-2.19,5.08-3.48,8.33-3.48c1.53,0,3.09,0.55,4.22,1.56c1.33,1.13,1.53,2.42,1.53,4.07V44.24z"/>
		<path class="st0" d="M482.36,47.37c2.97,0.39,6.29,0.98,6.29,4.77c0,5.36-6.33,6.53-10.52,6.53c-3.17,0-9.85-0.78-9.85-5
			c0-2.23,2.23-3.52,4.06-4.1v-0.08c-1.52-0.39-2.85-1.45-2.85-3.17c0-2.15,1.88-3.64,3.83-3.99c-1.92-1.13-3.09-3.13-3.09-5.36
			v-0.23c0.16-4.34,3.83-6.88,7.86-6.88c1.21,0,2.42,0.23,3.56,0.63c0.94-1.8,2.74-3.48,4.85-3.48c1.06,0,2.31,0.43,2.31,1.68
			c0,0.78-0.59,1.49-1.45,1.49c-0.9,0-1.64-0.7-2.46-0.7c-0.82,0-1.56,0.9-2.07,1.49c1.99,1.45,3.24,3.32,3.24,5.86
			c0,1.84-0.94,3.79-2.38,4.93c-1.56,1.29-3.71,1.64-5.71,1.64c-1.25,0-2.35-0.2-3.52-0.63c-0.78,0.31-1.88,1.17-1.88,2.07
			c0,1.37,2.15,1.52,3.09,1.64L482.36,47.37z M473.8,49.91c-1.49,0.47-3.17,1.8-3.17,3.48c0,3.44,5.24,4.03,7.74,4.03
			c2.46,0,7.54-0.55,7.54-3.95c0-2.19-2.81-2.42-4.42-2.62L473.8,49.91z M474.03,36.7c0,2.93,0.78,5.4,4.22,5.4
			c1.33,0,2.78-0.63,3.4-1.84c0.51-0.98,0.62-2.58,0.62-3.67c0-2.85-0.7-5.32-4.03-5.32C475.01,31.26,474.03,33.96,474.03,36.7z"/>
	</g>
</g>
</svg>
