<?xml version="1.0" encoding="utf-8"?>
<!-- Generator: Adobe Illustrator 26.0.2, SVG Export Plug-In . SVG Version: 6.00 Build 0)  -->
<svg version="1.1" id="Layer_1" xmlns="http://www.w3.org/2000/svg" xmlns:xlink="http://www.w3.org/1999/xlink" x="0px" y="0px"
	 viewBox="0 0 200 230.9" style="enable-background:new 0 0 200 230.9;" xml:space="preserve">
<style type="text/css">
	.st0{fill:#8AC440;}
</style>
<g>
	<g>
		<g>
			<g>
				<path class="st0" d="M100,0L0,57.7v115.4l100,57.7l100-57.7V57.7L100,0z M131.5,91.4c14.1,0,25.5,10.7,25.5,24
					s-11.4,24.1-25.5,24.1c-1.2,0-2.4-0.1-3.5-0.2c5.1,3.8,11.5,5.9,17.9,5.7c6.4-0.3,12.5-2.8,17.1-7.2
					c-3.8,9.7-13.1,16.5-23.5,17.2c-0.6,10.4-7.5,19.7-17.2,23.4c4.4-4.6,6.9-10.7,7.2-17.1c0.2-6.4-1.8-12.7-5.5-17.9
					c0.1,1.2,0.2,2.3,0.2,3.5c0,14.1-10.8,25.5-24.1,25.5S76,161,76,146.9c0-1.1,0.1-2.3,0.3-3.5c-3.8,5.2-5.9,11.5-5.6,17.9
					c0.2,6.3,2.7,12.5,7.1,17.1c-5.7-2.3-10.5-6.3-13.6-11.6c-1.8-3.1-2.9-6.5-3.4-10c-0.1-0.5-0.1-0.9-0.2-1.4
					c0-0.3,0.1-0.4-0.2-0.5c-0.2,0-0.4,0-0.6,0c-0.8-0.1-1.6-0.2-2.5-0.3c-1.7-0.3-3.4-0.8-5-1.5c-6.9-2.7-12.4-8.3-15.1-15.2
					c4.6,4.4,10.7,6.9,17.1,7.2c6.4,0.2,12.7-1.9,17.9-5.6c-1.1,0.1-2.3,0.2-3.5,0.2c-14.1,0-25.4-10.8-25.4-24.1
					c0-13.3,11.4-24,25.4-24c1.2,0,2.5,0.1,3.5,0.2c-5.1-3.8-11.4-5.8-17.9-5.6c-6.3,0.3-12.4,2.7-17.1,7.1
					c2.2-5.6,6.4-10.6,11.6-13.6c3.1-1.7,6.5-2.9,10-3.3c0.5,0,0.9-0.1,1.4-0.2c0.3,0,0.5,0.2,0.5-0.2c0-0.2,0-0.4,0-0.6
					c0.1-0.9,0.2-1.7,0.4-2.6c0.3-1.7,0.8-3.4,1.4-5c2.7-6.9,8.4-12.4,15.3-15.1c-4.3,4.6-6.9,10.7-7.1,17.1
					c-0.3,6.3,1.8,12.6,5.6,17.8C76.1,86.2,76,85,76,83.9c0-14.1,10.8-25.5,24-25.5c13.3,0,24.1,11.4,24.1,25.5
					c0,1.2-0.1,2.4-0.3,3.6c3.8-5.1,5.9-11.5,5.7-17.9c-0.2-6.4-2.8-12.5-7.2-17.1c5.7,2.2,10.6,6.4,13.6,11.6
					c1.8,3.1,2.9,6.5,3.3,10c0.1,0.5,0.1,0.9,0.2,1.4c0,0.3-0.1,0.4,0.3,0.4c0.2,0,0.4,0.1,0.6,0.1c0.8,0.1,1.7,0.2,2.5,0.3
					c1.7,0.3,3.4,0.8,5,1.4c6.9,2.8,12.4,8.4,15.1,15.3c-4.6-4.4-10.7-6.8-17.1-7.1c-6.4-0.2-12.7,1.7-17.8,5.6
					C129.2,91.4,130.3,91.4,131.5,91.4z"/>
			</g>
		</g>
		<g>
			<path class="st0" d="M120.5,109.8c-4.1,4.1-10.7,4.1-14.8,0c-4.1-4.1-4.1-10.7,0-14.8c2.5-2.5,6.1-3.5,9.3-2.9
				c0.5-1.6,0.8-3.4,0.8-5.2c0-9.5-7.1-17.2-15.7-17.2c-1,0-2,0.1-3,0.3c-0.2,0-0.3,0-0.5,0.1c-0.3,0-0.5,0.1-0.8,0.2
				c-0.2,0.1-0.5,0.2-0.7,0.3c-0.2,0.1-0.3,0.1-0.5,0.2c-0.3,0.1-0.5,0.2-0.8,0.3c-0.3,0.2-0.8,0.4-1.2,0.6
				c-0.1,0.1-0.1,0.2-0.2,0.2c-4.8,3-8,8.5-8,15c0,1.8,0.3,3.5,0.7,5.1c3.3-0.6,6.7,0.3,9.2,2.9c4.1,4,4.1,10.7,0,14.7
				c-4,4.2-10.7,4.2-14.8,0c-2.5-2.5-3.5-6-2.8-9.2c-1.6-0.5-3.3-0.7-5.1-0.7c-5.9,0-11,2.7-14.1,6.7c-0.2,0.2-0.3,0.5-0.4,0.7
				c-0.1,0.1-0.2,0.3-0.3,0.5c-0.1,0.2-0.3,0.5-0.5,0.8c-0.1,0.1-0.2,0.3-0.3,0.5c-0.1,0.3-0.2,0.5-0.4,0.8
				c-0.1,0.2-0.2,0.4-0.2,0.7c0,0.1-0.1,0.3-0.2,0.5c-0.5,1.5-0.7,3-0.7,4.5c0,8.7,7.7,15.7,17.2,15.7c1.8,0,3.5-0.3,5.2-0.7
				c-0.6-3.3,0.3-6.8,2.9-9.3c4.1-4.1,10.7-4.1,14.8,0c4.1,4.1,4.1,10.7,0,14.7c-2.6,2.6-6,3.5-9.3,2.9c-0.4,1.6-0.7,3.3-0.7,5.2
				c0,9.5,7,17.1,15.7,17.1s15.7-7.6,15.7-17.1c0-1.8-0.3-3.5-0.7-5.1c-3.3,0.6-6.8-0.4-9.3-2.9c-4.1-4-4.1-10.7,0-14.7
				c4.1-4.1,10.7-4.1,14.8,0c2.6,2.5,3.5,5.9,2.9,9.2c1.6,0.5,3.3,0.7,5.1,0.7c9.5,0,17.2-7,17.2-15.7c0-1.1-0.1-2.1-0.3-3
				c0-0.1,0-0.3-0.1-0.4c-0.1-0.3-0.2-0.6-0.3-0.9c0-0.2-0.1-0.3-0.2-0.5c-2.3-6.4-8.7-10.9-16.3-10.9c-1.8,0-3.6,0.3-5.2,0.7
				C123.9,103.7,123,107.3,120.5,109.8z"/>
		</g>
	</g>
</g>
</svg>
