<?xml version="1.0" encoding="utf-8"?>
<!-- Generator: Adobe Illustrator 26.0.2, SVG Export Plug-In . SVG Version: 6.00 Build 0)  -->
<svg version="1.1" id="Layer_1" xmlns="http://www.w3.org/2000/svg" xmlns:xlink="http://www.w3.org/1999/xlink" x="0px" y="0px"
	 viewBox="0 0 297.02 71" style="enable-background:new 0 0 297.02 71;" xml:space="preserve">
<style type="text/css">
	.st0{fill:#FFFFFF;}
	.st1{fill:#807F82;}
	.st2{fill:#8AC440;}
	.st3{fill:#81B941;}
	.st4{fill:#F9B001;}
	.st5{fill:#807F83;}
</style>
<g>
	<g>
		<path class="st0" d="M77.52,47.78l0.36-0.04c1.07-0.12,2.14-0.24,2.73-1.27c0.51-0.91,0.43-2.65,0.43-3.68V28.25
			c0-2.65,0.28-4.71-2.97-4.98l-0.55-0.04v-1.19h11.7c3.91,0,8.26,0.32,11.59,2.65c3.36,2.45,5.22,6.88,5.22,10.99
			c0,4.07-1.7,8.19-5.02,10.64c-3.48,2.57-7.67,2.65-11.78,2.65h-11.7V47.78z M84.99,43.39c0,0.91,0.04,2.45,0.79,3.12
			c0.79,0.67,3.16,0.79,4.15,0.79c7.51,0,11.35-4.59,11.35-11.98c0-3.12-0.75-6.6-3.04-8.86c-2.1-2.1-5.42-2.89-8.34-2.89
			c-1.07,0-3.68,0.12-4.35,1.07c-0.43,0.63-0.55,2.33-0.55,3.12V43.39z"/>
		<path class="st0" d="M112.78,37.54l-0.08,2.02c0,1.82,0.67,3.95,1.7,5.5c1.11,1.62,3.08,2.45,5.02,2.45c2.69,0,4.55-1.3,5.81-3.64
			l1.3,0.67c-1.42,3.12-4.71,4.74-8.07,4.74c-2.65,0-4.98-0.71-6.92-2.57c-1.94-1.94-2.97-4.71-2.97-7.39c0-5.73,3.6-9.85,9.45-9.89
			c4.74-0.04,8.58,3.16,8.5,8.11H112.78z M122.35,35.92c0-2.93-1.86-4.86-4.55-4.86c-2.81,0-4.67,2.33-4.94,4.86H122.35z"/>
		<path class="st0" d="M135.68,43.95c0,2.18,0.36,3.64,2.81,3.84h0.43v1.19h-10.08v-1.19c2.69-0.24,3.05-1.58,3.05-3.84v-8.22
			c0-2.21-0.4-3.68-2.89-3.84h-0.63V30.7l6.05-0.87h1.27v2.73c1.74-1.86,4.43-3.12,7.43-3.12c2.53,0,4.31,0.71,5.46,3.12
			c1.98-1.74,4.75-3.04,7.24-3.12c1.7-0.04,3.56,0.55,4.63,1.98c0.87,1.15,0.95,2.49,0.95,3.84v8.7c0,2.14,0.32,3.6,3,3.84v1.19
			h-10.04v-1.19h0.32c2.53-0.2,2.93-1.5,2.93-3.84v-7.83c0-0.87,0-1.82-0.32-2.69c-0.47-1.19-1.54-1.94-2.81-1.94
			c-2.1,0-4.19,1.27-5.93,2.61v9.85c0,2.33,0.4,3.64,2.93,3.84h0.32v1.19h-10.28v-1.19h0.32c2.53-0.2,2.93-1.5,2.93-3.84V36
			c0-2.18-0.16-4.51-2.97-4.51c-2.29,0-4.55,1.27-6.09,2.61V43.95z"/>
		<path class="st0" d="M187.27,47.94c-0.99,0.95-2.73,1.38-4.03,1.34c-1.94-0.04-3.72-0.91-4.31-2.85
			c-2.33,1.82-4.47,2.85-7.43,2.85c-2.77,0-6.05-1.5-6.05-4.67c0-2.69,1.66-3.95,3.91-4.94c2.1-0.95,4.39-1.38,6.64-1.62l2.93-0.32
			v-2.85c-0.08-1.23-0.28-2.25-1.38-3c-1.03-0.67-2.37-0.83-3.56-0.83c-1.23,0-3.8,0.59-3.8,2.1v0.51c0,1.31-0.51,2.37-2.02,2.37
			c-0.95,0-1.86-0.75-1.86-1.74c0-1.66,1.82-3.12,3.2-3.72c1.66-0.71,3.8-1.11,5.57-1.15c1.66-0.04,3.84,0.51,5.3,1.31
			c2.14,1.15,2.33,2.65,2.33,4.86v7.75c0,1.66,0.24,4.15,2.17,4.15c0.59,0,1.15-0.28,1.62-0.59L187.27,47.94z M178.93,39.12
			c-3.01,0.28-9.49,1.11-9.49,5.02c0,2.02,1.7,3.2,3.6,3.2c2.14,0,4.27-1.27,5.89-2.65V39.12z"/>
		<path class="st0" d="M209.33,43.99c0,2.14,0.36,3.64,2.81,3.8h0.51v1.19h-10.52v-1.19h0.55c2.49-0.16,2.85-1.62,2.85-3.84V35.8
			c0-1.03-0.12-2.02-0.63-2.89c-0.59-0.95-1.7-1.42-2.77-1.42c-2.61,0-5.14,1.5-7.04,3.16v9.29c0,2.21,0.36,3.68,2.85,3.84h0.55
			v1.19h-10.72v-1.19h0.43c2.61-0.12,3.08-1.34,3.08-3.84v-8.22c0-2.21-0.39-3.68-2.89-3.84h-0.63V30.7l6.05-0.87h1.27v3.12
			c2.37-2.21,5.14-3.52,8.42-3.52c1.54,0,3.12,0.55,4.27,1.58c1.34,1.15,1.54,2.45,1.54,4.11V43.99z"/>
		<path class="st0" d="M228.39,28.09c0-2.61,0.28-4.71-2.97-4.94l-0.55-0.04v-1.19c1.94-0.24,3.88-0.55,5.73-1.3h1.58v23.33
			c0,1.94,0.16,3.64,2.69,3.84v1.19h-6.48v-2.69c-1.78,1.9-4.11,3-6.64,3c-5.58,0-8.78-4.51-8.78-9.77c0-5.54,3.36-10.08,9.21-10.08
			c2.41,0,4.11,0.79,6.21,1.98V28.09z M228.39,33.43c-1.46-1.34-3.28-2.14-5.22-2.14c-4.63,0-6.09,4.07-6.09,8.07
			c0,3.76,1.27,8.07,5.81,8.07c2.25,0,4.07-1.23,5.5-3.01V33.43z"/>
		<path class="st0" d="M239.97,28.21c0-2.61,0.28-4.71-2.93-4.94l-0.59-0.04v-1.19h11.15v1.19h-0.43c-1.11,0.08-2.25,0.2-2.81,1.3
			c-0.47,0.95-0.43,2.65-0.43,3.72v5.42h14.2v-5.42c0-2.65,0.28-4.75-2.97-4.98l-0.59-0.04v-1.19h11.07v1.19h-0.4
			c-1.07,0.12-2.21,0.24-2.73,1.3c-0.51,0.95-0.43,2.65-0.43,3.68V42.8c0,2.61-0.28,4.71,2.97,4.94l0.59,0.04v1.19h-11.07v-1.19h0.4
			c1.07-0.08,2.17-0.24,2.73-1.3c0.48-0.95,0.44-2.65,0.44-3.68v-7.47h-14.2v7.47c0,2.65-0.24,4.71,3.01,4.94l0.67,0.04v1.19h-11.15
			v-1.19h0.4c1.07-0.12,2.17-0.24,2.73-1.3c0.47-0.95,0.39-2.65,0.39-3.68V28.21z"/>
		<path class="st0" d="M291.53,44.82c1.23,1.7,2.37,2.61,4.47,2.97v1.19h-6.6l-8.82-12.73h-5.54v6.52c0,2.73-0.24,4.78,3.08,5.02
			h0.83v1.19h-11.66v-1.19l0.51-0.04c1.11-0.08,2.29-0.16,2.89-1.27c0.47-0.95,0.4-2.65,0.4-3.72V28.21c0-2.73,0.28-4.75-3.05-4.94
			l-0.75-0.04v-1.19h15.74c4.55,0,9.45,1.38,9.45,6.92c0,4.11-3.48,6.56-7.28,6.92L291.53,44.82z M280.98,34.57
			c1.78,0,3.56-0.04,5.1-1.11c1.5-1.03,2.25-2.73,2.25-4.55c0-4.47-3.95-5.38-7.63-5.38c-1.15,0-3.64,0.12-4.67,0.71
			c-0.95,0.55-0.99,1.23-0.99,2.21v8.11H280.98z"/>
	</g>
	<g>
		<g>
			<g>
				<g>
					<path class="st2" d="M29.73,1.18L0,18.35v34.32l29.73,17.16l29.72-17.16V18.35L29.73,1.18z M39.09,28.35
						c4.19,0,7.58,3.19,7.58,7.15c0,3.96-3.4,7.16-7.58,7.16c-0.35,0-0.71-0.03-1.05-0.07c1.53,1.12,3.42,1.74,5.32,1.69
						c1.89-0.09,3.72-0.82,5.08-2.13c-1.12,2.89-3.89,4.91-6.98,5.1c-0.17,3.08-2.22,5.86-5.11,6.97c1.31-1.36,2.06-3.19,2.13-5.07
						c0.07-1.89-0.54-3.78-1.65-5.31c0.03,0.35,0.07,0.69,0.07,1.03c0,4.2-3.21,7.59-7.16,7.59c-3.95,0-7.16-3.39-7.16-7.59
						c0-0.34,0.03-0.68,0.08-1.03c-1.13,1.54-1.74,3.42-1.66,5.31c0.06,1.88,0.81,3.71,2.11,5.07c-1.69-0.67-3.12-1.87-4.04-3.45
						c-0.53-0.92-0.87-1.93-1-2.97c-0.02-0.14-0.04-0.28-0.05-0.43c0-0.1,0.03-0.12-0.07-0.15c-0.07,0-0.12,0-0.19-0.01
						c-0.24-0.02-0.49-0.06-0.74-0.1c-0.51-0.1-1.01-0.24-1.5-0.45c-2.06-0.8-3.7-2.48-4.49-4.52c1.37,1.3,3.19,2.04,5.07,2.13
						c1.91,0.05,3.79-0.56,5.31-1.67c-0.33,0.03-0.69,0.05-1.05,0.05c-4.18,0-7.56-3.2-7.56-7.16c0-3.95,3.39-7.15,7.56-7.15
						c0.36,0,0.73,0.02,1.05,0.07c-1.52-1.12-3.4-1.73-5.31-1.66c-1.88,0.08-3.7,0.81-5.07,2.11c0.66-1.67,1.89-3.15,3.46-4.05
						c0.91-0.51,1.93-0.85,2.97-0.99c0.14,0,0.28-0.02,0.43-0.05c0.1,0,0.14,0.05,0.14-0.06c0-0.07,0-0.12,0.01-0.17
						c0.02-0.26,0.06-0.5,0.11-0.77c0.09-0.5,0.23-1,0.43-1.49c0.81-2.06,2.49-3.7,4.54-4.49c-1.29,1.37-2.04,3.19-2.11,5.08
						c-0.08,1.88,0.53,3.76,1.66,5.3c-0.05-0.35-0.08-0.7-0.08-1.05c0-4.19,3.21-7.57,7.15-7.57c3.96,0,7.16,3.38,7.16,7.57
						c0,0.36-0.03,0.71-0.08,1.06c1.14-1.53,1.75-3.41,1.68-5.31c-0.07-1.89-0.82-3.71-2.13-5.08c1.7,0.65,3.15,1.89,4.05,3.45
						c0.53,0.92,0.86,1.93,0.99,2.98c0.03,0.14,0.04,0.27,0.05,0.42c0.01,0.09-0.02,0.13,0.08,0.13c0.07,0,0.12,0.03,0.18,0.03
						c0.25,0.02,0.5,0.06,0.75,0.09c0.51,0.09,1.01,0.24,1.5,0.43c2.05,0.82,3.69,2.51,4.49,4.54c-1.36-1.3-3.19-2.03-5.08-2.11
						c-1.9-0.07-3.78,0.52-5.29,1.66C38.4,28.37,38.75,28.35,39.09,28.35z"/>
				</g>
			</g>
			<g>
				<path class="st2" d="M35.8,33.82c-1.21,1.22-3.19,1.22-4.41,0c-1.21-1.22-1.21-3.18,0-4.4c0.75-0.74,1.81-1.05,2.77-0.86
					c0.14-0.49,0.23-1.01,0.23-1.54c0-2.82-2.1-5.1-4.68-5.1c-0.3,0-0.59,0.02-0.89,0.09c-0.05,0-0.1,0.01-0.14,0.03
					c-0.09,0.01-0.16,0.03-0.23,0.05c-0.07,0.03-0.15,0.06-0.21,0.09c-0.05,0.02-0.1,0.04-0.16,0.05c-0.08,0.04-0.16,0.05-0.23,0.1
					c-0.1,0.06-0.23,0.12-0.35,0.17c-0.02,0.03-0.04,0.05-0.06,0.06c-1.43,0.88-2.39,2.53-2.39,4.46c0,0.53,0.08,1.03,0.21,1.52
					c0.98-0.18,2,0.1,2.74,0.85c1.22,1.2,1.22,3.18,0,4.38c-1.2,1.24-3.17,1.24-4.4,0c-0.73-0.75-1.03-1.78-0.84-2.74
					c-0.48-0.15-0.99-0.21-1.51-0.21c-1.74,0-3.28,0.79-4.2,1.99c-0.05,0.06-0.09,0.14-0.13,0.2c-0.03,0.04-0.07,0.08-0.1,0.14
					c-0.04,0.07-0.1,0.16-0.14,0.23c-0.03,0.03-0.06,0.08-0.08,0.15c-0.03,0.08-0.07,0.14-0.11,0.24c-0.02,0.07-0.05,0.12-0.07,0.2
					c-0.01,0.04-0.04,0.1-0.07,0.16c-0.14,0.44-0.22,0.89-0.22,1.34c0,2.58,2.3,4.68,5.12,4.68c0.54,0,1.05-0.08,1.54-0.22
					c-0.18-0.98,0.1-2.02,0.86-2.77c1.21-1.22,3.18-1.22,4.39,0c1.22,1.21,1.22,3.17,0,4.38c-0.76,0.77-1.79,1.05-2.77,0.86
					c-0.13,0.48-0.22,0.99-0.22,1.54c0,2.82,2.09,5.09,4.67,5.09s4.67-2.27,4.67-5.09c0-0.54-0.09-1.04-0.21-1.52
					c-0.97,0.18-2.01-0.11-2.77-0.86c-1.22-1.2-1.22-3.18,0-4.38c1.21-1.23,3.18-1.23,4.39,0c0.76,0.75,1.03,1.76,0.85,2.74
					c0.48,0.14,0.99,0.21,1.53,0.21c2.81,0,5.1-2.09,5.1-4.66c0-0.32-0.03-0.61-0.1-0.89c0-0.04-0.01-0.08-0.02-0.13
					c-0.03-0.1-0.06-0.19-0.08-0.27c-0.01-0.06-0.04-0.1-0.05-0.14c-0.67-1.89-2.58-3.24-4.86-3.24c-0.54,0-1.06,0.08-1.55,0.22
					C36.84,32.02,36.56,33.07,35.8,33.82z"/>
			</g>
		</g>
	</g>
</g>
</svg>
