<?xml version="1.0" encoding="utf-8"?>
<!-- Generator: Adobe Illustrator 26.0.2, SVG Export Plug-In . SVG Version: 6.00 Build 0)  -->
<svg version="1.1" id="Layer_1" xmlns="http://www.w3.org/2000/svg" xmlns:xlink="http://www.w3.org/1999/xlink" x="0px" y="0px"
	 viewBox="0 0 200 200" style="enable-background:new 0 0 200 200;" xml:space="preserve">
<style type="text/css">
	.st0{fill:#82BB41;}
</style>
<path class="st0" d="M122.7,93.8c-4.3,4.7-11.8,4.7-16.6,0c-4.3-4.7-4.3-11.8,0-16.1c2.8-2.8,6.6-3.8,10.4-3.3
	c0.5-1.9,0.9-3.8,0.9-5.7c0-10.4-7.6-19-17.5-19c-0.9,0-2.4,0-3.3,0.5h-0.5c-0.5,0-0.5,0-0.9,0c-0.5,0-0.5,0.5-0.9,0.5
	c0,0-0.5,0-0.5,0.5c-0.5,0-0.5,0-0.9,0.5c-0.5,0-0.9,0.5-1.4,0.5c0,0,0,0-0.5,0c-5.2,3.3-9,9.5-9,16.6c0,1.9,0.5,3.8,0.9,5.7
	c3.8-0.5,7.6,0.5,10.4,3.3c4.3,4.3,4.3,11.8,0,16.1c-4.7,4.7-11.8,4.7-16.6,0c-2.8-2.8-3.8-6.6-3.3-10c-1.9-0.5-3.8-0.9-5.7-0.9
	c-6.6,0-12.3,2.8-15.6,7.6L51.7,91l-0.5,0.5c0,0-0.5,0.5-0.5,0.9c0,0,0,0.5-0.5,0.5c0,0-0.5,0.5-0.5,0.9s0,0.5-0.5,0.9v0.5
	c-0.5,1.4-0.9,3.3-0.9,4.7c0,9.5,8.5,17.5,19,17.5c1.9,0,3.8-0.5,5.7-0.9c-0.5-3.8,0.5-7.6,3.3-10.4c4.3-4.3,11.8-4.3,16.1,0
	c4.7,4.3,4.7,11.8,0,16.1c-2.8,2.8-6.6,3.8-10.4,3.3c-0.5,1.9-0.9,3.8-0.9,5.7c0,10.4,7.6,19,17.5,19c9.5,0,17.5-8.5,17.5-19
	c0-1.9-0.5-3.8-0.9-5.7c-3.8,0.5-7.6-0.5-10.4-3.3c-4.7-4.3-4.7-11.8,0-16.1c4.7-4.7,11.8-4.7,16.1,0c2.8,2.8,3.8,6.6,3.3,10.4
	c1.9,0.5,3.8,0.9,5.7,0.9c10.4,0,19-7.6,19-17.1c0-0.9,0-2.4-0.5-3.3v-0.5c0-0.5-0.5-0.9-0.5-0.9v-0.5c-2.4-7.1-9.5-11.8-18-11.8
	c-1.9,0-3.8,0.5-5.7,0.9C126.5,87.2,125.1,91,122.7,93.8 M0,200h200V0H0V200z M134.6,73.5c15.6,0,28.4,11.8,28.4,26.5
	s-12.8,26.5-28.4,26.5c-1.4,0-2.8,0-3.8-0.5c5.7,4.3,12.8,6.6,19.9,6.2c7.1-0.5,13.7-2.8,19-8.1c-4.3,10.9-14.2,18-26.1,19
	c-0.5,11.4-8.1,21.8-19,26.1c4.7-5.2,7.6-11.8,8.1-19c0.5-7.1-1.9-14.2-6.2-19.9c0,1.4,0.5,2.4,0.5,3.8c0,15.6-11.8,28-26.5,28
	s-26.5-12.8-26.5-28c0-1.4,0-2.4,0.5-3.8c-4.3,5.7-6.6,12.8-6.2,19.9c0,7.1,2.8,13.7,7.6,19c-6.2-2.4-11.8-7.1-15.2-12.8
	c-1.9-3.3-3.3-7.1-3.8-10.9c0-0.5,0-0.9,0-1.4c0-0.5,0-0.5-0.5-0.5c-0.5,0-0.5,0-0.9,0c-0.9,0-1.9,0-2.8-0.5
	c-1.9-0.5-3.8-0.9-5.7-1.9c-7.6-2.8-13.7-9-16.6-16.6c5.2,4.7,11.8,7.6,19,8.1c7.1,0,14.2-1.9,19.9-6.2c-1.4,0-2.4,0-3.8,0
	c-15.6,0-28-11.8-28-26.5s12.8-26.5,28-26.5c1.4,0,2.8,0,3.8,0.5c-5.7-4.3-12.8-6.6-19.9-6.2c-7.1,0-13.7,2.8-19,7.6
	c2.4-6.2,7.1-11.8,12.8-15.2c3.3-1.9,7.1-3.3,10.9-3.8c0.5,0,0.9,0,1.4,0s0.5,0,0.5-0.5v-0.5c0-0.9,0-1.9,0.5-2.8
	c0.5-1.9,0.9-3.8,1.4-5.7c3.8-7.6,10-13.7,17.5-16.6c-4.7,5.2-7.6,11.8-7.6,19c-0.5,7.1,1.9,13.7,6.2,19.9c0-1.4-0.5-2.4-0.5-3.8
	c0-15.6,11.8-28,26.5-28s26.5,12.3,26.5,28c0,1.4,0,2.8-0.5,3.8c4.3-5.7,6.6-12.8,6.2-19.9s-2.8-13.7-8.1-19
	c6.2,2.4,11.8,7.1,15.2,12.8c1.9,3.3,3.3,7.1,3.8,10.9c0,0.5,0,0.9,0,1.4c0,0.5,0,0.5,0.5,0.5s0.5,0,0.9,0c0.9,0,1.9,0,2.8,0.5
	c1.9,0.5,3.8,0.9,5.7,1.4c7.6,3.3,13.7,9.5,16.6,17.1c-5.2-4.7-11.8-7.6-19-7.6c-7.1-0.5-14.2,1.9-19.4,6.2
	C132.2,73.5,133.6,73.5,134.6,73.5"/>
</svg>
