<?xml version="1.0" encoding="utf-8"?>
<!-- Generator: Adobe Illustrator 26.0.2, SVG Export Plug-In . SVG Version: 6.00 Build 0)  -->
<svg version="1.1" id="Layer_1" xmlns="http://www.w3.org/2000/svg" xmlns:xlink="http://www.w3.org/1999/xlink" x="0px" y="0px"
	 viewBox="0 0 200 200.2" style="enable-background:new 0 0 200 200.2;" xml:space="preserve">
<style type="text/css">
	.st0{fill:#83BA41;}
</style>
<g>
	<path class="st0" d="M101,184h-1c-3.7,0-7.4-1-11.1-2.5c3.7-2.2,6.9-4.9,10.1-7.9c0.2-0.2,0.7-0.7,1-1c0.2,0.2,0.7,0.7,1,1
		c3,3,6.4,5.7,10.1,7.9c-1,0.5-1.7,0.7-2.5,1l0.7,0.2l-1,0.2l0.2-0.5c-0.2,0-0.5,0-0.7,0.2h-0.2c-0.5,0-0.7,0.2-1.2,0.2l0,0l0,0
		c-0.2,0-0.2,0-0.5,0h-0.2C104,183.7,102.5,184,101,184L101,184L101,184z M50.4,165.4c-3.7-1.2-6.9-3.5-9.6-6.2
		c-2.7-2.7-4.7-5.9-6.2-9.6c4.2,1,8.4,1.5,12.8,1.5c0.5,0,1,0,1.5,0c0,0.5,0,1,0,1.5C48.9,157,49.4,161.2,50.4,165.4L50.4,165.4z
		 M149.9,165.4c1-4.2,1.5-8.4,1.5-12.6l0,0l0,0c0-0.5,0-1,0-1.5c0.5,0,1,0,1.5,0c4.2,0,8.6-0.5,12.8-1.5c-0.2,1-0.7,1.7-1,2.5
		l0.7-0.2l-0.5,1l-0.2-0.7c0,0,0,0.2-0.2,0.2l-0.2,0.5l0,0l-0.2,0.5c-0.2,0.5-0.5,0.7-0.7,1.2v0.2l0,0c0,0.2-0.2,0.2-0.2,0.5v0.2
		c-1,1.5-2.2,3-3.5,4.2C156.5,162.2,153.3,164.2,149.9,165.4L149.9,165.4z M73.6,164.2c-1.2-3.7-2-7.4-2-11.4c0-3,0.5-5.9,1.2-8.9
		c1,0.2,2,0.2,3,0.2c2.2,0,4.4-0.5,6.4-1c1.5,3,3.5,5.4,6.2,7.4c-1.5,2.7-3.2,4.9-5.4,7.2C80.2,160.2,77,162.5,73.6,164.2
		L73.6,164.2z M126.7,164.2c-3.5-1.7-6.7-4-9.4-6.7c-2-2.2-4-4.4-5.4-7.2c2.7-2,4.7-4.4,6.2-7.4c2,0.7,4.2,1,6.4,1
		c1,0,2.2,0,3.2-0.2c0.7,2.7,1.2,5.7,1.2,8.6v0.2C128.6,156.5,127.9,160.5,126.7,164.2L126.7,164.2z M47.4,128.6
		c-4,0-7.9-0.7-11.4-2c1.7-3.5,4-6.7,6.7-9.4c2.2-2.2,4.4-4,7.2-5.4c1.7,2.5,4.2,4.7,7.2,6.2c-0.7,2.2-1.2,4.4-1.2,6.7
		c0,1,0,2,0.2,3C53.1,128.1,50.4,128.6,47.4,128.6L47.4,128.6z M152.8,128.6c-3,0-5.9-0.5-8.9-1.2c0.2-1,0.2-2,0.2-3
		c0-2.2-0.2-4.2-1-6.4c3-1.5,5.4-3.5,7.4-6.2c2.7,1.5,4.9,3.5,7.2,5.4c2.7,2.7,4.9,5.9,6.7,9.4C160.5,127.9,156.5,128.6,152.8,128.6
		L152.8,128.6z M18.5,111.1C16.8,107.7,16,104,16,100s0.7-7.7,2.5-11.1c2.2,3.7,4.9,6.9,7.9,9.9c0.2,0.2,0.7,0.7,1,1
		c-0.2,0.2-0.7,0.7-1,1l0,0C23.5,104.2,20.7,107.4,18.5,111.1L18.5,111.1z M181.5,111.1c-2.2-3.7-4.9-6.9-7.9-9.9
		c-0.2-0.2-0.7-0.7-1.2-1.2c0.5-0.2,0.7-0.7,1-1c3-3,5.7-6.4,7.9-10.1c0.2,0.2,0.2,0.5,0.2,0.7l0.2,0.5v0.2c0,0.2,0.2,0.2,0.2,0.5
		l0,0v0.2c0,0.2,0.2,0.7,0.2,1l0.5,0.2v0.2c0,0.2,0.2,0.7,0.2,0.7v0.2v0.2c0,0.2,0.2,0.5,0.2,0.7l0,0v0.2c0.2,1.5,0.5,3.2,0.5,4.9
		v0.2l0,0C184,104,183.2,107.7,181.5,111.1L181.5,111.1z M49.9,88.4c-2.7-1.5-4.9-3.5-7.2-5.4C40,80.2,37.8,77,36,73.6
		c3.7-1.2,7.4-2,11.4-2l0,0c3,0,5.9,0.5,8.9,1.2c-0.2,1-0.2,2-0.2,3.2c0,2.2,0.2,4.2,1,6.4C54.1,83.7,51.6,85.9,49.9,88.4L49.9,88.4
		z M150.1,88.4c-2-2.5-4.4-4.7-7.2-6.2c0.7-2.2,1.2-4.4,1.2-6.7c0-1,0-2-0.2-3c3-0.7,5.9-1.2,8.9-1.2c4,0,7.7,0.7,11.4,2
		c-1.7,3.5-4,6.7-6.7,9.4C155.3,84.9,152.8,86.9,150.1,88.4L150.1,88.4z M82,57c-2-0.7-4.2-1-6.2-1c-1,0-2.2,0-3.2,0.2
		c-0.7-3-1-5.9-1-8.9c0-4,0.7-7.7,2-11.4c3.5,1.7,6.7,4,9.4,6.7c2,2,4,4.4,5.4,6.9C85.7,51.6,83.5,54.1,82,57L82,57z M117.8,57
		c-1.5-3-3.5-5.4-6.2-7.2c1.5-2.7,3.2-4.9,5.4-7.2c2.7-2.7,5.9-4.9,9.4-6.7c1.2,3.7,2,7.4,2,11.4c0,3-0.5,5.9-1.2,8.6
		c-1-0.2-2-0.2-3-0.2C122,55.8,119.8,56.3,117.8,57L117.8,57z M34.6,50.4c1.2-3.7,3.5-6.9,6.2-9.6c2-2,4.2-3.5,6.7-4.9l0,0l0,0
		l0.2-0.2c0.2-0.2,0.5-0.2,0.7-0.2c0.2-0.2,0.5-0.2,0.7-0.2c0.2,0,0.2-0.2,0.5-0.2s0.5-0.2,0.7-0.2c-1,4.2-1.5,8.4-1.5,12.8
		c0,0.5,0,1,0,1.5c-0.5,0-0.7,0-1.2,0l0,0l0,0l0,0h-0.7C42.7,48.9,38.5,49.4,34.6,50.4L34.6,50.4z M165.4,50.4
		c-4.2-1-8.4-1.5-12.6-1.5c-0.5,0-1,0-1.5,0c0-0.5,0-1,0-1.5c0-4.4-0.5-8.6-1.5-12.8c0.2,0,0.5,0.2,0.7,0.2l0.5,0.2h0.2
		c0.2,0,0.5,0.2,0.7,0.2l0,0l0,0c0.2,0.2,0.5,0.2,0.7,0.2s0.2,0,0.5,0.2l0.2,0.2c0.2,0.2,0.5,0.2,0.7,0.5l0,0l0,0
		c0.2,0.2,0.5,0.2,0.5,0.5l0,0l0,0c1.5,1,2.7,2,4.2,3.5C162,43.5,164,46.7,165.4,50.4L165.4,50.4z M149.6,34.3
		c0-0.2-0.2-0.5-0.2-0.7v-0.2l1.5,0.5L149.6,34.3L149.6,34.3z M100,27.7c-0.5-0.2-0.7-0.7-1-1c-3-3-6.4-5.7-10.1-7.9
		c3.5-1.7,7.4-2.5,11.1-2.5c2.7,0,5.4,0.5,8.1,1.2l0,0l0,0l0,0c0.5,0.2,0.7,0.2,1,0.2l0,0c0.2,0,0.7,0.2,0.7,0.2
		c0.2,0,0.2,0,0.2,0.2l0,0l0,0c0.2,0,0.5,0.2,0.5,0.2c-3.7,2.2-6.9,4.9-10.1,7.9C100.7,26.9,100.2,27.4,100,27.7L100,27.7z"/>
	<path class="st0" d="M100,200.2L100,200.2c-11.6,0-22.5-4.4-30.9-12.8c-1.2-1.2-2.5-2.7-3.7-4.2c-2,0.2-3.7,0.5-5.7,0.5
		c-11.9,0-22.7-4.4-30.9-12.6c-8.6-8.6-13.1-20.2-12.6-32.8c0-1,0.2-2.2,0.2-3.5c-1.5-1.2-3-2.5-4.2-3.7C4.4,122.5,0,111.6,0,100
		c0-12.3,5.2-23.7,14.3-32.1c0.7-0.7,1.7-1.5,2.7-2.2c-0.2-1.2-0.2-2.5-0.2-3.5c-0.5-12.6,4-24.2,12.6-32.8
		c3.2-3.2,6.7-5.7,10.9-7.9l0.5-0.2L41,21l0.5-0.2c0.7-0.2,1.2-0.5,1.7-0.7h0.2l0,0l0.5-0.2l0.5-0.2c0.2,0,0.7-0.2,1-0.2h0.2h0.2
		l0.5-0.2l0,0l0,0l0.5-0.2c0.5-0.2,1-0.2,1.5-0.5c0.7-0.2,1.5-0.5,2.2-0.5h0.5h0.2h0.2l0,0l0.7-0.2l0,0l0,0h0.5h0.2h0.2
		c0.5,0,1-0.2,1.5-0.2c2-0.2,4-0.5,5.9-0.5c1.7,0,3.7,0,5.4,0.2c0.7-1,1.5-2,2.2-2.7C76.8,4.9,88.4,0,100.5,0c4.4,0,8.9,0.7,13.1,2
		l0,0.2h0.2l0.7,0.2c0.7,0.2,1.2,0.5,1.7,0.7l0.5,0.2l0.5,0.2c0.2,0,0.5,0.2,1,0.5h0.2h0.2l0.5,0.2l0,0l0,0l0.2,0.2l0,0h0.2
		c0.2,0.2,0.7,0.2,1.2,0.7c0.7,0.5,1.5,0.7,2.2,1.2h0.2l0,0.2l0,0l0,0l0.7,0.5l0,0l0,0l0.2,0.2h0.2h0.2c0.2,0.2,0.7,0.5,1.2,1
		c1.5,1.2,3,2.5,4.4,4c1.2,1.2,2.5,2.7,3.7,4.2c2-0.2,4-0.5,5.7-0.5c3.5,0,6.9,0.5,10.1,1.2h0.2l0,0l0,0h0.2h0.2h0.2l1,0.2l0,0h0.2
		h0.2l0.5,0.2l1.5,0.5h0.2l0.5,0.2c0.7,0.2,1.2,0.5,2,0.7c0.5,0.2,1,0.5,1.5,0.7s1,0.5,1.2,0.7l0.2,0.2l0.5,0.2
		c0.7,0.2,1.2,0.7,1.7,1c0.7,0.5,1.2,0.7,1.7,1.2l0,0l0,0c2.2,1.5,4.4,3.2,6.2,5.2c8.6,8.6,13.1,20.2,12.6,32.8
		c0,1.2-0.2,2.2-0.2,3.5c1.5,1.2,3,2.5,4.2,3.7c2.5,2.5,4.7,5.2,6.4,8.1v0.2v0.2l0,0l0,0l0,0v0.2l0,0l0.5,1l0,0V79v0.2l0.2,0.5
		c0.2,0.2,0.2,0.7,0.5,1l0,0l0,0V81l0.2,0.2l0.2,0.2c0.2,0.7,0.5,1.2,0.7,2c0.2,0.5,0.5,1,0.7,1.5v0.2c0.2,0.2,0.2,0.7,0.2,1v0.2
		l0.2,0.5c0.2,0.7,0.2,1.2,0.5,2c0.2,0.7,0.5,1.5,0.5,2.2l0,0l0,0c2,3.5,2,6.2,2,8.9c0,12.1-4.9,23.5-14.3,32.1
		c-1,0.7-1.7,1.5-2.7,2.2c1,8.6-0.2,17.3-4,24.7l-0.2,0.2l0,0l0,0v0.2v0.2c0,0.2-0.2,0.2-0.2,0.5l-0.2,0.2l-0.2,0.2v0.2
		c-0.2,0.5-0.7,1.2-1,1.7c-0.2,0.2-0.2,0.5-0.5,0.7l0,0l-0.2,0.5c-1.7,2.5-3.5,4.7-5.7,6.9c-8.1,8.1-19,12.6-30.9,12.6
		c-1.7,0-3.7,0-5.7-0.2c-5.4,6.9-12.3,11.9-20.2,14.8h-0.2h-0.2h-0.2l0,0l-0.7,0.2h-0.2h-0.2c-0.5,0.2-1.2,0.5-2,0.5
		c-0.5,0-0.7,0.2-1,0.2l-0.2,0.2C105.9,199.8,103,200.2,100,200.2L100,200.2z M76.3,180.5c6.4,6.4,14.8,9.9,23.7,9.9
		c2.2,0,4.4-0.2,6.9-0.7h0.2c0.2,0,0.5,0,0.7-0.2c0.7-0.2,1.2-0.2,1.7-0.5l0.2-0.2l0.5-0.2h0.2h0.2h0.2c4.7-1.7,9.1-4.4,12.8-8.1
		c-6.9-2.5-13.1-6.4-18-11.6c-0.5-0.5-1-1-1.2-1.2l-4.4-4.7l-4.2,4.7c-0.5,0.5-0.7,0.7-1.2,1.2C89.4,174.1,83.2,178,76.3,180.5
		L76.3,180.5z M26.4,140.2c0,9.1,3.5,17.5,9.6,23.7c6.2,6.2,14.8,9.6,23.7,9.6c-3-6.4-4.7-13.6-4.7-21c0-0.5,0-1.2,0-1.7l0.2-6.4
		l-5.9,0.2h-0.5c-0.5,0-1,0-1.5,0C40.2,144.9,33.1,143.2,26.4,140.2L26.4,140.2z M144.4,144.4l0.2,6.4c0,0.5,0,1.2,0,2
		c0,7.2-1.7,14.3-4.7,21c9.1,0,17.5-3.5,23.7-9.6c1.5-1.5,3-3.2,4.4-5.4l0,0v-0.2c0.2-0.2,0.2-0.5,0.5-0.5c0.2-0.5,0.5-1,1-1.5
		l0.2-0.5c0-0.2,0.2-0.5,0.2-0.5l0.2-0.2c2.2-4.4,3.5-9.6,3.5-14.8c-6.4,3-13.8,4.7-21,4.7c-0.7,0-1.2,0-2,0L144.4,144.4
		L144.4,144.4z M68.1,136.5l-1.5,5.2c-1,3.7-1.5,7.4-1.5,11.1c0,6.9,1.7,13.6,4.9,19.5c6.7-1.7,12.6-5.4,17.5-10.1
		c2.5-2.7,4.9-5.7,6.7-8.9l2.5-4.7l-4.4-3c-3.7-2.5-5.7-6.7-5.7-11.1c0-1,0-1.7,0.2-2.5c-0.5,0.7-1,1.2-1.7,2c-2.5,2.5-5.9,4-9.4,4
		c-0.7,0-1.7,0-2.5-0.2L68.1,136.5L68.1,136.5z M103.2,148.4l2.7,4.7c1.7,3.2,4.2,6.2,6.7,8.9c4.9,4.9,10.9,8.4,17.5,10.1
		c3.2-5.9,4.9-12.6,4.9-19.5c0-3.7-0.5-7.7-1.5-11.1l-1.5-5.2l-5.4,1c-0.7,0.2-1.7,0.2-2.5,0.2c-3.7,0-6.9-1.5-9.6-4
		c-0.5-0.5-1-1-1.5-1.7c0.2,0.7,0.2,1.5,0.2,2.5c0,4.4-2.2,8.6-5.7,11.1L103.2,148.4L103.2,148.4z M27.9,129.9
		c5.9,3.2,12.6,5.2,19.5,5.2l0,0c3.7,0,7.4-0.5,11.1-1.7l5.2-1.5l-1-5.2c-0.7-4.2,0.5-8.9,3.7-11.9c0.5-0.5,1.2-1,2-1.5
		c-0.7,0-1.5,0.2-2.2,0.2c-4.4,0-8.6-2.2-11.1-5.9l-3.2-4.4l-4.7,2.5c-3.5,2-6.4,4.2-9.1,6.9C33.1,117.5,29.6,123.5,27.9,129.9
		L27.9,129.9z M136.3,131.9l5.2,1.5c3.7,1,7.4,1.5,11.4,1.5c6.9,0,13.6-1.7,19.5-4.9c-1.7-6.4-5.4-12.6-10.1-17.3
		c-2.7-2.7-5.7-4.9-9.1-6.9l-4.7-2.5l-3,4.4c-2.5,3.7-6.7,5.9-11.1,5.9c-0.7,0-1.5,0-2-0.2c0.5,0.5,1,1,1.5,1.5
		c3.2,3.2,4.4,7.7,3.7,11.9L136.3,131.9L136.3,131.9z M75.8,110.9c3.7,0,6.9,1.5,9.4,4c3.2,3.2,4.4,7.9,3.7,12.1
		c2.5-3.7,6.4-5.9,11.1-5.9c4.4,0,8.4,2.2,10.9,5.7c-0.2-0.7-0.2-1.7-0.2-2.5c0-3.7,1.5-6.9,4-9.4c2.5-2.5,5.9-4,9.6-4
		c0.7,0,1.5,0,2.2,0.2c-3.5-2.5-5.4-6.4-5.4-10.9c0-4.4,2.2-8.6,5.9-11.1c-0.7,0.2-1.5,0.2-2.2,0.2c-3.5,0-6.9-1.5-9.4-4
		c-2.5-2.5-4-5.9-4-9.6c0-0.7,0-1.7,0.2-2.5c-0.5,0.7-1,1.2-1.7,2c-2.5,2.5-5.9,4-9.6,4c-4.4,0-8.4-2.2-10.9-5.4
		c0,0.7,0.2,1.5,0.2,2.2c0,3.5-1.5,6.9-4,9.4c-2.5,2.5-5.9,4-9.4,4c-0.7,0-1.5,0-2.2-0.2c0.5,0.5,1.2,1,1.7,1.5c2.5,2.5,4,5.9,4,9.4
		c0,3.7-1.5,6.9-4,9.4c-0.5,0.5-1.2,1-1.7,1.5C74.3,110.9,75.1,110.9,75.8,110.9L75.8,110.9z M19.5,76.3c-6.4,6.4-9.9,14.8-9.9,23.7
		s3.5,17.3,9.9,23.7c2.5-6.7,6.4-13.1,11.6-18c0.5-0.5,1-1,1.2-1.2l4.7-4.2l-4.7-4.4c-0.5-0.5-1-0.7-1.2-1.2
		C25.9,89.4,22,83.2,19.5,76.3L19.5,76.3z M163,100l4.7,4.4c0.5,0.5,1,1,1.5,1.2c5.2,5.2,9.1,11.4,11.6,18
		c6.4-6.4,9.9-14.8,9.9-23.7c0-2.2-0.2-4.4-0.7-6.4c0-0.5-0.2-1-0.2-1.5c0-0.5-0.2-0.7-0.2-1.2l-0.2-0.5v-0.2v-0.2v-0.2
		c-0.2-0.5-0.2-0.7-0.5-1c-0.2-0.2-0.2-0.7-0.5-1l-0.2-0.2l0,0c-0.2-0.2-0.2-0.7-0.5-1.2v-0.2l0,0c-0.5-0.7-0.7-1.5-1.2-2.5l0,0l0,0
		l-0.5-0.5c-1.5-2.2-3-4.4-4.9-6.4c-2.5,6.7-6.4,12.8-11.6,18c-0.5,0.5-0.7,0.7-1.2,1.2L163,100L163,100z M27.9,70.1
		c1.7,6.4,5.4,12.3,10.1,17.3c2.7,2.7,5.7,4.9,8.9,6.7l4.7,2.7l3-4.4c2.5-3.7,6.7-5.9,11.1-5.9c0.7,0,1.5,0,2.2,0.2
		c-0.5-0.5-1-1-1.7-1.5c-3.2-3.2-4.4-7.7-3.7-11.9l1-5.2l-5.2-1.5c-3.7-1-7.4-1.7-11.1-1.7C40.5,64.9,33.6,66.9,27.9,70.1L27.9,70.1
		z M134.1,86.7c4.4,0,8.6,2.2,11.1,5.9l3,4.4l4.7-2.7c3.5-2,6.4-4.2,9.1-6.7c4.9-4.9,8.4-10.9,10.1-17.3c-5.9-3.2-12.6-5.2-19.5-5.2
		c-3.7,0-7.4,0.5-11.1,1.5l-5.2,1.5l1,5.2c0.7,4.4-0.5,8.9-3.7,11.9c-0.5,0.5-1.2,1-2,1.5C132.6,86.7,133.3,86.7,134.1,86.7
		L134.1,86.7z M103.2,51.6l4.4,3c3.7,2.5,5.7,6.7,5.7,11.1c0,0.7,0,1.7-0.2,2.5c0.5-0.7,1-1.2,1.7-2c2.5-2.5,5.9-4,9.4-4
		c0.7,0,1.7,0,2.5,0.2l5.4,1l1.5-5.2c1-3.7,1.5-7.4,1.5-10.9c0-6.9-1.7-13.6-4.9-19.5c-6.7,2-12.6,5.4-17.3,10.1
		c-2.7,2.7-4.9,5.7-6.7,8.9L103.2,51.6L103.2,51.6z M76,62.5c3.5,0,6.9,1.5,9.4,4c0.5,0.5,1,1,1.2,1.5c-0.2-0.7-0.2-1.5-0.2-2.2
		c0-4.4,2.2-8.6,5.7-11.1l4.4-3l-2.7-4.7c-2-3.2-4.2-6.2-6.7-8.9c-4.7-4.9-10.9-8.4-17.3-10.1c-3.2,5.9-5.2,12.6-5.2,19.5
		c0,3.7,0.5,7.4,1.5,11.1l1.5,5.2l5.4-1C74.3,62.5,75.1,62.5,76,62.5L76,62.5z M52.3,27.4L52.3,27.4c-0.7,0.2-1.2,0.2-2,0.5
		c-0.2,0-0.5,0.2-1,0.2h-0.2l-0.5,0.2c0,0-0.2,0-0.5,0.2h-0.2c-0.2,0-0.5,0.2-0.7,0.2h-0.2h-0.2h-0.2c-0.5,0.2-0.7,0.2-1.2,0.5h-0.2
		l0,0l0,0l0,0h-0.2l-0.2,0.2h-0.2l0,0c-3.2,1.7-5.9,3.7-8.4,6.2c-6.2,6.2-9.6,14.6-9.6,23.7c6.4-3,13.8-4.7,21-4.7h0.2
		c0.5,0,1,0,1.5,0l6.4,0.2l-0.2-6.4c0-0.5,0-1.2,0-2c0-7.2,1.5-14.6,4.7-21c-1.5,0-3,0.2-4.7,0.2c-0.5,0-0.7,0-1.2,0.2l0,0l0,0h-0.5
		l-0.5,0.2h-0.5L52.3,27.4L52.3,27.4z M152.8,55.3L152.8,55.3c7.2,0,14.3,1.5,21,4.7c0-9.1-3.5-17.5-9.6-23.7
		c-1.5-1.5-3.2-3-4.9-4.2c-0.5-0.2-0.7-0.5-1.2-0.7c-0.5-0.2-0.7-0.5-1.2-0.7h-0.2h-0.2l0,0H156h-0.2c-0.2-0.2-0.7-0.2-1-0.5
		c-0.5-0.2-0.7-0.2-1.2-0.5h-0.2l-0.2-0.2c-0.5-0.2-0.7-0.2-1-0.5h-0.2l0,0c-1-0.2-1.7-0.5-2.5-0.7h-0.2l0,0l-1-0.7
		c-2.7-0.7-5.4-1-8.1-1c3,6.4,4.7,13.8,4.7,21c0,0.5,0,1.2,0,1.7l-0.2,6.4l6.4-0.2C151.6,55.3,152.1,55.3,152.8,55.3L152.8,55.3z
		 M76.3,19.8c6.7,2.5,12.8,6.4,18,11.6c0.5,0.5,0.7,0.7,1.2,1.2l4.2,4.7l4.4-4.7c0.5-0.5,1-1,1.2-1.5c5.2-5.2,11.4-9.1,18-11.6
		c-1-1-2.2-2.2-3.5-3c-0.2-0.2-0.7-0.5-1-0.7l0,0l0,0l-0.2-0.2l-0.2-0.2l-0.2-0.2l-0.5-0.2l0,0c-0.5-0.2-1-0.5-1.5-1
		c-0.2-0.2-0.5-0.2-0.7-0.5h-0.7l-0.5-0.2c0,0-0.2,0-0.2-0.2l0,0h-0.2c-0.2,0-0.5-0.2-0.7-0.2h-0.2h-0.2l-0.2-0.2
		c-0.5-0.2-0.7-0.2-1.2-0.5h-0.2l0,0c-0.2,0-0.2,0-0.5-0.2h-0.2h-0.2c-3.5-1-6.7-1.7-10.1-1.7C91.1,9.6,82.7,13.1,76.3,19.8
		L76.3,19.8z"/>
</g>
</svg>
