<?xml version="1.0" encoding="utf-8"?>
<!-- Generator: Adobe Illustrator 26.0.2, SVG Export Plug-In . SVG Version: 6.00 Build 0)  -->
<svg version="1.1" id="Layer_1" xmlns="http://www.w3.org/2000/svg" xmlns:xlink="http://www.w3.org/1999/xlink" x="0px" y="0px"
	 viewBox="0 0 200 199.4" style="enable-background:new 0 0 200 199.4;" xml:space="preserve">
<style type="text/css">
	.st0{fill:#8FC640;}
</style>
<path class="st0" d="M145.7,99.5c0-0.9,0-1.9-0.3-2.8c0,0,0-0.3,0-0.6c0-0.3,0-0.6-0.3-0.6c0-0.3,0-0.3-0.3-0.6c0,0,0-0.3-0.3-0.6
	c0-0.3-0.3-0.6-0.3-0.6c-0.3-0.3-0.3-0.9-0.6-1.3c0,0-0.3,0-0.3-0.3c-2.5-5.1-8.2-8.2-14.5-8.2c-1.9,0-3.5,0.3-5.1,0.6
	c0.6,3.2-0.3,6.6-2.8,9.2c-4.1,4.1-10.7,4.1-14.5,0c-4.1-4.1-4.1-10.7,0-14.5c2.5-2.5,6-3.5,9.2-2.8c0.3-1.6,0.6-3.2,0.6-5.1
	c0-5.7-2.5-11.1-6.6-13.9c-0.3,0-0.3-0.3-0.6-0.3s-0.3-0.3-0.6-0.3c-0.3-0.3-0.6-0.3-0.9-0.3c0,0-0.3,0-0.3-0.3
	c-0.3,0-0.6-0.3-0.9-0.3s-0.3-0.3-0.6-0.3c-0.3,0-0.3,0-0.6-0.3c-1.6-0.6-2.8-0.6-4.4-0.6c-8.5,0-15.5,7.6-15.5,17.1
	c0,1.9,0.3,3.5,0.6,5.1c3.2-0.6,6.6,0.3,9.2,2.8c4.1,4.1,4.1,10.7,0,14.5c-4.1,4.1-10.7,4.1-14.8,0c-2.5-2.5-3.5-6-2.8-9.2
	c-1.6-0.3-3.5-0.6-5.1-0.6c-9.5,0-17.1,7-17.1,15.5S62.2,115,71.7,115c1.9,0,3.5-0.3,5.1-0.6c-0.6-3.2,0.3-6.6,2.8-9.2
	c4.1-4.1,10.7-4.1,14.8,0s4.1,10.7,0,14.5c-2.5,2.5-6,3.5-9.2,2.8c-0.3,1.6-0.6,3.2-0.6,5.1c0,9.5,7,17.1,15.5,17.1
	c0.9,0,2.2,0,2.8-0.3h0.3c0.3,0,0.6,0,0.9-0.3c0,0,0.3,0,0.3-0.3c6.3-2.2,10.7-8.5,10.7-16.1c0-1.9-0.3-3.5-0.6-5.1
	c-3.2,0.6-7-0.3-9.5-2.8c-4.1-4.1-4.1-10.7,0-14.5c4.1-4.1,10.7-4.1,14.8,0c2.5,2.5,3.5,6,2.8,9.2c1.6,0.3,3.5,0.6,5.1,0.6
	C138.1,115,145.7,108.1,145.7,99.5L145.7,99.5z"/>
<path class="st0" d="M151.3,134.9c-3.2,1.9-6.3,2.8-9.8,3.5c-0.6,0-0.9,0-1.6,0.3c-0.3,0-0.3,0-0.3,0.3c0,0.3,0,0.3,0,0.6
	c0,0.9-0.3,1.6-0.3,2.5c-0.3,1.6-0.9,3.5-1.6,5.1c-2.8,7-8.2,12.3-15.2,15.2c4.4-4.4,7-10.7,7-17.1c0.3-6.3-1.9-12.6-5.4-17.7
	c0,1.3,0.3,2.2,0.3,3.5c0,13.9-10.7,25.3-24,25.3s-24-11.4-24-25.3c0-1.3,0-2.5,0.3-3.5c-3.8,5.1-5.7,11.4-5.7,17.7
	c0.3,6.3,2.8,12.3,7,17.1c-9.8-3.8-16.4-13-17.1-23.4c-10.4-0.6-19.6-7.3-23.4-17.1c4.7,4.4,10.7,7,17.1,7.3
	c6.3,0.3,12.6-1.9,17.7-5.7c-1.3,0-2.2,0.3-3.5,0.3c-13.9,0-25.3-10.7-25.3-23.7c0-13.3,11.4-24,25.3-24c1.3,0,2.2,0,3.5,0.3
	c-5.1-3.8-11.4-6-17.7-5.7s-12.3,2.8-17.1,7c2.2-5.7,6.3-10.4,11.7-13.6c3.2-1.6,6.3-2.8,9.8-3.2c0.3,0,0.9,0,1.6-0.3
	c0.3,0,0.3,0,0.3-0.3c0-0.3,0-0.3,0-0.6c0-0.9,0-1.6,0.3-2.5c0.3-1.6,0.6-3.5,1.6-5.1c2.8-7,8.2-12.3,15.2-14.8
	c-4.4,4.4-7,10.7-7,17.1C70.8,60.7,73,67,76.8,72c0-1.3-0.3-2.2-0.3-3.5c0-13.9,10.7-25.3,24-25.3s24,11.4,24,25.3
	c0,1.3,0,2.5-0.3,3.5c3.8-5.1,5.7-11.4,5.7-17.7c-0.3-6.3-2.8-12.3-7-17.1c5.7,2.2,10.4,6.3,13.6,11.7c1.9,3.2,2.8,6.3,3.5,9.8
	c0,0.3,0,0.9,0.3,1.6c0,0.3,0,0.3,0.3,0.3s0.3,0,0.6,0c0.9,0,1.6,0.3,2.5,0.3c1.6,0.3,3.5,0.6,5.1,1.6c7,2.8,12.3,8.2,14.8,15.2
	c-4.4-4.4-10.7-7-17.1-7c-6.3-0.3-12.6,1.9-17.7,5.4c1.3-0.3,2.2-0.3,3.5-0.3c13.9,0,25.3,10.7,25.3,24s-11.4,24-25.3,24
	c-1.3,0-2.5,0-3.5-0.3c5.1,3.8,11.4,5.7,17.7,5.7c6.3-0.3,12.3-2.8,17.1-7.3C160.8,127.3,156.7,132.1,151.3,134.9L151.3,134.9z
	 M163,39.2V0H37.6v38.9H0v121.3h37.3v39.2h125.4v-38.9H200V39.2H163L163,39.2z"/>
</svg>
