<?xml version="1.0" encoding="utf-8"?>
<!-- Generator: Adobe Illustrator 26.0.2, SVG Export Plug-In . SVG Version: 6.00 Build 0)  -->
<svg version="1.1" id="Layer_1" xmlns="http://www.w3.org/2000/svg" xmlns:xlink="http://www.w3.org/1999/xlink" x="0px" y="0px"
	 viewBox="0 0 321.72 71" style="enable-background:new 0 0 321.72 71;" xml:space="preserve">
<style type="text/css">
	.st0{fill:#FFFFFF;}
	.st1{fill:#807F82;}
	.st2{fill:#8AC440;}
	.st3{fill:#81B941;}
	.st4{fill:#F9B001;}
	.st5{fill:#807F83;}
</style>
<g>
	<path class="st2" d="M35.8,33.82c-1.22,1.22-3.19,1.22-4.4,0c-1.22-1.22-1.22-3.17,0-4.41c0.76-0.73,1.81-1.02,2.76-0.84
		c0.15-0.5,0.24-1,0.24-1.55c0-2.8-2.1-5.08-4.68-5.08c-0.3,0-0.59,0.01-0.88,0.09c-0.05,0-0.1,0.01-0.16,0.04
		c-0.07,0-0.14,0.04-0.22,0.04c-0.06,0.04-0.13,0.06-0.2,0.08c-0.06,0.03-0.1,0.05-0.17,0.07c-0.08,0.03-0.16,0.05-0.22,0.09
		c-0.13,0.05-0.24,0.12-0.36,0.18c-0.03,0.02-0.05,0.04-0.08,0.05c-1.42,0.89-2.38,2.55-2.38,4.45c0,0.55,0.07,1.05,0.21,1.53
		c0.97-0.17,2.01,0.11,2.75,0.86c1.21,1.2,1.21,3.19,0,4.39c-1.2,1.21-3.18,1.21-4.39,0c-0.75-0.74-1.03-1.79-0.85-2.77
		c-0.48-0.12-0.98-0.2-1.52-0.2c-1.74,0-3.27,0.79-4.18,2.02c-0.06,0.05-0.09,0.11-0.15,0.18c-0.02,0.04-0.06,0.11-0.09,0.15
		c-0.06,0.07-0.1,0.15-0.13,0.24c-0.04,0.04-0.05,0.08-0.08,0.12c-0.04,0.09-0.07,0.16-0.11,0.24c-0.04,0.06-0.06,0.13-0.08,0.19
		c-0.02,0.07-0.05,0.12-0.06,0.19c-0.14,0.44-0.22,0.89-0.22,1.34c0,2.6,2.28,4.67,5.1,4.67c0.54,0,1.07-0.07,1.54-0.21
		c-0.19-0.97,0.11-2,0.86-2.76c1.22-1.22,3.18-1.22,4.38,0c1.23,1.21,1.23,3.17,0,4.38c-0.73,0.75-1.79,1.03-2.75,0.87
		c-0.13,0.48-0.23,0.98-0.23,1.53c0,2.82,2.1,5.12,4.68,5.12c2.58,0,4.67-2.3,4.67-5.12c0-0.53-0.07-1.02-0.22-1.51
		c-0.97,0.18-2.01-0.1-2.75-0.85c-1.21-1.22-1.21-3.19,0-4.42c1.22-1.2,3.18-1.2,4.39,0c0.76,0.76,1.04,1.81,0.86,2.76
		c0.49,0.14,0.99,0.21,1.51,0.21c2.82,0,5.11-2.09,5.11-4.67c0-0.31-0.04-0.59-0.1-0.89c0-0.05,0-0.08-0.02-0.11
		c-0.03-0.1-0.06-0.19-0.09-0.3c-0.02-0.04-0.03-0.08-0.04-0.12c-0.65-1.88-2.58-3.25-4.86-3.25c-0.53,0-1.07,0.09-1.54,0.21
		C36.85,32.01,36.56,33.06,35.8,33.82z"/>
	<path class="st2" d="M0,5.79V65.2h59.45V5.79H0z M39.11,28.34c4.16,0,7.57,3.2,7.57,7.15c0,3.97-3.4,7.16-7.57,7.16
		c-0.37,0-0.72-0.02-1.08-0.07c1.53,1.13,3.43,1.74,5.33,1.68c1.89-0.06,3.72-0.82,5.07-2.13c-1.12,2.9-3.88,4.92-6.98,5.11
		c-0.17,3.1-2.2,5.85-5.09,6.97c1.31-1.35,2.04-3.2,2.13-5.05c0.05-1.91-0.55-3.8-1.68-5.31c0.05,0.34,0.07,0.67,0.07,1.02
		c0,4.19-3.2,7.59-7.15,7.59c-3.97,0-7.17-3.39-7.17-7.59c0-0.35,0.04-0.68,0.09-1.03c-1.14,1.52-1.74,3.41-1.67,5.32
		c0.05,1.86,0.8,3.7,2.1,5.05c-1.69-0.66-3.12-1.88-4.05-3.46c-0.51-0.9-0.85-1.9-0.99-2.96c-0.01-0.15-0.03-0.3-0.03-0.45
		c0-0.07,0.02-0.11-0.09-0.11c-0.05-0.02-0.12-0.02-0.19-0.03c-0.25-0.01-0.5-0.05-0.73-0.1c-0.51-0.08-1.01-0.24-1.52-0.43
		c-2.03-0.81-3.68-2.48-4.47-4.56c1.36,1.31,3.19,2.07,5.07,2.14c1.89,0.07,3.78-0.55,5.3-1.67c-0.33,0.04-0.69,0.06-1.05,0.06
		c-4.17,0-7.57-3.2-7.57-7.16c0-3.94,3.4-7.15,7.57-7.15c0.36,0,0.72,0.04,1.05,0.08c-1.52-1.14-3.41-1.72-5.3-1.67
		c-1.88,0.05-3.71,0.81-5.07,2.11c0.65-1.69,1.88-3.14,3.45-4.05c0.91-0.53,1.93-0.85,2.95-1c0.16-0.01,0.29-0.02,0.46-0.03
		c0.08,0,0.11,0.02,0.13-0.09v-0.17c0.02-0.25,0.05-0.5,0.1-0.74c0.1-0.51,0.24-1.02,0.44-1.5c0.81-2.05,2.48-3.71,4.53-4.5
		c-1.3,1.36-2.05,3.2-2.1,5.07c-0.07,1.89,0.52,3.78,1.66,5.3c-0.04-0.35-0.08-0.67-0.08-1.04c0-4.18,3.21-7.58,7.16-7.58
		c3.96,0,7.15,3.4,7.15,7.58c0,0.37-0.02,0.72-0.07,1.06c1.13-1.53,1.74-3.42,1.69-5.32c-0.09-1.88-0.82-3.71-2.13-5.07
		c1.69,0.66,3.13,1.9,4.03,3.46c0.54,0.93,0.88,1.92,1.02,2.96c0.01,0.16,0.04,0.3,0.05,0.44c0,0.09-0.04,0.11,0.06,0.14
		c0.08,0,0.12,0,0.19,0c0.25,0.02,0.5,0.06,0.76,0.09c0.5,0.11,1,0.26,1.48,0.44c2.06,0.81,3.7,2.48,4.49,4.54
		c-1.36-1.29-3.18-2.05-5.07-2.11c-1.89-0.06-3.79,0.52-5.31,1.66C38.39,28.36,38.73,28.34,39.11,28.34z"/>
	<path class="st0" d="M78.46,27.09c0-2.09-0.2-3.64-2.92-3.84l-0.6-0.04v-1.18H86.1v1.18h-0.44c-1.11,0.08-2.25,0.2-2.81,1.31
		c-0.39,0.83-0.44,2.17-0.44,3.24v5.89h14.2v-6.52c0-2.1-0.19-3.68-2.97-3.89l-0.59-0.04v-1.18h11.08v1.18h-0.4
		c-1.07,0.12-2.21,0.24-2.73,1.31c-0.39,0.71-0.44,1.89-0.44,2.84v16.54c0,2.06,0.2,3.64,2.97,3.84l0.6,0.04v1.18H93.06v-1.18h0.39
		c1.07-0.08,2.18-0.24,2.73-1.31c0.39-0.83,0.43-2.17,0.43-3.2v-7.95h-14.2v8.47c0,2.17,0.16,3.76,3.01,3.95l0.67,0.04v1.18H74.94
		v-1.18h0.4c1.07-0.12,2.17-0.24,2.73-1.31c0.36-0.71,0.39-1.85,0.39-2.81V42.8V27.09z"/>
	<path class="st0" d="M111.48,43.94c0,2.18,0.36,3.65,2.8,3.84h0.47v1.18h-10.44v-1.18h0.37c2.6-0.16,3-1.44,3-3.84v-8.23
		c0-2.22-0.4-3.68-2.89-3.83h-0.64v-1.19l6.05-0.87h1.26V43.94z M109.57,27.84c-1.38,0-2.33-1.1-2.33-2.46
		c0-1.23,1.15-2.29,2.36-2.29c1.39,0,2.38,1.1,2.38,2.46C111.99,26.86,110.84,27.84,109.57,27.84"/>
	<path class="st0" d="M140.31,42.8c0.99,2.45,1.58,4.83,4.7,4.99v1.18H133.9v-1.18c1.3-0.16,3.08-0.43,3.08-1.98
		c0-0.67-0.36-1.58-0.6-2.18l-1.78-4.66h-10.17l-1.1,2.97c-0.32,0.83-0.91,2.37-0.91,3.28c0,1.98,1.58,2.39,3.49,2.58v1.18h-10.6
		v-1.18l0.43-0.08c1.9-0.44,2.57-0.91,3.57-2.65c0.9-1.63,1.9-4.27,2.57-6.05l6.61-16.97h3.67L140.31,42.8z M133.9,37.18
		l-4.51-11.75l-4.4,11.75H133.9z"/>
	<path class="st0" d="M161.97,44.89c-1.94,3.04-4.86,4.39-8.47,4.39c-5.89,0-9.76-3.88-9.76-9.77c0-5.97,3.64-10.09,9.73-10.09
		c1.89,0,3.68,0.37,5.3,1.39c1.31,0.83,2.69,2.21,2.69,3.88c0,1.19-0.8,2.16-2.01,2.16c-1.07,0-2.02-0.78-2.02-1.89
		c0-0.51,0.16-0.99,0.16-1.5c0-1.74-2.57-2.53-3.92-2.53c-4.55,0-5.38,4.91-5.42,8.5v0.12c0,4,1.78,8.19,6.41,8.19
		c2.77,0,4.55-1.54,6.17-3.6L161.97,44.89z"/>
	<path class="st0" d="M181.55,44.89c-1.94,3.05-4.87,4.39-8.47,4.39c-5.89,0-9.76-3.88-9.76-9.77c0-5.97,3.64-10.09,9.73-10.09
		c1.9,0,3.68,0.37,5.3,1.39c1.3,0.83,2.69,2.21,2.69,3.88c0,1.19-0.79,2.16-2.01,2.16c-1.07,0-2.03-0.78-2.03-1.89
		c0-0.51,0.16-0.99,0.16-1.5c0-1.74-2.57-2.53-3.91-2.53c-4.56,0-5.39,4.91-5.43,8.5v0.12c0,4,1.78,8.19,6.41,8.19
		c2.77,0,4.56-1.54,6.17-3.6L181.55,44.89z"/>
	<path class="st0" d="M199.34,31.92c1.94,1.89,2.89,4.86,2.89,7.51c0,5.97-3.72,9.85-9.69,9.85c-5.86,0-9.65-3.88-9.65-9.69
		c0-5.9,3.44-10.16,9.53-10.16C194.86,29.44,197.51,30.15,199.34,31.92 M192.57,31.01c-4.46,0-5.57,4.87-5.57,8.47
		c0,3.83,1.11,8.23,5.82,8.23c4.31,0,5.3-4.48,5.3-7.95c0-1.82-0.16-4.12-0.99-5.78c-0.83-1.7-2.5-2.97-4.43-2.97H192.57z"/>
	<path class="st0" d="M223.18,43.99c0,2.14,0.23,3.84,2.38,3.84h0.28l0.59-0.04v1.18h-7.04v-3.28c-2.25,2.17-5.11,3.6-8.5,3.6
		c-1.66,0-3.59-0.44-4.75-1.7c-1.18-1.32-1.22-2.81-1.22-4.48v-7.4c0-2.21-0.4-3.68-2.89-3.83h-0.64v-1.19l6.05-0.87h1.26v13.21
		c0,0.95,0.04,2.13,0.44,2.84c0.59,1.03,1.89,1.46,3.01,1.46c2.81,0,5.42-1.58,7.23-3.36v-8.27c0-2.21-0.39-3.68-2.89-3.83h-0.63
		v-1.19l6.05-0.87h1.27V43.99z"/>
	<path class="st0" d="M248.85,43.99c0,2.14,0.35,3.64,2.81,3.8h0.52v1.18h-10.52v-1.18h0.55c2.49-0.16,2.84-1.63,2.84-3.84V35.8
		c0-1.03-0.12-2.01-0.63-2.89c-0.59-0.95-1.71-1.42-2.76-1.42c-2.62,0-5.14,1.5-7.04,3.17v9.29c0,2.22,0.36,3.68,2.84,3.84h0.56
		v1.18h-10.72v-1.18h0.43c2.62-0.12,3.09-1.35,3.09-3.84v-8.23c0-2.21-0.4-3.68-2.89-3.83h-0.64v-1.19l6.05-0.87h1.27v3.12
		c2.37-2.21,5.14-3.52,8.42-3.52c1.54,0,3.12,0.56,4.27,1.58c1.35,1.15,1.55,2.46,1.55,4.12V43.99z"/>
	<path class="st0" d="M262.16,31.09h-5.61v11.12c0,2.22,0,5.38,3,5.38c1.42,0,2.49-0.8,3.44-1.74l0.99,0.86
		c-1.31,1.79-3.44,2.58-5.58,2.58c-1.31,0-2.81-0.27-3.92-0.95c-1.58-1.03-1.74-2.57-1.74-4.32V31.09h-3.32v-1.26
		c4.54-0.16,5.42-3.37,5.42-7.24h1.71v7.24h5.61V31.09z"/>
	<path class="st0" d="M271.76,43.94c0,2.18,0.36,3.65,2.81,3.84h0.47v1.18H264.6v-1.18h0.36c2.62-0.16,3.01-1.44,3.01-3.84v-8.23
		c0-2.22-0.39-3.68-2.89-3.83h-0.63v-1.19l6.05-0.86h1.26V43.94z M269.86,27.84c-1.38,0-2.33-1.1-2.33-2.46
		c0-1.23,1.14-2.29,2.37-2.29c1.39,0,2.37,1.1,2.37,2.46C272.28,26.86,271.13,27.84,269.86,27.84"/>
	<path class="st0" d="M297.63,43.99c0,2.14,0.36,3.64,2.81,3.8h0.52v1.18h-10.52v-1.18h0.55c2.49-0.16,2.84-1.63,2.84-3.84V35.8
		c0-1.03-0.12-2.01-0.63-2.89c-0.6-0.95-1.71-1.42-2.76-1.42c-2.61,0-5.14,1.5-7.05,3.17v9.29c0,2.22,0.36,3.68,2.85,3.84h0.56v1.18
		h-10.73v-1.18h0.44c2.61-0.12,3.09-1.35,3.09-3.84v-8.23c0-2.21-0.39-3.68-2.89-3.83h-0.64v-1.19l6.05-0.87h1.26v3.12
		c2.38-2.21,5.14-3.52,8.43-3.52c1.54,0,3.12,0.56,4.26,1.58c1.35,1.15,1.55,2.46,1.55,4.12V43.99z"/>
	<path class="st0" d="M314.31,47.15c3,0.39,6.37,0.99,6.37,4.83c0,5.43-6.4,6.61-10.64,6.61c-3.2,0-9.96-0.79-9.96-5.06
		c0-2.26,2.25-3.57,4.11-4.17v-0.07c-1.55-0.4-2.89-1.47-2.89-3.21c0-2.17,1.9-3.68,3.87-4.04c-1.93-1.14-3.12-3.17-3.12-5.42v-0.24
		c0.15-4.38,3.88-6.95,7.95-6.95c1.23,0,2.46,0.23,3.6,0.63c0.95-1.82,2.77-3.52,4.91-3.52c1.07,0,2.33,0.44,2.33,1.7
		c0,0.79-0.6,1.5-1.46,1.5c-0.91,0-1.66-0.71-2.5-0.71c-0.82,0-1.58,0.91-2.09,1.51c2.02,1.46,3.28,3.36,3.28,5.93
		c0,1.86-0.95,3.84-2.41,4.98c-1.58,1.3-3.76,1.66-5.78,1.66c-1.26,0-2.37-0.19-3.56-0.63c-0.8,0.31-1.9,1.19-1.9,2.1
		c0,1.38,2.17,1.54,3.13,1.65L314.31,47.15z M305.64,49.72c-1.49,0.48-3.2,1.82-3.2,3.52c0,3.48,5.3,4.08,7.83,4.08
		c2.49,0,7.63-0.56,7.63-4c0-2.21-2.85-2.44-4.46-2.65L305.64,49.72z M305.89,36.35c0,2.97,0.79,5.46,4.27,5.46
		c1.35,0,2.81-0.63,3.44-1.85c0.52-0.99,0.63-2.61,0.63-3.73c0-2.89-0.71-5.38-4.08-5.38C306.88,30.85,305.89,33.58,305.89,36.35"/>
</g>
</svg>
