<?xml version="1.0" encoding="utf-8"?>
<!-- Generator: Adobe Illustrator 26.0.2, SVG Export Plug-In . SVG Version: 6.00 Build 0)  -->
<svg version="1.1" id="Layer_1" xmlns="http://www.w3.org/2000/svg" xmlns:xlink="http://www.w3.org/1999/xlink" x="0px" y="0px"
	 viewBox="0 0 59.46 71" style="enable-background:new 0 0 59.46 71;" xml:space="preserve">
<style type="text/css">
	.st0{fill:#FFFFFF;}
	.st1{fill:#807F82;}
	.st2{fill:#8AC440;}
	.st3{fill:#81B941;}
	.st4{fill:#F9B001;}
	.st5{fill:#807F83;}
</style>
<path class="st0" d="M35.8,33.82c-1.22,1.22-3.19,1.22-4.4,0c-1.22-1.22-1.22-3.17,0-4.41c0.76-0.73,1.81-1.02,2.76-0.84
	c0.15-0.5,0.24-1,0.24-1.55c0-2.8-2.1-5.08-4.68-5.08c-0.3,0-0.59,0.01-0.88,0.09c-0.05,0-0.1,0.01-0.16,0.04
	c-0.07,0-0.14,0.04-0.22,0.04c-0.06,0.04-0.13,0.06-0.2,0.08c-0.06,0.03-0.1,0.05-0.17,0.07c-0.08,0.03-0.16,0.05-0.22,0.09
	c-0.13,0.05-0.24,0.12-0.36,0.18c-0.03,0.02-0.05,0.04-0.08,0.05c-1.42,0.89-2.38,2.55-2.38,4.45c0,0.55,0.07,1.05,0.21,1.53
	c0.97-0.17,2.01,0.11,2.75,0.86c1.21,1.2,1.21,3.19,0,4.39c-1.2,1.21-3.18,1.21-4.39,0c-0.75-0.74-1.03-1.79-0.85-2.77
	c-0.48-0.12-0.98-0.2-1.52-0.2c-1.74,0-3.27,0.79-4.18,2.02c-0.06,0.05-0.09,0.11-0.15,0.18c-0.02,0.04-0.06,0.11-0.09,0.15
	c-0.06,0.07-0.1,0.15-0.13,0.24c-0.04,0.04-0.05,0.08-0.08,0.12c-0.04,0.09-0.07,0.16-0.11,0.24c-0.04,0.06-0.06,0.13-0.08,0.19
	c-0.02,0.07-0.05,0.12-0.06,0.19c-0.14,0.44-0.22,0.89-0.22,1.34c0,2.6,2.28,4.67,5.1,4.67c0.54,0,1.07-0.07,1.54-0.21
	c-0.19-0.97,0.11-2,0.86-2.76c1.22-1.22,3.18-1.22,4.38,0c1.23,1.21,1.23,3.17,0,4.38c-0.73,0.75-1.79,1.03-2.75,0.87
	c-0.13,0.48-0.23,0.98-0.23,1.53c0,2.82,2.1,5.12,4.68,5.12c2.58,0,4.67-2.3,4.67-5.12c0-0.53-0.07-1.02-0.22-1.51
	c-0.97,0.18-2.01-0.1-2.75-0.85c-1.21-1.22-1.21-3.19,0-4.42c1.22-1.2,3.18-1.2,4.39,0c0.76,0.76,1.04,1.81,0.86,2.76
	c0.49,0.14,0.99,0.21,1.51,0.21c2.82,0,5.11-2.09,5.11-4.67c0-0.31-0.04-0.59-0.1-0.89c0-0.05,0-0.08-0.02-0.11
	c-0.03-0.1-0.06-0.19-0.09-0.3c-0.02-0.04-0.03-0.08-0.04-0.12c-0.65-1.88-2.58-3.25-4.86-3.25c-0.53,0-1.07,0.09-1.54,0.21
	C36.85,32.01,36.56,33.06,35.8,33.82z"/>
<path class="st0" d="M0,5.79V65.2h59.45V5.79H0z M39.11,28.34c4.16,0,7.57,3.2,7.57,7.15c0,3.97-3.4,7.16-7.57,7.16
	c-0.37,0-0.72-0.02-1.08-0.07c1.53,1.13,3.43,1.74,5.33,1.68c1.89-0.06,3.72-0.82,5.07-2.13c-1.12,2.9-3.88,4.92-6.98,5.11
	c-0.17,3.1-2.2,5.85-5.09,6.97c1.31-1.35,2.04-3.2,2.13-5.05c0.05-1.91-0.55-3.8-1.68-5.31c0.05,0.34,0.07,0.67,0.07,1.02
	c0,4.19-3.2,7.59-7.15,7.59c-3.97,0-7.17-3.39-7.17-7.59c0-0.35,0.04-0.68,0.09-1.03c-1.14,1.52-1.74,3.41-1.67,5.32
	c0.05,1.86,0.8,3.7,2.1,5.05c-1.69-0.66-3.12-1.88-4.05-3.46c-0.51-0.9-0.85-1.9-0.99-2.96c-0.01-0.15-0.03-0.3-0.03-0.45
	c0-0.07,0.02-0.11-0.09-0.11c-0.05-0.02-0.12-0.02-0.19-0.03c-0.25-0.01-0.5-0.05-0.73-0.1c-0.51-0.08-1.01-0.24-1.52-0.43
	c-2.03-0.81-3.68-2.48-4.47-4.56c1.36,1.31,3.19,2.07,5.07,2.14c1.89,0.07,3.78-0.55,5.3-1.67c-0.33,0.04-0.69,0.06-1.05,0.06
	c-4.17,0-7.57-3.2-7.57-7.16c0-3.94,3.4-7.15,7.57-7.15c0.36,0,0.72,0.04,1.05,0.08c-1.52-1.14-3.41-1.72-5.3-1.67
	c-1.88,0.05-3.71,0.81-5.07,2.11c0.65-1.69,1.88-3.14,3.45-4.05c0.91-0.53,1.93-0.85,2.95-1c0.16-0.01,0.29-0.02,0.46-0.03
	c0.08,0,0.11,0.02,0.13-0.09v-0.17c0.02-0.25,0.05-0.5,0.1-0.74c0.1-0.51,0.24-1.02,0.44-1.5c0.81-2.05,2.48-3.71,4.53-4.5
	c-1.3,1.36-2.05,3.2-2.1,5.07c-0.07,1.89,0.52,3.78,1.66,5.3c-0.04-0.35-0.08-0.67-0.08-1.04c0-4.18,3.21-7.58,7.16-7.58
	c3.96,0,7.15,3.4,7.15,7.58c0,0.37-0.02,0.72-0.07,1.06c1.13-1.53,1.74-3.42,1.69-5.32c-0.09-1.88-0.82-3.71-2.13-5.07
	c1.69,0.66,3.13,1.9,4.03,3.46c0.54,0.93,0.88,1.92,1.02,2.96c0.01,0.16,0.04,0.3,0.05,0.44c0,0.09-0.04,0.11,0.06,0.14
	c0.08,0,0.12,0,0.19,0c0.25,0.02,0.5,0.06,0.76,0.09c0.5,0.11,1,0.26,1.48,0.44c2.06,0.81,3.7,2.48,4.49,4.54
	c-1.36-1.29-3.18-2.05-5.07-2.11c-1.89-0.06-3.79,0.52-5.31,1.66C38.39,28.36,38.73,28.34,39.11,28.34z"/>
</svg>
