<?xml version="1.0" encoding="utf-8"?>
<!-- Generator: Adobe Illustrator 26.0.2, SVG Export Plug-In . SVG Version: 6.00 Build 0)  -->
<svg version="1.1" id="Layer_1" xmlns="http://www.w3.org/2000/svg" xmlns:xlink="http://www.w3.org/1999/xlink" x="0px" y="0px"
	 viewBox="0 0 68.72 71" style="enable-background:new 0 0 68.72 71;" xml:space="preserve">
<style type="text/css">
	.st0{fill:#FFFFFF;}
	.st1{fill:#807F82;}
	.st2{fill:#8AC440;}
	.st3{fill:#81B941;}
	.st4{fill:#9C9C99;}
	.st5{fill:#F9B001;}
	.st6{fill:#807F83;}
</style>
<g>
	<path class="st0" d="M34.67,63.68h-0.31c-1.28,0-2.54-0.29-3.73-0.84c1.24-0.77,2.38-1.69,3.4-2.71c0.12-0.12,0.24-0.23,0.35-0.35
		c0.12,0.12,0.24,0.25,0.34,0.36c1.02,1.01,2.16,1.91,3.4,2.68c-0.29,0.15-0.55,0.25-0.81,0.34l0.22,0.11l-0.36,0.11l0.11-0.21
		c-0.05,0.02-0.13,0.04-0.25,0.08l-0.12,0.04c-0.14,0.04-0.28,0.07-0.43,0.12l-0.03,0.01h-0.03c-0.06,0.02-0.1,0.03-0.14,0.04
		l-0.07,0.02c-0.53,0.12-1.04,0.18-1.56,0.19L34.67,63.68L34.67,63.68z M17.56,57.43c-1.24-0.45-2.33-1.14-3.25-2.06
		c-0.91-0.92-1.6-1.99-2.05-3.24c1.42,0.33,2.86,0.49,4.31,0.49c0.16,0,0.32,0,0.5,0c0,0.16,0,0.34,0,0.51
		C17.06,54.56,17.23,56,17.56,57.43L17.56,57.43z M51.19,57.42c0.32-1.42,0.49-2.87,0.49-4.29V53.1v-0.03c0-0.14,0-0.32-0.01-0.46
		c0.18,0,0.35,0,0.52,0c1.45,0,2.9-0.16,4.31-0.48c-0.11,0.3-0.22,0.55-0.34,0.81l0.22-0.08l-0.15,0.29l-0.07-0.21
		c-0.01,0.02-0.03,0.06-0.05,0.11l-0.09,0.16l0.02-0.04l-0.08,0.13c-0.06,0.14-0.13,0.26-0.22,0.4l-0.01,0.04l-0.02,0.02
		c-0.03,0.06-0.06,0.1-0.07,0.13l-0.04,0.06c-0.34,0.53-0.73,1-1.16,1.43C53.52,56.29,52.43,56.97,51.19,57.42L51.19,57.42z
		 M25.4,56.98c-0.44-1.23-0.67-2.53-0.67-3.86c0-1,0.13-1.99,0.4-2.97c0.33,0.05,0.66,0.07,1,0.07c0.75,0,1.49-0.13,2.2-0.37
		c0.48,1,1.2,1.85,2.07,2.48c-0.5,0.89-1.1,1.7-1.8,2.4C27.65,55.66,26.59,56.41,25.4,56.98L25.4,56.98z M43.35,56.97
		c-1.19-0.58-2.27-1.32-3.2-2.25c-0.71-0.71-1.31-1.51-1.82-2.39c0.88-0.64,1.58-1.5,2.07-2.51c0.71,0.24,1.44,0.35,2.15,0.35
		c0.36,0,0.71-0.02,1.05-0.08c0.26,0.95,0.4,1.94,0.4,2.93v0.11C44.01,54.44,43.79,55.73,43.35,56.97L43.35,56.97z M16.55,44.96
		c-1.32,0-2.63-0.22-3.86-0.67c0.56-1.19,1.32-2.26,2.25-3.21c0.72-0.72,1.53-1.34,2.44-1.85c0.62,0.86,1.45,1.57,2.43,2.07
		c-0.25,0.73-0.38,1.48-0.38,2.24c0,0.34,0.03,0.69,0.07,1.02C18.53,44.81,17.54,44.95,16.55,44.96L16.55,44.96z M52.19,44.94
		c-1,0-2.01-0.15-3.02-0.43c0.04-0.34,0.07-0.68,0.07-1.02c0-0.74-0.12-1.46-0.35-2.18c0.99-0.49,1.84-1.21,2.48-2.09
		c0.89,0.52,1.7,1.14,2.43,1.87c0.93,0.94,1.69,2,2.25,3.18C54.8,44.72,53.51,44.94,52.19,44.94L52.19,44.94z M6.83,39.04
		C6.28,37.86,6,36.6,6,35.31c0-1.3,0.28-2.55,0.83-3.74c0.76,1.22,1.67,2.36,2.7,3.37c0.12,0.12,0.24,0.24,0.37,0.37
		c-0.13,0.11-0.25,0.23-0.37,0.35l0,0C8.5,36.68,7.59,37.81,6.83,39.04L6.83,39.04z M61.9,39.04c-0.77-1.24-1.67-2.37-2.68-3.37
		c-0.12-0.12-0.25-0.25-0.38-0.38c0.13-0.12,0.26-0.23,0.37-0.36c1.02-1.02,1.94-2.17,2.71-3.41c0.05,0.08,0.07,0.17,0.09,0.23
		l0.06,0.15l0.03,0.09c0.03,0.06,0.06,0.12,0.08,0.18l0.01,0.04l0.02,0.05c0.04,0.1,0.07,0.22,0.1,0.3l0.04,0.16l0.02,0.07
		c0.03,0.09,0.07,0.21,0.08,0.27l0.02,0.06l0.01,0.04c0.03,0.09,0.05,0.19,0.06,0.27v0.03l0.01,0.04c0.12,0.54,0.19,1.1,0.19,1.69
		v0.06v0.03C62.73,36.59,62.46,37.84,61.9,39.04L61.9,39.04z M17.37,31.38c-0.9-0.52-1.71-1.15-2.43-1.85
		c-0.94-0.95-1.69-2.03-2.24-3.21c1.23-0.44,2.53-0.66,3.85-0.66h0.03c0.99,0,2,0.14,2.99,0.42c-0.05,0.35-0.08,0.7-0.08,1.05
		c0,0.73,0.12,1.45,0.36,2.16C18.85,29.77,18.02,30.49,17.37,31.38L17.37,31.38z M51.34,31.36c-0.63-0.87-1.47-1.58-2.44-2.06
		c0.25-0.73,0.38-1.48,0.38-2.24c0-0.34-0.03-0.68-0.08-1.01c0.98-0.27,1.99-0.41,2.99-0.41c1.33,0.02,2.62,0.24,3.84,0.68
		c-0.56,1.18-1.32,2.26-2.25,3.19C53.08,30.23,52.25,30.85,51.34,31.36L51.34,31.36z M28.3,20.76c-0.68-0.23-1.4-0.34-2.11-0.34
		c-0.36,0-0.72,0.03-1.06,0.1c-0.27-1.02-0.41-2.04-0.4-3.03c0-1.33,0.21-2.63,0.65-3.85c1.19,0.57,2.27,1.33,3.19,2.25
		c0.69,0.68,1.3,1.48,1.81,2.37C29.5,18.91,28.79,19.77,28.3,20.76L28.3,20.76z M40.37,20.73c-0.48-0.98-1.19-1.82-2.07-2.45
		c0.51-0.89,1.12-1.7,1.84-2.4c0.94-0.94,2.01-1.69,3.2-2.25c0.43,1.22,0.66,2.52,0.66,3.84c0,0.98-0.14,1.97-0.4,2.96
		c-0.33-0.04-0.69-0.09-1.03-0.09C41.82,20.35,41.07,20.49,40.37,20.73L40.37,20.73z M12.24,18.47c0.44-1.24,1.14-2.31,2.06-3.23
		c0.63-0.65,1.41-1.21,2.25-1.64h0.01l0.01,0l0.1-0.05c0.11-0.06,0.18-0.09,0.26-0.12c0.11-0.06,0.18-0.09,0.24-0.11
		c0.06-0.02,0.12-0.05,0.16-0.06c0.07-0.03,0.15-0.06,0.22-0.07c-0.33,1.4-0.5,2.85-0.5,4.31c0,0.17,0,0.34,0,0.51
		c-0.15,0-0.28,0-0.41,0h-0.04h-0.03h-0.01h-0.11C15.03,18,13.6,18.16,12.24,18.47L12.24,18.47z M56.47,18.47
		c-1.4-0.32-2.84-0.5-4.28-0.5c-0.18,0-0.36,0-0.53,0.02c0-0.19,0-0.34,0-0.51c0-1.47-0.17-2.91-0.5-4.33
		c0.09,0.04,0.17,0.07,0.25,0.1l0.13,0.06l0.09,0.03c0.06,0.03,0.14,0.06,0.22,0.1l0.03,0.01l0.02,0.02
		c0.09,0.05,0.2,0.09,0.26,0.12c0.06,0.03,0.12,0.04,0.15,0.07l0.11,0.06c0.08,0.06,0.18,0.09,0.26,0.16l0.03,0.01l0.03,0.02
		c0.08,0.04,0.14,0.09,0.2,0.15L53,14.08l0.03,0.03c0.49,0.32,0.96,0.69,1.38,1.13C55.33,16.16,56.02,17.24,56.47,18.47L56.47,18.47
		z M51.16,13.11c-0.02-0.09-0.05-0.18-0.07-0.27l-0.02-0.08l0.47,0.18L51.16,13.11L51.16,13.11z M34.35,10.83
		c-0.13-0.12-0.24-0.25-0.36-0.35c-1.02-1.03-2.16-1.94-3.39-2.71c1.19-0.56,2.46-0.85,3.77-0.85c0.92,0,1.85,0.15,2.77,0.44
		l0.02,0.01l-0.03-0.01l0.04,0.02c0.13,0.05,0.22,0.07,0.34,0.11l0,0.01c0.12,0.04,0.21,0.07,0.28,0.1
		c0.05,0.02,0.08,0.03,0.12,0.06l-0.03-0.02l0.03,0.02c0.07,0.04,0.16,0.07,0.21,0.09c-1.22,0.77-2.37,1.69-3.4,2.71
		C34.59,10.58,34.47,10.71,34.35,10.83L34.35,10.83z"/>
	<path class="st0" d="M34.39,69.15h-0.04c-3.87,0-7.54-1.53-10.36-4.36c-0.43-0.43-0.85-0.91-1.24-1.43
		c-0.65,0.09-1.28,0.14-1.89,0.14c-3.98,0-7.69-1.53-10.43-4.26C7.51,56.32,6,52.38,6.19,48.12c0.02-0.37,0.05-0.77,0.1-1.19
		c-0.51-0.4-0.98-0.81-1.41-1.24c-2.81-2.83-4.36-6.51-4.36-10.39c0-4.14,1.72-7.98,4.86-10.86c0.29-0.25,0.59-0.51,0.91-0.76
		c-0.05-0.41-0.08-0.8-0.1-1.19c-0.18-4.25,1.31-8.2,4.23-11.13c1.06-1.06,2.29-1.95,3.66-2.64l0.15-0.08l0.09-0.04l0.2-0.09
		c0.21-0.1,0.39-0.18,0.54-0.24l0.05-0.01l0.02-0.02l0.16-0.07l0.14-0.06c0.09-0.03,0.21-0.07,0.32-0.1l0.08-0.03l0.06-0.02
		l0.14-0.06l0.02-0.01h0.02l0.15-0.06c0.17-0.06,0.33-0.1,0.51-0.14c0.25-0.07,0.51-0.14,0.75-0.18l0.13-0.04l0.08-0.01l0.05-0.02
		l0.03,0l0.28-0.07h0.03h0.02l0.13-0.03h0.07h0.05c0.13-0.03,0.33-0.06,0.53-0.08c0.67-0.09,1.32-0.13,1.98-0.13
		c0.61,0,1.23,0.04,1.87,0.11c0.26-0.32,0.52-0.63,0.78-0.91c2.87-3.16,6.73-4.88,10.85-4.88c1.49,0,2.99,0.24,4.46,0.71l0.15,0.06
		l0.08,0.02l0.24,0.09c0.24,0.08,0.42,0.15,0.57,0.23l0.19,0.07l0.17,0.09c0.08,0.03,0.2,0.09,0.3,0.14l0.07,0.03l0.07,0.03
		l0.13,0.06l0.03,0.01l0.02,0l0.11,0.06l0.03,0.01l0.06,0.03c0.11,0.05,0.26,0.12,0.4,0.22c0.25,0.13,0.5,0.28,0.74,0.44l0.05,0.04
		l0.07,0.04l0.04,0.02l0.02,0.01l0.25,0.14l0.03,0.02l0.02,0.02l0.09,0.07l0.04,0.03l0.05,0.03c0.12,0.08,0.28,0.2,0.45,0.33
		c0.53,0.41,1.02,0.84,1.48,1.31c0.43,0.42,0.85,0.9,1.25,1.41c0.66-0.09,1.3-0.13,1.92-0.13c1.16,0,2.32,0.15,3.46,0.41l0.1,0.02
		h0.03l0.02,0l0.05,0.02l0.07,0.02l0.04,0l0.35,0.09h0.04l0.05,0.02l0.06,0.03l0.16,0.06l0.5,0.15l0.08,0.03L53.06,8
		c0.23,0.09,0.46,0.19,0.66,0.28c0.2,0.08,0.36,0.14,0.5,0.21c0.18,0.08,0.32,0.14,0.45,0.22l0.12,0.06l0.16,0.08
		c0.22,0.12,0.4,0.22,0.58,0.33c0.23,0.13,0.42,0.26,0.6,0.39l0.03,0.02l0.02,0.02c0.76,0.5,1.47,1.1,2.13,1.76
		c2.92,2.91,4.41,6.85,4.23,11.1c-0.02,0.39-0.06,0.79-0.11,1.19c0.52,0.4,1,0.84,1.44,1.27c0.83,0.82,1.56,1.75,2.18,2.73
		l0.04,0.06l0.03,0.04l0.01,0.03l0.02,0.01l0.01,0.03l0.03,0.05l0.01,0.03l0.19,0.3l0.03,0.04l0.02,0.05l0.02,0.08l0.09,0.16
		c0.06,0.1,0.12,0.23,0.19,0.35l0,0l0.02,0.04l0.03,0.06l0.05,0.11l0.05,0.1c0.09,0.23,0.19,0.45,0.27,0.68
		c0.08,0.19,0.16,0.37,0.21,0.52l0.03,0.11c0.04,0.11,0.07,0.24,0.12,0.36l0.03,0.11l0.06,0.15c0.07,0.25,0.12,0.46,0.17,0.65
		c0.07,0.26,0.13,0.49,0.15,0.71v0.03l0.01,0.03c0.18,0.89,0.26,1.81,0.26,2.74c0,4.12-1.71,7.97-4.85,10.84
		c-0.3,0.26-0.58,0.52-0.91,0.78c0.35,2.92-0.11,5.8-1.34,8.37l-0.06,0.12h-0.01v0.02l-0.03,0.05l-0.02,0.05
		c-0.01,0.05-0.05,0.08-0.07,0.13l-0.04,0.07l-0.05,0.1L60.8,55.9c-0.11,0.2-0.22,0.39-0.35,0.61c-0.06,0.11-0.11,0.2-0.16,0.25
		l-0.01,0.03l-0.08,0.14c-0.57,0.85-1.17,1.6-1.89,2.31c-2.73,2.73-6.43,4.24-10.4,4.24c-0.61,0-1.24-0.04-1.89-0.12
		c-1.81,2.31-4.19,4.04-6.88,4.98l-0.12,0.04l-0.05,0.02l-0.04,0.01H38.9l-0.25,0.08l-0.1,0.03l-0.07,0.01
		c-0.2,0.07-0.43,0.13-0.68,0.19c-0.14,0.03-0.23,0.06-0.34,0.07l-0.15,0.04C36.34,69.05,35.37,69.15,34.39,69.15L34.39,69.15z
		 M26.37,62.51c2.18,2.18,5,3.35,8,3.35c0.77,0,1.52-0.08,2.31-0.25l0.08-0.02c0.07-0.03,0.15-0.03,0.24-0.06
		c0.22-0.05,0.41-0.1,0.59-0.16l0.11-0.05l0.19-0.05l0.07-0.03h0.04l0.06-0.02c1.6-0.57,3.1-1.51,4.34-2.75
		c-2.3-0.83-4.4-2.17-6.12-3.9c-0.15-0.15-0.3-0.3-0.44-0.45l-1.47-1.57l-1.45,1.58c-0.15,0.16-0.28,0.29-0.44,0.44
		C30.76,60.32,28.65,61.67,26.37,62.51L26.37,62.51z M9.47,48.88c0.01,3.08,1.16,5.92,3.28,8.04c2.11,2.1,4.97,3.27,8.05,3.28
		c-1.02-2.2-1.56-4.63-1.56-7.07c0-0.21,0.01-0.43,0.01-0.62l0.08-2.15l-2.13,0.06h-0.14c-0.17,0.01-0.33,0.02-0.5,0.02
		C14.12,50.44,11.69,49.9,9.47,48.88L9.47,48.88z M49.4,50.32l0.08,2.16c0,0.21,0.02,0.43,0.02,0.64c0,2.45-0.54,4.88-1.57,7.07
		c3.08-0.02,5.93-1.18,8.04-3.28c0.54-0.53,1.02-1.12,1.46-1.81l0.01-0.02l0.02-0.05c0.06-0.07,0.09-0.13,0.13-0.2
		c0.1-0.17,0.21-0.35,0.3-0.5l0.07-0.14c0.04-0.08,0.07-0.15,0.11-0.21l0.05-0.12c0.74-1.54,1.13-3.25,1.15-5
		c-2.2,1.02-4.64,1.56-7.09,1.56c-0.21,0-0.43-0.02-0.64-0.02L49.4,50.32L49.4,50.32z M23.55,47.64l-0.49,1.75
		c-0.35,1.23-0.53,2.46-0.53,3.73c0,2.33,0.6,4.6,1.71,6.6c2.23-0.62,4.25-1.81,5.9-3.45c0.88-0.88,1.65-1.9,2.26-3.02l0.87-1.59
		l-1.5-1.02c-1.22-0.83-1.94-2.25-1.94-3.72c0-0.3,0.03-0.57,0.08-0.85c-0.15,0.23-0.34,0.45-0.54,0.65c-0.86,0.85-2,1.32-3.2,1.32
		c-0.29,0-0.56-0.03-0.81-0.08L23.55,47.64L23.55,47.64z M35.45,51.67l0.89,1.58c0.61,1.11,1.38,2.13,2.26,3.01
		c1.65,1.65,3.67,2.82,5.9,3.46c1.12-2.01,1.7-4.26,1.7-6.59c0-1.28-0.18-2.56-0.53-3.8l-0.5-1.74l-1.8,0.34
		C43.11,47.96,42.81,48,42.52,48c-1.22,0-2.36-0.47-3.22-1.34c-0.18-0.18-0.34-0.37-0.49-0.58c0.06,0.27,0.09,0.53,0.09,0.82
		c0,1.51-0.72,2.88-1.96,3.73L35.45,51.67L35.45,51.67z M9.94,45.43c1.98,1.13,4.25,1.72,6.6,1.72c0,0,0,0,0.01,0
		c1.25,0,2.5-0.19,3.73-0.56l1.73-0.51l-0.33-1.77c-0.26-1.46,0.2-2.97,1.25-4.03c0.2-0.19,0.41-0.36,0.63-0.52
		c-0.24,0.04-0.47,0.06-0.72,0.06c-1.5,0-2.91-0.73-3.75-1.97l-1.02-1.51l-1.6,0.88c-1.15,0.63-2.17,1.4-3.07,2.31
		C11.74,41.2,10.55,43.22,9.94,45.43L9.94,45.43z M46.65,46.06l1.74,0.52c1.25,0.35,2.54,0.53,3.8,0.53c2.34,0,4.62-0.58,6.6-1.7
		c-0.62-2.21-1.81-4.22-3.46-5.87c-0.9-0.92-1.93-1.67-3.06-2.31l-1.59-0.88l-1.03,1.51c-0.85,1.23-2.25,1.97-3.74,1.97
		c-0.24,0-0.48-0.02-0.71-0.06c0.18,0.15,0.36,0.3,0.53,0.47c1.05,1.05,1.53,2.56,1.25,4.04L46.65,46.06L46.65,46.06z M26.15,38.98
		c1.23,0,2.36,0.48,3.21,1.33c1.11,1.1,1.52,2.63,1.24,4.08c0.82-1.21,2.21-2.02,3.77-2.02c1.51,0,2.86,0.76,3.68,1.91
		c-0.05-0.27-0.08-0.55-0.08-0.82c0-1.22,0.47-2.37,1.32-3.21c0.87-0.87,2.01-1.34,3.22-1.34c0.24,0,0.48,0.02,0.71,0.06
		c-1.14-0.83-1.88-2.15-1.88-3.67c0-1.54,0.78-2.93,1.97-3.74c-0.25,0.05-0.5,0.06-0.77,0.06c-1.21,0-2.36-0.47-3.21-1.31
		c-0.87-0.87-1.34-2.01-1.34-3.22c0-0.27,0.03-0.55,0.08-0.81c-0.16,0.23-0.34,0.44-0.54,0.64c-0.85,0.87-1.99,1.33-3.22,1.33
		c-1.49,0-2.82-0.74-3.64-1.86c0.03,0.24,0.06,0.53,0.06,0.78c0,1.21-0.48,2.35-1.33,3.2c-0.84,0.85-1.99,1.33-3.2,1.33
		c-0.24,0-0.48-0.02-0.72-0.06c0.21,0.13,0.38,0.3,0.56,0.47c0.85,0.86,1.33,1.99,1.33,3.19c0,1.22-0.49,2.35-1.34,3.21
		c-0.19,0.19-0.39,0.37-0.62,0.53C25.65,38.99,25.9,38.98,26.15,38.98L26.15,38.98z M7.16,27.29c-2.17,2.18-3.35,5.01-3.35,8.01
		c0,3,1.19,5.82,3.35,8.01c0.84-2.28,2.17-4.39,3.91-6.12c0.15-0.16,0.31-0.31,0.45-0.44l1.56-1.46l-1.56-1.47
		c-0.15-0.15-0.3-0.29-0.45-0.43C9.34,31.67,8,29.57,7.16,27.29L7.16,27.29z M55.61,35.27l1.59,1.49c0.15,0.13,0.3,0.29,0.47,0.44
		c1.73,1.72,3.06,3.82,3.9,6.08c2.16-2.18,3.36-4.99,3.36-8c0-0.73-0.08-1.47-0.23-2.18c-0.02-0.2-0.06-0.36-0.11-0.52
		c-0.03-0.14-0.06-0.26-0.09-0.39l-0.05-0.13l-0.01-0.06l-0.02-0.05l-0.03-0.11c-0.06-0.13-0.08-0.25-0.13-0.37
		c-0.05-0.12-0.09-0.25-0.15-0.36l-0.04-0.13l-0.02-0.04c-0.06-0.12-0.11-0.26-0.18-0.4l-0.02-0.04l-0.01-0.03
		c-0.14-0.28-0.27-0.53-0.41-0.81l-0.03-0.02l0-0.03l-0.13-0.2c-0.47-0.76-1.04-1.48-1.71-2.14c-0.84,2.28-2.17,4.38-3.91,6.11
		c-0.15,0.13-0.29,0.28-0.44,0.4L55.61,35.27L55.61,35.27z M9.94,25.19c0.61,2.18,1.81,4.22,3.46,5.87
		c0.88,0.89,1.91,1.66,3.04,2.29l1.61,0.9l1.04-1.51c0.84-1.25,2.25-1.98,3.74-1.98c0.24,0,0.48,0.02,0.72,0.06
		c-0.19-0.14-0.37-0.3-0.54-0.47c-1.07-1.05-1.54-2.55-1.26-4.05l0.33-1.79l-1.74-0.5c-1.24-0.37-2.53-0.56-3.8-0.56
		C14.2,23.47,11.93,24.07,9.94,25.19L9.94,25.19z M45.88,30.77c1.5,0,2.9,0.73,3.76,1.98l1.03,1.48l1.59-0.88
		c1.16-0.63,2.2-1.4,3.08-2.28c1.66-1.66,2.84-3.69,3.45-5.88c-1.99-1.12-4.27-1.72-6.58-1.73c-1.26,0-2.53,0.18-3.75,0.53
		l-1.74,0.5l0.32,1.76c0.27,1.51-0.18,2.97-1.26,4.04c-0.19,0.19-0.41,0.37-0.65,0.53C45.37,30.79,45.63,30.77,45.88,30.77
		L45.88,30.77z M35.45,18.93l1.47,1.03c1.23,0.85,1.96,2.25,1.96,3.73c0,0.28-0.03,0.57-0.09,0.83c0.16-0.23,0.33-0.44,0.55-0.65
		c0.85-0.85,1.99-1.33,3.19-1.33c0.28,0,0.57,0.02,0.83,0.08l1.8,0.33l0.49-1.76c0.36-1.24,0.52-2.48,0.52-3.71
		c0-2.32-0.59-4.59-1.7-6.58c-2.23,0.63-4.26,1.8-5.89,3.43c-0.91,0.9-1.68,1.94-2.29,3.04L35.45,18.93L35.45,18.93z M26.22,22.61
		c1.21,0,2.34,0.48,3.2,1.33c0.17,0.17,0.31,0.33,0.45,0.53c-0.04-0.25-0.06-0.5-0.06-0.75c0-1.5,0.72-2.91,1.96-3.76l1.5-1.03
		l-0.9-1.59c-0.63-1.11-1.39-2.12-2.27-2.99c-1.61-1.64-3.64-2.82-5.86-3.45c-1.12,2-1.71,4.27-1.71,6.59
		c0,1.23,0.18,2.52,0.53,3.78l0.49,1.77l1.8-0.34C25.64,22.63,25.93,22.61,26.22,22.61L26.22,22.61z M18.24,10.71L18.24,10.71
		c-0.22,0.04-0.46,0.1-0.67,0.16c-0.09,0.02-0.19,0.06-0.3,0.08l-0.11,0.03l-0.15,0.05c-0.02,0.02-0.08,0.04-0.13,0.05l-0.06,0.03
		c-0.08,0.03-0.17,0.06-0.27,0.1l-0.07,0.03l-0.06,0.03l-0.09,0.03c-0.13,0.06-0.26,0.1-0.38,0.17l-0.06,0.02l-0.03,0.02l-0.02,0.01
		l-0.02,0.01l-0.08,0.04l-0.09,0.05l-0.07,0.02l-0.02,0c-1.07,0.56-2.02,1.24-2.82,2.05c-2.12,2.12-3.27,4.95-3.29,8.04
		c2.2-1.02,4.64-1.56,7.09-1.56h0.09c0.18,0,0.37,0.01,0.53,0.02l2.15,0.07l-0.08-2.15c-0.01-0.21-0.01-0.43-0.01-0.63
		c0-2.45,0.53-4.89,1.55-7.07c-0.52,0-1.03,0.05-1.55,0.1c-0.15,0.03-0.28,0.03-0.42,0.06l-0.01,0.01h-0.02l-0.13,0l-0.13,0.04
		l-0.15,0.04L18.24,10.71L18.24,10.71z M52.19,20.17L52.19,20.17c2.44,0,4.86,0.54,7.06,1.56c-0.01-3.09-1.16-5.92-3.28-8.04
		c-0.51-0.52-1.09-0.99-1.71-1.4c-0.15-0.1-0.28-0.18-0.4-0.25c-0.14-0.09-0.27-0.16-0.39-0.22l-0.04-0.04l-0.08-0.04l-0.03-0.02
		l-0.06-0.03l-0.07-0.03c-0.12-0.06-0.24-0.11-0.34-0.17c-0.14-0.07-0.28-0.11-0.41-0.17l-0.11-0.04l-0.08-0.05
		c-0.13-0.04-0.25-0.09-0.37-0.15l-0.05-0.02l-0.03-0.01c-0.3-0.09-0.58-0.17-0.87-0.27h-0.04l-0.02-0.02l-0.21-0.04
		c-0.89-0.21-1.8-0.32-2.72-0.33c1.02,2.21,1.55,4.65,1.55,7.09c0,0.19,0,0.4-0.01,0.62l-0.1,2.17l2.18-0.1
		C51.77,20.17,51.98,20.17,52.19,20.17L52.19,20.17z M26.36,8.12c2.28,0.84,4.37,2.17,6.1,3.89c0.13,0.14,0.28,0.28,0.41,0.44
		l1.46,1.6l1.48-1.59c0.16-0.16,0.3-0.32,0.44-0.47c1.74-1.72,3.83-3.05,6.11-3.9C42,7.73,41.6,7.38,41.18,7.07
		c-0.11-0.08-0.21-0.15-0.32-0.23l-0.02-0.01l-0.02,0l-0.11-0.09l-0.13-0.08l-0.11-0.06L40.3,6.48l0,0
		c-0.15-0.1-0.33-0.21-0.53-0.32c-0.1-0.06-0.18-0.1-0.27-0.15l-0.1-0.06l-0.16-0.07c-0.03,0-0.08-0.03-0.12-0.06h-0.03l-0.05-0.04
		c-0.08-0.03-0.16-0.07-0.23-0.11l-0.07-0.02l-0.04-0.02L38.6,5.58c-0.13-0.05-0.26-0.1-0.4-0.15l-0.04-0.02L38.12,5.4
		c-0.06-0.02-0.12-0.04-0.17-0.06L37.9,5.32L37.8,5.28c-1.14-0.37-2.29-0.55-3.44-0.55C31.37,4.73,28.55,5.93,26.36,8.12L26.36,8.12
		z"/>
</g>
</svg>
