<?xml version="1.0" encoding="utf-8"?>
<!-- Generator: Adobe Illustrator 26.0.2, SVG Export Plug-In . SVG Version: 6.00 Build 0)  -->
<svg version="1.1" id="Layer_1" xmlns="http://www.w3.org/2000/svg" xmlns:xlink="http://www.w3.org/1999/xlink" x="0px" y="0px"
	 viewBox="0 0 330.04 71" style="enable-background:new 0 0 330.04 71;" xml:space="preserve">
<style type="text/css">
	.st0{fill:#FFFFFF;}
	.st1{fill:#807F82;}
	.st2{fill:#8AC440;}
	.st3{fill:#81B941;}
	.st4{fill:#F9B001;}
	.st5{fill:#807F83;}
</style>
<g>
	<g>
		<g>
			<path class="st0" d="M79.25,27.1c0-2.1-0.2-3.64-2.92-3.84l-0.6-0.03v-1.19h11.15v1.19h-0.44c-1.11,0.08-2.25,0.2-2.81,1.3
				c-0.39,0.83-0.44,2.18-0.44,3.24v5.89h14.2v-6.53c0-2.1-0.2-3.68-2.97-3.88l-0.59-0.03v-1.19h11.07v1.19h-0.4
				c-1.07,0.12-2.21,0.24-2.73,1.3c-0.39,0.71-0.43,1.9-0.43,2.85v16.53c0,2.05,0.2,3.64,2.97,3.83l0.59,0.04v1.19H93.85v-1.19h0.4
				c1.07-0.08,2.18-0.24,2.73-1.3c0.4-0.83,0.44-2.18,0.44-3.2v-7.95h-14.2v8.46c0,2.18,0.16,3.76,3.01,3.95l0.68,0.04v1.19H75.73
				v-1.19h0.4c1.07-0.12,2.18-0.24,2.73-1.3c0.36-0.71,0.39-1.86,0.39-2.81V42.8V27.1z"/>
			<path class="st0" d="M114.25,43.95c0,2.18,0.36,3.64,2.81,3.84h0.48v1.19H107.1v-1.19h0.36c2.61-0.16,3.01-1.42,3.01-3.84v-8.23
				c0-2.21-0.4-3.67-2.89-3.83h-0.64V30.7l6.05-0.87h1.27V43.95z M112.36,27.85c-1.39,0-2.33-1.11-2.33-2.45
				c0-1.23,1.15-2.29,2.37-2.29c1.39,0,2.38,1.11,2.38,2.45C114.77,26.86,113.62,27.85,112.36,27.85z"/>
			<path class="st0" d="M122.76,27.1c0-2.1-0.2-3.64-2.93-3.84l-0.59-0.03v-1.19h11.15v1.19h-0.43c-1.11,0.08-2.26,0.2-2.81,1.3
				c-0.4,0.83-0.43,2.18-0.43,3.24v5.89h14.2v-6.53c0-2.1-0.2-3.68-2.97-3.88l-0.59-0.03v-1.19h11.07v1.19h-0.39
				c-1.07,0.12-2.21,0.24-2.73,1.3c-0.4,0.71-0.43,1.9-0.43,2.85v16.53c0,2.05,0.2,3.64,2.97,3.83l0.59,0.04v1.19h-11.07v-1.19h0.4
				c1.07-0.08,2.18-0.24,2.73-1.3c0.4-0.83,0.44-2.18,0.44-3.2v-7.95h-14.2v8.46c0,2.18,0.16,3.76,3,3.95l0.67,0.04v1.19h-11.15
				v-1.19h0.39c1.07-0.12,2.18-0.24,2.73-1.3c0.36-0.71,0.4-1.86,0.4-2.81V42.8V27.1z"/>
			<path class="st0" d="M153.72,37.54l-0.08,2.02c0,1.82,0.67,3.96,1.7,5.49c1.11,1.63,3.08,2.45,5.02,2.45
				c2.69,0,4.55-1.3,5.81-3.63l1.31,0.67c-1.42,3.13-4.71,4.75-8.07,4.75c-2.65,0-4.98-0.71-6.92-2.57
				c-1.94-1.94-2.97-4.71-2.97-7.39c0-5.73,3.6-9.85,9.45-9.89h0.08c4.67,0,8.42,3.12,8.42,7.95v0.16H153.72z M163.29,35.92
				c0-2.92-1.86-4.86-4.55-4.86c-2.81,0-4.67,2.33-4.94,4.86H163.29z"/>
			<path class="st0" d="M191.68,47.94c-0.95,0.91-2.57,1.34-3.87,1.34h-0.16c-1.94-0.04-3.72-0.91-4.31-2.85
				c-2.33,1.82-4.47,2.85-7.44,2.85c-2.76,0-6.05-1.5-6.05-4.67c0-2.69,1.66-3.96,3.92-4.94c2.1-0.95,4.39-1.38,6.64-1.62l2.93-0.32
				v-2.84c-0.08-1.23-0.28-2.26-1.38-3.01c-1.03-0.67-2.37-0.83-3.56-0.83c-1.23,0-3.8,0.59-3.8,2.1v0.52c0,1.3-0.51,2.37-2.01,2.37
				c-0.95,0-1.86-0.75-1.86-1.74c0-1.66,1.82-3.12,3.2-3.72c1.66-0.71,3.8-1.11,5.58-1.15h0.16c1.66,0,3.72,0.55,5.14,1.3
				c2.14,1.15,2.33,2.65,2.33,4.86v7.76c0,1.66,0.24,4.14,2.18,4.14c0.59,0,1.14-0.27,1.62-0.59L191.68,47.94z M183.34,39.12
				c-3.01,0.28-9.49,1.11-9.49,5.03c0,2.01,1.7,3.2,3.6,3.2c2.14,0,4.27-1.26,5.89-2.65V39.12z"/>
			<path class="st0" d="M199.51,43.95c0,2.14,0.31,3.64,2.73,3.79l0.47,0.04v1.19h-10.36v-1.19h0.36c2.57-0.2,3-1.46,3-3.84V26.98
				c0-2.05-0.2-3.63-2.97-3.84l-0.55-0.04v-1.19c1.94-0.23,3.88-0.55,5.73-1.3h1.59V43.95z"/>
			<path class="st0" d="M216.65,31.09h-5.62V42.2c0,2.22,0,5.38,3.01,5.38c1.42,0,2.49-0.79,3.44-1.74l0.99,0.87
				c-1.3,1.78-3.43,2.57-5.57,2.57c-1.3,0-2.81-0.28-3.92-0.95c-1.58-1.03-1.74-2.57-1.74-4.31V31.09h-3.32v-1.27
				c4.55-0.16,5.42-3.36,5.42-7.24h1.7v7.24h5.62V31.09z"/>
			<path class="st0" d="M239.95,43.95c0,2.18,0.31,3.64,2.76,3.84h0.48v1.19h-10.6v-1.19h0.48c2.65-0.12,3.08-1.3,3.08-3.84v-8.5
				c0-0.95-0.04-2.02-0.63-2.85c-0.64-0.75-1.7-1.11-2.65-1.11c-2.29,0-5.38,1.54-6.96,3.13v9.33c0,2.18,0.27,3.68,2.69,3.84h0.51
				v1.19h-10.56v-1.19h0.43c2.65-0.12,3.13-1.3,3.13-3.84V26.98c0-2.05-0.2-3.63-2.97-3.84l-0.55-0.04v-1.19
				c1.94-0.23,3.88-0.55,5.73-1.3h1.58v12.14c2.25-1.97,4.94-3.32,8.03-3.32c1.46,0,3.24,0.44,4.43,1.35
				c1.54,1.18,1.58,2.81,1.58,4.54v0.27V43.95z"/>
			<path class="st0" d="M270,31.93h-1.26l-0.16-0.32c-0.91-1.73-2.09-4.07-3.44-5.53c-1.73-1.86-3.99-2.73-6.56-2.73
				c-3.05,0-5.42,1.38-7,3.87c-1.54,2.49-2.02,5.61-2.02,8.55c0,2.72,0.55,5.93,2.21,8.18c1.74,2.37,4.63,3.72,7.59,3.72
				c4.04,0,7.8-2.49,9.77-5.93l1.7,0.95c-2.61,4.54-6.88,6.96-12.1,6.96c-8.19,0-13.92-5.93-13.92-14.08c0-7.55,5.5-14.2,13.29-14.2
				c2.89,0,5.7,0.87,7.87,2.85l0.87-1.82h1.27L270,31.93z"/>
			<path class="st0" d="M294.76,47.94c-0.95,0.91-2.57,1.34-3.88,1.34h-0.16c-1.94-0.04-3.71-0.91-4.31-2.85
				c-2.33,1.82-4.47,2.85-7.44,2.85c-2.77,0-6.05-1.5-6.05-4.67c0-2.69,1.66-3.96,3.91-4.94c2.1-0.95,4.39-1.38,6.65-1.62l2.92-0.32
				v-2.84c-0.08-1.23-0.28-2.26-1.39-3.01c-1.02-0.67-2.37-0.83-3.56-0.83c-1.22,0-3.79,0.59-3.79,2.1v0.52
				c0,1.3-0.52,2.37-2.02,2.37c-0.95,0-1.86-0.75-1.86-1.74c0-1.66,1.82-3.12,3.2-3.72c1.66-0.71,3.8-1.11,5.58-1.15h0.16
				c1.66,0,3.71,0.55,5.14,1.3c2.13,1.15,2.33,2.65,2.33,4.86v7.76c0,1.66,0.23,4.14,2.17,4.14c0.59,0,1.15-0.27,1.62-0.59
				L294.76,47.94z M286.41,39.12c-3,0.28-9.49,1.11-9.49,5.03c0,2.01,1.7,3.2,3.59,3.2c2.14,0,4.28-1.26,5.89-2.65V39.12z"/>
			<path class="st0" d="M302.59,43.95c0.08,2.25,0.4,3.68,2.93,3.79l0.67,0.04v1.19h-10.88v-1.19h0.44
				c2.61-0.16,3.05-1.38,3.05-3.84v-8.23c0-2.21-0.4-3.67-2.89-3.83h-0.63V30.7l6.05-0.87h1.27v2.97c1.74-1.78,4-3.36,6.65-3.36
				c1.3,0,2.93,0.51,2.93,2.1c0,1.26-0.95,2.13-2.18,2.13c-1.86,0-2.29-1.3-3.52-1.3c-1.35,0-3,1.23-3.88,2.18V43.95z"/>
			<path class="st0" d="M315.54,37.54l-0.08,2.02c0,1.82,0.68,3.96,1.7,5.49c1.1,1.63,3.08,2.45,5.02,2.45
				c2.69,0,4.55-1.3,5.81-3.63l1.31,0.67c-1.43,3.13-4.71,4.75-8.07,4.75c-2.65,0-4.98-0.71-6.92-2.57
				c-1.94-1.94-2.97-4.71-2.97-7.39c0-5.73,3.6-9.85,9.45-9.89h0.08c4.67,0,8.42,3.12,8.42,7.95v0.16H315.54z M325.11,35.92
				c0-2.92-1.86-4.86-4.54-4.86c-2.81,0-4.66,2.33-4.94,4.86H325.11z"/>
		</g>
	</g>
	<g>
		<g>
			<path class="st2" d="M35.8,33.82c-1.21,1.22-3.19,1.22-4.41,0c-1.21-1.22-1.21-3.18,0-4.4c0.75-0.74,1.81-1.05,2.77-0.86
				c0.14-0.49,0.23-1.01,0.23-1.54c0-2.82-2.1-5.1-4.68-5.1c-0.3,0-0.59,0.02-0.89,0.09c-0.05,0-0.1,0.01-0.14,0.03
				c-0.09,0.01-0.16,0.03-0.23,0.05c-0.07,0.03-0.15,0.06-0.21,0.09c-0.05,0.02-0.1,0.04-0.16,0.05c-0.08,0.04-0.16,0.05-0.23,0.1
				c-0.1,0.06-0.23,0.12-0.35,0.17c-0.02,0.03-0.04,0.05-0.06,0.06c-1.43,0.88-2.39,2.53-2.39,4.46c0,0.53,0.08,1.03,0.21,1.52
				c0.98-0.18,2,0.1,2.74,0.85c1.22,1.2,1.22,3.18,0,4.38c-1.2,1.24-3.17,1.24-4.4,0c-0.73-0.75-1.03-1.78-0.84-2.74
				c-0.48-0.15-0.99-0.21-1.51-0.21c-1.74,0-3.28,0.79-4.2,1.99c-0.05,0.06-0.09,0.14-0.13,0.2c-0.03,0.04-0.07,0.08-0.1,0.14
				c-0.04,0.07-0.1,0.16-0.14,0.23c-0.03,0.03-0.06,0.08-0.08,0.15c-0.03,0.08-0.07,0.14-0.11,0.24c-0.02,0.07-0.05,0.12-0.07,0.2
				c-0.01,0.04-0.04,0.1-0.07,0.16c-0.14,0.44-0.22,0.89-0.22,1.34c0,2.58,2.3,4.68,5.12,4.68c0.54,0,1.05-0.08,1.54-0.22
				c-0.18-0.98,0.1-2.02,0.86-2.77c1.21-1.22,3.18-1.22,4.39,0c1.22,1.21,1.22,3.17,0,4.38c-0.76,0.77-1.79,1.05-2.77,0.86
				c-0.13,0.48-0.22,0.99-0.22,1.54c0,2.82,2.09,5.09,4.67,5.09s4.67-2.27,4.67-5.09c0-0.54-0.09-1.04-0.21-1.52
				c-0.97,0.18-2.01-0.11-2.77-0.86c-1.22-1.2-1.22-3.18,0-4.38c1.21-1.23,3.18-1.23,4.39,0c0.76,0.75,1.03,1.76,0.85,2.74
				c0.48,0.14,0.99,0.21,1.53,0.21c2.81,0,5.1-2.09,5.1-4.66c0-0.32-0.03-0.61-0.1-0.89c0-0.04-0.01-0.08-0.02-0.13
				c-0.03-0.1-0.06-0.19-0.08-0.27c-0.01-0.06-0.04-0.1-0.05-0.14c-0.67-1.89-2.58-3.24-4.86-3.24c-0.54,0-1.06,0.08-1.55,0.22
				C36.84,32.02,36.56,33.07,35.8,33.82z"/>
			<path class="st2" d="M48.4,17.52l0.02-11.61H11.16l-0.02,11.54L0,17.43v36.03l11.06,0.02l-0.03,11.61H48.3l0.02-11.54l11.13,0.02
				V17.54L48.4,17.52z M39.09,28.34c4.19,0,7.58,3.19,7.58,7.15c0,3.96-3.4,7.16-7.58,7.16c-0.35,0-0.71-0.03-1.05-0.07
				c1.53,1.12,3.42,1.74,5.32,1.69c1.89-0.09,3.72-0.82,5.08-2.13c-1.12,2.89-3.89,4.91-6.98,5.1c-0.17,3.08-2.22,5.86-5.11,6.97
				c1.31-1.36,2.06-3.19,2.13-5.07c0.07-1.89-0.54-3.78-1.65-5.32c0.03,0.35,0.07,0.69,0.07,1.03c0,4.2-3.21,7.59-7.16,7.59
				c-3.95,0-7.16-3.39-7.16-7.59c0-0.34,0.03-0.68,0.08-1.03c-1.13,1.54-1.75,3.42-1.66,5.32c0.06,1.88,0.81,3.71,2.11,5.07
				c-1.69-0.67-3.12-1.87-4.04-3.45c-0.53-0.92-0.87-1.93-1-2.97c-0.02-0.14-0.04-0.28-0.05-0.43c0-0.1,0.03-0.12-0.07-0.15
				c-0.07,0-0.12,0-0.19-0.01c-0.24-0.02-0.49-0.06-0.74-0.1c-0.51-0.1-1.01-0.24-1.5-0.45c-2.06-0.8-3.7-2.48-4.49-4.52
				c1.37,1.3,3.19,2.04,5.07,2.13c1.91,0.05,3.79-0.56,5.31-1.67c-0.33,0.03-0.69,0.05-1.05,0.05c-4.18,0-7.56-3.2-7.56-7.16
				c0-3.95,3.39-7.15,7.56-7.15c0.36,0,0.73,0.02,1.05,0.07c-1.52-1.12-3.4-1.73-5.31-1.66c-1.88,0.08-3.7,0.81-5.07,2.11
				c0.66-1.67,1.89-3.15,3.46-4.05c0.91-0.51,1.93-0.85,2.97-0.99c0.14,0,0.28-0.02,0.43-0.05c0.1,0,0.14,0.05,0.14-0.06
				c0-0.07,0-0.12,0.01-0.17c0.02-0.26,0.06-0.5,0.11-0.77c0.09-0.5,0.23-1,0.43-1.49c0.81-2.06,2.49-3.7,4.54-4.49
				c-1.29,1.37-2.05,3.19-2.11,5.08c-0.08,1.88,0.53,3.76,1.66,5.3c-0.05-0.35-0.08-0.7-0.08-1.05c0-4.19,3.21-7.57,7.15-7.57
				c3.96,0,7.16,3.38,7.16,7.57c0,0.36-0.03,0.71-0.08,1.06c1.14-1.53,1.75-3.41,1.68-5.31c-0.07-1.89-0.82-3.71-2.13-5.08
				c1.7,0.65,3.15,1.89,4.05,3.45c0.53,0.92,0.86,1.93,0.99,2.98c0.03,0.14,0.04,0.27,0.05,0.42c0.01,0.09-0.02,0.13,0.08,0.13
				c0.07,0,0.12,0.03,0.18,0.03c0.25,0.02,0.5,0.06,0.75,0.09c0.51,0.09,1.01,0.24,1.5,0.43c2.05,0.82,3.69,2.51,4.49,4.54
				c-1.36-1.3-3.19-2.03-5.08-2.11c-1.9-0.07-3.78,0.52-5.29,1.66C38.4,28.36,38.75,28.34,39.09,28.34z"/>
		</g>
	</g>
</g>
</svg>
