<?xml version="1.0" encoding="utf-8"?>
<!-- Generator: Adobe Illustrator 26.0.2, SVG Export Plug-In . SVG Version: 6.00 Build 0)  -->
<svg version="1.1" id="Layer_1" xmlns="http://www.w3.org/2000/svg" xmlns:xlink="http://www.w3.org/1999/xlink" x="0px" y="0px"
	 viewBox="0 0 59.46 71" style="enable-background:new 0 0 59.46 71;" xml:space="preserve">
<style type="text/css">
	.st0{fill:#FFFFFF;}
	.st1{fill:#807F82;}
	.st2{fill:#8AC440;}
	.st3{fill:#81B941;}
	.st4{fill:#F9B001;}
	.st5{fill:#807F83;}
</style>
<g>
	<g>
		<path class="st0" d="M35.8,33.82c-1.21,1.22-3.19,1.22-4.41,0c-1.21-1.22-1.21-3.18,0-4.4c0.75-0.74,1.81-1.05,2.77-0.86
			c0.14-0.49,0.23-1.01,0.23-1.54c0-2.82-2.1-5.1-4.68-5.1c-0.3,0-0.59,0.02-0.89,0.09c-0.05,0-0.1,0.01-0.14,0.03
			c-0.09,0.01-0.16,0.03-0.23,0.05c-0.07,0.03-0.15,0.06-0.21,0.09c-0.05,0.02-0.1,0.04-0.16,0.05c-0.08,0.04-0.16,0.05-0.23,0.1
			c-0.1,0.06-0.23,0.12-0.35,0.17c-0.02,0.03-0.04,0.05-0.06,0.06c-1.43,0.88-2.39,2.53-2.39,4.46c0,0.53,0.08,1.03,0.21,1.52
			c0.98-0.18,2,0.1,2.74,0.85c1.22,1.2,1.22,3.18,0,4.38c-1.2,1.24-3.17,1.24-4.4,0c-0.73-0.75-1.03-1.78-0.84-2.74
			c-0.48-0.15-0.99-0.21-1.51-0.21c-1.74,0-3.28,0.79-4.2,1.99c-0.05,0.06-0.09,0.14-0.13,0.2c-0.03,0.04-0.07,0.08-0.1,0.14
			c-0.04,0.07-0.1,0.16-0.14,0.23c-0.03,0.03-0.06,0.08-0.08,0.15c-0.03,0.08-0.07,0.14-0.11,0.24c-0.02,0.07-0.05,0.12-0.07,0.2
			c-0.01,0.04-0.04,0.1-0.07,0.16c-0.14,0.44-0.22,0.89-0.22,1.34c0,2.58,2.3,4.68,5.12,4.68c0.54,0,1.05-0.08,1.54-0.22
			c-0.18-0.98,0.1-2.02,0.86-2.77c1.21-1.22,3.18-1.22,4.39,0c1.22,1.21,1.22,3.17,0,4.38c-0.76,0.77-1.79,1.05-2.77,0.86
			c-0.13,0.48-0.22,0.99-0.22,1.54c0,2.82,2.09,5.09,4.67,5.09s4.67-2.27,4.67-5.09c0-0.54-0.09-1.04-0.21-1.52
			c-0.97,0.18-2.01-0.11-2.77-0.86c-1.22-1.2-1.22-3.18,0-4.38c1.21-1.23,3.18-1.23,4.39,0c0.76,0.75,1.03,1.76,0.85,2.74
			c0.48,0.14,0.99,0.21,1.53,0.21c2.81,0,5.1-2.09,5.1-4.66c0-0.32-0.03-0.61-0.1-0.89c0-0.04-0.01-0.08-0.02-0.13
			c-0.03-0.1-0.06-0.19-0.08-0.27c-0.01-0.06-0.04-0.1-0.05-0.14c-0.67-1.89-2.58-3.24-4.86-3.24c-0.54,0-1.06,0.08-1.55,0.22
			C36.84,32.02,36.56,33.07,35.8,33.82z"/>
		<path class="st0" d="M48.4,17.52l0.02-11.61H11.16l-0.02,11.54L0,17.43v36.03l11.06,0.02l-0.03,11.61H48.3l0.02-11.54l11.13,0.02
			V17.54L48.4,17.52z M39.09,28.34c4.19,0,7.58,3.19,7.58,7.15c0,3.96-3.4,7.16-7.58,7.16c-0.35,0-0.71-0.03-1.05-0.07
			c1.53,1.12,3.42,1.74,5.32,1.69c1.89-0.09,3.72-0.82,5.08-2.13c-1.12,2.89-3.89,4.91-6.98,5.1c-0.17,3.08-2.22,5.86-5.11,6.97
			c1.31-1.36,2.06-3.19,2.13-5.07c0.07-1.89-0.54-3.78-1.65-5.32c0.03,0.35,0.07,0.69,0.07,1.03c0,4.2-3.21,7.59-7.16,7.59
			c-3.95,0-7.16-3.39-7.16-7.59c0-0.34,0.03-0.68,0.08-1.03c-1.13,1.54-1.75,3.42-1.66,5.32c0.06,1.88,0.81,3.71,2.11,5.07
			c-1.69-0.67-3.12-1.87-4.04-3.45c-0.53-0.92-0.87-1.93-1-2.97c-0.02-0.14-0.04-0.28-0.05-0.43c0-0.1,0.03-0.12-0.07-0.15
			c-0.07,0-0.12,0-0.19-0.01c-0.24-0.02-0.49-0.06-0.74-0.1c-0.51-0.1-1.01-0.24-1.5-0.45c-2.06-0.8-3.7-2.48-4.49-4.52
			c1.37,1.3,3.19,2.04,5.07,2.13c1.91,0.05,3.79-0.56,5.31-1.67c-0.33,0.03-0.69,0.05-1.05,0.05c-4.18,0-7.56-3.2-7.56-7.16
			c0-3.95,3.39-7.15,7.56-7.15c0.36,0,0.73,0.02,1.05,0.07c-1.52-1.12-3.4-1.73-5.31-1.66c-1.88,0.08-3.7,0.81-5.07,2.11
			c0.66-1.67,1.89-3.15,3.46-4.05c0.91-0.51,1.93-0.85,2.97-0.99c0.14,0,0.28-0.02,0.43-0.05c0.1,0,0.14,0.05,0.14-0.06
			c0-0.07,0-0.12,0.01-0.17c0.02-0.26,0.06-0.5,0.11-0.77c0.09-0.5,0.23-1,0.43-1.49c0.81-2.06,2.49-3.7,4.54-4.49
			c-1.29,1.37-2.05,3.19-2.11,5.08c-0.08,1.88,0.53,3.76,1.66,5.3c-0.05-0.35-0.08-0.7-0.08-1.05c0-4.19,3.21-7.57,7.15-7.57
			c3.96,0,7.16,3.38,7.16,7.57c0,0.36-0.03,0.71-0.08,1.06c1.14-1.53,1.75-3.41,1.68-5.31c-0.07-1.89-0.82-3.71-2.13-5.08
			c1.7,0.65,3.15,1.89,4.05,3.45c0.53,0.92,0.86,1.93,0.99,2.98c0.03,0.14,0.04,0.27,0.05,0.42c0.01,0.09-0.02,0.13,0.08,0.13
			c0.07,0,0.12,0.03,0.18,0.03c0.25,0.02,0.5,0.06,0.75,0.09c0.51,0.09,1.01,0.24,1.5,0.43c2.05,0.82,3.69,2.51,4.49,4.54
			c-1.36-1.3-3.19-2.03-5.08-2.11c-1.9-0.07-3.78,0.52-5.29,1.66C38.4,28.36,38.75,28.34,39.09,28.34z"/>
	</g>
</g>
</svg>
