<svg xmlns="http://www.w3.org/2000/svg" viewBox="0 0 100 100"><defs><style>.cls-1{fill:none;}.cls-1,.cls-2{stroke:#636569;stroke-miterlimit:10;}.cls-2{fill:#fff;}</style></defs><g id="Layer_2" data-name="Layer 2"><path class="cls-1" d="M14.905,25.406h70.19a2.553,2.553,0,0,1,2.553,2.553V74.594a0,0,0,0,1,0,0h-75.3a0,0,0,0,1,0,0V27.959A2.553,2.553,0,0,1,14.905,25.406Z"/><rect class="cls-1" x="70.217" y="50.576" width="7.137" height="10.754"/><rect class="cls-1" x="22.288" y="50.576" width="7.137" height="10.754"/><rect class="cls-1" x="22.288" y="31.845" width="7.137" height="10.754"/><rect class="cls-1" x="70.217" y="31.845" width="7.137" height="10.754"/><rect class="cls-1" x="37.931" y="51.978" width="23.599" height="22.616"/><line class="cls-1" x1="50" y1="51.978" x2="50" y2="74.594"/><polygon class="cls-2" points="55.636 35.895 51.587 35.895 51.587 31.845 48.413 31.845 48.413 35.895 44.364 35.895 44.364 39.068 48.413 39.068 48.413 43.118 51.587 43.118 51.587 39.068 55.636 39.068 55.636 35.895"/></g></svg>