<svg xmlns="http://www.w3.org/2000/svg" viewBox="0 0 100 100"><defs><style>.cls-1,.cls-2{fill:#fff;}.cls-1,.cls-2,.cls-3,.cls-4{stroke:#636569;stroke-miterlimit:10;}.cls-2{stroke-width:1.041px;}.cls-3,.cls-4{fill:none;}.cls-3{stroke-width:2px;stroke-dasharray:0.97 7.759;}</style></defs><g id="Layer_2" data-name="Layer 2"><circle class="cls-1" cx="50" cy="35.068" r="15.789"/><polyline class="cls-2" points="50 24.533 50 35.939 55.843 35.939"/><circle class="cls-3" cx="50" cy="35.068" r="15.286" transform="translate(-10.299 25.384) rotate(-25.92)"/><path class="cls-4" d="M41.175,65.771l-1.64-3.952a7.529,7.529,0,0,0-2.644-3.286l-2.544-1.776a4.746,4.746,0,0,1-1.67-2.075l-2.133-5.138a1.956,1.956,0,0,0-2.557-1.058l-.582.242a2.209,2.209,0,0,0-1.194,2.888l2.545,6.132a2.935,2.935,0,0,1,.2,1.491l-.118.922"/><path class="cls-4" d="M30.34,70.269l-1.294-3.117a4.545,4.545,0,0,0-.835-1.316l-5.362-5.905a6.1,6.1,0,0,1-1.557-4.64l1.694-18.866a2.041,2.041,0,0,1,2.171-1.853h0a2.039,2.039,0,0,1,1.882,2.317l-.991,7.079.21,5.864"/><polyline class="cls-4" points="47.016 74.56 43.046 64.995 28.203 71.155 32.174 80.721"/><path class="cls-4" d="M58.825,65.771l1.64-3.952a7.529,7.529,0,0,1,2.644-3.286l2.544-1.776a4.746,4.746,0,0,0,1.67-2.075l2.133-5.138a1.956,1.956,0,0,1,2.557-1.058l.582.242a2.209,2.209,0,0,1,1.194,2.888l-2.545,6.132a2.935,2.935,0,0,0-.2,1.491l.118.922"/><path class="cls-4" d="M69.66,70.269l1.294-3.117a4.545,4.545,0,0,1,.835-1.316l5.362-5.905a6.1,6.1,0,0,0,1.557-4.64L77.014,36.425a2.041,2.041,0,0,0-2.171-1.853h0a2.039,2.039,0,0,0-1.882,2.317l.991,7.079-.21,5.864"/><polyline class="cls-4" points="52.984 74.56 56.954 64.995 71.797 71.155 67.826 80.721"/></g></svg>