<svg xmlns="http://www.w3.org/2000/svg" viewBox="0 0 100 100"><defs><style>.cls-1,.cls-2,.cls-3{fill:none;stroke:#636569;stroke-miterlimit:10;}.cls-1{stroke-width:0.873px;}.cls-2,.cls-3{stroke-linecap:round;}.cls-2{stroke-width:0.858px;}.cls-3{stroke-width:0.746px;}</style></defs><g id="Layer_2" data-name="Layer 2"><path class="cls-1" d="M25.212,75.716H74.788a1.027,1.027,0,0,0,.914-1.495L60.449,44.4a1.025,1.025,0,0,1-.113-.467V29.527A1.027,1.027,0,0,1,61.363,28.5h0a1.027,1.027,0,0,0,1.027-1.027V25.311a1.027,1.027,0,0,0-1.027-1.027H38.637a1.027,1.027,0,0,0-1.027,1.027v2.161A1.027,1.027,0,0,0,38.637,28.5h0a1.027,1.027,0,0,1,1.027,1.028V43.936a1.012,1.012,0,0,1-.113.467L24.3,74.221A1.027,1.027,0,0,0,25.212,75.716Z"/><line class="cls-2" x1="35.648" y1="52.162" x2="43.265" y2="52.162"/><line class="cls-2" x1="33.414" y1="56.4" x2="43.062" y2="56.4"/><line class="cls-2" x1="31.501" y1="60.639" x2="43.062" y2="60.639"/><line class="cls-2" x1="29.335" y1="64.877" x2="43.062" y2="64.877"/><line class="cls-2" x1="26.91" y1="69.115" x2="43.062" y2="69.115"/><line class="cls-2" x1="37.914" y1="47.923" x2="43.364" y2="47.923"/><line class="cls-3" x1="39.664" y1="43.685" x2="43.062" y2="43.685"/><line class="cls-3" x1="39.664" y1="39.446" x2="43.062" y2="39.446"/><line class="cls-3" x1="39.664" y1="35.208" x2="43.062" y2="35.208"/></g></svg>