<svg xmlns="http://www.w3.org/2000/svg" viewBox="0 0 100 100"><defs><style>.cls-1{fill:none;}.cls-1,.cls-2{stroke:#636569;stroke-miterlimit:10;}.cls-2{fill:#fff;}</style></defs><g id="Layer_2" data-name="Layer 2"><path class="cls-1" d="M25.168,20.07H90.874a2.39,2.39,0,0,1,2.39,2.39V66.116a0,0,0,0,1,0,0H22.778a0,0,0,0,1,0,0V22.46A2.39,2.39,0,0,1,25.168,20.07Z"/><rect class="cls-1" x="76.946" y="43.632" width="6.681" height="10.067"/><rect class="cls-1" x="32.079" y="43.632" width="6.681" height="10.067"/><rect class="cls-1" x="32.079" y="26.829" width="6.681" height="10.067"/><rect class="cls-1" x="76.946" y="26.829" width="6.681" height="10.067"/><rect class="cls-1" x="46.723" y="44.944" width="22.091" height="21.171"/><line class="cls-1" x1="58.021" y1="44.944" x2="58.021" y2="66.116"/><polygon class="cls-1" points="64.002 31.307 59.524 31.307 59.524 26.829 56.014 26.829 56.014 31.307 51.536 31.307 51.536 34.816 56.014 34.816 56.014 39.295 59.524 39.295 59.524 34.816 64.002 34.816 64.002 31.307"/><circle class="cls-2" cx="24.197" cy="62.469" r="17.461"/><circle class="cls-2" cx="24.197" cy="57.152" r="3.875"/><path class="cls-2" d="M23.117,63.283h2.159a7.3,7.3,0,0,1,7.3,7.3V71.66a0,0,0,0,1,0,0H15.82a0,0,0,0,1,0,0V70.581A7.3,7.3,0,0,1,23.117,63.283Z"/></g></svg>