<svg xmlns="http://www.w3.org/2000/svg" viewBox="0 0 100 100"><defs><style>.cls-1{fill:none;}.cls-1,.cls-2{stroke:#636569;stroke-miterlimit:10;}.cls-2{fill:#fff;}</style></defs><g id="Layer_2" data-name="Layer 2"><circle class="cls-1" cx="30.918" cy="38.177" r="4.736"/><path class="cls-1" d="M29.6,45.67h2.638a8.919,8.919,0,0,1,8.919,8.919v1.319a0,0,0,0,1,0,0H20.679a0,0,0,0,1,0,0V54.59A8.919,8.919,0,0,1,29.6,45.67Z"/><circle class="cls-1" cx="69.082" cy="38.177" r="4.736"/><path class="cls-1" d="M67.763,45.67H70.4a8.919,8.919,0,0,1,8.919,8.919v1.319a0,0,0,0,1,0,0H58.843a0,0,0,0,1,0,0V54.59A8.919,8.919,0,0,1,67.763,45.67Z"/><circle class="cls-1" cx="50" cy="39.618" r="7.567"/><path class="cls-2" d="M47.892,51.59h4.216A14.251,14.251,0,0,1,66.359,65.842v2.108a0,0,0,0,1,0,0H33.641a0,0,0,0,1,0,0V65.842A14.251,14.251,0,0,1,47.892,51.59Z"/></g></svg>