<svg xmlns="http://www.w3.org/2000/svg" viewBox="0 0 100 100"><defs><style>.cls-1{fill:none;stroke:#636569;stroke-miterlimit:10;}</style></defs><g id="Layer_2" data-name="Layer 2"><path class="cls-1" d="M39.86,37.747H60.14a0,0,0,0,1,0,0V73.2a2.354,2.354,0,0,1-2.354,2.354H42.213A2.354,2.354,0,0,1,39.86,73.2V37.747A0,0,0,0,1,39.86,37.747Z"/><rect class="cls-1" x="36.697" y="24.444" width="26.607" height="13.303" rx="3.036"/><line class="cls-1" x1="40.871" y1="24.444" x2="40.871" y2="31.095"/><line class="cls-1" x1="43.44" y1="24.444" x2="43.44" y2="31.095"/><line class="cls-1" x1="46.01" y1="24.444" x2="46.01" y2="31.095"/><polygon class="cls-1" points="56.289 52.357 51.77 52.357 51.77 47.839 48.23 47.839 48.23 52.357 43.711 52.357 43.711 55.898 48.23 55.898 48.23 60.416 51.77 60.416 51.77 55.898 56.289 55.898 56.289 52.357"/></g></svg>