<svg xmlns="http://www.w3.org/2000/svg" viewBox="0 0 100 100"><defs><style>.cls-1{fill:none;stroke:#636569;stroke-miterlimit:10;}</style></defs><g id="Layer_2" data-name="Layer 2"><path class="cls-1" d="M56.742,77.672V65.539h1.842a8.726,8.726,0,0,0,8.726-8.726V52.79h3.774a.724.724,0,0,0,.664-1.012l-4-9.231A14.857,14.857,0,0,1,67.2,39.8a19.56,19.56,0,1,0-36.536,11.61,40.214,40.214,0,0,1,5.218,19.6v6.661"/><path class="cls-1" d="M56.452,38.681A5.179,5.179,0,0,0,47.187,35.5a5.179,5.179,0,0,0-9.265,3.185,5.793,5.793,0,0,0,2.144,4.192L47.187,50l7.153-7.107C55.461,41.662,56.452,40.406,56.452,38.681Z"/></g></svg>