<?xml version="1.0" encoding="UTF-8"?>
<svg id="Layer_1" data-name="Layer 1" xmlns="http://www.w3.org/2000/svg" version="1.1" viewBox="0 0 250 35">
  <defs>
    <style>
      .cls-1 {
        fill: #fab225;
      }

      .cls-1, .cls-2 {
        stroke-width: 0px;
      }

      .cls-2 {
        fill: #807f82;
      }
    </style>
  </defs>
  <path class="cls-1" d="M19.2,18.6c-.3.5-.9.8-1.5.8s-.6,0-.9-.2c.7-1,.7-2.3,0-3.3.3-.1.6-.2.9-.2.6,0,1.2.3,1.5.8l.7-.5c.7-.7,1-1.7.9-2.6h0v-.4h0v-.2h0c0-.2-.5-.9-.5-.9-1.1-1.1-3-1-4.2.2l-.6.7c.5.3.8.9.8,1.6s0,.6-.2.9c-1-.7-2.3-.7-3.3,0,0-.3-.2-.6-.2-.9,0-.6.3-1.2.8-1.5l-.6-.8c-1.2-1.2-3.1-1.3-4.2-.2-1.1,1.1-1,3,.2,4.2l.7.6c.3-.5.9-.8,1.5-.8s.6,0,.9.2c-.7,1-.7,2.3,0,3.3-.3.1-.5.2-.9.2-.6,0-1.2-.3-1.5-.8l-.7.5c-1.2,1.2-1.3,3.1-.2,4.2l.4.3h.2c1.1.7,2.5.4,3.4-.5l.6-.7c-.5-.3-.8-.9-.8-1.6l.2-.9c1,.7,2.3.7,3.3,0,0,.3.2.6.2.9,0,.6-.3,1.2-.8,1.5l.6.8c1.2,1.2,3.1,1.3,4.2.2l.3-.4h0v-.2h0v-.2h0v-.4h0c.2-1,0-2.2-.9-3l-.7-.6h.5,0Z"/>
  <path class="cls-1" d="M0,31.9h28.6V3.1H0v28.9h0ZM21.6,24.8c-1.7,1.7-4.5,1.6-6.3-.2l-.4-.5s-.4-.4-.6-1c0,.4-.5,1-.5,1l-.4.5c-1.8,1.8-4.6,1.8-6.3.1s-1.6-4.5,0-6.3l.5-.4c.4-.3,1-.5,1-.5-.4-.2-1-.6-1-.6l-.5-.4c-1.8-1.8-1.9-4.6-.2-6.3,1.7-1.7,4.5-1.6,6.3.2l.4.5c.3.4.5.9.5.9,0-.5.5-1,.5-1l.4-.5c1.8-1.8,4.6-1.8,6.3-.1s1.6,4.5,0,6.3l-.5.4-.9.5.9.6.5.4c1.8,1.8,1.9,4.6.2,6.3"/>
  <path class="cls-2" d="M49.5,15.9h-.6v-.2c-.5-.8-1.1-2-1.7-2.7-.8-.9-1.9-1.3-3.2-1.3s-2.6.7-3.4,1.9c-.7,1.2-1,2.7-1,4.1s.3,2.9,1.1,3.9c.8,1.1,2.2,1.8,3.7,1.8s3.7-1.2,4.7-2.9l.8.5c-1.3,2.2-3.3,3.3-5.8,3.3-3.9,0-6.7-2.9-6.7-6.8s2.6-6.8,6.4-6.8,2.7.4,3.8,1.4l.4-.9h.6l.9,4.6h0Z"/>
  <path class="cls-2" d="M61.4,23.6c-.5.4-1.2.6-1.9.6h0c-.9,0-1.8-.4-2.1-1.4-1.1.9-2.1,1.4-3.6,1.4s-2.9-.7-2.9-2.2.8-1.9,1.9-2.4c1-.5,2.1-.7,3.2-.8l1.4-.2v-1.4c0-.6,0-1.1-.7-1.4-.5-.3-1.1-.4-1.7-.4s-1.8.3-1.8,1v.2c0,.6-.2,1.1-1,1.1s-.9-.4-.9-.8c0-.8.9-1.5,1.5-1.8.8-.3,1.8-.5,2.7-.6h0c.8,0,1.8.3,2.5.6,1,.6,1.1,1.3,1.1,2.3v3.7c0,.8,0,2,1,2l.8-.3.4.5v.3h0ZM57.4,19.2c-1.4.1-4.6.5-4.6,2.4s.8,1.5,1.7,1.5,2.1-.6,2.8-1.3v-2.7h0Z"/>
  <path class="cls-2" d="M65.1,21.6c0,1,.2,1.8,1.3,1.8h.2v.6h-5v-.6h.2c1.2,0,1.4-.7,1.4-1.8v-8.2c0-1,0-1.8-1.4-1.8h-.3v-.6c.9-.1,1.9-.3,2.8-.6h.8v11.2h0Z"/>
  <path class="cls-2" d="M71.3,21.6c0,1,.2,1.8,1.4,1.8h.2v.6h-5v-.6h.2c1.3,0,1.4-.7,1.4-1.8v-4c0-1.1-.2-1.8-1.4-1.8h-.3v-.6l2.9-.4h.6v6.8h0ZM70.4,13.9c-.7,0-1.1-.5-1.1-1.2s.6-1.1,1.1-1.1,1.1.5,1.1,1.2-.6,1.1-1.2,1.1"/>
  <path class="cls-2" d="M79.8,15.4h-1.9v6.2c0,1,.2,1.8,1.3,1.8h.3v.6h-5v-.6h.2c1.2,0,1.4-.7,1.4-1.8v-6.2h-1.6v-.6h1.6v-.8c0-1,0-1.9.8-2.7s2.3-1.3,3.4-1.3,1.6.3,1.6,1.1-.4.8-.9.8c-.9,0-.9-1.1-1.8-1.1s-.7.2-.9.4c-.4.4-.4.9-.4,1.5v2h1.9v.6h0Z"/>
  <path class="cls-2" d="M88.5,15.9c.9.9,1.4,2.3,1.4,3.6,0,2.9-1.8,4.7-4.7,4.7s-4.6-1.9-4.6-4.7,1.7-4.9,4.6-4.9,2.5.3,3.3,1.2M85.3,15.4c-2.1,0-2.7,2.3-2.7,4.1s.5,4,2.8,4,2.5-2.1,2.5-3.8,0-2-.5-2.8c-.4-.8-1.2-1.4-2.1-1.4h0Z"/>
  <path class="cls-2" d="M94.5,21.6c0,1.1.2,1.8,1.4,1.8h.3v.6h-5.2v-.6h.2c1.3,0,1.5-.7,1.5-1.8v-4c0-1.1-.2-1.8-1.4-1.8h-.3v-.6l2.9-.4h.6v1.4c.8-.9,1.9-1.6,3.2-1.6s1.4.2,1.4,1-.5,1-1,1c-.9,0-1.1-.6-1.7-.6s-1.4.6-1.9,1v4.5h0Z"/>
  <path class="cls-2" d="M110.1,21.6c0,1,.2,1.8,1.3,1.8h.3v.6h-5.1v-.6h.3c1.2,0,1.4-.8,1.4-1.8v-3.9c0-.5,0-1-.3-1.4-.3-.5-.8-.7-1.3-.7-1.3,0-2.5.7-3.4,1.5v4.5c0,1.1.2,1.8,1.4,1.8h.3v.6h-5.2v-.6h.2c1.3,0,1.5-.6,1.5-1.8v-4c0-1.1-.2-1.8-1.4-1.8h-.3v-.6l2.9-.4h.6v1.5c1.1-1.1,2.5-1.7,4-1.7s1.5.3,2.1.8c.6.6.7,1.2.7,2v4.3h0Z"/>
  <path class="cls-2" d="M116.1,21.6c0,1,.2,1.8,1.4,1.8h.2v.6h-5v-.6h.2c1.3,0,1.4-.7,1.4-1.8v-4c0-1.1-.2-1.8-1.4-1.8h-.3v-.6l2.9-.4h.6v6.8h0ZM115.2,13.9c-.7,0-1.1-.5-1.1-1.2s.6-1.1,1.1-1.1,1.1.5,1.1,1.2-.6,1.1-1.2,1.1"/>
  <path class="cls-2" d="M129,23.6c-.5.4-1.2.6-1.9.6h0c-.9,0-1.8-.4-2.1-1.4-1.1.9-2.1,1.4-3.6,1.4s-2.9-.7-2.9-2.2.8-1.9,1.9-2.4c1-.5,2.1-.7,3.2-.8l1.4-.2v-1.4c0-.6,0-1.1-.7-1.4-.5-.3-1.1-.4-1.7-.4s-1.8.3-1.8,1v.2c0,.6-.2,1.1-1,1.1s-.9-.4-.9-.8c0-.8.9-1.5,1.5-1.8.8-.3,1.8-.5,2.7-.6h0c.8,0,1.8.3,2.5.6,1,.6,1.1,1.3,1.1,2.3v3.7c0,.8,0,2,1,2l.8-.3.4.5v.3h.1ZM125,19.2c-1.4.1-4.6.5-4.6,2.4s.8,1.5,1.7,1.5,2.1-.6,2.8-1.3v-2.7h0Z"/>
  <path class="cls-2" d="M144.1,21.1c.5,1.2.8,2.3,2.3,2.4v.6h-5.3v-.6c.6,0,1.5-.2,1.5-1s-.2-.8-.3-1l-.9-2.2h-4.9l-.5,1.4c-.2.4-.4,1.1-.4,1.6,0,1,.8,1.1,1.7,1.2v.6h-5.1v-.6h.2c.9-.2,1.2-.5,1.7-1.3.4-.8.9-2.1,1.2-2.9l3.2-8.2h1.8l3.9,10h-.1,0ZM141,18.4l-2.2-5.6-2.1,5.6h4.3Z"/>
  <path class="cls-2" d="M155.1,22.1c-.9,1.5-2.3,2.1-4.1,2.1-2.8,0-4.7-1.9-4.7-4.7s1.8-4.8,4.7-4.8,1.8.2,2.5.7c.6.4,1.3,1.1,1.3,1.9s-.4,1-1,1-1-.4-1-.9v-.7c0-.8-1.2-1.2-1.8-1.2-2.2,0-2.6,2.4-2.6,4.1h0c0,2,.9,4,3.1,4s2.2-.7,3-1.7l.6.4s0-.2,0-.2Z"/>
  <path class="cls-2" d="M164.8,22.1c-.9,1.5-2.3,2.1-4.1,2.1-2.8,0-4.7-1.9-4.7-4.7s1.8-4.8,4.7-4.8,1.8.2,2.5.7c.6.4,1.3,1.1,1.3,1.9s-.4,1-1,1-1-.4-1-.9v-.7c0-.8-1.2-1.2-1.8-1.2-2.2,0-2.6,2.4-2.6,4.1h0c0,2,.9,4,3.1,4s2.2-.7,3-1.7l.6.4s0-.2,0-.2Z"/>
  <path class="cls-2" d="M173.8,15.9c.9.9,1.4,2.3,1.4,3.6,0,2.9-1.8,4.7-4.7,4.7s-4.6-1.9-4.6-4.7,1.7-4.9,4.6-4.9,2.5.3,3.3,1.2M170.6,15.4c-2.1,0-2.7,2.3-2.7,4.1s.5,4,2.8,4,2.5-2.1,2.5-3.8,0-2-.5-2.8c-.4-.8-1.2-1.4-2.1-1.4h0Z"/>
  <path class="cls-2" d="M186.7,21.8c0,1,0,1.8,1.1,1.8h.4v.5h-3.4v-1.6c-1.1,1-2.5,1.7-4.1,1.7s-1.7-.2-2.3-.8-.6-1.3-.6-2.1v-3.6c0-1.1-.2-1.8-1.4-1.8h-.3v-.6l2.9-.4h.6v6.4c0,.5,0,1,.2,1.4.3.5.9.7,1.4.7,1.3,0,2.6-.8,3.5-1.6v-4c0-1.1-.2-1.8-1.4-1.8h-.3v-.6l2.9-.4h.6v6.8h.2Z"/>
  <path class="cls-2" d="M199.5,21.8c0,1,.2,1.8,1.3,1.8h.3v.6h-5.1v-.6h.3c1.2,0,1.4-.8,1.4-1.8v-3.9c0-.5,0-1-.3-1.4-.3-.5-.8-.7-1.3-.7-1.3,0-2.5.7-3.4,1.5v4.5c0,1.1.2,1.8,1.4,1.8h.3v.6h-5.2v-.6h.2c1.3,0,1.5-.6,1.5-1.8v-4c0-1.1-.2-1.8-1.4-1.8h-.3v-.6l2.9-.4h.6v1.5c1.1-1.1,2.5-1.7,4-1.7s1.5.3,2.1.8c.6.6.7,1.2.7,2v4.3h0Z"/>
  <path class="cls-2" d="M207.6,15.6h-2.7v5.3c0,1.1,0,2.6,1.4,2.6s1.2-.4,1.7-.8l.5.4c-.6.9-1.7,1.2-2.7,1.2s-1.3-.1-1.9-.5c-.8-.5-.8-1.2-.8-2.1v-6.2h-1.6v-.6c2.2,0,2.6-1.6,2.6-3.5h.8v3.5h2.7v.6h0Z"/>
  <path class="cls-2" d="M212.7,21.8c0,1,.2,1.8,1.4,1.8h.2v.6h-5v-.6h.2c1.3,0,1.4-.7,1.4-1.8v-4c0-1.1-.2-1.8-1.4-1.8h-.3v-.6l2.9-.4h.6v6.8h0ZM211.8,13.9c-.7,0-1.1-.5-1.1-1.2s.6-1.1,1.1-1.1,1.1.5,1.1,1.2-.6,1.1-1.2,1.1"/>
  <path class="cls-2" d="M225.5,21.8c0,1,.2,1.8,1.3,1.8h.3v.6h-5.1v-.6h.3c1.2,0,1.4-.8,1.4-1.8v-3.9c0-.5,0-1-.3-1.4-.3-.5-.8-.7-1.3-.7-1.3,0-2.5.7-3.4,1.5v4.5c0,1.1.2,1.8,1.4,1.8h.3v.6h-5.2v-.6h.2c1.3,0,1.5-.6,1.5-1.8v-4c0-1.1-.2-1.8-1.4-1.8h-.3v-.6l2.9-.4h.6v1.5c1.1-1.1,2.5-1.7,4-1.7s1.5.3,2.1.8c.6.6.7,1.2.7,2v4.3h0Z"/>
  <path class="cls-2" d="M234.7,23.2c1.4.2,3.1.5,3.1,2.3,0,2.6-3.1,3.2-5.1,3.2s-4.8-.4-4.8-2.4,1.1-1.7,2-2h0c-.7-.2-1.4-.7-1.4-1.6s.9-1.8,1.9-1.9c-.9-.5-1.5-1.5-1.5-2.6h0c0-2.2,1.9-3.5,3.8-3.5s1.2.1,1.7.3c.5-.9,1.3-1.7,2.4-1.7s1.1.2,1.1.8-.3.7-.7.7-.8-.3-1.2-.3-.8.4-1,.7c1,.7,1.6,1.6,1.6,2.9s-.5,1.8-1.2,2.4c-.8.6-1.8.8-2.8.8s-1.1,0-1.7-.3c-.4.2-.9.6-.9,1,0,.7,1,.7,1.5.8l3.2.4h0ZM230.6,24.4c-.7.2-1.5.9-1.5,1.7,0,1.7,2.5,2,3.8,2s3.7-.3,3.7-1.9-1.4-1.2-2.1-1.3l-3.7-.5s-.2,0-.2,0ZM230.7,18.1c0,1.4.4,2.6,2.1,2.6s1.4-.3,1.7-.9c.2-.5.3-1.3.3-1.8,0-1.4-.3-2.6-2-2.6s-2.1,1.3-2.1,2.6"/>
</svg>