<?xml version="1.0" encoding="UTF-8"?>
<svg id="Layer_1" data-name="Layer 1" xmlns="http://www.w3.org/2000/svg" version="1.1" viewBox="0 0 250 35">
  <defs>
    <style>
      .cls-1 {
        fill: #87c54f;
      }

      .cls-1, .cls-2 {
        stroke-width: 0px;
      }

      .cls-2 {
        fill: #fff;
      }
    </style>
  </defs>
  <path class="cls-2" d="M37.8,23.5h.2c.5,0,1-.1,1.3-.6.3-.4.2-1.3.2-1.8v-7.1c0-1.3.1-2.3-1.4-2.4h-.3v-.6h5.7c1.9,0,4,.2,5.6,1.3,1.6,1.2,2.5,3.3,2.5,5.3s-.8,4-2.4,5.2c-1.7,1.2-3.7,1.3-5.7,1.3h-5.7v-.6h0ZM41.4,21.4c0,.4,0,1.2.4,1.5s1.5.4,2,.4c3.7,0,5.5-2.2,5.5-5.8s-.4-3.2-1.5-4.3-2.6-1.4-4.1-1.4-1.8,0-2.1.5c-.2.3-.3,1.1-.3,1.5v7.6h.1Z"/>
  <path class="cls-2" d="M54.9,18.5v1c0,.9.3,1.9.8,2.7s1.5,1.2,2.4,1.2,2.2-.6,2.8-1.8l.6.3c-.7,1.5-2.3,2.3-3.9,2.3s-2.4-.3-3.4-1.3-1.4-2.3-1.4-3.6c0-2.8,1.8-4.8,4.6-4.8s4.2,1.5,4.1,3.9h-6.7.1ZM59.6,17.7c0-1.4-.9-2.4-2.2-2.4s-2.3,1.1-2.4,2.4h4.6Z"/>
  <path class="cls-2" d="M66.1,21.6c0,1.1.2,1.8,1.4,1.9h.2v.6h-4.9v-.6c1.3-.1,1.5-.8,1.5-1.9v-4c0-1.1-.2-1.8-1.4-1.9h-.3v-.6l2.9-.4h.6v1.3c.8-.9,2.2-1.5,3.6-1.5s2.1.3,2.7,1.5c1-.8,2.3-1.5,3.5-1.5s1.7.3,2.3,1c.4.6.5,1.2.5,1.9v4.2c0,1,.2,1.8,1.5,1.9v.6h-4.9v-.6h.2c1.2,0,1.4-.7,1.4-1.9v-3.8c0-.4,0-.9-.2-1.3-.2-.6-.8-.9-1.4-.9-1,0-2,.6-2.9,1.3v4.8c0,1.1.2,1.8,1.4,1.9h.2v.6h-5v-.6h.2c1.2,0,1.4-.7,1.4-1.9v-3.9c0-1.1,0-2.2-1.4-2.2s-2.2.6-3,1.3v4.8h-.1Z"/>
  <path class="cls-2" d="M91.2,23.6c-.5.5-1.3.7-2,.7s-1.8-.4-2.1-1.4c-1.1.9-2.2,1.4-3.6,1.4s-2.9-.7-2.9-2.3.8-1.9,1.9-2.4c1-.5,2.1-.7,3.2-.8l1.4-.2v-1.4c0-.6-.1-1.1-.7-1.5-.5-.3-1.2-.4-1.7-.4s-1.8.3-1.8,1v.2c0,.6-.3,1.2-1,1.2s-.9-.4-.9-.8c0-.8.9-1.5,1.6-1.8.8-.3,1.8-.5,2.7-.6.8,0,1.9.2,2.6.6,1,.6,1.1,1.3,1.1,2.4v3.8c0,.8.1,2,1.1,2l.8-.3.4.5h-.1ZM87.1,19.3c-1.5.1-4.6.5-4.6,2.4s.8,1.6,1.8,1.6,2.1-.6,2.9-1.3v-2.7h0Z"/>
  <path class="cls-2" d="M101.9,21.6c0,1,.2,1.8,1.4,1.8h.3v.6h-5.1v-.6h.3c1.2,0,1.4-.8,1.4-1.9v-4c0-.5,0-1-.3-1.4-.3-.5-.8-.7-1.3-.7-1.3,0-2.5.7-3.4,1.5v4.5c0,1.1.2,1.8,1.4,1.9h.3v.6h-5.2v-.6h.2c1.3,0,1.5-.7,1.5-1.9v-4c0-1.1-.2-1.8-1.4-1.9h-.3v-.6l2.9-.4h.6v1.5c1.2-1.1,2.5-1.7,4.1-1.7s1.5.3,2.1.8c.7.6.8,1.2.8,2v4.3l-.3.2Z"/>
  <path class="cls-2" d="M111.2,13.9c0-1.3.1-2.3-1.4-2.4h-.3v-.6c.9-.1,1.9-.3,2.8-.6h.8v11.3c0,.9,0,1.8,1.3,1.9v.6h-3.2v-1.3c-.9.9-2,1.5-3.2,1.5-2.7,0-4.3-2.2-4.3-4.8s1.6-4.9,4.5-4.9,2,.4,3,1v-1.6h0ZM111.2,16.5c-.7-.7-1.6-1-2.5-1-2.3,0-3,2-3,3.9s.6,3.9,2.8,3.9,2-.6,2.7-1.5v-5.3h0Z"/>
  <path class="cls-2" d="M116.8,14c0-1.3.1-2.3-1.4-2.4h-.3v-.6h5.4v.6h-.2c-.5,0-1.1,0-1.4.6-.2.5-.2,1.3-.2,1.8v2.6h6.9v-2.6c0-1.3.1-2.3-1.4-2.4h-.3v-.6h5.4v.6h-.2c-.5,0-1.1.1-1.3.6-.2.5-.2,1.3-.2,1.8v7.1c0,1.3-.1,2.3,1.4,2.4h.3v.6h-5.4v-.6h.2c.5,0,1.1-.1,1.3-.6.2-.5.2-1.3.2-1.8v-3.6h-6.9v3.6c0,1.3-.1,2.3,1.5,2.4h.3v.6h-5.4v-.6h.2c.5,0,1.1-.1,1.3-.6.2-.5.2-1.3.2-1.8v-7.1Z"/>
  <path class="cls-2" d="M141.9,22c.6.8,1.2,1.3,2.2,1.4v.6h-3.2l-4.3-6.2h-2.7v3.2c0,1.3-.1,2.3,1.5,2.4h.4v.6h-5.7v-.6h.3c.5,0,1.1,0,1.4-.6.2-.5.2-1.3.2-1.8v-7.1c0-1.3.1-2.3-1.5-2.4h-.4v-.6h7.7c2.2,0,4.6.7,4.6,3.4s-1.7,3.2-3.5,3.4l3.1,4.3h-.1ZM136.8,17.1c.9,0,1.7,0,2.5-.5.7-.5,1.1-1.3,1.1-2.2,0-2.2-1.9-2.6-3.7-2.6s-1.8,0-2.3.3-.5.6-.5,1.1v3.9h2.9Z"/>
  <path class="cls-1" d="M14.5.8L0,9.2v16.7l14.5,8.3,14.5-8.3V9.2L14.5.8ZM19.1,14c2,0,3.7,1.6,3.7,3.5s-1.7,3.5-3.7,3.5h-.5c.7.5,1.7.8,2.6.8s1.8-.4,2.5-1c-.5,1.4-1.9,2.4-3.4,2.5,0,1.5-1.1,2.9-2.5,3.4.6-.7,1-1.6,1-2.5s-.3-1.8-.8-2.6v.5c0,2-1.5,3.7-3.5,3.7s-3.5-1.6-3.5-3.7v-.5c-.5.7-.8,1.7-.8,2.6s.4,1.8,1,2.5c-.8-.3-1.5-.9-2-1.7-.3-.4-.4-.9-.5-1.4v-.2h-.5l-.7-.3c-1-.4-1.8-1.2-2.2-2.2.7.6,1.6,1,2.5,1s1.8-.3,2.6-.8h-.5c-2,0-3.7-1.5-3.7-3.5s1.6-3.5,3.7-3.5h.5c-.7-.5-1.7-.8-2.6-.8s-1.8.4-2.5,1c.3-.8.9-1.5,1.7-2,.4-.2.9-.4,1.4-.5h.2v-.5l.2-.7c.4-1,1.2-1.8,2.2-2.2-.6.7-1,1.6-1,2.5s.3,1.8.8,2.6v-.5c0-2,1.5-3.7,3.4-3.7s3.5,1.6,3.5,3.7v.5c.5-.7.8-1.7.8-2.6s-.4-1.8-1-2.5c.8.3,1.5.9,2,1.7.3.4.4.9.5,1.5v.2h.4l.7.2c1,.4,1.8,1.2,2.2,2.2-.7-.6-1.6-1-2.5-1s-1.8.3-2.6.8h.9Z"/>
  <path class="cls-1" d="M17.5,16.7c-.6.6-1.6.6-2.1,0-.6-.6-.6-1.5,0-2.1s.9-.5,1.4-.4v-.7c.1-1.4-.9-2.5-2.2-2.5h-.9c-.7.5-1.2,1.3-1.2,2.3v.7c.6,0,1.1,0,1.4.4.6.6.6,1.5,0,2.1s-1.5.6-2.1,0-.5-.9-.4-1.3h-.7c-.8,0-1.6.3-2,.9h0v.2h0v.2h0v.2h0v.7c-.1,1.3,1,2.3,2.4,2.3h.7c0-.6,0-1.1.4-1.5.6-.6,1.5-.6,2.1,0s.6,1.5,0,2.1-.9.5-1.3.4v.7c-.1,1.4.9,2.5,2.2,2.5s2.3-1.1,2.3-2.5v-.7c-.6,0-1.1,0-1.4-.4-.6-.6-.6-1.5,0-2.1s1.5-.6,2.1,0,.5.9.4,1.3h.7c1.4.1,2.5-.9,2.5-2.2v-.4h0v-.2c-.3-.9-1.3-1.6-2.4-1.6h-.8c0,.6,0,1.1-.4,1.5"/>
</svg>