<?xml version="1.0" encoding="UTF-8"?>
<svg id="Layer_1" data-name="Layer 1" xmlns="http://www.w3.org/2000/svg" version="1.1" viewBox="0 0 250 35">
  <defs>
    <style>
      .cls-1 {
        fill: #807f82;
      }

      .cls-1, .cls-2 {
        stroke-width: 0px;
      }

      .cls-2 {
        fill: #87c54f;
      }
    </style>
  </defs>
  <path class="cls-2" d="M17.5,16.6c-.6.6-1.6.6-2.1,0-.6-.6-.6-1.5,0-2.1s.9-.5,1.3-.4v-.8c0-1.4-.9-2.5-2.2-2.5h-.8c-.7.5-1.2,1.3-1.2,2.3v.7c.6,0,1.1,0,1.4.4.6.6.6,1.5,0,2.1-.6.6-1.5.6-2.1,0-.4-.4-.5-.9-.4-1.3h-.7c-.8,0-1.6.3-2,.9h0v.2h0v.2h0v.2h0v.7c0,1.3,1,2.3,2.4,2.3h.8c0-.6,0-1.1.4-1.4.6-.6,1.5-.6,2.1,0s.6,1.5,0,2.1-.9.5-1.3.4v.7c0,1.4.9,2.5,2.2,2.5s2.3-1.1,2.3-2.5v-.7c-.6,0-1.1,0-1.4-.4-.6-.6-.6-1.6,0-2.2s1.5-.6,2.1,0,.5.9.4,1.3h.7c1.4,0,2.5-.9,2.5-2.2v-.4h0v-.2c-.3-.9-1.3-1.6-2.4-1.6h-.7c0,.6,0,1.1-.4,1.5"/>
  <path class="cls-2" d="M0,31.9h28.9V3.1H0v28.9h0ZM19.1,13.9c2,0,3.7,1.6,3.7,3.5s-1.7,3.5-3.7,3.5h-.5c.7.5,1.7.8,2.6.8s1.8-.4,2.5-1c-.5,1.4-1.9,2.4-3.4,2.5,0,1.5-1.1,2.8-2.5,3.4.6-.7,1-1.6,1-2.5s-.3-1.8-.8-2.6v.5c0,2-1.5,3.7-3.4,3.7s-3.5-1.7-3.5-3.7v-.5c-.5.7-.8,1.7-.8,2.6s.4,1.8,1,2.5c-.8-.3-1.5-.9-2-1.7-.3-.4-.4-.9-.5-1.4v-.2h-.4l-.7-.2c-1-.4-1.8-1.2-2.2-2.2.7.6,1.6,1,2.5,1s1.8-.3,2.6-.8h-.5c-2,0-3.7-1.5-3.7-3.5s1.7-3.5,3.7-3.5h.5c-.7-.5-1.7-.8-2.6-.8s-1.8.4-2.5,1c.3-.8.9-1.5,1.7-2,.4-.3.9-.4,1.4-.5h.2v-.4l.2-.7c.4-1,1.2-1.8,2.2-2.2-.6.7-1,1.6-1,2.5s.3,1.8.8,2.6v-.5c0-2,1.5-3.7,3.4-3.7s3.5,1.7,3.5,3.7v.5c.5-.7.8-1.7.8-2.6s-.4-1.8-1-2.5c.8.3,1.5.9,2,1.7.3.5.4.9.5,1.4v.2h.5l.7.3c1,.4,1.8,1.2,2.2,2.2-.7-.6-1.5-1-2.5-1s-1.8.3-2.6.8h.5v-.2h0Z"/>
  <path class="cls-1" d="M38.2,13.4c0-1,0-1.8-1.4-1.9h-.3v-.6h5.4v.6h-.2c-.5,0-1.1,0-1.4.6s-.2,1.1-.2,1.6v2.9h6.9v-3.2c0-1,0-1.8-1.4-1.9h-.3v-.6h5.4v.6h-.2c-.5,0-1.1.1-1.3.6-.2.3-.2.9-.2,1.4v8c0,1,0,1.8,1.4,1.9h.3v.6h-5.4v-.6h.2c.5,0,1.1-.1,1.3-.6.2-.4.2-1.1.2-1.6v-3.9h-6.9v4.1c0,1.1,0,1.8,1.5,1.9h.3v.6h-5.4v-.6h.2c.5,0,1.1-.1,1.3-.6.2-.3.2-.9.2-1.4v-8.1s0,.2,0,.2Z"/>
  <path class="cls-1" d="M54.3,21.6c0,1.1.2,1.8,1.4,1.9h.2v.6h-5.1v-.6h.2c1.3,0,1.5-.7,1.5-1.9v-4c0-1.1-.2-1.8-1.4-1.9h-.3v-.6l2.9-.4h.6s0,6.9,0,6.9ZM53.4,13.8c-.7,0-1.1-.5-1.1-1.2s.6-1.1,1.1-1.1,1.2.5,1.2,1.2-.6,1.1-1.2,1.1"/>
  <path class="cls-1" d="M68.3,21.1c.5,1.2.8,2.4,2.3,2.4v.6h-5.4v-.6c.6,0,1.5-.2,1.5-1s-.2-.8-.3-1.1l-.9-2.3h-4.9l-.5,1.4c-.2.4-.4,1.2-.4,1.6,0,1,.8,1.2,1.7,1.3v.6h-5.2v-.6h.2c.9-.3,1.3-.5,1.7-1.3s.9-2.1,1.2-2.9l3.2-8.3h1.8l4,10.1h0ZM65.2,18.2l-2.2-5.7-2.1,5.7h4.3Z"/>
  <path class="cls-1" d="M78.8,22.1c-.9,1.5-2.4,2.1-4.1,2.1-2.9,0-4.7-1.9-4.7-4.8s1.8-4.9,4.7-4.9,1.8.2,2.6.7c.6.4,1.3,1.1,1.3,1.9s-.4,1.1-1,1.1-1-.4-1-.9v-.7c0-.8-1.2-1.2-1.8-1.2-2.2,0-2.6,2.4-2.6,4.1h0c0,2,.9,4,3.1,4s2.2-.8,3-1.8l.6.4h0Z"/>
  <path class="cls-1" d="M88.4,22.1c-.9,1.5-2.4,2.1-4.1,2.1-2.9,0-4.7-1.9-4.7-4.8s1.8-4.9,4.7-4.9,1.8.2,2.6.7c.6.4,1.3,1.1,1.3,1.9s-.4,1.1-1,1.1-1-.4-1-.9v-.7c0-.8-1.2-1.2-1.8-1.2-2.2,0-2.6,2.4-2.6,4.1h0c0,2,.9,4,3.1,4s2.2-.8,3-1.8l.6.4h0Z"/>
  <path class="cls-1" d="M97,15.8c.9.9,1.4,2.4,1.4,3.7,0,2.9-1.8,4.8-4.7,4.8s-4.7-1.9-4.7-4.7,1.7-4.9,4.6-4.9,2.5.3,3.4,1.2M93.7,15.2c-2.2,0-2.7,2.4-2.7,4.1s.5,4,2.8,4,2.6-2.2,2.6-3.9,0-2-.5-2.8c-.4-.8-1.2-1.4-2.2-1.4h0Z"/>
  <path class="cls-1" d="M108.6,21.6c0,1,0,1.9,1.2,1.9h.4v.6h-3.4v-1.6c-1.1,1.1-2.5,1.8-4.1,1.8s-1.8-.2-2.3-.8c-.6-.6-.6-1.4-.6-2.2v-3.6c0-1.1-.2-1.8-1.4-1.9h-.3v-.6l2.9-.4h.6v6.4c0,.5,0,1,.2,1.4.3.5.9.7,1.5.7,1.4,0,2.6-.8,3.5-1.6v-4c0-1.1-.2-1.8-1.4-1.9h-.3v-.6l2.9-.4h.6v6.9h0Z"/>
  <path class="cls-1" d="M121.1,21.6c0,1,.2,1.8,1.4,1.8h.3v.6h-5.1v-.6h.3c1.2,0,1.4-.8,1.4-1.9v-4c0-.5,0-1-.3-1.4-.3-.5-.8-.7-1.3-.7-1.3,0-2.5.7-3.4,1.5v4.5c0,1.1.2,1.8,1.4,1.9h.3v.6h-5.2v-.6h.2c1.3,0,1.5-.7,1.5-1.9v-4c0-1.1-.2-1.8-1.4-1.9h-.3v-.6l2.9-.4h.6v1.5c1.2-1.1,2.5-1.7,4.1-1.7s1.5.3,2.1.8c.7.6.8,1.2.8,2v4.3s-.3.2-.3.2Z"/>
  <path class="cls-1" d="M127.6,15.4h-2.7v5.4c0,1.1,0,2.6,1.5,2.6s1.2-.4,1.7-.8l.5.4c-.6.9-1.7,1.3-2.7,1.3s-1.4-.1-1.9-.5c-.8-.5-.8-1.3-.8-2.1v-6.3h-1.6v-.6c2.2,0,2.6-1.6,2.6-3.5h.8v3.5h2.7v.6s0,0-.1,0Z"/>
  <path class="cls-1" d="M132.3,21.6c0,1.1.2,1.8,1.4,1.9h.2v.6h-5.1v-.6h.2c1.3,0,1.5-.7,1.5-1.9v-4c0-1.1-.2-1.8-1.4-1.9h-.3v-.6l2.9-.4h.6v6.9h0ZM131.3,13.8c-.7,0-1.1-.5-1.1-1.2s.6-1.1,1.2-1.1,1.2.5,1.2,1.2-.6,1.1-1.2,1.1"/>
  <path class="cls-1" d="M144.8,21.6c0,1,.2,1.8,1.4,1.8h.3v.6h-5.1v-.6h.3c1.2,0,1.4-.8,1.4-1.9v-4c0-.5,0-1-.3-1.4-.3-.5-.8-.7-1.3-.7-1.3,0-2.5.7-3.4,1.5v4.5c0,1.1.2,1.8,1.4,1.9h.3v.6h-5.2v-.6h.2c1.3,0,1.5-.7,1.5-1.9v-4c0-1.1-.2-1.8-1.4-1.9h-.3v-.6l2.9-.4h.6v1.5c1.2-1.1,2.5-1.7,4.1-1.7s1.5.3,2.1.8c.7.6.8,1.2.8,2v4.3s-.3.2-.3.2Z"/>
  <path class="cls-1" d="M153,23.1c1.5.2,3.1.5,3.1,2.3,0,2.6-3.1,3.2-5.2,3.2s-4.8-.4-4.8-2.5,1.1-1.7,2-2h0c-.8-.2-1.4-.8-1.4-1.6s.9-1.8,1.9-2c-.9-.6-1.5-1.5-1.5-2.6h0c0-2.2,1.9-3.5,3.9-3.5s1.2.1,1.8.3c.5-.9,1.4-1.7,2.4-1.7s1.1.2,1.1.8-.3.7-.7.7-.8-.3-1.2-.3-.8.4-1,.7c1,.7,1.6,1.6,1.6,2.9s-.5,1.9-1.2,2.4c-.8.6-1.8.8-2.8.8s-1.2,0-1.7-.3c-.4.2-.9.6-.9,1,0,.7,1.1.7,1.5.8l3.3.4-.2.2h0ZM148.7,24.4c-.7.2-1.6.9-1.6,1.7,0,1.7,2.6,2,3.8,2s3.7-.3,3.7-1.9-1.4-1.2-2.2-1.3l-3.8-.5s.1,0,.1,0ZM148.9,17.9c0,1.4.4,2.7,2.1,2.7s1.4-.3,1.7-.9c.3-.5.3-1.3.3-1.8,0-1.4-.3-2.6-2-2.6s-2.1,1.3-2.1,2.7"/>
</svg>