<?xml version="1.0" encoding="UTF-8"?>
<svg id="Layer_1" data-name="Layer 1" xmlns="http://www.w3.org/2000/svg" version="1.1" viewBox="0 0 250 35">
  <defs>
    <style>
      .cls-1 {
        fill: #87c54f;
      }

      .cls-1, .cls-2 {
        stroke-width: 0px;
      }

      .cls-2 {
        fill: #fff;
      }
    </style>
  </defs>
  <g>
    <path class="cls-2" d="M38.6,13.4c0-1,0-1.8-1.4-1.9h-.3v-.6h5.4v.6h-.2c-.5,0-1.1,0-1.4.6-.2.4-.2,1.1-.2,1.6v2.9h6.9v-3.2c0-1,0-1.8-1.4-1.9h-.3v-.6h5.4v.6h-.2c-.5,0-1.1.1-1.3.6-.2.3-.2.9-.2,1.4v8c0,1,0,1.8,1.4,1.9h.3v.6h-5.4v-.6h.2c.5,0,1.1-.1,1.3-.6.2-.4.2-1.1.2-1.6v-3.9h-6.9v4.1c0,1.1,0,1.8,1.5,1.9h.3v.6h-5.4v-.6h.2c.5,0,1.1-.1,1.3-.6.2-.3.2-.9.2-1.4v-8.1.2Z"/>
    <path class="cls-2" d="M55.6,21.6c0,1.1.2,1.8,1.4,1.9h.2v.6h-5.1v-.6h.2c1.3,0,1.5-.7,1.5-1.9v-4c0-1.1-.2-1.8-1.4-1.9h-.3v-.6l2.9-.4h.6v6.9h0ZM54.7,13.8c-.7,0-1.1-.5-1.1-1.2s.6-1.1,1.2-1.1,1.2.5,1.2,1.2-.6,1.1-1.2,1.1"/>
    <path class="cls-2" d="M59.7,13.4c0-1,0-1.8-1.4-1.9h-.3v-.6h5.4v.6h-.2c-.5,0-1.1,0-1.4.6-.2.4-.2,1.1-.2,1.6v2.9h6.9v-3.2c0-1,0-1.8-1.4-1.9h-.3v-.6h5.4v.6h-.2c-.5,0-1.1.1-1.3.6-.2.3-.2.9-.2,1.4v8c0,1,0,1.8,1.4,1.9h.3v.6h-5.4v-.6h.2c.5,0,1.1-.1,1.3-.6.2-.4.2-1.1.2-1.6v-3.9h-6.9v4.1c0,1.1,0,1.8,1.5,1.9h.3v.6h-5.4v-.6h.2c.5,0,1.1-.1,1.3-.6.2-.3.2-.9.2-1.4v-8.1.2Z"/>
    <path class="cls-2" d="M74.8,18.5v1c0,.9.3,1.9.8,2.7s1.5,1.2,2.4,1.2,2.2-.6,2.8-1.8l.6.3c-.7,1.5-2.3,2.3-3.9,2.3s-2.4-.3-3.4-1.2c-.9-.9-1.4-2.3-1.4-3.6,0-2.8,1.8-4.8,4.6-4.8h0c2.3,0,4.1,1.5,4.1,3.9h-6.7.1ZM79.4,17.7c0-1.4-.9-2.4-2.2-2.4s-2.3,1.1-2.4,2.4h4.6Z"/>
    <path class="cls-2" d="M93.3,23.6c-.5.4-1.3.7-1.9.7h0c-.9,0-1.8-.4-2.1-1.4-1.1.9-2.2,1.4-3.6,1.4s-2.9-.7-2.9-2.3.8-1.9,1.9-2.4c1-.5,2.1-.7,3.2-.8l1.4-.2v-1.4c0-.6,0-1.1-.7-1.5-.5-.3-1.2-.4-1.7-.4s-1.8.3-1.8,1v.3c0,.6-.2,1.2-1,1.2s-.9-.4-.9-.8c0-.8.9-1.5,1.6-1.8.8-.3,1.8-.5,2.7-.6h0c.8,0,1.8.3,2.5.6,1,.6,1.1,1.3,1.1,2.4v3.8c0,.8,0,2,1.1,2l.8-.3.4.5h0ZM89.2,19.3c-1.5.1-4.6.5-4.6,2.4s.8,1.6,1.8,1.6,2.1-.6,2.9-1.3v-2.7h-.1Z"/>
    <path class="cls-2" d="M97.1,21.6c0,1,.2,1.8,1.3,1.8h.2v.6h-5v-.6h.2c1.2,0,1.5-.7,1.5-1.9v-8.3c0-1,0-1.8-1.4-1.9h-.3v-.6c.9-.1,1.9-.3,2.8-.6h.8v11.4h0Z"/>
    <path class="cls-2" d="M105.4,15.4h-2.7v5.4c0,1.1,0,2.6,1.5,2.6s1.2-.4,1.7-.8l.5.4c-.6.9-1.7,1.2-2.7,1.2s-1.4-.1-1.9-.5c-.8-.5-.8-1.3-.8-2.1v-6.3h-1.6v-.6c2.2,0,2.6-1.6,2.6-3.5h.8v3.5h2.7v.6h0Z"/>
    <path class="cls-2" d="M116.7,21.6c0,1.1.2,1.8,1.3,1.9h.2v.6h-5.2v-.6h.2c1.3,0,1.5-.6,1.5-1.9v-4.1c0-.5,0-1-.3-1.4s-.8-.5-1.3-.5c-1.1,0-2.6.8-3.4,1.5v4.5c0,1.1,0,1.8,1.3,1.9h.3v.6h-5.1v-.6h.2c1.3,0,1.5-.6,1.5-1.9v-8.3c0-1,0-1.8-1.4-1.9h-.3v-.6c.9-.1,1.9-.3,2.8-.6h.8v5.9c1.1-1,2.4-1.6,3.9-1.6s1.6.2,2.2.7c.7.6.8,1.4.8,2.2h0v4.2h0Z"/>
    <path class="cls-2" d="M131.4,15.8h-.6v-.2c-.5-.8-1.1-2-1.8-2.7-.8-.9-1.9-1.3-3.2-1.3s-2.6.7-3.4,1.9c-.8,1.2-1,2.7-1,4.2s.3,2.9,1.1,4c.8,1.2,2.3,1.8,3.7,1.8s3.8-1.2,4.8-2.9l.8.5c-1.3,2.2-3.3,3.4-5.9,3.4-4,0-6.8-2.9-6.8-6.8s2.7-6.9,6.5-6.9,2.8.4,3.8,1.4l.4-.9h.6l.9,4.6h.1Z"/>
    <path class="cls-2" d="M143.4,23.6c-.5.4-1.2.7-1.9.7h0c-.9,0-1.8-.4-2.1-1.4-1.1.9-2.2,1.4-3.6,1.4s-2.9-.7-2.9-2.3.8-1.9,1.9-2.4c1-.5,2.1-.7,3.2-.8l1.4-.2v-1.4c0-.6,0-1.1-.7-1.5-.5-.3-1.2-.4-1.7-.4s-1.8.3-1.8,1v.3c0,.6-.3,1.2-1,1.2s-.9-.4-.9-.8c0-.8.9-1.5,1.6-1.8.8-.3,1.8-.5,2.7-.6h0c.8,0,1.8.3,2.5.6,1,.6,1.1,1.3,1.1,2.4v3.8c0,.8,0,2,1.1,2l.8-.3.4.5h0ZM139.3,19.3c-1.5.1-4.6.5-4.6,2.4s.8,1.6,1.7,1.6,2.1-.6,2.9-1.3v-2.7h0Z"/>
    <path class="cls-2" d="M147.2,21.6c0,1.1.2,1.8,1.4,1.8h.3v.6h-5.3v-.6h.2c1.3,0,1.5-.7,1.5-1.9v-4c0-1.1-.2-1.8-1.4-1.9h-.3v-.6l2.9-.4h.6v1.4c.8-.9,1.9-1.6,3.2-1.6s1.4.3,1.4,1-.5,1-1.1,1c-.9,0-1.1-.6-1.7-.6s-1.5.6-1.9,1.1v4.6h.2Z"/>
    <path class="cls-2" d="M153.5,18.5v1c0,.9.3,1.9.8,2.7s1.5,1.2,2.4,1.2,2.2-.6,2.8-1.8l.6.3c-.7,1.5-2.3,2.3-3.9,2.3s-2.4-.3-3.4-1.2c-.9-.9-1.4-2.3-1.4-3.6,0-2.8,1.8-4.8,4.6-4.8h0c2.3,0,4.1,1.5,4.1,3.9h-6.7.1ZM158.2,17.7c0-1.4-.9-2.4-2.2-2.4s-2.3,1.1-2.4,2.4h4.6Z"/>
  </g>
  <path class="cls-1" d="M17.4,16.7c-.6.6-1.6.6-2.1,0-.6-.6-.6-1.5,0-2.1.4-.4.9-.5,1.4-.4v-.7c0-1.4-.9-2.5-2.2-2.5h-.9c-.7.5-1.2,1.3-1.2,2.3v.7c.6,0,1.1,0,1.4.4.6.6.6,1.5,0,2.1s-1.5.6-2.1,0c-.4-.4-.5-.9-.4-1.3h-.7c-.8,0-1.6.3-2,.9h0v.2h0v.2h0v.2h0v.7c-.1,1.3,1,2.3,2.4,2.3h.7c0-.6,0-1.1.4-1.5.6-.6,1.5-.6,2.1,0s.6,1.5,0,2.1c-.4.4-.9.5-1.3.4v.7c0,1.4.9,2.5,2.2,2.5s2.3-1.1,2.3-2.5v-.7c-.6,0-1.1,0-1.4-.4-.6-.6-.6-1.5,0-2.1s1.5-.6,2.1,0c.4.4.5.9.4,1.3h.7c1.4.1,2.5-.9,2.5-2.2v-.4h0v-.2c-.3-.9-1.3-1.6-2.4-1.6h-.8c0,.6,0,1.1-.4,1.5"/>
  <path class="cls-1" d="M23.5,8.8V3.1H5.4v5.6H0v17.5h5.4v5.7h18.1v-5.6h5.4V8.8h-5.4ZM19,14c2,0,3.7,1.6,3.7,3.5s-1.7,3.5-3.7,3.5h-.5c.7.5,1.7.8,2.6.8s1.8-.4,2.5-1c-.5,1.4-1.9,2.4-3.4,2.5,0,1.5-1.1,2.9-2.5,3.4.6-.7,1-1.6,1-2.5s-.3-1.8-.8-2.6v.5c0,2-1.5,3.7-3.5,3.7s-3.5-1.6-3.5-3.7v-.5c-.5.7-.8,1.7-.8,2.6s.4,1.8,1,2.5c-.8-.3-1.5-.9-2-1.7-.3-.4-.4-.9-.5-1.4v-.2h-.4l-.7-.2c-1-.4-1.8-1.2-2.2-2.2.7.6,1.6,1,2.5,1s1.8-.3,2.6-.8h-.5c-2,0-3.7-1.5-3.7-3.5s1.6-3.5,3.7-3.5h.5c-.7-.5-1.7-.8-2.6-.8s-1.8.4-2.5,1c.3-.8.9-1.5,1.7-2,.4-.2.9-.4,1.4-.5h.2v-.5l.2-.7c.4-1,1.2-1.8,2.2-2.2-.6.7-1,1.6-1,2.5s.3,1.8.8,2.6v-.5c0-2,1.5-3.7,3.4-3.7s3.5,1.6,3.5,3.7v.5c.5-.7.8-1.7.8-2.6s-.4-1.8-1-2.5c.8.3,1.5.9,2,1.7.3.4.4.9.5,1.5v.2h.4l.7.2c1,.4,1.8,1.2,2.2,2.2-.7-.6-1.6-1-2.5-1s-1.8.3-2.6.8h.8Z"/>
</svg>