<?xml version="1.0" encoding="UTF-8"?>
<svg id="Layer_1" data-name="Layer 1" xmlns="http://www.w3.org/2000/svg" version="1.1" viewBox="0 0 923.1 160">
  <defs>
    <style>
      .cls-1 {
        fill: #8bc53f;
      }

      .cls-1, .cls-2 {
        stroke-width: 0px;
      }

      .cls-3 {
        fill: none;
        stroke: #fff;
        stroke-miterlimit: 10;
      }

      .cls-4 {
        opacity: .5;
      }

      .cls-2 {
        fill: #fff;
      }
    </style>
  </defs>
  <g>
    <g class="cls-4">
      <path class="cls-1" d="M461,153.8h-.3c-1.4,0-2.9-.3-4.3-1,1.4-.9,2.7-1.9,3.8-3.1l.4-.4.4.4c1.2,1.2,2.5,2.2,3.8,3-.3.1-.6.3-.9.4h.3c0,.1-.4.3-.4.3v-.2c.1,0-.1,0-.1,0h-.1c0,0-.5.2-.5.2h-.2c0,0,0,0,0,0-.7,0-1.2.1-1.9.2h0ZM441.5,146.7c-1.4-.5-2.7-1.3-3.7-2.3s-1.9-2.3-2.3-3.7c1.6.3,3.2.5,4.9.5h.5v.5c0,1.7.3,3.3.6,4.9h0ZM479.7,146.7c.3-1.6.5-3.2.5-4.9h0v-.6h.6c1.6,0,3.3-.2,4.9-.5-.1.3-.3.6-.4.9h.3c0,0-.1.3-.1.3v-.3c0,0,0,0-.1.1v.2c-.1,0-.1,0-.1,0h0c0,.3-.1.5-.3.6h0c0,.1,0,.1,0,.2h0c-.4.7-.8,1.2-1.3,1.7-1,1-2.3,1.8-3.7,2.3h0ZM450.5,146.2c-.5-1.4-.8-2.9-.8-4.4s.1-2.3.5-3.4c.3,0,.8,0,1.2,0,.8,0,1.7-.1,2.5-.4.5,1.1,1.4,2.1,2.3,2.8-.5,1-1.2,1.9-2.1,2.7-1.1,1-2.3,1.9-3.6,2.5h0ZM470.9,146.2c-1.4-.6-2.5-1.5-3.6-2.5-.8-.8-1.5-1.7-2.1-2.7,1-.8,1.8-1.7,2.3-2.8.8.3,1.6.4,2.5.4s.8,0,1.2,0c.3,1.1.5,2.2.5,3.3h0c0,1.5-.3,3-.8,4.5h0ZM440.4,132.5c-1.5,0-3-.3-4.4-.8.6-1.4,1.5-2.6,2.5-3.6.8-.8,1.7-1.5,2.7-2.1.7,1,1.6,1.8,2.7,2.3-.3.8-.4,1.6-.4,2.5s0,.8,0,1.2c-1,.3-2.2.5-3.3.5h0ZM480.9,132.5c-1.2,0-2.3-.1-3.4-.5,0-.4,0-.8,0-1.2,0-.8-.1-1.6-.4-2.5,1.1-.5,2.1-1.4,2.8-2.4,1,.6,1.9,1.3,2.7,2.1,1,1,1.9,2.3,2.5,3.6-1.4.5-2.9.8-4.3.8h0ZM429.4,125.9c-1.2-2.7-1.2-5.8,0-8.5.9,1.4,1.9,2.7,3.1,3.8.1.1.3.3.4.4-.1.1-.3.3-.4.4h0c-1.2,1.2-2.3,2.4-3.1,3.8h0ZM491.9,125.9c-.9-1.4-1.9-2.7-3-3.8-.1-.1-.3-.3-.4-.4.1-.1.3-.3.4-.4,1.2-1.2,2.2-2.5,3.1-3.8,0,0,0,.1.1.3h0c0,.1,0,.2,0,.2,0,0,0,.1,0,.2h0c0,.3,0,.4.1.5v.2c0,0,0,0,0,0,0,0,0,.3,0,.3h0c0,.2,0,.3,0,.4h0c.2.7.3,1.3.3,2h0c-.1,1.6-.4,3-1.1,4.4h0ZM441.3,117.1c-1-.5-1.9-1.3-2.7-2.1-1-1-1.9-2.3-2.5-3.6,1.4-.5,2.9-.8,4.4-.8h0c1.2,0,2.3.1,3.4.5,0,.4,0,.8,0,1.2,0,.8.1,1.6.4,2.5-1.2.6-2.1,1.4-2.9,2.4h0ZM479.9,117.1c-.7-1-1.6-1.8-2.7-2.3.3-.8.4-1.6.4-2.5s0-.8,0-1.2c1.1-.3,2.3-.5,3.4-.5s3,.3,4.3.8c-.6,1.4-1.5,2.5-2.5,3.6-.8.8-1.7,1.5-2.7,2.1h0ZM453.7,105c-.8-.3-1.6-.4-2.4-.4s-.8,0-1.2.1c-.3-1.1-.5-2.3-.5-3.4s.3-3,.8-4.4c1.4.6,2.5,1.5,3.6,2.5.8.8,1.5,1.7,2.1,2.7-1,.8-1.8,1.8-2.3,2.9h0ZM467.4,105c-.5-1.1-1.4-2.1-2.3-2.8.5-1,1.2-1.9,2.1-2.7,1-1,2.3-1.9,3.6-2.5.5,1.4.8,2.9.8,4.4s-.1,2.3-.5,3.4c-.4,0-.8,0-1.2,0-.8,0-1.7.1-2.5.4h0ZM435.5,102.5c.5-1.4,1.3-2.6,2.3-3.6.8-.8,1.6-1.4,2.5-1.9h.1c0,0,.3-.2.3-.2h.3c0-.1.1-.2.2-.2,0,0,.1,0,.3,0-.3,1.6-.5,3.2-.5,4.9v.5h-.7c-1.6,0-3.2.2-4.8.5h0ZM485.7,102.5c-1.6-.3-3.2-.5-4.9-.5h-.6v-.5c0-1.6-.2-3.3-.5-4.9h.3c0,.1.1.2.1.2h.1c0,0,.1,0,.3.1h0c.1,0,.2,0,.3.1,0,0,.1,0,.1,0h.1c0,.1.2.1.3.3h0c0,0,.1.1.2.1h.1c.5.4,1.1.9,1.6,1.4,1,1,1.9,2.3,2.3,3.6h0ZM479.7,96.4c0,0,0-.2,0-.3h0c0,0,.5.1.5.1h-.5ZM460.6,93.8c-.1-.1-.3-.3-.4-.4-1.2-1.2-2.5-2.2-3.8-3.1,1.3-.6,2.8-1,4.3-1s2.1.1,3.2.5h.5c.1.1.2.2.3.3h.1c0,0,0,0,0,0h0c0,0,.2,0,.2,0-1.4.9-2.7,1.9-3.8,3.1l-.5.5h0Z"/>
      <path class="cls-1" d="M460.6,160h0c-4.4,0-8.7-1.8-11.7-4.9-.5-.5-1-1-1.4-1.6-.7,0-1.4.1-2.1.1-9.1,0-16.6-7.2-16.7-16.3v-1.1c0-.4,0-.9.1-1.4-.5-.4-1.1-.9-1.6-1.4-6.5-6.4-6.6-16.9-.2-23.4.3-.3.5-.5.8-.8.3-.3.7-.5,1-.9,0-.5,0-.9-.1-1.4-.3-4.7,1.5-9.3,4.8-12.6,1.2-1.2,2.6-2.2,4.1-3h.1c0,0,.1-.1.1-.1h.2c.2-.2.4-.3.6-.3h.3c0,0,.1-.1.1-.1.1,0,.2,0,.3-.1h0c0,0,0,0,0,0h.1c0,0,0,0,0,0h.1c.2-.1.3-.2.5-.2s.5-.1.8-.2h.1c0,0,0,0,0,0h.4c0,0,0,0,0,0h.1c0,0,.1,0,.1,0,.1,0,.3,0,.6,0,.8,0,1.5-.1,2.3-.1s1.4,0,2.1.1c.3-.3.6-.7.9-1,4.3-4.9,11.2-6.7,17.4-4.7h.1c0,0,0,0,0,0h.3c.2.1.4.2.6.3h.2c0,0,.2.1.2.1h.3c0,.1,0,.2,0,.2h0c0,0,.1.1.1.1h.1c0,0,0,.1,0,.1.1,0,.3.1.5.3.3.1.5.3.8.5h0c0,0,0,.1,0,.1h.3c0,.1,0,.1,0,.1h.1c0,0,0,.1,0,.1h0c.1,0,.3.2.5.4.6.5,1.2,1,1.6,1.5.5.5,1,1,1.4,1.6.8,0,1.4-.1,2.2-.1,1.3,0,2.6.1,3.9.5h.8c0,0,0,0,0,0h.1c0,0,.2.1.2.1h.5c0,.1,0,.2,0,.2h.1c.3.2.5.3.8.4s.4.1.5.3c.2,0,.3.1.5.3h.1c0,0,.2.1.2.1l.7.3c.2.1.5.3.7.4h0c.9.5,1.6,1.2,2.4,2,3.3,3.3,5.1,7.9,4.8,12.6,0,.4,0,.9-.1,1.4.5.5,1.1,1,1.6,1.4,1,1,1.8,2,2.5,3.1h0v.2h0c0,0,.2.4.2.4h0v.4c.2.1.3.3.3.4h0c0,0,0,.1,0,.1h0c0,.1,0,.3,0,.3.1.3.2.5.3.8s.2.4.3.6h0c0,.3,0,.4.1.5h0c0,.1,0,.3,0,.3,0,.3.1.5.2.8,0,.3.1.5.2.8h0c.2,1.1.3,2.1.3,3.2,0,4.7-2,9.2-5.5,12.3-.3.3-.7.6-1,.9.4,3.2-.1,6.5-1.5,9.5h0v.2h0c0,.1,0,.1,0,.2h0c0,0,0,.2,0,.2h0c-.1.3-.3.5-.4.8,0,0-.1.2-.2.3h0c-3.6,5.4-9.8,8.2-16.1,7.4-2,2.6-4.7,4.5-7.8,5.6h-.1c0,0,0,0,0,0h-.3c0,0-.1.1-.1.1h0c-.2,0-.5.1-.8.2-.1,0-.3,0-.4,0h-.1c-1.1.3-2.2.4-3.3.4h0v.2ZM451.6,152.4c2.4,2.4,5.6,3.8,9.1,3.8s1.8,0,2.6-.3h0c0,0,.1,0,.3,0,.3,0,.5-.1.7-.2h.1c0,0,.2-.1.2-.1h0c0,0,0,0,0,0h0c1.9-.7,3.6-1.7,4.9-3.1-2.6-1-5-2.5-6.9-4.4-.1-.1-.3-.3-.5-.5l-1.6-1.8-1.6,1.8c-.1.2-.3.3-.5.5-2.1,2.1-4.4,3.6-7,4.5h0ZM432.3,137c0,7,5.6,12.8,12.6,12.8h.3c-1.2-2.5-1.8-5.3-1.8-8v-3.2c0,0-2.3,0-2.3,0h-.7c-2.8,0-5.6-.5-8.1-1.7h0ZM477.7,138.6v2.5c0,.2,0,.5,0,.8,0,2.7-.6,5.5-1.8,8,3.4,0,6.7-1.3,9.1-3.7.6-.6,1.2-1.3,1.6-2.1h0c0-.1.1-.2.1-.3l.3-.5h0c0-.2,0-.3.1-.3h0c.8-1.9,1.3-3.8,1.3-5.8-2.5,1.2-5.3,1.8-8,1.8h-.8l-2.3-.3h0ZM448.3,135.6l-.5,2c-.4,1.4-.6,2.8-.6,4.3,0,2.6.7,5.2,1.9,7.5,4-1.1,7.3-3.8,9.3-7.3l1-1.8-1.7-1.2c-1.4-1-2.2-2.5-2.2-4.2s0-.6,0-1c-.2.3-.4.5-.6.8-1,1-2.3,1.5-3.6,1.5s-.6,0-.9,0l-2-.5h0ZM461.9,140.1l1,1.8c.7,1.2,1.6,2.4,2.5,3.4,1.9,1.9,4.2,3.2,6.7,3.9,2-3.6,2.5-7.8,1.3-11.8l-.5-2-2.1.4c-.3,0-.6,0-1,0-1.4,0-2.7-.5-3.6-1.5-.2-.2-.4-.4-.5-.7,0,.3,0,.6,0,1,0,1.7-.8,3.3-2.2,4.3l-1.7,1.2h0ZM432.9,133.1c2.3,1.3,4.9,2,7.5,2h0c1.4,0,2.9-.2,4.3-.6l2-.6-.3-2c-.3-1.6.2-3.4,1.4-4.5.2-.2.5-.4.7-.6-.3,0-.5,0-.8,0-1.7,0-3.3-.8-4.3-2.3l-1.2-1.7-1.8,1c-1.3.7-2.5,1.6-3.5,2.6-1.9,1.9-3.3,4.3-4,6.7h0ZM474.6,133.8l2,.6c1.4.4,2.9.6,4.3.6,2.6,0,5.2-.7,7.5-1.9-1.2-4-3.8-7.3-7.4-9.3l-1.9-1-1.2,1.7c-1,1.4-2.5,2.3-4.3,2.3s-.5,0-.8,0c.2.1.4.3.6.5,1.2,1.2,1.7,2.9,1.4,4.6l-.3,1.9h0ZM451.3,125.7c2.8,0,5.2,2.3,5.2,5.2s0,.7,0,1c1.6-2.3,4.7-3,7.1-1.4.5.3,1,.8,1.4,1.3,0-.3,0-.6,0-1,0-1.4.5-2.7,1.5-3.6s2.3-1.5,3.6-1.5.5,0,.8,0c-1.3-1-2.1-2.5-2.1-4.2s.8-3.3,2.3-4.3c-.3,0-.5,0-.9,0-2.8,0-5.2-2.3-5.2-5.1h0c0-.4,0-.7,0-1-.2.3-.4.5-.6.8-1,1-2.3,1.5-3.6,1.5s-3.2-.8-4.1-2.1c0,.3,0,.6,0,.9,0,2.8-2.3,5.2-5.2,5.2s-.5,0-.8,0c.2.1.4.3.6.5,2,2,2,5.2,0,7.3h0c-.2.2-.4.4-.7.6.2,0,.5,0,.7,0h0ZM429.7,112.5c-5,4.9-5.1,13-.1,18.1h.1c1-2.5,2.5-4.8,4.5-6.8.1-.2.3-.3.5-.5l1.8-1.6-1.8-1.6c-.1-.1-.3-.3-.5-.5-2-2.1-3.5-4.4-4.5-7h0ZM484.7,121.6l1.8,1.7c.1.1.3.3.5.5,1.9,1.9,3.4,4.3,4.4,6.9,2.4-2.4,3.8-5.7,3.8-9.1s0-1.6-.3-2.5c0-.2,0-.4-.1-.6,0-.1,0-.3-.1-.4h0v-.2h0c0,0,0-.2,0-.2,0-.1,0-.3-.1-.4s-.1-.3-.1-.4h0v-.2c0-.1-.1-.3-.2-.5h0c0,0-.5-1-.5-1h0v-.2c-.8-.9-1.4-1.8-2.2-2.5-1,2.6-2.5,4.9-4.5,6.9-.1.1-.3.3-.5.5l-1.6,1.6h0ZM432.9,110.1c.7,2.5,2.1,4.8,3.9,6.7,1,1,2.2,1.9,3.4,2.6l1.9,1,1.2-1.7c1.1-1.6,3.1-2.5,5.1-2.2-.2-.1-.4-.3-.6-.5-1.2-1.2-1.8-3-1.4-4.6l.3-2.1-2-.5c-3.9-1.2-8.2-.7-11.7,1.4h0ZM473.7,116.4c1.7,0,3.3.8,4.3,2.3l1.2,1.6,1.8-1c1.3-.7,2.5-1.6,3.5-2.6,1.9-1.9,3.2-4.1,3.9-6.7-2.3-1.3-4.9-2-7.5-2s-2.9.2-4.3.6l-2,.5.3,2c.3,1.6-.2,3.4-1.4,4.6-.2.2-.5.4-.8.6.4,0,.7,0,1,0h0ZM461.9,103l1.6,1.2c1.4,1,2.2,2.5,2.2,4.3s0,.6,0,1c.2-.3.4-.5.6-.8,1-1,2.3-1.5,3.6-1.5s.6,0,1,0l2.1.3.5-2c.4-1.4.6-2.8.6-4.2,0-2.6-.7-5.2-1.9-7.5-2.5.7-4.8,2.1-6.7,3.9-1,1-1.9,2.2-2.6,3.4l-1,1.8h0ZM451.3,107.2c1.4,0,2.7.5,3.6,1.5.2.2.3.4.5.6,0-.3,0-.5,0-.8,0-1.7.8-3.3,2.2-4.3l1.7-1.2-1-1.8c-.7-1.2-1.6-2.4-2.6-3.4-1.9-1.9-4.1-3.2-6.7-3.9-1.3,2.3-1.9,4.9-1.9,7.5s.2,2.9.6,4.3l.5,2,2.1-.4c.3-.1.7-.1,1-.1h0ZM442.3,93.6h0c-.3,0-.5.1-.8.2-.1,0-.2,0-.3,0h-.1c0,0-.1.1-.1.1,0,0,0,0-.1,0h0c0,0-.2,0-.3.1h-.1c0,0,0,.1,0,.1-.1,0-.3.1-.4.2h-.2c0,0-.1.1-.1.1h0c-4.3,2.2-7,6.7-6.9,11.5,2.5-1.2,5.3-1.8,8-1.8h3.2c0,0,0-2.4,0-2.4v-.7c0-2.7.6-5.5,1.8-8-.6,0-1.2,0-1.8.1-.1,0-.3,0-.5,0h-.3c0,0-.1.1-.1.1h-.5ZM480.9,104.4h0c2.7,0,5.5.6,8,1.8,0-4.3-2.1-8.3-5.6-10.7-.1-.1-.3-.2-.5-.3s-.3-.2-.5-.3h0c0,0,0-.1,0-.1h0c0,0,0-.1,0-.1l-.3-.2c-.1,0-.3-.1-.5-.2h-.1c0,0,0-.1,0-.1-.1,0-.3-.1-.4-.1h0l-1-.3h-.3c-1-.3-2.1-.4-3.1-.4,1.2,2.5,1.8,5.3,1.8,8v3.2c-.1,0,2.3-.1,2.3-.1h.8-.2ZM451.5,90.7c2.6,1,4.9,2.5,6.9,4.4.1.1.3.3.5.5l1.6,1.8,1.7-1.8c.2-.2.3-.3.5-.5,2-1.9,4.3-3.4,6.9-4.4-.4-.4-.9-.8-1.4-1.2l-.3-.3h-.1c0-.1-.1-.2-.1-.2h-.1c0,0-.2-.2-.2-.2h0c-.1-.1-.3-.2-.6-.3h-.3c0-.1-.1-.2-.1-.2h-.2c0,0,0-.1-.1-.1h0c0,0-.3-.2-.3-.2h-.3c-.1-.1-.3-.2-.5-.2h-.3c0,0,.1,0,.1,0h-.1c-1.2-.5-2.6-.7-3.9-.7-3.4,0-6.7,1.4-9.1,3.8h0Z"/>
    </g>
    <path class="cls-2" d="M403.6,111.4v.6c-1.8.2-2.5.8-3.7,1.9l-4.7,5.6-.6,3.6c0,.2,0,.5,0,.7,0,.3.1.6.3.9.3.3.7.5,1.2.5h.5c0,0-.1.7-.1.7h-6.5v-.6h.4c.5,0,1.2-.1,1.6-.5.4-.5.7-1.2.7-1.8l.5-3-3-6.3c-.5-1-.6-1.2-1.9-1.6v-.6h6v.6c-.8,0-1.7.2-1.7,1s.1.5.3.8l2.3,4.8,4.1-4.9c.3-.3.4-.6.4-1,0-.6-.8-.8-1.3-.8v-.6h5.5Z"/>
    <path class="cls-2" d="M406.3,126.3c-2.7,0-4.5-1.6-4.5-4.4,0-1.6.7-3.2,1.8-4.4,1.2-1.3,2.9-2.1,4.6-2,2.7,0,4.5,1.7,4.5,4.4,0,3.5-2.7,6.4-6.3,6.4q0,0,0,0ZM406.4,125.2c1.4,0,2.7-.8,3.2-2.1.5-1.2.8-2.5.8-3.7,0-.8-.2-1.6-.7-2.3-.5-.4-1.2-.6-1.8-.6-2.9,0-4,3.6-4,6,0,1.6.7,2.8,2.5,2.8h0Z"/>
    <path class="cls-2" d="M423.7,122.5c0,.5-.1.9-.1,1.4s.5,1.2,1.1,1.2h0c.5,0,1.1-.3,1.5-.8l.5.4c-.8.9-1.9,1.4-3,1.5-1.2,0-2.1-.8-2.2-1.9h0c-1.2,1.2-3,1.9-4.7,2-1.3,0-2.5-.6-2.5-2.1s0-1,.1-1.4l.7-4c0-.3.1-.5.1-.8,0-.7-.4-.8-1-1h-.5c0,0,.1-.7.1-.7l3-.5h.8l-1.2,7.1c0,.3-.1.6-.1,1h0c0,.8.5,1.4,1.3,1.4h.1c1.4,0,2.7-.9,3.8-1.7l1.4-7.8h1.9l-1.3,6.7Z"/>
    <path class="cls-2" d="M430.8,117h0c1-.9,2.2-1.4,3.5-1.5.6,0,1.4.3,1.4,1,0,.7-.6,1.2-1.3,1.1h0c-.8,0-1.1-.6-1.8-.6-1.7,0-2.2,2.6-2.4,3.8l-.9,5.2h-1.9l1.3-7.5c0-.3,0-.5.1-.8,0-.8-.7-1-1.5-1v-.6c.1,0,3.2-.5,3.2-.5h.8l-.3,1.3Z"/>
    <path class="cls-2" d="M450.9,111.4c1.2,0,2.4,0,3.5.4s1.9,1.4,1.9,2.6c0,2.1-1.9,3.3-3.8,3.6h0c1.6.3,3.2,1.4,3.2,3.2,0,1.6-1,3.2-2.5,4-1.6.9-3.4.9-5.2.9h-7.4v-.6c1.9-.1,2.1-1,2.4-2.4l1.5-8.9c0-.2,0-.5,0-.7,0-.7-.4-1.3-1.1-1.4h-.4v-.6c0,0,7.7,0,7.7,0h0ZM445.2,123.2c0,.3,0,.5,0,.8,0,.4.2.8.6.9.7.2,1.4.3,2.1.3,1.4,0,2.7-.2,4-.9,1-.8,1.6-2,1.6-3.3.1-1-.6-2-1.6-2.2-1-.2-2.1-.3-3.1-.2h-2.6l-.9,4.6ZM448.8,117.8c1.2,0,2.5-.1,3.6-.5,1-.5,1.7-1.5,1.7-2.6,0-2.2-2.6-2.3-4.2-2.3h-.2c-.8,0-1.8,0-2.3.4-.3.3-.5.8-.5,1.4l-.6,3.6h2.5Z"/>
    <path class="cls-2" d="M467.6,122.5c0,.5-.1.9-.1,1.4s.5,1.2,1.1,1.2h0c.5,0,1.1-.3,1.5-.8l.5.4c-.8.9-1.9,1.4-3,1.5-1.1,0-2.1-.8-2.1-1.9-1.2,1.2-3,1.9-4.7,2-1.3,0-2.5-.6-2.5-2.1s0-1,.1-1.4l.7-4c0-.3.1-.5.1-.8,0-.7-.4-.8-1-1h-.5c0,0,.1-.7.1-.7l3-.5h.8l-1.2,7.1c0,.3-.1.6-.1,1h0c0,.8.5,1.4,1.3,1.4h.1c1.4,0,2.7-.9,3.8-1.7l1.4-7.8h1.9l-1.4,6.7Z"/>
    <path class="cls-2" d="M473.5,120.7c-.9-.3-1.5-1.2-1.5-2.1,0-1,.5-1.9,1.4-2.3.9-.5,1.9-.8,3-.8s2.4.2,3.5.8c.5.2.9.6,1,1.2,0,.5-.3.9-.8.9h0c-.5,0-1-.3-1.2-.8-.2-.3-.5-.7-.9-.9-.5-.3-1-.3-1.4-.3-1,0-2.2.5-2.2,1.6s.3,1,.7,1.2c.7.3,1.4.5,2.1.8,1.4.5,3.4.9,3.4,2.7,0,1.2-.8,2.2-1.7,2.7-1,.5-2.2.9-3.4.8-1.2,0-2.5-.3-3.6-.9-.6-.2-1-.8-1.2-1.4,0-.5.5-1,1-1,1.9,0,1.2,2.3,4,2.3s1.3-.1,1.9-.5c.5-.3.8-.9.9-1.4,0-1.1-1-1.4-1.9-1.7l-2.7-.9Z"/>
    <path class="cls-2" d="M485.3,123.1c0,.2,0,.5,0,.7,0,.6.4,1.2,1,1.2h.1c.5,0,1.1-.3,1.4-.8l.5.4c-.8.9-1.9,1.4-3.1,1.5-1.1,0-2-.8-2-1.9v-.3c0-.3,0-.7.1-1l.8-4.4c0-.2,0-.5.1-.8,0-.9-.6-1-1.4-1.2h-.1v-.6c.1,0,1-.1,1-.1.8,0,1.5-.2,2.3-.4h.7l-1.4,7.6ZM486,114.4c-.5,0-1-.5-1-1.1h0c0-.9.7-1.5,1.5-1.6.5,0,1,.3,1.1.9h0c0,1.1-.8,1.8-1.6,1.8Z"/>
    <path class="cls-2" d="M490.7,126.1h-2l1.3-7.5c0-.3,0-.5,0-.8,0-.8-.7-1-1.5-1v-.6c.1,0,3.2-.5,3.2-.5h.8l-.3,1.5c1.2-1,2.8-1.6,4.5-1.8,1.3,0,2.6.6,2.6,2.1s0,.8-.1,1.2l-.8,4.3c0,.3-.1.6-.1,1,0,.6.4,1.1,1,1.2.5,0,1.1-.3,1.4-.8l.4.5c-.7.8-1.8,1.4-2.9,1.4-1,0-1.9-.8-2-1.8h0c0-.8.1-1.5.3-2.2l.6-3.4c0-.3.1-.7.1-1,0-.8-.6-1.4-1.4-1.3h0c-1.4,0-2.7.9-3.8,1.7l-1.3,7.9Z"/>
    <path class="cls-2" d="M511.4,124.2c-1.5,1.2-3.4,1.9-5.3,2-2.3,0-4.6-1.4-4.6-4.1,0-1.9.9-3.6,2.3-4.8s3.2-1.9,5.1-2c1.4,0,3.6.6,3.6,2.3,0,3-6.2,3.5-8.6,3.6,0,.3-.1.7-.1,1,0,1.9,1.3,2.8,3.1,2.8s2.7-.8,4.1-1.6l.5.7ZM504,120.6c1.9,0,6.3-.4,6.3-2.8s-1-1.6-1.9-1.6c-2.3,0-3.9,2.5-4.4,4.4h0Z"/>
    <path class="cls-2" d="M516.1,120.7c-.9-.3-1.5-1.2-1.5-2.1,0-1,.5-1.9,1.4-2.3.9-.5,1.9-.8,3-.8s2.4.2,3.5.8c.5.2.9.6,1,1.2,0,.5-.3.9-.8.9h0c-.5,0-1-.3-1.2-.8-.2-.3-.5-.7-.9-.9-.5-.3-1-.3-1.4-.3-1,0-2.2.5-2.2,1.6s.3,1,.7,1.2c.7.3,1.4.5,2.2.8,1.4.5,3.4.9,3.4,2.7,0,1.2-.8,2.2-1.7,2.7-1,.5-2.2.9-3.4.8-1.2,0-2.5-.3-3.6-.9-.6-.2-1-.8-1.2-1.4,0-.5.5-1,1-1,1.9,0,1.2,2.3,4,2.3s1.3-.1,1.9-.5c.5-.3.8-.9.9-1.4,0-1.1-1-1.4-1.9-1.7l-2.7-.9Z"/>
    <path class="cls-2" d="M527.7,120.7c-.9-.3-1.5-1.2-1.5-2.1,0-1,.5-1.9,1.4-2.3.9-.5,1.9-.8,3-.8s2.4.2,3.5.8c.5.2.9.6,1,1.2,0,.5-.3.9-.8.9h0c-.5,0-1-.3-1.2-.8-.2-.3-.5-.7-.9-.9-.5-.3-1-.3-1.4-.3-1,0-2.2.5-2.2,1.6s.3,1,.7,1.2c.7.3,1.4.5,2.1.8,1.4.5,3.4.9,3.4,2.7,0,1.2-.8,2.2-1.7,2.7-1,.5-2.2.9-3.4.8-1.2,0-2.5-.3-3.6-.9-.6-.2-1-.8-1.2-1.4,0-.5.5-1,1-1,1.9,0,1.2,2.3,4,2.3s1.3-.1,1.9-.5c.5-.3.8-.9.9-1.4,0-1.1-1-1.4-1.9-1.7l-2.7-.9Z"/>
  </g>
  <polyline class="cls-3" points=".5 0 .5 25.1 922.6 25.1 922.6 0"/>
  <line class="cls-3" x1="462.3" y1="25.5" x2="462.3" y2="74.8"/>
</svg>