<svg xmlns="http://www.w3.org/2000/svg" xmlns:xlink="http://www.w3.org/1999/xlink" viewBox="0 0 100 100"><defs><style>.cls-1{fill:none;stroke:#636569;stroke-miterlimit:10;}.cls-2{clip-path:url(#clip-path);}.cls-3{fill:#636569;}.cls-4{fill:#fff;}</style><clipPath id="clip-path"><circle class="cls-1" cx="36.09" cy="42.76" r="26.44"/></clipPath></defs><g id="Layer_2" data-name="Layer 2"><g class="cls-2"><path class="cls-3" d="M28.33,34a6.72,6.72,0,0,1-3-.68c-3-1.46-5.1-5.29-5.4-9.77C19.49,16.8,21.9,9.38,22,9.06l.95.32c0,.07-2.46,7.55-2,14.11.28,4.13,2.18,7.64,4.84,8.94,2.23,1.09,4.94.63,7.85-1.32.34-.24.72-.53,1.11-.85,2.38-1.88,6-4.72,11.47-.37a4.2,4.2,0,0,0,3.36.89c5.06-.72,10.72-8.58,10.78-8.66l.81.58c-.24.33-6,8.29-11.45,9.07a5.26,5.26,0,0,1-4.12-1.09c-4.87-3.86-7.84-1.52-10.23.37-.42.33-.81.64-1.18.89A10.56,10.56,0,0,1,28.33,34Z"/><path class="cls-3" d="M45.5,69.23C44.87,65.16,41,63,37.88,61.85A7.58,7.58,0,0,1,34.51,50l.38-.48a5.16,5.16,0,0,0,.3-6.11,5.23,5.23,0,0,0-5.74-2.31,7.75,7.75,0,0,0-1.22.48c-2,.92-5.36,2.46-11.29-.59C13,39,9.87,38.66,7.59,40c-4.13,2.49-4.23,9.75-4.23,9.83h-1c0-.32.11-7.9,4.71-10.68,2.6-1.57,6.08-1.26,10.32.93,5.51,2.83,8.46,1.47,10.42.58a7.52,7.52,0,0,1,1.41-.55,6.31,6.31,0,0,1,6.46,10l-.39.48A6.57,6.57,0,0,0,38.22,60.9c3.38,1.22,7.56,3.63,8.27,8.18Z"/><path class="cls-3" d="M60.09,56.72c-.33-.16-8.13-3.93-9.44-8.41a4.21,4.21,0,0,1,.47-3.54c1.41-2.26,4-2.48,6.5-2.7,2.16-.18,4.21-.36,5.33-1.81,1-1.3,1.22-3.56.66-6.89l1-.17c.62,3.63.34,6.14-.85,7.67-1.39,1.8-3.75,2-6,2.2s-4.6.39-5.74,2.23A3.21,3.21,0,0,0,51.61,48c1.19,4.06,8.84,7.75,8.92,7.79Z"/></g><circle class="cls-1" cx="36.09" cy="42.76" r="26.44"/><rect class="cls-4" x="43.14" y="53.61" width="44.15" height="30.08"/><path class="cls-3" d="M87.29,84.19H43.14a.5.5,0,0,1-.5-.5V53.61a.5.5,0,0,1,.5-.5H87.29a.5.5,0,0,1,.5.5V83.69A.5.5,0,0,1,87.29,84.19Zm-43.65-1H86.79V54.11H43.64Z"/><rect class="cls-4" x="40.89" y="79.42" width="48.65" height="4.26" rx="1.93"/><path class="cls-3" d="M87.61,84.19H42.82a2.43,2.43,0,0,1-2.43-2.43v-.41a2.43,2.43,0,0,1,2.43-2.43H87.61A2.43,2.43,0,0,1,90,81.35v.41A2.43,2.43,0,0,1,87.61,84.19ZM42.82,79.92a1.43,1.43,0,0,0-1.43,1.43v.41a1.43,1.43,0,0,0,1.43,1.43H87.61A1.43,1.43,0,0,0,89,81.76v-.41a1.43,1.43,0,0,0-1.43-1.43Z"/><rect class="cls-4" x="47.29" y="65.05" width="9.64" height="18.64"/><path class="cls-3" d="M56.93,84.19H47.29a.5.5,0,0,1-.5-.5V65a.5.5,0,0,1,.5-.5h9.64a.51.51,0,0,1,.5.5V83.69A.51.51,0,0,1,56.93,84.19Zm-9.14-1h8.64V65.54H47.79Z"/><path class="cls-4" d="M89,49.77H41.4a1.31,1.31,0,0,0-1.31,1.31v3.18a2.86,2.86,0,0,0,1,2.53,2.93,2.93,0,0,0,2.73.49A2.73,2.73,0,0,0,45.42,56,2.71,2.71,0,0,0,47,57.28a3,3,0,0,0,1.77,0A2.71,2.71,0,0,0,50.37,56a2.88,2.88,0,0,0,5,0,2.71,2.71,0,0,0,1.59,1.25,3,3,0,0,0,1.77,0A2.71,2.71,0,0,0,60.27,56a2.68,2.68,0,0,0,1.59,1.25,2.94,2.94,0,0,0,1.76,0A2.68,2.68,0,0,0,65.21,56a2.88,2.88,0,0,0,5,0,2.71,2.71,0,0,0,1.59,1.25,3,3,0,0,0,1.77,0A2.71,2.71,0,0,0,75.11,56a2.71,2.71,0,0,0,1.59,1.25,2.94,2.94,0,0,0,1.76,0A2.7,2.7,0,0,0,80.06,56a2.88,2.88,0,0,0,5,0,2.84,2.84,0,0,0,2.17,1.4,2.92,2.92,0,0,0,2.47-1,2.71,2.71,0,0,0,.71-1.85h0V51.08A1.32,1.32,0,0,0,89,49.77Z"/><path class="cls-3" d="M87.47,57.94h-.34A3.32,3.32,0,0,1,85,56.86a3.38,3.38,0,0,1-5,0,3.25,3.25,0,0,1-1.45.9,3.61,3.61,0,0,1-2.06,0,3.34,3.34,0,0,1-1.44-.89,3.32,3.32,0,0,1-1.45.89,3.58,3.58,0,0,1-2,0,3.25,3.25,0,0,1-1.45-.9,3.36,3.36,0,0,1-4.94,0,3.25,3.25,0,0,1-1.45.9,3.61,3.61,0,0,1-2.06,0,3.22,3.22,0,0,1-1.44-.9,3.25,3.25,0,0,1-1.45.9,3.61,3.61,0,0,1-2.06,0,3.22,3.22,0,0,1-1.44-.9,3.38,3.38,0,0,1-5,0,3.27,3.27,0,0,1-1.44.9,3.65,3.65,0,0,1-2.07,0,3.27,3.27,0,0,1-1.44-.9,3.08,3.08,0,0,1-1.43.89,3.42,3.42,0,0,1-3.19-.58,3.36,3.36,0,0,1-1.21-3V51.08a1.81,1.81,0,0,1,1.81-1.81H89a1.81,1.81,0,0,1,1.82,1.81v3.49A3.21,3.21,0,0,1,90,56.75,3.44,3.44,0,0,1,87.47,57.94ZM85,55.53h0a.5.5,0,0,1,.43.25,2.35,2.35,0,0,0,1.8,1.15,2.4,2.4,0,0,0,2-.84,2.21,2.21,0,0,0,.58-1.52V51.08a.82.82,0,0,0-.82-.81H41.4a.81.81,0,0,0-.81.81v3.18A2.36,2.36,0,0,0,43.7,56.8a2.19,2.19,0,0,0,1.29-1,.51.51,0,0,1,.86,0,2.2,2.2,0,0,0,1.31,1,2.46,2.46,0,0,0,1.47,0,2.2,2.2,0,0,0,1.31-1,.48.48,0,0,1,.43-.25h0a.48.48,0,0,1,.43.25,2.38,2.38,0,0,0,4.09,0,.48.48,0,0,1,.43-.25h0a.5.5,0,0,1,.43.25,2.17,2.17,0,0,0,1.31,1,2.46,2.46,0,0,0,1.47,0,2.27,2.27,0,0,0,1.31-1,.48.48,0,0,1,.43-.25h0a.5.5,0,0,1,.43.25,2.18,2.18,0,0,0,1.3,1,2.49,2.49,0,0,0,1.48,0,2.21,2.21,0,0,0,1.3-1,.51.51,0,0,1,.86,0,2.38,2.38,0,0,0,4.09,0,.5.5,0,0,1,.43-.25h0a.48.48,0,0,1,.43.25,2.23,2.23,0,0,0,1.31,1,2.46,2.46,0,0,0,1.47,0,2.2,2.2,0,0,0,1.31-1,.48.48,0,0,1,.43-.25h0a.48.48,0,0,1,.43.25,2.2,2.2,0,0,0,1.31,1,2.46,2.46,0,0,0,1.47,0,2.23,2.23,0,0,0,1.31-1,.48.48,0,0,1,.43-.25h0a.5.5,0,0,1,.43.25,2.38,2.38,0,0,0,4.09,0A.48.48,0,0,1,85,55.53Z"/><path class="cls-3" d="M72.72,79.92a.5.5,0,0,1-.5-.5V72.8a.5.5,0,0,1,.5-.5.5.5,0,0,1,.5.5v6.62A.5.5,0,0,1,72.72,79.92Z"/><path class="cls-3" d="M76.54,73.3H68.9a.5.5,0,0,1,0-1h7.64a.5.5,0,0,1,0,1Z"/><polyline class="cls-4" points="80.34 72.11 80.34 75.69 77.3 75.69 77.3 79.42"/><path class="cls-3" d="M77.3,79.92a.5.5,0,0,1-.5-.5V75.69a.5.5,0,0,1,.5-.5h2.54V72.11a.5.5,0,1,1,1,0v3.58a.5.5,0,0,1-.5.5H77.8v3.23A.5.5,0,0,1,77.3,79.92Z"/><line class="cls-4" x1="81.51" y1="79.19" x2="80.34" y2="75.69"/><path class="cls-3" d="M81.51,79.69a.5.5,0,0,1-.48-.34l-1.16-3.5a.5.5,0,1,1,.94-.32L82,79a.49.49,0,0,1-.31.63Z"/><polyline class="cls-4" points="65.54 72.11 65.54 75.69 68.58 75.69 68.58 79.42"/><path class="cls-3" d="M68.58,79.92a.5.5,0,0,1-.5-.5V76.19H65.54a.51.51,0,0,1-.5-.5V72.11a.5.5,0,0,1,.5-.5.5.5,0,0,1,.5.5v3.08h2.54a.5.5,0,0,1,.5.5v3.73A.5.5,0,0,1,68.58,79.92Z"/><line class="cls-4" x1="64.37" y1="79.19" x2="65.54" y2="75.69"/><path class="cls-3" d="M64.37,79.69a.4.4,0,0,1-.15,0A.49.49,0,0,1,63.9,79l1.17-3.5a.5.5,0,0,1,.63-.32.52.52,0,0,1,.32.64l-1.17,3.5A.5.5,0,0,1,64.37,79.69Z"/><path class="cls-3" d="M54.73,76.06a1.16,1.16,0,1,1,1.16-1.16A1.16,1.16,0,0,1,54.73,76.06Zm0-1.31a.15.15,0,0,0-.15.15c0,.17.31.17.31,0A.16.16,0,0,0,54.73,74.75Z"/></g></svg>