<svg xmlns="http://www.w3.org/2000/svg" viewBox="0 0 100 100"><defs><style>.cls-1{fill:#fff;}.cls-2{fill:#636569;}</style></defs><g id="Layer_2" data-name="Layer 2"><path class="cls-1" d="M60.31,48.54a14.7,14.7,0,0,1,0,29.4"/><path class="cls-2" d="M60.31,78.53V77.35a14.11,14.11,0,1,0,0-28.22V48a15.29,15.29,0,1,1,0,30.58Z"/><path class="cls-1" d="M60.31,53.17a10.07,10.07,0,1,1,0,20.14"/><path class="cls-2" d="M60.31,73.91V72.72a9.48,9.48,0,0,0,0-19V52.57a10.67,10.67,0,0,1,0,21.34Z"/><rect class="cls-1" x="24.99" y="43.3" width="37.64" height="45.13" rx="3.94"/><path class="cls-2" d="M57.94,89H29.67a5.29,5.29,0,0,1-5.28-5.28V48a5.29,5.29,0,0,1,5.28-5.28H57.94A5.29,5.29,0,0,1,63.22,48V83.75A5.29,5.29,0,0,1,57.94,89ZM29.67,43.89A4.1,4.1,0,0,0,25.58,48V83.75a4.09,4.09,0,0,0,4.09,4.09H57.94A4.09,4.09,0,0,0,62,83.75V48a4.1,4.1,0,0,0-4.09-4.1Z"/><path class="cls-2" d="M34.24,39.48c-.17-.12-4.19-2.84-4.61-7.16-.27-2.66.89-5.3,3.44-7.86,2.19-2.19,3.14-4.35,2.82-6.42-.56-3.68-4.94-6-5-6L31.45,11c.2.11,4.95,2.61,5.62,6.89.38,2.46-.68,5-3.16,7.44-2.28,2.29-3.33,4.62-3.1,6.91.37,3.76,4.05,6.25,4.08,6.28Z"/><path class="cls-2" d="M44.68,39.48c-.17-.12-4.19-2.84-4.61-7.16-.27-2.66.89-5.3,3.45-7.86,2.19-2.19,3.13-4.35,2.81-6.42-.56-3.68-4.94-6-5-6L41.89,11c.2.11,5,2.61,5.62,6.89.38,2.46-.68,5-3.15,7.44-2.29,2.29-3.34,4.61-3.11,6.9.37,3.75,4,6.26,4.09,6.29Z"/><path class="cls-2" d="M54.05,39.48c-.17-.12-4.19-2.84-4.61-7.16-.27-2.66.89-5.3,3.44-7.86C55.07,22.27,56,20.11,55.7,18c-.56-3.68-4.94-6-5-6L51.26,11c.2.11,5,2.61,5.62,6.89.38,2.46-.68,5-3.16,7.44-2.28,2.29-3.33,4.62-3.1,6.91C51,36,54.67,38.46,54.7,38.49Z"/></g></svg>