<svg xmlns="http://www.w3.org/2000/svg" viewBox="0 0 100 100"><defs><style>.cls-1{fill:#fff;}.cls-2{fill:#636569;}</style></defs><g id="Layer_2" data-name="Layer 2"><line class="cls-1" x1="50.12" y1="43.89" x2="27.28" y2="63.45"/><rect class="cls-2" x="23.67" y="53.17" width="30.07" height="1" transform="translate(-25.6 38.07) rotate(-40.56)"/><line class="cls-1" x1="50.12" y1="43.89" x2="72.97" y2="63.45"/><rect class="cls-2" x="61.05" y="38.63" width="1" height="30.07" transform="translate(-19.25 65.53) rotate(-49.44)"/><path class="cls-2" d="M43.77,86.07H10.3V63H43.77Zm-32.47-1H42.77V64H11.3Z"/><rect class="cls-1" x="9.15" y="82.44" width="35.78" height="3.13" rx="1.57"/><path class="cls-2" d="M43.36,86.07H10.72a2.07,2.07,0,1,1,0-4.13H43.36a2.07,2.07,0,1,1,0,4.13ZM10.72,82.94a1.07,1.07,0,1,0,0,2.13H43.36a1.07,1.07,0,1,0,0-2.13Z"/><rect class="cls-1" x="13.85" y="71.86" width="7.09" height="13.71"/><path class="cls-2" d="M20.94,86.07H13.85a.5.5,0,0,1-.5-.5V71.86a.5.5,0,0,1,.5-.5h7.09a.5.5,0,0,1,.5.5V85.57A.5.5,0,0,1,20.94,86.07Zm-6.59-1h6.09V72.36H14.35Z"/><path class="cls-1" d="M44.56,60.62h-35a1,1,0,0,0-1,1v2.34a2.1,2.1,0,0,0,.75,1.86,2.2,2.2,0,0,0,2,.36,2,2,0,0,0,1.16-.92,2,2,0,0,0,1.17.92,2.22,2.22,0,0,0,1.3,0,2,2,0,0,0,1.17-.92,2.11,2.11,0,0,0,3.64,0,2,2,0,0,0,1.17.92,2.22,2.22,0,0,0,1.3,0,2,2,0,0,0,1.17-.92,2,2,0,0,0,1.17.92,2.22,2.22,0,0,0,1.3,0A2,2,0,0,0,27,65.23a2.11,2.11,0,0,0,3.64,0,2,2,0,0,0,1.17.92,2.18,2.18,0,0,0,1.29,0,2,2,0,0,0,1.18-.92,2,2,0,0,0,1.16.92,2.22,2.22,0,0,0,1.3,0A2,2,0,0,0,38,65.23a2.13,2.13,0,0,0,1.82,1,2.1,2.1,0,0,0,1.82-1,2.1,2.1,0,0,0,3.42.29,2,2,0,0,0,.52-1.37h0V61.59A1,1,0,0,0,44.56,60.62Z"/><path class="cls-2" d="M43.4,66.77h-.26A2.65,2.65,0,0,1,41.59,66,2.71,2.71,0,0,1,38,66a2.59,2.59,0,0,1-1,.6,2.69,2.69,0,0,1-1.59,0,2.49,2.49,0,0,1-1-.6,2.48,2.48,0,0,1-1,.6,2.67,2.67,0,0,1-2.62-.6A2.71,2.71,0,0,1,27,66a2.68,2.68,0,0,1-1,.6,2.73,2.73,0,0,1-1.6,0,2.49,2.49,0,0,1-1-.6,2.56,2.56,0,0,1-1,.6,2.73,2.73,0,0,1-1.6,0,2.6,2.6,0,0,1-1-.6,2.72,2.72,0,0,1-3.64,0,2.6,2.6,0,0,1-1,.6,2.73,2.73,0,0,1-1.6,0,2.49,2.49,0,0,1-1-.6,2.5,2.5,0,0,1-1,.59A2.67,2.67,0,0,1,9,66.17a2.63,2.63,0,0,1-.93-2.29V61.59a1.46,1.46,0,0,1,1.46-1.47h35A1.47,1.47,0,0,1,46,61.59v2.56a2.55,2.55,0,0,1-.64,1.7A2.67,2.67,0,0,1,43.4,66.77Zm-1.81-2h0A.48.48,0,0,1,42,65a1.61,1.61,0,0,0,1.23.78,1.63,1.63,0,0,0,1.39-.57,1.53,1.53,0,0,0,.39-1V61.59a.47.47,0,0,0-.47-.47h-35a.47.47,0,0,0-.46.47v2.34a1.6,1.6,0,0,0,2.11,1.74,1.48,1.48,0,0,0,.88-.69.48.48,0,0,1,.43-.25h0a.48.48,0,0,1,.43.25,1.54,1.54,0,0,0,.89.69,1.7,1.7,0,0,0,1,0,1.47,1.47,0,0,0,.89-.69.51.51,0,0,1,.86,0,1.6,1.6,0,0,0,1.39.79A1.63,1.63,0,0,0,19.33,65a.51.51,0,0,1,.86,0,1.47,1.47,0,0,0,.89.69,1.7,1.7,0,0,0,1,0A1.54,1.54,0,0,0,23,65a.51.51,0,0,1,.86,0,1.48,1.48,0,0,0,.88.69,1.74,1.74,0,0,0,1,0,1.47,1.47,0,0,0,.89-.69.51.51,0,0,1,.86,0,1.6,1.6,0,0,0,1.39.79A1.63,1.63,0,0,0,30.25,65a.48.48,0,0,1,.43-.25h0a.5.5,0,0,1,.43.25,1.49,1.49,0,0,0,.88.69,1.7,1.7,0,0,0,1,0,1.53,1.53,0,0,0,.9-.69.48.48,0,0,1,.43-.25h0a.5.5,0,0,1,.43.25,1.49,1.49,0,0,0,.88.69,1.74,1.74,0,0,0,1,0,1.49,1.49,0,0,0,.88-.69.52.52,0,0,1,.87,0,1.61,1.61,0,0,0,2.77,0A.5.5,0,0,1,41.59,64.73Z"/><path class="cls-2" d="M32.56,82.94a.5.5,0,0,1-.5-.5V77.57a.5.5,0,0,1,1,0v4.87A.5.5,0,0,1,32.56,82.94Z"/><path class="cls-2" d="M35.37,78.07H29.75a.5.5,0,0,1-.5-.5.5.5,0,0,1,.5-.5h5.62a.5.5,0,0,1,.5.5A.51.51,0,0,1,35.37,78.07Z"/><polyline class="cls-1" points="38.16 77.05 38.16 79.69 35.93 79.69 35.93 82.44"/><path class="cls-2" d="M35.93,82.94a.5.5,0,0,1-.5-.5V79.69a.5.5,0,0,1,.5-.5h1.73V77.05a.51.51,0,0,1,.5-.5.5.5,0,0,1,.5.5v2.64a.5.5,0,0,1-.5.5H36.43v2.25A.51.51,0,0,1,35.93,82.94Z"/><line class="cls-1" x1="39.02" y1="82.26" x2="38.16" y2="79.69"/><path class="cls-2" d="M39,82.76a.49.49,0,0,1-.47-.34l-.86-2.57a.5.5,0,0,1,.31-.64.52.52,0,0,1,.64.32l.85,2.58a.5.5,0,0,1-.31.63A.44.44,0,0,1,39,82.76Z"/><polyline class="cls-1" points="27.28 77.05 27.28 79.69 29.51 79.69 29.51 82.44"/><path class="cls-2" d="M29.51,82.94a.5.5,0,0,1-.5-.5V80.19H27.28a.5.5,0,0,1-.5-.5V77.05a.5.5,0,0,1,.5-.5.51.51,0,0,1,.5.5v2.14h1.73a.5.5,0,0,1,.5.5v2.75A.5.5,0,0,1,29.51,82.94Z"/><line class="cls-1" x1="26.42" y1="82.26" x2="27.28" y2="79.69"/><path class="cls-2" d="M26.42,82.76a.44.44,0,0,1-.16,0,.5.5,0,0,1-.31-.63l.85-2.58a.52.52,0,0,1,.64-.32.5.5,0,0,1,.31.64l-.86,2.57A.49.49,0,0,1,26.42,82.76Z"/><path class="cls-2" d="M19.33,80.09a1,1,0,1,1,1-1A1,1,0,0,1,19.33,80.09Zm0-1a0,0,0,0,0,0,0Z"/><path class="cls-2" d="M89.7,86.07H56.23V63H89.7Zm-32.47-1H88.7V64H57.23Z"/><rect class="cls-1" x="55.07" y="82.44" width="35.78" height="3.13" rx="1.57"/><path class="cls-2" d="M89.28,86.07H56.64a2.07,2.07,0,1,1,0-4.13H89.28a2.07,2.07,0,1,1,0,4.13ZM56.64,82.94a1.07,1.07,0,1,0,0,2.13H89.28a1.07,1.07,0,1,0,0-2.13Z"/><rect class="cls-1" x="59.78" y="71.86" width="7.09" height="13.71"/><path class="cls-2" d="M66.87,86.07H59.78a.5.5,0,0,1-.5-.5V71.86a.5.5,0,0,1,.5-.5h7.09a.5.5,0,0,1,.5.5V85.57A.5.5,0,0,1,66.87,86.07Zm-6.59-1h6.09V72.36H60.28Z"/><path class="cls-1" d="M90.49,60.62h-35a1,1,0,0,0-1,1v2.34a2.11,2.11,0,0,0,.76,1.86,2.19,2.19,0,0,0,2,.36,2,2,0,0,0,1.15-.92,2,2,0,0,0,1.17.92,2.22,2.22,0,0,0,1.3,0A2,2,0,0,0,62,65.23a2.11,2.11,0,0,0,3.64,0,2,2,0,0,0,1.17.92,2.22,2.22,0,0,0,1.3,0,2,2,0,0,0,1.17-.92,2,2,0,0,0,1.17.92,2.22,2.22,0,0,0,1.3,0A2,2,0,0,0,73,65.23a2.11,2.11,0,0,0,3.64,0,2,2,0,0,0,1.17.92,2.22,2.22,0,0,0,1.3,0,2,2,0,0,0,1.17-.92,2,2,0,0,0,1.17.92,2.22,2.22,0,0,0,1.3,0,2,2,0,0,0,1.17-.92,2.11,2.11,0,0,0,3.64,0,2.1,2.1,0,0,0,1.6,1,2.16,2.16,0,0,0,1.82-.74,2,2,0,0,0,.51-1.37h0V61.59A1,1,0,0,0,90.49,60.62Z"/><path class="cls-2" d="M89.33,66.77h-.26A2.59,2.59,0,0,1,87.52,66a2.72,2.72,0,0,1-3.64,0,2.53,2.53,0,0,1-1,.6,2.69,2.69,0,0,1-1.59,0,2.49,2.49,0,0,1-1-.6,2.42,2.42,0,0,1-1,.6,2.69,2.69,0,0,1-1.59,0,2.6,2.6,0,0,1-1-.6A2.72,2.72,0,0,1,73,66a2.6,2.6,0,0,1-1,.6,2.69,2.69,0,0,1-1.59,0,2.59,2.59,0,0,1-1-.6,2.49,2.49,0,0,1-1,.6,2.69,2.69,0,0,1-1.59,0,2.64,2.64,0,0,1-1-.6,2.71,2.71,0,0,1-3.63,0,2.67,2.67,0,0,1-2.62.6,2.59,2.59,0,0,1-1-.6,2.4,2.4,0,0,1-1,.59,2.67,2.67,0,0,1-2.48-.45A2.62,2.62,0,0,1,54,63.88V61.59a1.47,1.47,0,0,1,1.47-1.47h35A1.47,1.47,0,0,1,92,61.59v2.56a2.56,2.56,0,0,1-.65,1.7A2.63,2.63,0,0,1,89.33,66.77Zm-1.81-2h0A.48.48,0,0,1,88,65a1.6,1.6,0,0,0,1.22.78,1.65,1.65,0,0,0,1.39-.57,1.48,1.48,0,0,0,.39-1V61.59a.47.47,0,0,0-.47-.47h-35a.47.47,0,0,0-.47.47v2.34a1.61,1.61,0,0,0,2.12,1.74A1.43,1.43,0,0,0,58,65a.51.51,0,0,1,.86,0,1.54,1.54,0,0,0,.89.69,1.74,1.74,0,0,0,1,0,1.48,1.48,0,0,0,.88-.69.51.51,0,0,1,.86,0,1.63,1.63,0,0,0,1.39.79A1.6,1.6,0,0,0,65.25,65a.5.5,0,0,1,.43-.25h0a.48.48,0,0,1,.43.25,1.47,1.47,0,0,0,.89.69,1.74,1.74,0,0,0,1,0,1.48,1.48,0,0,0,.88-.69.5.5,0,0,1,.43-.25h0a.48.48,0,0,1,.43.25,1.47,1.47,0,0,0,.89.69,1.74,1.74,0,0,0,1,0,1.48,1.48,0,0,0,.88-.69.51.51,0,0,1,.86,0,1.63,1.63,0,0,0,1.39.79A1.6,1.6,0,0,0,76.17,65,.51.51,0,0,1,77,65a1.54,1.54,0,0,0,.89.69,1.7,1.7,0,0,0,1,0,1.54,1.54,0,0,0,.89-.69.48.48,0,0,1,.43-.25h0a.48.48,0,0,1,.43.25,1.54,1.54,0,0,0,.89.69,1.7,1.7,0,0,0,1,0,1.54,1.54,0,0,0,.89-.69.51.51,0,0,1,.86,0,1.6,1.6,0,0,0,1.39.79A1.63,1.63,0,0,0,87.09,65,.48.48,0,0,1,87.52,64.73Z"/><path class="cls-2" d="M78.48,82.94a.51.51,0,0,1-.5-.5V77.57a.5.5,0,0,1,.5-.5.5.5,0,0,1,.5.5v4.87A.5.5,0,0,1,78.48,82.94Z"/><path class="cls-2" d="M81.29,78.07H75.68a.5.5,0,0,1-.5-.5.5.5,0,0,1,.5-.5h5.61a.5.5,0,0,1,.5.5A.5.5,0,0,1,81.29,78.07Z"/><polyline class="cls-1" points="84.09 77.05 84.09 79.69 81.85 79.69 81.85 82.44"/><path class="cls-2" d="M81.85,82.94a.51.51,0,0,1-.5-.5V79.69a.5.5,0,0,1,.5-.5h1.74V77.05a.5.5,0,0,1,.5-.5.51.51,0,0,1,.5.5v2.64a.51.51,0,0,1-.5.5H82.35v2.25A.5.5,0,0,1,81.85,82.94Z"/><line class="cls-1" x1="84.94" y1="82.26" x2="84.09" y2="79.69"/><path class="cls-2" d="M85,82.76a.5.5,0,0,1-.48-.34l-.86-2.57a.5.5,0,1,1,1-.32l.86,2.58a.49.49,0,0,1-.32.63A.39.39,0,0,1,85,82.76Z"/><polyline class="cls-1" points="73.2 77.05 73.2 79.69 75.44 79.69 75.44 82.44"/><path class="cls-2" d="M75.44,82.94a.5.5,0,0,1-.5-.5V80.19H73.2a.51.51,0,0,1-.5-.5V77.05a.51.51,0,0,1,.5-.5.5.5,0,0,1,.5.5v2.14h1.74a.5.5,0,0,1,.5.5v2.75A.51.51,0,0,1,75.44,82.94Z"/><line class="cls-1" x1="72.34" y1="82.26" x2="73.2" y2="79.69"/><path class="cls-2" d="M72.34,82.76a.39.39,0,0,1-.15,0,.49.49,0,0,1-.32-.63l.86-2.58a.51.51,0,0,1,.63-.32.52.52,0,0,1,.32.64l-.86,2.57A.5.5,0,0,1,72.34,82.76Z"/><path class="cls-2" d="M65.25,80.09a1,1,0,1,1,1-1A1,1,0,0,1,65.25,80.09Zm0-1s0,0,0,0Z"/><rect class="cls-1" x="38.02" y="14.43" width="24.21" height="32.81" rx="3.46"/><path class="cls-2" d="M58.78,47.74H41.47a4,4,0,0,1-3.95-4V17.89a4,4,0,0,1,3.95-4H58.78a4,4,0,0,1,3.95,4V43.78A4,4,0,0,1,58.78,47.74ZM41.47,14.93a3,3,0,0,0-2.95,3V43.78a3,3,0,0,0,2.95,3H58.78a3,3,0,0,0,2.95-3V17.89a3,3,0,0,0-2.95-3Z"/><rect class="cls-1" x="43.26" y="19.34" width="5.02" height="5.02" rx="1.86"/><path class="cls-2" d="M46.43,24.86H45.12a2.36,2.36,0,0,1-2.36-2.35V21.2a2.36,2.36,0,0,1,2.36-2.36h1.31a2.36,2.36,0,0,1,2.35,2.36v1.31A2.35,2.35,0,0,1,46.43,24.86Zm-1.31-5a1.36,1.36,0,0,0-1.36,1.36v1.31a1.36,1.36,0,0,0,1.36,1.35h1.31a1.35,1.35,0,0,0,1.35-1.35V21.2a1.35,1.35,0,0,0-1.35-1.36Z"/><rect class="cls-1" x="51.97" y="19.34" width="5.02" height="5.02" rx="1.86"/><path class="cls-2" d="M55.13,24.86H53.82a2.35,2.35,0,0,1-2.35-2.35V21.2a2.36,2.36,0,0,1,2.35-2.36h1.31a2.36,2.36,0,0,1,2.36,2.36v1.31A2.36,2.36,0,0,1,55.13,24.86Zm-1.31-5a1.35,1.35,0,0,0-1.35,1.36v1.31a1.35,1.35,0,0,0,1.35,1.35h1.31a1.36,1.36,0,0,0,1.36-1.35V21.2a1.36,1.36,0,0,0-1.36-1.36Z"/><rect class="cls-1" x="43.26" y="27.74" width="5.02" height="5.02" rx="1.86"/><path class="cls-2" d="M46.43,33.26H45.12a2.36,2.36,0,0,1-2.36-2.35V29.6a2.36,2.36,0,0,1,2.36-2.36h1.31a2.36,2.36,0,0,1,2.35,2.36v1.31A2.35,2.35,0,0,1,46.43,33.26Zm-1.31-5a1.36,1.36,0,0,0-1.36,1.36v1.31a1.36,1.36,0,0,0,1.36,1.35h1.31a1.35,1.35,0,0,0,1.35-1.35V29.6a1.35,1.35,0,0,0-1.35-1.36Z"/><rect class="cls-1" x="51.97" y="27.74" width="5.02" height="5.02" rx="1.86"/><path class="cls-2" d="M55.13,33.26H53.82a2.35,2.35,0,0,1-2.35-2.35V29.6a2.36,2.36,0,0,1,2.35-2.36h1.31a2.36,2.36,0,0,1,2.36,2.36v1.31A2.36,2.36,0,0,1,55.13,33.26Zm-1.31-5a1.35,1.35,0,0,0-1.35,1.36v1.31a1.35,1.35,0,0,0,1.35,1.35h1.31a1.36,1.36,0,0,0,1.36-1.35V29.6a1.36,1.36,0,0,0-1.36-1.36Z"/><rect class="cls-1" x="43.26" y="36.14" width="5.02" height="5.02" rx="1.86"/><path class="cls-2" d="M46.43,41.66H45.12a2.36,2.36,0,0,1-2.36-2.35V38a2.36,2.36,0,0,1,2.36-2.36h1.31A2.36,2.36,0,0,1,48.78,38v1.31A2.35,2.35,0,0,1,46.43,41.66Zm-1.31-5A1.36,1.36,0,0,0,43.76,38v1.31a1.36,1.36,0,0,0,1.36,1.35h1.31a1.35,1.35,0,0,0,1.35-1.35V38a1.35,1.35,0,0,0-1.35-1.36Z"/><rect class="cls-1" x="51.97" y="36.14" width="5.02" height="5.02" rx="1.86"/><path class="cls-2" d="M55.13,41.66H53.82a2.35,2.35,0,0,1-2.35-2.35V38a2.36,2.36,0,0,1,2.35-2.36h1.31A2.36,2.36,0,0,1,57.49,38v1.31A2.36,2.36,0,0,1,55.13,41.66Zm-1.31-5A1.35,1.35,0,0,0,52.47,38v1.31a1.35,1.35,0,0,0,1.35,1.35h1.31a1.36,1.36,0,0,0,1.36-1.35V38a1.36,1.36,0,0,0-1.36-1.36Z"/><path class="cls-1" d="M64.92,46.84a.47.47,0,0,1-.37-.18c-.23-.32-5.61-7.73-5.61-12.47a6,6,0,0,1,12,0c0,4.74-5.39,12.15-5.62,12.47A.45.45,0,0,1,64.92,46.84Z"/><path class="cls-2" d="M64.92,47.34a1,1,0,0,1-.77-.39c-.23-.32-5.71-7.85-5.71-12.76a6.48,6.48,0,0,1,13,0c0,4.9-5.48,12.44-5.71,12.76A1,1,0,0,1,64.92,47.34Zm0-18.63a5.49,5.49,0,0,0-5.48,5.48c0,4.39,5,11.43,5.48,12.12.53-.73,5.48-7.69,5.48-12.12A5.49,5.49,0,0,0,64.92,28.71Z"/><circle class="cls-1" cx="64.92" cy="34.39" r="2.62"/><path class="cls-2" d="M64.92,37.51A3.12,3.12,0,1,1,68,34.39,3.12,3.12,0,0,1,64.92,37.51Zm0-5.24A2.12,2.12,0,1,0,67,34.39,2.12,2.12,0,0,0,64.92,32.27Z"/></g></svg>