<svg xmlns="http://www.w3.org/2000/svg" viewBox="0 0 100 100"><defs><style>.cls-1{fill:#636569;}.cls-2{fill:#fff;}</style></defs><g id="Layer_2" data-name="Layer 2"><path class="cls-1" d="M39.05,64.57,37.1,59.88a8.43,8.43,0,0,0-3-3.69l-3-2.11A6.16,6.16,0,0,1,29,51.4l-2.53-6.11a1.84,1.84,0,0,0-2.39-1l-.69.29a2.13,2.13,0,0,0-1.15,2.78l3,7.29a4,4,0,0,1,.27,2l-.14,1.1-1-.13.14-1.09A3,3,0,0,0,24.29,55l-3-7.29A3.12,3.12,0,0,1,23,43.67l.69-.29a2.82,2.82,0,0,1,3.69,1.53L29.88,51a5.1,5.1,0,0,0,1.8,2.25l3,2.11A9.5,9.5,0,0,1,38,59.49L40,64.19Z"/><path class="cls-1" d="M26.17,69.92l-1.53-3.71a5,5,0,0,0-.9-1.41l-6.37-7a7.71,7.71,0,0,1-2-5.9l2-22.42a3,3,0,0,1,3.11-2.65,2.89,2.89,0,0,1,2.07,1.07,3,3,0,0,1,.63,2.25L22,38.54l.26,6.88-1,0-.25-7L22.22,30a1.93,1.93,0,0,0-.41-1.48,1.88,1.88,0,0,0-1.37-.7,1.91,1.91,0,0,0-2,1.74L16.38,52a6.74,6.74,0,0,0,1.73,5.14l6.37,7a5.89,5.89,0,0,1,1.08,1.71l1.54,3.71Z"/><polygon class="cls-1" points="28.35 82.34 23.44 70.51 42.01 62.81 46.92 74.64 45.99 75.02 41.47 64.11 24.75 71.05 29.28 81.96 28.35 82.34"/><path class="cls-1" d="M61,64.57,60,64.19,62,59.49a9.5,9.5,0,0,1,3.32-4.12l3-2.11A5.1,5.1,0,0,0,70.12,51l2.54-6.1a2.82,2.82,0,0,1,3.69-1.53l.69.29a3.12,3.12,0,0,1,1.69,4.08l-3,7.29a3,3,0,0,0-.21,1.52l.14,1.09-1,.13-.14-1.1a4.09,4.09,0,0,1,.27-2l3-7.29a2.13,2.13,0,0,0-1.15-2.78L76,44.3a1.88,1.88,0,0,0-1.4,0,1.85,1.85,0,0,0-1,1L71.05,51.4a6.16,6.16,0,0,1-2.16,2.68l-3,2.11a8.38,8.38,0,0,0-3,3.69Z"/><path class="cls-1" d="M73.83,69.92l-.93-.38,1.54-3.71a6.11,6.11,0,0,1,1.08-1.71l6.37-7A6.73,6.73,0,0,0,83.62,52l-2-22.42a1.92,1.92,0,0,0-2-1.74,1.88,1.88,0,0,0-1.37.7A1.93,1.93,0,0,0,77.78,30L79,38.4l-.25,7.06-1,0,.25-7-1.17-8.32a3,3,0,0,1,.63-2.25,2.89,2.89,0,0,1,2.07-1.07,2.94,2.94,0,0,1,3.11,2.65l2,22.42a7.74,7.74,0,0,1-2,5.9l-6.38,7a4.84,4.84,0,0,0-.9,1.41Z"/><polygon class="cls-1" points="71.65 82.34 70.72 81.96 75.25 71.05 58.53 64.11 54.01 75.02 53.08 74.64 57.99 62.81 76.56 70.51 71.65 82.34"/><path class="cls-1" d="M36.28,26.16a3.91,3.91,0,1,1,3.9-3.9A3.91,3.91,0,0,1,36.28,26.16Zm0-6.81a2.91,2.91,0,1,0,2.9,2.91A2.91,2.91,0,0,0,36.28,19.35Z"/><path class="cls-1" d="M43.64,35.51H28.42V35a7.81,7.81,0,0,1,7.78-7.87h.15a7.8,7.8,0,0,1,7.79,7.79v.5Zm-14.21-1h13.7a6.8,6.8,0,0,0-6.78-6.37H36.2A6.8,6.8,0,0,0,29.43,34.51Z"/><path class="cls-1" d="M63.72,26.16a3.91,3.91,0,1,1,3.91-3.9A3.91,3.91,0,0,1,63.72,26.16Zm0-6.81a2.91,2.91,0,1,0,2.91,2.91A2.9,2.9,0,0,0,63.72,19.35Z"/><path class="cls-1" d="M71.08,35.51H55.86V35a7.82,7.82,0,0,1,7.79-7.87h.15a7.8,7.8,0,0,1,7.78,7.79v.5Zm-14.21-1h13.7a6.8,6.8,0,0,0-6.77-6.37h-.15A6.8,6.8,0,0,0,56.87,34.51Z"/><circle class="cls-2" cx="50" cy="23.29" r="5.44"/><path class="cls-1" d="M50,29.23a5.94,5.94,0,1,1,5.94-5.94A5.94,5.94,0,0,1,50,29.23Zm0-10.88a4.94,4.94,0,1,0,4.94,4.94A5,5,0,0,0,50,18.35Z"/><path class="cls-2" d="M48.75,31.9h2.5A10.51,10.51,0,0,1,61.76,42.41v1.25a0,0,0,0,1,0,0H38.24a0,0,0,0,1,0,0V42.41A10.51,10.51,0,0,1,48.75,31.9Z"/><path class="cls-1" d="M62.26,44.16H37.74V42.41a11,11,0,0,1,11-11h2.5a11,11,0,0,1,11,11Zm-23.52-1H61.26v-.75a10,10,0,0,0-10-10h-2.5a10,10,0,0,0-10,10Z"/></g></svg>