<svg xmlns="http://www.w3.org/2000/svg" viewBox="0 0 100 100"><defs><style>.cls-1{fill:#636569;}.cls-2{fill:#fff;}</style></defs><g id="Layer_2" data-name="Layer 2"><path class="cls-1" d="M86.1,77.85H13.9V28.34H86.1Zm-71.2-1H85.1V29.34H14.9Z"/><rect class="cls-2" x="10.77" y="70.48" width="78.46" height="6.87" rx="1.93"/><path class="cls-1" d="M87.3,77.85H12.7a2.43,2.43,0,0,1-2.43-2.42v-3A2.43,2.43,0,0,1,12.7,70H87.3a2.43,2.43,0,0,1,2.43,2.42v3A2.43,2.43,0,0,1,87.3,77.85ZM12.7,71a1.43,1.43,0,0,0-1.43,1.42v3a1.43,1.43,0,0,0,1.43,1.42H87.3a1.43,1.43,0,0,0,1.43-1.42v-3A1.43,1.43,0,0,0,87.3,71Z"/><rect class="cls-2" x="21.09" y="47.29" width="15.54" height="30.06"/><path class="cls-1" d="M36.64,77.85H21.09a.5.5,0,0,1-.5-.5V47.29a.5.5,0,0,1,.5-.5H36.64a.5.5,0,0,1,.5.5V77.35A.5.5,0,0,1,36.64,77.85Zm-15-1H36.14V47.79H21.59Z"/><path class="cls-2" d="M88.43,22.65H11.59a2.12,2.12,0,0,0-2.12,2.12V29.9A4.66,4.66,0,0,0,11.13,34a4.73,4.73,0,0,0,4.4.79,4.42,4.42,0,0,0,2.55-2,4.3,4.3,0,0,0,2.56,2,4.78,4.78,0,0,0,2.85,0,4.36,4.36,0,0,0,2.57-2,4.63,4.63,0,0,0,8,0,4.35,4.35,0,0,0,2.56,2,4.86,4.86,0,0,0,2.85,0,4.36,4.36,0,0,0,2.57-2,4.35,4.35,0,0,0,2.56,2,4.89,4.89,0,0,0,2.86,0,4.33,4.33,0,0,0,2.56-2,4.63,4.63,0,0,0,8,0,4.42,4.42,0,0,0,2.56,2,4.94,4.94,0,0,0,2.85,0,4.41,4.41,0,0,0,2.57-2,4.42,4.42,0,0,0,2.56,2,4.94,4.94,0,0,0,2.85,0,4.41,4.41,0,0,0,2.57-2,4.63,4.63,0,0,0,8,0A4.61,4.61,0,0,0,85.43,35a4.67,4.67,0,0,0,4-1.62,4.38,4.38,0,0,0,1.14-3h0V24.77A2.12,2.12,0,0,0,88.43,22.65Z"/><path class="cls-1" d="M85.89,35.53a4.36,4.36,0,0,1-.51,0,5.11,5.11,0,0,1-3.46-1.88,5.12,5.12,0,0,1-8,0,4.87,4.87,0,0,1-2.42,1.63,5.33,5.33,0,0,1-3.14,0A4.83,4.83,0,0,1,66,33.63a4.94,4.94,0,0,1-2.43,1.62,5.3,5.3,0,0,1-3.13,0A4.79,4.79,0,0,1,58,33.62a5.12,5.12,0,0,1-8,0,4.85,4.85,0,0,1-2.42,1.62,5.26,5.26,0,0,1-3.14,0A4.83,4.83,0,0,1,42,33.63a4.83,4.83,0,0,1-2.42,1.61,5.26,5.26,0,0,1-3.14,0A4.79,4.79,0,0,1,34,33.62a5.12,5.12,0,0,1-8,0,4.85,4.85,0,0,1-2.42,1.62,5.29,5.29,0,0,1-3.15,0,4.85,4.85,0,0,1-2.41-1.61,4.87,4.87,0,0,1-2.4,1.6,5.22,5.22,0,0,1-4.86-.87A5.16,5.16,0,0,1,9,29.84V24.77a2.62,2.62,0,0,1,2.62-2.62H88.43a2.62,2.62,0,0,1,2.62,2.62v5.67a4.92,4.92,0,0,1-1.26,3.27A5.24,5.24,0,0,1,85.89,35.53Zm-4-3.28h0a.5.5,0,0,1,.43.24,4.12,4.12,0,0,0,3.14,2A4.2,4.2,0,0,0,89,33.05a3.9,3.9,0,0,0,1-2.66V24.77a1.62,1.62,0,0,0-1.62-1.62H11.59A1.63,1.63,0,0,0,10,24.77V29.9a4.21,4.21,0,0,0,1.48,3.69,4.26,4.26,0,0,0,3.94.69,3.88,3.88,0,0,0,2.26-1.79.52.52,0,0,1,.86,0,3.87,3.87,0,0,0,2.28,1.8,4.46,4.46,0,0,0,2.56,0,3.89,3.89,0,0,0,2.28-1.79.52.52,0,0,1,.86,0,4.13,4.13,0,0,0,7.12,0,.52.52,0,0,1,.86,0,3.87,3.87,0,0,0,2.28,1.8,4.46,4.46,0,0,0,2.56,0,3.87,3.87,0,0,0,2.28-1.8.52.52,0,0,1,.86,0,3.87,3.87,0,0,0,2.28,1.8,4.46,4.46,0,0,0,2.56,0,3.87,3.87,0,0,0,2.28-1.8.52.52,0,0,1,.86,0,4.13,4.13,0,0,0,7.12,0,.52.52,0,0,1,.86,0,3.87,3.87,0,0,0,2.28,1.8,4.43,4.43,0,0,0,2.55,0,3.88,3.88,0,0,0,2.29-1.79.52.52,0,0,1,.86,0,3.87,3.87,0,0,0,2.28,1.8,4.43,4.43,0,0,0,2.55,0,3.86,3.86,0,0,0,2.29-1.8.52.52,0,0,1,.86,0,4.13,4.13,0,0,0,7.12,0A.5.5,0,0,1,81.92,32.25Zm8.63-1.86h0Z"/><path class="cls-1" d="M62.11,71a.5.5,0,0,1-.5-.5V59.8a.5.5,0,0,1,.5-.5.5.5,0,0,1,.5.5V70.48A.51.51,0,0,1,62.11,71Z"/><path class="cls-1" d="M68.27,60.3H56a.5.5,0,0,1-.5-.5.5.5,0,0,1,.5-.5H68.27a.5.5,0,0,1,.5.5A.51.51,0,0,1,68.27,60.3Z"/><polyline class="cls-2" points="74.39 58.68 74.39 64.45 69.5 64.45 69.5 70.48"/><path class="cls-1" d="M69.5,71a.5.5,0,0,1-.5-.5v-6a.5.5,0,0,1,.5-.5h4.39V58.68a.5.5,0,0,1,.5-.5.5.5,0,0,1,.5.5v5.77a.5.5,0,0,1-.5.5H70v5.53A.51.51,0,0,1,69.5,71Z"/><line class="cls-2" x1="76.28" y1="70.1" x2="74.39" y2="64.45"/><path class="cls-1" d="M76.28,70.6a.5.5,0,0,1-.48-.34l-1.88-5.65a.49.49,0,0,1,.31-.63.5.5,0,0,1,.64.31l1.88,5.65a.5.5,0,0,1-.32.64Z"/><polyline class="cls-2" points="50.53 58.68 50.53 64.45 55.42 64.45 55.42 70.48"/><path class="cls-1" d="M55.42,71a.51.51,0,0,1-.5-.5V65H50.53a.5.5,0,0,1-.5-.5V58.68a.5.5,0,0,1,.5-.5.5.5,0,0,1,.5.5V64h4.39a.5.5,0,0,1,.5.5v6A.5.5,0,0,1,55.42,71Z"/><line class="cls-2" x1="48.64" y1="70.1" x2="50.53" y2="64.45"/><path class="cls-1" d="M48.64,70.6l-.15,0a.5.5,0,0,1-.32-.64l1.88-5.65a.5.5,0,0,1,.64-.31.49.49,0,0,1,.31.63l-1.88,5.65A.5.5,0,0,1,48.64,70.6Z"/><path class="cls-1" d="M33.1,64.74a1.56,1.56,0,1,1,1.55-1.55A1.56,1.56,0,0,1,33.1,64.74Zm0-2.11a.56.56,0,1,0,.55.56A.56.56,0,0,0,33.1,62.63Z"/></g></svg>