<svg xmlns="http://www.w3.org/2000/svg" xmlns:xlink="http://www.w3.org/1999/xlink" viewBox="0 0 100 100"><defs><style>.cls-1,.cls-2{fill:#fff;}.cls-1,.cls-4{stroke:#636569;stroke-miterlimit:10;}.cls-3{clip-path:url(#clip-path);}.cls-4{fill:none;}</style><clipPath id="clip-path"><circle class="cls-1" cx="48.82" cy="55.5" r="36.66"/></clipPath></defs><g id="Layer_2" data-name="Layer 2"><circle class="cls-2" cx="48.82" cy="55.5" r="36.66"/><g class="cls-3"><path class="cls-1" d="M30,9s-3.46,10.49-2.82,19.83C27.75,38,34.49,47.51,45.8,39.91c3.36-2.26,8.2-8.39,16.63-1.71C70.62,44.68,83,27.27,83,27.27"/><path class="cls-1" d="M2.74,65.34s.19-23,19.84-12.91c9.89,5.09,14.18.74,16.87.1A8,8,0,0,1,47.7,65.3l-.26.34-.27.33A9.81,9.81,0,0,0,51.53,81.3c4.65,1.67,10.1,4.87,11,10.79"/><path class="cls-1" d="M82.4,74.22s-16.82-8-12.15-15.58,20.66,2.89,17.4-16.29"/></g><circle class="cls-4" cx="48.82" cy="55.5" r="36.66"/><path class="cls-1" d="M28.82,75.17a.65.65,0,0,1-.53-.27c-.33-.46-8.17-11.25-8.17-18.13a8.7,8.7,0,0,1,17.4,0c0,6.88-7.84,17.67-8.17,18.13A.65.65,0,0,1,28.82,75.17Z"/><circle class="cls-1" cx="28.82" cy="57.06" r="3.81"/><path class="cls-1" d="M39.34,34.93a.65.65,0,0,1-.53-.27c-.34-.46-8.17-11.25-8.17-18.13a8.7,8.7,0,1,1,17.39,0c0,6.88-7.83,17.67-8.16,18.13A.66.66,0,0,1,39.34,34.93Z"/><circle class="cls-1" cx="39.34" cy="16.82" r="3.81"/><path class="cls-1" d="M79.16,65.43a.65.65,0,0,1-.53-.27c-.34-.45-8.17-11.24-8.17-18.12a8.7,8.7,0,1,1,17.39,0c0,6.88-7.83,17.67-8.16,18.12A.66.66,0,0,1,79.16,65.43Z"/><circle class="cls-1" cx="79.16" cy="47.32" r="3.81"/></g></svg>