<?xml version="1.0" standalone="no"?>
<!DOCTYPE svg PUBLIC "-//W3C//DTD SVG 1.1//EN" "http://www.w3.org/Graphics/SVG/1.1/DTD/svg11.dtd" >
<svg xmlns="http://www.w3.org/2000/svg">
<metadata>Generated by IcoMoon</metadata>
<defs>
<font id="higroup" horiz-adv-x="1024">
<font-face units-per-em="1024" ascent="960" descent="-64" />
<missing-glyph horiz-adv-x="1024" />
<glyph unicode="&#x20;" horiz-adv-x="512" d="" />
<glyph unicode="&#xe900;" glyph-name="higroup" d="M527.17 15.644h-3.793c-18.963 0-37.926 3.793-56.889 13.274 18.963 11.378 36.030 26.548 51.2 41.719 1.896 1.896 3.793 3.793 5.689 5.689 1.896-1.896 3.793-3.793 5.689-5.689 15.17-15.17 32.237-28.444 51.2-39.822-3.793-1.896-7.585-3.793-13.274-5.689l3.793-1.896-5.689-1.896 1.896 3.793c0 0-1.896 0-3.793-1.896h-1.896c-1.896 0-3.793-1.896-5.689-1.896v0 0h-3.793c-9.481-3.793-17.067-3.793-24.652-5.689v0 0zM267.378 110.459c-18.963 7.585-36.030 17.067-49.304 32.237-13.274 13.274-24.652 30.341-30.341 49.304 20.859-5.689 43.615-7.585 66.37-7.585 1.896 0 5.689 0 7.585 0 0-1.896 0-5.689 0-7.585-1.896-22.756 1.896-43.615 5.689-66.37v0zM779.378 110.459c5.689 20.859 7.585 43.615 7.585 64.474v0 0c0 1.896 0 5.689 0 7.585 1.896 0 5.689 0 7.585 0 22.756 0 43.615 1.896 66.37 7.585-1.896-3.793-3.793-7.585-5.689-11.378l3.793 1.896-1.896-3.793-1.896 3.793v-1.896l-3.793-3.793c-1.896-1.896-1.896-3.793-3.793-5.689v0 0c0-1.896 0-1.896-1.896-1.896v-1.896c-5.689-7.585-11.378-15.17-17.067-20.859-15.17-15.17-30.341-26.548-49.304-34.133v0zM386.844 118.044c-7.585 18.963-9.481 37.926-9.481 58.785 0 15.17 1.896 30.341 5.689 45.511 5.689 0 9.481-1.896 15.17-1.896 11.378 0 22.756 1.896 34.133 5.689 7.585-15.17 18.963-28.444 32.237-37.926-7.585-13.274-17.067-26.548-26.548-36.030-17.067-13.274-32.237-24.652-51.2-34.133v0zM659.911 118.044c-18.963 9.481-34.133 20.859-49.304 34.133-11.378 11.378-20.859 22.756-28.444 36.030 13.274 9.481 24.652 22.756 32.237 37.926 11.378-3.793 22.756-5.689 32.237-5.689 5.689 0 11.378 0 15.17 1.896 3.793-15.17 5.689-30.341 5.689-43.615v-1.896c1.896-20.859-1.896-39.822-7.585-58.785v0zM252.207 300.089c-20.859 0-39.822 3.793-58.785 9.481 7.585 18.963 20.859 34.133 34.133 49.304 11.378 11.378 22.756 20.859 37.926 28.444 9.481-13.274 22.756-24.652 36.030-32.237-3.793-11.378-5.689-22.756-5.689-34.133 0-5.689 0-11.378 1.896-15.17-15.17-3.793-30.341-5.689-45.511-5.689v0zM794.548 300.089c-15.17 0-30.341 1.896-45.511 5.689 0 5.689 1.896 9.481 1.896 15.17 0 11.378-1.896 22.756-5.689 32.237 15.17 7.585 28.444 18.963 37.926 32.237 13.274-7.585 26.548-17.067 36.030-28.444 13.274-15.17 26.548-30.341 34.133-49.304-18.963-3.793-39.822-7.585-58.785-7.585v0zM104.296 391.111c-7.585 17.067-13.274 37.926-13.274 56.889s3.793 37.926 13.274 56.889c11.378-18.963 24.652-36.030 41.719-51.2 1.896-1.896 3.793-3.793 5.689-5.689-1.896-1.896-3.793-3.793-5.689-5.689v0c-15.17-15.17-30.341-32.237-41.719-51.2v0zM940.563 391.111c-11.378 18.963-24.652 36.030-41.719 51.2-1.896 1.896-3.793 3.793-5.689 5.689 1.896 1.896 3.793 3.793 5.689 5.689 15.17 15.17 30.341 32.237 41.719 51.2 0-1.896 1.896-1.896 1.896-3.793v-3.793c0 0 0-1.896 1.896-1.896v0 0c0-1.896 1.896-3.793 1.896-3.793v-3.793c0-1.896 1.896-3.793 1.896-3.793v0 0c0-1.896 0-3.793 0-3.793v0 0c1.896-7.585 1.896-17.067 1.896-26.548v0 0c3.793-26.548 0-45.511-9.481-62.578v0zM265.481 506.785c-13.274 7.585-26.548 17.067-36.030 28.444-15.17 15.17-26.548 30.341-34.133 49.304 18.963 7.585 37.926 9.481 58.785 9.481v0c15.17 0 30.341-1.896 45.511-5.689 0-5.689-1.896-11.378-1.896-15.17 0-11.378 1.896-22.756 5.689-32.237-15.17-9.481-28.444-20.859-37.926-34.133v0zM781.274 506.785c-9.481 13.274-22.756 24.652-37.926 32.237 3.793 11.378 5.689 22.756 5.689 34.133 0 5.689 0 9.481-1.896 15.17 15.17 3.793 30.341 5.689 45.511 5.689 20.859 0 39.822-3.793 58.785-9.481-7.585-17.067-20.859-34.133-34.133-49.304-9.481-11.378-22.756-20.859-36.030-28.444v0zM430.459 667.97c-9.481 3.793-20.859 5.689-32.237 5.689-5.689 0-11.378 0-17.067-1.896-3.793 15.17-5.689 30.341-5.689 45.511 0 20.859 3.793 39.822 9.481 58.785 18.963-9.481 34.133-20.859 49.304-34.133 9.481-9.481 18.963-22.756 26.548-36.030-11.378-9.481-22.756-22.756-30.341-37.926v0zM614.4 667.97c-7.585 15.17-18.963 28.444-32.237 37.926 7.585 13.274 17.067 26.548 28.444 36.030 15.17 15.17 30.341 26.548 49.304 34.133 5.689-18.963 9.481-37.926 9.481-58.785 0-15.17-1.896-30.341-5.689-45.511-5.689 0-9.481 1.896-15.17 1.896-11.378 0-22.756-1.896-34.133-5.689v0zM187.733 704c7.585 18.963 17.067 36.030 30.341 49.304 9.481 9.481 20.859 18.963 34.133 24.652v0 0h1.896c1.896 0 1.896 1.896 3.793 1.896s1.896 1.896 3.793 1.896c1.896 0 1.896 0 1.896 1.896 1.896 0 1.896 0 3.793 1.896-5.689-20.859-7.585-43.615-7.585-66.37 0-1.896 0-5.689 0-7.585-1.896 0-3.793 0-5.689 0v0 0 0h-1.896c-22.756-1.896-43.615-3.793-64.474-7.585v0zM859.022 704c-20.859 5.689-43.615 7.585-64.474 7.585-1.896 0-5.689 0-7.585 0 0 1.896 0 5.689 0 7.585 0 22.756-1.896 43.615-7.585 66.37 1.896 0 1.896-1.896 3.793-1.896l1.896-1.896h1.896c1.896 0 1.896 0 3.793-1.896v0 0c1.896 0 3.793-1.896 3.793-1.896s1.896 0 1.896-1.896h1.896c1.896 0 1.896-1.896 3.793-1.896v0 0c1.896 0 1.896-1.896 3.793-1.896v0 0c7.585-5.689 15.17-11.378 20.859-17.067 15.17-17.067 24.652-34.133 32.237-51.2v0zM777.481 785.541c0 1.896 0 1.896-1.896 3.793v1.896l7.585-1.896-5.689-3.793zM523.378 819.674c-1.896 1.896-3.793 3.793-5.689 5.689-15.17 15.17-32.237 30.341-51.2 41.719 18.963 7.585 37.926 13.274 56.889 13.274 13.274 0 28.444-1.896 41.719-7.585v0 0 0c1.896 0 3.793-1.896 5.689-1.896v0c1.896 0 3.793-1.896 3.793-1.896h1.896c1.896 0 1.896-1.896 3.793-1.896-18.963-11.378-36.030-24.652-51.2-41.719-1.896-1.896-3.793-3.793-5.689-5.689v0zM523.378-65.896v0c-58.785 0-115.674 22.756-157.393 66.37-5.689 5.689-13.274 13.274-18.963 20.859-9.481-1.896-18.963-1.896-28.444-1.896-60.681 0-117.57 22.756-159.289 64.474-43.615 43.615-68.267 104.296-64.474 168.77 0 5.689 0 11.378 1.896 18.963-7.585 5.689-15.17 13.274-20.859 18.963-43.615 43.615-66.37 98.607-66.37 157.393 0 62.578 26.548 121.363 73.956 164.978 3.793 3.793 9.481 7.585 13.274 11.378 0 5.689-1.896 11.378-1.896 18.963-1.896 64.474 20.859 125.156 64.474 168.77 15.17 15.17 34.133 30.341 54.993 39.822l1.896 1.896h1.896l3.793 1.896c3.793 1.896 5.689 1.896 7.585 3.793v0 0l3.793 3.793c1.896 0 3.793 1.896 5.689 1.896h5.689c1.896 0 5.689 1.896 7.585 1.896 3.793 1.896 7.585 1.896 11.378 1.896h3.793l3.793 1.896h3.793c1.896 0 5.689 0 7.585 1.896 9.481 1.896 20.859 1.896 30.341 1.896s18.963 0 28.444-1.896c3.793 5.689 7.585 9.481 11.378 13.274 43.615 47.407 102.4 73.956 164.978 73.956 22.756 0 45.511-3.793 68.267-11.378h3.793l3.793-1.896c3.793-1.896 5.689-1.896 9.481-3.793l3.793-1.896 1.896-1.896c1.896 0 3.793-1.896 3.793-1.896h5.689l1.896-1.896c1.896 0 3.793-1.896 5.689-3.793 3.793-1.896 7.585-3.793 11.378-7.585v0h1.896l3.793-1.896 1.896-1.896c1.896-1.896 3.793-3.793 7.585-5.689 7.585-5.689 15.17-13.274 22.756-20.859 5.689-5.689 13.274-13.274 18.963-20.859 9.481 1.896 18.963 1.896 28.444 1.896 17.067 0 36.030-1.896 53.096-5.689h3.793l5.689-1.896h1.896l7.585-1.896h3.793c3.793-1.896 7.585-1.896 9.481-3.793 3.793-1.896 5.689-1.896 7.585-3.793s5.689-1.896 7.585-3.793h1.896l1.896-1.896c3.793-1.896 5.689-3.793 9.481-5.689s5.689-3.793 9.481-5.689v0 0c11.378-7.585 22.756-17.067 32.237-26.548 43.615-43.615 66.37-104.296 64.474-168.77 0-5.689 0-11.378-1.896-17.067 7.585-5.689 15.17-13.274 22.756-18.963 13.274-13.274 24.652-26.548 32.237-41.719v-1.896l3.793-3.793v-1.896l1.896-1.896c0-1.896 1.896-3.793 3.793-5.689v0 0 0-3.793c1.896-3.793 3.793-7.585 3.793-9.481 1.896-3.793 1.896-5.689 3.793-7.585v-1.896c0-1.896 1.896-3.793 1.896-5.689v-3.793c1.896-3.793 1.896-7.585 1.896-9.481 1.896-3.793 1.896-7.585 1.896-11.378v0 0c1.896-13.274 3.793-26.548 3.793-41.719 0-62.578-26.548-121.363-73.956-164.978-3.793-3.793-9.481-7.585-13.274-11.378 5.689-43.615-1.896-89.126-20.859-127.052v-1.896c0 0 0-1.896-1.896-1.896v-5.689c-1.896-3.793-3.793-5.689-5.689-9.481-1.896-1.896-1.896-3.793-1.896-3.793v0l-1.896-1.896c-9.481-13.274-17.067-24.652-28.444-36.030-41.719-41.719-98.607-64.474-157.393-64.474-9.481 0-18.963 0-28.444 1.896-26.548-36.030-64.474-60.681-104.296-75.852h-1.896l-3.793-1.896h-3.793c-3.793-1.896-5.689-1.896-9.481-3.793-1.896 0-3.793 0-5.689-1.896h-1.896c-3.793-13.274-18.963-13.274-34.133-13.274v0zM402.015 34.607c34.133-32.237 75.852-51.2 121.363-51.2 11.378 0 22.756 1.896 36.030 3.793h1.896c1.896 0 1.896 0 3.793 0 3.793 0 5.689 1.896 9.481 1.896h5.689c24.652 9.481 47.407 22.756 66.37 41.719-34.133 13.274-66.37 32.237-92.919 58.785-1.896 1.896-3.793 3.793-7.585 7.585l-22.756 24.652-22.756-24.652c-1.896-1.896-3.793-3.793-7.585-7.585-24.652-22.756-56.889-43.615-91.022-54.993v0zM144.119 241.304c0-47.407 17.067-89.126 49.304-121.363s75.852-49.304 121.363-49.304c-15.17 34.133-22.756 70.163-22.756 108.089 0 3.793 0 5.689 0 9.481l1.896 32.237h-34.133c-1.896 0-5.689 0-7.585 0-36.030-3.793-73.956 5.689-108.089 20.859v0zM750.933 218.548l1.896-32.237c0-3.793 0-5.689 0-9.481 0-37.926-7.585-73.956-24.652-108.089 47.407 0 91.022 17.067 121.363 49.304 7.585 7.585 15.17 17.067 22.756 26.548v0 0c0 1.896 1.896 1.896 1.896 3.793 1.896 1.896 3.793 5.689 3.793 7.585l1.896 1.896c0 1.896 1.896 1.896 1.896 3.793v1.896c11.378 22.756 17.067 49.304 17.067 75.852-34.133-15.17-70.163-22.756-108.089-22.756-3.793 0-5.689 0-9.481 0l-30.341 1.896zM358.4 260.267l-7.585-26.548c-5.689-18.963-7.585-37.926-7.585-56.889 0-36.030 9.481-70.163 26.548-100.504 34.133 9.481 64.474 28.444 89.126 53.096 13.274 13.274 24.652 28.444 34.133 45.511l13.274 24.652-22.756 15.17c-18.963 13.274-30.341 34.133-30.341 56.889 0 3.793 0 9.481 1.896 13.274-1.896-3.793-5.689-7.585-7.585-9.481-13.274-13.274-30.341-20.859-49.304-20.859-3.793 0-7.585 0-11.378 1.896l-28.444 3.793zM540.444 199.585l13.274-24.652c9.481-17.067 20.859-32.237 34.133-45.511 24.652-24.652 54.993-43.615 89.126-53.096 17.067 30.341 26.548 64.474 26.548 100.504 0 18.963-1.896 39.822-7.585 56.889l-7.585 26.548-26.548-5.689c-3.793 0-7.585-1.896-13.274-1.896-18.963 0-36.030 7.585-49.304 20.859-1.896 1.896-5.689 5.689-7.585 9.481 1.896-3.793 1.896-7.585 1.896-13.274 0-22.756-11.378-43.615-30.341-56.889l-22.756-13.274zM151.704 294.4c30.341-17.067 64.474-26.548 100.504-26.548v0c18.963 0 37.926 3.793 56.889 7.585l26.548 7.585-5.689 26.548c-3.793 22.756 3.793 45.511 18.963 60.681 3.793 1.896 5.689 5.689 9.481 7.585-3.793 0-7.585-1.896-11.378-1.896-22.756 0-43.615 11.378-56.889 30.341l-15.17 22.756-24.652-13.274c-17.067-9.481-32.237-20.859-47.407-34.133-22.756-24.652-41.719-54.993-51.2-87.23v0zM709.215 283.022l26.548-7.585c18.963-5.689 37.926-7.585 56.889-7.585 36.030 0 70.163 9.481 100.504 26.548-9.481 34.133-26.548 64.474-53.096 89.126-13.274 13.274-28.444 24.652-47.407 34.133l-24.652 13.274-15.17-22.756c-13.274-18.963-34.133-30.341-56.889-30.341-3.793 0-7.585 0-11.378 1.896 1.896-1.896 5.689-3.793 7.585-7.585 15.17-15.17 22.756-39.822 18.963-60.681l-1.896-28.444zM398.222 391.111c18.963 0 36.030-7.585 49.304-20.859 17.067-17.067 22.756-39.822 18.963-62.578 13.274 18.963 34.133 30.341 56.889 30.341s43.615-11.378 56.889-28.444c0 3.793-1.896 7.585-1.896 13.274 0 18.963 7.585 36.030 20.859 49.304s30.341 20.859 49.304 20.859c3.793 0 7.585 0 11.378 0-17.067 13.274-28.444 32.237-28.444 54.993s11.378 43.615 30.341 56.889c-3.793 0-7.585 0-11.378 0-18.963 0-36.030 7.585-49.304 20.859s-20.859 30.341-20.859 49.304c0 3.793 0 7.585 1.896 13.274-1.896-3.793-5.689-7.585-7.585-9.481-13.274-13.274-30.341-20.859-49.304-20.859-22.756 0-43.615 11.378-54.993 28.444 0-3.793 1.896-7.585 1.896-11.378 0-18.963-7.585-36.030-20.859-49.304s-30.341-20.859-49.304-20.859c-3.793 0-7.585 0-11.378 0 3.793-1.896 5.689-3.793 7.585-7.585 13.274-13.274 20.859-30.341 20.859-49.304s-7.585-36.030-20.859-49.304c-3.793-3.793-5.689-5.689-9.481-7.585 1.896 0 5.689 0 9.481 0v0zM109.985 569.363c-32.237-34.133-51.2-75.852-51.2-121.363s17.067-89.126 51.2-121.363c13.274 34.133 32.237 66.37 58.785 92.919 1.896 1.896 3.793 3.793 7.585 5.689l22.756 22.756-22.756 22.756c-1.896 1.896-3.793 3.793-7.585 5.689-26.548 26.548-45.511 58.785-58.785 92.919v0zM845.748 448l24.652-22.756c1.896-1.896 3.793-3.793 7.585-7.585 26.548-26.548 47.407-58.785 58.785-92.919 32.237 34.133 51.2 75.852 51.2 121.363 0 11.378-1.896 22.756-3.793 32.237 0 3.793-1.896 5.689-1.896 7.585s-1.896 3.793-1.896 5.689v3.793c0 1.896-1.896 3.793-1.896 5.689s-1.896 3.793-1.896 5.689v1.896c0 1.896-1.896 3.793-1.896 5.689v0 0c-1.896 3.793-3.793 7.585-5.689 11.378v0 0l-1.896 3.793c-7.585 11.378-15.17 22.756-26.548 32.237-13.274-34.133-32.237-66.37-58.785-92.919-1.896-1.896-3.793-3.793-7.585-5.689l-28.444-15.17zM151.704 601.6c9.481-34.133 26.548-64.474 53.096-89.126 13.274-13.274 28.444-24.652 45.511-34.133l24.652-13.274 15.17 22.756c13.274 18.963 34.133 30.341 56.889 30.341 3.793 0 7.585 0 11.378 0-3.793 1.896-5.689 3.793-7.585 7.585-17.067 15.17-22.756 37.926-18.963 60.681l5.689 26.548-26.548 7.585c-18.963 5.689-37.926 7.585-56.889 7.585-37.926 0-72.059-9.481-102.4-26.548v0zM697.837 516.267c22.756 0 43.615-11.378 56.889-30.341l15.17-22.756 24.652 13.274c17.067 9.481 34.133 20.859 47.407 34.133 24.652 24.652 43.615 56.889 53.096 89.126-30.341 17.067-64.474 26.548-100.504 26.548-18.963 0-37.926-1.896-56.889-7.585l-26.548-7.585 5.689-26.548c3.793-22.756-1.896-45.511-18.963-60.681-3.793-3.793-5.689-5.689-9.481-7.585 1.896 0 5.689 0 9.481 0v0zM540.444 696.415l22.756-15.17c18.963-13.274 30.341-34.133 30.341-56.889 0-3.793 0-9.481-1.896-13.274 1.896 3.793 5.689 7.585 7.585 9.481 13.274 13.274 30.341 20.859 49.304 20.859 3.793 0 9.481 0 13.274-1.896l26.548-5.689 7.585 26.548c5.689 18.963 7.585 37.926 7.585 56.889 0 36.030-9.481 70.163-26.548 100.504-34.133-9.481-64.474-26.548-89.126-51.2-13.274-13.274-24.652-30.341-34.133-45.511l-13.274-24.652zM400.119 639.526c18.963 0 36.030-7.585 49.304-20.859 1.896-1.896 5.689-5.689 7.585-7.585 0 3.793 0 7.585 0 11.378 0 22.756 11.378 43.615 30.341 56.889l22.756 15.17-13.274 24.652c-9.481 17.067-20.859 32.237-34.133 45.511-24.652 24.652-54.993 43.615-89.126 53.096-17.067-30.341-26.548-64.474-26.548-100.504 0-18.963 1.896-37.926 7.585-56.889l7.585-26.548 26.548 5.689c1.896 0 5.689 0 11.378 0v0zM278.756 821.57v0c-3.793 0-7.585-1.896-9.481-1.896s-3.793 0-3.793-1.896h-5.689c-1.896 0-1.896 0-3.793-1.896h-3.793c-1.896 0-3.793-1.896-5.689-1.896v0 0 0 0h-5.689c-17.067-7.585-30.341-18.963-43.615-30.341-32.237-32.237-49.304-75.852-49.304-121.363 34.133 15.17 70.163 22.756 108.089 22.756h1.896c1.896 0 5.689 0 7.585 0l32.237-1.896-1.896 32.237c0 3.793 0 5.689 0 9.481 0 37.926 7.585 73.956 22.756 108.089-7.585 0-15.17 0-22.756-1.896-1.896 0-3.793 0-5.689 0v0 0h-5.689l-5.689-9.481zM794.548 677.452v0c37.926 0 73.956-7.585 108.089-24.652 0 47.407-17.067 89.126-49.304 121.363-7.585 7.585-17.067 15.17-26.548 20.859-1.896 1.896-3.793 1.896-5.689 3.793s-3.793 1.896-5.689 3.793v0h-3.793c-1.896 0-3.793 1.896-5.689 1.896-1.896 1.896-3.793 1.896-5.689 1.896h-3.793c-1.896 0-3.793 1.896-5.689 1.896v0 0c-3.793 1.896-9.481 1.896-13.274 3.793v0 0h-3.793c-13.274 3.793-26.548 5.689-41.719 5.689 15.17-34.133 22.756-70.163 22.756-108.089 0-3.793 0-5.689 0-9.481l-1.896-32.237 32.237 1.896c1.896 7.585 5.689 7.585 9.481 7.585v0zM402.015 861.393c34.133-13.274 66.37-32.237 92.919-58.785 1.896-1.896 3.793-3.793 5.689-7.585l22.756-24.652 22.756 24.652c1.896 1.896 3.793 5.689 7.585 7.585 26.548 26.548 58.785 45.511 92.919 58.785-5.689 5.689-11.378 11.378-18.963 15.17-1.896 1.896-3.793 1.896-5.689 3.793v0 0l-3.793 3.793h-1.896l-3.793 1.896c-1.896 1.896-5.689 3.793-7.585 5.689-1.896 0-1.896 1.896-3.793 1.896h-1.896l-1.896 1.896h-1.896c-1.896 0-1.896 1.896-3.793 1.896h-3.793c-1.896 0-3.793 1.896-5.689 1.896v0 0h-3.793c-17.067 5.689-34.133 7.585-53.096 7.585-47.407 5.689-91.022-13.274-123.259-45.511v0z" />
<glyph unicode="&#xe901;" glyph-name="accounting" d="M97.734 873.389v-852.518h852.449v852.518h-852.449zM661.305 552.166c61.195 0 110.773-46.807 110.773-104.947 0-57.609-49.578-104.859-110.773-104.859-5.332 0-10.512 0.434-15.656 1.293 22.398-16.66 50.211-25.527 77.949-24.617 27.84 0.844 54.434 11.871 74.438 31.133-16.398-42.559-56.793-72.172-102.41-74.922-2.469-45.105-32.195-85.723-74.602-102.059 19.172 20.047 30.051 46.895 31.105 74.293 1.016 27.766-7.848 55.461-24.25 77.793 0.473-5.129 0.906-10.059 0.906-15.262 0-61.371-46.859-110.973-104.762-110.973-58.020 0-104.805 49.602-104.805 110.973 0 5.203 0.355 10.133 0.984 15.262-16.441-22.332-25.547-50.027-24.367-77.793 0.863-27.398 11.816-54.246 30.836-74.293-24.75 9.598-45.82 27.457-59.305 50.602-7.539 13.367-12.555 28.059-14.441 43.457-0.391 2.16-0.391 4.18-0.785 6.441 0 1.121 0.395 1.559-1.020 1.559-0.938 0.262-1.719 0.262-2.656 0.395-3.699 0.254-7.227 0.711-10.836 1.652-7.613 1.176-14.824 3.191-22.121 6.070-30.039 12.023-54.125 36.516-65.734 66.805 20.078-19.262 46.676-30.289 74.441-31.133 27.77-0.91 55.461 7.82 77.82 24.289-4.941-0.531-10.199-0.965-15.371-0.965-61.352 0-110.922 46.988-110.922 104.859 0 58.055 49.57 104.947 110.922 104.947 5.172 0 10.43-0.586 15.371-1.094-22.359 16.551-50.051 25.275-77.82 24.352-27.766-1.035-54.363-12.021-74.441-30.98 9.57 24.613 27.605 45.949 50.59 59.344 13.574 7.469 28.328 12.336 43.629 14.486 2.027 0.18 4.148 0.453 6.191 0.812 1.332 0 1.957-0.633 1.957 0.873 0 0.732 0.082 1.885 0.395 2.6 0.156 3.723 0.711 7.352 1.371 11.020 1.336 7.43 3.492 14.922 6.242 22.080 12 29.992 36.551 54.148 66.523 65.645-19.020-19.965-29.973-46.678-30.836-74.174-1.18-27.871 7.688-55.324 24.281-77.627-0.777 4.887-1.059 10.061-1.059 15.105 0 61.381 46.836 110.963 104.809 110.963 58.059 0 104.801-49.582 104.801-110.963 0-5.24-0.395-10.496-0.977-15.551 16.59 22.373 25.453 50.029 24.438 78.072-1.055 27.496-11.934 54.209-31.105 74.174 24.984-9.516 46.008-27.695 59.266-50.721 7.684-13.279 12.555-28.221 14.707-43.537 0.398-1.924 0.516-4.082 0.629-6.354 0-0.826-0.23-1.605 1.023-1.605 1.051 0 1.957-0.359 2.625-0.359 3.844-0.453 7.332-0.758 10.992-1.412 7.359-1.312 14.809-3.818 21.957-6.404 30.117-11.854 54.438-36.521 65.812-66.467-20.004 18.959-46.598 29.945-74.438 30.98-27.617 0.924-55.23-7.801-77.508-24.311 4.984 0.619 9.883 1.053 15.215 1.053zM612.984 471.795c-17.887-17.721-46.684-17.721-64.41 0-17.879 17.734-17.879 46.693 0 64.363 10.902 11.279 26.238 15.223 40.555 12.561 1.973 7.275 3.102 14.684 3.102 22.623 0 41.385-30.637 74.766-68.363 74.766-4.402 0-8.867-0.51-12.867-1.467-0.711 0-1.652 0-2.156-0.412-1.215-0.357-2.312-0.531-3.414-0.906-1.023-0.156-2.117-0.469-3.172-1.002-0.637-0.17-1.609-0.611-2.32-1.014-1.258-0.455-2.355-0.885-3.215-1.273-1.77-0.811-3.617-1.852-5.184-2.695-0.309-0.195-0.699-0.584-1.094-0.664-20.902-12.881-34.984-37.285-34.984-65.332 0-7.939 1.098-15.205 3.133-22.197 14.203 2.436 29.426-1.707 40.328-12.668 17.723-17.711 17.723-46.602 0-64.229-17.809-17.764-46.602-17.764-64.332 0-11.062 10.787-15.293 26.023-12.594 40.344-7.176 1.898-14.395 3.135-22.078 3.135-25.461 0-48.008-11.861-61.656-29.488-0.633-0.787-1.145-1.947-1.883-2.561-0.48-0.816-0.871-1.701-1.258-2.289-0.867-1.098-1.496-2.355-2.117-3.688-0.234-0.357-0.551-1.021-0.863-1.688-0.668-1.23-1.254-2.436-1.887-3.611-0.273-0.914-0.633-1.961-1.098-2.824-0.27-0.941-0.625-1.584-0.98-2.625-1.922-6.309-3.133-12.879-3.133-19.734 0-37.672 33.688-68.32 74.875-68.32 7.922 0 15.457 1.336 22.512 3.078-2.824 14.477 1.453 29.688 12.637 40.793 17.645 17.789 46.633 17.789 64.324 0 17.77-17.867 17.77-46.566 0-64.605-11.137-10.875-26.203-15.098-40.633-12.414-1.965-7.020-3.297-14.625-3.297-22.438 0-41.316 30.746-74.879 68.562-74.879 37.812 0 68.406 33.562 68.406 74.879 0 7.594-1.254 15.027-3.176 21.973-14.238-2.652-29.457 1.707-40.441 12.547-17.613 17.902-17.613 46.887 0 64.762 17.887 17.434 46.672 17.434 64.402 0 10.988-11.203 15.137-26.219 12.633-40.617 7.055-1.742 14.348-3.078 22.199-3.078 41.336 0 74.758 30.648 74.758 68.32 0 4.541-0.465 9.148-1.453 13.164-0.188 0.607-0.27 1.16-0.508 1.871-0.277 1.42-0.551 2.736-0.941 4.23-0.309 0.469-0.555 1.176-0.785 1.863-9.562 27.545-37.73 47.486-71.070 47.486-7.852 0-15.535-1.344-22.598-3.242 2.754-14.32-1.566-29.73-12.465-40.797z" />
<glyph unicode="&#xe902;" glyph-name="employment" d="M514.141 939.146l-426.316-246.068v-492.098l426.316-245.875 426.16 245.875v492.098l-426.16 246.068zM651.422 553.244c61.191 0 110.762-46.971 110.762-104.939 0-57.781-49.57-104.906-110.762-104.906-5.254 0-10.512 0.457-15.613 1.18 22.359-16.609 50.129-25.543 77.93-24.699 27.812 1.039 54.402 12.066 74.414 31.246-16.398-42.398-56.711-72.285-102.41-74.859-2.477-45.242-32.164-85.781-74.562-102.137 19.219 20.023 30.047 46.859 31.070 74.383 1.012 27.629-7.852 55.387-24.254 77.789 0.477-5.16 0.949-10.16 0.949-15.352 0-61.355-46.875-110.891-104.805-110.891-57.969 0-104.809 49.535-104.809 110.891 0 5.191 0.348 10.191 0.984 15.352-16.438-22.402-25.539-50.16-24.363-77.789 0.902-27.523 11.848-54.359 30.828-74.383-24.781 9.629-45.773 27.504-59.219 50.602-7.611 13.41-12.594 28.117-14.512 43.539-0.359 2.098-0.473 4.207-0.791 6.441 0 1.051 0.432 1.555-1.023 1.555-0.9 0.258-1.721 0.258-2.66 0.418-3.609 0.137-7.223 0.641-10.832 1.52-7.525 1.305-14.826 3.297-22.039 6.102-30.121 12.082-54.207 36.613-65.816 66.82 20.078-19.18 46.754-30.207 74.482-31.246 27.771-0.844 55.465 7.973 77.781 24.477-4.938-0.5-10.195-0.957-15.371-0.957-61.35 0-110.922 46.824-110.922 104.906 0 57.834 49.572 104.939 110.922 104.939 5.176 0 10.434-0.746 15.371-1.354-22.316 16.629-50.010 25.441-77.781 24.539-27.729-1.158-54.404-12.088-74.482-31.109 9.566 24.582 27.688 46.109 50.678 59.254 13.492 7.762 28.314 12.604 43.535 14.65 2.043 0.17 4.162 0.527 6.234 0.916 1.371 0 1.924-0.746 1.924 0.842 0 0.805 0.123 1.73 0.318 2.436 0.232 3.818 0.818 7.527 1.48 11.018 1.301 7.574 3.461 14.99 6.242 22.146 11.922 29.984 36.555 54.164 66.48 65.801-18.98-19.951-29.926-46.834-30.828-74.334-1.176-27.732 7.691-55.266 24.324-77.543-0.789 4.766-1.066 9.982-1.066 15.154 0 61.33 46.805 110.836 104.77 110.836 58.090 0 104.805-49.506 104.805-110.836 0-5.531-0.352-10.627-0.934-15.758 16.547 22.605 25.41 50.238 24.398 78.146-1.023 27.5-11.852 54.383-31.070 74.334 24.984-9.672 45.969-27.715 59.23-50.875 7.684-13.281 12.594-28.186 14.711-43.539 0.422-1.98 0.504-4.041 0.621-6.182 0-1.012-0.199-1.646 1.020-1.646 1.055 0 2-0.389 2.703-0.389 3.773-0.527 7.215-0.869 10.906-1.479 7.449-1.348 14.832-3.725 21.965-6.328 30.203-11.846 54.441-36.674 65.816-66.625-20.012 19.021-46.602 29.951-74.414 31.109-27.645 0.902-55.254-7.91-77.543-24.338 5.031 0.627 9.973 1.152 15.227 1.152zM603.062 472.736c-17.852-17.59-46.566-17.59-64.363 0-17.895 17.672-17.895 46.602 0 64.469 10.902 11.236 26.27 15.119 40.59 12.412 1.926 7.295 3.102 14.725 3.102 22.637 0 41.451-30.594 74.875-68.41 74.875-4.395 0-8.859-0.533-12.863-1.588-0.707 0-1.645 0-2.16-0.334-1.215-0.316-2.348-0.566-3.414-0.924-1.020-0.182-2.031-0.43-3.137-0.961-0.625-0.232-1.57-0.684-2.352-1.061-1.254-0.428-2.359-0.885-3.211-1.451-1.812-0.703-3.613-1.76-5.18-2.367-0.238-0.332-0.703-0.785-1.102-0.832-20.863-12.881-34.992-37.381-34.992-65.357 0-7.912 1.18-15.221 3.184-22.051 14.234 2.295 29.371-1.762 40.355-12.727 17.734-17.742 17.734-46.633 0-64.305-17.887-17.775-46.672-17.775-64.398 0-11.062 10.842-15.297 26.086-12.555 40.402-7.219 1.9-14.426 3.154-22.121 3.154-25.5 0-47.93-11.771-61.662-29.551-0.629-0.785-1.094-1.91-1.805-2.463-0.547-0.896-0.857-1.68-1.33-2.391-0.869-1.072-1.406-2.309-2.043-3.641-0.307-0.434-0.621-1.018-0.941-1.686-0.621-1.176-1.248-2.49-1.881-3.598-0.234-0.939-0.625-1.912-1.053-2.836-0.275-0.898-0.674-1.654-1.025-2.57-1.92-6.297-3.176-12.848-3.176-19.689 0-37.758 33.725-68.43 74.916-68.43 7.922 0 15.457 1.309 22.594 3.094-2.867 14.496 1.41 29.68 12.551 40.715 17.652 17.773 46.676 17.773 64.328 0 17.809-17.773 17.809-46.57 0-64.449-11.141-10.992-26.203-15.125-40.637-12.562-1.922-7.062-3.301-14.609-3.301-22.395 0-41.363 30.836-74.934 68.57-74.934 37.809 0 68.402 33.57 68.402 74.934 0 7.668-1.258 15.047-3.141 22.004-14.234-2.629-29.496 1.781-40.434 12.477-17.605 17.98-17.605 46.871 0 64.652 17.77 17.602 46.629 17.602 64.371 0 10.98-10.941 15.133-26.062 12.652-40.441 7.035-1.785 14.406-3.094 22.168-3.094 41.336 0 74.762 30.672 74.762 68.43 0 4.467-0.504 9.020-1.406 13.139-0.234 0.443-0.277 1.057-0.555 1.764-0.234 1.529-0.508 2.746-0.941 4.219-0.309 0.568-0.543 1.174-0.742 1.863-9.613 27.617-37.77 47.555-71.117 47.555-7.762 0-15.453-1.369-22.586-3.27 2.75-14.316-1.57-29.756-12.512-40.838z" />
<glyph unicode="&#xe903;" glyph-name="healthcare" d="M777.883 711.316v161.998h-528.297v-161.998h-162.105v-528.379h162.105v-162.004h528.297v162.004h162.117v528.379h-162.117zM651.074 552.166c61.191 0 110.777-46.945 110.777-104.947 0-57.676-49.586-104.762-110.777-104.762-5.25 0-10.508 0.453-15.598 1.086 22.422-16.551 50.199-25.418 77.969-24.578 27.762 0.844 54.406 11.941 74.363 31.203-16.383-42.5-56.723-72.172-102.379-74.922-2.496-45.188-32.195-85.723-74.602-102.059 19.148 19.988 30.047 46.832 31.070 74.352 1.027 27.707-7.887 55.336-24.242 77.734 0.477-5.129 0.941-10.195 0.941-15.262 0-61.297-46.867-110.973-104.762-110.973-58.020 0-104.848 49.676-104.848 110.973 0 5.066 0.391 10.133 1.023 15.262-16.465-22.398-25.57-50.027-24.352-77.734 0.812-27.52 11.797-54.363 30.859-74.352-24.824 9.551-45.855 27.535-59.348 50.645-7.562 13.191-12.551 28.074-14.43 43.414-0.355 2.082-0.43 4.18-0.824 6.551 0 1.035 0.469 1.449-1.027 1.449-0.891 0.289-1.715 0.289-2.574 0.395-3.703 0.172-7.301 0.84-10.902 1.57-7.547 1.258-14.836 3.348-22.059 6.309-30.047 11.816-54.125 36.289-65.77 66.648 20.035-19.262 46.715-30.359 74.434-31.203 27.781-0.84 55.477 7.891 77.785 24.434-4.93-0.488-10.188-0.941-15.375-0.941-61.348 0-110.914 46.969-110.914 104.762 0 57.936 49.566 104.947 110.914 104.947 5.188 0 10.445-0.586 15.375-1.23-22.309 16.688-50.004 25.412-77.785 24.488-27.719-1.035-54.398-12.021-74.434-31.062 9.605 24.574 27.648 45.893 50.637 59.312 13.488 7.582 28.312 12.449 43.539 14.684 2.039 0.082 4.234 0.369 6.238 0.729 1.367 0 1.918-0.646 1.918 0.873 0 0.816 0.082 1.885 0.395 2.533 0.148 3.748 0.707 7.496 1.402 10.902 1.27 7.613 3.457 15.105 6.285 22.123 11.891 30.090 36.473 54.289 66.52 65.785-19.062-20.029-30.047-46.758-30.859-74.268-1.219-27.777 7.637-55.23 24.27-77.453-0.781 4.807-1.055 9.98-1.055 14.961 0 61.445 46.875 110.945 104.773 110.945 58.082 0 104.789-49.5 104.789-110.945 0-5.314-0.395-10.432-0.941-15.607 16.516 22.439 25.43 50.15 24.402 78.1-1.023 27.51-11.922 54.238-31.070 74.268 24.992-9.572 46.066-27.641 59.242-50.678 7.688-13.322 12.586-28.264 14.746-43.58 0.387-2.105 0.465-4.082 0.613-6.27 0-0.986-0.227-1.689 1.023-1.689 1.066 0 1.961-0.359 2.672-0.359 3.77-0.369 7.289-0.701 10.91-1.467 7.445-1.258 14.824-3.764 21.969-6.391 30.16-11.693 54.438-36.48 65.805-66.508-19.957 19.041-46.602 30.027-74.363 31.062-27.688 0.924-55.273-7.801-77.582-24.311 5.012 0.619 9.961 1.053 15.211 1.053zM602.746 471.66c-17.879-17.586-46.59-17.586-64.391 0-17.852 17.826-17.852 46.717 0 64.498 10.902 11.279 26.281 15.223 40.621 12.561 1.887 7.275 3.062 14.684 3.062 22.623 0 41.385-30.594 74.766-68.391 74.766-4.41 0-8.871-0.373-12.875-1.467-0.664 0-1.656 0-2.156-0.357-1.219-0.316-2.316-0.65-3.41-0.961-1.020-0.232-2.035-0.533-3.141-1.002-0.617-0.17-1.559-0.611-2.309-1.014-1.297-0.455-2.352-0.803-3.184-1.273-1.848-0.982-3.68-1.922-5.254-2.631-0.242-0.316-0.664-0.729-1.094-0.729-20.875-12.881-34.961-37.359-34.961-65.332 0-7.939 1.145-15.205 3.148-22.234 14.234 2.473 29.371-1.67 40.352-12.631 17.738-17.711 17.738-46.67 0-64.229-17.801-17.906-46.68-17.906-64.391 0-11.066 10.787-15.305 26.023-12.562 40.418-7.219 1.824-14.438 3.061-22.109 3.061-25.43 0-48.020-11.805-61.602-29.488-0.621-0.844-1.164-1.947-1.875-2.6-0.547-0.777-0.941-1.576-1.324-2.307-0.785-1.041-1.422-2.299-2.051-3.477-0.273-0.512-0.637-1.246-0.938-1.783-0.629-1.221-1.172-2.352-1.883-3.611-0.23-0.973-0.633-2.020-1.020-2.883-0.316-0.842-0.707-1.584-1.031-2.625-1.945-6.172-3.125-12.879-3.125-19.734 0-37.57 33.648-68.383 74.848-68.383 7.91 0 15.441 1.438 22.586 3.125-2.859 14.492 1.406 29.703 12.547 40.746 17.727 17.707 46.668 17.707 64.406 0 17.73-17.684 17.73-46.574 0-64.516-11.215-10.902-26.293-15.039-40.676-12.441-1.996-7.109-3.301-14.625-3.301-22.512 0-41.32 30.797-74.859 68.57-74.859s68.371 33.539 68.371 74.859c0 7.668-1.266 15.184-3.141 22.047-14.211-2.652-29.508 1.645-40.438 12.41-17.625 18.039-17.625 47.023 0 64.742 17.852 17.59 46.629 17.59 64.363 0 11.066-10.926 15.141-26.062 12.676-40.477 7.008-1.688 14.309-3.125 22.16-3.125 41.336 0 74.746 30.812 74.746 68.383 0 4.541-0.473 9.121-1.414 13.24-0.227 0.531-0.277 1.084-0.547 1.795-0.23 1.561-0.508 2.666-0.938 4.23-0.348 0.469-0.539 1.094-0.738 1.902-9.617 27.594-37.781 47.447-71.109 47.447-7.852 0-15.465-1.344-22.598-3.168 2.738-14.395-1.578-29.805-12.484-41.006z" />
<glyph unicode="&#xe904;" glyph-name="social-google" d="M300.8 121.6c-28.8 6.4-54.4 12.8-86.4 12.8-80 0-153.6-32-198.4-73.6 32-70.4 102.4-121.6 185.6-121.6h249.6c0 3.2 0 6.4 0 9.6 0 12.8 0 22.4-3.2 35.2-19.2 54.4-76.8 86.4-147.2 137.6zM358.4 563.2c-16 118.4-92.8 214.4-185.6 217.6-89.6 3.2-150.4-89.6-134.4-204.8s99.2-198.4 192-201.6c89.6 0 140.8 73.6 128 188.8zM825.6 960h-627.2c-108.8 0-198.4-89.6-198.4-198.4v-12.8c57.6 51.2 137.6 86.4 224 86.4s329.6 0 329.6 0l-73.6-76.8h-89.6c60.8-35.2 96-108.8 96-185.6 0-70.4-41.6-131.2-99.2-176-54.4-44.8-67.2-60.8-67.2-99.2 0-32 67.2-76.8 99.2-102.4 105.6-83.2 131.2-128 131.2-230.4 0-6.4 0-16 0-22.4h275.2c108.8 0 198.4 89.6 198.4 198.4v630.4c0 99.2-89.6 188.8-198.4 188.8zM966.4 592h-153.6v-153.6h-73.6v153.6h-153.6v73.6h153.6v153.6h73.6v-153.6h153.6v-73.6zM0 134.4c48 22.4 105.6 41.6 169.6 41.6 19.2 0 41.6 0 60.8 0-28.8 28.8-48 48-48 86.4 0 22.4 6.4 44.8 16 64-9.6 0-19.2 0-32 0-67.2 0-124.8 19.2-166.4 57.6v-249.6z" />
<glyph unicode="&#xe905;" glyph-name="social-twitter" d="M1020.8 761.6c-35.2-16-76.8-28.8-118.4-32v3.2c44.8 25.6 80 67.2 96 115.2-12.8-9.6-73.6-41.6-134.4-54.4-41.6 38.4-99.2 67.2-160 67.2-131.2 0-214.4-108.8-214.4-214.4 0-9.6 3.2-41.6 6.4-44.8-179.2 6.4-339.2 89.6-441.6 224-73.6-131.2 3.2-249.6 57.6-291.2-32 0-60.8 6.4-83.2 19.2 6.4-102.4 80-185.6 179.2-204.8-38.4-12.8-83.2-3.2-105.6 3.2 28.8-83.2 105.6-147.2 201.6-153.6-144-105.6-297.6-96-300.8-96 89.6-57.6 198.4-86.4 313.6-86.4 416 3.2 630.4 371.2 608 640 38.4 22.4 73.6 60.8 96 105.6z" />
<glyph unicode="&#xe906;" glyph-name="social-linkedin" d="M825.6 960h-627.2c-108.8 0-198.4-89.6-198.4-198.4v-627.2c0-108.8 89.6-198.4 198.4-198.4h627.2c108.8 0 198.4 89.6 198.4 198.4v627.2c0 108.8-89.6 198.4-198.4 198.4zM329.6 121.6h-137.6v438.4h137.6v-438.4zM262.4 617.6c-44.8 0-80 35.2-80 80s35.2 80 80 80c44.8 0 80-35.2 80-80s-35.2-80-80-80zM838.4 121.6h-137.6v211.2c0 51.2 0 115.2-70.4 115.2s-83.2-54.4-83.2-112v-214.4h-137.6v438.4h134.4v-57.6h3.2c16 35.2 60.8 70.4 131.2 70.4 137.6 0 163.2-92.8 163.2-208v-243.2h-3.2z" />
<glyph unicode="&#xe907;" glyph-name="social-instagram" d="M133.12 960h761.173c71.68 0 129.707-58.027 129.707-133.12v-761.173c0-71.68-58.027-133.12-133.12-133.12h-757.76c-75.093 3.413-133.12 61.44-133.12 136.533v757.76c0 75.093 58.027 133.12 133.12 133.12v0zM747.52 847.36c-23.893 0-44.373-20.48-44.373-47.787v-109.227c0-23.893 20.48-47.787 44.373-47.787h116.053c23.893 0 47.787 20.48 47.787 47.787v109.227c0 23.893-20.48 47.787-47.787 47.787h-116.053zM907.947 526.507h-88.747c10.24-27.307 13.653-58.027 13.653-88.747 0-170.667-143.36-307.2-317.44-307.2s-317.44 136.533-317.44 307.2c0 30.72 3.413 61.44 13.653 88.747h-98.987v-433.493c0-23.893 17.067-40.96 40.96-40.96h713.387c23.893 0 40.96 17.067 40.96 40.96v433.493zM512 649.387c-112.64 0-204.8-88.747-204.8-197.973s92.16-197.973 204.8-197.973c112.64 0 204.8 88.747 204.8 197.973 3.413 109.227-88.747 197.973-204.8 197.973z" />
<glyph unicode="&#xe908;" glyph-name="social-facebook" d="M826.027 960h-628.053c-109.227 0-197.973-88.747-197.973-197.973v-628.053c0-109.227 88.747-197.973 197.973-197.973h344.747v382.293h-129.707v150.187h129.707v109.227c0 126.293 78.507 194.56 191.147 194.56 54.613 0 102.4-3.413 116.053-6.827v-133.12h-78.507c-61.44 0-75.093-30.72-75.093-71.68v-95.573h146.773l-20.48-150.187h-126.293v-378.88h129.707c109.227 0 197.973 88.747 197.973 197.973v628.053c0 109.227-88.747 197.973-197.973 197.973z" />
<glyph unicode="&#xe909;" glyph-name="checkbox" d="M697.886 341.986v-181.67h-477.907v477.907h400.685l70.355 88.666h-559.706v-655.24h655.24v382.012l-88.666-111.676zM518.024 243.441l-193.837 254.434c-6.225 7.379-10.008 16.994-10.008 27.493 0 23.62 19.147 42.767 42.767 42.767 14.529 0 27.365-7.245 35.094-18.319l127.429-167.111 296.96 373.459c7.896 9.302 19.597 15.166 32.668 15.166 23.62 0 42.767-19.147 42.767-42.767 0-9.617-3.175-18.493-8.533-25.637z" />
<glyph unicode="&#xe90a;" glyph-name="cloud" d="M798.961 580.277c-0.076 0-0.166 0-0.256 0-21.882 0-42.972-3.392-62.772-9.679-45.222 97.494-142.812 163.321-255.778 163.321-131.649 0-242.416-89.402-274.902-210.805l-9.488-1.989c-98.304 0-177.995-79.691-177.995-177.995s79.691-177.995 177.995-177.995h198.054v197.331h-95.051l213.233 209.86 213.233-209.86h-95.051v-197.572h168.659c0.018 0 0.039 0 0.060 0 114.705 0 207.691 92.987 207.691 207.691 0 114.684-92.952 207.657-207.628 207.691z" />
<glyph unicode="&#xe90b;" glyph-name="email" d="M947.2 795.022h-870.4l435.2-423.822zM955.733 100.978l-244.622 332.8-199.111-193.422-199.111 193.422-244.622-332.8zM1015.467 180.622v548.978l-236.089-230.4zM1015.467 100.978v0 0zM8.533 180.622l236.089 318.578-236.089 230.4z" />
<glyph unicode="&#xe90c;" glyph-name="equalize" d="M110.592 469.203h221.064v-121.916h-221.064v121.916zM401.408 668.582h221.064v-121.916h-221.064v121.916zM692.344 352.467h221.064v-121.916h-221.064v121.916zM144.444 306.929h153.359v-169.141h-153.359v169.141zM144.444 762.067h153.359v-252.506h-153.359v252.506zM435.381 762.067h153.359v-53.128h-153.359v53.128zM435.381 506.308h153.359v-368.52h-153.359v368.52zM726.197 190.193h153.359v-52.525h-153.359v52.525zM726.197 762.067h153.359v-369.122h-153.359v369.122z" />
<glyph unicode="&#xe90d;" glyph-name="exit" d="M296.581 619.967l45.254 45.254 385.567-385.567-45.254-45.254-385.567 385.567zM296.589 276.015l385.567 385.567 45.254-45.254-385.567-385.567-45.254 45.254z" />
<glyph unicode="&#xe90e;" glyph-name="gears" d="M550.069 450.409l56.26 10.12c4.69 19.25 7.38 41.351 7.38 64.080 0 13.986-1.018 27.733-2.985 41.173l-55.112 13.411-30.72 71.198 27.226 50.357c-21.722 27.286-47.75 50.052-77.248 67.591l-47.439-33.257-74.812 20.119-22.528 53.128c-0.176 0-0.385 0.001-0.594 0.001-36.53 0-71.438-6.942-103.477-19.579l-0.256-56.559-62.645-45.779-54.694 15.3c-21.078-25.824-37.904-56.106-48.821-89.080l42.797-39.341-3.373-78.185-46.381-33.491c8.438-36.222 22.67-68.129 41.842-96.416l55.619 11.604 58.549-50.959-2.65-57.224c29.2-14.523 63.245-24.287 99.213-27.279l27.763 50.529 76.619 13.975 43.008-37.707c32.76 15.817 60.68 36.344 84.217 61.080l-23.379 52.524zM298.767 410.775c-50.356 14.089-86.675 59.572-86.675 113.537 0 65.004 52.696 117.7 117.7 117.7s117.7-52.696 117.7-117.7c0-11.035-1.519-21.715-4.358-31.843-13.888-49.533-59.373-85.856-113.342-85.856-11.039 0-21.722 1.52-31.853 4.361zM927.624 247.778l39.996 8.794c2.194 11.174 3.45 24.023 3.45 37.165s-1.256 25.991-3.653 38.433l-39.793 7.768-24.094 50.236 18.071 36.744c-16.147 18.817-35.38 34.438-57.009 46.215l-32.139-25.013-54.091 12.047-17.468 36.984c-26.332-1.018-51.030-6.902-73.587-16.772l1.304-40.572-43.851-33.973-39.876 9.397c-14.222-19.030-25.377-41.319-32.183-65.433l31.701-26.968v-55.537l-32.286-25.299c6.979-25.6 17.937-47.975 32.329-67.683l39.471 9.737 42.767-34.816v-40.96c10.023-4.622 21.868-8.753 34.154-11.76 12.221-2.877 24.865-4.646 37.821-5.211l18.138 37.451 54.453 12.047 31.804-25.781c22.735 12.115 42.039 27.498 58.111 45.791l-17.633 36.972zM749.086 213.082c-37.732 8.923-65.377 42.319-65.377 82.172 0 46.574 37.756 84.329 84.329 84.329s84.329-37.756 84.329-84.329c0-6.798-0.804-13.408-2.323-19.741-8.887-37.051-42.23-64.589-82.006-64.589-6.721 0-13.258 0.786-19.525 2.272z" />
<glyph unicode="&#xe90f;" glyph-name="menu" d="M207.36 688.64h609.28v-64h-609.28v64zM207.36 478.72h609.28v-64h-609.28v64zM207.36 271.36h609.28v-64h-609.28v64z" />
<glyph unicode="&#xe910;" glyph-name="money" d="M870.4 453.421l-127.217 94.931 19.757 157.455-157.094-22.889-97.34 125.41-94.931-127.217-157.455 19.757 22.769-156.612-125.289-97.34 127.217-94.931-19.757-157.937 156.612 22.769 97.34-125.289 94.931 127.217 157.455-19.757-22.889 156.612zM530.071 306.808v-55.657h-30.359v55.657c-65.656 1.325-119.627 33.491-119.627 72.885-0.088 0.933-0.138 2.017-0.138 3.113 0 19.428 15.749 35.177 35.177 35.177 0.939 0 1.869-0.037 2.79-0.109 1.144 0.165 2.609 0.255 4.096 0.255 19.96 0 36.141-16.181 36.141-36.141 0-0.087 0-0.174-0.001-0.26 2.771-22.153 24.094-32.152 51.682-32.152 36.141 0 60.235 14.095 60.235 36.141 0 19.878-14.095 26.263-35.298 30.84l-60.235 13.131c-47.586 10.36-82.040 29.395-82.040 80.113 0 54.814 53.489 87.341 108.424 90.112v48.791h29.154v-50.116c48.188-2.771 98.786-24.094 98.786-65.656 0-0.036 0-0.079 0-0.121 0-18.164-14.725-32.888-32.888-32.888-0.085 0-0.17 0-0.254 0.001-1.223-0.168-2.651-0.264-4.102-0.264-16.712 0-30.448 12.746-32.016 29.047-4.949 22.779-14.949 30.971-50.246 30.971-24.094 0-44.454-9.517-44.454-29.395s20.841-28.070 54.332-35.539l53.007-12.047c45.297-10.842 71.56-32.648 71.56-78.788 0.12-66.741-55.176-90.232-113.724-97.099z" />
<glyph unicode="&#xe911;" glyph-name="notepad" d="M866.6 880.172h-136.992v16.676c0 5.624-4.608 10.304-10.24 10.304h-124.724v30.232c0 11.32-9.22 20.52-20.472 20.52h-121.744c-11.252 0-20.472-9.2-20.472-20.52v-30.232h-124.752c-5.66 0-10.268-4.676-10.268-10.304v-16.676h-136.928c-5.624 0-10.236-4.544-10.236-10.168v-925.932c0-5.624 4.608-10.164 10.236-10.164h706.592c5.624 0 10.236 4.54 10.236 10.164v925.932c0 5.624-4.608 10.168-10.236 10.168zM513.268 934.196c11.22 0 20.3-9.084 20.3-20.268 0-11.252-9.084-20.336-20.3-20.336-11.184 0-20.264 9.084-20.264 20.336 0 11.184 9.080 20.268 20.264 20.268zM799.968 11.724c0-5.628-4.608-10.24-10.236-10.24h-552.888c-5.628 0-10.204 4.608-10.204 10.24v790.628c0 5.628 4.576 10.304 10.204 10.304h60.088v-17.148c0-5.628 4.608-10.236 10.268-10.236h412.168c5.628 0 10.24 4.608 10.24 10.236v17.148h60.124c5.624 0 10.236-4.676 10.236-10.304v-790.628zM296.932 696.812h390.444v-24.336h-390.444v24.336zM296.932 634.044h390.444v-24.336h-390.444v24.336zM296.932 571.272h298.252v-24.268h-298.252v24.268zM296.932 445.804h390.444v-24.284h-390.444v24.284zM296.932 383.152h390.444v-24.336h-390.444v24.336zM296.932 320.448h298.252v-24.404h-298.252v24.404zM424.64 85.168h-43.384l21.86 37.824 304.8 173.532 21.492-37.896z" />
<glyph unicode="&#xe912;" glyph-name="payroll" d="M110.956 495.64h360.716v-27.78h-360.716v27.78zM110.956 426.208h235.816v-27.776h-235.816v27.776zM707.088 503.468l-16.42-35.208 38.86 0.092 295.764 188.82-22.452 35.132zM526.512 622.948h206.624v-27.764h-206.624v27.764zM899.364 534.332v-301.764h-716.18v39.2h-57.096v-67.748c0-15.76 12.768-28.532 28.532-28.532h773.288c15.776 0 28.548 12.768 28.548 28.532v362.604c0 1.336-0.216 2.592-0.384 3.9l-56.708-36.192zM774.588 454.664v-98.256h-716.208v305.54h716.212v-72.932l57.092 36.452v65.028c0 15.748-12.8 28.516-28.548 28.516h-773.304c-15.748 0-28.548-12.768-28.548-28.516v-362.636c0-15.76 12.8-28.544 28.548-28.544h773.304c15.748 0 28.548 12.78 28.548 28.544v163.24l-57.096-36.436z" />
<glyph unicode="&#xe913;" glyph-name="security" d="M554.165 808.328c-130.54 0-236.363-105.823-236.363-236.363v-53.128h-84.329v-361.412c0-36.527 29.611-66.138 66.138-66.138h424.659c36.527 0 66.138 29.611 66.138 66.138v414.539c0 130.498-105.755 236.295-236.236 236.363zM581.271 204.649c-0.267-8.666-7.325-15.598-16.016-15.661h-84.336c-8.916 0-16.143 7.227-16.143 16.143l28.792 112.279c-17.319 10.381-28.732 29.052-28.732 50.388 0 32.336 26.213 58.549 58.549 58.549s58.549-26.213 58.549-58.549c0-21.336-11.413-40.007-28.467-50.24zM713.788 518.837h-319.127v53.128c0 88.091 71.412 159.503 159.503 159.503s159.503-71.412 159.503-159.503v-53.128z" />
<glyph unicode="&#xe914;" glyph-name="support-accounting" d="M383.36 667.52c0 11.52-9.6 21.12-21.12 21.12 0 0 0 0 0 0h-304c-11.52 0-21.12-9.6-21.12-21.12 0 0 0 0 0 0v-437.12c0-11.52 9.6-21.12 21.12-21.12 0 0 0 0 0 0h304c11.52 0 21.12 9.6 21.12 21.12v0 437.12zM345.6 244.48h-270.72v408.32h270.72v-408.32zM119.040 602.24h183.040v-46.080h-183.040v46.080zM531.84 668.8h37.12v-459.52h-37.12v459.52zM620.16 302.72l-21.12 14.080 113.92 167.68 78.72-78.080 142.080 191.36 20.48-15.36-160-214.4-77.44 76.8zM119.040 502.4h44.16v-51.84h-44.16v51.84zM188.16 502.4h44.16v-51.84h-44.16v51.84zM257.92 502.4h43.52v-51.84h-43.52v51.84zM119.040 425.6h44.16v-51.84h-44.16v51.84zM188.16 425.6h44.16v-51.84h-44.16v51.84zM119.040 347.52h44.16v-51.84h-44.16v51.84zM188.16 347.52h44.16v-51.84h-44.16v51.84zM257.92 425.6h43.52v-129.28h-43.52v129.28zM531.84 244.48h459.52v-37.12h-459.52v37.12z" />
<glyph unicode="&#xe915;" glyph-name="support-general" d="M379.648 599.104h240.448v-14.976h-240.448v14.976zM379.648 560.512h240.448v-14.976h-240.448v14.976zM379.648 521.856h183.68v-14.976h-183.68v14.976zM379.648 444.608h240.448v-14.976h-240.448v14.976zM379.648 405.952h240.448v-14.976h-240.448v14.976zM379.648 367.36h183.68v-14.976h-183.68v14.976zM423.872 244.672h139.456v-14.976h-139.456v14.976zM600.384 260.48l-13.44-23.296h26.752l187.712 106.88-13.248 23.296-187.776-106.88zM689.792 251.2v-86.144h-381.568v509.44h381.568v-333.824l27.84 15.872v345.856h-437.312v-565.184h437.312v129.792l-27.84-15.808zM291.52 221.44h-41.088v509.504h381.568v-41.984l27.84-1.792v71.68h-437.248v-565.248h69.952l-1.024 27.84z" />
<glyph unicode="&#xe916;" glyph-name="support-payroll" d="M214.656 483.776h266.56v-20.544h-266.56v20.544zM214.656 432.448h174.272v-20.544h-174.272v20.544zM655.232 489.536l-12.16-25.984 28.736 0.064 218.56 139.52-16.576 25.984-218.56-139.584zM521.792 577.856h152.704v-20.544h-152.704v20.544zM797.312 512.384v-223.040h-529.28v28.992h-42.176v-50.048c0 0 0 0 0 0 0-11.629 9.427-21.056 21.056-21.056 0.022 0 0.045 0 0.067 0h571.453c0.019 0 0.041 0 0.064 0 11.629 0 21.056 9.427 21.056 21.056 0 0 0 0 0 0v267.904c0.031 0.431 0.049 0.933 0.049 1.44s-0.018 1.009-0.053 1.507zM705.088 453.504v-72.64h-529.28v225.792h529.28v-53.888l42.176 26.944v48.064c0 0 0 0 0 0 0 11.629-9.427 21.056-21.056 21.056-0.022 0-0.045 0-0.067 0h-571.389c-0.019 0-0.041 0-0.064 0-11.629 0-21.056-9.427-21.056-21.056 0 0 0 0 0 0v-268.032c0-11.664 9.456-21.12 21.12-21.12h571.456c11.664 0 21.12 9.456 21.12 21.12v120.64z" />
<glyph unicode="&#xe917;" glyph-name="check" horiz-adv-x="957" d="M361.699 164.212c-0.004 0-0.008 0-0.012 0-9.809 0-18.491 4.826-23.801 12.234l-0.060 0.088-125.786 177.641 47.747 33.885 102.682-143.499 334.488 486.714 47.491-33.115-359.388-520.856c-5.323-7.598-14.018-12.52-23.865-12.579h-0.009z" />
<glyph unicode="&#xe918;" glyph-name="irs-audit" horiz-adv-x="1151" d="M153.591 196.56h677.013v-23.269h-677.013v23.269zM166.973 612.757h51.14v-351.675h-36.565v-23.865h621.185v23.865h-36.821v351.675h51.14c6.589 0.002 11.929 5.344 11.929 11.933 0 4.63-2.637 8.645-6.492 10.623l-0.067 0.031-325.082 163.223c-1.562 0.811-3.41 1.287-5.37 1.287s-3.808-0.476-5.436-1.318l0.066 0.031-324.656-163.223c-3.922-2.009-6.559-6.024-6.559-10.654 0-6.589 5.34-11.93 11.928-11.933v0zM241.979 261.082v351.675h45.174v-351.675zM369.83 612.587v-351.505h-58.811v351.675zM393.61 261.082v351.675h45.174v-351.675zM521.461 612.587v-351.505h-58.811v351.675zM545.497 261.082v351.675h45.174v-351.675zM673.348 612.757v-351.675h-58.811v351.675zM742.046 261.082h-45.174v351.675h45.174zM491.97 774.531l275.135-137.994h-549.844zM909.36 478.684c31.325 0.097 56.681 25.513 56.681 56.851 0 31.398-25.453 56.851-56.851 56.851s-56.851-25.453-56.851-56.851v0c0.048-31.408 25.521-56.851 56.936-56.851 0.030 0 0.060 0 0.090 0h-0.005zM909.36 568.521c18.217 0 32.986-14.768 32.986-32.986s-14.768-32.986-32.986-32.986c-18.217 0-32.986 14.768-32.986 32.986v0c0.048 18.198 14.788 32.937 32.981 32.986h0.005zM938.425 468.371h-58.13c-32.32-0.048-58.507-26.236-58.556-58.551v-119.332c0-6.59 5.342-11.933 11.933-11.933v0h18.666v-170.468c0-6.59 5.342-11.933 11.933-11.933v0h89.41c6.59 0 11.933 5.342 11.933 11.933v0 170.042h19.007c6.59 0 11.933 5.342 11.933 11.933v0 119.327c0.001 0.102 0.001 0.222 0.001 0.343 0 32.207-25.964 58.35-58.103 58.639h-0.027zM973.115 301.994h-19.007c-6.59 0-11.933-5.342-11.933-11.933v0-170.468h-65.545v170.468c0 6.59-5.342 11.933-11.933 11.933v0h-19.092v107.821c0.048 19.139 15.551 34.642 34.686 34.69h58.135c19.139-0.048 34.642-15.551 34.69-34.686v-0.005z" />
<glyph unicode="&#xe919;" glyph-name="tax-planning" horiz-adv-x="1151" d="M319.883 621.281c-95.121 0-191.435 23.269-191.435 68.187s96.314 68.187 191.435 68.187 191.521-23.951 191.521-68.443v0c0-44.577-96.4-67.931-191.521-67.931zM319.883 733.193c-110.037 0-167.57-28.639-167.57-43.981s57.533-44.066 167.57-44.066 167.57 28.639 167.57 43.981-57.618 44.066-167.57 44.066zM319.883 526.586c-2.002-0.032-4.364-0.050-6.731-0.050-44.066 0-86.673 6.243-126.986 17.894l3.224-0.798c-50.373 15.683-60.942 36.395-60.942 51.14 0.709 12.846 7.609 23.94 17.744 30.421l0.155 0.093c1.887 1.309 4.226 2.091 6.748 2.091 6.59 0 11.933-5.342 11.933-11.933 0-3.628-1.619-6.878-4.174-9.067l-0.016-0.014c-5.455-4.176-8.523-8.523-8.523-11.592 0-5.37 9.29-17.047 44.236-28.212 34.842-10.102 74.864-15.912 116.243-15.912 2.493 0 4.982 0.021 7.465 0.063l-0.374-0.005c110.037 0 167.57 28.639 167.57 44.066 0 3.495-3.324 7.756-9.29 12.188-2.665 2.205-4.351 5.513-4.351 9.214 0 6.59 5.342 11.933 11.933 11.933 2.445 0 4.718-0.735 6.611-1.997l-0.044 0.027c10.998-6.618 18.407-18.227 19.089-31.613l0.004-0.094c0-44.577-96.4-67.846-191.521-67.846zM319.883 431.55c-95.121 0-191.435 23.269-191.435 68.187 0.709 12.846 7.609 23.94 17.744 30.421l0.155 0.093c2.070 1.773 4.78 2.853 7.742 2.853 6.59 0 11.933-5.342 11.933-11.933 0-4.069-2.036-7.662-5.146-9.816l-0.040-0.026c-5.455-4.176-8.523-8.523-8.523-11.592 0-15.342 57.533-43.981 167.57-43.981s167.57 28.553 167.57 43.981c0 3.495-3.324 7.756-9.29 12.188-2.665 2.205-4.351 5.513-4.351 9.214 0 6.59 5.342 11.933 11.933 11.933 2.445 0 4.718-0.735 6.611-1.997l-0.044 0.027c10.91-6.556 18.29-18.019 19.087-31.257l0.005-0.109c0-44.577-96.4-68.187-191.521-68.187zM319.883 337.025c-95.121 0-191.435 23.269-191.435 68.187 0.709 12.846 7.609 23.94 17.744 30.421l0.155 0.093c2.070 1.773 4.78 2.853 7.742 2.853 6.59 0 11.933-5.342 11.933-11.933 0-4.069-2.036-7.662-5.146-9.816l-0.040-0.026c-5.455-4.176-8.523-8.523-8.523-11.592 0-15.342 57.533-44.066 167.57-44.066s167.57 28.639 167.57 44.066c0 3.495-3.324 7.756-9.29 12.188-2.665 2.205-4.351 5.513-4.351 9.214 0 6.59 5.342 11.933 11.933 11.933 2.445 0 4.718-0.735 6.611-1.997l-0.044 0.027c10.976-6.602 18.378-18.175 19.088-31.524l0.004-0.098c0-44.577-96.4-67.931-191.521-67.931zM319.883 242.331c-2.002-0.032-4.364-0.050-6.731-0.050-44.066 0-86.673 6.243-126.986 17.894l3.224-0.798c-50.373 15.683-60.942 36.395-60.942 51.14 0.709 12.846 7.609 23.94 17.744 30.421l0.155 0.093c2.070 1.773 4.78 2.853 7.742 2.853 6.59 0 11.933-5.342 11.933-11.933 0-4.069-2.036-7.662-5.146-9.816l-0.040-0.026c-5.455-4.176-8.523-8.523-8.523-11.592 0-5.37 9.29-17.047 44.236-28.212 34.838-10.102 74.856-15.912 116.232-15.912 2.497 0 4.989 0.021 7.476 0.063l-0.374-0.005c110.037 0 167.57 28.639 167.57 44.066 0 3.495-3.324 7.756-9.29 12.188-2.665 2.205-4.351 5.513-4.351 9.214 0 6.59 5.342 11.933 11.933 11.933 2.445 0 4.718-0.735 6.611-1.997l-0.044 0.027c10.998-6.618 18.407-18.227 19.089-31.613l0.004-0.094c0-44.577-96.485-67.846-191.521-67.846zM319.883 147.551c-95.121 0-191.435 23.269-191.435 68.187 0.709 12.846 7.609 23.94 17.744 30.421l0.155 0.093c1.992 1.511 4.512 2.421 7.245 2.421 6.656 0 12.052-5.396 12.052-12.052 0-3.923-1.875-7.409-4.777-9.61l-0.030-0.022c-5.455-4.176-8.523-8.523-8.523-11.592 0-15.342 57.533-43.981 167.57-43.981s167.57 28.639 167.57 43.981c0 3.495-3.324 7.756-9.29 12.188-2.665 2.205-4.351 5.513-4.351 9.214 0 6.59 5.342 11.933 11.933 11.933 2.445 0 4.718-0.735 6.611-1.997l-0.044 0.027c10.91-6.556 18.29-18.019 19.087-31.257l0.005-0.109c0-44.577-96.485-67.846-191.521-67.846zM830.775 233.722c-95.121 0-191.435 23.269-191.435 68.187s96.314 68.187 191.435 68.187 191.435-23.269 191.435-68.187v0c-0.085-44.833-96.314-68.187-191.435-68.187zM830.775 345.634c-110.037 0-167.57-28.639-167.57-44.066s57.533-44.066 167.57-44.066 167.57 28.639 167.57 44.066-57.618 44.066-167.57 44.066zM830.775 138.942c-2.002-0.032-4.364-0.050-6.731-0.050-44.066 0-86.673 6.243-126.986 17.894l3.224-0.798c-50.373 15.683-60.942 36.395-60.942 51.14 0.709 12.846 7.609 23.94 17.744 30.421l0.155 0.093c1.99 1.516 4.511 2.429 7.245 2.429 6.637 0 12.018-5.381 12.018-12.018 0-3.903-1.861-7.372-4.744-9.567l-0.029-0.022c-5.455-4.176-8.523-8.523-8.523-11.592 0-5.37 9.29-17.047 44.236-28.212 34.838-10.102 74.856-15.912 116.232-15.912 2.497 0 4.989 0.021 7.476 0.063l-0.374-0.005c110.037 0 167.57 28.639 167.57 43.981 0 3.495-3.324 7.756-9.29 12.188-2.665 2.205-4.351 5.513-4.351 9.214 0 6.59 5.342 11.933 11.933 11.933 2.445 0 4.718-0.735 6.611-1.997l-0.044 0.027c10.842-6.592 18.158-18.048 18.917-31.262l0.005-0.104c0-44.492-96.229-67.846-191.35-67.846zM748.183 587.528c-31.35 0.001-56.765 25.415-56.765 56.766s25.415 56.766 56.766 56.766c31.231 0 56.571-25.221 56.765-56.406v-0.019c0-0.076 0.001-0.166 0.001-0.256 0-31.368-25.405-56.803-56.762-56.851h-0.005zM748.183 677.279c-18.133-0.049-32.814-14.76-32.814-32.9 0-18.17 14.73-32.9 32.9-32.9s32.9 14.73 32.9 32.9c0 0.090 0 0.18-0.001 0.269v-0.014c-0.193 18.070-14.886 32.645-32.984 32.645-0.001 0-0.001 0-0.002 0v0zM792.675 644.635v0zM913.281 467.263c-31.351 0-56.766 25.415-56.766 56.766s25.415 56.766 56.766 56.766c31.351 0 56.766-25.415 56.766-56.766v0c-0.048-31.331-25.434-56.717-56.761-56.766h-0.005zM913.281 557.014c-0.025 0-0.055 0-0.085 0-18.17 0-32.9-14.73-32.9-32.9s14.73-32.9 32.9-32.9c18.14 0 32.852 14.681 32.9 32.81v0.005c-0.048 18.121-14.701 32.804-32.806 32.9h-0.009zM958.114 524.114v0zM725.426 467.263c-0.026 0-0.056 0-0.086 0-6.59 0-11.933 5.342-11.933 11.933 0 3.296 1.336 6.279 3.496 8.438l210.016 210.016c2.181 2.181 5.195 3.531 8.523 3.531 6.657 0 12.054-5.397 12.054-12.054 0-3.329-1.349-6.342-3.531-8.523v0l-210.102-209.846c-2.146-2.159-5.118-3.495-8.402-3.495-0.013 0-0.025 0-0.038 0h0.002z" />
<glyph unicode="&#xe91a;" glyph-name="tax-preparation" horiz-adv-x="1151" d="M328.491 375.295h277.607v-23.865h-277.607v23.865zM328.491 305.659h277.607v-23.865h-277.607v23.865zM328.491 236.023h177.457v-23.865h-177.457v23.865zM811.768 739.585c-0.074 0-0.161 0-0.249 0-56.838 0-108.939-20.282-149.46-54.004l0.379 0.307h-109.27v88.047c0 6.59-5.342 11.933-11.933 11.933h-425.402c-6.59 0-11.933-5.342-11.933-11.933v0-551.889c0-6.59 5.342-11.933 11.933-11.933v0h126.828v-88.047c0-6.59 5.342-11.933 11.933-11.933v0h425.402c6.59 0 11.933 5.342 11.933 11.933v0 180.696c34.305-20.724 75.739-32.985 120.037-32.985 129.734 0 234.905 105.17 234.905 234.905s-105.17 234.905-234.905 234.905c-0.070 0-0.139 0-0.209 0h0.011zM127.851 233.978v528.45h401.452v-76.114h-339.572v-24.633h52.93v-45.856h-52.93v-23.865h52.93v-45.344h-52.93v-23.865h52.93v-45.856h-52.93v-23.865h52.93v-45.856h-52.93v-23.865h52.93v-45.515h-52.93v-23.865h52.93v-79.864zM668.234 133.998h-401.707v527.683h371.023c-19.833-21.834-35.718-47.673-46.265-76.105l-0.529-1.628h-262.265v-23.865h255.105c-3.451-13.518-5.773-29.235-6.461-45.375l-0.016-0.48h-248.627v-23.865h248.798c0.983-16.75 3.567-32.421 7.619-47.491l-0.374 1.635h-255.702v-23.865h263.458c16.11-41.43 42.173-75.993 75.335-101.887l0.523-0.393zM811.768 293.556c-116.554 0-211.039 94.485-211.039 211.039s94.485 211.039 211.039 211.039c116.524 0 210.991-94.437 211.039-210.949v-0.005c-0.097-116.532-94.514-210.979-211.025-211.124h-0.014zM767.787 418.85l-41.338 58.385-19.433-13.808 51.14-72.278c2.186-3.055 5.721-5.023 9.716-5.029h0.001c4.010 0.026 7.547 2.026 9.691 5.076l0.025 0.038 146.347 211.891-19.604 13.552z" />
<glyph unicode="&#xe91b;" glyph-name="tax-problems" horiz-adv-x="1151" d="M427.959 643.953c-6.59 0-11.933-5.342-11.933-11.933v0-139.443c0-6.59 5.342-11.933 11.933-11.933s11.933 5.342 11.933 11.933v0 139.528c-0.048 6.554-5.372 11.848-11.932 11.848 0 0 0 0 0 0v0zM427.959 452.176c-6.59 0-11.933-5.342-11.933-11.933v0-2.898c0-6.59 5.342-11.933 11.933-11.933s11.933 5.342 11.933 11.933v0 2.727c0.001 0.051 0.001 0.111 0.001 0.17 0 6.59-5.342 11.933-11.933 11.933 0 0-0.001 0-0.001 0v0zM770.429 570.652c0 6.59-5.342 11.933-11.933 11.933v0c-61.6-0.048-111.523-49.972-111.571-111.567v-0.005c0-6.59 5.342-11.933 11.933-11.933s11.933 5.342 11.933 11.933v0c0.049 48.449 39.335 87.706 87.791 87.706v0c6.554 0.048 11.848 5.372 11.848 11.932 0 0 0 0 0 0v0zM994.083 136.641l-85.745 148.563c-6.902 11.818-19.524 19.631-33.971 19.631-3.065 0-6.048-0.352-8.911-1.017l0.265 0.052-12.785 22.161c47.608 31.305 78.604 84.482 78.604 144.898 0 95.465-77.39 172.854-172.854 172.854-72.119 0-133.923-44.167-159.838-106.928l-0.42-1.148-160.154 277.095c-2.106 3.572-5.934 5.931-10.313 5.931s-8.207-2.359-10.283-5.875l-0.030-0.056-264.907-458.729c-1.005-1.712-1.599-3.77-1.599-5.966 0-6.583 5.331-11.921 11.911-11.933h487.283c29.227-23.798 66.919-38.214 107.978-38.214 26.732 0 52.037 6.11 74.595 17.011l-1.025-0.447 13.041-22.587c-6.466-7.006-10.432-16.405-10.432-26.731 0-7.226 1.942-13.999 5.334-19.825l-0.101 0.188 85.831-148.563c6.983-11.919 19.728-19.797 34.312-19.797 7.294 0 14.128 1.97 19.999 5.408l-0.187-0.101c11.903 7.008 19.765 19.757 19.765 34.343 0 7.28-1.959 14.102-5.377 19.969l0.102-0.189zM427.959 783.054l160.836-278.63c-2.093-10.068-3.291-21.638-3.291-33.487 0-42.336 15.295-81.099 40.661-111.066l-0.208 0.252h-442.193zM758.582 321.854c-0.070 0-0.152 0-0.235 0-82.52 0-149.415 66.895-149.415 149.415s66.895 149.415 149.415 149.415c82.52 0 149.415-66.895 149.415-149.415 0-51.76-26.319-97.373-66.305-124.186l-0.539-0.34-20.968-11.507c-18.014-8.431-39.113-13.36-61.361-13.382h-0.008zM975.076 112.775c-1.806-6.814-7.918-11.754-15.183-11.754-5.806 0-10.874 3.155-13.586 7.843l-0.040 0.076-85.831 148.648c-1.12 2.111-1.777 4.615-1.777 7.272 0 8.709 7.060 15.768 15.768 15.768 5.554 0 10.437-2.871 13.246-7.211l0.037-0.062 85.745-148.648c1.311-2.243 2.085-4.938 2.085-7.813 0-1.466-0.201-2.884-0.577-4.23l0.026 0.11z" />
</font>
</defs>
</svg>
