<svg xmlns="http://www.w3.org/2000/svg" viewBox="0 0 100 100"><defs><style>.cls-1{fill:none;}.cls-1,.cls-2{stroke:#636569;stroke-miterlimit:10;}.cls-2{fill:#fff;}</style></defs><g id="Layer_2" data-name="Layer 2"><polyline class="cls-1" points="28.456 53.699 49.835 32.319 49.835 69.807"/><line class="cls-1" x1="77.829" y1="61.315" x2="49.835" y2="32.319"/><circle class="cls-2" cx="50" cy="33.549" r="12.899"/><circle class="cls-1" cx="50" cy="29.621" r="2.863"/><path class="cls-1" d="M49.2,34.15H50.8a5.391,5.391,0,0,1,5.391,5.391v.8a0,0,0,0,1,0,0H43.811a0,0,0,0,1,0,0v-.8A5.391,5.391,0,0,1,49.2,34.15Z"/><circle class="cls-2" cx="22.171" cy="60.87" r="9.544"/><circle class="cls-1" cx="22.171" cy="57.964" r="2.118"/><path class="cls-1" d="M21.581,61.315h1.18A3.989,3.989,0,0,1,26.75,65.3v.59a0,0,0,0,1,0,0H17.592a0,0,0,0,1,0,0V65.3A3.989,3.989,0,0,1,21.581,61.315Z"/><circle class="cls-2" cx="50" cy="69.807" r="9.544"/><circle class="cls-1" cx="50" cy="66.901" r="2.118"/><path class="cls-1" d="M49.41,70.252h1.18a3.989,3.989,0,0,1,3.989,3.989v.59a0,0,0,0,1,0,0H45.421a0,0,0,0,1,0,0v-.59A3.989,3.989,0,0,1,49.41,70.252Z"/><circle class="cls-2" cx="77.829" cy="60.87" r="9.544"/><circle class="cls-1" cx="77.829" cy="57.964" r="2.118"/><path class="cls-1" d="M77.239,61.315h1.18A3.989,3.989,0,0,1,82.408,65.3v.59a0,0,0,0,1,0,0H73.25a0,0,0,0,1,0,0V65.3A3.989,3.989,0,0,1,77.239,61.315Z"/></g></svg>