<svg xmlns="http://www.w3.org/2000/svg" viewBox="0 0 100 100"><defs><style>.cls-1{fill:none;}.cls-1,.cls-2{stroke:#636569;stroke-miterlimit:10;}.cls-2{fill:#fff;}</style></defs><g id="Layer_2" data-name="Layer 2"><path class="cls-1" d="M41.175,62.1l-1.64-3.952a7.529,7.529,0,0,0-2.644-3.286l-2.544-1.776a4.746,4.746,0,0,1-1.67-2.075l-2.133-5.138a1.956,1.956,0,0,0-2.557-1.058l-.582.242a2.209,2.209,0,0,0-1.194,2.888l2.545,6.132a2.935,2.935,0,0,1,.2,1.491l-.118.922"/><path class="cls-1" d="M30.34,66.6l-1.294-3.117a4.545,4.545,0,0,0-.835-1.316l-5.362-5.905a6.1,6.1,0,0,1-1.557-4.64l1.694-18.866A2.04,2.04,0,0,1,25.157,30.9h0a2.039,2.039,0,0,1,1.882,2.317L26.048,40.3l.21,5.864"/><polyline class="cls-1" points="47.016 70.892 43.046 61.327 28.203 67.487 32.174 77.053"/><path class="cls-1" d="M58.825,62.1l1.64-3.952a7.529,7.529,0,0,1,2.644-3.286l2.544-1.776a4.746,4.746,0,0,0,1.67-2.075l2.133-5.138a1.956,1.956,0,0,1,2.557-1.058l.582.242a2.209,2.209,0,0,1,1.194,2.888L71.244,54.08a2.935,2.935,0,0,0-.2,1.491l.118.922"/><path class="cls-1" d="M69.66,66.6l1.294-3.117a4.545,4.545,0,0,1,.835-1.316l5.362-5.905a6.1,6.1,0,0,0,1.557-4.64L77.014,32.757A2.04,2.04,0,0,0,74.843,30.9h0a2.039,2.039,0,0,0-1.882,2.317l.991,7.079-.21,5.864"/><polyline class="cls-1" points="52.984 70.892 56.954 61.327 71.797 67.487 67.826 77.053"/><circle class="cls-1" cx="38.454" cy="26.654" r="2.866"/><path class="cls-1" d="M37.656,31.188h1.6a5.4,5.4,0,0,1,5.4,5.4v.8a0,0,0,0,1,0,0H32.259a0,0,0,0,1,0,0v-.8A5.4,5.4,0,0,1,37.656,31.188Z"/><circle class="cls-1" cx="61.546" cy="26.654" r="2.866"/><path class="cls-1" d="M60.748,31.188h1.6a5.4,5.4,0,0,1,5.4,5.4v.8a0,0,0,0,1,0,0H55.351a0,0,0,0,1,0,0v-.8A5.4,5.4,0,0,1,60.748,31.188Z"/><circle class="cls-2" cx="50" cy="27.526" r="4.579"/><path class="cls-2" d="M48.725,34.77h2.551A8.623,8.623,0,0,1,59.9,43.393v1.275a0,0,0,0,1,0,0H40.1a0,0,0,0,1,0,0V43.393A8.623,8.623,0,0,1,48.725,34.77Z"/></g></svg>