<svg xmlns="http://www.w3.org/2000/svg" viewBox="0 0 100 100"><defs><style>.cls-1{fill:none;stroke:#636569;stroke-miterlimit:10;}</style></defs><g id="Layer_2" data-name="Layer 2"><path class="cls-1" d="M61.619,39.3c-9.579-2.93-11.092-2.78-14.763-2.411-2.01.2-10.271.28-10.421.337,0,0-5.412,19.633-5.171,19.02,3.172,2.662,12.746,10.681,14.5,11.97A5.028,5.028,0,0,0,49.4,68.9a18.08,18.08,0,0,0,3.189-.751l.688.669v0a.956.956,0,0,0,.286.193c.652.349,4.541,2.23,5.553-1.919a4.569,4.569,0,0,0,1.134.146,3.642,3.642,0,0,0,1.724-.407,2.763,2.763,0,0,0,1.3-1.466,3.611,3.611,0,0,0,.214-1.469,5.238,5.238,0,0,0,1.77.127,3.538,3.538,0,0,0,2.079-.94,3.4,3.4,0,0,0,.982-1.8,3.567,3.567,0,0,0-.216-2.089c-.033-.076-.076-.161-.125-.25.342-.245.7-.5,1.1-.773.153-.1.307-.2.46-.306"/><path class="cls-1" d="M43.977,37.13A97.565,97.565,0,0,0,37.9,48.874c-1.148,2.869,3.585,4.4,8.565-2.082,1.965-2.557,6.805.737,9.352,2.714l12.157,9.438"/><line class="cls-1" x1="61.619" y1="39.3" x2="69.535" y2="57.865"/><line class="cls-1" x1="63.481" y1="63.9" x2="54.928" y2="57.865"/><line class="cls-1" x1="59.114" y1="67.096" x2="48.148" y2="59.634"/><line class="cls-1" x1="52.588" y1="68.15" x2="42.395" y2="60.882"/><rect class="cls-1" x="20.52" y="31.79" width="13.633" height="25.3" transform="translate(13.094 -5.753) rotate(15.755)"/><rect class="cls-1" x="64.557" y="31.925" width="13.633" height="25.3" transform="translate(154.588 57.088) rotate(156.566)"/></g></svg>