<svg xmlns="http://www.w3.org/2000/svg" viewBox="0 0 100 100"><defs><style>.cls-1{fill:none;stroke:#636569;stroke-miterlimit:10;}.cls-2{fill:#636569;}</style></defs><g id="Layer_2" data-name="Layer 2"><path class="cls-1" d="M40.371,64.989l-1.789-4.312A8.223,8.223,0,0,0,35.7,57.091l-2.776-1.937A5.179,5.179,0,0,1,31.1,52.89l-2.327-5.607a2.134,2.134,0,0,0-2.79-1.153l-.635.264a2.411,2.411,0,0,0-1.3,3.151l2.777,6.69a3.189,3.189,0,0,1,.218,1.627l-.128,1.006"/><path class="cls-1" d="M28.549,69.9l-1.411-3.4a4.979,4.979,0,0,0-.911-1.436l-5.85-6.442a6.648,6.648,0,0,1-1.7-5.062l1.848-20.584A2.227,2.227,0,0,1,22.9,30.948h0a2.226,2.226,0,0,1,2.053,2.529L23.867,41.2l.229,6.4"/><polyline class="cls-1" points="46.744 74.579 42.412 64.142 26.218 70.863 30.55 81.3"/><path class="cls-1" d="M59.629,64.989l1.789-4.312A8.223,8.223,0,0,1,64.3,57.091l2.776-1.937A5.179,5.179,0,0,0,68.9,52.89l2.327-5.607a2.134,2.134,0,0,1,2.79-1.153l.635.264a2.411,2.411,0,0,1,1.3,3.151l-2.777,6.69a3.189,3.189,0,0,0-.218,1.627l.128,1.006"/><path class="cls-1" d="M71.451,69.9l1.411-3.4a4.979,4.979,0,0,1,.911-1.436l5.85-6.442a6.648,6.648,0,0,0,1.7-5.062L79.474,32.971a2.227,2.227,0,0,0-2.369-2.023h0a2.226,2.226,0,0,0-2.053,2.529L76.133,41.2,75.9,47.6"/><polyline class="cls-1" points="53.256 74.579 57.588 64.142 73.782 70.863 69.45 81.3"/><circle class="cls-1" cx="49.727" cy="32.333" r="13.633"/><path class="cls-2" d="M50.108,23.968v2.268a2.688,2.688,0,0,0,.353.055q.185.019.372.057c.137.024.272.055.408.092s.273.075.41.111a4.831,4.831,0,0,1,.92.392,6.381,6.381,0,0,1,.845.557,2.175,2.175,0,0,1,.614.706,1.847,1.847,0,0,1,.2.874,1.158,1.158,0,0,1-.084.446,1.108,1.108,0,0,1-.251.371,1,1,0,0,1-.362.243,1.233,1.233,0,0,1-.437.074,1.108,1.108,0,0,1-.41-.074.964.964,0,0,1-.333-.224.941.941,0,0,1-.224-.343,1.174,1.174,0,0,1-.074-.418v-.633a1.3,1.3,0,0,0-.13-.6.974.974,0,0,0-.391-.4,3.278,3.278,0,0,0-.52-.26,2.946,2.946,0,0,0-.595-.168h-.047a.063.063,0,0,1-.046-.018h-.075a.306.306,0,0,1-.073-.01.3.3,0,0,1-.075-.028v4.239a.551.551,0,0,0,.111.056.363.363,0,0,0,.112.017.211.211,0,0,1,.065.01.182.182,0,0,0,.065.009.072.072,0,0,0,.055.019h.057c.062.013.124.026.186.037s.13.025.2.038a1.91,1.91,0,0,0,.2.027c.068.007.134.016.2.028a10.274,10.274,0,0,1,1.282.335,7.574,7.574,0,0,1,1.171.5,1.914,1.914,0,0,1,.837.865,3.157,3.157,0,0,1,.278,1.4,3.116,3.116,0,0,1-.278,1.338,2.775,2.775,0,0,1-.837,1.023,6.845,6.845,0,0,1-1.171.725,6.623,6.623,0,0,1-1.282.464,2.41,2.41,0,0,1-.326.084c-.1.019-.207.04-.307.064s-.216.029-.316.047a1.572,1.572,0,0,1-.3.028v2.3h-.744V38.356a1.834,1.834,0,0,1-.409-.009c-.149-.019-.309-.04-.482-.065l-.252-.037c-.081-.012-.158-.025-.232-.038s-.171-.046-.251-.064-.165-.041-.252-.066a6.951,6.951,0,0,1-1.058-.371,7.281,7.281,0,0,1-.968-.521,2,2,0,0,1-.928-1.767,1.754,1.754,0,0,1,.083-.566,1.248,1.248,0,0,1,.706-.735,1.645,1.645,0,0,1,.567-.092,1.113,1.113,0,0,1,.437.083,1.15,1.15,0,0,1,.363.252,1.335,1.335,0,0,1,.232.362,1.094,1.094,0,0,1,.084.436v.149a.164.164,0,0,0-.019.075v.074a1.146,1.146,0,0,0-.028.149,1.059,1.059,0,0,0-.009.148.053.053,0,0,1-.019.038c-.013.013-.019.021-.019.028v.121a.123.123,0,0,1-.009.045.165.165,0,0,0-.009.047.155.155,0,0,0-.018.056v.242a.819.819,0,0,0,.1.418,1.014,1.014,0,0,0,.325.325,2.935,2.935,0,0,0,.447.232,2.606,2.606,0,0,0,.5.158c.1.026.2.047.307.066s.2.034.288.047.188.021.269.027.158.009.232.009V33a2.709,2.709,0,0,1-.306-.018c-.105-.012-.208-.025-.306-.038s-.2-.046-.307-.064-.208-.04-.307-.066a6.158,6.158,0,0,1-1.2-.334,8.049,8.049,0,0,1-1.087-.521,1.989,1.989,0,0,1-.781-.855,2.962,2.962,0,0,1-.26-1.3,3.056,3.056,0,0,1,.278-1.329,2.786,2.786,0,0,1,.837-1.013,6.073,6.073,0,0,1,1.171-.707,5.085,5.085,0,0,1,1.282-.39,1.405,1.405,0,0,1,.252-.047c.08,0,.164-.015.251-.028h.111a.559.559,0,0,0,.13-.018h.241v-2.3ZM49.345,27a.431.431,0,0,1-.157.046,1.43,1.43,0,0,1-.177.01,1.082,1.082,0,0,1-.158.028,1.663,1.663,0,0,1-.177.009,3.652,3.652,0,0,0-.743.223,3.508,3.508,0,0,0-.669.372,1.406,1.406,0,0,0-.474.558,1.792,1.792,0,0,0-.158.78,2,2,0,0,0,.167.856,1.369,1.369,0,0,0,.52.576,4.089,4.089,0,0,0,.725.381,5.256,5.256,0,0,0,.8.25.211.211,0,0,1,.065.01.182.182,0,0,0,.065.009.072.072,0,0,0,.056.019h.055a.63.63,0,0,0,.121.028,1.015,1.015,0,0,0,.139.009V27Zm.763,10.6a.313.313,0,0,0,.148.038h.149a1.266,1.266,0,0,0,.158-.009,1.056,1.056,0,0,0,.158-.029,3.79,3.79,0,0,0,.865-.25,3.724,3.724,0,0,0,.79-.456,1.886,1.886,0,0,0,.567-.669,2.011,2.011,0,0,0,.2-.911,1.816,1.816,0,0,0-.167-.817,1.2,1.2,0,0,0-.5-.521,5.257,5.257,0,0,0-.688-.353,4.749,4.749,0,0,0-.743-.242l-.224-.037c-.074-.013-.142-.024-.2-.037a.95.95,0,0,0-.111-.028.338.338,0,0,1-.094-.028.464.464,0,0,1-.1-.01.869.869,0,0,1-.1-.027h-.056a.017.017,0,0,1-.019-.018h-.018v4.4Z"/></g></svg>