<svg xmlns="http://www.w3.org/2000/svg" viewBox="0 0 100 100"><defs><style>.cls-1{fill:none;}.cls-1,.cls-2{stroke:#636569;stroke-miterlimit:10;}.cls-2{fill:#fff;}.cls-3{fill:#636569;}</style></defs><g id="Layer_2" data-name="Layer 2"><polyline class="cls-1" points="19.937 52.652 33.615 52.652 33.615 73.876 19.937 73.876"/><path class="cls-2" d="M33.615,55.327h5.651a9.946,9.946,0,0,1,5.348,1.561l3.453,2.2a6.275,6.275,0,0,0,3.377.986h7.347a2.585,2.585,0,0,1,2.585,2.585V63.5a2.918,2.918,0,0,1-2.919,2.918H49.689a3.874,3.874,0,0,0-1.92.511l-1.065.611"/><path class="cls-1" d="M33.615,70.82h4.457a6.043,6.043,0,0,1,2.028.352l9.917,3.551a8.042,8.042,0,0,0,6.447-.45L78.619,62.656a2.7,2.7,0,0,0,1.162-3.587h0A2.694,2.694,0,0,0,76,57.947l-8.132,4.792L60.61,65.452"/><path class="cls-3" d="M61.375,31.278v1.95a2.484,2.484,0,0,0,.3.047c.1.011.212.027.319.048s.234.048.351.08l.352.1a4.1,4.1,0,0,1,.791.336,5.58,5.58,0,0,1,.726.479,1.869,1.869,0,0,1,.528.607,1.585,1.585,0,0,1,.176.751,1,1,0,0,1-.072.384.97.97,0,0,1-.216.319.868.868,0,0,1-.311.208,1.061,1.061,0,0,1-.375.063.959.959,0,0,1-.353-.063.857.857,0,0,1-.287-.192.823.823,0,0,1-.192-.3,1.017,1.017,0,0,1-.063-.36v-.543a1.128,1.128,0,0,0-.112-.52.84.84,0,0,0-.336-.343,2.824,2.824,0,0,0-.447-.223,2.444,2.444,0,0,0-.512-.144h-.04a.051.051,0,0,1-.039-.016H61.5a.272.272,0,0,1-.063-.008.265.265,0,0,1-.064-.025v3.643a.41.41,0,0,0,.095.049.327.327,0,0,0,.1.015.182.182,0,0,1,.055.008.16.16,0,0,0,.057.008.061.061,0,0,0,.047.016h.048l.16.032.175.033c.054.01.11.018.169.023s.114.014.168.024a8.71,8.71,0,0,1,1.1.288,6.483,6.483,0,0,1,1.007.432,1.639,1.639,0,0,1,.718.743,2.711,2.711,0,0,1,.24,1.206,2.677,2.677,0,0,1-.24,1.15,2.385,2.385,0,0,1-.718.879,5.85,5.85,0,0,1-1.007.623,5.7,5.7,0,0,1-1.1.4,2.027,2.027,0,0,1-.28.072c-.091.016-.178.034-.264.056s-.186.024-.272.04a1.376,1.376,0,0,1-.255.024v1.981h-.64V43.645a1.552,1.552,0,0,1-.351-.008c-.128-.016-.266-.035-.415-.056l-.216-.032c-.07-.01-.136-.021-.2-.032s-.147-.039-.216-.055-.142-.036-.216-.057a5.957,5.957,0,0,1-.91-.319,6.234,6.234,0,0,1-.832-.448,1.719,1.719,0,0,1-.8-1.518,1.539,1.539,0,0,1,.071-.487A1.072,1.072,0,0,1,57.26,40a1.4,1.4,0,0,1,.488-.08.939.939,0,0,1,.375.072.969.969,0,0,1,.312.216,1.126,1.126,0,0,1,.2.311.931.931,0,0,1,.073.376v.127a.145.145,0,0,0-.016.065v.063a1.023,1.023,0,0,0-.024.128.926.926,0,0,0-.008.128.045.045,0,0,1-.016.032c-.012.011-.017.018-.017.024v.1a.108.108,0,0,1-.008.039.146.146,0,0,0-.008.041.13.13,0,0,0-.015.048V41.9a.7.7,0,0,0,.088.36.864.864,0,0,0,.28.279,2.51,2.51,0,0,0,.383.2,2.348,2.348,0,0,0,.431.136c.086.022.173.04.264.056s.173.029.247.04.162.018.232.023.136.009.2.009V39.043a2.153,2.153,0,0,1-.262-.016c-.091-.01-.18-.021-.264-.032s-.173-.039-.264-.055-.178-.035-.264-.057a5.3,5.3,0,0,1-1.031-.287,6.855,6.855,0,0,1-.934-.448,1.71,1.71,0,0,1-.671-.734,2.561,2.561,0,0,1-.224-1.119,2.622,2.622,0,0,1,.24-1.142,2.388,2.388,0,0,1,.719-.871,5.2,5.2,0,0,1,1.006-.607,4.357,4.357,0,0,1,1.1-.335,1.092,1.092,0,0,1,.216-.041q.1-.008.216-.024H60.4a.449.449,0,0,0,.112-.016h.207V31.278Zm-.656,2.6a.37.37,0,0,1-.135.04,1.218,1.218,0,0,1-.152.009.915.915,0,0,1-.136.024,1.455,1.455,0,0,1-.152.008,3.168,3.168,0,0,0-.639.191,3.118,3.118,0,0,0-.575.32,1.209,1.209,0,0,0-.407.479,1.549,1.549,0,0,0-.136.671,1.71,1.71,0,0,0,.144.736,1.167,1.167,0,0,0,.447.495,3.473,3.473,0,0,0,.623.327,4.408,4.408,0,0,0,.687.215.191.191,0,0,1,.057.008.132.132,0,0,0,.055.009.062.062,0,0,0,.048.016H60.5a.535.535,0,0,0,.1.024.918.918,0,0,0,.12.008v-3.58Zm.656,9.107a.262.262,0,0,0,.127.033h.128a1.086,1.086,0,0,0,.136-.008.89.89,0,0,0,.136-.025,3.224,3.224,0,0,0,.743-.215,3.184,3.184,0,0,0,.679-.392,1.62,1.62,0,0,0,.488-.574,1.744,1.744,0,0,0,.167-.784,1.555,1.555,0,0,0-.143-.7,1.038,1.038,0,0,0-.432-.448,4.4,4.4,0,0,0-.591-.3,4.192,4.192,0,0,0-.639-.209l-.192-.031c-.064-.011-.122-.021-.176-.032a.881.881,0,0,0-.095-.024.268.268,0,0,1-.081-.024.39.39,0,0,1-.087-.008.585.585,0,0,1-.088-.024h-.048a.014.014,0,0,1-.016-.016h-.016v3.786Z"/><path class="cls-1" d="M77.869,34.216a9.4,9.4,0,0,0-16.822-5.783,9.4,9.4,0,0,0-16.821,5.783c0,3.133,1.73,5.571,3.892,7.611L61.047,54.768l12.987-12.9C76.07,39.628,77.869,37.349,77.869,34.216Z"/></g></svg>