<svg xmlns="http://www.w3.org/2000/svg" viewBox="0 0 100 100"><defs><style>.cls-1{fill:none;}.cls-1,.cls-2{stroke:#636569;stroke-miterlimit:10;}.cls-2{fill:#fff;}</style></defs><g id="Layer_2" data-name="Layer 2"><path class="cls-1" d="M15.084,36.214h70.19a2.553,2.553,0,0,1,2.553,2.553V85.4a0,0,0,0,1,0,0h-75.3a0,0,0,0,1,0,0V38.767A2.553,2.553,0,0,1,15.084,36.214Z"/><rect class="cls-2" x="9.225" y="79.332" width="27.429" height="6.069" rx="1.096"/><rect class="cls-2" x="63.346" y="79.332" width="27.429" height="6.069" rx="1.096"/><path class="cls-1" d="M49.91,63.632h0a4.916,4.916,0,0,1,4.916,4.916V85.4a0,0,0,0,1,0,0H44.994a0,0,0,0,1,0,0V68.548a4.916,4.916,0,0,1,4.916-4.916Z"/><rect class="cls-1" x="70.396" y="61.383" width="7.137" height="10.754"/><line class="cls-1" x1="67.309" y1="72.137" x2="80.62" y2="72.137"/><rect class="cls-1" x="22.467" y="61.383" width="7.137" height="10.754"/><line class="cls-1" x1="19.38" y1="72.137" x2="32.691" y2="72.137"/><rect class="cls-1" x="22.467" y="43.434" width="7.137" height="10.754"/><line class="cls-1" x1="19.38" y1="54.188" x2="32.691" y2="54.188"/><rect class="cls-1" x="46.342" y="43.434" width="7.137" height="10.754"/><line class="cls-1" x1="43.255" y1="54.188" x2="56.566" y2="54.188"/><rect class="cls-1" x="70.396" y="43.434" width="7.137" height="10.754"/><line class="cls-1" x1="67.309" y1="54.188" x2="80.62" y2="54.188"/><path class="cls-1" d="M60.529,36.214V30.393a1.1,1.1,0,0,0-.428-.87L50.6,22.21a1.66,1.66,0,0,0-2.069.034l-8.839,7.28a1.1,1.1,0,0,0-.4.846v5.844"/><path class="cls-1" d="M15.417,36.214V31.6a1.742,1.742,0,0,1,1.743-1.742H34.911A1.742,1.742,0,0,1,36.654,31.6v4.619"/><path class="cls-1" d="M63.346,36.214V31.6a1.742,1.742,0,0,1,1.743-1.742H82.84A1.742,1.742,0,0,1,84.583,31.6v4.619"/><line class="cls-1" x1="49.551" y1="21.403" x2="49.551" y2="16.339"/><polygon class="cls-1" points="49.551 14.599 53.524 16.716 49.551 18.834 49.551 14.599"/></g></svg>