<svg xmlns="http://www.w3.org/2000/svg" viewBox="0 0 100 100"><defs><style>.cls-1{fill:none;}.cls-1,.cls-2{stroke:#636569;stroke-miterlimit:10;}.cls-2{fill:#fff;}</style></defs><g id="Layer_2" data-name="Layer 2"><polygon class="cls-1" points="52.67 42.593 69.561 55.428 50 63.639 30.439 71.849 33.109 50.804 35.779 29.759 52.67 42.593"/><circle class="cls-2" cx="35.816" cy="29.011" r="11.206"/><circle class="cls-1" cx="35.816" cy="25.599" r="2.487"/><path class="cls-1" d="M35.123,29.533h1.385a4.684,4.684,0,0,1,4.684,4.684v.693a0,0,0,0,1,0,0H30.439a0,0,0,0,1,0,0v-.693A4.684,4.684,0,0,1,35.123,29.533Z"/><circle class="cls-2" cx="69.561" cy="54.878" r="11.206"/><circle class="cls-1" cx="69.561" cy="51.466" r="2.487"/><path class="cls-1" d="M68.868,55.4h1.385a4.684,4.684,0,0,1,4.684,4.684v.693a0,0,0,0,1,0,0H64.184a0,0,0,0,1,0,0v-.693A4.684,4.684,0,0,1,68.868,55.4Z"/><circle class="cls-2" cx="30.439" cy="70.989" r="11.206"/><circle class="cls-1" cx="30.439" cy="67.577" r="2.487"/><path class="cls-1" d="M29.747,71.512h1.385A4.684,4.684,0,0,1,35.816,76.2v.693a0,0,0,0,1,0,0H25.063a0,0,0,0,1,0,0V76.2A4.684,4.684,0,0,1,29.747,71.512Z"/></g></svg>