<?xml version="1.0" standalone="no"?>
<!DOCTYPE svg PUBLIC "-//W3C//DTD SVG 1.1//EN" "http://www.w3.org/Graphics/SVG/1.1/DTD/svg11.dtd" >
<svg xmlns="http://www.w3.org/2000/svg">
<metadata>Generated by IcoMoon</metadata>
<defs>
<font id="icomoon" horiz-adv-x="1024">
<font-face units-per-em="1024" ascent="960" descent="-64" />
<missing-glyph horiz-adv-x="1024" />
<glyph unicode="&#x20;" horiz-adv-x="512" d="" />
<glyph unicode="&#xe600;" glyph-name="compliance" d="M268.8 186.4v693.2h298.4v-204.4h204.4v-488.8h-502.8zM616.8 838l110.4-113.2h-110.4v113.2zM607.2 947.2h-406v-827.2h638v585.6l-232 241.6zM646 410c-56.8 0-102-46.8-102-103.6 0-36 18-67.6 46.8-85.6v-262.4l48.4 64.8 59.2-74.4v270.8c30.4 18 51.2 51.2 51.2 88.4 0 56.4-45.6 102-103.6 102z" />
<glyph unicode="&#xe601;" glyph-name="talent" d="M325.2 680.8h-7.6c-22-15.6-48.4-24.8-76.8-24.8-28 0-54.8 9.2-75.2 24.8-59.2-4.8-112.4-68-112.4-116v-228.8h48.8v233.2c20.8 24.8 47.2 9.2 47.2-12.4v-220.8h183.2v233.2c20.8 24.8 47.6 9.6 47.6-12v-221.2h48.8v228.8c0 49.6-43.2 116-103.6 116zM291.2 874c-85.6 52.4-174.4-40.4-124-130 6-9.2 13.2-18.4 23.6-24.8 85.6-51.2 174.4 40.4 124 130-6 10.8-13.2 18.8-23.6 24.8zM149.2 280.4h183.2v-284.4h-183.2v284.4zM725.6 532.4l-91.6 106.4 47.2 43.2 50.4-55.6 128.4 128.4 41.2-49.6-175.6-172.8zM996 725.6l-66.4 46.4-20.8 80.4-79.6-4.8-62 52.4-62.4-52.4-79.6 4.8-20.8-80.4-66.4-46.4 28-78.8-28-78.8 66.4-46.4 20.8-80.4 79.6 4.8 62-52.4 62 52.4 79.6-4.8 20.8 80.4 66.8 46.4-28 78.8 28 78.8z" />
<glyph unicode="&#xe602;" glyph-name="wellness" d="M342.4 703.2h-8c-24.4-16-53.2-26-84-26s-59.6 9.6-82.4 26c-64.8-4.8-122.8-71.2-122.8-121.2v-238.8h53.2v243.6c22.8 26 51.6 9.6 51.6-12.8v-230.8h200v243.6c22.8 26 51.6 9.6 51.6-12.8v-230.8h53.2v238.8c0.4 52-46.4 121.2-112.4 121.2zM305.2 905.2c-93.6 54.8-190.4-42-135.6-135.6 6.4-9.6 14.4-19.2 26-26 93.2-53.2 190.4 42 135.2 135.6-6.4 11.2-14.4 19.2-25.6 26zM150 285.2h200v-297.2h-200v297.2zM955.6 882.4c-77.2 69.6-151.6 22.8-188.8-14.4-37.2 37.2-111.6 84-188.8 14.4-62.8-56.4-30.8-138.8-1.6-174.4 26-32.4 190.4-184 190.4-184s163.2 151.6 190.4 184c29.2 35.6 61.6 118-1.6 174.4z" />
<glyph unicode="&#xe603;" glyph-name="accounting" d="M97.734 873.389v-852.518h852.449v852.518h-852.449zM661.305 552.166c61.195 0 110.773-46.807 110.773-104.947 0-57.609-49.578-104.859-110.773-104.859-5.332 0-10.512 0.434-15.656 1.293 22.398-16.66 50.211-25.527 77.949-24.617 27.84 0.844 54.434 11.871 74.438 31.133-16.398-42.559-56.793-72.172-102.41-74.922-2.469-45.105-32.195-85.723-74.602-102.059 19.172 20.047 30.051 46.895 31.105 74.293 1.016 27.766-7.848 55.461-24.25 77.793 0.473-5.129 0.906-10.059 0.906-15.262 0-61.371-46.859-110.973-104.762-110.973-58.020 0-104.805 49.602-104.805 110.973 0 5.203 0.355 10.133 0.984 15.262-16.441-22.332-25.547-50.027-24.367-77.793 0.863-27.398 11.816-54.246 30.836-74.293-24.75 9.598-45.82 27.457-59.305 50.602-7.539 13.367-12.555 28.059-14.441 43.457-0.391 2.16-0.391 4.18-0.785 6.441 0 1.121 0.395 1.559-1.020 1.559-0.938 0.262-1.719 0.262-2.656 0.395-3.699 0.254-7.227 0.711-10.836 1.652-7.613 1.176-14.824 3.191-22.121 6.070-30.039 12.023-54.125 36.516-65.734 66.805 20.078-19.262 46.676-30.289 74.441-31.133 27.77-0.91 55.461 7.82 77.82 24.289-4.941-0.531-10.199-0.965-15.371-0.965-61.352 0-110.922 46.988-110.922 104.859 0 58.055 49.57 104.947 110.922 104.947 5.172 0 10.43-0.586 15.371-1.094-22.359 16.551-50.051 25.275-77.82 24.352-27.766-1.035-54.363-12.021-74.441-30.98 9.57 24.613 27.605 45.949 50.59 59.344 13.574 7.469 28.328 12.336 43.629 14.486 2.027 0.18 4.148 0.453 6.191 0.812 1.332 0 1.957-0.633 1.957 0.873 0 0.732 0.082 1.885 0.395 2.6 0.156 3.723 0.711 7.352 1.371 11.020 1.336 7.43 3.492 14.922 6.242 22.080 12 29.992 36.551 54.148 66.523 65.645-19.020-19.965-29.973-46.678-30.836-74.174-1.18-27.871 7.688-55.324 24.281-77.627-0.777 4.887-1.059 10.061-1.059 15.105 0 61.381 46.836 110.963 104.809 110.963 58.059 0 104.801-49.582 104.801-110.963 0-5.24-0.395-10.496-0.977-15.551 16.59 22.373 25.453 50.029 24.438 78.072-1.055 27.496-11.934 54.209-31.105 74.174 24.984-9.516 46.008-27.695 59.266-50.721 7.684-13.279 12.555-28.221 14.707-43.537 0.398-1.924 0.516-4.082 0.629-6.354 0-0.826-0.23-1.605 1.023-1.605 1.051 0 1.957-0.359 2.625-0.359 3.844-0.453 7.332-0.758 10.992-1.412 7.359-1.312 14.809-3.818 21.957-6.404 30.117-11.854 54.438-36.521 65.812-66.467-20.004 18.959-46.598 29.945-74.438 30.98-27.617 0.924-55.23-7.801-77.508-24.311 4.984 0.619 9.883 1.053 15.215 1.053zM612.984 471.795c-17.887-17.721-46.684-17.721-64.41 0-17.879 17.734-17.879 46.693 0 64.363 10.902 11.279 26.238 15.223 40.555 12.561 1.973 7.275 3.102 14.684 3.102 22.623 0 41.385-30.637 74.766-68.363 74.766-4.402 0-8.867-0.51-12.867-1.467-0.711 0-1.652 0-2.156-0.412-1.215-0.357-2.312-0.531-3.414-0.906-1.023-0.156-2.117-0.469-3.172-1.002-0.637-0.17-1.609-0.611-2.32-1.014-1.258-0.455-2.355-0.885-3.215-1.273-1.77-0.811-3.617-1.852-5.184-2.695-0.309-0.195-0.699-0.584-1.094-0.664-20.902-12.881-34.984-37.285-34.984-65.332 0-7.939 1.098-15.205 3.133-22.197 14.203 2.436 29.426-1.707 40.328-12.668 17.723-17.711 17.723-46.602 0-64.229-17.809-17.764-46.602-17.764-64.332 0-11.062 10.787-15.293 26.023-12.594 40.344-7.176 1.898-14.395 3.135-22.078 3.135-25.461 0-48.008-11.861-61.656-29.488-0.633-0.787-1.145-1.947-1.883-2.561-0.48-0.816-0.871-1.701-1.258-2.289-0.867-1.098-1.496-2.355-2.117-3.688-0.234-0.357-0.551-1.021-0.863-1.688-0.668-1.23-1.254-2.436-1.887-3.611-0.273-0.914-0.633-1.961-1.098-2.824-0.27-0.941-0.625-1.584-0.98-2.625-1.922-6.309-3.133-12.879-3.133-19.734 0-37.672 33.688-68.32 74.875-68.32 7.922 0 15.457 1.336 22.512 3.078-2.824 14.477 1.453 29.688 12.637 40.793 17.645 17.789 46.633 17.789 64.324 0 17.77-17.867 17.77-46.566 0-64.605-11.137-10.875-26.203-15.098-40.633-12.414-1.965-7.020-3.297-14.625-3.297-22.438 0-41.316 30.746-74.879 68.562-74.879 37.812 0 68.406 33.562 68.406 74.879 0 7.594-1.254 15.027-3.176 21.973-14.238-2.652-29.457 1.707-40.441 12.547-17.613 17.902-17.613 46.887 0 64.762 17.887 17.434 46.672 17.434 64.402 0 10.988-11.203 15.137-26.219 12.633-40.617 7.055-1.742 14.348-3.078 22.199-3.078 41.336 0 74.758 30.648 74.758 68.32 0 4.541-0.465 9.148-1.453 13.164-0.188 0.607-0.27 1.16-0.508 1.871-0.277 1.42-0.551 2.736-0.941 4.23-0.309 0.469-0.555 1.176-0.785 1.863-9.562 27.545-37.73 47.486-71.070 47.486-7.852 0-15.535-1.344-22.598-3.242 2.754-14.32-1.566-29.73-12.465-40.797z" />
<glyph unicode="&#xe604;" glyph-name="agenda" d="M839.6 112c0-21.6-17.6-39.2-39.2-39.2h-558.8c-21.6 0-39.6 17.6-39.6 39.2v401.2h637.6v-401.2zM108 674.8v-578c0-67.6 54.8-122.4 122.4-122.4h576c67.6 0 122.4 54.8 122.4 122.4v578c0 67.6-54.8 122.4-122.4 122.4h-25.2v73.6c0 20.4-16.8 37.2-37.2 37.2s-37.2-16.8-37.2-37.2v-150c0-18.4-14.8-33.2-33.2-33.2s-33.2 14.8-33.2 33.2v76.4h-64.4v73.6c0 20.4-16.8 37.2-37.2 37.2-20.8 0-37.2-16.8-37.2-37.2v-150c0-18.4-14.8-33.2-33.2-33.2s-33.2 14.8-33.2 33.2v76.4h-63.6v73.6c0 20.4-16.8 37.2-37.2 37.2-20.8 0-37.2-16.8-37.2-37.2v-150c0-18.4-14.8-33.2-33.2-33.2s-33.2 14.8-33.2 33.2v76.4c-68.4 0-122.8-54.8-122.8-122.4zM481.6 158.8l-118 129.6 60.4 52.8 64.8-68.8 165.2 156.8 52.8-61.2z" />
<glyph unicode="&#xe605;" glyph-name="align" d="M576.4 554.8v-456.4h114.4v550l-114.4-93.6zM242.8 282l-10 12.4v-196h114.4v269.2l-104.4-85.6zM404.4 414.4v-316h114.4v409.6l-114.4-93.6zM800.4 573.2l-52.4 64v-538.8h114.4v639.6l-62-164.8zM862.4 900l-225.2-36.8 54-66.4-476.8-390 36.4-44.4 476.8 390 54-66.4 80.8 214zM976.8 41.2v-57.2h-916v916h57.2v-858.8h858.8z" />
<glyph unicode="&#xe606;" glyph-name="award" d="M820.516 536.924l68.372 55.332-68.372 55.356c-8.688 7.024-11.44 19.096-6.66 29.184l37.608 79.52-85.652 20.136c-10.864 2.584-18.584 12.264-18.66 23.416l-0.604 87.972-85.896-18.976c-10.888-2.416-22.064 2.944-26.988 12.988l-38.724 78.992-69.14-54.364c-8.788-6.908-21.148-6.908-29.932 0l-69.168 54.364-38.724-78.992c-4.92-10.044-16.1-15.404-26.964-12.988l-85.896 18.976-0.624-87.972c-0.076-11.152-7.772-20.832-18.664-23.416l-85.628-20.132 37.612-79.52c4.78-10.088 2.028-22.184-6.64-29.184l-68.416-55.36 68.416-55.332c8.668-7 11.42-19.072 6.64-29.188l-37.612-79.496 85.628-20.184c10.892-2.56 18.588-12.24 18.664-23.392l0.624-87.996 85.896 19c1.74 0.36 3.5 0.556 5.216 0.556 9.1 0 17.624-5.116 21.752-13.572l38.724-78.988 69.168 54.368c8.784 6.904 21.144 6.904 29.932 0l69.14-54.368 38.724 78.988c4.924 10.048 16.080 15.408 26.988 13.016l85.896-19 0.604 87.996c0.076 11.152 7.796 20.832 18.66 23.392l85.652 20.184-37.608 79.52c-4.784 10.092-2.032 22.164 6.656 29.164zM510.832 402.364c-99.364 0-180.24 80.824-180.24 180.236 0 99.364 80.876 180.192 180.24 180.192 99.368 0 180.24-80.828 180.24-180.192 0-99.412-80.872-180.236-180.24-180.236zM765.332 242.932l-96.544 21.316-43.528-88.768c-3.212-6.568-9.224-11.32-16.368-12.96-1.784-0.412-3.576-0.604-5.36-0.604-5.408 0-10.668 1.788-14.992 5.216l-62.356 49.008 105.592-279.292 83.916 126.96 146.9-39.64-83.216 220.024c-4.44-1.744-9.312-2.32-14.044-1.26zM433.096 167.128c-5.748-4.54-13.252-6.228-20.352-4.608-7.12 1.64-13.156 6.396-16.344 12.96l-43.552 88.768-96.516-21.316c-3.84-0.82-7.728-0.676-11.44 0.312l-82.852-219.080 146.876 39.64 83.916-126.96 106.848 282.576-66.584-52.292z" />
<glyph unicode="&#xe607;" glyph-name="bell" d="M956.496 240.368v48.488c0 237.104-185.132 430.864-418.724 444.856v25.58c0 14.904-12.104 27.008-27.044 27.008s-27.044-12.104-27.044-27.008v-25.58c-233.588-13.992-418.756-207.752-418.756-444.856v-48.488h891.568zM993.66 198.388h-965.864l-29.056-84.024h1023.984zM434.612 710.216c0 42.044 34.104 76.084 76.084 76.084 42.048 0 76.152-34.040 76.152-76.084s-34.104-76.152-76.152-76.152c-41.976 0.004-76.084 34.108-76.084 76.152z" />
<glyph unicode="&#xe608;" glyph-name="careers" d="M865.28 882.35h-136.96v16.61c0 5.63-4.61 10.24-10.24 10.24h-124.74v30.32c0 11.265-9.22 20.48-20.48 20.48h-121.72c-11.26 0-20.48-9.215-20.48-20.48v-30.32h-124.74c-5.63 0-10.24-4.61-10.24-10.24v-16.62h-136.96c-5.63 0-10.24-4.61-10.24-10.24v-925.86c0-5.63 4.61-10.24 10.24-10.24h706.56c5.63 0 10.24 4.61 10.24 10.24v925.87c0 5.62-4.61 10.24-10.24 10.24zM512 936.255c11.2 0 20.28-9.085 20.28-20.275 0-11.205-9.090-20.29-20.28-20.29-11.2 0-20.28 9.085-20.28 20.29 0 11.19 9.080 20.275 20.28 20.275zM798.67 13.88c0-5.64-4.61-10.24-10.24-10.24h-552.86c-5.63 0-10.24 4.6-10.24 10.24v790.595c0 5.63 4.61 10.24 10.24 10.24h60.11v-17.090c0-5.635 4.61-10.24 10.24-10.24h412.16c5.63 0 10.24 4.605 10.24 10.24v17.090h60.11c5.63 0 10.24-4.61 10.24-10.24v-790.595zM295.68 698.88h390.4v-24.32h-390.4v24.32zM295.68 636.16h390.4v-24.32h-390.4v24.32zM295.68 573.44h298.24v-24.32h-298.24v24.32zM295.68 448h390.4v-24.32h-390.4v24.32zM295.68 385.28h390.4v-24.32h-390.4v24.32zM295.68 322.56h298.24v-24.32h-298.24v24.32zM423.34 87.34h-43.34l21.82 37.84 304.81 173.47 21.51-37.83zM734.913 264.422l-21.52 37.82 16.334 9.294 21.52-37.82-16.334-9.294z" />
<glyph unicode="&#xe609;" glyph-name="case" d="M648.8 260h-273.2v60h-356v-289.6h985.2v289.6h-356v-60zM366 716c4.8 20.4 17.6 39.6 37.6 55.2 26 20.4 63.2 34 105.6 34 42 0 79.6-13.6 105.6-34 20-16 32.8-34.8 37.6-55.2h-286.4zM713.2 716c-5.6 41.2-28.8 77.2-61.6 102.8-37.6 29.6-88 46.8-142.8 46.8s-105.2-17.2-142.8-46.8c-32.8-25.6-56.4-61.6-61.6-102.8h-285.2v-324h406.8v-70h171.6v70h406.8v324h-291.2z" />
<glyph unicode="&#xe60a;" glyph-name="certificate" d="M261.2 186.4v691.2h297.6v-204h204v-487.2h-501.6zM608.8 836.8l108.8-113.2h-108.8v113.2zM598 944.4h-404v-824.8h635.2v584.4l-231.2 240.4zM638 410c-56.8 0-102.4-46-102.4-102.8 0-36 18.4-67.6 46.8-86v-260.8l48.8 65.2 58.8-73.6v267.6c30.4 18 50.8 50.4 50.8 88.4 0 56-46.4 102-102.8 102z" />
<glyph unicode="&#xe60b;" glyph-name="checked" d="M761.476 340.4v-244.3h-642.892v642.804h538.932l94.636 119.24h-752.772v-881.284h881.336v513.748zM519.56 207.98l-260.808 342.144c-19.244 25.236-14.372 61.336 10.9 80.616 25.272 19.208 61.34 14.3 80.548-10.936l171.22-224.584 399.4 503.092c19.768 24.956 55.94 29.020 80.828 9.324 24.848-19.768 29.020-55.94 9.248-80.756l-491.336-618.9z" />
<glyph unicode="&#xe60c;" glyph-name="company" d="M945.712 215.9v482.696c0 15.712-12.772 28.468-28.484 28.468h-139.164v33.416h-532.8v-33.416h-139.152c-15.728 0-28.5-12.756-28.5-28.468v-482.7h-77.964v-86.632h1024.008v86.632h-77.944zM349.748 304.992h-107.296v103.144h107.292v-103.144zM349.748 462.516h-107.296v103.096h107.292v-103.096zM565.072 304.992h-107.28v103.144h107.28v-103.144zM565.072 462.516h-107.28v103.096h107.28v-103.096zM780.412 208.908h-107.312v168.384h107.312v-168.384zM780.412 462.516h-107.312v103.096h107.312v-103.096z" />
<glyph unicode="&#xe60d;" glyph-name="employment" d="M514.141 939.146l-426.316-246.068v-492.098l426.316-245.875 426.16 245.875v492.098l-426.16 246.068zM651.422 553.244c61.191 0 110.762-46.971 110.762-104.939 0-57.781-49.57-104.906-110.762-104.906-5.254 0-10.512 0.457-15.613 1.18 22.359-16.609 50.129-25.543 77.93-24.699 27.812 1.039 54.402 12.066 74.414 31.246-16.398-42.398-56.711-72.285-102.41-74.859-2.477-45.242-32.164-85.781-74.562-102.137 19.219 20.023 30.047 46.859 31.070 74.383 1.012 27.629-7.852 55.387-24.254 77.789 0.477-5.16 0.949-10.16 0.949-15.352 0-61.355-46.875-110.891-104.805-110.891-57.969 0-104.809 49.535-104.809 110.891 0 5.191 0.348 10.191 0.984 15.352-16.438-22.402-25.539-50.16-24.363-77.789 0.902-27.523 11.848-54.359 30.828-74.383-24.781 9.629-45.773 27.504-59.219 50.602-7.611 13.41-12.594 28.117-14.512 43.539-0.359 2.098-0.473 4.207-0.791 6.441 0 1.051 0.432 1.555-1.023 1.555-0.9 0.258-1.721 0.258-2.66 0.418-3.609 0.137-7.223 0.641-10.832 1.52-7.525 1.305-14.826 3.297-22.039 6.102-30.121 12.082-54.207 36.613-65.816 66.82 20.078-19.18 46.754-30.207 74.482-31.246 27.771-0.844 55.465 7.973 77.781 24.477-4.938-0.5-10.195-0.957-15.371-0.957-61.35 0-110.922 46.824-110.922 104.906 0 57.834 49.572 104.939 110.922 104.939 5.176 0 10.434-0.746 15.371-1.354-22.316 16.629-50.010 25.441-77.781 24.539-27.729-1.158-54.404-12.088-74.482-31.109 9.566 24.582 27.688 46.109 50.678 59.254 13.492 7.762 28.314 12.604 43.535 14.65 2.043 0.17 4.162 0.527 6.234 0.916 1.371 0 1.924-0.746 1.924 0.842 0 0.805 0.123 1.73 0.318 2.436 0.232 3.818 0.818 7.527 1.48 11.018 1.301 7.574 3.461 14.99 6.242 22.146 11.922 29.984 36.555 54.164 66.48 65.801-18.98-19.951-29.926-46.834-30.828-74.334-1.176-27.732 7.691-55.266 24.324-77.543-0.789 4.766-1.066 9.982-1.066 15.154 0 61.33 46.805 110.836 104.77 110.836 58.090 0 104.805-49.506 104.805-110.836 0-5.531-0.352-10.627-0.934-15.758 16.547 22.605 25.41 50.238 24.398 78.146-1.023 27.5-11.852 54.383-31.070 74.334 24.984-9.672 45.969-27.715 59.23-50.875 7.684-13.281 12.594-28.186 14.711-43.539 0.422-1.98 0.504-4.041 0.621-6.182 0-1.012-0.199-1.646 1.020-1.646 1.055 0 2-0.389 2.703-0.389 3.773-0.527 7.215-0.869 10.906-1.479 7.449-1.348 14.832-3.725 21.965-6.328 30.203-11.846 54.441-36.674 65.816-66.625-20.012 19.021-46.602 29.951-74.414 31.109-27.645 0.902-55.254-7.91-77.543-24.338 5.031 0.627 9.973 1.152 15.227 1.152zM603.062 472.736c-17.852-17.59-46.566-17.59-64.363 0-17.895 17.672-17.895 46.602 0 64.469 10.902 11.236 26.27 15.119 40.59 12.412 1.926 7.295 3.102 14.725 3.102 22.637 0 41.451-30.594 74.875-68.41 74.875-4.395 0-8.859-0.533-12.863-1.588-0.707 0-1.645 0-2.16-0.334-1.215-0.316-2.348-0.566-3.414-0.924-1.020-0.182-2.031-0.43-3.137-0.961-0.625-0.232-1.57-0.684-2.352-1.061-1.254-0.428-2.359-0.885-3.211-1.451-1.812-0.703-3.613-1.76-5.18-2.367-0.238-0.332-0.703-0.785-1.102-0.832-20.863-12.881-34.992-37.381-34.992-65.357 0-7.912 1.18-15.221 3.184-22.051 14.234 2.295 29.371-1.762 40.355-12.727 17.734-17.742 17.734-46.633 0-64.305-17.887-17.775-46.672-17.775-64.398 0-11.062 10.842-15.297 26.086-12.555 40.402-7.219 1.9-14.426 3.154-22.121 3.154-25.5 0-47.93-11.771-61.662-29.551-0.629-0.785-1.094-1.91-1.805-2.463-0.547-0.896-0.857-1.68-1.33-2.391-0.869-1.072-1.406-2.309-2.043-3.641-0.307-0.434-0.621-1.018-0.941-1.686-0.621-1.176-1.248-2.49-1.881-3.598-0.234-0.939-0.625-1.912-1.053-2.836-0.275-0.898-0.674-1.654-1.025-2.57-1.92-6.297-3.176-12.848-3.176-19.689 0-37.758 33.725-68.43 74.916-68.43 7.922 0 15.457 1.309 22.594 3.094-2.867 14.496 1.41 29.68 12.551 40.715 17.652 17.773 46.676 17.773 64.328 0 17.809-17.773 17.809-46.57 0-64.449-11.141-10.992-26.203-15.125-40.637-12.562-1.922-7.062-3.301-14.609-3.301-22.395 0-41.363 30.836-74.934 68.57-74.934 37.809 0 68.402 33.57 68.402 74.934 0 7.668-1.258 15.047-3.141 22.004-14.234-2.629-29.496 1.781-40.434 12.477-17.605 17.98-17.605 46.871 0 64.652 17.77 17.602 46.629 17.602 64.371 0 10.98-10.941 15.133-26.062 12.652-40.441 7.035-1.785 14.406-3.094 22.168-3.094 41.336 0 74.762 30.672 74.762 68.43 0 4.467-0.504 9.020-1.406 13.139-0.234 0.443-0.277 1.057-0.555 1.764-0.234 1.529-0.508 2.746-0.941 4.219-0.309 0.568-0.543 1.174-0.742 1.863-9.613 27.617-37.77 47.555-71.117 47.555-7.762 0-15.453-1.369-22.586-3.27 2.75-14.316-1.57-29.756-12.512-40.838z" />
<glyph unicode="&#xe60e;" glyph-name="expert" d="M437.2 241.6l-173.6 190.8 88.4 77.6 96-101.2 242.4 230.4 77.6-89.6-330.8-308zM945.2 588.8l-126 82.4-39.2 145.2-150.4-7.6-117.6 94.8-117.2-94.4-150.4 7.6-39.2-145.2-126.4-82.8 53.6-140.8-53.6-140.8 126-82.4 39.2-145.2 150.4 7.6 117.2-94.4 117.2 94.4 150.4-7.6 39.2 145.2 126 82.4-52.8 140.8 53.6 140.8z" />
<glyph unicode="&#xe60f;" glyph-name="gears" d="M553.352 446.652l62.752 11.244c9.044 39.004 10.44 78.048 5.076 115.632l-61.652 16.592-34.184 79.556 30.364 56.104c-23.94 30.22-53.476 56.216-87.596 76.192l-51.368-37.86-83.52 22.812-25.044 58.688c-39.44 0.092-77.972-7.224-113.812-21.028l-2.428-63.748-69.888-51.068-61.528 17.084c-23.74-29.636-42.44-63.984-54.512-102.132l48.292-41.624-3.64-86.504-51.74-37.44c8.676-38.096 24.332-74.1 45.884-106.304l62.644 11.808 65.3-56.776-2.956-63.748c17.256-8.372 35.468-15.284 54.604-20.524 19.012-5.184 38.084-8.42 57.052-10.004l29.876 56.34 85.156 15.7 47.928-42.060c34.936 16.772 66.704 39.804 93.556 68.168l-25.476 58.544 40.86 76.356zM273.216 402.512c-69.888 19.068-111.040 91.184-92 161.044 19.068 69.86 91.16 111.048 161.020 92 69.86-19.084 111.068-91.164 92-161.020-19.068-69.868-91.16-111.056-161.020-92.024zM974.268 220.86l44.564 9.768c5.404 28.124 5.348 56.084 0.492 82.828l-44.516 10.192-26.596 55.94 20.176 40.968c-17.92 20.944-39.736 38.7-64.668 52.052l-35.692-28.472-60.3 13.952-19.5 41.28c-28.192-1.004-55.536-7.316-80.764-18.1v-45.76l-48.6-38.388-44.416 10.516c-16.184-21.888-28.608-46.916-36.212-74.516l35.656-28.472-0.272-61.924-35.928-28.252c7.224-26.96 19.384-52.34 35.636-74.736l44.484 10.188 48.208-38.82-0.38-45.648c12.552-5.492 25.752-9.984 39.584-13.188 13.716-3.164 27.452-4.948 41.052-5.568l19.82 41.132 60.432 13.572 35.388-28.744c24.524 12.916 46.628 30.236 65.040 51.284l-19.792 41.188 27.104 55.728zM775.236 181.564c-50.428 11.7-81.828 62.144-70.092 112.612 11.716 50.484 62.144 81.972 112.576 70.256 50.476-11.7 81.848-62.164 70.12-112.608-11.728-50.504-62.136-81.956-112.604-70.26z" />
<glyph unicode="&#xe610;" glyph-name="gift" d="M880.8 296c0 18.8-15.2 34.4-34.4 34.4h-378.8c-18.8 0-34.4-15.2-34.4-34.4v-306c0-18.8 15.2-34.4 34.4-34.4h378.8c18.8 0 34.4 15.2 34.4 34.4v306zM953.2 574c0 18.8-15.2 34.4-34.4 34.4h-451.2c-18.8 0-34.4-15.2-34.4-34.4v-148.8c0-18.8 15.2-34.4 34.4-34.4h451.2c18.8 0 34.4 15.2 34.4 34.4v148.8zM348.8-10c0-18.8-15.2-34.4-34.4-34.4h-136.8c-18.8 0-34.4 15.2-34.4 34.4v306c0 18.8 15.2 34.4 34.4 34.4h136.8c18.8 0 34.4-15.2 34.4-34.4v-306zM348.8 425.2c0-18.8-15.2-34.4-34.4-34.4h-209.2c-18.8 0-34.4 15.2-34.4 34.4v148.8c0 18.8 15.2 34.4 34.4 34.4h209.6c18.8 0 34.4-15.2 34.4-34.4v-148.8zM785.2 822.4c-20-34.4-87.6-71.2-219.2-79.6 33.2 52.8 94 128.8 169.6 128.8 29.2 0 46-10.8 52-21.2 4.8-7.6 4-17.2-2.4-28zM269.6 782c-39.6 20.4-53.6 43.2-53.6 57.6 0 18.8 23.2 32 54.8 32 76.4 0 137.2-76 170-128.8-88 5.6-140.8 23.6-171.2 39.2zM847.2 885.2c-20 34.8-61.6 55.2-111.2 55.2-113.2 0-193.2-103.2-232.4-168.4-39.6 65.2-119.6 168-232.8 168-71.6 0-123.6-43.2-123.6-101.6 0-103.6 116.8-171.2 352-171.2s359.6 86.8 359.6 170.4c0.4 16.4-3.2 32.8-11.6 47.6z" />
<glyph unicode="&#xe611;" glyph-name="group" d="M164.74 640.184h-38.484c6.136-1.884 12.524-3.108 19.248-3.108 6.74 0 13.084 1.224 19.236 3.108zM210.024 619.476h-5.596c-16.792-11.612-37.020-18.56-58.924-18.56-21.644 0-41.736 6.848-58.392 18.228-45.228-3.376-86.044-49.988-86.044-84.728v-166.376c0-0.564 0.256-1.176 0.28-1.772h37.536v162.592c0 9.992 8.088 18.096 18.064 18.096 10.016 0 18.096-8.104 18.096-18.096v-162.592h140.936v162.592c0 9.992 8.056 18.096 18.048 18.096s18.088-8.104 18.088-18.096v-162.592h37.568c0 0.596 0.232 1.212 0.232 1.804v166.344c0 36.028-32.672 85.060-79.892 85.060zM145.5 772.504c-37.384 0-67.74-30.324-67.74-67.74 0-37.4 30.352-67.688 67.74-67.688 37.416 0 67.656 30.288 67.656 67.688 0.004 37.416-30.236 67.74-67.656 67.74zM75.272 324.9h140.424v-208.696h-140.424v208.696zM532.3 640.184h-38.452c6.112-1.884 12.5-3.108 19.204-3.108 6.768 0 13.128 1.224 19.248 3.108zM577.592 619.476h-5.56c-16.808-11.612-37.056-18.56-58.98-18.56-21.66 0-41.676 6.848-58.344 18.228-45.224-3.372-86.076-49.988-86.076-84.728v-166.376c0-0.564 0.28-1.176 0.28-1.772h37.548v162.592c0 9.992 8.096 18.096 18.104 18.096 9.94 0 18.032-8.104 18.032-18.096v-162.592h140.944v162.592c0 9.992 8.104 18.096 18.032 18.096 9.992 0 18.096-8.104 18.096-18.096v-162.592h37.552c0 0.596 0.296 1.212 0.296 1.804v166.344c0.008 36.028-32.712 85.060-79.924 85.060zM513.056 772.504c-37.368 0-67.656-30.324-67.656-67.74 0-37.4 30.288-67.688 67.656-67.688 37.412 0 67.716 30.288 67.716 67.688-0.004 37.416-30.308 67.74-67.716 67.74zM442.844 324.9h140.488v-208.696h-140.488v208.696zM899.896 640.184h-38.476c6.152-1.884 12.472-3.108 19.24-3.108 6.696 0 13.084 1.224 19.236 3.108zM945.188 619.476h-5.592c-16.752-11.612-37.020-18.56-58.936-18.56-21.688 0-41.736 6.848-58.376 18.228-45.256-3.372-86.052-49.988-86.052-84.728v-166.376c0-0.564 0.232-1.176 0.232-1.772h37.568v162.592c0 9.992 8.104 18.096 18.096 18.096 9.976 0 18.048-8.104 18.048-18.096v-162.592h140.936v162.592c0 9.992 8.104 18.096 18.096 18.096 9.972 0 18.080-8.104 18.080-18.096v-162.592h37.568c0 0.596 0.216 1.212 0.216 1.804v166.344c-0.004 36.028-32.708 85.060-79.884 85.060zM880.656 772.504c-37.416 0-67.708-30.324-67.708-67.74 0-37.4 30.288-67.688 67.708-67.688s67.672 30.288 67.672 67.688c0 37.416-30.252 67.74-67.672 67.74zM810.436 324.9h140.44v-208.696h-140.44v208.696z" />
<glyph unicode="&#xe612;" glyph-name="hammer" d="M813.764 593.316c-9.372-12.956-6.516-31.032 6.436-40.404l44.72-32.42c12.956-9.368 31.036-6.516 40.436 6.44l66.644 91.636c9.408 12.952 6.516 31.032-6.368 40.4l-44.72 32.404c-12.952 9.46-31.032 6.532-40.472-6.348l-66.676-91.708zM811.716 578.456c-4.172 26.276-30.888 40.404-54.344 57.456s-17.416 16.028-41.828 12.296c0 0-29.24-2.56-48.744-29.348-19.468-26.86-37.108-51.088-37.108-51.088l-122.956 89.2c0 0 14.6 20 53.576 73.648 39.012 53.576 43.292 71.872-28.652 124.056-71.948 52.164-172.368 44.936-172.368 44.936l-8.82 36.232c169.652 29.204 224.072 32.716 285.224-11.712 61.184-44.352 110.368-79.996 153.108-111.028 42.748-31.032 26.352-30.008 38.244-72.972 6.552-23.86 1.212-18.884 24.704-36.008 23.492-16.98 15.952-16.688 42.196-12.588l-82.232-113.080zM601.368 528.76l-382.052-555.892-4.756-6.516-16.1-22.176c-9.368-12.952-30.008-14.052-46-2.488l-92.984 67.556c-16.032 11.564-21.372 31.472-12.004 44.424l16.172 22.248 4.756 6.368 410.96 534.964 122.008-88.488z" />
<glyph unicode="&#xe613;" glyph-name="heart" d="M617.32 683.876l-146.972 146.84-6.732 5.304c-14.524 11.272-30.304 21.22-46.816 29.376-40.052 19.992-83.152 30.14-128.308 30.14-76.584 0-148.7-29.808-203.040-83.816-54.308-54.008-84.344-125.156-84.412-200.484-0.064-68.4 24.668-135.268 70.324-191.268 1.56 5.24 3.48 10.38 5.8 15.388 4.972 10.64 11.672 20.188 19.96 28.344l227.244 227.244-73.472 73.5 10.84 10.776 19.2 19.296 10.876 10.744 223.328-223.532c11.176-11.072 26.524-17.14 43.1-17.14 19.396 0 38.86 8.288 53.312 22.776 28.116 28.148 30.7 71.416 5.768 96.512zM365.080 650.224l-227.308-227.24c-8.156-8.156-12.596-19.296-12.596-31.264 0-12.964 5.172-25.296 14.556-34.78 9.484-9.416 21.852-14.652 34.78-14.652 11.868 0 23.008 4.544 31.296 12.796l227.244 227.244-67.972 67.896zM931.096 393.876c60.672 60.74 93.992 137.988 93.924 217.36-0.032 75.26-30.040 146.48-84.412 200.456-54.408 54.008-126.552 83.816-203.076 83.816-67.704 0-132.416-23.508-183.94-66.44l104.372-104.504c47.476-47.38 44.956-127.316-5.504-178.040-25.592-25.332-59.944-39.788-94.228-39.788-30.24 0-58.552 10.844-80.236 30.636l-227.308-227.308c-8.42-8.488-12.96-19.896-12.632-31.96 0.264-12.832 5.472-24.9 14.556-34.052 9.416-9.448 21.752-14.688 34.848-14.688 11.904 0 23.044 4.544 31.2 12.732l260.992 260.864 10.744-10.808 26.656-26.56 10.744-10.808-10.744-10.772-250.084-250.252c-8.188-8.156-12.696-19.228-12.696-31.232 0-12.928 5.236-25.296 14.72-34.776 9.384-9.452 21.78-14.624 34.68-14.624 11.936 0 23.076 4.58 31.4 12.736l260.764 260.992 44.888-45.024-10.776-10.744-250.084-250.188c-8.284-8.416-12.796-19.892-12.564-32.024 0.264-12.736 5.436-24.868 14.584-34.020 9.384-9.48 21.652-14.652 34.716-14.652 11.968 0 23.076 4.508 31.232 12.732l257.312 255.088c44.492 44.52 88.092 88.084 125.952 125.852z" />
<glyph unicode="&#xe614;" glyph-name="hihr" d="M912.383 301.738c-29.883-28.805-69.812-45.297-111.504-46.633-41.465-1.387-83.121 11.91-116.539 36.871 7.527-1.121 15.293-1.785 23.223-1.785 91.742 0 165.996 70.582 165.996 157.027 0 87.004-74.254 157.152-165.996 157.152-7.93 0-15.219-0.779-22.75-1.648 33.457 24.555 74.836 37.781 116.066 36.5 41.691-1.611 81.621-18.121 111.504-46.672-17.102 45.061-53.379 81.936-98.566 99.799-10.629 3.789-21.848 7.412-32.832 9.533-5.414 0.906-10.781 1.449-16.465 2.1-1.105 0-2.434 0.568-4.012 0.568-1.879 0-1.406 0.881-1.406 2.572-0.312 3.154-0.473 6.227-1.016 9.254-3.18 23.025-10.445 45.299-22.051 65.195-19.77 34.469-51.301 61.539-88.688 75.99 28.68-29.809 44.996-69.93 46.641-111.143 1.41-41.869-11.801-83.268-36.793-116.9 1.023 7.623 1.57 15.293 1.57 23.396 0 91.814-70.051 166.164-156.969 166.164-86.725 0-156.742-74.35-156.742-166.164 0-7.709 0.396-15.305 1.49-22.635-24.943 33.441-38.125 74.467-36.398 116.139 1.34 41.213 17.725 81.334 46.127 111.143-44.787-17.297-81.742-53.381-99.547-98.432-4.121-10.668-7.457-21.807-9.416-33.080-0.904-5.26-1.801-10.777-2.039-16.479-0.391-1.061-0.471-2.449-0.471-3.586 0-2.475-0.859-1.436-2.975-1.436-2.988-0.568-6.281-1.039-9.338-1.219-22.83-3.311-44.951-10.512-65.273-21.998-34.439-19.789-61.504-51.814-75.738-88.783 30.008 28.551 69.855 45.061 111.393 46.672 41.777 1.281 82.955-11.945 116.533-36.809-7.527 0.939-15.303 1.957-23.105 1.957-91.814 0-165.99-70.305-165.99-157.152 0-86.793 74.176-157.027 165.99-157.027 7.803 0 15.578 0.664 23.105 1.449-33.578-24.887-74.756-37.922-116.533-36.535-41.537 1.336-81.385 17.828-111.393 46.633 17.377-45.297 53.377-81.988 98.451-99.918 10.793-4.234 21.846-7.336 32.988-9.172 5.49-1.199 10.789-2.141 16.24-2.324 1.49-0.031 2.67-0.031 4.078-0.625 2.117 0 1.566-0.797 1.566-2.391 0.471-3.348 0.551-6.496 1.094-9.645 2.754-23.051 10.197-45.004 21.652-65.18 20.168-34.488 51.701-61.344 88.727-75.789-28.402 30.020-44.787 70.203-46.127 111.375-1.727 41.555 11.773 83.023 36.484 116.449-0.941-7.664-1.412-15.094-1.412-22.91 0-91.801 70.047-166.055 156.895-166.055 86.602 0 156.887 74.254 156.887 166.055 0 7.816-0.703 15.246-1.609 22.91 24.797-33.426 38.008-74.895 36.598-116.449-1.645-41.172-17.961-81.355-46.641-111.375 63.547 24.484 107.875 85.285 111.754 153.004 68.25 3.867 128.695 48.441 153.281 112.039zM453.428 731.811c2.475 1.201 5.105 2.764 7.807 3.939 1.338 0.846 2.984 1.26 4.785 1.965 1.178 0.746 2.514 1.16 3.531 1.664 1.652 0.551 3.066 1.18 4.629 1.49 1.688 0.318 3.297 0.734 5.18 1.26 0.703 0.566 2.117 0.566 3.219 0.566 6.031 1.469 12.59 2.311 19.219 2.311 56.641 0 102.453-50.031 102.453-112.059 0-11.846-1.727-23.021-4.711-33.891-21.492 4.078-44.324-1.762-60.672-18.652-26.875-26.594-26.875-69.912 0-96.586 26.586-26.373 69.766-26.373 96.328 0 16.43 16.686 22.945 39.654 18.711 61.289 10.742 2.807 22.121 4.705 33.883 4.705 49.891 0 92.023-29.811 106.453-71.129 0.316-1.020 0.629-1.961 1.145-2.781 0.543-2.324 0.941-4.105 1.449-6.324 0.266-0.977 0.473-1.836 0.781-2.762 1.41-5.898 2.117-12.848 2.117-19.598 0-56.496-50.125-102.387-111.945-102.387-11.762 0-22.668 1.98-33.18 4.723 3.688 21.52-2.43 44.055-18.945 60.41-26.754 26.23-69.703 26.23-96.527 0-26.281-26.59-26.281-69.859 0-96.77 16.469-16.098 39.297-22.637 60.559-18.73 3.062-10.242 4.703-21.531 4.703-32.902 0-61.758-45.727-112.246-102.285-112.246-56.645 0-102.654 50.488-102.654 112.246 0 11.621 1.922 22.992 4.904 33.695 21.576-4.055 44.166 2.25 60.797 18.648 26.59 26.918 26.59 70.051 0 96.523-26.441 26.715-69.818 26.715-96.256 0-16.791-16.609-23.102-39.219-18.91-60.875-10.586-2.742-21.879-4.723-33.729-4.723-61.779 0-112.141 45.891-112.141 102.387 0 10.227 1.771 20.094 4.746 29.504 0.551 1.527 1.096 2.484 1.574 3.887 0.545 1.453 1.094 2.875 1.484 4.348 0.938 1.748 1.881 3.469 2.793 5.316 0.426 0.941 0.895 1.904 1.367 2.57 0.904 1.961 1.922 3.789 2.977 5.428 0.709 1.119 1.342 2.232 2.123 3.408 1.1 1.010 1.844 2.754 2.82 3.814 20.475 26.457 54.131 44.123 92.256 44.123 11.453 0 22.281-1.703 33.021-4.51-4.037-21.635 2.357-44.299 18.873-60.627 26.631-26.684 69.66-26.684 96.449 0 26.523 26.467 26.523 69.664 0 96.299-16.469 16.516-39.227 22.574-60.641 19.004-2.898 10.297-4.51 21.318-4.51 33.164 0 42.010 20.982 78.592 52.248 97.809 0.709 0.113 1.291 0.609 1.721 1.055z" />
<glyph unicode="&#xe615;" glyph-name="islands" d="M683.436 536.816l1.36-1.328 3.296-1.012 2.372-2.028h0.636l3.704-7.316 1.648-2.66 1.332-0.696 0.348-2.312 0.316-0.348 1.676-0.696 0.668-1.3 0.316-1.36v-0.344l0.348-0.64 0.664-1.040 1.012-1.62 0.348-0.984 1.332-0.692 0.636 0.344 1.708 0.668 2.34 0.664 4.976 1.968 5.032 0.984 1.996 0.692 1.996 1.36 0.668 1.012 1.012 0.664 2.312 1.304h1.36l0.664-0.636 0.348 0.316h0.32l1.328 1.332 1.332 0.664 3.324-1.3 4.024 1.012 2.024-2.024 2.344 0.636h0.636l3.008-0.636 2.372-1.044v-3.004h0.636l1.012 0.344 0.664-0.344 0.348-2 3.644-2.632 4.688-3.356 0.344-0.344 0.668-1.676 6.676-0.988 0.64-2.66 2.368-4.048 3.008 0.348 1.996 0.692 5.668-3.992v-0.372l5.004-0.32 5.672-2.316v-1.388l3.008-2.604 0.664-1.704-0.664-1.648 0.348-3.036-0.348-4.312-0.668-1.708-1.996-3.324-2.024-2.312-1.328 0.316-1.996-1.012-1.648-1.996-0.696-1.704-1.676-1.968-1.332-0.668-3.992 0.668-1.676-1.332-3.328-1.676-0.664-0.32-1.676-1.012-1.676-1.36-2.32-0.664h-0.34l-0.668 1.040h-1.676l-2.66-0.376-0.668-0.664-2.024 1.040-1.676 0.32-2.98-0.696-2.692-0.664-0.316-0.32-1.996-1.356-0.696-0.292-1.328-0.692-2.316-1.332-1.328-0.636-3.008-1.040h-0.348l-0.668-0.984-1.012-0.696-1.648-0.288h-3.036l-0.984 0.288-5.352-0.288-1.328-1.040-2.344-0.696-0.984-0.288-1.676 0.288-0.348 0.348-5.324 0.984-0.348 0.692 0.348 1.040-0.348 0.64-0.98 0.692-1.012-0.692h-0.668l-1.328 0.692-1.012 1.332 0.344 0.984-1.676 5.696 1.012 1.332 0.32 1.648v0.692l-0.32 3.012-0.696 5.984-0.316 2.344-0.32 1.676-0.344 0.984-0.984 1.332-0.348 0.984-0.348 1.676v4.368l-0.316 1.012v0.984l-2.028 1.68-3.008 1.328v0.348h-2.976l-2.028-1.044-0.344-0.632-0.32-1.016-0.664-0.664-0.348-0.292-2.312-0.692-1.68 0.984-16.024 7.348-6.676 7.348v0.344l-1.996 2.316-0.696 0.692-0.64 0.984-0.692 1.676v3.704l-0.64 1.272h-0.34v0.348l-0.696 0.344-0.636 0.988 0.984 6.36 0.348 0.32 2.312 5.032 1.676 3.672 1.016 1.648 2.684 0.696 0.984 0.984 0.668 1.012-0.32 0.636 0.32 1.040h4.364l1.332-0.664v0.664l0.984 1.332 2.66-0.348 1.012-0.984zM427.348 669.056l1.012-1.012 0.984-2.692 0.696-1.648 0.98-1.996 0.668-0.664 1.012-0.664v-0.984l0.348-1.708v-0.348l-0.348-1.3 0.348-0.696 0.98-1.328 0.348-0.348 0.636-1.332 2.024-0.98 0.668-0.984 2.34-3.008 1.332-2.372-0.316-2.952 1.328-0.372 0.984 1.008 2.024-0.344 0.668-0.664 0.98-2 1.012-1.996 1.016-1.704v-3.644l-2.344-0.348-0.32-0.984-0.344-1.012 0.664-3.008v-1.012l0.316-1.332 0.348-1.36 0.664-0.98 0.32-0.32h0.348l2.66-0.696 1.332-1.3 0.692-1.648 1.332-2.372 0.984-0.696 0.692-0.636 0.636-0.344 1.36-0.984h0.668l0.664 0.316 1.008 0.668 0.32 1.676v1.044l-0.32 1.616v2.344l0.32 0.696 1.332 0.636h1.996l1.68-0.32h1.328l1.332-0.696v-2.312l-0.988-1.332-0.344-1.328v-0.348l-0.348-1.012v-3.328l0.348-0.664 1.676-0.316h1.332v-0.348h0.344v-0.348l0.32-0.636 1.012-1.332 0.984-1.040v-0.984l-0.64-2.024 0.32-1.968 0.32-1.040 0.344-0.664 0.664-1.304 1.016-1.704 0.64-0.664 1.036-0.64 0.664-0.348h0.32v-0.344l1.676-0.984 2.028-1.040v-0.292h2.312v-0.344l-0.348-2.028-2.66-1.62-3.992-3.008-1.036-1.012v-1.356l-0.988-0.696-1.996-0.288-0.664 0.288v0.696l0.344 1.012v1.996l-0.344 0.348-1.332 0.664-3.008-0.664-0.692-0.348-2.976-0.984-1.016 0.344h-0.664l-1.332-0.692-1.012-0.32-0.316-0.344-0.324-0.32-1.008-1.012-1.012-1.012h-0.348l-0.98-0.348-1.996-0.316-0.668 0.316-1.328 0.348-0.696 0.636-0.316 1.388-0.32 0.664-0.696 1.012-0.636 0.64-2.024 1.676-2.372 0.692-0.636 0.292-1.328 0.664h-0.668l-3.356 1.36-0.664 2.316v0.344l-0.348 0.696-0.636 0.98-1.012 0.348h-0.348l-0.316-0.348-0.696-0.664-1.332-1.012 0.348-0.984 0.668-0.692 0.316-0.984h-7.664l0.316 1.332v1.328l-3.296 1.676h-1.040l-2.316-1.328-0.692-0.692h-0.636l-5.672-1.652h-1.012l-3.356-0.664-7.664-1.36-2.66-0.316-2.024 0.98-1.332 3.012-0.348 1.040 2.024 0.636-0.344 0.984-0.984 0.692-1.332-0.692-1.012 4.336-0.348 1.388-1.012 2.316-0.316 0.316v0.32l-0.668 0.692-0.98 1.68-1.012 0.98-1.36 1.044-3.3 1.648v0.348l-0.348 0.664v2.316l-0.344 1.676v0.696h-0.348v0.348l-0.32 0.632-0.664 1.68-0.348 0.348-1.964 1.616-0.38 0.696-0.664 0.32-1.996 1.676-1.676 1.996-0.636 1.332-0.372 0.344 0.372 7.348v1.648l-0.696 1.36-2.98 3.676-4.684 3.004-0.664 0.668 0.32 0.344 4.336 1.016 12.032 0.664 3.672-1.040 5.988 0.664 2.372 0.376 0.32 0.316 3.324 1.652v1.388l-0.664 0.288 0.348 0.696 1.012 0.632 4.34 3.356 2.312 3.008v1.68l0.696 1.328 0.288 0.636 4.716 4.368 3.324 3.328 5.036 1.676 0.98 0.668h3.356l2.98-3.328zM145.576 776.592l1.996 0.32 2.66-0.32 2.020-1.328 1.652 0.664 3.008 1.304 3.328-1.304v-0.344l0.344-0.668 2.664-0.692 1.008-0.32h1.328l0.324 0.668h0.692l2.66-1.996 0.348-0.32 0.98-1.040 3.012-2.952 0.344-1.388 0.32-0.636v-1.328l0.32-0.696v-1.332l0.344-0.348v-0.316l0.348-0.376 0.984-0.636h0.348l0.344-0.348 0.32-0.636v-5.7l-0.32-0.664-1.012-2.312-1.012-1.36-1.676-3.008v-0.32l-0.32-1.012-0.664-2.312-0.348-0.696-1.672-1.012-0.324-0.348-0.316-0.636v-0.316h-0.348v-0.376l-0.664-3.3 0.664-5.032 0.348-1.328 0.316-3.008v-4.34l-1.008-0.316-0.64-0.696-1.332-1.012-1.36-1.968-4.656-3.008-3.008-3.356-2.020-1.964-1.996-1.68-1.332-1.012-0.32-0.316-0.692-0.348-1.648-1.332-1.012-0.696-4.684 2.376-1.332 0.316-1.996 0.664-0.348 0.348-2.976 0.348h-2.028l-4.336 0.288h-2.664l-3.672 1.044-0.316 0.636h-1.016l-0.344-0.32h-5.004v0.32l-1.332 1.012-0.984 0.664h-0.348l-1.36 0.984-1.012 0.984-0.636 1.040-1.012 2.024h-0.316l-3.704 4.28-0.636 0.696-1.676 0.692-2.664 0.32-1.676 0.32-2.024 0.98-0.984 0.348-2.66 1.040-4.34 0.988-1.332 1.328-1.040 1.996-2.316 3.036-0.664 1.332-0.664 2.66 0.664 3.644 0.32 2.72 1.328 1.964 6.016 5.352 1.332 2.98 0.696 2.688 0.316 0.668 0.32 2.024 1.328 1.996 5.032 2.692h1.68l3.992 0.98 3.992 2.372 0.692 0.636 6.684 3.992 3.324 2.372 1.332 1.648h1.676l1.996 0.32h1.012l0.984-0.32 1.012-0.32 0.668-1.008 0.344-0.32 0.32-0.692 1.36 0.692 1.964-0.348 0.696-0.344v-0.348l0.32-0.64 0.344-0.692h0.32l0.348-0.316h0.664l1.332 1.008v2.664l2.34 1.676h1.68l2.344-1.332zM602.972 567.88l1.648-0.344 1.332-0.348 1.36 0.692 0.664 0.636 1.012 3.008v0.696l-0.348 0.636v0.348l2.024 1.328 1.016-0.344 0.98-0.984 2.344-4.020v-1.996l1.012-1.332 5.324-1.332 2.66-0.98 1.012 0.316 0.316 1.012v0.32l5.352-1.332 5.004 0.664 3.676 1.332 9.34 1.012 3.008-0.348 2.344-0.316 1.012-0.696 0.32-1.964 3.032 0.316 1.336-0.316-0.348-2.028-2.024-3.988-4.34-4.688-4.976-3.992-3.008-1.356-0.348-1.36-7.692-2.632-6.016-1.012-1.996-1.68-2.66 0.348-0.668 0.984h-0.664l-10.008 2.024-0.348 0.348-5.004 1.328-1.328 0.664-1.996 0.668-1.012 0.32h-0.696l-0.984 0.316h-0.348l-2.312 0.692-0.696 0.348h-0.316l-1.012 1.332-7.984 1.676h-4.34l-0.692-0.348-3.328-0.344-3.672-1.332-20.708-1.332-7.984 1.332-3.008 1.676 2.664 5.324v0.696l0.98 1.968 1.68 2.368 1.676 1.332 0.32-0.348 2.688 2.66 0.984 1.36 0.664 1.648v3.356l-1.328 1.68-0.664 0.288-0.348 0.692 0.348 1.016 0.664 0.316 3.008-1.332h2.66l3.008 0.348 1.648-0.692 2.028-2.316 0.98-0.348 5.376-0.98h1.68l0.636 0.344v0.32l3.356-0.32 1.676-0.692h3.992l3.992-1.332 2.372-0.348h1.968l1.012 0.348h1.36l4.656-0.984zM604.3 516.804l3.676 0.316 3.704-1.012 6.304-0.348 3.356-0.344 3.988-1.332 11.34-10.296 2.372-2.692 3.008-5.032 0.348-0.984-0.348-2.34-1.36-2.692-4.020-5.988-1.332-0.984h-0.98l-3.356-1.012-3.992-2.052-3.672-1.332h-7.32l-3.704-0.984-3.008 4.368-1.992 5.988 1.012 5.7-0.348 2.312-3.008 4.656-0.668 1.040-8.356 4.34-0.984 1.648-0.348 1.012v2.692l0.348 1.964 4.336 2.692 1.996 0.696h3.008zM2.66 691.068l-0.984 1.012-2.024 3.008-0.348 0.348-0.316 0.664 0.664 6.68 0.348 0.668 1.328 3.352 0.636 1.996v0.348l0.696 0.984 0.348 0.696 2.66 1.964 1.68 1.68 0.636 0.98 1.328 1.36 0.696 0.32 0.348 0.348 3.992 2.024 6.016 2.948 1.676 1.388 0.32 0.64 0.664 0.664 0.696 2.052 0.316 0.956 1.012 3.672 1.332 0.636h0.984l0.692 0.348 1.332 0.348h3.008l2.66-1.332 0.984-2.66v-0.696l-0.664-0.316-1.016-0.316-0.316 0.316-0.316-0.316-2.692-4.372-1.332-5.292 1.012-3.384 0.32-2.98-3.992-2.312h-0.664l-4.020-1.36-4.312-0.664-2.72-1.68-5.32-8.384-3.008-6.652 0.984-0.64-0.984-1.36-1.332 0.664h-0.348l-0.664 0.348-1.332 0.988-0.316 0.316h-0.348zM688.092 452.36l1.36-1.040 1.012-0.984 1.332-2.024 0.636-0.696v-1.3l-0.984-1.012-1.332-5.324 0.668-0.696 2.344-0.98 0.316-1.332-0.316-0.348-0.696-0.636-0.984-0.348-1.996 0.348-5.004-2.372-3.356 2.66-4.972-1.964-2.028-1.36-1.008 0.664-1.652-0.664h-0.688l-1.68-0.668h-1.332l-1.328 0.348-3.992 3.992 0.344 1.012 0.988 1.996 1.328 1.332 1.68 1.676 2.66 0.984 2.66 0.696 1.68 0.984 1.672 1.328 3.672 2.028 0.668 1.328 0.984 0.692 5.38 1.968 1.964-0.288zM868.084 123.036l-0.692-0.984-3.672-3.3-2.66-1.704h-0.664l-1.332 0.32-0.664 0.344-0.348 0.668-0.348 0.372-0.32 1.332-0.316 1.62-6.016 5.38-0.348 0.344-7.348 2.32-8.012 6.36-6.332 1.328-3.008 0.32-5.004 2.688-0.668 0.64-0.348 3.036-3.324 4.972h-1.012v0.348l-2.66 7.664 0.664 7.032 2.66 12.348-0.316 2.692 0.316 5.64 1.36 3.036 0.636 5.004 0.696 7.668-0.348 2.052-1.996 5.988-2.692 4.684 0.696 2.284v0.348l-2.344 3.008-0.664 1.704v6.016l0.348 1.996-0.348 0.64-1.012 0.692h-1.012l-0.32-0.348v-0.344h-0.316l-2.372 1.040-0.32 0.316-0.348 4.34-0.664 3.672v0.636l-0.664 3.008-0.32 1.012-0.664 0.32-0.696 0.376-0.316 5.988-1.012 3.356-0.32 0.98-0.348 0.668-1.992 3.672-1.016 2.024-0.664 0.696-1.012 0.316-4.656 0.984-1.012 0.668-0.32 1.328 0.32 1.68 0.692 0.664h0.32l-0.32 1.36-1.328 2.312-2.028 1.648-0.98 1.012v3.012l-2.372 2.34 1.36 2.344 1.012 3.008 0.316 4.688 5.352 4.336 2.66 2.98 0.348 0.348v0.348l0.316 0.348 3.676 4.656 1.328 0.98 2.344 1.044 2.66 0.316 1.012-0.664h0.696l2.98 1.332-0.32 1.996 0.32 1.012 1.676 2.66 1.016 1.676v0.344l0.316 0.324 1.332 2.66 1.328 1.996v1.012l0.348 1.008 5.004 4.632 1.676 2.716 3.012 1.676 0.316-0.344h0.664l0.696 1.676v0.348l0.288 1.964 0.696 6.016-0.696 1.996-1.332 1.996-0.98 1.332-0.348 0.348-0.636 0.696-0.696 0.98-0.348 0.348-2.976 2.98-3.328 5.352-2.688 8.040-1.648 11.684 0.98 5.988 1.68 4.020 1.676 1.68 1.648 1.036 3.676 0.64 7.692-1.996h0.32l1.992-1.012 3.36-1.676 0.98-0.32h1.044l1.328-0.724 3.644-1.648 2.028-1.996v-2.024l0.632-1.332 5.7-2.976 9.344-4.688 4.34-3.992h1.328l3.008-1.676 1.332-2.344 0.664-0.348 1.356-0.288h0.348l1.332 0.288 2.66 1.392 1.676 0.288 1.332-0.288 5.32-2.084 1.332-0.984h2.664l6.36-1.996 5.668-1.996 6.364-3.008 0.668-0.348 0.316-0.288 2.372-1.388 4.628-2.316 1.044-0.636 5.32-2.72 2.024-0.98 4.656-1.68 1.648-0.316h0.696l2.312-1.648 0.696-0.348 0.32-0.348 0.316-0.32 0.348-0.316 2.024-1.676 0.348-0.348 0.636-0.348 1.012-0.984 2.692-1.676 1.964-0.984 2.372-1.36 1.648-1.68 0.32-0.664 2.692-1.648 5.984-5.352 0.696-0.344 2.66-2.664 0.348-0.344 0.984-1.676 0.664-1.972 1.332-1.328 1.36-1.388 1.648-0.98h0.692l1.652-2.344 0.344-1.3v-2.028l-0.664-2.66-0.376-0.696-0.636-1.676 0.316-1.3v-1.68l0.32-3.672v-0.984l-0.32-0.696v-7.028l0.32-0.316 0.376-0.668 0.664-1.012h0.32l1.012-0.316 0.984 0.316 2.020 0.348 2 1.332 1.332 1.012h7.664l1.672-1.996 0.348-0.696 0.348-1.328 1.328-1.968 0.984-3.704-0.344-3.644v-6.044l2.024-1.648 1.996-1.332h2.688l0.32-0.348v-0.692l-0.668-1.68 0.984-1.676 2.372-1.332 0.984-0.636v-0.348l0.984-1.328 1.012-0.668 0.664-0.316 2.376-2.024 2.312-1.332 3.008-1.332 4.34-1.328 3.008-2.372h1.996l2.34-1.332 0.984-1.672v-0.64l-2.66-7.696-0.664-0.984-1.996-2.312-5.672-5.376-1.012-0.696-2.66-1.624-7.696-6.040-2.688-2.98-3.992-3.356-3.008-3.356-0.636-0.288-6.364-3.352h-0.344l-7.664-3.356-10.036-5.324-1.332-1.012-2.312-1.996-5.036-1.676-2.312 0.348-2.66-0.696-1.68-0.984h-2.024l-7.316 1.68-3.676 0.632-6.364-1.648-1.328-1.012-1.68-2.024-5.32-3.644-1.332-3.356-2.024-1.676-3.644-1.332-2.024-0.348-2.316-0.984-2.688-1.616-1.996-1.708-1.012-1.648-4.024-4.052-2.312-0.984-7.348-1.996-1.676-0.98 0.348-0.696v-1.012l-1.36-1.332-1.332-0.348-0.316-0.316-3.012-4.688-1.328-0.316-1.012-1.332 0.32-2.66v-3.008l-0.32-1.676-1.68-2.664-1.996-1.036-0.98-0.988-2.692-5.028v-3.356l-1.008-1.94-1.972-0.376-2.368-1.676v-0.316l-0.348-0.348-0.316-0.984-0.988-1.36z" />
<glyph unicode="&#xe616;" glyph-name="liability" d="M340 696.4h-8c-24-16.8-53.2-26.4-84.4-26.4s-60 10-83.6 26c-64.8-4.8-123.6-71.6-123.6-121.6v-238.4c0-0.8 0.4-1.6 0.4-2.4h53.6v232.8c0 14.4 11.6 26 26 26s26-11.6 26-26v-232.8h202v232.8c0 14.4 11.6 26 26 26s26-11.6 26-26v-232.8h54c0 0.8 0.4 1.6 0.4 2.4v238.4c-0.4 51.6-47.2 122-114.8 122zM247.6 915.6c-53.6 0-97.2-43.6-97.2-97.2s43.6-96.8 97.2-96.8c53.6 0 96.8 43.2 96.8 96.8 0 54-43.2 97.2-96.8 97.2zM146.8 274.4h201.2v-299.2h-201.2v299.2zM973.6 594l-171.6 296.8c-22.8 39.2-60 39.2-82.8 0l-171.6-296.8c-22.8-39.2-4-71.6 41.2-71.6h342.8c46.4 0.4 64.8 32.4 42 71.6zM761.2 580c-17.6 0-31.6 11.2-31.6 28 0 17.2 14 28.4 31.6 28.4s31.6-11.2 31.6-28.4c0-17.2-14-28-31.6-28zM776.4 656.8h-30.8c-2.8 35.6-18 71.6-18 88.8 0 19.6 14 32.4 33.2 32.4s33.2-13.2 33.2-32.4c0.4-17.2-14.8-52.8-17.6-88.8zM660.4 424h201.2v-299.2h-201.2v299.2zM761.2-21.6l-188.4 172.4h376.4z" />
<glyph unicode="&#xe617;" glyph-name="lock" d="M573.2 958.4c-186.4 0-337.6-151.2-337.6-337.6v-76h-120.4v-516c0-52 42.4-94.4 94.4-94.4h606.4c52 0 94.4 42.4 94.4 94.4v592c0.4 186.4-150.8 337.6-337.2 337.6zM612 96c0-12.8-10.4-22.8-22.8-22.8h-121.6c-12.8 0-22.8 10.4-22.8 22.8l41.2 160c-24.4 14.4-41.2 41.2-41.2 72 0 46 37.6 83.6 83.6 83.6s83.6-37.6 83.6-83.6c0-30.8-16.4-57.2-41.2-72l41.2-160zM880 544.8h-613.6v76c0 169.2 137.6 306.8 306.8 306.8s306.8-137.6 306.8-306.8v-76z" />
<glyph unicode="&#xe618;" glyph-name="manage-costs" d="M729.2 810.8h56v-91.6c87.6-4.8 180.4-44.8 180.4-120 0-35.6-28.8-60.4-60.4-60.4-35.6 0-58 14.8-65.2 52.8-9.2 41.2-27.2 56-91.6 56-44.8 0-81.2-17.2-81.2-53.6 0-39.6 36.4-50.4 97.6-64.4l96.8-22.4c82.4-19.6 130.4-59.2 130.4-143.6 0-121.6-100.8-164.4-206.8-176.8v-101.6h-56v101.6c-120 2.4-218.4 61.2-218.4 133.2 0 41.2 26.4 68.8 68.8 68.8 45.6 0 68.8-24 73.6-66.8 4.8-40.4 44.8-58.8 94.4-58.8 65.2 0 109.2 25.6 109.2 65.2 0 36.4-25.6 48-64.4 56.4l-110.8 24c-86.8 19.2-149.6 53.6-149.6 146.4 0 100 97.6 159.6 197.6 164.4v91.2zM132 709.2h230v-341.6h-230v341.6zM246.8 200l-214.8 197.6h429.6z" />
<glyph unicode="&#xe619;" glyph-name="notepad" d="M866.6 880.172h-136.992v16.676c0 5.624-4.608 10.304-10.24 10.304h-124.724v30.232c0 11.32-9.22 20.52-20.472 20.52h-121.744c-11.252 0-20.472-9.2-20.472-20.52v-30.232h-124.752c-5.66 0-10.268-4.676-10.268-10.304v-16.676h-136.928c-5.624 0-10.236-4.544-10.236-10.168v-925.932c0-5.624 4.608-10.164 10.236-10.164h706.592c5.624 0 10.236 4.54 10.236 10.164v925.932c0 5.624-4.608 10.168-10.236 10.168zM513.268 934.196c11.22 0 20.3-9.084 20.3-20.268 0-11.252-9.084-20.336-20.3-20.336-11.184 0-20.264 9.084-20.264 20.336 0 11.184 9.080 20.268 20.264 20.268zM799.968 11.724c0-5.628-4.608-10.24-10.236-10.24h-552.888c-5.628 0-10.204 4.608-10.204 10.24v790.628c0 5.628 4.576 10.304 10.204 10.304h60.088v-17.148c0-5.628 4.608-10.236 10.268-10.236h412.168c5.628 0 10.24 4.608 10.24 10.236v17.148h60.124c5.624 0 10.236-4.676 10.236-10.304v-790.628zM296.932 696.812h390.444v-24.336h-390.444v24.336zM296.932 634.044h390.444v-24.336h-390.444v24.336zM296.932 571.272h298.252v-24.268h-298.252v24.268zM296.932 445.804h390.444v-24.284h-390.444v24.284zM296.932 383.152h390.444v-24.336h-390.444v24.336zM296.932 320.448h298.252v-24.404h-298.252v24.404zM424.64 85.168h-43.384l21.86 37.824 304.8 173.532 21.492-37.896z" />
<glyph unicode="&#xe61a;" glyph-name="nursing" d="M777.883 711.316v161.998h-528.297v-161.998h-162.105v-528.379h162.105v-162.004h528.297v162.004h162.117v528.379h-162.117zM651.074 552.166c61.191 0 110.777-46.945 110.777-104.947 0-57.676-49.586-104.762-110.777-104.762-5.25 0-10.508 0.453-15.598 1.086 22.422-16.551 50.199-25.418 77.969-24.578 27.762 0.844 54.406 11.941 74.363 31.203-16.383-42.5-56.723-72.172-102.379-74.922-2.496-45.188-32.195-85.723-74.602-102.059 19.148 19.988 30.047 46.832 31.070 74.352 1.027 27.707-7.887 55.336-24.242 77.734 0.477-5.129 0.941-10.195 0.941-15.262 0-61.297-46.867-110.973-104.762-110.973-58.020 0-104.848 49.676-104.848 110.973 0 5.066 0.391 10.133 1.023 15.262-16.465-22.398-25.57-50.027-24.352-77.734 0.812-27.52 11.797-54.363 30.859-74.352-24.824 9.551-45.855 27.535-59.348 50.645-7.562 13.191-12.551 28.074-14.43 43.414-0.355 2.082-0.43 4.18-0.824 6.551 0 1.035 0.469 1.449-1.027 1.449-0.891 0.289-1.715 0.289-2.574 0.395-3.703 0.172-7.301 0.84-10.902 1.57-7.547 1.258-14.836 3.348-22.059 6.309-30.047 11.816-54.125 36.289-65.77 66.648 20.035-19.262 46.715-30.359 74.434-31.203 27.781-0.84 55.477 7.891 77.785 24.434-4.93-0.488-10.188-0.941-15.375-0.941-61.348 0-110.914 46.969-110.914 104.762 0 57.936 49.566 104.947 110.914 104.947 5.188 0 10.445-0.586 15.375-1.23-22.309 16.688-50.004 25.412-77.785 24.488-27.719-1.035-54.398-12.021-74.434-31.062 9.605 24.574 27.648 45.893 50.637 59.312 13.488 7.582 28.312 12.449 43.539 14.684 2.039 0.082 4.234 0.369 6.238 0.729 1.367 0 1.918-0.646 1.918 0.873 0 0.816 0.082 1.885 0.395 2.533 0.148 3.748 0.707 7.496 1.402 10.902 1.27 7.613 3.457 15.105 6.285 22.123 11.891 30.090 36.473 54.289 66.52 65.785-19.062-20.029-30.047-46.758-30.859-74.268-1.219-27.777 7.637-55.23 24.27-77.453-0.781 4.807-1.055 9.98-1.055 14.961 0 61.445 46.875 110.945 104.773 110.945 58.082 0 104.789-49.5 104.789-110.945 0-5.314-0.395-10.432-0.941-15.607 16.516 22.439 25.43 50.15 24.402 78.1-1.023 27.51-11.922 54.238-31.070 74.268 24.992-9.572 46.066-27.641 59.242-50.678 7.688-13.322 12.586-28.264 14.746-43.58 0.387-2.105 0.465-4.082 0.613-6.27 0-0.986-0.227-1.689 1.023-1.689 1.066 0 1.961-0.359 2.672-0.359 3.77-0.369 7.289-0.701 10.91-1.467 7.445-1.258 14.824-3.764 21.969-6.391 30.16-11.693 54.438-36.48 65.805-66.508-19.957 19.041-46.602 30.027-74.363 31.062-27.688 0.924-55.273-7.801-77.582-24.311 5.012 0.619 9.961 1.053 15.211 1.053zM602.746 471.66c-17.879-17.586-46.59-17.586-64.391 0-17.852 17.826-17.852 46.717 0 64.498 10.902 11.279 26.281 15.223 40.621 12.561 1.887 7.275 3.062 14.684 3.062 22.623 0 41.385-30.594 74.766-68.391 74.766-4.41 0-8.871-0.373-12.875-1.467-0.664 0-1.656 0-2.156-0.357-1.219-0.316-2.316-0.65-3.41-0.961-1.020-0.232-2.035-0.533-3.141-1.002-0.617-0.17-1.559-0.611-2.309-1.014-1.297-0.455-2.352-0.803-3.184-1.273-1.848-0.982-3.68-1.922-5.254-2.631-0.242-0.316-0.664-0.729-1.094-0.729-20.875-12.881-34.961-37.359-34.961-65.332 0-7.939 1.145-15.205 3.148-22.234 14.234 2.473 29.371-1.67 40.352-12.631 17.738-17.711 17.738-46.67 0-64.229-17.801-17.906-46.68-17.906-64.391 0-11.066 10.787-15.305 26.023-12.562 40.418-7.219 1.824-14.438 3.061-22.109 3.061-25.43 0-48.020-11.805-61.602-29.488-0.621-0.844-1.164-1.947-1.875-2.6-0.547-0.777-0.941-1.576-1.324-2.307-0.785-1.041-1.422-2.299-2.051-3.477-0.273-0.512-0.637-1.246-0.938-1.783-0.629-1.221-1.172-2.352-1.883-3.611-0.23-0.973-0.633-2.020-1.020-2.883-0.316-0.842-0.707-1.584-1.031-2.625-1.945-6.172-3.125-12.879-3.125-19.734 0-37.57 33.648-68.383 74.848-68.383 7.91 0 15.441 1.438 22.586 3.125-2.859 14.492 1.406 29.703 12.547 40.746 17.727 17.707 46.668 17.707 64.406 0 17.73-17.684 17.73-46.574 0-64.516-11.215-10.902-26.293-15.039-40.676-12.441-1.996-7.109-3.301-14.625-3.301-22.512 0-41.32 30.797-74.859 68.57-74.859s68.371 33.539 68.371 74.859c0 7.668-1.266 15.184-3.141 22.047-14.211-2.652-29.508 1.645-40.438 12.41-17.625 18.039-17.625 47.023 0 64.742 17.852 17.59 46.629 17.59 64.363 0 11.066-10.926 15.141-26.062 12.676-40.477 7.008-1.688 14.309-3.125 22.16-3.125 41.336 0 74.746 30.812 74.746 68.383 0 4.541-0.473 9.121-1.414 13.24-0.227 0.531-0.277 1.084-0.547 1.795-0.23 1.561-0.508 2.666-0.938 4.23-0.348 0.469-0.539 1.094-0.738 1.902-9.617 27.594-37.781 47.447-71.109 47.447-7.852 0-15.465-1.344-22.598-3.168 2.738-14.395-1.578-29.805-12.484-41.006z" />
<glyph unicode="&#xe61b;" glyph-name="partners" d="M826.8 723.6h-629.6c-50.8 0-91.6-41.2-91.6-91.6v-238.8c0-34.8 30.8-62.8 65.6-62.8v268.8c0 7.2 6 13.2 13.2 13.2s13.2-6 13.2-13.2v-544.4c0-21.6 17.6-39.6 39.2-39.6s39.6 17.6 39.6 39.6v321.2c0 7.2 6 13.2 13.2 13.2s13.2-6 13.2-13.2v-321.2c0-21.6 17.6-39.2 39.2-39.2s39.2 17.6 39.2 39.2v576.8c0 7.2 6 13.2 13.2 13.2h158.4c-0.8-4.4-1.2-8.8-1.2-13.2v-238.8c0-34.8 30.8-62.8 65.6-62.8v268.8c0 7.2 6 13.2 13.2 13.2s13.2-6 13.2-13.2v-544.4c0-21.6 17.6-39.6 39.2-39.6s39.2 17.6 39.2 39.6v321.2c0 7.2 6 13.2 13.2 13.2s13.2-6 13.2-13.2v-321.2c0-21.6 17.6-39.2 39.2-39.2s39.2 17.6 39.2 39.2v544.8c0 7.2 6 13.2 13.2 13.2s13.2-6 13.2-13.2v-268.8c34.8 0 65.6 28.4 65.6 62.8v238.8c-0.4 50.4-41.2 91.6-92 91.6zM740 756.4c43.6 0 78.8 35.2 78.8 78.8s-35.2 78.8-78.8 78.8c-43.6 0-78.8-35.2-78.8-78.8 0.4-43.6 35.6-78.8 78.8-78.8zM294.4 756.4c43.6 0 78.8 35.2 78.8 78.8s-35.2 78.8-78.8 78.8c-43.6 0-78.8-35.2-78.8-78.8s35.2-78.8 78.8-78.8z" />
<glyph unicode="&#xe61c;" glyph-name="payroll" d="M110.956 495.64h360.716v-27.78h-360.716v27.78zM110.956 426.208h235.816v-27.776h-235.816v27.776zM707.088 503.468l-16.42-35.208 38.86 0.092 295.764 188.82-22.452 35.132zM526.512 622.948h206.624v-27.764h-206.624v27.764zM899.364 534.332v-301.764h-716.18v39.2h-57.096v-67.748c0-15.76 12.768-28.532 28.532-28.532h773.288c15.776 0 28.548 12.768 28.548 28.532v362.604c0 1.336-0.216 2.592-0.384 3.9l-56.708-36.192zM774.588 454.664v-98.256h-716.208v305.54h716.212v-72.932l57.092 36.452v65.028c0 15.748-12.8 28.516-28.548 28.516h-773.304c-15.748 0-28.548-12.768-28.548-28.516v-362.636c0-15.76 12.8-28.544 28.548-28.544h773.304c15.748 0 28.548 12.78 28.548 28.544v163.24l-57.096-36.436z" />
<glyph unicode="&#xe61d;" glyph-name="plus-plus" d="M152.204 565.428h258.14v-557.52h-258.14v557.52zM2.5 415.728h557.548v-258.108h-557.548v258.108zM618.716 882.408h258.080v-557.52h-258.080v557.52zM469.008 732.7h557.492v-258.108h-557.492v258.108z" />
<glyph unicode="&#xe61e;" glyph-name="refresh" d="M510.72-62.58v0c-242.004 0-438.96 196.98-438.96 438.972 0 242 196.956 438.576 438.96 438.576v146.452l292.88-219.472-292.88-219.488v146.452c-161.456 0-292.516-131.048-292.516-292.508 0-161.068 131.060-292.912 292.516-292.912 161.088 0.024 292.88 131.844 292.88 292.912 0 18.908-1.916 37.012-5 54.8-7.892 39.668 18.112 77.76 58.044 85.26 39.184 7.924 78.008-18.512 85.144-58.048 5.004-26.776 7.892-54.084 7.892-82.016 0-241.996-196.964-438.964-438.96-438.98z" />
<glyph unicode="&#xe61f;" glyph-name="skyscraper" d="M423.516 136.856v213.036c0 6.932-5.636 12.56-12.568 12.56h-61.42v14.76h-235.156v-14.76h-61.424c-6.94 0-12.576-5.624-12.576-12.56v-213.036h-34.408v-38.24h451.952v38.24h-34.4zM160.48 176.172h-47.356v45.52h47.356v-45.52zM160.48 245.7h-47.356v45.504h47.356v-45.504zM255.524 176.172h-47.352v45.52h47.352v-45.52zM255.524 245.7h-47.352v45.504h47.352v-45.504zM350.564 133.752h-47.364v74.316h47.364v-74.316zM350.564 245.7h-47.364v45.504h47.364v-45.504zM995.56 136.856v633.244c0 6.944-5.628 12.576-12.568 12.576h-61.424v14.744h-235.152v-14.744h-61.416c-6.948 0-12.576-5.628-12.576-12.576v-633.248h-34.416v-38.24h451.952v38.24h-34.4zM732.524 176.172h-47.356v45.52h47.356v-45.52zM732.524 245.7h-47.356v45.504h47.356v-45.504zM732.524 315.676h-47.356v45.504h47.356v-45.504zM732.524 385.668h-47.356v45.488h47.356v-45.488zM732.524 455.636h-47.356v45.52h47.356v-45.52zM732.524 525.628h-47.356v45.488h47.356v-45.488zM732.524 595.624h-47.356v45.488h47.356v-45.488zM732.524 665.6h-47.356v45.504h47.356v-45.504zM827.568 176.172h-47.352v45.52h47.352v-45.52zM827.568 245.7h-47.352v45.504h47.352v-45.504zM827.568 315.676h-47.352v45.504h47.352v-45.504zM827.568 385.668h-47.352v45.488h47.352v-45.488zM827.568 455.636h-47.352v45.52h47.352v-45.52zM827.568 525.628h-47.352v45.488h47.352v-45.488zM827.568 595.624h-47.352v45.488h47.352v-45.488zM827.568 665.6h-47.352v45.504h47.352v-45.504zM922.604 133.752h-47.348v74.316h47.348v-74.316zM922.604 245.7h-47.348v45.504h47.348v-45.504zM922.604 315.676h-47.348v45.504h47.348v-45.504zM922.604 385.668h-47.348v45.488h47.348v-45.488zM922.604 455.636h-47.348v45.52h47.348v-45.52zM922.604 525.628h-47.348v45.488h47.348v-45.488zM922.604 595.624h-47.348v45.488h47.348v-45.488zM922.604 665.6h-47.348v45.504h47.348v-45.504z" />
<glyph unicode="&#xe620;" glyph-name="delivery-01" d="M939.154 752.274l-163.84-163.84c0 0-2.926 0-2.926-2.926-2.926-2.926-5.851-5.851-8.777-8.777-14.629-8.777-32.183-2.926-38.034 11.703l-58.514 99.474c-8.777 14.629-2.926 32.183 11.703 38.034s32.183 2.926 38.034-11.703l38.034-67.291 140.434 140.434c11.703 11.703 29.257 11.703 40.96 0 14.629-5.851 14.629-23.406 2.926-35.109zM582.217 348.526l-90.697 76.069c-11.703 5.851-23.406 14.629-23.406 23.406v2.926c0 2.926 0 8.777 0 11.703l14.629 172.617c0 14.629 11.703 29.257 29.257 29.257 14.629 0 29.257-11.703 29.257-29.257l11.703-155.063 73.143-90.697c11.703-11.703 11.703-29.257 0-40.96-14.629-11.703-35.109-11.703-43.886 0zM605.623 807.863v0c-32.183 8.777-64.366 11.703-99.474 11.703-207.726 0-374.491-166.766-374.491-374.491s166.766-374.491 374.491-374.491 374.491 166.766 374.491 374.491c0 20.48-2.926 38.034-5.851 55.589v0c0 2.926 0 5.851 0 5.851 0 14.629 11.703 29.257 29.257 29.257 14.629 0 29.257-11.703 29.257-29.257 0 0 0 0 0 0 2.926-20.48 5.851-40.96 5.851-64.366 0-236.983-193.097-430.080-430.080-430.080s-433.006 198.949-433.006 435.931c0 236.983 193.097 430.080 430.080 430.080 38.034 0 73.143-5.851 105.326-14.629 2.926 0 5.851 0 8.777-2.926 14.629-5.851 20.48-23.406 14.629-38.034-2.926-8.777-14.629-17.554-29.257-14.629z" />
<glyph unicode="&#xe621;" glyph-name="delivery-02" d="M719.726 696.686h-415.451c-17.554 0-29.257 11.703-29.257 29.257s11.703 29.257 29.257 29.257h415.451c17.554 0 29.257-11.703 29.257-29.257s-14.629-29.257-29.257-29.257zM719.726 573.806h-415.451c-17.554 0-29.257 11.703-29.257 29.257s11.703 29.257 29.257 29.257h415.451c17.554 0 29.257-11.703 29.257-29.257 0-14.629-14.629-29.257-29.257-29.257zM719.726 453.851h-415.451c-17.554 0-29.257 11.703-29.257 29.257s11.703 29.257 29.257 29.257h415.451c17.554 0 29.257-11.703 29.257-29.257s-14.629-29.257-29.257-29.257zM719.726 330.971h-415.451c-17.554 0-29.257 11.703-29.257 29.257s11.703 29.257 29.257 29.257h415.451c17.554 0 29.257-11.703 29.257-29.257 0-14.629-14.629-29.257-29.257-29.257zM719.726 211.017h-415.451c-17.554 0-29.257 11.703-29.257 29.257s11.703 29.257 29.257 29.257h415.451c17.554 0 29.257-11.703 29.257-29.257s-14.629-29.257-29.257-29.257zM827.977 951.223h-631.954c-32.183 0-58.514-26.331-58.514-58.514v-892.343c0-32.183 26.331-58.514 58.514-58.514h634.88c32.183 0 58.514 26.331 58.514 58.514v892.343c-2.926 32.183-29.257 58.514-61.44 58.514zM827.977 3.291h-631.954v889.417h634.88v-889.417z" />
<glyph unicode="&#xe622;" glyph-name="delivery-03" d="M661.211 448h-415.451c-17.554 0-29.257 11.703-29.257 29.257s11.703 29.257 29.257 29.257h415.451c17.554 0 29.257-11.703 29.257-29.257s-14.629-29.257-29.257-29.257zM550.034 325.12h-304.274c-17.554 0-29.257 11.703-29.257 29.257s11.703 29.257 29.257 29.257h304.274c17.554 0 29.257-11.703 29.257-29.257 0-14.629-11.703-29.257-29.257-29.257zM813.349 325.12h-122.88c-17.554 0-29.257 11.703-29.257 29.257s11.703 29.257 29.257 29.257h122.88c17.554 0 29.257-11.703 29.257-29.257 0-14.629-14.629-29.257-29.257-29.257zM918.674 644.023l-105.326 64.366c-8.777 5.851-20.48 8.777-29.257 8.777-11.703 0-26.331-2.926-35.109-11.703l-55.589-40.96-55.589 40.96c-11.703 8.777-23.406 11.703-35.109 11.703s-26.331-2.926-35.109-11.703l-55.589-40.96-55.589 40.96c-11.703 8.777-23.406 11.703-35.109 11.703s-26.331-2.926-35.109-11.703l-55.589-40.96-52.663 40.96c-11.703 5.851-23.406 11.703-38.034 11.703-11.703 0-20.48-2.926-29.257-8.777l-105.326-64.366c-17.554-11.703-29.257-29.257-29.257-49.737v-354.011c0-32.183 26.331-58.514 58.514-58.514h751.909c32.183 0 58.514 26.331 58.514 58.514v354.011c0 20.48-8.777 38.034-26.331 49.737zM886.491 237.349h-748.983v356.937l105.326 64.366 90.697-67.291 90.697 67.291 90.697-67.291 90.697 67.291 90.697-67.291 90.697 67.291 105.326-64.366v-356.937z" />
<glyph unicode="&#xe623;" glyph-name="delivery-04" d="M178.469 246.126h394.971v-29.257h-394.971v29.257zM178.469 170.057h257.463v-29.257h-257.463v29.257zM634.88 383.634h225.28v-29.257h-225.28v29.257zM904.046 486.034h-216.503v-58.514h216.503v-333.531h-784.091v333.531h216.503v58.514h-216.503c-32.183 0-58.514-26.331-58.514-58.514v-333.531c0-32.183 26.331-58.514 58.514-58.514h784.091c32.183 0 58.514 26.331 58.514 58.514v333.531c0 32.183-26.331 58.514-58.514 58.514zM386.194 427.52h251.611v216.503h111.177l-236.983 216.503-236.983-216.503h111.177z" />
<glyph unicode="&#xe624;" glyph-name="delivery-05" d="M953.783 813.714h-883.566c-32.183 0-58.514-26.331-58.514-58.514v-617.326c0-32.183 26.331-58.514 58.514-58.514h886.491c32.183 0 58.514 26.331 58.514 58.514v617.326c-2.926 32.183-26.331 58.514-61.44 58.514zM953.783 137.874h-883.566v617.326h886.491v-617.326zM842.606 591.36h-304.274c-17.554 0-29.257 11.703-29.257 29.257s11.703 29.257 29.257 29.257h304.274c17.554 0 29.257-11.703 29.257-29.257 0-14.629-14.629-29.257-29.257-29.257zM842.606 494.811h-304.274c-17.554 0-29.257 11.703-29.257 29.257s11.703 29.257 29.257 29.257h304.274c17.554 0 29.257-11.703 29.257-29.257s-14.629-29.257-29.257-29.257zM842.606 395.337h-304.274c-17.554 0-29.257 11.703-29.257 29.257s11.703 29.257 29.257 29.257h304.274c17.554 0 29.257-11.703 29.257-29.257 0-14.629-14.629-29.257-29.257-29.257zM394.971 398.263h-207.726c-14.629 0-29.257 11.703-29.257 29.257v207.726c0 14.629 11.703 29.257 29.257 29.257h207.726c14.629 0 29.257-11.703 29.257-29.257v-207.726c0-14.629-14.629-29.257-29.257-29.257zM424.229 181.76h-169.691c-17.554 0-29.257 11.703-29.257 29.257s11.703 29.257 29.257 29.257h169.691c17.554 0 29.257-11.703 29.257-29.257 0-14.629-14.629-29.257-29.257-29.257zM339.383 85.211c-17.554 0-29.257 11.703-29.257 29.257v96.549c0 17.554 11.703 29.257 29.257 29.257s29.257-11.703 29.257-29.257v-96.549c0-14.629-14.629-29.257-29.257-29.257zM769.463 181.76h-169.691c-17.554 0-29.257 11.703-29.257 29.257s11.703 29.257 29.257 29.257h169.691c17.554 0 29.257-11.703 29.257-29.257 0-14.629-11.703-29.257-29.257-29.257zM684.617 85.211c-17.554 0-29.257 11.703-29.257 29.257v96.549c0 17.554 11.703 29.257 29.257 29.257s29.257-11.703 29.257-29.257v-96.549c0-14.629-11.703-29.257-29.257-29.257z" />
<glyph unicode="&#xe625;" glyph-name="delivery-06" d="M131.657 556.251h-32.183c5.851-2.926 8.777-2.926 14.629-2.926 8.777 0 11.703 0 17.554 2.926zM169.691 538.697h-5.851c-14.629-8.777-29.257-14.629-46.811-14.629s-32.183 5.851-46.811 14.629c-38.034-2.926-70.217-40.96-70.217-67.291v-134.583c0 0 0 0 0 0h29.257v131.657c0 8.777 5.851 14.629 14.629 14.629s14.629-5.851 14.629-14.629v-131.657h114.103v131.657c0 8.777 5.851 14.629 14.629 14.629s14.629-5.851 14.629-14.629v-131.657h29.257c0 0 0 0 0 0v134.583c0 29.257-23.406 67.291-61.44 67.291zM172.617 608.914c0-30.701-24.888-55.589-55.589-55.589s-55.589 24.888-55.589 55.589c0 30.701 24.888 55.589 55.589 55.589s55.589-24.888 55.589-55.589zM58.514 301.714h114.103v-166.766h-114.103v166.766zM427.154 556.251h-32.183c5.851-2.926 8.777-2.926 14.629-2.926 8.777 0 14.629 0 17.554 2.926zM465.189 538.697h-5.851c-14.629-8.777-29.257-14.629-46.811-14.629s-32.183 5.851-46.811 14.629c-35.109-2.926-70.217-40.96-70.217-67.291v-134.583c0 0 0 0 0 0h29.257v131.657c0 8.777 5.851 14.629 14.629 14.629s14.629-5.851 14.629-14.629v-131.657h114.103v131.657c0 8.777 5.851 14.629 14.629 14.629s14.629-5.851 14.629-14.629v-131.657h29.257c0 0 0 0 0 0v134.583c2.926 29.257-23.406 67.291-61.44 67.291zM468.114 608.914c0-30.701-24.888-55.589-55.589-55.589s-55.589 24.888-55.589 55.589c0 30.701 24.888 55.589 55.589 55.589s55.589-24.888 55.589-55.589zM356.937 301.714h114.103v-166.766h-114.103v166.766zM722.651 556.251h-32.183c5.851-2.926 8.777-2.926 14.629-2.926 8.777 0 14.629 0 17.554 2.926zM760.686 538.697h-5.851c-14.629-8.777-29.257-14.629-46.811-14.629s-32.183 5.851-46.811 14.629c-35.109-2.926-70.217-40.96-70.217-67.291v-134.583c0 0 0 0 0 0h29.257v131.657c0 8.777 5.851 14.629 14.629 14.629s14.629-5.851 14.629-14.629v-131.657h114.103v131.657c0 8.777 5.851 14.629 14.629 14.629s14.629-5.851 14.629-14.629v-131.657h29.257c0 0 0 0 0 0v134.583c2.926 29.257-23.406 67.291-61.44 67.291zM763.611 608.914c0-30.701-24.888-55.589-55.589-55.589s-55.589 24.888-55.589 55.589c0 30.701 24.888 55.589 55.589 55.589s55.589-24.888 55.589-55.589zM652.434 301.714h114.103v-166.766h-114.103v166.766zM924.526 761.051c-55.589 0-99.474-43.886-99.474-99.474s43.886-99.474 99.474-99.474 99.474 43.886 99.474 99.474c0 55.589-43.886 99.474-99.474 99.474zM906.971 605.989l-35.109 55.589 26.331 14.629 14.629-26.331 52.663 55.589 20.48-20.48-78.994-78.994z" />
<glyph unicode="&#xe626;" glyph-name="delivery-07" d="M860.16 883.931v-868.937h-696.32v868.937h696.32zM860.16 942.446h-696.32c-32.183 0-58.514-26.331-58.514-58.514v-868.937c0-32.183 26.331-58.514 58.514-58.514h699.246c32.183 0 58.514 26.331 58.514 58.514v868.937c-2.926 32.183-29.257 58.514-61.44 58.514v0zM228.206 807.863h564.663v-143.36h-564.663v143.36zM228.206 541.623h149.211v-111.177h-149.211v111.177zM435.931 541.623h149.211v-111.177h-149.211v111.177zM646.583 541.623h149.211v-111.177h-149.211v111.177zM228.206 371.931h149.211v-111.177h-149.211v111.177zM435.931 371.931h149.211v-111.177h-149.211v111.177zM646.583 371.931h149.211v-111.177h-149.211v111.177zM228.206 202.24h149.211v-111.177h-149.211v111.177zM435.931 202.24h149.211v-111.177h-149.211v111.177zM646.583 202.24h149.211v-111.177h-149.211v111.177z" />
<glyph unicode="&#xe627;" glyph-name="delivery-08" d="M512 421.669l122.88-216.503-93.623-55.589-125.806 219.429-122.88-166.766v544.183l433.006-324.754h-213.577z" />
<glyph unicode="&#xe900;" glyph-name="temp-staffing" horiz-adv-x="1331" d="M491.52 584.192h-6.144c-17.408-11.264-37.888-18.432-59.392-18.432s-41.984 7.168-59.392 18.432c-46.080-3.072-87.040-50.176-87.040-86.016v-168.96c0-1.024 0-1.024 0-2.048h37.888v165.888c0 10.24 8.192 18.432 18.432 18.432s18.432-8.192 18.432-18.432v-164.864h143.36v164.864c0 10.24 8.192 18.432 18.432 18.432s18.432-8.192 18.432-18.432v-164.864h37.888c0 1.024 0 1.024 0 2.048v167.936c0 36.864-32.768 86.016-80.896 86.016zM425.984 739.84c-37.888 0-68.608-30.72-68.608-68.608s30.72-68.608 68.608-68.608c37.888 0 68.608 30.72 68.608 68.608s-30.72 68.608-68.608 68.608zM354.304 286.208h142.336v-211.968h-142.336v211.968zM897.024 314.88c-114.688 0-206.848 93.184-206.848 206.848s93.184 206.848 206.848 206.848 206.848-93.184 206.848-206.848-92.16-206.848-206.848-206.848zM897.024 693.76c-94.208 0-172.032-76.8-172.032-172.032 0-94.208 76.8-172.032 172.032-172.032s172.032 76.8 172.032 172.032c-1.024 94.208-77.824 172.032-172.032 172.032zM1005.568 440.832l-117.76 65.536c-6.144 3.072-9.216 9.216-9.216 15.36v111.616h35.84v-101.376l108.544-60.416-17.408-30.72z" />
<glyph unicode="&#xe901;" glyph-name="temp-to-hire" horiz-adv-x="1331" d="M499.712 584.192h-6.144c-17.408-11.264-37.888-18.432-59.392-18.432s-41.984 7.168-59.392 18.432c-46.080-3.072-87.040-50.176-87.040-86.016v-168.96c0-1.024 0-1.024 0-2.048h37.888v165.888c0 10.24 8.192 18.432 18.432 18.432s18.432-8.192 18.432-18.432v-164.864h143.36v164.864c0 10.24 8.192 18.432 18.432 18.432s18.432-8.192 18.432-18.432v-164.864h37.888c0 1.024 0 1.024 0 2.048v167.936c0 36.864-32.768 86.016-80.896 86.016zM434.176 739.84c-37.888 0-68.608-30.72-68.608-68.608s30.72-68.608 68.608-68.608c37.888 0 68.608 30.72 68.608 68.608s-30.72 68.608-68.608 68.608zM363.52 286.208h142.336v-211.968h-142.336v211.968zM816.128 299.52l-124.928 136.192 63.488 56.32 68.608-72.704 174.080 164.864 55.296-64.512z" />
<glyph unicode="&#xe902;" glyph-name="perm-placement" horiz-adv-x="1331" d="M425.984 732.672h355.328v-22.528h-355.328v22.528zM425.984 675.328h355.328v-22.528h-355.328v22.528zM425.984 617.984h271.36v-22.528h-271.36v22.528zM425.984 504.32h355.328v-22.528h-355.328v22.528zM425.984 446.976h355.328v-22.528h-355.328v22.528zM425.984 390.656h271.36v-22.528h-271.36v22.528zM491.52 209.408h205.824v-22.528h-205.824v22.528zM772.096 198.144h-39.936l20.48 34.816 276.48 157.696 19.456-34.816zM925.696 50.688h-645.12v833.536h645.12v-833.536zM320.512 91.648h563.2v751.616h-563.2c0 0 0-751.616 0-751.616z" />
<glyph unicode="&#xe903;" glyph-name="consultation" horiz-adv-x="1331" d="M717.824 538.112l-103.424 103.424c-10.24 7.168-20.48 14.336-31.744 19.456-26.624 13.312-56.32 20.48-87.040 20.48-52.224 0-100.352-20.48-137.216-56.32-36.864-36.864-57.344-84.992-57.344-136.192 0-46.080 16.384-91.136 48.128-130.048 1.024 3.072 2.048 7.168 4.096 10.24 3.072 7.168 8.192 13.312 13.312 19.456l153.6 153.6-49.152 49.152 27.648 27.648 150.528-150.528c7.168-7.168 18.432-11.264 28.672-11.264 13.312 0 26.624 5.12 35.84 15.36 19.456 19.456 21.504 48.128 4.096 65.536zM547.84 515.584l-153.6-153.6c-5.12-5.12-8.192-13.312-8.192-21.504 0-9.216 3.072-17.408 10.24-23.552 6.144-6.144 14.336-10.24 23.552-10.24 8.192 0 15.36 3.072 21.504 8.192l153.6 153.6-47.104 47.104zM930.816 341.504c40.96 40.96 63.488 93.184 63.488 147.456 0 51.2-20.48 99.328-57.344 136.192s-86.016 56.32-137.216 56.32c-46.080 0-90.112-16.384-124.928-45.056l70.656-70.656c31.744-31.744 30.72-86.016-4.096-120.832-17.408-17.408-40.96-26.624-63.488-26.624-20.48 0-39.936 7.168-54.272 20.48l-153.6-153.6c-6.144-6.144-9.216-13.312-8.192-21.504 0-8.192 4.096-16.384 10.24-23.552 6.144-6.144 14.336-10.24 23.552-10.24 8.192 0 15.36 3.072 21.504 8.192l177.152 176.128 32.768-32.768-7.168-7.168-171.008-167.936c-5.12-5.12-8.192-13.312-8.192-21.504 0-9.216 3.072-17.408 10.24-23.552 6.144-6.144 14.336-10.24 23.552-10.24 8.192 0 15.36 3.072 21.504 8.192l176.128 177.152 29.696-29.696-177.152-177.152c-6.144-6.144-8.192-13.312-8.192-21.504s4.096-16.384 10.24-22.528c6.144-6.144 14.336-10.24 23.552-10.24 8.192 0 15.36 3.072 21.504 8.192l174.080 173.056c29.696 29.696 59.392 59.392 84.992 84.992z" />
<glyph unicode="&#xe904;" glyph-name="executive-search" horiz-adv-x="1331" d="M678.912 563.712h-6.144c-17.408-11.264-37.888-18.432-59.392-18.432s-41.984 7.168-59.392 18.432c-46.080-3.072-87.040-50.176-87.040-86.016v-168.96c0-1.024 0-1.024 0-2.048h37.888v165.888c0 10.24 8.192 18.432 18.432 18.432s18.432-8.192 18.432-18.432v-164.864h143.36v164.864c0 10.24 8.192 18.432 18.432 18.432s18.432-8.192 18.432-18.432v-164.864h37.888c0 1.024 0 1.024 0 2.048v167.936c0 36.864-33.792 86.016-80.896 86.016zM613.376 719.36c-37.888 0-68.608-30.72-68.608-68.608s30.72-68.608 68.608-68.608c37.888 0 68.608 30.72 68.608 68.608s-30.72 68.608-68.608 68.608zM647.168 166.4c-209.92 0-380.928 171.008-380.928 379.904 0 209.92 171.008 379.904 380.928 379.904s379.904-171.008 379.904-379.904c0-209.92-169.984-379.904-379.904-379.904zM647.168 890.368c-190.464 0-345.088-154.624-345.088-344.064 0-190.464 154.624-344.064 345.088-344.064s344.064 154.624 344.064 344.064c0 190.464-153.6 344.064-344.064 344.064zM1086.464 57.856c12.288-14.336 10.24-34.816-3.072-47.104v0c-14.336-12.288-34.816-10.24-47.104 3.072l-174.080 199.68c-12.288 14.336-10.24 34.816 3.072 47.104v0c14.336 12.288 34.816 10.24 47.104-3.072l174.080-199.68zM541.696 198.144c40.96-14.336 84.992-22.528 131.072-22.528 4.096 0 7.168 0 11.264 0v89.088h-142.336v-66.56z" />
<glyph unicode="&#xe905;" glyph-name="group-recruit" horiz-adv-x="1331" d="M263.168 587.264h-6.144c-17.408-11.264-37.888-18.432-59.392-18.432s-41.984 7.168-59.392 18.432c-46.080-4.096-87.040-51.2-87.040-87.040v-168.96c0-1.024 0-1.024 0-2.048h37.888v165.888c0 10.24 8.192 18.432 18.432 18.432s18.432-8.192 18.432-18.432v-164.864h143.36v164.864c0 10.24 8.192 18.432 18.432 18.432s18.432-8.192 18.432-18.432v-164.864h37.888c0 1.024 0 1.024 0 2.048v167.936c0 36.864-32.768 87.040-80.896 87.040zM197.632 741.888c-37.888 0-68.608-30.72-68.608-68.608s30.72-68.608 68.608-68.608c37.888 0 68.608 30.72 68.608 68.608s-30.72 68.608-68.608 68.608zM125.952 288.256h142.336v-211.968h-142.336v211.968zM707.584 587.264h-6.144c-17.408-11.264-37.888-18.432-59.392-18.432s-41.984 7.168-59.392 18.432c-46.080-3.072-87.040-50.176-87.040-86.016v-168.96c0-1.024 0-1.024 0-2.048h37.888v164.864c0 10.24 8.192 18.432 18.432 18.432s18.432-8.192 18.432-18.432v-164.864h143.36v164.864c0 10.24 8.192 18.432 18.432 18.432s18.432-8.192 18.432-18.432v-164.864h37.888c0 1.024 0 1.024 0 2.048v167.936c0 36.864-32.768 87.040-80.896 87.040zM642.048 741.888c-37.888 0-68.608-30.72-68.608-68.608s30.72-68.608 68.608-68.608c37.888 0 68.608 30.72 68.608 68.608s-30.72 68.608-68.608 68.608zM571.392 288.256h142.336v-211.968h-142.336v211.968zM1152 587.264h-5.12c-17.408-11.264-37.888-18.432-59.392-18.432s-41.984 7.168-59.392 18.432c-46.080-3.072-87.040-50.176-87.040-86.016v-168.96c0-1.024 0-1.024 0-2.048h37.888v164.864c0 10.24 8.192 18.432 18.432 18.432s18.432-8.192 18.432-18.432v-164.864h143.36v164.864c0 10.24 8.192 18.432 18.432 18.432s18.432-8.192 18.432-18.432v-164.864h37.888c0 1.024 0 1.024 0 2.048v167.936c-1.024 36.864-33.792 87.040-81.92 87.040zM1086.464 741.888c-37.888 0-68.608-30.72-68.608-68.608s30.72-68.608 68.608-68.608c37.888 0 68.608 30.72 68.608 68.608s-30.72 68.608-68.608 68.608zM1015.808 288.256h142.336v-211.968h-142.336v211.968z" />
<glyph unicode="&#xe906;" glyph-name="place-for-everyone-06" horiz-adv-x="1331" d="M717.824 538.112l-103.424 103.424c-10.24 7.168-20.48 14.336-31.744 19.456-26.624 13.312-56.32 20.48-87.040 20.48-52.224 0-100.352-20.48-137.216-56.32-36.864-36.864-57.344-84.992-57.344-136.192 0-46.080 16.384-91.136 48.128-130.048 1.024 3.072 2.048 7.168 4.096 10.24 3.072 7.168 8.192 13.312 13.312 19.456l153.6 153.6-49.152 49.152 27.648 27.648 150.528-150.528c7.168-7.168 18.432-11.264 28.672-11.264 13.312 0 26.624 5.12 35.84 15.36 19.456 19.456 21.504 48.128 4.096 65.536zM547.84 515.584l-153.6-153.6c-5.12-5.12-8.192-13.312-8.192-21.504 0-9.216 3.072-17.408 10.24-23.552 6.144-6.144 14.336-10.24 23.552-10.24 8.192 0 15.36 3.072 21.504 8.192l153.6 153.6-47.104 47.104zM930.816 341.504c40.96 40.96 63.488 93.184 63.488 147.456 0 51.2-20.48 99.328-57.344 136.192s-86.016 56.32-137.216 56.32c-46.080 0-90.112-16.384-124.928-45.056l70.656-70.656c31.744-31.744 30.72-86.016-4.096-120.832-17.408-17.408-40.96-26.624-63.488-26.624-20.48 0-39.936 7.168-54.272 20.48l-153.6-153.6c-6.144-6.144-9.216-13.312-8.192-21.504 0-8.192 4.096-16.384 10.24-23.552 6.144-6.144 14.336-10.24 23.552-10.24 8.192 0 15.36 3.072 21.504 8.192l177.152 176.128 32.768-32.768-7.168-7.168-171.008-167.936c-5.12-5.12-8.192-13.312-8.192-21.504 0-9.216 3.072-17.408 10.24-23.552 6.144-6.144 14.336-10.24 23.552-10.24 8.192 0 15.36 3.072 21.504 8.192l176.128 177.152 29.696-29.696-177.152-177.152c-6.144-6.144-8.192-13.312-8.192-21.504s4.096-16.384 10.24-22.528c6.144-6.144 14.336-10.24 23.552-10.24 8.192 0 15.36 3.072 21.504 8.192l174.080 173.056c29.696 29.696 59.392 59.392 84.992 84.992z" />
<glyph unicode="&#xe907;" glyph-name="place-for-everyone-08" horiz-adv-x="1331" d="M263.168 587.264h-6.144c-17.408-11.264-37.888-18.432-59.392-18.432s-41.984 7.168-59.392 18.432c-46.080-4.096-87.040-51.2-87.040-87.040v-168.96c0-1.024 0-1.024 0-2.048h37.888v165.888c0 10.24 8.192 18.432 18.432 18.432s18.432-8.192 18.432-18.432v-164.864h143.36v164.864c0 10.24 8.192 18.432 18.432 18.432s18.432-8.192 18.432-18.432v-164.864h37.888c0 1.024 0 1.024 0 2.048v167.936c0 36.864-32.768 87.040-80.896 87.040zM197.632 741.888c-37.888 0-68.608-30.72-68.608-68.608s30.72-68.608 68.608-68.608c37.888 0 68.608 30.72 68.608 68.608s-30.72 68.608-68.608 68.608zM125.952 288.256h142.336v-211.968h-142.336v211.968zM707.584 587.264h-6.144c-17.408-11.264-37.888-18.432-59.392-18.432s-41.984 7.168-59.392 18.432c-46.080-3.072-87.040-50.176-87.040-86.016v-168.96c0-1.024 0-1.024 0-2.048h37.888v164.864c0 10.24 8.192 18.432 18.432 18.432s18.432-8.192 18.432-18.432v-164.864h143.36v164.864c0 10.24 8.192 18.432 18.432 18.432s18.432-8.192 18.432-18.432v-164.864h37.888c0 1.024 0 1.024 0 2.048v167.936c0 36.864-32.768 87.040-80.896 87.040zM642.048 741.888c-37.888 0-68.608-30.72-68.608-68.608s30.72-68.608 68.608-68.608c37.888 0 68.608 30.72 68.608 68.608s-30.72 68.608-68.608 68.608zM571.392 288.256h142.336v-211.968h-142.336v211.968zM1152 587.264h-5.12c-17.408-11.264-37.888-18.432-59.392-18.432s-41.984 7.168-59.392 18.432c-46.080-3.072-87.040-50.176-87.040-86.016v-168.96c0-1.024 0-1.024 0-2.048h37.888v164.864c0 10.24 8.192 18.432 18.432 18.432s18.432-8.192 18.432-18.432v-164.864h143.36v164.864c0 10.24 8.192 18.432 18.432 18.432s18.432-8.192 18.432-18.432v-164.864h37.888c0 1.024 0 1.024 0 2.048v167.936c-1.024 36.864-33.792 87.040-81.92 87.040zM1086.464 741.888c-37.888 0-68.608-30.72-68.608-68.608s30.72-68.608 68.608-68.608c37.888 0 68.608 30.72 68.608 68.608s-30.72 68.608-68.608 68.608zM1015.808 288.256h142.336v-211.968h-142.336v211.968z" />
<glyph unicode="&#xe908;" glyph-name="Why-Companies-02" horiz-adv-x="1823" d="M352.256 563.712h-5.12c-14.336-10.24-31.744-16.384-50.176-16.384s-35.84 6.144-50.176 15.36c-38.912-3.072-73.728-43.008-73.728-72.704v-142.336c0 0 0-1.024 0-1.024h31.744v139.264c0 8.192 7.168 15.36 15.36 15.36s15.36-7.168 15.36-15.36v-140.288h120.832v140.288c0 8.192 7.168 15.36 15.36 15.36s15.36-7.168 15.36-15.36v-140.288h32.768c0 1.024 0 1.024 0 1.024v143.36c1.024 30.72-27.648 73.728-67.584 73.728zM295.936 694.784c-31.744 0-58.368-25.6-58.368-58.368 0-31.744 25.6-58.368 58.368-58.368 31.744 0 58.368 25.6 58.368 58.368 0 31.744-25.6 58.368-58.368 58.368zM236.544 310.784h120.832v-179.2h-120.832v179.2zM676.864 563.712h-5.12c-14.336-10.24-31.744-16.384-50.176-16.384s-35.84 6.144-50.176 15.36c-38.912-3.072-73.728-43.008-73.728-72.704v-142.336c0 0 0-1.024 0-1.024h31.744v139.264c0 8.192 7.168 15.36 15.36 15.36s15.36-7.168 15.36-15.36v-140.288h120.832v140.288c0 8.192 7.168 15.36 15.36 15.36s15.36-7.168 15.36-15.36v-140.288h32.768c0 1.024 0 1.024 0 1.024v143.36c1.024 30.72-26.624 73.728-67.584 73.728zM621.568 694.784c-31.744 0-58.368-25.6-58.368-58.368 0-31.744 25.6-58.368 58.368-58.368 31.744 0 58.368 25.6 58.368 58.368 0 31.744-26.624 58.368-58.368 58.368zM561.152 310.784h120.832v-179.2h-120.832v179.2zM1001.472 563.712h-5.12c-14.336-10.24-31.744-16.384-50.176-16.384s-35.84 6.144-50.176 15.36c-38.912-3.072-73.728-43.008-73.728-72.704v-142.336c0 0 0-1.024 0-1.024h31.744v139.264c0 8.192 7.168 15.36 15.36 15.36s15.36-7.168 15.36-15.36v-140.288h120.832v140.288c0 8.192 7.168 15.36 15.36 15.36s15.36-7.168 15.36-15.36v-140.288h32.768c0 1.024 0 1.024 0 1.024v143.36c1.024 30.72-26.624 73.728-67.584 73.728zM946.176 694.784c-31.744 0-58.368-25.6-58.368-58.368 0-31.744 25.6-58.368 58.368-58.368 31.744 0 58.368 25.6 58.368 58.368 0 31.744-25.6 58.368-58.368 58.368zM885.76 310.784h120.832v-179.2h-120.832v179.2zM1327.104 563.712h-5.12c-14.336-10.24-31.744-16.384-50.176-16.384s-35.84 6.144-50.176 15.36c-38.912-3.072-73.728-43.008-73.728-72.704v-142.336c0 0 0-1.024 0-1.024h31.744v139.264c0 8.192 7.168 15.36 15.36 15.36s15.36-7.168 15.36-15.36v-140.288h120.832v140.288c0 8.192 7.168 15.36 15.36 15.36s15.36-7.168 15.36-15.36v-140.288h31.744c0 1.024 0 1.024 0 1.024v143.36c2.048 30.72-26.624 73.728-66.56 73.728zM1271.808 694.784c-31.744 0-58.368-25.6-58.368-58.368 0-31.744 25.6-58.368 58.368-58.368 31.744 0 58.368 25.6 58.368 58.368-1.024 31.744-26.624 58.368-58.368 58.368zM1211.392 310.784h120.832v-179.2h-120.832v179.2zM1651.712 563.712h-5.12c-14.336-10.24-31.744-16.384-50.176-16.384s-35.84 6.144-50.176 15.36c-38.912-3.072-73.728-43.008-73.728-72.704v-142.336c0 0 0-1.024 0-1.024h31.744v139.264c0 8.192 7.168 15.36 15.36 15.36s15.36-7.168 15.36-15.36v-140.288h120.832v140.288c0 8.192 7.168 15.36 15.36 15.36s15.36-7.168 15.36-15.36v-140.288h31.744c0 1.024 0 1.024 0 1.024v143.36c2.048 30.72-25.6 73.728-66.56 73.728zM1596.416 694.784c-31.744 0-58.368-25.6-58.368-58.368 0-31.744 25.6-58.368 58.368-58.368 31.744 0 58.368 25.6 58.368 58.368 0 31.744-26.624 58.368-58.368 58.368zM1536 310.784h120.832v-179.2h-120.832v179.2z" />
<glyph unicode="&#xe909;" glyph-name="Why-Companies-04" horiz-adv-x="1823" d="M240.64 563.712h-5.12c-14.336-10.24-31.744-16.384-50.176-16.384s-35.84 6.144-50.176 15.36c-38.912-3.072-73.728-43.008-73.728-72.704v-142.336c0 0 0-1.024 0-1.024h31.744v139.264c0 8.192 7.168 15.36 15.36 15.36s15.36-7.168 15.36-15.36v-140.288h121.856v140.288c0 8.192 7.168 15.36 15.36 15.36s15.36-7.168 15.36-15.36v-140.288h32.768c0 1.024 0 1.024 0 1.024v143.36c0 30.72-27.648 73.728-68.608 73.728zM185.344 694.784c-31.744 0-58.368-25.6-58.368-58.368 0-31.744 25.6-58.368 58.368-58.368 31.744 0 58.368 25.6 58.368 58.368 0 31.744-26.624 58.368-58.368 58.368zM124.928 310.784h120.832v-179.2h-120.832v179.2zM566.272 563.712h-5.12c-14.336-10.24-31.744-16.384-50.176-16.384s-35.84 6.144-50.176 15.36c-38.912-3.072-73.728-43.008-73.728-72.704v-142.336c0 0 0-1.024 0-1.024h31.744v139.264c0 8.192 7.168 15.36 15.36 15.36s15.36-7.168 15.36-15.36v-140.288h120.832v140.288c0 8.192 7.168 15.36 15.36 15.36s15.36-7.168 15.36-15.36v-140.288h32.768c0 1.024 0 1.024 0 1.024v143.36c1.024 30.72-27.648 73.728-67.584 73.728zM509.952 694.784c-31.744 0-58.368-25.6-58.368-58.368 0-31.744 25.6-58.368 58.368-58.368 31.744 0 58.368 25.6 58.368 58.368 0 31.744-25.6 58.368-58.368 58.368zM450.56 310.784h120.832v-179.2h-120.832v179.2zM890.88 563.712h-5.12c-14.336-10.24-31.744-16.384-50.176-16.384s-35.84 6.144-50.176 15.36c-38.912-3.072-73.728-43.008-73.728-72.704v-142.336c0 0 0-1.024 0-1.024h31.744v139.264c0 8.192 7.168 15.36 15.36 15.36s15.36-7.168 15.36-15.36v-140.288h120.832v140.288c0 8.192 7.168 15.36 15.36 15.36s15.36-7.168 15.36-15.36v-140.288h32.768c0 1.024 0 1.024 0 1.024v143.36c1.024 30.72-26.624 73.728-67.584 73.728zM835.584 694.784c-31.744 0-58.368-25.6-58.368-58.368 0-31.744 25.6-58.368 58.368-58.368 31.744 0 58.368 25.6 58.368 58.368 0 31.744-26.624 58.368-58.368 58.368zM775.168 310.784h120.832v-179.2h-120.832v179.2zM1692.672 563.712h-5.12c-14.336-10.24-31.744-16.384-50.176-16.384s-35.84 6.144-50.176 15.36c-38.912-3.072-73.728-43.008-73.728-72.704v-142.336c0 0 0-1.024 0-1.024h31.744v139.264c0 8.192 7.168 15.36 15.36 15.36s15.36-7.168 15.36-15.36v-140.288h120.832v140.288c0 8.192 7.168 15.36 15.36 15.36s15.36-7.168 15.36-15.36v-140.288h31.744c0 1.024 0 1.024 0 1.024v143.36c2.048 30.72-25.6 73.728-66.56 73.728zM1637.376 694.784c-31.744 0-58.368-25.6-58.368-58.368 0-31.744 25.6-58.368 58.368-58.368 31.744 0 58.368 25.6 58.368 58.368 0 31.744-25.6 58.368-58.368 58.368zM1576.96 310.784h120.832v-179.2h-120.832v179.2zM1189.888 474.624h66.56v-185.344h-66.56v185.344zM1130.496 416.256h185.344v-66.56h-185.344v66.56z" />
</font>
</defs>
</svg>
