<?xml version="1.0" encoding="utf-8"?>
<!-- Generator: Adobe Illustrator 22.1.0, SVG Export Plug-In . SVG Version: 6.00 Build 0)  -->
<svg version="1.1" id="Layer_1" xmlns="http://www.w3.org/2000/svg" xmlns:xlink="http://www.w3.org/1999/xlink" x="0px" y="0px"
	 viewBox="0 0 42 42" style="enable-background:new 0 0 42 42;" xml:space="preserve">
<style type="text/css">
	.st0{fill:#E8E8E8;}
</style>
<g>
	<path class="st0" d="M25.8,19.7c-0.9,1-2.5,1-3.4,0s-0.9-2.5,0-3.4c0.6-0.6,1.4-0.8,2.2-0.7c0.1-0.4,0.2-0.8,0.2-1.2
		c0-2.2-1.6-4-3.7-4c-0.2,0-0.5,0-0.7,0.1h-0.1c-0.1,0-0.1,0-0.2,0s-0.1,0.1-0.2,0.1c0,0-0.1,0-0.1,0.1c-0.1,0-0.1,0-0.2,0.1
		c-0.1,0-0.2,0.1-0.3,0.1c0,0,0,0-0.1,0c-1.1,0.7-1.9,2-1.9,3.5c0,0.4,0.1,0.8,0.2,1.2c0.8-0.1,1.6,0.1,2.1,0.7
		c0.9,0.9,0.9,2.5,0,3.4c-0.9,1-2.5,1-3.4,0c-0.6-0.6-0.8-1.4-0.7-2.1c-0.4-0.1-0.8-0.2-1.2-0.2c-1.4,0-2.6,0.6-3.3,1.6l-0.1,0.1
		l-0.1,0.1c0,0-0.1,0.1-0.1,0.2c0,0,0,0.1-0.1,0.1c0,0-0.1,0.1-0.1,0.2s0,0.1-0.1,0.2V20c-0.1,0.3-0.2,0.7-0.2,1c0,2,1.8,3.6,4,3.6
		c0.4,0,0.8-0.1,1.2-0.2c-0.1-0.8,0.1-1.6,0.7-2.2c0.9-0.9,2.5-0.9,3.4,0c1,0.9,1,2.5,0,3.4c-0.6,0.6-1.4,0.8-2.2,0.7
		c-0.1,0.4-0.2,0.8-0.2,1.2c0,2.2,1.6,4,3.7,4c2,0,3.6-1.8,3.6-4c0-0.4-0.1-0.8-0.2-1.2c-0.8,0.1-1.6-0.1-2.2-0.7
		c-1-0.9-1-2.5,0-3.4c1-1,2.5-1,3.4,0c0.6,0.6,0.8,1.4,0.7,2.1c0.4,0.1,0.8,0.2,1.2,0.2c2.2,0,4-1.6,4-3.6c0-0.2,0-0.5-0.1-0.7v-0.1
		c0-0.1-0.1-0.2-0.1-0.2v-0.1c-0.5-1.5-2-2.5-3.8-2.5c-0.4,0-0.8,0.1-1.2,0.2C26.6,18.3,26.3,19.1,25.8,19.7 M0,42h42V0H0V42z
		 M28.3,15.4c3.3,0,5.9,2.5,5.9,5.6s-2.7,5.6-5.9,5.6c-0.3,0-0.6,0-0.8-0.1c1.2,0.9,2.7,1.4,4.1,1.3c1.5-0.1,2.9-0.6,4-1.7
		c-0.9,2.2-3,3.8-5.5,4c-0.1,2.4-1.7,4.6-4,5.4c1-1.1,1.6-2.5,1.7-4s-0.4-3-1.3-4.1c0,0.3,0.1,0.5,0.1,0.8c0,3.3-2.5,5.9-5.6,5.9
		s-5.6-2.6-5.6-5.9c0-0.3,0-0.5,0.1-0.8c-0.9,1.2-1.4,2.7-1.3,4.1c0,1.5,0.6,2.9,1.6,4c-1.3-0.5-2.4-1.5-3.2-2.7
		c-0.4-0.7-0.7-1.5-0.8-2.3c0-0.1,0-0.2,0-0.3c0-0.1,0-0.1-0.1-0.1s-0.1,0-0.2,0c-0.2,0-0.4,0-0.6-0.1c-0.4-0.1-0.8-0.2-1.2-0.3
		c-1.6-0.6-2.9-1.9-3.5-3.5c1.1,1,2.5,1.6,4,1.7c1.5,0,3-0.4,4.1-1.3c-0.3,0-0.5,0-0.8,0c-3.3,0-5.9-2.5-5.9-5.6s2.6-5.6,5.9-5.6
		c0.3,0,0.6,0,0.8,0.1c-1.2-0.9-2.6-1.3-4.1-1.3s-2.9,0.6-4,1.6c0.5-1.3,1.5-2.5,2.7-3.2c0.7-0.4,1.5-0.7,2.3-0.8c0.1,0,0.2,0,0.3,0
		s0.1,0,0.1-0.1v-0.1c0-0.2,0-0.4,0.1-0.6c0.1-0.4,0.2-0.8,0.3-1.2c0.6-1.6,1.9-2.9,3.5-3.5c-1,1.1-1.6,2.5-1.6,4
		c-0.1,1.5,0.4,2.9,1.3,4.1c0-0.3-0.1-0.5-0.1-0.8c0-3.3,2.5-5.9,5.6-5.9s5.6,2.6,5.6,5.9c0,0.3,0,0.6-0.1,0.8
		c0.9-1.2,1.4-2.7,1.3-4.1c-0.1-1.5-0.6-2.9-1.7-4C27.1,6.8,28.3,7.8,29,9c0.4,0.7,0.7,1.5,0.8,2.3c0,0.1,0,0.2,0,0.3s0,0.1,0.1,0.1
		s0.1,0,0.2,0c0.2,0,0.4,0,0.6,0.1c0.4,0.1,0.8,0.2,1.2,0.3c1.6,0.6,2.9,1.9,3.5,3.5c-1.1-1-2.5-1.6-4-1.6c-1.5-0.1-2.9,0.4-4.1,1.3
		C27.8,15.4,28,15.4,28.3,15.4"/>
</g>
</svg>
