<?xml version="1.0" encoding="utf-8"?>
<!-- Generator: Adobe Illustrator 22.1.0, SVG Export Plug-In . SVG Version: 6.00 Build 0)  -->
<svg version="1.1" id="Layer_1" xmlns="http://www.w3.org/2000/svg" xmlns:xlink="http://www.w3.org/1999/xlink" x="0px" y="0px"
	 viewBox="0 0 41.5 42" style="enable-background:new 0 0 41.5 42;" xml:space="preserve">
<style type="text/css">
	.st0{fill:#FFB607;}
</style>
<g>
	<g>
		<path class="st0" d="M28,22.7c-0.5,0.8-1.4,1.2-2.3,1.2c-0.4,0-0.9-0.2-1.3-0.4c1-1.5,1-3.4,0-4.9c0.4-0.2,0.8-0.3,1.3-0.3
			c1,0.1,1.8,0.5,2.3,1.3c0.4-0.2,0.8-0.5,1.1-0.8c1.1-1,1.6-2.5,1.4-3.9v-0.2c0-0.1,0-0.1,0-0.2l-0.1-0.2c0,0,0,0,0-0.1
			c-0.1-0.1-0.1-0.1-0.1-0.2s-0.1-0.1-0.1-0.2c-0.1-0.1-0.1-0.2-0.1-0.2c-0.2-0.4-0.4-0.7-0.7-1c-1.8-1.7-4.6-1.6-6.2,0.2
			c-0.3,0.3-0.6,0.7-0.8,1.1c0.7,0.5,1.2,1.4,1.2,2.3c0,0.4-0.1,0.8-0.3,1.2c-1.5-1-3.4-1-4.9,0C18.1,17,18,16.6,18,16.1
			c0-0.9,0.4-1.8,1.2-2.3c-0.2-0.4-0.5-0.8-0.8-1.1c-1.6-1.8-4.4-1.9-6.2-0.3c-1.6,1.8-1.5,4.6,0.3,6.2c0.3,0.3,0.7,0.6,1.1,0.8
			c0.5-0.8,1.4-1.2,2.3-1.2c0.4,0,0.9,0.2,1.3,0.4c-1,1.5-1,3.4,0,4.9c-0.4,0.2-0.9,0.3-1.3,0.3c-0.9-0.1-1.8-0.5-2.3-1.3
			c-0.4,0.2-0.8,0.5-1.1,0.8c-1.7,1.7-1.8,4.4-0.2,6.2c0.2,0.2,0.4,0.4,0.6,0.5l0.2,0.1l0.2,0.1l0.1,0.1c1.7,0.7,3.8,0.4,5.1-1
			c0.3-0.3,0.6-0.7,0.8-1.1c-1.2-0.8-1.6-2.3-1-3.6c1.5,1,3.4,1,4.9,0c0.7,1.2,0.4,2.8-0.8,3.6c0.2,0.4,0.5,0.8,0.8,1.1
			c1.6,1.8,4.4,2,6.2,0.3c0.2-0.2,0.4-0.4,0.5-0.6c0-0.1,0.1-0.1,0.1-0.2l0.1-0.2l0.1-0.1l0.1-0.2c0-0.1,0.1-0.2,0.1-0.3v-0.1
			c0.3-1.6-0.1-3.3-1.3-4.4C28.8,23.2,28.4,22.9,28,22.7z M0,0v42h41.5V0H0z M31.7,31.6c-2.6,2.5-6.8,2.3-9.3-0.3
			c-0.2-0.2-0.4-0.4-0.6-0.7c-0.4-0.4-0.7-1-0.9-1.5c-0.1,0.5-0.4,1-0.7,1.5c-0.2,0.2-0.4,0.5-0.6,0.7c-2.5,2.6-6.7,2.7-9.3,0.2
			c-2.5-2.6-2.4-6.8,0.2-9.3c0.2-0.2,0.8-0.6,0.8-0.6c0.4-0.3,0.9-0.5,1.3-0.7c-0.5-0.2-1-0.5-1.5-0.8c-0.2-0.2-0.5-0.4-0.7-0.6
			c-2.6-2.5-2.8-6.6-0.3-9.3c2.6-2.5,6.8-2.3,9.3,0.3c0.1,0.2,0.6,0.8,0.6,0.8c0.3,0.4,0.6,0.9,0.8,1.4c0.1-0.5,0.3-1,0.7-1.4
			c0.2-0.2,0.4-0.5,0.6-0.7c2.5-2.6,6.7-2.7,9.3-0.2c2.5,2.6,2.4,6.8-0.2,9.3c-0.2,0.2-0.4,0.4-0.7,0.6c-0.5,0.3-0.9,0.5-1.4,0.7
			l1.4,0.9c0.2,0.2,0.5,0.4,0.7,0.6C33.9,25,34,29.1,31.7,31.6z"/>
	</g>
</g>
</svg>
