<?xml version="1.0" encoding="utf-8"?>
<!-- Generator: Adobe Illustrator 18.1.1, SVG Export Plug-In . SVG Version: 6.00 Build 0)  -->
<svg version="1.1" id="Layer_1" xmlns="http://www.w3.org/2000/svg" xmlns:xlink="http://www.w3.org/1999/xlink" x="0px" y="0px"
	 viewBox="0 0 29.1 29.1" enable-background="new 0 0 29.1 29.1" xml:space="preserve">
<path fill="#646469" d="M23.5,0H5.6C2.5,0,0,2.5,0,5.6v17.8c0,3.1,2.5,5.6,5.6,5.6h17.8c3.1,0,5.6-2.5,5.6-5.6V5.6
	C29.1,2.5,26.6,0,23.5,0z M9.4,23.8H5.5V11.4h3.9V23.8z M7.5,9.7c-1.2,0-2.2-1-2.2-2.2c0-1.2,1-2.2,2.2-2.2c1.2,0,2.2,1,2.2,2.2
	C9.7,8.7,8.7,9.7,7.5,9.7z M23.9,23.8H20v-6c0-1.4,0-3.3-2-3.3c-2,0-2.3,1.6-2.3,3.2v6.1h-3.9V11.4h3.7v1.7h0c0.5-1,1.8-2,3.7-2
	c3.9,0,4.6,2.6,4.6,5.9V23.8z"/>
</svg>
