<?xml version="1.0" encoding="utf-8"?>
<!-- Generator: Adobe Illustrator 22.1.0, SVG Export Plug-In . SVG Version: 6.00 Build 0)  -->
<svg version="1.1" id="Layer_1" xmlns="http://www.w3.org/2000/svg" xmlns:xlink="http://www.w3.org/1999/xlink" x="0px" y="0px"
	 viewBox="0 0 42.2 42" style="enable-background:new 0 0 42.2 42;" xml:space="preserve">
<style type="text/css">
	.st0{fill:#E8E8E8;}
</style>
<g>
	<path class="st0" d="M30.7,21c0-0.2,0-0.4-0.1-0.6v-0.1c0-0.1,0-0.1,0-0.2s0-0.1,0-0.2v-0.1c0-0.1,0-0.1-0.1-0.2
		c0-0.1-0.1-0.2-0.1-0.3c0,0,0,0,0-0.1c-0.6-1-1.8-1.7-3.1-1.7c-0.4,0-0.7,0.1-1.1,0.1c0.1,0.7-0.1,1.4-0.6,1.9
		c-0.9,0.9-2.2,0.9-3.1,0s-0.9-2.2,0-3.1c0.5-0.5,1.3-0.7,2-0.6c0.1-0.3,0.1-0.7,0.1-1.1c0-1.2-0.6-2.3-1.4-3l-0.1-0.1
		c0,0-0.1,0-0.1-0.1c-0.1,0-0.1-0.1-0.2-0.1h-0.1c-0.1,0-0.1-0.1-0.2-0.1c0,0-0.1,0-0.1-0.1h-0.1c-0.3-0.1-0.6-0.1-1-0.1
		c-1.8,0-3.3,1.6-3.3,3.6c0,0.4,0.1,0.7,0.2,1.1c0.7-0.1,1.4,0.1,2,0.6c0.9,0.9,0.9,2.2,0,3.1s-2.2,0.9-3.1,0
		c-0.5-0.5-0.7-1.3-0.6-2c-0.3-0.1-0.7-0.2-1.1-0.2c-2,0-3.6,1.5-3.6,3.3s1.6,3.3,3.6,3.3c0.4,0,0.7-0.1,1.1-0.1
		c-0.1-0.7,0.1-1.4,0.6-1.9c0.9-0.9,2.3-0.9,3.1,0c0.8,0.9,0.8,2.2,0,3.1c-0.5,0.5-1.3,0.7-1.9,0.6c-0.1,0.3-0.2,0.7-0.2,1.1
		c0,2,1.5,3.6,3.3,3.6c0.2,0,0.4,0,0.6-0.1h0.1c0.1,0,0.1,0,0.2,0h0.1c1.3-0.5,2.3-1.8,2.3-3.4c0-0.4-0.1-0.7-0.1-1.1
		c-0.7,0.1-1.4-0.1-2-0.6c-0.9-0.9-0.9-2.2,0-3.1s2.2-0.9,3.1,0c0.5,0.5,0.7,1.3,0.6,2c0.3,0.1,0.7,0.2,1.1,0.1
		C29.1,24.3,30.7,22.8,30.7,21z"/>
	<path class="st0" d="M34.3,8.2V0H7.9v8.2H0v25.6h7.9V42h26.4v-8.2h7.9V8.3L34.3,8.2z M31.9,28.5c-0.6,0.4-1.4,0.6-2.1,0.7
		c-0.1,0-0.2,0-0.3,0c-0.1,0-0.1,0-0.1,0v0.1c0,0.2,0,0.4-0.1,0.5c-0.1,0.4-0.2,0.7-0.3,1c-0.6,1.5-1.8,2.6-3.2,3.2
		c0.9-1,1.4-2.2,1.5-3.6c0-1.3-0.4-2.7-1.2-3.7c0,0.2,0,0.5,0,0.7c0,2.9-2.3,5.3-5,5.3c-2.8,0-5-2.4-5-5.3c0-0.3,0-0.5,0.1-0.8
		C15.4,27.7,15,29,15,30.4c0,1.3,0.6,2.6,1.5,3.6c-2-0.8-3.5-2.7-3.6-4.9C10.7,29,8.8,27.6,8,25.5c1,0.9,2.3,1.4,3.6,1.5
		c1.3,0,2.7-0.4,3.7-1.2c-0.2,0-0.5,0-0.7,0c-3,0-5.3-2.3-5.3-5c0-2.8,2.4-5,5.3-5c0.2,0,0.5,0,0.7,0.1c-1.1-0.8-2.4-1.2-3.7-1.2
		S9,15.3,8,16.2c0.5-1.2,1.3-2.2,2.4-2.9c0.6-0.4,1.4-0.6,2.1-0.7c0.1,0,0.2,0,0.3,0s0.1,0,0.1,0v-0.1c0-0.2,0-0.4,0.1-0.5
		c0.1-0.4,0.2-0.7,0.3-1.1c0.6-1.4,1.7-2.6,3.2-3.2c-0.9,1-1.5,2.2-1.5,3.6c0,1.3,0.4,2.7,1.2,3.7c0-0.2,0-0.5,0-0.7
		c0-2.9,2.3-5.3,5-5.3c2.8,0,5,2.4,5,5.3c0,0.3,0,0.5-0.1,0.7c0.8-1.1,1.2-2.4,1.2-3.7s-0.6-2.6-1.5-3.6C27,8.2,28,9,28.7,10.1
		c0.4,0.6,0.6,1.4,0.7,2.1c0,0.1,0,0.2,0,0.3s0,0.1,0,0.1h0.1c0.2,0,0.4,0,0.5,0.1c0.4,0.1,0.7,0.2,1.1,0.3c1.4,0.6,2.6,1.8,3.2,3.2
		c-1-0.9-2.2-1.4-3.6-1.5c-1.3-0.1-2.7,0.4-3.7,1.2c0.2,0,0.5,0,0.7,0c2.9,0,5.3,2.2,5.3,5s-2.4,5-5.3,5c-0.3,0-0.5,0-0.7,0
		c1.1,0.8,2.4,1.2,3.8,1.2c1.3-0.1,2.6-0.6,3.6-1.5C33.9,26.8,33,27.9,31.9,28.5z"/>
</g>
</svg>
