<?xml version="1.0" encoding="utf-8"?>
<!-- Generator: Adobe Illustrator 22.1.0, SVG Export Plug-In . SVG Version: 6.00 Build 0)  -->
<svg version="1.1" id="Layer_1" xmlns="http://www.w3.org/2000/svg" xmlns:xlink="http://www.w3.org/1999/xlink" x="0px" y="0px"
	 viewBox="0 0 43 43" style="enable-background:new 0 0 43 43;" xml:space="preserve">
<style type="text/css">
	.st0{fill:#8DC63F;}
</style>
<g>
	<path class="st0" d="M21.8,39.1l-0.2,0c-0.8,0-1.6-0.2-2.3-0.5c0.8-0.5,1.5-1,2.1-1.7c0.1-0.1,0.1-0.2,0.2-0.2
		c0.1,0.1,0.1,0.2,0.2,0.2c0.6,0.6,1.3,1.2,2.1,1.7c-0.2,0.1-0.3,0.2-0.5,0.2l0.1,0.1l-0.2,0.1l0.1-0.1c0,0-0.1,0-0.2,0l-0.1,0
		c-0.1,0-0.2,0-0.3,0.1l0,0l0,0c0,0-0.1,0-0.1,0l0,0C22.4,39,22.1,39.1,21.8,39.1L21.8,39.1L21.8,39.1z M11.1,35.2
		c-0.8-0.3-1.5-0.7-2-1.3c-0.6-0.6-1-1.2-1.3-2c0.9,0.2,1.8,0.3,2.7,0.3c0.1,0,0.2,0,0.3,0c0,0.1,0,0.2,0,0.3
		C10.8,33.5,10.9,34.4,11.1,35.2L11.1,35.2z M32,35.2c0.2-0.9,0.3-1.8,0.3-2.7l0,0l0,0c0-0.1,0-0.2,0-0.3c0.1,0,0.2,0,0.3,0
		c0.9,0,1.8-0.1,2.7-0.3c-0.1,0.2-0.1,0.3-0.2,0.5l0.1,0l-0.1,0.2l0-0.1c0,0,0,0,0,0.1L35,32.5l0,0l0,0.1c0,0.1-0.1,0.2-0.1,0.2l0,0
		l0,0c0,0,0,0.1,0,0.1l0,0c-0.2,0.3-0.4,0.6-0.7,0.9C33.4,34.5,32.8,34.9,32,35.2L32,35.2z M16,35c-0.3-0.8-0.4-1.6-0.4-2.4
		c0-0.6,0.1-1.2,0.2-1.8c0.2,0,0.4,0,0.6,0c0.5,0,0.9-0.1,1.4-0.2c0.3,0.6,0.7,1.1,1.3,1.5c-0.3,0.5-0.7,1-1.1,1.5
		C17.4,34.1,16.7,34.6,16,35L16,35z M27.1,34.9c-0.7-0.3-1.4-0.8-2-1.4c-0.4-0.4-0.8-0.9-1.1-1.5c0.5-0.4,1-0.9,1.3-1.6
		c0.4,0.1,0.9,0.2,1.3,0.2c0.2,0,0.4,0,0.6-0.1c0.2,0.6,0.3,1.2,0.3,1.8l0,0.1C27.5,33.3,27.4,34.1,27.1,34.9L27.1,34.9z M10.5,27.5
		c-0.8,0-1.6-0.1-2.4-0.4c0.3-0.7,0.8-1.4,1.4-2c0.4-0.4,0.9-0.8,1.5-1.1c0.4,0.5,0.9,1,1.5,1.3c-0.2,0.5-0.2,0.9-0.2,1.4
		c0,0.2,0,0.4,0.1,0.6C11.7,27.4,11.1,27.5,10.5,27.5L10.5,27.5z M32.6,27.4c-0.6,0-1.2-0.1-1.9-0.3c0-0.2,0-0.4,0-0.6
		c0-0.5-0.1-0.9-0.2-1.3c0.6-0.3,1.1-0.8,1.5-1.3c0.5,0.3,1.1,0.7,1.5,1.1c0.6,0.6,1.1,1.2,1.4,2C34.2,27.3,33.4,27.4,32.6,27.4
		L32.6,27.4z M4.4,23.9c-0.3-0.7-0.5-1.5-0.5-2.3c0-0.8,0.2-1.6,0.5-2.3c0.5,0.8,1,1.5,1.7,2.1c0.1,0.1,0.1,0.1,0.2,0.2
		c-0.1,0.1-0.2,0.1-0.2,0.2l0,0C5.5,22.4,4.9,23.1,4.4,23.9L4.4,23.9z M38.6,23.7c-0.5-0.8-1-1.5-1.7-2.1c-0.1-0.1-0.2-0.1-0.2-0.2
		c0.1-0.1,0.2-0.2,0.2-0.2c0.6-0.6,1.2-1.3,1.7-2.1c0,0.1,0,0.1,0.1,0.1l0,0.1l0,0.1c0,0,0,0.1,0,0.1l0,0l0,0c0,0.1,0,0.1,0.1,0.2
		l0,0.1l0,0c0,0.1,0,0.1,0,0.2l0,0l0,0c0,0.1,0,0.1,0,0.2l0,0l0,0c0.1,0.3,0.1,0.7,0.1,1l0,0l0,0C39.1,22.2,38.9,23,38.6,23.7
		L38.6,23.7z M11,19.1c-0.6-0.3-1.1-0.7-1.5-1.1c-0.6-0.6-1.1-1.2-1.4-2c0.8-0.3,1.6-0.4,2.4-0.4l0,0c0.6,0,1.2,0.1,1.9,0.3
		c0,0.2,0,0.4,0,0.6c0,0.5,0.1,0.9,0.2,1.3C11.9,18.1,11.3,18.5,11,19.1L11,19.1z M32,19c-0.4-0.5-0.9-1-1.5-1.3
		c0.2-0.5,0.2-0.9,0.2-1.4c0-0.2,0-0.4,0-0.6c0.6-0.2,1.2-0.3,1.9-0.3c0.8,0,1.6,0.1,2.4,0.4c-0.3,0.7-0.8,1.4-1.4,2
		C33.1,18.3,32.6,18.7,32,19L32,19z M17.7,12.5c-0.4-0.1-0.9-0.2-1.3-0.2c-0.2,0-0.4,0-0.7,0.1c-0.2-0.6-0.3-1.3-0.3-1.9
		c0-0.8,0.1-1.6,0.4-2.4c0.7,0.3,1.4,0.8,2,1.4c0.4,0.4,0.8,0.9,1.1,1.5C18.4,11.3,18,11.9,17.7,12.5L17.7,12.5z M25.2,12.4
		c-0.3-0.6-0.7-1.1-1.3-1.5c0.3-0.5,0.7-1.1,1.1-1.5c0.6-0.6,1.2-1,2-1.4c0.3,0.8,0.4,1.6,0.4,2.4c0,0.6-0.1,1.2-0.2,1.8
		c-0.2,0-0.4,0-0.6,0C26.1,12.2,25.6,12.3,25.2,12.4L25.2,12.4z M7.7,11.1C8,10.3,8.4,9.6,9,9.1c0.4-0.4,0.9-0.7,1.4-1l0,0l0,0
		l0.1,0c0.1,0,0.1,0,0.2-0.1c0.1,0,0.1-0.1,0.2-0.1c0,0,0.1,0,0.1,0c0,0,0.1,0,0.1,0c-0.2,0.9-0.3,1.8-0.3,2.7c0,0.1,0,0.2,0,0.3
		c-0.1,0-0.2,0-0.3,0l0,0l0,0l0,0l-0.1,0C9.5,10.8,8.6,10.9,7.7,11.1L7.7,11.1z M35.2,11c-0.9-0.2-1.8-0.3-2.7-0.3
		c-0.1,0-0.2,0-0.3,0c0-0.1,0-0.2,0-0.3c0-0.9-0.1-1.8-0.3-2.7c0.1,0,0.1,0,0.2,0.1l0.1,0l0,0c0,0,0.1,0,0.1,0.1l0,0l0,0
		c0.1,0,0.1,0.1,0.2,0.1c0,0,0.1,0,0.1,0l0.1,0c0,0,0.1,0.1,0.2,0.1l0,0l0,0c0,0,0.1,0.1,0.1,0.1l0,0l0,0c0.3,0.2,0.6,0.4,0.9,0.7
		C34.5,9.6,34.9,10.2,35.2,11L35.2,11z M31.9,7.7c0-0.1,0-0.1,0-0.2l0,0l0.3,0.1L31.9,7.7L31.9,7.7z M21.4,6.3
		c-0.1-0.1-0.1-0.2-0.2-0.2c-0.6-0.6-1.3-1.2-2.1-1.7c0.7-0.4,1.5-0.5,2.3-0.5c0.6,0,1.1,0.1,1.7,0.3l0,0l0,0l0,0
		c0.1,0,0.1,0,0.2,0.1l0,0c0.1,0,0.1,0,0.2,0.1c0,0,0.1,0,0.1,0l0,0l0,0c0,0,0.1,0,0.1,0.1c-0.8,0.5-1.5,1-2.1,1.7
		C21.6,6.1,21.5,6.2,21.4,6.3L21.4,6.3z"/>
	<path class="st0" d="M21.6,42.5L21.6,42.5c-2.4,0-4.7-0.9-6.5-2.7c-0.3-0.3-0.5-0.6-0.8-0.9C14,39,13.6,39,13.2,39
		c-2.5,0-4.8-0.9-6.5-2.6c-1.8-1.8-2.8-4.3-2.7-6.9c0-0.2,0-0.5,0.1-0.7c-0.3-0.2-0.6-0.5-0.9-0.8c-1.8-1.7-2.7-4-2.7-6.4
		c0-2.6,1.1-5,3-6.7c0.2-0.2,0.4-0.3,0.6-0.5C4,14.1,4,13.8,4,13.6C3.9,11,4.8,8.5,6.6,6.7C7.2,6,8,5.5,8.9,5l0.1,0L9,5l0.1-0.1
		c0.1-0.1,0.2-0.1,0.3-0.2l0,0l0,0l0.1,0l0.1,0c0.1,0,0.1,0,0.2-0.1l0,0l0,0l0.1,0l0,0l0,0l0.1,0c0.1,0,0.2-0.1,0.3-0.1
		c0.2,0,0.3-0.1,0.5-0.1l0.1,0l0.1,0l0,0l0,0l0.2,0l0,0l0,0l0.1,0l0,0l0,0c0.1,0,0.2,0,0.3-0.1C12.2,4.1,12.7,4,13.1,4
		c0.4,0,0.8,0,1.2,0.1c0.2-0.2,0.3-0.4,0.5-0.6c1.8-2,4.2-3,6.7-3c0.9,0,1.9,0.1,2.8,0.4l0.1,0l0,0L24.5,1c0.1,0,0.3,0.1,0.4,0.1
		l0.1,0l0.1,0c0.1,0,0.1,0.1,0.2,0.1l0,0l0.1,0l0.1,0l0,0l0,0l0.1,0l0,0l0,0c0.1,0,0.2,0.1,0.2,0.1c0.2,0.1,0.3,0.2,0.5,0.3l0,0l0,0
		l0,0l0,0L26.5,2l0,0l0,0l0.1,0l0,0l0,0c0.1,0.1,0.2,0.1,0.3,0.2c0.3,0.3,0.6,0.5,0.9,0.8c0.3,0.3,0.5,0.6,0.8,0.9
		C29.1,4,29.5,4,29.8,4C30.6,4,31.3,4,32,4.2l0.1,0l0,0l0,0l0,0l0,0l0,0l0.2,0.1l0,0l0,0l0,0l0.1,0l0.3,0.1l0.1,0l0.1,0
		c0.1,0,0.3,0.1,0.4,0.2c0.1,0.1,0.2,0.1,0.3,0.1C33.9,4.9,34,4.9,34,4.9l0.1,0L34.2,5c0.1,0.1,0.3,0.1,0.4,0.2
		c0.1,0.1,0.3,0.2,0.4,0.2l0,0l0,0c0.5,0.3,0.9,0.7,1.3,1.1c1.8,1.8,2.8,4.2,2.7,6.9c0,0.2,0,0.5-0.1,0.7c0.3,0.3,0.6,0.5,0.9,0.8
		c0.5,0.5,1,1.1,1.4,1.7l0,0l0,0l0,0l0,0l0,0l0,0l0,0l0.1,0.2l0,0l0,0l0,0l0.1,0.1c0,0.1,0.1,0.1,0.1,0.2l0,0l0,0l0,0l0,0.1l0,0.1
		c0.1,0.1,0.1,0.3,0.2,0.4c0.1,0.1,0.1,0.2,0.1,0.3l0,0.1c0,0.1,0.1,0.2,0.1,0.2l0,0.1l0,0.1c0,0.2,0.1,0.3,0.1,0.4
		c0,0.2,0.1,0.3,0.1,0.4l0,0l0,0c0.1,0.6,0.2,1.1,0.2,1.7c0,2.6-1,5-3,6.7c-0.2,0.2-0.4,0.3-0.6,0.5c0.2,1.8-0.1,3.6-0.8,5.2l0,0.1
		l0,0l0,0l0,0l0,0c0,0,0,0.1,0,0.1l0,0l0,0.1l0,0c-0.1,0.1-0.1,0.2-0.2,0.4c0,0.1-0.1,0.1-0.1,0.2l0,0l0,0.1c-0.3,0.5-0.7,1-1.2,1.4
		c-1.7,1.7-4,2.6-6.4,2.7c-0.4,0-0.8,0-1.2-0.1c-1.1,1.4-2.6,2.5-4.2,3.1l-0.1,0l0,0l0,0l0,0l-0.1,0l-0.1,0l0,0
		c-0.1,0-0.3,0.1-0.4,0.1c-0.1,0-0.1,0-0.2,0l-0.1,0C22.8,42.4,22.2,42.5,21.6,42.5L21.6,42.5z M16.6,38.4c1.4,1.3,3.1,2.1,5,2.1
		c0.5,0,0.9-0.1,1.4-0.2l0,0c0.1,0,0.1,0,0.1,0c0.1,0,0.3-0.1,0.4-0.1l0.1,0l0.1,0l0,0l0,0l0,0c1-0.4,1.9-0.9,2.7-1.7
		c-1.4-0.5-2.7-1.3-3.8-2.4c-0.1-0.1-0.2-0.2-0.3-0.3l-0.9-1l-0.9,1c-0.1,0.1-0.2,0.2-0.3,0.3C19.3,37,18,37.8,16.6,38.4L16.6,38.4z
		 M6.1,30c0,1.9,0.7,3.7,2.1,5c1.3,1.3,3.1,2,5,2c-0.6-1.4-1-2.9-1-4.4c0-0.1,0-0.3,0-0.4l0-1.3l-1.3,0l-0.1,0c-0.1,0-0.2,0-0.3,0
		C9,30.9,7.5,30.6,6.1,30L6.1,30z M30.9,30.8l0.1,1.3c0,0.1,0,0.3,0,0.4c0,1.5-0.3,3-0.9,4.4c1.9,0,3.7-0.7,5-2.1
		c0.3-0.3,0.6-0.7,0.9-1.1l0,0l0,0c0,0,0.1-0.1,0.1-0.1c0.1-0.1,0.1-0.2,0.2-0.3l0-0.1c0-0.1,0-0.1,0.1-0.1l0-0.1
		c0.5-1,0.7-2,0.7-3.1c-1.4,0.6-2.9,1-4.4,1c-0.1,0-0.3,0-0.4,0L30.9,30.8L30.9,30.8z M14.8,29.2l-0.3,1.1c-0.2,0.8-0.3,1.5-0.3,2.3
		c0,1.4,0.4,2.9,1.1,4.1c1.4-0.4,2.6-1.1,3.6-2.1c0.5-0.5,1-1.2,1.4-1.9l0.5-1L19.9,31c-0.8-0.5-1.2-1.4-1.2-2.3c0-0.2,0-0.4,0-0.5
		c-0.1,0.1-0.2,0.3-0.3,0.4c-0.5,0.5-1.2,0.8-2,0.8c-0.2,0-0.3,0-0.5,0L14.8,29.2L14.8,29.2z M22.2,31.6l0.6,1
		c0.4,0.7,0.9,1.3,1.4,1.9c1,1,2.3,1.7,3.7,2.1c0.7-1.2,1-2.6,1-4.1c0-0.8-0.1-1.6-0.3-2.4l-0.3-1.1l-1.1,0.2c-0.2,0-0.3,0-0.5,0
		c-0.8,0-1.5-0.3-2-0.8c-0.1-0.1-0.2-0.2-0.3-0.4c0,0.2,0,0.3,0,0.5c0,0.9-0.4,1.8-1.2,2.3L22.2,31.6L22.2,31.6z M6.4,27.8
		c1.2,0.7,2.6,1.1,4.1,1.1c0,0,0,0,0,0c0.8,0,1.6-0.1,2.3-0.3l1.1-0.3l-0.2-1.1c-0.2-0.9,0.1-1.8,0.8-2.5c0.1-0.1,0.3-0.2,0.4-0.3
		c-0.1,0-0.3,0-0.4,0c-0.9,0-1.8-0.5-2.3-1.2l-0.6-0.9l-1,0.5c-0.7,0.4-1.4,0.9-1.9,1.4C7.5,25.2,6.7,26.4,6.4,27.8L6.4,27.8z
		 M29.1,28.1l1.1,0.3c0.8,0.2,1.6,0.3,2.4,0.3c1.5,0,2.9-0.4,4.1-1.1c-0.4-1.4-1.1-2.6-2.2-3.6c-0.6-0.6-1.2-1-1.9-1.4l-1-0.5L31,23
		c-0.5,0.8-1.4,1.2-2.3,1.2c-0.2,0-0.3,0-0.4,0c0.1,0.1,0.2,0.2,0.3,0.3c0.7,0.6,1,1.6,0.8,2.5L29.1,28.1L29.1,28.1z M16.4,23.8
		c0.8,0,1.5,0.3,2,0.8c0.7,0.7,0.9,1.6,0.8,2.5c0.5-0.8,1.4-1.2,2.3-1.3c0.9,0,1.8,0.5,2.3,1.2c0-0.2,0-0.3,0-0.5
		c0-0.8,0.3-1.5,0.8-2c0.5-0.5,1.2-0.8,2-0.8c0.1,0,0.3,0,0.4,0c-0.7-0.5-1.2-1.3-1.2-2.3c0-1,0.5-1.8,1.2-2.3c-0.2,0-0.3,0-0.5,0
		c-0.7,0-1.5-0.3-2-0.8c-0.5-0.5-0.8-1.2-0.8-2c0-0.2,0-0.3,0-0.5c-0.1,0.1-0.2,0.3-0.3,0.4c-0.5,0.5-1.2,0.8-2,0.8
		c-0.9,0-1.8-0.5-2.3-1.1c0,0.2,0,0.3,0,0.5c0,0.8-0.3,1.5-0.8,2c-0.5,0.5-1.2,0.8-2,0.8c-0.2,0-0.3,0-0.4,0
		c0.1,0.1,0.2,0.2,0.3,0.3c0.5,0.5,0.8,1.2,0.8,2c0,0.7-0.3,1.5-0.8,2c-0.1,0.1-0.3,0.2-0.4,0.3C16.1,23.8,16.3,23.8,16.4,23.8
		L16.4,23.8z M4.6,16.6c-1.3,1.4-2.1,3.1-2.1,5c0,1.9,0.7,3.6,2.1,5c0.5-1.4,1.3-2.7,2.4-3.8c0.1-0.1,0.2-0.2,0.3-0.3l1-0.9l-1-0.9
		c-0.1-0.1-0.2-0.2-0.3-0.3C6,19.3,5.1,18,4.6,16.6L4.6,16.6z M34.7,21.4l1,0.9c0.1,0.1,0.2,0.2,0.3,0.3c1.1,1.1,1.9,2.4,2.4,3.8
		c1.3-1.4,2.1-3.1,2.1-5c0-0.5,0-0.9-0.1-1.4c0-0.1,0-0.2-0.1-0.3c0-0.1,0-0.2-0.1-0.2l0-0.1l0,0l0,0l0-0.1c0-0.1-0.1-0.2-0.1-0.2
		c0-0.1-0.1-0.2-0.1-0.2l0-0.1l0,0c0-0.1-0.1-0.2-0.1-0.3l0,0l0,0c-0.1-0.2-0.2-0.3-0.3-0.5l0,0l0,0l-0.1-0.1
		c-0.3-0.5-0.7-0.9-1.1-1.3c-0.5,1.4-1.3,2.7-2.4,3.8c-0.1,0.1-0.2,0.2-0.3,0.3L34.7,21.4L34.7,21.4z M6.3,15.3
		c0.4,1.4,1.1,2.6,2.2,3.6c0.5,0.5,1.2,1,1.9,1.4l1,0.6l0.6-0.9c0.5-0.8,1.4-1.2,2.3-1.2c0.2,0,0.3,0,0.5,0
		c-0.1-0.1-0.2-0.2-0.3-0.3c-0.7-0.7-1-1.6-0.8-2.5l0.2-1.1l-1.1-0.3c-0.8-0.2-1.6-0.3-2.4-0.3C9,14.2,7.6,14.6,6.3,15.3L6.3,15.3z
		 M28.6,18.6c0.9,0,1.8,0.4,2.3,1.2l0.6,0.9l1-0.5c0.7-0.4,1.4-0.9,1.9-1.4c1-1,1.7-2.3,2.1-3.7c-1.2-0.7-2.7-1.1-4.1-1.1
		c-0.8,0-1.6,0.1-2.3,0.3l-1.1,0.3l0.2,1.1c0.2,0.9-0.1,1.8-0.8,2.5c-0.1,0.1-0.3,0.2-0.4,0.3C28.3,18.7,28.5,18.6,28.6,18.6
		L28.6,18.6z M22.1,11.3l0.9,0.6c0.8,0.5,1.2,1.4,1.2,2.3c0,0.2,0,0.3,0,0.5c0.1-0.1,0.2-0.3,0.3-0.4c0.5-0.5,1.2-0.8,2-0.8
		c0.2,0,0.3,0,0.5,0l1.1,0.2l0.3-1.1c0.2-0.8,0.3-1.5,0.3-2.3c0-1.4-0.4-2.8-1.1-4.1c-1.4,0.4-2.6,1.1-3.6,2.1
		c-0.6,0.6-1,1.2-1.4,1.9L22.1,11.3L22.1,11.3z M16.4,13.6c0.7,0,1.5,0.3,2,0.8c0.1,0.1,0.2,0.2,0.3,0.3c0-0.2,0-0.3,0-0.5
		c0-0.9,0.4-1.8,1.2-2.3l0.9-0.6l-0.6-1c-0.4-0.7-0.9-1.3-1.4-1.9c-1-1-2.3-1.7-3.6-2.1c-0.7,1.2-1.1,2.7-1,4.1
		c0,0.8,0.1,1.6,0.3,2.3l0.3,1.1l1.1-0.2C16.1,13.6,16.2,13.6,16.4,13.6L16.4,13.6z M11.4,6.3L11.4,6.3c-0.1,0-0.3,0.1-0.4,0.1
		c-0.1,0-0.1,0-0.2,0.1l-0.1,0l-0.1,0c0,0,0,0-0.1,0l0,0c-0.1,0-0.1,0-0.2,0.1l0,0l0,0l-0.1,0c-0.1,0-0.2,0.1-0.2,0.1l0,0l0,0l0,0
		l0,0l0,0l-0.1,0l0,0l0,0C9.1,7.2,8.5,7.6,8,8.1c-1.3,1.3-2,3.1-2,5c1.4-0.6,2.9-1,4.4-1l0.1,0c0.1,0,0.2,0,0.3,0l1.3,0l-0.1-1.3
		c0-0.1,0-0.3,0-0.4c0-1.5,0.3-3,1-4.4c-0.3,0-0.6,0-1,0.1c-0.1,0-0.2,0-0.3,0l0,0l0,0l-0.1,0l-0.1,0L11.4,6.3L11.4,6.3L11.4,6.3z
		 M32.5,12.1L32.5,12.1c1.5,0,3,0.3,4.4,1c0-1.9-0.7-3.7-2.1-5c-0.3-0.3-0.7-0.6-1.1-0.9C33.7,7.1,33.6,7,33.5,7
		c-0.1,0-0.2-0.1-0.2-0.1l0,0l0,0l0,0l0,0l-0.1,0c-0.1,0-0.1-0.1-0.2-0.1c-0.1,0-0.2-0.1-0.2-0.1l-0.1,0l-0.1,0
		c-0.1,0-0.1-0.1-0.2-0.1l0,0l0,0c-0.2-0.1-0.4-0.1-0.5-0.2l0,0l0,0l-0.1,0C31,6.1,30.4,6,29.9,6c0.6,1.4,1,2.9,1,4.4
		c0,0.1,0,0.3,0,0.4l-0.1,1.4l1.4-0.1C32.3,12.1,32.4,12.1,32.5,12.1L32.5,12.1z M16.5,4.6C17.9,5.1,19.2,6,20.3,7
		c0.1,0.1,0.2,0.2,0.3,0.3l0.9,1l0.9-1c0.1-0.1,0.2-0.2,0.3-0.3C23.7,6,25,5.1,26.4,4.6c-0.2-0.2-0.5-0.4-0.7-0.6
		c-0.1,0-0.1-0.1-0.2-0.1l0,0l0,0l-0.1-0.1l-0.1,0l-0.1,0l-0.1-0.1l0,0c-0.1-0.1-0.2-0.1-0.3-0.2c-0.1,0-0.1-0.1-0.2-0.1l-0.1,0
		l-0.1,0c0,0,0,0-0.1,0l0,0l0,0c0,0-0.1,0-0.1-0.1l0,0l0,0l-0.1,0C24,3,23.9,3,23.8,2.9l0,0l0,0c0,0-0.1,0-0.1,0l0,0l-0.1,0
		c-0.7-0.2-1.4-0.3-2.1-0.3C19.6,2.5,17.8,3.3,16.5,4.6L16.5,4.6z"/>
</g>
</svg>
