<?xml version="1.0" encoding="utf-8"?>
<!-- Generator: Adobe Illustrator 22.1.0, SVG Export Plug-In . SVG Version: 6.00 Build 0)  -->
<svg version="1.1" id="Layer_1" xmlns="http://www.w3.org/2000/svg" xmlns:xlink="http://www.w3.org/1999/xlink" x="0px" y="0px"
	 viewBox="0 0 41.5 42" style="enable-background:new 0 0 41.5 42;" xml:space="preserve">
<style type="text/css">
	.st0{fill:#FFB607;}
	.st1{fill:#FFFFFF;}
</style>
<rect class="st0" width="41.5" height="42"/>
<path class="st1" d="M19.9,11.2L19.9,11.2L19.9,11.2z"/>
<path class="st1" d="M31.2,22.5c-0.2-0.2-0.5-0.4-0.7-0.6L29.1,21c0.5-0.2,0.9-0.4,1.4-0.7c0.3-0.2,0.5-0.4,0.7-0.6
	c2.6-2.5,2.7-6.7,0.2-9.3c0,0,0,0,0,0c-2.6-2.5-6.8-2.4-9.3,0.2c0,0,0,0,0,0c-0.2,0.2-0.4,0.5-0.6,0.7c-0.4,0.4-0.6,0.9-0.7,1.4
	c-0.2-0.5-0.5-1-0.8-1.4c0,0-0.5-0.6-0.6-0.8c-2.5-2.6-6.7-2.8-9.3-0.3c-2.5,2.7-2.3,6.8,0.3,9.3c0.2,0.2,0.5,0.4,0.7,0.6
	c0.5,0.3,1,0.6,1.5,0.8c-0.5,0.2-1,0.4-1.4,0.7c0.3-0.2-0.5,0.4-0.7,0.6c-2.6,2.5-2.7,6.7-0.2,9.3c2.6,2.5,6.8,2.4,9.3-0.2
	c0.2-0.2,0.4-0.5,0.6-0.7c0.3-0.5,0.6-1,0.7-1.5c0.2,0.5,0.5,1.1,0.9,1.5c0.2,0.3,0.4,0.5,0.6,0.7c2.5,2.6,6.7,2.8,9.3,0.3
	C34,29.1,33.9,25,31.2,22.5z M23.2,29.3c-0.3-0.3-0.6-0.7-0.8-1.1c1.2-0.8,1.5-2.4,0.8-3.6c-1.5,1-3.4,1-4.9,0
	c-0.6,1.3-0.2,2.8,1,3.6c-0.2,0.4-0.5,0.8-0.8,1.1c-1.3,1.4-3.4,1.7-5.1,1l-0.1-0.1l-0.2-0.1L12.9,30c-0.2-0.1-0.4-0.3-0.6-0.5
	c-1.6-1.8-1.5-4.5,0.2-6.2c0.3-0.3,0.7-0.6,1.1-0.8c0.5,0.8,1.4,1.2,2.3,1.3c0.4,0,0.9-0.1,1.3-0.3c-1-1.5-1-3.4,0-4.9
	c-0.4-0.2-0.9-0.4-1.3-0.4c-0.9,0-1.8,0.4-2.3,1.2c-0.4-0.2-0.8-0.5-1.1-0.8c-1.8-1.6-1.9-4.4-0.3-6.2c1.8-1.6,4.6-1.5,6.2,0.3
	c0.3,0.3,0.6,0.7,0.8,1.1c-0.8,0.5-1.2,1.4-1.2,2.3c0,0.5,0.1,0.9,0.4,1.3c1.5-1,3.4-1,4.9,0c0.2-0.4,0.3-0.8,0.3-1.2
	c0-0.9-0.5-1.8-1.2-2.3c0.2-0.4,0.5-0.8,0.8-1.1c1.6-1.8,4.4-1.9,6.2-0.2c0.3,0.3,0.5,0.6,0.7,1c0,0,0,0.1,0.1,0.2
	c0,0.1,0.1,0.1,0.1,0.2c0,0.1,0,0.1,0.1,0.2c0,0.1,0,0.1,0,0.1l0.1,0.2c0,0.1,0,0.1,0,0.2v0.2c0.2,1.4-0.3,2.9-1.4,3.9
	c-0.3,0.3-0.7,0.6-1.1,0.8c-0.5-0.8-1.3-1.2-2.3-1.3c-0.5,0-0.9,0.1-1.3,0.3c1,1.5,1,3.4,0,4.9c0.4,0.2,0.9,0.4,1.3,0.4
	c0.9,0,1.8-0.4,2.3-1.2c0.4,0.2,0.8,0.5,1.1,0.8c1.2,1.1,1.6,2.8,1.3,4.4c0,0,0,0.1,0,0.1c0,0.1-0.1,0.2-0.1,0.3l-0.1,0.2l-0.1,0.1
	l-0.1,0.2c0,0.1-0.1,0.1-0.1,0.2L29.9,29c-0.1,0.2-0.3,0.4-0.5,0.6C27.6,31.3,24.8,31.1,23.2,29.3z"/>
</svg>
