<?xml version="1.0" encoding="utf-8"?>
<!-- Generator: Adobe Illustrator 28.3.0, SVG Export Plug-In . SVG Version: 6.00 Build 0)  -->
<svg version="1.1" id="Layer_1" xmlns="http://www.w3.org/2000/svg" xmlns:xlink="http://www.w3.org/1999/xlink" x="0px" y="0px"
	 viewBox="0 0 333.1 185.5" style="enable-background:new 0 0 333.1 185.5;" xml:space="preserve">
<style type="text/css">
	.st0{fill:#2CA9E1;}
	.st1{fill:#085F93;}
	.st2{fill:#28AAE1;}
	.st3{fill:#FFFFFF;}
</style>
<g>
	<polygon class="st0" points="140.9,161.5 202.7,151.4 202.5,118.9 157.7,120 	"/>
	<polygon class="st1" points="202.5,151.4 147.2,146 148.9,141.2 202.6,140.4 	"/>
	<polygon class="st2" points="202.7,151.3 98.3,135.1 98.3,110.5 202.7,123.3 	"/>
	<polygon class="st1" points="202.6,138.2 98.2,135.1 98.5,114.5 202.9,125.2 	"/>
	<polygon class="st2" points="228.9,135 98.2,135 98.2,28.6 228.9,28.1 	"/>
	<path class="st3" d="M151.1,63.9c0-1.5-1.1-2.3-3-2.3h-2.7v4.5h2.6C149.9,66.1,151.1,65.4,151.1,63.9 M145.4,60.8h2.7
		c1.2,0,2.5-0.5,2.5-2.1c0-1.2-0.8-2-2.8-2h-2.3L145.4,60.8L145.4,60.8z M152,63.9c0,1.7-1.2,3-3.8,3h-3.7V55.8h3.4
		c2,0,3.5,0.7,3.5,2.7c0,1.1-0.6,2.2-1.7,2.6l0,0C150.9,61.4,152,62.3,152,63.9"/>
	<polygon class="st3" points="154.4,55.8 161,55.8 161,56.7 155.2,56.7 155.2,61 160,61 160,61.8 155.2,61.8 155.2,66.1 161.3,66.1 
		161.3,66.9 154.4,66.9 	"/>
	<path class="st3" d="M162.8,65.3l0.6-0.7c0.8,1,2.1,1.5,3.3,1.5c1.5,0,2.6-0.8,2.6-2c0-1.5-1.2-1.9-2.8-2.5c-1.5-0.6-3.3-1.2-3.3-3
		c0-1.6,1.4-2.8,3.3-2.8c1.1,0,2.4,0.4,3.4,1.2l-0.6,0.7c-0.9-0.7-1.9-1.1-2.8-1.1c-1.2,0-2.3,0.6-2.3,1.9c0,1.3,1.2,1.7,2.6,2.3
		c1.8,0.7,3.4,1.2,3.4,3.3c0,1.8-1.6,3-3.6,3C165.3,67,163.9,66.5,162.8,65.3"/>
	<polygon class="st3" points="174.7,56.7 171.2,56.7 171.2,55.8 179.1,55.8 179.1,56.7 175.6,56.7 175.6,66.9 174.7,66.9 	"/>
	<path class="st3" d="M118.4,77.5l-1.2-3.7l0,0l-1.2,3.7H118.4z M119.1,79.7h-3.9l-0.6,2h-2.7l4.1-11.1h2.5l4.1,11.1h-2.7
		L119.1,79.7z"/>
	<path class="st3" d="M122.5,76.2c0-3.2,2.1-5.7,5.7-5.7c1.5,0,3.2,0.6,4.5,2.1l-1.9,1.6c-0.5-0.6-1.5-1.3-2.5-1.3
		c-1.6,0-3,1.2-3,3.2c0,1.7,1.2,3.1,3,3.1c1,0,1.9-0.5,2.5-1.3l1.9,1.6c-1,1.2-2.5,2.1-4.5,2.1C125.1,81.8,122.5,79.8,122.5,76.2"/>
	<path class="st3" d="M133.5,76.2c0-3.2,2.1-5.7,5.7-5.7c1.5,0,3.2,0.6,4.5,2.1l-1.9,1.6c-0.5-0.6-1.5-1.3-2.5-1.3
		c-1.6,0-3,1.2-3,3.2c0,1.7,1.2,3.1,3,3.1c1,0,1.9-0.5,2.5-1.3l1.9,1.6c-1,1.2-2.5,2.1-4.5,2.1C136.1,81.8,133.5,79.8,133.5,76.2"/>
	<path class="st3" d="M153.1,76.1c0-1.9-1.2-3.3-3-3.3s-3,1.4-3,3.3c0,1.8,1.2,3.3,3,3.3C151.9,79.4,153.1,78,153.1,76.1
		 M144.5,76.1c0-3.3,2.3-5.7,5.7-5.7c3.3,0,5.7,2.3,5.7,5.7c0,3.4-2.4,5.7-5.7,5.7C146.8,81.8,144.5,79.5,144.5,76.1"/>
	<path class="st3" d="M157.3,77.1v-6.5h2.6v6.3c0,1.4,0.7,2.5,1.9,2.5c1.1,0,2-0.9,2-2.5v-6.3h2.6v6.5c0,2.9-1.7,4.8-4.6,4.8
		C159.1,81.8,157.3,80.1,157.3,77.1"/>
	<polygon class="st3" points="177.8,70.6 177.8,81.7 175.1,81.7 170.9,75 170.8,75 170.8,81.7 168.2,81.7 168.2,70.6 170.8,70.6 
		175.1,77.4 175.1,70.6 	"/>
	<polygon class="st3" points="182,72.9 179,72.9 179,70.6 187.5,70.6 187.5,72.9 184.5,72.9 184.5,81.7 182,81.7 	"/>
	<rect x="188.8" y="70.6" class="st3" width="2.6" height="11.1"/>
	<polygon class="st3" points="203,70.6 203,81.7 200.3,81.7 196.1,75 196.1,75 196.1,81.7 193.5,81.7 193.5,70.6 196.1,70.6 
		200.4,77.4 200.4,70.6 	"/>
	<path class="st3" d="M204.5,76.2c0-3.2,2.1-5.7,5.6-5.7c1.6,0,3.3,0.7,4.5,2l-1.9,1.6c-0.6-0.6-1.4-1.1-2.6-1.1
		c-1.6,0-2.9,1.2-2.9,3.3c0,1.8,1.1,3.3,3,3.3c0.7,0,1.2-0.1,1.9-0.5v-1.3H210v-2.2h4.6v5c-1,0.8-2.7,1.4-4.4,1.4
		C207,81.8,204.5,79.8,204.5,76.2"/>
	<polygon class="st3" points="139.7,85.4 147.2,85.4 147.2,87.7 142.3,87.7 142.3,90.2 146.4,90.2 146.4,92.5 142.3,92.5 
		142.3,96.5 139.7,96.5 	"/>
	<rect x="148.7" y="85.4" class="st3" width="2.6" height="11.1"/>
	<path class="st3" d="M155.9,90.6h1.2c1.1,0,1.8-0.6,1.8-1.5c0-0.8-0.6-1.5-1.7-1.5H156v3H155.9z M159.1,96.5l-2.3-3.6h-0.9v3.6
		h-2.6V85.4h4.3c2.7,0,4,1.6,4,3.8c0,1.7-0.8,2.8-2.1,3.3l0,0l2.6,3.9L159.1,96.5L159.1,96.5z"/>
	<polygon class="st3" points="174.7,85.4 174.7,96.5 172.1,96.5 172.1,90.3 172.1,90.3 169.9,94.4 168.2,94.4 166,90.4 165.9,90.4 
		165.9,96.5 163.3,96.5 163.3,85.4 166,85.4 169,91.2 169.1,91.2 172.1,85.4 	"/>
	<path class="st3" d="M176,94.8l1.5-1.9c0.8,0.9,1.8,1.3,2.6,1.3c0.9,0,1.2-0.4,1.2-0.9c0-0.6-0.4-0.9-1.7-1.3
		c-1.7-0.6-3.4-1.4-3.4-3.5c0-1.8,1.6-3.3,3.6-3.3c1.4,0,2.8,0.5,3.8,1.5l-1.5,1.9c-0.9-0.7-1.7-1.1-2.3-1.1s-1,0.3-1,0.9
		c0,0.5,0.4,0.7,1.6,1.2c1.9,0.7,3.4,1.3,3.4,3.4c0,2.6-2.3,3.6-4,3.6C178.6,96.6,177.2,96,176,94.8"/>
	<polygon class="st3" points="113,101 109.5,101 109.5,100.2 117.4,100.2 117.4,101 113.8,101 113.8,111.2 113,111.2 	"/>
	<path class="st3" d="M128.1,105.7c0-2.8-2-4.7-4.6-4.7c-2.7,0-4.6,2.1-4.6,4.7s1.8,4.8,4.6,4.8
		C126.1,110.4,128.1,108.5,128.1,105.7 M118.1,105.7c0-3.1,2.2-5.6,5.5-5.6c3.1,0,5.5,2.2,5.5,5.6s-2.4,5.6-5.5,5.6
		C120.3,111.3,118.1,108.8,118.1,105.7"/>
	<polygon class="st3" points="149.6,100.2 146.1,111.2 145.2,111.2 142.3,101.5 142.3,101.5 139.5,111.2 138.6,111.2 135,100.2 
		135.9,100.2 139,109.8 139,109.8 141.8,100.2 142.8,100.2 145.6,109.8 148.7,100.2 	"/>
	<path class="st3" d="M160.7,105.7c0-2.8-2-4.7-4.6-4.7c-2.7,0-4.6,2.1-4.6,4.7s1.8,4.8,4.6,4.8
		C158.7,110.4,160.7,108.5,160.7,105.7 M150.7,105.7c0-3.1,2.2-5.6,5.5-5.6c3.1,0,5.5,2.2,5.5,5.6s-2.4,5.6-5.5,5.6
		C152.9,111.3,150.7,108.8,150.7,105.7"/>
	<path class="st3" d="M164.9,105.9h2.6c2.1,0,2.9-1.1,2.9-2.5c0-1.6-1-2.4-2.7-2.4h-2.9L164.9,105.9L164.9,105.9z M170.5,111.2
		l-3.1-4.5h-2.5v4.5H164v-11.1h3.8c2.5,0,3.6,1.4,3.6,3.3c0,2-1.2,3-2.9,3.3l3.1,4.5C171.6,111.2,170.5,111.2,170.5,111.2z"/>
	<polygon class="st3" points="176.7,106 174.8,108.2 174.8,111.2 173.9,111.2 173.9,100.2 174.8,100.2 174.8,106.9 174.8,106.9 
		180.5,100.2 181.7,100.2 177.3,105.3 181.8,111.2 180.7,111.2 	"/>
	<polygon class="st3" points="188.2,100.2 195.1,100.2 195.1,101 189.1,101 189.1,105.4 194.2,105.4 194.2,106.2 189.1,106.2 
		189.1,111.2 188.2,111.2 	"/>
	<path class="st3" d="M206.3,105.7c0-2.8-2-4.7-4.6-4.7c-2.7,0-4.6,2.1-4.6,4.7s1.8,4.8,4.6,4.8
		C204.2,110.4,206.3,108.5,206.3,105.7 M196.2,105.7c0-3.1,2.2-5.6,5.5-5.6c3.1,0,5.5,2.2,5.5,5.6s-2.4,5.6-5.5,5.6
		C198.5,111.3,196.2,108.8,196.2,105.7"/>
	<path class="st3" d="M210.5,105.9h2.6c2.1,0,2.9-1.1,2.9-2.5c0-1.6-1-2.4-2.7-2.4h-2.9L210.5,105.9L210.5,105.9z M216.1,111.2
		l-3.1-4.5h-2.5v4.5h-0.9v-11.1h3.8c2.5,0,3.6,1.4,3.6,3.3c0,2-1.2,3-2.9,3.3l3.1,4.5C217.2,111.2,216.1,111.2,216.1,111.2z"/>
	<path class="st3" d="M110.7,43.6c-1.5,0-1.5-0.8-1.5-1.1c0-1.1,1.6-1.3,2.9-1.3h0.6v0.3C112.8,42.5,112.2,43.6,110.7,43.6
		 M114.6,43.4v-4c0-1.4-0.9-2.9-3.5-2.9c-1.2,0-2.5,0.5-3.3,1.2l-0.2,0.2l1.2,1.2l0.3-0.2c0.5-0.4,1-0.8,2-0.8
		c1.2,0,1.7,0.7,1.7,1.5v0.1h-0.9c-3,0-4.6,1.1-4.6,3c0,1.5,1.2,2.6,3,2.6c1.1,0,2-0.3,2.6-1c0,0.2,0,0.4,0,0.6v0.2h1.8v-0.2
		C114.6,44.4,114.6,44,114.6,43.4"/>
	<path class="st3" d="M121.3,42.6c-0.5,0.6-1,0.8-1.8,0.8c-1.4,0-2.3-1-2.3-2.5c0-1.3,0.7-2.6,2.3-2.6c0.7,0,1.3,0.2,1.8,0.8
		l0.1,0.2l1.5-1.3l-0.1-0.2c-0.8-0.9-1.9-1.3-3.2-1.3c-2.6,0-4.4,1.8-4.4,4.4c0,2.6,1.8,4.4,4.4,4.4c1.3,0,2.4-0.4,3.2-1.3l0.1-0.2
		l-1.4-1.4L121.3,42.6z"/>
	<path class="st3" d="M128.5,42.6c-0.5,0.6-1,0.8-1.8,0.8c-1.4,0-2.3-1-2.3-2.5c0-1.3,0.7-2.6,2.3-2.6c0.7,0,1.3,0.2,1.8,0.8
		l0.1,0.2l1.5-1.3l-0.1-0.2c-0.8-0.9-1.9-1.3-3.2-1.3c-2.6,0-4.4,1.8-4.4,4.4c0,2.6,1.8,4.4,4.4,4.4c1.3,0,2.4-0.4,3.2-1.3l0.1-0.2
		l-1.4-1.4L128.5,42.6z"/>
	<path class="st3" d="M134.1,43.4c-1.4,0-2.4-1-2.4-2.5s1-2.5,2.4-2.5s2.4,1,2.4,2.5C136.4,42.4,135.5,43.4,134.1,43.4 M134.1,36.5
		c-2.5,0-4.4,1.9-4.4,4.4s1.9,4.4,4.4,4.4s4.4-1.9,4.4-4.4S136.5,36.5,134.1,36.5"/>
	<path class="st3" d="M144.6,41c0,1.6-0.7,2.4-2,2.4c-0.6,0-1.6-0.2-1.6-1.8v-4.9h-1.9V42c0,2.4,1.6,3.2,3.1,3.2c1,0,1.9-0.4,2.4-1
		V45h1.9v-8.4h-1.9V41z"/>
	<path class="st3" d="M151.6,36.5c-1,0-1.9,0.4-2.4,1v-0.8h-1.9V45h1.9v-4.3c0-1.6,0.7-2.4,2-2.4c0.6,0,1.6,0.2,1.6,1.8V45h1.9v-5.3
		C154.7,37.3,153.1,36.5,151.6,36.5"/>
	<path class="st3" d="M159.6,43.4c-0.9,0-0.9-0.6-0.9-1.6v-3.4h2.2v-1.7h-2.2v-1.5l-1.9,0.4v1.1H155v1.7h1.7v3.9
		c0,1.2,0,2.9,2.6,2.9c0.2,0,1-0.1,1.5-0.3l0.1-0.1V43l-0.3,0.2C160.3,43.4,159.9,43.4,159.6,43.4"/>
	<rect x="161.6" y="36.7" class="st3" width="1.9" height="8.4"/>
	<path class="st3" d="M179.1,40.8c0,1.5-0.9,2.4-2.4,2.4s-2.4-0.9-2.4-2.4s1-2.5,2.4-2.5C178.2,38.3,179.1,39.3,179.1,40.8
		 M179.1,36.7v0.8c-0.6-0.6-1.6-1-2.6-1c-2.5,0-4.2,1.8-4.2,4.4c0,1.2,0.4,2.3,1.2,3.1s1.9,1.2,3,1.2c1,0,2-0.4,2.6-1v0.6
		c0,1.2-0.5,2.5-2.6,2.5c-1,0-1.9-0.4-2.7-1.2l-0.2-0.2l-1.3,1.6l0.1,0.1c1.1,1,2.4,1.5,4,1.5c2.7,0,4.5-1.8,4.5-4.3v-8.1
		C180.9,36.7,179.1,36.7,179.1,36.7z"/>
	<polygon class="st3" points="188.5,36.6 181.8,36.6 181.8,38.4 184.2,38.4 184.2,45.1 186.1,45.1 186.1,38.4 188.5,38.4 	"/>
	<path class="st3" d="M192.9,43.5c-1.5,0-2.5-1.1-2.5-2.7c0-1.5,1-2.6,2.5-2.6c1.4,0,2.5,1.1,2.5,2.6
		C195.4,42.4,194.4,43.5,192.9,43.5 M193,36.4L193,36.4c-1.4,0-2.5,0.4-3.3,1.2s-1.3,1.9-1.3,3.2s0.4,2.4,1.3,3.2
		c0.8,0.8,1.9,1.2,3.2,1.2l0,0l0,0c2.6,0,4.5-1.9,4.5-4.4c0-1.3-0.4-2.4-1.2-3.2C195.4,36.9,194.3,36.4,193,36.4"/>
	<path class="st3" d="M208.5,41.5l0.9-2.3l0.9,2.3H208.5z M208.6,36.6l-0.1,0.1l-3.6,8.3h2.1l0.7-1.8h3.1l0.7,1.8h2.2l-3.6-8.4
		H208.6z"/>
	<polygon class="st3" points="217.5,36.6 215.7,39.6 213.9,36.6 211.5,36.6 214.7,41.5 214.7,45.1 216.6,45.1 216.6,41.5 
		219.8,36.6 	"/>
	<path class="st3" d="M199.9,38.4h1.1c1.3,0,2.8,0.4,2.8,2.5s-1.9,2.5-3,2.5H200v-5H199.9z M204.3,37.7c-0.8-0.7-1.8-1-3-1H198v8.4
		h3.2c2.2,0,4.5-1.5,4.5-4.2C205.7,39.5,205.2,38.4,204.3,37.7"/>
	<path class="st3" d="M168.7,36.5c-1,0-1.9,0.4-2.4,1v-0.8h-1.9V45h1.9v-4.3c0-1.6,0.7-2.4,2-2.4c0.6,0,1.6,0.2,1.6,1.8V45h1.9v-5.3
		C171.8,37.3,170.2,36.5,168.7,36.5"/>
</g>
<g>
	<path class="st3" d="M130.2,126l3.3-3.2c0.1-0.1,0.2-0.2,0.3-0.3c0.1-0.1,0.2-0.2,0.3-0.3s0.2-0.2,0.2-0.4s0.1-0.3,0.1-0.4
		c0-0.2,0-0.3-0.1-0.5c-0.1-0.1-0.2-0.3-0.3-0.3c-0.1-0.1-0.2-0.2-0.4-0.2c-0.1-0.1-0.3-0.1-0.5-0.1c-0.4,0-0.7,0.1-0.9,0.3
		c-0.2,0.2-0.4,0.5-0.4,0.8l-1.5-0.1c0-0.4,0.1-0.7,0.3-1c0.2-0.3,0.4-0.5,0.6-0.8c0.2-0.2,0.5-0.4,0.9-0.5c0.3-0.1,0.7-0.2,1.1-0.2
		c0.4,0,0.7,0,1.1,0.1c0.3,0.1,0.6,0.2,0.9,0.4s0.4,0.4,0.6,0.8c0.1,0.3,0.2,0.7,0.2,1.1c0,0.5-0.1,1-0.4,1.4s-0.6,0.8-0.9,1.1
		l-2.6,2.4h3.9v1.3h-5.7V126z"/>
	<path class="st3" d="M137.1,123.3c0-0.7,0.1-1.2,0.2-1.7c0.1-0.5,0.2-0.9,0.4-1.2c0.2-0.3,0.4-0.6,0.6-0.8c0.2-0.2,0.4-0.3,0.7-0.4
		c0.2-0.1,0.4-0.2,0.7-0.2s0.4,0,0.6,0s0.3,0,0.6,0c0.2,0,0.4,0.1,0.7,0.2c0.2,0.1,0.5,0.2,0.7,0.4c0.2,0.2,0.4,0.5,0.6,0.8
		s0.3,0.7,0.4,1.2c0.1,0.5,0.2,1,0.2,1.7s-0.1,1.2-0.2,1.7c-0.1,0.5-0.2,0.9-0.4,1.2s-0.4,0.6-0.6,0.8c-0.2,0.2-0.4,0.3-0.7,0.4
		c-0.2,0.1-0.4,0.2-0.7,0.2c-0.2,0-0.4,0-0.6,0s-0.3,0-0.6,0s-0.4-0.1-0.7-0.2c-0.2-0.1-0.5-0.2-0.7-0.4c-0.2-0.2-0.4-0.5-0.6-0.8
		c-0.2-0.3-0.3-0.7-0.4-1.2C137.1,124.5,137.1,124,137.1,123.3z M138.5,123.3c0,0.3,0,0.6,0.1,0.9c0,0.3,0.1,0.7,0.2,1
		c0.1,0.3,0.3,0.6,0.5,0.8c0.2,0.2,0.5,0.3,0.9,0.3c0.4,0,0.6-0.1,0.9-0.3s0.4-0.5,0.5-0.8c0.1-0.3,0.2-0.6,0.2-1s0.1-0.7,0.1-0.9
		s0-0.6-0.1-0.9s-0.1-0.7-0.2-1c-0.1-0.3-0.3-0.6-0.5-0.8s-0.5-0.3-0.9-0.3c-0.4,0-0.6,0.1-0.9,0.3c-0.2,0.2-0.4,0.5-0.5,0.8
		c-0.1,0.3-0.2,0.6-0.2,1C138.5,122.7,138.5,123,138.5,123.3z"/>
	<path class="st3" d="M144.4,126l3.3-3.2c0.1-0.1,0.2-0.2,0.3-0.3c0.1-0.1,0.2-0.2,0.3-0.3s0.2-0.2,0.2-0.4s0.1-0.3,0.1-0.4
		c0-0.2,0-0.3-0.1-0.5c-0.1-0.1-0.2-0.3-0.3-0.3c-0.1-0.1-0.2-0.2-0.4-0.2c-0.1-0.1-0.3-0.1-0.5-0.1c-0.4,0-0.7,0.1-0.9,0.3
		c-0.2,0.2-0.4,0.5-0.4,0.8l-1.5-0.1c0-0.4,0.1-0.7,0.3-1c0.2-0.3,0.4-0.5,0.6-0.8c0.2-0.2,0.5-0.4,0.9-0.5c0.3-0.1,0.7-0.2,1.1-0.2
		c0.4,0,0.7,0,1.1,0.1c0.3,0.1,0.6,0.2,0.9,0.4s0.4,0.4,0.6,0.8c0.1,0.3,0.2,0.7,0.2,1.1c0,0.5-0.1,1-0.4,1.4s-0.6,0.8-0.9,1.1
		l-2.6,2.4h3.9v1.3h-5.7V126z"/>
	<path class="st3" d="M151.3,123.3c0-0.7,0.1-1.2,0.2-1.7c0.1-0.5,0.2-0.9,0.4-1.2c0.2-0.3,0.4-0.6,0.6-0.8c0.2-0.2,0.4-0.3,0.7-0.4
		c0.2-0.1,0.4-0.2,0.7-0.2s0.4,0,0.6,0s0.3,0,0.6,0c0.2,0,0.4,0.1,0.7,0.2c0.2,0.1,0.5,0.2,0.7,0.4c0.2,0.2,0.4,0.5,0.6,0.8
		s0.3,0.7,0.4,1.2c0.1,0.5,0.2,1,0.2,1.7s-0.1,1.2-0.2,1.7c-0.1,0.5-0.2,0.9-0.4,1.2s-0.4,0.6-0.6,0.8c-0.2,0.2-0.4,0.3-0.7,0.4
		c-0.2,0.1-0.4,0.2-0.7,0.2c-0.2,0-0.4,0-0.6,0s-0.3,0-0.6,0s-0.4-0.1-0.7-0.2c-0.2-0.1-0.5-0.2-0.7-0.4c-0.2-0.2-0.4-0.5-0.6-0.8
		c-0.2-0.3-0.3-0.7-0.4-1.2C151.3,124.5,151.3,124,151.3,123.3z M152.7,123.3c0,0.3,0,0.6,0.1,0.9c0,0.3,0.1,0.7,0.2,1
		c0.1,0.3,0.3,0.6,0.5,0.8c0.2,0.2,0.5,0.3,0.9,0.3c0.4,0,0.6-0.1,0.9-0.3s0.4-0.5,0.5-0.8c0.1-0.3,0.2-0.6,0.2-1s0.1-0.7,0.1-0.9
		s0-0.6-0.1-0.9s-0.1-0.7-0.2-1c-0.1-0.3-0.3-0.6-0.5-0.8s-0.5-0.3-0.9-0.3c-0.4,0-0.6,0.1-0.9,0.3c-0.2,0.2-0.4,0.5-0.5,0.8
		c-0.1,0.3-0.2,0.6-0.2,1C152.7,122.7,152.7,123,152.7,123.3z"/>
	<path class="st3" d="M164.8,125.2h-3V124h3V125.2z"/>
	<path class="st3" d="M169.5,126l3.3-3.2c0.1-0.1,0.2-0.2,0.3-0.3c0.1-0.1,0.2-0.2,0.3-0.3s0.2-0.2,0.2-0.4s0.1-0.3,0.1-0.4
		c0-0.2,0-0.3-0.1-0.5c-0.1-0.1-0.2-0.3-0.3-0.3c-0.1-0.1-0.2-0.2-0.4-0.2c-0.1-0.1-0.3-0.1-0.5-0.1c-0.4,0-0.7,0.1-0.9,0.3
		c-0.2,0.2-0.4,0.5-0.4,0.8l-1.5-0.1c0-0.4,0.1-0.7,0.3-1c0.2-0.3,0.4-0.5,0.6-0.8c0.2-0.2,0.5-0.4,0.9-0.5c0.3-0.1,0.7-0.2,1.1-0.2
		c0.4,0,0.7,0,1.1,0.1c0.3,0.1,0.6,0.2,0.9,0.4s0.4,0.4,0.6,0.8c0.1,0.3,0.2,0.7,0.2,1.1c0,0.5-0.1,1-0.4,1.4s-0.6,0.8-0.9,1.1
		l-2.6,2.4h3.9v1.3h-5.7V126z"/>
	<path class="st3" d="M176.4,123.3c0-0.7,0.1-1.2,0.2-1.7c0.1-0.5,0.2-0.9,0.4-1.2c0.2-0.3,0.4-0.6,0.6-0.8c0.2-0.2,0.4-0.3,0.7-0.4
		c0.2-0.1,0.4-0.2,0.7-0.2s0.4,0,0.6,0s0.3,0,0.6,0c0.2,0,0.4,0.1,0.7,0.2c0.2,0.1,0.5,0.2,0.7,0.4c0.2,0.2,0.4,0.5,0.6,0.8
		s0.3,0.7,0.4,1.2c0.1,0.5,0.2,1,0.2,1.7s-0.1,1.2-0.2,1.7c-0.1,0.5-0.2,0.9-0.4,1.2s-0.4,0.6-0.6,0.8c-0.2,0.2-0.4,0.3-0.7,0.4
		c-0.2,0.1-0.4,0.2-0.7,0.2c-0.2,0-0.4,0-0.6,0s-0.3,0-0.6,0s-0.4-0.1-0.7-0.2c-0.2-0.1-0.5-0.2-0.7-0.4c-0.2-0.2-0.4-0.5-0.6-0.8
		c-0.2-0.3-0.3-0.7-0.4-1.2C176.4,124.5,176.4,124,176.4,123.3z M177.8,123.3c0,0.3,0,0.6,0.1,0.9c0,0.3,0.1,0.7,0.2,1
		c0.1,0.3,0.3,0.6,0.5,0.8c0.2,0.2,0.5,0.3,0.9,0.3c0.4,0,0.6-0.1,0.9-0.3s0.4-0.5,0.5-0.8c0.1-0.3,0.2-0.6,0.2-1s0.1-0.7,0.1-0.9
		s0-0.6-0.1-0.9s-0.1-0.7-0.2-1c-0.1-0.3-0.3-0.6-0.5-0.8s-0.5-0.3-0.9-0.3c-0.4,0-0.6,0.1-0.9,0.3c-0.2,0.2-0.4,0.5-0.5,0.8
		c-0.1,0.3-0.2,0.6-0.2,1C177.8,122.7,177.8,123,177.8,123.3z"/>
	<path class="st3" d="M183.7,126l3.3-3.2c0.1-0.1,0.2-0.2,0.3-0.3c0.1-0.1,0.2-0.2,0.3-0.3s0.2-0.2,0.2-0.4s0.1-0.3,0.1-0.4
		c0-0.2,0-0.3-0.1-0.5c-0.1-0.1-0.2-0.3-0.3-0.3c-0.1-0.1-0.2-0.2-0.4-0.2c-0.1-0.1-0.3-0.1-0.5-0.1c-0.4,0-0.7,0.1-0.9,0.3
		c-0.2,0.2-0.4,0.5-0.4,0.8l-1.5-0.1c0-0.4,0.1-0.7,0.3-1c0.2-0.3,0.4-0.5,0.6-0.8c0.2-0.2,0.5-0.4,0.9-0.5c0.3-0.1,0.7-0.2,1.1-0.2
		c0.4,0,0.7,0,1.1,0.1c0.3,0.1,0.6,0.2,0.9,0.4s0.4,0.4,0.6,0.8c0.1,0.3,0.2,0.7,0.2,1.1c0,0.5-0.1,1-0.4,1.4s-0.6,0.8-0.9,1.1
		l-2.6,2.4h3.9v1.3h-5.7V126z"/>
	<path class="st3" d="M192.7,122.5h0.4c0.2,0,0.4,0,0.6,0c0.2,0,0.4-0.1,0.5-0.2s0.3-0.2,0.4-0.3c0.1-0.2,0.1-0.4,0.1-0.6
		c0-0.3-0.1-0.6-0.3-0.8c-0.2-0.2-0.5-0.3-0.9-0.3c-0.3,0-0.5,0.1-0.8,0.2c-0.2,0.2-0.4,0.4-0.5,0.7l-1.5-0.4
		c0.1-0.3,0.2-0.6,0.4-0.8s0.4-0.4,0.6-0.6c0.2-0.1,0.5-0.3,0.8-0.3c0.3-0.1,0.6-0.1,0.9-0.1c0.4,0,0.7,0,1,0.1s0.6,0.2,0.9,0.4
		c0.2,0.2,0.4,0.4,0.6,0.7c0.1,0.3,0.2,0.6,0.2,1c0,0.5-0.1,0.9-0.4,1.2c-0.3,0.4-0.6,0.6-1.1,0.7v0c0.5,0.1,1,0.3,1.2,0.7
		c0.3,0.4,0.4,0.8,0.4,1.4c0,0.4-0.1,0.8-0.2,1.1c-0.2,0.3-0.4,0.6-0.6,0.8c-0.3,0.2-0.6,0.4-0.9,0.5c-0.3,0.1-0.7,0.2-1.1,0.2
		c-0.4,0-0.7,0-1-0.1c-0.3-0.1-0.6-0.2-0.8-0.4s-0.5-0.4-0.7-0.6c-0.2-0.3-0.3-0.6-0.4-0.9l1.5-0.4c0.1,0.4,0.2,0.6,0.5,0.8
		c0.2,0.2,0.5,0.3,0.9,0.3c0.2,0,0.4,0,0.5-0.1c0.2-0.1,0.3-0.2,0.5-0.3c0.1-0.1,0.2-0.3,0.3-0.4c0.1-0.2,0.1-0.3,0.1-0.5
		c0-0.3-0.1-0.5-0.2-0.7c-0.1-0.2-0.3-0.3-0.4-0.4c-0.2-0.1-0.4-0.2-0.6-0.2c-0.2,0-0.4,0-0.7,0h-0.3V122.5z"/>
</g>
</svg>
