<?xml version="1.0" encoding="utf-8"?>
<!-- Generator: Adobe Illustrator 25.1.0, SVG Export Plug-In . SVG Version: 6.00 Build 0)  -->
<svg version="1.1" id="Layer_1" xmlns="http://www.w3.org/2000/svg" xmlns:xlink="http://www.w3.org/1999/xlink" x="0px" y="0px"
	 viewBox="0 0 130.7 133.4" style="enable-background:new 0 0 130.7 133.4;" xml:space="preserve">
<style type="text/css">
	.st0{fill:#2CA9E1;}
	.st1{fill:#085F93;}
	.st2{fill:#28AAE1;}
	.st3{fill:#FFFFFF;}
</style>
<path class="st0" d="M42.7,133.4l61.8-10.1l-0.2-32.5l-44.8,1.1L42.7,133.4z"/>
<path class="st1" d="M104.3,123.3L49,117.9l1.7-4.8l53.7-0.8L104.3,123.3z"/>
<path class="st2" d="M104.5,123.2L0.1,107V82.4l104.4,12.8V123.2z"/>
<path class="st1" d="M104.4,110.1L0,107l0.3-20.6l104.4,10.7L104.4,110.1z"/>
<path class="st2" d="M130.7,106.9H0V0.5L130.7,0V106.9z"/>
<g>
	<path class="st3" d="M52.9,35.8c0-1.5-1.1-2.3-3-2.3h-2.7V38h2.6C51.7,38,52.9,37.3,52.9,35.8 M47.2,32.7h2.7
		c1.2,0,2.5-0.5,2.5-2.1c0-1.2-0.8-2-2.8-2h-2.3L47.2,32.7z M53.8,35.8c0,1.7-1.2,3-3.8,3h-3.7V27.7h3.4c2,0,3.5,0.7,3.5,2.7
		c0,1.1-0.6,2.2-1.7,2.6C52.7,33.3,53.8,34.2,53.8,35.8"/>
	<path class="st3" d="M56.2,27.7h6.6v0.9H57v4.3h4.8v0.8H57V38h6.1v0.8h-6.9L56.2,27.7z"/>
	<path class="st3" d="M64.6,37.2l0.6-0.7c0.8,1,2.1,1.5,3.3,1.5c1.5,0,2.6-0.8,2.6-2c0-1.5-1.2-1.9-2.8-2.5c-1.5-0.6-3.3-1.2-3.3-3
		c0-1.6,1.4-2.8,3.3-2.8c1.1,0,2.4,0.4,3.4,1.2l-0.6,0.7c-0.9-0.7-1.9-1.1-2.8-1.1c-1.2,0-2.3,0.6-2.3,1.9s1.2,1.7,2.6,2.3
		c1.8,0.7,3.4,1.2,3.4,3.3c0,1.8-1.6,3-3.6,3C67.1,38.9,65.7,38.4,64.6,37.2"/>
	<path class="st3" d="M76.5,28.6H73v-0.9h7.9v0.9h-3.5v10.2h-0.9V28.6z"/>
	<path class="st3" d="M20.2,49.4L19,45.7l-1.2,3.7H20.2z M20.9,51.6H17l-0.6,2h-2.7l4.1-11.1h2.5l4.1,11.1h-2.7L20.9,51.6z"/>
	<path class="st3" d="M24.3,48.1c0-3.2,2.1-5.7,5.7-5.7c1.5,0,3.2,0.6,4.5,2.1l-1.9,1.6c-0.5-0.6-1.5-1.3-2.5-1.3
		c-1.6,0-3,1.2-3,3.2c0,1.7,1.2,3.1,3,3.1c1,0,1.9-0.5,2.5-1.3l1.9,1.6c-1,1.2-2.5,2.1-4.5,2.1C26.9,53.7,24.3,51.7,24.3,48.1"/>
	<path class="st3" d="M35.3,48.1c0-3.2,2.1-5.7,5.7-5.7c1.5,0,3.2,0.6,4.5,2.1l-1.9,1.6c-0.5-0.6-1.5-1.3-2.5-1.3
		c-1.6,0-3,1.2-3,3.2c0,1.7,1.2,3.1,3,3.1c1,0,1.9-0.5,2.5-1.3l1.9,1.6c-1,1.2-2.5,2.1-4.5,2.1C37.9,53.7,35.3,51.7,35.3,48.1"/>
	<path class="st3" d="M54.9,48c0-1.9-1.2-3.3-3-3.3s-3,1.4-3,3.3c0,1.8,1.2,3.3,3,3.3S54.9,49.9,54.9,48 M46.3,48
		c0-3.3,2.3-5.7,5.7-5.7c3.3,0,5.7,2.3,5.7,5.7s-2.4,5.7-5.7,5.7C48.6,53.7,46.3,51.4,46.3,48"/>
	<path class="st3" d="M59.1,49v-6.5h2.6v6.3c0,1.4,0.7,2.5,1.9,2.5c1.1,0,2-0.9,2-2.5v-6.3h2.6V49c0,2.9-1.7,4.8-4.6,4.8
		C60.9,53.7,59.1,52,59.1,49"/>
	<path class="st3" d="M79.6,42.5v11.1h-2.7l-4.2-6.7h-0.1v6.7H70V42.5h2.6l4.3,6.8v-6.8H79.6z"/>
	<path class="st3" d="M83.8,44.8h-3v-2.3h8.5v2.3h-3v8.8h-2.5V44.8z"/>
	<path class="st3" d="M90.6,42.5h2.6v11.1h-2.6V42.5z"/>
	<path class="st3" d="M104.8,42.5v11.1h-2.7l-4.2-6.7v6.7h-2.6V42.5h2.6l4.3,6.8v-6.8H104.8z"/>
	<path class="st3" d="M106.3,48.1c0-3.2,2.1-5.7,5.6-5.7c1.6,0,3.3,0.7,4.5,2l-1.9,1.6c-0.6-0.6-1.4-1.1-2.6-1.1
		c-1.6,0-2.9,1.2-2.9,3.3c0,1.8,1.1,3.3,3,3.3c0.7,0,1.2-0.1,1.9-0.5v-1.3h-2.1v-2.2h4.6v5c-1,0.8-2.7,1.4-4.4,1.4
		C108.8,53.7,106.3,51.7,106.3,48.1"/>
	<path class="st3" d="M41.5,57.3H49v2.3h-4.9v2.5h4.1v2.3h-4.1v4h-2.6V57.3z"/>
	<path class="st3" d="M50.5,57.3h2.6v11.1h-2.6V57.3z"/>
	<path class="st3" d="M57.7,62.5h1.2c1.1,0,1.8-0.6,1.8-1.5c0-0.8-0.6-1.5-1.7-1.5h-1.2v3H57.7z M60.9,68.4l-2.3-3.6h-0.9v3.6h-2.6
		V57.3h4.3c2.7,0,4,1.6,4,3.8c0,1.7-0.8,2.8-2.1,3.3l2.6,3.9L60.9,68.4z"/>
	<path class="st3" d="M76.5,57.3v11.1h-2.6v-6.2l-2.2,4.1H70l-2.2-4h-0.1v6.1h-2.6V57.3h2.7l3,5.8h0.1l3-5.8H76.5z"/>
	<path class="st3" d="M77.8,66.7l1.5-1.9c0.8,0.9,1.8,1.3,2.6,1.3c0.9,0,1.2-0.4,1.2-0.9c0-0.6-0.4-0.9-1.7-1.3
		c-1.7-0.6-3.4-1.4-3.4-3.5c0-1.8,1.6-3.3,3.6-3.3c1.4,0,2.8,0.5,3.8,1.5l-1.5,1.9c-0.9-0.7-1.7-1.1-2.3-1.1s-1,0.3-1,0.9
		c0,0.5,0.4,0.7,1.6,1.2c1.9,0.7,3.4,1.3,3.4,3.4c0,2.6-2.3,3.6-4,3.6C80.4,68.5,79,67.9,77.8,66.7"/>
	<path class="st3" d="M14.8,72.9h-3.5v-0.8h7.9v0.8h-3.6v10.2h-0.8V72.9z"/>
	<path class="st3" d="M29.9,77.6c0-2.8-2-4.7-4.6-4.7c-2.7,0-4.6,2.1-4.6,4.7s1.8,4.8,4.6,4.8C27.9,82.3,29.9,80.4,29.9,77.6
		 M19.9,77.6c0-3.1,2.2-5.6,5.5-5.6c3.1,0,5.5,2.2,5.5,5.6s-2.4,5.6-5.5,5.6C22.1,83.2,19.9,80.7,19.9,77.6"/>
	<path class="st3" d="M51.4,72.1l-3.5,11H47l-2.9-9.7l-2.8,9.7h-0.9l-3.6-11h0.9l3.1,9.6l2.8-9.6h1l2.8,9.6l3.1-9.6H51.4z"/>
	<path class="st3" d="M62.5,77.6c0-2.8-2-4.7-4.6-4.7c-2.7,0-4.6,2.1-4.6,4.7s1.8,4.8,4.6,4.8C60.5,82.3,62.5,80.4,62.5,77.6
		 M52.5,77.6c0-3.1,2.2-5.6,5.5-5.6c3.1,0,5.5,2.2,5.5,5.6s-2.4,5.6-5.5,5.6C54.7,83.2,52.5,80.7,52.5,77.6"/>
	<path class="st3" d="M66.7,77.8h2.6c2.1,0,2.9-1.1,2.9-2.5c0-1.6-1-2.4-2.7-2.4h-2.9L66.7,77.8z M72.3,83.1l-3.1-4.5h-2.5v4.5h-0.9
		V72h3.8c2.5,0,3.6,1.4,3.6,3.3c0,2-1.2,3-2.9,3.3l3.1,4.5L72.3,83.1z"/>
	<path class="st3" d="M78.5,77.9l-1.9,2.2v3h-0.9v-11h0.9v6.7l5.7-6.7h1.2l-4.4,5.1l4.5,5.9h-1.1L78.5,77.9z"/>
	<path class="st3" d="M90,72.1h6.9v0.8h-6v4.4H96v0.8h-5.1v5H90V72.1z"/>
	<path class="st3" d="M108.1,77.6c0-2.8-2-4.7-4.6-4.7c-2.7,0-4.6,2.1-4.6,4.7s1.8,4.8,4.6,4.8C106,82.3,108.1,80.4,108.1,77.6
		 M98,77.6c0-3.1,2.2-5.6,5.5-5.6c3.1,0,5.5,2.2,5.5,5.6s-2.4,5.6-5.5,5.6C100.3,83.2,98,80.7,98,77.6"/>
	<path class="st3" d="M112.3,77.8h2.6c2.1,0,2.9-1.1,2.9-2.5c0-1.6-1-2.4-2.7-2.4h-2.9L112.3,77.8z M117.9,83.1l-3.1-4.5h-2.5v4.5
		h-0.9V72h3.8c2.5,0,3.6,1.4,3.6,3.3c0,2-1.2,3-2.9,3.3l3.1,4.5L117.9,83.1z"/>
	<path class="st3" d="M56.2,98.4v1.4h-5.7v-1l2.8-3c0.7-0.8,1.2-1.4,1.2-2.2s-0.6-1.4-1.3-1.4s-1.3,0.3-1.7,1l-1.1-0.8
		c0.5-0.9,1.4-1.7,2.8-1.7s2.8,1,2.8,2.6c0,1-0.3,1.8-1.5,3l-1.9,2L56.2,98.4z"/>
	<path class="st3" d="M57.5,95.4c0-2.7,1.3-4.5,3.4-4.5c2,0,3.4,1.6,3.4,4.5c0,2.7-1.3,4.5-3.4,4.5C58.9,99.9,57.5,98.2,57.5,95.4z
		 M62.8,95.4c0-2-0.7-3.1-1.9-3.1S59,93.5,59,95.4s0.7,3.1,1.9,3.1S62.8,97.3,62.8,95.4z"/>
	<path class="st3" d="M71.1,98.4v1.4h-5.7v-1l2.8-3c0.7-0.8,1.2-1.4,1.2-2.2s-0.6-1.4-1.3-1.4s-1.3,0.3-1.7,1l-1.1-0.8
		c0.5-0.9,1.4-1.7,2.8-1.7s2.8,1,2.8,2.6c0,1-0.3,1.8-1.5,3l-1.9,2L71.1,98.4z"/>
	<path class="st3" d="M72.4,95.4c0-2.7,1.3-4.5,3.4-4.5c2,0,3.4,1.6,3.4,4.5c0,2.7-1.3,4.5-3.4,4.5C73.8,99.9,72.4,98.2,72.4,95.4z
		 M77.7,95.4c0-2-0.7-3.1-1.9-3.1s-1.9,1.2-1.9,3.1s0.7,3.1,1.9,3.1S77.7,97.3,77.7,95.4z"/>
	<path class="st3" d="M12.5,15.5c-1.5,0-1.5-0.8-1.5-1.1c0-1.1,1.6-1.3,2.9-1.3h0.6v0.3C14.6,14.4,14,15.5,12.5,15.5 M16.4,15.3v-4
		c0-1.4-0.9-2.9-3.5-2.9c-1.2,0-2.5,0.5-3.3,1.2L9.4,9.8l1.2,1.2l0.3-0.2c0.5-0.4,1-0.8,2-0.8c1.2,0,1.7,0.7,1.7,1.5v0.1h-0.9
		c-3,0-4.6,1.1-4.6,3c0,1.5,1.2,2.6,3,2.6c1.1,0,2-0.3,2.6-1v0.6V17h1.8v-0.2C16.4,16.3,16.4,15.9,16.4,15.3"/>
	<path class="st3" d="M23.1,14.5c-0.5,0.6-1,0.8-1.8,0.8c-1.4,0-2.3-1-2.3-2.5c0-1.3,0.7-2.6,2.3-2.6c0.7,0,1.3,0.2,1.8,0.8l0.1,0.2
		l1.5-1.3l-0.1-0.2c-0.8-0.9-1.9-1.3-3.2-1.3c-2.6,0-4.4,1.8-4.4,4.4s1.8,4.4,4.4,4.4c1.3,0,2.4-0.4,3.2-1.3l0.1-0.2l-1.4-1.4
		L23.1,14.5z"/>
	<path class="st3" d="M30.3,14.5c-0.5,0.6-1,0.8-1.8,0.8c-1.4,0-2.3-1-2.3-2.5c0-1.3,0.7-2.6,2.3-2.6c0.7,0,1.3,0.2,1.8,0.8l0.1,0.2
		l1.5-1.3l-0.1-0.2c-0.8-0.9-1.9-1.3-3.2-1.3c-2.6,0-4.4,1.8-4.4,4.4s1.8,4.4,4.4,4.4c1.3,0,2.4-0.4,3.2-1.3l0.1-0.2l-1.4-1.4
		L30.3,14.5z"/>
	<path class="st3" d="M35.9,15.3c-1.4,0-2.4-1-2.4-2.5s1-2.5,2.4-2.5s2.4,1,2.4,2.5C38.2,14.3,37.3,15.3,35.9,15.3 M35.9,8.4
		c-2.5,0-4.4,1.9-4.4,4.4s1.9,4.4,4.4,4.4s4.4-1.9,4.4-4.4S38.3,8.4,35.9,8.4"/>
	<path class="st3" d="M46.4,12.9c0,1.6-0.7,2.4-2,2.4c-0.6,0-1.6-0.2-1.6-1.8V8.6h-1.9v5.3c0,2.4,1.6,3.2,3.1,3.2c1,0,1.9-0.4,2.4-1
		v0.8h1.9V8.5h-1.9V12.9z"/>
	<path class="st3" d="M53.4,8.4c-1,0-1.9,0.4-2.4,1V8.6h-1.9v8.3H51v-4.3c0-1.6,0.7-2.4,2-2.4c0.6,0,1.6,0.2,1.6,1.8v4.9h1.9v-5.3
		C56.5,9.2,54.9,8.4,53.4,8.4"/>
	<path class="st3" d="M61.4,15.3c-0.9,0-0.9-0.6-0.9-1.6v-3.4h2.2V8.6h-2.2V7.1l-1.9,0.4v1.1h-1.8v1.7h1.7v3.9c0,1.2,0,2.9,2.6,2.9
		c0.2,0,1-0.1,1.5-0.3l0.1-0.1v-1.8l-0.3,0.2C62.1,15.3,61.7,15.3,61.4,15.3"/>
	<path class="st3" d="M63.4,8.6h1.9V17h-1.9V8.6z"/>
	<path class="st3" d="M80.9,12.7c0,1.5-0.9,2.4-2.4,2.4s-2.4-0.9-2.4-2.4s1-2.5,2.4-2.5C80,10.2,80.9,11.2,80.9,12.7 M80.9,8.6v0.8
		c-0.6-0.6-1.6-1-2.6-1c-2.5,0-4.2,1.8-4.2,4.4c0,1.2,0.4,2.3,1.2,3.1s1.9,1.2,3,1.2c1,0,2-0.4,2.6-1v0.6c0,1.2-0.5,2.5-2.6,2.5
		c-1,0-1.9-0.4-2.7-1.2l-0.2-0.2l-1.3,1.6l0.1,0.1c1.1,1,2.4,1.5,4,1.5c2.7,0,4.5-1.8,4.5-4.3V8.6L80.9,8.6z"/>
	<path class="st3" d="M90.3,8.5h-6.7v1.8H86V17h1.9v-6.7h2.4L90.3,8.5z"/>
	<path class="st3" d="M94.7,15.4c-1.5,0-2.5-1.1-2.5-2.7c0-1.5,1-2.6,2.5-2.6c1.4,0,2.5,1.1,2.5,2.6C97.2,14.3,96.2,15.4,94.7,15.4
		 M94.8,8.3c-1.4,0-2.5,0.4-3.3,1.2s-1.3,1.9-1.3,3.2s0.4,2.4,1.3,3.2c0.8,0.8,1.9,1.2,3.2,1.2c2.6,0,4.5-1.9,4.5-4.4
		c0-1.3-0.4-2.4-1.2-3.2C97.2,8.8,96.1,8.3,94.8,8.3"/>
	<path class="st3" d="M110.3,13.4l0.9-2.3l0.9,2.3H110.3z M110.4,8.5l-0.1,0.1l-3.6,8.3h2.1l0.7-1.8h3.1l0.7,1.8h2.2l-3.6-8.4H110.4
		z"/>
	<path class="st3" d="M119.3,8.5l-1.8,3l-1.8-3h-2.4l3.2,4.9V17h1.9v-3.6l3.2-4.9H119.3z"/>
	<path class="st3" d="M101.7,10.3h1.1c1.3,0,2.8,0.4,2.8,2.5s-1.9,2.5-3,2.5h-0.8v-5H101.7z M106.1,9.6c-0.8-0.7-1.8-1-3-1h-3.3V17
		h3.2c2.2,0,4.5-1.5,4.5-4.2C107.5,11.4,107,10.3,106.1,9.6"/>
	<path class="st3" d="M70.5,8.4c-1,0-1.9,0.4-2.4,1V8.6h-1.9v8.3h1.9v-4.3c0-1.6,0.7-2.4,2-2.4c0.6,0,1.6,0.2,1.6,1.8v4.9h1.9v-5.3
		C73.6,9.2,72,8.4,70.5,8.4"/>
</g>
</svg>
