<?xml version="1.0" encoding="utf-8"?>
<!-- Generator: Adobe Illustrator 28.3.0, SVG Export Plug-In . SVG Version: 6.00 Build 0)  -->
<svg version="1.1" id="Layer_1" xmlns="http://www.w3.org/2000/svg" xmlns:xlink="http://www.w3.org/1999/xlink" x="0px" y="0px"
	 viewBox="0 0 333.1 185.5" style="enable-background:new 0 0 333.1 185.5;" xml:space="preserve">
<style type="text/css">
	.st0{fill:#2CA9E1;}
	.st1{fill:#085F93;}
	.st2{fill:#28AAE1;}
	.st3{fill:#FFFFFF;}
</style>
<g>
	<polygon class="st0" points="143.9,161.5 205.7,151.4 205.5,118.9 160.7,120 	"/>
	<polygon class="st1" points="205.5,151.4 150.2,146 151.9,141.2 205.6,140.4 	"/>
	<polygon class="st2" points="205.7,151.3 101.3,135.1 101.3,110.5 205.7,123.3 	"/>
	<polygon class="st1" points="205.6,138.2 101.2,135.1 101.5,114.5 205.9,125.2 	"/>
	<polygon class="st2" points="231.9,135 101.2,135 101.2,28.6 231.9,28.1 	"/>
	<path class="st3" d="M154.1,63.9c0-1.5-1.1-2.3-3-2.3h-2.7v4.5h2.6C152.9,66.1,154.1,65.4,154.1,63.9 M148.4,60.8h2.7
		c1.2,0,2.5-0.5,2.5-2.1c0-1.2-0.8-2-2.8-2h-2.3L148.4,60.8L148.4,60.8z M155,63.9c0,1.7-1.2,3-3.8,3h-3.7V55.8h3.4
		c2,0,3.5,0.7,3.5,2.7c0,1.1-0.6,2.2-1.7,2.6l0,0C153.9,61.4,155,62.3,155,63.9"/>
	<polygon class="st3" points="157.4,55.8 164,55.8 164,56.7 158.2,56.7 158.2,61 163,61 163,61.8 158.2,61.8 158.2,66.1 164.3,66.1 
		164.3,66.9 157.4,66.9 	"/>
	<path class="st3" d="M165.8,65.3l0.6-0.7c0.8,1,2.1,1.5,3.3,1.5c1.5,0,2.6-0.8,2.6-2c0-1.5-1.2-1.9-2.8-2.5c-1.5-0.6-3.3-1.2-3.3-3
		c0-1.6,1.4-2.8,3.3-2.8c1.1,0,2.4,0.4,3.4,1.2l-0.6,0.7c-0.9-0.7-1.9-1.1-2.8-1.1c-1.2,0-2.3,0.6-2.3,1.9c0,1.3,1.2,1.7,2.6,2.3
		c1.8,0.7,3.4,1.2,3.4,3.3c0,1.8-1.6,3-3.6,3C168.3,67,166.9,66.5,165.8,65.3"/>
	<polygon class="st3" points="177.7,56.7 174.2,56.7 174.2,55.8 182.1,55.8 182.1,56.7 178.6,56.7 178.6,66.9 177.7,66.9 	"/>
	<path class="st3" d="M121.4,77.5l-1.2-3.7l0,0l-1.2,3.7H121.4z M122.1,79.7h-3.9l-0.6,2h-2.7l4.1-11.1h2.5l4.1,11.1h-2.7
		L122.1,79.7z"/>
	<path class="st3" d="M125.5,76.2c0-3.2,2.1-5.7,5.7-5.7c1.5,0,3.2,0.6,4.5,2.1l-1.9,1.6c-0.5-0.6-1.5-1.3-2.5-1.3
		c-1.6,0-3,1.2-3,3.2c0,1.7,1.2,3.1,3,3.1c1,0,1.9-0.5,2.5-1.3l1.9,1.6c-1,1.2-2.5,2.1-4.5,2.1C128.1,81.8,125.5,79.8,125.5,76.2"/>
	<path class="st3" d="M136.5,76.2c0-3.2,2.1-5.7,5.7-5.7c1.5,0,3.2,0.6,4.5,2.1l-1.9,1.6c-0.5-0.6-1.5-1.3-2.5-1.3
		c-1.6,0-3,1.2-3,3.2c0,1.7,1.2,3.1,3,3.1c1,0,1.9-0.5,2.5-1.3l1.9,1.6c-1,1.2-2.5,2.1-4.5,2.1C139.1,81.8,136.5,79.8,136.5,76.2"/>
	<path class="st3" d="M156.1,76.1c0-1.9-1.2-3.3-3-3.3c-1.8,0-3,1.4-3,3.3c0,1.8,1.2,3.3,3,3.3S156.1,78,156.1,76.1 M147.5,76.1
		c0-3.3,2.3-5.7,5.7-5.7c3.3,0,5.7,2.3,5.7,5.7c0,3.4-2.4,5.7-5.7,5.7C149.8,81.8,147.5,79.5,147.5,76.1"/>
	<path class="st3" d="M160.3,77.1v-6.5h2.6v6.3c0,1.4,0.7,2.5,1.9,2.5c1.1,0,2-0.9,2-2.5v-6.3h2.6v6.5c0,2.9-1.7,4.8-4.6,4.8
		C162.1,81.8,160.3,80.1,160.3,77.1"/>
	<polygon class="st3" points="180.8,70.6 180.8,81.7 178.1,81.7 173.9,75 173.8,75 173.8,81.7 171.2,81.7 171.2,70.6 173.8,70.6 
		178.1,77.4 178.1,70.6 	"/>
	<polygon class="st3" points="185,72.9 182,72.9 182,70.6 190.5,70.6 190.5,72.9 187.5,72.9 187.5,81.7 185,81.7 	"/>
	<rect x="191.8" y="70.6" class="st3" width="2.6" height="11.1"/>
	<polygon class="st3" points="206,70.6 206,81.7 203.3,81.7 199.1,75 199.1,75 199.1,81.7 196.5,81.7 196.5,70.6 199.1,70.6 
		203.4,77.4 203.4,70.6 	"/>
	<path class="st3" d="M207.5,76.2c0-3.2,2.1-5.7,5.6-5.7c1.6,0,3.3,0.7,4.5,2l-1.9,1.6c-0.6-0.6-1.4-1.1-2.6-1.1
		c-1.6,0-2.9,1.2-2.9,3.3c0,1.8,1.1,3.3,3,3.3c0.7,0,1.2-0.1,1.9-0.5v-1.3H213v-2.2h4.6v5c-1,0.8-2.7,1.4-4.4,1.4
		C210,81.8,207.5,79.8,207.5,76.2"/>
	<polygon class="st3" points="142.7,85.4 150.2,85.4 150.2,87.7 145.3,87.7 145.3,90.2 149.4,90.2 149.4,92.5 145.3,92.5 
		145.3,96.5 142.7,96.5 	"/>
	<rect x="151.7" y="85.4" class="st3" width="2.6" height="11.1"/>
	<path class="st3" d="M158.9,90.6h1.2c1.1,0,1.8-0.6,1.8-1.5c0-0.8-0.6-1.5-1.7-1.5H159v3H158.9z M162.1,96.5l-2.3-3.6h-0.9v3.6
		h-2.6V85.4h4.3c2.7,0,4,1.6,4,3.8c0,1.7-0.8,2.8-2.1,3.3l0,0l2.6,3.9L162.1,96.5L162.1,96.5z"/>
	<polygon class="st3" points="177.7,85.4 177.7,96.5 175.1,96.5 175.1,90.3 175.1,90.3 172.9,94.4 171.2,94.4 169,90.4 168.9,90.4 
		168.9,96.5 166.3,96.5 166.3,85.4 169,85.4 172,91.2 172.1,91.2 175.1,85.4 	"/>
	<path class="st3" d="M179,94.8l1.5-1.9c0.8,0.9,1.8,1.3,2.6,1.3c0.9,0,1.2-0.4,1.2-0.9c0-0.6-0.4-0.9-1.7-1.3
		c-1.7-0.6-3.4-1.4-3.4-3.5c0-1.8,1.6-3.3,3.6-3.3c1.4,0,2.8,0.5,3.8,1.5l-1.5,1.9c-0.9-0.7-1.7-1.1-2.3-1.1s-1,0.3-1,0.9
		c0,0.5,0.4,0.7,1.6,1.2c1.9,0.7,3.4,1.3,3.4,3.4c0,2.6-2.3,3.6-4,3.6C181.6,96.6,180.2,96,179,94.8"/>
	<polygon class="st3" points="116,101 112.5,101 112.5,100.2 120.4,100.2 120.4,101 116.8,101 116.8,111.2 116,111.2 	"/>
	<path class="st3" d="M131.1,105.7c0-2.8-2-4.7-4.6-4.7c-2.7,0-4.6,2.1-4.6,4.7s1.8,4.8,4.6,4.8
		C129.1,110.4,131.1,108.5,131.1,105.7 M121.1,105.7c0-3.1,2.2-5.6,5.5-5.6c3.1,0,5.5,2.2,5.5,5.6s-2.4,5.6-5.5,5.6
		C123.3,111.3,121.1,108.8,121.1,105.7"/>
	<polygon class="st3" points="152.6,100.2 149.1,111.2 148.2,111.2 145.3,101.5 145.3,101.5 142.5,111.2 141.6,111.2 138,100.2 
		138.9,100.2 142,109.8 142,109.8 144.8,100.2 145.8,100.2 148.6,109.8 151.7,100.2 	"/>
	<path class="st3" d="M163.7,105.7c0-2.8-2-4.7-4.6-4.7c-2.7,0-4.6,2.1-4.6,4.7s1.8,4.8,4.6,4.8
		C161.7,110.4,163.7,108.5,163.7,105.7 M153.7,105.7c0-3.1,2.2-5.6,5.5-5.6c3.1,0,5.5,2.2,5.5,5.6s-2.4,5.6-5.5,5.6
		C155.9,111.3,153.7,108.8,153.7,105.7"/>
	<path class="st3" d="M167.9,105.9h2.6c2.1,0,2.9-1.1,2.9-2.5c0-1.6-1-2.4-2.7-2.4h-2.9L167.9,105.9L167.9,105.9z M173.5,111.2
		l-3.1-4.5h-2.5v4.5H167v-11.1h3.8c2.5,0,3.6,1.4,3.6,3.3c0,2-1.2,3-2.9,3.3l3.1,4.5C174.6,111.2,173.5,111.2,173.5,111.2z"/>
	<polygon class="st3" points="179.7,106 177.8,108.2 177.8,111.2 176.9,111.2 176.9,100.2 177.8,100.2 177.8,106.9 177.8,106.9 
		183.5,100.2 184.7,100.2 180.3,105.3 184.8,111.2 183.7,111.2 	"/>
	<polygon class="st3" points="191.2,100.2 198.1,100.2 198.1,101 192.1,101 192.1,105.4 197.2,105.4 197.2,106.2 192.1,106.2 
		192.1,111.2 191.2,111.2 	"/>
	<path class="st3" d="M209.3,105.7c0-2.8-2-4.7-4.6-4.7c-2.7,0-4.6,2.1-4.6,4.7s1.8,4.8,4.6,4.8
		C207.2,110.4,209.3,108.5,209.3,105.7 M199.2,105.7c0-3.1,2.2-5.6,5.5-5.6c3.1,0,5.5,2.2,5.5,5.6s-2.4,5.6-5.5,5.6
		C201.5,111.3,199.2,108.8,199.2,105.7"/>
	<path class="st3" d="M213.5,105.9h2.6c2.1,0,2.9-1.1,2.9-2.5c0-1.6-1-2.4-2.7-2.4h-2.9L213.5,105.9L213.5,105.9z M219.1,111.2
		l-3.1-4.5h-2.5v4.5h-0.9v-11.1h3.8c2.5,0,3.6,1.4,3.6,3.3c0,2-1.2,3-2.9,3.3l3.1,4.5C220.2,111.2,219.1,111.2,219.1,111.2z"/>
	<path class="st3" d="M113.7,43.6c-1.5,0-1.5-0.8-1.5-1.1c0-1.1,1.6-1.3,2.9-1.3h0.6v0.3C115.8,42.5,115.2,43.6,113.7,43.6
		 M117.6,43.4v-4c0-1.4-0.9-2.9-3.5-2.9c-1.2,0-2.5,0.5-3.3,1.2l-0.2,0.2l1.2,1.2l0.3-0.2c0.5-0.4,1-0.8,2-0.8
		c1.2,0,1.7,0.7,1.7,1.5v0.1h-0.9c-3,0-4.6,1.1-4.6,3c0,1.5,1.2,2.6,3,2.6c1.1,0,2-0.3,2.6-1c0,0.2,0,0.4,0,0.6v0.2h1.8v-0.2
		C117.6,44.4,117.6,44,117.6,43.4"/>
	<path class="st3" d="M124.3,42.6c-0.5,0.6-1,0.8-1.8,0.8c-1.4,0-2.3-1-2.3-2.5c0-1.3,0.7-2.6,2.3-2.6c0.7,0,1.3,0.2,1.8,0.8
		l0.1,0.2l1.5-1.3l-0.1-0.2c-0.8-0.9-1.9-1.3-3.2-1.3c-2.6,0-4.4,1.8-4.4,4.4c0,2.6,1.8,4.4,4.4,4.4c1.3,0,2.4-0.4,3.2-1.3l0.1-0.2
		l-1.4-1.4L124.3,42.6z"/>
	<path class="st3" d="M131.5,42.6c-0.5,0.6-1,0.8-1.8,0.8c-1.4,0-2.3-1-2.3-2.5c0-1.3,0.7-2.6,2.3-2.6c0.7,0,1.3,0.2,1.8,0.8
		l0.1,0.2l1.5-1.3l-0.1-0.2c-0.8-0.9-1.9-1.3-3.2-1.3c-2.6,0-4.4,1.8-4.4,4.4c0,2.6,1.8,4.4,4.4,4.4c1.3,0,2.4-0.4,3.2-1.3l0.1-0.2
		l-1.4-1.4L131.5,42.6z"/>
	<path class="st3" d="M137.1,43.4c-1.4,0-2.4-1-2.4-2.5s1-2.5,2.4-2.5s2.4,1,2.4,2.5C139.4,42.4,138.5,43.4,137.1,43.4 M137.1,36.5
		c-2.5,0-4.4,1.9-4.4,4.4s1.9,4.4,4.4,4.4s4.4-1.9,4.4-4.4S139.5,36.5,137.1,36.5"/>
	<path class="st3" d="M147.6,41c0,1.6-0.7,2.4-2,2.4c-0.6,0-1.6-0.2-1.6-1.8v-4.9h-1.9V42c0,2.4,1.6,3.2,3.1,3.2c1,0,1.9-0.4,2.4-1
		V45h1.9v-8.4h-1.9V41z"/>
	<path class="st3" d="M154.6,36.5c-1,0-1.9,0.4-2.4,1v-0.8h-1.9V45h1.9v-4.3c0-1.6,0.7-2.4,2-2.4c0.6,0,1.6,0.2,1.6,1.8V45h1.9v-5.3
		C157.7,37.3,156.1,36.5,154.6,36.5"/>
	<path class="st3" d="M162.6,43.4c-0.9,0-0.9-0.6-0.9-1.6v-3.4h2.2v-1.7h-2.2v-1.5l-1.9,0.4v1.1H158v1.7h1.7v3.9
		c0,1.2,0,2.9,2.6,2.9c0.2,0,1-0.1,1.5-0.3l0.1-0.1V43l-0.3,0.2C163.3,43.4,162.9,43.4,162.6,43.4"/>
	<rect x="164.6" y="36.7" class="st3" width="1.9" height="8.4"/>
	<path class="st3" d="M182.1,40.8c0,1.5-0.9,2.4-2.4,2.4s-2.4-0.9-2.4-2.4s1-2.5,2.4-2.5C181.2,38.3,182.1,39.3,182.1,40.8
		 M182.1,36.7v0.8c-0.6-0.6-1.6-1-2.6-1c-2.5,0-4.2,1.8-4.2,4.4c0,1.2,0.4,2.3,1.2,3.1c0.8,0.8,1.9,1.2,3,1.2c1,0,2-0.4,2.6-1v0.6
		c0,1.2-0.5,2.5-2.6,2.5c-1,0-1.9-0.4-2.7-1.2l-0.2-0.2l-1.3,1.6l0.1,0.1c1.1,1,2.4,1.5,4,1.5c2.7,0,4.5-1.8,4.5-4.3v-8.1
		C183.9,36.7,182.1,36.7,182.1,36.7z"/>
	<polygon class="st3" points="191.5,36.6 184.8,36.6 184.8,38.4 187.2,38.4 187.2,45.1 189.1,45.1 189.1,38.4 191.5,38.4 	"/>
	<path class="st3" d="M195.9,43.5c-1.5,0-2.5-1.1-2.5-2.7c0-1.5,1-2.6,2.5-2.6c1.4,0,2.5,1.1,2.5,2.6
		C198.4,42.4,197.4,43.5,195.9,43.5 M196,36.4L196,36.4c-1.4,0-2.5,0.4-3.3,1.2c-0.8,0.8-1.3,1.9-1.3,3.2s0.4,2.4,1.3,3.2
		c0.8,0.8,1.9,1.2,3.2,1.2l0,0l0,0c2.6,0,4.5-1.9,4.5-4.4c0-1.3-0.4-2.4-1.2-3.2C198.4,36.9,197.3,36.4,196,36.4"/>
	<path class="st3" d="M211.5,41.5l0.9-2.3l0.9,2.3H211.5z M211.6,36.6l-0.1,0.1l-3.6,8.3h2.1l0.7-1.8h3.1l0.7,1.8h2.2l-3.6-8.4
		H211.6z"/>
	<polygon class="st3" points="220.5,36.6 218.7,39.6 216.9,36.6 214.5,36.6 217.7,41.5 217.7,45.1 219.6,45.1 219.6,41.5 
		222.8,36.6 	"/>
	<path class="st3" d="M202.9,38.4h1.1c1.3,0,2.8,0.4,2.8,2.5s-1.9,2.5-3,2.5H203v-5H202.9z M207.3,37.7c-0.8-0.7-1.8-1-3-1H201v8.4
		h3.2c2.2,0,4.5-1.5,4.5-4.2C208.7,39.5,208.2,38.4,207.3,37.7"/>
	<path class="st3" d="M171.7,36.5c-1,0-1.9,0.4-2.4,1v-0.8h-1.9V45h1.9v-4.3c0-1.6,0.7-2.4,2-2.4c0.6,0,1.6,0.2,1.6,1.8V45h1.9v-5.3
		C174.8,37.3,173.2,36.5,171.7,36.5"/>
</g>
<g>
	<path class="st3" d="M149.3,126.7l3.3-3c0.2-0.2,0.3-0.3,0.5-0.5c0.2-0.2,0.3-0.4,0.3-0.7c0-0.3-0.1-0.5-0.3-0.7s-0.5-0.2-0.7-0.2
		c-0.3,0-0.6,0.1-0.8,0.3s-0.3,0.5-0.3,0.8l-1.8-0.1c0-0.4,0.1-0.8,0.3-1.1c0.2-0.3,0.4-0.6,0.6-0.8c0.3-0.2,0.6-0.4,0.9-0.5
		c0.4-0.1,0.7-0.2,1.2-0.2c0.4,0,0.7,0.1,1.1,0.2c0.3,0.1,0.6,0.3,0.9,0.5s0.4,0.5,0.6,0.8c0.1,0.3,0.2,0.7,0.2,1.1
		c0,0.3,0,0.5-0.1,0.7c-0.1,0.2-0.1,0.4-0.2,0.6s-0.2,0.3-0.4,0.5c-0.1,0.2-0.3,0.3-0.4,0.4l-2.6,2.2h3.8v1.6h-5.9V126.7z"/>
	<path class="st3" d="M156.2,124.4c0-0.5,0-1,0.1-1.5c0.1-0.5,0.3-1,0.5-1.4c0.2-0.4,0.6-0.8,1-1c0.4-0.3,0.9-0.4,1.6-0.4
		c0.6,0,1.2,0.1,1.6,0.4c0.4,0.3,0.7,0.6,1,1c0.2,0.4,0.4,0.9,0.5,1.4c0.1,0.5,0.1,1,0.1,1.5s0,1-0.1,1.5c-0.1,0.5-0.3,1-0.5,1.4
		c-0.2,0.4-0.6,0.8-1,1c-0.4,0.3-0.9,0.4-1.6,0.4c-0.6,0-1.2-0.1-1.6-0.4c-0.4-0.3-0.7-0.6-1-1s-0.4-0.9-0.5-1.4
		C156.2,125.4,156.2,124.9,156.2,124.4z M158,124.4c0,0.2,0,0.5,0,0.8c0,0.3,0.1,0.6,0.2,0.9c0.1,0.3,0.2,0.5,0.4,0.7
		c0.2,0.2,0.4,0.3,0.8,0.3c0.3,0,0.6-0.1,0.8-0.3c0.2-0.2,0.3-0.4,0.4-0.7s0.1-0.6,0.2-0.9c0-0.3,0-0.6,0-0.8s0-0.5,0-0.8
		c0-0.3-0.1-0.6-0.2-0.9s-0.2-0.5-0.4-0.7c-0.2-0.2-0.4-0.3-0.8-0.3c-0.3,0-0.6,0.1-0.8,0.3c-0.2,0.2-0.3,0.4-0.4,0.7
		c-0.1,0.3-0.1,0.6-0.2,0.9C158,123.9,158,124.2,158,124.4z"/>
	<path class="st3" d="M163.5,126.7l3.3-3c0.2-0.2,0.3-0.3,0.5-0.5c0.2-0.2,0.3-0.4,0.3-0.7c0-0.3-0.1-0.5-0.3-0.7s-0.5-0.2-0.7-0.2
		c-0.3,0-0.6,0.1-0.8,0.3s-0.3,0.5-0.3,0.8l-1.8-0.1c0-0.4,0.1-0.8,0.3-1.1c0.2-0.3,0.4-0.6,0.6-0.8c0.3-0.2,0.6-0.4,0.9-0.5
		c0.4-0.1,0.7-0.2,1.2-0.2c0.4,0,0.7,0.1,1.1,0.2c0.3,0.1,0.6,0.3,0.9,0.5s0.4,0.5,0.6,0.8c0.1,0.3,0.2,0.7,0.2,1.1
		c0,0.3,0,0.5-0.1,0.7c-0.1,0.2-0.1,0.4-0.2,0.6c-0.1,0.2-0.2,0.3-0.4,0.5c-0.1,0.2-0.3,0.3-0.4,0.4l-2.6,2.2h3.8v1.6h-5.9V126.7z"
		/>
	<path class="st3" d="M172.6,123.5h0.6c0.2,0,0.3,0,0.5,0c0.2,0,0.3-0.1,0.4-0.1c0.1-0.1,0.2-0.2,0.3-0.3c0.1-0.1,0.1-0.3,0.1-0.5
		c0-0.3-0.1-0.5-0.3-0.6s-0.5-0.3-0.8-0.3c-0.3,0-0.5,0.1-0.7,0.2c-0.2,0.2-0.3,0.3-0.4,0.6l-2-0.4c0.1-0.4,0.2-0.7,0.4-0.9
		c0.2-0.3,0.4-0.5,0.7-0.6s0.6-0.3,0.9-0.4c0.3-0.1,0.7-0.1,1-0.1c0.4,0,0.7,0,1.1,0.1c0.3,0.1,0.7,0.2,0.9,0.4
		c0.3,0.2,0.5,0.4,0.6,0.7s0.2,0.6,0.2,1.1c0,0.5-0.1,0.9-0.4,1.2c-0.2,0.3-0.6,0.6-1.1,0.6v0c0.3,0,0.5,0.1,0.7,0.2
		s0.4,0.3,0.5,0.4s0.2,0.4,0.3,0.6c0.1,0.2,0.1,0.5,0.1,0.7c0,0.4-0.1,0.8-0.2,1.1c-0.2,0.3-0.4,0.6-0.7,0.8c-0.3,0.2-0.6,0.4-1,0.5
		c-0.4,0.1-0.8,0.2-1.2,0.2c-0.8,0-1.4-0.2-2-0.5c-0.5-0.4-0.9-0.9-1.1-1.7l1.9-0.4c0.1,0.3,0.2,0.5,0.4,0.7
		c0.2,0.2,0.5,0.3,0.9,0.3c0.4,0,0.7-0.1,0.9-0.3s0.3-0.5,0.3-0.8c0-0.2,0-0.4-0.2-0.6c-0.1-0.1-0.2-0.2-0.4-0.3
		c-0.2-0.1-0.3-0.1-0.5-0.1c-0.2,0-0.4,0-0.6,0h-0.4V123.5z"/>
</g>
</svg>
