<?xml version="1.0" encoding="UTF-8"?>
<svg xmlns="http://www.w3.org/2000/svg" version="1.1" viewBox="0 0 333.1 185.5">
  <defs>
    <style>
      .cls-1 {
        fill: #085f93;
      }

      .cls-2 {
        fill: #28aae1;
      }

      .cls-3 {
        fill: #fff;
      }

      .cls-4 {
        fill: #2ca9e1;
      }
    </style>
  </defs>
  <!-- Generator: Adobe Illustrator 28.6.0, SVG Export Plug-In . SVG Version: 1.2.0 Build 709)  -->
  <g>
    <g id="Layer_1">
      <g>
        <polygon class="cls-4" points="143.9 161.5 205.7 151.4 205.5 118.9 160.7 120 143.9 161.5"/>
        <polygon class="cls-1" points="205.5 151.4 150.2 146 151.9 141.2 205.6 140.4 205.5 151.4"/>
        <polygon class="cls-2" points="205.7 151.3 101.3 135.1 101.3 110.5 205.7 123.3 205.7 151.3"/>
        <polygon class="cls-1" points="205.6 138.2 101.2 135.1 101.5 114.5 205.9 125.2 205.6 138.2"/>
        <polygon class="cls-2" points="231.9 135 101.2 135 101.2 28.6 231.9 28.1 231.9 135"/>
        <path class="cls-3" d="M154.1,63.9c0-1.5-1.1-2.3-3-2.3h-2.7v4.5h2.6c1.9,0,3.1-.7,3.1-2.2M148.4,60.8h2.7c1.2,0,2.5-.5,2.5-2.1s-.8-2-2.8-2h-2.3v4.1h0ZM155,63.9c0,1.7-1.2,3-3.8,3h-3.7v-11.1h3.4c2,0,3.5.7,3.5,2.7s-.6,2.2-1.7,2.6h0c1.2.3,2.3,1.2,2.3,2.8"/>
        <polygon class="cls-3" points="157.4 55.8 164 55.8 164 56.7 158.2 56.7 158.2 61 163 61 163 61.8 158.2 61.8 158.2 66.1 164.3 66.1 164.3 66.9 157.4 66.9 157.4 55.8"/>
        <path class="cls-3" d="M165.8,65.3l.6-.7c.8,1,2.1,1.5,3.3,1.5s2.6-.8,2.6-2-1.2-1.9-2.8-2.5c-1.5-.6-3.3-1.2-3.3-3s1.4-2.8,3.3-2.8,2.4.4,3.4,1.2l-.6.7c-.9-.7-1.9-1.1-2.8-1.1s-2.3.6-2.3,1.9,1.2,1.7,2.6,2.3c1.8.7,3.4,1.2,3.4,3.3s-1.6,3-3.6,3c-1.3-.1-2.7-.6-3.8-1.8"/>
        <polygon class="cls-3" points="177.7 56.7 174.2 56.7 174.2 55.8 182.1 55.8 182.1 56.7 178.6 56.7 178.6 66.9 177.7 66.9 177.7 56.7"/>
        <path class="cls-3" d="M121.4,77.5l-1.2-3.7h0l-1.2,3.7h2.4ZM122.1,79.7h-3.9l-.6,2h-2.7l4.1-11.1h2.5l4.1,11.1h-2.7l-.8-2Z"/>
        <path class="cls-3" d="M125.5,76.2c0-3.2,2.1-5.7,5.7-5.7s3.2.6,4.5,2.1l-1.9,1.6c-.5-.6-1.5-1.3-2.5-1.3-1.6,0-3,1.2-3,3.2s1.2,3.1,3,3.1,1.9-.5,2.5-1.3l1.9,1.6c-1,1.2-2.5,2.1-4.5,2.1-3.1.2-5.7-1.8-5.7-5.4"/>
        <path class="cls-3" d="M136.5,76.2c0-3.2,2.1-5.7,5.7-5.7s3.2.6,4.5,2.1l-1.9,1.6c-.5-.6-1.5-1.3-2.5-1.3-1.6,0-3,1.2-3,3.2s1.2,3.1,3,3.1,1.9-.5,2.5-1.3l1.9,1.6c-1,1.2-2.5,2.1-4.5,2.1-3.1.2-5.7-1.8-5.7-5.4"/>
        <path class="cls-3" d="M156.1,76.1c0-1.9-1.2-3.3-3-3.3s-3,1.4-3,3.3,1.2,3.3,3,3.3,3-1.4,3-3.3M147.5,76.1c0-3.3,2.3-5.7,5.7-5.7s5.7,2.3,5.7,5.7-2.4,5.7-5.7,5.7c-3.4,0-5.7-2.3-5.7-5.7"/>
        <path class="cls-3" d="M160.3,77.1v-6.5h2.6v6.3c0,1.4.7,2.5,1.9,2.5s2-.9,2-2.5v-6.3h2.6v6.5c0,2.9-1.7,4.8-4.6,4.8-2.7,0-4.5-1.8-4.5-4.8"/>
        <polygon class="cls-3" points="180.8 70.6 180.8 81.7 178.1 81.7 173.9 75 173.8 75 173.8 81.7 171.2 81.7 171.2 70.6 173.8 70.6 178.1 77.4 178.1 70.6 180.8 70.6"/>
        <polygon class="cls-3" points="185 72.9 182 72.9 182 70.6 190.5 70.6 190.5 72.9 187.5 72.9 187.5 81.7 185 81.7 185 72.9"/>
        <rect class="cls-3" x="191.8" y="70.6" width="2.6" height="11.1"/>
        <polygon class="cls-3" points="206 70.6 206 81.7 203.3 81.7 199.1 75 199.1 75 199.1 81.7 196.5 81.7 196.5 70.6 199.1 70.6 203.4 77.4 203.4 70.6 206 70.6"/>
        <path class="cls-3" d="M207.5,76.2c0-3.2,2.1-5.7,5.6-5.7s3.3.7,4.5,2l-1.9,1.6c-.6-.6-1.4-1.1-2.6-1.1s-2.9,1.2-2.9,3.3,1.1,3.3,3,3.3,1.2,0,1.9-.5v-1.3h-2.1v-2.2h4.6v5c-1,.8-2.7,1.4-4.4,1.4-3.2-.2-5.7-2.2-5.7-5.8"/>
        <polygon class="cls-3" points="142.7 85.4 150.2 85.4 150.2 87.7 145.3 87.7 145.3 90.2 149.4 90.2 149.4 92.5 145.3 92.5 145.3 96.5 142.7 96.5 142.7 85.4"/>
        <rect class="cls-3" x="151.7" y="85.4" width="2.6" height="11.1"/>
        <path class="cls-3" d="M158.9,90.6h1.2c1.1,0,1.8-.6,1.8-1.5s-.6-1.5-1.7-1.5h-1.2v3h-.1ZM162.1,96.5l-2.3-3.6h-.9v3.6h-2.6v-11.1h4.3c2.7,0,4,1.6,4,3.8s-.8,2.8-2.1,3.3h0l2.6,3.9h-3Z"/>
        <polygon class="cls-3" points="177.7 85.4 177.7 96.5 175.1 96.5 175.1 90.3 175.1 90.3 172.9 94.4 171.2 94.4 169 90.4 168.9 90.4 168.9 96.5 166.3 96.5 166.3 85.4 169 85.4 172 91.2 172.1 91.2 175.1 85.4 177.7 85.4"/>
        <path class="cls-3" d="M179,94.8l1.5-1.9c.8.9,1.8,1.3,2.6,1.3s1.2-.4,1.2-.9-.4-.9-1.7-1.3c-1.7-.6-3.4-1.4-3.4-3.5s1.6-3.3,3.6-3.3,2.8.5,3.8,1.5l-1.5,1.9c-.9-.7-1.7-1.1-2.3-1.1s-1,.3-1,.9.4.7,1.6,1.2c1.9.7,3.4,1.3,3.4,3.4s-2.3,3.6-4,3.6-2.6-.6-3.8-1.8"/>
        <polygon class="cls-3" points="116 101 112.5 101 112.5 100.2 120.4 100.2 120.4 101 116.8 101 116.8 111.2 116 111.2 116 101"/>
        <path class="cls-3" d="M131.1,105.7c0-2.8-2-4.7-4.6-4.7s-4.6,2.1-4.6,4.7,1.8,4.8,4.6,4.8c2.6,0,4.6-2,4.6-4.8M121.1,105.7c0-3.1,2.2-5.6,5.5-5.6s5.5,2.2,5.5,5.6-2.4,5.6-5.5,5.6c-3.3,0-5.5-2.5-5.5-5.6"/>
        <polygon class="cls-3" points="152.6 100.2 149.1 111.2 148.2 111.2 145.3 101.5 145.3 101.5 142.5 111.2 141.6 111.2 138 100.2 138.9 100.2 142 109.8 142 109.8 144.8 100.2 145.8 100.2 148.6 109.8 151.7 100.2 152.6 100.2"/>
        <path class="cls-3" d="M163.7,105.7c0-2.8-2-4.7-4.6-4.7s-4.6,2.1-4.6,4.7,1.8,4.8,4.6,4.8c2.6,0,4.6-2,4.6-4.8M153.7,105.7c0-3.1,2.2-5.6,5.5-5.6s5.5,2.2,5.5,5.6-2.4,5.6-5.5,5.6c-3.3,0-5.5-2.5-5.5-5.6"/>
        <path class="cls-3" d="M167.9,105.9h2.6c2.1,0,2.9-1.1,2.9-2.5s-1-2.4-2.7-2.4h-2.9v4.9h0ZM173.5,111.2l-3.1-4.5h-2.5v4.5h-.9v-11.1h3.8c2.5,0,3.6,1.4,3.6,3.3s-1.2,3-2.9,3.3l3.1,4.5s-1.1,0-1.1,0Z"/>
        <polygon class="cls-3" points="179.7 106 177.8 108.2 177.8 111.2 176.9 111.2 176.9 100.2 177.8 100.2 177.8 106.9 177.8 106.9 183.5 100.2 184.7 100.2 180.3 105.3 184.8 111.2 183.7 111.2 179.7 106"/>
        <polygon class="cls-3" points="191.2 100.2 198.1 100.2 198.1 101 192.1 101 192.1 105.4 197.2 105.4 197.2 106.2 192.1 106.2 192.1 111.2 191.2 111.2 191.2 100.2"/>
        <path class="cls-3" d="M209.3,105.7c0-2.8-2-4.7-4.6-4.7s-4.6,2.1-4.6,4.7,1.8,4.8,4.6,4.8c2.5,0,4.6-2,4.6-4.8M199.2,105.7c0-3.1,2.2-5.6,5.5-5.6s5.5,2.2,5.5,5.6-2.4,5.6-5.5,5.6c-3.2,0-5.5-2.5-5.5-5.6"/>
        <path class="cls-3" d="M213.5,105.9h2.6c2.1,0,2.9-1.1,2.9-2.5s-1-2.4-2.7-2.4h-2.9v4.9h0ZM219.1,111.2l-3.1-4.5h-2.5v4.5h-.9v-11.1h3.8c2.5,0,3.6,1.4,3.6,3.3s-1.2,3-2.9,3.3l3.1,4.5s-1.1,0-1.1,0Z"/>
        <path class="cls-3" d="M113.7,43.6c-1.5,0-1.5-.8-1.5-1.1,0-1.1,1.6-1.3,2.9-1.3h.6v.3c.1,1-.5,2.1-2,2.1M117.6,43.4v-4c0-1.4-.9-2.9-3.5-2.9s-2.5.5-3.3,1.2l-.2.2,1.2,1.2.3-.2c.5-.4,1-.8,2-.8s1.7.7,1.7,1.5h0c0,0-.9,0-.9,0-3,0-4.6,1.1-4.6,3s1.2,2.6,3,2.6,2-.3,2.6-1v.8h1.8v-.2c0-.5,0-.9,0-1.5"/>
        <path class="cls-3" d="M124.3,42.6c-.5.6-1,.8-1.8.8-1.4,0-2.3-1-2.3-2.5s.7-2.6,2.3-2.6,1.3.2,1.8.8v.2c0,0,1.6-1.3,1.6-1.3v-.2c-.9-.9-2-1.3-3.3-1.3-2.6,0-4.4,1.8-4.4,4.4s1.8,4.4,4.4,4.4,2.4-.4,3.2-1.3v-.2c0,0-1.3-1.4-1.3-1.4l-.2.2Z"/>
        <path class="cls-3" d="M131.5,42.6c-.5.6-1,.8-1.8.8-1.4,0-2.3-1-2.3-2.5s.7-2.6,2.3-2.6,1.3.2,1.8.8v.2c.1,0,1.6-1.3,1.6-1.3v-.2c-.9-.9-2-1.3-3.3-1.3-2.6,0-4.4,1.8-4.4,4.4s1.8,4.4,4.4,4.4,2.4-.4,3.2-1.3v-.2c.1,0-1.3-1.4-1.3-1.4l-.2.2Z"/>
        <path class="cls-3" d="M137.1,43.4c-1.4,0-2.4-1-2.4-2.5s1-2.5,2.4-2.5,2.4,1,2.4,2.5c-.1,1.5-1,2.5-2.4,2.5M137.1,36.5c-2.5,0-4.4,1.9-4.4,4.4s1.9,4.4,4.4,4.4,4.4-1.9,4.4-4.4-2-4.4-4.4-4.4"/>
        <path class="cls-3" d="M147.6,41c0,1.6-.7,2.4-2,2.4s-1.6-.2-1.6-1.8v-4.9h-1.9v5.3c0,2.4,1.6,3.2,3.1,3.2s1.9-.4,2.4-1v.8h1.9v-8.4h-1.9v4.4Z"/>
        <path class="cls-3" d="M154.6,36.5c-1,0-1.9.4-2.4,1v-.8h-1.9v8.3h1.9v-4.3c0-1.6.7-2.4,2-2.4s1.6.2,1.6,1.8v4.9h1.9v-5.3c0-2.4-1.6-3.2-3.1-3.2"/>
        <path class="cls-3" d="M162.6,43.4c-.9,0-.9-.6-.9-1.6v-3.4h2.2v-1.7h-2.2v-1.5l-1.9.4v1.1h-1.8v1.7h1.7v3.9c0,1.2,0,2.9,2.6,2.9s1,0,1.5-.3h.1v-1.9l-.3.2c-.3.2-.7.2-1,.2"/>
        <rect class="cls-3" x="164.6" y="36.7" width="1.9" height="8.4"/>
        <path class="cls-3" d="M182.1,40.8c0,1.5-.9,2.4-2.4,2.4s-2.4-.9-2.4-2.4,1-2.5,2.4-2.5,2.4,1,2.4,2.5M182.1,36.7v.8c-.6-.6-1.6-1-2.6-1-2.5,0-4.2,1.8-4.2,4.4s.4,2.3,1.2,3.1,1.9,1.2,3,1.2,2-.4,2.6-1v.6c0,1.2-.5,2.5-2.6,2.5s-1.9-.4-2.7-1.2l-.2-.2-1.3,1.6h.1c1.1,1.1,2.4,1.6,4,1.6,2.7,0,4.5-1.8,4.5-4.3v-8.1s-1.8,0-1.8,0Z"/>
        <polygon class="cls-3" points="191.5 36.6 184.8 36.6 184.8 38.4 187.2 38.4 187.2 45.1 189.1 45.1 189.1 38.4 191.5 38.4 191.5 36.6"/>
        <path class="cls-3" d="M195.9,43.5c-1.5,0-2.5-1.1-2.5-2.7s1-2.6,2.5-2.6,2.5,1.1,2.5,2.6-1,2.7-2.5,2.7M196,36.4h0c-1.4,0-2.5.4-3.3,1.2s-1.3,1.9-1.3,3.2.4,2.4,1.3,3.2c.8.8,1.9,1.2,3.2,1.2h0c2.6,0,4.5-1.9,4.5-4.4s-.4-2.4-1.2-3.2c-.8-.7-1.9-1.2-3.2-1.2"/>
        <path class="cls-3" d="M211.5,41.5l.9-2.3.9,2.3h-1.8ZM211.6,36.6h-.1c0,0-3.6,8.4-3.6,8.4h2.1l.7-1.8h3.1l.7,1.8h2.2l-3.6-8.4h-1.5Z"/>
        <polygon class="cls-3" points="220.5 36.6 218.7 39.6 216.9 36.6 214.5 36.6 217.7 41.5 217.7 45.1 219.6 45.1 219.6 41.5 222.8 36.6 220.5 36.6"/>
        <path class="cls-3" d="M202.9,38.4h1.1c1.3,0,2.8.4,2.8,2.5s-1.9,2.5-3,2.5h-.8v-5h-.1ZM207.3,37.7c-.8-.7-1.8-1-3-1h-3.3v8.4h3.2c2.2,0,4.5-1.5,4.5-4.2s-.5-2.5-1.4-3.2"/>
        <path class="cls-3" d="M171.7,36.5c-1,0-1.9.4-2.4,1v-.8h-1.9v8.3h1.9v-4.3c0-1.6.7-2.4,2-2.4s1.6.2,1.6,1.8v4.9h1.9v-5.3c0-2.4-1.6-3.2-3.1-3.2"/>
      </g>
      <text/>
      <g>
        <path class="cls-3" d="M157.5,126h-7.2c0-.7.3-1.4.7-2s1.2-1.4,2.3-2.2c.7-.5,1.1-.9,1.3-1.2s.3-.5.3-.8,0-.5-.3-.7-.4-.3-.7-.3-.6,0-.7.3-.3.5-.4,1l-2.4-.2c0-.7.3-1.2.5-1.6s.6-.7,1.1-.9,1.1-.3,1.9-.3,1.5,0,2,.3.8.5,1.1.9.4.8.4,1.3-.2,1-.5,1.5-.9,1-1.7,1.6c-.5.3-.8.6-1,.7s-.4.3-.6.5h3.7v1.9Z"/>
        <path class="cls-3" d="M158.5,121.7c0-1.6.3-2.8.9-3.4s1.5-1,2.7-1,1.1,0,1.4.2.7.3.9.6.4.5.6.7.2.5.3.9c.2.6.2,1.3.2,2,0,1.6-.3,2.7-.8,3.4s-1.4,1.1-2.7,1.1-1.3-.1-1.8-.3-.8-.6-1.1-1c-.2-.3-.4-.7-.5-1.3s-.2-1.2-.2-1.8ZM160.9,121.7c0,1.1,0,1.8.3,2.2s.5.6.8.6.5,0,.6-.3.3-.4.4-.8.1-.9.1-1.7c0-1.1,0-1.9-.3-2.3s-.5-.6-.9-.6-.7.2-.9.6-.3,1.1-.3,2.2Z"/>
        <path class="cls-3" d="M173.5,126h-7.2c0-.7.3-1.4.7-2s1.2-1.4,2.3-2.2c.7-.5,1.1-.9,1.3-1.2s.3-.5.3-.8,0-.5-.3-.7-.4-.3-.7-.3-.6,0-.7.3-.3.5-.4,1l-2.4-.2c0-.7.3-1.2.5-1.6s.6-.7,1.1-.9,1.1-.3,1.9-.3,1.5,0,2,.3.8.5,1.1.9.4.8.4,1.3-.2,1-.5,1.5-.9,1-1.7,1.6c-.5.3-.8.6-1,.7s-.4.3-.6.5h3.7v1.9Z"/>
        <path class="cls-3" d="M178.6,124.4h-4.3v-2l4.3-5.2h2.1v5.3h1.1v1.9h-1.1v1.6h-2.1v-1.6ZM178.6,122.5v-2.7l-2.3,2.7h2.3Z"/>
      </g>
    </g>
  </g>
</svg>