<?xml version="1.0" encoding="utf-8"?>
<!-- Generator: Adobe Illustrator 24.2.3, SVG Export Plug-In . SVG Version: 6.00 Build 0)  -->
<svg version="1.1" xmlns="http://www.w3.org/2000/svg" xmlns:xlink="http://www.w3.org/1999/xlink" x="0px" y="0px"
	 viewBox="0 0 246.8 129.7" style="enable-background:new 0 0 246.8 129.7;" xml:space="preserve">
<style type="text/css">
	.st0{fill:#80BC00;}
	.st1{fill:#FFFFFF;}
	.st2{fill:#EDEDED;}
	.st3{fill:#81BA3F;}
	.st4{opacity:0.1;fill:url(#SVGID_1_);}
	.st5{opacity:0.75;fill:url(#SVGID_2_);}
	.st6{opacity:0.75;fill:url(#SVGID_3_);}
	.st7{fill:#646469;}
	.st8{fill:none;stroke:#81BA3F;stroke-width:2.3;stroke-miterlimit:10;}
	.st9{fill:#808080;}
	.st10{fill:#636569;}
	.st11{fill:#FFFFFF;stroke:#65656A;stroke-width:1.5542;stroke-linejoin:round;stroke-miterlimit:10;}
	.st12{fill:#FFFFFF;stroke:#65656A;stroke-width:1.9187;stroke-linejoin:round;stroke-miterlimit:10;}
	.st13{fill:none;stroke:#65656A;stroke-width:1.3822;stroke-miterlimit:10;}
	.st14{fill:none;stroke:#80BC00;stroke-width:3;stroke-linejoin:round;stroke-miterlimit:10;}
	.st15{fill:#ECECEC;stroke:#65656A;stroke-width:3;stroke-linejoin:round;stroke-miterlimit:10;}
	.st16{fill:none;stroke:#65656A;stroke-width:3;stroke-linejoin:round;stroke-miterlimit:10;}
	.st17{fill:#76A2DB;}
	.st18{fill:#F2B334;}
	.st19{fill:#E23E2F;}
	.st20{fill:#003088;}
	.st21{fill:#96CEE2;}
	.st22{fill:#49B2CE;}
	.st23{fill:#006796;}
	.st24{fill:none;stroke:#006796;stroke-width:0.9411;stroke-miterlimit:10;}
	.st25{fill:#8D8E92;}
	.st26{fill:#65656A;}
	.st27{opacity:0.98;fill:#484849;}
	.st28{fill:#999999;}
	.st29{fill:none;stroke:#999999;stroke-miterlimit:10;}
	.st30{fill:#81BA41;}
	.st31{opacity:0.75;fill:url(#SVGID_4_);}
	.st32{opacity:0.98;}
	.st33{fill:#8BC53F;}
	.st34{fill:#848487;}
	.st35{opacity:0.98;fill:none;stroke:#484849;stroke-width:1.5066;stroke-miterlimit:10;}
	.st36{fill:#ECEDEC;}
	.st37{clip-path:url(#SVGID_6_);}
	.st38{fill:#111111;}
	.st39{clip-path:url(#SVGID_8_);}
	.st40{fill:#891D03;}
	.st41{fill:#ADAFB1;}
	.st42{fill:#00DB00;}
	.st43{fill:#8F8A87;}
	.st44{fill:#EF7E19;}
	.st45{fill:#F6B881;}
	.st46{fill:#CCCCCC;}
	.st47{fill:#6D6E71;}
	.st48{clip-path:url(#SVGID_10_);fill:url(#SVGID_11_);}
	.st49{clip-path:url(#SVGID_13_);fill:url(#SVGID_14_);}
	.st50{fill:#37444C;}
	.st51{fill:#00A7DA;}
	.st52{fill:#ABBF00;}
	.st53{fill:#FFD100;}
	.st54{fill:url(#SVGID_15_);}
	.st55{fill:#2EAAE2;}
	.st56{fill:#2ECB70;}
	.st57{fill:#FFC600;}
	.st58{fill:none;}
	.st59{fill:#313E48;}
	.st60{fill:#FF6C0E;}
	.st61{opacity:0.75;}
	.st62{clip-path:url(#SVGID_17_);}
	.st63{clip-path:url(#SVGID_19_);}
	.st64{fill:#C75B12;}
	.st65{fill:#004A7C;}
	.st66{fill:#A9D15D;}
	.st67{clip-path:url(#SVGID_21_);fill:url(#SVGID_22_);}
	.st68{clip-path:url(#SVGID_24_);fill:url(#SVGID_25_);}
	.st69{fill:url(#SVGID_26_);}
	.st70{fill:#F63900;}
	.st71{opacity:0.75;clip-path:url(#SVGID_28_);}
	.st72{clip-path:url(#SVGID_30_);}
	.st73{clip-path:url(#SVGID_32_);}
	.st74{fill:#FFFFFF;stroke:#65656A;stroke-width:1.5503;stroke-linejoin:round;stroke-miterlimit:10;}
	.st75{fill:none;stroke:#65656A;stroke-width:1.3787;stroke-miterlimit:10;}
	.st76{fill:#929497;}
	.st77{fill:none;stroke:#65656A;stroke-width:1.5503;stroke-linejoin:round;stroke-miterlimit:10;}
	.st78{fill:#88201B;}
	.st79{fill:#ACAEB0;}
	.st80{fill:none;stroke:#65656A;stroke-width:1.4861;stroke-linejoin:round;stroke-miterlimit:10;}
</style>
<g id="Layer_1">
	<g>
		<path class="st42" d="M87.3,64.1c0-3.5,2.6-5.1,5.4-5.1c2.8,0,5.4,1.7,5.4,5.1H87.3z M92.3,55.4c-5.8,0-9.5,3.9-9.5,10.5
			c0,8.1,5.8,10.4,9.9,10.4c5.2,0,8.2-3.5,8.2-3.5l-2.7-2.7c-1.4,1.2-3,2-5.5,2c-3.2,0-5.4-1.9-5.4-4.4h14.3
			C101.6,67.6,104.1,55.4,92.3,55.4"/>
		<path class="st42" d="M39.7,63.8c-1.8-0.2-7.1,0-7.1-2.4c0-1.4,2.2-2.2,4.3-2.2c3.3,0,5.4,1.3,6,1.7l2.8-2.8
			c-0.8-0.7-3.8-2.8-8.8-2.8c-4.5,0-8.6,2.4-8.6,6.1c0,5.8,7,5.8,10,6.1c1.8,0.2,3.4,0.3,3.4,2c0,1.6-2.5,2.5-4.4,2.5
			c-3.1,0-5-1-6.8-2.7l-2.9,2.9c2.7,2.6,6.1,3.8,9.5,3.8c5.2,0,9.1-2.3,9.1-7C46,66.1,43.9,64.3,39.7,63.8"/>
		<path class="st42" d="M59.4,68.5c0,3.9-2.8,3.6-5.2,3.6c-2.5,0-4.1-0.7-4.1-2.4c0-1.6,1.3-2.1,4-2.1h5.3
			C59.4,67.6,59.4,68.5,59.4,68.5z M54.8,55.4c-4.5,0-7.5,2.3-8.1,2.8l2.8,2.8c0.5-0.4,2.4-1.7,5.3-1.7c3.5,0,4.5,1.4,4.5,3v2h-6.2
			c-2.3,0-6.8,0.6-6.8,5.6c0,3.7,2.1,6.5,7.2,6.5c2.6,0,4.5-0.8,5.8-2.4v2h4.5V62.4C63.8,57.8,61,55.4,54.8,55.4"/>
		<path class="st42" d="M77.8,65.8c0,1.6,0,2.7-0.2,3.3c-0.3,1.3-1.8,3-4.4,3c-0.7,0-4.1-0.4-4.5-3.4c-0.1-0.6-0.1-1.4-0.1-2.9
			c0-2.3,0.1-3,0.2-3.6c0.2-1.2,1.8-2.9,4.4-2.9c3.2,0,4.3,2.2,4.4,3.1C77.8,62.9,77.8,64.2,77.8,65.8 M77.8,55.8V58
			c-1.5-1.8-3.4-2.7-5.9-2.7c-4.3,0-6.5,2.4-7.2,5c-0.3,1-0.4,2.8-0.4,5.4c0,2.5,0,4.8,0.9,6.6c1.2,2.5,4.2,3.8,6.7,3.8
			c2.4,0,4.4-0.9,5.9-2.6v1.2c0,1.5-0.5,2.4-1.4,3.2c-1,0.8-2.1,1.2-3.8,1.2c-1.5,0-2.9-0.8-3.7-1.4l-3,3c2,1.6,4.3,2.7,6.8,2.7
			c2.7,0,4.9-0.8,6.8-2.3c1.8-1.4,3-4.1,3-7V55.8L77.8,55.8L77.8,55.8z"/>
		<rect x="114.2" y="48.1" class="st43" width="1.9" height="28.2"/>
		<path class="st43" d="M137.6,76.2h-1.9V63c0-3.3-1.1-5.2-4.4-5.2c-2.8,0-6,1.9-7.2,3.1v15.3h-1.9V56.4h1.7l0.1,2.6
			c2.3-1.6,4.9-2.9,7.7-2.9c4.2,0,6,2.4,6,6.8V76.2z"/>
		<path class="st43" d="M152.2,75.5c-0.9,0.7-2.8,1.2-4.2,1.2c-3.6,0-5-1.5-5-5V58.1h-3.1v-1.7h3.1v-5.6l1.9-0.3v6h5.6v1.7h-5.6
			v13.2c0,2.4,0.5,3.8,3.2,3.8c1.2,0,2.7-0.5,3.6-1.1L152.2,75.5z"/>
		<path class="st43" d="M165.4,66.4c-0.9-0.1-1.8-0.1-3-0.1c-4,0-7.4,0.8-7.4,4.8c0,2.1,0.8,3.9,4.1,3.9c2.5,0,4.9-1.2,6.3-2.8V66.4
			z M167.3,73.4c0,1.1,0.2,1.6,1.2,1.6c0.4,0,0.7-0.1,1.2-0.2l0.2,1.2c-0.8,0.4-1.3,0.5-2.1,0.5c-1.7,0-2.3-1.3-2.2-2.5
			c-1.5,1.5-3.9,2.7-6.7,2.7c-5.1,0-5.8-3.5-5.8-5.4c0-5.6,5.1-6.6,9.7-6.6c0.9,0,1.8,0,2.7,0.1V63c0-3.9-1-5.4-4.7-5.4
			c-3.3,0-4.6,1.2-5,3.7l-1.8-0.3c0.6-3.6,3-5,7-5c4.6,0,6.5,1.7,6.5,6.6L167.3,73.4L167.3,73.4z"/>
		<path class="st43" d="M171,66.4c0-7,3.4-10.3,9.2-10.3c3.7,0,6.8,2.1,7,6.4l-2,0.2c-0.4-3.4-2-5-5.2-5c-3.3,0-7,1.9-7,8.4
			c0,7,3.4,8.7,6.7,8.7c3,0,5.1-1.4,5.7-4.5l2,0.4c-0.7,4.2-4.1,5.9-7.6,5.9C173.3,76.7,171,72.4,171,66.4"/>
		<path class="st43" d="M189.7,66.4c0-7,3.4-10.3,9.2-10.3c3.7,0,6.8,2.1,7,6.4l-2,0.2c-0.4-3.4-2-5-5.2-5c-3.3,0-6.9,1.9-6.9,8.4
			c0,7,3.4,8.7,6.7,8.7c3,0,5.1-1.4,5.7-4.5l2,0.4c-0.7,4.2-4.1,5.9-7.6,5.9C191.9,76.7,189.7,72.4,189.7,66.4"/>
		<path class="st43" d="M219.4,75.5c-0.9,0.7-2.8,1.2-4.2,1.2c-3.6,0-5-1.5-5-5V58.1H207v-1.7h3.1v-5.6l1.9-0.3v6h5.6v1.7H212v13.2
			c0,2.4,0.5,3.8,3.2,3.8c1.2,0,2.7-0.5,3.6-1.1L219.4,75.5z"/>
	</g>
</g>
<g id="Layer_2">
</g>
</svg>
