<?xml version="1.0" encoding="utf-8"?>
<!-- Generator: Adobe Illustrator 24.2.3, SVG Export Plug-In . SVG Version: 6.00 Build 0)  -->
<svg version="1.1" xmlns="http://www.w3.org/2000/svg" xmlns:xlink="http://www.w3.org/1999/xlink" x="0px" y="0px"
	 viewBox="0 0 246.8 129.7" style="enable-background:new 0 0 246.8 129.7;" xml:space="preserve">
<style type="text/css">
	.st0{fill:#80BC00;}
	.st1{fill:#FFFFFF;}
	.st2{fill:#EDEDED;}
	.st3{fill:#81BA3F;}
	.st4{opacity:0.1;fill:url(#SVGID_1_);}
	.st5{opacity:0.75;fill:url(#SVGID_2_);}
	.st6{opacity:0.75;fill:url(#SVGID_3_);}
	.st7{fill:#646469;}
	.st8{fill:none;stroke:#81BA3F;stroke-width:2.3;stroke-miterlimit:10;}
	.st9{fill:#808080;}
	.st10{fill:#636569;}
	.st11{fill:#FFFFFF;stroke:#65656A;stroke-width:1.5542;stroke-linejoin:round;stroke-miterlimit:10;}
	.st12{fill:#FFFFFF;stroke:#65656A;stroke-width:1.9187;stroke-linejoin:round;stroke-miterlimit:10;}
	.st13{fill:none;stroke:#65656A;stroke-width:1.3822;stroke-miterlimit:10;}
	.st14{fill:none;stroke:#80BC00;stroke-width:3;stroke-linejoin:round;stroke-miterlimit:10;}
	.st15{fill:#ECECEC;stroke:#65656A;stroke-width:3;stroke-linejoin:round;stroke-miterlimit:10;}
	.st16{fill:none;stroke:#65656A;stroke-width:3;stroke-linejoin:round;stroke-miterlimit:10;}
	.st17{fill:#76A2DB;}
	.st18{fill:#F2B334;}
	.st19{fill:#E23E2F;}
	.st20{fill:#003088;}
	.st21{fill:#96CEE2;}
	.st22{fill:#49B2CE;}
	.st23{fill:#006796;}
	.st24{fill:none;stroke:#006796;stroke-width:0.9411;stroke-miterlimit:10;}
	.st25{fill:#8D8E92;}
	.st26{fill:#65656A;}
	.st27{opacity:0.98;fill:#484849;}
	.st28{fill:#999999;}
	.st29{fill:none;stroke:#999999;stroke-miterlimit:10;}
	.st30{fill:#81BA41;}
	.st31{opacity:0.75;fill:url(#SVGID_4_);}
	.st32{opacity:0.98;}
	.st33{fill:#8BC53F;}
	.st34{fill:#848487;}
	.st35{opacity:0.98;fill:none;stroke:#484849;stroke-width:1.5066;stroke-miterlimit:10;}
	.st36{fill:#ECEDEC;}
	.st37{clip-path:url(#SVGID_6_);}
	.st38{fill:#111111;}
	.st39{clip-path:url(#SVGID_8_);}
	.st40{fill:#891D03;}
	.st41{fill:#ADAFB1;}
	.st42{fill:#00DB00;}
	.st43{fill:#8F8A87;}
	.st44{fill:#EF7E19;}
	.st45{fill:#F6B881;}
	.st46{fill:#CCCCCC;}
	.st47{fill:#6D6E71;}
	.st48{clip-path:url(#SVGID_10_);fill:url(#SVGID_11_);}
	.st49{clip-path:url(#SVGID_13_);fill:url(#SVGID_14_);}
	.st50{fill:#37444C;}
	.st51{fill:#00A7DA;}
	.st52{fill:#ABBF00;}
	.st53{fill:#FFD100;}
	.st54{fill:url(#SVGID_15_);}
	.st55{fill:#2EAAE2;}
	.st56{fill:#2ECB70;}
	.st57{fill:#FFC600;}
	.st58{fill:none;}
	.st59{fill:#313E48;}
	.st60{fill:#FF6C0E;}
	.st61{opacity:0.75;}
	.st62{clip-path:url(#SVGID_17_);}
	.st63{clip-path:url(#SVGID_19_);}
	.st64{fill:#C75B12;}
	.st65{fill:#004A7C;}
	.st66{fill:#A9D15D;}
	.st67{clip-path:url(#SVGID_21_);fill:url(#SVGID_22_);}
	.st68{clip-path:url(#SVGID_24_);fill:url(#SVGID_25_);}
	.st69{fill:url(#SVGID_26_);}
	.st70{fill:#F63900;}
	.st71{opacity:0.75;clip-path:url(#SVGID_28_);}
	.st72{clip-path:url(#SVGID_30_);}
	.st73{clip-path:url(#SVGID_32_);}
	.st74{fill:#FFFFFF;stroke:#65656A;stroke-width:1.5503;stroke-linejoin:round;stroke-miterlimit:10;}
	.st75{fill:none;stroke:#65656A;stroke-width:1.3787;stroke-miterlimit:10;}
	.st76{fill:#929497;}
	.st77{fill:none;stroke:#65656A;stroke-width:1.5503;stroke-linejoin:round;stroke-miterlimit:10;}
	.st78{fill:#88201B;}
	.st79{fill:#ACAEB0;}
	.st80{fill:none;stroke:#65656A;stroke-width:1.4861;stroke-linejoin:round;stroke-miterlimit:10;}
</style>
<g id="Layer_1">
	<g>
		<g id="logo-orangeAsset-2_1_">
			<rect id="Rectangle_1_" x="82" y="58.9" class="st44" width="6.4" height="22.1"/>
			<rect x="93.3" y="48.5" class="st44" width="6.4" height="32.5"/>
			<rect x="104.5" y="48.5" class="st44" width="6.4" height="32.5"/>
			<path id="Path_1_" class="st44" d="M85.3,48.1c-2.1,0-3.8,1.7-3.8,3.8c0,2.1,1.7,3.8,3.8,3.8c2.1,0,3.8-1.7,3.8-3.8
				c0-1-0.4-2-1.1-2.7C87.3,48.5,86.3,48.1,85.3,48.1"/>
			<path class="st45" d="M65.3,57.1v-8.4l8.6,6.3c1.8,1.3,3,3.2,3.5,5.4c-1.9-2.3-4.5-3.3-6.3-3.3L65.3,57.1L65.3,57.1z"/>
			<path id="Shape_1_" class="st44" d="M71,73.4c-0.1,1-0.9,1.8-1.9,1.8h-5.5V64.6H69c1,0,1.9,0.8,1.9,1.8C71,66.4,71,73.4,71,73.4z
				 M63.6,58.9V48.5h-6.4V81h13.4c1.8,0,3.6-0.7,4.8-2c1.3-1.3,2-3,2-4.8v-8.5c0-3.8-3-6.8-6.8-6.8L63.6,58.9L63.6,58.9z"/>
			<path class="st46" d="M129.2,81.6c-6.6,0-8.2-4.1-8.2-7.7V66c0-4.4,2.3-7.7,8.1-7.7c5.7,0,7.7,2.7,7.7,6.4v1.9h-3.3v-1.5
				c0-2.2-1.1-3.8-4.3-3.8c-3.6,0-4.7,1.9-4.7,4.9v7.4c0,2.9,1.2,5.3,4.8,5.3c3.1,0,4.3-1.5,4.3-3.7v-1.5h3.3v1.6
				C136.8,78.8,134.6,81.6,129.2,81.6z"/>
			<path class="st46" d="M148.4,81.6c-6.4,0-8.3-3.8-8.3-8v-7.3c0-3.9,2-8.1,8.6-8.1c6.6,0,8.4,4.1,8.4,7.9v7.4
				C157,77.5,155.4,81.6,148.4,81.6z M148.7,78.7c3.8,0,4.9-2.3,4.9-5.3v-7c0-2.8-1-5.1-4.9-5.1c-3.8,0-5.1,2.3-5.1,5.3v6.9
				C143.5,76.7,144.8,78.7,148.7,78.7z"/>
			<path class="st46" d="M160.9,81V58.9h3L164,62c1-1.9,3.1-3.7,6.5-3.7c3.5,0,5.3,1.8,6,3.9c1.3-2.5,3.9-4,6.6-3.9
				c5,0,6.4,3.6,6.4,7V81h-3.4V66.2c0-2.7-0.7-4.9-4-4.9c-1.3-0.1-2.7,0.4-3.6,1.3c-1,0.9-1.6,2.2-1.6,3.6v14.9h-3.4V65.9
				c0-2.4-0.7-4.6-4-4.6c-1.3-0.1-2.7,0.4-3.6,1.3c-1,0.9-1.6,2.2-1.6,3.5V81L160.9,81L160.9,81z"/>
			<circle id="Oval_1_" class="st46" cx="116.5" cy="79.3" r="2.4"/>
		</g>
	</g>
</g>
<g id="Layer_2">
</g>
</svg>
