<?xml version="1.0" encoding="utf-8"?>
<!-- Generator: Adobe Illustrator 24.2.3, SVG Export Plug-In . SVG Version: 6.00 Build 0)  -->
<svg version="1.1" xmlns="http://www.w3.org/2000/svg" xmlns:xlink="http://www.w3.org/1999/xlink" x="0px" y="0px"
	 viewBox="0 0 246.8 129.7" style="enable-background:new 0 0 246.8 129.7;" xml:space="preserve">
<style type="text/css">
	.st0{fill:#80BC00;}
	.st1{fill:#FFFFFF;}
	.st2{fill:#EDEDED;}
	.st3{fill:#81BA3F;}
	.st4{opacity:0.1;fill:url(#SVGID_1_);}
	.st5{opacity:0.75;fill:url(#SVGID_2_);}
	.st6{opacity:0.75;fill:url(#SVGID_3_);}
	.st7{fill:#646469;}
	.st8{fill:none;stroke:#81BA3F;stroke-width:2.3;stroke-miterlimit:10;}
	.st9{fill:#808080;}
	.st10{fill:#636569;}
	.st11{fill:#FFFFFF;stroke:#65656A;stroke-width:1.5542;stroke-linejoin:round;stroke-miterlimit:10;}
	.st12{fill:#FFFFFF;stroke:#65656A;stroke-width:1.9187;stroke-linejoin:round;stroke-miterlimit:10;}
	.st13{fill:none;stroke:#65656A;stroke-width:1.3822;stroke-miterlimit:10;}
	.st14{fill:none;stroke:#80BC00;stroke-width:3;stroke-linejoin:round;stroke-miterlimit:10;}
	.st15{fill:#ECECEC;stroke:#65656A;stroke-width:3;stroke-linejoin:round;stroke-miterlimit:10;}
	.st16{fill:none;stroke:#65656A;stroke-width:3;stroke-linejoin:round;stroke-miterlimit:10;}
	.st17{fill:#76A2DB;}
	.st18{fill:#F2B334;}
	.st19{fill:#E23E2F;}
	.st20{fill:#003088;}
	.st21{fill:#96CEE2;}
	.st22{fill:#49B2CE;}
	.st23{fill:#006796;}
	.st24{fill:none;stroke:#006796;stroke-width:0.9411;stroke-miterlimit:10;}
	.st25{fill:#8D8E92;}
	.st26{fill:#65656A;}
	.st27{opacity:0.98;fill:#484849;}
	.st28{fill:#999999;}
	.st29{fill:none;stroke:#999999;stroke-miterlimit:10;}
	.st30{fill:#81BA41;}
	.st31{opacity:0.75;fill:url(#SVGID_4_);}
	.st32{opacity:0.98;}
	.st33{fill:#8BC53F;}
	.st34{fill:#848487;}
	.st35{opacity:0.98;fill:none;stroke:#484849;stroke-width:1.5066;stroke-miterlimit:10;}
	.st36{fill:#ECEDEC;}
	.st37{clip-path:url(#SVGID_6_);}
	.st38{fill:#111111;}
	.st39{clip-path:url(#SVGID_8_);}
	.st40{fill:#891D03;}
	.st41{fill:#ADAFB1;}
	.st42{fill:#00DB00;}
	.st43{fill:#8F8A87;}
	.st44{fill:#EF7E19;}
	.st45{fill:#F6B881;}
	.st46{fill:#CCCCCC;}
	.st47{fill:#6D6E71;}
	.st48{clip-path:url(#SVGID_10_);fill:url(#SVGID_11_);}
	.st49{clip-path:url(#SVGID_13_);fill:url(#SVGID_14_);}
	.st50{fill:#37444C;}
	.st51{fill:#00A7DA;}
	.st52{fill:#ABBF00;}
	.st53{fill:#FFD100;}
	.st54{fill:url(#SVGID_15_);}
	.st55{fill:#2EAAE2;}
	.st56{fill:#2ECB70;}
	.st57{fill:#FFC600;}
	.st58{fill:none;}
	.st59{fill:#313E48;}
	.st60{fill:#FF6C0E;}
	.st61{opacity:0.75;}
	.st62{clip-path:url(#SVGID_17_);}
	.st63{clip-path:url(#SVGID_19_);}
	.st64{fill:#C75B12;}
	.st65{fill:#004A7C;}
	.st66{fill:#A9D15D;}
	.st67{clip-path:url(#SVGID_21_);fill:url(#SVGID_22_);}
	.st68{clip-path:url(#SVGID_24_);fill:url(#SVGID_25_);}
	.st69{fill:url(#SVGID_26_);}
	.st70{fill:#F63900;}
	.st71{opacity:0.75;clip-path:url(#SVGID_28_);}
	.st72{clip-path:url(#SVGID_30_);}
	.st73{clip-path:url(#SVGID_32_);}
	.st74{fill:#FFFFFF;stroke:#65656A;stroke-width:1.5503;stroke-linejoin:round;stroke-miterlimit:10;}
	.st75{fill:none;stroke:#65656A;stroke-width:1.3787;stroke-miterlimit:10;}
	.st76{fill:#929497;}
	.st77{fill:none;stroke:#65656A;stroke-width:1.5503;stroke-linejoin:round;stroke-miterlimit:10;}
	.st78{fill:#88201B;}
	.st79{fill:#ACAEB0;}
	.st80{fill:none;stroke:#65656A;stroke-width:1.4861;stroke-linejoin:round;stroke-miterlimit:10;}
</style>
<g id="Layer_1">
	<g>
		<path class="st1" d="M97.1,49.5C97.1,49.5,97.1,49.5,97.1,49.5c-0.8-0.3-1.7-0.3-2.6,0.1L65,59.6V74l23-13.3l-11.2,23h13.9
			L99,53.8C99.7,52.1,98.8,50.1,97.1,49.5"/>
		<g>
			<path class="st47" d="M134.7,59.7c0,0.6,0,1.4-0.1,2l-1.2,8.6c-0.2,1.2-0.3,2.8-0.3,3.9c0,0.5,0,0.9,0,1.5h-6.7
				c-0.1-0.6-0.1-1.2-0.2-1.7c-1.7,1.6-3.8,2.4-6.3,2.4c-4.3,0-7-2.4-7-6.2c0-3.9,2.1-6.4,7.7-7.6l3.9-0.8c2.3-0.5,3.1-0.8,3.1-1.7
				c0-1.2-1.2-1.7-4.1-1.7c-2.6,0-5.7,0.6-8.4,1.6l1.6-5.8c2.4-0.8,5-1.3,7.7-1.3C131.3,52.9,134.7,55.4,134.7,59.7 M122.3,71.4
				c1.6,0,2.8-0.4,4.2-1.6l0.6-4.6c-0.4,0.2-0.8,0.3-1.3,0.4l-3.2,0.7c-2.2,0.5-3,1.4-3,2.9C119.6,70.6,120.6,71.4,122.3,71.4"/>
			<path class="st47" d="M160.5,63.1c0,6.7-3.5,13.4-11.4,13.4c-2.7,0-4.5-0.9-5.7-2l-1.3,9.6h-7.3l4.3-30.5h6.4l0,1.6
				c1.4-1.5,3.2-2.2,5.6-2.2C156.7,52.9,160.5,56.6,160.5,63.1 M153.2,63.1c0-3.1-1.7-4.8-4.1-4.8c-1.6,0-2.6,0.3-3.6,1l-1.4,10.1
				c0.9,0.9,2,1.6,3.8,1.6C152.1,71,153.2,66.5,153.2,63.1"/>
			<path class="st47" d="M173.3,69.7c0-0.8-0.3-1.2-2.2-1.9l-3.1-1.3c-3.4-1.4-4.9-3.2-4.9-6.5c0-4.1,3.2-7.1,10.2-7.1
				c3.2,0,6.1,0.9,8.5,2.2l-1.5,5c-2.3-1-4.9-1.9-7.1-1.9c-1.9,0-2.9,0.5-2.9,1.4c0,0.9,0.6,1.2,1.9,1.8l3.3,1.4
				c3.5,1.5,5.1,3,5.1,6.6c0,3.5-2.6,7.1-10,7.1c-4,0-7-1.1-9.2-2.3l1.4-5c2.2,1.1,4.9,2,7.7,2C172.6,71.2,173.3,70.6,173.3,69.7"/>
			<g>
				<defs>
					<polygon id="SVGID_20_" points="65,74 65,83.7 76.9,83.7 88.1,60.6 					"/>
				</defs>
				<clipPath id="SVGID_1_">
					<use xlink:href="#SVGID_20_"  style="overflow:visible;"/>
				</clipPath>
				
					<linearGradient id="SVGID_2_" gradientUnits="userSpaceOnUse" x1="1354.9773" y1="1812.0236" x2="1355.7699" y2="1812.0236" gradientTransform="matrix(39.187 -40.0092 -40.0092 -39.187 19465.9199 125302.4844)">
					<stop  offset="0" style="stop-color:#D1D2D3"/>
					<stop  offset="0.2682" style="stop-color:#CDCED0"/>
					<stop  offset="0.5105" style="stop-color:#C2C4C5"/>
					<stop  offset="0.7427" style="stop-color:#B0B2B4"/>
					<stop  offset="0.9676" style="stop-color:#96989B"/>
					<stop  offset="1" style="stop-color:#929497"/>
				</linearGradient>
				<polygon style="clip-path:url(#SVGID_1_);fill:url(#SVGID_2_);" points="53.5,72.4 76.3,49.1 99.6,71.9 76.8,95.2 				"/>
			</g>
			<g>
				<defs>
					<path id="SVGID_23_" d="M67.2,45.7c-1.2,0-2.2,1-2.2,2.2v11.7l29.5-10c0.8-0.4,1.8-0.4,2.6-0.1c0,0,0,0,0,0
						c1.7,0.7,2.6,2.6,1.9,4.3l-8.2,29.9h9.9c1.2,0,2.2-1,2.2-2.2V47.9c0-1.2-1-2.2-2.2-2.2H67.2z"/>
				</defs>
				<clipPath id="SVGID_3_">
					<use xlink:href="#SVGID_23_"  style="overflow:visible;"/>
				</clipPath>
				
					<linearGradient id="SVGID_4_" gradientUnits="userSpaceOnUse" x1="1355.939" y1="1801.9308" x2="1356.7314" y2="1801.9308" gradientTransform="matrix(52.1599 -53.7504 -53.7504 -52.1599 26193.959 166954.7812)">
					<stop  offset="0" style="stop-color:#25ABDD"/>
					<stop  offset="1" style="stop-color:#62C5BD"/>
				</linearGradient>
				<polygon style="clip-path:url(#SVGID_3_);fill:url(#SVGID_4_);" points="46,65.2 83.4,26.7 122,64.1 84.6,102.7 				"/>
			</g>
		</g>
	</g>
</g>
<g id="Layer_2">
</g>
</svg>
