<?xml version="1.0" encoding="utf-8"?>
<!-- Generator: Adobe Illustrator 28.3.0, SVG Export Plug-In . SVG Version: 6.00 Build 0)  -->
<svg version="1.1" id="Layer_1" xmlns="http://www.w3.org/2000/svg" xmlns:xlink="http://www.w3.org/1999/xlink" x="0px" y="0px"
	 viewBox="0 0 333.1 185.5" style="enable-background:new 0 0 333.1 185.5;" xml:space="preserve">
<style type="text/css">
	.st0{fill:#88201B;}
	.st1{fill:#ADAFB0;}
	.st2{fill:#AEAFB1;}
</style>
<g>
	<path class="st0" d="M33.1,81.4c-0.9-0.1-1.8,0-2.6,0.4c-0.4,0.2-0.9,0.9-4.1,12.3c0,0.3-0.1,0.6,0.1,0.7c1,0.1,2,0.2,2.9,0.1
		c6.2,0,8.5-5.1,8.5-9c0.2-2.3-1.6-4.4-3.9-4.5l0,0C33.7,81.3,33.4,81.3,33.1,81.4 M28.9,96.1c-0.9-0.1-1.8-0.1-2.7,0
		c-0.3,0.1-0.5,0.4-0.5,0.7c-3.2,11.2-3.6,13.5-3,14.1s1.4,0.9,4,0.9c5.2,0.2,9.5-3.9,9.7-9l0,0v-0.4C36.3,98.8,33.6,96,28.9,96.1
		 M33,95.2c-0.2,0-0.3,0.4,0,0.4c5.8,0.7,8.1,3.8,8.1,7.4c0,4.8-5.4,9.9-14.5,9.9c-1.3,0-3.2-0.2-5.6-0.2s-6.3,0-7.6,0.2
		c-0.2,0-0.3-0.1-0.3-0.3c0-0.2,0.1-0.3,0.3-0.3c1.1-0.1,2.2-0.3,3.2-0.5c0.4-0.2,1-1.4,4.9-15.1s4.1-15,3.7-15.2
		c-0.9-0.3-1.9-0.5-2.9-0.6c-0.3,0-0.2-0.6,0-0.6c1.3,0.1,4.9,0.2,7.4,0.2s3.2-0.2,4.4-0.2c5.4,0,8.4,2.6,8.4,6.3
		C42.5,90.4,38.9,93.9,33,95.2"/>
	<path class="st0" d="M53.9,93.8c-1.9,0-4,3-5.8,8.4c5.6-0.7,7.1-4.2,7.1-6.7C55.2,94.4,54.8,93.8,53.9,93.8 M47.9,102.7
		c-0.6,1.5-0.9,3.1-0.9,4.7c0,2,1,3.3,2.7,3.3c2.5-0.3,4.7-1.6,6.3-3.5c0.1-0.1,0.2-0.1,0.3,0c0,0.1,0,0.1,0,0.2
		c-1.6,2.9-5.1,5.7-8.1,5.7c-2.7,0.2-5-1.7-5.3-4.4l0,0c0-0.3,0-0.7,0-1c0-5.6,5.4-15,11.5-15c2-0.3,3.8,1.2,4.1,3.1l0,0
		c0,0,0,0.1,0,0.2c0,3.6-5,6.5-10.6,6.5"/>
	<path class="st0" d="M70.1,97.9c-2,0-1.7-3.7-4.2-3.7c-1.3,0.2-2.3,1.3-2.3,2.7c0,2.5,5,6.8,5,10.4c-0.1,3.5-3.1,6.2-6.5,6.1h-0.4
		c-3.3,0-5.1-2.2-5.1-3.6c0-1,0.8-1.9,1.9-1.9c2.3,0,2,4.5,4.8,4.5c1.5,0,2.5-1.5,2.5-3.2c0-3-4.7-6.1-4.7-10.1
		c0.2-3.5,3.1-6.2,6.6-6.1c2.1-0.2,4,1.2,4.3,3.2C71.9,97,71.1,97.8,70.1,97.9"/>
	<path class="st0" d="M85.6,95.3c-1.6,0-1.7-0.1-4.6-0.1c-1.6,4.2-3.6,9.4-4.7,12.6c-0.7,2-0.2,2.6,0.4,2.6c1.7,0,5.2-4.2,5.6-4.2
		s0.2,0,0.1,0.2c-1.4,2.4-5.4,6.9-8.4,6.9c-1.5,0-2.9-1.5-1.5-4.7c1.7-4.3,3.4-9.1,4.8-13.4c-1.2,0-2.5,0-3.7,0.1
		c-0.4,0-0.4-1.4,0-1.3c1.3,0,2.2,0.1,3.9,0.1c0.5-1.6,1-3,1.4-4c0-0.2,0.5-0.2,0.7-0.2c0.8,0,3.3,0.2,3.1,0.7
		c-0.4,1-0.9,2.2-1.4,3.6c1.4,0,2.8,0,4.2-0.1C85.9,94,85.9,95.4,85.6,95.3"/>
	<path class="st0" d="M107.6,81.4c-0.8-0.1-1.6,0.1-2.3,0.4c-0.4,0.2-1.7,3.9-4.9,15.3c0,0.4-0.1,0.5,0.1,0.6
		c0.8,0.2,1.6,0.3,2.5,0.2c5.7-0.3,10.2-4.9,10.3-10.6c0.3-3-1.8-5.6-4.8-6C108.2,81.4,108,81.4,107.6,81.4 M99.9,98.8
		c-3.4,11.9-3.4,12.7-3,12.9c0.3,0.2,2.4,0.3,3.5,0.6c0.4,0.1,0.2,0.6,0,0.6c-1.2-0.1-4.2-0.2-6.7-0.2c-1.9,0-3.7,0-5.6,0.2
		c-0.2,0-0.3-0.1-0.3-0.3c0-0.2,0.1-0.3,0.3-0.3c1.1-0.1,2.2-0.3,3.2-0.6c0.4-0.2,1-1.4,5-15.1c3.9-13.7,4.1-15,3.7-15.2
		c-0.9-0.3-1.9-0.5-2.8-0.6c-0.4,0-0.2-0.6,0-0.6c1.2,0.1,4.4,0.2,6.8,0.2s3.5-0.2,4.6-0.2c5.9,0,9.5,3,9.5,7.5
		C118.1,94.3,109.8,100.3,99.9,98.8"/>
	<path class="st0" d="M118.9,107.3c-0.9,2.6-0.5,3,0.3,3c2-1,3.8-2.5,5.2-4.2c0,0,0.3,0,0.3,0.1c-0.6,1.6-5.2,7-8.4,7
		c-2.3,0-2.5-2.6-1.5-5.2c2.8-7.3,6.4-17.3,9.4-25.7c0.7-2.1-0.2-3.1-3.5-3.1c-0.4,0-0.3-0.5,0-0.5c2.4-0.3,8-0.6,8.4-0.6
		s0.5,0.3,0.3,0.8C125.3,89.6,121,101.3,118.9,107.3"/>
	<path class="st0" d="M138.3,94.3c-3.9,0-9.6,10-9.6,14.1c0,1.5,0.6,2.2,1.5,2.2c1.4-0.3,2.6-1.1,3.4-2.3c2.8-3.7,4.9-8,6.2-12.5
		c0.1-0.8-0.5-1.5-1.2-1.6C138.5,94.3,138.4,94.3,138.3,94.3 M139.3,107.3c-0.9,2.5-0.6,3.1,0.1,3.1c1.3,0,3.7-3.3,4.1-3.3
		c0.1,0,0.1,0.1,0.1,0.1l0,0l0,0c-1.6,2.9-5.1,6-7.2,6c-0.7,0.1-1.3-0.4-1.4-1.1v-0.2c0.1-1.2,0.3-2.3,0.7-3.4l1-2.9
		c0,0-0.4-0.3-0.5-0.2c-2.9,4.8-5.6,7.9-8.2,7.9c-2,0-3.6-1.6-3.6-3.6l0,0v-0.2c0-6.8,8.2-15.9,13.5-15.9c0.8,0,1.6,0.2,2.3,0.6
		c0.2,0.2,0.3,0.2,0.4,0c0.6-0.7,1.2-1.6,1.6-2.1s2.5,0.1,2.5,0.4L139.3,107.3z"/>
	<path class="st0" d="M158.5,97.7c-2.3,0-1.9-3.3-3.9-3.3c-2.9,0-5.8,6.4-5.8,12.3c0,2.8,1.2,4.1,3.1,4.1c1.9,0,3.7-1.4,5.5-3.7
		c0-0.1,0.4,0,0.3,0.1c-1.2,3.2-4.1,5.5-7.5,6c-2.8,0-5.4-1.7-5.4-6c0-5.8,5.6-14.4,12.1-14.4c2.8,0,3.7,1.7,3.7,2.6
		c0.1,1-0.6,2-1.6,2.1l0,0C158.9,97.7,158.7,97.7,158.5,97.7"/>
	<path class="st0" d="M170.4,93.8c-1.9,0-4,3-5.8,8.4c5.6-0.7,7.1-4.2,7.1-6.7C171.7,94.4,171.3,93.8,170.4,93.8 M164.4,102.7
		c-0.6,1.5-0.9,3.1-0.9,4.7c0,2,1,3.3,2.7,3.3c2.5-0.3,4.7-1.6,6.3-3.5c0.1-0.1,0.4,0,0.3,0.2c-1.6,2.9-5.1,5.7-8.1,5.7
		c-2.7,0.2-5-1.9-5.2-4.5l0,0c0-0.3,0-0.6,0-0.9c0-5.6,5.4-15,11.5-15c2.1-0.2,3.9,1.3,4.1,3.3l0,0l0,0
		C175,99.8,170,102.7,164.4,102.7"/>
	<path class="st0" d="M186.6,97.9c-2.1,0-1.7-3.7-4.1-3.7c-1.3,0.2-2.3,1.3-2.3,2.7c0,2.5,5,6.8,5,10.4c-0.1,3.5-3.1,6.2-6.5,6.1
		h-0.4c-3.3,0-5.1-2.2-5.1-3.6c0-1,0.8-1.9,1.9-1.9c2.3,0,2,4.5,4.7,4.5c1.5,0,2.4-1.5,2.4-3.2c0-3-4.7-6.1-4.7-10.1
		c0.2-3.5,3.1-6.2,6.6-6.1c2.1-0.2,4,1.2,4.3,3.2C188.4,97,187.5,97.8,186.6,97.9"/>
	<path class="st0" d="M209.9,95.4c-1.6,0-1.7-0.1-4.6-0.1c-1.6,4.2-3.6,9.4-4.7,12.6c-0.7,2-0.2,2.6,0.4,2.6c1.7,0,5.1-4.2,5.6-4.2
		s0.2,0,0.1,0.2c-1.4,2.4-5.4,6.9-8.5,6.9c-1.5,0-2.9-1.5-1.6-4.7c1.7-4.3,3.4-9.1,4.8-13.4c-1.2,0-2.5,0-3.7,0.1
		c-0.4,0-0.4-1.4,0.1-1.3c1.3,0,2.1,0.1,3.9,0.1c0.5-1.6,1-3,1.3-4c0-0.2,0.5-0.2,0.7-0.2c0.8,0,3.3,0.2,3.2,0.7
		c-0.4,1-0.9,2.2-1.4,3.6c1.4,0,2.8,0,4.2-0.1C210.3,94,210.4,95.4,209.9,95.4"/>
	<path class="st0" d="M218.3,93.8c-3.3,0-7.4,10.7-7.4,15.6c0,2,0.7,3,2.1,3c3.3,0,7.4-10.6,7.4-15.6
		C220.4,94.8,219.7,93.8,218.3,93.8 M212.9,113.3c-3,0-5.4-1.9-5.4-6.4c0-5.6,4.7-14,11-14c3,0,5.4,1.9,5.4,6.5
		C223.9,105,219.2,113.3,212.9,113.3"/>
	<path class="st0" d="M255,81.4c-1.3,0-1.7,0-2.3,0.5c-0.9,0.6-1.1,1.3-1.2,5.8c0,1.6,0,2.9,0,4.6c4.6-5.9,6.2-8.7,6.2-9.7
		s-0.8-1.2-2.6-1.2 M272.2,82.9c-1.9,1.9-11,13.3-23.9,30.7c-0.2,0.3-1.2,0-1.2-0.1c0.2-7.7,0.2-11.7,0.3-15.8
		c-3.3,4.3-7.4,9.6-12,15.9c-0.2,0.3-1.2,0-1.2-0.1c0.5-27.2,0.2-31-0.7-31.8c-0.9-0.3-1.9-0.6-2.9-0.7c-0.3,0-0.2-0.6,0-0.6
		c1.8,0.2,3.6,0.2,5.3,0.2c2.2,0.1,4.4,0,6.6-0.2c0.2,0,0.3,0.1,0.3,0.3c0,0.2-0.1,0.3-0.3,0.3c-0.8,0.1-1.6,0.2-2.4,0.5
		c-0.7,0.4-1.2,0.8-1.3,6.2c-0.2,6.5-0.4,13.4-0.4,19.8c0,0.1,0.2,0,0.3,0c3-3.7,5.9-7.7,8.8-11.4c0-11.9-0.3-13.8-1-14.3
		c-0.7-0.4-1.4-0.6-2.2-0.7c-0.4,0-0.2-0.6,0-0.6c1.2,0.1,4.5,0.2,10.6,0.2c4.7,0,8.9,0,10.2-0.2c0.2,0,0.4,0.6,0,0.6
		c-1.8,0-3.4,0.7-4.8,1.9c-3.1,3.5-6.1,7.2-8.8,11c-0.1,4.8-0.2,8.2-0.3,13.5c0,0.1,0.2,0,0.3,0C260,96,269.8,83.4,269.8,82
		c0-0.5-0.4-0.9-3-1.3c-0.4,0-0.2-0.6,0-0.6c1.7,0.2,3.3,0.2,5,0.2c1.6,0,3.1-0.1,4.7-0.2c0.3,0,0.4,0.6,0,0.6
		c-1.6,0.1-3.2,0.7-4.4,1.9"/>
	<path class="st0" d="M273.2,93.8c-3.3,0-7.5,10.7-7.5,15.6c0,2,0.7,3,2.1,3c3.3,0,7.4-10.6,7.4-15.6c0-2-0.7-3-2.1-3 M267.7,113.3
		c-3,0-5.4-1.9-5.4-6.4c0-5.6,4.6-14,11-14c3,0,5.4,1.9,5.4,6.5C278.7,105,274,113.3,267.7,113.3"/>
	<path class="st0" d="M294.7,98.5c-2.1,0-1.1-2.6-2.4-2.6s-3.2,2.4-9.4,16.8c-0.1,0.3-1.3,0.4-1.9,0.4s-1.9,0-1.7-0.4
		c2.8-7.7,4.8-13.7,4.8-15.4c0-1-0.2-1.3-0.7-1.3c-1.4,0-3.3,3.7-3.7,4s-0.4,0-0.3-0.1c1.5-3.6,4.5-6.8,6.6-6.8
		c1.4,0,1.9,1.2,1.9,2.7c-0.4,3.3-1.3,6.5-2.6,9.6c0,0.2,0.4,0.3,0.4,0.2c3.6-8.7,6.1-12.6,9.1-12.6c1.3-0.1,2.4,1,2.4,2.2l0,0
		c0,0.1,0,0.2,0,0.3c0,1.6-1.1,3.1-2.3,3.1"/>
	<path class="st0" d="M310.9,95.5c-2.5,0-8.9,4.6-11.6,8.5c4.6-0.9,12.8-5.3,12.8-7.3c0.1-0.6-0.3-1.1-0.9-1.2l0,0
		C311.1,95.5,311,95.5,310.9,95.5 M314.2,115.2c1.1,0.1,1.9,1.1,1.9,2.2c0,1.6-1.3,3-2.9,3l0,0h-0.3c-4.8,0-7.5-3.7-10.1-9.9
		c-1.4-3.5-2-4.4-3.3-5c-0.3-0.1-0.6-0.1-0.7,0c-0.9,1.9-1.9,5.2-2.6,7.1c-0.1,0.3-1,0.4-1.9,0.4s-1.9-0.2-1.9-0.4
		c4.3-11.3,8.1-21.7,11.1-30.2c0.7-2.1-0.2-3.1-3.5-3.1c-0.1,0-0.2-0.2-0.2-0.3c0-0.1,0.1-0.2,0.2-0.2c2.5-0.3,8.1-0.6,8.5-0.6
		s0.5,0.3,0.3,0.8c-4.2,10.6-6.8,17.4-8.3,21.5c0,0.2,0.4,0.2,0.4,0.2c3-5,6.2-7.2,9-7.2c2.1,0,3.7,1.7,3.7,3.7c0,0.1,0,0.2,0,0.3
		c0,4-5.7,7.5-14.1,7c3.4,0.7,6.2,3.2,7.5,6.4c2.4,5.6,4.3,8.5,7.3,8.5c-0.8-0.5-1.4-1.4-1.5-2.4c-0.1-0.9,0.6-1.8,1.6-1.9l0,0l0,0"
		/>
</g>
<g>
	<polygon class="st0" points="114.4,64.3 114.4,56.1 111.1,56.1 111.1,64.3 108,64.3 108,44.7 111.1,44.7 111.1,53.2 114.4,53.2 
		114.4,44.7 117.5,44.7 117.5,64.3 	"/>
	<path class="st0" d="M123.5,57.6c-1.5,0.5-2.2,1.3-2.2,2.4v1.3c0,0.7,0.3,1.2,1,1.2s1.3-0.6,1.2-1.3c0,0,0,0,0-0.1V57.6z M126,64.5
		c-0.9,0-1.7-0.6-1.9-1.5c-0.5,1-1.5,1.6-2.5,1.5c-1.7,0-2.8-1.3-2.8-3.4v-0.7c0-2.6,2-3.8,4.7-4.7v-2.3c0-0.7-0.3-1.1-1-1.1
		s-0.9,0.4-0.9,1.2v1.3h-2.4v-1.1c-0.2-1.8,1.1-3.4,2.9-3.6c0.2,0,0.3,0,0.5,0c2.4,0,3.4,1.6,3.4,3.8V62c0,0.4,0.2,0.7,0.6,0.7v2
		H126V64.5z"/>
	<polygon class="st0" points="136.5,64.3 134.2,64.3 133.3,58.7 133,55.8 132.6,58.7 131.7,64.3 129.5,64.3 127,50.2 129.6,50.2 
		130.4,57 130.7,60.1 131.1,57 132,50.2 134.1,50.2 135,57 135.3,60.1 135.7,57 136.6,50.2 138.9,50.2 	"/>
	<path class="st0" d="M144,57.6c-1.5,0.5-2.2,1.3-2.2,2.4v1.3c0,0.7,0.3,1.2,1,1.2s1.3-0.6,1.2-1.3c0,0,0,0,0-0.1V57.6z M146.5,64.5
		c-0.9,0-1.7-0.6-1.9-1.5c-0.5,1-1.5,1.6-2.6,1.5c-1.7,0-2.8-1.3-2.8-3.4v-0.7c0-2.6,2-3.8,4.7-4.7v-2.3c0-0.7-0.3-1.1-1-1.1
		s-0.9,0.4-0.9,1.2v1.3h-2.4v-1.1c-0.2-1.8,1.1-3.4,2.9-3.6c0.2,0,0.4,0,0.6,0c2.4,0,3.4,1.6,3.4,3.8V62c0,0.4,0.2,0.7,0.6,0.7v2
		h-0.6V64.5z"/>
	<path class="st0" d="M148.4,48.4v-2.7h2.5v2.7H148.4z M148.4,64.3V50.1h2.6v14.2C151,64.3,148.4,64.3,148.4,64.3z"/>
	<path class="st0" d="M152.7,48.4v-2.7h2.5v2.7H152.7z M152.7,64.3V50.1h2.6v14.2C155.3,64.3,152.7,64.3,152.7,64.3z"/>
	<path class="st1" d="M162.9,57c0-0.9-0.4-1.4-1.2-1.4h-1.5v6h1.7c0.7,0,1-0.4,1-1.3V57z M162.9,48.7c0-0.8-0.4-1.3-1.1-1.3h-1.6
		v5.8h1.5c0.8,0,1.2-0.4,1.2-1.3L162.9,48.7L162.9,48.7z M162.2,64.3h-5.1V44.7h5.1c1.9-0.2,3.6,1.2,3.8,3.1c0,0.2,0,0.5,0,0.7v2.8
		c0.2,1.3-0.6,2.6-1.9,3c1.3,0.4,2.1,1.6,2,3v3.3c0.2,1.9-1.1,3.6-3,3.8C162.7,64.3,162.5,64.3,162.2,64.3L162.2,64.3z"/>
	<path class="st1" d="M172.7,64.3l-0.1-1.7c-0.3,1.1-1.3,1.9-2.5,1.9c-1.6,0-2.5-1.2-2.5-3.1V50.2h2.6V61c-0.1,0.6,0.4,1.2,1,1.2
		c0,0,0,0,0.1,0c0.7,0,1.2-0.9,1.2-1.6V50.2h2.6v14.2L172.7,64.3z"/>
	<path class="st1" d="M179.8,64.5c-1.9,0.1-3.5-1.3-3.6-3.2c0-0.2,0-0.4,0-0.6v-0.9h2.4v1.1c0,1,0.4,1.4,1.2,1.4
		c0.6,0.1,1.2-0.4,1.2-1c0-0.1,0-0.2,0-0.3c0-1.3-0.6-1.8-2.2-3.2c-1.4-0.9-2.3-2.5-2.4-4.2c-0.2-1.9,1.2-3.5,3-3.7
		c0.1,0,0.2,0,0.3,0c1.8-0.1,3.4,1.3,3.5,3.1c0,0.2,0,0.4,0,0.6v0.9H181v-1.1c0.1-0.6-0.4-1.1-0.9-1.2c-0.1,0-0.2,0-0.3,0
		c-0.6,0-1,0.4-1.1,0.9c0,0.1,0,0.1,0,0.2c0,1,0.6,1.7,1.9,2.8c1.6,1,2.7,2.7,2.7,4.6c0.2,1.9-1.2,3.6-3.1,3.8
		C180.1,64.5,179.9,64.5,179.8,64.5z"/>
	<path class="st1" d="M184.5,48.4v-2.7h2.6v2.7H184.5z M184.5,64.3V50.1h2.6v14.2C187.1,64.3,184.5,64.3,184.5,64.3z"/>
	<path class="st1" d="M193.7,64.3V53.5c0-0.7-0.4-1.3-1-1.3s-1.2,0.9-1.2,1.6v10.5h-2.6V50.1h2.4l0.2,1.8c0.3-1.1,1.2-2,2.4-2.1
		c1.6,0,2.5,1.2,2.5,3.1v11.3h-2.7V64.3z"/>
	<path class="st1" d="M202.6,53.6c0-0.8-0.4-1.3-1.1-1.3s-1.1,0.5-1.1,1.3v2.5h2.2L202.6,53.6L202.6,53.6z M201.5,64.5
		c-2,0-3.7-1.6-3.7-3.6c0-0.1,0-0.2,0-0.4V54c-0.2-2,1.3-3.8,3.3-4c0.1,0,0.2,0,0.3,0c2,0,3.5,1.6,3.5,3.6c0,0.1,0,0.3,0,0.4v3.6
		h-4.7V61c0,0.8,0.4,1.3,1.1,1.3c0.7,0,1.1-0.5,1.1-1.3v-1.7h2.4v1.4c0.2,1.9-1.1,3.7-3,3.9C201.7,64.5,201.6,64.5,201.5,64.5z"/>
	<path class="st1" d="M209.7,64.5c-1.9,0.1-3.5-1.3-3.6-3.2c0-0.2,0-0.4,0-0.6v-0.9h2.4v1.1c0,1,0.4,1.4,1.2,1.4
		c0.6,0.1,1.2-0.4,1.2-1c0-0.1,0-0.2,0-0.3c0-1.3-0.6-1.8-2.2-3.2c-1.4-0.9-2.3-2.5-2.4-4.2c-0.2-1.9,1.2-3.5,3-3.7
		c0.1,0,0.3,0,0.4,0c1.8,0,3.3,1.5,3.3,3.3c0,0.1,0,0.3,0,0.4v0.9h-2.2v-1.1c0.1-0.6-0.4-1.1-1-1.2c-0.1,0-0.2,0-0.3,0
		c-0.6,0-1,0.4-1.1,0.9c0,0.1,0,0.1,0,0.2c0,1,0.6,1.7,1.9,2.8c1.6,1,2.7,2.7,2.7,4.6c0.2,1.9-1.2,3.6-3.1,3.8
		C210,64.5,209.8,64.5,209.7,64.5z"/>
	<path class="st1" d="M217.6,64.5c-1.9,0.1-3.5-1.3-3.6-3.2c0-0.2,0-0.5,0-0.7v-0.9h2.4v1.1c0,1,0.4,1.4,1.2,1.4
		c0.6,0.1,1.2-0.4,1.2-1c0-0.1,0-0.2,0-0.3c0-1.3-0.6-1.8-2.2-3.2c-1.4-0.9-2.3-2.5-2.4-4.2c-0.2-1.9,1.2-3.5,3.1-3.7
		c0.1,0,0.2,0,0.3,0c1.8,0,3.3,1.4,3.4,3.2c0,0.2,0,0.3,0,0.5v0.9h-2.2v-1.1c0.1-0.6-0.4-1.1-1-1.2c-0.1,0-0.1,0-0.2,0
		c-0.6,0-1,0.4-1.1,0.9c0,0.1,0,0.1,0,0.2c0,1,0.6,1.7,1.9,2.8c1.6,1,2.6,2.7,2.7,4.6c0.2,1.9-1.2,3.6-3.1,3.8
		C217.9,64.5,217.7,64.5,217.6,64.5z"/>
</g>
<g id="Layer_2_00000181786693013600642340000004346268508938394771_">
</g>
<g>
	<path class="st2" d="M125.1,137.9l4.3-3.9c0.2-0.2,0.4-0.4,0.7-0.7c0.2-0.3,0.3-0.5,0.3-0.9c0-0.4-0.1-0.7-0.4-0.9
		c-0.3-0.2-0.6-0.3-1-0.3c-0.4,0-0.8,0.1-1,0.4s-0.4,0.6-0.4,1l-2.3-0.2c0-0.6,0.2-1.1,0.4-1.5c0.2-0.4,0.5-0.8,0.8-1.1
		c0.3-0.3,0.7-0.5,1.2-0.6c0.5-0.1,1-0.2,1.5-0.2c0.5,0,1,0.1,1.4,0.2c0.4,0.1,0.8,0.3,1.1,0.6c0.3,0.3,0.6,0.6,0.8,1
		c0.2,0.4,0.3,0.9,0.3,1.5c0,0.4,0,0.7-0.1,1c-0.1,0.3-0.2,0.5-0.3,0.8c-0.1,0.2-0.3,0.5-0.5,0.6c-0.2,0.2-0.4,0.4-0.6,0.6l-3.4,2.9
		h4.9v2.1h-7.7V137.9z"/>
	<path class="st2" d="M134.1,134.9c0-0.7,0.1-1.3,0.2-2c0.1-0.7,0.3-1.3,0.6-1.8c0.3-0.6,0.7-1,1.3-1.4c0.5-0.3,1.2-0.5,2-0.5
		c0.8,0,1.5,0.2,2,0.5c0.5,0.3,1,0.8,1.3,1.4c0.3,0.6,0.5,1.2,0.6,1.8c0.1,0.7,0.2,1.3,0.2,2s-0.1,1.3-0.2,2
		c-0.1,0.7-0.3,1.3-0.6,1.8c-0.3,0.6-0.7,1-1.3,1.4c-0.5,0.3-1.2,0.5-2,0.5c-0.8,0-1.5-0.2-2-0.5c-0.5-0.3-1-0.8-1.3-1.4
		c-0.3-0.6-0.5-1.2-0.6-1.8C134.1,136.2,134.1,135.5,134.1,134.9z M136.4,134.9c0,0.3,0,0.6,0,1c0,0.4,0.1,0.8,0.2,1.2
		c0.1,0.4,0.3,0.7,0.5,1c0.2,0.3,0.6,0.4,1,0.4c0.4,0,0.7-0.1,1-0.4c0.2-0.3,0.4-0.6,0.5-1c0.1-0.4,0.2-0.8,0.2-1.2c0-0.4,0-0.8,0-1
		c0-0.3,0-0.6,0-1c0-0.4-0.1-0.8-0.2-1.2c-0.1-0.4-0.3-0.7-0.5-1c-0.2-0.3-0.6-0.4-1-0.4c-0.4,0-0.8,0.1-1,0.4
		c-0.2,0.3-0.4,0.6-0.5,1c-0.1,0.4-0.2,0.8-0.2,1.2C136.4,134.2,136.4,134.6,136.4,134.9z"/>
	<path class="st2" d="M147.3,131.9l-2.2,2l-1.3-1.5l3.6-3.1h2.2v11.1h-2.3V131.9z"/>
	<path class="st2" d="M156.6,131.9l-2.2,2l-1.3-1.5l3.6-3.1h2.2v11.1h-2.3V131.9z"/>
	<path class="st2" d="M165.6,137.4h-3.9v-1.9h3.9V137.4z"/>
	<path class="st2" d="M166.7,137.9l4.3-3.9c0.2-0.2,0.4-0.4,0.7-0.7c0.2-0.3,0.3-0.5,0.3-0.9c0-0.4-0.1-0.7-0.4-0.9
		c-0.3-0.2-0.6-0.3-1-0.3c-0.4,0-0.8,0.1-1,0.4c-0.2,0.3-0.4,0.6-0.4,1l-2.3-0.2c0-0.6,0.2-1.1,0.4-1.5c0.2-0.4,0.5-0.8,0.8-1.1
		c0.3-0.3,0.7-0.5,1.2-0.6c0.5-0.1,1-0.2,1.5-0.2c0.5,0,1,0.1,1.4,0.2c0.4,0.1,0.8,0.3,1.1,0.6c0.3,0.3,0.6,0.6,0.8,1
		c0.2,0.4,0.3,0.9,0.3,1.5c0,0.4,0,0.7-0.1,1c-0.1,0.3-0.2,0.5-0.3,0.8c-0.1,0.2-0.3,0.5-0.5,0.6c-0.2,0.2-0.4,0.4-0.6,0.6l-3.4,2.9
		h4.9v2.1h-7.7V137.9z"/>
	<path class="st2" d="M175.8,134.9c0-0.7,0.1-1.3,0.2-2c0.1-0.7,0.3-1.3,0.6-1.8c0.3-0.6,0.7-1,1.3-1.4c0.5-0.3,1.2-0.5,2-0.5
		c0.8,0,1.5,0.2,2,0.5c0.5,0.3,1,0.8,1.3,1.4c0.3,0.6,0.5,1.2,0.6,1.8c0.1,0.7,0.2,1.3,0.2,2s-0.1,1.3-0.2,2
		c-0.1,0.7-0.3,1.3-0.6,1.8c-0.3,0.6-0.7,1-1.3,1.4c-0.5,0.3-1.2,0.5-2,0.5c-0.8,0-1.5-0.2-2-0.5c-0.5-0.3-1-0.8-1.3-1.4
		c-0.3-0.6-0.5-1.2-0.6-1.8C175.8,136.2,175.8,135.5,175.8,134.9z M178.1,134.9c0,0.3,0,0.6,0,1s0.1,0.8,0.2,1.2
		c0.1,0.4,0.3,0.7,0.5,1c0.2,0.3,0.6,0.4,1,0.4c0.4,0,0.7-0.1,1-0.4c0.2-0.3,0.4-0.6,0.5-1c0.1-0.4,0.2-0.8,0.2-1.2c0-0.4,0-0.8,0-1
		c0-0.3,0-0.6,0-1c0-0.4-0.1-0.8-0.2-1.2c-0.1-0.4-0.3-0.7-0.5-1c-0.2-0.3-0.6-0.4-1-0.4c-0.4,0-0.8,0.1-1,0.4
		c-0.2,0.3-0.4,0.6-0.5,1c-0.1,0.4-0.2,0.8-0.2,1.2S178.1,134.6,178.1,134.9z"/>
	<path class="st2" d="M185.3,137.9l4.3-3.9c0.2-0.2,0.4-0.4,0.7-0.7c0.2-0.3,0.3-0.5,0.3-0.9c0-0.4-0.1-0.7-0.4-0.9s-0.6-0.3-1-0.3
		c-0.4,0-0.8,0.1-1,0.4s-0.4,0.6-0.4,1l-2.3-0.2c0-0.6,0.2-1.1,0.4-1.5c0.2-0.4,0.5-0.8,0.8-1.1c0.3-0.3,0.7-0.5,1.2-0.6
		c0.5-0.1,1-0.2,1.5-0.2c0.5,0,1,0.1,1.4,0.2c0.4,0.1,0.8,0.3,1.1,0.6c0.3,0.3,0.6,0.6,0.8,1c0.2,0.4,0.3,0.9,0.3,1.5
		c0,0.4,0,0.7-0.1,1c-0.1,0.3-0.2,0.5-0.3,0.8c-0.1,0.2-0.3,0.5-0.5,0.6c-0.2,0.2-0.4,0.4-0.6,0.6l-3.4,2.9h4.9v2.1h-7.7V137.9z"/>
	<path class="st2" d="M197.2,133.7h0.8c0.2,0,0.4,0,0.6,0c0.2,0,0.4-0.1,0.6-0.2c0.2-0.1,0.3-0.2,0.4-0.4c0.1-0.2,0.2-0.4,0.2-0.6
		c0-0.3-0.1-0.6-0.4-0.8c-0.3-0.2-0.6-0.3-1-0.3c-0.4,0-0.7,0.1-0.9,0.3c-0.2,0.2-0.4,0.4-0.5,0.7l-2.6-0.5c0.1-0.5,0.3-0.9,0.6-1.2
		c0.3-0.3,0.6-0.6,0.9-0.8c0.3-0.2,0.7-0.4,1.2-0.5c0.4-0.1,0.9-0.1,1.3-0.1c0.5,0,1,0.1,1.4,0.2c0.5,0.1,0.9,0.3,1.2,0.6
		c0.3,0.3,0.6,0.6,0.8,1c0.2,0.4,0.3,0.8,0.3,1.4c0,0.6-0.2,1.1-0.5,1.6c-0.3,0.4-0.8,0.7-1.4,0.8v0c0.3,0,0.6,0.1,0.9,0.3
		c0.3,0.2,0.5,0.3,0.6,0.6c0.2,0.2,0.3,0.5,0.4,0.8c0.1,0.3,0.1,0.6,0.1,0.9c0,0.6-0.1,1-0.3,1.5c-0.2,0.4-0.5,0.8-0.9,1
		c-0.4,0.3-0.8,0.5-1.3,0.6c-0.5,0.1-1,0.2-1.5,0.2c-1,0-1.8-0.2-2.6-0.7c-0.7-0.5-1.2-1.2-1.4-2.2l2.5-0.6c0.1,0.4,0.3,0.7,0.5,0.9
		c0.3,0.2,0.6,0.3,1.1,0.3c0.5,0,0.9-0.1,1.1-0.4s0.4-0.6,0.4-1c0-0.3-0.1-0.6-0.2-0.7c-0.1-0.2-0.3-0.3-0.5-0.4
		c-0.2-0.1-0.4-0.1-0.7-0.1s-0.5,0-0.8,0h-0.5V133.7z"/>
</g>
</svg>
