<?xml version="1.0" encoding="utf-8"?>
<!-- Generator: Adobe Illustrator 24.2.3, SVG Export Plug-In . SVG Version: 6.00 Build 0)  -->
<svg version="1.1" xmlns="http://www.w3.org/2000/svg" xmlns:xlink="http://www.w3.org/1999/xlink" x="0px" y="0px"
	 viewBox="0 0 246.8 129.7" style="enable-background:new 0 0 246.8 129.7;" xml:space="preserve">
<style type="text/css">
	.st0{fill:#80BC00;}
	.st1{fill:#FFFFFF;}
	.st2{fill:#EDEDED;}
	.st3{fill:#81BA3F;}
	.st4{opacity:0.1;fill:url(#SVGID_1_);}
	.st5{opacity:0.75;fill:url(#SVGID_2_);}
	.st6{opacity:0.75;fill:url(#SVGID_3_);}
	.st7{fill:#646469;}
	.st8{fill:none;stroke:#81BA3F;stroke-width:2.3;stroke-miterlimit:10;}
	.st9{fill:#808080;}
	.st10{fill:#636569;}
	.st11{fill:#FFFFFF;stroke:#65656A;stroke-width:1.5542;stroke-linejoin:round;stroke-miterlimit:10;}
	.st12{fill:#FFFFFF;stroke:#65656A;stroke-width:1.9187;stroke-linejoin:round;stroke-miterlimit:10;}
	.st13{fill:none;stroke:#65656A;stroke-width:1.3822;stroke-miterlimit:10;}
	.st14{fill:none;stroke:#80BC00;stroke-width:3;stroke-linejoin:round;stroke-miterlimit:10;}
	.st15{fill:#ECECEC;stroke:#65656A;stroke-width:3;stroke-linejoin:round;stroke-miterlimit:10;}
	.st16{fill:none;stroke:#65656A;stroke-width:3;stroke-linejoin:round;stroke-miterlimit:10;}
	.st17{fill:#76A2DB;}
	.st18{fill:#F2B334;}
	.st19{fill:#E23E2F;}
	.st20{fill:#003088;}
	.st21{fill:#96CEE2;}
	.st22{fill:#49B2CE;}
	.st23{fill:#006796;}
	.st24{fill:none;stroke:#006796;stroke-width:0.9411;stroke-miterlimit:10;}
	.st25{fill:#8D8E92;}
	.st26{fill:#65656A;}
	.st27{opacity:0.98;fill:#484849;}
	.st28{fill:#999999;}
	.st29{fill:none;stroke:#999999;stroke-miterlimit:10;}
	.st30{fill:#81BA41;}
	.st31{opacity:0.75;fill:url(#SVGID_4_);}
	.st32{opacity:0.98;}
	.st33{fill:#8BC53F;}
	.st34{fill:#848487;}
	.st35{opacity:0.98;fill:none;stroke:#484849;stroke-width:1.5066;stroke-miterlimit:10;}
	.st36{fill:#ECEDEC;}
	.st37{clip-path:url(#SVGID_6_);}
	.st38{fill:#111111;}
	.st39{clip-path:url(#SVGID_8_);}
	.st40{fill:#891D03;}
	.st41{fill:#ADAFB1;}
	.st42{fill:#00DB00;}
	.st43{fill:#8F8A87;}
	.st44{fill:#EF7E19;}
	.st45{fill:#F6B881;}
	.st46{fill:#CCCCCC;}
	.st47{fill:#6D6E71;}
	.st48{clip-path:url(#SVGID_10_);fill:url(#SVGID_11_);}
	.st49{clip-path:url(#SVGID_13_);fill:url(#SVGID_14_);}
	.st50{fill:#37444C;}
	.st51{fill:#00A7DA;}
	.st52{fill:#ABBF00;}
	.st53{fill:#FFD100;}
	.st54{fill:url(#SVGID_15_);}
	.st55{fill:#2EAAE2;}
	.st56{fill:#2ECB70;}
	.st57{fill:#FFC600;}
	.st58{fill:none;}
	.st59{fill:#313E48;}
	.st60{fill:#FF6C0E;}
	.st61{opacity:0.75;}
	.st62{clip-path:url(#SVGID_17_);}
	.st63{clip-path:url(#SVGID_19_);}
	.st64{fill:#C75B12;}
	.st65{fill:#004A7C;}
	.st66{fill:#A9D15D;}
	.st67{clip-path:url(#SVGID_21_);fill:url(#SVGID_22_);}
	.st68{clip-path:url(#SVGID_24_);fill:url(#SVGID_25_);}
	.st69{fill:url(#SVGID_26_);}
	.st70{fill:#F63900;}
	.st71{opacity:0.75;clip-path:url(#SVGID_28_);}
	.st72{clip-path:url(#SVGID_30_);}
	.st73{clip-path:url(#SVGID_32_);}
	.st74{fill:#FFFFFF;stroke:#65656A;stroke-width:1.5503;stroke-linejoin:round;stroke-miterlimit:10;}
	.st75{fill:none;stroke:#65656A;stroke-width:1.3787;stroke-miterlimit:10;}
	.st76{fill:#929497;}
	.st77{fill:none;stroke:#65656A;stroke-width:1.5503;stroke-linejoin:round;stroke-miterlimit:10;}
	.st78{fill:#88201B;}
	.st79{fill:#ACAEB0;}
	.st80{fill:none;stroke:#65656A;stroke-width:1.4861;stroke-linejoin:round;stroke-miterlimit:10;}
</style>
<g id="Layer_1">
	<g>
		<g>
			<polygon class="st50" points="100.6,63.7 110.9,63.7 110.9,60 100.6,60 100.6,55.4 111.9,55.4 111.9,51.5 95.9,51.5 95.9,72.9 
				112.1,72.9 112.1,68.9 100.6,68.9 			"/>
			<polygon class="st50" points="127.6,57.4 122.9,57.4 120.2,61.4 117.5,57.4 112.7,57.4 117.7,64.7 112.2,72.9 116.9,72.9 
				120.2,68 123.4,72.9 128.2,72.9 122.5,64.6 			"/>
			<path class="st50" d="M139.8,67c-0.1,0.6-0.3,1.1-0.6,1.6c-0.3,0.4-0.7,0.8-1.1,1.1c-0.5,0.3-1.1,0.4-1.8,0.4
				c-0.7,0-1.3-0.2-1.7-0.4c-0.5-0.3-0.9-0.6-1.1-1.1c-0.3-0.4-0.5-1-0.6-1.6c-0.1-0.6-0.2-1.2-0.2-1.8c0-0.6,0.1-1.3,0.2-1.8
				c0.1-0.6,0.3-1.1,0.6-1.6c0.3-0.5,0.7-0.8,1.1-1.1c0.5-0.3,1.1-0.4,1.8-0.4c0.7,0,1.3,0.2,1.7,0.4c0.5,0.3,0.9,0.7,1.1,1.1
				c0.3,0.5,0.5,1,0.6,1.6c0.1,0.6,0.2,1.2,0.2,1.8C140,65.8,139.9,66.4,139.8,67 M142.5,59.5c-0.6-0.7-1.3-1.4-2.2-1.8
				c-0.9-0.5-1.9-0.7-3.1-0.7c-0.9,0-1.8,0.2-2.6,0.6c-0.8,0.4-1.4,1-2,1.8h-0.1v-2h-4v20.9h4.3v-7.3h0.1c0.5,0.7,1.2,1.3,2,1.7
				c0.8,0.4,1.7,0.6,2.7,0.6c1.1,0,2.1-0.2,3-0.7c0.9-0.4,1.6-1,2.1-1.8c0.6-0.7,1-1.6,1.3-2.5c0.3-0.9,0.4-2,0.4-3
				c0-1.1-0.2-2.2-0.4-3.2C143.5,61.1,143.1,60.2,142.5,59.5"/>
			<path class="st50" d="M148.7,63.5c0-0.3,0.1-0.6,0.2-1c0.1-0.4,0.3-0.7,0.6-1.1c0.3-0.4,0.6-0.6,1.1-0.9c0.4-0.2,1-0.4,1.7-0.4
				c1,0,1.8,0.3,2.3,0.8c0.5,0.5,0.9,1.4,1.1,2.5L148.7,63.5L148.7,63.5z M158.2,59.8c-0.6-0.9-1.4-1.5-2.4-2
				c-1-0.5-2.1-0.7-3.4-0.7c-1.2,0-2.2,0.2-3.2,0.6c-1,0.4-1.8,1-2.5,1.7c-0.7,0.7-1.3,1.6-1.6,2.6c-0.4,1-0.6,2.1-0.6,3.2
				c0,1.2,0.2,2.3,0.5,3.3c0.4,1,0.9,1.8,1.6,2.6c0.7,0.7,1.5,1.3,2.5,1.6c1,0.4,2.1,0.6,3.3,0.6c1.8,0,3.2-0.4,4.5-1.2
				c1.3-0.8,2.2-2.1,2.7-4h-3.7c-0.2,0.5-0.5,0.9-1.1,1.4c-0.6,0.4-1.4,0.6-2.2,0.6c-1.2,0-2.1-0.3-2.7-0.9c-0.6-0.6-1-1.6-1.1-3
				h11.2c0.1-1.2,0-2.3-0.3-3.4C159.3,61.6,158.9,60.6,158.2,59.8"/>
			<path class="st50" d="M174,58.7c-0.4-0.5-1-1-1.7-1.3s-1.6-0.5-2.8-0.5c-0.9,0-1.8,0.2-2.6,0.6c-0.9,0.4-1.6,1.1-2.1,2h-0.1v-2.2
				h-4v15.5h4.3v-8.1c0-1.6,0.3-2.7,0.8-3.4c0.5-0.7,1.4-1,2.5-1c1,0,1.7,0.3,2.1,0.9c0.4,0.6,0.6,1.6,0.6,2.9v8.7h4.3v-9.5
				c0-0.9-0.1-1.8-0.2-2.6C174.7,59.9,174.4,59.3,174,58.7"/>
			<path class="st50" d="M188.3,64.8c-0.5-0.3-1-0.6-1.6-0.8c-0.6-0.2-1.2-0.4-1.8-0.5c-0.6-0.2-1.2-0.3-1.8-0.4
				c-0.6-0.1-1.1-0.3-1.5-0.4c-0.4-0.2-0.8-0.4-1.1-0.6c-0.3-0.2-0.4-0.5-0.4-0.9c0-0.3,0.1-0.6,0.2-0.7c0.2-0.2,0.4-0.4,0.6-0.4
				c0.2-0.1,0.5-0.2,0.7-0.2c0.3,0,0.5,0,0.8,0c0.7,0,1.4,0.2,2,0.4c0.5,0.3,0.9,0.9,0.9,1.6h4c-0.1-0.9-0.3-1.8-0.7-2.4
				c-0.4-0.6-0.9-1.1-1.5-1.5c-0.6-0.4-1.3-0.7-2.1-0.8c-0.8-0.2-1.6-0.2-2.4-0.2s-1.6,0.1-2.5,0.2c-0.8,0.2-1.5,0.4-2.2,0.8
				c-0.6,0.4-1.1,0.9-1.5,1.5c-0.4,0.6-0.6,1.4-0.6,2.5c0,0.7,0.2,1.3,0.4,1.7c0.3,0.5,0.7,0.9,1.1,1.2c0.5,0.3,1,0.5,1.6,0.7
				c0.6,0.2,1.2,0.4,1.8,0.5c1.5,0.3,2.7,0.6,3.6,0.9c0.9,0.3,1.3,0.8,1.3,1.4c0,0.4-0.1,0.7-0.3,0.9c-0.2,0.2-0.4,0.4-0.7,0.6
				c-0.3,0.2-0.6,0.3-0.9,0.3c-0.3,0.1-0.6,0.1-0.9,0.1c-0.4,0-0.8,0-1.2-0.2c-0.4-0.1-0.7-0.2-1-0.5c-0.3-0.2-0.5-0.5-0.7-0.8
				c-0.2-0.3-0.3-0.7-0.3-1.2h-4c0,1.1,0.3,1.9,0.7,2.6c0.4,0.7,1,1.3,1.6,1.6c0.7,0.4,1.4,0.7,2.3,0.9c0.9,0.2,1.7,0.3,2.6,0.3
				c0.9,0,1.7-0.1,2.6-0.2c0.9-0.2,1.6-0.5,2.3-0.9c0.7-0.4,1.2-1,1.6-1.6c0.4-0.7,0.6-1.5,0.6-2.5c0-0.7-0.2-1.3-0.4-1.8
				C189.1,65.6,188.8,65.2,188.3,64.8"/>
			<rect x="190.2" y="51.5" class="st50" width="4.3" height="3.5"/>
			<rect x="190.2" y="57.4" class="st50" width="4.3" height="15.5"/>
			<path class="st50" d="M215.1,57.4L211.7,68h-0.1l-3.5-10.6h-3.4h-1.1h-1.8v-0.9c0-0.6,0.1-1.1,0.4-1.4c0.2-0.3,0.7-0.4,1.3-0.4
				c0.5,0,1.1,0,1.6,0.1v-3.2c-0.4,0-0.7,0-1.1-0.1c-0.4,0-0.7,0-1.1,0c-1.7,0-3,0.4-3.9,1.3c-0.9,0.9-1.3,2-1.3,3.4v1.2H195v2.9
				h2.5v12.6h4.3V60.2h2.9l4.3,11.7c0.1,0.3,0.2,0.6,0.2,0.9c0,0.5-0.1,0.9-0.4,1.3c-0.3,0.4-0.7,0.6-1.3,0.7c-0.4,0-0.8,0-1.3,0
				c-0.4,0-0.8-0.1-1.2-0.1v3.5c0.4,0,0.9,0.1,1.3,0.1c0.4,0,0.9,0,1.3,0c1.4,0,2.6-0.3,3.4-0.8c0.8-0.5,1.4-1.4,1.9-2.7l6.5-17.4
				L215.1,57.4L215.1,57.4L215.1,57.4z"/>
		</g>
		<path class="st51" d="M93.6,70.8c0,1.1-0.9,2-2,2H74.2c-1.1,0-2-0.9-2-2V53.5c0-1.1,0.9-2,2-2h17.3c1.1,0,2,0.9,2,2V70.8z"/>
		<path class="st52" d="M71.1,70.8c0,1.1-0.9,2-2,2H51.8c-1.1,0-2-0.9-2-2V53.5c0-1.1,0.9-2,2-2h17.3c1.1,0,2,0.9,2,2V70.8z"/>
		<path class="st53" d="M48.6,70.8c0,1.1-0.9,2-2,2H29.3c-1.1,0-2-0.9-2-2V53.5c0-1.1,0.9-2,2-2h17.3c1.1,0,2,0.9,2,2V70.8z"/>
		<path class="st1" d="M89.1,54.7c1-1,2.4,0.5,1.4,1.5l-4,4l2.3,9l-1.5,1.5l-3.8-7.5l-3,3l0.3,2.3l-1.2,1.2l-1.4-2.6l-2.6-1.4
			l1.2-1.2l2.3,0.3l3-3l-7.5-3.8l1.5-1.5l9,2.2L89.1,54.7z"/>
		<path class="st50" d="M61.9,55.2v8.9h1V70c0,1.3,1.8,1.3,1.8,0V55.2C64.7,53.1,61.9,53.1,61.9,55.2 M59.8,59.4
			c0,0.5-0.5,1.2-1.2,1.2v9.5c0,1.4-1.8,1.4-1.8,0v-9.6c-0.7,0-1.2-0.5-1.2-1.3V54c0-0.5,0.7-0.5,0.7,0v3.9h0.5V54
			c0-0.4,0.6-0.4,0.6,0v3.9H58V54c0-0.4,0.6-0.5,0.6,0v3.9h0.5v-3.9c0-0.4,0.6-0.5,0.6,0V59.4z"/>
		<path class="st50" d="M44,64.5c-0.7,0-1.2-0.5-1.2-1.3c0-0.7,0.5-1.3,1.2-1.3c0.7,0,1.2,0.5,1.2,1.3C45.2,63.9,44.6,64.5,44,64.5
			 M38,60.6L38,60.6L38,60.6h-5.6l1.1-2.9c0.1-0.4,0.4-0.7,0.8-0.7H38l0,0l0,0h3.8c0.5,0,0.7,0.3,0.8,0.7l1.1,2.9H38z M32.1,64.5
			c-0.7,0-1.2-0.5-1.2-1.3c0-0.7,0.5-1.3,1.2-1.3c0.7,0,1.2,0.5,1.2,1.3C33.3,63.9,32.8,64.5,32.1,64.5 M45.2,60.6L43.7,57
			c-0.3-0.7-0.9-1.3-2-1.3h-2l0,0v-1.1c0-0.2-0.2-0.4-0.4-0.4h-2.7c-0.2,0-0.4,0.2-0.4,0.4v1.1h-2c-1.1,0-1.7,0.6-2,1.3L31,60.6
			c-0.5,0.1-1.6,0.7-1.6,2v4.7h1.4v1.5c0,1.8,2.6,1.8,2.6,0v-1.5h4.7l0,0l0,0h4.7v1.5c0,1.8,2.6,1.8,2.6,0v-1.5h1.4v-4.7
			C46.7,61.4,45.7,60.7,45.2,60.6"/>
	</g>
</g>
<g id="Layer_2">
</g>
</svg>
