<?xml version="1.0" encoding="utf-8"?>
<!-- Generator: Adobe Illustrator 24.2.3, SVG Export Plug-In . SVG Version: 6.00 Build 0)  -->
<svg version="1.1" xmlns="http://www.w3.org/2000/svg" xmlns:xlink="http://www.w3.org/1999/xlink" x="0px" y="0px"
	 viewBox="0 0 246.8 129.7" style="enable-background:new 0 0 246.8 129.7;" xml:space="preserve">
<style type="text/css">
	.st0{fill:#80BC00;}
	.st1{fill:#FFFFFF;}
	.st2{fill:#EDEDED;}
	.st3{fill:#81BA3F;}
	.st4{opacity:0.1;fill:url(#SVGID_1_);}
	.st5{opacity:0.75;fill:url(#SVGID_2_);}
	.st6{opacity:0.75;fill:url(#SVGID_3_);}
	.st7{fill:#646469;}
	.st8{fill:none;stroke:#81BA3F;stroke-width:2.3;stroke-miterlimit:10;}
	.st9{fill:#808080;}
	.st10{fill:#636569;}
	.st11{fill:#FFFFFF;stroke:#65656A;stroke-width:1.5542;stroke-linejoin:round;stroke-miterlimit:10;}
	.st12{fill:#FFFFFF;stroke:#65656A;stroke-width:1.9187;stroke-linejoin:round;stroke-miterlimit:10;}
	.st13{fill:none;stroke:#65656A;stroke-width:1.3822;stroke-miterlimit:10;}
	.st14{fill:none;stroke:#80BC00;stroke-width:3;stroke-linejoin:round;stroke-miterlimit:10;}
	.st15{fill:#ECECEC;stroke:#65656A;stroke-width:3;stroke-linejoin:round;stroke-miterlimit:10;}
	.st16{fill:none;stroke:#65656A;stroke-width:3;stroke-linejoin:round;stroke-miterlimit:10;}
	.st17{fill:#76A2DB;}
	.st18{fill:#F2B334;}
	.st19{fill:#E23E2F;}
	.st20{fill:#003088;}
	.st21{fill:#96CEE2;}
	.st22{fill:#49B2CE;}
	.st23{fill:#006796;}
	.st24{fill:none;stroke:#006796;stroke-width:0.9411;stroke-miterlimit:10;}
	.st25{fill:#8D8E92;}
	.st26{fill:#65656A;}
	.st27{opacity:0.98;fill:#484849;}
	.st28{fill:#999999;}
	.st29{fill:none;stroke:#999999;stroke-miterlimit:10;}
	.st30{fill:#81BA41;}
	.st31{opacity:0.75;fill:url(#SVGID_4_);}
	.st32{opacity:0.98;}
	.st33{fill:#8BC53F;}
	.st34{fill:#848487;}
	.st35{opacity:0.98;fill:none;stroke:#484849;stroke-width:1.5066;stroke-miterlimit:10;}
	.st36{fill:#ECEDEC;}
	.st37{clip-path:url(#SVGID_6_);}
	.st38{fill:#111111;}
	.st39{clip-path:url(#SVGID_8_);}
	.st40{fill:#891D03;}
	.st41{fill:#ADAFB1;}
	.st42{fill:#00DB00;}
	.st43{fill:#8F8A87;}
	.st44{fill:#EF7E19;}
	.st45{fill:#F6B881;}
	.st46{fill:#CCCCCC;}
	.st47{fill:#6D6E71;}
	.st48{clip-path:url(#SVGID_10_);fill:url(#SVGID_11_);}
	.st49{clip-path:url(#SVGID_13_);fill:url(#SVGID_14_);}
	.st50{fill:#37444C;}
	.st51{fill:#00A7DA;}
	.st52{fill:#ABBF00;}
	.st53{fill:#FFD100;}
	.st54{fill:url(#SVGID_15_);}
	.st55{fill:#2EAAE2;}
	.st56{fill:#2ECB70;}
	.st57{fill:#FFC600;}
	.st58{fill:none;}
	.st59{fill:#313E48;}
	.st60{fill:#FF6C0E;}
	.st61{opacity:0.75;}
	.st62{clip-path:url(#SVGID_17_);}
	.st63{clip-path:url(#SVGID_19_);}
	.st64{fill:#C75B12;}
	.st65{fill:#004A7C;}
	.st66{fill:#A9D15D;}
	.st67{clip-path:url(#SVGID_21_);fill:url(#SVGID_22_);}
	.st68{clip-path:url(#SVGID_24_);fill:url(#SVGID_25_);}
	.st69{fill:url(#SVGID_26_);}
	.st70{fill:#F63900;}
	.st71{opacity:0.75;clip-path:url(#SVGID_28_);}
	.st72{clip-path:url(#SVGID_30_);}
	.st73{clip-path:url(#SVGID_32_);}
	.st74{fill:#FFFFFF;stroke:#65656A;stroke-width:1.5503;stroke-linejoin:round;stroke-miterlimit:10;}
	.st75{fill:none;stroke:#65656A;stroke-width:1.3787;stroke-miterlimit:10;}
	.st76{fill:#929497;}
	.st77{fill:none;stroke:#65656A;stroke-width:1.5503;stroke-linejoin:round;stroke-miterlimit:10;}
	.st78{fill:#88201B;}
	.st79{fill:#ACAEB0;}
	.st80{fill:none;stroke:#65656A;stroke-width:1.4861;stroke-linejoin:round;stroke-miterlimit:10;}
</style>
<g id="Layer_1">
	<g>
		<g>
			
				<linearGradient id="SVGID_1_" gradientUnits="userSpaceOnUse" x1="123.41" y1="2425.1257" x2="123.41" y2="2383.7019" gradientTransform="matrix(1 0 0 -1 0 2468.8218)">
				<stop  offset="0" style="stop-color:#4D5F69"/>
				<stop  offset="1" style="stop-color:#37444C"/>
			</linearGradient>
			<path style="fill:url(#SVGID_1_);" d="M183.7,43.8H63.1c-11.6,0-21.1,9.4-21.1,21s9.4,21,21.1,21h120.6c11.6,0,21.1-9.4,21.1-21
				S195.3,43.8,183.7,43.8z"/>
			<g>
				<path class="st55" d="M75.3,77.2c-3,3-6.9,4.7-11,5.1h-2.7c-4.2-0.3-8.1-2.1-11-5.1l3.1-3.1c5,5.1,13.2,5.2,18.4,0.2
					c0.1-0.1,0.1-0.1,0.2-0.2L75.3,77.2z"/>
				<path class="st56" d="M80.4,63.7V66c-0.3,4.2-2.1,8.2-5.1,11.1l-3.1-3.1c5-5.1,5-13.4-0.1-18.4l3.1-3.1
					C78.3,55.5,80.1,59.5,80.4,63.7z"/>
				<path class="st57" d="M75.3,52.5l-3.1,3.1c-2.4-2.4-5.7-3.8-9.1-3.8c-7.2,0-13,5.8-13,13c0,3.4,1.3,6.7,3.7,9.1l-3.1,3.1
					c-3.3-3.3-5.1-7.7-5.1-12.3c0-9.6,7.8-17.4,17.4-17.4C67.6,47.4,72,49.2,75.3,52.5z"/>
				<path class="st1" d="M76,64.9c0,7.2-5.8,13-13,13s-13-5.8-13-13c0-7.2,5.8-13,13-13C70.2,51.9,76,57.7,76,64.9z"/>
				<path class="st58" d="M80.4,63.7V66c0-0.1,0-0.2,0-0.3V64C80.4,63.9,80.4,63.8,80.4,63.7z M61.6,82.3c0.2,0,0.3,0,0.5,0h1.7
					c0.2,0,0.3,0,0.5,0H61.6z"/>
				<polygon class="st59" points="57.5,72.5 68,72.5 68,69.4 61.4,69.4 61.4,66.4 67,66.4 67,63.2 61.4,63.2 61.4,60.4 68,60.4 
					68,57.3 57.5,57.3 				"/>
			</g>
		</g>
		<g>
			<g>
				<path class="st55" d="M145.8,60.2h-1.2l-3.4,9.1h1.2l2.6-7.2c0.1-0.2,0.1-0.4,0.2-0.7h0.1c0.1,0.2,0.1,0.4,0.2,0.7l1.2,3.5h-2.1
					l-0.4,1.1h2.8l0.9,2.6h1.3L145.8,60.2z"/>
				<path class="st55" d="M150,62.9h1.1v1.2c0.4-0.9,1.2-1.4,2.1-1.4c1.6,0,2.6,1.4,2.6,3.3c0,2.1-1.1,3.3-2.6,3.3
					c-1,0-1.7-0.5-2-1.2v3.5h-1.1L150,62.9L150,62.9z M154.6,66.1c0-1.5-0.7-2.3-1.7-2.3c-1.1,0-1.8,0.9-1.8,2.2v0.3
					c0,1.4,0.7,2.2,1.8,2.2C154,68.4,154.6,67.6,154.6,66.1z"/>
				<path class="st55" d="M157,62.9h1.1v1.2c0.4-0.9,1.2-1.4,2.1-1.4c1.6,0,2.6,1.4,2.6,3.3c0,2.1-1.1,3.3-2.6,3.3
					c-1,0-1.7-0.5-2-1.2v3.5H157V62.9L157,62.9z M161.6,66.1c0-1.5-0.7-2.3-1.7-2.3s-1.8,0.9-1.8,2.2v0.3c0,1.4,0.7,2.2,1.8,2.2
					C160.9,68.4,161.6,67.6,161.6,66.1z"/>
				<path class="st55" d="M166.9,62.7c0.1,0,0.1,0,0.2,0v1.1h-0.1c-0.7,0-1.1,0.2-1.4,0.5c-0.7,0.7-0.7,1.5-0.7,2.2v2.8h-1.1v-6.3
					h1.1v1.5C165.3,63.5,165.9,62.7,166.9,62.7z"/>
				<path class="st55" d="M167.4,66.1c0-2.1,1.2-3.3,2.9-3.3c1.8,0,2.9,1.2,2.9,3.3c0,2.1-1.2,3.3-2.9,3.3
					C168.6,69.4,167.4,68.2,167.4,66.1z M172.2,66.1c0-1.6-0.7-2.4-1.8-2.4s-1.8,0.8-1.8,2.4c0,1.6,0.7,2.4,1.8,2.4
					C171.6,68.4,172.2,67.6,172.2,66.1z"/>
				<path class="st55" d="M173.7,62.9h1.2l1.4,4.3c0.1,0.4,0.2,0.7,0.3,1h0.1c0.1-0.3,0.1-0.7,0.3-1l1.4-4.3h1.2l-2.3,6.4H176
					L173.7,62.9z"/>
				<path class="st55" d="M185.3,66.4h-4.5c0,1.2,0.8,2.1,1.9,2.1c0.8,0,1.4-0.5,1.7-1.2l0.9,0.4c-0.5,1.2-1.4,1.8-2.7,1.8
					c-1.8,0-2.9-1.2-2.9-3.3c0-2.2,1.1-3.4,2.9-3.4c1.8,0,2.8,1,2.8,2.9L185.3,66.4L185.3,66.4z M184.2,65.3c0-1.2-0.6-1.8-1.7-1.8
					c-1.1,0-1.8,0.7-1.8,1.9h3.4L184.2,65.3L184.2,65.3z"/>
				<path class="st55" d="M186,66.1c0-2,1.1-3.3,2.8-3.3c0.9,0,1.5,0.4,1.9,1.1V60h1.1v9.2h-1.1V68c-0.4,0.9-1.1,1.4-2.1,1.4
					C187.1,69.4,186,68.1,186,66.1z M190.7,66.2v-0.3c0-1.4-0.7-2.2-1.8-2.2c-1.1,0-1.8,0.9-1.8,2.3s0.7,2.3,1.8,2.3
					C190,68.4,190.7,67.6,190.7,66.2z"/>
				<path class="st55" d="M193.7,60h1.4l-0.3,6.9h-0.8L193.7,60z M195.1,69.3h-1.4v-1.4h1.4V69.3z"/>
			</g>
			<g>
				<g>
					<polygon class="st1" points="85.5,69.3 91.7,69.3 91.7,67.4 87.8,67.4 87.8,65.7 91.1,65.7 91.1,63.9 87.8,63.9 87.8,62.2 
						91.7,62.2 91.7,60.4 85.5,60.4 					"/>
				</g>
				<g>
					<path class="st1" d="M103.2,67.7c-1,0-1.4-0.9-1.4-1.9s0.5-1.8,1.4-1.8c0.9,0,1.4,0.9,1.4,1.9
						C104.6,66.9,104.2,67.7,103.2,67.7 M103.7,62.3c-0.9,0-1.6,0.3-2.2,1.1h-0.1l-0.3-0.9h-1.7v9.2h2.2v-2.9h0.1
						c0.4,0.5,1,0.7,1.8,0.7c1.9,0,3.2-1.6,3.2-3.5v-0.3C106.9,63.6,105.3,62.3,103.7,62.3"/>
				</g>
				<g>
					<path class="st1" d="M109.4,65c0.1-0.7,0.5-1.2,1.4-1.2c0.7,0,1.2,0.5,1.2,1.2H109.4z M114.1,65.6c0-2.3-1.6-3.4-3.4-3.4
						c-2,0-3.5,1.4-3.5,3.5V66c0,2.2,1.7,3.5,3.6,3.5c1.6,0,2.9-0.8,3.3-2.3h-2c-0.2,0.5-0.7,0.7-1.2,0.7c-0.9,0-1.4-0.7-1.5-1.5
						h4.7C114.1,66.3,114.1,65.9,114.1,65.6"/>
				</g>
				<g>
					<path class="st1" d="M118.6,62.3c-0.9,0-1.5,0.3-2,1.1h-0.1l-0.3-0.9h-1.7v6.8h2.2v-4c0-0.9,0.4-1.3,1.1-1.3
						c0.6,0,1.1,0.4,1.1,1.3v3.9h2.2v-4.6C121,63.4,120.2,62.3,118.6,62.3"/>
				</g>
				<g>
					<path class="st1" d="M124.3,64.9c-0.4-0.1-0.7-0.2-0.7-0.7c0-0.3,0.2-0.5,0.7-0.5c0.5,0,0.8,0.3,0.8,0.7h1.9v-0.1
						c0-1.4-1.4-2-2.8-2c-1.3,0-2.8,0.5-2.8,2.2v0.1c0,0.5,0.2,0.9,0.5,1.2c0.7,0.7,1.7,0.8,2.4,0.9c0.6,0.1,0.7,0.4,0.7,0.7
						c0,0.4-0.3,0.7-0.8,0.7c-0.6,0-0.9-0.3-1-1h-1.9v0.1c0.1,1.7,1.4,2.3,2.9,2.3c1.4,0,2.9-0.7,2.9-2.2v-0.1
						c0-0.5-0.2-0.9-0.5-1.2C126.2,65.2,125.1,65,124.3,64.9"/>
				</g>
				<g>
					<rect x="127.8" y="62.5" class="st1" width="2.2" height="6.8"/>
				</g>
				<g>
					<polygon class="st1" points="99.2,62.5 96.9,62.5 95.7,64.2 94.5,62.5 92.1,62.5 94.4,65.7 91.8,69.3 94.2,69.3 95.6,67.2 
						97.1,69.3 99.5,69.3 97,65.6 					"/>
				</g>
				<g>
					<path class="st1" d="M128.8,59.1c-0.7,0-1.3,0.6-1.3,1.3c0,0.7,0.6,1.3,1.3,1.3s1.3-0.6,1.3-1.3
						C130.1,59.7,129.5,59.1,128.8,59.1"/>
				</g>
				<g>
					<path class="st1" d="M133.8,62.5v-0.2c0-0.6,0.4-1.2,1.1-1.2c0.1,0,0.7,0,0.7,0v-1.9h-0.8c-1.8,0.1-3,1.4-3,3.2v0.1h-1.3v1.6
						h1.2v5.2h2.2v-5.2h1.4l1.8,4.7l-1.2,2.9h2.2l3.9-9.3h-2.2l-1.5,4l-1.4-4C136.6,62.5,133.8,62.5,133.8,62.5z"/>
				</g>
				<g>
					<polygon class="st1" points="85.5,69.3 91.7,69.3 91.7,67.4 87.8,67.4 87.8,65.7 91.1,65.7 91.1,63.9 87.8,63.9 87.8,62.2 
						91.7,62.2 91.7,60.4 85.5,60.4 					"/>
				</g>
				<g>
					<path class="st1" d="M103.2,67.7c-1,0-1.4-0.9-1.4-1.9s0.5-1.8,1.4-1.8c0.9,0,1.4,0.9,1.4,1.9
						C104.6,66.9,104.2,67.7,103.2,67.7 M103.7,62.3c-0.9,0-1.6,0.3-2.2,1.1h-0.1l-0.3-0.9h-1.7v9.2h2.2v-2.9h0.1
						c0.4,0.5,1,0.7,1.8,0.7c1.9,0,3.2-1.6,3.2-3.5v-0.3C106.9,63.6,105.3,62.3,103.7,62.3"/>
				</g>
				<g>
					<path class="st1" d="M109.4,65c0.1-0.7,0.5-1.2,1.4-1.2c0.7,0,1.2,0.5,1.2,1.2H109.4z M114.1,65.6c0-2.3-1.6-3.4-3.4-3.4
						c-2,0-3.5,1.4-3.5,3.5V66c0,2.2,1.7,3.5,3.6,3.5c1.6,0,2.9-0.8,3.3-2.3h-2c-0.2,0.5-0.7,0.7-1.2,0.7c-0.9,0-1.4-0.7-1.5-1.5
						h4.7C114.1,66.3,114.1,65.9,114.1,65.6"/>
				</g>
				<g>
					<path class="st1" d="M118.6,62.3c-0.9,0-1.5,0.3-2,1.1h-0.1l-0.3-0.9h-1.7v6.8h2.2v-4c0-0.9,0.4-1.3,1.1-1.3
						c0.6,0,1.1,0.4,1.1,1.3v3.9h2.2v-4.6C121,63.4,120.2,62.3,118.6,62.3"/>
				</g>
				<g>
					<path class="st1" d="M124.3,64.9c-0.4-0.1-0.7-0.2-0.7-0.7c0-0.3,0.2-0.5,0.7-0.5c0.5,0,0.8,0.3,0.8,0.7h1.9v-0.1
						c0-1.4-1.4-2-2.8-2c-1.3,0-2.8,0.5-2.8,2.2v0.1c0,0.5,0.2,0.9,0.5,1.2c0.7,0.7,1.7,0.8,2.4,0.9c0.6,0.1,0.7,0.4,0.7,0.7
						c0,0.4-0.3,0.7-0.8,0.7c-0.6,0-0.9-0.3-1-1h-1.9v0.1c0.1,1.7,1.4,2.3,2.9,2.3c1.4,0,2.9-0.7,2.9-2.2v-0.1
						c0-0.5-0.2-0.9-0.5-1.2C126.2,65.2,125.1,65,124.3,64.9"/>
				</g>
				<g>
					<rect x="127.8" y="62.5" class="st1" width="2.2" height="6.8"/>
				</g>
				<g>
					<polygon class="st1" points="99.2,62.5 96.9,62.5 95.7,64.2 94.5,62.5 92.1,62.5 94.4,65.7 91.8,69.3 94.2,69.3 95.6,67.2 
						97.1,69.3 99.5,69.3 97,65.6 					"/>
				</g>
				<g>
					<path class="st1" d="M128.8,59.1c-0.7,0-1.3,0.6-1.3,1.3c0,0.7,0.6,1.3,1.3,1.3s1.3-0.6,1.3-1.3
						C130.1,59.7,129.5,59.1,128.8,59.1"/>
				</g>
			</g>
		</g>
	</g>
</g>
<g id="Layer_2">
</g>
</svg>
