<?xml version="1.0" encoding="utf-8"?>
<!-- Generator: Adobe Illustrator 24.2.3, SVG Export Plug-In . SVG Version: 6.00 Build 0)  -->
<svg version="1.1" id="Layer_1" xmlns="http://www.w3.org/2000/svg" xmlns:xlink="http://www.w3.org/1999/xlink" x="0px" y="0px"
	 viewBox="0 0 333.1 185.5" style="enable-background:new 0 0 333.1 185.5;" xml:space="preserve">
<style type="text/css">
	.st0{fill:#96CEE2;}
	.st1{fill:#49B2CE;}
	.st2{fill:#006796;}
</style>
<g>
	<path class="st0" d="M90.5,120.1v-3h-3.1c-2.7,0-3.3-0.2-3.3-1.3c0-0.7,0.5-1.7,1-3.2l1.8-5.2h14.7l1.7,4.6
		c0.3,0.9,1.3,2.8,1.3,3.8c0,0.9-0.7,1.3-3,1.3h-3.5v3h18.1v-3H114c-2,0-3.3-0.9-4-2.8L97.3,82h-4.7l-12.2,31.7
		c-0.9,2.2-1.7,3.4-4.2,3.4h-2.3v3H90.5z M100.2,104.5H87.8L94,88.2L100.2,104.5z M110.7,96.1h0.7c1.9,0,2.7,0.6,3.3,1.9l9,22.4h3.2
		l6.5-16.6l6.7,16.6h3.3l8.6-21.6c0.6-1.5,1.7-2.7,3.5-2.7h0.9v-2.7h-11.9v2.7h1.1c1.7,0,3.2,0.4,3.2,1.1c0,0.6-0.2,1.1-0.5,1.8
		l-5.8,15.6h-0.1l-5.6-15.4c-0.3-0.9-0.7-1.4-0.7-2.1s0.5-1,2.1-1h2.3v-2.7h-13.4v2.7h1.5c1.6,0,2.7,1.4,3.5,3.2l-6.1,14.9h-0.1
		L120.2,99c-0.3-0.7-0.5-1.2-0.5-1.8c0-0.8,0.5-1.1,1.8-1.1h2.1v-2.7h-12.9V96.1z M175.5,110.7c0,3.9-4.5,7.5-8.3,7.5
		c-2.9,0-4.5-1.8-4.5-4.7c0-2,1.3-3.2,4.3-4.6c3.4-1.4,6-2,8.4-3.4L175.5,110.7z M180.4,101.8c0-7.4-4.3-9.3-10.8-9.3
		c-4.3,0-10.8,1.9-10.8,6.8c0,2.3,1,4,3,4c1.6,0,3.4-0.8,3.4-3c0-1.7-0.9-2.6-2.6-2.9c1.7-1.9,4.4-2.2,6.7-2.2c5,0,6.4,1.6,6.4,4.9
		c0,1.7-0.4,2.8-2.2,3.7c-5.8,2.7-16,2.6-16,10c0,5.1,3.8,7.1,8.4,7.1c4.1,0,7.3-1.4,10.1-4.5c0.5,2.7,2.2,4.4,5,4.4
		c4.3,0,6.4-2.2,6.4-8.3v-1.7h-2.7v2.4c0,1.7-0.2,4.8-2.7,4.8c-1,0-1.5-1.3-1.5-3L180.4,101.8z M199,93.3h-10.8V96h3.9
		c1.9,0,2.3,0.9,2.3,2.6v16.1c0,1.8-0.4,2.6-2.3,2.6h-3.7v2.7h16.8v-2.7h-3.1c-1.8,0-2.9-0.9-2.9-2.6V107c0-5.6,2.8-11.9,8.1-11.9
		c1.3,0,3,0.3,3.3,1.6c-2.1,0-3.4,0.9-3.4,3c0,1.7,1.7,2.6,3.2,2.6c2.3,0,3.2-1.7,3.2-3.8c0-3.9-2.6-6-6.4-6c-3.3,0-6.7,2.7-8.1,6.6
		H199V93.3z M237.6,120h10.3v-2.7h-3.3c-1.3,0-2.1-0.7-2.1-2.1V82.1h-10.4v2.7h3c1.9,0,2.6,1.4,2.6,3.2v10h-0.1
		c-1.9-3.6-5.8-5.6-9.5-5.6c-8.6,0-12.3,7.2-12.3,14.2s3.8,14.2,12.3,14.2c5,0,7.4-2.2,9.5-6h0.1L237.6,120z M229.2,95.6
		c5.8,0,8.2,5.3,8.2,11s-2.3,11-8.8,11c-5.2,0-7.5-4.5-7.5-11C221.1,100.9,223.4,95.6,229.2,95.6 M249.7,109.2v11.1h3l1.1-3
		c2.6,2.4,6.2,3.5,9.7,3.5c5.2,0,10.6-2.3,10.6-8.3c0-11.2-19.2-6.1-19.2-12.9c0-3.7,2.9-4.6,5.4-4.6c4.7,0,9,3.4,9.6,8.4h2.7V92.9
		H270l-1,2.7c-2.4-2.1-5.6-3.2-8.8-3.2c-5,0-10.1,2.2-10.1,7.9c0,11.7,19.2,6,19.2,13.4c0,2.7-2.5,4.4-5.9,4.5
		c-5.4,0-9.8-3.5-10.6-8.9L249.7,109.2z"/>
	<path class="st1" d="M97.7,69.2c0-6.9,1.2-10.5,8.2-10.5h2.2v25.4c0,1.6-0.7,2.6-2.3,2.6h-4.4v2.6h18v-2.6h-4.3
		c-1.6,0-2.3-1-2.3-2.6V58.7h1.9c7.3,0,8.6,3.1,8.6,10.5h2.6V56.1H95v13.1H97.7z M140.2,65.1c-8.1,0-12.9,5.3-12.9,12.5
		s4.9,12.5,12.9,12.5c8.1,0,12.9-5.3,12.9-12.5C153.1,70.4,148.3,65.1,140.2,65.1 M140.2,67.5c6.2,0,8.2,4.7,8.2,10.1
		s-1.9,10.1-8.2,10.1c-6.2,0-8.2-4.7-8.2-10.1S134,67.5,140.2,67.5 M163.4,65.9h-9.5v2.4h3.5c1.7,0,2,0.7,2,2.3v14.1
		c0,1.6-0.3,2.3-2,2.3h-3.3v2.4h14.7V87h-2.7c-1.6,0-2.5-0.7-2.5-2.3v-6.8c0-5,2.4-10.4,7.2-10.4c1.1,0,2.7,0.2,2.9,1.4
		c-1.8,0-3,0.8-3,2.6c0,1.5,1.5,2.3,2.8,2.3c2,0,2.8-1.5,2.8-3.4c0-3.5-2.3-5.3-5.7-5.3c-2.9,0-5.9,2.4-7.1,5.8h-0.1L163.4,65.9z
		 M196.6,80.7c-0.8,4.3-3.3,7-7.3,7c-5.4,0-7.5-5.5-7.5-10.1s2-10.1,8.4-10.1c2.3,0,5.6,0.9,6.4,3.4c-1.7,0.3-2.6,1.2-2.6,2.9
		c0,1.3,1.2,2.4,2.5,2.4c2,0,3.2-1.4,3.2-3.5c0-5.2-5.7-7.5-10.2-7.5c-7.1,0-12.4,5.1-12.4,12.5c0,8.3,4.8,12.5,11,12.5
		c6.6,0,10.7-2.6,11.4-9.4L196.6,80.7z M208.9,56.1h-9.5v2.4h3.3c1.7,0,2,0.7,2,2.3v23.9c0,1.6-0.3,2.3-2,2.3h-3.3v2.4H214V87h-3.1
		c-1.7,0-2-0.7-2-2.3v-8.9c0-4,2.8-7.8,7.6-7.8c3.9,0,5.2,2,5.2,5.5v11.2c0,1.6-0.3,2.3-2,2.3h-2.8v2.4h14V87h-3c-1.7,0-2-0.7-2-2.3
		V73.8c0-5.2-2.8-8.7-8.1-8.7c-3.9,0-6.9,1.9-8.8,4.8h-0.1L208.9,56.1z"/>
	<polygon class="st2" points="86.2,59.9 68.5,59.9 67.8,62 72.6,62 73.5,64.9 81.3,64.9 82.2,62 86.9,62 	"/>
	<path class="st2" d="M71.4,48c-0.7,0.9-0.9,2-0.7,3.1c0.2,1.1,0.8,2.1,1.7,2.7l4.3,3.1c0.2,0.2,0.4,0.4,0.4,0.7s0,0.6-0.2,0.8
		l0.6,0.5l2.2-3.1c0.5-0.7,0.8-1.6,0.8-2.5c0-0.2,0-0.4-0.1-0.7c-0.2-1.1-0.8-2.1-1.7-2.7l-4.3-3.1c-0.2-0.2-0.4-0.4-0.4-0.7
		c0-0.1,0-0.1,0-0.2c0-0.2,0.1-0.4,0.2-0.6l0,0l-0.6-0.5L71.4,48z"/>
	<path class="st2" d="M73.9,35.5c-0.8,1.1-1.2,2.3-1.2,3.6c0,0.3,0,0.6,0.1,1c0.3,1.6,1.1,3,2.4,4l5.3,3.9c0.7,0.5,1.2,1.3,1.3,2.1
		c0,0.2,0,0.3,0,0.5c0,0.7-0.2,1.3-0.6,1.9l0,0l0.5,0.4l4.2-5.8c1-1.3,1.3-2.9,1.1-4.5c-0.3-1.6-1.1-3-2.4-4l-6.5-4.7
		c-0.4-0.3-0.7-0.7-0.8-1.2c-0.1-0.5,0-1,0.3-1.4l-0.5-0.4L73.9,35.5z"/>
	<path class="st2" d="M68,75.2c1,0,1.6-0.4,1.6-1.1l0,0c0-0.7-0.5-1.1-1.7-1.1h-2.7v2.3H68V75.2z M67.4,71c1,0,1.7-0.3,1.7-1.1l0,0
		c0-0.7-0.5-1.1-1.5-1.1h-2.3V71H67.4z M63,66.7h4.9c1.2,0,2.1,0.3,2.7,0.9c0.5,0.5,0.7,1.1,0.7,1.8l0,0c0,1.2-0.6,1.8-1.4,2.3
		c1.2,0.5,2,1.2,2,2.6l0,0c0,1.9-1.6,2.9-3.9,2.9h-5C63,77.2,63,66.7,63,66.7z"/>
	<path class="st2" d="M77.9,75.2c1,0,1.6-0.4,1.6-1.1l0,0c0-0.7-0.5-1.1-1.7-1.1h-2.7v2.3h2.8V75.2z M77.3,71c1,0,1.7-0.3,1.7-1.1
		l0,0c0-0.7-0.5-1.1-1.5-1.1h-2.3V71H77.3z M72.9,66.7h4.9c1.2,0,2.1,0.3,2.7,0.9c0.5,0.5,0.7,1.1,0.7,1.8l0,0
		c0,1.2-0.6,1.8-1.4,2.3c1.2,0.5,2,1.2,2,2.6l0,0c0,1.9-1.6,2.9-3.9,2.9h-5C72.9,77.2,72.9,66.7,72.9,66.7z"/>
	<path class="st2" d="M87.8,75.2c1,0,1.6-0.4,1.6-1.1l0,0c0-0.7-0.5-1.1-1.7-1.1H85v2.3h2.8V75.2z M87.2,71c1,0,1.7-0.3,1.7-1.1l0,0
		c0-0.7-0.5-1.1-1.5-1.1h-2.3V71H87.2z M82.9,66.7h4.9c1.2,0,2.1,0.3,2.7,0.9c0.5,0.5,0.7,1.1,0.7,1.8l0,0c0,1.2-0.6,1.8-1.4,2.3
		c1.2,0.5,2,1.2,2,2.6l0,0c0,1.9-1.6,2.9-3.9,2.9h-5C82.9,77.2,82.9,66.7,82.9,66.7z"/>
	<path class="st2" d="M92.2,76.2C92.3,76.2,92.3,76.2,92.2,76.2c0.2,0,0.3,0.1,0.3,0.1c0,0.1-0.1,0.1-0.2,0.1h-0.1
		C92.2,76.4,92.2,76.2,92.2,76.2z M92.2,76.5L92.2,76.5c0.2,0,0.2,0,0.3,0.1c0,0.1,0,0.2,0.1,0.2h0.1c0,0,0-0.1,0-0.2
		s-0.1-0.2-0.1-0.2l0,0c0.1,0,0.2-0.1,0.2-0.2s0-0.1-0.1-0.2c0,0-0.1-0.1-0.2-0.1s-0.2,0-0.2,0v0.8h0.1v-0.2H92.2z M92.4,75.9
		c0.3,0,0.6,0.3,0.6,0.6c0,0.3-0.2,0.6-0.6,0.6c-0.3,0-0.6-0.3-0.6-0.6C91.8,76.1,92.1,75.9,92.4,75.9L92.4,75.9z M92.4,75.8
		c-0.4,0-0.7,0.3-0.7,0.7c0,0.4,0.3,0.7,0.7,0.7c0.4,0,0.7-0.3,0.7-0.7C93.1,76.1,92.8,75.8,92.4,75.8L92.4,75.8z"/>
	<path class="st1" d="M144.6,125.1l-0.9,0.8l0.1,0.3h2.3c-0.5,2.8-0.8,5.1-1.5,9c-0.9,5.5-1.6,6.7-2,7.1c-0.3,0.3-0.7,0.6-1.2,0.6
		s-1.3-0.3-1.8-0.7c-0.2-0.2-0.3-0.2-0.5,0c-0.4,0.3-0.8,0.8-0.8,1.2c0,0.7,0.9,1.2,1.8,1.2c0.8,0,2-0.5,3.2-1.8
		c1.6-1.6,2.6-3.8,3.6-8.6c0.6-3.2,0.9-4.8,1.4-8l2.8-0.3l0.6-0.9h-3.2c0.9-5.3,1.7-6.6,2.8-6.6c0.6,0,1.2,0.4,1.8,1
		c0.2,0.2,0.5,0.2,0.7,0c0.3-0.2,0.7-0.7,0.7-1.2s-0.7-1.2-1.7-1.2c-1.1,0-2.8,0.8-4.1,2.3c-1.3,1.4-2,3.6-2.4,5.7L144.6,125.1
		L144.6,125.1z M154.6,137.7c1.6,0,3.2-0.8,4.4-1.8c2-1.6,3-4.4,3-6.9c0-2.8-1.4-4.4-3.8-4.4c-0.9,0-2,0.4-3.1,0.9
		c-2.4,1.3-4.3,4.1-4.3,7.8C150.8,135.6,151.9,137.7,154.6,137.7 M155.6,136.6c-1.5,0-2.4-1.3-2.4-3.4c0-4.4,1.9-6.7,3-7.2
		c0.3-0.1,0.7-0.3,1.1-0.3c1.3,0,2.3,1.1,2.3,3.4c0,3.6-1.6,6.7-3.1,7.3C156.2,136.5,156,136.6,155.6,136.6 M167.7,129.3l0.3-1.4
		c0.4-2,0.4-3.3-0.3-3.3c-0.8,0-2.5,1.2-4,2.8l0.4,0.7c0.9-0.8,1.8-1.4,2-1.4s0.2,0.3,0.1,1.2c-0.5,3-1.3,6.5-2.1,9.6l0.2,0.2
		c0.6-0.2,1.4-0.4,2-0.5c0.3-1.9,0.7-3.7,1.1-5.6c0.5-1.3,1.4-2.6,2-3.5c0.7-0.9,1.1-1.2,1.4-1.2c0.3,0,0.7,0.1,1,0.5
		c0.1,0.1,0.4,0.1,0.6,0c0.3-0.2,0.5-0.5,0.7-0.8c0.2-0.4,0.2-0.9,0-1.2c-0.3-0.4-0.7-0.7-1.2-0.7
		C170.9,124.6,169.3,126.6,167.7,129.3L167.7,129.3z"/>
	<path class="st1" d="M196.5,142.8v-8h-2.1c-0.3,4.2-1.3,5.9-3.9,5.9h-5.7v-6.6h1.5c1.7,0,2.5,0.9,2.5,3.2v0.7h2.1v-9.5h-2.1v0.4
		c0,2.3-0.8,3.2-2.5,3.2h-1.5v-5.9h5c3.8,0,4.2,1.5,4.6,5.4h2.1V124h-18.8v2.1h1.3c1.5,0,1.8,0.4,1.8,1.6v11.1c0,1.7-0.5,2-1.5,2
		h-1.6v2.1h18.8V142.8z M200.7,131.4v8.7c0,2.3,1.5,3.2,3.6,3.2c2.2,0,3.9-1.3,3.9-4.3v-2.4h-1.9v2.5c0,1.1-0.3,1.6-1.2,1.6
		c-0.8,0-1.1-0.4-1.1-0.9v-8.4h3.7v-1.9H204v-5.3h-1.8c-0.3,2.6-1,5.2-3.9,5.4v1.8L200.7,131.4L200.7,131.4z M215.4,124h-6.1v1.9
		h1.6c0.8,0,1.1,0.3,1.1,1.1v12.8c0,0.8-0.3,1.1-1.1,1.1h-1.6v1.9h8.4V141h-1.1c-0.8,0-1.1-0.3-1.1-1.1v-4.4c0-2.5,1.7-4.1,3.2-4.1
		s2.5,0.5,2.5,2v6.5c0,0.8-0.3,1.1-1.1,1.1H219v1.9h8.3V141h-1.6c-0.8,0-1.1-0.3-1.1-1.1v-6.7c0-2.4-1.5-4-4-4
		c-2.2,0-3.8,1.1-4.9,2.7h-0.1V124H215.4z M236.8,142.8V141h-1.4c-0.8,0-1.1-0.3-1.1-1.1v-10.3h-5.8v1.9h1.3c0.8,0,1.1,0.3,1.1,1.1
		v7.3c0,0.8-0.3,1.1-1.1,1.1h-1.3v1.9L236.8,142.8L236.8,142.8z M230.2,125.7c0,1.1,0.9,2,2,2s2-0.9,2-2s-0.9-2-2-2
		C231.1,123.7,230.2,124.6,230.2,125.7 M248.3,137.4c-0.2,2-1.4,3.5-3.1,3.5c-3,0-3.7-2.8-3.7-4.9c0-2.2,0.8-4.9,3.8-4.9
		c1.1,0,2.1,0.3,2.7,1.1c-1.1,0.1-1.7,0.7-1.7,1.8c0,1.2,1.2,1.7,2.2,1.7c1.2,0,2-1.1,2-2.4c0-2.4-2.6-4.2-5.9-4.2
		c-3.7,0-7,2.8-7,7.1c0,4.6,2.3,7.1,6.7,7.1c3.9,0,5.9-2.1,6.1-5.9L248.3,137.4L248.3,137.4z M252.5,137.6v5.2h1.9l0.6-1
		c1.3,1.2,3,1.5,4.8,1.5c2.7,0,5.2-1.2,5.2-4.2c0-5.2-9-4.1-9-6.4c0-1.1,1.2-1.5,2.2-1.5c2.2,0,3.5,1.1,4.2,3.1h1.8v-4.7h-1.6
		l-0.6,1c-1.2-0.8-2.7-1.4-4.2-1.4c-2.5,0-5.2,1.4-5.2,4.3c0,5.1,9,3.5,9,6.3c0,1.2-1.2,1.7-2.2,1.7c-2.5,0-4.2-1.2-4.8-3.7h-2.1
		V137.6z"/>
</g>
<g id="Layer_2_1_">
</g>
</svg>
