<?xml version="1.0" encoding="utf-8"?>
<!-- Generator: Adobe Illustrator 24.2.3, SVG Export Plug-In . SVG Version: 6.00 Build 0)  -->
<svg version="1.1" xmlns="http://www.w3.org/2000/svg" xmlns:xlink="http://www.w3.org/1999/xlink" x="0px" y="0px"
	 viewBox="0 0 246.8 129.7" style="enable-background:new 0 0 246.8 129.7;" xml:space="preserve">
<style type="text/css">
	.st0{fill:#80BC00;}
	.st1{fill:#FFFFFF;}
	.st2{fill:#EDEDED;}
	.st3{fill:#81BA3F;}
	.st4{opacity:0.1;fill:url(#SVGID_1_);}
	.st5{opacity:0.75;fill:url(#SVGID_2_);}
	.st6{opacity:0.75;fill:url(#SVGID_3_);}
	.st7{fill:#646469;}
	.st8{fill:none;stroke:#81BA3F;stroke-width:2.3;stroke-miterlimit:10;}
	.st9{fill:#808080;}
	.st10{fill:#636569;}
	.st11{fill:#FFFFFF;stroke:#65656A;stroke-width:1.5542;stroke-linejoin:round;stroke-miterlimit:10;}
	.st12{fill:#FFFFFF;stroke:#65656A;stroke-width:1.9187;stroke-linejoin:round;stroke-miterlimit:10;}
	.st13{fill:none;stroke:#65656A;stroke-width:1.3822;stroke-miterlimit:10;}
	.st14{fill:none;stroke:#80BC00;stroke-width:3;stroke-linejoin:round;stroke-miterlimit:10;}
	.st15{fill:#ECECEC;stroke:#65656A;stroke-width:3;stroke-linejoin:round;stroke-miterlimit:10;}
	.st16{fill:none;stroke:#65656A;stroke-width:3;stroke-linejoin:round;stroke-miterlimit:10;}
	.st17{fill:#76A2DB;}
	.st18{fill:#F2B334;}
	.st19{fill:#E23E2F;}
	.st20{fill:#003088;}
	.st21{fill:#96CEE2;}
	.st22{fill:#49B2CE;}
	.st23{fill:#006796;}
	.st24{fill:none;stroke:#006796;stroke-width:0.9411;stroke-miterlimit:10;}
	.st25{fill:#8D8E92;}
	.st26{fill:#65656A;}
	.st27{opacity:0.98;fill:#484849;}
	.st28{fill:#999999;}
	.st29{fill:none;stroke:#999999;stroke-miterlimit:10;}
	.st30{fill:#81BA41;}
	.st31{opacity:0.75;fill:url(#SVGID_4_);}
	.st32{opacity:0.98;}
	.st33{fill:#8BC53F;}
	.st34{fill:#848487;}
	.st35{opacity:0.98;fill:none;stroke:#484849;stroke-width:1.5066;stroke-miterlimit:10;}
	.st36{fill:#ECEDEC;}
	.st37{clip-path:url(#SVGID_6_);}
	.st38{fill:#111111;}
	.st39{clip-path:url(#SVGID_8_);}
	.st40{fill:#891D03;}
	.st41{fill:#ADAFB1;}
	.st42{fill:#00DB00;}
	.st43{fill:#8F8A87;}
	.st44{fill:#EF7E19;}
	.st45{fill:#F6B881;}
	.st46{fill:#CCCCCC;}
	.st47{fill:#6D6E71;}
	.st48{clip-path:url(#SVGID_10_);fill:url(#SVGID_11_);}
	.st49{clip-path:url(#SVGID_13_);fill:url(#SVGID_14_);}
	.st50{fill:#37444C;}
	.st51{fill:#00A7DA;}
	.st52{fill:#ABBF00;}
	.st53{fill:#FFD100;}
	.st54{fill:url(#SVGID_15_);}
	.st55{fill:#2EAAE2;}
	.st56{fill:#2ECB70;}
	.st57{fill:#FFC600;}
	.st58{fill:none;}
	.st59{fill:#313E48;}
	.st60{fill:#FF6C0E;}
	.st61{opacity:0.75;}
	.st62{clip-path:url(#SVGID_17_);}
	.st63{clip-path:url(#SVGID_19_);}
	.st64{fill:#C75B12;}
	.st65{fill:#004A7C;}
	.st66{fill:#A9D15D;}
	.st67{clip-path:url(#SVGID_21_);fill:url(#SVGID_22_);}
	.st68{clip-path:url(#SVGID_24_);fill:url(#SVGID_25_);}
	.st69{fill:url(#SVGID_26_);}
	.st70{fill:#F63900;}
	.st71{opacity:0.75;clip-path:url(#SVGID_28_);}
	.st72{clip-path:url(#SVGID_30_);}
	.st73{clip-path:url(#SVGID_32_);}
	.st74{fill:#FFFFFF;stroke:#65656A;stroke-width:1.5503;stroke-linejoin:round;stroke-miterlimit:10;}
	.st75{fill:none;stroke:#65656A;stroke-width:1.3787;stroke-miterlimit:10;}
	.st76{fill:#929497;}
	.st77{fill:none;stroke:#65656A;stroke-width:1.5503;stroke-linejoin:round;stroke-miterlimit:10;}
	.st78{fill:#88201B;}
	.st79{fill:#ACAEB0;}
	.st80{fill:none;stroke:#65656A;stroke-width:1.4861;stroke-linejoin:round;stroke-miterlimit:10;}
</style>
<g id="Layer_1">
	<g>
		<path class="st10" d="M89.2,61.6h-2.7v7.8c0,0.1-0.1,0.3-0.3,0.3h-1.3c-0.1,0-0.3-0.1-0.3-0.3v-7.8h-2.7c-0.1,0-0.3-0.1-0.3-0.2
			v-1.1c0-0.2,0.1-0.3,0.3-0.3h7.3c0.1,0,0.3,0.1,0.3,0.3v1.1C89.5,61.5,89.3,61.6,89.2,61.6 M99,69.7h-1.3c-0.2,0-0.3-0.1-0.3-0.3
			v-3.9h-4.3v3.9c0,0.1-0.1,0.3-0.3,0.3h-1.3c-0.2,0-0.3-0.1-0.3-0.3v-9.1c0-0.2,0.1-0.3,0.3-0.3h1.3c0.1,0,0.3,0.1,0.3,0.3v3.5h4.3
			v-3.5c0-0.2,0.1-0.3,0.3-0.3H99c0.1,0,0.3,0.1,0.3,0.3v9.1C99.3,69.6,99.1,69.7,99,69.7z M105.7,69.8c-2.2,0-4.3-1.2-4.3-4.2v-1.4
			c0-3,2.1-4.2,4.3-4.2c2.2,0,4.3,1.3,4.3,4.2v1.4C110,68.5,108,69.8,105.7,69.8z M108.1,64.2c0-1.8-1.1-2.6-2.4-2.6
			c-1.3,0-2.4,0.8-2.4,2.6v1.4c0,1.8,1.1,2.6,2.4,2.6c1.3,0,2.4-0.8,2.4-2.6V64.2z M121.7,69.7h-1.4c-0.1,0-0.2-0.1-0.2-0.3v-5.9
			c0-0.1,0-0.1,0-0.1c0,0,0,0-0.1,0.1l-2.2,4.9c-0.1,0.1-0.3,0.2-0.4,0.2h-0.7c-0.2,0-0.4-0.1-0.4-0.2l-2.2-4.9c0,0-0.1-0.1-0.1-0.1
			c0,0,0,0,0,0.1v5.9c0,0.1-0.1,0.3-0.2,0.3h-1.4c-0.1,0-0.2-0.1-0.2-0.2v-8.9c0-0.3,0.2-0.5,0.5-0.5h1.1c0.2,0,0.4,0.1,0.5,0.3
			l2.6,5.3c0.1,0.1,0.1,0.2,0.2,0.2c0.1,0,0.1-0.1,0.1-0.2l2.6-5.3c0.1-0.2,0.3-0.3,0.5-0.3h1.1c0.3,0,0.5,0.2,0.5,0.5v8.9
			C122,69.6,121.9,69.7,121.7,69.7z M151.6,69.7h-1.4c-0.3,0-0.6,0-0.8-0.5l-3.7-6.2c0-0.1-0.1-0.1-0.1-0.1c0,0-0.1,0-0.1,0.1v6.4
			c0,0.1-0.1,0.3-0.3,0.3h-1.2c-0.2,0-0.3-0.1-0.3-0.3v-8.8c0-0.3,0.2-0.5,0.5-0.5h1.5c0.3,0,0.4,0.1,0.6,0.4l3.8,6.5
			c0,0.1,0.1,0.1,0.1,0.1c0,0,0.1,0,0.1-0.1v-6.7c0-0.2,0.1-0.3,0.3-0.3h1.2c0.1,0,0.3,0.1,0.3,0.3v8.8
			C152.1,69.4,151.9,69.7,151.6,69.7z M127.8,69.8c-1.2,0-2.4-0.2-3.1-0.4c-0.1,0-0.3-0.1-0.3-0.3v-1c0-0.1,0.1-0.3,0.3-0.3
			c0,0,0,0,0,0c0.5,0.1,1.8,0.2,3.1,0.2c1.2,0,1.6-0.4,1.6-1.2c0-1-2.4-1.6-3.6-2.1c-1.2-0.5-1.6-1.4-1.6-2.4c0-1.5,1.2-2.6,3.7-2.6
			c1.3,0,2.5,0.2,2.9,0.4c0.1,0,0.2,0.1,0.2,0.3v1c0,0.1-0.1,0.2-0.2,0.2c0,0,0,0,0,0c-0.9-0.1-1.8-0.2-3-0.2c-1,0-1.8,0.4-1.8,1
			c0,0.4,0.5,0.9,1.1,1.1c0.6,0.2,1.4,0.5,2.3,0.9c1.1,0.5,1.9,1.1,1.9,2.4C131.4,68.3,130.5,69.8,127.8,69.8z M137.4,69.8
			c-2.2,0-4.3-1.2-4.3-4.2v-1.4c0-3,2.1-4.2,4.3-4.2c2.2,0,4.3,1.3,4.3,4.2v1.4C141.7,68.5,139.6,69.8,137.4,69.8z M139.8,64.2
			c0-1.8-1.1-2.6-2.4-2.6c-1.3,0-2.4,0.8-2.4,2.6v1.4c0,1.8,1.1,2.6,2.4,2.6c1.3,0,2.4-0.8,2.4-2.6V64.2z M166.2,69.7h-1.7
			c-0.1,0-0.2-0.1-0.3-0.3l-2-3.3H162c-0.4,0-1.5,0-1.8-0.1v3.3c0,0.1-0.1,0.3-0.3,0.3h-1.4c-0.1,0-0.3-0.1-0.3-0.3v-8.9
			c0-0.3,0.2-0.4,0.4-0.4c0.7-0.1,2.2-0.2,3.2-0.2c2.1,0,4,0.7,4,3.1v0.1c0,1.4-0.7,2.2-1.8,2.7l2.1,3.6c0,0,0,0.1,0,0.1
			C166.4,69.6,166.3,69.7,166.2,69.7z M164.2,63c0-1-0.8-1.5-2.1-1.5c-0.3,0-1.5,0-1.8,0.1v2.9c0.2,0,1.5,0,1.8,0
			c1.4,0,2.1-0.3,2.1-1.5V63z M170,67c0,1.1,0,1.2,1.1,1.2h3.4c0.1,0,0.3,0.1,0.3,0.3v0.9c0,0.2-0.1,0.3-0.3,0.3
			c-0.4,0.1-1.3,0.2-2.9,0.2c-2.3,0-3.4,0-3.4-2.8v-4.3c0-2.8,1.2-2.8,3.4-2.8c1.6,0,2.5,0.1,2.9,0.2c0.2,0,0.3,0.1,0.3,0.3v0.9
			c0,0.1-0.1,0.3-0.3,0.3h-3.4c-1,0-1.1,0-1.1,1.2V64h4.3c0.1,0,0.3,0.1,0.3,0.3v1c0,0.1-0.1,0.3-0.3,0.3H170V67z M180.9,69.8
			c-2.2,0-4.1-1-4.1-3.8v-5.7c0-0.2,0.1-0.3,0.3-0.3h1.3c0.2,0,0.3,0.1,0.3,0.3V66c0,1.6,0.7,2.3,2.2,2.3c1.5,0,2.2-0.7,2.2-2.3
			v-5.7c0-0.2,0.1-0.3,0.3-0.3h1.3c0.2,0,0.3,0.1,0.3,0.3V66C185,68.8,183.1,69.8,180.9,69.8z M193.9,61.6h-2.7v7.8
			c0,0.1-0.1,0.3-0.3,0.3h-1.3c-0.1,0-0.3-0.1-0.3-0.3v-7.8h-2.7c-0.1,0-0.3-0.1-0.3-0.2v-1.1c0-0.2,0.1-0.3,0.3-0.3h7.3
			c0.1,0,0.3,0.1,0.3,0.3v1.1C194.2,61.5,194,61.6,193.9,61.6z M212.3,69.7h-1.7c-0.1,0-0.2-0.1-0.3-0.3l-2-3.3h-0.3
			c-0.4,0-1.5,0-1.8-0.1v3.3c0,0.1-0.1,0.3-0.3,0.3h-1.4c-0.1,0-0.3-0.1-0.3-0.3v-8.9c0-0.3,0.2-0.4,0.4-0.4
			c0.7-0.1,2.2-0.2,3.2-0.2c2.1,0,4,0.7,4,3.1v0.1c0,1.4-0.7,2.2-1.8,2.7l2.1,3.6c0,0,0,0.1,0,0.1C212.5,69.6,212.5,69.7,212.3,69.7
			z M210.3,63c0-1-0.8-1.5-2.2-1.5c-0.3,0-1.5,0-1.8,0.1v2.9c0.2,0,1.5,0,1.8,0c1.4,0,2.2-0.3,2.2-1.5V63z M217.5,69.8
			c-1.2,0-2.4-0.2-3.1-0.4c-0.1,0-0.3-0.1-0.3-0.3v-1c0-0.1,0.1-0.3,0.3-0.3c0,0,0,0,0,0c0.5,0.1,1.8,0.2,3.1,0.2
			c1.2,0,1.6-0.4,1.6-1.2c0-1-2.4-1.6-3.6-2.1c-1.2-0.5-1.6-1.4-1.6-2.4c0-1.5,1.2-2.6,3.7-2.6c1.3,0,2.5,0.2,2.9,0.4
			c0.1,0,0.2,0.1,0.2,0.3v1c0,0.1-0.1,0.2-0.2,0.2c0,0,0,0,0,0c-0.9-0.1-1.8-0.2-3-0.2c-1,0-1.8,0.4-1.8,1c0,0.4,0.5,0.9,1.1,1.1
			c0.6,0.2,1.4,0.5,2.3,0.9c1.1,0.5,1.9,1.1,1.9,2.4C221.1,68.3,220.3,69.8,217.5,69.8z M197.4,67c0,1.1,0,1.2,1.1,1.2h3.4
			c0.1,0,0.3,0.1,0.3,0.3v0.9c0,0.2-0.1,0.3-0.3,0.3c-0.4,0.1-1.3,0.2-2.9,0.2c-2.3,0-3.5,0-3.5-2.8v-4.3c0-2.8,1.2-2.8,3.5-2.8
			c1.6,0,2.5,0.1,2.9,0.2c0.2,0,0.3,0.1,0.3,0.3v0.9c0,0.1-0.1,0.3-0.3,0.3h-3.4c-1,0-1.1,0-1.1,1.2V64h4.3c0.2,0,0.3,0.1,0.3,0.3v1
			c0,0.1-0.1,0.3-0.3,0.3h-4.3V67z"/>
		<path class="st60" d="M58.4,56.9c-0.6,0.6-1.5,0.6-2.1,0.1c-0.6-0.6-0.6-1.5-0.1-2.1c0.6-0.6,1.5-0.6,2.1-0.1
			C58.9,55.4,58.9,56.3,58.4,56.9 M43.4,53.5c-0.3-0.3-0.8-0.3-1,0c-0.3,0.3-0.3,0.8,0,1c0.3,0.3,0.8,0.3,1,0
			C43.7,54.3,43.7,53.8,43.4,53.5z M47.2,52.1c-0.4-0.3-0.9-0.3-1.3,0c-0.3,0.4-0.3,0.9,0,1.3c0.4,0.3,0.9,0.3,1.3,0
			C47.5,53,47.5,52.4,47.2,52.1z M51.2,51.8c-0.5-0.4-1.2-0.4-1.6,0c-0.4,0.5-0.4,1.2,0.1,1.6c0.5,0.4,1.2,0.4,1.6,0
			C51.7,53,51.6,52.2,51.2,51.8z M55,52.8c-0.5-0.5-1.4-0.5-1.8,0.1c-0.5,0.5-0.5,1.3,0.1,1.8c0.5,0.5,1.4,0.5,1.8-0.1
			C55.5,54.1,55.5,53.3,55,52.8z M40.2,56c-0.2-0.2-0.6-0.2-0.8,0c-0.2,0.2-0.2,0.6,0,0.8c0.2,0.2,0.6,0.2,0.8,0
			C40.5,56.6,40.5,56.2,40.2,56z M59.4,69.6c-0.3,0.3-0.3,0.8,0,1c0.3,0.3,0.8,0.3,1,0c0.3-0.3,0.3-0.8,0-1
			C60.2,69.3,59.7,69.3,59.4,69.6z M60.4,65.8c-0.3,0.4-0.3,0.9,0,1.3c0.4,0.3,0.9,0.3,1.3,0c0.3-0.4,0.3-0.9,0-1.3
			C61.3,65.4,60.7,65.4,60.4,65.8z M60.1,61.8c-0.4,0.5-0.4,1.2,0,1.6c0.5,0.4,1.2,0.4,1.6-0.1c0.4-0.5,0.4-1.2,0-1.6
			C61.3,61.3,60.5,61.3,60.1,61.8z M58.7,58.1c-0.5,0.5-0.5,1.3,0.1,1.8c0.5,0.5,1.4,0.5,1.8-0.1c0.5-0.5,0.5-1.3-0.1-1.8
			C60,57.5,59.2,57.5,58.7,58.1z M57.4,72.9c-0.2,0.2-0.2,0.6,0,0.8c0.2,0.2,0.6,0.2,0.8,0c0.2-0.2,0.2-0.6,0-0.8
			C58,72.7,57.6,72.7,57.4,72.9z M41.5,74.9c0.6-0.6,0.5-1.6-0.1-2.1c-0.6-0.6-1.6-0.5-2.1,0.1c-0.6,0.6-0.5,1.5,0.1,2.1
			C40,75.5,40.9,75.5,41.5,74.9z M38.2,60.1c0.3-0.3,0.3-0.8,0-1c-0.3-0.3-0.8-0.3-1,0c-0.3,0.3-0.3,0.8,0,1
			C37.5,60.4,37.9,60.4,38.2,60.1z M37.3,63.9c0.3-0.4,0.3-0.9,0-1.3c-0.4-0.3-1-0.3-1.3,0c-0.3,0.4-0.3,0.9,0,1.3
			C36.4,64.3,36.9,64.3,37.3,63.9z M37.6,68c0.4-0.5,0.4-1.2,0-1.6c-0.5-0.4-1.2-0.4-1.6,0c-0.4,0.5-0.4,1.2,0,1.6
			C36.4,68.4,37.1,68.4,37.6,68z M39,71.7c0.5-0.5,0.5-1.4-0.1-1.8c-0.5-0.5-1.3-0.5-1.8,0.1c-0.5,0.5-0.5,1.3,0,1.8
			C37.7,72.2,38.5,72.2,39,71.7z M54.2,76.2c0.3,0.3,0.8,0.3,1,0c0.3-0.3,0.3-0.8,0-1c-0.3-0.3-0.8-0.3-1,0
			C53.9,75.5,53.9,75.9,54.2,76.2z M50.5,77.6c0.4,0.3,0.9,0.3,1.3,0c0.3-0.4,0.3-0.9,0-1.3c-0.4-0.3-0.9-0.3-1.3,0
			C50.1,76.7,50.1,77.3,50.5,77.6z M46.5,77.9c0.5,0.4,1.2,0.4,1.6,0c0.4-0.5,0.4-1.2,0-1.6c-0.5-0.4-1.2-0.4-1.6,0
			C46,76.8,46,77.5,46.5,77.9z M42.7,77c0.5,0.5,1.4,0.5,1.8-0.1c0.5-0.5,0.5-1.4-0.1-1.8c-0.5-0.5-1.4-0.5-1.8,0.1
			C42.1,75.6,42.2,76.5,42.7,77z M52.6,56.3c-0.2,0.6-0.8,1-1.4,0.8c-0.6-0.2-1-0.8-0.8-1.4c0.2-0.6,0.8-1,1.4-0.8
			C52.4,55.1,52.7,55.7,52.6,56.3z M41.4,59.1c-0.3-0.1-0.6,0.1-0.7,0.4c-0.1,0.3,0.1,0.6,0.4,0.7c0.3,0.1,0.6-0.1,0.7-0.4
			C41.8,59.5,41.7,59.2,41.4,59.1z M43.4,56.9c-0.4-0.1-0.8,0.1-0.9,0.5c-0.1,0.4,0.1,0.8,0.5,0.9c0.4,0.1,0.8-0.1,0.9-0.5
			C44,57.4,43.8,57,43.4,56.9z M46,55.3c-0.5-0.1-1,0.1-1.1,0.6c-0.1,0.5,0.1,1,0.6,1.1c0.5,0.1,1-0.1,1.1-0.6
			C46.7,55.9,46.5,55.4,46,55.3z M48.9,54.7c-0.5-0.2-1.1,0.2-1.3,0.7c-0.2,0.5,0.1,1.1,0.7,1.3c0.5,0.2,1.1-0.2,1.3-0.7
			C49.7,55.4,49.4,54.8,48.9,54.7z M40.1,61.9c-0.2-0.1-0.5,0.1-0.5,0.3c-0.1,0.2,0.1,0.5,0.3,0.5c0.2,0.1,0.5-0.1,0.5-0.3
			C40.4,62.2,40.3,61.9,40.1,61.9z M57.5,64.4c-0.1,0.3,0.1,0.6,0.4,0.7c0.3,0.1,0.6-0.1,0.7-0.4c0.1-0.3-0.1-0.6-0.4-0.7
			C57.9,64,57.6,64.1,57.5,64.4z M56.8,61.6c-0.1,0.4,0.1,0.8,0.5,0.9c0.4,0.1,0.8-0.1,0.9-0.5c0.1-0.4-0.1-0.8-0.5-0.9
			C57.4,61,57,61.2,56.8,61.6z M55.3,59c-0.1,0.5,0.1,1,0.6,1.1c0.5,0.1,1-0.1,1.1-0.6c0.1-0.5-0.1-1-0.6-1.1
			C55.9,58.2,55.4,58.5,55.3,59z M53.1,57c-0.2,0.5,0.2,1.1,0.7,1.3c0.5,0.2,1.1-0.2,1.3-0.7c0.2-0.5-0.1-1.1-0.7-1.3
			C53.8,56.1,53.2,56.4,53.1,57z M57.3,67.4c-0.1,0.2,0.1,0.5,0.3,0.5c0.2,0.1,0.5-0.1,0.5-0.3c0.1-0.2-0.1-0.5-0.3-0.5
			C57.6,67,57.3,67.1,57.3,67.4z M47.3,74.1c0.2-0.6-0.2-1.3-0.8-1.5c-0.6-0.2-1.3,0.2-1.4,0.8c-0.2,0.6,0.2,1.3,0.8,1.5
			C46.5,75,47.2,74.7,47.3,74.1z M40.1,65.3c0.1-0.3-0.1-0.6-0.4-0.7c-0.3-0.1-0.6,0.1-0.7,0.4c-0.1,0.3,0.1,0.6,0.4,0.7
			C39.7,65.8,40.1,65.6,40.1,65.3z M40.8,68.2c0.1-0.4-0.1-0.8-0.5-0.9c-0.4-0.1-0.8,0.1-0.9,0.5c-0.1,0.4,0.1,0.8,0.5,0.9
			C40.3,68.8,40.7,68.6,40.8,68.2z M42.4,70.8c0.1-0.5-0.1-1-0.6-1.1c-0.5-0.1-1,0.1-1.1,0.6c-0.1,0.5,0.1,1,0.6,1.1
			C41.7,71.5,42.2,71.2,42.4,70.8z M44.6,72.8c0.2-0.5-0.1-1.1-0.7-1.3c-0.5-0.2-1.1,0.1-1.3,0.7c-0.2,0.5,0.1,1.1,0.7,1.3
			C43.9,73.6,44.4,73.3,44.6,72.8z M56.3,70.6c0.3,0.1,0.6-0.1,0.7-0.4c0.1-0.3-0.1-0.6-0.4-0.7c-0.3-0.1-0.6,0.1-0.7,0.4
			C55.8,70.2,56,70.6,56.3,70.6z M54.3,72.9c0.4,0.1,0.8-0.1,0.9-0.5c0.1-0.4-0.1-0.8-0.5-0.9c-0.4-0.1-0.8,0.1-0.9,0.5
			C53.7,72.4,53.9,72.8,54.3,72.9z M51.7,74.4c0.5,0.1,1-0.1,1.1-0.6c0.1-0.5-0.1-1-0.6-1.1c-0.5-0.1-1,0.1-1.1,0.6
			C50.9,73.8,51.2,74.3,51.7,74.4z M48.8,75.1c0.5,0.2,1.1-0.1,1.3-0.7c0.2-0.5-0.1-1.1-0.7-1.3c-0.5-0.2-1.1,0.1-1.3,0.7
			C48,74.4,48.3,74.9,48.8,75.1z M46.4,58.5c0.2,0.4,0.1,1-0.4,1.2c-0.4,0.2-1,0.1-1.2-0.4c-0.2-0.4-0.1-1,0.4-1.2
			C45.6,57.9,46.2,58.1,46.4,58.5z M41.9,65.6c-0.3,0.1-0.4,0.5-0.2,0.7c0.1,0.3,0.5,0.4,0.7,0.2c0.3-0.1,0.4-0.5,0.2-0.7
			C42.5,65.6,42.2,65.5,41.9,65.6z M41.9,63.4c-0.3,0.2-0.4,0.5-0.2,0.8c0.2,0.3,0.5,0.4,0.8,0.3c0.3-0.2,0.4-0.5,0.3-0.8
			C42.5,63.4,42.2,63.3,41.9,63.4z M42.4,61.3c-0.3,0.2-0.5,0.6-0.3,1c0.2,0.3,0.6,0.5,1,0.3c0.3-0.2,0.5-0.6,0.3-1
			C43.2,61.3,42.8,61.1,42.4,61.3z M43.6,59.5c-0.4,0.2-0.5,0.7-0.3,1.1c0.2,0.4,0.7,0.5,1.1,0.3c0.4-0.2,0.5-0.7,0.3-1.1
			C44.5,59.4,44,59.3,43.6,59.5z M42.7,67.7c-0.2,0.1-0.3,0.4-0.2,0.6c0.1,0.2,0.4,0.3,0.6,0.2c0.2-0.1,0.3-0.4,0.2-0.6
			C43.2,67.6,42.9,67.6,42.7,67.7z M53,60.2c0.1,0.3,0.5,0.4,0.7,0.2c0.3-0.1,0.4-0.5,0.2-0.7c-0.1-0.3-0.5-0.4-0.7-0.2
			C53,59.7,52.9,60,53,60.2z M51.2,59.1c0.2,0.3,0.5,0.4,0.8,0.2c0.3-0.2,0.4-0.5,0.3-0.8c-0.2-0.3-0.5-0.4-0.8-0.3
			C51.1,58.4,51,58.8,51.2,59.1z M49.1,58.5c0.2,0.3,0.6,0.5,1,0.3c0.4-0.2,0.5-0.6,0.3-1c-0.2-0.3-0.6-0.5-1-0.3
			C49,57.7,48.9,58.2,49.1,58.5z M46.9,58.6c0.2,0.4,0.7,0.5,1.1,0.3c0.4-0.2,0.5-0.7,0.3-1.1c-0.2-0.4-0.7-0.5-1.1-0.3
			C46.8,57.7,46.7,58.2,46.9,58.6z M54.4,61.9c0.1,0.2,0.4,0.3,0.6,0.2c0.2-0.1,0.3-0.4,0.2-0.6c-0.1-0.2-0.4-0.3-0.6-0.2
			C54.3,61.4,54.2,61.7,54.4,61.9z M52.8,70.4c-0.2-0.4-0.8-0.6-1.2-0.4c-0.4,0.2-0.6,0.8-0.4,1.2c0.2,0.4,0.8,0.6,1.2,0.4
			C52.9,71.3,53.1,70.8,52.8,70.4z M44.6,69.5c-0.1-0.3-0.5-0.3-0.7-0.2c-0.3,0.1-0.4,0.5-0.2,0.7c0.1,0.3,0.5,0.4,0.7,0.2
			C44.7,70.1,44.8,69.7,44.6,69.5z M46.5,70.6c-0.2-0.3-0.5-0.4-0.8-0.2c-0.3,0.2-0.4,0.5-0.3,0.8c0.2,0.3,0.5,0.4,0.8,0.3
			C46.5,71.3,46.6,70.9,46.5,70.6z M48.6,71.2c-0.2-0.3-0.6-0.5-1-0.3c-0.3,0.2-0.5,0.6-0.3,1c0.2,0.3,0.6,0.5,1,0.3
			C48.6,72,48.8,71.5,48.6,71.2z M50.7,71.1c-0.2-0.4-0.7-0.5-1.1-0.3c-0.4,0.2-0.5,0.7-0.3,1.1c0.2,0.4,0.7,0.5,1.1,0.3
			C50.8,72,51,71.5,50.7,71.1z M55.7,64.1c0.3-0.1,0.4-0.5,0.2-0.7c-0.1-0.3-0.5-0.4-0.7-0.2c-0.3,0.1-0.4,0.5-0.2,0.7
			C55.1,64.2,55.5,64.3,55.7,64.1z M55.8,66.3c0.3-0.2,0.4-0.5,0.2-0.8c-0.2-0.3-0.5-0.4-0.8-0.3c-0.3,0.2-0.4,0.5-0.3,0.9
			C55.1,66.4,55.5,66.5,55.8,66.3z M55.2,68.4c0.4-0.2,0.5-0.6,0.3-1c-0.2-0.3-0.6-0.5-1-0.3c-0.3,0.2-0.5,0.6-0.3,1
			C54.5,68.5,54.9,68.6,55.2,68.4z M54.1,70.2c0.4-0.2,0.5-0.7,0.3-1.1c-0.2-0.4-0.7-0.5-1.1-0.3c-0.4,0.2-0.5,0.7-0.3,1.1
			C53.2,70.3,53.7,70.4,54.1,70.2z M69.6,67.2c-1.3,0-2.3-1-2.3-2.3c0-1.3,1-2.3,2.3-2.3c1.3,0,2.3,1,2.3,2.3
			C71.9,66.2,70.9,67.2,69.6,67.2z M60.5,47.1c0.1-0.7-0.3-1.4-1-1.5c-0.7-0.1-1.4,0.3-1.5,1c-0.1,0.7,0.3,1.4,1,1.5
			C59.6,48.3,60.3,47.8,60.5,47.1z M65.1,50.4c0.1-0.9-0.4-1.6-1.3-1.8c-0.8-0.1-1.6,0.4-1.8,1.3c-0.1,0.8,0.4,1.6,1.3,1.8
			C64.1,51.8,64.9,51.3,65.1,50.4z M68.8,54.7c0.1-1.1-0.7-2-1.7-2.1c-1.1-0.1-2,0.7-2.1,1.7c-0.1,1.1,0.7,2,1.7,2.1
			C67.7,56.5,68.6,55.7,68.8,54.7z M71,59.6c0.1-1.2-0.8-2.2-2-2.2c-1.2-0.1-2.2,0.8-2.2,2c-0.1,1.2,0.8,2.2,2,2.2
			C70,61.7,71,60.8,71,59.6z M49.8,44.1c0-0.5-0.4-0.9-0.9-0.9c-0.5,0-0.9,0.4-0.9,0.9c0,0.5,0.4,0.9,0.9,0.9
			C49.3,45,49.8,44.6,49.8,44.1z M59,81.6c-0.7,0.1-1.1,0.8-1,1.5c0.1,0.7,0.8,1.1,1.5,1c0.7-0.1,1.1-0.8,1-1.5
			C60.3,81.9,59.6,81.5,59,81.6z M63.3,78c-0.8,0.1-1.4,0.9-1.3,1.8c0.1,0.9,0.9,1.4,1.8,1.3c0.8-0.1,1.4-0.9,1.3-1.8
			C64.9,78.5,64.1,77.9,63.3,78z M66.6,73.3c-1.1,0.1-1.8,1.1-1.7,2.1c0.1,1.1,1.1,1.8,2.1,1.7c1.1-0.1,1.8-1.1,1.7-2.1
			C68.6,74,67.7,73.2,66.6,73.3z M68.8,68.1c-1.2,0.1-2.1,1.1-2,2.2c0.1,1.2,1.1,2.1,2.2,2c1.2-0.1,2.1-1.1,2-2.2
			C71,69,70,68.1,68.8,68.1z M48.8,84.7c-0.5,0-0.9,0.4-0.9,0.9c0,0.5,0.4,0.9,0.9,0.9c0.5,0,0.9-0.4,0.9-0.9
			C49.8,85.1,49.3,84.7,48.8,84.7z M28,67.2c1.3,0,2.3-1,2.3-2.3c0-1.3-1-2.3-2.3-2.3c-1.3,0-2.3,1-2.3,2.3
			C25.7,66.2,26.8,67.2,28,67.2z M38.7,48.1c0.7-0.1,1.1-0.8,1-1.5c-0.1-0.7-0.8-1.1-1.5-1c-0.7,0.1-1.1,0.8-1,1.5
			C37.3,47.8,38,48.3,38.7,48.1z M34.4,51.7c0.8-0.1,1.4-0.9,1.3-1.8c-0.1-0.9-0.9-1.4-1.8-1.3c-0.8,0.1-1.4,0.9-1.3,1.8
			C32.7,51.3,33.5,51.8,34.4,51.7z M31,56.4c1.1-0.1,1.8-1.1,1.7-2.1c-0.1-1.1-1.1-1.8-2.1-1.7c-1.1,0.1-1.8,1.1-1.7,2.1
			C29,55.7,30,56.5,31,56.4z M28.9,61.6c1.2-0.1,2.1-1.1,2-2.2c-0.1-1.2-1.1-2.1-2.2-2c-1.2,0.1-2.1,1.1-2,2.2
			C26.7,60.8,27.7,61.7,28.9,61.6z M37.2,82.6c-0.1,0.7,0.3,1.4,1,1.5c0.7,0.1,1.4-0.3,1.5-1c0.1-0.7-0.3-1.4-1-1.5
			C38,81.5,37.3,81.9,37.2,82.6z M32.6,79.3c-0.1,0.9,0.4,1.6,1.3,1.8c0.8,0.1,1.6-0.4,1.8-1.3c0.1-0.8-0.4-1.6-1.3-1.8
			C33.5,77.9,32.7,78.5,32.6,79.3z M28.9,75.1c-0.1,1.1,0.7,2,1.7,2.1c1.1,0.1,2-0.7,2.1-1.7c0.1-1.1-0.7-2-1.7-2.1
			C30,73.2,29,74,28.9,75.1z M26.6,70.1c-0.1,1.2,0.9,2.2,2,2.2c1.2,0.1,2.2-0.8,2.3-2c0.1-1.2-0.8-2.2-2-2.2
			C27.7,68.1,26.7,69,26.6,70.1z M53.9,84c-0.5,0.1-0.9,0.7-0.7,1.2c0.1,0.5,0.7,0.8,1.2,0.7c0.5-0.1,0.9-0.7,0.7-1.2
			C55,84.2,54.5,83.8,53.9,84z M43.7,84c-0.5-0.1-1.1,0.2-1.2,0.7c-0.1,0.5,0.2,1.1,0.7,1.2c0.5,0.1,1.1-0.2,1.2-0.7
			C44.6,84.7,44.2,84.1,43.7,84z M55.2,45c0.1-0.5-0.2-1.1-0.7-1.2c-0.5-0.1-1.1,0.2-1.2,0.7c-0.1,0.5,0.2,1.1,0.7,1.2
			C54.5,45.9,55,45.6,55.2,45z M44.4,44.5c-0.1-0.5-0.7-0.9-1.2-0.7c-0.5,0.1-0.9,0.7-0.7,1.2c0.1,0.5,0.7,0.9,1.2,0.7
			C44.2,45.6,44.6,45.1,44.4,44.5z M64.4,60.1c-0.9,0.4-2,0-2.4-1c-0.4-0.9,0-2,1-2.4c0.9-0.4,2,0,2.4,0.9
			C65.8,58.6,65.4,59.7,64.4,60.1z M51.7,48.5c-0.1-0.5-0.6-0.9-1.2-0.8c-0.5,0.1-0.9,0.6-0.8,1.2c0.1,0.5,0.6,0.9,1.2,0.8
			C51.5,49.6,51.8,49.1,51.7,48.5z M56,49.5c-0.2-0.7-0.8-1-1.5-0.9c-0.6,0.2-1,0.8-0.9,1.5c0.2,0.7,0.8,1,1.5,0.9
			C55.8,50.8,56.2,50.1,56,49.5z M60,51.4c-0.3-0.8-1.1-1.2-1.9-1c-0.8,0.2-1.2,1.1-1,1.9c0.2,0.8,1.1,1.2,1.9,1
			C59.8,53,60.2,52.2,60,51.4z M63.1,54.2c-0.3-0.9-1.3-1.3-2.1-1c-0.9,0.3-1.3,1.3-1,2.1c0.3,0.9,1.3,1.3,2.1,1
			C63,56,63.4,55.1,63.1,54.2z M43.1,49.7c-0.2-0.4-0.6-0.5-1-0.4c-0.4,0.2-0.5,0.6-0.4,1c0.2,0.4,0.6,0.5,1,0.4
			C43.1,50.5,43.2,50,43.1,49.7z M61.3,73.7c-0.5,0.3-0.6,0.9-0.2,1.4c0.3,0.5,0.9,0.6,1.4,0.2c0.5-0.3,0.6-0.9,0.2-1.4
			C62.3,73.5,61.7,73.4,61.3,73.7z M63.3,69.8c-0.6,0.4-0.7,1.1-0.4,1.7c0.4,0.6,1.1,0.7,1.7,0.4c0.6-0.4,0.7-1.1,0.4-1.7
			C64.6,69.6,63.8,69.5,63.3,69.8z M64.2,65.4c-0.7,0.4-1,1.3-0.6,2.1c0.4,0.7,1.3,1,2.1,0.6c0.7-0.4,1-1.3,0.6-2.1
			C65.9,65.3,64.9,65,64.2,65.4z M64.1,61c-0.8,0.4-1.2,1.4-0.8,2.2c0.4,0.8,1.4,1.2,2.2,0.8c0.8-0.4,1.2-1.4,0.8-2.2
			C66,61,65,60.6,64.1,61z M55,79.1c-0.4,0.2-0.5,0.6-0.4,1c0.2,0.4,0.6,0.5,1,0.4c0.4-0.2,0.5-0.6,0.4-1
			C55.8,79.1,55.3,78.9,55,79.1z M34.6,73c0.9-0.4,1.3-1.5,0.9-2.4c-0.4-0.9-1.5-1.3-2.4-0.9c-0.9,0.4-1.3,1.5-1,2.4
			C32.7,72.9,33.7,73.4,34.6,73z M36.4,56c0.5-0.3,0.6-0.9,0.2-1.4c-0.3-0.5-0.9-0.6-1.4-0.2c-0.5,0.3-0.6,0.9-0.2,1.4
			C35.3,56.2,35.9,56.3,36.4,56z M34.4,59.9c0.6-0.4,0.7-1.1,0.4-1.7c-0.4-0.6-1.1-0.7-1.7-0.4c-0.6,0.4-0.7,1.1-0.4,1.7
			C33.1,60.1,33.8,60.3,34.4,59.9z M33.4,64.3c0.7-0.4,1-1.3,0.6-2.1c-0.4-0.7-1.3-1-2.1-0.6c-0.7,0.4-1,1.3-0.6,2.1
			C31.8,64.5,32.7,64.7,33.4,64.3z M33.5,68.7c0.8-0.4,1.2-1.4,0.8-2.2c-0.4-0.8-1.4-1.2-2.2-0.8c-0.8,0.4-1.2,1.4-0.8,2.2
			C31.7,68.8,32.7,69.1,33.5,68.7z M46,81.2c0.1,0.5,0.6,0.9,1.2,0.8c0.5-0.1,0.9-0.6,0.8-1.2c-0.1-0.5-0.6-0.9-1.2-0.8
			C46.2,80.1,45.8,80.6,46,81.2z M41.7,80.3c0.2,0.7,0.8,1,1.5,0.9c0.6-0.2,1-0.8,0.9-1.5c-0.2-0.7-0.8-1-1.5-0.9
			C41.9,78.9,41.5,79.6,41.7,80.3z M37.7,78.3c0.3,0.8,1.1,1.2,1.9,1c0.8-0.2,1.2-1.1,1-1.9c-0.2-0.8-1.1-1.2-1.9-1
			C37.9,76.7,37.4,77.5,37.7,78.3z M34.5,75.5c0.3,0.9,1.3,1.3,2.1,1c0.9-0.3,1.3-1.3,1-2.1c-0.3-0.9-1.3-1.3-2.1-1
			C34.6,73.7,34.2,74.7,34.5,75.5z M58.4,77c-0.3,0.3-0.4,0.8-0.1,1.1c0.3,0.3,0.8,0.4,1.1,0.1c0.3-0.3,0.4-0.8,0.1-1.1
			C59.2,76.8,58.7,76.7,58.4,77z M51.1,80.2c-0.4,0.1-0.7,0.5-0.7,0.9c0.1,0.4,0.5,0.7,0.9,0.7c0.4-0.1,0.7-0.5,0.7-0.9
			C51.9,80.4,51.5,80.1,51.1,80.2z M47.3,48.7c-0.1-0.4-0.5-0.7-0.9-0.7c-0.4,0.1-0.7,0.5-0.7,0.9c0.1,0.4,0.5,0.7,0.9,0.7
			C47,49.5,47.3,49.1,47.3,48.7z M39.4,51.7c-0.3-0.3-0.8-0.4-1.1-0.1c-0.3,0.3-0.4,0.8-0.1,1.1c0.3,0.3,0.8,0.4,1.1,0.1
			C39.6,52.5,39.6,52,39.4,51.7z"/>
	</g>
</g>
<g id="Layer_2">
</g>
</svg>
