<?xml version="1.0" encoding="utf-8"?>
<!-- Generator: Adobe Illustrator 24.2.3, SVG Export Plug-In . SVG Version: 6.00 Build 0)  -->
<svg version="1.1" id="Layer_1" xmlns="http://www.w3.org/2000/svg" xmlns:xlink="http://www.w3.org/1999/xlink" x="0px" y="0px"
	 viewBox="0 0 333.1 185.5" style="enable-background:new 0 0 333.1 185.5;" xml:space="preserve">
<style type="text/css">
	.st0{fill:#76A2DB;}
	.st1{fill:#FFFFFF;}
	.st2{fill:#F2B334;}
	.st3{fill:#E23E2F;}
	.st4{fill:#003088;}
</style>
<g>
	<g>
		<rect x="180" y="41.6" class="st0" width="58.5" height="60.6"/>
		<path class="st1" d="M233.4,71.5c0,13.3-10.8,24.2-24.2,24.2S185,84.9,185,71.5c0-13.3,10.8-24.2,24.2-24.2
			C222.6,47.4,233.4,58.2,233.4,71.5"/>
		<path class="st2" d="M196.7,76.3c0.3-0.1,0.8-0.4,1.1-0.5s0.3-0.3,0.2-0.5c-0.4-1.2-0.6-2.4-0.6-3.7c0-6.6,5.3-11.9,11.9-11.9
			c6.5,0,11.9,5.3,11.9,11.9c0,1.7-0.4,3.3-1,4.7c-0.1,0.1-0.1,0.3,0.1,0.4c0.2,0.1,0.9,0.4,1.1,0.5c0.2,0.1,0.3,0,0.5-0.2
			c0.7-1.7,1.1-3.5,1.1-5.4c0-7.6-6.1-13.7-13.7-13.7c-7.6,0-13.7,6.2-13.7,13.7c0,1.6,0.3,3,0.7,4.4
			C196.3,76.2,196.4,76.4,196.7,76.3"/>
		<path class="st2" d="M193.2,77.9c0.3-0.1,1.3-0.6,1.5-0.7c0.3-0.1,0.2-0.3,0.2-0.4c-0.6-1.6-0.9-3.3-0.9-5.1
			c0-8.4,6.8-15.2,15.2-15.2s15.2,6.8,15.2,15.2c0,2.2-0.4,4.2-1.3,6.1c0,0.1-0.1,0.3,0.1,0.4c0.2,0.1,1.3,0.6,1.5,0.7
			s0.4,0.1,0.5-0.2c0.9-2.1,1.4-4.5,1.4-7c0-9.7-7.9-17.6-17.5-17.6c-9.7,0-17.5,7.9-17.5,17.6c0,2.1,0.4,4.2,1.1,6.1
			C192.8,77.8,192.9,78,193.2,77.9"/>
		<path class="st2" d="M188.5,80.1c0.3-0.2,2.4-1.1,2.8-1.3c0.4-0.2,0.2-0.4,0.2-0.6c-0.8-2.1-1.2-4.3-1.2-6.6c0-10.5,8.5-19,19-19
			s19,8.5,19,19c0,2.7-0.5,5.2-1.5,7.5c-0.1,0.1-0.1,0.4,0.2,0.6c0.3,0.1,2.3,1,2.6,1.1s0.5,0.1,0.7-0.3c1.2-2.7,1.8-5.7,1.8-8.9
			c0-12.6-10.2-22.8-22.8-22.8S186.5,59,186.5,71.6c0,2.9,0.5,5.7,1.5,8.2C188,79.9,188.1,80.2,188.5,80.1"/>
		<path class="st3" d="M209.2,66.6c1.3,0,2.4-1.1,2.4-2.4c0-1.4-1.1-2.4-2.4-2.4c-1.4,0-2.4,1.1-2.4,2.4
			C206.8,65.6,207.9,66.6,209.2,66.6"/>
		<path class="st3" d="M210.1,79.4c0.5,0,0.9-0.4,0.9-0.9v-5.4c0-0.7,0.5-1.5,1-2.1l5-5c0.3-0.3,0.3-0.9,0-1.2l-0.9-0.9
			c-0.3-0.3-0.9-0.3-1.2,0l-4.6,4.6c-0.3,0.3-0.5,0.5-1.1,0.5s-0.8-0.2-1.1-0.5l-4.6-4.6c-0.3-0.3-0.9-0.3-1.2,0l-0.9,0.9
			c-0.3,0.3-0.3,0.9,0,1.2l5,5c0.5,0.5,1,1.4,1,2.1v5.4c0,0.5,0.4,0.9,0.9,0.9H210.1z"/>
		<path class="st4" d="M226,81.3c-0.9,0.3-2.4,1.9-3.2,2.5h-0.2c0.3-0.3,1.4-1.7,1.6-2.2c0.9-1.4-0.8-2.8-2.6-1.8
			c-0.7,0.4-1.8,1.6-2.4,2H219c0.2-0.2,1.3-1.6,1.5-2c0.8-1.2-0.9-2.3-2.3-1.4c-1,0.6-1.8,1.4-2.7,2.1h-0.1c0.2-0.2,0.8-0.9,1-1.1
			c0.8-0.9-0.4-2-1.6-1.4c-1.2,0.6-3,2.4-4.9,3.6c0.9,0.5,2.5,0.6,4.9,1.6c2.5,1.1,3.3,3.5,1.7,5.5c-1.5,1.8-3.8,1.2-5.8,0.6
			c-2.3-0.7-3.1-1.5-5.8-2.4c-1.8-0.6-2.5-0.6-2.5-1.1c0-0.6,1.6-0.2,3,0.3c4,1.5,9.4,4.8,10.7,1.2c1-2.8-3.6-4-5.4-4.4
			c-2.5-0.5-4.2-2.3-6.3-3.4c-3.2-1.7-5.7-1.8-7.6-1.5c-2,0.4-4.8,2-6.5,3c-1.2,0.7-1.1,1.8,0.1,3.4c4.1,5.9,10.9,9.7,18.6,9.7
			c8.2,0,15.3-4.3,19.4-10.8C229.5,82.1,228.1,80.6,226,81.3"/>
		<rect x="94.6" y="41.6" class="st4" width="85.4" height="60.6"/>
		<path class="st1" d="M230.4,96.2v2.3h-0.5v-2.3H229v-0.5h2.2v0.5H230.4z M234.4,98.5v-2.2h-0.1l-0.8,2.2h-0.3l-0.8-2.2l0,0v2.2
			h-0.5v-2.7h0.8l0.8,2l0.8-2h0.8v2.7H234.4z"/>
		<path class="st1" d="M160.7,97c0,0.7,2.3,1.4,3.6,1.4c1.2,0,2.9-0.5,3.8-2.6c0.9-2.3,4.8-15.5,4.8-15.5h0.4c0.9-0.2,1.2-0.7,1.2-2
			c0-0.5-0.1-0.5-0.4-0.5h-3.2c-0.3,0-0.3,0.1-0.4,0.4l-2.6,10.2l-2.7-10.2c-0.1-0.3-0.1-0.3-0.4-0.4h-3.2c-0.4,0-0.5,0-0.5,0.5
			c0,1.3,0.3,1.9,1.2,2h0.4c0,0,2.5,8.9,3.9,12.6l-0.2,0.7c-0.4,1.4-1.2,2-2.3,2c-0.3,0-1.8-0.2-1.8-0.2c-0.9-0.1-1.1,0.3-1.2,0.6
			C160.8,96.4,160.7,96.9,160.7,97"/>
		<path class="st1" d="M149.9,72.8h-3.8c-0.3,0-0.3,0-0.4,0.4l-2.1,13.2L141,73.3c-0.1-0.4-0.1-0.4-0.5-0.4h-1.7
			c-0.6,0-0.7,0.1-0.7,0.4l-2.7,13.1l-2-13.2c0-0.3-0.1-0.4-0.4-0.4h-3.9c-0.4,0-0.5,0-0.5,0.5c0,1.5,0.3,2,1.4,2.1h0.4l3,16.2
			c0.1,0.4,0.1,0.5,0.5,0.5h2.6c0.4,0,0.4,0,0.5-0.5l2.5-12.6l2.1,12.6c0.1,0.4,0.1,0.4,0.5,0.4h2.6c0.3,0,0.4-0.1,0.5-0.5l3.3-16.2
			h0.4c1-0.1,1.4-0.7,1.4-2.1C150.3,72.9,150.3,72.8,149.9,72.8"/>
		<path class="st1" d="M156.4,88.9c-0.4,0.4-1.1,1.2-2.1,1.2c-1.1,0-1.9-0.9-1.9-2.1c0-2.7,3.1-2.5,4-2.4V88.9z M159.8,89.6
			c-0.1-0.6-0.3-1.3-0.3-2.6v-5.1c0-3.2-1.4-4.6-4.6-4.6c-2.2,0-4.5,1-4.5,1.6c0,0.1,0.1,0.5,0.2,1c0.1,0.2,0.2,0.6,1.1,0.6
			c0.4,0,2-0.3,2.7-0.3c1.8,0,2,1,2,2.3v1c-2.2,0-7.1,0-7.1,4.9c0,2.7,1.5,4.4,4,4.4c1.9,0,2.8-1,3.3-1.6l0.2-0.2l0.1,0.4
			c0.1,0.6,0.2,1,0.7,1h3.3c0.4,0,0.5,0,0.5-0.5C161.3,90.2,161,89.6,159.8,89.6"/>
		<path class="st1" d="M136.9,65.7h-0.3V54.2c0-0.3,0-0.3-0.3-0.3h-4.5c-0.4,0-0.5,0-0.5,0.5c0,1.6,0.4,2,1.8,2h0.3v9.3h-0.3
			c-1.3,0-1.8,0.5-1.8,2c0,0.5,0.1,0.5,0.5,0.5h6.5c0.4,0,0.4,0,0.4-0.5C138.7,66.2,138.2,65.7,136.9,65.7"/>
		<path class="st1" d="M134.9,48.4c-1.1,0-1.9,0.9-1.9,2.1c0,1.1,0.9,2.1,1.9,2.1c1.1,0,1.9-0.9,1.9-2.1
			C136.8,49.3,136,48.4,134.9,48.4"/>
		<path class="st1" d="M113.4,52L113.4,52c1.5,0,1.9-0.5,1.9-2.1c0-0.5-0.1-0.5-0.5-0.5h-6.3c-0.4,0-0.4,0.1-0.4,0.3v0.2
			c0,1.6,0.4,2.1,1.8,2.1h0.1v9.4c0,1.8,0,4.3-2.9,4.3c-2.7,0-2.9-1.9-2.9-4.3V52h0.1c1.4,0,1.8-0.5,1.8-2.1v-0.3
			c0-0.2-0.1-0.2-0.4-0.2h-6.3c-0.4,0-0.5,0-0.5,0.5c0,1.6,0.4,2.1,1.8,2.1h0.1v9.4c0,5.1,1.9,7.3,6.3,7.3s6.3-2.2,6.3-7.3V52z"/>
		<path class="st1" d="M127.9,65.7v-7.8c0-3.2-1-4.6-3.4-4.6c-2.1,0-3.2,1.2-4.1,2.1c-0.1-0.3-0.1-0.6-0.1-0.6c-0.1-0.6-0.3-1-0.7-1
			h-3.5c-0.4,0-0.4,0-0.4,0.5c0,1.5,0.4,2,1.6,2c0.2,0.6,0.3,1.1,0.3,2.6v6.7c-1.3,0-1.7,0.5-1.7,2c0,0.5,0.1,0.5,0.5,0.5h4.2
			c0.3,0,0.3,0,0.3-0.3V57.4c0.4-0.4,1.2-1.3,2.4-1.3c1.6,0,1.6,1.8,1.6,2.6v9.1c0,0.3,0,0.3,0.3,0.3h4.2c0.4,0,0.4,0,0.4-0.5
			C129.7,66.2,129.2,65.7,127.9,65.7"/>
		<path class="st1" d="M144.7,68.7c1.9,0,3.4-0.5,3.4-0.9c0-0.1-0.1-0.6-0.2-0.9c-0.3-1.1-0.4-1.5-2.3-1.2c-0.3,0-0.5,0-0.6-0.2
			c-0.4-0.4-0.4-1.2-0.4-1.9v-7.2h1.8c1.4,0,1.8-0.5,1.8-2c0-0.5-0.1-0.5-0.5-0.5h-3.1v-4c0-0.4,0-0.4-0.2-0.4
			c-0.1,0-0.8,0.1-1.1,0.1c-0.9,0.2-1.9,0.9-1.9,2.5v1.8h-1.8c-0.4,0-0.4,0-0.4,0.5c0,1.6,0.4,2,1.8,2h0.5v6.7
			C141.4,65.9,141.4,68.7,144.7,68.7"/>
		<path class="st1" d="M152.6,59.4v-0.3c0.1-1,0.3-3.3,2.3-3.3s2,2.3,2,3.5L152.6,59.4L152.6,59.4z M160.2,61.3c0-5.3-1.8-8-5.2-8
			s-5.7,3.2-5.7,7.8c0,6.2,3.2,7.5,5.8,7.5c2.2,0,4.7-1,4.7-1.6c0-0.1-0.1-0.6-0.3-1c-0.1-0.3-0.3-0.6-1.2-0.6
			c-0.7,0-1.8,0.4-2.9,0.4c-2,0-3-1.2-3-3.9h7.2C160.1,61.9,160.2,61.8,160.2,61.3"/>
		<path class="st1" d="M167.3,66c-1.9,0-2.3-1.8-2.3-4.9c0-3.3,0.4-5,2.5-5c0.8,0,1.4,0.2,2.1,0.6v8.2C169.1,65.4,168.6,66,167.3,66
			 M173,65.7c-0.2-0.6-0.3-1.2-0.3-2.6V48.8c0-0.3,0-0.3-0.3-0.3h-4.2c-0.4,0-0.5,0-0.5,0.5c0,1.5,0.4,2,1.7,2h0.1v3.3l-0.3-0.2
			c-0.5-0.3-1.1-0.8-2.5-0.8c-3.3,0-5,2.9-5,8.3c0,4.6,1.6,7.1,4.5,7.1c2.3,0,3.8-1.7,3.8-1.7l0.2,0.6c0.1,0.5,0.2,0.5,0.5,0.5h3.7
			c0.4,0,0.5,0,0.5-0.5C174.9,66.2,174.4,65.7,173,65.7"/>
	</g>
	<g>
		<path class="st4" d="M120.9,111.1c-0.1-0.4-0.4-1.6-0.4-1.6s-0.3,1.1-0.4,1.8c-0.2,0.7-0.3,1.1-0.5,1.7h1.8
			C121.4,112.9,121.1,112,120.9,111.1 M122.5,116.6l-0.6-2.2h-2.7l-0.6,2.2h-1.9l3-9.2h2l2.9,9.2H122.5z"/>
		<path class="st4" d="M127,116.8c-0.8,0-1.4-0.4-1.6-0.9c-0.1-0.3-0.2-0.6-0.2-1.5v-5c0-0.9,0-1.4-0.1-2l1.8-0.4
			c0.1,0.4,0.1,0.8,0.1,1.8v5.3c0,1.2,0,1.3,0.1,1.5c0.1,0.1,0.2,0.2,0.4,0.2c0.1,0,0.1,0,0.2,0l0.3,1.1
			C127.8,116.7,127.4,116.8,127,116.8"/>
		<path class="st4" d="M132.4,111.4c-0.2-0.2-0.4-0.4-0.8-0.4c-0.4,0-0.8,0.3-0.9,0.7c-0.1,0.4-0.2,0.8-0.2,1.5
			c0,0.8,0.1,1.4,0.2,1.7c0.2,0.4,0.6,0.6,0.9,0.6c0.8,0,1.1-0.7,1.1-2.3C132.7,112.3,132.6,111.7,132.4,111.4 M133.8,115.9
			c-0.5,0.6-1.2,0.9-2.2,0.9c-1.8,0-3-1.4-3-3.5s1.2-3.5,3-3.5c1,0,1.7,0.3,2.3,1c0.5,0.6,0.8,1.4,0.8,2.5
			C134.6,114.4,134.4,115.2,133.8,115.9"/>
		<path class="st4" d="M139.9,116.6v-4.5c0-0.7-0.2-0.9-0.7-0.9c-0.4,0-1,0.3-1.4,0.6v4.9H136v-7.8c0-0.6-0.1-1.3-0.1-1.5l1.8-0.4
			c0.1,0.4,0.1,1,0.1,1.6v1.3c0,0.2,0,0.5,0,0.6c0.5-0.4,1.2-0.7,1.9-0.7c0.9,0,1.5,0.4,1.8,1c0.1,0.4,0.2,0.6,0.2,1.3v4.7h-1.8
			V116.6z"/>
		<path class="st4" d="M146.4,113.7c-1.2,0-1.7,0.2-1.7,1c0,0.5,0.3,0.9,0.8,0.9c0.3,0,0.7-0.2,0.9-0.5V113.7L146.4,113.7z
			 M147.9,117c-0.4-0.2-0.8-0.5-1-0.8c-0.1,0.1-0.3,0.3-0.4,0.4c-0.3,0.2-0.8,0.4-1.4,0.4c-1.5,0-2.3-0.8-2.3-2.1
			c0-1.6,1.1-2.3,3.3-2.3c0.1,0,0.2,0,0.4,0v-0.3c0-0.8-0.1-1-0.8-1c-0.6,0-1.2,0.3-2,0.8l-0.8-1.3c0.4-0.2,0.6-0.4,1.1-0.6
			c0.7-0.3,1.2-0.4,1.8-0.4c1.1,0,1.9,0.4,2.2,1.2c0.1,0.3,0.1,0.5,0.1,1.2v2.3c0,0.7,0,1.1,0.6,1.5L147.9,117z"/>
		<path class="st4" d="M159.5,115.1c-0.2,0.7-1.1,1.7-3.1,1.7c-1.4,0-2.4-0.4-2.9-1.2c-0.3-0.5-0.4-0.8-0.4-1.7v-6.4h1.9v6
			c0,0.6,0.1,0.9,0.2,1.1c0.2,0.4,0.6,0.6,1.3,0.6c0.8,0,1.3-0.4,1.4-1.1c0-0.2,0-0.3,0-0.8v-5.9h1.9v6.2
			C159.7,114.5,159.7,114.7,159.5,115.1"/>
		<path class="st4" d="M165.1,116.6v-4.4c0-0.8-0.1-1-0.6-1c-0.4,0-0.8,0.2-1.2,0.6v4.8h-1.8v-4.9c0-0.6-0.1-1.1-0.2-1.6l1.6-0.4
			c0.2,0.3,0.3,0.6,0.3,0.8c0.3-0.2,0.5-0.3,0.8-0.5c0.4-0.2,0.8-0.3,1.2-0.3c0.8,0,1.4,0.4,1.6,1c0.1,0.3,0.1,0.5,0.1,1v4.9H165.1z
			"/>
		<path class="st4" d="M168.7,116.6V110l1.8-0.3v6.9H168.7z M169.6,109.1c-0.6,0-1.1-0.5-1.1-1.1s0.5-1.1,1.1-1.1s1.1,0.5,1.1,1.1
			C170.7,108.6,170.2,109.1,169.6,109.1"/>
		<path class="st4" d="M174.3,116.8c-0.9,0-1.6-0.4-1.8-1c-0.1-0.3-0.1-0.4-0.1-1v-3.7h-0.7v-1.2h0.7c0-0.7,0-1.1,0.1-1.6l1.8-0.5
			c-0.1,0.6-0.1,1.4-0.1,2h1.6l-0.5,1.2h-1.1v3.4c0,0.9,0.2,1.1,0.8,1.1c0.2,0,0.3,0,0.6-0.1l0.2,1.1
			C175.2,116.7,174.7,116.8,174.3,116.8"/>
		<path class="st4" d="M180.2,112.4c0-0.5-0.1-0.8-0.2-1c-0.2-0.3-0.4-0.4-0.8-0.4c-0.7,0-1.1,0.5-1.1,1.5l0,0L180.2,112.4
			L180.2,112.4z M178.1,113.8L178.1,113.8c0,1.1,0.5,1.7,1.4,1.7c0.6,0,1.2-0.2,1.7-0.7l0.7,1.1c-0.8,0.6-1.6,0.9-2.6,0.9
			c-1.9,0-3.2-1.4-3.2-3.5c0-1.2,0.2-2,0.8-2.7c0.6-0.6,1.2-0.9,2.1-0.9c0.8,0,1.5,0.3,2,0.7c0.6,0.6,0.9,1.5,0.9,3v0.4H178.1z"/>
		<path class="st4" d="M186.9,111.7c-0.3-0.3-0.6-0.4-1-0.4c-0.8,0-1.1,0.7-1.1,2.2s0.3,1.9,1.2,1.9c0.3,0,0.7-0.2,0.9-0.4
			L186.9,111.7L186.9,111.7z M187.3,116.6c-0.1-0.1-0.1-0.2-0.1-0.4c-0.4,0.4-1,0.6-1.6,0.6c-1.7,0-2.8-1.3-2.8-3.4s1.2-3.6,2.9-3.6
			c0.5,0,0.9,0.1,1.2,0.4c0-0.1-0.1-0.6-0.1-1v-2.3l1.8,0.3v7c0,1.7,0.1,2.2,0.2,2.5L187.3,116.6L187.3,116.6z"/>
		<path class="st4" d="M201.3,116.7h-2l-0.8-3.7c-0.3-1.1-0.4-2.3-0.4-2.6c0,0.2-0.2,1.4-0.4,2.6l-0.8,3.8h-2.1l-2.2-9.3h2l0.8,3.6
			c0.4,1.7,0.5,3,0.5,3c0-0.4,0.2-1.7,0.5-2.9l0.8-3.7h2l0.8,4.1c0.2,0.9,0.4,2.4,0.4,2.4c0-0.3,0.3-2.2,0.5-3.1l0.8-3.5h1.9
			L201.3,116.7z"/>
		<path class="st4" d="M207.1,113.7c-1.2,0-1.7,0.2-1.7,1c0,0.5,0.3,0.9,0.8,0.9c0.3,0,0.7-0.2,0.9-0.5V113.7L207.1,113.7z
			 M208.7,117c-0.4-0.2-0.8-0.5-1-0.8c-0.1,0.1-0.3,0.3-0.4,0.4c-0.3,0.2-0.8,0.4-1.4,0.4c-1.5,0-2.3-0.8-2.3-2.1
			c0-1.6,1.1-2.3,3.3-2.3c0.1,0,0.3,0,0.4,0v-0.3c0-0.8-0.1-1-0.8-1c-0.6,0-1.2,0.3-2,0.8l-0.8-1.3c0.4-0.2,0.6-0.4,1.1-0.6
			c0.7-0.3,1.2-0.4,1.8-0.4c1.1,0,1.9,0.4,2.2,1.2c0.1,0.3,0.1,0.5,0.1,1.2v2.3c0,0.7,0,1.1,0.6,1.5L208.7,117z"/>
		<path class="st4" d="M214,116.7c-0.5,1.3-0.8,1.9-1.3,2.2c-0.4,0.3-1,0.5-1.6,0.6l-0.6-1.2c0.4-0.1,0.8-0.3,1.1-0.4
			c0.2-0.1,0.4-0.3,0.5-0.6c0.2-0.3,0.2-0.4,0.4-0.8H212c-0.2-0.6-0.6-1.7-0.6-1.9l-1.6-4.8l1.8-0.2l1.2,4c0.1,0.4,0.3,1.3,0.4,1.4
			c0,0,0.1-0.8,0.2-1.1c0.1-0.2,0.2-0.6,0.3-0.9l1-3.2h1.9L214,116.7z"/>
	</g>
	<g>
		<path class="st4" d="M95.7,143.7v-14.2h3.2c0.8,0,1.6,0.2,2.3,0.7c0.6,0.4,1,1,1.2,1.8c0.1,0.4,0.2,0.9,0.2,1.5
			c0,1-0.3,1.7-0.8,2.3c-0.2,0.2-0.5,0.4-0.7,0.6c0.5,0.2,0.9,0.5,1.2,1.1c0.2,0.4,0.4,0.8,0.5,1.4c0.1,0.3,0.1,0.6,0.1,1
			c0,0.9-0.2,1.7-0.5,2.3c-0.3,0.5-0.6,0.9-1.1,1.2s-1.1,0.5-1.6,0.5h-4V143.7z M98,135.3h0.9c0.7,0,1.1-0.3,1.3-1
			c0.1-0.2,0.1-0.5,0.1-0.9c0-0.6-0.1-1-0.4-1.3s-0.6-0.4-1-0.4H98V135.3z M98,141.6h0.9c0.7,0,1.2-0.4,1.5-1.1
			c0.1-0.3,0.1-0.6,0.1-0.9c0-0.8-0.1-1.4-0.5-1.7c-0.3-0.3-0.7-0.5-1.2-0.5H98V141.6z"/>
		<path class="st4" d="M105.1,143.7v-14.2h6.1v2.2h-4v3.9h2.9v2.2h-2.9v3.9h4v2.2h-6.1V143.7z"/>
		<path class="st4" d="M120.3,140.2c0,1-0.2,1.8-0.8,2.5c-0.3,0.5-0.8,0.8-1.5,1c-0.3,0.1-0.7,0.2-1.2,0.2c-0.8,0-1.5-0.2-2.1-0.6
			c-0.5-0.3-0.8-0.8-1.1-1.4c-0.3-0.6-0.4-1.3-0.5-2l2-0.1c0.1,0.8,0.3,1.4,0.7,1.8c0.3,0.3,0.6,0.4,0.9,0.4c0.5,0,0.8-0.2,1.1-0.7
			c0.1-0.2,0.2-0.5,0.2-0.9c0-0.6-0.3-1.2-0.8-1.8c-0.4-0.4-1.1-1-1.9-1.8c-0.7-0.7-1.2-1.3-1.5-1.9c-0.3-0.6-0.5-1.3-0.5-2
			c0-1.3,0.4-2.3,1.3-2.9c0.5-0.4,1.2-0.6,2-0.6s1.4,0.2,2,0.5c0.4,0.3,0.8,0.6,1,1.1c0.3,0.5,0.4,1,0.5,1.6L118,133
			c-0.1-0.6-0.2-1-0.5-1.4c-0.2-0.2-0.5-0.3-0.8-0.3c-0.4,0-0.7,0.2-0.9,0.5c-0.2,0.3-0.2,0.6-0.2,1c0,0.6,0.3,1.3,0.8,2
			c0.2,0.3,0.5,0.6,1,0.9c0.5,0.4,0.8,0.7,1,0.9c0.5,0.5,0.9,1.1,1.2,1.6c0.1,0.2,0.2,0.5,0.3,0.7
			C120.2,139.3,120.3,139.8,120.3,140.2z"/>
		<path class="st4" d="M124.7,131.6h-2.3v-2.2h6.7v2.2h-2.3v12.1h-2.1C124.7,143.7,124.7,131.6,124.7,131.6z"/>
		<path class="st4" d="M135.9,129.5l2.8,9.6v-9.6h2.1v14.2h-2.3l-2.9-9.1v9.1h-2.1v-14.2H135.9z"/>
		<path class="st4" d="M143.1,143.7v-14.2h6.1v2.2h-4v3.9h2.9v2.2h-2.9v3.9h4v2.2h-6.1V143.7z"/>
		<path class="st4" d="M160.2,129.5h2.2l-2.2,14.2h-2l-1.2-7.8l-1.1,7.8h-2.1l-2.4-14.2h2.2l1.1,7.6l1-7.6h2.2l1.1,7.6L160.2,129.5z
			"/>
		<path class="st4" d="M170.2,143.9c-0.9,0-1.7-0.3-2.4-1s-1-1.5-1-2.4v-7.8c0-0.9,0.3-1.7,1-2.4s1.5-1,2.4-1s1.7,0.3,2.4,1
			s1,1.5,1,2.4v1.6h-2.2v-1.7c0-0.3-0.1-0.6-0.4-0.9c-0.2-0.2-0.5-0.4-0.9-0.4c-0.3,0-0.6,0.1-0.9,0.4c-0.2,0.2-0.4,0.5-0.4,0.9v7.8
			c0,0.3,0.1,0.6,0.4,0.9c0.2,0.2,0.5,0.4,0.9,0.4c0.3,0,0.6-0.1,0.9-0.4c0.2-0.2,0.4-0.5,0.4-0.9v-2h2.2v2c0,0.9-0.3,1.7-1,2.4
			S171.1,143.9,170.2,143.9z"/>
		<path class="st4" d="M178.3,140.4l-0.5,3.3h-2.2l2.4-14.2h2.9l2.4,14.2H181l-0.5-3.3H178.3z M179.4,132.7l-0.8,5.6h1.6
			L179.4,132.7z"/>
		<path class="st4" d="M187.6,143.7h-2.1v-14.2h3.1l2,10.2l1.9-10.2h3v14.2h-2.1v-8.9l-1.9,8.9h-1.7l-2.1-8.9L187.6,143.7
			L187.6,143.7z"/>
		<path class="st4" d="M201,129.5c1,0,1.9,0.3,2.5,1c0.6,0.6,0.9,1.4,0.9,2.4v2.1c0,0.9-0.3,1.7-1,2.4s-1.4,1-2.4,1h-1.2v5.4h-2.1
			v-14.2L201,129.5L201,129.5z M202.3,132.9c0-0.4-0.1-0.7-0.3-0.9s-0.5-0.3-0.9-0.3h-1.3v4.5h1.3c0.3,0,0.6-0.1,0.9-0.4
			c0.2-0.2,0.4-0.5,0.4-0.9L202.3,132.9L202.3,132.9z"/>
		<path class="st4" d="M208.7,140.4l-0.5,3.3H206l2.4-14.2h2.9l2.4,14.2h-2.3l-0.5-3.3H208.7z M209.8,132.7l-0.8,5.6h1.6
			L209.8,132.7z"/>
		<path class="st4" d="M218,143.7h-2.1v-14.2h2.1V143.7z"/>
		<path class="st4" d="M223.6,143.9c-0.9,0-1.7-0.3-2.4-1s-1-1.5-1-2.4v-7.8c0-0.9,0.3-1.7,1-2.4s1.5-1,2.4-1s1.7,0.3,2.4,1
			s1,1.5,1,2.4v1.6h-2.2v-1.7c0-0.3-0.1-0.6-0.4-0.9c-0.2-0.2-0.5-0.4-0.9-0.4c-0.3,0-0.6,0.1-0.9,0.4c-0.2,0.2-0.4,0.5-0.4,0.9v7.8
			c0,0.3,0.1,0.6,0.4,0.9c0.2,0.2,0.5,0.4,0.9,0.4c0.3,0,0.6-0.1,0.9-0.4c0.2-0.2,0.4-0.5,0.4-0.9v-2.8h-1.2v-2.2h3.4v5
			c0,0.9-0.3,1.7-1,2.4S224.5,143.9,223.6,143.9z"/>
		<path class="st4" d="M231.6,129.5l2.8,9.6v-9.6h2.1v14.2h-2.3l-2.9-9.1v9.1h-2.1v-14.2H231.6z"/>
	</g>
</g>
<g id="Layer_2_1_">
</g>
</svg>
