<?xml version="1.0" encoding="utf-8"?>
<!-- Generator: Adobe Illustrator 24.2.3, SVG Export Plug-In . SVG Version: 6.00 Build 0)  -->
<svg version="1.1" xmlns="http://www.w3.org/2000/svg" xmlns:xlink="http://www.w3.org/1999/xlink" x="0px" y="0px"
	 viewBox="0 0 246.8 129.7" style="enable-background:new 0 0 246.8 129.7;" xml:space="preserve">
<style type="text/css">
	.st0{fill:#80BC00;}
	.st1{fill:#FFFFFF;}
	.st2{fill:#EDEDED;}
	.st3{fill:#81BA3F;}
	.st4{opacity:0.1;fill:url(#SVGID_1_);}
	.st5{opacity:0.75;fill:url(#SVGID_2_);}
	.st6{opacity:0.75;fill:url(#SVGID_3_);}
	.st7{fill:#646469;}
	.st8{fill:none;stroke:#81BA3F;stroke-width:2.3;stroke-miterlimit:10;}
	.st9{fill:#808080;}
	.st10{fill:#636569;}
	.st11{fill:#FFFFFF;stroke:#65656A;stroke-width:1.5542;stroke-linejoin:round;stroke-miterlimit:10;}
	.st12{fill:#FFFFFF;stroke:#65656A;stroke-width:1.9187;stroke-linejoin:round;stroke-miterlimit:10;}
	.st13{fill:none;stroke:#65656A;stroke-width:1.3822;stroke-miterlimit:10;}
	.st14{fill:none;stroke:#80BC00;stroke-width:3;stroke-linejoin:round;stroke-miterlimit:10;}
	.st15{fill:#ECECEC;stroke:#65656A;stroke-width:3;stroke-linejoin:round;stroke-miterlimit:10;}
	.st16{fill:none;stroke:#65656A;stroke-width:3;stroke-linejoin:round;stroke-miterlimit:10;}
	.st17{fill:#76A2DB;}
	.st18{fill:#F2B334;}
	.st19{fill:#E23E2F;}
	.st20{fill:#003088;}
	.st21{fill:#96CEE2;}
	.st22{fill:#49B2CE;}
	.st23{fill:#006796;}
	.st24{fill:none;stroke:#006796;stroke-width:0.9411;stroke-miterlimit:10;}
	.st25{fill:#8D8E92;}
	.st26{fill:#65656A;}
	.st27{opacity:0.98;fill:#484849;}
	.st28{fill:#999999;}
	.st29{fill:none;stroke:#999999;stroke-miterlimit:10;}
	.st30{fill:#81BA41;}
	.st31{opacity:0.75;fill:url(#SVGID_4_);}
	.st32{opacity:0.98;}
	.st33{fill:#8BC53F;}
	.st34{fill:#848487;}
	.st35{opacity:0.98;fill:none;stroke:#484849;stroke-width:1.5066;stroke-miterlimit:10;}
	.st36{fill:#ECEDEC;}
	.st37{clip-path:url(#SVGID_6_);}
	.st38{fill:#111111;}
	.st39{clip-path:url(#SVGID_8_);}
	.st40{fill:#891D03;}
	.st41{fill:#ADAFB1;}
	.st42{fill:#00DB00;}
	.st43{fill:#8F8A87;}
	.st44{fill:#EF7E19;}
	.st45{fill:#F6B881;}
	.st46{fill:#CCCCCC;}
	.st47{fill:#6D6E71;}
	.st48{clip-path:url(#SVGID_10_);fill:url(#SVGID_11_);}
	.st49{clip-path:url(#SVGID_13_);fill:url(#SVGID_14_);}
	.st50{fill:#37444C;}
	.st51{fill:#00A7DA;}
	.st52{fill:#ABBF00;}
	.st53{fill:#FFD100;}
	.st54{fill:url(#SVGID_15_);}
	.st55{fill:#2EAAE2;}
	.st56{fill:#2ECB70;}
	.st57{fill:#FFC600;}
	.st58{fill:none;}
	.st59{fill:#313E48;}
	.st60{fill:#FF6C0E;}
	.st61{opacity:0.75;}
	.st62{clip-path:url(#SVGID_17_);}
	.st63{clip-path:url(#SVGID_19_);}
	.st64{fill:#C75B12;}
	.st65{fill:#004A7C;}
	.st66{fill:#A9D15D;}
	.st67{clip-path:url(#SVGID_21_);fill:url(#SVGID_22_);}
	.st68{clip-path:url(#SVGID_24_);fill:url(#SVGID_25_);}
	.st69{fill:url(#SVGID_26_);}
	.st70{fill:#F63900;}
	.st71{opacity:0.75;clip-path:url(#SVGID_28_);}
	.st72{clip-path:url(#SVGID_30_);}
	.st73{clip-path:url(#SVGID_32_);}
	.st74{fill:#FFFFFF;stroke:#65656A;stroke-width:1.5503;stroke-linejoin:round;stroke-miterlimit:10;}
	.st75{fill:none;stroke:#65656A;stroke-width:1.3787;stroke-miterlimit:10;}
	.st76{fill:#929497;}
	.st77{fill:none;stroke:#65656A;stroke-width:1.5503;stroke-linejoin:round;stroke-miterlimit:10;}
	.st78{fill:#88201B;}
	.st79{fill:#ACAEB0;}
	.st80{fill:none;stroke:#65656A;stroke-width:1.4861;stroke-linejoin:round;stroke-miterlimit:10;}
</style>
<g id="Layer_1">
	<g>
		<path class="st70" d="M103.1,62.6c0,2.3-0.4,4.3-1.2,6c-0.8,1.7-2,3-3.6,4c-1.6,0.9-3.3,1.4-5.4,1.4c-2,0-3.7-0.5-5.2-1.3
			c-1.5-0.9-2.7-2.2-3.5-3.8c-0.8-1.7-1.3-3.5-1.3-5.6c0-2.3,0.4-4.2,1.3-6c0.8-1.7,2.1-3,3.6-4c1.6-0.9,3.4-1.4,5.5-1.4
			c1.9,0,3.6,0.5,5.1,1.4c1.5,0.9,2.7,2.2,3.5,3.8C102.7,58.7,103.1,60.5,103.1,62.6 M100.5,63c0-2.8-0.7-5-2-6.5
			c-1.3-1.6-3.1-2.3-5.4-2.3c-1.5,0-2.8,0.4-3.9,1.1c-1.2,0.7-2.1,1.8-2.7,3.2c-0.6,1.4-1,2.9-1,4.6c0,1.7,0.3,3.2,0.9,4.6
			c0.6,1.3,1.5,2.4,2.6,3.1c1.1,0.7,2.4,1.1,3.9,1.1c2.4,0,4.2-0.8,5.6-2.3C99.8,67.8,100.5,65.7,100.5,63 M113.9,53.1
			c-0.5-0.3-1-0.4-1.6-0.4c-1.7,0-2.6,1.1-2.6,3.2v2.4h3.6v2.1h-3.6v13.2h-2.4V60.4h-2.6v-2.1h2.6v-2.5c0-1.6,0.5-2.8,1.4-3.8
			c0.9-1,2.1-1.4,3.5-1.4c0.7,0,1.3,0.1,1.8,0.3L113.9,53.1L113.9,53.1L113.9,53.1z"/>
		<path class="st70" d="M122.3,53.1c-0.5-0.3-1-0.4-1.6-0.4c-1.7,0-2.6,1.1-2.6,3.2v2.4h3.6v2.1h-3.6v13.2h-2.4V60.4h-2.6v-2.1h2.6
			v-2.5c0-1.6,0.5-2.8,1.4-3.8c0.9-1,2.1-1.4,3.5-1.4c0.7,0,1.3,0.1,1.8,0.3L122.3,53.1L122.3,53.1z M126.8,52.8
			c0,0.5-0.2,0.8-0.5,1.1c-0.3,0.3-0.7,0.5-1.1,0.5c-0.4,0-0.8-0.1-1.1-0.4c-0.3-0.3-0.5-0.7-0.5-1.2c0-0.4,0.2-0.8,0.5-1.1
			c0.3-0.3,0.7-0.5,1.1-0.5c0.5,0,0.8,0.2,1.1,0.5C126.7,52,126.8,52.4,126.8,52.8 M126.4,73.6h-2.4V58.3h2.4V73.6z M140.4,72.9
			c-1.2,0.7-2.6,1.1-4.2,1.1c-1.4,0-2.6-0.3-3.8-1c-1.1-0.6-2-1.6-2.6-2.7c-0.6-1.2-0.9-2.5-0.9-4c0-2.5,0.7-4.6,2.2-6.1
			c1.4-1.5,3.4-2.3,5.8-2.3c1.3,0,2.5,0.3,3.5,0.8v2.5c-1.1-0.8-2.4-1.2-3.6-1.2c-1.6,0-2.9,0.6-3.9,1.7c-1,1.1-1.5,2.6-1.5,4.4
			c0,1.8,0.5,3.2,1.4,4.2c0.9,1,2.2,1.6,3.8,1.6c1.3,0,2.6-0.4,3.8-1.3L140.4,72.9L140.4,72.9z M155.4,66.6h-10.8
			c0,1.7,0.5,3,1.4,3.9c0.9,0.9,2.1,1.4,3.6,1.4c1.7,0,3.3-0.6,4.7-1.7v2.3c-1.3,1-3.1,1.5-5.3,1.5c-2.2,0-3.9-0.7-5.1-2.1
			c-1.2-1.4-1.8-3.4-1.8-5.8c0-1.5,0.3-2.9,0.9-4.1c0.6-1.2,1.5-2.2,2.5-2.9c1.1-0.7,2.3-1,3.6-1c2,0,3.5,0.6,4.6,1.9
			c1.1,1.3,1.7,3.1,1.7,5.4V66.6L155.4,66.6z M152.9,64.5c0-1.4-0.4-2.5-1-3.3c-0.7-0.8-1.6-1.2-2.8-1.2c-1.1,0-2.1,0.4-2.9,1.2
			c-0.8,0.8-1.3,1.9-1.5,3.2L152.9,64.5L152.9,64.5z M174,67.5c0,1.9-0.7,3.5-2.1,4.7c-1.4,1.2-3.2,1.8-5.4,1.8
			c-2,0-3.7-0.4-4.9-1.2v-2.6c1.4,1.1,3.1,1.7,5,1.7c1.5,0,2.7-0.4,3.6-1.1c0.9-0.7,1.3-1.7,1.3-3c0-2.8-2-4.2-6-4.2h-1.8v-2.1h1.7
			c3.5,0,5.3-1.3,5.3-3.9c0-2.4-1.3-3.6-4-3.6c-1.5,0-2.9,0.5-4.3,1.5v-2.4c1.4-0.8,3-1.2,4.9-1.2c1.8,0,3.2,0.5,4.3,1.4
			c1.1,0.9,1.6,2.2,1.6,3.7c0,2.8-1.4,4.6-4.3,5.4v0.1c1.5,0.2,2.7,0.7,3.7,1.6C173.5,65,174,66.1,174,67.5 M190.1,66.8
			c0,1.4-0.3,2.6-0.9,3.7c-0.6,1.1-1.4,2-2.4,2.6c-1,0.6-2.2,0.9-3.4,0.9c-2.1,0-3.8-0.9-5-2.6c-1.2-1.7-1.8-4.1-1.8-7.2
			c0-2.4,0.4-4.6,1.1-6.5c0.7-1.9,1.7-3.3,3.1-4.3c1.3-1,2.9-1.5,4.6-1.5c1.5,0,2.7,0.2,3.6,0.6v2.3c-1.1-0.6-2.3-0.9-3.5-0.9
			c-1.9,0-3.4,0.8-4.5,2.5c-1.1,1.7-1.7,4-1.7,6.8h0.1c1-2,2.6-3,4.9-3c1.8,0,3.3,0.6,4.4,1.8C189.6,63.2,190.1,64.8,190.1,66.8
			 M187.6,67.1c0-1.5-0.4-2.7-1.1-3.5c-0.7-0.9-1.8-1.3-3.1-1.3c-1.2,0-2.2,0.4-3,1.3c-0.8,0.8-1.2,1.9-1.2,3c0,1.5,0.4,2.8,1.2,3.8
			c0.8,1,1.8,1.5,3.1,1.5c1.2,0,2.2-0.4,3-1.3C187.2,69.7,187.6,68.5,187.6,67.1 M204.5,67.1c0,2.1-0.7,3.7-2.1,5
			c-1.4,1.3-3.2,1.9-5.5,1.9c-2,0-3.5-0.3-4.4-0.9v-2.6c1.5,0.9,2.9,1.4,4.5,1.4c1.5,0,2.7-0.4,3.7-1.3c0.9-0.8,1.4-2,1.4-3.4
			c0-1.4-0.5-2.5-1.4-3.3c-0.9-0.8-2.3-1.2-4.1-1.2c-1.4,0-2.6,0.1-3.6,0.2l0.7-10.7h9.9v2.2h-7.8l-0.4,6.3l2-0.1
			c2.2,0,4,0.6,5.3,1.7C203.9,63.4,204.5,65,204.5,67.1 M72.1,77.7L72.1,77.7l0-29.7L61.5,45l-19.1,7.2l0,0l0,21.4l6.5-2.6V53.6
			l12.6-3l0,25.6l-19.1-2.6l19.1,7.1v0L72.1,77.7L72.1,77.7L72.1,77.7z"/>
	</g>
</g>
<g id="Layer_2">
</g>
</svg>
