<?xml version="1.0" encoding="utf-8"?>
<!-- Generator: Adobe Illustrator 24.2.3, SVG Export Plug-In . SVG Version: 6.00 Build 0)  -->
<svg version="1.1" xmlns="http://www.w3.org/2000/svg" xmlns:xlink="http://www.w3.org/1999/xlink" x="0px" y="0px"
	 viewBox="0 0 246.8 129.7" style="enable-background:new 0 0 246.8 129.7;" xml:space="preserve">
<style type="text/css">
	.st0{fill:#80BC00;}
	.st1{fill:#FFFFFF;}
	.st2{fill:#EDEDED;}
	.st3{fill:#81BA3F;}
	.st4{opacity:0.1;fill:url(#SVGID_1_);}
	.st5{opacity:0.75;fill:url(#SVGID_2_);}
	.st6{opacity:0.75;fill:url(#SVGID_3_);}
	.st7{fill:#646469;}
	.st8{fill:none;stroke:#81BA3F;stroke-width:2.3;stroke-miterlimit:10;}
	.st9{fill:#808080;}
	.st10{fill:#636569;}
	.st11{fill:#FFFFFF;stroke:#65656A;stroke-width:1.5542;stroke-linejoin:round;stroke-miterlimit:10;}
	.st12{fill:#FFFFFF;stroke:#65656A;stroke-width:1.9187;stroke-linejoin:round;stroke-miterlimit:10;}
	.st13{fill:none;stroke:#65656A;stroke-width:1.3822;stroke-miterlimit:10;}
	.st14{fill:none;stroke:#80BC00;stroke-width:3;stroke-linejoin:round;stroke-miterlimit:10;}
	.st15{fill:#ECECEC;stroke:#65656A;stroke-width:3;stroke-linejoin:round;stroke-miterlimit:10;}
	.st16{fill:none;stroke:#65656A;stroke-width:3;stroke-linejoin:round;stroke-miterlimit:10;}
	.st17{fill:#76A2DB;}
	.st18{fill:#F2B334;}
	.st19{fill:#E23E2F;}
	.st20{fill:#003088;}
	.st21{fill:#96CEE2;}
	.st22{fill:#49B2CE;}
	.st23{fill:#006796;}
	.st24{fill:none;stroke:#006796;stroke-width:0.9411;stroke-miterlimit:10;}
	.st25{fill:#8D8E92;}
	.st26{fill:#65656A;}
	.st27{opacity:0.98;fill:#484849;}
	.st28{fill:#999999;}
	.st29{fill:none;stroke:#999999;stroke-miterlimit:10;}
	.st30{fill:#81BA41;}
	.st31{opacity:0.75;fill:url(#SVGID_4_);}
	.st32{opacity:0.98;}
	.st33{fill:#8BC53F;}
	.st34{fill:#848487;}
	.st35{opacity:0.98;fill:none;stroke:#484849;stroke-width:1.5066;stroke-miterlimit:10;}
	.st36{fill:#ECEDEC;}
	.st37{clip-path:url(#SVGID_6_);}
	.st38{fill:#111111;}
	.st39{clip-path:url(#SVGID_8_);}
	.st40{fill:#891D03;}
	.st41{fill:#ADAFB1;}
	.st42{fill:#00DB00;}
	.st43{fill:#8F8A87;}
	.st44{fill:#EF7E19;}
	.st45{fill:#F6B881;}
	.st46{fill:#CCCCCC;}
	.st47{fill:#6D6E71;}
	.st48{clip-path:url(#SVGID_10_);fill:url(#SVGID_11_);}
	.st49{clip-path:url(#SVGID_13_);fill:url(#SVGID_14_);}
	.st50{fill:#37444C;}
	.st51{fill:#00A7DA;}
	.st52{fill:#ABBF00;}
	.st53{fill:#FFD100;}
	.st54{fill:url(#SVGID_15_);}
	.st55{fill:#2EAAE2;}
	.st56{fill:#2ECB70;}
	.st57{fill:#FFC600;}
	.st58{fill:none;}
	.st59{fill:#313E48;}
	.st60{fill:#FF6C0E;}
	.st61{opacity:0.75;}
	.st62{clip-path:url(#SVGID_17_);}
	.st63{clip-path:url(#SVGID_19_);}
	.st64{fill:#C75B12;}
	.st65{fill:#004A7C;}
	.st66{fill:#A9D15D;}
	.st67{clip-path:url(#SVGID_21_);fill:url(#SVGID_22_);}
	.st68{clip-path:url(#SVGID_24_);fill:url(#SVGID_25_);}
	.st69{fill:url(#SVGID_26_);}
	.st70{fill:#F63900;}
	.st71{opacity:0.75;clip-path:url(#SVGID_28_);}
	.st72{clip-path:url(#SVGID_30_);}
	.st73{clip-path:url(#SVGID_32_);}
	.st74{fill:#FFFFFF;stroke:#65656A;stroke-width:1.5503;stroke-linejoin:round;stroke-miterlimit:10;}
	.st75{fill:none;stroke:#65656A;stroke-width:1.3787;stroke-miterlimit:10;}
	.st76{fill:#929497;}
	.st77{fill:none;stroke:#65656A;stroke-width:1.5503;stroke-linejoin:round;stroke-miterlimit:10;}
	.st78{fill:#88201B;}
	.st79{fill:#ACAEB0;}
	.st80{fill:none;stroke:#65656A;stroke-width:1.4861;stroke-linejoin:round;stroke-miterlimit:10;}
</style>
<g id="Layer_1">
	<g>
		<g>
			<path class="st65" d="M68.5,83.6c0,0.6-0.6,1-1.3,1H64v-3.5h3c0.4,0,0.8,0.2,1,0.4c0.2,0.2,0.2,0.4,0.2,0.6
				c0,0.3-0.1,0.5-0.4,0.7C68.2,83,68.5,83.2,68.5,83.6 M67.4,82.1c0-0.2-0.2-0.3-0.4-0.3h-2.1v0.7h2.2
				C67.2,82.4,67.4,82.3,67.4,82.1 M67.5,83.5c0-0.2-0.2-0.4-0.6-0.4h-2.1v0.8h2.2C67.4,83.9,67.5,83.8,67.5,83.5"/>
			<path class="st65" d="M72.4,84.7c-1.3,0-2.1-0.6-2.1-1.3V81h0.9v2.3c0,0.5,0.5,0.7,1.3,0.7c0.8,0,1.3-0.3,1.3-0.7V81h0.9v2.4
				C74.5,84.1,73.8,84.7,72.4,84.7"/>
			<rect x="76.6" y="81.1" class="st65" width="0.9" height="3.5"/>
			<polygon class="st65" points="79.5,84.6 79.5,81.1 80.4,81.1 80.4,83.9 83.1,83.9 83.1,84.6 			"/>
			<path class="st65" d="M89.3,82.9c0,0.6-0.2,0.9-0.6,1.3c-0.4,0.3-0.9,0.5-1.4,0.5h-2.5v-3.5h2.4C88.5,81.1,89.3,81.8,89.3,82.9
				 M88.1,83.5c0.2-0.2,0.2-0.4,0.2-0.6c0-0.6-0.5-1.1-1.2-1.1h-1.6V84h1.6C87.6,83.9,88,83.8,88.1,83.5"/>
			<rect x="91.1" y="81.1" class="st65" width="0.9" height="3.5"/>
			<polygon class="st65" points="97.3,84.6 95,82.1 94.9,82.1 94.9,84.6 94,84.6 94,81.1 95.1,81.1 97.5,83.6 97.5,83.6 97.5,81.1 
				98.4,81.1 98.4,84.6 			"/>
			<path class="st65" d="M104.6,84.1c-0.5,0.4-1.1,0.6-1.9,0.6c-0.7,0-1.3-0.2-1.8-0.6c-0.4-0.3-0.6-0.8-0.6-1.3s0.2-0.9,0.6-1.3
				c0.5-0.4,1.1-0.6,1.8-0.6c0.9,0,1.7,0.3,2,0.9l-0.9,0.3c-0.3-0.3-0.7-0.5-1.2-0.5c-0.9,0-1.6,0.6-1.6,1.2c0,0.4,0.2,0.7,0.6,0.9
				c0.2,0.2,0.6,0.3,1,0.3c0.7,0,1.3-0.3,1.6-0.8h-1.7v-0.7h2.7v0.2C105.2,83.4,105,83.8,104.6,84.1"/>
			<rect x="109.4" y="81.1" class="st65" width="0.9" height="3.5"/>
			<polygon class="st65" points="115.6,84.6 113.2,82.1 113.1,82.1 113.1,84.6 112.3,84.6 112.3,81.1 113.3,81.1 115.7,83.6 
				115.7,83.6 115.7,81.1 116.6,81.1 116.6,84.6 			"/>
			<path class="st65" d="M123.2,82.9c0,0.6-0.2,0.9-0.6,1.3c-0.4,0.3-0.9,0.5-1.4,0.5h-2.5v-3.5h2.4
				C122.4,81.1,123.2,81.8,123.2,82.9 M122.1,83.5c0.2-0.2,0.2-0.4,0.2-0.6c0-0.6-0.5-1.1-1.2-1.1h-1.6V84h1.6
				C121.5,83.9,121.9,83.8,122.1,83.5"/>
			<path class="st65" d="M127.2,84.7c-1.3,0-2.1-0.6-2.1-1.3V81h0.9v2.3c0,0.5,0.5,0.7,1.3,0.7s1.3-0.3,1.3-0.7V81h0.9v2.4
				C129.3,84.1,128.6,84.7,127.2,84.7"/>
			<path class="st65" d="M133.3,81.6c-0.7,0-1.1,0.2-1.1,0.4c0,0.2,0.1,0.2,0.3,0.2c0.3,0.1,0.8,0.1,1.3,0.1
				c1.1,0.1,1.7,0.4,1.7,1.1c0,0.8-0.7,1.3-2.1,1.3c-0.9,0-1.7-0.2-2.4-0.7l0.5-0.6c0.6,0.4,1.3,0.6,1.9,0.6c0.7,0,1.1-0.2,1.1-0.5
				c0-0.3-0.5-0.3-1.3-0.3c-1.4-0.1-2-0.3-2-1c0-0.7,0.7-1.2,2-1.2c0.9,0,1.6,0.2,2.1,0.6l-0.5,0.6
				C134.4,81.8,133.8,81.6,133.3,81.6"/>
			<polygon class="st65" points="139.5,81.7 139.5,84.6 138.6,84.6 138.6,81.7 136.9,81.7 136.9,81.1 141.2,81.1 141.2,81.7 			"/>
			<path class="st65" d="M146.2,84.6l-0.9-1.3h-1.7v1.3h-0.9v-3.5h2.9c0.8,0,1.3,0.5,1.3,1.2c0,0.6-0.3,0.9-0.8,1.1l0.9,1.3
				L146.2,84.6L146.2,84.6z M146.2,82.2c0-0.2-0.2-0.5-0.6-0.5h-2v0.9h2C146,82.7,146.2,82.5,146.2,82.2"/>
			<polygon class="st65" points="151.2,83.2 151.2,84.6 150.3,84.6 150.3,83.2 148.2,81.1 149.3,81.1 150.8,82.6 152.2,81.1 
				153.3,81.1 			"/>
			<path class="st65" d="M67.4,92.2L67,91.5h-2.3l-0.4,0.8h-0.9l1.9-3.5h1.1l1.8,3.5H67.4z M65.8,89.3L65,90.8h1.6L65.8,89.3z"/>
			<path class="st65" d="M71.8,89.3c-0.7,0-1.1,0.2-1.1,0.4c0,0.2,0.1,0.2,0.3,0.2c0.3,0.1,0.8,0.1,1.3,0.1c1.1,0.1,1.7,0.4,1.7,1.1
				c0,0.8-0.7,1.3-2.1,1.3c-0.9,0-1.7-0.2-2.3-0.7l0.5-0.6c0.6,0.4,1.2,0.6,1.9,0.6c0.7,0,1.1-0.2,1.1-0.5c0-0.3-0.5-0.3-1.3-0.3
				c-1.4-0.1-2-0.3-2-1c0-0.7,0.7-1.2,2-1.2c0.9,0,1.6,0.2,2.1,0.6l-0.5,0.6C72.8,89.4,72.3,89.3,71.8,89.3"/>
			<path class="st65" d="M77.7,89.3c-0.7,0-1.1,0.2-1.1,0.4c0,0.2,0.1,0.2,0.3,0.2c0.3,0.1,0.8,0.1,1.3,0.1c1.1,0.1,1.7,0.4,1.7,1.1
				c0,0.8-0.7,1.3-2.1,1.3c-0.9,0-1.7-0.2-2.4-0.7l0.5-0.6c0.6,0.4,1.3,0.6,1.9,0.6c0.7,0,1.1-0.2,1.1-0.5c0-0.3-0.5-0.3-1.3-0.3
				c-1.4-0.1-2-0.3-2-1c0-0.7,0.7-1.2,2-1.2c0.9,0,1.6,0.2,2.1,0.6l-0.4,0.5C78.8,89.4,78.2,89.3,77.7,89.3"/>
			<path class="st65" d="M85.7,91.8c-0.5,0.4-1.1,0.6-1.8,0.6c-0.7,0-1.3-0.2-1.8-0.6c-0.4-0.3-0.6-0.8-0.6-1.3
				c0-0.6,0.2-0.9,0.6-1.3c0.5-0.4,1.1-0.6,1.8-0.6c0.7,0,1.3,0.2,1.8,0.6c0.4,0.3,0.6,0.8,0.6,1.3C86.3,91,86.1,91.5,85.7,91.8
				 M83.9,89.3c-0.9,0-1.6,0.5-1.6,1.2c0,0.7,0.6,1.2,1.5,1.2c0.9,0,1.6-0.5,1.6-1.2C85.5,89.7,84.8,89.3,83.9,89.3"/>
			<path class="st65" d="M91.9,89.9c-0.4-0.4-0.9-0.6-1.6-0.6c-0.9,0-1.5,0.5-1.5,1.2c0,0.7,0.6,1.2,1.6,1.2c0.6,0,1.1-0.2,1.5-0.6
				l0.7,0.4c-0.6,0.7-1.3,0.9-2.2,0.9c-0.6,0-1.2-0.2-1.7-0.5S88,91,88,90.4c0-0.6,0.2-0.9,0.6-1.3c0.5-0.4,1.1-0.6,1.8-0.6
				c0.9,0,1.7,0.3,2.3,1L91.9,89.9z"/>
			<rect x="94.4" y="88.7" class="st65" width="0.9" height="3.5"/>
			<path class="st65" d="M100.8,92.2l-0.4-0.8h-2.3l-0.4,0.8h-0.9l1.9-3.5h1.1l1.9,3.5H100.8z M99.3,89.3l-0.8,1.5h1.6L99.3,89.3z"
				/>
			<polygon class="st65" points="104.9,89.3 104.9,92.2 104,92.2 104,89.3 102.3,89.3 102.3,88.7 106.6,88.7 106.6,89.3 			"/>
			<rect x="108.2" y="88.7" class="st65" width="0.9" height="3.5"/>
			<path class="st65" d="M115.2,91.8c-0.5,0.4-1.1,0.6-1.8,0.6s-1.3-0.2-1.8-0.6c-0.4-0.3-0.6-0.8-0.6-1.3c0-0.6,0.2-0.9,0.6-1.3
				c0.5-0.4,1.1-0.6,1.8-0.6s1.3,0.2,1.8,0.6c0.4,0.3,0.6,0.8,0.6,1.3C115.8,91,115.6,91.5,115.2,91.8 M113.4,89.3
				c-0.9,0-1.6,0.5-1.6,1.2c0,0.7,0.6,1.2,1.5,1.2c0.9,0,1.6-0.5,1.6-1.2C114.9,89.7,114.3,89.3,113.4,89.3"/>
			<polygon class="st65" points="120.9,92.2 118.5,89.7 118.5,89.7 118.5,92.2 117.6,92.2 117.6,88.7 118.6,88.7 121.1,91.2 
				121.1,91.2 121.1,88.7 122,88.7 122,92.2 			"/>
			<path class="st65" d="M132.7,87c0-0.1-0.1-0.2-0.2-0.2c-0.1-0.1-0.1-0.2-0.1-0.2c0-0.1-0.1-0.1-0.1-0.1h-0.1c0,0-0.1,0-0.1,0.1
				c-0.2,0.5-0.2,0.5-0.3,0.8l-1.1,2.4c-0.2-0.1-0.4-0.2-0.6-0.2l0,0c-0.2,0-0.5,0-0.7,0.1c-0.2,0.1-0.5,0.2-0.7,0.2
				c-0.2,0.1-0.2,0.1-0.3,0.1s-0.2,0.1-0.2,0.1l-0.4,0.1c0-0.1,0.1-0.1,0.1-0.2s0.1-0.2,0.2-0.2c0.1-0.2,0.1-0.2,0.2-0.2
				c0,0,0.1-0.1,0.1-0.2c0.1-0.1,0.2-0.2,0.2-0.5c0.2-0.2,0.2-0.4,0.4-0.6c0.2-0.2,0.2-0.5,0.3-0.7c0.1-0.2,0.2-0.4,0.2-0.6
				c0-0.1,0-0.2-0.1-0.2c0,0,0-0.1-0.1-0.1c0,0,0-0.1-0.1-0.1c-0.1-0.1-0.1-0.2-0.2-0.2h-0.1c-0.1,0-0.2,0.2-0.3,0.5
				c0,0.1-0.1,0.2-0.2,0.2c-0.1,0.1-0.2,0.2-0.2,0.4l-0.1,0.2c-0.1,0.2-0.2,0.2-0.2,0.4l-0.2,0.5c-0.2,0.2-0.3,0.5-0.4,0.8
				c-0.2,0.2-0.2,0.3-0.3,0.5l-0.1,0.1c-0.1,0.2-0.1,0.2-0.2,0.2c0,0.1-0.1,0.1-0.1,0.2l-0.2,0.2c-0.3,0.1-0.7,0.2-1.1,0.2
				c-0.5,0.2-1,0.2-1.5,0.4c-0.1,0-0.2,0.1-0.2,0.1v0.1c0,0.1,0.1,0.1,0.2,0.2c0.1,0,0.2,0.1,0.2,0.1c0.1,0,0.1,0.1,0.2,0.2
				c0.2,0.1,0.2,0.2,0.4,0.1c0.1,0,0.2-0.1,0.3-0.1c0.2,0,0.3-0.1,0.5-0.1c0.1,0,0.2-0.1,0.3-0.1c-0.1,0.2-0.2,0.4-0.4,0.6
				c-0.2,0.2-0.3,0.6-0.5,0.7c-0.2,0.4-0.5,0.7-0.6,0.9c-0.1,0.1-0.1,0.2,0,0.4c0,0.1,0.1,0.2,0.2,0.2c0.1,0.1,0.1,0.2,0,0.2
				c0,0.1,0,0.1,0,0.1c0,0.1,0.1,0.1,0.1,0.1s0,0,0.1,0h0.1c0,0,0.1-0.1,0.2-0.2c0.1-0.2,0.2-0.4,0.4-0.6c0.2-0.2,0.3-0.5,0.5-0.7
				c0.1-0.2,0.2-0.3,0.3-0.6c0.2-0.2,0.2-0.4,0.3-0.5c0.2-0.2,0.3-0.5,0.4-0.6l0.5-0.6l0.6-0.2c0.2-0.1,0.3-0.1,0.4-0.2
				c0.1,0,0.2-0.1,0.4-0.2c0.3-0.1,0.6-0.2,0.9-0.3c0.1,0,0.2-0.1,0.5-0.1c0.2-0.1,0.3-0.1,0.5-0.1c-0.3,0.6-0.6,1.3-0.9,1.9
				c-0.3,0.6-0.6,1.3-0.8,1.8c0,0,0,0.1,0,0.2s0.1,0.1,0.2,0.1s0.1,0,0.2,0.1s0.1,0.2,0.2,0.2s0.2-0.1,0.2-0.1
				c0.1-0.1,0.2-0.2,0.2-0.5c0.2-0.6,0.6-1.2,0.8-1.8c0.3-0.7,0.6-1.3,0.9-1.9c0.3-0.6,0.6-1.3,0.9-1.9l0.1-0.2
				c0.2-0.3,0.2-0.3,0.3-0.6l0.1-0.2C132.9,87.3,132.9,87.1,132.7,87"/>
			<path class="st65" d="M136.8,90.5c-0.1,0-0.1,0-0.2,0c-0.1,0.1-0.2,0.1-0.2,0.1c-0.1,0-0.1,0-0.2,0.1c-0.1,0-0.1,0-0.2,0.1
				c-0.1,0-0.1,0.1-0.2,0.1c-0.1,0.1-0.2,0.2-0.3,0.2c-0.2,0.1-0.3,0.2-0.5,0.4s-0.3,0.2-0.5,0.4c-0.2,0.1-0.2,0.2-0.4,0.2l0,0l0,0
				c0-0.2,0.1-0.3,0.2-0.6s0.2-0.5,0.3-0.7c0.1-0.2,0.2-0.4,0.3-0.6c0.1-0.2,0.2-0.3,0.2-0.3c0.1-0.1,0.1-0.2,0-0.2
				s-0.1-0.2-0.2-0.2c-0.1-0.1-0.2-0.1-0.2-0.1c-0.1,0-0.2,0-0.2,0.1l-0.2,0.2c-0.2-0.2-0.2-0.2-0.4-0.2c-0.2-0.1-0.3-0.1-0.5,0
				s-0.3,0.2-0.5,0.2c-0.2,0.2-0.4,0.3-0.6,0.6c-0.3,0.3-0.5,0.6-0.6,0.8c-0.2,0.2-0.2,0.5-0.3,0.7c-0.1,0.2-0.1,0.4-0.1,0.6
				c0,0.2,0.1,0.3,0.1,0.4c0.2,0.2,0.3,0.5,0.6,0.5c0.1,0,0.1,0,0.2,0c0.2,0,0.4-0.1,0.6-0.2c0.2-0.1,0.3-0.2,0.5-0.4
				c0.1-0.2,0.2-0.3,0.3-0.5c0,0.2,0,0.2,0.1,0.3c0.1,0.2,0.3,0.2,0.6,0.3c0.2,0.1,0.3,0,0.5,0c0.2-0.1,0.3-0.2,0.5-0.3
				c0.1-0.1,0.2-0.2,0.2-0.2c0-0.1,0.1-0.1,0.1-0.2c0.1-0.2,0.2-0.2,0.3-0.3c0.1-0.2,0.2-0.2,0.3-0.4c0.2-0.2,0.4-0.5,0.6-0.7
				C136.8,90.7,136.9,90.6,136.8,90.5L136.8,90.5 M134.3,90c-0.2,0.3-0.5,0.7-0.7,1c-0.2,0.4-0.6,0.7-0.8,1
				c-0.2,0.2-0.4,0.5-0.5,0.6s-0.1,0.1-0.2,0.1l0,0c0-0.1,0-0.2,0-0.3c0.1-0.2,0.2-0.3,0.2-0.5c0.1-0.2,0.2-0.3,0.3-0.6
				c0.1-0.2,0.2-0.3,0.3-0.4c0-0.1,0.1-0.2,0.2-0.2c0.1-0.1,0.2-0.2,0.4-0.3s0.2-0.2,0.4-0.3C134.1,90.1,134.2,90.1,134.3,90"/>
			<path class="st65" d="M141.8,90.5c-0.1,0-0.2,0-0.2,0c-0.1-0.1-0.2-0.1-0.3-0.1c-0.2,0-0.3,0-0.5,0s-0.3-0.1-0.4-0.1
				c-0.1-0.2-0.2-0.2-0.2-0.3c-0.1-0.1-0.2-0.2-0.4-0.1s-0.2,0.2-0.3,0.3c-0.1,0.2,0,0.2,0,0.4c-0.1,0.2-0.2,0.3-0.4,0.5
				s-0.3,0.3-0.6,0.5c0.1-0.2,0.1-0.4,0.2-0.6c0.1-0.2,0.2-0.4,0.2-0.5c0.1-0.1,0.1-0.2,0-0.3c0-0.1-0.1-0.2-0.2-0.2
				s-0.2-0.2-0.2-0.2s-0.2,0-0.2,0c-0.2,0.2-0.3,0.3-0.6,0.5c-0.2,0.2-0.4,0.4-0.6,0.6c-0.2,0.2-0.4,0.5-0.6,0.7
				c-0.2,0.2-0.2,0.3-0.4,0.4c0-0.2,0.1-0.3,0.2-0.5c0.1-0.2,0.2-0.5,0.3-0.7c0.2-0.2,0.3-0.5,0.5-0.7c0.2-0.2,0.4-0.5,0.6-0.6
				c0.2-0.2,0.2-0.2,0.2-0.2s0,0-0.1,0c0,0-0.1,0-0.2,0.1c-0.1,0.1-0.2,0.1-0.3,0.2c0.2,0,0.2,0,0.1,0s-0.2,0.1-0.2,0.1
				c-0.1,0-0.2,0.1-0.2,0.2c-0.2,0.1-0.3,0.2-0.5,0.5c-0.2,0.2-0.3,0.4-0.4,0.6c-0.2,0.2-0.2,0.5-0.3,0.7c-0.1,0.2-0.1,0.5,0,0.6
				c0,0.1,0.1,0.2,0.2,0.3c0.1,0.1,0.2,0.2,0.2,0.3s0.2,0.2,0.3,0.2c0.1,0,0.1,0,0.2,0s0.2,0,0.2-0.1c0.2-0.1,0.3-0.2,0.5-0.5
				c0.2-0.2,0.2-0.3,0.4-0.5c0,0.1,0,0.2,0,0.2s0,0.2,0.1,0.2c0.1,0.1,0.1,0.2,0.2,0.2c0.1,0.1,0.2,0.1,0.2,0.1c0.1,0,0.2,0,0.2,0
				c0.1,0,0.2-0.1,0.3-0.2s0.3-0.2,0.6-0.4c0.2-0.2,0.4-0.3,0.6-0.5c0.2-0.2,0.3-0.3,0.5-0.6c0.2,0,0.3,0,0.5,0s0.2-0.1,0.3-0.1
				s0.1,0,0.2-0.1c0.2,0,0.3-0.1,0.4-0.2c0.1,0,0.1,0,0.2,0s0.1,0,0.2-0.1s0.2-0.2,0.2-0.2C142,90.5,141.9,90.5,141.8,90.5"/>
			<path class="st65" d="M146,90.3c-0.1,0-0.1,0-0.2,0c-0.1,0.1-0.2,0.1-0.2,0.1c-0.1,0-0.1,0-0.2,0.1c-0.1,0-0.1,0-0.2,0.1
				c-0.1,0-0.1,0.1-0.2,0.1l-0.3,0.2c-0.2,0.1-0.3,0.2-0.5,0.4s-0.3,0.2-0.5,0.4c-0.2,0.1-0.2,0.2-0.3,0.2c0-0.2,0.1-0.3,0.2-0.6
				c0.1-0.2,0.2-0.5,0.3-0.7c0.1-0.2,0.2-0.5,0.3-0.6c0.1-0.2,0.2-0.3,0.2-0.3c0.1-0.1,0.1-0.2,0-0.2c-0.1-0.1-0.1-0.2-0.2-0.2
				c-0.1-0.1-0.2-0.1-0.2-0.1c-0.2,0-0.2,0-0.2,0.1l-0.2,0.2c-0.2-0.2-0.2-0.2-0.4-0.2c-0.2-0.1-0.3-0.1-0.5,0
				c-0.2,0-0.3,0.2-0.5,0.2c-0.2,0.2-0.4,0.3-0.6,0.6c-0.3,0.3-0.5,0.6-0.6,0.8c-0.2,0.2-0.2,0.5-0.3,0.7c-0.1,0.2-0.1,0.4-0.1,0.6
				c0,0.2,0.1,0.3,0.1,0.5c0.2,0.2,0.3,0.5,0.6,0.5c0.1,0,0.1,0,0.2,0c0.2,0,0.4-0.1,0.6-0.2c0.2-0.1,0.3-0.2,0.5-0.4
				c0.1-0.2,0.2-0.3,0.3-0.5c0,0.2,0,0.2,0.1,0.3c0.1,0.2,0.3,0.2,0.6,0.3c0.2,0.1,0.3,0,0.5,0c0.2-0.1,0.3-0.2,0.4-0.2
				c0.2-0.1,0.2-0.2,0.4-0.4c0.1-0.2,0.2-0.2,0.3-0.3s0.2-0.2,0.3-0.3c0.1-0.1,0.2-0.2,0.2-0.2c0.1-0.1,0.2-0.2,0.2-0.3
				c0-0.1,0.1-0.2,0.1-0.2C146,90.4,146.1,90.4,146,90.3L146,90.3 M143.5,89.8c-0.2,0.4-0.5,0.7-0.7,1c-0.2,0.4-0.6,0.7-0.8,1
				c-0.2,0.2-0.4,0.5-0.5,0.6c-0.1,0.1-0.1,0.1-0.1,0.1l0,0c0-0.1,0-0.2,0-0.3c0.1-0.2,0.2-0.3,0.2-0.5s0.2-0.3,0.3-0.6
				c0.1-0.2,0.2-0.3,0.3-0.4c0-0.1,0.1-0.1,0.2-0.2c0.2-0.2,0.2-0.2,0.4-0.3c0.2-0.1,0.2-0.2,0.4-0.3
				C143.3,89.9,143.4,89.8,143.5,89.8"/>
			<path class="st65" d="M148.7,90.3L148.7,90.3l-0.2,0.2c-0.2,0.2-0.2,0.2-0.4,0.4c-0.2,0.2-0.4,0.4-0.6,0.6s-0.4,0.3-0.6,0.5
				s-0.3,0.2-0.5,0.3c0-0.1,0-0.2,0.1-0.4c0.1-0.2,0.2-0.5,0.2-0.8c0.1-0.3,0.2-0.6,0.3-0.8c0.1-0.2,0.2-0.5,0.2-0.6
				c0-0.1,0-0.2-0.2-0.3c-0.1-0.1-0.3-0.2-0.6-0.1c-0.1,0-0.2,0-0.2,0.1c-0.1,0.1-0.2,0.2-0.3,0.3c-0.2,0.2-0.2,0.3-0.4,0.5
				c-0.2,0.2-0.2,0.4-0.4,0.6c-0.2,0.2-0.3,0.4-0.4,0.6c0,0-0.1,0.2,0,0.2c0,0,0.1,0,0.2,0c0.1-0.1,0.2-0.1,0.2-0.1
				c0.1,0,0.1,0,0.2-0.1h0.1h0.1c0.1,0,0.1-0.1,0.2-0.1l0.2-0.1c-0.1,0.1-0.1,0.2-0.2,0.3c-0.1,0.2-0.1,0.4-0.2,0.6
				s-0.1,0.3-0.1,0.5s0,0.2,0.1,0.4c0.1,0.1,0.2,0.2,0.2,0.2c0.1,0.1,0.2,0.1,0.3,0.2c0.1,0,0.2,0.1,0.3,0.1l0,0
				c0.1,0,0.2,0,0.2-0.1s0.2-0.2,0.4-0.3c0.2-0.2,0.4-0.3,0.6-0.5s0.3-0.3,0.5-0.6c0.2-0.2,0.2-0.3,0.3-0.4c0-0.1,0.1-0.2,0.1-0.3
				c0-0.1,0.1-0.2,0.2-0.3C148.8,90.4,148.8,90.4,148.7,90.3L148.7,90.3"/>
			<path class="st65" d="M147.3,88.6L147.3,88.6c0.1,0,0.2,0,0.2-0.1c0.1-0.1,0.2-0.2,0.2-0.2c0.1-0.1,0.2-0.1,0.2-0.2
				c0.1-0.1,0.2-0.1,0.2-0.2c0.1-0.1,0.1-0.2,0.1-0.3c0-0.2,0-0.2-0.1-0.2s-0.2,0-0.2,0s-0.2,0.1-0.2,0.1c-0.1,0-0.2,0.1-0.2,0.1
				s-0.1,0-0.2,0.1l-0.1,0.1l0,0c-0.2,0.2-0.2,0.5-0.2,0.6C147.2,88.5,147.2,88.6,147.3,88.6"/>
			<path class="st65" d="M150.2,88.5L150.2,88.5c0.1,0,0.1,0,0.2-0.1l0.5-0.2c0.2-0.1,0.3-0.2,0.3-0.3c0.1-0.1,0.1-0.2,0-0.3
				c0-0.1-0.1-0.1-0.2-0.1c-0.2-0.1-0.2,0-0.3,0s-0.1,0-0.2,0s-0.1,0-0.2,0.1l-0.1,0.1l0,0c-0.1,0.2-0.2,0.4-0.2,0.6l0,0v0.1
				C150,88.4,150.1,88.5,150.2,88.5"/>
			<path class="st65" d="M151.7,90.2C151.6,90.2,151.6,90.2,151.7,90.2c-0.2,0.2-0.5,0.3-0.6,0.6c-0.2,0.2-0.4,0.4-0.6,0.6
				c-0.2,0.2-0.4,0.3-0.6,0.5c-0.2,0.2-0.3,0.2-0.5,0.3c0-0.1,0-0.2,0.1-0.4c0.1-0.2,0.2-0.5,0.2-0.8c0.1-0.3,0.2-0.6,0.3-0.8
				c0.1-0.2,0.2-0.5,0.2-0.6c0-0.1,0-0.2-0.2-0.3c-0.1-0.1-0.3-0.2-0.6-0.1c-0.1,0-0.2,0-0.2,0.1c-0.1,0.1-0.2,0.2-0.3,0.3
				c-0.1,0.2-0.2,0.3-0.4,0.5c-0.2,0.2-0.3,0.4-0.4,0.6c-0.2,0.2-0.2,0.4-0.4,0.6c0,0,0,0.1-0.1,0.1v0.1c0.1,0,0.1,0.1,0.2,0.1
				s0.1,0,0.2,0s0.2-0.2,0.2-0.2c0.1-0.1,0.2-0.2,0.2-0.2l0.2-0.1c-0.1,0.1-0.1,0.2-0.2,0.3c-0.1,0.2-0.2,0.4-0.2,0.6
				c-0.1,0.2-0.1,0.3-0.1,0.5c0,0.2,0,0.2,0.1,0.4c0.1,0.1,0.2,0.2,0.2,0.2c0.1,0.1,0.2,0.1,0.3,0.2c0.1,0,0.2,0.1,0.3,0.1
				s0.2,0,0.2-0.1c0.1-0.1,0.2-0.2,0.4-0.3c0.2-0.2,0.4-0.3,0.6-0.5c0.2-0.2,0.3-0.4,0.5-0.6c0.2-0.2,0.2-0.3,0.3-0.4
				c0-0.1,0.1-0.2,0.1-0.3s0.1-0.2,0.2-0.3C151.8,90.3,151.8,90.3,151.7,90.2L151.7,90.2"/>
			<path class="st65" d="M137.4,43.4h-9.3l-14.5,27.2v3.9h5.6l3.5-6.7h20l3.5,6.7h5.6v-4L137.4,43.4z M125.8,61.9l6.8-12.7l6.8,12.7
				H125.8z"/>
			<path class="st65" d="M95.5,58.4c2.2-1.6,3.1-3.4,3.1-6c0-2-0.7-3.8-2.1-5.3c-2-2.3-5.3-3.7-8.9-3.7H64v31.1h24.5
				c7.3,0,11.8-3.8,11.8-9C100.2,62.4,98.5,60.2,95.5,58.4 M71.6,49.4h16c2,0,3.4,1.3,3.4,3c0,1.8-1.4,3.1-3.1,3.1H71.6V49.4z
				 M87.9,68.6H71.6v-7.1h16.4c2.8,0,4.6,1.5,4.6,3.7C92.5,67.3,90.9,68.6,87.9,68.6"/>
			<rect x="103.2" y="43.4" class="st65" width="7.5" height="31.1"/>
			<path class="st66" d="M169.6,22.9l-17.8,10.3v20.6l17.8,10.3l17.8-10.3V33.2L169.6,22.9z M172.8,52.2l1.7-0.9l9.1-5.2l1.8-1.3
				v7.4H172.8z M169.4,34.7l11.9,6.8l1.9,0.9h-13.2l-12.4-7.2l-1.3-0.6H169.4z M166.3,42.5h-12.5v-7.2l0.9,0.6l10.1,5.8L166.3,42.5z
				 M153.7,44.4h12.5l-1.6,0.8l-10.9,6.3C153.7,51.5,153.7,44.4,153.7,44.4z M169.8,44.4H183l-1.9,0.9l-12,6.8h-13.1l1.7-0.9
				L169.8,44.4z M173,34.7h12.5V42l-1.7-1.3l-9.2-5.3L173,34.7z M173,32.7l1.7-0.8l3.5-2l3.1,1.8l1.9,0.9H173z M176.1,28.9l-6.8,3.9
				h-13.2l1.4-0.6l12-7.1L176.1,28.9z"/>
		</g>
		<g>
			<path class="st65" d="M64,33.2h2.3c0.8,0,1.5,0.2,1.5,1.1c0,0.9-0.7,1.1-1.5,1.1h-1.8v1.7H64V33.2z M64.5,35.1h1.7
				c0.8,0,1.2-0.2,1.2-0.7c0-0.6-0.4-0.7-1.2-0.7h-1.7V35.1z"/>
			<path class="st65" d="M69,33.2h2.3c0.6,0,1.6,0.2,1.6,1.1c0,0.9-0.8,1.1-1.3,1.1l1.3,1.7h-0.6l-1.3-1.7h-1.6v1.7H69V33.2z
				 M69.6,35h1.7c0.7,0,1.2-0.1,1.2-0.7c0-0.6-0.6-0.7-1.2-0.7h-1.7V35z"/>
			<path class="st65" d="M76.5,33.1c1.3,0,2.3,0.8,2.3,2.1c0,1.4-1.2,2-2.3,2c-1.1,0-2.3-0.6-2.3-2C74.1,33.9,75.2,33.1,76.5,33.1z
				 M76.5,36.8c0.9,0,1.8-0.5,1.8-1.7c0-0.9-0.7-1.6-1.8-1.6c-1.1,0-1.8,0.7-1.8,1.6C74.7,36.3,75.6,36.8,76.5,36.8z"/>
			<path class="st65" d="M84.2,35.6c0,1.4-1.1,1.7-2,1.7s-2-0.3-2-1.7v-2.4h0.5v2.4c0,0.9,0.6,1.3,1.6,1.3s1.6-0.4,1.6-1.3v-2.4h0.5
				V35.6z"/>
			<path class="st65" d="M85.8,33.2h2c1.3,0,2.1,0.6,2.1,2c0,1.6-1.3,2-2.3,2h-1.8V33.2z M86.3,36.7h1.4c0.4,0,1.7-0.1,1.7-1.6
				c0-1.2-0.8-1.5-1.7-1.5h-1.5C86.3,33.7,86.3,36.7,86.3,36.7z"/>
			<path class="st65" d="M93.6,33.2h0.7l1.5,3.3l1.5-3.3H98v3.9h-0.5v-3.5l0,0L96,37.1h-0.4L94,33.6l0,0v3.5h-0.5L93.6,33.2
				L93.6,33.2z"/>
			<path class="st65" d="M99.6,33.2h3.5v0.4h-3.1v1.3h2.5v0.5h-2.5v1.4h3.1v0.4h-3.6V33.2z"/>
			<path class="st65" d="M104.4,33.2h0.8l1.5,3.3l1.5-3.3h0.7v3.9h-0.5v-3.5l0,0l-1.6,3.5h-0.4l-1.6-3.5l0,0v3.5h-0.5V33.2z"/>
			<path class="st65" d="M110.4,33.2h2.3c0.5,0,1.5,0,1.5,1c0,0.6-0.3,0.7-0.6,0.9c0.2,0.1,0.7,0.3,0.7,0.9c0,1.1-1.1,1.1-2,1.1h-2
				v-3.9H110.4z M110.9,34.9h1.7c0.6,0,1.2-0.1,1.2-0.6c0-0.6-0.6-0.6-1.3-0.6h-1.5C110.9,33.7,110.9,34.9,110.9,34.9z M110.9,36.7
				h1.9c0.6,0,1.1-0.1,1.1-0.7c0-0.6-0.5-0.7-1.1-0.7h-1.9C110.9,35.3,110.9,36.7,110.9,36.7z"/>
			<path class="st65" d="M115.8,33.2h3.5v0.4h-3.1v1.3h2.5v0.5h-2.5v1.4h3.1v0.4h-3.6V33.2z"/>
			<path class="st65" d="M120.5,33.2h2.3c0.6,0,1.6,0.2,1.6,1.1c0,0.9-0.8,1.1-1.3,1.1l1.3,1.7h-0.6l-1.3-1.7H121v1.7h-0.5V33.2z
				 M121,35h1.7c0.7,0,1.2-0.1,1.2-0.7c0-0.6-0.6-0.7-1.2-0.7H121V35z"/>
			<path class="st65" d="M130.5,33.1c1.3,0,2.3,0.8,2.3,2.1c0,1.4-1.2,2-2.3,2c-1.1,0-2.3-0.6-2.3-2
				C128.2,33.9,129.1,33.1,130.5,33.1z M130.5,36.8c0.9,0,1.8-0.5,1.8-1.7c0-0.9-0.7-1.6-1.8-1.6c-1.1,0-1.8,0.7-1.8,1.6
				C128.6,36.3,129.5,36.8,130.5,36.8z"/>
			<path class="st65" d="M134.1,33.2h3.6v0.4h-3.1v1.3h2.7v0.5h-2.7v1.9h-0.5V33.2z"/>
		</g>
	</g>
</g>
<g id="Layer_2">
</g>
</svg>
