<?xml version="1.0" encoding="utf-8"?>
<!-- Generator: Adobe Illustrator 20.1.0, SVG Export Plug-In . SVG Version: 6.00 Build 0)  -->
<svg version="1.1" id="Layer_1" xmlns="http://www.w3.org/2000/svg" xmlns:xlink="http://www.w3.org/1999/xlink" x="0px" y="0px"
	 viewBox="0 0 460 168" style="enable-background:new 0 0 460 168;" xml:space="preserve">
<style type="text/css">
	.st0{fill:#98CEE1;}
	.st1{fill:#4AB2CD;}
	.st2{fill:#056897;}
	.st3{fill:none;stroke:#056897;stroke-width:0.9411;stroke-miterlimit:10;}
</style>
<g>
	<g>
		<path class="st0" d="M42.6,130.7l0-4.3l-4.5,0c-4,0-4.8-0.3-4.8-1.9c0-1.1,0.7-2.4,1.4-4.6l2.5-7.5l21.3,0l2.5,6.7
			c0.5,1.2,1.8,4.1,1.8,5.4c0,1.3-1,1.9-4.3,1.9l-5,0l0,4.3l26.1,0l0-4.3l-3.1,0c-2.9,0-4.8-1.3-5.9-4.1L52.6,75.7l-6.8,0
			l-17.6,45.8c-1.2,3.1-2.4,4.9-6.1,5l-3.4,0l0,4.3L42.6,130.7z M56.8,108.1l-18,0l8.9-23.5L56.8,108.1z M71.9,96h1
			c2.7,0,4,0.9,4.7,2.7l13,32.4l4.6,0l9.5-24l9.7,24l4.8,0l12.4-31.2c0.8-2.2,2.4-3.9,5.1-3.9h1.2l0-3.9l-17.2,0l0,3.9h1.6
			c2.4,0,4.6,0.6,4.6,1.6c0,0.9-0.2,1.6-0.7,2.6l-8.4,22.5h-0.2l-8.1-22.3c-0.4-1.2-1-2.1-1-3c0-1,0.7-1.5,3-1.5l3.4,0l0-3.9
			l-19.4,0l0,3.9l2.1,0c2.3,0,4,2.1,5.1,4.6L94,122.2h-0.2l-8.2-22c-0.4-1-0.7-1.7-0.7-2.6c0-1.2,0.7-1.6,2.6-1.6l3,0l0-3.9l-18.7,0
			L71.9,96z M165.7,117.2c0,5.7-6.5,10.8-11.9,10.8c-4.2,0-6.5-2.5-6.5-6.8c0-2.9,1.8-4.7,6.3-6.6c4.9-2.1,8.7-2.9,12.2-5
			L165.7,117.2z M172.7,104.3c0-10.7-6.2-13.5-15.7-13.5c-6.3,0-15.7,2.8-15.7,9.8c0,3.3,1.4,5.9,4.3,5.8c2.3,0,4.9-1.2,4.9-4.4
			c0-2.5-1.3-3.8-3.8-4.2c2.4-2.7,6.4-3.2,9.6-3.2c7.2,0,9.2,2.4,9.2,7.1c0,2.5-0.6,4-3.1,5.3c-8.3,4-23.2,3.8-23.1,14.5
			c0,7.3,5.4,10.3,12.1,10.3c5.9,0,10.5-2,14.6-6.4c0.7,4,3.1,6.4,7.3,6.4c6.3,0,9.2-3.2,9.2-12l0-2.4l-3.9,0l0,3.5
			c0,2.4-0.3,7-3.9,7c-1.5,0-2.1-1.9-2.1-4.4L172.7,104.3z M199.5,92l-15.7,0l0,3.9l5.7,0c2.7,0,3.3,1.2,3.3,3.8l0,23.2
			c0,2.6-0.6,3.8-3.3,3.8l-5.4,0l0,3.9l24.2,0l0-3.9l-4.4,0c-2.6,0-4.1-1.2-4.1-3.8l0-11.1c0-8.2,4-17.1,11.8-17.2
			c1.8,0,4.4,0.4,4.8,2.3c-3,0-4.9,1.3-4.9,4.3c0,2.4,2.4,3.8,4.6,3.8c3.3,0,4.6-2.4,4.6-5.5c0-5.7-3.7-8.7-9.3-8.7
			c-4.8,0-9.6,3.9-11.7,9.6h-0.2L199.5,92z M255.4,130.6l14.8,0l0-3.9l-4.8,0c-1.9,0-3-1-3.1-3l0-47.8l-15.1,0l0,3.9l4.3,0
			c2.7,0,3.8,2,3.8,4.7l0,14.4h-0.2c-2.8-5.2-8.4-8.2-13.7-8.1c-12.4,0-17.8,10.5-17.8,20.5c0,10.1,5.5,20.5,17.8,20.5
			c7.3,0,10.7-3.1,13.7-8.7h0.2L255.4,130.6z M243.3,95.4c8.4,0,11.8,7.7,11.8,15.9c0,8.2-3.4,15.9-12.7,15.9
			c-7.6,0-10.9-6.5-10.9-15.9C231.5,103.1,234.9,95.4,243.3,95.4 M273,115l0,16l4.3,0l1.6-4.3c3.8,3.5,8.9,5.1,14,5.1
			c7.6,0,15.3-3.3,15.3-12c0-16.2-27.7-8.8-27.7-18.6c0-5.4,4.2-6.6,7.8-6.6c6.8,0,13,4.9,13.9,12.1l3.9,0l0-15.2l-3.7,0l-1.5,3.9
			c-3.5-3-8.2-4.7-12.8-4.7c-7.2,0-14.7,3.1-14.7,11.4c0,16.9,27.7,8.7,27.7,19.3c0,4-3.6,6.4-8.6,6.4c-7.8,0-14.1-5.1-15.3-12.9
			L273,115z"/>
		<path class="st1" d="M53.2,57.2c0-9.9,1.8-15.1,11.9-15.1l3.2,0l0,36.8c0,2.3-1,3.7-3.3,3.7l-6.3,0l0,3.8l26,0l0-3.8l-6.2,0
			c-2.2,0-3.3-1.4-3.3-3.7l0-36.8l2.7,0c10.6,0,12.4,4.6,12.4,15.1l3.8,0l0-18.9l-44.7,0l0,18.9L53.2,57.2z M114.6,51.3
			c-11.7,0-18.7,7.6-18.7,18c0,10.4,7,18,18.7,18c11.7,0,18.7-7.6,18.7-18C133.3,58.9,126.2,51.3,114.6,51.3 M114.6,54.7
			c9,0,11.8,6.8,11.8,14.6c0,7.8-2.8,14.6-11.8,14.6c-9,0-11.8-6.8-11.8-14.6C102.8,61.5,105.6,54.7,114.6,54.7 M148.2,52.3l-13.8,0
			l0,3.4l5,0c2.4,0,2.9,1.1,2.9,3.3l0,20.4c0,2.2-0.5,3.3-2.9,3.3l-4.7,0l0,3.4l21.3,0l0-3.4l-3.9,0c-2.3,0-3.6-1.1-3.6-3.3l0-9.8
			c0-7.2,3.5-15.1,10.3-15.1c1.6,0,3.8,0.4,4.2,2c-2.6,0-4.3,1.2-4.3,3.8c0,2.1,2.1,3.3,4.1,3.3c2.9,0,4.1-2.1,4-4.9
			c0-5-3.3-7.7-8.2-7.7c-4.2,0-8.5,3.4-10.3,8.4h-0.1L148.2,52.3z M196.1,73.7c-1.2,6.2-4.8,10.1-10.6,10.1c-7.8,0-10.8-8-10.8-14.6
			c0-6.7,3-14.6,12.2-14.6c3.3,0,8,1.4,9.2,4.9c-2.5,0.4-3.7,1.7-3.7,4.1c0,1.9,1.7,3.4,3.6,3.4c2.8,0,4.6-2,4.6-5
			c0-7.5-8.3-10.9-14.7-10.8c-10.3,0-18,7.3-17.9,18c0,12,7,18,15.9,18c9.5,0,15.5-3.8,16.5-13.6L196.1,73.7z M213.9,38.2l-13.8,0
			l0,3.4l4.7,0c2.4,0,2.9,1.1,2.9,3.3l0,34.5c0,2.2-0.5,3.3-2.9,3.3l-4.7,0l0,3.4l21.1,0l0-3.4l-4.4,0c-2.4,0-2.9-1.1-2.9-3.3
			l0-12.9c0-5.8,4-11.3,10.9-11.3c5.6,0,7.5,3,7.5,8l0,16.2c0,2.2-0.5,3.3-2.9,3.3l-4,0l0,3.4l20.3,0l0-3.4l-4.3,0
			c-2.4,0-2.9-1.1-2.9-3.3l0-15.7c0-7.5-4.1-12.5-11.7-12.5c-5.6,0-9.9,2.7-12.7,6.9h-0.1L213.9,38.2z"/>
		<polygon class="st2" points="36.6,43.7 10.8,43.7 9.9,46.8 16.8,46.8 18.1,51 29.3,51 30.6,46.8 37.5,46.8 		"/>
		<path class="st2" d="M15,26.4c-1,1.3-1.3,2.9-1.1,4.5c0.3,1.6,1.1,3,2.4,4l6.2,4.5c0.3,0.2,0.5,0.6,0.6,1c0.1,0.4,0,0.8-0.3,1.1
			l0.9,0.7l3.3-4.5c0.8-1,1.2-2.3,1.2-3.6c0-0.3,0-0.6-0.1-1c-0.3-1.6-1.1-3-2.4-4l-6.2-4.5c-0.3-0.2-0.5-0.6-0.6-1
			c0-0.1,0-0.2,0-0.2c0-0.3,0.1-0.6,0.3-0.9v0L18.3,22L15,26.4z"/>
		<path class="st2" d="M18.8,8.5c-1.1,1.5-1.7,3.3-1.7,5.2c0,0.5,0,0.9,0.1,1.4c0.4,2.3,1.6,4.4,3.5,5.7l7.7,5.6
			c1,0.7,1.7,1.8,1.9,3.1c0,0.3,0.1,0.5,0.1,0.7c0,1-0.3,2-0.9,2.8h0l0.7,0.5l6.1-8.4c1.4-1.9,1.9-4.2,1.6-6.6
			c-0.4-2.3-1.6-4.4-3.5-5.7L25,6c-0.6-0.4-1-1.1-1.1-1.8c-0.1-0.7,0.1-1.4,0.5-2l-0.7-0.5L18.8,8.5z"/>
		<path class="st2" d="M10.2,65.8c1.5,0,2.4-0.5,2.4-1.6v0c0-1-0.8-1.6-2.5-1.6H6.2v3.3H10.2z M9.3,59.7c1.5,0,2.4-0.5,2.4-1.6v0
			c0-1-0.8-1.6-2.2-1.6H6.2v3.2H9.3z M3,53.6h7c1.7,0,3.1,0.5,4,1.3c0.7,0.7,1,1.5,1,2.6v0c0,1.7-0.9,2.7-2,3.3
			c1.8,0.7,2.8,1.7,2.8,3.7v0c0,2.8-2.3,4.2-5.7,4.2H3V53.6z"/>
		<path class="st2" d="M24.5,65.8c1.5,0,2.4-0.5,2.4-1.6v0c0-1-0.8-1.6-2.5-1.6h-3.9v3.3H24.5z M23.6,59.7c1.5,0,2.4-0.5,2.4-1.6v0
			c0-1-0.8-1.6-2.2-1.6h-3.3v3.2H23.6z M17.3,53.6h7c1.7,0,3.1,0.5,4,1.3c0.7,0.7,1,1.5,1,2.6v0c0,1.7-0.9,2.7-2,3.3
			c1.8,0.7,2.8,1.7,2.8,3.7v0c0,2.8-2.3,4.2-5.7,4.2h-7.2V53.6z"/>
		<path class="st2" d="M38.9,65.8c1.5,0,2.4-0.5,2.4-1.6v0c0-1-0.8-1.6-2.5-1.6h-3.9v3.3H38.9z M38,59.7c1.5,0,2.4-0.5,2.4-1.6v0
			c0-1-0.8-1.6-2.2-1.6h-3.3v3.2H38z M31.6,53.6h7c1.7,0,3.1,0.5,4,1.3c0.7,0.7,1,1.5,1,2.6v0c0,1.7-0.9,2.7-2,3.3
			c1.8,0.7,2.8,1.7,2.8,3.7v0c0,2.8-2.3,4.2-5.7,4.2h-7.2V53.6z"/>
		<path class="st2" d="M45.2,67.2c0,0,0.1,0,0.1,0c0.2,0,0.3,0.1,0.3,0.2c0,0.1-0.1,0.2-0.3,0.2h-0.1V67.2z M45.2,67.8h0.1
			c0.1,0,0.2,0.1,0.2,0.2c0,0.1,0.1,0.3,0.1,0.3h0.2c0,0,0-0.1-0.1-0.3c0-0.2-0.1-0.3-0.2-0.3v0c0.1,0,0.2-0.1,0.2-0.3
			c0-0.1,0-0.2-0.1-0.2c-0.1,0-0.2-0.1-0.4-0.1c-0.1,0-0.2,0-0.3,0v1.1h0.2V67.8z M45.4,66.8c0.5,0,0.8,0.4,0.8,0.9
			c0,0.5-0.4,0.9-0.8,0.9c-0.4,0-0.8-0.4-0.8-0.9C44.6,67.2,45,66.8,45.4,66.8L45.4,66.8z M45.4,66.7c-0.6,0-1,0.5-1,1
			c0,0.6,0.5,1,1,1c0.6,0,1-0.4,1-1C46.4,67.1,46,66.7,45.4,66.7L45.4,66.7z"/>
		<path class="st1" d="M121,138l-1.2,1.2l0.1,0.5h3.4c-0.7,4-1.2,7.4-2.2,13.1c-1.4,8-2.3,9.7-2.9,10.3c-0.4,0.5-1.1,0.8-1.8,0.8
			c-0.7,0-1.9-0.4-2.6-1c-0.2-0.2-0.5-0.3-0.8,0c-0.6,0.5-1.1,1.2-1.1,1.7c0,0.9,1.4,1.8,2.5,1.8c1.1,0,2.8-0.7,4.6-2.6
			c2.3-2.3,3.8-5.4,5.2-12.5c0.9-4.6,1.4-7,2.1-11.5l4.1-0.4l0.9-1.3h-4.6c1.2-7.6,2.5-9.6,4-9.6c0.9,0,1.7,0.5,2.6,1.4
			c0.3,0.3,0.7,0.3,1,0c0.5-0.3,1-1.1,1-1.7c0-0.7-1-1.8-2.5-1.8c-1.6,0-4,1.2-5.9,3.3c-1.9,2.1-2.8,5.1-3.5,8.3H121z M135.4,156.3
			c2.3,0,4.6-1.1,6.3-2.6c2.9-2.4,4.4-6.4,4.4-10c0-4.1-2.1-6.4-5.5-6.4c-1.3,0-3,0.5-4.4,1.3c-3.4,1.8-6.2,5.9-6.2,11.2
			C130,153.2,131.5,156.3,135.4,156.3 M136.9,154.6c-2.2,0-3.5-1.9-3.5-5c0-6.3,2.8-9.7,4.4-10.4c0.5-0.2,0.9-0.4,1.6-0.4
			c1.9,0,3.3,1.6,3.3,4.9c0,5.3-2.3,9.6-4.5,10.6C137.8,154.5,137.4,154.6,136.9,154.6 M154.4,144.1l0.4-2.1
			c0.6-2.9,0.6-4.8-0.5-4.8c-1.1,0-3.7,1.7-5.8,4l0.5,0.9c1.2-1.2,2.5-2,2.9-2c0.3,0,0.3,0.4,0.1,1.8c-0.8,4.4-1.9,9.5-3,13.9
			l0.3,0.3c0.9-0.3,2-0.6,2.9-0.7c0.5-2.7,1-5.3,1.6-8.1c0.7-1.9,2-3.8,2.9-5.1c0.9-1.3,1.6-1.7,2.1-1.7c0.5,0,0.9,0.2,1.4,0.7
			c0.2,0.2,0.5,0.2,0.9,0c0.4-0.3,0.8-0.7,1.1-1.2c0.3-0.6,0.3-1.2,0-1.8c-0.4-0.6-1.1-1-1.8-1c-1.6,0-4.1,2.8-6.2,6.8H154.4z"/>
		<path class="st1" d="M196,163.7v-11.5h-3c-0.4,6.1-1.9,8.5-5.6,8.5h-8.2V151h2.2c2.5,0,3.6,1.3,3.6,4.6v1h3v-13.7h-3v0.5
			c0,3.3-1.1,4.6-3.6,4.6h-2.2v-8.6h7.2c5.5,0,6,2.2,6.6,7.8h3v-10.9h-27.1v3h1.9c2.1,0,2.6,0.5,2.6,2.3v16c0,2.5-0.8,2.9-2.2,2.9
			h-2.3v3H196z M202,147.1v12.6c0,3.3,2.2,4.6,5.3,4.6c3.2,0,5.6-1.9,5.6-6.2v-3.5h-2.7v3.7c0,1.6-0.5,2.3-1.8,2.3
			c-1.1,0-1.6-0.5-1.6-1.4v-12.1h5.3v-2.7h-5.4v-7.6h-2.5c-0.4,3.8-1.4,7.5-5.6,7.8v2.6H202z M223.3,136.4h-8.8v2.7h2.3
			c1.1,0,1.6,0.5,1.6,1.6v18.5c0,1.2-0.5,1.6-1.6,1.6h-2.3v2.7h12.1v-2.7H225c-1.2,0-1.6-0.5-1.6-1.6v-6.4c0-3.6,2.5-5.9,4.6-5.9
			c2.2,0,3.6,0.8,3.6,2.9v9.4c0,1.2-0.5,1.6-1.6,1.6h-1.6v2.7h12v-2.7h-2.3c-1.1,0-1.6-0.5-1.6-1.6v-9.7c0-3.5-2.2-5.8-5.8-5.8
			c-3.2,0-5.5,1.6-7.2,3.9h-0.1V136.4z M254.3,163.7v-2.7h-2c-1.2,0-1.6-0.5-1.6-1.6v-14.9h-8.4v2.7h1.9c1.2,0,1.6,0.5,1.6,1.6v10.5
			c0,1.2-0.5,1.6-1.6,1.6h-1.9v2.7H254.3z M244.7,138.9c0,1.6,1.4,3,3,3c1.6,0,3-1.3,3-3c0-1.6-1.4-3-3-3
			C246,135.9,244.7,137.2,244.7,138.9 M271,155.8c-0.3,3-2,5.1-4.5,5.1c-4.3,0-5.3-4-5.3-7.2c0-3.1,1.2-7.2,5.5-7.2
			c1.6,0,3,0.4,3.9,1.6c-1.6,0.1-2.4,1-2.4,2.7c0,1.7,1.8,2.5,3.2,2.5c1.8,0,3-1.6,3-3.4c0-3.5-3.7-6-8.5-6
			c-5.3,0-10.2,4.1-10.2,10.2c0,6.6,3.3,10.3,9.7,10.3c5.6,0,8.5-3,8.8-8.5H271z M276.9,156.1v7.5h2.7l0.8-1.5
			c1.9,1.7,4.4,2.1,6.9,2.1c3.9,0,7.5-1.8,7.5-6.1c0-7.5-13-6-13-9.2c0-1.6,1.8-2.2,3.1-2.2c3.2,0,5.1,1.5,6.1,4.5h2.7v-6.9h-2.3
			l-0.8,1.4c-1.8-1.2-3.9-2-6-2c-3.6,0-7.5,2.1-7.5,6.2c0,7.4,13,5.1,13,9.1c0,1.7-1.8,2.5-3.2,2.5c-3.6,0-6.1-1.8-6.9-5.4H276.9z"
			/>
	</g>
	<g>
		<path class="st2" d="M360,118l-0.9,0.4c-2-2.6-4.4-4-7.8-4c-0.7,0-2.3,0.1-2.8,0.6c-0.4,0.4-0.4,1.2-0.4,1.9v4.5h1.6
			c2.8,0,3.5-0.5,3.7-3.4h0.8v8.1h-0.8c-0.3-2.7-1-3.5-3.7-3.5h-1.6v5.9c0,1.5,0.1,2.6,2.1,2.7l0.5,0v0.8h-7.9v-0.8l0.3,0
			c0.7,0,1.5-0.1,1.9-0.9c0.3-0.5,0.3-1.3,0.3-2v-11.5c0-1.4-0.1-2.5-2.1-2.7l-0.4,0v-0.8H358L360,118z"/>
		<path class="st2" d="M367.2,128.6c0,1.5,0.2,2.5,1.9,2.7h0.3v0.8h-7.2v-0.8h0.2c1.8-0.1,2.1-1,2.1-2.7v-5.7c0-1.5-0.3-2.6-2-2.7
			h-0.4v-0.8l4.2-0.6h0.9V128.6z M365.9,117.4c-1,0-1.6-0.8-1.6-1.7c0-0.9,0.8-1.6,1.6-1.6c1,0,1.6,0.8,1.6,1.7
			C367.6,116.7,366.8,117.4,365.9,117.4z"/>
		<path class="st2" d="M387.4,128.6c0,1.5,0.2,2.5,1.9,2.6h0.4v0.8h-7.3v-0.8h0.4c1.7-0.1,2-1.1,2-2.7v-5.7c0-0.7-0.1-1.4-0.4-2
			c-0.4-0.7-1.2-1-1.9-1c-1.8,0-3.6,1-4.9,2.2v6.4c0,1.5,0.2,2.6,2,2.7h0.4v0.8h-7.4v-0.8h0.3c1.8-0.1,2.1-0.9,2.1-2.7v-5.7
			c0-1.5-0.3-2.6-2-2.7h-0.4v-0.8l4.2-0.6h0.9v2.2c1.6-1.5,3.6-2.4,5.8-2.4c1.1,0,2.2,0.4,3,1.1c0.9,0.8,1.1,1.7,1.1,2.9V128.6z"/>
		<path class="st2" d="M407.7,131.3c-0.7,0.6-1.8,0.9-2.7,0.9h-0.1c-1.3,0-2.6-0.6-3-2c-1.6,1.3-3.1,2-5.2,2c-1.9,0-4.2-1-4.2-3.2
			c0-1.9,1.2-2.7,2.7-3.4c1.5-0.7,3-1,4.6-1.1l2-0.2v-2c-0.1-0.9-0.2-1.6-1-2.1c-0.7-0.5-1.6-0.6-2.5-0.6c-0.9,0-2.6,0.4-2.6,1.5
			v0.4c0,0.9-0.4,1.6-1.4,1.6c-0.7,0-1.3-0.5-1.3-1.2c0-1.2,1.3-2.2,2.2-2.6c1.2-0.5,2.6-0.8,3.9-0.8h0.1c1.2,0,2.6,0.4,3.6,0.9
			c1.5,0.8,1.6,1.8,1.6,3.4v5.4c0,1.2,0.2,2.9,1.5,2.9c0.4,0,0.8-0.2,1.1-0.4L407.7,131.3z M401.9,125.2c-2.1,0.2-6.6,0.8-6.6,3.5
			c0,1.4,1.2,2.2,2.5,2.2c1.5,0,3-0.9,4.1-1.8V125.2z"/>
		<path class="st2" d="M415.5,128.6c0,1.5,0.2,2.5,1.9,2.6l0.3,0v0.8h-7.2v-0.8h0.2c1.8-0.1,2.1-1,2.1-2.7v-11.8
			c0-1.4-0.1-2.5-2.1-2.7l-0.4,0v-0.8c1.3-0.2,2.7-0.4,4-0.9h1.1V128.6z"/>
		<path class="st2" d="M425.7,128.6c0,1.5,0.2,2.5,1.9,2.7h0.3v0.8h-7.2v-0.8h0.2c1.8-0.1,2.1-1,2.1-2.7v-5.7c0-1.5-0.3-2.6-2-2.7
			h-0.4v-0.8l4.2-0.6h0.9V128.6z M424.3,117.4c-1,0-1.6-0.8-1.6-1.7c0-0.9,0.8-1.6,1.6-1.6c1,0,1.6,0.8,1.6,1.7
			C426,116.7,425.2,117.4,424.3,117.4z"/>
		<path class="st2" d="M442.1,123h-0.9c-0.7-1.9-2.8-3.3-4.8-3.3c-1.2,0-2.8,0.5-2.8,2c0,1.3,1.6,1.6,2.6,1.9l3.1,0.7
			c2,0.5,3.8,1.2,3.8,3.6c0,3.1-3.1,4.4-5.7,4.4c-1.6,0-3.1-0.4-4.4-1.4l-0.3,1.2h-0.9l-1-4.9h1c0.8,2.5,3,4,5.6,4
			c1.4,0,3.4-0.7,3.4-2.4c0-1.3-1.2-1.6-2.3-1.9l-2.8-0.7c-2-0.5-4.4-1.1-4.4-3.7c0-2.6,2.9-3.9,5-3.9c1.3,0,2.8,0.4,3.9,1.2l0.3-1
			h0.8L442.1,123z"/>
		<path class="st2" d="M454.3,119.6h-3.9v7.7c0,1.5,0,3.7,2.1,3.7c1,0,1.7-0.5,2.4-1.2l0.7,0.6c-0.9,1.2-2.4,1.8-3.9,1.8
			c-0.9,0-1.9-0.2-2.7-0.7c-1.1-0.7-1.2-1.8-1.2-3v-9h-2.3v-0.9c3.2-0.1,3.8-2.3,3.8-5h1.2v5h3.9V119.6z"/>
	</g>
	<g>
		<path class="st2" d="M366.6,93h-22.3v-3.2c3.9-2.3,7.5-4.7,10.7-8c3.2-3.2,6.7-7.5,6.7-12.3c0-3.9-2.6-6.3-6.4-6.3
			c-2.3,0-6.6,1.5-6.6,4.4c0,0.7,0.2,1.2,0.7,1.8c0.5,0.6,0.8,1.1,0.8,1.8c0,1.3-1.4,2.4-2.6,2.4c-2,0-3.1-2-3.1-3.8
			c0-2.6,1.5-4.9,3.5-6.5c2.3-1.7,5-2.4,7.8-2.4c2.5,0,5.4,0.6,7.5,2c2.2,1.5,3.8,4.3,3.8,6.9c0,8.4-11.6,15.8-18.1,19.4v0.1h10.1
			c4.6,0,5.7-0.4,7.6-4.7l0.3-0.6l1.8,0.5L366.6,93z"/>
		<path class="st2" d="M401,77.5c0,3.6-0.7,7.5-2.7,10.6c-2.1,3.5-5.8,5.7-9.9,5.7c-3.9,0-7.3-2-9.5-5.2c-2.2-3.2-3-7.4-3-11.2
			c0-7.4,3.7-16.5,12.3-16.5C397.3,60.9,401,69.6,401,77.5z M395.9,77.2c0-5.1-0.7-14-7.6-14c-1.7,0-3.2,0.7-4.4,1.9
			c-1.1,1.2-1.6,2.5-2,4c-0.7,2.5-1,5.8-1,8.3c0,5,0.7,14,7.5,14C395.2,91.5,395.9,82.1,395.9,77.2z"/>
		<path class="st2" d="M419.2,86c0,4.8,0.5,5.2,5.5,5.6V93H409v-1.4c1.4-0.2,3.3-0.4,4.5-1c0.6-0.3,0.8-0.7,1-1.3
			c0.1-0.6,0.1-1.5,0.1-2.3V69.4c0-4.1-0.3-5-4.7-5H409v-1.4l8.5-1.4h1.7V86z"/>
		<path class="st2" d="M437,77.3L437,77.3c2.1-3,5.2-4.3,8.8-4.3c5.9,0,11.1,3.8,11.1,10.1c0,6.7-6.2,10.7-12.3,10.7
			c-3.6,0-7.4-1.5-9.7-4.4c-2.3-2.9-3.1-7.3-3.1-10.9c0-4,0.8-8.6,3.1-12c2.5-3.6,6.7-5.7,11-5.7c2.2,0,4.6,0.6,6.5,1.7
			c1.6,0.9,3.4,2.5,3.4,4.4c0,1.3-1,2.3-2.4,2.3c-2,0-3-1.7-3-3.5c0-2.1-3.1-2.6-4.7-2.6c-3.2,0-5.5,1.5-7,4.3
			c-1.2,2.3-1.8,5.4-1.8,8V77.3z M437.4,83.8c0,4.3,2.6,7.7,7.1,7.7c4.9,0,7.5-3.5,7.5-8.2c0-4.2-2.3-7.9-6.9-7.9
			C439.8,75.4,437.4,79,437.4,83.8z"/>
	</g>
	<line class="st3" x1="337" y1="104.4" x2="457" y2="104.4"/>
</g>
</svg>
