<svg id="Layer_1" data-name="Layer 1" xmlns="http://www.w3.org/2000/svg" viewBox="0 0 502.23 290.77"><defs><style>.cls-1{fill:#646569;}.cls-2{fill:#fff;}.cls-3{fill:#929497;}</style></defs><title>01-benefits-of</title><rect class="cls-1" x="0.8" width="500.63" height="290.77"/><path class="cls-2" d="M102,32.45c4.6,0,7.65,3.18,7.65,7.75a11.23,11.23,0,0,1-3.21,7.75,10.46,10.46,0,0,1-7.73,3.28c-4.55,0-7.75-3-7.75-7.65a11.06,11.06,0,0,1,11-11.13H102Zm3.34,2.84a4.76,4.76,0,0,0-3.63-1.6,7.25,7.25,0,0,0-6,3.94A14.1,14.1,0,0,0,94,44.25c0,3,1.39,5.75,4.76,5.75a7.19,7.19,0,0,0,6-3.94,15.52,15.52,0,0,0,1.76-6.83A6.45,6.45,0,0,0,105.3,35.29Z"/><path class="cls-2" d="M113.4,50.79H111l1.6-9.12a6.09,6.09,0,0,0,.11-1c0-1-.87-1.18-1.81-1.23l0.13-.79,3.68-.6h0.95l-0.34,1.89a9.59,9.59,0,0,1,5.47-2.15c1.63,0,3.21.74,3.21,2.57a10.35,10.35,0,0,1-.18,1.55l-0.95,5.2a5.79,5.79,0,0,0-.13,1.16A1.4,1.4,0,0,0,124,49.66a2.73,2.73,0,0,0,1.76-.89l0.53,0.58A4.75,4.75,0,0,1,122.78,51a2.34,2.34,0,0,1-2.44-2.24s0-.07,0-0.1V48.59a16.22,16.22,0,0,1,.37-2.52l0.74-4.18a9.3,9.3,0,0,0,.16-1.24A1.69,1.69,0,0,0,119.87,39h-0.1c-1.68,0-3.34,1.13-4.62,2.1Z"/><path class="cls-2" d="M138.73,48.53A10.94,10.94,0,0,1,132.27,51c-2.89,0-5.65-1.79-5.65-4.91a8.31,8.31,0,0,1,2.81-5.86,9.69,9.69,0,0,1,6.2-2.42c1.73,0,4.39.74,4.39,2.89,0,3.6-7.67,4.31-10.51,4.36a5.26,5.26,0,0,0-.18,1.29c0,2.26,1.63,3.42,3.81,3.42,1.94,0,3.36-.95,4.94-2Zm-9-4.4c2.29-.05,7.75-0.5,7.75-3.42,0-1.34-1.21-1.92-2.39-1.92C132.32,38.76,130.35,41.72,129.73,44.13Z"/><path class="cls-2" d="M166.48,38.13l-1,.29c-1.42-3-3.55-4.26-6.91-4.26-3,0-3.28.29-3.78,3l-0.66,3.68H156a4.25,4.25,0,0,0,2.21-.39,3.13,3.13,0,0,0,1.44-2l0.26-.74h0.84l-1.34,7.62h-0.8V44.57c0-2.15-1.05-2.52-3-2.52H153.9l-0.95,5.39a3.2,3.2,0,0,0-.08.68v0.16A1.72,1.72,0,0,0,154.55,50H155l-0.16.79h-7.38l0.16-.79c2.1-.16,2.47-1.13,2.79-2.89l1.89-10.8a4.63,4.63,0,0,0,.1-0.84A1.58,1.58,0,0,0,151,33.76H150.5l0.13-.79h14.64Z"/><path class="cls-2" d="M177.73,46.4a12.66,12.66,0,0,0-.21,1.71,1.39,1.39,0,0,0,1.33,1.45h0a2.63,2.63,0,0,0,1.81-.95l0.63,0.53a5,5,0,0,1-3.7,1.87,2.48,2.48,0,0,1-2.65-2.3s0-.06,0-0.09a8.79,8.79,0,0,1-5.7,2.39c-1.63,0-3-.74-3-2.52a10.37,10.37,0,0,1,.21-1.79l0.84-4.86a4.11,4.11,0,0,0,.13-1,1.17,1.17,0,0,0-1.13-1.21h-0.08l-0.6-.11,0.13-.79,3.68-.68h0.89l-1.5,8.64a6,6,0,0,0-.13,1.18v0.26a1.59,1.59,0,0,0,1.59,1.59h0.14c1.76,0,3.36-1.08,4.7-2.08l1.71-9.51h2.39Z"/><path class="cls-2" d="M184.83,46.19a9.21,9.21,0,0,0-.24,1.73V48a1.45,1.45,0,0,0,1.4,1.5h0.1a2.75,2.75,0,0,0,1.84-1l0.6,0.55a5.23,5.23,0,0,1-4,1.89,2.4,2.4,0,0,1-2.39-2.41s0-.1,0-0.14a10.08,10.08,0,0,1,.24-2L184.22,36a5.46,5.46,0,0,0,.11-0.92c0-1.16-.81-1.21-1.89-1.37l0.13-.79a14,14,0,0,0,3.71-.95h1Z"/><path class="cls-2" d="M192.19,46.19a9.21,9.21,0,0,0-.24,1.73V48a1.45,1.45,0,0,0,1.4,1.5h0.1a2.75,2.75,0,0,0,1.84-1l0.6,0.55a5.23,5.23,0,0,1-4,1.89,2.41,2.41,0,0,1-2.39-2.43s0-.08,0-0.12a10.12,10.12,0,0,1,.24-2L191.58,36a5.46,5.46,0,0,0,.11-0.92c0-1.16-.81-1.21-1.89-1.37l0.13-.79a14,14,0,0,0,3.71-.95h1Z"/><path class="cls-2" d="M197.06,42.25h6l-0.74,1.47h-6Z"/><path class="cls-2" d="M221.73,38.07h-0.84c-0.89-2.21-2.47-4-5-4-1.13,0-1.21.45-1.37,1.47l-2.1,11.88a4.54,4.54,0,0,0-.08.84,1.81,1.81,0,0,0,.32,1.1,1.74,1.74,0,0,0,1.45.66h0.53l-0.13.79h-7.86l0.13-.79h0.29a2.65,2.65,0,0,0,1.94-.68,3.5,3.5,0,0,0,.87-2.21L212,35.38a6.17,6.17,0,0,0,.1-0.74c0-.58-0.53-0.6-1-0.6H211c-2.6,0-4.7,1.94-6.1,4H204l2.18-5.18h14.87Z"/><path class="cls-2" d="M224,47.22a4.59,4.59,0,0,0-.11.87,1.35,1.35,0,0,0,1.22,1.47h0.2a2.85,2.85,0,0,0,1.79-.89l0.6,0.53A5.06,5.06,0,0,1,223.91,51a2.37,2.37,0,0,1-2.47-2.57,6.28,6.28,0,0,1,.13-1.21l0.95-5.41a4.86,4.86,0,0,0,.13-0.89c0-1.08-.79-1.26-1.71-1.39h-0.21l0.13-.79,1.08-.13a16.5,16.5,0,0,0,2.76-.53h0.87Zm0.92-10.67a1.26,1.26,0,0,1-1.21-1.3V35.18a1.93,1.93,0,0,1,1.81-1.81,1.24,1.24,0,0,1,1.37,1.26A2,2,0,0,1,224.89,36.55Z"/><path class="cls-2" d="M229.83,41.75a6.09,6.09,0,0,0,.11-1,1.17,1.17,0,0,0-1.13-1.21h-0.08l-0.6-.1,0.16-.79a22.22,22.22,0,0,0,3.71-.6h0.92l-0.24,1.37a8.58,8.58,0,0,1,4.65-1.63c1.29,0,2.84.5,3.21,1.89a8.27,8.27,0,0,1,4.91-1.89c1.6,0,3.21.74,3.21,2.57a12.14,12.14,0,0,1-.18,1.68L247.59,47a7.74,7.74,0,0,0-.16,1.34,1.26,1.26,0,0,0,1.21,1.31h0.09a2.5,2.5,0,0,0,1.63-.71l0.5,0.66A5,5,0,0,1,247.58,51a2.31,2.31,0,0,1-2.5-2.47V48.4a12.3,12.3,0,0,1,.18-1.66l0.89-5a4.87,4.87,0,0,0,.1-0.89,1.61,1.61,0,0,0-1.57-1.65l-0.27,0a7.9,7.9,0,0,0-3.78,1.45l-1.81,10.17h-2.39l1.45-8.17c0.08-.5.24-1.39,0.26-1.89V40.73c0-1.1-.79-1.52-1.84-1.52a7.61,7.61,0,0,0-3.84,1.47l-1.81,10.17h-2.42Z"/><path class="cls-2" d="M262.73,48.53A10.94,10.94,0,0,1,256.27,51c-2.89,0-5.65-1.79-5.65-4.91a8.31,8.31,0,0,1,2.81-5.86,9.69,9.69,0,0,1,6.2-2.42c1.73,0,4.39.74,4.39,2.89,0,3.6-7.67,4.31-10.51,4.36a5.26,5.26,0,0,0-.18,1.29c0,2.26,1.63,3.42,3.81,3.42,1.94,0,3.36-.95,4.94-2Zm-9-4.4c2.29-.05,7.75-0.5,7.75-3.42,0-1.34-1.21-1.92-2.39-1.92C256.37,38.76,254.4,41.72,253.73,44.13Z"/><path class="cls-2" d="M287.49,47c0.37,1.68.39,2.76,2.44,3l-0.13.79h-7.07l0.13-.79c1-.13,2.15-0.29,2.15-1.58a4.31,4.31,0,0,0-.1-0.84l-0.76-3.43h-6.7l-1.21,2.23a5,5,0,0,0-.84,2.23,1.36,1.36,0,0,0,1.4,1.31h0.07L277.4,50l-0.16.79h-6.88l0.13-.79a4.22,4.22,0,0,0,3.34-2.5L282,32.87h2.52Zm-5.18-11.9L278,43h6Z"/><path class="cls-2" d="M302.42,48.32a8.47,8.47,0,0,1-6,2.68,5,5,0,0,1-5.3-4.68q0-.24,0-0.47a8.19,8.19,0,0,1,8-8c1.68,0,4,.87,4,2.86a1.47,1.47,0,0,1-1.39,1.55h-0.08a0.91,0.91,0,0,1-1-.92V40.63c0-1.1-.84-1.55-1.89-1.55-3.15,0-4.94,4.57-4.94,7.15A3.38,3.38,0,0,0,297,49.79h0.24a7.32,7.32,0,0,0,4.6-2.1Z"/><path class="cls-2" d="M315,48.32A8.47,8.47,0,0,1,309,51a5,5,0,0,1-5.3-4.68q0-.24,0-0.47a8.19,8.19,0,0,1,8-8c1.68,0,4,.87,4,2.86a1.47,1.47,0,0,1-1.39,1.55h-0.08a0.91,0.91,0,0,1-1-.92V40.63c0-1.1-.84-1.55-1.89-1.55-3.15,0-4.94,4.57-4.94,7.15a3.38,3.38,0,0,0,3.18,3.56h0.24a7.32,7.32,0,0,0,4.6-2.1Z"/><path class="cls-2" d="M321.9,51c-3.28,0-5.54-2-5.54-5.36a8.31,8.31,0,0,1,2.21-5.41,7.27,7.27,0,0,1,5.62-2.42,5.14,5.14,0,0,1,5.49,5.41A7.74,7.74,0,0,1,322,51H321.9ZM322,49.77a4.17,4.17,0,0,0,3.89-2.6,12,12,0,0,0,1-4.57,4.32,4.32,0,0,0-.81-2.81,3.1,3.1,0,0,0-2.18-.74c-3.55,0-4.91,4.47-4.91,7.33,0,2,.8,3.39,3,3.39h0Z"/><path class="cls-2" d="M343.26,46.4a12.66,12.66,0,0,0-.21,1.71,1.39,1.39,0,0,0,1.33,1.45h0a2.63,2.63,0,0,0,1.81-.95l0.63,0.53a5,5,0,0,1-3.7,1.87,2.48,2.48,0,0,1-2.65-2.3s0-.06,0-0.09a8.79,8.79,0,0,1-5.7,2.39c-1.63,0-3-.74-3-2.52A10.32,10.32,0,0,1,332,46.7l0.84-4.86a4.13,4.13,0,0,0,.13-1,1.17,1.17,0,0,0-1.13-1.21h-0.08l-0.6-.11,0.13-.79L335,38h0.89l-1.5,8.64a6,6,0,0,0-.13,1.18v0.26a1.59,1.59,0,0,0,1.59,1.59H336c1.76,0,3.36-1.08,4.7-2.08l1.71-9.51h2.34Z"/><path class="cls-2" d="M349.94,50.79h-2.39l1.6-9.12a6.09,6.09,0,0,0,.11-1c0-1-.87-1.18-1.81-1.23l0.13-.79,3.68-.6h1l-0.34,1.89a9.59,9.59,0,0,1,5.47-2.15c1.63,0,3.21.74,3.21,2.57a10.35,10.35,0,0,1-.18,1.55l-1,5.2a5.79,5.79,0,0,0-.13,1.16,1.4,1.4,0,0,0,1.26,1.39,2.73,2.73,0,0,0,1.76-.89l0.53,0.58A4.75,4.75,0,0,1,359.32,51a2.34,2.34,0,0,1-2.44-2.24s0-.07,0-0.1V48.59a16.22,16.22,0,0,1,.37-2.52L358,41.89a9.3,9.3,0,0,0,.16-1.24A1.69,1.69,0,0,0,356.41,39h-0.1c-1.68,0-3.34,1.13-4.62,2.1Z"/><path class="cls-2" d="M368.52,38.07h3.71l-0.13.79h-3.73L367.11,46a11.5,11.5,0,0,0-.26,2.13,1.49,1.49,0,0,0,1.23,1.71l0.29,0a4,4,0,0,0,2.55-1.18l0.58,0.66a5.9,5.9,0,0,1-4,1.66c-1.42,0-3.15-.47-3.15-2.21a14.28,14.28,0,0,1,.32-2.34L366,38.87h-2.28l0.13-.79c3.1-.11,3.94-2,4.49-4.73h1Z"/><path class="cls-2" d="M384.66,46.95A4.86,4.86,0,0,0,384.5,48a1.43,1.43,0,0,0,1.39,1.47h0.06a2.62,2.62,0,0,0,1.84-1l0.6,0.55A5.22,5.22,0,0,1,384.63,51a2.56,2.56,0,0,1-2.57-2.81V47.82h0A6.2,6.2,0,0,1,376.75,51c-2.92,0-4.52-2.15-4.52-4.94,0-4,3.15-8.25,7.44-8.25a5.33,5.33,0,0,1,3.89,1.55L383.8,38h2.42ZM380.3,39c-3.55,0-5.44,4.68-5.44,7.67,0,1.58.71,3,2.5,3,2,0,3.71-1.92,4.49-3.6a25,25,0,0,0,1.52-5.7A3.89,3.89,0,0,0,380.3,39h0Z"/><path class="cls-2" d="M391.47,50.79h-2.39l1.6-9.12a6.09,6.09,0,0,0,.11-1c0-1-.87-1.18-1.81-1.23l0.13-.79,3.68-.6h0.94l-0.34,1.89a9.59,9.59,0,0,1,5.47-2.15c1.63,0,3.21.74,3.21,2.57a10.35,10.35,0,0,1-.18,1.55l-1,5.22a5.79,5.79,0,0,0-.13,1.16,1.4,1.4,0,0,0,1.26,1.39,2.73,2.73,0,0,0,1.76-.89l0.53,0.58A4.75,4.75,0,0,1,400.83,51a2.34,2.34,0,0,1-2.44-2.24s0-.07,0-0.1V48.61a16.22,16.22,0,0,1,.34-2.48l0.74-4.18a9.38,9.38,0,0,0,.16-1.24,1.69,1.69,0,0,0-1.74-1.64h-0.1c-1.68,0-3.34,1.13-4.62,2.1Z"/><path class="cls-2" d="M410,38.07h3.68l-0.13.79h-3.73L408.61,46a11.46,11.46,0,0,0-.26,2.13,1.49,1.49,0,0,0,1.23,1.71l0.29,0a4,4,0,0,0,2.55-1.18L413,49.35A5.9,5.9,0,0,1,409,51c-1.42,0-3.15-.47-3.15-2.21a14.28,14.28,0,0,1,.32-2.34l1.34-7.59h-2.23l0.13-.79c3.1-.11,3.94-2,4.49-4.73h1Z"/><path class="cls-2" d="M43.45,193.45l-0.08.5c-1.33.12-1.63,0.7-1.81,1.83l-1.2,6.84a2,2,0,0,0,0,.43v0.08a1.08,1.08,0,0,0,1,1.12h0.23l-0.1.5H36.94l0.1-.5c1.28-.13,1.5-0.73,1.7-1.83l1.2-6.84A2.93,2.93,0,0,0,40,195a1,1,0,0,0-.89-1.1H38.83l0.08-.5h4.53v0Z"/><path class="cls-2" d="M46.41,196.73h2.32l-0.08.5H46.31l-0.8,4.53a7.3,7.3,0,0,0-.17,1.35,0.94,0.94,0,0,0,1,1.1,2.52,2.52,0,0,0,1.61-.75l0.37,0.42a3.74,3.74,0,0,1-2.55,1c-0.9,0-2-.3-2-1.4A9.07,9.07,0,0,1,44,202l0.85-4.81H43.38l0.08-.5c2-.07,2.5-1.25,2.85-3h0.62Z"/><path class="cls-2" d="M60.81,203.22a5.37,5.37,0,0,1-3.8,1.7,3.17,3.17,0,0,1-3.36-3q0-.14,0-0.29a5.19,5.19,0,0,1,5.08-5.1c1.07,0,2.55.55,2.55,1.81a0.93,0.93,0,0,1-.86,1H60.35a0.58,0.58,0,0,1-.65-0.58v-0.45a1,1,0,0,0-1-1l-0.22,0c-2,0-3.13,2.9-3.13,4.53a2.14,2.14,0,0,0,2,2.26h0.14a4.64,4.64,0,0,0,2.91-1.33Z"/><path class="cls-2" d="M65.15,204.92a3.23,3.23,0,0,1-3.51-3.4,5.27,5.27,0,0,1,1.4-3.43,4.61,4.61,0,0,1,3.56-1.53A3.26,3.26,0,0,1,70.08,200a4.91,4.91,0,0,1-4.89,4.93h0Zm0.08-.79a2.64,2.64,0,0,0,2.5-1.64,7.59,7.59,0,0,0,.67-2.9,2.74,2.74,0,0,0-.52-1.78,2,2,0,0,0-1.38-.47c-2.25,0-3.11,2.83-3.11,4.64C63.35,203.25,63.87,204.13,65.23,204.13Z"/><path class="cls-2" d="M73,200.64A1.81,1.81,0,0,1,71.73,199a2.22,2.22,0,0,1,1.08-1.8,4.16,4.16,0,0,1,2.3-.63,6.15,6.15,0,0,1,2.73.58,1.17,1.17,0,0,1,.77.9,0.66,0.66,0,0,1-.64.68H77.89a1,1,0,0,1-.93-0.58,1.68,1.68,0,0,0-.68-0.68,2.24,2.24,0,0,0-1.13-.28,1.47,1.47,0,0,0-1.69,1.21v0.09a1.06,1.06,0,0,0,.55.93,9,9,0,0,0,1.63.58c1.12,0.35,2.6.72,2.6,2.15a2.56,2.56,0,0,1-1.35,2.11,5,5,0,0,1-2.6.67,5.89,5.89,0,0,1-2.8-.68,1.48,1.48,0,0,1-.9-1.08,0.77,0.77,0,0,1,.77-0.73c1.42,0,.9,1.83,3.1,1.83a2.55,2.55,0,0,0,1.43-.4,1.48,1.48,0,0,0,.68-1.13c0-.85-0.8-1.1-1.48-1.32Z"/><path class="cls-2" d="M83,196.73h2.35l-0.08.5H82.93l-0.8,4.53a7.3,7.3,0,0,0-.17,1.35,0.94,0.94,0,0,0,1,1.1,2.52,2.52,0,0,0,1.61-.75l0.37,0.42a3.74,3.74,0,0,1-2.55,1c-0.9,0-2-.3-2-1.4a9.07,9.07,0,0,1,.2-1.48l0.85-4.81H80l0.08-.5c2-.07,2.5-1.25,2.85-3h0.62Z"/><path class="cls-2" d="M87.6,200.64A1.81,1.81,0,0,1,86.42,199a2.22,2.22,0,0,1,1.08-1.8,4.16,4.16,0,0,1,2.3-.63,6.15,6.15,0,0,1,2.73.58,1.17,1.17,0,0,1,.77.9,0.66,0.66,0,0,1-.64.68H92.58a1,1,0,0,1-.93-0.58,1.68,1.68,0,0,0-.68-0.68,2.24,2.24,0,0,0-1.13-.28,1.47,1.47,0,0,0-1.69,1.21v0.09a1.06,1.06,0,0,0,.55.93,9,9,0,0,0,1.63.58c1.12,0.35,2.6.72,2.6,2.15a2.56,2.56,0,0,1-1.35,2.11,5,5,0,0,1-2.6.67,5.89,5.89,0,0,1-2.8-.68,1.48,1.48,0,0,1-.9-1.08,0.77,0.77,0,0,1,.77-0.73c1.42,0,.9,1.83,3.1,1.83a2.55,2.55,0,0,0,1.43-.4,1.48,1.48,0,0,0,.68-1.13c0-.85-0.8-1.1-1.48-1.32Z"/><path class="cls-2" d="M105.49,193.8c1.17,0.15,3,.83,3,2.23a1,1,0,0,1-.89,1.1h-0.11a0.76,0.76,0,0,1-.8-0.7,8.63,8.63,0,0,1,.25-0.83c0-.6-1-1.17-2-1.17-2.21,0-2.9,1.35-2.9,2.1s0.73,1.36,2.31,1.65l0.55,0.1c1.38,0.32,3.38.68,3.38,2.5,0,2.2-2.73,3.53-4.64,3.58l-0.33,1.85h-0.7l0.35-1.85c-1.33-.07-3.5-0.73-3.5-2.35a1.15,1.15,0,0,1,1-1.26h0.15a0.8,0.8,0,0,1,.83.77h0a1,1,0,0,1-.17.6,1,1,0,0,0-.18.45,1.32,1.32,0,0,0,.8.83,4.14,4.14,0,0,0,1.48.28h0.05a6.77,6.77,0,0,0,1.65-.3,2.41,2.41,0,0,0,1.65-1.93h0c0-1.25-1.68-1.4-2.3-1.53-2.35-.47-3.95-0.92-3.95-2.83s2.46-3.25,4.25-3.25h0.07l0.3-1.7h0.7Z"/><path class="cls-2" d="M116.73,200.76h2.33l-0.42,1h-2.08l-0.17.92a2.92,2.92,0,0,0-.07.53,1.21,1.21,0,0,0,.23.75,1,1,0,0,0,.93.37h0.3l-0.08.5h-4.88l0.08-.5h0.17a1.62,1.62,0,0,0,1.23-.47,2.85,2.85,0,0,0,.55-1.6l0.1-.52h-5.14l-0.17-.72,6.76-7.54H118Zm-0.55-5.94-5.38,5.94h4.33Z"/><path class="cls-2" d="M128.21,202.52a5.15,5.15,0,0,1-4.23,2.55c-2.63,0-3.75-2.15-3.75-4.53a9.63,9.63,0,0,1,1.38-4.71,4.93,4.93,0,0,1,4.29-2.66c2.65,0,3.65,2.28,3.65,4.58A8.94,8.94,0,0,1,128.21,202.52Zm-2.38-8.62a2.82,2.82,0,0,0-2.13,1,7.12,7.12,0,0,0-1,1.91,14.43,14.43,0,0,0-.8,4.36,4,4,0,0,0,.45,2.1,1.81,1.81,0,0,0,1.58,1,3.07,3.07,0,0,0,2.15-1,5.92,5.92,0,0,0,1-1.91,15.18,15.18,0,0,0,.72-4.4c0.06-1.33-.25-3.06-2-3.06h0Z"/><path class="cls-2" d="M130.59,206.4a2.94,2.94,0,0,0,1.52-1.76,0.92,0.92,0,0,1-.7.28,0.72,0.72,0,0,1-.68-0.76v0a1.23,1.23,0,0,1,1.22-1.22,1,1,0,0,1,.93,1.06v0a3.22,3.22,0,0,1-2.16,2.7Z"/><path class="cls-2" d="M143.52,202.52a5.15,5.15,0,0,1-4.23,2.55c-2.63,0-3.75-2.15-3.75-4.53a9.63,9.63,0,0,1,1.38-4.71,4.93,4.93,0,0,1,4.31-2.7c2.65,0,3.65,2.28,3.65,4.58A8.94,8.94,0,0,1,143.52,202.52Zm-2.38-8.62a2.82,2.82,0,0,0-2.13,1,7.12,7.12,0,0,0-1,1.91,14.43,14.43,0,0,0-.8,4.36,4,4,0,0,0,.45,2.1,1.81,1.81,0,0,0,1.58,1,3.07,3.07,0,0,0,2.15-1,5.92,5.92,0,0,0,1-1.91,15.18,15.18,0,0,0,.72-4.4c0.06-1.33-.25-3.06-2-3.06h0Z"/><path class="cls-2" d="M153.84,202.52a5.15,5.15,0,0,1-4.23,2.55c-2.63,0-3.75-2.15-3.75-4.53a9.63,9.63,0,0,1,1.38-4.71,4.93,4.93,0,0,1,4.29-2.66c2.65,0,3.65,2.28,3.65,4.58A8.94,8.94,0,0,1,153.84,202.52Zm-2.38-8.62a2.82,2.82,0,0,0-2.13,1,7.12,7.12,0,0,0-1,1.91,14.43,14.43,0,0,0-.8,4.36,4,4,0,0,0,.45,2.1,1.81,1.81,0,0,0,1.58,1,3.07,3.07,0,0,0,2.15-1,5.92,5.92,0,0,0,1-1.91,15.18,15.18,0,0,0,.72-4.4c0.06-1.33-.25-3.06-2-3.06h0Z"/><path class="cls-2" d="M164.16,202.52a5.15,5.15,0,0,1-4.23,2.55c-2.63,0-3.75-2.15-3.75-4.53a9.63,9.63,0,0,1,1.38-4.71,4.93,4.93,0,0,1,4.29-2.66c2.65,0,3.65,2.28,3.65,4.58A8.94,8.94,0,0,1,164.16,202.52Zm-2.43-8.62a2.82,2.82,0,0,0-2.13,1,7.12,7.12,0,0,0-1,1.91,14.43,14.43,0,0,0-.8,4.36,4,4,0,0,0,.45,2.1,1.81,1.81,0,0,0,1.58,1,3.07,3.07,0,0,0,2.15-1,5.92,5.92,0,0,0,1-1.91,15.18,15.18,0,0,0,.72-4.4C163.81,195.63,163.49,193.9,161.73,193.9Z"/><path class="cls-2" d="M166.84,199.37h3.83l-0.47.93h-3.83Z"/><path class="cls-2" d="M177.73,193.8c1.17,0.15,3,.83,3,2.23a1,1,0,0,1-.89,1.1h-0.11a0.76,0.76,0,0,1-.8-0.7,8.63,8.63,0,0,1,.25-0.83c0-.6-1-1.17-2-1.17-2.21,0-2.9,1.35-2.9,2.1s0.73,1.36,2.31,1.65l0.55,0.1c1.38,0.32,3.38.68,3.38,2.5,0,2.2-2.73,3.53-4.64,3.58l-0.33,1.85h-0.7l0.35-1.85c-1.33-.07-3.5-0.73-3.5-2.35a1.15,1.15,0,0,1,1-1.26h0.15a0.8,0.8,0,0,1,.83.77h0a1.05,1.05,0,0,1-.17.6,1,1,0,0,0-.18.45,1.32,1.32,0,0,0,.8.83,4.14,4.14,0,0,0,1.48.28h0.05a6.77,6.77,0,0,0,1.65-.3,2.41,2.41,0,0,0,1.65-1.93h0c0-1.25-1.68-1.4-2.3-1.53-2.35-.47-3.95-0.92-3.95-2.83s2.46-3.25,4.25-3.25H177l0.3-1.7H178Z"/><path class="cls-2" d="M187.38,202.47a5.13,5.13,0,0,0-.12.88c0,0.87.87,0.88,1.53,0.92H189l-0.08.5h-5.68l0.1-.5a5.74,5.74,0,0,0,1.76-.37,1.78,1.78,0,0,0,.58-1.35l1.17-6.58a3.48,3.48,0,0,0,.07-0.58c0-.83-0.73-0.85-1.38-0.85h-0.5l0.08-.5,3.1-.62H189Z"/><path class="cls-2" d="M200.44,202.52a5.15,5.15,0,0,1-4.23,2.55c-2.63,0-3.75-2.15-3.75-4.53a9.63,9.63,0,0,1,1.38-4.71,4.93,4.93,0,0,1,4.29-2.66c2.65,0,3.65,2.28,3.65,4.58A8.94,8.94,0,0,1,200.44,202.52Zm-2.38-8.62a2.82,2.82,0,0,0-2.13,1,7.12,7.12,0,0,0-1,1.91,14.43,14.43,0,0,0-.8,4.36,4,4,0,0,0,.45,2.1,1.81,1.81,0,0,0,1.58,1,3.07,3.07,0,0,0,2.15-1,5.92,5.92,0,0,0,1-1.91A15.18,15.18,0,0,0,200,197c0.06-1.33-.3-3.06-2-3.06h0Z"/><path class="cls-2" d="M210.73,202.52a5.15,5.15,0,0,1-4.23,2.55c-2.63,0-3.75-2.15-3.75-4.53a9.63,9.63,0,0,1,1.38-4.71,4.93,4.93,0,0,1,4.29-2.66c2.65,0,3.65,2.28,3.65,4.58A8.94,8.94,0,0,1,210.73,202.52Zm-2.38-8.62a2.82,2.82,0,0,0-2.13,1,7.12,7.12,0,0,0-1,1.91,14.43,14.43,0,0,0-.8,4.36,4,4,0,0,0,.45,2.1,1.81,1.81,0,0,0,1.58,1,3.07,3.07,0,0,0,2.15-1,5.92,5.92,0,0,0,1-1.91,15.18,15.18,0,0,0,.72-4.4c0.09-1.33-.23-3.06-1.94-3.06h0Z"/><path class="cls-2" d="M213.14,206.4a2.94,2.94,0,0,0,1.52-1.76,0.92,0.92,0,0,1-.7.28,0.72,0.72,0,0,1-.65-0.78,1.23,1.23,0,0,1,1.22-1.22,1,1,0,0,1,.93,1.06v0a3.22,3.22,0,0,1-2.16,2.7Z"/><path class="cls-2" d="M226.07,202.52a5.15,5.15,0,0,1-4.23,2.55c-2.63,0-3.75-2.15-3.75-4.53a9.63,9.63,0,0,1,1.38-4.71,4.93,4.93,0,0,1,4.26-2.7c2.65,0,3.65,2.28,3.65,4.58A8.94,8.94,0,0,1,226.07,202.52Zm-2.34-8.62a2.82,2.82,0,0,0-2.13,1,7.12,7.12,0,0,0-1,1.91,14.43,14.43,0,0,0-.8,4.36,4,4,0,0,0,.45,2.1,1.81,1.81,0,0,0,1.58,1,3.07,3.07,0,0,0,2.15-1,5.92,5.92,0,0,0,1-1.91,15.18,15.18,0,0,0,.72-4.4C225.73,195.63,225.4,193.9,223.73,193.9Z"/><path class="cls-2" d="M236.39,202.52a5.15,5.15,0,0,1-4.23,2.55c-2.63,0-3.75-2.15-3.75-4.53a9.63,9.63,0,0,1,1.38-4.71,4.93,4.93,0,0,1,4.29-2.66c2.65,0,3.65,2.28,3.65,4.58A8.94,8.94,0,0,1,236.39,202.52ZM234,193.9a2.82,2.82,0,0,0-2.13,1,7.12,7.12,0,0,0-1,1.91,14.43,14.43,0,0,0-.8,4.36,4,4,0,0,0,.45,2.1,1.81,1.81,0,0,0,1.58,1,3.07,3.07,0,0,0,2.15-1,5.92,5.92,0,0,0,1-1.91A15.18,15.18,0,0,0,236,197c0.06-1.33-.25-3.06-2-3.06h0Z"/><path class="cls-2" d="M246.73,202.52a5.15,5.15,0,0,1-4.23,2.55c-2.63,0-3.75-2.15-3.75-4.53a9.63,9.63,0,0,1,1.38-4.71,4.93,4.93,0,0,1,4.29-2.66c2.65,0,3.65,2.28,3.65,4.58A8.94,8.94,0,0,1,246.73,202.52Zm-2.38-8.62a2.82,2.82,0,0,0-2.13,1,7.12,7.12,0,0,0-1,1.91,14.43,14.43,0,0,0-.8,4.36,4,4,0,0,0,.45,2.1,1.81,1.81,0,0,0,1.58,1,3.07,3.07,0,0,0,2.15-1,5.92,5.92,0,0,0,1-1.91,15.18,15.18,0,0,0,.72-4.4c0-1.33-.28-3.06-2-3.06h0Z"/><path class="cls-2" d="M261.67,202.35a3.08,3.08,0,0,0-.1.68,0.91,0.91,0,0,0,.89.93h0a1.66,1.66,0,0,0,1.17-.62l0.38,0.35a3.31,3.31,0,0,1-2.38,1.22,1.62,1.62,0,0,1-1.63-1.78v-0.22h0a3.93,3.93,0,0,1-3.33,2,2.83,2.83,0,0,1-2.86-3.13c0-2.56,2-5.23,4.71-5.23a3.38,3.38,0,0,1,2.46,1l0.15-.82h1.53Zm-2.76-5c-2.25,0-3.45,3-3.45,4.86a1.66,1.66,0,0,0,1.37,1.91l0.21,0c1.28,0,2.35-1.22,2.85-2.28a15.85,15.85,0,0,0,1-3.61,2.46,2.46,0,0,0-2-.91h0Z"/><path class="cls-2" d="M276.66,204.63a3.65,3.65,0,0,1-1.63,2.83,5.73,5.73,0,0,1-3.28,1,4.65,4.65,0,0,1-2.16-.45,1.06,1.06,0,0,1-.67-0.83,0.77,0.77,0,0,1,.85-0.68h0c1.08,0,.63,1.37,2.3,1.37a2.84,2.84,0,0,0,2-.9,4.4,4.4,0,0,0,1-2.38l0.25-1.37a5.82,5.82,0,0,1-3.71,1.7,1.7,1.7,0,0,1-2-1.7v-0.6l0.07-.53,0.55-3.11a3.11,3.11,0,0,0,.07-0.57c0-.7-0.5-0.8-1.18-0.8l0.08-.5,0.5,0,1.78-.33h0.65l-0.83,5.4a7.45,7.45,0,0,0-.12.85,1,1,0,0,0,.89,1.1h0.18a5.24,5.24,0,0,0,3.25-1.51l1-5.81H278Z"/><path class="cls-2" d="M286.67,203.35a6.93,6.93,0,0,1-4.1,1.56c-1.83,0-3.58-1.13-3.58-3.11a5.27,5.27,0,0,1,1.74-3.67,6.14,6.14,0,0,1,3.93-1.53c1.1,0,2.78.47,2.78,1.83,0,2.28-4.86,2.73-6.66,2.76a3.34,3.34,0,0,0-.12.82,2.13,2.13,0,0,0,2.08,2.18l0.33,0a5.62,5.62,0,0,0,3.13-1.25ZM281,200.54c1.45,0,4.91-.32,4.91-2.16a1.32,1.32,0,0,0-1.4-1.23h-0.12C282.62,197.13,281.37,199,281,200.54Z"/><path class="cls-2" d="M295.95,202.35a3.08,3.08,0,0,0-.1.68,0.91,0.91,0,0,0,.89.93h0a1.66,1.66,0,0,0,1.17-.62l0.38,0.35a3.31,3.31,0,0,1-2.38,1.22,1.62,1.62,0,0,1-1.63-1.78v-0.22h0a3.93,3.93,0,0,1-3.33,2,2.83,2.83,0,0,1-2.86-3.13c0-2.56,2-5.23,4.71-5.23a3.38,3.38,0,0,1,2.46,1l0.15-.82H297Zm-2.76-5c-2.25,0-3.45,3-3.45,4.86a1.66,1.66,0,0,0,1.38,1.9l0.21,0c1.28,0,2.35-1.22,2.85-2.28a15.85,15.85,0,0,0,1-3.61,2.46,2.46,0,0,0-2-.9h0Z"/><path class="cls-2" d="M301.48,197.76h0a4.15,4.15,0,0,1,2.66-1.23,0.9,0.9,0,0,1,1,.78,0.93,0.93,0,0,1-1,.88h-0.09c-0.65,0-.85-0.47-1.37-0.47-1.35,0-1.68,2-1.85,3l-0.7,4h-1.42l1-5.81a3.52,3.52,0,0,0,.08-0.58c0-.65-0.55-0.75-1.15-0.78l0.07-.41,2.33-.38h0.67Z"/><path class="cls-2" d="M313.36,196.73h2.37l-0.08.5h-2.36l-0.8,4.53a7.3,7.3,0,0,0-.17,1.35,0.94,0.94,0,0,0,1,1.1,2.52,2.52,0,0,0,1.61-.75l0.37,0.42a3.74,3.74,0,0,1-2.55,1c-0.9,0-2-.3-2-1.4a9.07,9.07,0,0,1,.2-1.48l0.78-4.77h-1.4l0.08-.5c2-.07,2.5-1.25,2.85-3h0.62Z"/><path class="cls-2" d="M319.12,204.92a3.23,3.23,0,0,1-3.51-3.4,5.27,5.27,0,0,1,1.4-3.43,4.61,4.61,0,0,1,3.56-1.53A3.26,3.26,0,0,1,324,200a4.91,4.91,0,0,1-4.89,4.93h0Zm0.08-.78a2.64,2.64,0,0,0,2.46-1.65,7.59,7.59,0,0,0,.67-2.9,2.74,2.74,0,0,0-.52-1.78,2,2,0,0,0-1.38-.47c-2.25,0-3.11,2.83-3.11,4.64,0,1.27.52,2.15,1.88,2.15h0Z"/><path class="cls-2" d="M332.73,197.76h0a4.15,4.15,0,0,1,2.66-1.23,0.9,0.9,0,0,1,1,.78,0.93,0.93,0,0,1-1,.88h-0.09c-0.65,0-.85-0.47-1.37-0.47-1.35,0-1.68,2-1.85,3l-0.7,4h-1.51l1-5.81a3.52,3.52,0,0,0,.08-0.58c0-.65-0.55-0.75-1.15-0.78l0.08-.5,2.33-.38h0.6Z"/><path class="cls-2" d="M343.92,203.35a6.93,6.93,0,0,1-4.1,1.56c-1.83,0-3.58-1.13-3.58-3.11a5.27,5.27,0,0,1,1.78-3.71,6.14,6.14,0,0,1,3.93-1.53c1.1,0,2.78.47,2.78,1.83,0,2.28-4.86,2.73-6.66,2.76a3.34,3.34,0,0,0-.12.82,2.13,2.13,0,0,0,2.08,2.18l0.33,0a5.62,5.62,0,0,0,3.13-1.25Zm-5.71-2.81c1.45,0,4.91-.32,4.91-2.16a1.32,1.32,0,0,0-1.4-1.23H341.6C339.87,197.13,338.62,199,338.21,200.54Z"/><path class="cls-2" d="M348.64,196.73H351l-0.08.5h-2.36l-0.8,4.53a7.3,7.3,0,0,0-.17,1.35,0.94,0.94,0,0,0,1,1.1,2.52,2.52,0,0,0,1.61-.75l0.37,0.42a3.74,3.74,0,0,1-2.55,1c-0.9,0-2-.3-2-1.4a9.07,9.07,0,0,1,.2-1.48l0.85-4.81h-1.42l0.08-.5c2-.07,2.5-1.25,2.85-3h0.62Z"/><path class="cls-2" d="M358.86,202.35a3.08,3.08,0,0,0-.1.68,0.91,0.91,0,0,0,.89.93h0a1.66,1.66,0,0,0,1.17-.62l0.38,0.35a3.31,3.31,0,0,1-2.38,1.22,1.62,1.62,0,0,1-1.63-1.78v-0.22h0a3.93,3.93,0,0,1-3.33,2,2.83,2.83,0,0,1-2.86-3.13c0-2.56,2-5.23,4.71-5.23a3.38,3.38,0,0,1,2.46,1l0.15-.82h1.53Zm-2.76-5c-2.25,0-3.45,3-3.45,4.86a1.66,1.66,0,0,0,1.38,1.9l0.2,0c1.28,0,2.35-1.22,2.85-2.28a15.85,15.85,0,0,0,1-3.61,2.46,2.46,0,0,0-2-.9h0Z"/><path class="cls-2" d="M363.62,202.52a2.89,2.89,0,0,0-.07.55,0.86,0.86,0,0,0,.79.93h0.11a1.81,1.81,0,0,0,1.13-.57l0.38,0.33a3.21,3.21,0,0,1-2.38,1.15,1.5,1.5,0,0,1-1.56-1.63,4,4,0,0,1,.08-0.77l0.63-3.38a3.1,3.1,0,0,0,.08-0.57c0-.68-0.5-0.8-1.08-0.88h-0.12l0.08-.5,0.68-.08a10.44,10.44,0,0,0,1.75-.33h0.55Zm0.58-6.76a0.8,0.8,0,0,1-.77-0.83v0a1.22,1.22,0,0,1,1.15-1.15,0.79,0.79,0,0,1,.87.8A1.25,1.25,0,0,1,364.2,195.76Z"/><path class="cls-2" d="M367.83,204.78h-1.51l1-5.78a3.83,3.83,0,0,0,.07-0.62c0-.65-0.55-0.75-1.15-0.78l0.08-.5,2.33-.38h0.6l-0.22,1.2a6.07,6.07,0,0,1,3.46-1.37,1.74,1.74,0,0,1,2,1.63,6.54,6.54,0,0,1-.12,1l-0.6,3.3a3.67,3.67,0,0,0-.08.73,0.89,0.89,0,0,0,.8.88,1.73,1.73,0,0,0,1.12-.57l0.33,0.37a3,3,0,0,1-2.23,1,1.48,1.48,0,0,1-1.55-1.41s0,0,0-.07h0a10.3,10.3,0,0,1,.23-1.6l0.47-2.65a5.93,5.93,0,0,0,.1-0.78,1.07,1.07,0,0,0-1.13-1h0a5.32,5.32,0,0,0-2.93,1.33Z"/><path class="cls-2" d="M389.15,202.35a3.08,3.08,0,0,0-.1.68,0.91,0.91,0,0,0,.89.93h0a1.66,1.66,0,0,0,1.17-.62l0.38,0.35a3.31,3.31,0,0,1-2.38,1.22,1.62,1.62,0,0,1-1.63-1.78v-0.22h0a3.93,3.93,0,0,1-3.33,2,2.83,2.83,0,0,1-2.86-3.13c0-2.56,2-5.23,4.71-5.23a3.38,3.38,0,0,1,2.46,1l0.15-.82h1.53Zm-2.76-5c-2.25,0-3.45,3-3.45,4.86a1.66,1.66,0,0,0,1.37,1.91l0.21,0c1.28,0,2.35-1.22,2.85-2.28a15.85,15.85,0,0,0,1-3.61,2.46,2.46,0,0,0-2-.91h0Z"/><path class="cls-2" d="M398.82,200.64a1.81,1.81,0,0,1-1.18-1.65,2.22,2.22,0,0,1,1.08-1.8,4.16,4.16,0,0,1,2.3-.63,6.15,6.15,0,0,1,2.71.57,1.17,1.17,0,0,1,.77.9,0.66,0.66,0,0,1-.64.68h-0.08a1,1,0,0,1-.93-0.58,1.68,1.68,0,0,0-.68-0.68,2.24,2.24,0,0,0-1.13-.28,1.47,1.47,0,0,0-1.69,1.21v0.09a1.06,1.06,0,0,0,.55.93,9,9,0,0,0,1.63.58c1.12,0.35,2.6.72,2.6,2.15a2.56,2.56,0,0,1-1.35,2.11,5,5,0,0,1-2.6.67,5.89,5.89,0,0,1-2.8-.68,1.48,1.48,0,0,1-.9-1.08,0.77,0.77,0,0,1,.77-0.73c1.42,0,.9,1.83,3.1,1.83a2.55,2.55,0,0,0,1.43-.4,1.48,1.48,0,0,0,.68-1.13c0-.85-0.8-1.1-1.48-1.32Z"/><path class="cls-2" d="M413.45,202.35a3.08,3.08,0,0,0-.1.68,0.91,0.91,0,0,0,.89.93h0a1.66,1.66,0,0,0,1.17-.62l0.38,0.35a3.31,3.31,0,0,1-2.38,1.22,1.62,1.62,0,0,1-1.63-1.78v-0.22h0a3.93,3.93,0,0,1-3.33,2,2.83,2.83,0,0,1-2.86-3.13c0-2.56,2-5.23,4.71-5.23a3.38,3.38,0,0,1,2.46,1l0.15-.82h1.53Zm-2.76-5c-2.25,0-3.45,3-3.45,4.86a1.66,1.66,0,0,0,1.37,1.91l0.21,0c1.28,0,2.35-1.22,2.85-2.28a15.85,15.85,0,0,0,1-3.61,2.46,2.46,0,0,0-1.94-.91h0Z"/><path class="cls-2" d="M418.06,201.87a5.81,5.81,0,0,0-.15,1.1V203a0.92,0.92,0,0,0,.89,1h0.06a1.74,1.74,0,0,0,1.17-.63l0.38,0.35a3.31,3.31,0,0,1-2.51,1.2,1.52,1.52,0,0,1-1.52-1.52s0-.06,0-0.09a6.43,6.43,0,0,1,.15-1.27l1.17-6.64a3.48,3.48,0,0,0,.07-0.58c0-.73-0.52-0.77-1.2-0.87l0.08-.5a8.86,8.86,0,0,0,2.35-.6h0.65Z"/><path class="cls-2" d="M428.43,202.35a3.08,3.08,0,0,0-.1.68,0.91,0.91,0,0,0,.89.93h0a1.66,1.66,0,0,0,1.17-.62l0.38,0.35a3.31,3.31,0,0,1-2.38,1.22,1.62,1.62,0,0,1-1.63-1.78v-0.22h0a3.93,3.93,0,0,1-3.33,2,2.83,2.83,0,0,1-2.86-3.13c0-2.56,2-5.23,4.71-5.23a3.38,3.38,0,0,1,2.46,1l0.15-.82h1.53Zm-2.76-5c-2.25,0-3.45,3-3.45,4.86a1.66,1.66,0,0,0,1.37,1.91l0.21,0c1.28,0,2.35-1.22,2.85-2.28a15.85,15.85,0,0,0,1-3.61,2.46,2.46,0,0,0-2-.91h0Z"/><path class="cls-2" d="M433.95,197.76h0a4.15,4.15,0,0,1,2.66-1.23,0.9,0.9,0,0,1,1,.78,0.93,0.93,0,0,1-1,.88h-0.09c-0.65,0-.85-0.47-1.37-0.47-1.35,0-1.68,2-1.85,3l-0.7,4h-1.51l1-5.81a3.52,3.52,0,0,0,.08-0.58c0-.65-0.55-0.75-1.15-0.78l0.08-.5,2.33-.38H434Z"/><path class="cls-2" d="M439.84,202.52a2.89,2.89,0,0,0-.07.55,0.86,0.86,0,0,0,.79.93h0.11a1.81,1.81,0,0,0,1.13-.57l0.38,0.33a3.21,3.21,0,0,1-2.38,1.15,1.5,1.5,0,0,1-1.56-1.63,4,4,0,0,1,.08-0.77l0.6-3.43a3.1,3.1,0,0,0,.08-0.57c0-.68-0.5-0.8-1.08-0.88H437.8l0.08-.5,0.68-.08a10.44,10.44,0,0,0,1.75-.33h0.55Zm0.58-6.76a0.8,0.8,0,0,1-.77-0.83v0a1.22,1.22,0,0,1,1.15-1.15,0.79,0.79,0,0,1,.87.8,1.25,1.25,0,0,1-1.24,1.22h0Z"/><path class="cls-2" d="M449.73,203.35a6.93,6.93,0,0,1-4.1,1.56c-1.83,0-3.58-1.13-3.58-3.11a5.27,5.27,0,0,1,1.78-3.71,6.14,6.14,0,0,1,3.93-1.53c1.1,0,2.78.47,2.78,1.83,0,2.28-4.86,2.73-6.66,2.76a3.34,3.34,0,0,0-.12.82,2.13,2.13,0,0,0,2.08,2.18l0.33,0a5.62,5.62,0,0,0,3.13-1.25ZM444,200.54c1.45,0,4.91-.32,4.91-2.16a1.32,1.32,0,0,0-1.4-1.23h-0.12c-1.68,0-2.94,1.88-3.36,3.38h0Z"/><path class="cls-2" d="M461.57,203.74a3.48,3.48,0,0,1-2.46,1.18,1.53,1.53,0,0,1-1.63-1.43s0-.07,0-0.1v-0.63a4.25,4.25,0,0,1-3.55,2.16c-1.9,0-2.9-1.4-2.9-3.18a5.75,5.75,0,0,1,1.4-3.61,4.63,4.63,0,0,1,3.46-1.56,3.65,3.65,0,0,1,2.53,1l0.38-2.18a3.52,3.52,0,0,0,.08-0.58c0-.72-0.58-0.8-1.18-0.87h-0.17l0.1-.5a7.24,7.24,0,0,0,2.43-.6h0.7l-1.6,9.07a7.37,7.37,0,0,0-.15,1.22,0.81,0.81,0,0,0,.73.88h0.14a1.62,1.62,0,0,0,1.23-.62Zm-3.26-5.43a2.5,2.5,0,0,0-2-1c-2.4,0-3.51,3-3.51,4.94a1.59,1.59,0,0,0,1.31,1.83l0.3,0a3.6,3.6,0,0,0,2.8-2,12.07,12.07,0,0,0,1-3.46Z"/><path class="cls-2" d="M462.11,206.4a2.94,2.94,0,0,0,1.52-1.76,0.92,0.92,0,0,1-.7.28,0.72,0.72,0,0,1-.65-0.78,1.23,1.23,0,0,1,1.22-1.22,1,1,0,0,1,.93,1.06v0a3.22,3.22,0,0,1-2.16,2.7Z"/><path class="cls-2" d="M88.1,220.77l-0.07.5H86.3l-1.1,6.41a7.79,7.79,0,0,1-1.1,3.38,4,4,0,0,1-3.31,1.4c-0.73,0-2.26-.28-2.26-1.27a0.66,0.66,0,0,1,.71-0.61h0.07c1.1,0,1.08,1.28,2.2,1.28a1.89,1.89,0,0,0,1.25-.6,3.69,3.69,0,0,0,.55-1.55l0.22-1.1,1.27-7.36H83.31l0.07-.5H84.9a4.77,4.77,0,0,1,.93-2.7,3.62,3.62,0,0,1,2.73-1.32c0.58,0,1.91.17,1.91,1a0.7,0.7,0,0,1-.73.67h0c-1,0-.65-1-1.66-1a1.18,1.18,0,0,0-.95.57,3.57,3.57,0,0,0-.45,1.47l-0.23,1.36h1.7v0Z"/><path class="cls-2" d="M96,226a8,8,0,0,0-.13,1.08,0.88,0.88,0,0,0,.84.92h0a1.67,1.67,0,0,0,1.15-.6l0.4,0.33a3.17,3.17,0,0,1-2.35,1.18,1.57,1.57,0,0,1-1.68-1.46v-0.05a5.57,5.57,0,0,1-3.61,1.51,1.64,1.64,0,0,1-1.91-1.6,6.58,6.58,0,0,1,.13-1.13l0.52-3.09a2.59,2.59,0,0,0,.08-0.62,0.74,0.74,0,0,0-.71-0.77H88.69l-0.38-.07,0.08-.5,2.33-.43h0.57l-0.95,5.48a3.8,3.8,0,0,0-.08.75v0.16a1,1,0,0,0,1,1h0.11a5.28,5.28,0,0,0,3-1.32l1.08-6H97Z"/><path class="cls-2" d="M100.52,225.91a5.81,5.81,0,0,0-.15,1.1v0.12a0.92,0.92,0,0,0,.89,1h0.06a1.74,1.74,0,0,0,1.17-.63l0.38,0.35a3.31,3.31,0,0,1-2.51,1.2,1.52,1.52,0,0,1-1.52-1.52s0-.06,0-0.09a6.43,6.43,0,0,1,.15-1.27l1.17-6.64a3.48,3.48,0,0,0,.07-0.58c0-.73-0.52-0.77-1.2-0.87l0.08-.5a8.86,8.86,0,0,0,2.35-.6h0.65Z"/><path class="cls-2" d="M105.18,225.91A5.81,5.81,0,0,0,105,227v0.12a0.92,0.92,0,0,0,.89,1H106a1.74,1.74,0,0,0,1.17-.63l0.38,0.35A3.31,3.31,0,0,1,105,229a1.52,1.52,0,0,1-1.52-1.52s0-.06,0-0.09a6.43,6.43,0,0,1,.15-1.27l1.17-6.64a3.48,3.48,0,0,0,.07-0.58c0-.73-0.52-0.77-1.2-0.87l0.08-.5a8.86,8.86,0,0,0,2.35-.6h0.61Z"/><path class="cls-2" d="M108.25,223.41h3.83l-0.47.93h-3.83Z"/><path class="cls-2" d="M116.31,220.77h2.35l-0.08.5h-2.36l-0.8,4.53a7.3,7.3,0,0,0-.17,1.35,0.94,0.94,0,0,0,1,1.1,2.52,2.52,0,0,0,1.61-.75l0.37,0.42a3.74,3.74,0,0,1-2.55,1c-0.9,0-2-.3-2-1.4a9.07,9.07,0,0,1,.2-1.48l0.85-4.81h-1.42l0.08-.5c2-.07,2.5-1.25,2.85-3h0.62Z"/><path class="cls-2" d="M121,226.56a2.92,2.92,0,0,0-.07.55,0.86,0.86,0,0,0,.79.93h0.11a1.81,1.81,0,0,0,1.13-.57l0.38,0.33a3.21,3.21,0,0,1-2.38,1.15,1.5,1.5,0,0,1-1.56-1.63,4,4,0,0,1,.08-0.77l0.6-3.43a3.1,3.1,0,0,0,.08-0.57c0-.68-0.5-0.8-1.08-0.88h-0.12l0.08-.5,0.72,0a10.44,10.44,0,0,0,1.75-.33H122Zm0.58-6.76a0.8,0.8,0,0,1-.77-0.83v0a1.22,1.22,0,0,1,1.15-1.15,0.79,0.79,0,0,1,.87.8,1.25,1.25,0,0,1-1.25,1.22h0Z"/><path class="cls-2" d="M124.73,223.13a3.82,3.82,0,0,0,.07-0.62,0.74,0.74,0,0,0-.71-0.77H124l-0.38-.07,0.1-.5a14.07,14.07,0,0,0,2.35-.38h0.58l-0.15.87a5.44,5.44,0,0,1,2.95-1,2,2,0,0,1,2,1.2,5.24,5.24,0,0,1,3.11-1.2,1.75,1.75,0,0,1,2,1.48q0,0.08,0,.15a7.74,7.74,0,0,1-.12,1.07l-0.57,3.13a4.89,4.89,0,0,0-.1.85,0.8,0.8,0,0,0,.78.82h0a1.58,1.58,0,0,0,1-.45l0.32,0.42a3.16,3.16,0,0,1-2.08.9,1.46,1.46,0,0,1-1.58-1.56v-0.08a7.79,7.79,0,0,1,.12-1l0.57-3.2a3.06,3.06,0,0,0,.07-0.57,1,1,0,0,0-1-1h-0.18a5,5,0,0,0-2.4.92L130.32,229h-1.51l0.92-5.18c0-.32.15-0.88,0.17-1.2h0a1,1,0,0,0-1-1h-0.18a4.82,4.82,0,0,0-2.43.93L125.15,229h-1.51Z"/><path class="cls-2" d="M145.54,227.39a6.93,6.93,0,0,1-4.1,1.56c-1.83,0-3.58-1.13-3.58-3.11a5.27,5.27,0,0,1,1.78-3.71,6.14,6.14,0,0,1,3.93-1.53c1.1,0,2.78.47,2.78,1.83,0,2.28-4.86,2.73-6.66,2.76a3.34,3.34,0,0,0-.12.82,2.13,2.13,0,0,0,2.08,2.18l0.33,0a5.62,5.62,0,0,0,3.13-1.25Zm-5.71-2.81c1.45,0,4.91-.32,4.91-2.16a1.32,1.32,0,0,0-1.4-1.23h-0.12c-1.73,0-3,1.93-3.39,3.38h0Z"/><path class="cls-2" d="M159.82,226.39a3.08,3.08,0,0,0-.1.68,0.91,0.91,0,0,0,.89.93h0a1.66,1.66,0,0,0,1.17-.62l0.38,0.35a3.31,3.31,0,0,1-2.38,1.22,1.62,1.62,0,0,1-1.63-1.78V227h0a3.93,3.93,0,0,1-3.33,2,2.83,2.83,0,0,1-2.86-3.13c0-2.56,2-5.23,4.71-5.23a3.38,3.38,0,0,1,2.46,1l0.15-.82h1.53Zm-2.76-5c-2.25,0-3.45,3-3.45,4.86a1.66,1.66,0,0,0,1.37,1.91l0.21,0c1.28,0,2.35-1.22,2.85-2.28a15.85,15.85,0,0,0,1-3.61,2.46,2.46,0,0,0-2-.91h0Z"/><path class="cls-2" d="M169.32,227.26a5.37,5.37,0,0,1-3.8,1.7,3.17,3.17,0,0,1-3.36-3q0-.14,0-0.29a5.19,5.19,0,0,1,5.06-5.09c1.07,0,2.55.55,2.55,1.81a0.93,0.93,0,0,1-.86,1h-0.07a0.58,0.58,0,0,1-.65-0.58v-0.45a1,1,0,0,0-1-1l-0.22,0c-2,0-3.13,2.9-3.13,4.53a2.14,2.14,0,0,0,2,2.26H166a4.64,4.64,0,0,0,2.91-1.33Z"/><path class="cls-2" d="M177.31,227.26a5.37,5.37,0,0,1-3.8,1.7,3.17,3.17,0,0,1-3.36-3q0-.14,0-0.29a5.19,5.19,0,0,1,5.06-5.09c1.07,0,2.55.55,2.55,1.81a0.93,0.93,0,0,1-.86,1h-0.07a0.58,0.58,0,0,1-.65-0.58v-0.45a1,1,0,0,0-1-1l-0.22,0c-2,0-3.13,2.9-3.13,4.53a2.14,2.14,0,0,0,2.07,2.21H174a4.64,4.64,0,0,0,2.91-1.33Z"/><path class="cls-2" d="M181.65,229a3.23,3.23,0,0,1-3.51-3.4,5.27,5.27,0,0,1,1.4-3.43,4.61,4.61,0,0,1,3.56-1.53,3.26,3.26,0,0,1,3.48,3.43,4.91,4.91,0,0,1-4.89,4.93h0Zm0.08-.83a2.64,2.64,0,0,0,2.46-1.65,7.59,7.59,0,0,0,.67-2.9,2.74,2.74,0,0,0-.52-1.78,2,2,0,0,0-1.38-.47c-2.25,0-3.11,2.83-3.11,4.64C179.85,227.29,180.37,228.13,181.73,228.13Z"/><path class="cls-2" d="M195.18,226a8,8,0,0,0-.13,1.08,0.88,0.88,0,0,0,.84.92h0a1.67,1.67,0,0,0,1.15-.6l0.4,0.33a3.17,3.17,0,0,1-2.35,1.18,1.57,1.57,0,0,1-1.68-1.46v-0.05a5.57,5.57,0,0,1-3.61,1.51,1.64,1.64,0,0,1-1.91-1.6,6.58,6.58,0,0,1,.13-1.13l0.53-3.08a2.59,2.59,0,0,0,.08-0.62,0.74,0.74,0,0,0-.71-0.77h-0.06l-0.38-.07,0.08-.5,2.33-.43h0.57l-0.95,5.48a3.8,3.8,0,0,0-.08.75v0.15a1,1,0,0,0,1,1h0.11a5.28,5.28,0,0,0,3-1.32l1.08-6h1.52Z"/><path class="cls-2" d="M199.41,228.82H197.9l1-5.78a3.83,3.83,0,0,0,.07-0.62c0-.65-0.55-0.75-1.15-0.78l0.08-.5,2.33-.38h0.6l-0.22,1.2a6.07,6.07,0,0,1,3.46-1.37,1.74,1.74,0,0,1,2,1.63,6.54,6.54,0,0,1-.12,1l-0.6,3.3a3.67,3.67,0,0,0-.08.73,0.89,0.89,0,0,0,.8.88,1.73,1.73,0,0,0,1.12-.57l0.33,0.37a3,3,0,0,1-2.23,1,1.48,1.48,0,0,1-1.55-1.41s0,0,0-.07h0a10.3,10.3,0,0,1,.23-1.6l0.47-2.65a5.93,5.93,0,0,0,.1-0.78,1.07,1.07,0,0,0-1.13-1h0a5.32,5.32,0,0,0-2.93,1.33Z"/><path class="cls-2" d="M211.17,220.77h2.35l-0.08.5h-2.36l-0.8,4.53a7.3,7.3,0,0,0-.17,1.35,0.94,0.94,0,0,0,1,1.1,2.52,2.52,0,0,0,1.61-.75l0.37,0.42a3.74,3.74,0,0,1-2.55,1c-0.9,0-2-.3-2-1.4a9.07,9.07,0,0,1,.2-1.48l0.85-4.81h-1.42l0.08-.5c2-.07,2.5-1.25,2.85-3h0.63Z"/><path class="cls-2" d="M221.39,226.39a3.08,3.08,0,0,0-.1.68,0.91,0.91,0,0,0,.89.93h0a1.66,1.66,0,0,0,1.17-.62l0.38,0.35a3.31,3.31,0,0,1-2.38,1.22,1.62,1.62,0,0,1-1.65-1.82v-0.22h0a3.93,3.93,0,0,1-3.33,2,2.83,2.83,0,0,1-2.86-3.13c0-2.56,2-5.23,4.71-5.23a3.38,3.38,0,0,1,2.46,1l0.15-.82h1.53Zm-2.76-5c-2.25,0-3.45,3-3.45,4.86a1.66,1.66,0,0,0,1.42,1.87h0.13c1.28,0,2.35-1.22,2.85-2.28a15.85,15.85,0,0,0,1-3.61,2.46,2.46,0,0,0-2-.86h0Z"/><path class="cls-2" d="M225.73,228.82h-1.51l1-5.78a3.83,3.83,0,0,0,.07-0.62c0-.65-0.55-0.75-1.15-0.78l0.08-.5,2.33-.38h0.6l-0.22,1.2a6.07,6.07,0,0,1,3.46-1.37,1.74,1.74,0,0,1,2,1.63,6.54,6.54,0,0,1-.12,1l-0.6,3.3a3.67,3.67,0,0,0-.08.73,0.89,0.89,0,0,0,.8.88,1.73,1.73,0,0,0,1.12-.57l0.33,0.37a3,3,0,0,1-2.23,1,1.48,1.48,0,0,1-1.55-1.41s0,0,0-.07h0a10.3,10.3,0,0,1,.23-1.6l0.47-2.65a5.93,5.93,0,0,0,.1-0.78,1.07,1.07,0,0,0-1.13-1h0a5.32,5.32,0,0,0-2.93,1.33Z"/><path class="cls-2" d="M237.47,220.77h2.35l-0.08.5h-2.36l-0.8,4.53a7.3,7.3,0,0,0-.17,1.35,0.94,0.94,0,0,0,1,1.1,2.52,2.52,0,0,0,1.61-.75l0.37,0.42a3.74,3.74,0,0,1-2.55,1c-0.9,0-2-.3-2-1.4A9.07,9.07,0,0,1,235,226l0.85-4.81h-1.42l0.08-.5c2-.07,2.5-1.25,2.85-3H238Z"/><path class="cls-2" d="M240.23,228a1.35,1.35,0,0,1,1.31-1.33,0.92,0.92,0,0,1,.93,1,1.35,1.35,0,0,1-1.33,1.28A0.86,0.86,0,0,1,240.23,228Z"/><path class="cls-2" d="M260.87,220.75l-0.68.17a4.23,4.23,0,0,0-4.25-2.65h-0.37a2.93,2.93,0,0,0-1.3.2,1.41,1.41,0,0,0-.62,1.22l-0.48,2.76h1.1c1.6,0,1.93-.48,2.41-2h0.53l-0.83,4.78h-0.53V225c0-1.22-.38-1.76-1.65-1.76H253l-0.62,3.5a2.59,2.59,0,0,0,0,.52c0,0.77,1,.8,1.58.8h0.15a7.26,7.26,0,0,0,5.79-2.85l0.53,0.23-1.61,3.4H249l0.08-.5c1.33-.12,1.55-0.72,1.75-1.83l1.2-6.83a3.3,3.3,0,0,0,.07-0.55,1,1,0,0,0-.87-1.11h-0.33l0.08-.5h9.27Z"/><path class="cls-2" d="M263.47,226.33a3.67,3.67,0,0,0-.08.73,1,1,0,0,0,1.27,1,3.91,3.91,0,0,0,3.63-3.85c0-1.9-1.31-1.66-1.31-2.61a1,1,0,0,1,1-1,1.21,1.21,0,0,1,1,.73,3.6,3.6,0,0,1,.3,1.56c0,3-1.86,6.06-5.18,6.06-1.17,0-2.28-.33-2.28-1.68a6.58,6.58,0,0,1,.13-1.15l0.53-3a3.06,3.06,0,0,0,.07-0.57,0.74,0.74,0,0,0-.66-0.82H261.8l-0.42-.07,0.08-.5a10.88,10.88,0,0,0,2.43-.38h0.53Z"/><path class="cls-2" d="M277.68,227.39a6.93,6.93,0,0,1-4.1,1.56c-1.83,0-3.58-1.13-3.58-3.11a5.27,5.27,0,0,1,1.78-3.71,6.14,6.14,0,0,1,3.93-1.53c1.1,0,2.78.47,2.78,1.83,0,2.28-4.86,2.73-6.66,2.76a3.34,3.34,0,0,0-.12.82,2.13,2.13,0,0,0,2.12,2.14l0.3,0a5.62,5.62,0,0,0,3.13-1.25ZM272,224.58c1.45,0,4.91-.32,4.91-2.16a1.32,1.32,0,0,0-1.4-1.23h-0.12c-1.73,0-3,1.93-3.39,3.38h0Z"/><path class="cls-2" d="M281,228.82h-1.51l1-5.78a3.83,3.83,0,0,0,.07-0.62c0-.65-0.55-0.75-1.15-0.78l0.08-.5,2.33-.38h0.6l-0.22,1.2a6.07,6.07,0,0,1,3.46-1.37,1.74,1.74,0,0,1,2,1.63,6.54,6.54,0,0,1-.12,1l-0.6,3.3a3.67,3.67,0,0,0-.08.73,0.89,0.89,0,0,0,.8.88,1.73,1.73,0,0,0,1.12-.57l0.33,0.37a3,3,0,0,1-2.23,1,1.48,1.48,0,0,1-1.55-1.41s0,0,0-.07h0a10.3,10.3,0,0,1,.23-1.6L286,223.2a5.93,5.93,0,0,0,.1-0.78,1.07,1.07,0,0,0-1.13-1h0a5.32,5.32,0,0,0-2.93,1.33Z"/><path class="cls-2" d="M295.73,223.13a3.82,3.82,0,0,0,.07-0.62,0.74,0.74,0,0,0-.71-0.77H295l-0.38-.07,0.1-.5a14.07,14.07,0,0,0,2.35-.38h0.63l-0.15.87a5.44,5.44,0,0,1,3-1,2,2,0,0,1,2,1.2,5.24,5.24,0,0,1,3.11-1.2,1.75,1.75,0,0,1,2,1.48q0,0.08,0,.15a7.74,7.74,0,0,1-.12,1.07l-0.57,3.13a4.89,4.89,0,0,0-.1.85,0.8,0.8,0,0,0,.78.82h0a1.58,1.58,0,0,0,1-.45l0.32,0.42a3.16,3.16,0,0,1-2.08.9,1.46,1.46,0,0,1-1.58-1.56v-0.08a7.79,7.79,0,0,1,.12-1l0.57-3.2a3.06,3.06,0,0,0,.07-0.57,1,1,0,0,0-1-1h-0.18a5,5,0,0,0-2.4.92L301.37,229h-1.44l0.92-5.18c0-.32.15-0.88,0.17-1.2h0a1,1,0,0,0-1-1h-0.18a4.82,4.82,0,0,0-2.43.93L296.27,229h-1.54Z"/><path class="cls-2" d="M312.46,229a3.23,3.23,0,0,1-3.51-3.4,5.27,5.27,0,0,1,1.4-3.43,4.61,4.61,0,0,1,3.56-1.53,3.26,3.26,0,0,1,3.48,3.43A4.91,4.91,0,0,1,312.5,229h0Zm0.08-.78a2.64,2.64,0,0,0,2.46-1.65,7.59,7.59,0,0,0,.67-2.9,2.74,2.74,0,0,0-.52-1.78,2,2,0,0,0-1.38-.47c-2.25,0-3.11,2.83-3.11,4.64,0,1.27.52,2.11,1.89,2.11v0Z"/><path class="cls-2" d="M321.12,221.8h0a4.15,4.15,0,0,1,2.66-1.23,0.9,0.9,0,0,1,1,.78,0.93,0.93,0,0,1-1,.88h-0.09c-0.65,0-.85-0.47-1.37-0.47-1.35,0-1.68,2-1.85,3l-0.7,4h-1.51l1-5.81a3.52,3.52,0,0,0,.08-0.58c0-.65-0.55-0.75-1.15-0.78l0.08-.5,2.33-.38h0.6Z"/><path class="cls-2" d="M332.27,227.39a6.93,6.93,0,0,1-4.1,1.56c-1.83,0-3.58-1.13-3.58-3.11a5.27,5.27,0,0,1,1.78-3.71,6.14,6.14,0,0,1,3.93-1.53c1.1,0,2.78.47,2.78,1.83,0,2.28-4.86,2.73-6.66,2.76a3.34,3.34,0,0,0-.12.82,2.13,2.13,0,0,0,2.12,2.14l0.31,0a5.62,5.62,0,0,0,3.13-1.25Zm-5.71-2.81c1.45,0,4.91-.32,4.91-2.16a1.32,1.32,0,0,0-1.4-1.23h-0.12c-1.73,0-3,1.93-3.39,3.38h0Z"/><path class="cls-2" d="M341.15,225.93a7,7,0,0,0-.15,1.17,1.08,1.08,0,0,0,1.14,1l0.16,0a5,5,0,0,0,2.78-1.17l1.1-6.18h1.55l-0.83,4.68a8.31,8.31,0,0,0-.17,1.32v0.08a1.19,1.19,0,0,0,1.15,1.23H348a3.2,3.2,0,0,0,2.3-1.17,4.08,4.08,0,0,0,1-2.7c0-1.86-1.25-1.6-1.25-2.56a1,1,0,0,1,1-1,1.25,1.25,0,0,1,1,.68,2.85,2.85,0,0,1,.3,1.43c0,3-1.8,6.24-5.16,6.24-0.87,0-2-.37-2.06-1.38a6,6,0,0,1-3.53,1.38c-1.15,0-2.15-.42-2.15-1.73a3.47,3.47,0,0,1,.08-0.72l0.58-3.3a3.29,3.29,0,0,0,.07-0.57c0-.73-0.52-0.78-1.23-0.92l0.08-.5a9.26,9.26,0,0,0,2.45-.48H342Z"/><path class="cls-2" d="M355.27,219.4a3.11,3.11,0,0,0,.07-0.57,0.72,0.72,0,0,0-.63-0.8h-0.14l-0.4,0,0.08-.5a10.39,10.39,0,0,0,2.38-.6h0.6l-0.9,5.09a6.29,6.29,0,0,1,3.51-1.38c1,0,2.1.4,2.1,1.55a9.82,9.82,0,0,1-.2,1.55l-0.43,2.44a7.41,7.41,0,0,0-.15,1.07,0.87,0.87,0,0,0,.87.87h0.05a1.72,1.72,0,0,0,1.17-.58l0.37,0.37a3.29,3.29,0,0,1-2.28,1.08,1.55,1.55,0,0,1-1.7-1.61,5.67,5.67,0,0,1,.13-1l0.52-3a7.68,7.68,0,0,0,.1-0.87h0a1.06,1.06,0,0,0-1.11-1h-0.07a5.87,5.87,0,0,0-3,1.37l-1.07,6.08h-1.53Z"/><path class="cls-2" d="M371.21,227.39a6.93,6.93,0,0,1-4.1,1.56c-1.83,0-3.58-1.13-3.58-3.11a5.27,5.27,0,0,1,1.78-3.71,6.14,6.14,0,0,1,3.93-1.53c1.1,0,2.78.47,2.78,1.83,0,2.28-4.86,2.73-6.66,2.76a3.34,3.34,0,0,0-.12.82,2.13,2.13,0,0,0,2.08,2.18l0.33,0a5.62,5.62,0,0,0,3.13-1.25Zm-5.71-2.81c1.45,0,4.91-.32,4.91-2.16a1.32,1.32,0,0,0-1.4-1.23h-0.12c-1.72,0-3,1.93-3.39,3.38h0Z"/><path class="cls-2" d="M374.49,228.82H373l1-5.78a3.83,3.83,0,0,0,.07-0.62c0-.65-0.55-0.75-1.15-0.78l0.08-.5,2.33-.38h0.6l-0.22,1.2a6.07,6.07,0,0,1,3.46-1.37,1.74,1.74,0,0,1,2,1.63,6.54,6.54,0,0,1-.12,1l-0.6,3.3a3.67,3.67,0,0,0-.08.73,0.89,0.89,0,0,0,.8.88,1.73,1.73,0,0,0,1.12-.57l0.33,0.37a3,3,0,0,1-2.23,1,1.48,1.48,0,0,1-1.55-1.41s0,0,0-.07h0a10.3,10.3,0,0,1,.23-1.6l0.47-2.65a5.93,5.93,0,0,0,.1-0.78,1.07,1.07,0,0,0-1.13-1h0a5.32,5.32,0,0,0-2.93,1.33Z"/><path class="cls-2" d="M395.49,228.67a3.65,3.65,0,0,1-1.63,2.83,5.73,5.73,0,0,1-3.28,1,4.65,4.65,0,0,1-2.16-.45,1.06,1.06,0,0,1-.67-0.83,0.77,0.77,0,0,1,.85-0.68h0c1.08,0,.63,1.37,2.3,1.37a2.84,2.84,0,0,0,2-.9,4.4,4.4,0,0,0,1-2.38l0.25-1.37a5.82,5.82,0,0,1-3.71,1.7,1.7,1.7,0,0,1-2-1.7v-0.6l0.07-.53,0.55-3.11a3.11,3.11,0,0,0,.07-0.57c0-.7-0.5-0.8-1.18-0.8l0.08-.5,0.5,0,1.78-.33H391l-0.83,5.36a7.45,7.45,0,0,0-.12.85,1,1,0,0,0,.89,1.1h0.18a5.24,5.24,0,0,0,3.25-1.51l1-5.81h1.51Z"/><path class="cls-2" d="M401.33,229a3.23,3.23,0,0,1-3.51-3.4,5.27,5.27,0,0,1,1.4-3.43,4.61,4.61,0,0,1,3.56-1.53,3.26,3.26,0,0,1,3.48,3.43,4.91,4.91,0,0,1-4.89,4.93h0Zm0.08-.78a2.64,2.64,0,0,0,2.46-1.65,7.59,7.59,0,0,0,.67-2.9,2.74,2.74,0,0,0-.52-1.78,2,2,0,0,0-1.38-.47c-2.25,0-3.11,2.83-3.11,4.64,0,1.27.52,2.11,1.89,2.11v0Z"/><path class="cls-2" d="M414.87,226a8,8,0,0,0-.14,1.09,0.88,0.88,0,0,0,.84.92h0a1.67,1.67,0,0,0,1.15-.6l0.4,0.33A3.17,3.17,0,0,1,414.8,229a1.57,1.57,0,0,1-1.68-1.46v-0.05a5.57,5.57,0,0,1-3.61,1.51,1.64,1.64,0,0,1-1.91-1.6,6.58,6.58,0,0,1,.13-1.13l0.53-3.08a2.59,2.59,0,0,0,.08-0.62,0.74,0.74,0,0,0-.71-0.77h-0.06l-0.38-.07,0.08-.5,2.33-.43h0.57l-1,5.48a3.8,3.8,0,0,0-.08.75v0.14a1,1,0,0,0,1,1h0.11a5.28,5.28,0,0,0,3-1.32l1.08-6h1.52Z"/><path class="cls-2" d="M145.73,244.81l-0.07.5h-1.73l-1.1,6.41a7.79,7.79,0,0,1-1.1,3.41,4,4,0,0,1-3.31,1.4c-0.73,0-2.26-.28-2.26-1.27a0.66,0.66,0,0,1,.71-0.61h0.07c1.1,0,1.08,1.28,2.2,1.28a1.89,1.89,0,0,0,1.25-.6,3.69,3.69,0,0,0,.55-1.55l0.22-1.1,1.27-7.36h-1.48l0.07-.5h1.52a4.77,4.77,0,0,1,.93-2.7,3.62,3.62,0,0,1,2.73-1.32c0.58,0,1.91.17,1.91,1a0.7,0.7,0,0,1-.73.67h0c-1,0-.65-1-1.66-1a1.18,1.18,0,0,0-.95.57,3.57,3.57,0,0,0-.45,1.47L144,244.88h1.68v-0.07Z"/><path class="cls-2" d="M153.49,250.43a3.08,3.08,0,0,0-.1.68,0.91,0.91,0,0,0,.89.93h0a1.66,1.66,0,0,0,1.17-.62l0.38,0.35a3.31,3.31,0,0,1-2.38,1.22,1.62,1.62,0,0,1-1.63-1.78V251h0a3.93,3.93,0,0,1-3.33,2,2.83,2.83,0,0,1-2.86-3.13c0-2.56,2-5.23,4.71-5.23a3.38,3.38,0,0,1,2.46,1l0.15-.82h1.53Zm-2.76-5c-2.25,0-3.45,3-3.45,4.86a1.66,1.66,0,0,0,1.37,1.91l0.21,0c1.28,0,2.35-1.22,2.85-2.28a15.85,15.85,0,0,0,1-3.61,2.46,2.46,0,0,0-2-.91h0Z"/><path class="cls-2" d="M163,251.3a5.37,5.37,0,0,1-3.8,1.7,3.17,3.17,0,0,1-3.36-3q0-.14,0-0.29a5.19,5.19,0,0,1,5.06-5.09c1.07,0,2.55.55,2.55,1.81a0.93,0.93,0,0,1-.86,1h-0.07a0.58,0.58,0,0,1-.65-0.58v-0.45a1,1,0,0,0-1-1l-0.22,0c-2,0-3.13,2.9-3.13,4.53a2.14,2.14,0,0,0,2,2.26h0.14a4.64,4.64,0,0,0,2.91-1.33Z"/><path class="cls-2" d="M167.24,244.81h2.35l-0.08.5h-2.36l-0.8,4.53a7.3,7.3,0,0,0-.17,1.35,0.94,0.94,0,0,0,1,1.1,2.52,2.52,0,0,0,1.61-.75l0.37,0.42a3.74,3.74,0,0,1-2.55,1c-0.9,0-2-.3-2-1.4a9.07,9.07,0,0,1,.12-1.43l0.85-4.81h-1.42l0.08-.5c2-.07,2.5-1.25,2.85-3h0.64Z"/><path class="cls-2" d="M173,253a3.23,3.23,0,0,1-3.51-3.4,5.27,5.27,0,0,1,1.4-3.43,4.61,4.61,0,0,1,3.56-1.53,3.26,3.26,0,0,1,3.48,3.43A4.91,4.91,0,0,1,173,253h0Zm0.08-.78a2.64,2.64,0,0,0,2.46-1.65,7.59,7.59,0,0,0,.67-2.9,2.74,2.74,0,0,0-.52-1.78,2,2,0,0,0-1.38-.47c-2.25,0-3.11,2.83-3.11,4.64,0,1.27.53,2.15,1.88,2.15h0Z"/><path class="cls-2" d="M181.65,245.84h0a4.15,4.15,0,0,1,2.66-1.23,0.9,0.9,0,0,1,1,.78,0.93,0.93,0,0,1-1,.88h-0.09c-0.65,0-.85-0.47-1.37-0.47-1.35,0-1.68,2-1.85,3l-0.7,4h-1.51l1-5.81a3.52,3.52,0,0,0,.08-0.58c0-.65-0.55-0.75-1.15-0.78l0.08-.5,2.33-.38h0.6Z"/><path class="cls-2" d="M192.53,250.6a2.93,2.93,0,0,0-.07.55,0.86,0.86,0,0,0,.79.93h0.11a1.81,1.81,0,0,0,1.13-.57l0.38,0.33a3.21,3.21,0,0,1-2.38,1.15,1.5,1.5,0,0,1-1.56-1.63,4,4,0,0,1,.08-0.77l0.6-3.43a3.1,3.1,0,0,0,.08-0.57c0-.68-0.5-0.8-1.08-0.88h-0.12l0.08-.5,0.68-.08a10.44,10.44,0,0,0,1.75-.33h0.55Zm0.58-6.76a0.8,0.8,0,0,1-.77-0.83v0a1.22,1.22,0,0,1,1.15-1.15,0.79,0.79,0,0,1,.87.8,1.25,1.25,0,0,1-1.24,1.22h0Z"/><path class="cls-2" d="M196.73,252.86h-1.5l1-5.78a3.83,3.83,0,0,0,.07-0.62c0-.65-0.55-0.75-1.15-0.78l0.08-.5,2.33-.38h0.6l-0.22,1.2a6.07,6.07,0,0,1,3.46-1.37,1.74,1.74,0,0,1,2,1.63,6.54,6.54,0,0,1-.12,1l-0.6,3.3a3.67,3.67,0,0,0-.08.73,0.89,0.89,0,0,0,.8.88,1.73,1.73,0,0,0,1.12-.57l0.33,0.37a3,3,0,0,1-2.23,1,1.48,1.48,0,0,1-1.55-1.41s0,0,0-.07h0a10.3,10.3,0,0,1,.23-1.6l0.47-2.65a5.93,5.93,0,0,0,.1-0.78,1.07,1.07,0,0,0-1.13-1h0a5.32,5.32,0,0,0-2.93,1.33Z"/><path class="cls-2" d="M213.5,244.81h2.35l-0.08.5h-2.36l-0.8,4.53a7.3,7.3,0,0,0-.17,1.35,0.94,0.94,0,0,0,1,1.1,2.52,2.52,0,0,0,1.61-.75l0.37,0.42a3.74,3.74,0,0,1-2.55,1c-0.9,0-2-.3-2-1.4a9.07,9.07,0,0,1,.2-1.48l0.85-4.81H210.5l0.08-.5c2-.07,2.5-1.25,2.85-3H214Z"/><path class="cls-2" d="M217.8,243.44a3.11,3.11,0,0,0,.07-0.57,0.73,0.73,0,0,0-.66-0.8H216.7l0.08-.5a10.4,10.4,0,0,0,2.38-.6h0.57l-0.9,5.09a6.29,6.29,0,0,1,3.51-1.38c1,0,2.1.4,2.1,1.55a9.82,9.82,0,0,1-.2,1.55l-0.43,2.46a7.41,7.41,0,0,0-.15,1.07,0.87,0.87,0,0,0,.87.87h0.05a1.72,1.72,0,0,0,1.17-.58l0.37,0.37a3.29,3.29,0,0,1-2.28,1.08,1.55,1.55,0,0,1-1.7-1.61,5.67,5.67,0,0,1,.13-1l0.52-3a7.68,7.68,0,0,0,.1-0.87h0a1.06,1.06,0,0,0-1.11-1h-0.07a5.87,5.87,0,0,0-3,1.37L217.64,253h-1.51Z"/><path class="cls-2" d="M233.73,251.43a6.93,6.93,0,0,1-4.1,1.56c-1.83,0-3.58-1.13-3.58-3.11a5.27,5.27,0,0,1,1.78-3.71,6.14,6.14,0,0,1,3.93-1.53c1.1,0,2.78.47,2.78,1.83,0,2.28-4.86,2.73-6.66,2.76a3.34,3.34,0,0,0-.12.82,2.13,2.13,0,0,0,2.08,2.18l0.33,0A5.62,5.62,0,0,0,233.3,251ZM228,248.62c1.45,0,4.91-.32,4.91-2.16a1.32,1.32,0,0,0-1.4-1.23h-0.12c-1.68,0-3,1.89-3.38,3.38h0Z"/><path class="cls-2" d="M247.21,251.3a5.37,5.37,0,0,1-3.8,1.7,3.17,3.17,0,0,1-3.36-3q0-.14,0-0.29a5.19,5.19,0,0,1,5.06-5.09c1.07,0,2.55.55,2.55,1.81a0.93,0.93,0,0,1-.86,1h-0.07a0.58,0.58,0,0,1-.65-0.58v-0.45a1,1,0,0,0-1-1l-0.22,0c-2,0-3.13,2.9-3.13,4.53a2.14,2.14,0,0,0,2,2.26h0.14a4.64,4.64,0,0,0,2.91-1.33Z"/><path class="cls-2" d="M251.55,253a3.23,3.23,0,0,1-3.51-3.4,5.27,5.27,0,0,1,1.4-3.43,4.61,4.61,0,0,1,3.56-1.53,3.26,3.26,0,0,1,3.48,3.43,4.91,4.91,0,0,1-4.89,4.93h0Zm0.08-.78a2.64,2.64,0,0,0,2.46-1.65,7.59,7.59,0,0,0,.67-2.9,2.74,2.74,0,0,0-.52-1.78,2,2,0,0,0-1.38-.47c-2.25,0-3.11,2.83-3.11,4.64,0,1.27.52,2.15,1.88,2.15h0Z"/><path class="cls-2" d="M259.35,248.72a1.81,1.81,0,0,1-1.18-1.65,2.22,2.22,0,0,1,1.08-1.8,4.16,4.16,0,0,1,2.3-.63,6.15,6.15,0,0,1,2.73.58,1.17,1.17,0,0,1,.77.9,0.66,0.66,0,0,1-.64.68h-0.08a1,1,0,0,1-.93-0.58,1.68,1.68,0,0,0-.68-0.68,2.24,2.24,0,0,0-1.13-.28,1.47,1.47,0,0,0-1.69,1.21v0.09a1.06,1.06,0,0,0,.55.93,9,9,0,0,0,1.63.58c1.12,0.35,2.6.72,2.6,2.15a2.56,2.56,0,0,1-1.35,2.11,5,5,0,0,1-2.6.67,5.89,5.89,0,0,1-2.8-.68,1.48,1.48,0,0,1-.9-1.08,0.77,0.77,0,0,1,.77-0.73c1.42,0,.9,1.83,3.1,1.83a2.55,2.55,0,0,0,1.43-.4,1.48,1.48,0,0,0,.68-1.13c0-.85-0.8-1.1-1.48-1.32Z"/><path class="cls-2" d="M269.42,244.81h2.31l-0.08.5h-2.36l-0.8,4.53a7.3,7.3,0,0,0-.17,1.35,0.94,0.94,0,0,0,1,1.1,2.52,2.52,0,0,0,1.61-.75L271.3,252a3.74,3.74,0,0,1-2.55,1c-0.9,0-2-.3-2-1.4a9.07,9.07,0,0,1,.2-1.48l0.85-4.81h-1.42l0.08-.5c2-.07,2.5-1.25,2.85-3h0.62Z"/><path class="cls-2" d="M280.17,253a3.23,3.23,0,0,1-3.51-3.4,5.27,5.27,0,0,1,1.4-3.43,4.61,4.61,0,0,1,3.56-1.53,3.26,3.26,0,0,1,3.48,3.43,4.91,4.91,0,0,1-4.89,4.93h0Zm0.08-.78a2.64,2.64,0,0,0,2.46-1.65,7.59,7.59,0,0,0,.67-2.9,2.74,2.74,0,0,0-.52-1.78,2,2,0,0,0-1.38-.47c-2.25,0-3.11,2.83-3.11,4.64,0,1.27.52,2.15,1.89,2.15h0Z"/><path class="cls-2" d="M291.48,244.81l-0.07.5h-1.73l-1.1,6.41a7.79,7.79,0,0,1-1.1,3.38,4,4,0,0,1-3.31,1.4c-0.73,0-2.26-.28-2.26-1.27a0.66,0.66,0,0,1,.71-0.61h0.07c1.1,0,1.08,1.28,2.2,1.28a1.89,1.89,0,0,0,1.25-.6,3.69,3.69,0,0,0,.55-1.55l0.22-1.1,1.27-7.36h-1.45l0.07-.5h1.52a4.77,4.77,0,0,1,.93-2.7,3.62,3.62,0,0,1,2.73-1.32c0.58,0,1.91.17,1.91,1a0.7,0.7,0,0,1-.73.67h0c-1,0-.65-1-1.66-1a1.18,1.18,0,0,0-1,.57,3.57,3.57,0,0,0-.45,1.47l-0.33,1.32h1.75Z"/><path class="cls-2" d="M299.25,246.82h0a4,4,0,0,1,3.43-2.21,2.83,2.83,0,0,1,2.85,3.1,5.6,5.6,0,0,1-1.27,3.55A4.55,4.55,0,0,1,300.9,253a3.42,3.42,0,0,1-2.58-1.12l-0.62,1h-1l1.63-9.32a3.44,3.44,0,0,0,.07-0.57h0a0.84,0.84,0,0,0-1-.92h-0.2l0.08-.5a6.62,6.62,0,0,0,2.51-.6h0.48Zm1.17,5.39c2.35,0,3.46-3,3.46-4.91a1.63,1.63,0,0,0-1.36-1.86l-0.16,0c-1.4,0-2.43,1.27-3,2.41a14.48,14.48,0,0,0-.93,3.45,2.5,2.5,0,0,0,2,.93h0Z"/><path class="cls-2" d="M314,251.43a6.93,6.93,0,0,1-4.1,1.56c-1.83,0-3.58-1.13-3.58-3.11a5.27,5.27,0,0,1,1.78-3.71,6.14,6.14,0,0,1,3.93-1.53c1.1,0,2.78.47,2.78,1.83,0,2.28-4.86,2.73-6.66,2.76a3.34,3.34,0,0,0-.12.82,2.13,2.13,0,0,0,2.08,2.18l0.33,0a5.62,5.62,0,0,0,3.13-1.25Zm-5.71-2.81c1.45,0,4.91-.32,4.91-2.16a1.32,1.32,0,0,0-1.4-1.23h-0.12c-1.72,0-3,1.89-3.39,3.38h0Z"/><path class="cls-2" d="M317.24,252.86h-1.51l1-5.78a3.83,3.83,0,0,0,.07-0.62c0-.65-0.55-0.75-1.15-0.78l0.08-.5,2.33-.38h0.6l-0.22,1.2a6.07,6.07,0,0,1,3.46-1.37,1.74,1.74,0,0,1,2,1.63,6.54,6.54,0,0,1-.12,1l-0.6,3.3a3.67,3.67,0,0,0-.08.73,0.89,0.89,0,0,0,.8.88,1.73,1.73,0,0,0,1.12-.57l0.33,0.37a3,3,0,0,1-2.23,1,1.48,1.48,0,0,1-1.55-1.41s0,0,0-.07h0a10.3,10.3,0,0,1,.23-1.6l0.47-2.65a5.93,5.93,0,0,0,.1-0.78,1.07,1.07,0,0,0-1.13-1h0a5.32,5.32,0,0,0-2.93,1.33Z"/><path class="cls-2" d="M333.27,251.43a6.93,6.93,0,0,1-4.1,1.56c-1.83,0-3.58-1.13-3.58-3.11a5.27,5.27,0,0,1,1.78-3.71,6.14,6.14,0,0,1,3.93-1.53c1.1,0,2.78.47,2.78,1.83,0,2.28-4.86,2.73-6.66,2.76a3.34,3.34,0,0,0-.12.82,2.13,2.13,0,0,0,2.08,2.18l0.33,0a5.62,5.62,0,0,0,3.13-1.25Zm-5.71-2.81c1.45,0,4.91-.32,4.91-2.16a1.32,1.32,0,0,0-1.4-1.23h-0.12c-1.73,0-3,1.89-3.39,3.38h0Z"/><path class="cls-2" d="M340.41,244.81l-0.07.5h-1.73l-1.1,6.41a7.79,7.79,0,0,1-1.1,3.38,4,4,0,0,1-3.31,1.4c-0.73,0-2.26-.28-2.26-1.27a0.66,0.66,0,0,1,.71-0.61h0.07c1.1,0,1.08,1.28,2.2,1.28a1.89,1.89,0,0,0,1.25-.6,3.69,3.69,0,0,0,.55-1.55l0.22-1.1,1.27-7.36h-1.48l0.07-.5h1.52a4.77,4.77,0,0,1,.93-2.7,3.62,3.62,0,0,1,2.73-1.32c0.58,0,1.91.17,1.91,1a0.7,0.7,0,0,1-.73.67h0c-1,0-.65-1-1.66-1a1.18,1.18,0,0,0-1,.57,3.57,3.57,0,0,0-.45,1.47l-0.23,1.32h1.68Z"/><path class="cls-2" d="M342.65,250.6a2.93,2.93,0,0,0-.07.55,0.86,0.86,0,0,0,.79.93h0.11a1.81,1.81,0,0,0,1.13-.57l0.38,0.33a3.21,3.21,0,0,1-2.38,1.15,1.5,1.5,0,0,1-1.56-1.63,4,4,0,0,1,.08-0.77l0.6-3.46a3.1,3.1,0,0,0,.08-0.57c0-.68-0.5-0.8-1.08-0.88h-0.12l0.08-.5,0.68-.08a10.44,10.44,0,0,0,1.75-.33h0.61Zm0.58-6.76a0.8,0.8,0,0,1-.77-0.83v0a1.22,1.22,0,0,1,1.15-1.15,0.79,0.79,0,0,1,.87.8A1.25,1.25,0,0,1,343.23,243.84Z"/><path class="cls-2" d="M348.31,244.81h2.35l-0.08.5h-2.36l-0.8,4.53a7.3,7.3,0,0,0-.17,1.35,0.94,0.94,0,0,0,1,1.1,2.52,2.52,0,0,0,1.61-.75l0.37,0.42a3.74,3.74,0,0,1-2.55,1c-0.9,0-2-.3-2-1.4a9.07,9.07,0,0,1,.2-1.48l0.85-4.81h-1.42l0.08-.5c2-.07,2.5-1.25,2.85-3h0.62Z"/><path class="cls-2" d="M352.89,248.72a1.81,1.81,0,0,1-1.18-1.65,2.22,2.22,0,0,1,1.08-1.8,4.16,4.16,0,0,1,2.3-.63,6.15,6.15,0,0,1,2.73.58,1.17,1.17,0,0,1,.77.9,0.66,0.66,0,0,1-.64.68h-0.08a1,1,0,0,1-.93-0.58,1.68,1.68,0,0,0-.68-0.68,2.24,2.24,0,0,0-1.13-.28,1.47,1.47,0,0,0-1.69,1.21v0.09a1.06,1.06,0,0,0,.55.93,9,9,0,0,0,1.63.58c1.12,0.35,2.6.72,2.6,2.15a2.56,2.56,0,0,1-1.35,2.11,5,5,0,0,1-2.6.67,5.89,5.89,0,0,1-2.8-.68,1.48,1.48,0,0,1-.9-1.08,0.77,0.77,0,0,1,.77-0.73c1.42,0,.9,1.83,3.1,1.83a2.55,2.55,0,0,0,1.43-.4,1.48,1.48,0,0,0,.68-1.13c0-.85-0.8-1.1-1.48-1.32Z"/><path class="cls-2" d="M360.06,252.13a1.35,1.35,0,0,1,1.31-1.33,0.92,0.92,0,0,1,.93,1,1.35,1.35,0,0,1-1.33,1.28A0.86,0.86,0,0,1,360.06,252.13Z"/><path class="cls-2" d="M215,99.75h-0.68a12.45,12.45,0,0,1-14.21,0c-5.48.41-10.42,6.05-10.42,10.26v20.37h4.55V110.73a2.19,2.19,0,1,1,4.38,0v19.7h17.09v-19.7a2.19,2.19,0,1,1,4.38,0v19.7h4.55V110.06C224.73,105.69,220.73,99.75,215,99.75Z"/><circle class="cls-2" cx="207.21" cy="89.42" r="8.2"/><rect class="cls-2" x="198.7" y="135.44" width="17.01" height="25.28"/><rect class="cls-2" x="247.61" y="81.56" width="29.73" height="79.15"/><rect class="cls-3" x="282.78" y="124.42" width="29.73" height="36.3"/></svg>