<?xml version="1.0" encoding="utf-8"?>
<!-- Generator: Adobe Illustrator 20.1.0, SVG Export Plug-In . SVG Version: 6.00 Build 0)  -->
<svg version="1.1" id="Layer_1" xmlns="http://www.w3.org/2000/svg" xmlns:xlink="http://www.w3.org/1999/xlink" x="0px" y="0px"
	 viewBox="0 0 499.8 375" style="enable-background:new 0 0 499.8 375;" xml:space="preserve">
<style type="text/css">
	.st0{fill:#FFFFFF;}
	.st1{fill:#65666A;}
	.st2{fill:#82BC41;}
	.st3{fill:none;stroke:#65666B;stroke-width:1.38;stroke-miterlimit:10;}
	.st4{fill:#FFFFFF;stroke:#65666B;stroke-width:1.55;stroke-linejoin:round;}
	.st5{fill:none;stroke:#65666B;stroke-width:1.55;stroke-linejoin:round;}
</style>
<rect x="-0.6" y="-8.7" class="st0" width="499.8" height="357.7"/>
<path class="st1" d="M145,42.8l-0.8,0.2c-0.9-2.4-3.3-3.8-5.8-3.6c-2.6,0-2.8,0.2-3.2,2.5l-0.6,3.1h1.6c0.6,0.1,1.3-0.1,1.9-0.3
	c0.6-0.4,1.1-1,1.2-1.7l0.2-0.6h0.7l-1.2,6.4h-0.7v-0.6c0-1.8-0.9-2.1-2.5-2.1h-1.4l-0.8,4.6c0,0.2-0.1,0.4-0.1,0.6v0.1
	c0,0.8,0.6,1.5,1.4,1.5h0.4l-0.1,0.7h-6.2l0.1-0.7c1.8-0.1,2.1-1,2.4-2.4l1.6-9.1c0.1-0.2,0.1-0.5,0.1-0.7c0.1-0.7-0.4-1.4-1.2-1.5
	h-0.5l0.1-0.7H144L145,42.8z"/>
<path class="st1" d="M148.4,53.7c-2.8,0-4.7-1.7-4.7-4.5c0-1.7,0.7-3.3,1.9-4.6c1.2-1.3,2.9-2.1,4.8-2c2.4-0.2,4.5,1.6,4.6,4
	c0,0.2,0,0.4,0,0.5C155,50.8,152,53.7,148.4,53.7C148.4,53.7,148.4,53.7,148.4,53.7L148.4,53.7z M148.5,52.7c1.4,0,2.7-0.9,3.3-2.2
	c0.5-1.2,0.9-2.5,0.9-3.9c0.1-0.8-0.2-1.7-0.7-2.4c-0.5-0.4-1.2-0.7-1.8-0.6c-3,0-4.1,3.8-4.1,6.2C146,51.5,146.7,52.7,148.5,52.7
	L148.5,52.7L148.5,52.7z"/>
<path class="st1" d="M159.9,44.2L159.9,44.2c0.9-1,2.2-1.5,3.6-1.6c0.6-0.1,1.3,0.3,1.4,0.9c0,0,0,0,0,0v0c0,0.7-0.6,1.2-1.3,1.2
	h-0.1c-0.9,0-1.1-0.6-1.8-0.6c-1.8,0-2.2,2.7-2.5,4l-0.9,5.5h-2l1.4-7.7c0.1-0.3,0.1-0.5,0.1-0.8c0-0.9-0.7-1-1.5-1l0.1-0.7l3.1-0.6
	h0.8L159.9,44.2z"/>
<path class="st1" d="M174.3,48c-0.9-0.3-1.6-1.2-1.6-2.2c0.1-1,0.6-1.9,1.4-2.4c0.9-0.6,2-0.9,3.1-0.8c1.3,0,2.5,0.2,3.6,0.8
	c0.5,0.2,0.9,0.6,1,1.2c0,0.5-0.4,0.9-0.9,0.9c0,0,0,0,0,0h-0.1c-0.5,0-1-0.3-1.2-0.8c-0.2-0.4-0.5-0.7-0.9-0.9
	c-0.5-0.3-1-0.4-1.5-0.4c-1.1,0-2.3,0.5-2.3,1.7c0,0.5,0.3,1,0.7,1.2c0.7,0.3,1.4,0.6,2.2,0.8c1.5,0.5,3.5,1,3.5,2.9
	c-0.1,1.2-0.7,2.3-1.8,2.8c-1.1,0.6-2.2,0.9-3.5,0.9c-1.3,0-2.6-0.3-3.7-0.9c-0.6-0.3-1.1-0.8-1.2-1.4c0-0.6,0.4-1,1-1
	c1.9,0,1.2,2.4,4.1,2.4c0.7,0,1.3-0.2,1.9-0.5c0.5-0.3,0.9-0.9,0.9-1.5c0-1.1-1.1-1.5-2-1.8L174.3,48z"/>
<path class="st1" d="M186.4,50.5c-0.1,0.2-0.1,0.5-0.1,0.7c-0.1,0.6,0.4,1.2,1,1.2h0.2c0.6-0.1,1.1-0.3,1.5-0.8l0.5,0.4
	c-0.8,0.9-1.9,1.5-3.1,1.5c-1.1,0.1-2-0.8-2.1-1.9c0-0.1,0-0.2,0-0.3c0-0.3,0-0.7,0.1-1l0.8-4.6c0.1-0.2,0.1-0.5,0.1-0.8
	c0-0.9-0.7-1.1-1.4-1.2h-0.2l0.1-0.7l0.9-0.1c0.8-0.1,1.6-0.2,2.3-0.4h0.7L186.4,50.5z M187.2,41.5c-0.6,0-1-0.5-1-1.1l0,0
	c0-0.8,0.7-1.5,1.5-1.6c0.5-0.1,1.1,0.3,1.1,0.8c0,0.1,0,0.1,0,0.2C188.8,40.8,188.1,41.5,187.2,41.5z"/>
<path class="st1" d="M199.1,52.3c-0.3,1.8-0.5,3.2-2,4.5c-1.4,1.1-3.1,1.7-4.8,1.6c-1.1,0-2.2-0.2-3.2-0.6c-0.6-0.2-1-0.6-1.1-1.2
	c0.1-0.6,0.6-1.1,1.2-1.1c0.5,0,1,0.2,1.1,0.7c0.1,0.3,0.3,0.6,0.6,0.8c0.5,0.4,1,0.5,1.6,0.5c1.1,0,2.2-0.5,3-1.3
	c0.8-0.9,1.3-2.1,1.4-3.3l0.4-2l0,0c-0.8,1.6-2.5,2.7-4.4,2.8c-2.4,0-3.7-1.9-3.7-4.1c0-3.4,2.5-7,6.1-7c1.2,0,2.3,0.5,3.1,1.4
	l0.4-1.2h1.8L199.1,52.3z M198.4,44.9c-0.6-0.8-1.5-1.3-2.6-1.3c-2.9,0-4.2,4-4.2,6.4c0,1.3,0.3,2.6,1.9,2.6s2.8-1.4,3.5-2.7
	c0.7-1.5,1.1-3,1.3-4.7L198.4,44.9z"/>
<path class="st1" d="M204.4,53.5h-2l1.4-7.7c0.1-0.3,0.1-0.5,0.1-0.8c0-0.9-0.7-1-1.5-1l0.1-0.7l3.1-0.5h0.9l-0.3,1.6
	c1.3-1.1,2.9-1.7,4.6-1.8c1.4,0,2.7,0.6,2.7,2.2c0,0.4-0.1,0.9-0.2,1.3l-0.9,4.4c-0.1,0.3-0.1,0.7-0.1,1c0,0.6,0.5,1.1,1.1,1.2
	c0.6-0.1,1.1-0.3,1.5-0.8l0.4,0.5c-0.8,0.9-1.8,1.4-3,1.4c-1.1,0-2-0.8-2.1-1.9c0,0,0,0,0,0c0,0,0,0,0-0.1l0,0
	c0-0.7,0.2-1.4,0.3-2.1l0.6-3.5c0.1-0.3,0.1-0.7,0.1-1c0-0.8-0.7-1.4-1.5-1.4h-0.1c-1.5,0.2-2.8,0.8-3.9,1.8L204.4,53.5z"/>
<path class="st1" d="M218.8,50.5c-0.1,0.2-0.1,0.5-0.1,0.7c-0.1,0.6,0.4,1.2,1,1.2h0.2c0.6-0.1,1.1-0.3,1.5-0.8l0.5,0.4
	c-0.8,0.9-1.9,1.5-3.2,1.5c-1.1,0.1-2-0.8-2.1-1.9c0-0.1,0-0.2,0-0.3c0-0.3,0-0.7,0.1-1l0.8-4.6c0.1-0.2,0.1-0.5,0.1-0.8
	c0-0.9-0.7-1.1-1.4-1.2h-0.2l0.1-0.7l0.9-0.1c0.8-0.1,1.6-0.2,2.3-0.4h0.7L218.8,50.5z M219.6,41.5c-0.6,0-1-0.5-1-1.1l0,0
	c0-0.8,0.7-1.5,1.5-1.6c0.5-0.1,1.1,0.3,1.1,0.9c0,0,0,0.1,0,0.1C221.2,40.7,220.5,41.5,219.6,41.5L219.6,41.5L219.6,41.5z"/>
<path class="st1" d="M229.6,42.8l-0.1,0.7h-2.3l-1.5,8.5c-0.1,1.6-0.6,3.1-1.5,4.5c-1.1,1.3-2.7,2-4.4,1.9c-1,0-3-0.4-3-1.7
	c0-0.5,0.5-0.8,0.9-0.8c0,0,0,0,0,0h0.1c1.5,0,1.4,1.7,2.9,1.7c0.6,0,1.2-0.3,1.7-0.8c0.4-0.6,0.6-1.3,0.7-2.1l0.3-1.5l1.7-9.8h-2
	l0.1-0.7h2c0-1.3,0.5-2.5,1.2-3.6c0.9-1.1,2.2-1.7,3.6-1.8c0.8,0,2.6,0.2,2.6,1.3c0,0.5-0.5,0.9-1,0.9c0,0,0,0,0,0l0,0
	c-1.3,0-0.9-1.3-2.2-1.3c-0.5,0-1,0.3-1.3,0.8c-0.3,0.6-0.6,1.3-0.6,2l-0.3,1.7H229.6z"/>
<path class="st1" d="M232.6,50.5c-0.1,0.2-0.1,0.5-0.1,0.7c-0.1,0.6,0.4,1.2,1,1.2h0.2c0.6-0.1,1.1-0.3,1.5-0.8l0.5,0.4
	c-0.8,0.9-1.9,1.5-3.2,1.5c-1.1,0.1-2-0.8-2.1-1.9c0-0.1,0-0.2,0-0.3c0-0.3,0-0.7,0.1-1l0.8-4.6c0.1-0.2,0.1-0.5,0.1-0.8
	c0-0.9-0.7-1.1-1.4-1.2h-0.2l0.1-0.7l0.9-0.1c0.8-0.1,1.6-0.2,2.4-0.4h0.7L232.6,50.5z M233.3,41.5c-0.6,0-1-0.5-1-1.1l0,0
	c0-0.8,0.7-1.5,1.5-1.6c0.5-0.1,1.1,0.3,1.1,0.8c0,0.1,0,0.1,0,0.2C235,40.8,234.2,41.5,233.3,41.5L233.3,41.5L233.3,41.5z"/>
<path class="st1" d="M245.1,51.4c-1.3,1.4-3.1,2.2-5.1,2.3c-2.3,0.1-4.3-1.6-4.5-4c0,0,0,0,0,0c0-0.1,0-0.3,0-0.4
	c0.1-3.7,3-6.7,6.7-6.8c1.4,0,3.4,0.7,3.4,2.4c0,0.7-0.5,1.3-1.2,1.3c0,0,0,0,0,0h-0.1c-0.4,0.1-0.8-0.2-0.9-0.7c0,0,0-0.1,0-0.1
	v-0.6c0-0.7-0.6-1.3-1.4-1.3c0,0,0,0,0,0h-0.2c-2.7,0-4.2,3.9-4.2,6c-0.1,1.6,1.1,2.9,2.7,3c0,0,0,0,0,0h0.2
	c1.5-0.1,2.9-0.7,3.9-1.7L245.1,51.4z"/>
<path class="st1" d="M256.8,50.3c-0.1,0.3-0.1,0.6-0.1,0.9c0,0.7,0.5,1.2,1.2,1.2c0,0,0,0,0,0l0,0c0.6,0,1.2-0.3,1.5-0.8l0.5,0.5
	c-0.8,1-1.9,1.5-3.2,1.6c-1.2,0-2.2-0.9-2.2-2.1c0-0.1,0-0.2,0-0.2V51l0,0c-0.9,1.6-2.6,2.6-4.4,2.7c-2.5,0-3.8-1.8-3.8-4.2
	c0-3.4,2.7-7,6.3-7c1.2,0,2.4,0.4,3.3,1.3l0.2-1.1h2L256.8,50.3z M253.1,43.6c-3,0-4.6,4-4.6,6.5c0,1.3,0.6,2.6,2.1,2.6
	c1.7,0,3.1-1.6,3.8-3c0.6-1.6,1.1-3.2,1.3-4.8C255.1,44,254.1,43.6,253.1,43.6L253.1,43.6L253.1,43.6z"/>
<path class="st1" d="M262.6,53.5h-2l1.4-7.7c0.1-0.3,0.1-0.5,0.1-0.8c0-0.9-0.7-1-1.5-1l0.1-0.7l3.1-0.5h0.8l-0.3,1.6
	c1.3-1.1,2.9-1.7,4.6-1.8c1.4,0,2.7,0.6,2.7,2.2c0,0.4-0.1,0.9-0.2,1.3l-0.8,4.4c-0.1,0.3-0.1,0.7-0.1,1c0,0.6,0.5,1.1,1.1,1.2
	c0.6-0.1,1.1-0.3,1.5-0.8l0.4,0.5c-0.8,0.9-1.8,1.4-3,1.4c-1.1,0-2-0.8-2.1-1.9c0,0,0,0,0,0v-0.1l0,0c0-0.7,0.2-1.4,0.3-2.1l0.6-3.5
	c0.1-0.3,0.1-0.7,0.1-1c0-0.8-0.7-1.4-1.5-1.4h-0.1c-1.5,0.2-2.8,0.8-3.9,1.8L262.6,53.5z"/>
<path class="st1" d="M278.2,42.8h3.1l-0.1,0.7h-3.1l-1.1,6c-0.1,0.6-0.2,1.2-0.2,1.8c-0.1,0.7,0.3,1.3,1,1.4h0.3
	c0.8-0.1,1.6-0.4,2.1-1l0.5,0.6c-0.9,0.9-2.1,1.4-3.4,1.4c-1.2,0-2.7-0.4-2.7-1.9c0-0.7,0.1-1.3,0.3-2l1.1-6.4h-1.9l0.1-0.7
	c2.6-0.1,3.3-1.7,3.8-4h0.8L278.2,42.8z"/>
<path class="st1" d="M284.2,49.6c-0.1,0.5-0.2,1-0.2,1.5v0.1c0,0.7,0.5,1.2,1.2,1.3c0,0,0,0,0,0h0.1c0.6-0.1,1.2-0.4,1.5-0.8
	l0.5,0.5c-0.8,1-2.1,1.6-3.4,1.6c-1.1,0-2-0.9-2-2c0-0.1,0-0.1,0-0.2c0-0.6,0.1-1.2,0.2-1.7l1.5-8.8c0.1-0.3,0.1-0.5,0.1-0.8
	c0-1-0.7-1-1.6-1.2l0.1-0.7c1.1-0.1,2.1-0.4,3.1-0.8h0.8L284.2,49.6z"/>
<path class="st1" d="M297.7,53.3c-0.1,1.5-0.9,2.9-2.2,3.8c-1.3,0.9-2.8,1.3-4.4,1.3c-1,0-2-0.2-2.9-0.6c-0.5-0.2-0.8-0.6-0.9-1.1
	c0.1-0.5,0.5-0.9,1-0.9h0.1c1.4,0,0.8,1.8,3.1,1.8c1,0,2-0.4,2.7-1.2c0.8-0.9,1.2-2,1.4-3.2l0.3-1.8c-1.3,1.3-3.1,2.1-5,2.3
	c-1.4,0-2.6-0.7-2.6-2.3v-0.8l0.1-0.7l0.8-4.1c0.1-0.2,0.1-0.5,0.1-0.8c0-0.9-0.7-1.1-1.6-1.1l0.1-0.7l0.7-0.1l2.4-0.5h0.9l-1.3,7.2
	c-0.1,0.4-0.1,0.8-0.2,1.1c-0.1,0.7,0.5,1.4,1.2,1.5h0.2c1.6-0.1,3.2-0.8,4.3-2l1.4-7.8h2L297.7,53.3z"/>
<path class="st1" d="M310.5,49.6c-0.1,0.5-0.2,1-0.2,1.5v0.1c0,0.7,0.5,1.2,1.1,1.3h0.1c0.6-0.1,1.2-0.4,1.5-0.8l0.5,0.5
	c-0.8,1-2.1,1.6-3.4,1.6c-1.1,0-2-0.9-2-2c0-0.1,0-0.1,0-0.2c0-0.6,0.1-1.2,0.2-1.7l1.5-8.8c0.1-0.3,0.1-0.5,0.1-0.8
	c0-1-0.7-1-1.6-1.2l0.1-0.7c1.1-0.1,2.1-0.4,3.1-0.8h0.9L310.5,49.6z"/>
<path class="st1" d="M323.9,51.6c-1.6,1.3-3.5,2-5.5,2.1c-2.4,0-4.8-1.5-4.8-4.2c0.1-1.9,0.9-3.7,2.4-5c1.5-1.3,3.3-2,5.2-2
	c1.5,0,3.7,0.6,3.7,2.4c0,3-6.5,3.6-8.9,3.7c-0.1,0.4-0.2,0.7-0.2,1.1c0,1.9,1.4,2.9,3.2,2.9c1.5-0.1,3-0.7,4.2-1.7L323.9,51.6z
	 M316.2,47.8c1.9,0,6.5-0.4,6.5-2.9c-0.1-1-0.9-1.7-1.9-1.6h-0.1C318.5,43.4,316.8,45.8,316.2,47.8z"/>
<path class="st1" d="M328.7,48c-0.9-0.3-1.6-1.2-1.6-2.2c0.1-1,0.6-1.9,1.4-2.4c0.9-0.6,2-0.9,3.1-0.8c1.3,0,2.5,0.2,3.6,0.8
	c0.5,0.2,0.9,0.6,1,1.2c0,0.5-0.4,0.9-0.9,0.9c0,0,0,0,0,0h-0.1c-0.5,0-1-0.3-1.2-0.8c-0.2-0.4-0.5-0.7-0.9-0.9
	c-0.5-0.3-1-0.4-1.5-0.4c-1.1,0-2.3,0.5-2.3,1.7c0,0.5,0.3,1,0.7,1.2c0.7,0.3,1.4,0.6,2.2,0.8c1.5,0.5,3.5,1,3.5,2.9
	c-0.1,1.2-0.7,2.3-1.8,2.8c-1.1,0.6-2.2,0.9-3.5,0.9c-1.3,0-2.6-0.3-3.7-0.9c-0.6-0.3-1.1-0.8-1.2-1.4c0-0.6,0.4-1,1-1
	c1.9,0,1.2,2.4,4.1,2.4c0.7,0,1.3-0.2,1.9-0.5c0.5-0.3,0.9-0.9,0.9-1.5c0-1.1-1.1-1.5-2-1.8L328.7,48z"/>
<path class="st1" d="M340.7,48c-0.9-0.3-1.6-1.2-1.6-2.2c0.1-1,0.6-1.9,1.4-2.4c0.9-0.6,2-0.9,3.1-0.8c1.3,0,2.5,0.2,3.6,0.8
	c0.5,0.2,0.9,0.6,1,1.2c0,0.5-0.4,0.9-0.9,0.9c0,0,0,0,0,0h-0.1c-0.5,0-1-0.3-1.2-0.8c-0.2-0.4-0.5-0.7-0.9-0.9
	c-0.5-0.3-1-0.4-1.5-0.4c-1.1,0-2.3,0.5-2.3,1.7c0,0.5,0.3,1,0.7,1.2c0.7,0.3,1.4,0.6,2.2,0.8c1.5,0.5,3.5,1,3.5,2.9
	c-0.1,1.2-0.7,2.3-1.8,2.8c-1.1,0.6-2.2,0.9-3.5,0.9c-1.3,0-2.6-0.3-3.7-0.9c-0.6-0.3-1.1-0.8-1.2-1.4c0-0.6,0.4-1,1-1
	c1.9,0,1.2,2.4,4.1,2.4c0.7,0,1.3-0.2,1.9-0.5c0.5-0.3,0.9-0.9,0.9-1.5c0-1.1-1.1-1.5-2-1.8L340.7,48z"/>
<path class="st1" d="M350.1,55.7c1-0.5,1.7-1.3,2-2.3c-0.2,0.3-0.6,0.4-0.9,0.4c-0.5-0.1-0.9-0.5-0.9-1c0-0.9,0.7-1.6,1.6-1.6
	c0.7,0,1.3,0.6,1.2,1.3c0,0,0,0.1,0,0.1c-0.2,1.7-1.3,3.1-2.9,3.6L350.1,55.7z"/>
<path class="st1" d="M134.6,80c-2.8,0-4.7-1.7-4.7-4.5c0-1.7,0.7-3.3,1.9-4.6c1.2-1.3,2.9-2.1,4.8-2c2.4-0.2,4.5,1.6,4.6,4
	c0,0.2,0,0.4,0,0.5C141.2,77.1,138.2,80,134.6,80L134.6,80L134.6,80L134.6,80z M134.7,79c1.4,0,2.7-0.8,3.3-2.2
	c0.5-1.2,0.9-2.5,0.9-3.9c0.1-0.8-0.2-1.7-0.7-2.4c-0.5-0.4-1.2-0.7-1.8-0.6c-3,0-4.1,3.8-4.1,6.2C132.2,77.8,132.9,79,134.7,79
	C134.7,79,134.7,79,134.7,79z"/>
<path class="st1" d="M152.6,76.1c-0.1,0.5-0.2,1-0.2,1.4c0,0.6,0.5,1.2,1.1,1.2c0,0,0,0,0,0l0,0c0.6,0,1.1-0.3,1.5-0.8l0.5,0.4
	c-0.8,1-1.9,1.5-3.1,1.6c-1.2,0.1-2.2-0.8-2.2-1.9c0,0,0,0,0,0V78c-1.3,1.2-3,1.9-4.8,2c-1.4,0-2.6-0.6-2.6-2.1c0-0.5,0.1-1,0.2-1.5
	l0.7-4.1c0.1-0.3,0.1-0.5,0.1-0.8c0-0.6-0.4-1-1-1l-0.5-0.1l0.1-0.7l3.1-0.6h0.8l-1.3,7.3c-0.1,0.3-0.1,0.7-0.1,1v0.2
	c0,0.7,0.6,1.3,1.3,1.3c0,0,0,0,0,0h0.1c1.5-0.1,2.9-0.8,4-1.8l1.4-8h2L152.6,76.1z"/>
<path class="st1" d="M159.9,70.4L159.9,70.4c0.9-1,2.2-1.5,3.6-1.6c0.6-0.1,1.3,0.3,1.4,0.9c0,0,0,0,0,0v0.1c0,0.7-0.6,1.2-1.3,1.2
	h-0.1c-0.9,0-1.1-0.6-1.8-0.6c-1.8,0-2.2,2.7-2.5,4l-0.9,5.5h-2l1.4-7.7c0.1-0.3,0.1-0.5,0.1-0.8c0-0.9-0.7-1-1.5-1l0.1-0.7l3.1-0.5
	h0.8L159.9,70.4z"/>
<path class="st1" d="M180.7,77.7c-1.3,1.4-3.1,2.2-5.1,2.3c-2.3,0.1-4.3-1.7-4.4-4c0-0.1,0-0.2,0-0.3c0.1-3.7,3-6.7,6.7-6.8
	c1.4,0,3.4,0.7,3.4,2.4c0,0.7-0.5,1.3-1.2,1.3c0,0,0,0,0,0h-0.1c-0.4,0-0.8-0.3-0.9-0.7v-0.7c0-0.7-0.6-1.3-1.4-1.3c0,0,0,0,0,0
	h-0.2c-2.7,0-4.2,3.9-4.2,6c-0.1,1.6,1.1,2.9,2.7,3c0,0,0,0,0,0h0.2c1.5-0.1,2.8-0.7,3.9-1.8L180.7,77.7z"/>
<path class="st1" d="M184.9,75.9c-0.1,0.5-0.2,1-0.2,1.5v0.1c0,0.7,0.5,1.2,1.2,1.3c0,0,0,0,0,0h0.1c0.6-0.1,1.2-0.4,1.6-0.8
	l0.5,0.5c-0.8,1-2.1,1.6-3.4,1.6c-1.1,0-2-0.9-2-2c0-0.1,0-0.1,0-0.2c0-0.6,0.1-1.1,0.2-1.7l1.6-8.8c0.1-0.3,0.1-0.5,0.1-0.8
	c0-1-0.7-1-1.6-1.2l0.1-0.7c1.1-0.1,2.1-0.4,3.1-0.8h0.9L184.9,75.9z"/>
<path class="st1" d="M191.2,76.8c-0.1,0.2-0.1,0.5-0.1,0.7c-0.1,0.6,0.4,1.2,1,1.2h0.2c0.6-0.1,1.1-0.3,1.5-0.8l0.5,0.4
	c-0.8,0.9-1.9,1.5-3.2,1.5c-1.1,0-2-0.8-2.1-1.9c0-0.1,0-0.2,0-0.3c0-0.3,0-0.7,0.1-1l0.8-4.6c0.1-0.2,0.1-0.5,0.1-0.8
	c0-0.9-0.7-1.1-1.4-1.2h-0.2l0.1-0.7l0.9-0.1c0.8-0.1,1.6-0.2,2.3-0.4h0.7L191.2,76.8z M192,67.8c-0.6,0-1-0.5-1-1.1l0,0
	c0-0.8,0.7-1.5,1.5-1.5c0.5-0.1,1.1,0.3,1.1,0.8c0,0.1,0,0.1,0,0.2C193.7,67.1,192.9,67.8,192,67.8L192,67.8z"/>
<path class="st1" d="M204.5,77.9c-1.5,1.3-3.5,2-5.5,2.1c-2.4,0-4.8-1.5-4.8-4.2c0.1-1.9,0.9-3.7,2.4-5c1.5-1.3,3.3-2,5.2-2
	c1.5,0,3.7,0.6,3.7,2.4c0,3-6.5,3.6-8.9,3.7c-0.1,0.4-0.2,0.7-0.2,1.1c0,1.9,1.4,2.9,3.2,2.9c1.5-0.1,3-0.7,4.2-1.7L204.5,77.9z
	 M196.9,74.2c1.9,0,6.5-0.4,6.5-2.9c-0.1-1-0.9-1.7-1.9-1.6h-0.2C199.1,69.6,197.4,72.2,196.9,74.2z"/>
<path class="st1" d="M208.9,79.8h-2l1.4-7.7c0.1-0.3,0.1-0.5,0.1-0.8c0-0.9-0.7-1-1.5-1l0.1-0.7l3.1-0.5h0.8l-0.3,1.6
	c1.3-1.1,2.9-1.7,4.6-1.8c1.4,0,2.7,0.6,2.7,2.2c0,0.4-0.1,0.9-0.2,1.3l-0.8,4.4c-0.1,0.3-0.1,0.7-0.1,1c0,0.6,0.5,1.1,1.1,1.2
	c0.6-0.1,1.1-0.3,1.5-0.8l0.4,0.5c-0.8,0.9-1.8,1.4-3,1.4c-1.1,0-2-0.8-2.1-1.9c0,0,0,0,0,0c0,0,0,0,0-0.1l0,0
	c0-0.7,0.2-1.4,0.3-2.1l0.6-3.5c0.1-0.3,0.1-0.7,0.1-1c0-0.8-0.7-1.4-1.5-1.4h-0.1c-1.5,0.2-2.8,0.8-3.9,1.8L208.9,79.8z"/>
<path class="st1" d="M224.6,69.1h3.1l-0.1,0.7h-3.2l-1.1,6c-0.1,0.6-0.2,1.2-0.2,1.8c-0.1,0.7,0.3,1.3,1,1.4h0.3
	c0.8-0.1,1.6-0.4,2.1-1l0.5,0.6c-0.9,0.9-2.1,1.4-3.4,1.4c-1.2,0-2.7-0.4-2.7-1.9c0-0.7,0.1-1.3,0.3-2l1.2-6.4h-1.9l0.1-0.7
	c2.6-0.1,3.3-1.7,3.8-4h0.8L224.6,69.1z"/>
<path class="st1" d="M230.7,74.3c-0.9-0.3-1.6-1.2-1.6-2.2c0.1-1,0.6-1.9,1.4-2.4c0.9-0.6,2-0.9,3.1-0.8c1.3,0,2.5,0.2,3.6,0.8
	c0.5,0.2,0.9,0.6,1,1.2c0,0.5-0.4,0.9-0.9,0.9c0,0,0,0,0,0h-0.1c-0.5,0-1-0.3-1.2-0.8c-0.2-0.4-0.5-0.7-0.9-0.9
	c-0.5-0.3-1-0.4-1.5-0.4c-1.1,0-2.3,0.5-2.3,1.7c0,0.5,0.3,1,0.7,1.2c0.7,0.3,1.4,0.6,2.2,0.8c1.5,0.5,3.5,1,3.5,2.9
	c-0.1,1.2-0.7,2.3-1.8,2.8c-1.1,0.6-2.2,0.9-3.5,0.9c-1.3,0-2.6-0.3-3.7-0.9c-0.6-0.3-1.1-0.8-1.2-1.4c0-0.6,0.4-1,1-1
	c1.9,0,1.2,2.4,4.1,2.4c0.7,0,1.3-0.2,1.9-0.5c0.5-0.3,0.9-0.9,0.9-1.5c0-1.1-1.1-1.5-2-1.8L230.7,74.3z"/>
<path class="st1" d="M250.4,70.4L250.4,70.4c1-1,2.2-1.5,3.6-1.6c0.6-0.1,1.3,0.3,1.4,0.9c0,0,0,0,0,0v0.1c0,0.7-0.6,1.2-1.3,1.2
	H254c-0.9,0-1.1-0.6-1.8-0.6c-1.8,0-2.2,2.7-2.5,4l-0.9,5.5h-2l1.4-7.7c0.1-0.3,0.1-0.5,0.1-0.8c0-0.9-0.7-1-1.5-1l0.1-0.7l3.1-0.5
	h0.8L250.4,70.4z"/>
<path class="st1" d="M265.3,77.9c-1.5,1.3-3.5,2-5.5,2.1c-2.4,0-4.8-1.5-4.8-4.2c0.1-1.9,0.9-3.7,2.4-5c1.5-1.3,3.3-2,5.2-2
	c1.5,0,3.7,0.6,3.7,2.4c0,3-6.5,3.6-8.9,3.7c-0.1,0.4-0.2,0.7-0.2,1.1c0,1.9,1.4,2.9,3.2,2.9c1.5-0.1,3-0.7,4.2-1.7L265.3,77.9z
	 M257.7,74.2c1.9,0,6.5-0.4,6.5-2.9c-0.1-1-0.9-1.7-1.8-1.6h-0.1C259.9,69.6,258.2,72.2,257.7,74.2L257.7,74.2z"/>
<path class="st1" d="M276.6,77.7c-1.3,1.4-3.1,2.2-5.1,2.3c-2.3,0.1-4.3-1.6-4.5-4c0,0,0,0,0,0c0-0.1,0-0.3,0-0.4
	c0.1-3.7,3-6.7,6.7-6.8c1.4,0,3.4,0.7,3.4,2.4c0,0.7-0.5,1.3-1.2,1.3c0,0,0,0,0,0h-0.1c-0.4,0.1-0.8-0.2-0.9-0.7c0,0,0-0.1,0-0.1
	v-0.6c0-0.7-0.6-1.4-1.3-1.4c0,0,0,0,0,0h-0.2c-2.7,0-4.2,3.9-4.2,6c-0.1,1.6,1.1,2.9,2.7,3c0,0,0,0,0,0h0.2
	c1.5-0.1,2.8-0.7,3.9-1.8L276.6,77.7z"/>
<path class="st1" d="M287.9,77.9c-1.5,1.3-3.5,2-5.5,2.1c-2.4,0-4.8-1.5-4.8-4.2c0.1-1.9,0.9-3.7,2.4-5c1.5-1.3,3.3-2,5.2-2
	c1.5,0,3.7,0.6,3.7,2.4c0,3-6.5,3.6-8.9,3.7c-0.1,0.4-0.2,0.7-0.2,1.1c0,1.9,1.4,2.9,3.2,2.9c1.5-0.1,3-0.7,4.2-1.6L287.9,77.9z
	 M280.3,74.2c1.9,0,6.5-0.4,6.5-2.9c-0.1-1-0.9-1.7-1.9-1.6h-0.1C282.5,69.6,280.9,72.1,280.3,74.2L280.3,74.2L280.3,74.2z"/>
<path class="st1" d="M292.9,76.8c-0.1,0.2-0.1,0.5-0.1,0.7c-0.1,0.6,0.4,1.2,1,1.2h0.2c0.6-0.1,1.1-0.3,1.5-0.8l0.5,0.4
	c-0.8,0.9-1.9,1.5-3.2,1.5c-1.1,0-2-0.8-2.1-1.9c0-0.1,0-0.2,0-0.3c0-0.3,0-0.7,0.1-1l0.8-4.6c0.1-0.2,0.1-0.5,0.1-0.8
	c0-0.9-0.7-1.1-1.4-1.2h-0.1l0.1-0.7l0.9-0.1c0.8-0.1,1.6-0.2,2.3-0.4h0.6L292.9,76.8z M293.7,67.8c-0.6,0-1-0.5-1-1.1l0,0
	c0-0.8,0.7-1.5,1.5-1.5c0.5-0.1,1.1,0.3,1.2,0.8c0,0.1,0,0.1,0,0.2C295.4,67.1,294.6,67.8,293.7,67.8L293.7,67.8L293.7,67.8z"/>
<path class="st1" d="M299.2,76.5c-0.1,0.3-0.1,0.7-0.1,1c0,1.1,0.7,1.4,1.7,1.4c2.7-0.2,4.8-2.4,4.8-5.1c0-2.5-1.8-2.2-1.8-3.5
	c0-0.8,0.6-1.4,1.4-1.4c0.6,0.1,1.1,0.4,1.4,1c0.3,0.7,0.4,1.4,0.4,2.1c0,4-2.5,8.1-6.9,8.1c-1.5,0-3-0.4-3-2.2c0-0.5,0.1-1,0.2-1.5
	l0.7-4c0.1-0.2,0.1-0.5,0.1-0.8c0.1-0.5-0.4-1-0.9-1.1c0,0,0,0,0,0H297l-0.5-0.1l0.1-0.7c1.1,0,2.2-0.2,3.2-0.5h0.7L299.2,76.5z"/>
<path class="st1" d="M318.1,77.9c-1.5,1.3-3.5,2-5.5,2.1c-2.4,0-4.8-1.5-4.8-4.2c0.1-1.9,0.9-3.7,2.4-5c1.5-1.3,3.3-2,5.2-2
	c1.5,0,3.7,0.6,3.7,2.4c0,3-6.5,3.6-8.9,3.7c-0.1,0.4-0.2,0.7-0.2,1.1c0,1.9,1.4,2.9,3.2,2.9c1.5-0.1,3-0.7,4.2-1.7L318.1,77.9z
	 M310.5,74.2c1.9,0,6.5-0.4,6.5-2.9c-0.1-1-0.9-1.7-1.9-1.6H315C312.7,69.6,311.1,72.2,310.5,74.2L310.5,74.2z"/>
<path class="st1" d="M320.6,78.8c0-1,0.8-1.7,1.8-1.8c0.7,0,1.2,0.5,1.2,1.2c0,0,0,0,0,0c0,0,0,0.1,0,0.1c0,0.9-0.8,1.7-1.8,1.7
	c-0.6,0-1.2-0.4-1.2-1.1C320.5,78.9,320.5,78.8,320.6,78.8z"/>
<path class="st1" d="M327.2,78.8c0-1,0.8-1.7,1.8-1.8c0.7,0,1.2,0.5,1.2,1.2c0,0,0,0,0,0c0,0,0,0.1,0,0.1c0,0.9-0.8,1.7-1.8,1.7
	c-0.6,0-1.2-0.4-1.2-1.1C327.2,78.9,327.2,78.8,327.2,78.8z"/>
<path class="st1" d="M333.9,78.8c0-1,0.8-1.7,1.8-1.8c0.7,0,1.2,0.5,1.2,1.2c0,0,0,0,0,0c0,0,0,0.1,0,0.1c0,0.9-0.8,1.7-1.8,1.7
	c-0.6,0-1.2-0.4-1.2-1.1C333.9,78.9,333.9,78.8,333.9,78.8z"/>
<path class="st1" d="M87.1,45.7c-4.2,0-6.1-1.9-6.1-3.5c0-1,0.8-1.9,1.8-1.9c0,0,0,0,0,0h0.1c3,0,1.5,3.2,4.8,3.2
	c1.5,0,2.7-0.8,2.7-2.3c0-0.9-0.4-1.4-2.6-2.1l-1.7-0.5c-2.8-0.9-3.3-2.2-3.3-3.7c0-2.9,2.7-5.2,6.8-5.4l0.4-2.9h1.6l-0.5,2.9
	c3,0.3,5.1,1.7,5.1,3.5c0,0.9-0.7,1.6-1.6,1.6c0,0,0,0,0,0h-0.2c-2.1,0-1.8-2.9-4-2.9c-1.6,0-2.7,0.7-2.7,1.9c0,0.8,0.6,1.3,1.9,1.7
	l2.9,0.8c2.6,0.8,3.5,1.9,3.5,3.9c0,3.4-3.8,5.6-7.3,5.8l-0.5,3h-1.6L87.1,45.7z"/>
<rect x="32.3" y="15.1" class="st1" width="33.4" height="88.8"/>
<rect x="71.8" y="53.5" class="st2" width="33.4" height="50.4"/>
<line class="st3" x1="224.6" y1="133.4" x2="238.9" y2="133.4"/>
<line class="st3" x1="231.7" y1="128.1" x2="246.1" y2="128.1"/>
<line class="st3" x1="231.7" y1="131.7" x2="246.1" y2="131.7"/>
<path class="st1" d="M64.1,186.5c0.2,1,0.2,1.6,1.4,1.7l-0.1,0.4h-4l0.1-0.4c0.6-0.1,1.2-0.2,1.2-0.9c0-0.2,0-0.3-0.1-0.5l-0.4-1.9
	h-3.8l-0.7,1.3c-0.3,0.4-0.4,0.8-0.5,1.3c0,0.4,0.4,0.8,0.8,0.7c0,0,0,0,0,0h0.3l-0.1,0.4h-3.8l0.1-0.4c0.8-0.1,1.5-0.6,1.9-1.4
	l4.6-8.2h1.4L64.1,186.5z M61.2,179.8l-2.4,4.5h3.4L61.2,179.8z"/>
<path class="st1" d="M79.2,182.9l0.4-2.4c0-0.2,0-0.3,0-0.5c0.1-0.5-0.3-0.9-0.7-1c0,0,0,0,0,0h-0.4l0.1-0.4h4.2l-0.1,0.4h-0.1
	c-1.1,0.1-1.4,0.6-1.5,1.6l-1.1,6.1c0,0.1,0,0.3,0,0.4v0.1c0,0.5,0.4,1,0.9,1H81l-0.1,0.4h-4.1l0.1-0.4H77c0.4,0,0.7-0.1,1-0.4
	c0.3-0.3,0.5-0.8,0.5-1.2l0.6-3.1h-5.5l-0.6,3.2c0,0.2-0.1,0.3-0.1,0.5c0,0.2,0.1,0.4,0.2,0.6c0.2,0.2,0.5,0.4,0.8,0.4h0.3l-0.1,0.4
	h-4.2l0.1-0.4c1.2-0.1,1.4-0.6,1.6-1.6l1.1-6.1V180c0.1-0.5-0.3-0.9-0.7-1c0,0,0,0,0,0h-0.3l0.1-0.4H76l-0.1,0.4h-0.2
	c-1.2,0-1.4,0.5-1.6,1.6l-0.4,2.2L79.2,182.9L79.2,182.9z"/>
<path class="st1" d="M84.6,186.6c0,0.2-0.1,0.3-0.1,0.5c0,0.4,0.3,0.8,0.7,0.8c0,0,0,0,0,0h0.1c0.4,0,0.7-0.2,1-0.5l0.3,0.3
	c-0.5,0.6-1.3,1-2.1,1c-0.7,0-1.4-0.5-1.4-1.3c0-0.1,0-0.1,0-0.2c0-0.2,0-0.5,0.1-0.7l0.5-3c0-0.2,0.1-0.3,0.1-0.5
	c0-0.6-0.4-0.7-1-0.8h-0.1l0.1-0.4l0.6-0.1c0.5-0.1,1-0.2,1.6-0.3h0.4L84.6,186.6z M85.1,180.6c-0.4,0-0.7-0.3-0.7-0.7c0,0,0,0,0,0
	l0,0c0-0.5,0.5-1,1-1c0.4,0,0.7,0.2,0.8,0.6c0,0,0,0.1,0,0.1C86.1,180.2,85.7,180.6,85.1,180.6z"/>
<path class="st1" d="M93.1,187.9c0,1.1-0.5,2.2-1.3,3c-0.9,0.7-2.1,1.1-3.2,1.1c-0.7,0-1.5-0.1-2.1-0.4c-0.4-0.1-0.7-0.4-0.7-0.8
	c0-0.4,0.4-0.7,0.8-0.7c0.3,0,0.6,0.2,0.8,0.5c0.1,0.2,0.2,0.4,0.4,0.6c0.3,0.2,0.7,0.4,1.1,0.4c0.8,0,1.5-0.3,2-0.9
	c0.5-0.6,0.9-1.4,1-2.2l0.2-1.3l0,0c-0.6,1.1-1.7,1.8-2.9,1.9c-1.4,0-2.5-1.1-2.5-2.5c0-0.1,0-0.2,0-0.3c0-2.3,1.7-4.7,4.1-4.7
	c0.8,0,1.5,0.3,2.1,0.9l0.3-0.8h1.2L93.1,187.9z M92.6,182.9c-0.4-0.5-1-0.8-1.7-0.8c-1.9,0-2.8,2.7-2.8,4.3c0,0.9,0.2,1.7,1.2,1.7
	c1-0.2,1.9-0.8,2.3-1.8c0.5-1,0.8-2,0.9-3.1L92.6,182.9z"/>
<path class="st1" d="M96.7,180.3c0-0.2,0.1-0.3,0.1-0.5c0-0.4-0.2-0.7-0.6-0.7h-0.5l0.1-0.4c0.7-0.1,1.4-0.3,2.1-0.5h0.5l-0.7,4.5
	c0.9-0.7,2-1.1,3.1-1.2c0.9,0,1.9,0.4,1.9,1.4c0,0.5-0.1,0.9-0.2,1.4l-0.4,2.2c-0.1,0.3-0.1,0.7-0.1,1c0,0.4,0.4,0.8,0.8,0.8
	c0,0,0,0,0,0l0,0c0.4,0,0.7-0.2,1-0.5l0.3,0.3c-0.5,0.6-1.2,0.9-2,1c-0.8,0.1-1.4-0.5-1.5-1.2c0-0.1,0-0.1,0-0.2
	c0-0.3,0.1-0.6,0.1-0.9l0.5-2.6c0-0.3,0.1-0.5,0.1-0.8l0,0c0-0.5-0.4-0.9-0.9-0.9c0,0,0,0-0.1,0h-0.1c-1,0.1-1.9,0.6-2.7,1.2l-1,5.4
	h-1.4L96.7,180.3z"/>
<path class="st1" d="M110.8,187.4c-1,0.8-2.3,1.3-3.6,1.4c-1.6,0.1-3-1-3.2-2.6c0,0,0-0.1,0-0.1c0.1-1.3,0.6-2.5,1.6-3.3
	c1-0.9,2.2-1.3,3.5-1.4c1,0,2.5,0.4,2.5,1.6c0,2-4.3,2.4-5.9,2.5c-0.1,0.2-0.1,0.5-0.1,0.7c0,1,0.8,1.9,1.9,1.9c0,0,0,0,0,0h0.3
	c1-0.1,2-0.5,2.8-1.1L110.8,187.4z M105.8,184.9c1.3,0,4.4-0.3,4.4-1.9c0-0.6-0.6-1.1-1.3-1.1h-0.1
	C107.2,181.9,106.1,183.6,105.8,184.9L105.8,184.9L105.8,184.9z"/>
<path class="st1" d="M114.8,182.4L114.8,182.4c0.6-0.6,1.5-1,2.4-1.1c0.4-0.1,0.8,0.2,0.9,0.6l0,0c0,0.5-0.4,0.8-0.9,0.8
	c0,0,0,0,0,0h-0.1c-0.6,0-0.8-0.4-1.2-0.4c-1.2,0-1.5,1.8-1.6,2.7l-0.6,3.6h-1.3l0.9-5.2c0-0.2,0.1-0.3,0.1-0.5c0-0.6-0.5-0.7-1-0.7
	l0-0.4l2.1-0.3h0.5L114.8,182.4z"/>
<path class="st1" d="M129.7,188.6h-8l0.1-0.5c1.2-0.1,1.4-0.6,1.5-1.6l1.1-6.1c0-0.2,0-0.3,0-0.5c0.1-0.5-0.3-0.9-0.8-1c0,0,0,0,0,0
	h-0.3l0.1-0.4h4.1l-0.1,0.4h-0.1c-0.4,0-0.7,0.1-1,0.4c-0.3,0.3-0.5,0.8-0.5,1.3l-1,5.8c-0.1,0.3-0.1,0.6-0.1,0.9
	c0,0.7,0.6,0.7,1.1,0.7c1.9-0.1,3.7-1.1,4.8-2.7l0.4,0.2L129.7,188.6z"/>
<path class="st1" d="M137.8,187.4c-1,0.8-2.3,1.3-3.6,1.4c-1.6,0.1-3-1-3.2-2.6c0,0,0-0.1,0-0.1c0.1-1.3,0.6-2.5,1.6-3.3
	c1-0.9,2.2-1.3,3.5-1.4c1,0,2.5,0.4,2.5,1.6c0,2-4.3,2.4-5.9,2.5c-0.1,0.2-0.1,0.5-0.1,0.7c0,1,0.8,1.9,1.9,1.9c0,0,0,0,0,0h0.3
	c1-0.1,2-0.5,2.8-1.1L137.8,187.4z M132.7,184.9c1.3,0,4.4-0.3,4.4-1.9c0-0.6-0.6-1.1-1.3-1.1h-0.1
	C134.2,181.9,133.1,183.6,132.7,184.9L132.7,184.9L132.7,184.9z"/>
<path class="st1" d="M141.1,186.5c0,0.2-0.1,0.4-0.1,0.6c0,0.5,0.3,1,0.8,1c0,0,0,0,0.1,0h0.2c1.8-0.1,3.2-1.7,3.2-3.5
	c0-1.7-1.2-1.5-1.2-2.3c0-0.5,0.4-0.9,0.9-0.9c0.4,0,0.7,0.3,0.9,0.6c0.2,0.4,0.3,0.9,0.3,1.4c0,2.7-1.7,5.4-4.6,5.4
	c-1,0-2-0.3-2-1.5c0-0.3,0.1-0.7,0.1-1l0.5-2.7c0-0.2,0.1-0.3,0.1-0.5c0-0.4-0.2-0.7-0.6-0.7c0,0,0,0,0,0h-0.1l-0.4-0.1l0.1-0.4
	c0.7,0,1.5-0.1,2.2-0.3h0.5L141.1,186.5z"/>
<path class="st1" d="M153.7,187.4c-1,0.8-2.3,1.3-3.6,1.4c-1.6,0.1-3-1-3.2-2.6c0,0,0-0.1,0-0.1c0.1-1.3,0.6-2.5,1.6-3.3
	c1-0.9,2.2-1.3,3.5-1.4c1,0,2.5,0.4,2.5,1.6c0,2-4.3,2.4-5.9,2.5c-0.1,0.2-0.1,0.5-0.1,0.7c0,1,0.8,1.9,1.9,1.9c0,0,0,0,0,0h0.3
	c1-0.1,2-0.5,2.8-1.1L153.7,187.4z M148.7,184.9c1.3,0,4.4-0.3,4.4-1.9c0-0.6-0.6-1.1-1.3-1.1h-0.1
	C150.1,181.9,149,183.6,148.7,184.9z"/>
<path class="st1" d="M156.9,186.1c-0.1,0.3-0.1,0.7-0.1,1v0.1c0,0.5,0.3,0.8,0.8,0.8c0,0,0,0,0,0l0,0c0.4-0.1,0.8-0.3,1-0.6l0.3,0.3
	c-0.5,0.7-1.4,1.1-2.2,1.1c-0.7,0-1.4-0.6-1.4-1.3v0c0,0,0-0.1,0-0.1c0-0.4,0-0.8,0.1-1.1l1-5.9c0-0.2,0.1-0.3,0.1-0.5
	c0-0.6-0.5-0.7-1.1-0.8l0.1-0.4c0.7-0.1,1.4-0.3,2.1-0.5h0.6L156.9,186.1z"/>
<path class="st1" d="M71.1,209.1c-1.6,0.1-3-1-3.1-2.6c0-0.1,0-0.3,0-0.4c0-1.1,0.5-2.2,1.2-3c0.8-0.9,2-1.4,3.2-1.3
	c1.6-0.1,3,1.1,3,2.7c0,0.1,0,0.2,0,0.3C75.4,207.2,73.4,209.2,71.1,209.1L71.1,209.1L71.1,209.1L71.1,209.1z M71.1,208.4
	c1,0,1.8-0.6,2.2-1.5c0.4-0.8,0.6-1.7,0.6-2.6c0-0.6-0.2-1.1-0.5-1.6c-0.3-0.3-0.8-0.4-1.2-0.4c-2,0-2.8,2.5-2.8,4.1
	C69.4,207.7,69.9,208.5,71.1,208.4L71.1,208.4L71.1,208.4z"/>
<path class="st1" d="M81.1,201.8l-0.1,0.4h-1.5l-1,5.7c-0.1,1.1-0.4,2.1-1,3c-0.7,0.9-1.9,1.3-3,1.2c-0.7,0-2-0.2-2-1.1
	c0-0.3,0.3-0.6,0.6-0.5c0,0,0,0,0,0h0.1c1,0,1,1.1,2,1.1c0.4,0,0.8-0.2,1.1-0.5c0.3-0.4,0.4-0.9,0.5-1.4l0.2-1l1.1-6.5h-1.3l0.1-0.4
	h1.3c0-0.9,0.3-1.7,0.8-2.4c0.6-0.7,1.5-1.2,2.4-1.2c0.5,0,1.7,0.1,1.7,0.9c0,0.3-0.3,0.6-0.7,0.6c0,0,0,0,0,0l0,0
	c-0.9,0-0.6-0.9-1.5-0.9c-0.3,0-0.7,0.2-0.8,0.5c-0.2,0.4-0.4,0.8-0.4,1.3l-0.2,1.2H81.1L81.1,201.8z"/>
<path class="st1" d="M95.3,201.8l-0.6,0.1c-0.6-1.5-2.1-2.5-3.8-2.4h-0.3c-0.4,0-0.8,0-1.2,0.2c-0.4,0.2-0.6,0.6-0.6,1.1l-0.4,2.5h1
	c1.4,0,1.7-0.4,2.2-1.8h0.5l-0.7,4.2h-0.5v-0.2c0-1.1-0.3-1.6-1.5-1.6h-1.1l-0.6,3.1c0,0.2,0,0.3,0,0.5c0,0.7,0.8,0.7,1.4,0.7h0.1
	c2,0,3.9-0.9,5.2-2.5l0.5,0.2l-1.4,3h-8.8l0.1-0.4c1.2-0.1,1.4-0.6,1.6-1.6l1-6c0-0.2,0.1-0.3,0.1-0.5c0.1-0.5-0.3-0.9-0.8-1
	c0,0,0,0,0,0h-0.3l0.1-0.4h8.2L95.3,201.8z"/>
<path class="st1" d="M103.1,208.2c-0.5,0.5-1.2,0.9-1.9,0.9c-1.2,0-1.7-1.1-2.1-2.1l-0.5-1.2c-0.7,1.1-1.8,3.2-3.3,3.2
	c-0.4,0-0.7-0.4-0.7-0.8s0.4-0.7,0.8-0.7l0,0h0.5c1.1,0,2-1.6,2.5-2.5l-0.3-0.8c-0.4-1-0.6-1.6-1.7-1.8l0.1-0.4
	c0.6,0,1.3-0.2,1.8-0.4h0.4l1,3.1c0.6-1,2.1-3.2,3.4-3.2c0.3,0,0.6,0.3,0.6,0.6c0,0,0,0,0,0l0,0c0,0.5-0.5,0.9-1,0.8c0,0,0,0,0,0
	h-0.3c-0.4,0-0.7,0.2-1,0.4c-0.6,0.5-1.1,1.2-1.5,1.9c0.4,0.8,0.9,2.8,2,2.8c0.3,0,0.6-0.1,0.8-0.3L103.1,208.2z"/>
<path class="st1" d="M106.2,203.8L106.2,203.8c0.5-1.2,1.7-2,3-2.1c1.3,0,2.4,1,2.4,2.4c0,0.1,0,0.2,0,0.3v0.1
	c0,1.1-0.4,2.2-1.1,3.1c-0.7,0.9-1.8,1.5-3,1.5c-0.8,0-1.6-0.3-2.2-0.9l-0.4,2.2c0,0.2-0.1,0.3-0.1,0.5c0,0.6,0.5,0.7,1.1,0.8
	l-0.1,0.4H102l0.1-0.4c1.2-0.1,1.4-0.6,1.6-1.6l1.1-6.2c0-0.2,0.1-0.3,0.1-0.5c0-0.3-0.2-0.7-0.5-0.7h-0.1l-0.3-0.1l0.1-0.4l2.1-0.2
	h0.5L106.2,203.8z M105.5,207.7c0.4,0.5,1,0.8,1.7,0.8c2,0,2.9-2.6,2.9-4.3c0-0.9-0.3-1.7-1.3-1.7c-1,0.1-1.9,0.8-2.3,1.7
	c-0.4,1-0.8,2-0.9,3L105.5,207.7z"/>
<path class="st1" d="M119.1,207.8c-1,0.8-2.3,1.3-3.6,1.4c-1.6,0.1-3-1-3.2-2.6c0,0,0-0.1,0-0.1c0.1-1.3,0.6-2.5,1.6-3.3
	c1-0.9,2.2-1.3,3.5-1.4c1,0,2.5,0.4,2.5,1.6c0,2-4.3,2.4-5.9,2.5c-0.1,0.2-0.1,0.5-0.1,0.7c0,1,0.8,1.9,1.9,1.9c0,0,0,0,0,0h0.3
	c1-0.1,2-0.5,2.8-1.1L119.1,207.8z M114.1,205.2c1.3,0,4.4-0.3,4.4-1.9c0-0.6-0.6-1.1-1.3-1.1h-0.1
	C115.5,202.2,114.4,203.9,114.1,205.2z"/>
<path class="st1" d="M123.1,202.8L123.1,202.8c0.6-0.6,1.5-1,2.4-1.1c0.4-0.1,0.8,0.2,0.9,0.6l0,0c0,0.5-0.4,0.8-0.9,0.8
	c0,0,0,0,0,0h-0.1c-0.6,0-0.8-0.4-1.2-0.4c-1.2,0-1.5,1.8-1.6,2.7L122,209h-1.3l0.9-5.2c0-0.2,0.1-0.3,0.1-0.5c0-0.6-0.5-0.7-1-0.7
	l0.1-0.4l2.1-0.3h0.5L123.1,202.8z"/>
<path class="st1" d="M129.2,201.8h2.1l-0.1,0.4h-2.1l-0.7,4c-0.1,0.4-0.1,0.8-0.1,1.2c-0.1,0.5,0.2,0.9,0.6,1c0,0,0,0,0,0h0.2
	c0.5,0,1.1-0.3,1.4-0.7l0.3,0.4c-0.6,0.6-1.4,0.9-2.3,0.9c-0.8,0-1.8-0.3-1.8-1.2c0-0.4,0.1-0.9,0.2-1.3l0.8-4.3h-1.3l0.1-0.4
	c1.8-0.1,2.2-1.1,2.5-2.7h0.5L129.2,201.8z"/>
<path class="st1" d="M133.4,207c0,0.2-0.1,0.3-0.1,0.5c0,0.4,0.3,0.8,0.7,0.8c0,0,0,0,0,0h0.1c0.4,0,0.7-0.2,1-0.5l0.3,0.3
	c-0.5,0.6-1.3,1-2.1,1c-0.7,0-1.4-0.5-1.4-1.3c0-0.1,0-0.1,0-0.2c0-0.2,0-0.5,0.1-0.7l0.5-3c0-0.2,0.1-0.3,0.1-0.5
	c0-0.6-0.4-0.7-1-0.8h-0.1l0.1-0.4l0.6-0.1c0.5-0.1,1-0.2,1.6-0.3h0.5L133.4,207z M133.9,201c-0.4,0-0.7-0.3-0.7-0.7c0,0,0,0,0,0
	l0,0c0-0.5,0.5-1,1-1c0.4,0,0.7,0.2,0.8,0.6c0,0,0,0.1,0,0.1C134.9,200.5,134.5,201,133.9,201L133.9,201L133.9,201z"/>
<path class="st1" d="M137.4,205.3c-0.6-0.2-1-0.8-1-1.5c0-0.7,0.4-1.3,1-1.6c0.6-0.4,1.3-0.6,2-0.6c0.8,0,1.7,0.2,2.4,0.5
	c0.4,0.1,0.6,0.4,0.7,0.8c0,0.3-0.2,0.6-0.6,0.6c0,0,0,0,0,0h-0.1c-0.4,0-0.7-0.2-0.8-0.5c-0.1-0.3-0.4-0.5-0.6-0.6
	c-0.3-0.2-0.7-0.3-1-0.2c-0.7-0.1-1.4,0.4-1.5,1.1c0,0,0,0,0,0v0.1c0,0.3,0.2,0.7,0.5,0.8c0.5,0.2,1,0.4,1.4,0.5
	c1,0.3,2.3,0.6,2.3,1.9c0,0.8-0.5,1.5-1.2,1.9c-0.7,0.4-1.5,0.6-2.3,0.6c-0.9,0-1.7-0.2-2.5-0.6c-0.4-0.2-0.7-0.6-0.8-1
	c0-0.4,0.3-0.7,0.7-0.6c1.3,0,0.8,1.6,2.8,1.6c0.4,0,0.9-0.1,1.3-0.4c0.3-0.2,0.6-0.6,0.6-1c-0.1-0.7-0.7-1.1-1.3-1.2L137.4,205.3z"
	/>
<path class="st1" d="M150.2,207.8c-1,0.8-2.3,1.3-3.6,1.4c-1.6,0.1-3-1-3.2-2.6c0,0,0-0.1,0-0.1c0.1-1.3,0.6-2.5,1.6-3.3
	c1-0.9,2.2-1.3,3.5-1.4c1,0,2.5,0.4,2.5,1.6c0,2-4.3,2.4-5.9,2.5c-0.1,0.2-0.1,0.5-0.1,0.7c0,1,0.8,1.9,1.9,1.9c0,0,0,0,0,0h0.3
	c1-0.1,2-0.5,2.8-1.1L150.2,207.8z M145.1,205.2c1.3,0,4.4-0.3,4.4-1.9c0-0.6-0.6-1.1-1.3-1.1h-0.1
	C146.6,202.2,145.5,203.9,145.1,205.2L145.1,205.2L145.1,205.2z"/>
<path class="st1" d="M197.4,178.6c0.8,0,1.6,0.1,2.4,0.3c0.8,0.3,1.3,1,1.3,1.8c-0.1,1.3-1.2,2.4-2.6,2.5l0,0c1.2,0,2.1,1,2.2,2.1
	c0,1.2-0.7,2.2-1.7,2.7c-1.1,0.5-2.3,0.7-3.5,0.6h-5.1l0.1-0.4c1.2-0.1,1.4-0.6,1.6-1.6l1.1-6.1c0-0.2,0.1-0.3,0.1-0.5
	c0.1-0.5-0.3-0.9-0.7-1c0,0,0,0,0,0h-0.3l0.1-0.4L197.4,178.6L197.4,178.6z M193.4,186.8c0,0.2,0,0.4,0,0.6c0,0.3,0.1,0.5,0.4,0.6
	c0.5,0.1,0.9,0.2,1.4,0.2c1,0.1,1.9-0.1,2.7-0.6c0.7-0.5,1.1-1.4,1.1-2.2c0.1-0.7-0.4-1.4-1.1-1.5c-0.7-0.1-1.4-0.2-2.1-0.1H194
	L193.4,186.8z M195.9,183c0.9,0.1,1.7-0.1,2.5-0.4c0.7-0.3,1.1-1,1.1-1.8c0-1.5-1.8-1.6-2.9-1.6h-0.1c-0.5-0.1-1.1,0.1-1.6,0.3
	c-0.2,0.2-0.4,0.6-0.4,0.9l-0.4,2.5L195.9,183L195.9,183z"/>
<path class="st1" d="M208.6,187.4c-1,0.8-2.3,1.3-3.6,1.4c-1.6,0.1-3-1-3.2-2.6c0,0,0-0.1,0-0.1c0.1-1.3,0.6-2.5,1.6-3.3
	c1-0.9,2.2-1.3,3.5-1.4c1,0,2.5,0.4,2.5,1.6c0,2-4.3,2.4-5.9,2.5c-0.1,0.2-0.1,0.5-0.1,0.7c0,1,0.8,1.9,1.9,1.9c0,0,0,0,0,0h0.3
	c1-0.1,2-0.5,2.8-1.1L208.6,187.4z M203.5,184.9c1.3,0,4.4-0.3,4.4-1.9c0-0.6-0.6-1.1-1.3-1.1h-0.1
	C204.9,181.9,203.8,183.6,203.5,184.9z"/>
<path class="st1" d="M212.8,181.5h2.1l-0.1,0.4h-2.1l-0.7,4c-0.1,0.4-0.1,0.8-0.1,1.2c-0.1,0.5,0.2,0.9,0.6,1c0,0,0,0,0,0h0.2
	c0.5,0,1.1-0.3,1.4-0.7l0.3,0.3c-0.6,0.6-1.4,0.9-2.3,0.9c-0.8,0-1.8-0.3-1.8-1.2c0-0.4,0.1-0.9,0.2-1.3l0.8-4.3H210l0.1-0.4
	c1.8-0.1,2.2-1.1,2.5-2.7h0.6L212.8,181.5z"/>
<path class="st1" d="M217.8,181.5h2.1l-0.1,0.4h-2.1l-0.7,4c-0.1,0.4-0.1,0.8-0.1,1.2c-0.1,0.5,0.2,0.9,0.6,1c0,0,0,0,0,0h0.2
	c0.5,0,1.1-0.3,1.4-0.7l0.3,0.3c-0.6,0.6-1.4,0.9-2.3,0.9c-0.8,0-1.8-0.3-1.8-1.2c0-0.4,0.1-0.9,0.2-1.3l0.8-4.3H215l0.1-0.4
	c1.8-0.1,2.2-1.1,2.5-2.7h0.6L217.8,181.5z"/>
<path class="st1" d="M226.6,187.4c-1,0.8-2.3,1.3-3.6,1.4c-1.6,0.1-3-1-3.2-2.6c0,0,0-0.1,0-0.1c0.1-1.3,0.6-2.5,1.6-3.3
	c1-0.9,2.2-1.3,3.5-1.4c1,0,2.5,0.4,2.5,1.6c0,2-4.3,2.4-5.9,2.5c-0.1,0.2-0.1,0.5-0.1,0.7c0,1,0.8,1.9,1.9,1.9c0,0,0,0,0,0h0.3
	c1-0.1,2-0.5,2.8-1.1L226.6,187.4z M221.5,184.9c1.3,0,4.4-0.3,4.4-1.9c0-0.6-0.6-1.1-1.3-1.1h-0.1
	C223,181.9,221.9,183.6,221.5,184.9z"/>
<path class="st1" d="M230.6,182.4L230.6,182.4c0.6-0.6,1.5-1,2.4-1.1c0.4-0.1,0.8,0.2,0.9,0.6l0,0c0,0.5-0.4,0.8-0.9,0.8
	c0,0,0,0,0,0h-0.1c-0.6,0-0.8-0.4-1.2-0.4c-1.2,0-1.5,1.8-1.6,2.7l-0.6,3.6h-1.4l0.9-5.2c0-0.2,0.1-0.3,0.1-0.5c0-0.6-0.5-0.7-1-0.7
	l0.1-0.4l2.1-0.3h0.5L230.6,182.4z"/>
<path class="st1" d="M241.1,183.9l-0.5,2.9v0.6c0,0.2,0.1,0.4,0.2,0.6c0.2,0.2,0.5,0.4,0.8,0.4h0.3l-0.1,0.4h-4.2l0.1-0.4
	c1.2-0.1,1.4-0.6,1.6-1.6l1.1-6.1c0-0.2,0.1-0.3,0.1-0.5c0.1-0.5-0.3-0.9-0.7-1c0,0,0,0,0,0h-0.3l0.1-0.4h5.3c1.6,0,3.4,0.2,3.4,2.2
	c-0.1,1.7-1.6,3-3.3,3l1.7,3c0.3,0.7,0.9,1.3,1.7,1.4l-0.1,0.4h-2.4l-2.5-4.8L241.1,183.9L241.1,183.9L241.1,183.9z M243,183.3
	c0.8,0.1,1.6-0.1,2.3-0.4c0.7-0.4,1.1-1.2,1.1-2c0-0.6-0.3-1.1-0.9-1.4c-0.6-0.2-1.2-0.3-1.8-0.3c-0.6,0-1.1,0.1-1.7,0.3
	c-0.3,0.2-0.4,0.5-0.4,0.9l-0.5,2.9L243,183.3L243,183.3L243,183.3z"/>
<path class="st1" d="M255.3,187.4c-1,0.8-2.3,1.3-3.6,1.4c-1.6,0.1-3-1-3.2-2.6c0,0,0-0.1,0-0.1c0.1-1.3,0.6-2.5,1.6-3.3
	c1-0.9,2.2-1.3,3.5-1.4c1,0,2.5,0.4,2.5,1.6c0,2-4.3,2.4-5.9,2.5c-0.1,0.2-0.1,0.5-0.1,0.7c0,1,0.8,1.9,1.9,1.9c0,0,0,0,0,0h0.3
	c1-0.1,2-0.5,2.8-1.1L255.3,187.4z M250.2,184.9c1.3,0,4.4-0.3,4.4-1.9c0-0.6-0.6-1.1-1.3-1.1h-0.1
	C251.7,181.9,250.6,183.6,250.2,184.9L250.2,184.9z"/>
<path class="st1" d="M259.2,183.4L259.2,183.4c0.5-1.2,1.7-2,3-2.1c1.3,0,2.4,1,2.4,2.4c0,0.1,0,0.2,0,0.3v0.1
	c0,1.1-0.4,2.2-1.1,3.1c-0.7,0.9-1.8,1.5-3,1.5c-0.8,0-1.6-0.4-2.1-0.9L258,190c0,0.2-0.1,0.3-0.1,0.5c0,0.6,0.5,0.7,1.1,0.8
	l-0.1,0.4h-3.9l0.1-0.4c1.2-0.1,1.4-0.6,1.6-1.6l1.1-6.2c0-0.2,0.1-0.3,0.1-0.5c0-0.3-0.2-0.7-0.5-0.7h-0.1l-0.4-0.1l0.1-0.4
	l2.1-0.2h0.5L259.2,183.4z M258.6,187.3c0.4,0.5,1,0.8,1.7,0.8c2,0,2.9-2.6,2.9-4.3c0-0.9-0.3-1.7-1.3-1.7c-1,0.1-1.9,0.8-2.3,1.7
	c-0.4,1-0.8,2-0.9,3L258.6,187.3z"/>
<path class="st1" d="M268.5,188.8c-1.6,0.1-3-1-3.1-2.6c0-0.1,0-0.3,0-0.4c0-1.1,0.5-2.2,1.2-3c0.8-0.9,2-1.4,3.2-1.4
	c1.6-0.1,3,1.1,3.1,2.7c0,0.1,0,0.2,0,0.3C272.8,186.9,270.9,188.8,268.5,188.8L268.5,188.8L268.5,188.8z M268.5,188.1
	c1,0,1.8-0.6,2.2-1.5c0.4-0.8,0.6-1.7,0.6-2.6c0-0.6-0.1-1.1-0.5-1.6c-0.3-0.3-0.8-0.4-1.2-0.4c-2,0-2.8,2.5-2.8,4.1
	C266.9,187.3,267.3,188.1,268.5,188.1L268.5,188.1L268.5,188.1z"/>
<path class="st1" d="M276.2,182.4L276.2,182.4c0.6-0.6,1.5-1,2.4-1.1c0.4-0.1,0.8,0.2,0.9,0.6l0,0c0,0.5-0.4,0.8-0.9,0.8
	c0,0,0,0,0,0h-0.1c-0.6,0-0.8-0.4-1.2-0.4c-1.2,0-1.5,1.8-1.6,2.7l-0.6,3.6h-1.4l0.9-5.2c0-0.2,0.1-0.3,0.1-0.5c0-0.6-0.5-0.7-1-0.7
	l0.1-0.4l2.1-0.3h0.6L276.2,182.4z"/>
<path class="st1" d="M282.3,181.5h2.1l-0.1,0.4h-2.1l-0.7,4c-0.1,0.4-0.1,0.8-0.1,1.2c-0.1,0.5,0.2,0.9,0.6,1c0,0,0,0,0,0h0.2
	c0.5,0,1.1-0.3,1.4-0.7l0.3,0.4c-0.6,0.6-1.4,0.9-2.3,0.9c-0.8,0-1.8-0.3-1.8-1.2c0-0.4,0.1-0.9,0.2-1.3l0.8-4.3h-1.3l0.1-0.4
	c1.8-0.1,2.2-1.1,2.5-2.7h0.5L282.3,181.5z"/>
<path class="st1" d="M286.4,186.6c0,0.2-0.1,0.3-0.1,0.5c0,0.4,0.3,0.8,0.7,0.8c0,0,0,0,0,0h0.1c0.4,0,0.7-0.2,1-0.5l0.3,0.3
	c-0.5,0.6-1.3,1-2.1,1c-0.7,0-1.4-0.5-1.4-1.3c0-0.1,0-0.1,0-0.2c0-0.2,0-0.5,0.1-0.7l0.5-3c0-0.2,0.1-0.3,0.1-0.5
	c0-0.6-0.4-0.7-1-0.8l0,0l0.1-0.4l0.6-0.1c0.5-0.1,1-0.2,1.5-0.3h0.5L286.4,186.6z M286.9,180.6c-0.4,0-0.7-0.3-0.7-0.7c0,0,0,0,0,0
	l0,0c0-0.5,0.5-1,1-1c0.4,0,0.7,0.2,0.8,0.6c0,0,0,0.1,0,0.1C288,180.2,287.5,180.6,286.9,180.6L286.9,180.6z"/>
<path class="st1" d="M290.2,188.6h-1.4l0.9-5.1c0-0.2,0.1-0.4,0.1-0.6c0-0.6-0.5-0.7-1-0.7l0.1-0.4l2.1-0.3h0.5l-0.2,1.1
	c0.9-0.7,2-1.1,3.1-1.2c0.8-0.1,1.6,0.4,1.8,1.3c0,0.1,0,0.1,0,0.2c0,0.3,0,0.6-0.1,0.9l-0.5,3c0,0.2-0.1,0.4-0.1,0.6
	c0,0.4,0.3,0.7,0.7,0.8c0.4,0,0.7-0.2,1-0.5l0.3,0.3c-0.5,0.6-1.2,0.9-2,0.9c-0.7,0-1.3-0.5-1.4-1.3c0,0,0,0,0,0c0,0,0,0,0-0.1l0,0
	c0-0.5,0.1-1,0.2-1.4l0.4-2.4c0-0.2,0.1-0.5,0.1-0.7c0-0.5-0.5-0.9-1-0.9c-1,0.1-1.9,0.5-2.6,1.2L290.2,188.6z"/>
<path class="st1" d="M304.1,187.9c0,1.1-0.5,2.2-1.4,3c-0.9,0.7-2.1,1.1-3.2,1.1c-0.7,0-1.5-0.1-2.1-0.4c-0.4-0.1-0.7-0.4-0.7-0.8
	c0-0.4,0.4-0.7,0.8-0.7c0.3,0,0.6,0.2,0.8,0.5c0.1,0.2,0.2,0.4,0.4,0.6c0.3,0.2,0.7,0.4,1.1,0.4c0.8,0,1.5-0.3,2-0.9
	c0.5-0.6,0.9-1.4,1-2.2l0.2-1.3l0,0c-0.6,1.1-1.7,1.8-2.9,1.9c-1.4,0-2.5-1.1-2.5-2.5c0-0.1,0-0.2,0-0.3c0-2.3,1.7-4.7,4.1-4.7
	c0.8,0,1.5,0.3,2.1,0.9l0.3-0.8h1.2L304.1,187.9z M303.6,182.9c-0.4-0.5-1-0.8-1.7-0.8c-1.9,0-2.8,2.7-2.8,4.3
	c0,0.9,0.2,1.7,1.2,1.7c1-0.2,1.9-0.8,2.4-1.8c0.5-1,0.8-2,0.9-3.1L303.6,182.9z"/>
<path class="st1" d="M212.8,209.3c-0.8,0-1.6-0.2-2.3-0.6c-0.8-0.5-1.3-1.3-1.3-2.2c0-1.8,1.7-3.1,3.3-3.5c-0.4-0.5-0.6-1-0.6-1.6
	c0.1-1.6,1.4-2.8,3-2.7c0.9-0.1,1.8,0.6,1.8,1.6c0,0,0,0,0,0c0,0,0,0,0,0.1c0,1.3-1.3,2.3-2.4,2.6c1,1,1.9,2.2,2.5,3.5
	c0.5-0.5,0.8-1.1,1-1.8c0-0.2-0.1-0.3-0.2-0.3c0,0,0,0,0,0h-0.1c-0.4,0-0.7-0.4-0.6-0.8l0,0c0.1-0.5,0.5-0.9,1-1
	c0.6,0,1.1,0.5,1.1,1.1v0c0,0,0,0.1,0,0.1c0,1.1-1.1,2.6-1.8,3.4c0.4,0.7,0.8,1.6,1.8,1.6c0.3,0.1,0.6-0.1,0.7-0.5
	c0-0.3-0.4-0.2-0.4-0.9c0-0.5,0.4-0.9,0.9-0.9c0.5,0,0.9,0.4,0.8,0.9c0,1.2-1.4,2-2.5,2c-0.9,0-1.8-0.4-2.3-1.2
	C215.2,208.9,214,209.3,212.8,209.3z M210.8,206.4c-0.1,1.1,0.7,2.1,1.8,2.2c0.1,0,0.3,0,0.4,0c1,0,2-0.3,2.8-1
	c-0.7-1.6-1.6-3-2.9-4.1C211.6,203.8,210.7,205.1,210.8,206.4L210.8,206.4L210.8,206.4z M214.7,199.3c-0.9,0-1.5,0.8-1.5,1.6l0,0
	c0,0.6,0.3,1.2,0.7,1.6c1-0.3,1.7-1.2,1.8-2.3C215.7,199.7,215.3,199.3,214.7,199.3L214.7,199.3L214.7,199.3z"/>
<path class="st1" d="M234.2,206.9c0.2,1,0.2,1.6,1.4,1.7l-0.1,0.4h-4l0.1-0.4c0.6-0.1,1.2-0.2,1.2-0.9c0-0.2,0-0.3-0.1-0.5l-0.4-1.9
	h-3.8l-0.7,1.3c-0.3,0.4-0.4,0.8-0.5,1.3c0,0.4,0.4,0.8,0.8,0.7c0,0,0,0,0,0h0.4l-0.1,0.4h-3.9l0.1-0.4c0.8-0.1,1.5-0.6,1.9-1.4
	l4.6-8.2h1.4L234.2,206.9z M231.2,200.2l-2.4,4.5h3.4L231.2,200.2z"/>
<path class="st1" d="M237.9,209h-1.4l0.9-5.1c0-0.2,0.1-0.4,0.1-0.6c0-0.6-0.5-0.7-1-0.7l0.1-0.4l2.1-0.3h0.5l-0.2,1.1
	c0.9-0.7,2-1.1,3.1-1.2c0.8-0.1,1.6,0.4,1.8,1.3c0,0.1,0,0.1,0,0.2c0,0.3,0,0.6-0.1,0.9l-0.5,2.9c0,0.2-0.1,0.4-0.1,0.6
	c0,0.4,0.3,0.7,0.7,0.8c0.4,0,0.7-0.2,1-0.5l0.3,0.3c-0.5,0.6-1.2,0.9-2,0.9c-0.7,0-1.3-0.5-1.4-1.3c0,0,0,0,0,0c0,0,0,0,0-0.1l0,0
	c0-0.5,0.1-1,0.2-1.4l0.4-2.4c0-0.2,0.1-0.5,0.1-0.7c0-0.5-0.5-0.9-1-0.9c-1,0.1-1.9,0.5-2.6,1.2L237.9,209z"/>
<path class="st1" d="M252.5,206.8c-0.1,0.2-0.1,0.4-0.1,0.6c0,0.4,0.3,0.8,0.8,0.8c0,0,0,0,0,0l0,0c0.4,0,0.8-0.2,1-0.6l0.3,0.3
	c-0.5,0.6-1.3,1-2.1,1.1c-0.8,0-1.4-0.6-1.5-1.4c0-0.1,0-0.1,0-0.2v-0.2l0,0c-0.6,1.1-1.8,1.8-3,1.8c-1.4,0-2.5-1.1-2.6-2.5
	c0-0.1,0-0.2,0-0.3c0-2.3,1.8-4.6,4.2-4.6c0.8,0,1.6,0.3,2.2,0.9l0.1-0.7h1.4L252.5,206.8z M250,202.4c-2,0-3.1,2.6-3.1,4.3
	c-0.1,0.8,0.4,1.6,1.2,1.7h0.2c1.1-0.2,2.1-0.9,2.5-2c0.4-1,0.7-2.1,0.9-3.2C251.3,202.6,250.7,202.3,250,202.4L250,202.4L250,202.4
	z"/>
<path class="st1" d="M256.6,206.4c-0.1,0.3-0.1,0.7-0.1,1v0.1c0,0.5,0.3,0.8,0.8,0.8c0,0,0,0,0,0l0,0c0.4-0.1,0.8-0.3,1-0.6l0.3,0.3
	c-0.5,0.7-1.4,1.1-2.2,1.1c-0.7,0-1.4-0.6-1.4-1.3v0c0,0,0-0.1,0-0.1c0-0.4,0-0.8,0.1-1.1l1-5.9c0-0.2,0.1-0.3,0.1-0.5
	c0-0.6-0.5-0.7-1.1-0.8l0.1-0.4c0.7-0.1,1.4-0.3,2.1-0.5h0.6L256.6,206.4z"/>
<path class="st1" d="M265.5,208.9c-0.1,1-0.6,2-1.5,2.5c-0.9,0.6-1.9,0.9-2.9,0.9c-0.7,0-1.3-0.1-1.9-0.4c-0.3-0.1-0.5-0.4-0.6-0.7
	c0-0.4,0.4-0.6,0.7-0.6l0,0c1,0,0.6,1.2,2,1.2c0.7,0,1.3-0.3,1.8-0.8c0.5-0.6,0.8-1.3,0.9-2.1l0.2-1.2c-0.9,0.9-2.1,1.4-3.3,1.5
	c-0.8,0.1-1.6-0.4-1.7-1.3c0-0.1,0-0.2,0-0.3v-0.5l0.1-0.5l0.5-2.8c0-0.2,0.1-0.3,0.1-0.5c0-0.6-0.4-0.7-1-0.7l0.1-0.4h0.5l1.6-0.3
	h0.6l-0.8,4.7c0,0.2-0.1,0.5-0.1,0.8c-0.1,0.5,0.3,0.9,0.8,1c0,0,0,0,0,0h0.2c1.1-0.1,2.1-0.6,2.9-1.4l0.9-5.2h1.4L265.5,208.9z"/>
<path class="st1" d="M269.7,205.3c-0.6-0.2-1-0.8-1-1.5c0-0.7,0.4-1.3,1-1.6c0.6-0.4,1.3-0.6,2-0.6c0.8,0,1.7,0.2,2.4,0.5
	c0.4,0.1,0.6,0.4,0.7,0.8c0,0.3-0.2,0.6-0.6,0.6c0,0,0,0,0,0h-0.1c-0.4,0-0.7-0.2-0.8-0.5c-0.1-0.3-0.4-0.5-0.6-0.6
	c-0.3-0.2-0.7-0.3-1-0.2c-0.7-0.1-1.4,0.4-1.5,1.1c0,0,0,0,0,0v0.1c0,0.3,0.2,0.7,0.5,0.8c0.5,0.2,1,0.4,1.5,0.5
	c1,0.3,2.3,0.6,2.3,1.9c0,0.8-0.5,1.5-1.2,1.9c-0.7,0.4-1.5,0.6-2.3,0.6c-0.9,0-1.7-0.2-2.5-0.6c-0.4-0.2-0.7-0.6-0.8-1
	c0-0.4,0.3-0.7,0.7-0.6c1.3,0,0.8,1.6,2.8,1.6c0.4,0,0.9-0.1,1.3-0.4c0.3-0.2,0.6-0.6,0.6-1c-0.1-0.7-0.7-1.1-1.3-1.2L269.7,205.3z"
	/>
<path class="st1" d="M277.7,207c0,0.2-0.1,0.3-0.1,0.5c0,0.4,0.3,0.8,0.7,0.8c0,0,0,0,0,0h0.1c0.4,0,0.7-0.2,1-0.5l0.3,0.3
	c-0.5,0.6-1.3,1-2.1,1c-0.7,0-1.4-0.5-1.4-1.3c0-0.1,0-0.1,0-0.2c0-0.2,0-0.5,0.1-0.7l0.5-3c0-0.2,0.1-0.3,0.1-0.5
	c0-0.6-0.4-0.7-1-0.8h-0.1l0.1-0.4l0.6-0.1c0.5-0.1,1-0.2,1.5-0.3h0.6L277.7,207z M278.2,201c-0.4,0-0.7-0.3-0.7-0.7c0,0,0,0,0,0
	l0,0c0-0.5,0.5-1,1-1c0.4,0,0.7,0.2,0.8,0.6c0,0,0,0.1,0,0.1C279.2,200.5,278.8,201,278.2,201L278.2,201L278.2,201z"/>
<path class="st1" d="M281.8,205.3c-0.6-0.2-1-0.8-1-1.5c0-0.7,0.4-1.3,1-1.6c0.6-0.4,1.3-0.6,2-0.6c0.8,0,1.7,0.2,2.4,0.5
	c0.4,0.1,0.6,0.4,0.7,0.8c0,0.3-0.2,0.6-0.6,0.6c0,0,0,0,0,0h-0.1c-0.4,0-0.7-0.2-0.8-0.5c-0.1-0.3-0.4-0.5-0.6-0.6
	c-0.3-0.2-0.7-0.3-1-0.2c-0.7-0.1-1.4,0.4-1.5,1.1c0,0,0,0,0,0v0.1c0,0.3,0.2,0.7,0.5,0.8c0.5,0.2,1,0.4,1.5,0.5
	c1,0.3,2.3,0.6,2.3,1.9c0,0.8-0.5,1.5-1.2,1.9c-0.7,0.4-1.5,0.6-2.3,0.6c-0.9,0-1.7-0.2-2.5-0.6c-0.4-0.2-0.7-0.6-0.8-1
	c0-0.4,0.3-0.7,0.7-0.6c1.3,0,0.8,1.6,2.8,1.6c0.4,0,0.9-0.1,1.3-0.4c0.3-0.2,0.6-0.6,0.6-1c-0.1-0.7-0.7-1.1-1.3-1.2L281.8,205.3z"
	/>
<path class="st1" d="M362.6,181.5H362c-0.2-0.6-0.6-1.2-1-1.6c-0.6-0.5-1.4-0.8-2.2-0.8c-0.6,0-1.2,0.2-1.8,0.6
	c-0.4,0.3-0.7,0.8-0.8,1.4c0,0.9,1.1,1.2,1.8,1.4l2,0.6c1.3,0.3,2.4,0.8,2.4,2.3c0,1.1-0.6,2-1.5,2.6c-0.9,0.7-2,1-3.1,1
	c-1.1,0-2.2-0.3-3.1-1l-0.4,0.8h-0.6l-0.3-3.7h0.6c0.3,1.8,1.8,3.1,3.7,3.2c0.8,0,1.5-0.2,2.1-0.7c0.6-0.4,1-1.1,1-1.8
	c0-0.4-0.2-0.8-0.6-1c-0.6-0.3-1.3-0.5-1.9-0.6c-1.4-0.4-3.6-0.8-3.6-2.6c0-0.9,0.5-1.7,1.2-2.2c0.8-0.6,1.7-0.9,2.7-0.8
	c1,0,1.9,0.3,2.8,0.8l0.3-0.6h0.5L362.6,181.5z"/>
<path class="st1" d="M370.3,186.2c-0.1,0.3-0.1,0.7-0.1,1c0,0.4,0.3,0.8,0.7,0.8c0,0,0,0,0,0l0,0c0.4,0,0.8-0.2,1-0.5l0.4,0.3
	c-0.5,0.6-1.3,1-2.1,1c-0.8,0.1-1.4-0.5-1.5-1.3c0,0,0,0,0,0l0,0c-0.9,0.8-2,1.3-3.2,1.4c-0.8,0.1-1.5-0.4-1.7-1.2
	c0-0.1,0-0.1,0-0.2c0-0.3,0.1-0.7,0.1-1l0.5-2.7c0-0.2,0.1-0.4,0.1-0.6c0-0.4-0.3-0.7-0.6-0.7c0,0,0,0,0,0l0,0l-0.3-0.1l0.1-0.4
	l2.1-0.4h0.5l-0.8,4.9c0,0.2-0.1,0.4-0.1,0.7v0.1c0,0.5,0.4,0.9,0.9,0.9c0,0,0,0,0,0h0.1c1-0.1,1.9-0.5,2.6-1.2l1-5.4h1.4
	L370.3,186.2z"/>
<path class="st1" d="M375,183.4L375,183.4c0.5-1.2,1.7-2,3-2.1c1.3,0,2.4,1,2.4,2.4c0,0.1,0,0.2,0,0.3v0.1c0,1.1-0.4,2.2-1.1,3.1
	c-0.7,0.9-1.8,1.5-3,1.5c-0.8,0-1.6-0.3-2.2-0.9l-0.4,2.2c0,0.2-0.1,0.3-0.1,0.5c0,0.6,0.5,0.7,1.1,0.8l-0.1,0.4h-3.9l0.1-0.4
	c1.2-0.1,1.4-0.6,1.5-1.6l1.1-6.2c0-0.2,0.1-0.3,0.1-0.5c0-0.3-0.2-0.7-0.5-0.7H373l-0.4-0.1l0.1-0.4l2.1-0.2h0.5L375,183.4z
	 M374.4,187.3c0.4,0.5,1,0.8,1.7,0.8c2,0,2.9-2.6,2.9-4.3c0-0.9-0.3-1.7-1.3-1.7c-1,0.1-1.9,0.8-2.3,1.7c-0.4,1-0.8,2-0.9,3
	L374.4,187.3z"/>
<path class="st1" d="M383.9,183.4L383.9,183.4c0.5-1.2,1.7-2,3-2.1c1.3,0,2.4,1,2.4,2.4c0,0.1,0,0.2,0,0.3v0.1
	c0,1.1-0.4,2.2-1.1,3.1c-0.7,0.9-1.8,1.5-3,1.5c-0.8,0-1.6-0.3-2.2-0.9l-0.4,2.2c0,0.2-0.1,0.3-0.1,0.5c0,0.6,0.5,0.7,1.1,0.8
	l-0.1,0.4h-3.9l0.1-0.4c1.2-0.1,1.4-0.6,1.5-1.6l1.1-6.2c0-0.2,0.1-0.3,0.1-0.5c0-0.3-0.2-0.7-0.5-0.7h-0.1l-0.4-0.1l0.1-0.4
	l2.1-0.2h0.5L383.9,183.4z M383.2,187.3c0.4,0.5,1,0.8,1.7,0.8c2,0,2.9-2.6,2.9-4.3c0-0.9-0.3-1.7-1.3-1.7c-1,0.1-1.9,0.8-2.3,1.7
	c-0.4,1-0.8,2-0.9,3L383.2,187.3z"/>
<path class="st1" d="M393.1,188.8c-1.6,0.1-3-1-3.1-2.6c0-0.1,0-0.3,0-0.4c0-1.1,0.5-2.2,1.2-3c0.8-0.9,2-1.4,3.2-1.4
	c1.6-0.1,3,1.1,3.1,2.7c0,0.1,0,0.2,0,0.3C397.5,186.9,395.6,188.8,393.1,188.8L393.1,188.8L393.1,188.8z M393.2,188.1
	c1,0,1.8-0.6,2.2-1.5c0.4-0.8,0.6-1.7,0.6-2.6c0-0.6-0.1-1.1-0.5-1.6c-0.3-0.3-0.8-0.4-1.2-0.4c-2,0-2.8,2.5-2.8,4.1
	C391.5,187.3,392,188.1,393.2,188.1L393.2,188.1L393.2,188.1z"/>
<path class="st1" d="M400.8,182.4L400.8,182.4c0.6-0.6,1.5-1,2.4-1.1c0.4-0.1,0.8,0.2,0.9,0.6l0,0c0,0.5-0.4,0.8-0.9,0.8
	c0,0,0,0,0,0h-0.1c-0.6,0-0.8-0.4-1.2-0.4c-1.2,0-1.5,1.8-1.6,2.7l-0.6,3.6h-1.3l0.9-5.2c0-0.2,0.1-0.3,0.1-0.5c0-0.6-0.5-0.7-1-0.7
	l0-0.4l2.1-0.3h0.5L400.8,182.4z"/>
<path class="st1" d="M407,181.5h2.1L409,182h-2.1l-0.7,4c-0.1,0.4-0.1,0.8-0.1,1.2c-0.1,0.5,0.2,0.9,0.6,1c0,0,0,0,0,0h0.2
	c0.5,0,1.1-0.3,1.4-0.7l0.3,0.4c-0.6,0.6-1.4,0.9-2.3,1c-0.8,0-1.8-0.3-1.8-1.2c0-0.4,0.1-0.9,0.2-1.3l0.8-4.3h-1.3l0.1-0.4
	c1.8-0.1,2.2-1.1,2.5-2.7h0.5L407,181.5z"/>
<path class="st1" d="M411.1,186.6c0,0.2-0.1,0.3-0.1,0.5c0,0.4,0.3,0.8,0.7,0.8c0,0,0,0,0,0h0.1c0.4,0,0.7-0.2,1-0.5l0.3,0.3
	c-0.5,0.6-1.3,1-2.1,1c-0.7,0-1.4-0.5-1.4-1.3c0-0.1,0-0.1,0-0.2c0-0.2,0-0.5,0.1-0.7l0.5-3c0-0.2,0.1-0.3,0.1-0.5
	c0-0.6-0.4-0.7-1-0.8h-0.1l0.1-0.4l0.6-0.1c0.5-0.1,1-0.2,1.5-0.3h0.5L411.1,186.6z M411.6,180.6c-0.4,0-0.7-0.3-0.7-0.7
	c0,0,0,0,0,0l0,0c0-0.5,0.5-1,1-1c0.4,0,0.7,0.2,0.8,0.6c0,0,0,0.1,0,0.1C412.7,180.2,412.2,180.6,411.6,180.6L411.6,180.6
	L411.6,180.6z"/>
<path class="st1" d="M414.9,188.6h-1.4l0.9-5.1c0-0.2,0.1-0.4,0.1-0.6c0-0.6-0.5-0.7-1-0.7l0.1-0.4l2.1-0.3h0.5l-0.2,1.1
	c0.9-0.7,2-1.1,3.1-1.2c0.8-0.1,1.6,0.4,1.8,1.3c0,0.1,0,0.1,0,0.2c0,0.3,0,0.6-0.1,0.9l-0.6,3c0,0.2-0.1,0.4-0.1,0.6
	c0,0.4,0.3,0.7,0.7,0.8c0.4,0,0.7-0.2,1-0.5l0.3,0.3c-0.5,0.6-1.2,0.9-2,0.9c-0.7,0-1.3-0.5-1.4-1.3c0,0,0,0,0,0c0,0,0,0,0-0.1l0,0
	c0-0.5,0.1-1,0.2-1.4l0.4-2.4c0-0.2,0.1-0.5,0.1-0.7c0-0.5-0.5-0.9-1-0.9c-1,0.1-1.9,0.5-2.6,1.2L414.9,188.6z"/>
<path class="st1" d="M428.8,187.9c0,1.1-0.5,2.2-1.4,3c-0.9,0.7-2.1,1.1-3.2,1.1c-0.7,0-1.5-0.1-2.1-0.4c-0.4-0.1-0.7-0.4-0.7-0.8
	c0-0.4,0.4-0.7,0.8-0.7c0.3,0,0.6,0.2,0.8,0.5c0.1,0.2,0.2,0.4,0.4,0.6c0.3,0.2,0.7,0.4,1.1,0.4c0.8,0,1.5-0.3,2-0.9
	c0.5-0.6,0.9-1.4,1-2.2l0.2-1.3l0,0c-0.6,1.1-1.7,1.8-2.9,1.9c-1.4,0-2.5-1.1-2.5-2.5c0-0.1,0-0.2,0-0.3c0-2.3,1.7-4.7,4.1-4.7
	c0.8,0,1.5,0.3,2.1,0.9l0.3-0.8h1.2L428.8,187.9z M428.3,182.9c-0.4-0.5-1-0.8-1.7-0.8c-1.9,0-2.8,2.7-2.8,4.3
	c0,0.9,0.2,1.7,1.2,1.7c1-0.2,1.9-0.8,2.4-1.8c0.5-1,0.8-2,0.9-3.1L428.3,182.9z"/>
<path class="st1" d="M344.8,198.9c0.8,0,1.6,0.1,2.4,0.3c0.8,0.3,1.3,1,1.3,1.8c-0.1,1.3-1.2,2.4-2.6,2.5l0,0c1.2,0,2.1,1,2.2,2.1
	c0,1.2-0.7,2.2-1.7,2.7c-1.1,0.5-2.3,0.7-3.5,0.6h-5.1l0.1-0.4c1.2-0.1,1.4-0.6,1.6-1.6l1.1-6.1c0-0.2,0.1-0.3,0.1-0.5
	c0.1-0.5-0.3-0.9-0.7-1c0,0,0,0,0,0h-0.4l0.1-0.4L344.8,198.9L344.8,198.9z M340.8,207.1c0,0.2,0,0.4,0,0.6c0,0.3,0.1,0.5,0.4,0.6
	c0.5,0.1,0.9,0.2,1.4,0.2c1,0.1,1.9-0.1,2.7-0.6c0.7-0.5,1.1-1.4,1.1-2.2c0.1-0.7-0.4-1.4-1.1-1.5c-0.7-0.1-1.4-0.2-2.1-0.1h-1.8
	L340.8,207.1z M343.2,203.3c0.9,0.1,1.7-0.1,2.5-0.4c0.7-0.3,1.1-1,1.1-1.8c0-1.5-1.8-1.6-2.9-1.6h-0.1c-0.5-0.1-1.1,0.1-1.6,0.3
	c-0.2,0.2-0.4,0.6-0.4,0.9l-0.4,2.5L343.2,203.3L343.2,203.3z"/>
<path class="st1" d="M356.2,206.6c-0.1,0.3-0.1,0.7-0.1,1c0,0.4,0.3,0.8,0.7,0.8c0,0,0,0,0,0l0,0c0.4,0,0.8-0.2,1-0.5l0.4,0.3
	c-0.5,0.6-1.3,1-2.1,1c-0.8,0.1-1.4-0.5-1.5-1.3c0,0,0,0,0,0l0,0c-0.9,0.8-2,1.3-3.2,1.4c-0.8,0.1-1.5-0.4-1.7-1.2
	c0-0.1,0-0.1,0-0.2c0-0.3,0.1-0.7,0.1-1l0.5-2.7c0-0.2,0.1-0.4,0.1-0.6c0-0.4-0.3-0.7-0.6-0.7c0,0,0,0,0,0l0,0l-0.3-0.1l0.1-0.4
	l2.1-0.4h0.5l-0.9,4.9c0,0.2-0.1,0.4-0.1,0.7v0.1c0,0.5,0.4,0.9,0.9,0.9c0,0,0,0,0,0h0.1c1-0.1,1.9-0.5,2.6-1.2l1-5.4h1.4
	L356.2,206.6z"/>
<path class="st1" d="M360.3,205.3c-0.6-0.2-1-0.8-1-1.5c0-0.7,0.4-1.3,1-1.6c0.6-0.4,1.3-0.6,2-0.6c0.8,0,1.7,0.2,2.4,0.5
	c0.4,0.1,0.6,0.4,0.7,0.8c0,0.3-0.2,0.6-0.6,0.6c0,0,0,0,0,0h-0.1c-0.4,0-0.7-0.2-0.8-0.5c-0.1-0.3-0.4-0.5-0.6-0.6
	c-0.3-0.2-0.7-0.3-1-0.2c-0.7-0.1-1.4,0.4-1.5,1.1c0,0,0,0,0,0v0.1c0,0.3,0.2,0.7,0.5,0.8c0.5,0.2,1,0.4,1.5,0.5
	c1,0.3,2.3,0.6,2.3,1.9c0,0.8-0.5,1.5-1.2,1.9c-0.7,0.4-1.5,0.6-2.3,0.6c-0.9,0-1.7-0.2-2.5-0.6c-0.4-0.2-0.7-0.6-0.8-1
	c0-0.4,0.3-0.7,0.7-0.6c1.3,0,0.8,1.6,2.8,1.6c0.4,0,0.9-0.1,1.3-0.4c0.3-0.2,0.6-0.6,0.6-1c-0.1-0.7-0.7-1.1-1.3-1.2L360.3,205.3z"
	/>
<path class="st1" d="M368.4,207c0,0.2-0.1,0.3-0.1,0.5c0,0.4,0.3,0.8,0.7,0.8c0,0,0,0,0,0h0.1c0.4,0,0.7-0.2,1-0.5l0.3,0.3
	c-0.5,0.6-1.3,1-2.1,1c-0.7,0-1.4-0.5-1.4-1.3c0-0.1,0-0.1,0-0.2c0-0.2,0-0.5,0.1-0.7l0.5-3c0-0.2,0.1-0.3,0.1-0.5
	c0-0.6-0.4-0.7-1-0.8h-0.1l0.1-0.4l0.6-0.1c0.5-0.1,1-0.2,1.5-0.3h0.5L368.4,207z M368.9,201c-0.4,0-0.7-0.3-0.7-0.7c0,0,0,0,0,0
	l0,0c0-0.5,0.5-1,1-1c0.4,0,0.7,0.2,0.8,0.6c0,0,0,0.1,0,0.1C369.9,200.5,369.5,201,368.9,201L368.9,201L368.9,201z"/>
<path class="st1" d="M372.1,209h-1.4l0.9-5.1c0-0.2,0.1-0.4,0.1-0.6c0-0.6-0.5-0.7-1-0.7l0.1-0.4l2.1-0.3h0.5l-0.2,1.1
	c0.9-0.7,2-1.1,3.1-1.2c0.8-0.1,1.6,0.4,1.8,1.3c0,0.1,0,0.1,0,0.2c0,0.3,0,0.6-0.1,0.9l-0.6,2.9c0,0.2-0.1,0.4-0.1,0.6
	c0,0.4,0.3,0.7,0.7,0.8c0.4,0,0.7-0.2,1-0.5l0.3,0.3c-0.5,0.6-1.2,0.9-2,0.9c-0.7,0-1.3-0.5-1.4-1.3c0,0,0,0,0,0c0,0,0,0,0-0.1l0,0
	c0-0.5,0.1-1,0.2-1.4l0.4-2.4c0-0.2,0.1-0.5,0.1-0.7c0-0.5-0.5-0.9-1-0.9c-1,0.1-1.9,0.5-2.6,1.2L372.1,209z"/>
<path class="st1" d="M386.3,207.8c-1,0.9-2.3,1.3-3.7,1.4c-1.6,0.1-3-1-3.2-2.6c0,0,0-0.1,0-0.1c0.1-1.3,0.6-2.5,1.6-3.3
	c1-0.9,2.2-1.3,3.5-1.4c1,0,2.5,0.4,2.5,1.6c0,2-4.3,2.4-5.9,2.5c-0.1,0.2-0.1,0.5-0.1,0.7c0,1,0.8,1.9,1.9,1.9c0,0,0,0,0,0h0.3
	c1-0.1,2-0.5,2.8-1.1L386.3,207.8z M381.3,205.2c1.3,0,4.4-0.3,4.4-1.9c0-0.6-0.6-1.1-1.3-1.1h-0.1
	C382.7,202.2,381.7,203.9,381.3,205.2L381.3,205.2z"/>
<path class="st1" d="M389.6,205.3c-0.6-0.2-1-0.8-1-1.5c0-0.7,0.4-1.3,1-1.6c0.6-0.4,1.3-0.6,2-0.6c0.8,0,1.7,0.2,2.4,0.5
	c0.4,0.1,0.6,0.4,0.7,0.8c0,0.3-0.2,0.6-0.6,0.6c0,0,0,0,0,0H394c-0.4,0-0.7-0.2-0.8-0.5c-0.1-0.3-0.4-0.5-0.6-0.6
	c-0.3-0.2-0.7-0.3-1-0.2c-0.7-0.1-1.4,0.4-1.5,1.1c0,0,0,0,0,0v0.1c0,0.3,0.2,0.7,0.5,0.8c0.5,0.2,1,0.4,1.5,0.5
	c1,0.3,2.3,0.6,2.3,1.9c0,0.8-0.5,1.5-1.2,1.9c-0.7,0.4-1.5,0.6-2.3,0.6c-0.9,0-1.7-0.2-2.5-0.6c-0.4-0.2-0.7-0.6-0.8-1
	c0-0.4,0.3-0.7,0.7-0.6c1.3,0,0.8,1.6,2.8,1.6c0.4,0,0.9-0.1,1.3-0.4c0.3-0.2,0.6-0.6,0.6-1c-0.1-0.7-0.7-1.1-1.3-1.2L389.6,205.3z"
	/>
<path class="st1" d="M397.6,205.3c-0.6-0.2-1-0.8-1-1.5c0-0.7,0.4-1.3,1-1.6c0.6-0.4,1.3-0.6,2-0.6c0.8,0,1.7,0.2,2.4,0.5
	c0.4,0.1,0.6,0.4,0.7,0.8c0,0.3-0.2,0.6-0.6,0.6c0,0,0,0,0,0H402c-0.4,0-0.7-0.2-0.8-0.5c-0.1-0.3-0.4-0.5-0.6-0.6
	c-0.3-0.2-0.7-0.3-1-0.2c-0.7-0.1-1.4,0.4-1.5,1.1c0,0,0,0,0,0v0.1c0,0.3,0.2,0.7,0.5,0.8c0.5,0.2,1,0.4,1.5,0.5
	c1,0.3,2.3,0.6,2.3,1.9c0,0.8-0.5,1.5-1.2,1.9c-0.7,0.4-1.5,0.6-2.3,0.6c-0.9,0-1.7-0.2-2.5-0.6c-0.4-0.2-0.7-0.6-0.8-1
	c0-0.4,0.3-0.7,0.7-0.6c1.3,0,0.8,1.6,2.8,1.6c0.4,0,0.9-0.1,1.3-0.4c0.3-0.2,0.6-0.6,0.6-1c-0.1-0.7-0.7-1.1-1.3-1.2L397.6,205.3z"
	/>
<path class="st1" d="M416.9,201.8h-0.5c-0.2-0.6-0.6-1.2-1-1.6c-0.6-0.5-1.4-0.8-2.2-0.8c-0.6,0-1.2,0.2-1.8,0.6
	c-0.4,0.3-0.7,0.8-0.8,1.4c0,0.9,1.1,1.2,1.8,1.4l2,0.6c1.3,0.3,2.4,0.8,2.4,2.3c0,1.1-0.6,2-1.5,2.6c-0.9,0.7-2,1-3.1,1
	c-1.1,0-2.2-0.3-3.1-1l-0.4,0.8h-0.6l-0.3-3.7h0.5c0.3,1.8,1.8,3.1,3.7,3.2c0.8,0,1.5-0.2,2.1-0.7c0.6-0.4,1-1.1,1-1.8
	c0-0.4-0.2-0.8-0.6-1c-0.6-0.3-1.3-0.5-1.9-0.6c-1.4-0.4-3.6-0.8-3.6-2.6c0-0.9,0.5-1.7,1.2-2.2c0.8-0.6,1.7-0.9,2.7-0.8
	c1,0,1.9,0.3,2.8,0.8l0.3-0.6h0.5L416.9,201.8z"/>
<path class="st1" d="M423.8,207.6c-0.9,0.9-2.1,1.5-3.4,1.5c-1.6,0.1-2.9-1.1-3-2.6c0,0,0,0,0,0c0-0.1,0-0.2,0-0.3
	c0-2.5,2-4.5,4.5-4.5c1,0,2.3,0.5,2.3,1.6c0,0.5-0.3,0.8-0.8,0.9c0,0,0,0,0,0l0,0c-0.3,0-0.5-0.2-0.6-0.4c0,0,0-0.1,0-0.1v-0.4
	c0-0.5-0.4-0.9-0.9-0.9c0,0,0,0,0,0h-0.2c-1.8,0-2.8,2.6-2.8,4c-0.1,1.1,0.8,1.9,1.8,2c0,0,0,0,0,0h0.1c1-0.1,1.9-0.5,2.6-1.2
	L423.8,207.6z"/>
<path class="st1" d="M431.6,206.8c-0.1,0.2-0.1,0.4-0.1,0.6c0,0.4,0.3,0.8,0.8,0.8c0,0,0,0,0,0l0,0c0.4,0,0.8-0.2,1-0.6l0.3,0.3
	c-0.5,0.6-1.3,1-2.1,1.1c-0.8,0-1.4-0.6-1.5-1.4c0-0.1,0-0.1,0-0.2v-0.2l0,0c-0.6,1.1-1.8,1.8-3,1.8c-1.4,0-2.5-1.1-2.6-2.5
	c0-0.1,0-0.2,0-0.3c0-2.3,1.8-4.6,4.2-4.6c0.8,0,1.6,0.3,2.2,0.9l0.1-0.7h1.4L431.6,206.8z M429.1,202.4c-2,0-3.1,2.6-3.1,4.3
	c-0.1,0.8,0.4,1.6,1.2,1.7h0.2c1.1-0.2,2.1-0.9,2.5-2c0.4-1,0.7-2.1,0.9-3.2C430.4,202.6,429.8,202.3,429.1,202.4L429.1,202.4
	L429.1,202.4z"/>
<path class="st1" d="M435.7,206.4c-0.1,0.3-0.1,0.7-0.1,1v0.1c0,0.5,0.3,0.8,0.8,0.8c0,0,0,0,0,0l0,0c0.4-0.1,0.8-0.3,1-0.6l0.3,0.3
	c-0.5,0.7-1.4,1.1-2.2,1.1c-0.7,0-1.4-0.6-1.4-1.3v0c0,0,0-0.1,0-0.1c0-0.4,0-0.8,0.1-1.1l1-5.9c0-0.2,0.1-0.3,0.1-0.5
	c0-0.6-0.5-0.7-1.1-0.8l0.1-0.4c0.7-0.1,1.4-0.3,2.1-0.5h0.6L435.7,206.4z"/>
<path class="st1" d="M444.7,207.8c-1,0.8-2.3,1.3-3.6,1.4c-1.6,0.1-3-1-3.2-2.6c0,0,0-0.1,0-0.1c0.1-1.3,0.6-2.5,1.6-3.3
	c1-0.9,2.2-1.3,3.5-1.4c1,0,2.5,0.4,2.5,1.6c0,2-4.3,2.4-5.9,2.5c-0.1,0.2-0.1,0.5-0.1,0.7c0,1,0.8,1.9,1.9,1.9c0,0,0,0,0,0h0.3
	c1-0.1,2-0.5,2.8-1.1L444.7,207.8z M439.6,205.2c1.3,0,4.4-0.3,4.4-1.9c0-0.6-0.6-1.1-1.3-1.1h-0.1
	C441,202.2,439.9,203.9,439.6,205.2L439.6,205.2L439.6,205.2z"/>
<rect x="233.1" y="128.2" class="st4" width="22" height="28.5"/>
<line class="st3" x1="236.9" y1="137" x2="251.3" y2="137"/>
<line class="st3" x1="236.9" y1="140.6" x2="251.3" y2="140.6"/>
<line class="st3" x1="236.9" y1="144.2" x2="251.3" y2="144.2"/>
<line class="st3" x1="236.9" y1="147.8" x2="251.3" y2="147.8"/>
<line class="st3" x1="236.9" y1="151.4" x2="246.1" y2="151.4"/>
<rect x="240.3" y="122.9" class="st4" width="22" height="28.5"/>
<line class="st3" x1="244.1" y1="135.3" x2="258.4" y2="135.3"/>
<line class="st3" x1="244.1" y1="138.9" x2="258.4" y2="138.9"/>
<line class="st3" x1="244.1" y1="142.5" x2="258.4" y2="142.5"/>
<line class="st3" x1="244.1" y1="146.1" x2="253.3" y2="146.1"/>
<rect x="376.8" y="138.8" class="st4" width="29.2" height="19.7"/>
<rect x="381.9" y="126.1" class="st0" width="19.1" height="29.9"/>
<polygon class="st4" points="402.2,131.7 391.4,121 380.6,131.7 385.4,131.7 385.4,152.2 397.4,152.2 397.4,131.7 "/>
<polygon class="st4" points="108.7,152.4 98.8,157.6 100.7,146.6 92.7,138.8 103.8,137.2 108.7,127.2 113.6,137.2 124.6,138.8 
	116.7,146.6 118.5,157.6 "/>
<path class="st1" d="M177.7,302.1h-0.6c-0.5-1.5-1.3-3.1-3.1-3.1c-1.4,0.1-2.6,0.9-3.3,2.1c-0.7,1.2-1.1,2.5-1.1,3.8
	c-0.2,1.6,1,3.1,2.6,3.2c0,0,0,0,0,0h0.4c1.7,0,3.3-1,4.2-2.6l0.6,0.3c-1,1.9-3,3.1-5.1,3c-2.3,0.2-4.3-1.5-4.4-3.8
	c0-0.2,0-0.4,0-0.5c0-3.4,2.6-6.1,6-6.2c1,0,1.9,0.3,2.7,1l0.4-0.8h0.5L177.7,302.1z"/>
<path class="st1" d="M180.6,306.7v0.5c-0.1,0.5,0.3,0.9,0.8,1h0.4l-0.1,0.4h-4.1l0.1-0.5c1.1-0.1,1.4-0.6,1.5-1.6l1.1-6.1
	c0-0.2,0.1-0.3,0.1-0.5c0.1-0.5-0.3-0.9-0.8-1c0,0,0,0,0,0h-0.2l0.1-0.4h4.7c0.7-0.1,1.4,0.1,2.1,0.4c0.8,0.4,1.2,1.2,1.2,2
	c0,1.2-0.6,2.3-1.6,2.8c-1.1,0.4-2.2,0.6-3.4,0.6h-1.3L180.6,306.7z M182.4,303.7c0.9,0.1,1.8-0.1,2.5-0.6c0.6-0.6,0.9-1.4,0.9-2.2
	c0-0.5-0.1-1-0.5-1.3c-0.5-0.3-1.1-0.5-1.6-0.4c-0.5,0-1.1,0.1-1.5,0.2c-0.2,0.3-0.3,0.6-0.4,0.9l-0.6,3.4H182.4L182.4,303.7z"/>
<path class="st1" d="M195.5,306.5c0.2,1,0.2,1.5,1.4,1.7l-0.1,0.4h-4l0.1-0.4c0.6-0.1,1.2-0.2,1.2-0.9c0-0.2,0-0.3-0.1-0.5l-0.4-1.9
	h-3.8l-0.7,1.3c-0.3,0.4-0.4,0.8-0.5,1.3c0,0.4,0.4,0.8,0.8,0.7c0,0,0,0,0,0h0.4l-0.1,0.4h-3.9l0.1-0.4c0.8-0.1,1.5-0.6,1.9-1.4
	l4.6-8.2h1.4L195.5,306.5z M192.5,299.8l-2.4,4.5h3.4L192.5,299.8z"/>
<path class="st1" d="M199.6,305c-0.6-0.2-1-0.8-1-1.5c0-0.7,0.4-1.3,1-1.6c0.6-0.4,1.3-0.6,2-0.6c0.8,0,1.7,0.2,2.4,0.5
	c0.4,0.1,0.6,0.4,0.7,0.8c0,0.3-0.2,0.6-0.6,0.6c0,0,0,0,0,0H204c-0.4,0-0.7-0.2-0.8-0.5c-0.1-0.3-0.4-0.5-0.6-0.6
	c-0.3-0.2-0.7-0.3-1-0.2c-0.7-0.1-1.4,0.4-1.5,1.1c0,0,0,0,0,0v0.1c0,0.3,0.2,0.7,0.5,0.8c0.5,0.2,1,0.4,1.4,0.5
	c1,0.3,2.3,0.6,2.3,1.9c0,0.8-0.5,1.5-1.2,1.9c-0.7,0.4-1.5,0.6-2.3,0.6c-0.9,0-1.7-0.2-2.5-0.6c-0.4-0.2-0.7-0.6-0.8-1
	c0-0.4,0.3-0.7,0.7-0.6c1.3,0,0.8,1.6,2.8,1.6c0.4,0,0.9-0.1,1.3-0.4c0.3-0.2,0.6-0.6,0.6-1c-0.1-0.7-0.7-1.1-1.3-1.2L199.6,305z"/>
<path class="st1" d="M163.8,318.7c2.3-0.1,4.2,1.6,4.3,3.9c0,0.1,0,0.3,0,0.4c0,1.6-0.7,3.2-1.8,4.4c-1.1,1.2-2.7,1.9-4.4,1.9
	c-2.3,0.1-4.2-1.6-4.4-3.9c0-0.1,0-0.3,0-0.4C157.6,321.5,160.4,318.7,163.8,318.7C163.8,318.7,163.8,318.7,163.8,318.7L163.8,318.7
	L163.8,318.7z M165.7,320.3c-0.5-0.6-1.2-0.9-2-0.9c-1.4,0.1-2.7,0.9-3.4,2.2c-0.6,1.1-1,2.4-1,3.7c0,1.7,0.8,3.2,2.7,3.2
	c1.4-0.1,2.7-0.9,3.4-2.2c0.6-1.2,1-2.5,1-3.9C166.4,321.7,166.2,320.9,165.7,320.3z"/>
<path class="st1" d="M170.2,329h-1.4l0.9-5.1c0-0.2,0.1-0.4,0.1-0.5c0-0.6-0.5-0.7-1-0.7l0.1-0.4l2.1-0.3h0.5l-0.2,1.1
	c0.9-0.7,1.9-1.1,3.1-1.2c0.8-0.1,1.6,0.4,1.8,1.3c0,0.1,0,0.1,0,0.2c0,0.3,0,0.6-0.1,0.9l-0.5,2.9c0,0.2-0.1,0.4-0.1,0.6
	c0,0.4,0.3,0.7,0.7,0.8c0.4,0,0.7-0.2,1-0.5l0.3,0.3c-0.5,0.6-1.2,0.9-2,0.9c-0.7,0-1.3-0.5-1.4-1.3c0,0,0,0,0,0c0,0,0,0,0-0.1l0,0
	c0-0.5,0.1-1,0.2-1.4l0.4-2.4c0-0.2,0.1-0.5,0.1-0.7c0-0.5-0.5-0.9-1-0.9c-1,0.1-1.9,0.5-2.6,1.2L170.2,329z"/>
<path class="st1" d="M191,321.8h-0.5c-0.2-0.6-0.6-1.2-1-1.6c-0.6-0.5-1.4-0.8-2.2-0.8c-0.6,0-1.2,0.2-1.8,0.6
	c-0.4,0.3-0.7,0.8-0.8,1.4c0,0.9,1.1,1.2,1.8,1.4l2,0.6c1.3,0.3,2.4,0.8,2.4,2.3c0,1.1-0.6,2-1.5,2.6c-0.9,0.7-2,1-3.1,1
	c-1.1,0-2.2-0.3-3.1-1L183,329h-0.6l-0.3-3.7h0.6c0.3,1.8,1.8,3.1,3.7,3.2c0.8,0,1.5-0.2,2.1-0.7c0.6-0.4,1-1.1,1-1.8
	c0-0.4-0.2-0.8-0.6-1c-0.6-0.3-1.3-0.5-1.9-0.6c-1.4-0.4-3.6-0.8-3.6-2.6c0-0.9,0.5-1.7,1.2-2.2c0.8-0.6,1.7-0.9,2.7-0.8
	c1,0,1.9,0.3,2.8,0.8l0.3-0.5h0.5L191,321.8z"/>
<path class="st1" d="M194.6,321.8h2.1l-0.1,0.4h-2.1l-0.7,4c-0.1,0.4-0.1,0.8-0.1,1.2c-0.1,0.5,0.2,0.9,0.6,1c0,0,0,0,0,0h0.2
	c0.5,0,1.1-0.3,1.4-0.7l0.3,0.4c-0.6,0.6-1.4,0.9-2.3,0.9c-0.8,0-1.8-0.3-1.8-1.2c0-0.4,0.1-0.9,0.2-1.3l0.8-4.3h-1.3l0.1-0.4
	c1.8-0.1,2.2-1.1,2.5-2.7h0.6L194.6,321.8z"/>
<path class="st1" d="M203.7,326.8c-0.1,0.2-0.1,0.4-0.1,0.6c0,0.4,0.3,0.8,0.8,0.8c0,0,0,0,0,0l0,0c0.4,0,0.8-0.2,1-0.5l0.3,0.3
	c-0.5,0.6-1.3,1-2.1,1.1c-0.8,0-1.4-0.6-1.5-1.4c0-0.1,0-0.1,0-0.2v-0.2l0,0c-0.6,1.1-1.8,1.8-3,1.8c-1.4,0-2.5-1.1-2.6-2.5
	c0-0.1,0-0.2,0-0.3c0-2.3,1.8-4.6,4.2-4.6c0.8,0,1.6,0.3,2.2,0.9l0.1-0.7h1.4L203.7,326.8z M201.2,322.4c-2,0-3.1,2.6-3.1,4.3
	c-0.1,0.8,0.4,1.6,1.2,1.7h0.2c1.1-0.2,2.1-0.9,2.5-2c0.4-1,0.7-2.1,0.9-3.2C202.6,322.6,201.9,322.3,201.2,322.4L201.2,322.4
	L201.2,322.4z"/>
<path class="st1" d="M211,321.8l-0.1,0.4h-1.5l-1,5.7c-0.1,1.1-0.4,2.1-1,3c-0.7,0.9-1.9,1.3-3,1.2c-0.6,0-2-0.2-2-1.1
	c0-0.3,0.3-0.6,0.6-0.5c0,0,0,0,0,0h0.1c1,0,1,1.1,2,1.1c0.4,0,0.8-0.2,1.1-0.5c0.3-0.4,0.4-0.9,0.5-1.4l0.2-1l1.1-6.5h-1.3l0.1-0.4
	h1.4c0-0.9,0.3-1.7,0.8-2.4c0.6-0.7,1.5-1.2,2.4-1.2c0.5,0,1.7,0.1,1.7,0.9c0,0.3-0.3,0.6-0.7,0.6c0,0,0,0,0,0l0,0
	c-0.9,0-0.6-0.9-1.5-0.9c-0.3,0-0.7,0.2-0.8,0.5c-0.2,0.4-0.4,0.8-0.4,1.3l-0.2,1.3H211L211,321.8L211,321.8z"/>
<path class="st1" d="M216,321.8l-0.1,0.4h-1.5l-1,5.7c-0.1,1.1-0.4,2.1-1,3c-0.7,0.9-1.9,1.3-3,1.2c-0.6,0-2-0.2-2-1.1
	c0-0.3,0.3-0.6,0.6-0.5c0,0,0,0,0,0h0.1c1,0,1,1.1,2,1.1c0.4,0,0.8-0.2,1.1-0.5c0.3-0.4,0.4-0.9,0.5-1.4l0.2-1l1.1-6.5h-1.3l0.1-0.4
	h1.4c0-0.9,0.3-1.7,0.8-2.4c0.6-0.7,1.5-1.2,2.4-1.2c0.5,0,1.7,0.1,1.7,0.9c0,0.3-0.3,0.6-0.7,0.6c0,0,0,0,0,0l0,0
	c-0.9,0-0.6-0.9-1.5-0.9c-0.3,0-0.7,0.2-0.8,0.5c-0.2,0.4-0.4,0.8-0.4,1.3l-0.2,1.3H216L216,321.8L216,321.8z"/>
<path class="st1" d="M274.6,299c1.2-0.1,2.4,0.2,3.4,0.8c0.9,0.8,1.5,2,1.4,3.3c0,1.6-0.7,3.1-1.8,4.3c-1.2,1.2-2.8,1.8-4.5,1.6h-5
	l0.1-0.4c1.1-0.1,1.4-0.6,1.5-1.6l1.1-6.1c0-0.2,0.1-0.3,0.1-0.5c0.1-0.5-0.3-0.9-0.7-1c0,0,0,0,0,0h-0.3l0.1-0.4L274.6,299
	L274.6,299L274.6,299z M271.2,307.3c0,0.2-0.1,0.3-0.1,0.5c0,0.2,0.1,0.4,0.3,0.5c0.4,0.2,0.8,0.2,1.2,0.2c1.5,0.1,2.9-0.5,3.8-1.6
	c0.8-1.1,1.2-2.5,1.2-3.9c0-2.2-1.1-3.4-3.2-3.4c-0.6,0-1.1,0.1-1.6,0.3c-0.3,0.2-0.5,0.5-0.5,0.9L271.2,307.3z"/>
<path class="st1" d="M286.6,307.8c-1,0.8-2.3,1.3-3.6,1.4c-1.6,0.1-3-1-3.2-2.6c0,0,0-0.1,0-0.1c0.1-1.3,0.6-2.5,1.6-3.3
	c1-0.9,2.2-1.3,3.5-1.4c1,0,2.5,0.4,2.5,1.6c0,2-4.3,2.4-5.9,2.5c-0.1,0.2-0.1,0.5-0.1,0.7c0,1,0.8,1.9,1.9,1.9c0,0,0,0,0,0h0.3
	c1-0.1,2-0.5,2.8-1.1L286.6,307.8z M281.5,305.3c1.3,0,4.4-0.3,4.4-1.9c0-0.6-0.6-1.1-1.3-1.1h-0.1C283,302.3,281.9,304,281.5,305.3
	L281.5,305.3L281.5,305.3z"/>
<path class="st1" d="M290.5,303.8L290.5,303.8c0.5-1.2,1.7-2,3-2.1c1.3,0,2.4,1,2.4,2.4c0,0.1,0,0.2,0,0.3v0.1
	c0,1.1-0.4,2.2-1.1,3.1c-0.7,0.9-1.8,1.5-3,1.5c-0.8,0-1.6-0.3-2.2-0.9l-0.4,2.2c0,0.2-0.1,0.3-0.1,0.5c0,0.6,0.5,0.7,1.1,0.8
	l-0.1,0.4h-3.9l0.1-0.4c1.2-0.1,1.4-0.6,1.5-1.6l1.1-6.2c0-0.2,0.1-0.3,0.1-0.5c0-0.3-0.2-0.7-0.5-0.7h-0.1l-0.4-0.1l0.1-0.4
	l2.1-0.2h0.5L290.5,303.8z M289.8,307.7c0.4,0.5,1,0.8,1.7,0.8c2,0,2.9-2.6,2.9-4.3c0-0.9-0.3-1.7-1.3-1.7c-1,0.1-1.9,0.8-2.3,1.7
	c-0.4,1-0.8,2-0.9,3L289.8,307.7z"/>
<path class="st1" d="M299.6,301.9h2.1l-0.1,0.4h-2.1l-0.7,4c-0.1,0.4-0.1,0.8-0.1,1.2c-0.1,0.5,0.2,0.9,0.6,1c0,0,0,0,0,0h0.2
	c0.5,0,1.1-0.3,1.4-0.7l0.3,0.4c-0.6,0.6-1.4,0.9-2.3,0.9c-0.8,0-1.8-0.3-1.8-1.2c0-0.4,0.1-0.9,0.2-1.3l0.8-4.3h-1.3l0.1-0.4
	c1.8-0.1,2.2-1.1,2.5-2.7h0.5L299.6,301.9z"/>
<path class="st1" d="M303.5,300.7c0-0.2,0.1-0.3,0.1-0.5c0-0.4-0.2-0.7-0.6-0.7h-0.5l0.1-0.4c0.7-0.1,1.4-0.3,2.1-0.5h0.5l-0.8,4.5
	c0.9-0.7,2-1.1,3.1-1.2c0.9,0,1.9,0.4,1.9,1.4c0,0.5-0.1,0.9-0.2,1.4l-0.4,2.2c-0.1,0.3-0.1,0.7-0.1,1c0,0.4,0.4,0.8,0.8,0.8
	c0,0,0,0,0,0l0,0c0.4,0,0.7-0.2,1-0.5l0.3,0.3c-0.5,0.6-1.2,0.9-2,1c-0.8,0.1-1.4-0.5-1.5-1.2c0-0.1,0-0.1,0-0.2
	c0-0.3,0.1-0.6,0.1-0.9l0.5-2.6c0-0.3,0.1-0.5,0.1-0.8l0,0c0-0.5-0.4-0.9-0.9-0.9c0,0,0,0-0.1,0h-0.1c-1,0.1-1.9,0.6-2.7,1.2
	l-0.9,5.2h-1.4L303.5,300.7z"/>
<path class="st1" d="M318.8,309.3c-0.8,0-1.6-0.2-2.3-0.6c-0.8-0.5-1.3-1.3-1.3-2.2c0-1.8,1.7-3.1,3.3-3.5c-0.4-0.5-0.6-1-0.6-1.6
	c0.1-1.6,1.4-2.8,3-2.7c0.9-0.1,1.8,0.6,1.8,1.6c0,0,0,0,0,0c0,0,0,0,0,0.1c0,1.3-1.3,2.3-2.4,2.6c1,1,1.9,2.2,2.5,3.5
	c0.5-0.5,0.8-1.1,1-1.8c0-0.2-0.1-0.3-0.2-0.3c0,0,0,0,0,0h0c-0.4,0-0.7-0.4-0.6-0.8l0,0c0.1-0.5,0.5-0.9,1-1c0.6,0,1.1,0.5,1.1,1.1
	l0,0c0,0,0,0.1,0,0.1c0,1.1-1.1,2.6-1.8,3.4c0.4,0.7,0.8,1.6,1.8,1.6c0.3,0.1,0.6-0.1,0.7-0.5c0-0.3-0.4-0.2-0.4-0.9
	c0-0.5,0.4-0.9,0.9-0.9c0.5,0,0.9,0.4,0.8,0.9c0,1.2-1.4,2-2.5,2c-0.9,0-1.8-0.4-2.3-1.2C321.1,308.9,320,309.3,318.8,309.3z
	 M316.8,306.5c-0.1,1.1,0.7,2.1,1.8,2.2c0.1,0,0.3,0,0.4,0c1,0,2-0.3,2.8-1c-0.7-1.6-1.6-3-2.9-4.1
	C317.6,303.9,316.7,305.1,316.8,306.5L316.8,306.5L316.8,306.5z M320.6,299.3c-0.9,0-1.5,0.8-1.5,1.6l0,0c0,0.6,0.3,1.2,0.7,1.6
	c1-0.3,1.7-1.2,1.8-2.3C321.6,299.8,321.2,299.3,320.6,299.3L320.6,299.3L320.6,299.3z"/>
<path class="st1" d="M256,324.6l-0.5,2.9v0.5c0,0.2,0.1,0.4,0.2,0.5c0.2,0.2,0.5,0.4,0.8,0.4h0.3l-0.1,0.4h-4.2l0.1-0.4
	c1.2-0.1,1.4-0.6,1.5-1.6l1.1-6.1c0-0.2,0.1-0.3,0.1-0.5c0.1-0.5-0.3-0.9-0.7-1c0,0,0,0,0,0h-0.3l0.1-0.4h5.3c1.6,0,3.4,0.2,3.4,2.2
	c-0.1,1.7-1.6,3-3.3,3l1.7,3c0.3,0.7,0.9,1.3,1.7,1.4l-0.1,0.4h-2.5l-2.5-4.8L256,324.6L256,324.6z M258,324
	c0.8,0.1,1.6-0.1,2.3-0.4c0.7-0.4,1.1-1.2,1.1-2c0-0.6-0.3-1.1-0.9-1.4c-0.6-0.2-1.2-0.3-1.8-0.3c-0.6,0-1.1,0.1-1.7,0.3
	c-0.3,0.2-0.4,0.5-0.4,0.9l-0.5,2.9L258,324L258,324L258,324z"/>
<path class="st1" d="M270.3,328.1c-1,0.8-2.3,1.3-3.6,1.4c-1.6,0.1-3-1-3.2-2.6c0,0,0-0.1,0-0.1c0.1-1.3,0.6-2.5,1.6-3.3
	c1-0.9,2.2-1.3,3.5-1.4c1,0,2.5,0.4,2.5,1.6c0,2-4.3,2.4-5.9,2.5c-0.1,0.2-0.1,0.5-0.1,0.7c0,1,0.8,1.9,1.9,1.9c0,0,0,0,0,0h0.3
	c1-0.1,2-0.5,2.8-1.1L270.3,328.1z M265.2,325.6c1.3,0,4.4-0.3,4.4-1.9c0-0.6-0.6-1.1-1.3-1.1h-0.1
	C266.7,322.6,265.6,324.3,265.2,325.6L265.2,325.6z"/>
<path class="st1" d="M280.8,328.5c-0.6,0.6-1.3,1-2.1,1c-0.7,0.1-1.4-0.5-1.4-1.3c0,0,0,0,0,0c0,0,0-0.1,0-0.1v-0.6
	c-0.6,1.1-1.8,1.9-3.1,1.9c-1.4,0-2.6-1.1-2.6-2.5c0-0.1,0-0.2,0-0.3c0-1.2,0.5-2.3,1.2-3.2c0.8-0.9,1.9-1.4,3.1-1.4
	c0.8,0,1.6,0.3,2.2,0.9l0.3-1.9c0-0.2,0.1-0.3,0.1-0.5c0-0.6-0.5-0.7-1-0.8h-0.1l0.1-0.4c0.7,0,1.5-0.2,2.2-0.5h0.6l-1.4,8.1
	c-0.1,0.4-0.1,0.7-0.1,1.1c0,0.4,0.3,0.7,0.7,0.8c0,0,0,0,0,0h0.1c0.4,0,0.8-0.2,1.1-0.5L280.8,328.5z M277.9,323.7
	c-0.4-0.5-1.1-0.9-1.8-0.9c-2.1,0-3.1,2.6-3.1,4.4c-0.1,0.8,0.4,1.5,1.2,1.6h0.3c1.1-0.1,2-0.8,2.5-1.8c0.5-1,0.8-2,0.9-3.1
	L277.9,323.7z"/>
<path class="st1" d="M288.1,326.9c-0.1,0.3-0.1,0.7-0.1,1c0,0.4,0.3,0.8,0.7,0.8c0,0,0,0,0,0l0,0c0.4,0,0.8-0.2,1-0.5l0.4,0.3
	c-0.5,0.6-1.3,1-2.1,1c-0.8,0.1-1.4-0.5-1.5-1.3c0,0,0,0,0,0l0,0c-0.9,0.8-2,1.3-3.2,1.4c-0.8,0.1-1.5-0.4-1.7-1.2
	c0-0.1,0-0.1,0-0.2c0-0.3,0.1-0.7,0.1-1l0.5-2.7c0-0.2,0.1-0.4,0.1-0.5c0-0.4-0.3-0.7-0.6-0.7c0,0,0,0,0,0l0,0l-0.3-0.1l0.1-0.4
	l2.1-0.4h0.5l-0.8,4.9c0,0.2-0.1,0.4-0.1,0.7v0.1c0,0.5,0.4,0.9,0.9,0.9c0,0,0,0,0,0h0.1c1-0.1,1.9-0.5,2.6-1.2l1-5.4h1.4
	L288.1,326.9z"/>
<path class="st1" d="M291.8,329.4h-1.4l0.9-5.1c0-0.2,0.1-0.4,0.1-0.5c0-0.6-0.5-0.7-1-0.7l0.1-0.4l2.1-0.3h0.5l-0.2,1.1
	c0.9-0.7,2-1.1,3.1-1.2c0.8-0.1,1.6,0.4,1.8,1.3c0,0.1,0,0.1,0,0.2c0,0.3,0,0.6-0.1,0.9l-0.5,2.9c0,0.2-0.1,0.4-0.1,0.6
	c0,0.4,0.3,0.7,0.7,0.8c0.4,0,0.7-0.2,1-0.5l0.3,0.3c-0.5,0.6-1.2,0.9-2,0.9c-0.7,0-1.3-0.5-1.4-1.3c0,0,0,0,0,0c0,0,0,0,0-0.1l0,0
	c0-0.5,0.1-1,0.2-1.4l0.4-2.4c0-0.2,0.1-0.5,0.1-0.7c0-0.5-0.5-0.9-1-0.9c-1,0.1-1.9,0.5-2.6,1.2L291.8,329.4z"/>
<path class="st1" d="M308.6,328.5c-0.6,0.6-1.4,1-2.2,1c-0.7,0.1-1.4-0.5-1.4-1.3c0,0,0,0,0,0c0,0,0-0.1,0-0.1v-0.6
	c-0.6,1.1-1.8,1.9-3.1,1.9c-1.4,0-2.6-1.1-2.6-2.5c0-0.1,0-0.2,0-0.3c0-1.2,0.5-2.3,1.2-3.2c0.8-0.9,1.9-1.4,3.1-1.4
	c0.8,0,1.6,0.3,2.2,0.9l0.3-1.9c0-0.2,0.1-0.3,0.1-0.5c0-0.6-0.5-0.7-1-0.8h-0.1l0.1-0.4c0.7,0,1.5-0.2,2.2-0.5h0.6l-1.4,8.1
	c-0.1,0.4-0.1,0.7-0.1,1.1c0,0.4,0.3,0.7,0.7,0.8c0,0,0,0,0,0h0.1c0.4,0,0.8-0.2,1.1-0.5L308.6,328.5z M305.7,323.7
	c-0.4-0.5-1.1-0.9-1.8-0.9c-2.1,0-3.1,2.6-3.1,4.4c-0.1,0.8,0.4,1.5,1.2,1.6h0.3c1.1-0.1,2-0.8,2.5-1.8c0.5-1,0.8-2,0.9-3.1
	L305.7,323.7z"/>
<path class="st1" d="M315.8,327.2c-0.1,0.2-0.1,0.4-0.1,0.6c0,0.4,0.3,0.8,0.8,0.8c0,0,0,0,0,0l0,0c0.4,0,0.8-0.2,1-0.5l0.3,0.3
	c-0.5,0.6-1.3,1-2.1,1.1c-0.8,0-1.4-0.6-1.5-1.4c0-0.1,0-0.1,0-0.2v-0.2l0,0c-0.6,1.1-1.8,1.8-3,1.8c-1.4,0-2.5-1.1-2.6-2.5
	c0-0.1,0-0.2,0-0.3c0-2.3,1.8-4.6,4.2-4.6c0.8,0,1.6,0.3,2.2,0.9l0.1-0.7h1.4L315.8,327.2z M313.4,322.8c-2,0-3.1,2.6-3.1,4.3
	c-0.1,0.8,0.4,1.6,1.2,1.7h0.2c1.1-0.2,2.1-0.9,2.5-2c0.4-1,0.7-2.1,0.9-3.2C314.7,323.1,314.1,322.8,313.4,322.8L313.4,322.8z"/>
<path class="st1" d="M319.6,329.4h-1.4l0.9-5.1c0-0.2,0.1-0.4,0.1-0.5c0-0.6-0.5-0.7-1-0.7l0.1-0.4l2.1-0.3h0.5l-0.2,1.1
	c0.9-0.7,2-1.1,3.1-1.2c0.8-0.1,1.6,0.4,1.8,1.3c0,0.1,0,0.1,0,0.2c0,0.3,0,0.6-0.1,0.9l-0.5,2.9c0,0.2-0.1,0.4-0.1,0.6
	c0,0.4,0.3,0.7,0.7,0.8c0.4,0,0.7-0.2,1-0.5l0.3,0.3c-0.5,0.6-1.2,0.9-2,0.9c-0.7,0-1.3-0.5-1.4-1.3c0,0,0,0,0,0c0,0,0,0,0-0.1l0,0
	c0-0.5,0.1-1,0.2-1.4l0.4-2.4c0-0.2,0.1-0.5,0.1-0.7c0-0.5-0.5-0.9-1-0.9c-1,0.1-1.9,0.5-2.6,1.2L319.6,329.4z"/>
<path class="st1" d="M333.4,328c-0.9,0.9-2.1,1.5-3.4,1.5c-1.6,0.1-2.9-1.1-3-2.6c0,0,0,0,0,0c0-0.1,0-0.2,0-0.3
	c0-2.5,2-4.5,4.5-4.5c1,0,2.3,0.5,2.3,1.6c0,0.5-0.3,0.8-0.8,0.9c0,0,0,0,0,0l0,0c-0.3,0-0.5-0.2-0.6-0.4c0,0,0-0.1,0-0.1v-0.4
	c0-0.5-0.4-0.9-0.9-0.9c0,0,0,0,0,0l-0.1,0c-1.8,0-2.8,2.6-2.8,4c-0.1,1.1,0.8,1.9,1.8,2c0,0,0,0,0,0h0.1c1-0.1,1.9-0.5,2.6-1.2
	L333.4,328z"/>
<path class="st1" d="M341,329.3c-0.1,1-0.6,2-1.5,2.5c-0.9,0.6-1.9,0.9-2.9,0.9c-0.7,0-1.3-0.1-1.9-0.4c-0.3-0.1-0.5-0.4-0.6-0.7
	c0-0.4,0.4-0.6,0.7-0.6l0,0c1,0,0.6,1.2,2,1.2c0.7,0,1.3-0.3,1.8-0.8c0.5-0.6,0.8-1.3,0.9-2.1l0.2-1.2c-0.9,0.9-2.1,1.4-3.3,1.5
	c-0.8,0.1-1.6-0.4-1.7-1.3c0-0.1,0-0.2,0-0.3v-0.5l0.1-0.5l0.5-2.8c0-0.2,0.1-0.3,0.1-0.5c0-0.6-0.4-0.7-1-0.7l0.1-0.4h0.4l1.6-0.3
	h0.6l-0.8,4.7c0,0.2-0.1,0.5-0.1,0.8c-0.1,0.5,0.3,0.9,0.8,1c0,0,0,0,0,0h0.2c1.1-0.1,2.1-0.6,2.9-1.4l0.9-5.2h1.4L341,329.3z"/>
<rect x="169.5" y="248.1" class="st4" width="22" height="28.5"/>
<line class="st3" x1="173.4" y1="253.3" x2="187.7" y2="253.3"/>
<line class="st3" x1="173.4" y1="256.9" x2="187.7" y2="256.9"/>
<line class="st3" x1="173.4" y1="260.5" x2="187.7" y2="260.5"/>
<line class="st3" x1="173.4" y1="264.1" x2="187.7" y2="264.1"/>
<line class="st3" x1="173.4" y1="267.7" x2="187.7" y2="267.7"/>
<line class="st3" x1="173.4" y1="271.3" x2="182.5" y2="271.3"/>
<polygon class="st4" points="191.5,243.8 194.5,241.8 196.3,244.9 199.8,244.4 200.1,248 203.5,249 202.2,252.4 204.9,254.8 
	202.2,257.3 203.5,260.6 200.1,261.7 199.8,265.2 196.3,264.7 194.5,267.8 191.5,265.8 188.6,267.8 186.7,264.7 183.2,265.2 
	182.9,261.7 179.5,260.6 180.8,257.3 178.2,254.8 180.8,252.4 179.5,249 182.9,248 183.2,244.4 186.7,244.9 188.6,241.8 "/>
<circle class="st4" cx="191.5" cy="255.2" r="7.1"/>
<path class="st4" d="M286,248.2h22.4c2,0,3.6,1.6,3.6,3.6l0,0l0,0c0,2-1.6,3.6-3.6,3.6l0,0H286c-2,0-3.6-1.6-3.6-3.6c0,0,0,0,0,0
	l0,0C282.4,249.8,284,248.2,286,248.2z"/>
<path class="st4" d="M296.1,259.8h12.3c2,0,3.6,1.6,3.6,3.6l0,0l0,0c0,2-1.6,3.6-3.6,3.6l0,0h-12.3c-2,0-3.6-1.6-3.6-3.6l0,0l0,0
	C292.5,261.4,294.1,259.8,296.1,259.8z"/>
<path class="st4" d="M296.1,271.3h12.3c2,0,3.6,1.6,3.6,3.6l0,0l0,0c0,2-1.6,3.6-3.6,3.6l0,0h-12.3c-2,0-3.6-1.6-3.6-3.6l0,0l0,0
	C292.5,272.9,294.1,271.3,296.1,271.3z"/>
<polyline class="st5" points="286,255.5 286,275.2 292.5,275.2 "/>
<line class="st5" x1="292.5" y1="263.4" x2="286" y2="263.4"/>
<g id="Layer_1-2">
	<path class="st1" d="M33.5,356.3l1.2-0.1v0.3c0,0.3,0.1,0.7,0.2,1c0.2,0.3,0.5,0.6,0.8,0.7c0.4,0.2,0.9,0.3,1.4,0.2
		c0.6,0,1.2-0.1,1.7-0.5c0.4-0.3,0.6-0.7,0.6-1.2c0-0.3-0.1-0.6-0.3-0.8c-0.5-0.4-1.1-0.8-1.7-1c-0.5-0.2-1-0.5-1.5-0.7
		c-0.4-0.2-0.7-0.5-0.9-0.9c-0.2-0.3-0.3-0.7-0.3-1.1c0-0.5,0.1-0.9,0.4-1.3c0.3-0.4,0.7-0.7,1.1-0.9c0.5-0.2,1.1-0.3,1.7-0.3
		c0.7,0,1.3,0.1,1.9,0.4c0.9,0.4,1.4,1.3,1.5,2.2v0.2l-1.2,0.1c0-0.2,0-0.4-0.1-0.6c-0.1-0.2-0.2-0.5-0.4-0.6
		c-0.2-0.2-0.5-0.3-0.7-0.4c-0.3-0.1-0.7-0.2-1-0.2c-0.6,0-1.1,0.1-1.6,0.5c-0.3,0.2-0.4,0.6-0.4,0.9c0,0.2,0.1,0.4,0.2,0.6
		c0.2,0.2,0.4,0.4,0.6,0.5c0.2,0.1,0.7,0.4,1.6,0.7c0.5,0.2,0.9,0.4,1.4,0.7c0.3,0.2,0.6,0.5,0.8,0.8c0.2,0.3,0.3,0.7,0.3,1.1
		c0,0.5-0.2,1-0.5,1.4c-0.3,0.4-0.8,0.8-1.3,1c-0.6,0.2-1.2,0.4-1.9,0.4c-0.9,0-1.8-0.2-2.6-0.7C33.8,358.1,33.4,357.2,33.5,356.3z"
		/>
	<path class="st1" d="M42.3,356.7c0-1.2,0.4-2.4,1.2-3.3c0.6-0.7,1.6-1.1,2.5-1.1c0.7,0,1.5,0.2,2,0.8c0.5,0.5,0.8,1.3,0.8,2
		c0,0.7-0.2,1.5-0.5,2.2c-0.3,0.6-0.7,1.2-1.3,1.5c-0.5,0.3-1.2,0.5-1.8,0.5c-0.5,0-1-0.1-1.4-0.3c-0.4-0.2-0.8-0.6-1-1
		C42.4,357.6,42.3,357.2,42.3,356.7z M43.4,356.6c0,0.5,0.1,1,0.5,1.4c0.3,0.3,0.7,0.5,1.2,0.5c0.3,0,0.5-0.1,0.7-0.1
		c0.3-0.1,0.5-0.3,0.7-0.5c0.2-0.2,0.4-0.4,0.5-0.7c0.1-0.3,0.3-0.5,0.3-0.8c0.1-0.4,0.2-0.8,0.2-1.2c0-0.5-0.1-1.1-0.5-1.5
		c-0.3-0.3-0.7-0.5-1.2-0.5c-0.4,0-0.7,0.1-1,0.3c-0.3,0.2-0.6,0.4-0.8,0.8c-0.2,0.3-0.4,0.7-0.5,1.1
		C43.5,355.8,43.4,356.2,43.4,356.6L43.4,356.6L43.4,356.6z"/>
	<path class="st1" d="M54.1,358c-0.6,0.8-1.5,1.3-2.5,1.4c-0.5,0-0.9-0.1-1.3-0.5c-0.3-0.3-0.5-0.7-0.5-1.1c0-0.5,0.1-1,0.2-1.5
		l0.8-3.9H52l-0.9,4.3c-0.1,0.3-0.1,0.6-0.1,0.8c0,0.2,0.1,0.4,0.2,0.6c0.2,0.2,0.4,0.2,0.7,0.2c0.3,0,0.7-0.1,0.9-0.2
		c0.3-0.2,0.6-0.4,0.8-0.6c0.2-0.3,0.4-0.6,0.5-0.9c0.1-0.4,0.2-0.8,0.3-1.2l0.6-2.9h1.1l-1.4,6.7h-1L54.1,358z"/>
	<path class="st1" d="M57,359.3l1.4-6.7h1l-0.3,1.4c0.3-0.4,0.6-0.8,1-1.1c0.3-0.2,0.6-0.4,1-0.4c0.3,0,0.6,0.1,0.8,0.2l-0.4,1.1
		c-0.2-0.1-0.4-0.2-0.7-0.2c-0.5,0-0.9,0.3-1.2,0.7c-0.5,0.7-0.9,1.5-1,2.4l-0.6,2.7L57,359.3L57,359.3L57,359.3z"/>
	<path class="st1" d="M66.3,356.8l1.2,0.1c-0.2,0.7-0.6,1.4-1.2,1.9c-0.5,0.4-1.2,0.6-1.8,0.6c-0.7,0-1.3-0.2-1.8-0.7
		c-0.5-0.5-0.7-1.3-0.7-2c0-0.7,0.2-1.5,0.4-2.2c0.2-0.7,0.7-1.2,1.2-1.6c0.5-0.4,1.2-0.5,1.8-0.5c0.6,0,1.3,0.2,1.7,0.6
		c0.4,0.4,0.7,1,0.6,1.6l-1.1,0.1c0-0.4-0.1-0.7-0.4-1c-0.3-0.3-0.6-0.4-1-0.4c-0.4,0-0.9,0.1-1.2,0.4c-0.4,0.4-0.7,0.8-0.8,1.3
		c-0.2,0.6-0.3,1.1-0.3,1.7c0,0.5,0.1,0.9,0.4,1.3c0.2,0.3,0.6,0.4,0.9,0.4c0.4,0,0.8-0.2,1.1-0.4C65.9,357.8,66.2,357.3,66.3,356.8
		z"/>
	<path class="st1" d="M73.5,357l1.1,0.1c-0.2,0.6-0.6,1.2-1.1,1.6c-0.6,0.5-1.3,0.8-2.1,0.8c-0.5,0-1-0.1-1.4-0.4
		c-0.4-0.2-0.8-0.6-1-1c-0.2-0.5-0.3-1-0.3-1.5c0-0.7,0.2-1.5,0.5-2.1c0.3-0.6,0.7-1.2,1.2-1.5c0.5-0.3,1.1-0.5,1.8-0.5
		c0.7,0,1.4,0.2,1.9,0.8c0.5,0.5,0.8,1.3,0.7,2c0,0.3,0,0.7-0.1,1h-5c0,0.1,0,0.2,0,0.4c0,0.5,0.1,1,0.4,1.4
		c0.3,0.3,0.6,0.5,1.1,0.5c0.4,0,0.8-0.1,1.2-0.4C72.9,357.8,73.3,357.4,73.5,357z M70.2,355.3h3.8v-0.2c0-0.5-0.1-1-0.4-1.3
		c-0.3-0.3-0.7-0.5-1.1-0.5c-0.5,0-1,0.2-1.3,0.5C70.6,354.1,70.3,354.7,70.2,355.3L70.2,355.3L70.2,355.3z"/>
	<path class="st1" d="M75.9,359.3l0.3-1.3h1.3l-0.3,1.3H75.9z M77,353.8l0.3-1.3h1.3l-0.3,1.3H77z"/>
	<path class="st1" d="M83.7,359.3l2-9.3h1.2l1.6,3.5c0.5,1.1,0.9,2,1.1,2.7c0.2,0.4,0.3,1,0.6,1.7c0.1-0.8,0.3-1.6,0.4-2.4l1.1-5.5
		h1.2l-1.9,9.3h-1.3l-2.3-5.4c-0.4-0.8-0.7-1.7-1-2.5c-0.1,0.7-0.2,1.5-0.4,2.2l-1.2,5.6H83.7z"/>
	<path class="st1" d="M93.4,356.7c0-1.2,0.4-2.4,1.2-3.3c0.6-0.7,1.5-1.1,2.5-1.1c0.7,0,1.5,0.2,2,0.8c0.5,0.5,0.8,1.3,0.8,2
		c0,0.7-0.2,1.5-0.5,2.2c-0.3,0.6-0.7,1.2-1.3,1.5c-0.5,0.3-1.2,0.5-1.8,0.5c-0.5,0-1-0.1-1.4-0.3c-0.4-0.2-0.8-0.6-1-1
		C93.6,357.6,93.4,357.2,93.4,356.7z M94.6,356.6c0,0.5,0.1,1,0.5,1.4c0.3,0.3,0.7,0.5,1.2,0.5c0.3,0,0.5-0.1,0.7-0.1
		c0.3-0.1,0.5-0.3,0.7-0.5c0.2-0.2,0.4-0.4,0.5-0.7c0.2-0.3,0.3-0.5,0.4-0.8c0.1-0.4,0.2-0.8,0.2-1.2c0-0.5-0.1-1-0.5-1.4
		c-0.3-0.3-0.7-0.5-1.2-0.5c-0.4,0-0.7,0.1-1,0.3c-0.3,0.2-0.6,0.4-0.8,0.8c-0.2,0.3-0.4,0.7-0.5,1.1
		C94.7,355.8,94.6,356.2,94.6,356.6L94.6,356.6L94.6,356.6z"/>
	<path class="st1" d="M100.7,359.3l1.4-6.7h1l-0.3,1.4c0.3-0.4,0.6-0.8,1-1.1c0.3-0.2,0.6-0.4,1-0.4c0.3,0,0.6,0.1,0.8,0.2l-0.4,1.1
		c-0.2-0.1-0.4-0.2-0.7-0.2c-0.5,0-0.9,0.3-1.2,0.7c-0.5,0.7-0.9,1.5-1,2.4l-0.6,2.7L100.7,359.3L100.7,359.3L100.7,359.3z"/>
	<path class="st1" d="M108.6,358.3l-0.2,0.9c-0.3,0.1-0.5,0.1-0.8,0.1c-0.4,0-0.8-0.1-1.1-0.3c-0.2-0.2-0.3-0.4-0.3-0.7
		c0-0.3,0.1-0.7,0.2-1l0.8-3.9h-0.9l0.2-0.9h0.9l0.3-1.6l1.3-0.8l-0.5,2.5h1.1l-0.2,0.9h-1.1l-0.8,3.7c-0.1,0.3-0.1,0.6-0.2,0.9
		c0,0.1,0,0.2,0.1,0.3c0.1,0.1,0.2,0.1,0.4,0.1C108.1,358.4,108.3,358.4,108.6,358.3z"/>
	<path class="st1" d="M109.7,359.3l1.9-9.3h1.2l-0.7,3.6c0.3-0.4,0.7-0.7,1.2-0.9c0.4-0.2,0.7-0.3,1.1-0.3c0.5,0,0.9,0.1,1.3,0.4
		c0.3,0.3,0.5,0.7,0.5,1.2c0,0.4-0.1,0.9-0.2,1.3l-0.8,4h-1.2l0.9-4.1c0.1-0.4,0.1-0.7,0.2-1.1c0-0.2-0.1-0.4-0.2-0.5
		c-0.2-0.2-0.4-0.2-0.7-0.2c-0.8,0-1.6,0.5-2,1.2c-0.3,0.6-0.5,1.2-0.6,1.9l-0.6,2.9L109.7,359.3L109.7,359.3z"/>
	<path class="st1" d="M118.3,359.3l-0.7-6.7h1.1l0.3,3l0.1,1.7c0,0.1,0,0.4,0,0.8c0.1-0.4,0.2-0.8,0.3-1c0.1-0.2,0.2-0.6,0.4-1
		l1.6-3.5h1.2l0.3,3.4c0,0.5,0,1.2,0.1,2c0.2-0.6,0.5-1.4,1-2.4l1.4-3h1.2l-3.3,6.7h-1.2l-0.2-4v-1.4c-0.2,0.5-0.4,0.9-0.6,1.5
		l-1.8,3.9L118.3,359.3L118.3,359.3z"/>
	<path class="st1" d="M131.5,357l1.1,0.1c-0.2,0.6-0.6,1.2-1.1,1.6c-0.6,0.5-1.3,0.7-2,0.7c-0.5,0-1-0.1-1.4-0.4
		c-0.4-0.2-0.8-0.6-1-1c-0.2-0.5-0.3-1-0.3-1.5c0-0.7,0.2-1.5,0.5-2.1c0.3-0.6,0.7-1.2,1.3-1.5c0.5-0.3,1.1-0.5,1.8-0.5
		c0.7,0,1.4,0.2,1.9,0.8c0.5,0.5,0.8,1.3,0.7,2c0,0.3,0,0.7-0.1,1h-5c0,0.1,0,0.2,0,0.4c0,0.5,0.1,1,0.4,1.4
		c0.3,0.3,0.6,0.5,1.1,0.5c0.4,0,0.8-0.1,1.2-0.4C131,357.8,131.3,357.4,131.5,357z M128.2,355.3h3.8v-0.2c0-0.5-0.1-1-0.4-1.3
		c-0.3-0.3-0.7-0.5-1.1-0.5c-0.5,0-1,0.1-1.4,0.5C128.6,354.2,128.3,354.7,128.2,355.3L128.2,355.3z"/>
	<path class="st1" d="M134,357l1.2-0.1c0,0.3,0,0.6,0.1,0.8c0.1,0.2,0.3,0.4,0.6,0.6c0.3,0.2,0.7,0.2,1,0.2c0.4,0,0.8-0.1,1.1-0.3
		c0.2-0.2,0.4-0.4,0.4-0.7c0-0.2-0.1-0.4-0.2-0.6c-0.3-0.3-0.7-0.5-1.1-0.7c-0.4-0.2-0.8-0.3-1.2-0.5c-0.3-0.1-0.5-0.4-0.6-0.6
		c-0.1-0.2-0.2-0.5-0.2-0.8c0-0.5,0.2-1,0.6-1.4c0.5-0.4,1.1-0.6,1.8-0.6c0.7,0,1.4,0.2,1.9,0.6c0.4,0.4,0.7,1,0.7,1.5l-1.1,0.1
		c0-0.4-0.1-0.7-0.4-1c-0.3-0.3-0.7-0.4-1.2-0.4c-0.3,0-0.7,0.1-0.9,0.3c-0.2,0.1-0.3,0.4-0.3,0.6c0,0.2,0.1,0.4,0.3,0.6
		c0.3,0.2,0.6,0.4,1,0.5c0.6,0.2,1.2,0.5,1.7,0.9c0.4,0.3,0.6,0.8,0.6,1.3c0,0.4-0.1,0.7-0.3,1c-0.2,0.3-0.6,0.6-0.9,0.8
		c-0.5,0.2-1,0.3-1.5,0.3c-0.7,0-1.4-0.2-2-0.6C134.3,358.4,134,357.7,134,357z"/>
	<path class="st1" d="M143.4,358.3l-0.2,0.9c-0.3,0.1-0.5,0.1-0.8,0.1c-0.4,0-0.8-0.1-1.1-0.3c-0.2-0.2-0.3-0.4-0.3-0.7
		c0-0.3,0.1-0.7,0.2-1l0.8-3.9h-0.9l0.2-0.9h0.9l0.3-1.6l1.3-0.8l-0.5,2.5h1.2l-0.2,0.9h-1.1l-0.8,3.7c-0.1,0.3-0.1,0.6-0.1,0.9
		c0,0.1,0,0.2,0.1,0.3c0.1,0.1,0.2,0.1,0.4,0.1C143,358.4,143.2,358.4,143.4,358.3z"/>
	<path class="st1" d="M149,356.3l1.2-0.1v0.3c0,0.3,0.1,0.7,0.2,1c0.2,0.3,0.5,0.6,0.8,0.7c0.4,0.2,0.9,0.3,1.4,0.2
		c0.6,0,1.2-0.1,1.7-0.5c0.4-0.3,0.6-0.7,0.6-1.1c0-0.3-0.1-0.6-0.3-0.8c-0.5-0.4-1.1-0.8-1.7-1c-0.5-0.2-1-0.5-1.5-0.7
		c-0.4-0.2-0.7-0.5-0.9-0.9c-0.2-0.3-0.3-0.7-0.3-1.1c0-0.5,0.1-0.9,0.4-1.3c0.3-0.4,0.7-0.7,1.1-0.9c0.5-0.2,1.1-0.3,1.7-0.3
		c0.7,0,1.3,0.1,1.9,0.4c0.9,0.4,1.4,1.3,1.5,2.2v0.2l-1.2,0.1c0-0.2,0-0.4-0.1-0.6c-0.1-0.2-0.2-0.5-0.4-0.6
		c-0.2-0.2-0.5-0.3-0.7-0.4c-0.3-0.1-0.7-0.2-1-0.2c-0.6,0-1.1,0.1-1.6,0.5c-0.3,0.2-0.4,0.6-0.4,0.9c0,0.2,0.1,0.4,0.2,0.6
		c0.2,0.2,0.4,0.4,0.6,0.5c0.2,0.1,0.7,0.4,1.6,0.7c0.5,0.2,0.9,0.4,1.4,0.7c0.3,0.2,0.6,0.5,0.8,0.8c0.2,0.3,0.3,0.7,0.3,1.1
		c0,0.5-0.2,1-0.5,1.4c-0.3,0.4-0.8,0.8-1.3,1c-0.6,0.2-1.2,0.4-1.9,0.4c-0.9,0.1-1.9-0.2-2.7-0.7
		C149.3,358.2,148.9,357.2,149,356.3z"/>
	<path class="st1" d="M160.3,358.3l-0.2,0.9c-0.3,0.1-0.5,0.1-0.8,0.1c-0.4,0-0.8-0.1-1.1-0.3c-0.2-0.2-0.3-0.4-0.3-0.7
		c0-0.3,0.1-0.7,0.2-1l0.8-3.9H158l0.2-0.9h0.9l0.4-1.6l1.3-0.8l-0.5,2.5h1.1l-0.2,0.9h-1.2l-0.8,3.7c-0.1,0.3-0.1,0.6-0.1,0.9
		c0,0.1,0,0.2,0.1,0.3c0.1,0.1,0.2,0.1,0.4,0.1C159.9,358.4,160.1,358.4,160.3,358.3z"/>
	<path class="st1" d="M166,358.4c-0.3,0.3-0.7,0.6-1.1,0.8c-0.4,0.2-0.8,0.2-1.2,0.2c-0.6,0-1.1-0.2-1.5-0.5
		c-0.4-0.4-0.6-0.9-0.6-1.4c0-0.4,0.1-0.7,0.3-1c0.2-0.3,0.4-0.5,0.7-0.7c0.3-0.2,0.6-0.3,1-0.4c0.5-0.1,1-0.1,1.5-0.1
		c0.5,0,1-0.1,1.6-0.2c0.1-0.3,0.1-0.5,0.1-0.8c0-0.2-0.1-0.5-0.3-0.6c-0.3-0.2-0.8-0.3-1.2-0.3c-0.4,0-0.8,0.1-1.2,0.3
		c-0.3,0.2-0.5,0.5-0.7,0.9l-1.2-0.1c0.2-0.6,0.6-1.2,1.1-1.5c0.6-0.4,1.3-0.6,1.9-0.5c0.7,0,1.4,0.2,2,0.6c0.4,0.3,0.6,0.7,0.6,1.1
		c0,0.4-0.1,0.8-0.2,1.2l-0.4,1.7c-0.1,0.4-0.2,0.9-0.2,1.3c0,0.3,0.1,0.6,0.1,0.9h-1.2C166,359,166,358.7,166,358.4z M166.4,355.8
		c-0.2,0.1-0.3,0.1-0.5,0.1c-0.2,0-0.5,0-0.9,0.1c-0.5,0-0.9,0.1-1.4,0.2c-0.2,0.1-0.5,0.2-0.6,0.4c-0.1,0.2-0.2,0.4-0.2,0.7
		c0,0.3,0.1,0.6,0.3,0.8c0.3,0.2,0.6,0.3,0.9,0.3c0.8,0,1.5-0.4,1.9-1.1C166.2,356.9,166.3,356.4,166.4,355.8L166.4,355.8
		L166.4,355.8z"/>
	<path class="st1" d="M169,359.3l1.2-5.8h-1l0.2-0.9h1l0.2-1c0.1-0.3,0.2-0.7,0.3-1c0.1-0.2,0.3-0.4,0.5-0.5c0.3-0.2,0.7-0.2,1-0.2
		c0.4,0,0.9,0.1,1.3,0.2l-0.2,1c-0.3-0.1-0.7-0.1-1-0.1c-0.2,0-0.4,0-0.5,0.2c-0.2,0.2-0.3,0.5-0.3,0.8l-0.1,0.7h1.3l-0.2,0.9h-1.3
		l-1.2,5.8L169,359.3L169,359.3z"/>
	<path class="st1" d="M173.3,359.3l1.2-5.9h-1l0.2-0.9h1l0.2-1c0.1-0.3,0.2-0.7,0.3-1c0.1-0.2,0.3-0.4,0.5-0.5
		c0.3-0.2,0.7-0.2,1-0.2c0.4,0,0.9,0.1,1.3,0.2l-0.2,1c-0.3-0.1-0.7-0.1-1-0.1c-0.2,0-0.4,0-0.5,0.2c-0.2,0.2-0.3,0.5-0.3,0.8
		l-0.1,0.7h1.3l-0.2,0.9h-1.3l-1.1,5.9L173.3,359.3L173.3,359.3z"/>
	<path class="st1" d="M177.2,359.3l1.4-6.7h1.1l-1.4,6.7H177.2z M178.9,351.3l0.3-1.3h1.1l-0.3,1.3H178.9z"/>
	<path class="st1" d="M180.4,359.3l1.4-6.7h1l-0.2,1.2c0.4-0.4,0.8-0.7,1.3-1c0.4-0.2,0.8-0.3,1.2-0.3c0.5,0,0.9,0.1,1.3,0.4
		c0.3,0.3,0.5,0.7,0.5,1.2c0,0.4-0.1,0.8-0.2,1.2l-0.9,4.1h-1.2l0.9-4.3c0.1-0.3,0.1-0.6,0.1-0.9c0-0.2-0.1-0.4-0.2-0.5
		c-0.2-0.1-0.4-0.2-0.7-0.2c-0.6,0-1.1,0.2-1.6,0.6c-0.5,0.6-0.9,1.4-1,2.2l-0.7,3.1L180.4,359.3L180.4,359.3L180.4,359.3z"/>
	<path class="st1" d="M187.8,359.9l1.2,0.1c0,0.2,0,0.4,0.1,0.6c0.1,0.1,0.2,0.2,0.3,0.3c0.3,0.1,0.5,0.1,0.8,0.1
		c0.6,0.1,1.1-0.1,1.5-0.5c0.3-0.5,0.5-1,0.6-1.6l0.1-0.5c-0.5,0.6-1.2,0.9-1.9,0.9c-0.7,0-1.3-0.3-1.7-0.8
		c-0.5-0.6-0.7-1.4-0.7-2.1c0-0.7,0.2-1.4,0.5-2.1c0.3-0.6,0.8-1.1,1.3-1.4c0.5-0.3,1-0.5,1.5-0.5c0.8,0,1.6,0.5,2,1.2l0.2-1.1h1.1
		l-1.4,6.5c-0.1,0.6-0.3,1.1-0.6,1.7c-0.2,0.4-0.6,0.7-1,0.9c-0.5,0.2-1,0.3-1.5,0.3c-0.5,0-0.9-0.1-1.4-0.2
		c-0.3-0.1-0.6-0.3-0.9-0.6c-0.2-0.3-0.3-0.6-0.3-0.9C187.7,360.1,187.7,360,187.8,359.9z M189.2,356.3c0,0.3,0,0.7,0.1,1
		c0.1,0.3,0.3,0.6,0.5,0.7c0.2,0.2,0.5,0.3,0.8,0.3c0.4,0,0.8-0.2,1.1-0.4c0.4-0.3,0.7-0.7,0.9-1.2c0.2-0.5,0.3-1,0.4-1.6
		c0-0.5-0.1-1-0.5-1.3c-0.3-0.3-0.7-0.5-1.1-0.5c-0.3,0-0.6,0.1-0.8,0.2c-0.3,0.2-0.5,0.4-0.7,0.7c-0.2,0.3-0.4,0.7-0.5,1.1
		C189.3,355.6,189.2,355.9,189.2,356.3L189.2,356.3L189.2,356.3z"/>
	<path class="st1" d="M199.5,359.3l1.9-9.3h3.9c0.6,0,1.2,0,1.8,0.2c0.4,0.1,0.7,0.4,0.9,0.7c0.2,0.4,0.4,0.9,0.3,1.3
		c0,0.7-0.2,1.4-0.7,1.9c-0.7,0.6-1.5,0.9-2.4,1c0.3,0.2,0.6,0.4,0.8,0.7c0.4,0.5,0.7,1.1,0.9,1.7l0.7,1.8h-1.4l-0.7-1.7
		c-0.2-0.6-0.5-1.1-0.8-1.6c-0.2-0.3-0.4-0.5-0.6-0.6c-0.3-0.1-0.7-0.2-1.1-0.1h-1.4l-0.9,4.1L199.5,359.3L199.5,359.3L199.5,359.3z
		 M201.8,354.1h3.3c0.4,0,0.8-0.1,1.1-0.3c0.3-0.2,0.5-0.4,0.7-0.7c0.2-0.3,0.3-0.6,0.2-0.9c0-0.2-0.1-0.5-0.2-0.7
		c-0.1-0.2-0.3-0.3-0.5-0.4c-0.3-0.1-0.7-0.1-1-0.1h-3L201.8,354.1z"/>
	<path class="st1" d="M213.9,357l1.1,0.1c-0.2,0.6-0.6,1.2-1.1,1.6c-0.6,0.5-1.3,0.8-2.1,0.8c-0.5,0-1-0.1-1.4-0.4
		c-0.4-0.2-0.8-0.6-1-1c-0.2-0.5-0.3-1-0.3-1.5c0-0.7,0.2-1.5,0.5-2.1c0.3-0.6,0.7-1.2,1.3-1.5c0.5-0.3,1.1-0.5,1.8-0.5
		c0.7,0,1.4,0.2,1.9,0.8c0.5,0.5,0.8,1.3,0.7,2c0,0.3,0,0.7-0.1,1h-5c0,0.1,0,0.2,0,0.4c0,0.5,0.1,1,0.4,1.4
		c0.3,0.3,0.6,0.5,1.1,0.5c0.4,0,0.8-0.1,1.2-0.4C213.3,357.8,213.7,357.4,213.9,357z M210.5,355.3h3.8v-0.2c0-0.5-0.1-1-0.4-1.3
		c-0.3-0.3-0.7-0.5-1.1-0.5c-0.5,0-1,0.2-1.3,0.5C211,354.2,210.6,354.7,210.5,355.3L210.5,355.3L210.5,355.3z"/>
	<path class="st1" d="M216.3,357l1.1-0.1c0,0.3,0,0.6,0.1,0.8c0.1,0.2,0.3,0.4,0.6,0.6c0.3,0.2,0.7,0.2,1,0.2c0.4,0,0.8-0.1,1.1-0.3
		c0.2-0.2,0.4-0.4,0.4-0.7c0-0.2-0.1-0.4-0.2-0.6c-0.3-0.3-0.7-0.5-1.1-0.7c-0.4-0.2-0.8-0.3-1.2-0.5c-0.3-0.1-0.5-0.4-0.6-0.6
		c-0.1-0.2-0.2-0.5-0.2-0.8c0-0.5,0.2-1,0.6-1.4c0.5-0.4,1.1-0.6,1.8-0.6c0.7,0,1.4,0.2,1.9,0.6c0.4,0.4,0.7,1,0.7,1.5l-1.1,0.1
		c0-0.4-0.1-0.7-0.4-1c-0.3-0.3-0.7-0.4-1.1-0.4c-0.3,0-0.7,0.1-0.9,0.3c-0.2,0.1-0.3,0.4-0.3,0.6c0,0.2,0.1,0.4,0.3,0.6
		c0.3,0.2,0.6,0.4,1,0.5c0.6,0.2,1.2,0.5,1.7,0.9c0.4,0.3,0.5,0.8,0.5,1.3c0,0.4-0.1,0.7-0.3,1c-0.2,0.3-0.6,0.6-0.9,0.8
		c-0.5,0.2-1,0.3-1.5,0.3c-0.7,0-1.4-0.2-2-0.6C216.6,358.4,216.3,357.7,216.3,357z"/>
	<path class="st1" d="M223.3,356.7c0-1.2,0.4-2.4,1.2-3.3c0.6-0.7,1.6-1.1,2.5-1.1c0.7,0,1.5,0.2,2,0.8c0.5,0.5,0.8,1.3,0.8,2
		c0,0.7-0.2,1.5-0.5,2.2c-0.3,0.6-0.7,1.2-1.3,1.5c-0.5,0.3-1.2,0.5-1.8,0.5c-0.5,0-1-0.1-1.4-0.3c-0.4-0.2-0.8-0.6-1-1
		C223.4,357.6,223.3,357.2,223.3,356.7z M224.4,356.6c0,0.5,0.1,1,0.5,1.4c0.3,0.3,0.7,0.5,1.2,0.5c0.3,0,0.5-0.1,0.7-0.1
		c0.3-0.1,0.5-0.3,0.7-0.5c0.2-0.2,0.4-0.4,0.5-0.7c0.3-0.6,0.5-1.3,0.6-2c0.1-0.6-0.1-1.1-0.5-1.5c-0.3-0.3-0.7-0.5-1.2-0.5
		c-0.4,0-0.7,0.1-1,0.3c-0.3,0.2-0.6,0.4-0.8,0.8c-0.3,0.3-0.5,0.7-0.6,1.2C224.4,355.8,224.4,356.2,224.4,356.6L224.4,356.6
		L224.4,356.6z"/>
	<path class="st1" d="M235.1,358c-0.6,0.8-1.5,1.3-2.5,1.4c-0.5,0-0.9-0.1-1.3-0.5c-0.3-0.3-0.5-0.7-0.5-1.1c0-0.5,0.1-1,0.2-1.5
		l0.8-3.9h1.1l-0.9,4.3c-0.1,0.3-0.1,0.6-0.1,0.8c0,0.2,0.1,0.4,0.2,0.6c0.2,0.2,0.4,0.2,0.7,0.2c0.3,0,0.7-0.1,0.9-0.2
		c0.3-0.2,0.6-0.4,0.8-0.6c0.2-0.3,0.4-0.6,0.5-0.9c0.1-0.4,0.2-0.8,0.3-1.2l0.6-2.9h1.1l-1.4,6.7h-1.1L235.1,358z"/>
	<path class="st1" d="M238,359.3l1.4-6.7h1l-0.3,1.4c0.3-0.4,0.6-0.8,1-1.1c0.3-0.2,0.6-0.4,1-0.4c0.3,0,0.6,0.1,0.8,0.2l-0.5,1.1
		c-0.2-0.1-0.4-0.2-0.6-0.2c-0.5,0-0.9,0.3-1.2,0.7c-0.5,0.7-0.9,1.5-1,2.4l-0.6,2.7L238,359.3L238,359.3L238,359.3z"/>
	<path class="st1" d="M247.3,356.8l1.1,0.1c-0.2,0.7-0.6,1.4-1.2,1.9c-0.5,0.4-1.2,0.6-1.8,0.6c-0.7,0-1.3-0.2-1.8-0.7
		c-0.5-0.5-0.7-1.3-0.7-2c0-0.7,0.2-1.5,0.4-2.2c0.2-0.7,0.7-1.2,1.2-1.6c0.6-0.4,1.2-0.5,1.9-0.5c0.6,0,1.3,0.2,1.7,0.6
		c0.4,0.4,0.7,1,0.6,1.6l-1.1,0.1c0-0.4-0.1-0.7-0.4-1c-0.3-0.3-0.6-0.4-1-0.4c-0.4,0-0.9,0.1-1.2,0.4c-0.4,0.4-0.7,0.8-0.8,1.3
		c-0.2,0.6-0.3,1.1-0.3,1.7c0,0.5,0.1,0.9,0.4,1.3c0.2,0.3,0.6,0.4,0.9,0.4c0.4,0,0.8-0.2,1.1-0.4
		C246.9,357.8,247.2,357.3,247.3,356.8z"/>
	<path class="st1" d="M254.5,357l1.1,0.1c-0.2,0.6-0.6,1.2-1.1,1.6c-0.6,0.5-1.3,0.8-2.1,0.8c-0.5,0-1-0.1-1.4-0.4
		c-0.4-0.2-0.8-0.6-1-1c-0.2-0.5-0.3-1-0.3-1.5c0-0.7,0.2-1.5,0.5-2.1c0.3-0.6,0.7-1.2,1.3-1.5c0.5-0.3,1.1-0.5,1.8-0.5
		c0.7,0,1.4,0.2,1.9,0.8c0.5,0.5,0.8,1.3,0.7,2c0,0.3,0,0.7-0.1,1h-5c0,0.1,0,0.2,0,0.4c0,0.5,0.1,1,0.4,1.4
		c0.3,0.3,0.6,0.5,1.1,0.5c0.4,0,0.8-0.1,1.2-0.4C254,357.8,254.3,357.4,254.5,357z M251.2,355.3h3.8v-0.2c0-0.5-0.1-1-0.4-1.3
		c-0.3-0.3-0.7-0.5-1.1-0.5c-0.5,0-0.9,0.2-1.3,0.5C251.6,354.1,251.3,354.7,251.2,355.3L251.2,355.3z"/>
	<path class="st1" d="M257,357l1.1-0.1c0,0.3,0,0.6,0.1,0.8c0.1,0.2,0.3,0.4,0.6,0.6c0.3,0.2,0.7,0.2,1,0.2c0.4,0,0.8-0.1,1.1-0.3
		c0.2-0.2,0.4-0.4,0.4-0.7c0-0.2-0.1-0.4-0.2-0.6c-0.3-0.3-0.7-0.5-1.1-0.7c-0.4-0.2-0.8-0.3-1.2-0.5c-0.3-0.1-0.5-0.4-0.6-0.6
		c-0.1-0.2-0.2-0.5-0.2-0.8c0-0.5,0.2-1,0.6-1.4c0.5-0.4,1.1-0.6,1.8-0.6c0.7,0,1.4,0.2,1.9,0.6c0.4,0.4,0.7,1,0.7,1.5l-1.1,0.1
		c0-0.4-0.1-0.7-0.4-1c-0.3-0.3-0.7-0.4-1.1-0.4c-0.3,0-0.7,0.1-0.9,0.3c-0.2,0.1-0.3,0.4-0.3,0.6c0,0.2,0.1,0.4,0.3,0.6
		c0.3,0.2,0.6,0.4,1,0.5c0.6,0.2,1.2,0.5,1.7,0.9c0.4,0.3,0.6,0.8,0.6,1.3c0,0.4-0.1,0.7-0.3,1c-0.2,0.3-0.6,0.6-0.9,0.8
		c-0.5,0.2-1,0.3-1.5,0.3c-0.7,0-1.4-0.2-2-0.6C257.2,358.4,256.9,357.7,257,357z"/>
	<path class="st1" d="M264,359.3l0.3-1.3h1.3l-0.2,1.1c-0.1,0.6-0.3,1.1-0.7,1.5c-0.3,0.3-0.7,0.5-1.1,0.5l0.1-0.5
		c0.6-0.2,1-0.8,1-1.4L264,359.3L264,359.3z"/>
	<path class="st1" d="M272,356.3l1.2-0.1v0.3c0,0.3,0.1,0.7,0.2,1c0.2,0.3,0.5,0.6,0.8,0.7c0.4,0.2,0.9,0.3,1.4,0.2
		c0.6,0,1.2-0.1,1.7-0.5c0.4-0.3,0.6-0.7,0.6-1.2c0-0.3-0.1-0.6-0.3-0.8c-0.5-0.4-1.1-0.8-1.7-1c-0.5-0.2-1-0.5-1.5-0.7
		c-0.4-0.2-0.7-0.5-0.9-0.9c-0.2-0.3-0.3-0.7-0.3-1.1c0-0.5,0.1-0.9,0.4-1.3c0.3-0.4,0.7-0.7,1.1-0.9c0.5-0.2,1.1-0.3,1.7-0.3
		c0.7,0,1.3,0.1,1.9,0.4c0.9,0.4,1.5,1.3,1.5,2.2v0.2l-1.2,0.1c0-0.2,0-0.4-0.1-0.6c-0.1-0.2-0.2-0.5-0.4-0.6
		c-0.2-0.2-0.5-0.3-0.7-0.4c-0.3-0.1-0.7-0.2-1-0.2c-0.6,0-1.1,0.1-1.6,0.5c-0.3,0.2-0.4,0.6-0.4,0.9c0,0.2,0.1,0.4,0.2,0.6
		c0.2,0.2,0.4,0.4,0.6,0.5c0.2,0.1,0.7,0.4,1.6,0.7c0.5,0.2,0.9,0.4,1.4,0.7c0.3,0.2,0.6,0.5,0.8,0.8c0.2,0.3,0.3,0.7,0.3,1.1
		c0,0.5-0.2,1-0.5,1.4c-0.3,0.4-0.8,0.8-1.3,1c-0.6,0.2-1.2,0.4-1.9,0.4c-0.9,0.1-1.9-0.1-2.7-0.6
		C272.3,358.1,271.9,357.2,272,356.3z"/>
	<path class="st1" d="M285.2,358c-0.6,0.8-1.5,1.3-2.5,1.4c-0.5,0-0.9-0.1-1.3-0.5c-0.3-0.3-0.5-0.7-0.5-1.1c0-0.5,0.1-1,0.2-1.5
		l0.8-3.9h1.1l-0.9,4.3c-0.1,0.3-0.1,0.6-0.1,0.8c0,0.2,0.1,0.4,0.2,0.6c0.2,0.2,0.4,0.2,0.7,0.2c0.3,0,0.7-0.1,0.9-0.2
		c0.3-0.2,0.6-0.4,0.8-0.6c0.2-0.3,0.4-0.6,0.5-0.9c0.1-0.4,0.2-0.8,0.3-1.2l0.6-2.9h1.1l-1.4,6.7h-1.1L285.2,358z"/>
	<path class="st1" d="M288,359.3l1.4-6.7h1l-0.3,1.4c0.3-0.4,0.6-0.8,1-1.1c0.3-0.2,0.6-0.4,1-0.4c0.3,0,0.6,0.1,0.8,0.2l-0.4,1.1
		c-0.2-0.1-0.4-0.2-0.6-0.2c-0.5,0-0.9,0.3-1.2,0.7c-0.5,0.7-0.9,1.5-1,2.4l-0.6,2.7L288,359.3L288,359.3L288,359.3z"/>
	<path class="st1" d="M294.9,359.3l-1.1-6.7h1.1l0.6,3.7c0.1,0.4,0.1,1.1,0.2,2c0.2-0.5,0.5-1,0.8-1.6l2.2-4h1.2l-3.9,6.7
		L294.9,359.3L294.9,359.3z"/>
	<path class="st1" d="M304.7,357l1.1,0.1c-0.2,0.6-0.6,1.2-1.1,1.6c-0.6,0.5-1.3,0.8-2.1,0.8c-0.5,0-1-0.1-1.4-0.4
		c-0.4-0.2-0.8-0.6-1-1c-0.2-0.5-0.3-1-0.3-1.5c0-0.7,0.2-1.5,0.5-2.1c0.3-0.6,0.7-1.2,1.3-1.5c0.5-0.3,1.1-0.5,1.7-0.5
		c0.7,0,1.4,0.2,1.9,0.8c0.5,0.5,0.8,1.3,0.7,2c0,0.3,0,0.7-0.1,1h-5c0,0.1,0,0.2,0,0.4c0,0.5,0.1,1,0.4,1.4
		c0.3,0.3,0.6,0.5,1.1,0.5c0.4,0,0.8-0.1,1.2-0.4C304.1,357.8,304.5,357.4,304.7,357z M301.3,355.3h3.8v-0.2c0-0.5-0.1-1-0.4-1.3
		c-0.3-0.3-0.7-0.5-1.1-0.5c-0.5,0-1,0.2-1.3,0.5C301.8,354.2,301.5,354.7,301.3,355.3L301.3,355.3L301.3,355.3z"/>
	<path class="st1" d="M306.4,361.9l0.1-1.1c0.2,0.1,0.5,0.1,0.7,0.1c0.2,0,0.4,0,0.6-0.2c0.3-0.2,0.5-0.5,0.6-0.8l0.4-0.7l-1.1-6.8
		h1.1l0.5,3.4c0.1,0.7,0.2,1.3,0.3,2l3-5.4h1.2l-4.3,7.6c-0.3,0.6-0.6,1.1-1.1,1.5c-0.3,0.2-0.7,0.4-1.1,0.4
		C306.9,362,306.7,361.9,306.4,361.9z"/>
</g>
</svg>
