<svg id="Layer_1" data-name="Layer 1" xmlns="http://www.w3.org/2000/svg" viewBox="0 0 502.23 290.77"><defs><style>.cls-1{fill:#646569;}.cls-2{fill:#fff;}.cls-3{fill:#82bc00;}.cls-4{fill:#929497;}</style></defs><title>01-benefits-of</title><rect class="cls-1" x="0.8" width="500.63" height="290.77"/><path class="cls-2" d="M86.19,32.45c4.6,0,7.65,3.18,7.65,7.75a11.23,11.23,0,0,1-3.21,7.75,10.46,10.46,0,0,1-7.73,3.28c-4.55,0-7.75-3-7.75-7.65a11.06,11.06,0,0,1,11-11.13h0.05Zm3.34,2.84a4.76,4.76,0,0,0-3.63-1.6,7.25,7.25,0,0,0-6,3.94,14.1,14.1,0,0,0-1.71,6.62c0,3,1.39,5.75,4.76,5.75a7.19,7.19,0,0,0,6-3.94,15.52,15.52,0,0,0,1.76-6.83,6.45,6.45,0,0,0-1.19-3.94h0Z"/><path class="cls-2" d="M107.24,46.4a12.65,12.65,0,0,0-.21,1.71,1.39,1.39,0,0,0,1.33,1.45h0a2.63,2.63,0,0,0,1.81-.95l0.63,0.53a5,5,0,0,1-3.7,1.87,2.48,2.48,0,0,1-2.65-2.3s0-.06,0-0.09A8.79,8.79,0,0,1,98.79,51c-1.63,0-3-.74-3-2.52A10.32,10.32,0,0,1,96,46.7l0.84-4.86a4.13,4.13,0,0,0,.13-1,1.17,1.17,0,0,0-1.13-1.21H95.76l-0.6-.11,0.13-.79L99,38h0.89l-1.5,8.64a6,6,0,0,0-.13,1.18v0.26a1.59,1.59,0,0,0,1.59,1.59H100c1.76,0,3.36-1.08,4.7-2.08l1.71-9.51h2.39Z"/><path class="cls-2" d="M116.2,38.07h3.71l-0.13.79H116L114.79,46a11.46,11.46,0,0,0-.26,2.13,1.49,1.49,0,0,0,1.23,1.71l0.29,0a4,4,0,0,0,2.55-1.18l0.58,0.66a5.9,5.9,0,0,1-4,1.66c-1.42,0-3.15-.47-3.15-2.21a14.28,14.28,0,0,1,.32-2.34l1.34-7.59h-2.23l0.13-.79c3.1-.11,3.94-2,4.49-4.73h1Z"/><path class="cls-2" d="M123.43,44.25a2.86,2.86,0,0,1-1.87-2.6,3.51,3.51,0,0,1,1.71-2.84,6.57,6.57,0,0,1,3.63-1,9.71,9.71,0,0,1,4.31.92,1.84,1.84,0,0,1,1.21,1.42,1,1,0,0,1-.91,1.09h-0.22a1.62,1.62,0,0,1-1.47-.92,2.66,2.66,0,0,0-1.08-1.08,3.54,3.54,0,0,0-1.79-.45c-1.26,0-2.68.58-2.68,2a1.68,1.68,0,0,0,.87,1.47,14.28,14.28,0,0,0,2.58.92c1.76,0.55,4.1,1.13,4.1,3.39a4,4,0,0,1-2.13,3.34,8,8,0,0,1-4.1,1.05,9.29,9.29,0,0,1-4.41-1.08,2.33,2.33,0,0,1-1.42-1.71A1.21,1.21,0,0,1,121,47c2.23,0,1.42,2.89,4.89,2.89a4,4,0,0,0,2.26-.63,2.33,2.33,0,0,0,1.08-1.79c0-1.34-1.26-1.73-2.34-2.08Z"/><path class="cls-2" d="M139.49,51c-3.28,0-5.54-2-5.54-5.36a8.31,8.31,0,0,1,2.21-5.41,7.27,7.27,0,0,1,5.62-2.42,5.14,5.14,0,0,1,5.49,5.41,7.74,7.74,0,0,1-7.7,7.78h-0.08Zm0.13-1.23a4.17,4.17,0,0,0,3.89-2.6,12,12,0,0,0,1-4.57,4.32,4.32,0,0,0-.81-2.81,3.1,3.1,0,0,0-2.18-.74c-3.55,0-4.91,4.47-4.91,7.33C136.65,48.37,137.47,49.77,139.62,49.77Z"/><path class="cls-2" d="M160.86,46.4a12.65,12.65,0,0,0-.21,1.71A1.39,1.39,0,0,0,162,49.56h0a2.63,2.63,0,0,0,1.81-.95l0.63,0.53a5,5,0,0,1-3.7,1.87,2.48,2.48,0,0,1-2.65-2.3s0-.06,0-0.09a8.79,8.79,0,0,1-5.7,2.39c-1.63,0-3-.74-3-2.52a10.32,10.32,0,0,1,.21-1.79l0.84-4.86a4.13,4.13,0,0,0,.13-1,1.17,1.17,0,0,0-1.13-1.21h-0.08l-0.6-.11,0.13-.79,3.68-.68h0.89L152,46.69a6,6,0,0,0-.13,1.18v0.26a1.59,1.59,0,0,0,1.59,1.59h0.14c1.76,0,3.36-1.08,4.7-2.08L160,38.12h2.39Z"/><path class="cls-2" d="M169.45,39.7l0,0.05a6.55,6.55,0,0,1,4.2-1.94A1.42,1.42,0,0,1,175.35,39V39a1.47,1.47,0,0,1-1.55,1.38h-0.13c-1,0-1.34-.74-2.15-0.74-2.13,0-2.65,3.15-2.92,4.73l-1.1,6.39h-2.39l1.6-9.17a5.52,5.52,0,0,0,.13-0.92c0-1-.87-1.18-1.81-1.23l0.13-.79,3.68-.6h1Z"/><path class="cls-2" d="M186.25,48.32a8.47,8.47,0,0,1-6,2.68,5,5,0,0,1-5.3-4.68q0-.24,0-0.47a8.19,8.19,0,0,1,8-8c1.68,0,4,.87,4,2.86a1.47,1.47,0,0,1-1.39,1.55h-0.08a0.91,0.91,0,0,1-1-.82,0.92,0.92,0,0,1,0-.1V40.63c0-1.1-.84-1.55-1.89-1.55-3.15,0-4.94,4.57-4.94,7.15a3.38,3.38,0,0,0,3.18,3.56h0.24a7.32,7.32,0,0,0,4.6-2.1Z"/><path class="cls-2" d="M199.68,48.53A10.94,10.94,0,0,1,193.22,51c-2.89,0-5.65-1.79-5.65-4.91a8.31,8.31,0,0,1,2.81-5.86,9.69,9.69,0,0,1,6.2-2.42c1.73,0,4.39.74,4.39,2.89,0,3.6-7.67,4.31-10.51,4.36a5.26,5.26,0,0,0-.18,1.29c0,2.26,1.63,3.42,3.81,3.42,1.94,0,3.36-.95,4.94-2Zm-9-4.44c2.29-.05,7.75-0.5,7.75-3.42,0-1.34-1.21-1.92-2.39-1.92-2.75,0-4.72,3-5.38,5.38Z"/><path class="cls-2" d="M218.31,49.13A5.5,5.5,0,0,1,214.42,51a2.42,2.42,0,0,1-2.57-2.27q0-.08,0-0.15l0.08-1a6.7,6.7,0,0,1-5.6,3.42c-3,0-4.57-2.21-4.57-5A9.07,9.07,0,0,1,204,40.3a7.3,7.3,0,0,1,5.47-2.47,5.76,5.76,0,0,1,4,1.6L214,36a5.52,5.52,0,0,0,.13-0.92c0-1.13-.92-1.26-1.87-1.37H212l0.16-.79A11.42,11.42,0,0,0,216,32h1.1l-2.52,14.32a11.61,11.61,0,0,0-.24,1.92,1.28,1.28,0,0,0,1.16,1.39h0.21a2.56,2.56,0,0,0,1.94-1Zm-5.15-8.57A4,4,0,0,0,210,39c-3.78,0-5.54,4.65-5.54,7.8,0,1.68.79,2.92,2.55,2.92,1.92,0,3.55-1.68,4.41-3.23a19,19,0,0,0,1.66-5.47Z"/><path class="cls-2" d="M241.23,47c0.37,1.68.39,2.76,2.44,3l-0.13.79h-7.12l0.13-.79c1-.13,2.15-0.29,2.15-1.58a4.31,4.31,0,0,0-.1-0.84l-0.69-3.43h-6.7L230,46.36a5,5,0,0,0-.84,2.23,1.36,1.36,0,0,0,1.4,1.31h0.07L231.16,50l-0.16.79h-6.88l0.13-.79a4.22,4.22,0,0,0,3.34-2.5l8.17-14.61h2.52ZM236,35.08L231.77,43h6Z"/><path class="cls-2" d="M256.16,48.32a8.47,8.47,0,0,1-6,2.68,5,5,0,0,1-5.3-4.68q0-.24,0-0.47a8.19,8.19,0,0,1,8-8c1.68,0,4,.87,4,2.86a1.47,1.47,0,0,1-1.39,1.55h-0.08a0.91,0.91,0,0,1-1-.82,0.92,0.92,0,0,1,0-.1V40.63c0-1.1-.84-1.55-1.89-1.55-3.15,0-4.94,4.57-4.94,7.15a3.38,3.38,0,0,0,3.18,3.56H251a7.32,7.32,0,0,0,4.6-2.1Z"/><path class="cls-2" d="M268.77,48.32a8.47,8.47,0,0,1-6,2.68,5,5,0,0,1-5.3-4.68q0-.24,0-0.47a8.19,8.19,0,0,1,8-8c1.68,0,4,.87,4,2.86a1.47,1.47,0,0,1-1.39,1.55H268a0.91,0.91,0,0,1-1-.82,0.92,0.92,0,0,1,0-.1V40.63c0-1.1-.84-1.55-1.89-1.55-3.15,0-4.94,4.57-4.94,7.15a3.38,3.38,0,0,0,3.18,3.56h0.24a7.32,7.32,0,0,0,4.6-2.1Z"/><path class="cls-2" d="M275.63,51c-3.28,0-5.54-2-5.54-5.36a8.31,8.31,0,0,1,2.21-5.41,7.27,7.27,0,0,1,5.62-2.42,5.14,5.14,0,0,1,5.49,5.41,7.74,7.74,0,0,1-7.7,7.78h-0.08Zm0.13-1.23a4.17,4.17,0,0,0,3.89-2.6,12,12,0,0,0,1-4.57,4.32,4.32,0,0,0-.81-2.81,3.1,3.1,0,0,0-2.18-.74c-3.55,0-4.91,4.47-4.91,7.33,0,2,.81,3.39,3,3.39h0Z"/><path class="cls-2" d="M297,46.4a12.65,12.65,0,0,0-.21,1.71,1.39,1.39,0,0,0,1.33,1.45h0a2.63,2.63,0,0,0,1.81-.95l0.63,0.53A5,5,0,0,1,296.9,51a2.48,2.48,0,0,1-2.65-2.3s0-.06,0-0.09a8.79,8.79,0,0,1-5.7,2.39c-1.63,0-3-.74-3-2.52a10.37,10.37,0,0,1,.21-1.79l0.84-4.86a4.11,4.11,0,0,0,.13-1,1.17,1.17,0,0,0-1.13-1.21h-0.08l-0.6-.11,0.13-.79,3.68-.68h0.89l-1.5,8.64a6,6,0,0,0-.13,1.18v0.26a1.59,1.59,0,0,0,1.59,1.59h0.14c1.76,0,3.36-1.08,4.7-2.08l1.71-9.51h2.39Z"/><path class="cls-2" d="M303.68,50.79h-2.39l1.6-9.12a6.09,6.09,0,0,0,.11-1c0-1-.87-1.18-1.81-1.23l0.13-.79L305,38h0.91l-0.34,1.89A9.59,9.59,0,0,1,311,37.79c1.63,0,3.21.74,3.21,2.57a10.35,10.35,0,0,1-.18,1.55l-1,5.2a5.79,5.79,0,0,0-.13,1.16,1.4,1.4,0,0,0,1.26,1.39,2.73,2.73,0,0,0,1.76-.89l0.53,0.58A4.75,4.75,0,0,1,313,51a2.34,2.34,0,0,1-2.44-2.24s0-.07,0-0.1V48.59a16.22,16.22,0,0,1,.33-2.46l0.74-4.18a9.3,9.3,0,0,0,.16-1.24,1.69,1.69,0,0,0-1.74-1.64H310c-1.68,0-3.34,1.13-4.62,2.1Z"/><path class="cls-2" d="M322.26,38.07H326l-0.13.79h-3.73L320.85,46a11.5,11.5,0,0,0-.26,2.13,1.49,1.49,0,0,0,1.23,1.71l0.29,0a4,4,0,0,0,2.55-1.18l0.58,0.66a5.9,5.9,0,0,1-4,1.66c-1.42,0-3.15-.47-3.15-2.21a14.28,14.28,0,0,1,.32-2.34l1.34-7.59h-2.23l0.13-.79c3.1-.11,3.94-2,4.49-4.73h1Z"/><path class="cls-2" d="M329.62,47.22a4.59,4.59,0,0,0-.11.87,1.35,1.35,0,0,0,1.22,1.47h0.2a2.85,2.85,0,0,0,1.79-.89l0.6,0.53A5.06,5.06,0,0,1,329.56,51a2.37,2.37,0,0,1-2.47-2.57,6.28,6.28,0,0,1,.13-1.21l1-5.41a4.86,4.86,0,0,0,.13-0.89c0-1.08-.79-1.26-1.71-1.39h-0.18l0.13-.79,1.08-.13a16.5,16.5,0,0,0,2.76-.53h0.87Zm0.92-10.67a1.26,1.26,0,0,1-1.21-1.3V35.18a1.93,1.93,0,0,1,1.81-1.81,1.24,1.24,0,0,1,1.37,1.26A2,2,0,0,1,330.54,36.55Z"/><path class="cls-2" d="M336.27,50.79h-2.36l1.6-9.12a6.09,6.09,0,0,0,.11-1c0-1-.87-1.18-1.81-1.23l0.13-.79,3.68-.6h1l-0.34,1.89a9.59,9.59,0,0,1,5.47-2.15c1.63,0,3.21.74,3.21,2.57a10.35,10.35,0,0,1-.18,1.55l-1,5.2a5.79,5.79,0,0,0-.13,1.16,1.4,1.4,0,0,0,1.26,1.39,2.73,2.73,0,0,0,1.76-.89l0.53,0.58A4.75,4.75,0,0,1,345.68,51a2.34,2.34,0,0,1-2.44-2.24s0-.07,0-0.1V48.59a16.22,16.22,0,0,1,.37-2.52l0.74-4.18a9.3,9.3,0,0,0,.16-1.24A1.69,1.69,0,0,0,342.77,39h-0.1c-1.68,0-3.34,1.13-4.62,2.1Z"/><path class="cls-2" d="M361,49.37c-0.37,2.1-.63,3.84-2.39,5.28a9,9,0,0,1-5.73,1.94,8,8,0,0,1-3.76-.76,1.81,1.81,0,0,1-1.29-1.45,1.39,1.39,0,0,1,1.46-1.25,1.32,1.32,0,0,1,1.37.84,3.23,3.23,0,0,0,.68,1,3,3,0,0,0,1.92.63A4.66,4.66,0,0,0,356.77,54a7.35,7.35,0,0,0,1.71-3.92l0.45-2.36,0-.05A6.1,6.1,0,0,1,353.73,51c-2.84,0-4.34-2.23-4.34-4.86,0-4,2.94-8.33,7.25-8.33a4.86,4.86,0,0,1,3.68,1.63l0.58-1.37H363Zm-0.89-8.8a3.75,3.75,0,0,0-3-1.5c-3.44,0-5,4.76-5,7.62,0,1.52.39,3.07,2.21,3.07s3.36-1.68,4.18-3.18a19.24,19.24,0,0,0,1.58-5.52Z"/><path class="cls-2" d="M389.91,38.13l-1,.29c-1.42-3-3.55-4.26-6.91-4.26-3,0-3.28.29-3.78,3l-0.66,3.68h1.89a4.25,4.25,0,0,0,2.21-.39,3.13,3.13,0,0,0,1.44-2l0.26-.74h0.84l-1.34,7.62H382V44.57c0-2.15-1-2.52-3-2.52h-1.73l-1,5.39a3.2,3.2,0,0,0-.08.68v0.16A1.72,1.72,0,0,0,378,50h0.47l-0.16.79h-7.37l0.16-.79c2.1-.16,2.47-1.13,2.79-2.89l1.89-10.8a4.63,4.63,0,0,0,.1-0.84,1.58,1.58,0,0,0-1.39-1.75h-0.53l0.13-.79H388.7Z"/><path class="cls-2" d="M392.17,47.22a4.59,4.59,0,0,0-.11.87,1.35,1.35,0,0,0,1.22,1.47h0.2a2.85,2.85,0,0,0,1.79-.89l0.6,0.53A5.06,5.06,0,0,1,392.11,51a2.37,2.37,0,0,1-2.47-2.57,6.28,6.28,0,0,1,.13-1.21l1-5.41a4.86,4.86,0,0,0,.13-0.89c0-1.08-.79-1.26-1.71-1.39H389l0.13-.79,1.08-.13a16.5,16.5,0,0,0,2.76-.53h0.87Zm0.92-10.67a1.26,1.26,0,0,1-1.21-1.3V35.18a1.93,1.93,0,0,1,1.81-1.81,1.24,1.24,0,0,1,1.37,1.26A2,2,0,0,1,393.09,36.55Z"/><path class="cls-2" d="M400.74,39.7l0,0.05a6.55,6.55,0,0,1,4.2-1.94A1.42,1.42,0,0,1,406.64,39V39a1.47,1.47,0,0,1-1.55,1.38H405c-1,0-1.34-.74-2.15-0.74-2.13,0-2.65,3.15-2.92,4.73l-1.1,6.39h-2.39l1.6-9.17a5.57,5.57,0,0,0,.13-0.92c0-1-.87-1.18-1.81-1.23l0.13-.79,3.68-.6h1Z"/><path class="cls-2" d="M408.55,41.75a6.09,6.09,0,0,0,.11-1,1.17,1.17,0,0,0-1.13-1.21h-0.08l-0.6-.1,0.16-.79a22.22,22.22,0,0,0,3.71-.6h0.92l-0.24,1.37A8.58,8.58,0,0,1,416,37.79c1.29,0,2.84.5,3.21,1.89a8.27,8.27,0,0,1,4.91-1.89c1.6,0,3.21.74,3.21,2.57A12.14,12.14,0,0,1,427.2,42L426.31,47a7.74,7.74,0,0,0-.16,1.34,1.26,1.26,0,0,0,1.23,1.29h0.06a2.5,2.5,0,0,0,1.63-.71l0.5,0.66A5,5,0,0,1,426.29,51a2.31,2.31,0,0,1-2.5-2.47V48.38a12.3,12.3,0,0,1,.18-1.66l0.89-5a4.87,4.87,0,0,0,.1-0.89,1.61,1.61,0,0,0-1.57-1.65l-0.27,0a7.9,7.9,0,0,0-3.78,1.45l-1.81,10.17h-2.42l1.45-8.17c0.08-.5.24-1.39,0.26-1.89V40.71c0-1.1-.79-1.52-1.84-1.52a7.61,7.61,0,0,0-3.84,1.47l-1.81,10.17h-2.42Z"/><path class="cls-2" d="M178.61,196.74l-0.63.18a4.3,4.3,0,0,0-4.38-2.7c-1.93,0-2.08.18-2.4,1.91l-0.42,2.33H172a2.69,2.69,0,0,0,1.4-.25,2,2,0,0,0,.92-1.3l0.17-.47H175l-0.85,4.83h-0.52v-0.48c0-1.36-.67-1.6-1.88-1.6h-1.1L170,202.6a2,2,0,0,0,0,.43v0.1a1.09,1.09,0,0,0,1.06,1.12h0.31l-0.1.5h-4.68l0.1-.5c1.33-.1,1.56-0.72,1.76-1.83l1.2-6.84a2.93,2.93,0,0,0,.07-0.53,1,1,0,0,0-.87-1.11h-0.36l0.08-.5h9.29Z"/><path class="cls-2" d="M181.16,204.92a3.23,3.23,0,0,1-3.51-3.4,5.27,5.27,0,0,1,1.4-3.43,4.61,4.61,0,0,1,3.56-1.53,3.26,3.26,0,0,1,3.48,3.43,4.91,4.91,0,0,1-4.89,4.93h0Zm0.08-.78a2.64,2.64,0,0,0,2.46-1.65,7.59,7.59,0,0,0,.67-2.9,2.74,2.74,0,0,0-.52-1.78,2,2,0,0,0-1.38-.47c-2.25,0-3.11,2.83-3.11,4.64,0,1.27.55,2.15,1.88,2.15h0Z"/><path class="cls-2" d="M189.81,197.76h0a4.15,4.15,0,0,1,2.66-1.23,0.9,0.9,0,0,1,1,.78,0.93,0.93,0,0,1-1,.88H192.4c-0.65,0-.85-0.47-1.37-0.47-1.35,0-1.68,2-1.85,3l-0.7,4H187l1-5.81a3.52,3.52,0,0,0,.08-0.58c0-.65-0.55-0.75-1.15-0.78L187,197l2.33-.38h0.6Z"/><path class="cls-2" d="M200.61,200.64a1.81,1.81,0,0,1-1.18-1.65,2.22,2.22,0,0,1,1.08-1.8,4.16,4.16,0,0,1,2.3-.63,6.15,6.15,0,0,1,2.73.58,1.17,1.17,0,0,1,.77.9,0.66,0.66,0,0,1-.64.68h-0.08a1,1,0,0,1-.93-0.58,1.68,1.68,0,0,0-.68-0.68,2.24,2.24,0,0,0-1.13-.28,1.47,1.47,0,0,0-1.69,1.21v0.09a1.06,1.06,0,0,0,.55.93,9,9,0,0,0,1.63.58c1.12,0.35,2.6.72,2.6,2.15a2.56,2.56,0,0,1-1.35,2.11,5,5,0,0,1-2.6.67,5.89,5.89,0,0,1-2.8-.68,1.48,1.48,0,0,1-.9-1.08,0.77,0.77,0,0,1,.77-0.73c1.42,0,.9,1.83,3.1,1.83a2.55,2.55,0,0,0,1.43-.4,1.48,1.48,0,0,0,.68-1.13c0-.85-0.8-1.1-1.48-1.32Z"/><path class="cls-2" d="M209.68,202.52a2.93,2.93,0,0,0-.07.55,0.86,0.86,0,0,0,.79.93h0.11a1.81,1.81,0,0,0,1.13-.57l0.38,0.33a3.21,3.21,0,0,1-2.38,1.15,1.5,1.5,0,0,1-1.56-1.63,4,4,0,0,1,.08-0.77l0.6-3.43a3.1,3.1,0,0,0,.08-0.57c0-.68-0.5-0.8-1.08-0.88h-0.12l0.08-.5,0.68-.08a10.44,10.44,0,0,0,1.75-.33h0.55Zm0.58-6.76a0.8,0.8,0,0,1-.77-0.83v0a1.22,1.22,0,0,1,1.15-1.15,0.79,0.79,0,0,1,.87.8,1.25,1.25,0,0,1-1.25,1.22h0Z"/><path class="cls-2" d="M219.25,203.89c-0.23,1.33-.4,2.43-1.51,3.35a5.73,5.73,0,0,1-3.63,1.23,5.09,5.09,0,0,1-2.38-.48,1.15,1.15,0,0,1-.82-0.92,0.88,0.88,0,0,1,.92-0.8,0.84,0.84,0,0,1,.87.53,2,2,0,0,0,.43.63,1.87,1.87,0,0,0,1.22.4,3,3,0,0,0,2.21-1,4.66,4.66,0,0,0,1.08-2.48l0.28-1.5h0a3.86,3.86,0,0,1-3.26,2.08,2.78,2.78,0,0,1-2.75-3.08c0-2.56,1.86-5.28,4.59-5.28a3.08,3.08,0,0,1,2.33,1l0.37-.87h1.35Zm-0.57-5.58a2.37,2.37,0,0,0-1.91-1c-2.18,0-3.18,3-3.18,4.83,0,1,.25,2,1.4,2a3.45,3.45,0,0,0,2.65-2,12.19,12.19,0,0,0,1-3.5Z"/><path class="cls-2" d="M223.21,204.78H221.7l1-5.78a3.83,3.83,0,0,0,.07-0.62c0-.65-0.55-0.75-1.15-0.78l0.08-.5,2.33-.38h0.6l-0.22,1.2a6.07,6.07,0,0,1,3.46-1.37,1.74,1.74,0,0,1,2,1.63,6.53,6.53,0,0,1-.12,1l-0.6,3.3a3.67,3.67,0,0,0-.08.73,0.89,0.89,0,0,0,.8.88,1.73,1.73,0,0,0,1.12-.57l0.33,0.37a3,3,0,0,1-2.23,1,1.48,1.48,0,0,1-1.55-1.41s0,0,0-.07h0a10.3,10.3,0,0,1,.23-1.6l0.47-2.65a5.94,5.94,0,0,0,.1-0.78,1.07,1.07,0,0,0-1.13-1h0a5.32,5.32,0,0,0-2.93,1.33Z"/><path class="cls-2" d="M234,202.52a2.89,2.89,0,0,0-.07.55,0.86,0.86,0,0,0,.79.93h0.11a1.81,1.81,0,0,0,1.13-.57l0.38,0.33a3.21,3.21,0,0,1-2.38,1.15,1.5,1.5,0,0,1-1.56-1.63,4,4,0,0,1,.08-0.77l0.6-3.43a3.1,3.1,0,0,0,.08-0.57c0-.68-0.5-0.8-1.08-0.88h-0.15l0.08-.5,0.68-.08a10.44,10.44,0,0,0,1.75-.33H235Zm0.58-6.76a0.8,0.8,0,0,1-.77-0.83v0a1.22,1.22,0,0,1,1.15-1.15,0.79,0.79,0,0,1,.87.8A1.25,1.25,0,0,1,234.56,195.76Z"/><path class="cls-2" d="M242,196.73l-0.07.5h-1.73l-1.1,6.41A7.79,7.79,0,0,1,238,207a4,4,0,0,1-3.31,1.4c-0.73,0-2.26-.28-2.26-1.27a0.66,0.66,0,0,1,.71-0.61h0.07c1.1,0,1.08,1.28,2.2,1.28a1.89,1.89,0,0,0,1.25-.6,3.69,3.69,0,0,0,.55-1.55l0.22-1.1,1.27-7.36h-1.48l0.07-.5h1.52a4.77,4.77,0,0,1,.93-2.7,3.62,3.62,0,0,1,2.73-1.32c0.58,0,1.91.17,1.91,1a0.7,0.7,0,0,1-.73.67h0c-1,0-.65-1-1.66-1a1.18,1.18,0,0,0-1,.57,3.57,3.57,0,0,0-.45,1.47l-0.23,1.36h1.7Z"/><path class="cls-2" d="M244.3,202.52a2.93,2.93,0,0,0-.07.55,0.86,0.86,0,0,0,.79.93h0.11a1.81,1.81,0,0,0,1.13-.57l0.38,0.33a3.21,3.21,0,0,1-2.38,1.15,1.5,1.5,0,0,1-1.56-1.63,4,4,0,0,1,.08-0.77l0.6-3.43a3.1,3.1,0,0,0,.08-0.57c0-.68-0.5-0.8-1.08-0.88h-0.12l0.08-.5L243,197a10.44,10.44,0,0,0,1.75-.33h0.55Zm0.58-6.76a0.8,0.8,0,0,1-.77-0.83v0a1.22,1.22,0,0,1,1.15-1.15,0.79,0.79,0,0,1,.87.8,1.25,1.25,0,0,1-1.22,1.22h0Z"/><path class="cls-2" d="M253.7,203.22a5.37,5.37,0,0,1-3.8,1.7,3.17,3.17,0,0,1-3.36-3q0-.14,0-0.29a5.19,5.19,0,0,1,5.06-5.09c1.07,0,2.55.55,2.55,1.81a0.93,0.93,0,0,1-.86,1h-0.07a0.58,0.58,0,0,1-.65-0.58v-0.45a1,1,0,0,0-1-1l-0.22,0c-2,0-3.13,2.9-3.13,4.53a2.14,2.14,0,0,0,2,2.26h0.14a4.64,4.64,0,0,0,2.91-1.33Z"/><path class="cls-2" d="M262.51,202.35a3.08,3.08,0,0,0-.1.68,0.91,0.91,0,0,0,.89.93h0a1.66,1.66,0,0,0,1.17-.62l0.38,0.35a3.31,3.31,0,0,1-2.38,1.22,1.62,1.62,0,0,1-1.63-1.78v-0.22h0a3.93,3.93,0,0,1-3.33,2,2.83,2.83,0,0,1-2.86-3.13c0-2.56,2-5.23,4.71-5.23a3.38,3.38,0,0,1,2.46,1l0.15-.82h1.53Zm-2.76-5c-2.25,0-3.45,3-3.45,4.86a1.66,1.66,0,0,0,1.38,1.9l0.23,0c1.28,0,2.35-1.22,2.85-2.28a15.85,15.85,0,0,0,1-3.61,2.46,2.46,0,0,0-2-.9h0Z"/><path class="cls-2" d="M266.82,204.78h-1.51l1-5.78a3.83,3.83,0,0,0,.07-0.62c0-.65-0.55-0.75-1.15-0.78l0.08-.5,2.33-.38h0.6l-0.22,1.2a6.07,6.07,0,0,1,3.46-1.37,1.74,1.74,0,0,1,2,1.63,6.53,6.53,0,0,1-.12,1l-0.6,3.3a3.67,3.67,0,0,0-.08.73,0.89,0.89,0,0,0,.8.88,1.73,1.73,0,0,0,1.12-.57l0.33,0.37a3,3,0,0,1-2.23,1,1.48,1.48,0,0,1-1.55-1.41s0,0,0-.07h0a10.3,10.3,0,0,1,.23-1.6l0.53-2.68a5.94,5.94,0,0,0,.1-0.78,1.07,1.07,0,0,0-1.13-1h0a5.32,5.32,0,0,0-2.93,1.33Z"/><path class="cls-2" d="M278.58,196.73h2.33l-0.08.5h-2.36l-0.8,4.53a7.3,7.3,0,0,0-.17,1.35,0.94,0.94,0,0,0,1,1.1,2.52,2.52,0,0,0,1.61-.75l0.37,0.42a3.74,3.74,0,0,1-2.55,1c-0.9,0-2-.3-2-1.4a9.07,9.07,0,0,1,.2-1.48l0.85-4.81h-1.42l0.08-.5c2-.07,2.5-1.25,2.85-3h0.62Z"/><path class="cls-2" d="M283.09,201.87a5.81,5.81,0,0,0-.15,1.1V203a0.92,0.92,0,0,0,.89,1h0.06a1.74,1.74,0,0,0,1.17-.63l0.38,0.35a3.31,3.31,0,0,1-2.51,1.2,1.52,1.52,0,0,1-1.52-1.52s0-.06,0-0.09a6.43,6.43,0,0,1,.15-1.27l1.17-6.64a3.48,3.48,0,0,0,.07-0.58c0-.73-0.52-0.77-1.2-0.87l0.08-.5a8.86,8.86,0,0,0,2.35-.6h0.65Z"/><path class="cls-2" d="M293.15,204.63a3.65,3.65,0,0,1-1.63,2.83,5.73,5.73,0,0,1-3.28,1,4.65,4.65,0,0,1-2.16-.45,1.06,1.06,0,0,1-.67-0.83,0.77,0.77,0,0,1,.85-0.68h0c1.08,0,.63,1.37,2.3,1.37a2.84,2.84,0,0,0,2-.9,4.4,4.4,0,0,0,1-2.38l0.25-1.37a5.82,5.82,0,0,1-3.71,1.7,1.7,1.7,0,0,1-2-1.7v-0.6l0.07-.53,0.55-3.11a3.11,3.11,0,0,0,.07-0.57c0-.7-0.5-0.8-1.18-0.8l0.08-.5,0.5,0,1.78-.33h0.65l-0.84,5.4a7.45,7.45,0,0,0-.12.85,1,1,0,0,0,.89,1.1h0.18a5.24,5.24,0,0,0,3.25-1.51l1-5.81h1.51Z"/><path class="cls-2" d="M302.73,201.87a5.81,5.81,0,0,0-.15,1.1V203a0.92,0.92,0,0,0,.89,1h0.06a1.74,1.74,0,0,0,1.17-.63l0.38,0.35a3.31,3.31,0,0,1-2.51,1.2A1.52,1.52,0,0,1,301,203.4s0-.06,0-0.09a6.43,6.43,0,0,1,.15-1.27l1.17-6.64a3.48,3.48,0,0,0,.07-0.58c0-.73-0.52-0.77-1.2-0.87l0.08-.5a8.86,8.86,0,0,0,2.35-.6h0.65Z"/><path class="cls-2" d="M312.8,203.35a6.93,6.93,0,0,1-4.1,1.56c-1.83,0-3.58-1.13-3.58-3.11a5.27,5.27,0,0,1,1.79-3.67,6.14,6.14,0,0,1,3.93-1.53c1.1,0,2.78.47,2.78,1.83,0,2.28-4.86,2.73-6.66,2.76a3.34,3.34,0,0,0-.12.82,2.13,2.13,0,0,0,2.08,2.18l0.33,0a5.62,5.62,0,0,0,3.13-1.25Zm-5.71-2.81c1.45,0,4.91-.32,4.91-2.16a1.32,1.32,0,0,0-1.4-1.23h-0.12C308.76,197.13,307.51,199,307.09,200.54Z"/><path class="cls-2" d="M316.44,200.64a1.81,1.81,0,0,1-1.18-1.65,2.22,2.22,0,0,1,1.08-1.8,4.16,4.16,0,0,1,2.3-.63,6.15,6.15,0,0,1,2.73.58,1.17,1.17,0,0,1,.77.9,0.66,0.66,0,0,1-.64.68h-0.08a1,1,0,0,1-.93-0.58,1.68,1.68,0,0,0-.68-0.68,2.24,2.24,0,0,0-1.13-.28,1.47,1.47,0,0,0-1.69,1.21v0.09a1.06,1.06,0,0,0,.55.93,9,9,0,0,0,1.63.58c1.12,0.35,2.6.72,2.6,2.15a2.56,2.56,0,0,1-1.35,2.11,5,5,0,0,1-2.6.67,5.89,5.89,0,0,1-2.8-.68,1.48,1.48,0,0,1-.9-1.08,0.77,0.77,0,0,1,.77-0.73c1.42,0,.9,1.83,3.1,1.83a2.55,2.55,0,0,0,1.43-.4,1.48,1.48,0,0,0,.68-1.13c0-.85-0.8-1.1-1.48-1.32Z"/><path class="cls-2" d="M325.43,200.64a1.81,1.81,0,0,1-1.18-1.65,2.22,2.22,0,0,1,1.08-1.8,4.16,4.16,0,0,1,2.3-.63,6.15,6.15,0,0,1,2.73.58,1.17,1.17,0,0,1,.77.9,0.66,0.66,0,0,1-.64.68h-0.08a1,1,0,0,1-.93-0.58,1.68,1.68,0,0,0-.68-0.68,2.24,2.24,0,0,0-1.13-.28,1.47,1.47,0,0,0-1.69,1.21v0.09a1.06,1.06,0,0,0,.55.93,9,9,0,0,0,1.63.58c1.12,0.35,2.6.72,2.6,2.15a2.56,2.56,0,0,1-1.35,2.11,5,5,0,0,1-2.6.67,5.89,5.89,0,0,1-2.8-.68,1.48,1.48,0,0,1-.9-1.08,0.77,0.77,0,0,1,.77-0.73c1.42,0,.9,1.83,3.1,1.83a2.55,2.55,0,0,0,1.43-.4,1.48,1.48,0,0,0,.68-1.13c0-.85-0.8-1.1-1.48-1.32Z"/><path class="cls-2" d="M332.47,206.4a2.94,2.94,0,0,0,1.52-1.76,0.92,0.92,0,0,1-.7.28,0.72,0.72,0,0,1-.65-0.78,1.23,1.23,0,0,1,1.22-1.22,1,1,0,0,1,.93,1.06v0a3.22,3.22,0,0,1-2.16,2.7Z"/><path class="cls-2" d="M84.63,222.33l0.48-2.68a2.94,2.94,0,0,0,0-.55,1,1,0,0,0-.89-1.1H83.88l0.1-.5h4.71l-0.08.5H88.49c-1.23.1-1.53,0.7-1.73,1.83l-1.21,6.84a2,2,0,0,0,0,.43v0.1a1.09,1.09,0,0,0,1,1.12h0.2l-0.08.5H81.91l0.08-.5h0.15a1.59,1.59,0,0,0,1.17-.43,2.22,2.22,0,0,0,.55-1.4L84.48,223H78.3l-0.65,3.61a3.3,3.3,0,0,0-.07.55,1.18,1.18,0,0,0,.23.7,1.06,1.06,0,0,0,.9.42H79l-0.1.5H74.18l0.1-.5c1.33-.12,1.55-0.73,1.75-1.83l1.23-6.84v-0.55a1,1,0,0,0-.89-1.1H76l0.08-.5h4.76l-0.08.5H80.62c-1.33,0-1.58.57-1.8,1.83l-0.45,2.51h6.26Z"/><path class="cls-2" d="M90.69,226.56a2.88,2.88,0,0,0-.07.55,0.86,0.86,0,0,0,.79.93h0.11a1.81,1.81,0,0,0,1.13-.57L93,227.8a3.21,3.21,0,0,1-2.38,1.15,1.5,1.5,0,0,1-1.56-1.63,4,4,0,0,1,.08-0.77l0.6-3.43a3.1,3.1,0,0,0,.08-0.57c0-.68-0.5-0.8-1.08-0.88H88.65l0.08-.5,0.68-.08a10.44,10.44,0,0,0,1.75-.33h0.55Zm0.58-6.76A0.8,0.8,0,0,1,90.5,219v0a1.22,1.22,0,0,1,1.15-1.15,0.79,0.79,0,0,1,.87.8,1.25,1.25,0,0,1-1.25,1.22h0Z"/><path class="cls-2" d="M102.29,226.41c0.23,1.07.25,1.75,1.55,1.91l-0.08.5H99.25l0.08-.5c0.63-.08,1.37-0.18,1.37-1a2.71,2.71,0,0,0-.07-0.53l-0.45-2.18H95.91L95.14,226a3.19,3.19,0,0,0-.53,1.41,0.86,0.86,0,0,0,.89.83h0.37l-0.1.5H91.41l0.08-.5a2.68,2.68,0,0,0,2.11-1.58l5.18-9.26h1.6ZM99,218.87l-2.71,5h3.8Z"/><path class="cls-2" d="M111.74,227.26a5.37,5.37,0,0,1-3.8,1.7,3.17,3.17,0,0,1-3.36-3q0-.14,0-0.29a5.19,5.19,0,0,1,5.06-5.09c1.07,0,2.55.55,2.55,1.81a0.93,0.93,0,0,1-.86,1h-0.07a0.58,0.58,0,0,1-.65-0.58v-0.45a1,1,0,0,0-1-1l-0.22,0c-2,0-3.13,2.9-3.13,4.53a2.14,2.14,0,0,0,2,2.26h0.14a4.64,4.64,0,0,0,2.91-1.33Z"/><path class="cls-2" d="M119.73,227.26a5.37,5.37,0,0,1-3.8,1.7,3.17,3.17,0,0,1-3.36-3q0-.14,0-0.29a5.19,5.19,0,0,1,5.06-5.09c1.07,0,2.55.55,2.55,1.81a0.93,0.93,0,0,1-.86,1h-0.07a0.58,0.58,0,0,1-.65-0.58v-0.45a1,1,0,0,0-1-1l-0.22,0c-2,0-3.13,2.9-3.13,4.53a2.14,2.14,0,0,0,2,2.26h0.14a4.64,4.64,0,0,0,2.91-1.33Z"/><path class="cls-2" d="M124.07,229a3.23,3.23,0,0,1-3.51-3.4,5.27,5.27,0,0,1,1.35-3.43,4.61,4.61,0,0,1,3.56-1.53,3.26,3.26,0,0,1,3.48,3.43A4.91,4.91,0,0,1,124.07,229Zm0.08-.78a2.64,2.64,0,0,0,2.46-1.65,7.59,7.59,0,0,0,.67-2.9,2.74,2.74,0,0,0-.52-1.78,2,2,0,0,0-1.38-.47c-2.25,0-3.11,2.83-3.11,4.64,0,1.27.52,2.11,1.89,2.11v0Z"/><path class="cls-2" d="M137.6,226a8,8,0,0,0-.13,1.08,0.88,0.88,0,0,0,.84.92h0a1.67,1.67,0,0,0,1.15-.6l0.4,0.33a3.17,3.17,0,0,1-2.35,1.18,1.57,1.57,0,0,1-1.68-1.46v-0.05a5.57,5.57,0,0,1-3.61,1.51,1.64,1.64,0,0,1-1.91-1.6,6.58,6.58,0,0,1,.13-1.13l0.53-3.08a2.59,2.59,0,0,0,.08-0.62,0.74,0.74,0,0,0-.71-0.77h-0.06l-0.38-.07,0.08-.5,2.33-.43h0.57l-1,5.48a3.8,3.8,0,0,0-.08.75v0.15a1,1,0,0,0,1,1H133a5.28,5.28,0,0,0,3-1.32l1.08-6h1.52Z"/><path class="cls-2" d="M141.83,228.82h-1.52l1-5.78a3.83,3.83,0,0,0,.07-0.62c0-.65-0.55-0.75-1.15-0.78l0.08-.5,2.33-.38h0.6L143,222a6.07,6.07,0,0,1,3.46-1.37,1.74,1.74,0,0,1,2,1.63,6.53,6.53,0,0,1-.12,1l-0.6,3.3a3.67,3.67,0,0,0-.08.73,0.89,0.89,0,0,0,.8.88,1.73,1.73,0,0,0,1.12-.57l0.33,0.37a3,3,0,0,1-2.23,1,1.48,1.48,0,0,1-1.55-1.41s0,0,0-.07h0a10.3,10.3,0,0,1,.23-1.6l0.47-2.65a5.94,5.94,0,0,0,.1-0.78,1.07,1.07,0,0,0-1.13-1h0a5.32,5.32,0,0,0-2.93,1.33Z"/><path class="cls-2" d="M153.6,220.77h2.31l-0.08.5h-2.36l-0.8,4.53a7.3,7.3,0,0,0-.17,1.35,0.94,0.94,0,0,0,1,1.1,2.52,2.52,0,0,0,1.61-.75l0.37,0.42a3.74,3.74,0,0,1-2.55,1c-0.9,0-2-.3-2-1.4a9.07,9.07,0,0,1,.2-1.48l0.85-4.81h-1.42l0.08-.5c2-.07,2.5-1.25,2.85-3h0.62Z"/><path class="cls-2" d="M158.26,226.56a2.92,2.92,0,0,0-.07.55,0.86,0.86,0,0,0,.79.93h0.11a1.81,1.81,0,0,0,1.13-.57l0.38,0.33a3.21,3.21,0,0,1-2.38,1.15,1.5,1.5,0,0,1-1.56-1.63,4,4,0,0,1,.08-0.77l0.6-3.43a3.1,3.1,0,0,0,.08-0.57c0-.68-0.5-0.8-1.08-0.88h-0.12l0.08-.5,0.68-.08a10.44,10.44,0,0,0,1.75-.33h0.55Zm0.58-6.76a0.8,0.8,0,0,1-.77-0.83v0a1.22,1.22,0,0,1,1.15-1.15,0.79,0.79,0,0,1,.87.8,1.25,1.25,0,0,1-1.25,1.22h0Z"/><path class="cls-2" d="M162.47,228.82h-1.56l1-5.78a3.83,3.83,0,0,0,.07-0.62c0-.65-0.55-0.75-1.15-0.78l0.08-.5,2.33-.38h0.67l-0.22,1.2a6.07,6.07,0,0,1,3.46-1.37,1.74,1.74,0,0,1,2,1.63,6.53,6.53,0,0,1-.12,1l-0.6,3.3a3.67,3.67,0,0,0-.08.73,0.89,0.89,0,0,0,.8.88,1.73,1.73,0,0,0,1.12-.57l0.33,0.37a3,3,0,0,1-2.23,1,1.48,1.48,0,0,1-1.55-1.41s0,0,0-.07h0a10.3,10.3,0,0,1,.23-1.6l0.47-2.65a5.94,5.94,0,0,0,.1-0.78,1.07,1.07,0,0,0-1.13-1h0a5.32,5.32,0,0,0-2.93,1.33Z"/><path class="cls-2" d="M178.15,227.93c-0.23,1.33-.4,2.43-1.51,3.35a5.73,5.73,0,0,1-3.63,1.23,5.09,5.09,0,0,1-2.38-.48,1.15,1.15,0,0,1-.82-0.92,0.88,0.88,0,0,1,.92-0.8,0.84,0.84,0,0,1,.87.53,2,2,0,0,0,.43.63,1.87,1.87,0,0,0,1.22.4,3,3,0,0,0,2.21-1,4.66,4.66,0,0,0,1.08-2.48l0.28-1.5h0a3.86,3.86,0,0,1-3.26,2.08,2.78,2.78,0,0,1-2.75-3.08c0-2.56,1.86-5.28,4.59-5.28a3.08,3.08,0,0,1,2.33,1l0.37-.87h1.35Zm-0.57-5.58a2.37,2.37,0,0,0-1.91-1c-2.18,0-3.18,3-3.18,4.83,0,1,.25,2,1.4,2a3.45,3.45,0,0,0,2.65-2,12.19,12.19,0,0,0,1-3.5Z"/><path class="cls-2" d="M181.52,220.68a2.91,2.91,0,0,0,1.51-1.75,0.94,0.94,0,0,1-.68.28,0.73,0.73,0,0,1-.65-0.8,1.22,1.22,0,0,1,1.2-1.22,1,1,0,0,1,1,1v0a3.26,3.26,0,0,1-2.18,2.71Z"/><path class="cls-2" d="M187.13,224.68a1.81,1.81,0,0,1-1.22-1.65,2.22,2.22,0,0,1,1.08-1.8,4.16,4.16,0,0,1,2.3-.63,6.15,6.15,0,0,1,2.73.58,1.17,1.17,0,0,1,.77.9,0.66,0.66,0,0,1-.64.68h-0.08a1,1,0,0,1-.93-0.58,1.68,1.68,0,0,0-.68-0.68,2.24,2.24,0,0,0-1.13-.28,1.47,1.47,0,0,0-1.69,1.21v0.09a1.06,1.06,0,0,0,.55.93,9,9,0,0,0,1.63.58c1.12,0.35,2.6.72,2.6,2.15a2.56,2.56,0,0,1-1.35,2.11,5,5,0,0,1-2.6.67,5.89,5.89,0,0,1-2.8-.68,1.48,1.48,0,0,1-.9-1.08,0.77,0.77,0,0,1,.77-0.73c1.42,0,.9,1.83,3.1,1.83a2.55,2.55,0,0,0,1.43-.4,1.48,1.48,0,0,0,.68-1.13c0-.85-0.8-1.1-1.48-1.32Z"/><path class="cls-2" d="M209.27,227.78a3.48,3.48,0,0,1-2.46,1.18,1.53,1.53,0,0,1-1.63-1.43s0-.07,0-0.1V226.8a4.25,4.25,0,0,1-3.55,2.16c-1.9,0-2.9-1.4-2.9-3.18a5.75,5.75,0,0,1,1.4-3.61,4.63,4.63,0,0,1,3.46-1.56,3.65,3.65,0,0,1,2.53,1l0.38-2.18a3.52,3.52,0,0,0,.08-0.58c0-.72-0.58-0.8-1.18-0.87h-0.17l0.1-.5a7.24,7.24,0,0,0,2.43-.6h0.7l-1.6,9.07a7.37,7.37,0,0,0-.15,1.22,0.81,0.81,0,0,0,.73.88h0.14a1.62,1.62,0,0,0,1.23-.62ZM206,222.35a2.5,2.5,0,0,0-2-1c-2.4,0-3.51,3-3.51,4.94a1.59,1.59,0,0,0,1.32,1.82l0.29,0a3.6,3.6,0,0,0,2.8-2,12.07,12.07,0,0,0,1-3.46Z"/><path class="cls-2" d="M217.11,227.39A6.93,6.93,0,0,1,213,229c-1.83,0-3.58-1.13-3.58-3.11a5.27,5.27,0,0,1,1.78-3.71,6.14,6.14,0,0,1,3.93-1.53c1.1,0,2.78.47,2.78,1.83,0,2.28-4.86,2.73-6.66,2.76a3.34,3.34,0,0,0-.12.82,2.13,2.13,0,0,0,2.08,2.18l0.33,0a5.62,5.62,0,0,0,3.13-1.25Zm-5.71-2.81c1.45,0,4.91-.32,4.91-2.16a1.32,1.32,0,0,0-1.4-1.23h-0.12C213.06,221.2,211.81,223.13,211.4,224.58Z"/><path class="cls-2" d="M228.91,227.78a3.48,3.48,0,0,1-2.46,1.18,1.53,1.53,0,0,1-1.63-1.43s0-.07,0-0.1V226.8a4.25,4.25,0,0,1-3.55,2.16c-1.9,0-2.9-1.4-2.9-3.18a5.75,5.75,0,0,1,1.4-3.61,4.63,4.63,0,0,1,3.46-1.56,3.65,3.65,0,0,1,2.53,1l0.38-2.18a3.52,3.52,0,0,0,.08-0.58c0-.72-0.58-0.8-1.18-0.87h-0.13l0.1-.5a7.24,7.24,0,0,0,2.43-.6h0.7l-1.6,9.07a7.37,7.37,0,0,0-.15,1.22,0.81,0.81,0,0,0,.73.88h0.14a1.62,1.62,0,0,0,1.23-.62Zm-3.26-5.43a2.5,2.5,0,0,0-2-1c-2.4,0-3.51,3-3.51,4.94a1.59,1.59,0,0,0,1.31,1.83l0.3,0a3.6,3.6,0,0,0,2.8-2,12.09,12.09,0,0,0,1-3.46Z"/><path class="cls-2" d="M231.48,226.56a2.88,2.88,0,0,0-.07.55,0.86,0.86,0,0,0,.79.93h0.11a1.81,1.81,0,0,0,1.13-.57l0.38,0.33a3.21,3.21,0,0,1-2.38,1.15,1.5,1.5,0,0,1-1.53-1.62,4,4,0,0,1,.08-0.77l0.6-3.43a3.1,3.1,0,0,0,.08-0.57c0-.68-0.5-0.8-1.08-0.88h-0.12l0.08-.5,0.68-.08a10.44,10.44,0,0,0,1.75-.33h0.55Zm0.58-6.76a0.8,0.8,0,0,1-.77-0.83v0a1.22,1.22,0,0,1,1.15-1.15,0.79,0.79,0,0,1,.87.8,1.25,1.25,0,0,1-1.24,1.22h0Z"/><path class="cls-2" d="M240.91,227.26a5.37,5.37,0,0,1-3.8,1.7,3.17,3.17,0,0,1-3.36-3q0-.14,0-0.29a5.19,5.19,0,0,1,5.06-5.09c1.07,0,2.55.55,2.55,1.81a0.93,0.93,0,0,1-.86,1h-0.07a0.58,0.58,0,0,1-.65-0.58v-0.45a1,1,0,0,0-1-1l-0.22,0c-2,0-3.13,2.9-3.13,4.53a2.14,2.14,0,0,0,2.07,2.21h0.09a4.64,4.64,0,0,0,2.91-1.33Z"/><path class="cls-2" d="M249.69,226.39a3.08,3.08,0,0,0-.1.68,0.91,0.91,0,0,0,.89.93h0a1.66,1.66,0,0,0,1.17-.62l0.38,0.35a3.31,3.31,0,0,1-2.38,1.22,1.62,1.62,0,0,1-1.63-1.78V227h0a3.93,3.93,0,0,1-3.33,2,2.83,2.83,0,0,1-2.86-3.13c0-2.56,2-5.23,4.71-5.23a3.38,3.38,0,0,1,2.46,1l0.15-.82h1.53Zm-2.76-5c-2.25,0-3.45,3-3.45,4.86a1.66,1.66,0,0,0,1.37,1.91l0.21,0c1.28,0,2.35-1.22,2.85-2.28a15.85,15.85,0,0,0,1-3.61,2.46,2.46,0,0,0-2-.91h0Z"/><path class="cls-2" d="M255.45,220.77h2.35l-0.08.5h-2.36l-0.8,4.53a7.3,7.3,0,0,0-.17,1.35,0.94,0.94,0,0,0,1,1.1,2.52,2.52,0,0,0,1.61-.75l0.37,0.42a3.74,3.74,0,0,1-2.55,1c-0.9,0-2-.3-2-1.4A9.07,9.07,0,0,1,253,226l0.85-4.81h-1.42l0.08-.5c2-.07,2.5-1.25,2.85-3H256Z"/><path class="cls-2" d="M265.37,227.39a6.93,6.93,0,0,1-4.1,1.56c-1.83,0-3.58-1.13-3.58-3.11a5.27,5.27,0,0,1,1.78-3.71,6.14,6.14,0,0,1,3.93-1.53c1.1,0,2.78.47,2.78,1.83,0,2.28-4.86,2.73-6.66,2.76a3.34,3.34,0,0,0-.12.82,2.13,2.13,0,0,0,2.08,2.18l0.33,0a5.62,5.62,0,0,0,3.1-1.24Zm-5.71-2.81c1.45,0,4.91-.32,4.91-2.16a1.32,1.32,0,0,0-1.4-1.23H263C261.33,221.2,260.08,223.13,259.66,224.58Z"/><path class="cls-2" d="M277.17,227.78a3.48,3.48,0,0,1-2.46,1.18,1.53,1.53,0,0,1-1.63-1.43s0-.07,0-0.1V226.8a4.25,4.25,0,0,1-3.55,2.16c-1.9,0-2.9-1.4-2.9-3.18a5.75,5.75,0,0,1,1.4-3.61,4.63,4.63,0,0,1,3.46-1.56,3.65,3.65,0,0,1,2.53,1l0.38-2.18a3.52,3.52,0,0,0,.08-0.58c0-.72-0.58-0.8-1.18-0.87h-0.17l0.1-.5a7.24,7.24,0,0,0,2.43-.6h0.7l-1.6,9.07a7.37,7.37,0,0,0-.15,1.22,0.81,0.81,0,0,0,.73.88h0.14a1.62,1.62,0,0,0,1.23-.62Zm-3.26-5.43a2.5,2.5,0,0,0-2-1c-2.4,0-3.51,3-3.51,4.94a1.59,1.59,0,0,0,1.32,1.82l0.29,0a3.6,3.6,0,0,0,2.8-2,12.07,12.07,0,0,0,1-3.46Z"/><path class="cls-2" d="M289.49,227.26a5.37,5.37,0,0,1-3.8,1.7,3.17,3.17,0,0,1-3.36-3q0-.14,0-0.29a5.19,5.19,0,0,1,5.06-5.09c1.07,0,2.55.55,2.55,1.81a0.93,0.93,0,0,1-.86,1H289a0.58,0.58,0,0,1-.65-0.58v-0.45a1,1,0,0,0-1-1l-0.22,0c-2,0-3.13,2.9-3.13,4.53a2.14,2.14,0,0,0,2.07,2.21h0.11a4.64,4.64,0,0,0,2.91-1.33Z"/><path class="cls-2" d="M292.58,225.91a5.81,5.81,0,0,0-.15,1.1v0.12a0.92,0.92,0,0,0,.89,1h0.06a1.74,1.74,0,0,0,1.17-.63l0.38,0.35a3.31,3.31,0,0,1-2.51,1.2,1.52,1.52,0,0,1-1.52-1.52s0-.06,0-0.09a6.43,6.43,0,0,1,.15-1.27l1.17-6.64a3.48,3.48,0,0,0,.07-0.58c0-.73-0.52-0.77-1.2-0.87l0.08-.5a8.86,8.86,0,0,0,2.35-.6h0.65Z"/><path class="cls-2" d="M297.39,226.56a2.88,2.88,0,0,0-.07.55,0.86,0.86,0,0,0,.79.93h0.11a1.81,1.81,0,0,0,1.13-.57l0.38,0.33a3.21,3.21,0,0,1-2.38,1.15,1.5,1.5,0,0,1-1.56-1.63,4,4,0,0,1,.08-0.77l0.6-3.43a3.1,3.1,0,0,0,.08-0.57c0-.68-0.5-0.8-1.08-0.88h-0.12l0.08-.5,0.68-.08a10.44,10.44,0,0,0,1.75-.33h0.55ZM298,219.8a0.8,0.8,0,0,1-.77-0.83v0a1.22,1.22,0,0,1,1.15-1.15,0.79,0.79,0,0,1,.87.8A1.25,1.25,0,0,1,298,219.8h0Z"/><path class="cls-2" d="M307.31,227.39a6.93,6.93,0,0,1-4.1,1.56c-1.83,0-3.58-1.13-3.58-3.11a5.27,5.27,0,0,1,1.78-3.71,6.14,6.14,0,0,1,3.93-1.53c1.1,0,2.78.47,2.78,1.83,0,2.28-4.86,2.73-6.66,2.76a3.34,3.34,0,0,0-.12.82,2.13,2.13,0,0,0,2.08,2.18l0.33,0a5.62,5.62,0,0,0,3.16-1.24Zm-5.71-2.81c1.45,0,4.91-.32,4.91-2.16a1.32,1.32,0,0,0-1.4-1.23H305C303.27,221.2,302,223.13,301.6,224.58Z"/><path class="cls-2" d="M310.59,228.82h-1.51l1-5.78a3.83,3.83,0,0,0,.07-0.62c0-.65-0.55-0.75-1.15-0.78l0.08-.5,2.33-.38H312l-0.22,1.2a6.07,6.07,0,0,1,3.46-1.37,1.74,1.74,0,0,1,2,1.63,6.53,6.53,0,0,1-.12,1l-0.6,3.3a3.67,3.67,0,0,0-.08.73,0.89,0.89,0,0,0,.8.88,1.73,1.73,0,0,0,1.12-.57l0.33,0.37a3,3,0,0,1-2.23,1,1.48,1.48,0,0,1-1.55-1.41s0,0,0-.07h0a10.3,10.3,0,0,1,.23-1.6l0.47-2.65a5.94,5.94,0,0,0,.1-0.78,1.07,1.07,0,0,0-1.13-1h0a5.32,5.32,0,0,0-2.93,1.33Z"/><path class="cls-2" d="M322.35,220.77h2.35l-0.08.5h-2.36l-0.8,4.53a7.3,7.3,0,0,0-.17,1.35,0.94,0.94,0,0,0,1,1.1,2.52,2.52,0,0,0,1.61-.75l0.37,0.42a3.74,3.74,0,0,1-2.55,1c-0.9,0-2-.3-2-1.4a9.07,9.07,0,0,1,.2-1.48l0.85-4.81h-1.42l0.08-.5c2-.07,2.5-1.25,2.85-3h0.63Z"/><path class="cls-2" d="M331.91,224.68a1.81,1.81,0,0,1-1.18-1.65,2.22,2.22,0,0,1,1.08-1.8,4.16,4.16,0,0,1,2.3-.63,6.15,6.15,0,0,1,2.73.58,1.17,1.17,0,0,1,.77.9,0.66,0.66,0,0,1-.64.68h-0.08a1,1,0,0,1-.93-0.58,1.68,1.68,0,0,0-.68-0.68,2.24,2.24,0,0,0-1.13-.28,1.47,1.47,0,0,0-1.69,1.21v0.09a1.06,1.06,0,0,0,.55.93,9,9,0,0,0,1.63.58c1.12,0.35,2.6.72,2.6,2.15a2.56,2.56,0,0,1-1.35,2.11,5,5,0,0,1-2.6.67,5.89,5.89,0,0,1-2.8-.68,1.48,1.48,0,0,1-.9-1.08,0.77,0.77,0,0,1,.77-0.73c1.42,0,.9,1.83,3.1,1.83a2.55,2.55,0,0,0,1.43-.4,1.48,1.48,0,0,0,.68-1.13c0-.85-0.8-1.1-1.48-1.32Z"/><path class="cls-2" d="M346.25,227.39a6.93,6.93,0,0,1-4.1,1.56c-1.83,0-3.58-1.13-3.58-3.11a5.27,5.27,0,0,1,1.78-3.71,6.14,6.14,0,0,1,3.93-1.53c1.1,0,2.78.47,2.78,1.83,0,2.28-4.86,2.73-6.66,2.76a3.34,3.34,0,0,0-.12.82,2.13,2.13,0,0,0,2.12,2.14l0.31,0a5.62,5.62,0,0,0,3.13-1.25Zm-5.71-2.81c1.45,0,4.91-.32,4.91-2.16a1.32,1.32,0,0,0-1.4-1.23h-0.12C342.21,221.2,341,223.13,340.54,224.58Z"/><path class="cls-2" d="M350.75,221.8h0a4.15,4.15,0,0,1,2.66-1.23,0.9,0.9,0,0,1,1,.78,0.93,0.93,0,0,1-1,.88h-0.09c-0.65,0-.85-0.47-1.37-0.47-1.35,0-1.68,2-1.85,3l-0.7,4h-1.51l1-5.81a3.52,3.52,0,0,0,.08-0.58c0-.65-0.55-0.75-1.15-0.78l0.08-.5,2.33-.38h0.6Z"/><path class="cls-2" d="M356.67,226.33a3.67,3.67,0,0,0-.08.73,1,1,0,0,0,1.27,1,3.91,3.91,0,0,0,3.63-3.85c0-1.9-1.31-1.66-1.31-2.61a1,1,0,0,1,1-1,1.21,1.21,0,0,1,1,.73,3.6,3.6,0,0,1,.3,1.56c0,3-1.86,6.06-5.18,6.06-1.17,0-2.28-.33-2.28-1.68a6.58,6.58,0,0,1,.13-1.15l0.53-3a3.06,3.06,0,0,0,.07-0.57,0.74,0.74,0,0,0-.66-0.82H355l-0.42-.07,0.08-.5a10.88,10.88,0,0,0,2.43-.38h0.53Z"/><path class="cls-2" d="M365.62,226.56a2.88,2.88,0,0,0-.07.55,0.86,0.86,0,0,0,.79.93h0.11a1.81,1.81,0,0,0,1.13-.57L368,227.8a3.21,3.21,0,0,1-2.38,1.15,1.5,1.5,0,0,1-1.56-1.63,4,4,0,0,1,.08-0.77l0.6-3.43a3.1,3.1,0,0,0,.08-0.57c0-.68-0.5-0.8-1.08-0.88h-0.12l0.08-.5,0.68-.08a10.44,10.44,0,0,0,1.75-.33h0.55Zm0.58-6.76a0.8,0.8,0,0,1-.77-0.83v0a1.22,1.22,0,0,1,1.15-1.15,0.79,0.79,0,0,1,.87.8,1.25,1.25,0,0,1-1.24,1.22h0Z"/><path class="cls-2" d="M375,227.26a5.37,5.37,0,0,1-3.8,1.7,3.17,3.17,0,0,1-3.36-3q0-.14,0-0.29a5.19,5.19,0,0,1,5.06-5.09c1.07,0,2.55.55,2.55,1.81a0.93,0.93,0,0,1-.86,1h-0.07a0.58,0.58,0,0,1-.65-0.58v-0.45a1,1,0,0,0-1-1l-0.22,0c-2,0-3.13,2.9-3.13,4.53a2.14,2.14,0,0,0,2,2.26h0.14a4.64,4.64,0,0,0,2.91-1.33Z"/><path class="cls-2" d="M383.53,227.39a6.93,6.93,0,0,1-4.1,1.56c-1.83,0-3.58-1.13-3.58-3.11a5.27,5.27,0,0,1,1.78-3.71,6.14,6.14,0,0,1,3.93-1.53c1.1,0,2.78.47,2.78,1.83,0,2.28-4.86,2.73-6.66,2.76a3.34,3.34,0,0,0-.12.82,2.13,2.13,0,0,0,2.08,2.18l0.33,0a5.62,5.62,0,0,0,3.13-1.25Zm-5.71-2.81c1.45,0,4.91-.32,4.91-2.16a1.32,1.32,0,0,0-1.4-1.23h-0.12C379.49,221.2,378.24,223.13,377.82,224.58Z"/><path class="cls-2" d="M393.25,220.77h2.35l-0.08.5h-2.36l-0.8,4.53a7.3,7.3,0,0,0-.17,1.35,0.94,0.94,0,0,0,1,1.1,2.52,2.52,0,0,0,1.61-.75l0.37,0.42a3.74,3.74,0,0,1-2.55,1c-0.9,0-2-.3-2-1.4a9.07,9.07,0,0,1,.2-1.48l0.85-4.81h-1.42l0.08-.5c2-.07,2.5-1.25,2.85-3h0.62Z"/><path class="cls-2" d="M403.17,227.39a6.93,6.93,0,0,1-4.1,1.56c-1.83,0-3.58-1.13-3.58-3.11a5.27,5.27,0,0,1,1.78-3.71,6.14,6.14,0,0,1,3.93-1.53c1.1,0,2.78.47,2.78,1.83,0,2.28-4.86,2.73-6.66,2.76a3.34,3.34,0,0,0-.12.82,2.13,2.13,0,0,0,2.08,2.18l0.33,0a5.62,5.62,0,0,0,3.13-1.25Zm-5.71-2.81c1.45,0,4.91-.32,4.91-2.16a1.32,1.32,0,0,0-1.4-1.23h-0.12C399.13,221.2,397.91,223.13,397.46,224.58Z"/><path class="cls-2" d="M412.46,226.39a3.08,3.08,0,0,0-.1.68,0.91,0.91,0,0,0,.89.93h0a1.66,1.66,0,0,0,1.17-.62l0.38,0.35a3.31,3.31,0,0,1-2.38,1.22,1.62,1.62,0,0,1-1.64-1.82v-0.22h0a3.93,3.93,0,0,1-3.33,2,2.83,2.83,0,0,1-2.86-3.13c0-2.56,2-5.23,4.71-5.23a3.38,3.38,0,0,1,2.46,1l0.15-.82h1.53Zm-2.76-5c-2.25,0-3.45,3-3.45,4.86a1.66,1.66,0,0,0,1.37,1.91l0.21,0c1.28,0,2.35-1.22,2.85-2.28a15.85,15.85,0,0,0,1-3.61,2.46,2.46,0,0,0-2-.91h0Z"/><path class="cls-2" d="M416.27,223.13a3.82,3.82,0,0,0,.07-0.62,0.74,0.74,0,0,0-.71-0.77h-0.06l-0.38-.07,0.1-.5a14.07,14.07,0,0,0,2.35-.38h0.58l-0.15.87a5.44,5.44,0,0,1,3-1,2,2,0,0,1,2,1.2,5.24,5.24,0,0,1,3.11-1.2,1.75,1.75,0,0,1,2,1.48q0,0.08,0,.15a7.75,7.75,0,0,1-.12,1.07l-0.57,3.13a4.89,4.89,0,0,0-.1.85,0.8,0.8,0,0,0,.78.82h0a1.58,1.58,0,0,0,1-.45l0.32,0.42a3.16,3.16,0,0,1-2.08.9,1.46,1.46,0,0,1-1.58-1.56v-0.08a7.79,7.79,0,0,1,.12-1l0.57-3.2a3.06,3.06,0,0,0,.07-0.57,1,1,0,0,0-1-1h-0.18a5,5,0,0,0-2.4.92l-1.1,6.28H420.4l0.92-5.18c0-.32.15-0.88,0.17-1.2h0a1,1,0,0,0-1-1h-0.18a4.82,4.82,0,0,0-2.43.93l-1.15,6.44h-1.51Z"/><path class="cls-2" d="M93.1,251.3a5.37,5.37,0,0,1-3.8,1.7,3.17,3.17,0,0,1-3.39-3.27A5.19,5.19,0,0,1,91,244.64c1.07,0,2.55.55,2.55,1.81a0.93,0.93,0,0,1-.86,1H92.59a0.58,0.58,0,0,1-.65-0.58v-0.45a1,1,0,0,0-1-1l-0.22,0c-2,0-3.13,2.9-3.13,4.53a2.14,2.14,0,0,0,2,2.26h0.14a4.64,4.64,0,0,0,2.91-1.33Z"/><path class="cls-2" d="M101.91,250.43a3.08,3.08,0,0,0-.1.68,0.91,0.91,0,0,0,.89.93h0a1.66,1.66,0,0,0,1.17-.62l0.38,0.35A3.31,3.31,0,0,1,101.9,253a1.62,1.62,0,0,1-1.63-1.78V251h0a3.93,3.93,0,0,1-3.33,2,2.83,2.83,0,0,1-2.86-3.13c0-2.56,2-5.23,4.71-5.23a3.38,3.38,0,0,1,2.46,1l0.15-.82h1.51Zm-2.76-5c-2.25,0-3.45,3-3.45,4.86a1.66,1.66,0,0,0,1.37,1.91l0.21,0c1.28,0,2.35-1.22,2.85-2.28a15.85,15.85,0,0,0,1-3.61,2.46,2.46,0,0,0-2-.91h0Z"/><path class="cls-2" d="M106.21,252.86H104.7l1-5.78a3.83,3.83,0,0,0,.07-0.62c0-.65-0.55-0.75-1.15-0.78l0.08-.5,2.33-.38h0.6l-0.22,1.2a6.07,6.07,0,0,1,3.46-1.37,1.74,1.74,0,0,1,2,1.63,6.53,6.53,0,0,1-.12,1l-0.6,3.3a3.67,3.67,0,0,0-.08.73,0.89,0.89,0,0,0,.8.88,1.73,1.73,0,0,0,1.12-.57l0.33,0.37a3,3,0,0,1-2.23,1,1.48,1.48,0,0,1-1.55-1.41s0,0,0-.07h0a10.3,10.3,0,0,1,.23-1.6l0.47-2.65a5.94,5.94,0,0,0,.1-0.78,1.07,1.07,0,0,0-1.13-1h0a5.32,5.32,0,0,0-2.93,1.33Z"/><path class="cls-2" d="M122.67,247h0a3.8,3.8,0,0,1,3.4-2.35,2.69,2.69,0,0,1,2.7,3v0.17a5.69,5.69,0,0,1-1.27,3.5,4.48,4.48,0,0,1-3.31,1.7,3.3,3.3,0,0,1-2.43-1l-0.43,2.5a3.29,3.29,0,0,0-.07.57c0,0.73.53,0.82,1.28,0.88l-0.08.5H118l0.08-.5c1.4-.08,1.55-0.68,1.75-1.83l1.22-7a3.33,3.33,0,0,0,.08-0.57,0.72,0.72,0,0,0-.61-0.81h-0.12l-0.4-.07,0.08-.5,2.38-.28H123Zm-0.76,4.35a2.44,2.44,0,0,0,1.91.92c2.26,0,3.26-3,3.26-4.88,0-1-.33-1.88-1.42-1.88a3.37,3.37,0,0,0-2.61,2,12.56,12.56,0,0,0-1,3.43Z"/><path class="cls-2" d="M132.73,245.84h0a4.15,4.15,0,0,1,2.66-1.23,0.9,0.9,0,0,1,1,.78,0.93,0.93,0,0,1-1,.88h-0.09c-0.65,0-.85-0.47-1.37-0.47-1.35,0-1.68,2-1.85,3l-0.7,4h-1.51l1-5.81a3.52,3.52,0,0,0,.08-0.58c0-.65-0.55-0.75-1.15-0.78l0.08-.5,2.33-.38h0.68Z"/><path class="cls-2" d="M139.72,253a3.23,3.23,0,0,1-3.51-3.4,5.27,5.27,0,0,1,1.4-3.43,4.61,4.61,0,0,1,3.56-1.53,3.26,3.26,0,0,1,3.48,3.43,4.91,4.91,0,0,1-4.89,4.93h0Zm0.08-.78a2.64,2.64,0,0,0,2.46-1.65,7.59,7.59,0,0,0,.67-2.9,2.74,2.74,0,0,0-.52-1.78,2,2,0,0,0-1.38-.47c-2.25,0-3.11,2.83-3.11,4.64,0,1.27.51,2.15,1.88,2.15h0Z"/><path class="cls-2" d="M147.64,250.37a3.67,3.67,0,0,0-.08.73,1,1,0,0,0,1.27,1,3.91,3.91,0,0,0,3.63-3.85c0-1.9-1.31-1.66-1.31-2.61a1,1,0,0,1,1-1,1.21,1.21,0,0,1,1,.73,3.6,3.6,0,0,1,.3,1.56c0,3-1.86,6.06-5.18,6.06-1.17,0-2.28-.33-2.28-1.68a6.58,6.58,0,0,1,.13-1.15l0.53-3a3.07,3.07,0,0,0,.07-0.57,0.74,0.74,0,0,0-.66-0.82H146l-0.42-.07,0.08-.5a10.88,10.88,0,0,0,2.43-.38h0.53Z"/><path class="cls-2" d="M156.59,250.6a2.89,2.89,0,0,0-.07.55,0.86,0.86,0,0,0,.79.93h0.11a1.81,1.81,0,0,0,1.13-.57l0.38,0.33a3.21,3.21,0,0,1-2.38,1.15,1.5,1.5,0,0,1-1.56-1.63,4,4,0,0,1,.08-0.77l0.6-3.43a3.1,3.1,0,0,0,.08-0.57c0-.68-0.5-0.8-1.08-0.88h-0.12l0.08-.5,0.68-.08a10.44,10.44,0,0,0,1.75-.33h0.55Zm0.58-6.76a0.8,0.8,0,0,1-.77-0.83v0a1.22,1.22,0,0,1,1.15-1.15,0.79,0.79,0,0,1,.87.8A1.25,1.25,0,0,1,157.17,243.84Z"/><path class="cls-2" d="M169.33,251.82a3.48,3.48,0,0,1-2.46,1.18,1.53,1.53,0,0,1-1.63-1.43s0-.07,0-0.1v-0.63a4.25,4.25,0,0,1-3.55,2.16c-1.9,0-2.9-1.4-2.9-3.18a5.75,5.75,0,0,1,1.4-3.61,4.63,4.63,0,0,1,3.46-1.56,3.65,3.65,0,0,1,2.53,1l0.38-2.18a3.52,3.52,0,0,0,.08-0.58c0-.72-0.58-0.8-1.18-0.87h-0.17l0.1-.5a7.24,7.24,0,0,0,2.43-.6h0.7l-1.6,9.07a7.37,7.37,0,0,0-.15,1.22,0.81,0.81,0,0,0,.73.88h0.14a1.62,1.62,0,0,0,1.23-.62Zm-3.26-5.43a2.5,2.5,0,0,0-2-1c-2.4,0-3.51,3-3.51,4.94a1.59,1.59,0,0,0,1.31,1.83l0.3,0a3.6,3.6,0,0,0,2.8-2,12.09,12.09,0,0,0,1-3.46Z"/><path class="cls-2" d="M177.16,251.43a6.93,6.93,0,0,1-4.1,1.56c-1.83,0-3.58-1.13-3.58-3.11a5.27,5.27,0,0,1,1.78-3.71,6.14,6.14,0,0,1,3.93-1.53c1.1,0,2.78.47,2.78,1.83,0,2.28-4.86,2.73-6.66,2.76a3.34,3.34,0,0,0-.12.82,2.13,2.13,0,0,0,2.08,2.18l0.33,0a5.62,5.62,0,0,0,3.13-1.25Zm-5.71-2.81c1.45,0,4.91-.32,4.91-2.16a1.32,1.32,0,0,0-1.4-1.23h-0.12C173.12,245.24,171.91,247.13,171.45,248.62Z"/><path class="cls-2" d="M190.63,251.3a5.37,5.37,0,0,1-3.8,1.7,3.17,3.17,0,0,1-3.36-3q0-.14,0-0.29a5.19,5.19,0,0,1,5.06-5.09c1.07,0,2.55.55,2.55,1.81a0.93,0.93,0,0,1-.86,1h-0.07a0.58,0.58,0,0,1-.65-0.58v-0.45a1,1,0,0,0-1-1l-0.22,0c-2,0-3.13,2.9-3.13,4.53a2.14,2.14,0,0,0,2,2.26h0.14a4.64,4.64,0,0,0,2.91-1.33Z"/><path class="cls-2" d="M195,253a3.23,3.23,0,0,1-3.51-3.4,5.27,5.27,0,0,1,1.4-3.43,4.61,4.61,0,0,1,3.56-1.53,3.26,3.26,0,0,1,3.48,3.43A4.91,4.91,0,0,1,195,253h0Zm0.08-.78a2.64,2.64,0,0,0,2.46-1.65,7.59,7.59,0,0,0,.67-2.9,2.74,2.74,0,0,0-.52-1.78,2,2,0,0,0-1.38-.47c-2.25,0-3.11,2.83-3.11,4.64,0,1.27.52,2.15,1.88,2.15h0Z"/><path class="cls-2" d="M201.91,247.13a3.83,3.83,0,0,0,.07-0.62,0.74,0.74,0,0,0-.71-0.77h-0.06l-0.38-.07,0.1-.5a14.07,14.07,0,0,0,2.35-.38h0.58l-0.15.87a5.44,5.44,0,0,1,3-1,2,2,0,0,1,2,1.2,5.24,5.24,0,0,1,3.11-1.2,1.75,1.75,0,0,1,2,1.48q0,0.08,0,.15a7.75,7.75,0,0,1-.12,1.07l-0.57,3.13a4.89,4.89,0,0,0-.1.85,0.8,0.8,0,0,0,.78.82h0a1.58,1.58,0,0,0,1-.45l0.41,0.42a3.17,3.17,0,0,1-2.08.9,1.46,1.46,0,0,1-1.58-1.56v-0.08a7.79,7.79,0,0,1,.12-1l0.57-3.2a3.06,3.06,0,0,0,.07-0.57,1,1,0,0,0-1-1h-0.18a5,5,0,0,0-2.4.92L207.59,253h-1.51L207,247.8c0-.32.15-0.88,0.17-1.2h0a1,1,0,0,0-1-1H206a4.82,4.82,0,0,0-2.43.93L202.42,253h-1.51Z"/><path class="cls-2" d="M218.2,247h0a3.8,3.8,0,0,1,3.4-2.35,2.69,2.69,0,0,1,2.7,3v0.17a5.69,5.69,0,0,1-1.27,3.5,4.48,4.48,0,0,1-3.31,1.7,3.3,3.3,0,0,1-2.43-1l-0.43,2.5a3.29,3.29,0,0,0-.07.57c0,0.73.53,0.82,1.28,0.88l-0.08.5h-4.38l0.08-.5c1.4-.08,1.55-0.68,1.75-1.83l1.22-7a3.33,3.33,0,0,0,.08-0.57,0.72,0.72,0,0,0-.61-0.81H216l-0.4-.07,0.08-.5,2.38-.28h0.52Zm-0.77,4.34a2.44,2.44,0,0,0,1.91.92c2.26,0,3.26-3,3.26-4.88,0-1-.33-1.88-1.42-1.88a3.37,3.37,0,0,0-2.61,2,12.56,12.56,0,0,0-1,3.43Z"/><path class="cls-2" d="M227.34,250a5.81,5.81,0,0,0-.15,1.1v0.08a0.92,0.92,0,0,0,.89,1h0.06a1.74,1.74,0,0,0,1.17-.63l0.38,0.35a3.31,3.31,0,0,1-2.51,1.2,1.52,1.52,0,0,1-1.52-1.52s0-.06,0-0.09a6.43,6.43,0,0,1,.15-1.27l1.17-6.64a3.48,3.48,0,0,0,.07-0.58c0-.73-0.52-0.77-1.2-0.87l0.08-.5a8.86,8.86,0,0,0,2.35-.6h0.63Z"/><path class="cls-2" d="M237.41,251.43a6.93,6.93,0,0,1-4.1,1.56c-1.83,0-3.58-1.13-3.58-3.11a5.27,5.27,0,0,1,1.78-3.71,6.14,6.14,0,0,1,3.93-1.53c1.1,0,2.78.47,2.78,1.83,0,2.28-4.86,2.73-6.66,2.76a3.34,3.34,0,0,0-.12.82,2.13,2.13,0,0,0,2.08,2.18l0.33,0A5.62,5.62,0,0,0,237,251Zm-5.71-2.81c1.45,0,4.91-.32,4.91-2.16a1.32,1.32,0,0,0-1.4-1.23h-0.12C233.37,245.24,232.12,247.13,231.7,248.62Z"/><path class="cls-2" d="M242.14,244.81h2.35l-0.08.5H242l-0.8,4.53a7.3,7.3,0,0,0-.17,1.35,0.94,0.94,0,0,0,1,1.1,2.52,2.52,0,0,0,1.61-.75l0.37,0.42a3.74,3.74,0,0,1-2.55,1c-0.9,0-2-.3-2-1.4a9.07,9.07,0,0,1,.2-1.48l0.85-4.81h-1.45l0.08-.5c2-.07,2.5-1.25,2.85-3h0.62Z"/><path class="cls-2" d="M252.06,251.43A6.93,6.93,0,0,1,248,253c-1.83,0-3.58-1.13-3.58-3.11a5.27,5.27,0,0,1,1.78-3.71,6.14,6.14,0,0,1,3.93-1.53c1.1,0,2.78.47,2.78,1.83,0,2.28-4.86,2.73-6.66,2.76a3.34,3.34,0,0,0-.12.82,2.13,2.13,0,0,0,2.08,2.18l0.33,0a5.62,5.62,0,0,0,3.13-1.25Zm-5.71-2.81c1.45,0,4.91-.32,4.91-2.16a1.32,1.32,0,0,0-1.4-1.23h-0.12C248,245.24,246.76,247.13,246.35,248.62Z"/><path class="cls-2" d="M266.34,250.43a3.08,3.08,0,0,0-.1.68,0.91,0.91,0,0,0,.89.93h0a1.66,1.66,0,0,0,1.17-.62l0.38,0.35a3.31,3.31,0,0,1-2.38,1.22,1.62,1.62,0,0,1-1.63-1.78V251h0a3.93,3.93,0,0,1-3.33,2,2.83,2.83,0,0,1-2.86-3.13c0-2.56,2-5.23,4.71-5.23a3.38,3.38,0,0,1,2.46,1l0.15-.82h1.53Zm-2.76-5c-2.25,0-3.45,3-3.45,4.86a1.66,1.66,0,0,0,1.37,1.91l0.21,0c1.28,0,2.35-1.22,2.85-2.28a15.85,15.85,0,0,0,1-3.61,2.46,2.46,0,0,0-2-.91h0Z"/><path class="cls-2" d="M275.84,251.3A5.37,5.37,0,0,1,272,253a3.17,3.17,0,0,1-3.36-3q0-.14,0-0.29a5.19,5.19,0,0,1,5.06-5.09c1.07,0,2.55.55,2.55,1.81a0.93,0.93,0,0,1-.86,1h-0.07a0.58,0.58,0,0,1-.65-0.58v-0.45a1,1,0,0,0-1-1l-0.22,0c-2,0-3.13,2.9-3.13,4.53a2.14,2.14,0,0,0,2,2.26h0.14a4.64,4.64,0,0,0,2.91-1.33Z"/><path class="cls-2" d="M283.83,251.3A5.37,5.37,0,0,1,280,253a3.17,3.17,0,0,1-3.36-3q0-.14,0-0.29a5.19,5.19,0,0,1,5.06-5.09c1.07,0,2.55.55,2.55,1.81a0.93,0.93,0,0,1-.86,1h-0.07a0.58,0.58,0,0,1-.65-0.58v-0.45a1,1,0,0,0-1-1l-0.22,0c-2,0-3.13,2.9-3.13,4.53a2.14,2.14,0,0,0,2,2.26h0.14a4.64,4.64,0,0,0,2.91-1.33Z"/><path class="cls-2" d="M288.17,253a3.23,3.23,0,0,1-3.51-3.4,5.27,5.27,0,0,1,1.4-3.43,4.61,4.61,0,0,1,3.56-1.53,3.26,3.26,0,0,1,3.48,3.43,4.91,4.91,0,0,1-4.89,4.93h0Zm0.08-.78a2.64,2.64,0,0,0,2.46-1.65,7.59,7.59,0,0,0,.67-2.9,2.74,2.74,0,0,0-.52-1.78,2,2,0,0,0-1.38-.47c-2.25,0-3.11,2.83-3.11,4.64,0,1.27.54,2.15,1.88,2.15h0Z"/><path class="cls-2" d="M301.7,250.13a8,8,0,0,0-.13,1.08,0.88,0.88,0,0,0,.84.92h0a1.67,1.67,0,0,0,1.15-.6l0.4,0.33a3.17,3.17,0,0,1-2.35,1.18,1.57,1.57,0,0,1-1.68-1.46v-0.06a5.57,5.57,0,0,1-3.61,1.52,1.64,1.64,0,0,1-1.91-1.6,6.58,6.58,0,0,1,.13-1.13l0.53-3.08a2.59,2.59,0,0,0,.08-0.62,0.74,0.74,0,0,0-.71-0.77h-0.06l-0.38-.07,0.08-.5,2.33-.43H297l-1,5.48a3.8,3.8,0,0,0-.08.75v0.06a1,1,0,0,0,1,1h0.1a5.28,5.28,0,0,0,3-1.32l1.08-6h1.52Z"/><path class="cls-2" d="M305.91,252.86h-1.5l1-5.78a3.83,3.83,0,0,0,.07-0.62c0-.65-0.55-0.75-1.15-0.78l0.08-.5,2.33-.38h0.6l-0.22,1.2a6.07,6.07,0,0,1,3.46-1.37,1.74,1.74,0,0,1,2,1.63,6.53,6.53,0,0,1-.12,1l-0.6,3.3a3.67,3.67,0,0,0-.08.73,0.89,0.89,0,0,0,.8.88,1.73,1.73,0,0,0,1.12-.57L314,252a3,3,0,0,1-2.23,1,1.48,1.48,0,0,1-1.55-1.41s0,0,0-.07h0a10.3,10.3,0,0,1,.23-1.6l0.47-2.65a5.94,5.94,0,0,0,.1-0.78,1.07,1.07,0,0,0-1.13-1h0a5.32,5.32,0,0,0-2.93,1.33Z"/><path class="cls-2" d="M317.69,244.81H320l-0.08.5H317.6l-0.8,4.53a7.3,7.3,0,0,0-.17,1.35,0.94,0.94,0,0,0,1,1.1,2.52,2.52,0,0,0,1.61-.75l0.37,0.42a3.74,3.74,0,0,1-2.55,1c-0.9,0-2-.3-2-1.4a9.07,9.07,0,0,1,.2-1.48l0.85-4.81h-1.42l0.08-.5c2-.07,2.5-1.25,2.85-3h0.62Z"/><path class="cls-2" d="M322.35,250.6a2.89,2.89,0,0,0-.07.55,0.86,0.86,0,0,0,.79.93h0.11a1.81,1.81,0,0,0,1.13-.57l0.38,0.33a3.21,3.21,0,0,1-2.38,1.15,1.5,1.5,0,0,1-1.56-1.63,4,4,0,0,1,.08-0.77l0.6-3.43a3.1,3.1,0,0,0,.08-0.57c0-.68-0.5-0.8-1.08-0.88h-0.12l0.08-.5,0.68-.08a10.44,10.44,0,0,0,1.75-.33h0.55Zm0.58-6.76a0.8,0.8,0,0,1-.77-0.83v0a1.22,1.22,0,0,1,1.15-1.15,0.79,0.79,0,0,1,.87.8,1.25,1.25,0,0,1-1.27,1.22h0Z"/><path class="cls-2" d="M326.56,252.86H325l1-5.78a3.83,3.83,0,0,0,.07-0.62c0-.65-0.55-0.75-1.15-0.78l0.08-.5,2.33-.38H328l-0.22,1.2a6.07,6.07,0,0,1,3.46-1.37,1.74,1.74,0,0,1,2,1.63,6.53,6.53,0,0,1-.12,1l-0.6,3.3a3.67,3.67,0,0,0-.08.73,0.89,0.89,0,0,0,.8.88,1.73,1.73,0,0,0,1.12-.57l0.33,0.37a3,3,0,0,1-2.23,1,1.48,1.48,0,0,1-1.55-1.41s0,0,0-.07h0a10.3,10.3,0,0,1,.23-1.6l0.47-2.65a5.94,5.94,0,0,0,.1-0.78,1.07,1.07,0,0,0-1.13-1h0a5.32,5.32,0,0,0-2.93,1.33Z"/><path class="cls-2" d="M342.24,252c-0.23,1.33-.4,2.43-1.51,3.35a5.73,5.73,0,0,1-3.63,1.23,5.09,5.09,0,0,1-2.38-.48,1.15,1.15,0,0,1-.81-0.93,0.88,0.88,0,0,1,.92-0.8,0.84,0.84,0,0,1,.87.53,2,2,0,0,0,.43.63,1.87,1.87,0,0,0,1.22.4,3,3,0,0,0,2.21-1,4.66,4.66,0,0,0,1.08-2.48l0.28-1.5h0a3.86,3.86,0,0,1-3.26,2.08,2.78,2.78,0,0,1-2.75-3.08c0-2.56,1.86-5.28,4.59-5.28a3.08,3.08,0,0,1,2.33,1l0.37-.87h1.35Zm-0.57-5.58a2.37,2.37,0,0,0-1.91-1c-2.18,0-3.18,3-3.18,4.83,0,1,.25,2,1.4,2a3.45,3.45,0,0,0,2.65-2,12.19,12.19,0,0,0,1-3.5Z"/><path class="cls-2" d="M351.56,248.72a1.81,1.81,0,0,1-1.18-1.65,2.22,2.22,0,0,1,1.08-1.8,4.16,4.16,0,0,1,2.3-.63,6.15,6.15,0,0,1,2.73.58,1.17,1.17,0,0,1,.77.9,0.66,0.66,0,0,1-.64.68h-0.08a1,1,0,0,1-.93-0.58,1.68,1.68,0,0,0-.68-0.68,2.24,2.24,0,0,0-1.13-.28,1.47,1.47,0,0,0-1.69,1.21v0.09a1.06,1.06,0,0,0,.55.93,9,9,0,0,0,1.63.58c1.12,0.35,2.6.72,2.6,2.15a2.56,2.56,0,0,1-1.35,2.11,5,5,0,0,1-2.6.67,5.89,5.89,0,0,1-2.8-.68,1.48,1.48,0,0,1-.9-1.08,0.77,0.77,0,0,1,.77-0.73c1.42,0,.9,1.83,3.1,1.83a2.55,2.55,0,0,0,1.43-.4,1.48,1.48,0,0,0,.68-1.13c0-.85-0.8-1.1-1.48-1.32Z"/><path class="cls-2" d="M365.91,251.43a6.93,6.93,0,0,1-4.1,1.56c-1.83,0-3.58-1.13-3.58-3.11a5.27,5.27,0,0,1,1.78-3.71,6.14,6.14,0,0,1,3.93-1.53c1.1,0,2.78.47,2.78,1.83,0,2.28-4.86,2.73-6.66,2.76a3.34,3.34,0,0,0-.12.82,2.13,2.13,0,0,0,2.08,2.18l0.33,0a5.62,5.62,0,0,0,3.13-1.25Zm-5.71-2.81c1.45,0,4.91-.32,4.91-2.16a1.32,1.32,0,0,0-1.4-1.23h-0.12c-1.74,0-3,1.89-3.41,3.38h0Z"/><path class="cls-2" d="M370.38,245.84h0a4.15,4.15,0,0,1,2.66-1.23,0.9,0.9,0,0,1,1,.78,0.93,0.93,0,0,1-1,.88H373c-0.65,0-.85-0.47-1.37-0.47-1.35,0-1.68,2-1.85,3l-0.7,4h-1.51l1-5.81a3.52,3.52,0,0,0,.08-0.58c0-.65-0.55-0.75-1.15-0.78l0.08-.5,2.33-.38h0.6Z"/><path class="cls-2" d="M376.31,250.37a3.67,3.67,0,0,0-.08.73,1,1,0,0,0,1.27,1,3.91,3.91,0,0,0,3.63-3.85c0-1.9-1.31-1.66-1.31-2.61a1,1,0,0,1,1-1,1.21,1.21,0,0,1,1,.73,3.6,3.6,0,0,1,.3,1.56c0,3-1.86,6.06-5.18,6.06-1.17,0-2.28-.33-2.28-1.68a6.58,6.58,0,0,1,.13-1.15l0.53-3a3.07,3.07,0,0,0,.07-0.57,0.74,0.74,0,0,0-.66-0.82h-0.09l-0.42-.07,0.08-.5a10.88,10.88,0,0,0,2.43-.38h0.53Z"/><path class="cls-2" d="M385.26,250.6a2.89,2.89,0,0,0-.07.55,0.86,0.86,0,0,0,.79.93h0.11a1.81,1.81,0,0,0,1.13-.57l0.38,0.33a3.21,3.21,0,0,1-2.38,1.15,1.5,1.5,0,0,1-1.56-1.63,4,4,0,0,1,.08-0.77l0.6-3.43a3.1,3.1,0,0,0,.08-0.57c0-.68-0.5-0.8-1.08-0.88h-0.12l0.08-.5,0.68-.08a10.44,10.44,0,0,0,1.75-.33h0.55Zm0.58-6.76a0.8,0.8,0,0,1-.77-0.83v0a1.22,1.22,0,0,1,1.15-1.15,0.79,0.79,0,0,1,.87.8,1.25,1.25,0,0,1-1.24,1.22h0Z"/><path class="cls-2" d="M394.67,251.3a5.37,5.37,0,0,1-3.8,1.7,3.17,3.17,0,0,1-3.36-3q0-.14,0-0.29a5.19,5.19,0,0,1,5.06-5.09c1.07,0,2.55.55,2.55,1.81a0.93,0.93,0,0,1-.86,1h-0.07a0.58,0.58,0,0,1-.65-0.58v-0.45a1,1,0,0,0-1-1l-0.22,0c-2,0-3.13,2.9-3.13,4.53a2.14,2.14,0,0,0,2,2.26h0.14a4.64,4.64,0,0,0,2.91-1.33Z"/><path class="cls-2" d="M403.17,251.43a6.93,6.93,0,0,1-4.1,1.56c-1.83,0-3.58-1.13-3.58-3.11a5.27,5.27,0,0,1,1.78-3.71,6.14,6.14,0,0,1,3.93-1.53c1.1,0,2.78.47,2.78,1.83,0,2.28-4.86,2.73-6.66,2.76a3.34,3.34,0,0,0-.12.82,2.13,2.13,0,0,0,2.08,2.18l0.33,0a5.62,5.62,0,0,0,3.13-1.25Zm-5.71-2.81c1.45,0,4.91-.32,4.91-2.16a1.32,1.32,0,0,0-1.4-1.23h-0.12C399.13,245.24,397.91,247.13,397.46,248.62Z"/><path class="cls-2" d="M406.81,248.72a1.81,1.81,0,0,1-1.18-1.65,2.22,2.22,0,0,1,1.08-1.8,4.16,4.16,0,0,1,2.3-.63,6.15,6.15,0,0,1,2.73.58,1.17,1.17,0,0,1,.77.9,0.66,0.66,0,0,1-.64.68h-0.08a1,1,0,0,1-.93-0.58,1.68,1.68,0,0,0-.68-0.68,2.24,2.24,0,0,0-1.13-.28,1.47,1.47,0,0,0-1.69,1.21v0.09a1.06,1.06,0,0,0,.55.93,9,9,0,0,0,1.63.58c1.12,0.35,2.6.72,2.6,2.15a2.56,2.56,0,0,1-1.35,2.11,5,5,0,0,1-2.6.67,5.89,5.89,0,0,1-2.8-.68,1.48,1.48,0,0,1-.9-1.08,0.77,0.77,0,0,1,.77-0.73c1.42,0,.9,1.83,3.1,1.83a2.55,2.55,0,0,0,1.43-.4,1.48,1.48,0,0,0,.68-1.13c0-.85-0.8-1.1-1.48-1.32Z"/><path class="cls-2" d="M414,252.13a1.35,1.35,0,0,1,1.31-1.33,0.92,0.92,0,0,1,.93,1,1.35,1.35,0,0,1-1.33,1.28A0.86,0.86,0,0,1,414,252.13Z"/><path class="cls-3" d="M219.14,112.53a8.45,8.45,0,1,1,0,16.87,9.63,9.63,0,0,1-1.24-.08,10.2,10.2,0,0,0,6.28,2,9.31,9.31,0,0,0,6-2.51,9.53,9.53,0,0,1-8.24,6,9.51,9.51,0,0,1-6,8.23,9.15,9.15,0,0,0,2.51-6,10.13,10.13,0,0,0-2-6.27c0,0.41.08,0.82,0.08,1.21a8.46,8.46,0,0,1-16.9.82q0-.41,0-0.82a9.4,9.4,0,0,1,.09-1.21,9.9,9.9,0,0,0-2,6.27,9.17,9.17,0,0,0,2.48,6,9.53,9.53,0,0,1-4.76-4.08,9.3,9.3,0,0,1-1.18-3.5,1.7,1.7,0,0,0,0-.5c0-.16,0-0.14-0.08-0.17h-0.22a6.47,6.47,0,0,1-.87-0.11,8.54,8.54,0,0,1-1.77-.53,9.4,9.4,0,0,1-5.3-5.33,9.32,9.32,0,0,0,6,2.51,10.25,10.25,0,0,0,6.26-2c-0.38,0-.82.06-1.24,0.06a8.45,8.45,0,1,1,0-16.87,9.15,9.15,0,0,1,1.24.08,10,10,0,0,0-6.26-2,9.26,9.26,0,0,0-6,2.48A9.54,9.54,0,0,1,190,108.3a9.86,9.86,0,0,1,3.5-1.17,2.43,2.43,0,0,0,.51-0.05c0.12,0,.16.05,0.16-0.07a1.12,1.12,0,0,1,0-.2,7.12,7.12,0,0,1,.13-0.91,9,9,0,0,1,.51-1.76,9.44,9.44,0,0,1,5.35-5.29,9.19,9.19,0,0,0-2.48,6,9.9,9.9,0,0,0,2,6.25,9.53,9.53,0,0,1-.09-1.24,8.45,8.45,0,1,1,16.79,1.25,9.92,9.92,0,0,0,2-6.27,9.17,9.17,0,0,0-2.51-6,9.45,9.45,0,0,1,4.78,4.08,9.26,9.26,0,0,1,1.17,3.52,3.1,3.1,0,0,1,.06.49c0,0.11,0,.15.09,0.15h0.21a6.41,6.41,0,0,1,.88.11,9.73,9.73,0,0,1,1.77.5,9.6,9.6,0,0,1,5.3,5.35,9.26,9.26,0,0,0-6-2.48,9.8,9.8,0,0,0-6.24,2,8.77,8.77,0,0,1,1.2-.08m-42.83,40.18h63.54V89.16H176.32v63.5h0Zm38.94-33.72a3.67,3.67,0,1,1-1.93-6.2,6.78,6.78,0,0,0,.28-1.81,5.79,5.79,0,0,0-5.53-6,4.05,4.05,0,0,0-1,.11,0.41,0.41,0,0,0-.17,0l-0.27.06-0.25.11-0.19.06a1.32,1.32,0,0,0-.27.11l-0.41.2a0.15,0.15,0,0,1-.07.07,6.09,6.09,0,0,0-2.81,5.26,6.83,6.83,0,0,0,.24,1.8,3.57,3.57,0,0,1,3.23,1,3.66,3.66,0,1,1-6.19,1.94,6,6,0,0,0-1.78-.25,6.22,6.22,0,0,0-5,2.35,2,2,0,0,0-.15.24,0.71,0.71,0,0,0-.11.16,1,1,0,0,1-.16.27,0.65,0.65,0,0,0-.1.17,1.14,1.14,0,0,1-.13.28,1.35,1.35,0,0,0-.08.24,0.91,0.91,0,0,1-.08.19,5.31,5.31,0,0,0-.26,1.58,5.81,5.81,0,0,0,6,5.52,6.37,6.37,0,0,0,1.81-.26,3.66,3.66,0,1,1,2.93,2.93,6.78,6.78,0,0,0-.26,1.81,5.53,5.53,0,1,0,11,0,7,7,0,0,0-.25-1.79,3.66,3.66,0,1,1,1.91-6.19,3.56,3.56,0,0,1,1,3.23,6.27,6.27,0,0,0,1.8.25,5.78,5.78,0,0,0,6-5.5,4.33,4.33,0,0,0-.11-1.05v-0.15a2.23,2.23,0,0,0-.1-0.32,0.31,0.31,0,0,0,0-.17,6,6,0,0,0-5.73-3.82,6.3,6.3,0,0,0-1.82.26,3.64,3.64,0,0,1-1,3.28"/><path class="cls-2" d="M309.8,109.55c-3.72,0-5.42-1.72-5.42-3.09a1.66,1.66,0,0,1,1.64-1.68h0.08c2.67,0,1.37,2.84,4.32,2.84a2.12,2.12,0,0,0,2.4-2.06c0-.83-0.4-1.28-2.31-1.86l-1.52-.47c-2.53-.78-3-1.95-3-3.27,0-2.62,2.44-4.66,6.09-4.84l0.4-2.6h1.43l-0.4,2.61c2.69,0.25,4.52,1.5,4.52,3.11a1.44,1.44,0,0,1-1.44,1.44h-0.2c-1.9,0-1.57-2.62-3.56-2.62-1.39,0-2.4.6-2.4,1.66,0,0.76.52,1.16,1.68,1.5l2.55,0.72c2.35,0.67,3.11,1.66,3.11,3.45,0,3-3.36,5-6.5,5.13l-0.44,2.62h-1.48Z"/><rect class="cls-4" x="261.01" y="81.56" width="29.73" height="79.15"/><rect class="cls-3" x="296.18" y="117.76" width="29.73" height="42.96"/></svg>