<?xml version="1.0" encoding="utf-8"?>
<!-- Generator: Adobe Illustrator 20.1.0, SVG Export Plug-In . SVG Version: 6.00 Build 0)  -->
<svg version="1.1" id="Layer_1" xmlns="http://www.w3.org/2000/svg" xmlns:xlink="http://www.w3.org/1999/xlink" x="0px" y="0px"
	 viewBox="0 0 1050 140" style="enable-background:new 0 0 1050 140;" xml:space="preserve">
<style type="text/css">
	.st0{fill:#FFFFFF;}
	.st1{fill:#65666A;}
	.st2{fill:#82BC41;}
	.st3{fill:#FFFFFF;stroke:#65666B;stroke-width:1.55;stroke-linejoin:round;}
	.st4{fill:none;stroke:#65666B;stroke-width:1.38;stroke-miterlimit:10;}
	.st5{fill:none;stroke:#65666B;stroke-width:1.55;stroke-linejoin:round;}
</style>
<image style="overflow:visible;opacity:0.15;enable-background:new    ;" width="1042" height="148" xlink:href="A54C6F8FCF6D4B25.png"  transform="matrix(1 0 0 0.99 5.275 -2.44)">
</image>
<rect x="15.9" y="8.4" class="st0" width="1019.5" height="124.9"/>
<path class="st1" d="M147.5,54.6l-0.8,0.2c-0.9-2.4-3.3-3.8-5.8-3.6c-2.6,0-2.8,0.2-3.2,2.5l-0.6,3.1h1.6c0.6,0.1,1.3-0.1,1.9-0.3
	c0.6-0.4,1.1-1,1.2-1.7l0.2-0.6h0.7l-1.2,6.4h-0.7v-0.6c0-1.8-0.9-2.1-2.5-2.1h-1.5l-0.8,4.6c0,0.2-0.1,0.4-0.1,0.6v0.1
	c0,0.8,0.6,1.5,1.4,1.5c0,0,0,0,0,0h0.4l-0.1,0.7h-6.2l0.1-0.7c1.8-0.1,2.1-1,2.3-2.4l1.6-9.1c0.1-0.2,0.1-0.5,0.1-0.7
	c0.1-0.7-0.4-1.4-1.2-1.5h-0.5l0.1-0.7h12.4L147.5,54.6z"/>
<path class="st1" d="M150.9,65.4c-2.8,0-4.7-1.7-4.7-4.5c0-1.7,0.7-3.3,1.9-4.6c1.2-1.3,2.9-2.1,4.8-2c2.4-0.2,4.5,1.6,4.6,4
	c0,0.2,0,0.4,0,0.5C157.5,62.5,154.6,65.4,150.9,65.4L150.9,65.4L150.9,65.4L150.9,65.4z M151,64.4c1.4,0,2.7-0.9,3.3-2.2
	c0.5-1.2,0.9-2.5,0.9-3.9c0.1-0.8-0.2-1.7-0.7-2.4c-0.5-0.4-1.2-0.7-1.8-0.6c-3,0-4.1,3.8-4.1,6.2C148.5,63.2,149.2,64.4,151,64.4
	L151,64.4L151,64.4z"/>
<path class="st1" d="M162.5,55.9L162.5,55.9c0.9-1,2.2-1.5,3.6-1.6c0.6-0.1,1.3,0.3,1.4,0.9c0,0,0,0,0,0v0c0,0.7-0.6,1.2-1.3,1.2
	H166c-0.9,0-1.1-0.6-1.8-0.6c-1.8,0-2.2,2.7-2.5,4l-0.9,5.5h-2l1.4-7.7c0.1-0.3,0.1-0.5,0.1-0.8c0-0.9-0.7-1-1.5-1l0.1-0.7l3.1-0.5
	h0.8L162.5,55.9z"/>
<path class="st1" d="M176.9,59.7c-0.9-0.3-1.6-1.2-1.6-2.2c0.1-1,0.6-1.9,1.4-2.4c0.9-0.6,2-0.9,3.1-0.8c1.3,0,2.5,0.2,3.6,0.8
	c0.5,0.2,0.9,0.6,1,1.2c0,0.5-0.4,0.9-0.9,0.9c0,0,0,0,0,0h-0.1c-0.5,0-1-0.3-1.2-0.8c-0.2-0.4-0.5-0.7-0.9-0.9
	c-0.5-0.3-1-0.4-1.5-0.4c-1.1,0-2.3,0.5-2.3,1.7c0,0.5,0.3,1,0.7,1.2c0.7,0.3,1.4,0.6,2.2,0.8c1.5,0.5,3.5,1,3.5,2.9
	c-0.1,1.2-0.7,2.2-1.8,2.8c-1.1,0.6-2.2,0.9-3.5,0.9c-1.3,0-2.6-0.3-3.7-0.9c-0.6-0.3-1.1-0.8-1.2-1.4c0-0.6,0.4-1,1-1
	c1.9,0,1.2,2.4,4.1,2.4c0.7,0,1.3-0.2,1.9-0.5c0.5-0.3,0.9-0.9,0.9-1.5c0-1.1-1.1-1.5-2-1.8L176.9,59.7z"/>
<path class="st1" d="M189,62.2c-0.1,0.2-0.1,0.5-0.1,0.7c-0.1,0.6,0.4,1.2,1,1.2h0.2c0.6-0.1,1.1-0.3,1.5-0.8l0.5,0.4
	c-0.8,0.9-1.9,1.5-3.2,1.5c-1.1,0.1-2-0.8-2.1-1.9c0-0.1,0-0.2,0-0.3c0-0.3,0-0.7,0.1-1l0.8-4.6c0.1-0.2,0.1-0.5,0.1-0.8
	c0-0.9-0.7-1.1-1.4-1.2h-0.1l0.1-0.7l0.9-0.1c0.8-0.1,1.6-0.2,2.3-0.4h0.7L189,62.2z M189.7,53.2c-0.6,0-1-0.5-1-1.1l0,0
	c0-0.8,0.7-1.5,1.5-1.6c0.5-0.1,1.1,0.3,1.1,0.8c0,0.1,0,0.1,0,0.2C191.4,52.5,190.7,53.2,189.7,53.2z"/>
<path class="st1" d="M201.7,64.1c-0.3,1.8-0.5,3.2-2,4.5c-1.4,1.1-3.1,1.7-4.8,1.6c-1.1,0-2.2-0.2-3.2-0.6c-0.6-0.2-1-0.6-1.1-1.2
	c0.1-0.6,0.6-1.1,1.2-1.1c0.5,0,1,0.2,1.1,0.7c0.1,0.3,0.3,0.6,0.6,0.8c0.5,0.4,1,0.5,1.6,0.5c1.1,0,2.2-0.5,3-1.3
	c0.8-0.9,1.3-2.1,1.4-3.3l0.4-2l0,0c-0.8,1.6-2.5,2.7-4.4,2.8c-2.4,0-3.7-1.9-3.7-4.1c0-3.4,2.5-7,6.1-7c1.2,0,2.4,0.5,3.2,1.4
	l0.3-1.2h1.8L201.7,64.1z M201,56.6c-0.6-0.8-1.5-1.3-2.6-1.3c-2.9,0-4.2,4-4.2,6.4c0,1.3,0.3,2.6,1.9,2.6s2.8-1.4,3.5-2.7
	c0.7-1.5,1.1-3,1.3-4.7L201,56.6z"/>
<path class="st1" d="M207,65.3h-2l1.4-7.7c0.1-0.3,0.1-0.5,0.1-0.8c0-0.9-0.7-1-1.5-1l0.1-0.7l3.1-0.5h0.8l-0.3,1.6
	c1.3-1.1,2.9-1.7,4.6-1.8c1.4,0,2.7,0.6,2.7,2.2c0,0.4-0.1,0.9-0.2,1.3l-0.8,4.4c-0.1,0.3-0.1,0.7-0.1,1c0,0.6,0.5,1.1,1.1,1.2
	c0.6-0.1,1.1-0.3,1.5-0.8l0.4,0.5c-0.8,0.9-1.8,1.4-3,1.4c-1.1,0-2-0.8-2.1-1.9c0,0,0,0,0,0c0,0,0,0,0-0.1l0,0
	c0-0.7,0.2-1.4,0.3-2.1l0.6-3.5c0.1-0.3,0.1-0.7,0.1-1c0-0.8-0.7-1.4-1.5-1.4h-0.1c-1.5,0.2-2.8,0.8-3.9,1.8L207,65.3z"/>
<path class="st1" d="M221.4,62.2c-0.1,0.2-0.1,0.5-0.1,0.7c-0.1,0.6,0.4,1.2,1,1.2h0.2c0.6-0.1,1.1-0.3,1.5-0.8l0.5,0.4
	c-0.8,0.9-2,1.5-3.2,1.5c-1.1,0-2-0.9-2-2c0-0.1,0-0.1,0-0.2c0-0.3,0-0.7,0.1-1l0.8-4.6c0.1-0.2,0.1-0.5,0.1-0.8
	c0-0.9-0.7-1.1-1.4-1.2h-0.2l0.1-0.7l0.9-0.1c0.8-0.1,1.6-0.2,2.3-0.4h0.7L221.4,62.2z M222.1,53.2c-0.6,0-1-0.5-1-1.1l0,0
	c0-0.8,0.7-1.5,1.5-1.6c0.5-0.1,1.1,0.3,1.1,0.9c0,0,0,0.1,0,0.1C223.8,52.5,223.1,53.2,222.1,53.2L222.1,53.2L222.1,53.2z"/>
<path class="st1" d="M232.1,54.6l-0.1,0.7h-2.3l-1.5,8.6c-0.1,1.6-0.6,3.1-1.5,4.5c-1.1,1.3-2.7,2-4.4,1.9c-1,0-3-0.4-3-1.7
	c0-0.5,0.5-0.8,0.9-0.8c0,0,0,0,0,0h0.1c1.5,0,1.4,1.7,2.9,1.7c0.6,0,1.2-0.3,1.7-0.8c0.4-0.6,0.6-1.3,0.7-2.1L226,65l1.7-9.8h-2
	l0.1-0.7h2c0-1.3,0.5-2.5,1.2-3.6c0.9-1.1,2.2-1.7,3.6-1.8c0.8,0,2.6,0.2,2.6,1.3c0,0.5-0.5,0.9-1,0.9c0,0,0,0,0,0l0,0
	c-1.3,0-0.9-1.3-2.2-1.3c-0.5,0-1,0.3-1.3,0.8c-0.3,0.6-0.6,1.3-0.6,2l-0.4,1.8H232.1L232.1,54.6z"/>
<path class="st1" d="M235.1,62.2c-0.1,0.2-0.1,0.5-0.1,0.7c-0.1,0.6,0.4,1.2,1,1.2h0.2c0.6-0.1,1.1-0.3,1.5-0.8l0.5,0.4
	c-0.8,0.9-1.9,1.5-3.2,1.5c-1.1,0.1-2-0.8-2.1-1.9c0-0.1,0-0.2,0-0.3c0-0.3,0-0.7,0.1-1l0.8-4.6c0.1-0.2,0.1-0.5,0.1-0.8
	c0-0.9-0.7-1.1-1.4-1.2h-0.2l0.1-0.7l0.9-0.1c0.8-0.1,1.6-0.2,2.4-0.4h0.7L235.1,62.2z M235.9,53.2c-0.6,0-1-0.5-1-1.1l0,0
	c0-0.8,0.7-1.5,1.5-1.6c0.5-0.1,1.1,0.3,1.1,0.8c0,0.1,0,0.1,0,0.2C237.6,52.5,236.8,53.3,235.9,53.2L235.9,53.2L235.9,53.2z"/>
<path class="st1" d="M247.7,63.2c-1.3,1.4-3.1,2.2-5.1,2.3c-2.3,0.1-4.3-1.6-4.5-4c0,0,0,0,0,0c0-0.1,0-0.3,0-0.4
	c0.1-3.7,3-6.7,6.7-6.8c1.4,0,3.4,0.7,3.4,2.4c0,0.7-0.5,1.3-1.2,1.3c0,0,0,0,0,0H247c-0.4,0.1-0.8-0.2-0.9-0.7c0,0,0-0.1,0-0.1
	v-0.6c0-0.7-0.6-1.3-1.4-1.3c0,0,0,0,0,0h-0.2c-2.7,0-4.2,3.9-4.2,6c-0.1,1.6,1.1,2.9,2.7,3c0,0,0,0,0,0h0.2
	c1.4-0.1,2.8-0.7,3.9-1.7L247.7,63.2z"/>
<path class="st1" d="M259.4,62c-0.1,0.3-0.1,0.6-0.1,0.9c0,0.7,0.5,1.2,1.2,1.2c0,0,0,0,0,0l0,0c0.6,0,1.2-0.3,1.5-0.8l0.5,0.5
	c-0.8,1-1.9,1.5-3.2,1.6c-1.2,0-2.2-0.9-2.2-2.1c0-0.1,0-0.2,0-0.2v-0.3l0,0c-0.9,1.6-2.6,2.6-4.4,2.7c-2.5,0-3.8-1.8-3.8-4.2
	c0-3.4,2.7-7,6.3-7c1.2,0,2.4,0.4,3.3,1.3l0.2-1.1h2L259.4,62z M255.7,55.3c-3,0-4.6,4-4.6,6.5c0,1.3,0.6,2.6,2.1,2.6
	c1.7,0,3.1-1.6,3.8-3c0.6-1.6,1-3.2,1.2-4.8C257.6,55.8,256.7,55.3,255.7,55.3L255.7,55.3L255.7,55.3z"/>
<path class="st1" d="M265.1,65.3h-2l1.4-7.7c0.1-0.3,0.1-0.5,0.1-0.8c0-0.9-0.7-1-1.5-1l0.1-0.7l3.1-0.5h0.8l-0.3,1.6
	c1.3-1.1,2.9-1.7,4.6-1.8c1.4,0,2.7,0.6,2.7,2.2c0,0.4-0.1,0.9-0.2,1.3l-0.8,4.4c-0.1,0.3-0.1,0.7-0.1,1c0,0.6,0.5,1.1,1.1,1.2
	c0.6-0.1,1.1-0.3,1.5-0.8l0.4,0.5c-0.8,0.9-1.8,1.4-3,1.4c-1.1,0-2-0.8-2.1-1.9c0,0,0,0,0,0v-0.1l0,0c0-0.7,0.2-1.4,0.3-2.1l0.6-3.5
	c0.1-0.3,0.1-0.7,0.1-1c0-0.8-0.7-1.4-1.5-1.4h-0.1c-1.5,0.2-2.8,0.8-3.9,1.8L265.1,65.3z"/>
<path class="st1" d="M280.8,54.6h3.1l-0.1,0.7h-3.1l-1.1,6c-0.1,0.6-0.2,1.2-0.2,1.8c-0.1,0.7,0.3,1.3,1,1.4h0.3
	c0.8-0.1,1.6-0.4,2.1-1l0.5,0.6c-0.9,0.9-2.1,1.4-3.4,1.4c-1.2,0-2.7-0.4-2.7-1.9c0-0.7,0.1-1.3,0.3-2l1.1-6.4h-1.9l0.1-0.7
	c2.6-0.1,3.3-1.7,3.8-4h0.8L280.8,54.6z"/>
<path class="st1" d="M286.8,61.4c-0.1,0.5-0.2,1-0.2,1.5V63c0,0.7,0.5,1.2,1.2,1.3c0,0,0,0,0,0h0.1c0.6-0.1,1.2-0.4,1.5-0.8l0.5,0.5
	c-0.8,1-2.1,1.6-3.4,1.6c-1.1,0-2-0.9-2-2c0-0.1,0-0.1,0-0.2c0-0.6,0.1-1.2,0.2-1.7l1.5-8.8c0.1-0.3,0.1-0.5,0.1-0.8
	c0-1-0.7-1-1.6-1.2l0.1-0.7c1.1-0.1,2.1-0.4,3.1-0.8h0.9L286.8,61.4z"/>
<path class="st1" d="M300.3,65.1c-0.1,1.5-0.9,2.9-2.2,3.8c-1.3,0.9-2.8,1.3-4.4,1.3c-1,0-2-0.2-2.9-0.6c-0.5-0.2-0.8-0.6-0.9-1.1
	c0-0.6,0.5-1,1.1-0.9c0,0,0,0,0,0h0.1c1.4,0,0.8,1.8,3.1,1.8c1,0,2-0.4,2.7-1.2c0.8-0.9,1.2-2,1.4-3.2l0.3-1.8
	c-1.3,1.3-3.1,2.1-5,2.3c-1.4,0-2.6-0.7-2.6-2.3v-0.8l0.1-0.7l0.8-4.1c0.1-0.2,0.1-0.5,0.1-0.8c0-0.9-0.7-1.1-1.6-1.1l0.1-0.7
	l0.7-0.1l2.4-0.4h0.9l-1.3,7.2c-0.1,0.4-0.1,0.8-0.2,1.1c-0.1,0.7,0.5,1.4,1.2,1.5h0.2c1.6-0.1,3.2-0.8,4.3-2l1.4-7.8h2L300.3,65.1z
	"/>
<path class="st1" d="M313,61.4c-0.1,0.5-0.2,1-0.2,1.5V63c0,0.7,0.5,1.2,1.2,1.3c0,0,0,0,0,0h0.1c0.6-0.1,1.2-0.4,1.5-0.8l0.5,0.5
	c-0.8,1-2.1,1.6-3.4,1.6c-1.1,0-2-0.9-2-2c0-0.1,0-0.1,0-0.2c0-0.6,0.1-1.1,0.2-1.7l1.5-8.8c0.1-0.3,0.1-0.5,0.1-0.8
	c0-1-0.7-1-1.6-1.2l0.1-0.7c1.1-0.1,2.1-0.4,3.1-0.8h0.9L313,61.4z"/>
<path class="st1" d="M326.5,63.4c-1.5,1.3-3.5,2-5.5,2.1c-2.4,0-4.8-1.5-4.8-4.2c0.1-1.9,0.9-3.7,2.4-5c1.5-1.3,3.3-2,5.2-2
	c1.5,0,3.7,0.6,3.7,2.4c0,3-6.5,3.6-8.9,3.7c-0.1,0.4-0.2,0.7-0.2,1.1c0,1.9,1.4,2.9,3.2,2.9c1.5-0.1,3-0.7,4.2-1.7L326.5,63.4z
	 M318.8,59.6c1.9,0,6.5-0.4,6.5-2.9c-0.1-1-0.9-1.7-1.9-1.6h-0.1C321.1,55.1,319.4,57.6,318.8,59.6z"/>
<path class="st1" d="M331.3,59.7c-0.9-0.3-1.6-1.2-1.6-2.2c0.1-1,0.6-1.9,1.4-2.4c0.9-0.6,2-0.9,3.1-0.8c1.3,0,2.5,0.2,3.6,0.8
	c0.5,0.2,0.9,0.6,1,1.2c0,0.5-0.4,0.9-0.9,0.9c0,0,0,0,0,0h-0.1c-0.5,0-1-0.3-1.2-0.8c-0.2-0.4-0.5-0.7-0.9-0.9
	c-0.5-0.3-1-0.4-1.5-0.4c-1.1,0-2.3,0.5-2.3,1.7c0,0.5,0.3,1,0.7,1.2c0.7,0.3,1.4,0.6,2.2,0.8c1.5,0.5,3.5,1,3.5,2.9
	c-0.1,1.2-0.7,2.3-1.8,2.8c-1.1,0.6-2.2,0.9-3.5,0.9c-1.3,0-2.6-0.3-3.7-0.9c-0.6-0.3-1.1-0.8-1.2-1.4c0-0.6,0.4-1,1-1
	c1.9,0,1.2,2.4,4.1,2.4c0.7,0,1.3-0.2,1.9-0.5c0.5-0.3,0.9-0.9,0.9-1.5c0-1.1-1.1-1.5-2-1.8L331.3,59.7z"/>
<path class="st1" d="M343.3,59.7c-0.9-0.3-1.6-1.2-1.6-2.2c0.1-1,0.6-1.9,1.4-2.4c0.9-0.6,2-0.9,3.1-0.8c1.3,0,2.5,0.2,3.6,0.8
	c0.5,0.2,0.9,0.6,1,1.2c0,0.5-0.4,0.9-0.9,0.9c0,0,0,0,0,0h-0.1c-0.5,0-1-0.3-1.2-0.8c-0.2-0.4-0.5-0.7-0.9-0.9
	c-0.5-0.3-1-0.4-1.5-0.4c-1.1,0-2.3,0.5-2.3,1.7c0,0.5,0.3,1,0.7,1.2c0.7,0.3,1.4,0.6,2.2,0.8c1.5,0.5,3.5,1,3.5,2.9
	c-0.1,1.2-0.7,2.3-1.8,2.8c-1.1,0.6-2.2,0.9-3.5,0.9c-1.3,0-2.6-0.3-3.7-0.9c-0.6-0.3-1.1-0.8-1.2-1.4c0-0.6,0.4-1,1-1
	c1.9,0,1.2,2.4,4.1,2.4c0.7,0,1.3-0.2,1.9-0.5c0.5-0.3,0.9-0.9,0.9-1.5c0-1.1-1.1-1.5-2-1.8L343.3,59.7z"/>
<path class="st1" d="M352.7,67.4c1-0.5,1.7-1.3,2-2.3c-0.2,0.3-0.6,0.4-0.9,0.4c-0.5-0.1-0.9-0.5-0.9-1c0-0.9,0.7-1.6,1.6-1.6
	c0.7,0,1.3,0.6,1.2,1.3c0,0,0,0.1,0,0.1c-0.2,1.7-1.3,3.1-2.9,3.6L352.7,67.4z"/>
<path class="st1" d="M137.2,91.7c-2.8,0-4.7-1.7-4.7-4.5c0-1.7,0.7-3.3,1.9-4.6c1.2-1.3,2.9-2.1,4.8-2c2.4-0.2,4.5,1.6,4.6,4
	c0,0.2,0,0.4,0,0.5C143.7,88.8,140.8,91.7,137.2,91.7L137.2,91.7L137.2,91.7L137.2,91.7z M137.3,90.7c1.4,0,2.7-0.9,3.3-2.2
	c0.5-1.2,0.9-2.5,0.9-3.9c0.1-0.8-0.2-1.7-0.7-2.4c-0.5-0.4-1.2-0.7-1.8-0.6c-3,0-4.1,3.8-4.1,6.2C134.8,89.5,135.5,90.7,137.3,90.7
	L137.3,90.7L137.3,90.7z"/>
<path class="st1" d="M155.2,87.8c-0.1,0.5-0.2,1-0.2,1.4c0,0.6,0.5,1.2,1.1,1.2c0,0,0,0,0,0l0,0c0.6,0,1.1-0.3,1.5-0.8l0.6,0.4
	c-0.8,1-1.9,1.5-3.1,1.6c-1.2,0.1-2.2-0.8-2.2-1.9c0,0,0,0,0,0v-0.1c-1.3,1.2-3,1.9-4.8,2c-1.4,0-2.6-0.6-2.6-2.1
	c0-0.5,0.1-1,0.2-1.5l0.7-4.1c0.1-0.3,0.1-0.5,0.1-0.8c0-0.6-0.4-1-1-1l-0.5-0.1l0.1-0.7l3.1-0.6h0.8l-1.3,7.3
	c-0.1,0.3-0.1,0.7-0.1,1v0.2c0,0.7,0.6,1.3,1.3,1.3h0.1c1.5-0.1,2.9-0.8,4-1.8l1.4-8h2L155.2,87.8z"/>
<path class="st1" d="M162.5,82.2L162.5,82.2c0.9-1,2.2-1.5,3.6-1.6c0.6-0.1,1.3,0.3,1.4,0.9c0,0,0,0,0,0v0.1c0,0.7-0.6,1.2-1.3,1.2
	H166c-0.9,0-1.1-0.6-1.8-0.6c-1.8,0-2.2,2.7-2.5,4l-0.9,5.5h-2l1.4-7.7c0.1-0.3,0.1-0.5,0.1-0.8c0-0.9-0.7-1-1.5-1l0.1-0.7l3.1-0.5
	h0.8L162.5,82.2z"/>
<path class="st1" d="M183.3,89.5c-1.3,1.4-3.1,2.2-5,2.3c-2.3,0.1-4.3-1.7-4.4-4c0-0.1,0-0.2,0-0.3c0.1-3.7,3-6.7,6.7-6.8
	c1.4,0,3.4,0.7,3.4,2.4c0,0.7-0.5,1.3-1.2,1.3c0,0,0,0,0,0h-0.1c-0.4,0-0.8-0.3-0.9-0.7V83c0-0.7-0.6-1.3-1.4-1.3c0,0,0,0,0,0h-0.2
	c-2.7,0-4.2,3.9-4.2,6c-0.1,1.6,1.1,2.9,2.7,3c0,0,0,0,0,0h0.2c1.5-0.1,2.8-0.7,3.9-1.8L183.3,89.5z"/>
<path class="st1" d="M187.4,87.7c-0.1,0.5-0.2,1-0.2,1.5v0.1c0,0.7,0.5,1.2,1.2,1.3c0,0,0,0,0,0h0.1c0.6-0.1,1.2-0.4,1.6-0.8
	l0.5,0.5c-0.8,1-2.1,1.6-3.4,1.6c-1.1,0-2-0.9-2-2c0-0.1,0-0.1,0-0.2c0-0.6,0.1-1.1,0.2-1.7L187,79c0.1-0.3,0.1-0.5,0.1-0.8
	c0-1-0.7-1-1.6-1.2l0.1-0.7c1.1-0.1,2.1-0.4,3.1-0.8h0.9L187.4,87.7z"/>
<path class="st1" d="M193.8,88.6c-0.1,0.2-0.1,0.5-0.1,0.7c-0.1,0.6,0.4,1.2,1,1.2h0.2c0.6-0.1,1.1-0.3,1.5-0.8l0.5,0.4
	c-0.8,0.9-1.9,1.5-3.2,1.5c-1.1,0-2-0.9-2-2c0-0.1,0-0.2,0-0.2c0-0.3,0-0.7,0.1-1l0.8-4.6c0.1-0.2,0.1-0.5,0.1-0.8
	c0-0.9-0.7-1.1-1.4-1.2h-0.2l0.1-0.7l0.9-0.1c0.8-0.1,1.6-0.2,2.3-0.4h0.7L193.8,88.6z M194.6,79.6c-0.6,0-1-0.5-1-1.1l0,0
	c0-0.8,0.7-1.5,1.5-1.5c0.5-0.1,1.1,0.3,1.1,0.8c0,0.1,0,0.1,0,0.2C196.2,78.8,195.5,79.5,194.6,79.6L194.6,79.6z"/>
<path class="st1" d="M207.1,89.6c-1.5,1.3-3.5,2-5.5,2.1c-2.4,0-4.8-1.5-4.8-4.2c0.1-1.9,0.9-3.7,2.4-5c1.5-1.3,3.3-2,5.2-2
	c1.5,0,3.7,0.6,3.7,2.4c0,3-6.5,3.6-8.9,3.7c-0.1,0.4-0.2,0.7-0.2,1.1c0,1.9,1.4,2.9,3.2,2.9c1.5-0.1,3-0.7,4.2-1.7L207.1,89.6z
	 M199.5,85.9c1.9,0,6.5-0.4,6.5-2.9c-0.1-1-0.9-1.7-1.9-1.6H204C201.7,81.4,200,83.9,199.5,85.9z"/>
<path class="st1" d="M211.4,91.6h-2l1.4-7.7c0.1-0.3,0.1-0.5,0.1-0.8c0-0.9-0.7-1-1.5-1l0.1-0.7l3.1-0.5h0.8l-0.3,1.6
	c1.3-1.1,2.9-1.7,4.6-1.8c1.4,0,2.7,0.6,2.7,2.2c0,0.4-0.1,0.9-0.2,1.3l-0.8,4.4c-0.1,0.3-0.1,0.7-0.1,1c0,0.6,0.5,1.1,1.1,1.2
	c0.6-0.1,1.1-0.3,1.5-0.8l0.4,0.5c-0.8,0.9-1.8,1.4-3,1.4c-1.1,0-2-0.8-2-1.9c0,0,0,0,0,0c0,0,0,0,0-0.1l0,0c0-0.7,0.2-1.4,0.3-2.1
	l0.6-3.5c0.1-0.3,0.1-0.7,0.1-1c0-0.8-0.7-1.4-1.5-1.4h-0.1c-1.5,0.2-2.8,0.8-3.9,1.8L211.4,91.6z"/>
<path class="st1" d="M227.1,80.8h3.1l-0.1,0.7H227l-1.1,6c-0.1,0.6-0.2,1.2-0.2,1.8c-0.1,0.7,0.3,1.3,1,1.4h0.3
	c0.8-0.1,1.6-0.4,2.1-1l0.5,0.6c-0.9,0.9-2.1,1.4-3.4,1.4c-1.2,0-2.7-0.4-2.7-1.9c0-0.7,0.1-1.3,0.3-2l1.1-6.4h-1.9l0.1-0.7
	c2.6-0.1,3.3-1.7,3.8-4h0.8L227.1,80.8z"/>
<path class="st1" d="M233.3,86c-0.9-0.3-1.6-1.2-1.6-2.2c0.1-1,0.6-1.9,1.4-2.4c0.9-0.6,2-0.9,3.1-0.8c1.3,0,2.5,0.2,3.6,0.8
	c0.5,0.2,0.9,0.6,1,1.2c0,0.5-0.4,0.9-0.9,0.9c0,0,0,0,0,0h-0.1c-0.5,0-1-0.3-1.2-0.8c-0.2-0.4-0.5-0.7-0.9-0.9
	c-0.5-0.3-1-0.4-1.5-0.4c-1.1,0-2.3,0.5-2.3,1.7c0,0.5,0.3,1,0.7,1.2c0.7,0.3,1.4,0.6,2.2,0.8c1.5,0.5,3.5,1,3.5,2.9
	c-0.1,1.2-0.7,2.3-1.8,2.8c-1.1,0.6-2.2,0.9-3.5,0.9c-1.3,0-2.6-0.3-3.7-0.9c-0.6-0.3-1.1-0.8-1.2-1.4c0-0.6,0.4-1,1-1
	c1.9,0,1.2,2.4,4.1,2.4c0.7,0,1.3-0.2,1.9-0.5c0.5-0.3,0.9-0.9,0.9-1.5c0-1.1-1.1-1.5-2-1.8L233.3,86z"/>
<path class="st1" d="M253,82.2L253,82.2c0.9-1,2.2-1.5,3.6-1.6c0.6-0.1,1.3,0.3,1.4,0.9c0,0,0,0,0,0v0.1c0,0.7-0.6,1.2-1.3,1.2h-0.1
	c-0.9,0-1.1-0.6-1.8-0.6c-1.8,0-2.2,2.7-2.5,4l-0.9,5.5h-2l1.4-7.7c0.1-0.3,0.1-0.5,0.1-0.8c0-0.9-0.7-1-1.5-1l0.1-0.7l3.1-0.5h0.8
	L253,82.2z"/>
<path class="st1" d="M267.9,89.6c-1.5,1.3-3.5,2-5.5,2.1c-2.4,0-4.8-1.5-4.8-4.2c0.1-1.9,0.9-3.7,2.4-5c1.5-1.3,3.3-2,5.2-2
	c1.5,0,3.7,0.6,3.7,2.4c0,3-6.5,3.6-8.9,3.7c-0.1,0.4-0.2,0.7-0.2,1.1c0,1.9,1.4,2.9,3.2,2.9c1.5-0.1,3-0.7,4.2-1.7L267.9,89.6z
	 M260.3,85.9c1.9,0,6.5-0.4,6.5-2.9c-0.1-1-0.9-1.7-1.9-1.6h-0.1C262.5,81.4,260.8,83.9,260.3,85.9z"/>
<path class="st1" d="M279.2,89.5c-1.3,1.4-3.1,2.2-5.1,2.3c-2.3,0.1-4.3-1.6-4.5-4c0,0,0,0,0,0c0-0.1,0-0.3,0-0.4
	c0.1-3.7,3-6.7,6.7-6.8c1.4,0,3.4,0.7,3.4,2.4c0,0.7-0.5,1.3-1.2,1.3c0,0,0,0,0,0h-0.1c-0.4,0.1-0.8-0.2-0.9-0.7c0,0,0-0.1,0-0.1
	v-0.6c0-0.7-0.6-1.4-1.3-1.4c0,0,0,0,0,0H276c-2.7,0-4.2,3.9-4.2,6c-0.1,1.6,1.1,2.9,2.7,3c0,0,0,0,0,0h0.2c1.5-0.1,2.8-0.7,3.9-1.8
	L279.2,89.5z"/>
<path class="st1" d="M290.5,89.6c-1.5,1.3-3.5,2-5.5,2.1c-2.4,0-4.8-1.5-4.8-4.2c0.1-1.9,0.9-3.7,2.4-5c1.5-1.3,3.3-2,5.2-2
	c1.5,0,3.7,0.6,3.7,2.4c0,3-6.5,3.6-8.9,3.7c-0.1,0.4-0.2,0.7-0.2,1.1c0,1.9,1.4,2.9,3.2,2.9c1.5-0.1,3-0.7,4.2-1.7L290.5,89.6z
	 M282.9,85.9c1.9,0,6.5-0.4,6.5-2.9c-0.1-1-0.9-1.7-1.9-1.6h-0.1C285.1,81.4,283.4,83.9,282.9,85.9L282.9,85.9L282.9,85.9z"/>
<path class="st1" d="M295.5,88.6c-0.1,0.2-0.1,0.5-0.1,0.7c-0.1,0.6,0.4,1.2,1,1.2h0.2c0.6-0.1,1.1-0.3,1.5-0.8l0.5,0.4
	c-0.8,0.9-1.9,1.5-3.2,1.5c-1.1,0-2-0.8-2.1-1.9c0-0.1,0-0.2,0-0.3c0-0.3,0-0.7,0.1-1l0.8-4.6c0.1-0.2,0.1-0.5,0.1-0.8
	c0-0.9-0.7-1.1-1.4-1.2h-0.1l0.1-0.7l0.9-0.1c0.8-0.1,1.6-0.2,2.3-0.4h0.6L295.5,88.6z M296.3,79.6c-0.6,0-1-0.5-1-1.1l0,0
	c0-0.8,0.7-1.5,1.5-1.5c0.5-0.1,1.1,0.3,1.1,0.8c0,0.1,0,0.1,0,0.2C297.9,78.9,297.2,79.6,296.3,79.6L296.3,79.6z"/>
<path class="st1" d="M301.7,88.2c-0.1,0.3-0.1,0.7-0.1,1c0,1.1,0.7,1.4,1.7,1.4c2.7-0.2,4.8-2.4,4.8-5.1c0-2.5-1.8-2.2-1.8-3.5
	c0-0.8,0.6-1.4,1.4-1.4c0.6,0.1,1.1,0.4,1.4,1c0.3,0.7,0.4,1.4,0.4,2.1c0,4-2.5,8.1-6.9,8.1c-1.5,0-3-0.4-3-2.2c0-0.5,0.1-1,0.2-1.5
	l0.7-4c0.1-0.2,0.1-0.5,0.1-0.8c0.1-0.5-0.4-1-0.9-1.1c0,0,0,0,0,0h-0.1l-0.5-0.1l0.1-0.7c1.1,0,2.2-0.2,3.2-0.5h0.7L301.7,88.2z"/>
<path class="st1" d="M320.7,89.6c-1.5,1.3-3.4,2-5.4,2.1c-2.4,0-4.8-1.5-4.8-4.2c0.1-1.9,0.9-3.7,2.4-5c1.5-1.3,3.3-2,5.2-2
	c1.5,0,3.7,0.6,3.7,2.4c0,3-6.5,3.6-8.9,3.7c-0.1,0.4-0.2,0.7-0.2,1.1c0,1.9,1.4,2.9,3.2,2.9c1.5-0.1,3-0.7,4.2-1.7L320.7,89.6z
	 M313.1,85.9c1.9,0,6.5-0.4,6.5-2.9c-0.1-1-0.9-1.7-1.9-1.6h-0.1C315.3,81.4,313.6,83.9,313.1,85.9L313.1,85.9z"/>
<path class="st1" d="M323.1,90.5c0-1,0.8-1.7,1.8-1.8c0.7,0,1.2,0.5,1.2,1.2c0,0,0,0,0,0c0,0,0,0.1,0,0.1c0,0.9-0.8,1.7-1.8,1.7
	c-0.6,0-1.2-0.4-1.2-1.1C323.1,90.6,323.1,90.6,323.1,90.5z"/>
<path class="st1" d="M329.8,90.5c0-1,0.8-1.7,1.8-1.8c0.7,0,1.2,0.5,1.2,1.2c0,0,0,0,0,0c0,0,0,0.1,0,0.1c0,0.9-0.8,1.7-1.8,1.7
	c-0.6,0-1.2-0.4-1.2-1.1C329.8,90.6,329.8,90.6,329.8,90.5z"/>
<path class="st1" d="M336.4,90.5c0-1,0.8-1.7,1.8-1.8c0.7,0,1.2,0.5,1.2,1.2c0,0,0,0,0,0c0,0,0,0.1,0,0.1c0,0.9-0.8,1.7-1.8,1.7
	c-0.6,0-1.2-0.4-1.2-1.1C336.4,90.6,336.4,90.6,336.4,90.5z"/>
<path class="st1" d="M399.3,90.5c0.2,1,0.2,1.6,1.4,1.7l-0.1,0.4h-4l0.1-0.4c0.6-0.1,1.2-0.2,1.2-0.9c0-0.2,0-0.3-0.1-0.5l-0.4-1.9
	h-3.8l-0.7,1.3c-0.3,0.4-0.4,0.8-0.5,1.3c0,0.4,0.4,0.8,0.8,0.7c0,0,0,0,0,0h0.4l-0.1,0.4h-3.9l0.1-0.4c0.8-0.1,1.5-0.6,1.9-1.4
	l4.6-8.2h1.4L399.3,90.5z M396.4,83.8l-2.4,4.5h3.3L396.4,83.8z"/>
<path class="st1" d="M414.3,86.8l0.4-2.4c0-0.2,0-0.3,0-0.5c0.1-0.5-0.3-0.9-0.7-1c0,0,0,0,0,0h-0.4l0.1-0.4h4.2l-0.1,0.4h-0.1
	c-1.1,0.1-1.4,0.6-1.5,1.6l-1.1,6.1c0,0.1,0,0.3,0,0.4v0.1c0,0.5,0.4,1,0.9,1h0.2l-0.1,0.4H412l0.1-0.4h0.1c0.4,0,0.7-0.1,1-0.4
	c0.3-0.3,0.5-0.8,0.5-1.2l0.5-3.1h-5.5l-0.6,3.2c0,0.2-0.1,0.3-0.1,0.5c0,0.2,0.1,0.4,0.2,0.6c0.2,0.2,0.5,0.4,0.8,0.4h0.3l-0.1,0.4
	H405l0.1-0.4c1.2-0.1,1.4-0.7,1.5-1.6l1.1-6.1v-0.5c0.1-0.5-0.3-0.9-0.7-1c0,0,0,0,0,0h-0.3l0.1-0.4h4.2l-0.1,0.4h-0.2
	c-1.2,0-1.4,0.5-1.6,1.6l-0.4,2.2L414.3,86.8L414.3,86.8z"/>
<path class="st1" d="M419.7,90.6c0,0.2-0.1,0.3-0.1,0.5c0,0.4,0.3,0.8,0.7,0.8c0,0,0,0,0,0h0.1c0.4,0,0.7-0.2,1-0.5l0.3,0.3
	c-0.5,0.6-1.3,1-2.1,1c-0.7,0-1.4-0.5-1.4-1.3c0-0.1,0-0.1,0-0.2c0-0.2,0-0.5,0.1-0.7l0.5-3c0-0.2,0.1-0.3,0.1-0.5
	c0-0.6-0.4-0.7-1-0.8h-0.1l0.1-0.4l0.6-0.1c0.5-0.1,1-0.2,1.5-0.3h0.5L419.7,90.6z M420.3,84.6c-0.4,0-0.7-0.3-0.7-0.7c0,0,0,0,0,0
	l0,0c0-0.5,0.5-1,1-1c0.4,0,0.7,0.2,0.8,0.6c0,0,0,0.1,0,0.1C421.3,84.1,420.9,84.6,420.3,84.6z"/>
<path class="st1" d="M428.3,91.8c0,1.1-0.5,2.2-1.4,3c-0.9,0.7-2.1,1.1-3.2,1.1c-0.7,0-1.5-0.1-2.1-0.4c-0.4-0.1-0.7-0.4-0.7-0.8
	c0-0.4,0.4-0.7,0.8-0.7c0.3,0,0.6,0.2,0.8,0.5c0.1,0.2,0.2,0.4,0.4,0.6c0.3,0.2,0.7,0.4,1.1,0.4c0.8,0,1.5-0.3,2-0.9
	c0.5-0.6,0.9-1.4,1-2.2l0.2-1.3l0,0c-0.6,1.1-1.7,1.8-2.9,1.8c-1.4,0-2.5-1.1-2.5-2.5c0-0.1,0-0.2,0-0.3c0-2.3,1.7-4.7,4.1-4.7
	c0.8,0,1.5,0.3,2.1,0.9l0.3-0.7h1.2L428.3,91.8z M427.8,86.8c-0.4-0.5-1-0.8-1.7-0.8c-1.9,0-2.8,2.7-2.8,4.3c0,0.9,0.2,1.7,1.2,1.7
	c1-0.2,1.9-0.8,2.4-1.8c0.5-1,0.8-2,0.9-3.1L427.8,86.8z"/>
<path class="st1" d="M431.8,84.2c0-0.2,0.1-0.3,0.1-0.5c0-0.4-0.2-0.7-0.6-0.7h-0.5l0.1-0.4c0.7-0.1,1.4-0.3,2.1-0.5h0.5l-0.7,4.5
	c0.9-0.7,2-1.1,3.1-1.2c0.9,0,1.9,0.4,1.9,1.4c0,0.5-0.1,0.9-0.2,1.4l-0.3,2.2c-0.1,0.3-0.1,0.7-0.1,1c0,0.4,0.4,0.8,0.8,0.8
	c0,0,0,0,0,0l0,0c0.4,0,0.7-0.2,1-0.5l0.3,0.3c-0.5,0.6-1.2,0.9-2,1c-0.8,0.1-1.4-0.5-1.5-1.2c0-0.1,0-0.1,0-0.2
	c0-0.3,0.1-0.6,0.1-0.9l0.4-2.7c0-0.3,0.1-0.5,0.1-0.8l0,0c0-0.5-0.4-0.9-0.9-0.9c0,0,0,0-0.1,0h-0.1c-1,0.1-1.9,0.6-2.7,1.2l-1,5.4
	h-1.4L431.8,84.2z"/>
<path class="st1" d="M446,91.3c-1,0.8-2.3,1.3-3.6,1.4c-1.6,0.1-3-1-3.2-2.6c0,0,0-0.1,0-0.1c0.1-1.3,0.6-2.5,1.6-3.3
	c1-0.9,2.2-1.3,3.5-1.4c1,0,2.5,0.4,2.5,1.6c0,2-4.3,2.4-5.9,2.5c-0.1,0.2-0.1,0.5-0.1,0.7c0,1,0.8,1.9,1.9,1.9c0,0,0,0,0,0h0.3
	c1-0.1,2-0.5,2.8-1.1L446,91.3z M440.9,88.8c1.3,0,4.4-0.3,4.4-1.9c0-0.6-0.6-1.1-1.3-1.1h-0.1C442.4,85.8,441.3,87.5,440.9,88.8
	L440.9,88.8L440.9,88.8z"/>
<path class="st1" d="M450,86.4L450,86.4c0.6-0.6,1.5-1,2.4-1.1c0.4-0.1,0.8,0.2,0.9,0.7l0,0c0,0.5-0.4,0.8-0.9,0.8c0,0,0,0,0,0h-0.1
	c-0.6,0-0.8-0.4-1.2-0.4c-1.2,0-1.5,1.8-1.6,2.7l-0.6,3.6h-1.4l0.9-5.2c0-0.2,0.1-0.3,0.1-0.5c0-0.6-0.5-0.7-1-0.7l0.1-0.4l2.1-0.3
	h0.5L450,86.4z"/>
<path class="st1" d="M464.8,92.6h-8l0.1-0.5c1.2-0.1,1.4-0.6,1.5-1.6l1.1-6.1c0-0.2,0-0.3,0-0.5c0.1-0.5-0.3-0.9-0.8-1c0,0,0,0,0,0
	h-0.3l0.1-0.4h4.1l-0.1,0.4h-0.1c-0.4,0-0.7,0.1-1,0.4c-0.3,0.3-0.5,0.8-0.5,1.3l-1,5.8c-0.1,0.3-0.1,0.6-0.1,0.9
	c0,0.7,0.6,0.7,1.1,0.7c1.9-0.1,3.7-1.1,4.8-2.7l0.4,0.2L464.8,92.6z"/>
<path class="st1" d="M472.9,91.3c-1,0.8-2.3,1.3-3.6,1.4c-1.6,0.1-3-1-3.2-2.6c0,0,0-0.1,0-0.1c0.1-1.3,0.6-2.5,1.6-3.3
	c1-0.9,2.2-1.3,3.5-1.4c1,0,2.5,0.4,2.5,1.6c0,2-4.3,2.4-5.9,2.5c-0.1,0.2-0.1,0.5-0.1,0.7c0,1,0.8,1.9,1.9,1.9c0,0,0,0,0,0h0.3
	c1-0.1,2-0.5,2.8-1.1L472.9,91.3z M467.8,88.8c1.3,0,4.4-0.3,4.4-1.9c0-0.6-0.6-1.1-1.3-1.1h-0.1C469.3,85.8,468.2,87.5,467.8,88.8
	L467.8,88.8L467.8,88.8z"/>
<path class="st1" d="M476.3,90.4c0,0.2-0.1,0.4-0.1,0.7c0,0.5,0.3,1,0.8,1c0,0,0,0,0.1,0h0.2c1.8-0.1,3.2-1.7,3.2-3.5
	c0-1.7-1.2-1.5-1.2-2.3c0-0.5,0.4-0.9,0.9-0.9c0.4,0,0.7,0.3,0.9,0.7c0.2,0.4,0.3,0.9,0.3,1.4c0,2.7-1.7,5.4-4.6,5.4
	c-1,0-2-0.3-2-1.5c0-0.3,0.1-0.7,0.1-1l0.5-2.7c0-0.2,0.1-0.3,0.1-0.5c0-0.4-0.2-0.7-0.6-0.7c0,0,0,0,0,0h-0.1l-0.4-0.1l0.1-0.4
	c0.7,0,1.5-0.1,2.2-0.3h0.5L476.3,90.4z"/>
<path class="st1" d="M488.9,91.3c-1,0.8-2.3,1.3-3.6,1.4c-1.6,0.1-3-1-3.2-2.6c0,0,0-0.1,0-0.1c0.1-1.3,0.6-2.5,1.6-3.3
	c1-0.9,2.2-1.3,3.5-1.4c1,0,2.5,0.4,2.5,1.6c0,2-4.3,2.4-5.9,2.5c-0.1,0.2-0.1,0.5-0.1,0.7c0,1,0.8,1.9,1.9,1.9c0,0,0,0,0,0h0.3
	c1-0.1,2-0.5,2.8-1.1L488.9,91.3z M483.8,88.8c1.3,0,4.4-0.3,4.4-1.9c0-0.6-0.6-1.1-1.3-1.1h-0.1C485.3,85.8,484.2,87.5,483.8,88.8z
	"/>
<path class="st1" d="M492.1,90c-0.1,0.3-0.1,0.7-0.1,1v0.1c0,0.5,0.3,0.8,0.8,0.8c0,0,0,0,0,0l0,0c0.4-0.1,0.8-0.3,1-0.6l0.3,0.3
	c-0.5,0.7-1.4,1.1-2.2,1.1c-0.7,0-1.4-0.6-1.4-1.3c0,0,0,0,0,0s0-0.1,0-0.1c0-0.4,0-0.8,0.1-1.1l1-5.9c0-0.2,0.1-0.3,0.1-0.5
	c0-0.7-0.5-0.7-1.1-0.8l0.1-0.4c0.7-0.1,1.4-0.3,2.1-0.5h0.6L492.1,90z"/>
<path class="st1" d="M406.2,113.1c-1.6,0.1-3-1-3.1-2.6c0-0.1,0-0.3,0-0.4c0-1.1,0.5-2.2,1.2-3c0.8-0.9,2-1.4,3.2-1.4
	c1.6-0.1,3,1.1,3.1,2.7c0,0.1,0,0.2,0,0.3C410.6,111.1,408.6,113.1,406.2,113.1L406.2,113.1L406.2,113.1z M406.3,112.4
	c1,0,1.8-0.6,2.2-1.5c0.4-0.8,0.6-1.7,0.6-2.6c0-0.6-0.1-1.1-0.5-1.6c-0.3-0.3-0.8-0.4-1.2-0.4c-2,0-2.8,2.5-2.8,4.1
	C404.6,111.6,405.1,112.4,406.3,112.4C406.3,112.4,406.3,112.4,406.3,112.4z"/>
<path class="st1" d="M416.3,105.8l-0.1,0.4h-1.5l-1,5.7c-0.1,1.1-0.4,2.1-1,3c-0.7,0.9-1.9,1.3-3,1.2c-0.6,0-2-0.2-2-1.1
	c0-0.3,0.3-0.6,0.6-0.5c0,0,0,0,0,0h0.1c1,0,1,1.1,2,1.1c0.4,0,0.8-0.2,1.1-0.5c0.3-0.4,0.4-0.9,0.5-1.4l0.2-1l1.1-6.5H412l0.1-0.4
	h1.4c0-0.9,0.3-1.7,0.8-2.4c0.6-0.7,1.5-1.2,2.4-1.2c0.5,0,1.7,0.2,1.7,0.9c0,0.3-0.3,0.6-0.7,0.6c0,0,0,0,0,0l0,0
	c-0.9,0-0.6-0.9-1.5-0.9c-0.3,0-0.7,0.2-0.8,0.5c-0.2,0.4-0.4,0.8-0.4,1.3l-0.2,1.2L416.3,105.8L416.3,105.8z"/>
<path class="st1" d="M430.5,105.8l-0.6,0.2c-0.6-1.5-2.1-2.5-3.8-2.3h-0.3c-0.4,0-0.8,0-1.1,0.2c-0.4,0.2-0.6,0.6-0.5,1.1l-0.4,2.5
	h1c1.4,0,1.7-0.4,2.1-1.8h0.5l-0.7,4.2H426v-0.2c0-1.1-0.3-1.6-1.5-1.6h-1.1l-0.5,3.1c0,0.2,0,0.3,0,0.5c0,0.7,0.8,0.7,1.4,0.7h0.1
	c2,0,3.9-0.9,5.1-2.5l0.5,0.2l-1.4,3h-8.8l0.1-0.4c1.2-0.1,1.4-0.6,1.5-1.6l1.1-6.1c0-0.2,0.1-0.3,0.1-0.5c0.1-0.5-0.3-0.9-0.8-1
	c0,0,0,0,0,0h-0.3l0.1-0.4h8.2L430.5,105.8z"/>
<path class="st1" d="M438.3,112.1c-0.5,0.5-1.2,0.9-1.9,0.9c-1.2,0-1.7-1.1-2.1-2.1l-0.5-1.2c-0.6,1.1-1.8,3.2-3.3,3.2
	c-0.4,0-0.7-0.4-0.7-0.8c0-0.4,0.4-0.7,0.8-0.7h0.5c1.1,0,2-1.6,2.5-2.5l-0.3-0.8c-0.4-1-0.6-1.6-1.7-1.8l0.1-0.4
	c0.6,0,1.3-0.2,1.9-0.4h0.4l1,3.1c0.6-1,2.1-3.2,3.4-3.2c0.3,0,0.6,0.3,0.6,0.6c0,0,0,0,0,0l0,0c0,0.5-0.5,0.9-1,0.8c0,0,0,0,0,0
	h-0.3c-0.4,0-0.7,0.2-1,0.4c-0.6,0.5-1.1,1.2-1.5,1.9c0.4,0.8,0.9,2.8,2,2.8c0.3,0,0.6-0.1,0.8-0.3L438.3,112.1z"/>
<path class="st1" d="M441.4,107.7L441.4,107.7c0.5-1.2,1.7-2,3-2.1c1.3,0,2.4,1,2.4,2.4c0,0.1,0,0.2,0,0.3v0.2
	c0,1.1-0.4,2.2-1.1,3.1c-0.7,0.9-1.8,1.5-3,1.5c-0.8,0-1.6-0.3-2.2-0.9l-0.4,2.2c0,0.2-0.1,0.3-0.1,0.5c0,0.7,0.5,0.7,1.1,0.8
	l-0.1,0.4h-3.8l0.1-0.4c1.2-0.1,1.4-0.6,1.5-1.6l1.1-6.2c0-0.2,0.1-0.3,0.1-0.5c0-0.3-0.2-0.7-0.5-0.7h-0.1l-0.4-0.1l0.1-0.4
	l2.1-0.2h0.5L441.4,107.7z M440.7,111.6c0.4,0.5,1,0.8,1.7,0.8c2,0,2.9-2.7,2.9-4.3c0-0.9-0.3-1.7-1.3-1.7c-1,0.1-1.9,0.8-2.3,1.7
	c-0.4,1-0.8,2-0.9,3L440.7,111.6z"/>
<path class="st1" d="M454.3,111.7c-1,0.8-2.3,1.3-3.6,1.4c-1.6,0.1-3-1-3.2-2.6c0,0,0-0.1,0-0.1c0.1-1.3,0.6-2.5,1.6-3.3
	c1-0.9,2.2-1.3,3.5-1.4c1,0,2.5,0.4,2.5,1.6c0,2-4.3,2.4-5.9,2.5c-0.1,0.2-0.1,0.5-0.1,0.7c0,1,0.8,1.9,1.9,1.9c0,0,0,0,0,0h0.3
	c1-0.1,2-0.5,2.8-1.1L454.3,111.7z M449.2,109.2c1.3,0,4.4-0.3,4.4-1.9c0-0.6-0.6-1.1-1.3-1.1h0
	C450.7,106.2,449.6,107.8,449.2,109.2L449.2,109.2z"/>
<path class="st1" d="M458.3,106.7L458.3,106.7c0.6-0.6,1.5-1,2.4-1.1c0.4-0.1,0.8,0.2,0.9,0.7l0,0c0,0.5-0.4,0.8-0.9,0.8
	c0,0,0,0,0,0h-0.1c-0.6,0-0.8-0.4-1.2-0.4c-1.2,0-1.5,1.8-1.6,2.7l-0.6,3.6h-1.3l0.9-5.2c0-0.2,0.1-0.3,0.1-0.5c0-0.6-0.5-0.7-1-0.7
	l0.1-0.4l2.1-0.3h0.5L458.3,106.7z"/>
<path class="st1" d="M464.4,105.8h2.1l-0.1,0.4h-2.1l-0.7,4c-0.1,0.4-0.1,0.8-0.1,1.2c-0.1,0.5,0.2,0.9,0.6,1c0,0,0,0,0,0h0.2
	c0.5,0,1.1-0.3,1.4-0.7l0.3,0.4c-0.6,0.6-1.4,0.9-2.3,0.9c-0.8,0-1.8-0.3-1.8-1.2c0-0.4,0.1-0.9,0.2-1.3l0.8-4.3h-1.3l0.1-0.4
	c1.8-0.1,2.2-1.1,2.5-2.7h0.5L464.4,105.8z"/>
<path class="st1" d="M468.5,110.9c0,0.2-0.1,0.3-0.1,0.5c0,0.4,0.3,0.8,0.7,0.8c0,0,0,0,0,0h0.1c0.4,0,0.7-0.2,1-0.5l0.3,0.3
	c-0.5,0.6-1.3,1-2.1,1c-0.7,0-1.4-0.5-1.4-1.3c0-0.1,0-0.1,0-0.2c0-0.2,0-0.5,0.1-0.7l0.5-3c0-0.2,0.1-0.3,0.1-0.5
	c0-0.6-0.4-0.7-1-0.8h-0.1l0.1-0.4l0.6-0.1c0.5-0.1,1-0.2,1.5-0.3h0.5L468.5,110.9z M469.1,104.9c-0.4,0-0.7-0.3-0.7-0.7
	c0,0,0,0,0,0l0,0c0-0.5,0.5-1,1-1c0.4,0,0.7,0.2,0.8,0.6c0,0,0,0.1,0,0.1C470.1,104.5,469.6,104.9,469.1,104.9L469.1,104.9
	L469.1,104.9z"/>
<path class="st1" d="M472.6,109.3c-0.6-0.2-1-0.8-1-1.5c0-0.7,0.4-1.3,1-1.6c0.6-0.4,1.3-0.6,2-0.6c0.8,0,1.7,0.2,2.4,0.5
	c0.4,0.1,0.6,0.4,0.7,0.8c0,0.3-0.2,0.6-0.6,0.6c0,0,0,0,0,0h-0.1c-0.4,0-0.7-0.2-0.8-0.5c-0.1-0.3-0.4-0.5-0.6-0.6
	c-0.3-0.2-0.7-0.3-1-0.2c-0.7-0.1-1.4,0.4-1.5,1.1c0,0,0,0,0,0v0.1c0,0.3,0.2,0.7,0.5,0.8c0.5,0.2,1,0.4,1.5,0.5
	c1,0.3,2.3,0.6,2.3,1.9c0,0.8-0.5,1.5-1.2,1.9c-0.7,0.4-1.5,0.6-2.3,0.6c-0.9,0-1.7-0.2-2.5-0.6c-0.4-0.2-0.7-0.6-0.8-1
	c0-0.4,0.3-0.7,0.7-0.7c1.3,0,0.8,1.6,2.8,1.6c0.4,0,0.9-0.1,1.3-0.4c0.3-0.2,0.6-0.6,0.6-1c-0.1-0.7-0.7-1.1-1.3-1.2L472.6,109.3z"
	/>
<path class="st1" d="M485.3,111.7c-1,0.8-2.3,1.3-3.6,1.4c-1.6,0.1-3-1-3.2-2.6c0,0,0-0.1,0-0.1c0.1-1.3,0.6-2.5,1.6-3.3
	c1-0.9,2.2-1.3,3.5-1.4c1,0,2.5,0.4,2.5,1.6c0,2-4.3,2.4-5.9,2.5c-0.1,0.2-0.1,0.5-0.1,0.7c0,1,0.8,1.9,1.9,1.9c0,0,0,0,0,0h0.3
	c1-0.1,2-0.5,2.8-1.1L485.3,111.7z M480.3,109.2c1.3,0,4.4-0.3,4.4-1.9c0-0.6-0.6-1.1-1.3-1.1h-0.1
	C481.7,106.2,480.6,107.8,480.3,109.2L480.3,109.2L480.3,109.2z"/>
<path class="st1" d="M532.6,82.6c0.8,0,1.6,0.1,2.4,0.3c0.8,0.3,1.3,1,1.3,1.8c-0.1,1.3-1.2,2.4-2.6,2.5l0,0c1.2,0,2.1,1,2.2,2.1
	c0,1.2-0.7,2.2-1.7,2.8c-1.1,0.5-2.3,0.7-3.5,0.6h-5.2l0.1-0.4c1.2-0.1,1.4-0.7,1.6-1.6l1.1-6.1c0-0.2,0.1-0.3,0.1-0.5
	c0.1-0.5-0.3-0.9-0.7-1c0,0,0,0,0,0h-0.3l0.1-0.4H532.6z M528.6,90.7c0,0.2,0,0.4,0,0.6c0,0.3,0.1,0.5,0.4,0.6
	c0.5,0.1,0.9,0.2,1.4,0.2c1,0.1,1.9-0.1,2.7-0.6c0.7-0.5,1.1-1.4,1.1-2.2c0.1-0.7-0.4-1.4-1.1-1.5c-0.7-0.1-1.4-0.2-2.1-0.2h-1.8
	L528.6,90.7z M531.1,86.9c0.9,0.1,1.7-0.1,2.5-0.4c0.7-0.3,1.1-1,1.2-1.8c0-1.5-1.8-1.6-2.9-1.6h-0.1c-0.5-0.1-1.1,0.1-1.6,0.3
	c-0.2,0.2-0.4,0.6-0.4,0.9l-0.5,2.5L531.1,86.9L531.1,86.9z"/>
<path class="st1" d="M543.7,91.3c-1,0.8-2.3,1.3-3.6,1.4c-1.6,0.1-3-1-3.2-2.6c0,0,0-0.1,0-0.1c0.1-1.3,0.6-2.5,1.6-3.3
	c1-0.9,2.2-1.3,3.5-1.4c1,0,2.5,0.4,2.5,1.6c0,2-4.3,2.4-5.9,2.5c-0.1,0.2-0.1,0.5-0.1,0.7c0,1,0.8,1.9,1.9,1.9c0,0,0,0,0,0h0.3
	c1-0.1,2-0.5,2.8-1.1L543.7,91.3z M538.6,88.8c1.3,0,4.4-0.3,4.4-1.9c0-0.6-0.6-1.1-1.3-1.1h-0.1C540.1,85.8,539,87.5,538.6,88.8z"
	/>
<path class="st1" d="M547.9,85.5h2.1l-0.1,0.4h-2.1l-0.7,4c-0.1,0.4-0.1,0.8-0.2,1.2c-0.1,0.5,0.2,0.9,0.6,1c0,0,0,0,0,0h0.2
	c0.5,0,1.1-0.3,1.4-0.7l0.3,0.4c-0.6,0.6-1.4,0.9-2.3,0.9c-0.8,0-1.8-0.3-1.8-1.2c0-0.4,0.1-0.9,0.2-1.3l0.8-4.3h-1.3l0.1-0.4
	c1.8-0.1,2.2-1.1,2.5-2.7h0.5L547.9,85.5z"/>
<path class="st1" d="M552.9,85.5h2.1l-0.1,0.4h-2.1l-0.7,4c-0.1,0.4-0.1,0.8-0.2,1.2c-0.1,0.5,0.2,0.9,0.6,1c0,0,0,0,0,0h0.2
	c0.5,0,1.1-0.3,1.4-0.7l0.3,0.4c-0.6,0.6-1.4,0.9-2.3,0.9c-0.8,0-1.8-0.3-1.8-1.2c0-0.4,0.1-0.9,0.2-1.3l0.8-4.3h-1.3l0.1-0.4
	c1.8-0.1,2.2-1.1,2.5-2.7h0.5L552.9,85.5z"/>
<path class="st1" d="M561.8,91.3c-1,0.8-2.3,1.3-3.6,1.4c-1.6,0.1-3-1-3.2-2.6c0,0,0-0.1,0-0.1c0.1-1.3,0.6-2.5,1.6-3.3
	c1-0.9,2.2-1.3,3.5-1.4c1,0,2.5,0.4,2.5,1.6c0,2-4.3,2.4-5.9,2.5c-0.1,0.2-0.1,0.5-0.1,0.7c0,1,0.8,1.9,1.8,1.9h0.3
	c1-0.1,2-0.5,2.8-1.1L561.8,91.3z M556.7,88.8c1.3,0,4.4-0.3,4.4-1.9c0-0.6-0.6-1.1-1.3-1.1h-0.1C558.2,85.8,557,87.5,556.7,88.8
	L556.7,88.8z"/>
<path class="st1" d="M565.7,86.4L565.7,86.4c0.6-0.6,1.5-1,2.4-1.1c0.4-0.1,0.8,0.2,0.9,0.7l0,0c0,0.5-0.4,0.8-0.9,0.8c0,0,0,0,0,0
	h-0.1c-0.6,0-0.8-0.4-1.2-0.4c-1.2,0-1.5,1.8-1.6,2.7l-0.6,3.6h-1.3l0.9-5.2c0-0.2,0.1-0.3,0.1-0.5c0-0.6-0.5-0.7-1-0.7l0.1-0.4
	l2.1-0.3h0.5L565.7,86.4z"/>
<path class="st1" d="M576.2,87.8l-0.5,2.9v0.6c0,0.2,0.1,0.4,0.2,0.6c0.2,0.2,0.5,0.4,0.8,0.4h0.3l-0.1,0.4h-4.2l0.1-0.4
	c1.2-0.1,1.4-0.6,1.5-1.6l1.1-6.1c0-0.2,0.1-0.3,0.1-0.5c0.1-0.5-0.3-0.9-0.7-1c0,0,0,0,0,0h-0.3l0.1-0.4h5.3c1.6,0,3.4,0.2,3.4,2.2
	c-0.1,1.7-1.6,3-3.3,3l1.7,3c0.3,0.8,0.9,1.3,1.7,1.4l-0.1,0.4h-2.4l-2.5-4.8L576.2,87.8L576.2,87.8L576.2,87.8z M578.1,87.2
	c0.8,0.1,1.6-0.1,2.3-0.4c0.7-0.4,1.1-1.2,1.1-2c0-0.6-0.3-1.1-0.9-1.3c-0.6-0.2-1.2-0.3-1.8-0.3c-0.6,0-1.1,0.1-1.7,0.3
	c-0.3,0.2-0.4,0.5-0.4,0.9l-0.5,2.9L578.1,87.2L578.1,87.2L578.1,87.2z"/>
<path class="st1" d="M590.5,91.3c-1,0.8-2.3,1.3-3.6,1.4c-1.6,0.1-3-1-3.2-2.6c0,0,0-0.1,0-0.1c0.1-1.3,0.6-2.5,1.6-3.3
	c1-0.9,2.2-1.3,3.5-1.4c1,0,2.5,0.4,2.5,1.6c0,2-4.3,2.4-5.9,2.5c-0.1,0.2-0.1,0.5-0.1,0.7c0,1,0.8,1.9,1.9,1.9c0,0,0,0,0,0h0.3
	c1-0.1,2-0.5,2.8-1.1L590.5,91.3z M585.4,88.8c1.3,0,4.4-0.3,4.4-1.9c0-0.6-0.6-1.1-1.3-1.1h-0.1C586.8,85.8,585.7,87.5,585.4,88.8z
	"/>
<path class="st1" d="M594.4,87.4L594.4,87.4c0.5-1.2,1.7-2,3-2.1c1.3,0,2.4,1,2.4,2.4c0,0.1,0,0.2,0,0.3v0.2c0,1.1-0.4,2.2-1.1,3.1
	c-0.7,0.9-1.8,1.5-3,1.5c-0.8,0-1.6-0.3-2.2-0.9l-0.4,2.2c0,0.2-0.1,0.3-0.1,0.5c0,0.7,0.5,0.7,1.1,0.8l-0.1,0.4h-3.9l0.1-0.4
	c1.2-0.1,1.4-0.6,1.5-1.6l1.1-6.2c0-0.2,0.1-0.3,0.1-0.5c0-0.3-0.2-0.7-0.5-0.7h-0.1l-0.4-0.1l0.1-0.4l2.1-0.2h0.5L594.4,87.4z
	 M593.7,91.2c0.4,0.5,1,0.8,1.7,0.8c2,0,2.9-2.7,2.9-4.3c0-0.9-0.3-1.7-1.3-1.7c-1,0.1-1.9,0.8-2.3,1.7c-0.4,1-0.8,2-0.9,3
	L593.7,91.2z"/>
<path class="st1" d="M603.6,92.7c-1.6,0.1-3-1-3.1-2.6c0-0.1,0-0.3,0-0.4c0-1.1,0.5-2.2,1.2-3c0.8-0.9,2-1.4,3.2-1.4
	c1.6-0.1,3,1.1,3.1,2.7c0,0.1,0,0.2,0,0.3C608,90.8,606,92.7,603.6,92.7L603.6,92.7L603.6,92.7z M603.7,92c1,0,1.8-0.6,2.2-1.5
	c0.4-0.8,0.6-1.7,0.6-2.6c0-0.6-0.1-1.1-0.5-1.6c-0.3-0.3-0.8-0.4-1.2-0.4c-2,0-2.8,2.5-2.8,4.1C602,91.2,602.5,92,603.7,92
	L603.7,92L603.7,92z"/>
<path class="st1" d="M611.3,86.4L611.3,86.4c0.6-0.6,1.5-1,2.4-1.1c0.4-0.1,0.8,0.2,0.9,0.7l0,0c0,0.5-0.4,0.8-0.9,0.8c0,0,0,0,0,0
	h-0.1c-0.6,0-0.8-0.4-1.2-0.4c-1.2,0-1.5,1.8-1.6,2.7l-0.5,3.6h-1.3l0.9-5.2c0-0.2,0.1-0.3,0.1-0.5c0-0.6-0.5-0.7-1-0.7l0.1-0.4
	l2.1-0.3h0.5L611.3,86.4z"/>
<path class="st1" d="M617.4,85.5h2.1l-0.1,0.4h-2.1l-0.7,4c-0.1,0.4-0.1,0.8-0.2,1.2c-0.1,0.5,0.2,0.9,0.6,1c0,0,0,0,0,0h0.2
	c0.5,0,1.1-0.3,1.4-0.7l0.3,0.4c-0.6,0.6-1.4,0.9-2.3,0.9c-0.8,0-1.8-0.3-1.8-1.2c0-0.4,0.1-0.9,0.2-1.3l0.8-4.3h-1.3l0.1-0.4
	c1.8-0.1,2.2-1.1,2.5-2.7h0.5L617.4,85.5z"/>
<path class="st1" d="M621.6,90.6c0,0.2-0.1,0.3-0.1,0.5c0,0.4,0.3,0.8,0.7,0.8c0,0,0,0,0,0h0.1c0.4,0,0.7-0.2,1-0.5l0.3,0.3
	c-0.5,0.6-1.3,1-2.1,1c-0.7,0-1.4-0.5-1.4-1.3c0-0.1,0-0.1,0-0.2c0-0.2,0-0.5,0.1-0.7l0.5-3c0-0.2,0.1-0.3,0.1-0.5
	c0-0.6-0.4-0.7-1-0.8l0,0l0.1-0.4l0.6-0.1c0.5-0.1,1-0.2,1.5-0.3h0.5L621.6,90.6z M622.1,84.6c-0.4,0-0.7-0.3-0.7-0.7c0,0,0,0,0,0
	l0,0c0-0.5,0.5-1,1-1c0.4,0,0.7,0.2,0.8,0.6c0,0,0,0.1,0,0.1C623.1,84.1,622.7,84.6,622.1,84.6z"/>
<path class="st1" d="M625.3,92.6h-1.3l0.9-5.1c0-0.2,0.1-0.4,0.1-0.6c0-0.6-0.5-0.7-1-0.7l0.1-0.4l2.1-0.3h0.5l-0.2,1.1
	c0.9-0.7,2-1.1,3.1-1.2c0.8-0.2,1.7,0.4,1.8,1.2c0,0.1,0,0.1,0,0.2c0,0.3,0,0.6-0.1,0.9l-0.5,3c0,0.2-0.1,0.4-0.1,0.7
	c0,0.4,0.3,0.7,0.7,0.8c0.4,0,0.7-0.2,1-0.5l0.3,0.3c-0.5,0.6-1.2,0.9-2,0.9c-0.7,0-1.3-0.5-1.4-1.3c0,0,0,0,0,0c0,0,0,0,0-0.1l0,0
	c0-0.5,0.1-1,0.2-1.4l0.4-2.4c0-0.2,0.1-0.5,0.1-0.7c0-0.5-0.5-0.9-1-0.9c-1,0.1-1.9,0.5-2.6,1.2L625.3,92.6z"/>
<path class="st1" d="M639.3,91.8c0,1.1-0.5,2.2-1.3,3c-0.9,0.7-2.1,1.1-3.2,1.1c-0.7,0-1.5-0.1-2.1-0.4c-0.4-0.1-0.7-0.4-0.7-0.8
	c0-0.4,0.4-0.7,0.8-0.7c0.3,0,0.6,0.2,0.8,0.5c0.1,0.2,0.2,0.4,0.4,0.6c0.3,0.2,0.7,0.4,1.1,0.4c0.8,0,1.5-0.3,2-0.9
	c0.5-0.6,0.9-1.4,1-2.2l0.2-1.3l0,0c-0.6,1.1-1.7,1.8-2.9,1.8c-1.4,0-2.5-1.1-2.5-2.5c0-0.1,0-0.2,0-0.3c0-2.3,1.7-4.7,4.1-4.7
	c0.8,0,1.5,0.3,2.1,0.9l0.3-0.7h1.2L639.3,91.8z M638.8,86.8c-0.4-0.5-1-0.8-1.7-0.8c-1.9,0-2.8,2.7-2.8,4.3c0,0.9,0.2,1.7,1.2,1.7
	c1-0.2,1.9-0.8,2.3-1.8c0.5-1,0.8-2,0.9-3.1L638.8,86.8z"/>
<path class="st1" d="M548,113.2c-0.8,0-1.6-0.2-2.3-0.6c-0.8-0.5-1.3-1.3-1.3-2.2c0-1.8,1.7-3.1,3.3-3.5c-0.4-0.5-0.6-1-0.6-1.6
	c0.1-1.6,1.4-2.8,3-2.7c0.9-0.1,1.8,0.6,1.8,1.6c0,0,0,0,0,0c0,0,0,0,0,0.1c0,1.3-1.3,2.3-2.4,2.6c1,1,1.9,2.2,2.5,3.5
	c0.5-0.5,0.8-1.1,1-1.8c0-0.2-0.1-0.3-0.2-0.3c0,0,0,0,0,0h0c-0.4,0-0.7-0.4-0.7-0.8l0,0c0.1-0.5,0.5-0.9,1-1c0.6,0,1.1,0.5,1.1,1.1
	v0c0,0,0,0.1,0,0.1c0,1.1-1.1,2.6-1.8,3.4c0.4,0.7,0.8,1.6,1.8,1.6c0.3,0.1,0.6-0.1,0.7-0.5c0-0.3-0.4-0.2-0.4-0.9
	c0-0.5,0.4-0.9,0.9-0.9c0.5,0,0.9,0.4,0.8,0.9c0,1.2-1.3,2-2.5,2c-0.9,0-1.8-0.4-2.3-1.2C550.3,112.8,549.2,113.2,548,113.2z
	 M546,110.3c-0.1,1.1,0.7,2.1,1.8,2.2c0.1,0,0.3,0,0.4,0c1,0,2-0.3,2.8-1c-0.7-1.6-1.6-3-2.9-4.1C546.8,107.7,545.9,109,546,110.3
	L546,110.3L546,110.3z M549.9,103.2c-0.9,0-1.5,0.8-1.5,1.6l0,0c0,0.6,0.3,1.2,0.7,1.6c1-0.3,1.7-1.2,1.8-2.3
	C550.9,103.6,550.4,103.2,549.9,103.2L549.9,103.2L549.9,103.2z"/>
<path class="st1" d="M569.3,110.8c0.2,1,0.2,1.6,1.4,1.7l-0.1,0.4h-4l0.1-0.4c0.6-0.1,1.2-0.2,1.2-0.9c0-0.2,0-0.3-0.1-0.5l-0.4-1.9
	h-3.7l-0.7,1.3c-0.3,0.4-0.4,0.8-0.5,1.3c0,0.4,0.4,0.8,0.8,0.7c0,0,0,0,0,0h0.3l-0.1,0.4h-3.9l0.1-0.4c0.8-0.1,1.5-0.6,1.9-1.4
	l4.6-8.2h1.4L569.3,110.8z M566.4,104.1l-2.4,4.4h3.4L566.4,104.1z"/>
<path class="st1" d="M573.1,113h-1.3l0.9-5.1c0-0.2,0.1-0.4,0.1-0.6c0-0.6-0.5-0.7-1-0.7l0.1-0.4l2.1-0.3h0.5l-0.2,1.1
	c0.9-0.7,2-1.1,3.1-1.2c0.8-0.1,1.6,0.4,1.8,1.3c0,0.1,0,0.1,0,0.2c0,0.3,0,0.6-0.1,0.9l-0.5,2.9c0,0.2-0.1,0.4-0.1,0.7
	c0,0.4,0.3,0.7,0.7,0.8c0.4,0,0.7-0.2,1-0.5l0.3,0.3c-0.5,0.6-1.2,0.9-2,0.9c-0.7,0-1.3-0.5-1.4-1.3c0,0,0,0,0,0c0,0,0,0,0-0.1l0,0
	c0-0.5,0.1-1,0.2-1.4l0.4-2.3c0-0.2,0.1-0.5,0.1-0.7c0-0.5-0.5-0.9-1-0.9c-1,0.1-1.9,0.5-2.6,1.2L573.1,113z"/>
<path class="st1" d="M587.6,110.8c-0.1,0.2-0.1,0.4-0.1,0.6c0,0.4,0.3,0.8,0.8,0.8c0,0,0,0,0,0l0,0c0.4,0,0.8-0.2,1-0.6l0.3,0.3
	c-0.5,0.6-1.3,1-2.1,1.1c-0.8,0-1.4-0.6-1.5-1.4c0-0.1,0-0.1,0-0.2v-0.2l0,0c-0.6,1.1-1.8,1.8-3,1.8c-1.4,0-2.5-1.1-2.6-2.5
	c0-0.1,0-0.2,0-0.3c0-2.3,1.8-4.7,4.2-4.7c0.8,0,1.6,0.3,2.2,0.9l0.1-0.7h1.4L587.6,110.8z M585.2,106.3c-2,0-3.1,2.6-3.1,4.3
	c-0.1,0.8,0.4,1.6,1.2,1.7h0.2c1.1-0.2,2.1-0.9,2.5-2c0.4-1,0.7-2.1,0.9-3.2C586.5,106.6,585.8,106.3,585.2,106.3L585.2,106.3
	L585.2,106.3z"/>
<path class="st1" d="M591.7,110.4c-0.1,0.3-0.1,0.7-0.1,1v0.1c0,0.5,0.3,0.8,0.8,0.8c0,0,0,0,0,0l0,0c0.4-0.1,0.8-0.3,1-0.6l0.3,0.3
	c-0.5,0.7-1.4,1.1-2.2,1.1c-0.7,0-1.3-0.6-1.3-1.3c0,0,0-0.1,0-0.1c0-0.4,0.1-0.7,0.1-1.1l1-5.9c0-0.2,0.1-0.3,0.1-0.5
	c0-0.7-0.5-0.7-1.1-0.8l0.1-0.4c0.7-0.1,1.4-0.3,2.1-0.5h0.6L591.7,110.4z"/>
<path class="st1" d="M600.6,112.8c-0.1,1-0.6,2-1.5,2.5c-0.9,0.6-1.9,0.9-2.9,0.9c-0.7,0-1.3-0.1-1.9-0.4c-0.3-0.1-0.5-0.4-0.6-0.7
	c0-0.4,0.4-0.6,0.7-0.6l0,0c1,0,0.6,1.2,2,1.2c0.7,0,1.3-0.3,1.8-0.8c0.5-0.6,0.8-1.3,0.9-2.1l0.2-1.2c-0.9,0.9-2.1,1.4-3.3,1.5
	c-0.8,0.1-1.6-0.4-1.7-1.3c0-0.1,0-0.2,0-0.3V111l0.1-0.5l0.5-2.8c0-0.2,0.1-0.3,0.1-0.5c0-0.6-0.4-0.7-1-0.7l0.1-0.4h0.4l1.6-0.3
	h0.6l-0.8,4.7c0,0.2-0.1,0.5-0.1,0.8c-0.1,0.5,0.3,0.9,0.8,1c0,0,0,0,0,0h0.2c1.1-0.1,2.1-0.6,2.9-1.3l0.9-5.2h1.3L600.6,112.8z"/>
<path class="st1" d="M604.8,109.3c-0.6-0.2-1-0.8-1-1.5c0-0.7,0.4-1.3,1-1.6c0.6-0.4,1.3-0.6,2-0.6c0.8,0,1.7,0.2,2.4,0.5
	c0.4,0.1,0.6,0.4,0.7,0.8c0,0.3-0.2,0.6-0.6,0.6c0,0,0,0,0,0h-0.1c-0.4,0-0.7-0.2-0.8-0.5c-0.1-0.3-0.4-0.5-0.6-0.6
	c-0.3-0.2-0.7-0.3-1-0.2c-0.7-0.1-1.4,0.4-1.5,1.1c0,0,0,0,0,0v0.1c0,0.3,0.2,0.7,0.5,0.8c0.5,0.2,1,0.4,1.5,0.5
	c1,0.3,2.3,0.6,2.3,1.9c0,0.8-0.5,1.5-1.2,1.9c-0.7,0.4-1.5,0.6-2.3,0.6c-0.9,0-1.7-0.2-2.5-0.6c-0.4-0.2-0.7-0.6-0.8-1
	c0-0.4,0.3-0.7,0.7-0.7c1.3,0,0.8,1.6,2.8,1.6c0.4,0,0.9-0.1,1.3-0.4c0.3-0.2,0.6-0.6,0.6-1c-0.1-0.7-0.7-1.1-1.3-1.2L604.8,109.3z"
	/>
<path class="st1" d="M612.8,110.9c0,0.2-0.1,0.3-0.1,0.5c0,0.4,0.3,0.8,0.7,0.8c0,0,0,0,0,0h0.1c0.4,0,0.7-0.2,1-0.5l0.3,0.3
	c-0.5,0.6-1.3,1-2.1,1c-0.7,0-1.4-0.5-1.4-1.3c0-0.1,0-0.1,0-0.2c0-0.2,0-0.5,0.1-0.7l0.5-3c0-0.2,0.1-0.3,0.1-0.5
	c0-0.6-0.4-0.7-1-0.8H611l0.1-0.4l0.6-0.1c0.5-0.1,1-0.2,1.5-0.3h0.6L612.8,110.9z M613.3,104.9c-0.4,0-0.7-0.3-0.7-0.7c0,0,0,0,0,0
	l0,0c0-0.5,0.5-1,1-1c0.4,0,0.7,0.2,0.8,0.6c0,0,0,0.1,0,0.1C614.4,104.5,613.9,104.9,613.3,104.9L613.3,104.9L613.3,104.9z"/>
<path class="st1" d="M616.9,109.3c-0.6-0.2-1-0.8-1-1.5c0-0.7,0.4-1.3,1-1.6c0.6-0.4,1.3-0.6,2-0.6c0.8,0,1.7,0.2,2.4,0.5
	c0.4,0.1,0.6,0.4,0.7,0.8c0,0.3-0.2,0.6-0.6,0.6c0,0,0,0,0,0h-0.1c-0.4,0-0.7-0.2-0.8-0.5c-0.1-0.3-0.4-0.5-0.6-0.6
	c-0.3-0.2-0.7-0.3-1-0.2c-0.7-0.1-1.4,0.4-1.5,1.1c0,0,0,0,0,0v0.1c0,0.3,0.2,0.7,0.5,0.8c0.5,0.2,1,0.4,1.5,0.5
	c1,0.3,2.3,0.6,2.3,1.9c0,0.8-0.5,1.5-1.2,1.9c-0.7,0.4-1.5,0.6-2.3,0.6c-0.9,0-1.7-0.2-2.5-0.6c-0.4-0.2-0.7-0.6-0.8-1
	c0-0.4,0.3-0.7,0.7-0.7c1.3,0,0.8,1.6,2.8,1.6c0.4,0,0.9-0.1,1.3-0.4c0.3-0.2,0.6-0.6,0.6-1c-0.1-0.7-0.7-1.1-1.3-1.2L616.9,109.3z"
	/>
<path class="st1" d="M697.7,85.4h-0.5c-0.2-0.6-0.6-1.2-1-1.6c-0.6-0.5-1.4-0.8-2.2-0.8c-0.6,0-1.2,0.2-1.8,0.6
	c-0.4,0.3-0.7,0.8-0.8,1.4c0,0.9,1.1,1.2,1.8,1.4l2,0.6c1.3,0.3,2.4,0.8,2.4,2.3c0,1.1-0.6,2-1.5,2.6c-0.9,0.7-2,1-3.1,1
	c-1.1,0-2.2-0.3-3.1-1l-0.4,0.8h-0.5l-0.3-3.7h0.5c0.3,1.8,1.8,3.1,3.7,3.2c0.8,0,1.5-0.2,2.1-0.7c0.6-0.4,1-1.1,1-1.8
	c0-0.4-0.2-0.8-0.7-1c-0.6-0.3-1.3-0.5-1.9-0.6c-1.4-0.4-3.6-0.8-3.6-2.7c0-0.9,0.5-1.7,1.2-2.2c0.8-0.6,1.7-0.9,2.7-0.8
	c1,0,1.9,0.3,2.8,0.8l0.3-0.6h0.5L697.7,85.4z"/>
<path class="st1" d="M705.4,90.1c-0.1,0.3-0.1,0.7-0.1,1c0,0.4,0.3,0.8,0.7,0.8c0,0,0,0,0,0l0,0c0.4,0,0.8-0.2,1-0.5l0.3,0.3
	c-0.5,0.6-1.3,1-2.1,1c-0.8,0.1-1.4-0.5-1.5-1.3c0,0,0,0,0,0l0,0c-0.9,0.8-2,1.3-3.2,1.3c-0.8,0.1-1.5-0.4-1.7-1.2
	c0-0.1,0-0.1,0-0.2c0-0.3,0.1-0.7,0.1-1l0.5-2.8c0-0.2,0.1-0.4,0.1-0.6c0-0.4-0.3-0.7-0.6-0.7c0,0,0,0,0,0l0,0l-0.3-0.1l0.1-0.4
	l2.1-0.4h0.5l-0.8,4.9c0,0.2-0.1,0.4-0.1,0.7v0.1c0,0.5,0.4,0.9,0.9,0.9c0,0,0,0,0,0h0.1c1-0.1,1.9-0.5,2.7-1.2l1-5.4h1.3
	L705.4,90.1z"/>
<path class="st1" d="M710.2,87.4L710.2,87.4c0.5-1.2,1.7-2,3-2.1c1.3,0,2.4,1,2.4,2.4c0,0.1,0,0.2,0,0.3v0.2c0,1.1-0.4,2.2-1.1,3.1
	c-0.7,0.9-1.8,1.5-3,1.5c-0.8,0-1.6-0.3-2.2-0.9l-0.4,2.2c0,0.2-0.1,0.3-0.1,0.5c0,0.7,0.5,0.7,1.1,0.8l-0.1,0.4h-3.9l0.1-0.4
	c1.2-0.1,1.4-0.6,1.5-1.6l1.1-6.2c0-0.2,0.1-0.3,0.1-0.5c0-0.3-0.2-0.7-0.5-0.7h-0.1l-0.4-0.1l0.1-0.4l2.1-0.2h0.5L710.2,87.4z
	 M709.5,91.2c0.4,0.5,1,0.8,1.7,0.8c2,0,2.9-2.7,2.9-4.3c0-0.9-0.3-1.7-1.3-1.7c-1,0.1-1.9,0.8-2.3,1.7c-0.4,1-0.8,2-0.9,3
	L709.5,91.2z"/>
<path class="st1" d="M719.1,87.4L719.1,87.4c0.5-1.2,1.7-2,3-2.1c1.3,0,2.4,1,2.4,2.4c0,0.1,0,0.2,0,0.3v0.2c0,1.1-0.4,2.2-1.1,3.1
	c-0.7,0.9-1.8,1.5-3,1.5c-0.8,0-1.6-0.3-2.2-0.9l-0.4,2.2c0,0.2-0.1,0.3-0.1,0.5c0,0.7,0.5,0.7,1.1,0.8l-0.1,0.4h-3.9l0.1-0.4
	c1.2-0.1,1.4-0.6,1.5-1.6l1.1-6.2c0-0.2,0.1-0.3,0.1-0.5c0-0.3-0.2-0.7-0.5-0.7H717l-0.4-0.1l0.1-0.4l2.1-0.2h0.5L719.1,87.4z
	 M718.4,91.2c0.4,0.5,1,0.8,1.7,0.8c2,0,2.9-2.7,2.9-4.3c0-0.9-0.3-1.7-1.3-1.7c-1,0.1-1.9,0.8-2.3,1.7c-0.4,1-0.8,2-0.9,3
	L718.4,91.2z"/>
<path class="st1" d="M728.3,92.7c-1.6,0.1-3-1-3.1-2.6c0-0.1,0-0.3,0-0.4c0-1.1,0.5-2.2,1.2-3c0.8-0.9,2-1.4,3.2-1.4
	c1.6-0.1,3,1.1,3.1,2.7c0,0.1,0,0.2,0,0.3C732.7,90.8,730.7,92.7,728.3,92.7C728.3,92.7,728.3,92.7,728.3,92.7L728.3,92.7z
	 M728.3,92c1,0,1.8-0.6,2.2-1.5c0.4-0.8,0.6-1.7,0.6-2.6c0-0.6-0.1-1.1-0.5-1.6c-0.3-0.3-0.8-0.4-1.2-0.4c-2,0-2.8,2.5-2.8,4.1
	C726.7,91.2,727.2,92,728.3,92L728.3,92L728.3,92z"/>
<path class="st1" d="M736,86.4L736,86.4c0.6-0.6,1.5-1,2.4-1.1c0.4-0.1,0.8,0.2,0.9,0.7l0,0c0,0.5-0.4,0.8-0.9,0.8c0,0,0,0,0,0h-0.1
	c-0.6,0-0.8-0.4-1.2-0.4c-1.2,0-1.5,1.8-1.6,2.7l-0.6,3.6h-1.3l0.9-5.2c0-0.2,0.1-0.3,0.1-0.5c0-0.6-0.5-0.7-1-0.7l0.1-0.4l2.1-0.3
	h0.5L736,86.4z"/>
<path class="st1" d="M742.1,85.5h2.1l-0.1,0.4H742l-0.7,4c-0.1,0.4-0.1,0.8-0.2,1.2c-0.1,0.5,0.2,0.9,0.6,1c0,0,0,0,0,0h0.2
	c0.5,0,1.1-0.3,1.4-0.7l0.3,0.4c-0.6,0.6-1.4,0.9-2.3,0.9c-0.8,0-1.8-0.3-1.8-1.2c0-0.4,0.1-0.9,0.2-1.3l0.8-4.3h-1.3l0.1-0.4
	c1.8-0.1,2.2-1.1,2.5-2.7h0.5L742.1,85.5z"/>
<path class="st1" d="M746.3,90.6c0,0.2-0.1,0.3-0.1,0.5c0,0.4,0.3,0.8,0.7,0.8c0,0,0,0,0,0h0.1c0.4,0,0.7-0.2,1-0.5l0.3,0.3
	c-0.5,0.6-1.3,1-2.1,1c-0.7,0-1.4-0.5-1.4-1.3c0-0.1,0-0.1,0-0.2c0-0.2,0-0.5,0.1-0.7l0.5-3c0-0.2,0.1-0.3,0.1-0.5
	c0-0.6-0.4-0.7-1-0.8h-0.1l0.1-0.4l0.6-0.1c0.5-0.1,1-0.2,1.5-0.3h0.5L746.3,90.6z M746.8,84.6c-0.4,0-0.7-0.3-0.7-0.7c0,0,0,0,0,0
	l0,0c0-0.5,0.5-1,1-1c0.4,0,0.7,0.2,0.8,0.6c0,0,0,0.1,0,0.1C747.8,84.1,747.4,84.5,746.8,84.6L746.8,84.6L746.8,84.6z"/>
<path class="st1" d="M750,92.6h-1.3l0.9-5.1c0-0.2,0.1-0.4,0.1-0.6c0-0.6-0.5-0.7-1-0.7l0.1-0.4l2.1-0.3h0.5l-0.2,1.1
	c0.9-0.7,2-1.1,3.1-1.2c0.8-0.1,1.6,0.4,1.8,1.3c0,0.1,0,0.1,0,0.2c0,0.3,0,0.6-0.1,0.9l-0.6,3c0,0.2-0.1,0.4-0.1,0.7
	c0,0.4,0.3,0.7,0.7,0.8c0.4,0,0.7-0.2,1-0.5l0.3,0.3c-0.5,0.6-1.2,0.9-2,0.9c-0.7,0-1.3-0.5-1.4-1.3c0,0,0,0,0,0c0,0,0,0,0-0.1l0,0
	c0-0.5,0.1-1,0.2-1.4l0.4-2.5c0-0.2,0.1-0.5,0.1-0.7c0-0.5-0.5-0.9-1-0.9c-1,0.1-1.9,0.5-2.6,1.2L750,92.6z"/>
<path class="st1" d="M763.9,91.8c0,1.1-0.5,2.2-1.3,3c-0.9,0.7-2.1,1.1-3.2,1.1c-0.7,0-1.5-0.1-2.1-0.4c-0.4-0.1-0.7-0.4-0.7-0.8
	c0-0.4,0.4-0.7,0.8-0.7c0.3,0,0.6,0.2,0.8,0.5c0.1,0.2,0.2,0.4,0.4,0.6c0.3,0.2,0.7,0.4,1.1,0.4c0.8,0,1.5-0.3,2-0.9
	c0.5-0.6,0.9-1.4,1-2.2l0.2-1.3l0,0c-0.6,1.1-1.7,1.8-2.9,1.8c-1.4,0-2.5-1.1-2.5-2.5c0-0.1,0-0.2,0-0.3c0-2.3,1.7-4.7,4.1-4.7
	c0.8,0,1.5,0.3,2.1,0.9l0.3-0.8h1.2L763.9,91.8z M763.4,86.8c-0.4-0.5-1-0.8-1.7-0.8c-1.9,0-2.8,2.7-2.8,4.3c0,0.9,0.2,1.7,1.2,1.7
	c1-0.2,1.9-0.8,2.3-1.8c0.5-1,0.8-2,0.9-3.1L763.4,86.8z"/>
<path class="st1" d="M679.9,102.9c0.8,0,1.6,0.1,2.4,0.3c0.8,0.3,1.3,1,1.3,1.8c-0.1,1.3-1.2,2.4-2.6,2.5l0,0c1.2,0,2.1,0.9,2.2,2.1
	c0,1.2-0.7,2.2-1.7,2.7c-1.1,0.5-2.3,0.7-3.5,0.6h-5.1l0.1-0.4c1.2-0.1,1.4-0.7,1.6-1.6l1.1-6.1c0-0.2,0.1-0.3,0.1-0.5
	c0.1-0.5-0.3-0.9-0.7-1c0,0,0,0,0,0h-0.3l0.1-0.4L679.9,102.9L679.9,102.9z M675.9,111c0,0.2,0,0.4,0,0.6c0,0.3,0.1,0.5,0.4,0.6
	c0.5,0.1,0.9,0.2,1.4,0.2c1,0.1,1.9-0.1,2.7-0.6c0.7-0.5,1.1-1.4,1.1-2.2c0.1-0.7-0.4-1.4-1.1-1.5c-0.7-0.1-1.4-0.2-2.1-0.2h-1.8
	L675.9,111z M678.4,107.2c0.9,0.1,1.7-0.1,2.5-0.4c0.7-0.3,1.1-1,1.2-1.8c0-1.5-1.8-1.6-2.9-1.6H679c-0.5-0.1-1.1,0.1-1.6,0.3
	c-0.2,0.2-0.4,0.6-0.4,0.9l-0.4,2.5L678.4,107.2L678.4,107.2z"/>
<path class="st1" d="M691.4,110.5c-0.1,0.3-0.1,0.7-0.1,1c0,0.4,0.3,0.8,0.7,0.8c0,0,0,0,0,0l0,0c0.4,0,0.8-0.2,1-0.5l0.3,0.3
	c-0.5,0.6-1.3,1-2.1,1c-0.8,0.1-1.4-0.5-1.5-1.3c0,0,0,0,0,0l0,0c-0.9,0.8-2,1.3-3.2,1.3c-0.8,0.1-1.5-0.4-1.7-1.2
	c0-0.1,0-0.1,0-0.2c0-0.3,0.1-0.7,0.1-1l0.5-2.7c0-0.2,0.1-0.4,0.1-0.6c0-0.4-0.3-0.7-0.6-0.7c0,0,0,0,0,0l0,0l-0.3-0.1l0.1-0.4
	l2.1-0.4h0.5l-0.9,4.9c0,0.2-0.1,0.4-0.1,0.7v0.1c0,0.5,0.4,0.9,0.9,0.9c0,0,0,0,0,0h0.2c1-0.1,1.9-0.5,2.7-1.2l1-5.4h1.3
	L691.4,110.5z"/>
<path class="st1" d="M695.4,109.3c-0.6-0.2-1-0.8-1-1.5c0-0.7,0.4-1.3,1-1.6c0.6-0.4,1.3-0.6,2-0.6c0.8,0,1.7,0.2,2.4,0.5
	c0.4,0.1,0.6,0.4,0.7,0.8c0,0.3-0.2,0.6-0.6,0.6c0,0,0,0,0,0h-0.1c-0.4,0-0.7-0.2-0.8-0.5c-0.1-0.3-0.4-0.5-0.6-0.6
	c-0.3-0.2-0.7-0.3-1-0.2c-0.7-0.1-1.4,0.4-1.5,1.1c0,0,0,0,0,0v0.1c0,0.3,0.2,0.7,0.5,0.8c0.5,0.2,1,0.4,1.5,0.5
	c1,0.3,2.3,0.6,2.3,1.9c0,0.8-0.5,1.5-1.2,1.9c-0.7,0.4-1.5,0.6-2.3,0.6c-0.9,0-1.7-0.2-2.5-0.6c-0.4-0.2-0.7-0.6-0.8-1
	c0-0.4,0.3-0.7,0.7-0.7c1.3,0,0.8,1.6,2.8,1.6c0.4,0,0.9-0.1,1.3-0.4c0.3-0.2,0.6-0.6,0.6-1c-0.1-0.7-0.7-1.1-1.3-1.2L695.4,109.3z"
	/>
<path class="st1" d="M703.5,110.9c0,0.2-0.1,0.3-0.1,0.5c0,0.4,0.3,0.8,0.7,0.8c0,0,0,0,0,0h0.1c0.4,0,0.7-0.2,1-0.5l0.3,0.3
	c-0.5,0.6-1.3,1-2.1,1c-0.7,0-1.4-0.5-1.4-1.2c0-0.1,0-0.2,0-0.3c0-0.2,0-0.5,0.1-0.7l0.5-3c0-0.2,0.1-0.3,0.1-0.5
	c0-0.6-0.4-0.7-1-0.8h-0.1l0.1-0.4l0.6-0.1c0.5-0.1,1-0.2,1.5-0.3h0.5L703.5,110.9z M704,104.9c-0.4,0-0.7-0.3-0.7-0.7c0,0,0,0,0,0
	l0,0c0-0.5,0.5-1,1-1c0.4,0,0.7,0.2,0.8,0.6c0,0,0,0.1,0,0.1C705.1,104.5,704.6,104.9,704,104.9L704,104.9L704,104.9z"/>
<path class="st1" d="M707.3,113h-1.3l0.9-5.1c0-0.2,0.1-0.4,0.1-0.6c0-0.6-0.5-0.7-1-0.7l0.1-0.4l2.1-0.3h0.5l-0.2,1.1
	c0.9-0.7,2-1.1,3.1-1.2c0.8-0.1,1.6,0.4,1.8,1.3c0,0.1,0,0.1,0,0.2c0,0.3,0,0.6-0.1,0.9l-0.5,2.9c0,0.2-0.1,0.4-0.1,0.7
	c0,0.4,0.3,0.7,0.7,0.8c0.4,0,0.7-0.2,1-0.5l0.3,0.3c-0.5,0.6-1.2,0.9-2,0.9c-0.7,0-1.3-0.5-1.4-1.3c0,0,0,0,0,0c0,0,0,0,0-0.1l0,0
	c0-0.5,0.1-1,0.2-1.4l0.4-2.3c0-0.2,0.1-0.5,0.1-0.7c0-0.5-0.5-0.9-1-0.9c-1,0.1-1.9,0.5-2.6,1.2L707.3,113z"/>
<path class="st1" d="M721.5,111.7c-1,0.9-2.3,1.3-3.7,1.4c-1.6,0.1-3-1-3.2-2.6c0,0,0-0.1,0-0.1c0.1-1.3,0.6-2.5,1.6-3.3
	c1-0.9,2.2-1.3,3.5-1.4c1,0,2.5,0.4,2.5,1.6c0,2-4.3,2.4-5.9,2.5c-0.1,0.2-0.1,0.5-0.1,0.7c0,1,0.8,1.9,1.9,1.9c0,0,0,0,0,0h0.3
	c1-0.1,2-0.5,2.8-1.1L721.5,111.7z M716.4,109.2c1.3,0,4.4-0.3,4.4-1.9c0-0.6-0.6-1.1-1.3-1.1h-0.1
	C717.9,106.2,716.8,107.8,716.4,109.2L716.4,109.2z"/>
<path class="st1" d="M724.7,109.3c-0.6-0.2-1-0.8-1-1.5c0-0.7,0.4-1.3,1-1.6c0.6-0.4,1.3-0.6,2-0.6c0.8,0,1.7,0.2,2.4,0.5
	c0.4,0.1,0.6,0.4,0.7,0.8c0,0.3-0.2,0.6-0.6,0.6c0,0,0,0,0,0h-0.1c-0.4,0-0.7-0.2-0.8-0.5c-0.1-0.3-0.4-0.5-0.6-0.6
	c-0.3-0.2-0.7-0.3-1-0.2c-0.7-0.1-1.4,0.4-1.5,1.1c0,0,0,0,0,0v0.1c0,0.3,0.2,0.7,0.5,0.8c0.5,0.2,1,0.4,1.5,0.5
	c1,0.3,2.3,0.6,2.3,1.9c0,0.8-0.5,1.5-1.2,1.9c-0.7,0.4-1.5,0.6-2.3,0.6c-0.9,0-1.7-0.2-2.5-0.6c-0.4-0.2-0.7-0.6-0.8-1
	c0-0.4,0.3-0.7,0.7-0.7c1.3,0,0.8,1.6,2.8,1.6c0.4,0,0.9-0.1,1.3-0.4c0.3-0.2,0.6-0.6,0.6-1c-0.1-0.7-0.7-1.1-1.3-1.2L724.7,109.3z"
	/>
<path class="st1" d="M732.7,109.3c-0.6-0.2-1-0.8-1-1.5c0-0.7,0.4-1.3,1-1.6c0.6-0.4,1.3-0.6,2-0.6c0.8,0,1.7,0.2,2.4,0.5
	c0.4,0.1,0.6,0.4,0.7,0.8c0,0.3-0.2,0.6-0.6,0.6c0,0,0,0,0,0h-0.1c-0.4,0-0.7-0.2-0.8-0.5c-0.1-0.3-0.4-0.5-0.6-0.6
	c-0.3-0.2-0.7-0.3-1-0.2c-0.7-0.1-1.4,0.4-1.5,1.1c0,0,0,0,0,0v0.1c0,0.3,0.2,0.7,0.5,0.8c0.5,0.2,1,0.4,1.5,0.5
	c1,0.3,2.3,0.6,2.3,1.9c0,0.8-0.5,1.5-1.2,1.9c-0.7,0.4-1.5,0.6-2.3,0.6c-0.9,0-1.7-0.2-2.5-0.6c-0.4-0.2-0.7-0.6-0.8-1
	c0-0.4,0.3-0.7,0.7-0.7c1.3,0,0.8,1.6,2.8,1.6c0.4,0,0.9-0.1,1.3-0.4c0.3-0.2,0.6-0.6,0.6-1c-0.1-0.7-0.7-1.1-1.3-1.2L732.7,109.3z"
	/>
<path class="st1" d="M752,105.8h-0.5c-0.2-0.6-0.6-1.2-1-1.6c-0.6-0.5-1.4-0.8-2.2-0.8c-0.6,0-1.2,0.2-1.8,0.6
	c-0.4,0.3-0.7,0.8-0.8,1.4c0,0.9,1.1,1.2,1.8,1.4l2,0.6c1.3,0.3,2.4,0.8,2.4,2.3c0,1.1-0.6,2-1.5,2.6c-0.9,0.7-2,1-3.1,1
	c-1.1,0-2.2-0.3-3.1-1l-0.4,0.8h-0.5l-0.3-3.7h0.6c0.3,1.8,1.8,3.1,3.7,3.2c0.8,0,1.5-0.2,2.1-0.7c0.6-0.4,1-1.1,1-1.8
	c0-0.4-0.2-0.8-0.7-1c-0.6-0.3-1.3-0.5-1.9-0.6c-1.4-0.4-3.6-0.8-3.6-2.7c0-0.9,0.5-1.7,1.2-2.2c0.8-0.6,1.7-0.9,2.7-0.8
	c1,0,1.9,0.3,2.8,0.8l0.3-0.6h0.5L752,105.8z"/>
<path class="st1" d="M758.9,111.6c-0.9,0.9-2.1,1.5-3.4,1.5c-1.6,0.1-2.9-1.1-3-2.6c0,0,0,0,0,0c0-0.1,0-0.2,0-0.3
	c0-2.5,2-4.5,4.5-4.5c1,0,2.3,0.5,2.3,1.6c0,0.5-0.3,0.8-0.8,0.9c0,0,0,0,0,0l0,0c-0.3,0-0.5-0.2-0.6-0.4c0,0,0-0.1,0-0.1v-0.4
	c0-0.5-0.4-0.9-0.9-0.9h0h-0.2c-1.8,0-2.8,2.6-2.8,4c-0.1,1.1,0.8,1.9,1.8,2c0,0,0,0,0,0h0.1c1-0.1,1.9-0.5,2.6-1.2L758.9,111.6z"/>
<path class="st1" d="M766.7,110.8c-0.1,0.2-0.1,0.4-0.1,0.6c0,0.4,0.3,0.8,0.8,0.8c0,0,0,0,0,0l0,0c0.4,0,0.8-0.2,1-0.6l0.3,0.3
	c-0.5,0.6-1.3,1-2.1,1.1c-0.8,0-1.4-0.6-1.5-1.4c0-0.1,0-0.1,0-0.2v-0.2l0,0c-0.6,1.1-1.8,1.8-3,1.8c-1.4,0-2.5-1.1-2.6-2.5
	c0-0.1,0-0.2,0-0.3c0-2.3,1.8-4.7,4.2-4.7c0.8,0,1.6,0.3,2.2,0.9l0.1-0.7h1.4L766.7,110.8z M764.3,106.3c-2,0-3.1,2.6-3.1,4.3
	c-0.1,0.8,0.4,1.6,1.2,1.7h0.2c1.1-0.2,2.1-0.9,2.5-2c0.4-1,0.7-2.1,0.9-3.2C765.6,106.6,765,106.3,764.3,106.3L764.3,106.3
	L764.3,106.3z"/>
<path class="st1" d="M770.8,110.4c-0.1,0.3-0.1,0.7-0.1,1v0.1c0,0.5,0.3,0.8,0.8,0.8c0,0,0,0,0,0l0,0c0.4-0.1,0.8-0.3,1-0.6l0.3,0.3
	c-0.5,0.7-1.4,1.1-2.2,1.1c-0.7,0-1.3-0.6-1.3-1.3c0,0,0-0.1,0-0.1c0-0.4,0-0.8,0.1-1.1l1-5.9c0-0.2,0.1-0.3,0.1-0.5
	c0-0.7-0.5-0.7-1.1-0.8l0.1-0.4c0.7-0.1,1.4-0.3,2.1-0.5h0.6L770.8,110.4z"/>
<path class="st1" d="M779.8,111.7c-1,0.8-2.3,1.3-3.6,1.4c-1.6,0.1-3-1-3.2-2.6c0,0,0-0.1,0-0.1c0.1-1.3,0.6-2.5,1.6-3.3
	c1-0.9,2.2-1.3,3.5-1.4c1,0,2.5,0.4,2.5,1.6c0,2-4.3,2.4-5.9,2.5c-0.1,0.2-0.1,0.5-0.1,0.7c0,1,0.8,1.9,1.9,1.9c0,0,0,0,0,0h0.3
	c1-0.1,2-0.5,2.8-1.1L779.8,111.7z M774.7,109.2c1.3,0,4.4-0.3,4.4-1.9c0-0.6-0.6-1.1-1.3-1.1h-0.1
	C776.2,106.2,775.1,107.8,774.7,109.2L774.7,109.2L774.7,109.2z"/>
<path class="st1" d="M834.9,85.6h-0.6c-0.4-1.5-1.2-3.1-3-3.1c-1.4,0.1-2.6,0.9-3.3,2.1c-0.7,1.2-1.1,2.5-1.1,3.9
	c-0.2,1.6,1,3.1,2.6,3.2c0,0,0,0,0,0h0.4c1.7,0,3.3-1,4.2-2.6l0.6,0.3c-1,1.9-3,3.1-5.1,3c-2.3,0.2-4.3-1.5-4.4-3.8
	c0-0.2,0-0.4,0-0.5c0-3.4,2.6-6.1,6-6.2c1,0,1.9,0.3,2.7,1l0.4-0.8h0.5L834.9,85.6z"/>
<path class="st1" d="M837.8,90.3v0.5c-0.1,0.5,0.3,0.9,0.8,1h0.4l-0.1,0.4h-4.2l0.1-0.5c1.2-0.1,1.3-0.6,1.5-1.6l1.1-6.1
	c0-0.2,0.1-0.3,0.1-0.5c0.1-0.5-0.3-0.9-0.8-1c0,0,0,0,0,0h-0.2l0.1-0.4h4.7c0.7-0.1,1.4,0.1,2.1,0.4c0.8,0.4,1.2,1.2,1.2,2
	c0,1.2-0.6,2.3-1.6,2.8c-1.1,0.4-2.2,0.6-3.4,0.6h-1.3L837.8,90.3z M839.6,87.3c0.9,0.1,1.8-0.1,2.5-0.7c0.6-0.6,0.9-1.4,0.9-2.2
	c0-0.5-0.1-1-0.5-1.3c-0.5-0.3-1.1-0.5-1.6-0.4c-0.5,0-1.1,0.1-1.5,0.2c-0.2,0.3-0.3,0.6-0.4,0.9l-0.6,3.4L839.6,87.3L839.6,87.3z"
	/>
<path class="st1" d="M852.6,90.1c0.2,1,0.2,1.6,1.4,1.7l-0.1,0.4h-4l0.1-0.4c0.6-0.1,1.2-0.2,1.2-0.9c0-0.2,0-0.3-0.1-0.5l-0.4-1.9
	H847l-0.7,1.3c-0.3,0.4-0.4,0.8-0.5,1.3c0,0.4,0.4,0.8,0.8,0.7c0,0,0,0,0,0h0.3l-0.1,0.4H843l0.1-0.4c0.8-0.1,1.5-0.6,1.9-1.4
	l4.6-8.2h1.4L852.6,90.1z M849.7,83.4l-2.5,4.5h3.4L849.7,83.4z"/>
<path class="st1" d="M856.8,88.6c-0.6-0.2-1-0.8-1-1.5c0-0.7,0.4-1.3,1-1.6c0.6-0.4,1.3-0.6,2-0.6c0.8,0,1.7,0.2,2.4,0.5
	c0.4,0.1,0.6,0.4,0.7,0.8c0,0.3-0.2,0.6-0.6,0.6c0,0,0,0,0,0h-0.1c-0.4,0-0.7-0.2-0.8-0.5c-0.1-0.3-0.4-0.5-0.6-0.6
	c-0.3-0.2-0.7-0.3-1-0.2c-0.7-0.1-1.3,0.4-1.5,1.1v0.1c0,0.3,0.2,0.7,0.5,0.8c0.5,0.2,1,0.4,1.5,0.5c1,0.3,2.3,0.6,2.3,1.9
	c0,0.8-0.5,1.5-1.2,1.9c-0.7,0.4-1.5,0.6-2.3,0.6c-0.9,0-1.7-0.2-2.5-0.6c-0.4-0.2-0.7-0.6-0.8-1c0-0.4,0.3-0.7,0.7-0.7
	c1.3,0,0.8,1.6,2.8,1.6c0.4,0,0.9-0.1,1.3-0.4c0.3-0.2,0.6-0.6,0.6-1c-0.1-0.7-0.7-1.1-1.3-1.2L856.8,88.6z"/>
<path class="st1" d="M821,102.2c2.3-0.1,4.2,1.7,4.3,4c0,0.1,0,0.3,0,0.4c0,1.6-0.7,3.2-1.8,4.4c-1.1,1.2-2.7,1.9-4.3,1.8
	c-2.3,0.1-4.2-1.6-4.4-3.9c0-0.1,0-0.3,0-0.4C814.7,105,817.5,102.2,821,102.2C820.9,102.2,820.9,102.2,821,102.2L821,102.2
	L821,102.2z M822.9,103.8c-0.5-0.6-1.2-0.9-2-0.9c-1.4,0.1-2.7,0.9-3.4,2.2c-0.6,1.1-1,2.4-1,3.7c0,1.7,0.8,3.2,2.7,3.2
	c1.4-0.1,2.7-0.9,3.4-2.2c0.6-1.2,1-2.5,1-3.8C823.6,105.2,823.4,104.5,822.9,103.8z"/>
<path class="st1" d="M827.4,112.6h-1.3l0.9-5.1c0-0.2,0.1-0.4,0.1-0.6c0-0.6-0.5-0.7-1-0.7l0.1-0.4l2.1-0.3h0.5l-0.2,1.1
	c0.9-0.7,2-1.1,3.1-1.2c0.8-0.1,1.6,0.4,1.8,1.3c0,0.1,0,0.1,0,0.2c0,0.3,0,0.6-0.1,0.9l-0.5,3c0,0.2-0.1,0.4-0.1,0.7
	c0,0.4,0.3,0.7,0.7,0.8c0.4,0,0.7-0.2,1-0.5l0.3,0.3c-0.5,0.6-1.2,0.9-2,0.9c-0.7,0-1.3-0.5-1.4-1.3c0,0,0,0,0,0c0,0,0,0,0-0.1l0,0
	c0-0.5,0.1-1,0.2-1.4l0.4-2.3c0-0.2,0.1-0.5,0.1-0.7c0-0.5-0.5-0.9-1-0.9c-1,0.1-1.9,0.5-2.6,1.2L827.4,112.6z"/>
<path class="st1" d="M848.2,105.4h-0.5c-0.2-0.6-0.6-1.2-1-1.6c-0.6-0.5-1.4-0.8-2.2-0.8c-0.6,0-1.2,0.2-1.8,0.6
	c-0.4,0.3-0.7,0.8-0.8,1.4c0,0.9,1.1,1.2,1.8,1.4l2,0.6c1.3,0.3,2.4,0.8,2.4,2.3c0,1.1-0.6,2-1.5,2.6c-0.9,0.7-2,1-3.1,1
	c-1.1,0-2.2-0.3-3.1-1l-0.4,0.8h-0.5l-0.3-3.7h0.6c0.3,1.8,1.8,3.1,3.7,3.2c0.8,0,1.5-0.2,2.1-0.7c0.6-0.4,1-1.1,1-1.8
	c0-0.4-0.2-0.8-0.7-1c-0.6-0.3-1.3-0.5-1.9-0.6c-1.4-0.4-3.6-0.8-3.6-2.7c0-0.9,0.5-1.7,1.2-2.2c0.8-0.6,1.7-0.9,2.7-0.8
	c1,0,1.9,0.3,2.8,0.8l0.3-0.6h0.5L848.2,105.4z"/>
<path class="st1" d="M851.8,105.4h2.1l-0.1,0.4h-2.1l-0.7,4c-0.1,0.4-0.1,0.8-0.2,1.2c-0.1,0.5,0.2,0.9,0.6,1c0,0,0,0,0,0h0.2
	c0.5,0,1.1-0.3,1.4-0.7l0.3,0.4c-0.6,0.6-1.4,0.9-2.3,0.9c-0.8,0-1.8-0.3-1.8-1.2c0-0.4,0.1-0.9,0.2-1.3l0.8-4.3h-1.3l0.1-0.4
	c1.8-0.1,2.2-1.1,2.5-2.7h0.5L851.8,105.4z"/>
<path class="st1" d="M860.9,110.4c-0.1,0.2-0.1,0.4-0.1,0.6c0,0.4,0.3,0.8,0.8,0.8c0,0,0,0,0,0l0,0c0.4,0,0.8-0.2,1-0.6l0.3,0.3
	c-0.5,0.6-1.3,1-2.1,1.1c-0.8,0-1.4-0.6-1.5-1.4c0-0.1,0-0.1,0-0.2v-0.2l0,0c-0.6,1.1-1.8,1.8-3,1.8c-1.4,0-2.5-1.1-2.6-2.5
	c0-0.1,0-0.2,0-0.3c0-2.3,1.8-4.7,4.2-4.7c0.8,0,1.6,0.3,2.2,0.9l0.1-0.7h1.4L860.9,110.4z M858.4,105.9c-2,0-3.1,2.6-3.1,4.3
	c-0.1,0.8,0.4,1.6,1.2,1.7h0.2c1.1-0.2,2.1-0.9,2.5-2c0.4-1,0.7-2.1,0.9-3.2C859.8,106.2,859.1,105.9,858.4,105.9L858.4,105.9
	L858.4,105.9z"/>
<path class="st1" d="M868.2,105.4l-0.1,0.4h-1.5l-1,5.7c-0.1,1.1-0.4,2.1-1,3c-0.7,0.9-1.9,1.3-3,1.2c-0.7,0-2-0.2-2-1.1
	c0-0.3,0.3-0.6,0.6-0.5c0,0,0,0,0,0h0.1c1,0,1,1.1,2,1.1c0.4,0,0.8-0.2,1.1-0.5c0.3-0.4,0.4-0.9,0.5-1.4l0.2-1l1.1-6.5h-1.3l0.1-0.4
	h1.4c0-0.9,0.3-1.7,0.8-2.4c0.6-0.7,1.5-1.2,2.4-1.2c0.5,0,1.7,0.2,1.7,0.9c0,0.3-0.3,0.6-0.7,0.6c0,0,0,0,0,0l0,0
	c-0.9,0-0.6-0.9-1.5-0.9c-0.3,0-0.7,0.2-0.8,0.5c-0.2,0.4-0.4,0.8-0.4,1.3l-0.2,1.2L868.2,105.4L868.2,105.4L868.2,105.4z"/>
<path class="st1" d="M873.2,105.4l-0.1,0.4h-1.5l-1,5.7c-0.1,1.1-0.4,2.1-1,3c-0.7,0.9-1.9,1.3-3,1.2c-0.7,0-2-0.2-2-1.1
	c0-0.3,0.3-0.6,0.6-0.5c0,0,0,0,0,0h0.1c1,0,1,1.1,2,1.1c0.4,0,0.8-0.2,1.1-0.5c0.3-0.4,0.4-0.9,0.5-1.4l0.2-1l1.1-6.5h-1.3l0.1-0.4
	h1.4c0-0.9,0.3-1.7,0.8-2.4c0.6-0.7,1.5-1.2,2.4-1.2c0.5,0,1.7,0.2,1.7,0.9c0,0.3-0.3,0.6-0.7,0.6c0,0,0,0,0,0l0,0
	c-0.9,0-0.6-0.9-1.5-0.9c-0.3,0-0.7,0.2-0.8,0.5c-0.2,0.4-0.4,0.8-0.4,1.3l-0.2,1.2L873.2,105.4L873.2,105.4L873.2,105.4z"/>
<path class="st1" d="M931.8,82.6c1.2-0.1,2.4,0.2,3.4,0.8c0.9,0.8,1.5,2,1.4,3.3c0,1.6-0.7,3.1-1.8,4.3c-1.2,1.2-2.9,1.8-4.5,1.7h-5
	l0.1-0.4c1.2-0.1,1.3-0.7,1.5-1.6l1.1-6.1c0-0.2,0.1-0.3,0.1-0.5c0.1-0.5-0.3-0.9-0.7-1c0,0,0,0,0,0H927l0.1-0.4L931.8,82.6
	L931.8,82.6L931.8,82.6z M928.4,90.9c0,0.2-0.1,0.3-0.1,0.5c0,0.2,0.1,0.4,0.3,0.5c0.4,0.2,0.8,0.2,1.2,0.2c1.5,0.1,2.9-0.5,3.8-1.6
	c0.8-1.1,1.2-2.5,1.2-3.9c0-2.2-1.1-3.4-3.2-3.4c-0.6,0-1.1,0.1-1.6,0.3c-0.3,0.2-0.5,0.5-0.5,0.9L928.4,90.9z"/>
<path class="st1" d="M943.7,91.3c-1,0.8-2.3,1.3-3.6,1.4c-1.6,0.1-3-1-3.2-2.6c0,0,0-0.1,0-0.1c0.1-1.3,0.6-2.5,1.6-3.3
	c1-0.9,2.2-1.3,3.5-1.4c1,0,2.5,0.4,2.5,1.6c0,2-4.3,2.4-5.9,2.5c-0.1,0.2-0.1,0.5-0.1,0.7c0,1,0.8,1.9,1.8,1.9h0.3
	c1-0.1,2-0.5,2.8-1.1L943.7,91.3z M938.7,88.8c1.3,0,4.4-0.3,4.4-1.9c0-0.6-0.6-1.1-1.3-1.1h-0.1C940.1,85.8,939,87.5,938.7,88.8
	L938.7,88.8L938.7,88.8z"/>
<path class="st1" d="M947.7,87.4L947.7,87.4c0.5-1.2,1.7-2,3-2.1c1.3,0,2.4,1,2.4,2.4c0,0.1,0,0.2,0,0.3v0.2c0,1.1-0.4,2.2-1.1,3.1
	c-0.7,0.9-1.8,1.5-3,1.5c-0.8,0-1.6-0.3-2.2-0.9l-0.4,2.2c0,0.2-0.1,0.3-0.1,0.5c0,0.7,0.5,0.7,1.1,0.8l-0.1,0.4h-3.9l0.1-0.4
	c1.2-0.1,1.4-0.6,1.5-1.6l1.1-6.3c0-0.2,0.1-0.3,0.1-0.5c0-0.3-0.2-0.7-0.5-0.7h-0.1l-0.4-0.1l0.1-0.4l2.1-0.2h0.5L947.7,87.4z
	 M947,91.2c0.4,0.5,1,0.8,1.7,0.8c2,0,2.9-2.7,2.9-4.3c0-0.9-0.3-1.7-1.3-1.7c-1,0.1-1.9,0.8-2.3,1.7c-0.4,1-0.8,2-0.9,3L947,91.2z"
	/>
<path class="st1" d="M956.8,85.5h2.1l-0.1,0.4h-2.1l-0.7,4c-0.1,0.4-0.1,0.8-0.2,1.2c-0.1,0.5,0.2,0.9,0.6,1c0,0,0,0,0,0h0.2
	c0.5,0,1.1-0.3,1.4-0.7l0.3,0.4c-0.6,0.6-1.4,0.9-2.3,0.9c-0.8,0-1.8-0.3-1.8-1.2c0-0.4,0.1-0.9,0.2-1.3l0.8-4.3h-1.3l0.1-0.4
	c1.8-0.1,2.2-1.1,2.5-2.7h0.5L956.8,85.5z"/>
<path class="st1" d="M960.6,84.2c0-0.2,0.1-0.3,0.1-0.5c0-0.4-0.2-0.7-0.6-0.7h-0.5l0.1-0.4c0.7-0.1,1.4-0.3,2.1-0.5h0.5l-0.8,4.5
	c0.9-0.7,2-1.1,3.1-1.2c0.9,0,1.9,0.4,1.9,1.4c0,0.5-0.1,0.9-0.2,1.4l-0.4,2.2c-0.1,0.3-0.1,0.7-0.1,1c0,0.4,0.4,0.8,0.8,0.8
	c0,0,0,0,0,0l0,0c0.4,0,0.7-0.2,1-0.5l0.3,0.3c-0.5,0.6-1.2,0.9-2,1c-0.8,0.1-1.4-0.5-1.5-1.2c0-0.1,0-0.1,0-0.2
	c0-0.3,0.1-0.6,0.1-0.9l0.5-2.7c0-0.3,0.1-0.5,0.1-0.8l0,0c0-0.5-0.4-0.9-0.9-0.9c0,0,0,0-0.1,0H964c-1,0.1-1.9,0.6-2.7,1.2
	l-0.9,5.2h-1.4L960.6,84.2z"/>
<path class="st1" d="M976,92.9c-0.8,0-1.6-0.2-2.3-0.6c-0.8-0.5-1.3-1.3-1.3-2.2c0-1.8,1.7-3.1,3.3-3.5c-0.4-0.5-0.6-1-0.6-1.6
	c0.1-1.6,1.4-2.8,3-2.7c0.9-0.1,1.8,0.6,1.8,1.6c0,0,0,0,0,0c0,0,0,0,0,0.1c0,1.3-1.3,2.3-2.4,2.6c1,1,1.9,2.2,2.5,3.5
	c0.5-0.5,0.8-1.1,1-1.8c0-0.2-0.1-0.3-0.2-0.3c0,0,0,0,0,0h0c-0.4,0-0.7-0.4-0.7-0.8l0,0c0.1-0.5,0.5-0.9,1-1c0.6,0,1.1,0.5,1.1,1.1
	v0c0,0,0,0.1,0,0.1c0,1.1-1.1,2.6-1.8,3.4c0.4,0.7,0.8,1.6,1.8,1.6c0.3,0.1,0.6-0.1,0.7-0.5c0-0.3-0.4-0.2-0.4-0.9
	c0-0.5,0.4-0.9,0.9-0.9c0.5,0,0.9,0.4,0.8,0.9c0,1.2-1.3,2-2.5,2c-0.9,0-1.8-0.4-2.3-1.2C978.3,92.5,977.2,92.9,976,92.9z M974,90
	c-0.1,1.1,0.7,2.1,1.8,2.2c0.1,0,0.3,0,0.4,0c1,0,2-0.3,2.8-1c-0.7-1.6-1.6-3-2.9-4.1C974.8,87.4,973.9,88.6,974,90L974,90L974,90z
	 M977.8,82.9c-0.9,0-1.5,0.8-1.5,1.6c0,0,0,0,0,0l0,0c0,0.6,0.3,1.2,0.7,1.6c1-0.3,1.7-1.2,1.8-2.3
	C978.8,83.4,978.4,82.9,977.8,82.9L977.8,82.9L977.8,82.9z"/>
<path class="st1" d="M913.2,108.1l-0.5,2.9v0.5c0,0.2,0.1,0.4,0.2,0.6c0.2,0.2,0.5,0.4,0.8,0.4h0.3l-0.1,0.4h-4.2l0.1-0.4
	c1.2-0.1,1.4-0.6,1.5-1.6l1.1-6.1c0-0.2,0.1-0.3,0.1-0.5c0.1-0.5-0.3-0.9-0.7-1c0,0,0,0,0,0h-0.3l0.1-0.4h5.3c1.6,0,3.4,0.2,3.4,2.2
	c-0.1,1.7-1.6,3-3.3,3l1.7,3c0.3,0.7,0.9,1.3,1.7,1.4l-0.1,0.4h-2.5l-2.5-4.8L913.2,108.1L913.2,108.1z M915.1,107.6
	c0.8,0.1,1.6-0.1,2.3-0.4c0.7-0.4,1.1-1.2,1.1-2c0-0.6-0.3-1.1-0.9-1.3c-0.6-0.2-1.2-0.3-1.8-0.3c-0.6,0-1.1,0.1-1.7,0.3
	c-0.3,0.2-0.4,0.5-0.4,0.9l-0.5,2.9H915.1L915.1,107.6L915.1,107.6z"/>
<path class="st1" d="M927.5,111.7c-1,0.8-2.3,1.3-3.7,1.4c-1.6,0.1-3-1-3.2-2.6c0,0,0-0.1,0-0.1c0.1-1.3,0.6-2.5,1.6-3.3
	c1-0.9,2.2-1.3,3.5-1.4c1,0,2.5,0.4,2.5,1.6c0,2-4.3,2.4-5.9,2.5c-0.1,0.2-0.1,0.5-0.1,0.7c0,1,0.8,1.9,1.9,1.9c0,0,0,0,0,0h0.3
	c1-0.1,2-0.5,2.8-1.1L927.5,111.7z M922.4,109.2c1.3,0,4.4-0.3,4.4-1.9c0-0.6-0.6-1.1-1.3-1.1h-0.1
	C923.9,106.2,922.8,107.8,922.4,109.2z"/>
<path class="st1" d="M938,112c-0.6,0.6-1.3,1-2.1,1c-0.7,0.1-1.4-0.5-1.4-1.3c0,0,0,0,0,0c0,0,0-0.1,0-0.1v-0.6
	c-0.6,1.1-1.8,1.9-3.2,1.9c-1.4,0-2.6-1.1-2.6-2.5c0-0.1,0-0.2,0-0.3c0-1.2,0.5-2.3,1.2-3.2c0.8-0.9,1.9-1.4,3.1-1.4
	c0.8,0,1.6,0.3,2.2,0.9l0.3-1.9c0-0.2,0.1-0.3,0.1-0.5c0-0.6-0.5-0.7-1-0.8h-0.2l0.1-0.4c0.7,0,1.5-0.2,2.2-0.5h0.6l-1.4,8.1
	c-0.1,0.4-0.1,0.7-0.1,1.1c0,0.4,0.3,0.7,0.7,0.8c0,0,0,0,0,0h0.1c0.4,0,0.8-0.2,1.1-0.6L938,112z M935.1,107.2
	c-0.4-0.5-1.1-0.9-1.8-0.9c-2.1,0-3.1,2.6-3.1,4.4c-0.1,0.8,0.4,1.5,1.2,1.6h0.3c1.1-0.1,2-0.8,2.5-1.8c0.5-1,0.8-2,0.9-3.1
	L935.1,107.2z"/>
<path class="st1" d="M945.3,110.5c-0.1,0.3-0.1,0.7-0.1,1c0,0.4,0.3,0.8,0.7,0.8c0,0,0,0,0,0l0,0c0.4,0,0.8-0.2,1-0.5l0.3,0.3
	c-0.5,0.6-1.3,1-2.1,1c-0.8,0.1-1.4-0.5-1.5-1.3c0,0,0,0,0,0l0,0c-0.9,0.8-2,1.3-3.2,1.3c-0.8,0.1-1.5-0.4-1.7-1.2
	c0-0.1,0-0.1,0-0.2c0-0.3,0.1-0.7,0.1-1l0.5-2.7c0-0.2,0.1-0.4,0.1-0.6c0-0.4-0.3-0.7-0.6-0.7c0,0,0,0,0,0l0,0l-0.3-0.1l0.1-0.4
	l2.1-0.4h0.5l-0.8,4.9c0,0.2-0.1,0.4-0.1,0.7v0.1c0,0.5,0.4,0.9,0.9,0.9c0,0,0,0,0,0h0.1c1-0.1,1.9-0.5,2.7-1.2l1-5.4h1.3
	L945.3,110.5z"/>
<path class="st1" d="M949,113h-1.3l0.9-5.1c0-0.2,0.1-0.4,0.1-0.6c0-0.6-0.5-0.7-1-0.7l0.1-0.4l2.1-0.3h0.5l-0.2,1.1
	c0.9-0.7,2-1.1,3.1-1.2c0.8-0.1,1.6,0.4,1.8,1.3c0,0.1,0,0.1,0,0.2c0,0.3,0,0.6-0.1,0.9l-0.5,2.9c0,0.2-0.1,0.4-0.1,0.7
	c0,0.4,0.3,0.7,0.7,0.8c0.4,0,0.7-0.2,1-0.5l0.3,0.3c-0.5,0.6-1.2,0.9-2,0.9c-0.7,0-1.3-0.5-1.4-1.3c0,0,0,0,0,0c0,0,0,0,0-0.1l0,0
	c0-0.5,0.1-1,0.2-1.4l0.4-2.3c0-0.2,0.1-0.5,0.1-0.7c0-0.5-0.5-0.9-1-0.9c-1,0.1-1.9,0.5-2.6,1.2L949,113z"/>
<path class="st1" d="M965.8,112c-0.6,0.6-1.4,1-2.2,1c-0.7,0.1-1.4-0.5-1.4-1.3c0,0,0,0,0,0c0,0,0-0.1,0-0.1v-0.6
	c-0.6,1.1-1.8,1.9-3.2,1.9c-1.4,0-2.6-1.1-2.6-2.5c0-0.1,0-0.2,0-0.3c0-1.2,0.5-2.3,1.2-3.2c0.8-0.9,1.9-1.4,3.1-1.4
	c0.8,0,1.6,0.3,2.2,0.9l0.3-1.9c0-0.2,0.1-0.3,0.1-0.5c0-0.6-0.5-0.7-1-0.8h-0.2l0.1-0.4c0.7,0,1.5-0.2,2.2-0.5h0.6l-1.4,8.1
	c-0.1,0.4-0.1,0.7-0.1,1.1c0,0.4,0.3,0.7,0.7,0.8c0,0,0,0,0,0h0c0.4,0,0.8-0.2,1.1-0.6L965.8,112z M962.9,107.2
	c-0.4-0.5-1.1-0.9-1.8-0.9c-2.1,0-3.1,2.6-3.1,4.4c-0.1,0.8,0.4,1.5,1.2,1.6h0.3c1.1-0.1,2-0.8,2.5-1.8c0.5-1,0.8-2,0.9-3.1
	L962.9,107.2z"/>
<path class="st1" d="M973,110.8c-0.1,0.2-0.1,0.4-0.1,0.6c0,0.4,0.3,0.8,0.8,0.8c0,0,0,0,0,0l0,0c0.4,0,0.8-0.2,1-0.6l0.3,0.3
	c-0.5,0.6-1.3,1-2.1,1.1c-0.8,0-1.4-0.6-1.5-1.4c0-0.1,0-0.1,0-0.2v-0.2l0,0c-0.6,1.1-1.8,1.8-3,1.8c-1.4,0-2.5-1.1-2.6-2.5
	c0-0.1,0-0.2,0-0.3c0-2.3,1.8-4.7,4.2-4.7c0.8,0,1.6,0.3,2.2,0.9l0.1-0.7h1.4L973,110.8z M970.5,106.3c-2,0-3.1,2.6-3.1,4.3
	c-0.1,0.8,0.4,1.6,1.2,1.7h0.2c1.1-0.2,2.1-0.9,2.5-2c0.4-1,0.7-2.1,0.9-3.2C971.9,106.6,971.2,106.3,970.5,106.3L970.5,106.3
	L970.5,106.3z"/>
<path class="st1" d="M976.8,113h-1.3l0.9-5.1c0-0.2,0.1-0.4,0.1-0.6c0-0.6-0.5-0.7-1-0.7l0.1-0.4l2.1-0.3h0.5l-0.2,1.1
	c0.9-0.7,2-1.1,3.1-1.2c0.8-0.1,1.6,0.4,1.8,1.3c0,0.1,0,0.1,0,0.2c0,0.3,0,0.6-0.1,0.9l-0.5,2.9c0,0.2-0.1,0.4-0.1,0.7
	c0,0.4,0.3,0.7,0.7,0.8c0.4,0,0.7-0.2,1-0.5l0.3,0.3c-0.5,0.6-1.2,0.9-2,0.9c-0.7,0-1.3-0.5-1.4-1.3c0,0,0,0,0,0c0,0,0,0,0-0.1l0,0
	c0-0.5,0.1-1,0.2-1.4l0.4-2.3c0-0.2,0.1-0.5,0.1-0.7c0-0.5-0.5-0.9-1-0.9c-1,0.1-1.9,0.5-2.6,1.2L976.8,113z"/>
<path class="st1" d="M990.6,111.6c-0.9,0.9-2.1,1.5-3.4,1.5c-1.6,0.1-2.9-1.1-3-2.6c0,0,0,0,0,0c0-0.1,0-0.2,0-0.3
	c0-2.5,2-4.5,4.5-4.5c1,0,2.3,0.5,2.3,1.6c0,0.5-0.3,0.8-0.8,0.9c0,0,0,0,0,0l0,0c-0.3,0-0.5-0.2-0.6-0.4c0,0,0-0.1,0-0.1v-0.4
	c0-0.5-0.4-0.9-0.9-0.9h0h-0.2c-1.8,0-2.8,2.6-2.8,4c-0.1,1.1,0.8,1.9,1.8,2c0,0,0,0,0,0h0.1c1-0.1,1.9-0.5,2.6-1.2L990.6,111.6z"/>
<path class="st1" d="M998.2,112.8c-0.1,1-0.6,2-1.5,2.5c-0.9,0.6-1.9,0.9-2.9,0.9c-0.7,0-1.3-0.1-1.9-0.4c-0.3-0.1-0.5-0.4-0.6-0.7
	c0-0.4,0.4-0.6,0.7-0.6l0,0c1,0,0.6,1.2,2,1.2c0.7,0,1.3-0.3,1.8-0.8c0.5-0.6,0.8-1.3,0.9-2.1l0.2-1.2c-0.9,0.9-2.1,1.4-3.3,1.5
	c-0.8,0.1-1.6-0.4-1.7-1.3c0-0.1,0-0.2,0-0.3V111l0.1-0.5l0.5-2.8c0-0.2,0.1-0.3,0.1-0.5c0-0.6-0.4-0.7-1-0.7l0.1-0.4h0.4l1.6-0.3
	h0.6l-0.8,4.7c0,0.2-0.1,0.5-0.1,0.8c-0.1,0.5,0.3,0.9,0.8,1c0,0,0,0,0,0h0.2c1.1-0.1,2.1-0.6,2.9-1.3l0.9-5.2h1.3L998.2,112.8z"/>
<path class="st1" d="M89.7,57.4c-4.2,0-6.1-1.9-6.1-3.5c0-1,0.8-1.9,1.8-1.9c0,0,0,0,0,0h0.1c3,0,1.5,3.2,4.8,3.2
	c1.5,0,2.7-0.8,2.7-2.3c0-0.9-0.4-1.4-2.6-2.1l-1.7-0.5c-2.8-0.9-3.3-2.2-3.3-3.7c0-2.9,2.7-5.2,6.8-5.4l0.4-2.9h1.5l-0.5,2.9
	c3,0.3,5.1,1.7,5.1,3.5c0,0.9-0.7,1.6-1.6,1.6h-0.2c-2.1,0-1.8-2.9-4-2.9c-1.6,0-2.7,0.7-2.7,1.9c0,0.8,0.6,1.3,1.9,1.7l2.9,0.8
	c2.6,0.8,3.5,1.9,3.5,3.9c0,3.4-3.8,5.6-7.3,5.8l-0.5,3h-1.6L89.7,57.4z"/>
<rect x="34.9" y="26.8" class="st1" width="33.4" height="88.8"/>
<rect x="74.4" y="65.3" class="st2" width="33.4" height="50.4"/>
<rect x="568.3" y="32.1" class="st3" width="22" height="28.5"/>
<line class="st4" x1="572.1" y1="37.3" x2="586.4" y2="37.3"/>
<line class="st4" x1="572.1" y1="40.9" x2="586.4" y2="40.9"/>
<line class="st4" x1="572.1" y1="44.5" x2="586.4" y2="44.5"/>
<line class="st4" x1="572.1" y1="48.1" x2="586.4" y2="48.1"/>
<line class="st4" x1="572.1" y1="51.7" x2="586.4" y2="51.7"/>
<line class="st4" x1="572.1" y1="55.3" x2="581.3" y2="55.3"/>
<rect x="575.4" y="26.8" class="st3" width="22" height="28.5"/>
<line class="st4" x1="579.3" y1="32.1" x2="593.6" y2="32.1"/>
<line class="st4" x1="579.3" y1="35.7" x2="593.6" y2="35.7"/>
<line class="st4" x1="579.3" y1="39.3" x2="593.6" y2="39.3"/>
<line class="st4" x1="579.3" y1="42.9" x2="593.6" y2="42.9"/>
<line class="st4" x1="579.3" y1="46.5" x2="593.6" y2="46.5"/>
<line class="st4" x1="579.3" y1="50.1" x2="588.4" y2="50.1"/>
<rect x="712" y="42.7" class="st3" width="29.2" height="19.7"/>
<rect x="717" y="30.1" class="st0" width="19.1" height="29.9"/>
<polygon class="st3" points="737.4,35.6 726.6,25 715.8,35.6 720.6,35.6 720.6,56.2 732.6,56.2 732.6,35.6 "/>
<rect x="826.7" y="31.6" class="st3" width="22" height="28.5"/>
<line class="st4" x1="830.5" y1="36.8" x2="844.9" y2="36.8"/>
<line class="st4" x1="830.5" y1="40.4" x2="844.9" y2="40.4"/>
<line class="st4" x1="830.5" y1="44" x2="844.9" y2="44"/>
<line class="st4" x1="830.5" y1="47.6" x2="844.9" y2="47.6"/>
<line class="st4" x1="830.5" y1="51.2" x2="844.9" y2="51.2"/>
<line class="st4" x1="830.5" y1="54.8" x2="839.7" y2="54.8"/>
<polygon class="st3" points="848.7,27.4 851.7,25.4 853.5,28.5 857,28 857.3,31.5 860.7,32.6 859.4,35.9 862,38.4 859.4,40.8 
	860.7,44.2 857.3,45.2 857,48.8 853.5,48.3 851.7,51.4 848.7,49.4 845.7,51.4 843.9,48.3 840.4,48.8 840.1,45.2 836.7,44.2 
	838,40.8 835.4,38.4 838,35.9 836.7,32.6 840.1,31.5 840.4,28 843.9,28.5 845.7,25.4 "/>
<circle class="st3" cx="848.7" cy="38.8" r="7.1"/>
<polygon class="st3" points="443.8,56.3 434,61.5 435.9,50.5 427.9,42.8 438.9,41.2 443.8,31.2 448.8,41.2 459.8,42.8 451.8,50.5 
	453.7,61.5 "/>
<path class="st3" d="M943.2,31.8h22.4c2,0,3.6,1.6,3.6,3.6l0,0c0,2-1.6,3.6-3.6,3.6h-22.4c-2,0-3.6-1.6-3.6-3.6l0,0
	C939.6,33.4,941.2,31.8,943.2,31.8z"/>
<path class="st3" d="M953.3,43.3h12.3c2,0,3.6,1.6,3.6,3.6l0,0c0,2-1.6,3.6-3.6,3.6h-12.3c-2,0-3.6-1.6-3.6-3.6l0,0
	C949.7,44.9,951.3,43.3,953.3,43.3z"/>
<path class="st3" d="M953.3,54.8h12.3c2,0,3.6,1.6,3.6,3.6l0,0c0,2-1.6,3.6-3.6,3.6h-12.3c-2,0-3.6-1.6-3.6-3.6l0,0
	C949.7,56.4,951.3,54.8,953.3,54.8z"/>
<polyline class="st5" points="943.2,39 943.2,58.8 949.6,58.8 "/>
<line class="st5" x1="949.6" y1="46.9" x2="943.2" y2="46.9"/>
</svg>
