<?xml version="1.0" encoding="utf-8"?>
<!-- Generator: Adobe Illustrator 20.1.0, SVG Export Plug-In . SVG Version: 6.00 Build 0)  -->
<svg version="1.1" id="Layer_1" xmlns="http://www.w3.org/2000/svg" xmlns:xlink="http://www.w3.org/1999/xlink" x="0px" y="0px"
	 viewBox="0 0 460 92.7" style="enable-background:new 0 0 460 92.7;" xml:space="preserve">
<style type="text/css">
	.st0{fill:#66676B;}
	.st1{fill:#FFFFFF;stroke:#66676C;stroke-width:1.55;stroke-linejoin:round;}
	.st2{fill:#FFFFFF;stroke:#66676C;stroke-width:1.92;stroke-linejoin:round;}
	.st3{fill:none;stroke:#66676C;stroke-width:1.38;stroke-miterlimit:10;}
	.st4{fill:#FFFFFF;}
</style>
<path class="st0" d="M12.3,66.1c0.2,1.1,0.3,1.8,1.6,2l-0.1,0.5H9.2l0.1-0.5c0.7-0.1,1.4-0.2,1.4-1c0-0.2,0-0.4-0.1-0.5l-0.5-2.2
	H5.8L5,65.8c-0.3,0.4-0.5,0.9-0.5,1.4s0.4,0.9,0.9,0.9h0.1h0.3l-0.1,0.5H1.2l0.1-0.5c1-0.1,1.8-0.7,2.2-1.6L8.8,57h1.6L12.3,66.1z
	 M9,58.4l-2.8,5.1h3.9L9,58.4z"/>
<path class="st0" d="M29.6,61.9l0.5-2.7c0-0.2,0.1-0.4,0-0.6c0.1-0.5-0.3-1-0.9-1.1c-0.1,0-0.1,0-0.2,0h-0.2l0.1-0.5h4.8l-0.1,0.5
	h-0.2c-1.3,0.1-1.6,0.7-1.8,1.9l-1.2,6.9c0,0.1,0,0.3,0,0.4v0.1c0,0.6,0.4,1.1,1,1.1h0.2l-0.1,0.5h-4.7l0.1-0.5h0.2
	c0.4,0,0.9-0.1,1.2-0.4c0.3-0.4,0.5-0.9,0.6-1.4l0.6-3.5h-6.3l-0.7,3.7c0,0.2-0.1,0.4-0.1,0.6c0,0.3,0.1,0.5,0.2,0.7
	c0.2,0.3,0.6,0.4,0.9,0.4h0.3l-0.1,0.5h-4.9l0.1-0.5c1.4-0.1,1.6-0.8,1.8-1.9l1.3-7c0-0.2,0-0.3,0-0.6c0.1-0.5-0.3-1-0.9-1.1H21
	h-0.2l0.1-0.5h4.9l-0.1,0.5h-0.2c-1.4,0-1.6,0.6-1.8,1.9l-0.5,2.6H29.6L29.6,61.9z"/>
<path class="st0" d="M35.8,66.3c0,0.2-0.1,0.4-0.1,0.6c-0.1,0.5,0.3,0.9,0.7,1c0.1,0,0.1,0,0.2,0c0.4,0,0.9-0.3,1.2-0.6l0.4,0.3
	c-0.6,0.7-1.5,1.1-2.4,1.2c-0.8,0-1.6-0.6-1.6-1.5c0-0.1,0-0.1,0-0.2c0-0.3,0-0.5,0.1-0.8l0.6-3.5c0-0.2,0.1-0.4,0.1-0.6
	c0-0.7-0.5-0.8-1.1-0.9h-0.1l0.1-0.5l0.7-0.1c0.6-0.1,1.2-0.2,1.8-0.3H37L35.8,66.3z M36.4,59.4c-0.5,0-0.8-0.4-0.8-0.9l0,0
	c0-0.6,0.5-1.1,1.2-1.2c0.4,0,0.8,0.3,0.9,0.7v0.1C37.6,58.8,37.1,59.3,36.4,59.4L36.4,59.4z"/>
<path class="st0" d="M45.6,67.6c-0.2,1.4-0.4,2.5-1.5,3.4c-1.1,0.8-2.4,1.3-3.7,1.3c-0.8,0-1.7-0.1-2.4-0.5
	c-0.4-0.1-0.8-0.5-0.8-0.9c0-0.5,0.5-0.8,0.9-0.8s0.7,0.2,0.9,0.5c0.1,0.2,0.3,0.5,0.4,0.6c0.4,0.3,0.8,0.4,1.2,0.4
	c0.9,0,1.7-0.4,2.3-1c0.6-0.7,1-1.6,1.1-2.5l0.3-1.5l0,0c-0.7,1.3-1.9,2.1-3.3,2.1c-1.8,0-2.8-1.4-2.8-3.1c0-2.6,1.9-5.4,4.7-5.4
	c0.9,0,1.8,0.4,2.4,1l0.3-0.9H47L45.6,67.6z M45,62c-0.5-0.6-1.2-1-2-1c-2.2,0-3.2,3.1-3.2,4.9c0,1,0.2,2,1.4,2
	c1.2-0.2,2.2-1,2.7-2.1s0.8-2.3,1-3.6L45,62z"/>
<path class="st0" d="M49.7,58.9c0-0.2,0.1-0.4,0.1-0.6c0-0.4-0.2-0.8-0.7-0.8H49h-0.4l0.1-0.5c0.8-0.1,1.6-0.3,2.4-0.6h0.6l-0.9,5.2
	c1-0.8,2.3-1.3,3.6-1.4c1,0,2.1,0.4,2.1,1.6c0,0.5-0.1,1.1-0.2,1.6l-0.4,2.5c-0.1,0.4-0.1,0.7-0.2,1.1c0,0.5,0.4,0.9,0.9,0.9l0,0
	c0.5,0,0.9-0.2,1.2-0.6l0.4,0.4c-0.6,0.7-1.4,1.1-2.3,1.1c-0.9,0.1-1.6-0.6-1.7-1.4c0-0.1,0-0.2,0-0.2c0-0.4,0.1-0.7,0.1-1.1l0.5-3
	c0-0.3,0.1-0.6,0.1-0.9l0,0c0-0.6-0.5-1.1-1.1-1.1h-0.1c-1.1,0.2-2.2,0.6-3.1,1.4l-1.1,6.2h-1.6L49.7,58.9z"/>
<path class="st0" d="M66,67.1c-1.2,1-2.7,1.5-4.2,1.6c-1.9,0-3.7-1.2-3.7-3.2c0.1-1.5,0.7-2.8,1.8-3.8s2.5-1.5,4-1.6
	c1.1,0,2.8,0.5,2.8,1.9c0,2.3-5,2.8-6.8,2.8c-0.1,0.3-0.1,0.5-0.1,0.8c0,1.2,0.9,2.2,2.1,2.2c0.1,0,0.2,0,0.3,0
	c1.2-0.1,2.3-0.5,3.2-1.3L66,67.1z M60.2,64.2c1.5,0,5-0.3,5-2.2c-0.1-0.7-0.7-1.3-1.4-1.3h-0.1C61.9,60.8,60.6,62.7,60.2,64.2
	L60.2,64.2z"/>
<path class="st0" d="M70.6,61.4L70.6,61.4c0.7-0.7,1.7-1.2,2.7-1.3c0.5-0.1,1,0.2,1.1,0.8l0,0c-0.1,0.5-0.5,0.9-1.1,0.9
	c-0.7,0-0.9-0.5-1.4-0.5c-1.4,0-1.7,2-1.9,3.1l-0.7,4.1h-1.5l1-5.9c0-0.2,0.1-0.4,0.1-0.6c0-0.7-0.6-0.8-1.2-0.8l0.1-0.5l2.4-0.4
	h0.6L70.6,61.4z"/>
<path class="st0" d="M87.7,68.6h-9.2l0.1-0.5c1.3-0.1,1.6-0.7,1.8-1.9l1.2-7c0-0.2,0.1-0.4,0-0.6c0.1-0.5-0.3-1-0.9-1.1h-0.1h-0.2
	l0.1-0.5h4.7l-0.1,0.5H85c-0.4,0-0.8,0.1-1.2,0.4c-0.4,0.4-0.6,0.9-0.6,1.4L82,65.9c-0.1,0.4-0.1,0.7-0.1,1.1c0,0.8,0.7,0.8,1.3,0.8
	c2.2-0.1,4.3-1.2,5.5-3.1l0.5,0.2L87.7,68.6z"/>
<path class="st0" d="M96.9,67.1c-1.2,1-2.7,1.5-4.2,1.6c-1.9,0-3.7-1.2-3.7-3.2c0.1-1.5,0.7-2.8,1.8-3.8s2.5-1.5,4-1.6
	c1.1,0,2.8,0.5,2.8,1.9c0,2.3-5,2.8-6.8,2.8c-0.1,0.3-0.1,0.5-0.1,0.8c0,1.2,0.9,2.2,2.1,2.2c0.1,0,0.2,0,0.3,0
	c1.2-0.1,2.3-0.5,3.2-1.3L96.9,67.1z M91.1,64.2c1.5,0,5-0.3,5-2.2c-0.1-0.7-0.7-1.3-1.4-1.3h-0.1C92.8,60.8,91.5,62.7,91.1,64.2
	L91.1,64.2z"/>
<path class="st0" d="M100.8,66c-0.1,0.2-0.1,0.5-0.1,0.8c0,0.6,0.4,1.1,1,1.1c0.1,0,0.2,0,0.3,0c2.1-0.2,3.7-1.9,3.7-3.9
	c0-1.9-1.3-1.7-1.3-2.7c0-0.6,0.4-1,1-1.1c0.4,0,0.8,0.3,1,0.8s0.3,1.1,0.3,1.6c0,3.1-1.9,6.2-5.3,6.2c-1.2,0-2.3-0.3-2.3-1.7
	c0-0.4,0.1-0.8,0.1-1.2l0.5-3.1c0-0.2,0.1-0.4,0.1-0.6c0-0.4-0.3-0.8-0.7-0.8c0,0,0,0-0.1,0l-0.4-0.1l0.1-0.5c0.8,0,1.7-0.2,2.5-0.4
	h0.5L100.8,66z"/>
<path class="st0" d="M115.3,67.1c-1.2,1-2.7,1.5-4.2,1.6c-1.9,0-3.7-1.2-3.7-3.2c0.1-1.5,0.7-2.8,1.8-3.8s2.5-1.5,4-1.6
	c1.1,0,2.8,0.5,2.8,1.9c0,2.3-5,2.8-6.8,2.8c-0.1,0.3-0.1,0.5-0.1,0.8c0,1.2,0.9,2.2,2.1,2.2c0.1,0,0.2,0,0.3,0
	c1.2-0.1,2.3-0.5,3.2-1.3L115.3,67.1z M109.5,64.2c1.5,0,5-0.3,5-2.2c-0.1-0.7-0.7-1.3-1.4-1.3H113
	C111.2,60.8,109.9,62.7,109.5,64.2z"/>
<path class="st0" d="M119,65.6c-0.1,0.4-0.1,0.7-0.2,1.1v0.1c0,0.5,0.4,1,0.9,1h0.1c0.5-0.1,0.9-0.3,1.2-0.6l0.4,0.4
	c-0.6,0.8-1.6,1.2-2.6,1.2c-0.9,0-1.6-0.7-1.6-1.6v-0.1c0-0.4,0.1-0.9,0.2-1.3l1.2-6.8c0-0.2,0.1-0.4,0.1-0.6c0-0.8-0.5-0.8-1.2-0.9
	l0.1-0.5c0.8-0.1,1.6-0.3,2.4-0.6h0.7L119,65.6z"/>
<path class="st0" d="M20.3,89.1c-1.8,0.2-3.4-1.2-3.6-3c0-0.2,0-0.3,0-0.5c0-1.3,0.5-2.5,1.4-3.5s2.3-1.6,3.6-1.6
	c1.8-0.1,3.4,1.2,3.5,3.1c0,0.1,0,0.3,0,0.4C25.3,86.8,23.1,89.1,20.3,89.1L20.3,89.1z M20.4,88.3c1.1,0,2.1-0.7,2.5-1.7
	c0.4-0.9,0.7-2,0.7-3c0-0.6-0.1-1.3-0.5-1.8c-0.4-0.3-0.9-0.5-1.4-0.5c-2.3,0-3.2,2.9-3.2,4.7C18.4,87.4,19,88.3,20.4,88.3
	L20.4,88.3z"/>
<path class="st0" d="M31.8,80.7l-0.1,0.5h-1.8l-1.1,6.5c-0.1,1.2-0.5,2.4-1.1,3.5c-0.8,1-2.1,1.5-3.4,1.4c-0.8,0-2.3-0.3-2.3-1.3
	c0-0.4,0.3-0.6,0.7-0.6h0.1c1.1,0,1.1,1.3,2.2,1.3c0.5,0,0.9-0.3,1.3-0.6c0.3-0.5,0.5-1,0.6-1.6l0.2-1.1l1.3-7.5h-1.5l0.1-0.5h1.5
	c0-1,0.4-2,1-2.8c0.7-0.8,1.7-1.3,2.8-1.3c0.6,0,2,0.2,2,1c0,0.4-0.4,0.7-0.8,0.7l0,0c-1,0-0.7-1-1.7-1c-0.4,0-0.8,0.2-1,0.6
	c-0.3,0.5-0.4,1-0.5,1.5l-0.2,1.4L31.8,80.7L31.8,80.7z"/>
<path class="st0" d="M48.1,80.7l-0.7,0.2c-0.7-1.7-2.5-2.8-4.3-2.7h-0.4c-0.5,0-0.9,0-1.3,0.2c-0.4,0.3-0.6,0.7-0.6,1.2l-0.5,2.8
	h1.1c1.6,0,2-0.5,2.5-2h0.5l-0.8,4.9h-0.5V85c0-1.2-0.4-1.8-1.7-1.8h-1.2l-0.7,3.6c0,0.2-0.1,0.4,0,0.5c0,0.8,1,0.8,1.6,0.8h0.2
	c2.3,0,4.5-1.1,5.9-2.9l0.5,0.2L46,88.9H36l0.1-0.5c1.4-0.1,1.6-0.7,1.8-1.9l1.2-7c0-0.2,0.1-0.4,0.1-0.6c0.1-0.5-0.3-1.1-0.9-1.1
	h-0.1H38l0.1-0.5h9.4L48.1,80.7z"/>
<path class="st0" d="M57.1,88c-0.6,0.6-1.4,1-2.2,1.1c-1.4,0-1.9-1.2-2.4-2.4l-0.6-1.4c-0.8,1.3-2.1,3.7-3.8,3.7
	c-0.5,0-0.8-0.3-0.9-0.8c0-0.5,0.3-0.8,0.8-0.9c0.1,0,0.1,0,0.2,0h0.2h0.4c1.3,0,2.3-1.9,2.8-2.8l-0.3-0.9c-0.4-1.1-0.7-1.9-2-2.1
	l0.1-0.5c0.7,0,1.5-0.2,2.1-0.5H52l1.2,3.5c0.7-1.1,2.4-3.7,3.9-3.7c0.4,0,0.7,0.3,0.7,0.7l0,0c0,0.6-0.5,1-1.1,0.9c0,0,0,0-0.1,0
	h-0.3c-0.5,0-0.9,0.2-1.2,0.5c-0.7,0.6-1.2,1.3-1.7,2.1c0.4,0.9,1,3.2,2.3,3.2c0.3,0,0.7-0.1,0.9-0.4L57.1,88z"/>
<path class="st0" d="M60.7,82.9L60.7,82.9c0.6-1.4,1.9-2.4,3.5-2.4c1.8,0,2.8,1.4,2.8,3.1v0.2c0,1.3-0.5,2.6-1.3,3.6
	s-2.1,1.7-3.4,1.7c-0.9,0-1.8-0.4-2.5-1.1l-0.4,2.5c0,0.2-0.1,0.4-0.1,0.6c0,0.8,0.5,0.8,1.3,0.9l-0.1,0.5H56l0.1-0.5
	c1.4-0.1,1.6-0.7,1.8-1.9l1.2-7.2c0-0.2,0.1-0.4,0.1-0.6c0-0.4-0.2-0.8-0.6-0.8h-0.1l-0.4-0.1l0.1-0.5l2.4-0.3h0.5L60.7,82.9z
	 M59.9,87.3c0.5,0.6,1.2,1,2,0.9c2.3,0,3.3-3,3.3-5c0-1-0.3-1.9-1.5-1.9c-1.2,0.2-2.2,0.9-2.7,2s-0.9,2.3-1.1,3.5V87.3z"/>
<path class="st0" d="M75.5,87.5c-1.2,1-2.7,1.5-4.2,1.6c-1.9,0-3.7-1.2-3.7-3.2c0.1-1.5,0.7-2.8,1.8-3.8s2.5-1.5,4-1.6
	c1.1,0,2.8,0.5,2.8,1.9c0,2.3-5,2.8-6.8,2.8c-0.1,0.3-0.1,0.5-0.1,0.8c0,1.2,0.9,2.2,2.1,2.2c0.1,0,0.2,0,0.3,0
	c1.2-0.1,2.3-0.5,3.2-1.3L75.5,87.5z M69.7,84.6c1.5,0,5-0.3,5-2.2c-0.1-0.7-0.7-1.3-1.4-1.3h-0.1C71.4,81.2,70.1,83.1,69.7,84.6
	L69.7,84.6z"/>
<path class="st0" d="M80.1,81.8L80.1,81.8c0.7-0.7,1.7-1.2,2.7-1.3c0.5-0.1,1,0.2,1.1,0.8l0,0c-0.1,0.5-0.5,0.9-1.1,0.9
	c-0.7,0-0.9-0.5-1.4-0.5c-1.4,0-1.7,2-1.9,3.1l-0.7,4.1h-1.5l1-5.9c0-0.2,0.1-0.4,0.1-0.6c0-0.7-0.6-0.8-1.2-0.8l0.1-0.5l2.4-0.4
	h0.6L80.1,81.8z"/>
<path class="st0" d="M87.1,80.7h2.4l-0.1,0.5H87l-0.8,4.6c-0.1,0.5-0.2,0.9-0.2,1.4c-0.1,0.5,0.3,1,0.9,1.1H87
	c0.6,0,1.2-0.3,1.7-0.8l0.4,0.4c-0.7,0.7-1.6,1.1-2.6,1.1c-0.9,0-2-0.3-2-1.4c0-0.5,0.1-1,0.2-1.5l0.9-4.9h-1.5l0.1-0.5
	c2-0.1,2.5-1.3,2.9-3.1h0.6L87.1,80.7z"/>
<path class="st0" d="M91.9,86.6c0,0.2-0.1,0.4-0.1,0.6c-0.1,0.5,0.3,0.9,0.8,1c0.1,0,0.1,0,0.2,0c0.4,0,0.9-0.3,1.2-0.6l0.4,0.3
	c-0.6,0.7-1.5,1.1-2.4,1.2c-0.8,0-1.6-0.6-1.6-1.5c0-0.1,0-0.1,0-0.2c0-0.3,0-0.5,0.1-0.8l0.6-3.5c0-0.2,0.1-0.4,0.1-0.6
	c0-0.7-0.5-0.8-1.1-0.9h-0.3l0.1-0.5l0.7-0.1c0.6-0.1,1.2-0.2,1.8-0.3H93L91.9,86.6z M92.5,79.7c-0.4,0-0.8-0.4-0.8-0.8l0,0
	c0-0.6,0.5-1.1,1.2-1.2c0.4,0,0.8,0.3,0.9,0.7v0.1C93.7,79.2,93.2,79.7,92.5,79.7L92.5,79.7z"/>
<path class="st0" d="M96.6,84.7c-0.7-0.3-1.2-0.9-1.2-1.7c0-0.8,0.5-1.5,1.1-1.8c0.7-0.4,1.5-0.7,2.3-0.6c1,0,1.9,0.2,2.8,0.6
	c0.4,0.1,0.7,0.5,0.8,0.9c0,0.4-0.3,0.7-0.7,0.7c0,0,0,0-0.1,0c-0.4,0-0.8-0.2-1-0.6c-0.2-0.3-0.4-0.5-0.7-0.7
	c-0.4-0.2-0.8-0.3-1.2-0.3c-0.8-0.1-1.6,0.4-1.7,1.2v0.1c0,0.4,0.2,0.8,0.6,1c0.5,0.2,1.1,0.4,1.7,0.6c1.1,0.4,2.7,0.7,2.7,2.2
	c-0.1,0.9-0.6,1.7-1.4,2.2c-0.8,0.5-1.7,0.7-2.7,0.7s-2-0.2-2.9-0.7c-0.5-0.2-0.8-0.6-0.9-1.1c0-0.4,0.4-0.8,0.8-0.8
	c1.4,0,0.9,1.9,3.2,1.9c0.5,0,1-0.1,1.5-0.4c0.4-0.3,0.7-0.7,0.7-1.2c0-0.9-0.8-1.1-1.5-1.3L96.6,84.7z"/>
<path class="st0" d="M111.2,87.5c-1.2,1-2.7,1.5-4.2,1.6c-1.9,0-3.7-1.2-3.7-3.2c0.1-1.5,0.7-2.8,1.8-3.8s2.5-1.5,4-1.6
	c1.1,0,2.8,0.5,2.8,1.9c0,2.3-5,2.8-6.8,2.8c-0.1,0.3-0.1,0.5-0.1,0.8c0,1.2,0.9,2.2,2.1,2.2c0.1,0,0.2,0,0.3,0
	c1.2-0.1,2.3-0.5,3.2-1.3L111.2,87.5z M105.4,84.6c1.5,0,5-0.3,5-2.2c-0.1-0.7-0.7-1.3-1.4-1.3h-0.1
	C107.1,81.2,105.8,83.1,105.4,84.6L105.4,84.6z"/>
<path class="st0" d="M166,57c0.9,0,1.9,0.1,2.8,0.3c0.9,0.3,1.5,1.1,1.5,2.1c0,1.6-1.5,2.6-3,2.8l0,0c1.4,0,2.5,1.1,2.6,2.5
	c0,1.3-0.8,2.5-2,3.1c-1.3,0.6-2.7,0.8-4.1,0.7H158l0.1-0.5c1.4-0.1,1.6-0.8,1.8-1.9l1.2-7c0-0.2,0.1-0.4,0.1-0.5
	c0.1-0.5-0.3-1-0.9-1.1h-0.1H160l0.1-0.5H166L166,57z M161.4,66.3c0,0.2-0.1,0.4,0,0.6c0,0.3,0.2,0.6,0.5,0.7
	c0.5,0.2,1.1,0.2,1.6,0.2c1.1,0.1,2.2-0.2,3.1-0.7c0.8-0.6,1.3-1.6,1.3-2.6c0.1-0.8-0.5-1.6-1.3-1.7s-1.6-0.2-2.5-0.2H162
	L161.4,66.3z M164.2,62c1,0.1,2-0.1,2.9-0.4c0.8-0.4,1.3-1.2,1.3-2.1c0-1.7-2-1.8-3.3-1.8h-0.2c-0.6-0.1-1.3,0.1-1.8,0.3
	c-0.3,0.3-0.4,0.7-0.5,1.1l-0.5,2.9H164.2L164.2,62z"/>
<path class="st0" d="M178.7,67.1c-1.2,1-2.7,1.5-4.2,1.6c-1.9,0-3.7-1.2-3.7-3.2c0.1-1.5,0.7-2.8,1.8-3.8s2.5-1.5,4-1.6
	c1.1,0,2.8,0.5,2.8,1.9c0,2.3-5,2.8-6.8,2.8c-0.1,0.3-0.1,0.5-0.1,0.8c0,1.2,0.9,2.2,2.1,2.2c0.1,0,0.2,0,0.3,0
	c1.2-0.1,2.3-0.5,3.2-1.3L178.7,67.1z M172.9,64.2c1.5,0,5-0.3,5-2.2c-0.1-0.7-0.7-1.3-1.4-1.3h-0.1
	C174.6,60.8,173.3,62.7,172.9,64.2L172.9,64.2z"/>
<path class="st0" d="M183.6,60.3h2.4l-0.1,0.5h-2.4l-0.8,4.6c-0.1,0.5-0.2,0.9-0.2,1.4c-0.1,0.5,0.3,1,0.9,1.1h0.1
	c0.6,0,1.2-0.3,1.7-0.8l0.4,0.4c-0.7,0.7-1.6,1.1-2.6,1.1c-0.9,0-2-0.3-2-1.4c0-0.5,0.1-1,0.2-1.5l0.9-4.9h-1.5v-0.5
	c2-0.1,2.5-1.3,2.9-3.1h0.6L183.6,60.3z"/>
<path class="st0" d="M189.3,60.3h2.4l-0.1,0.5h-2.4l-0.8,4.6c-0.1,0.5-0.2,0.9-0.2,1.4c-0.1,0.5,0.3,1,0.9,1.1h0.1
	c0.6,0,1.2-0.3,1.7-0.8l0.4,0.4c-0.7,0.7-1.6,1.1-2.6,1.1c-0.9,0-2-0.3-2-1.4c0-0.5,0.1-1,0.2-1.5l0.9-4.9h-1.5l0.1-0.5
	c2-0.1,2.5-1.3,2.9-3.1h0.6L189.3,60.3z"/>
<path class="st0" d="M199.5,67.1c-1.2,1-2.7,1.5-4.2,1.6c-1.9,0-3.7-1.2-3.7-3.2c0.1-1.5,0.7-2.8,1.8-3.8s2.5-1.5,4-1.6
	c1.1,0,2.8,0.5,2.8,1.9c0,2.3-5,2.8-6.8,2.8c-0.1,0.3-0.1,0.5-0.1,0.8c0,1.2,0.9,2.2,2.1,2.2c0.1,0,0.2,0,0.3,0
	c1.2-0.1,2.3-0.5,3.2-1.3L199.5,67.1z M193.7,64.2c1.5,0,5-0.3,5-2.2c-0.1-0.7-0.7-1.3-1.4-1.3h-0.1C195.3,60.8,194,62.7,193.7,64.2
	L193.7,64.2z"/>
<path class="st0" d="M204,61.4L204,61.4c0.7-0.7,1.7-1.2,2.7-1.3c0.5-0.1,1,0.2,1.1,0.8l0,0c-0.1,0.5-0.5,0.9-1.1,0.9
	c-0.7,0-0.9-0.5-1.4-0.5c-1.4,0-1.7,2-1.9,3.1l-0.7,4.1h-1.5l1-5.9c0-0.2,0.1-0.4,0.1-0.6c0-0.7-0.6-0.8-1.2-0.8l0.1-0.5l2.4-0.4
	h0.6L204,61.4z"/>
<path class="st0" d="M216.1,63l-0.6,3.3c0,0.2,0,0.4,0,0.6V67c0,0.2,0.1,0.4,0.2,0.6c0.2,0.3,0.5,0.4,0.9,0.4h0.3l-0.1,0.5H212
	l0.1-0.5c1.4-0.1,1.6-0.7,1.8-1.9l1.2-7c0-0.2,0.1-0.4,0.1-0.6c0.1-0.5-0.3-1-0.9-1.1h-0.1H214l0.1-0.5h6.1c1.8,0,3.9,0.2,3.9,2.5
	c-0.1,2-1.8,3.5-3.7,3.5l2,3.4c0.3,0.8,1,1.5,1.9,1.6l-0.1,0.5h-2.8l-2.9-5.5L216.1,63L216.1,63z M218.3,62.4
	c0.9,0.1,1.8-0.1,2.6-0.5c0.8-0.5,1.3-1.4,1.3-2.3c0-0.7-0.4-1.3-1-1.5s-1.3-0.3-2-0.3s-1.3,0.1-1.9,0.3c-0.3,0.2-0.5,0.6-0.5,1
	l-0.6,3.3H218.3L218.3,62.4z"/>
<path class="st0" d="M232.4,67.1c-1.2,1-2.7,1.5-4.2,1.6c-1.9,0-3.7-1.2-3.7-3.2c0.1-1.5,0.7-2.8,1.8-3.8s2.5-1.5,4-1.6
	c1.1,0,2.8,0.5,2.8,1.9c0,2.3-5,2.8-6.8,2.8c-0.1,0.3-0.1,0.5-0.1,0.8c0,1.2,0.9,2.2,2.1,2.2c0.1,0,0.2,0,0.3,0
	c1.2-0.1,2.3-0.5,3.2-1.3L232.4,67.1z M226.6,64.2c1.5,0,5-0.3,5-2.2c-0.1-0.7-0.7-1.3-1.4-1.3h-0.1C228.3,60.8,227,62.7,226.6,64.2
	L226.6,64.2z"/>
<path class="st0" d="M237,62.5L237,62.5c0.6-1.4,1.9-2.4,3.5-2.4c1.8,0,2.8,1.4,2.8,3.1v0.2c0,1.3-0.5,2.6-1.3,3.6s-2.1,1.7-3.4,1.7
	c-0.9,0-1.8-0.4-2.5-1.1l-0.4,2.5c0,0.2-0.1,0.4-0.1,0.6c0,0.8,0.5,0.8,1.3,0.9l-0.1,0.5h-4.5l0.1-0.5c1.4-0.1,1.6-0.7,1.8-1.9
	l1.2-7.2c0-0.2,0.1-0.4,0.1-0.6c0-0.4-0.2-0.8-0.6-0.8h-0.1l-0.4-0.1l0.1-0.5l2.4-0.3h0.5L237,62.5z M236.2,67c0.5,0.6,1.2,1,2,0.9
	c2.3,0,3.3-3,3.3-5c0-1-0.3-1.9-1.5-1.9c-1.2,0.2-2.2,0.9-2.7,2c-0.5,1.1-0.9,2.3-1.1,3.5V67z"/>
<path class="st0" d="M247.6,68.7c-1.8,0.2-3.4-1.2-3.6-3c0-0.2,0-0.3,0-0.5c0-1.3,0.5-2.5,1.4-3.5s2.3-1.6,3.6-1.6
	c1.8-0.1,3.4,1.2,3.5,3.1c0,0.1,0,0.3,0,0.4C252.6,66.4,250.4,68.7,247.6,68.7L247.6,68.7z M247.7,67.9c1.1,0,2.1-0.7,2.5-1.7
	c0.4-0.9,0.7-2,0.7-3c0-0.6-0.1-1.3-0.5-1.8c-0.4-0.3-0.9-0.5-1.4-0.5c-2.3,0-3.2,2.9-3.2,4.7C245.7,67,246.3,67.9,247.7,67.9
	L247.7,67.9z"/>
<path class="st0" d="M256.4,61.4L256.4,61.4c0.7-0.7,1.7-1.2,2.7-1.3c0.5-0.1,1,0.2,1.1,0.8l0,0c-0.1,0.5-0.5,0.9-1.1,0.9
	c-0.7,0-0.9-0.5-1.4-0.5c-1.4,0-1.7,2-1.9,3.1l-0.7,4.1h-1.5l1-5.9c0-0.2,0.1-0.4,0.1-0.6c0-0.7-0.6-0.8-1.2-0.8l0.1-0.5l2.4-0.4
	h0.6L256.4,61.4z"/>
<path class="st0" d="M263.5,60.3h2.4l-0.1,0.5h-2.4l-0.9,4.6c-0.1,0.5-0.2,0.9-0.2,1.4c-0.1,0.5,0.3,1,0.9,1.1h0.1
	c0.6,0,1.2-0.3,1.7-0.8l0.4,0.4c-0.7,0.7-1.6,1.1-2.6,1.1c-0.9,0-2-0.3-2-1.4c0-0.5,0.1-1,0.2-1.5l0.9-4.9h-1.5l0.1-0.5
	c2-0.1,2.5-1.3,2.9-3.1h0.6L263.5,60.3z"/>
<path class="st0" d="M268.2,66.3c0,0.2-0.1,0.4-0.1,0.6c-0.1,0.5,0.3,0.9,0.8,1c0.1,0,0.1,0,0.2,0c0.4,0,0.9-0.3,1.2-0.6l0.4,0.3
	c-0.6,0.7-1.5,1.1-2.4,1.2c-0.8,0-1.6-0.6-1.6-1.5c0-0.1,0-0.1,0-0.2c0-0.3,0-0.5,0.1-0.8l0.6-3.5c0-0.2,0.1-0.4,0.1-0.6
	c0-0.7-0.5-0.8-1.1-0.9h-0.1l0.1-0.5l0.7-0.1c0.6-0.1,1.2-0.2,1.8-0.3h0.6L268.2,66.3z M268.8,59.4c-0.4,0-0.8-0.4-0.8-0.8l0,0
	c0-0.6,0.6-1.1,1.2-1.2c0.4,0,0.8,0.3,0.9,0.7v0.1C270,58.8,269.5,59.3,268.8,59.4L268.8,59.4z"/>
<path class="st0" d="M272.5,68.6H271l1-5.9c0-0.2,0.1-0.4,0.1-0.6c0-0.7-0.6-0.8-1.2-0.8l0.1-0.5l2.4-0.4h0.6l-0.2,1.2
	c1-0.8,2.2-1.3,3.5-1.4c1,0,2.1,0.5,2.1,1.7c0,0.3-0.1,0.7-0.1,1l-0.6,3.4c-0.1,0.2-0.1,0.5-0.1,0.8c0,0.5,0.4,0.9,0.8,0.9
	c0.4,0,0.9-0.2,1.2-0.5l0.3,0.4c-0.6,0.7-1.4,1-2.3,1c-0.8,0-1.5-0.6-1.6-1.4c0,0,0,0,0-0.1l0,0c0-0.5,0.1-1.1,0.2-1.6l0.5-2.7
	c0.1-0.3,0.1-0.5,0.1-0.8c0-0.6-0.5-1.1-1.1-1.1c0,0,0,0-0.1,0c-1.1,0.1-2.2,0.6-3,1.4L272.5,68.6z"/>
<path class="st0" d="M288.5,67.6c-0.2,1.4-0.4,2.5-1.5,3.4c-1.1,0.8-2.4,1.3-3.7,1.3c-0.8,0-1.7-0.1-2.4-0.5
	c-0.4-0.1-0.8-0.5-0.8-0.9c0-0.5,0.5-0.8,0.9-0.8s0.7,0.2,0.9,0.5c0.1,0.2,0.3,0.5,0.4,0.6c0.4,0.3,0.8,0.4,1.2,0.4
	c0.9,0,1.7-0.4,2.3-1c0.6-0.7,1-1.6,1.1-2.5l0.3-1.5l0,0c-0.7,1.2-1.9,2-3.3,2.1c-1.8,0-2.8-1.4-2.8-3.1c0-2.6,1.9-5.4,4.7-5.4
	c0.9,0,1.8,0.4,2.4,1l0.4-0.9h1.4L288.5,67.6z M287.9,62c-0.5-0.6-1.2-1-2-1c-2.2,0-3.2,3.1-3.2,4.9c0,1,0.2,2,1.4,2
	c1.2-0.2,2.2-1,2.7-2.1s0.8-2.3,1-3.6L287.9,62z"/>
<path class="st0" d="M183.6,89.2c-0.9,0-1.8-0.2-2.6-0.7c-0.9-0.5-1.4-1.5-1.5-2.5c0-2,1.9-3.6,3.8-4c-0.5-0.5-0.7-1.2-0.7-1.9
	c0.1-1.8,1.6-3.2,3.4-3.1c1.1-0.1,2,0.8,2.1,1.9l0,0c0,1.5-1.5,2.6-2.8,3c1.2,1.2,2.1,2.5,2.8,4c0.5-0.6,0.9-1.3,1.1-2.1
	c0-0.2-0.1-0.3-0.3-0.4c0,0,0,0-0.1,0c-0.5,0-0.8-0.4-0.8-0.9l0,0c0.1-0.6,0.6-1.1,1.2-1.2c0.7,0,1.2,0.5,1.2,1.2v0.1
	c0,1.2-1.3,3-2.1,3.9c0.4,0.9,0.9,1.8,2,1.8c0.4,0.1,0.7-0.2,0.8-0.5c0-0.4-0.5-0.2-0.5-1c0-0.6,0.4-1,1-1s1,0.4,1,1c0,0,0,0,0,0.1
	c0,1.4-1.5,2.2-2.8,2.2c-1.1,0-2.1-0.5-2.7-1.4C186.3,88.7,185,89.2,183.6,89.2z M181.3,86c-0.1,1.3,0.8,2.4,2.1,2.5
	c0.1,0,0.3,0,0.4,0c1.2,0,2.3-0.4,3.2-1.2c-0.8-1.8-1.9-3.4-3.3-4.7C182.2,83,181.2,84.4,181.3,86L181.3,86z M185.8,77.8
	c-1,0.1-1.7,0.9-1.7,1.9l0,0c0,0.7,0.3,1.4,0.8,1.9c1.1-0.4,1.9-1.4,2-2.6c0-0.6-0.4-1.1-1-1.1C185.8,77.8,185.8,77.8,185.8,77.8
	L185.8,77.8z"/>
<path class="st0" d="M208.1,86.5c0.2,1.1,0.3,1.8,1.6,2l-0.1,0.5H205l0.1-0.5c0.7-0.1,1.4-0.2,1.4-1c0-0.2,0-0.4-0.1-0.5l-0.5-2.2
	h-4.3l-0.8,1.4c-0.3,0.4-0.5,0.9-0.5,1.4s0.4,0.9,0.9,0.9h0.1h0.3l-0.1,0.5H197l0.1-0.5c1-0.1,1.8-0.7,2.2-1.6l5.3-9.5h1.6
	L208.1,86.5z M204.8,78.8l-2.8,5.1h3.9L204.8,78.8z"/>
<path class="st0" d="M212.5,89H211l1-5.9c0-0.2,0.1-0.4,0.1-0.6c0-0.7-0.6-0.8-1.2-0.8l0.1-0.5l2.4-0.4h0.6l-0.2,1.2
	c1-0.8,2.2-1.3,3.5-1.4c1,0,2.1,0.5,2.1,1.7c0,0.3-0.1,0.7-0.1,1l-0.6,3.4c-0.1,0.2-0.1,0.5-0.1,0.8c0,0.5,0.4,0.9,0.8,0.9
	c0.4,0,0.8-0.3,1.1-0.6l0.3,0.4c-0.6,0.7-1.4,1-2.3,1c-0.8,0-1.5-0.6-1.6-1.4c0,0,0,0,0-0.1l0,0c0-0.5,0.1-1.1,0.2-1.6l0.5-2.7
	c0.1-0.3,0.1-0.5,0.1-0.8c0-0.6-0.4-1.1-1-1.1h-0.1c-1.1,0.1-2.2,0.6-3,1.4L212.5,89z"/>
<path class="st0" d="M229.2,86.5c-0.1,0.2-0.1,0.5-0.1,0.7c0,0.5,0.3,1,0.9,1c0,0,0,0,0.1,0c0.5,0,0.9-0.3,1.2-0.6l0.4,0.4
	c-0.6,0.7-1.5,1.2-2.4,1.2s-1.7-0.7-1.7-1.7c0-0.1,0-0.1,0-0.2v-0.2l0,0c-0.7,1.2-2,2-3.4,2c-1.6,0-2.9-1.2-2.9-2.8
	c0-0.1,0-0.2,0-0.4c0-2.6,2-5.3,4.8-5.3c0.9,0,1.9,0.3,2.5,1l0.2-0.8h1.6L229.2,86.5z M226.3,81.3c-2.3,0-3.5,3-3.5,5
	c-0.2,0.9,0.4,1.8,1.4,2c0.1,0,0.2,0,0.3,0c1.3,0,2.4-1.2,2.9-2.3c0.5-1.2,0.8-2.4,1-3.7C227.9,81.7,227.1,81.3,226.3,81.3z"/>
<path class="st0" d="M233.9,86c-0.1,0.4-0.1,0.7-0.2,1.1v0.1c0,0.5,0.4,1,0.9,1h0.1c0.5-0.1,0.9-0.3,1.2-0.6l0.4,0.4
	c-0.6,0.8-1.6,1.2-2.6,1.2c-0.9,0-1.6-0.7-1.6-1.6v-0.1c0-0.4,0.1-0.9,0.2-1.3l1.2-6.8c0-0.2,0.1-0.4,0.1-0.6c0-0.8-0.5-0.8-1.2-0.9
	l0.1-0.5c0.8-0.1,1.6-0.3,2.4-0.6h0.6L233.9,86z"/>
<path class="st0" d="M244.1,88.8c-0.1,1.2-0.7,2.2-1.7,2.9c-1,0.7-2.2,1-3.3,1c-0.8,0-1.5-0.1-2.2-0.5c-0.4-0.1-0.6-0.5-0.7-0.9
	c0-0.4,0.4-0.7,0.8-0.7l0,0c1.1,0,0.7,1.4,2.3,1.4c0.8,0,1.5-0.3,2.1-0.9c0.6-0.7,1-1.5,1-2.4l0.2-1.4c-1,1-2.4,1.6-3.8,1.7
	c-1,0.1-1.8-0.5-2-1.5c0-0.1,0-0.2,0-0.3v-0.6l0.1-0.5l0.6-3.2c0-0.2,0.1-0.4,0.1-0.6c0-0.7-0.5-0.8-1.2-0.8l0.1-0.5h0.5l1.8-0.3
	h0.7l-1,5.5c-0.1,0.3-0.1,0.6-0.1,0.9c-0.1,0.5,0.3,1,0.9,1.1c0.1,0,0.1,0,0.2,0c1.3-0.1,2.4-0.7,3.3-1.5l1-5.9h1.5L244.1,88.8z"/>
<path class="st0" d="M248.9,84.7c-0.7-0.3-1.2-0.9-1.2-1.7c0-0.8,0.5-1.5,1.1-1.8c0.7-0.4,1.5-0.7,2.3-0.6c1,0,1.9,0.2,2.8,0.6
	c0.4,0.1,0.7,0.5,0.8,0.9c0,0.4-0.3,0.7-0.7,0.7c0,0,0,0-0.1,0c-0.4,0-0.8-0.2-1-0.6c-0.2-0.3-0.4-0.5-0.7-0.7
	c-0.4-0.2-0.8-0.3-1.2-0.3c-0.8-0.1-1.6,0.5-1.6,1.3c0,0.4,0.2,0.8,0.6,1c0.5,0.2,1.1,0.4,1.7,0.6c1.1,0.4,2.7,0.7,2.7,2.2
	c-0.1,0.9-0.6,1.7-1.4,2.2c-0.8,0.5-1.7,0.7-2.7,0.7s-2-0.2-2.9-0.7c-0.5-0.2-0.9-0.6-1-1.1c0-0.4,0.4-0.8,0.8-0.8
	c1.4,0,0.9,1.9,3.2,1.9c0.5,0,1-0.1,1.5-0.4c0.4-0.3,0.7-0.7,0.7-1.2c0-0.9-0.8-1.1-1.5-1.3L248.9,84.7z"/>
<path class="st0" d="M258.2,86.6c0,0.2-0.1,0.4-0.1,0.6c-0.1,0.5,0.3,0.9,0.8,1c0.1,0,0.1,0,0.2,0c0.4,0,0.9-0.3,1.2-0.6l0.4,0.3
	c-0.6,0.7-1.5,1.1-2.4,1.2c-0.8,0-1.6-0.6-1.6-1.5c0-0.1,0-0.1,0-0.2c0-0.3,0-0.5,0.1-0.8l0.6-3.5c0-0.2,0.1-0.4,0.1-0.6
	c0-0.7-0.5-0.8-1.1-0.9h-0.1l0.1-0.5l0.7-0.1c0.6-0.1,1.2-0.2,1.8-0.3h0.6L258.2,86.6z M258.8,79.7c-0.4,0-0.8-0.4-0.8-0.8l0,0
	c0-0.6,0.5-1.1,1.2-1.2c0.4,0,0.8,0.3,0.9,0.7v0.1C260,79.2,259.5,79.7,258.8,79.7L258.8,79.7z"/>
<path class="st0" d="M262.8,84.7c-0.7-0.3-1.2-0.9-1.2-1.7c0-0.8,0.5-1.5,1.1-1.8c0.7-0.4,1.5-0.7,2.3-0.6c1,0,1.9,0.2,2.8,0.6
	c0.4,0.1,0.7,0.5,0.8,0.9c0,0.4-0.3,0.7-0.7,0.7c0,0,0,0-0.1,0c-0.4,0-0.8-0.2-1-0.6c-0.2-0.3-0.4-0.5-0.7-0.7
	c-0.4-0.2-0.8-0.3-1.2-0.3c-0.8-0.1-1.6,0.4-1.7,1.2v0.1c0,0.4,0.2,0.8,0.6,1c0.5,0.2,1.1,0.4,1.7,0.6c1.1,0.4,2.7,0.7,2.7,2.2
	c-0.1,0.9-0.6,1.7-1.4,2.2c-0.8,0.5-1.7,0.7-2.7,0.7s-2-0.2-2.9-0.7c-0.5-0.2-0.8-0.6-0.8-1.1c0-0.4,0.4-0.8,0.8-0.8
	c1.4,0,0.9,1.9,3.2,1.9c0.5,0,1-0.1,1.5-0.4c0.4-0.3,0.7-0.7,0.7-1.2c0-0.9-0.8-1.1-1.5-1.3L262.8,84.7z"/>
<path class="st0" d="M363.8,60.3h-0.6c-0.3-0.7-0.7-1.3-1.2-1.9c-0.7-0.6-1.6-1-2.5-1c-0.7,0-1.4,0.2-2,0.6c-0.5,0.4-0.8,1-0.9,1.6
	c0,1.1,1.2,1.4,2,1.6l2.3,0.6c1.5,0.4,2.8,0.9,2.8,2.7c0,1.2-0.7,2.3-1.7,3c-1,0.8-2.3,1.2-3.6,1.2c-1.3,0.1-2.5-0.4-3.5-1.2
	l-0.5,0.9h-0.6l-0.4-4.2h0.7c0.4,2.1,2.1,3.6,4.2,3.7c0.9,0,1.7-0.3,2.4-0.8s1.1-1.2,1.1-2.1c0-0.5-0.3-1-0.8-1.2
	c-0.7-0.3-1.5-0.6-2.2-0.7c-1.7-0.4-4.2-0.9-4.2-3c0.1-1,0.5-1.9,1.3-2.5c0.9-0.7,2-1,3.1-1s2.2,0.3,3.2,0.9l0.3-0.6h0.5L363.8,60.3
	z"/>
<path class="st0" d="M372.6,65.7c-0.1,0.4-0.1,0.7-0.1,1.1c0,0.5,0.4,0.9,0.9,0.9l0,0c0.5,0,0.9-0.3,1.2-0.6l0.4,0.3
	c-0.6,0.7-1.5,1.2-2.4,1.2c-0.9,0.1-1.6-0.6-1.7-1.5V67c-1,0.9-2.3,1.5-3.7,1.5c-0.9,0.2-1.8-0.4-2-1.3c0-0.1,0-0.2,0-0.3
	c0-0.4,0.1-0.8,0.1-1.2l0.5-3.1c0.1-0.2,0.1-0.4,0.1-0.6c0-0.4-0.3-0.8-0.7-0.8l0,0h-0.3l0.1-0.5l2.4-0.4h0.6l-1,5.6
	c-0.1,0.3-0.1,0.5-0.1,0.8v0.1c0,0.6,0.4,1,1,1h0.1c1.1-0.1,2.2-0.6,3-1.3l1.1-6.1h1.5L372.6,65.7z"/>
<path class="st0" d="M378.1,62.5L378.1,62.5c0.6-1.4,1.9-2.4,3.5-2.4c1.8,0,2.8,1.4,2.8,3.1v0.2c0,1.3-0.5,2.6-1.3,3.6
	s-2.1,1.7-3.4,1.7c-0.9,0-1.8-0.4-2.5-1.1l-0.4,2.5c0,0.2-0.1,0.4-0.1,0.6c0,0.8,0.5,0.8,1.3,0.9l-0.1,0.5h-4.5l0.1-0.5
	c1.4-0.1,1.6-0.7,1.8-1.9l1.2-7.2c0-0.2,0.1-0.4,0.1-0.6c0-0.4-0.2-0.8-0.6-0.8h-0.1l-0.4-0.1l0.1-0.5l2.4-0.3h0.5L378.1,62.5z
	 M377.3,67c0.5,0.6,1.2,1,2,0.9c2.3,0,3.3-3,3.3-5c0-1-0.3-1.9-1.4-1.9c-1.2,0.2-2.2,0.9-2.7,2c-0.5,1.1-0.9,2.3-1.1,3.5L377.3,67z"
	/>
<path class="st0" d="M388.3,62.5L388.3,62.5c0.6-1.4,1.9-2.4,3.5-2.4c1.8,0,2.8,1.4,2.8,3.1v0.2c0,1.3-0.5,2.6-1.3,3.6
	s-2.1,1.7-3.4,1.7c-0.9,0-1.8-0.4-2.5-1.1l-0.4,2.5c0,0.2-0.1,0.4-0.1,0.6c0,0.8,0.5,0.8,1.3,0.9l-0.1,0.5h-4.5l0.1-0.5
	c1.4-0.1,1.6-0.7,1.8-1.9l1.2-7.2c0-0.2,0.1-0.4,0.1-0.6c0-0.4-0.2-0.8-0.6-0.8h-0.1l-0.4-0.1l0.1-0.5l2.4-0.3h0.5L388.3,62.5z
	 M387.5,67c0.5,0.6,1.2,1,2,0.9c2.3,0,3.3-3,3.3-5c0-1-0.3-1.9-1.5-1.9c-1.2,0.2-2.2,0.9-2.7,2c-0.5,1.1-0.9,2.3-1.1,3.5V67z"/>
<path class="st0" d="M398.9,68.7c-1.8,0.2-3.4-1.2-3.6-3c0-0.2,0-0.3,0-0.5c0-1.3,0.5-2.5,1.4-3.5s2.3-1.6,3.6-1.6
	c1.8-0.1,3.4,1.2,3.5,3.1c0,0.1,0,0.3,0,0.4C404,66.4,401.8,68.7,398.9,68.7C399,68.7,399,68.7,398.9,68.7z M399,67.9
	c1.1,0,2.1-0.7,2.5-1.7c0.4-0.9,0.7-2,0.7-3c0-0.6-0.1-1.3-0.5-1.8c-0.4-0.3-0.9-0.5-1.4-0.5c-2.3,0-3.2,2.9-3.2,4.7
	C397.1,67,397.6,67.9,399,67.9L399,67.9z"/>
<path class="st0" d="M407.8,61.4L407.8,61.4c0.7-0.7,1.7-1.2,2.7-1.3c0.5-0.1,1,0.2,1.1,0.8l0,0c-0.1,0.5-0.5,0.9-1.1,0.9
	c-0.7,0-0.9-0.5-1.4-0.5c-1.4,0-1.7,2-1.9,3.1l-0.7,4.2H405l1-5.9c0-0.2,0.1-0.4,0.1-0.6c0-0.7-0.6-0.8-1.2-0.8l0.1-0.5l2.4-0.4h0.6
	L407.8,61.4z"/>
<path class="st0" d="M414.8,60.3h2.4l-0.1,0.5h-2.4l-0.8,4.6c-0.1,0.5-0.2,0.9-0.2,1.4c-0.1,0.5,0.3,1,0.9,1.1h0.1
	c0.6,0,1.2-0.3,1.7-0.8l0.4,0.5c-0.7,0.7-1.6,1.1-2.6,1.1c-0.9,0-2-0.3-2-1.4c0-0.5,0.1-1,0.2-1.5l0.9-4.9h-1.5l0.1-0.5
	c2-0.1,2.5-1.3,2.9-3.1h0.6L414.8,60.3z"/>
<path class="st0" d="M419.6,66.3c0,0.2-0.1,0.4-0.1,0.6c-0.1,0.5,0.3,0.9,0.8,1c0.1,0,0.1,0,0.2,0c0.4,0,0.9-0.3,1.2-0.6l0.4,0.3
	c-0.6,0.7-1.5,1.1-2.4,1.2c-0.8,0-1.6-0.6-1.6-1.5c0-0.1,0-0.1,0-0.2c0-0.3,0-0.5,0.1-0.8l0.6-3.5c0-0.2,0.1-0.4,0.1-0.6
	c0-0.7-0.5-0.8-1.1-0.9h-0.1l0.1-0.5l0.7-0.1c0.6-0.1,1.2-0.2,1.8-0.3h0.6L419.6,66.3z M420.2,59.4c-0.4,0-0.8-0.4-0.8-0.8l0,0
	c0-0.6,0.5-1.1,1.2-1.2c0.4,0,0.8,0.3,0.9,0.7v0.1C421.4,58.8,420.8,59.3,420.2,59.4L420.2,59.4z"/>
<path class="st0" d="M423.9,68.6h-1.5l1-5.9c0-0.2,0.1-0.4,0.1-0.6c0-0.7-0.6-0.8-1.2-0.8l0.1-0.5l2.4-0.4h0.6l-0.2,1.2
	c1-0.8,2.2-1.3,3.5-1.4c1,0,2.1,0.5,2.1,1.7c0,0.3-0.1,0.7-0.1,1l-0.6,3.4c-0.1,0.2-0.1,0.5-0.1,0.8c0,0.5,0.4,0.9,0.8,0.9
	c0.4,0,0.8-0.3,1.1-0.6l0.3,0.4c-0.6,0.7-1.4,1-2.3,1c-0.8,0-1.5-0.6-1.6-1.4c0,0,0,0,0-0.1l0,0c0-0.5,0.1-1.1,0.2-1.6L429,63
	c0.1-0.3,0.1-0.5,0.1-0.8c0-0.6-0.5-1.1-1.1-1.1c0,0,0,0-0.1,0c-1.1,0.1-2.2,0.6-3,1.4L423.9,68.6z"/>
<path class="st0" d="M439.9,67.6c-0.2,1.4-0.4,2.5-1.5,3.4c-1.1,0.8-2.4,1.3-3.7,1.3c-0.8,0-1.7-0.1-2.4-0.5
	c-0.4-0.1-0.8-0.5-0.8-0.9c0-0.5,0.5-0.8,0.9-0.8s0.7,0.2,0.9,0.5c0.1,0.2,0.3,0.5,0.4,0.6c0.4,0.3,0.8,0.4,1.2,0.4
	c0.9,0,1.7-0.4,2.3-1c0.6-0.7,1-1.6,1.1-2.5l0.3-1.5l0,0c-0.7,1.2-1.9,2-3.3,2.1c-1.8,0-2.8-1.4-2.8-3.1c0-2.6,1.9-5.4,4.7-5.4
	c0.9,0,1.8,0.4,2.4,1l0.4-0.9h1.4L439.9,67.6z M439.3,62c-0.5-0.6-1.2-1-2-1c-2.2,0-3.2,3.1-3.2,4.9c0,1,0.2,2,1.4,2
	c1.2-0.2,2.2-1,2.7-2.1s0.8-2.3,1-3.6L439.3,62z"/>
<path class="st0" d="M343.3,77.4c0.9,0,1.9,0.1,2.8,0.3c0.9,0.3,1.5,1.1,1.5,2.1c0,1.6-1.5,2.6-3,2.8l0,0c1.4,0,2.5,1.1,2.6,2.5
	c0,1.3-0.8,2.5-2,3.1c-1.3,0.6-2.7,0.8-4.1,0.7h-5.9l0.1-0.5c1.4-0.1,1.6-0.8,1.8-1.9l1.2-7c0-0.2,0.1-0.4,0.1-0.5
	c0.1-0.5-0.3-1-0.9-1.1h-0.1h-0.2l0.1-0.5H343.3L343.3,77.4z M338.8,86.7c0,0.2-0.1,0.4,0,0.6c0,0.3,0.2,0.6,0.5,0.7
	c0.5,0.2,1.1,0.2,1.6,0.2c1.1,0.1,2.2-0.2,3.1-0.7c0.8-0.6,1.3-1.6,1.3-2.6c0.1-0.8-0.5-1.6-1.3-1.7s-1.6-0.2-2.5-0.2h-2.1
	L338.8,86.7z M341.6,82.4c1,0.1,2-0.1,2.9-0.4c0.8-0.4,1.3-1.2,1.3-2.1c0-1.7-2-1.8-3.3-1.8h-0.2c-0.6-0.1-1.3,0.1-1.8,0.3
	c-0.3,0.3-0.4,0.7-0.5,1.1l-0.5,2.9H341.6L341.6,82.4z"/>
<path class="st0" d="M356.5,86.1c-0.1,0.4-0.1,0.7-0.1,1.1c0,0.5,0.4,0.9,0.9,0.9l0,0c0.5,0,0.9-0.3,1.2-0.6l0.4,0.3
	c-0.6,0.7-1.5,1.2-2.4,1.2c-0.9,0.1-1.6-0.6-1.7-1.5v-0.1c-1,0.9-2.3,1.5-3.7,1.5c-0.9,0.2-1.8-0.4-2-1.3c0-0.1,0-0.2,0-0.3
	c0-0.4,0.1-0.8,0.1-1.2l0.5-3.1c0.1-0.2,0.1-0.4,0.1-0.6c0-0.4-0.3-0.8-0.7-0.8l0,0l-0.4-0.1l0.1-0.5l2.4-0.4h0.6l-1,5.6
	c-0.1,0.3-0.1,0.5-0.1,0.8v0.1c0,0.6,0.4,1,1,1h0.1c1.1-0.1,2.2-0.6,3-1.3l1.1-6.1h1.7L356.5,86.1z"/>
<path class="st0" d="M361.2,84.7c-0.7-0.3-1.2-0.9-1.2-1.7c0-0.8,0.5-1.5,1.1-1.8c0.7-0.4,1.5-0.7,2.3-0.6c1,0,1.9,0.2,2.8,0.6
	c0.4,0.1,0.7,0.5,0.8,0.9c0,0.4-0.3,0.7-0.7,0.7c0,0,0,0-0.1,0c-0.4,0-0.8-0.2-1-0.6c-0.2-0.3-0.4-0.5-0.7-0.7
	c-0.4-0.2-0.8-0.3-1.2-0.3c-0.8-0.1-1.6,0.4-1.7,1.2v0.1c0,0.4,0.2,0.8,0.6,1c0.5,0.2,1.1,0.4,1.7,0.6c1.1,0.4,2.7,0.7,2.7,2.2
	c-0.1,0.9-0.6,1.7-1.4,2.2c-0.8,0.5-1.7,0.7-2.7,0.7s-2-0.2-2.9-0.7c-0.5-0.2-0.8-0.6-0.9-1.1c0-0.4,0.4-0.8,0.8-0.8
	c1.4,0,0.9,1.9,3.2,1.9c0.5,0,1-0.1,1.5-0.4c0.4-0.3,0.7-0.7,0.7-1.2c0-0.9-0.8-1.1-1.5-1.3L361.2,84.7z"/>
<path class="st0" d="M370.4,86.6c0,0.2-0.1,0.4-0.1,0.6c-0.1,0.5,0.3,0.9,0.8,1c0.1,0,0.1,0,0.2,0c0.4,0,0.9-0.3,1.2-0.6l0.4,0.3
	c-0.6,0.7-1.5,1.1-2.4,1.2c-0.8,0-1.6-0.6-1.6-1.5c0-0.1,0-0.1,0-0.2c0-0.3,0-0.5,0.1-0.8l0.6-3.5c0-0.2,0.1-0.4,0.1-0.6
	c0-0.7-0.5-0.8-1.1-0.9h-0.1l0.1-0.5l0.7-0.1c0.6-0.1,1.2-0.2,1.8-0.3h0.6L370.4,86.6z M371,79.7c-0.4,0-0.8-0.4-0.8-0.8l0,0
	c0-0.6,0.5-1.1,1.2-1.2c0.4,0,0.8,0.3,0.9,0.7v0.1C372.3,79.2,371.7,79.7,371,79.7L371,79.7z"/>
<path class="st0" d="M374.7,89h-1.5l1-5.9c0-0.2,0.1-0.4,0.1-0.6c0-0.7-0.6-0.8-1.2-0.8l0.1-0.5l2.4-0.4h0.6L376,82
	c1-0.8,2.2-1.3,3.5-1.4c1,0,2.1,0.5,2.1,1.7c0,0.3-0.1,0.7-0.1,1l-0.7,3.3c-0.1,0.2-0.1,0.5-0.1,0.8c0,0.5,0.4,0.9,0.8,0.9
	c0.4,0,0.8-0.3,1.1-0.6l0.3,0.4c-0.6,0.7-1.4,1-2.3,1c-0.8,0-1.5-0.6-1.6-1.4c0,0,0,0,0-0.1l0,0c0-0.5,0.1-1.1,0.2-1.6l0.5-2.7
	c0.1-0.3,0.1-0.5,0.1-0.8c0-0.6-0.5-1.1-1.1-1.1c0,0,0,0-0.1,0c-1.1,0.1-2.2,0.6-3,1.4L374.7,89z"/>
<path class="st0" d="M391.1,87.5c-1.2,1-2.7,1.5-4.2,1.6c-1.9,0-3.7-1.2-3.7-3.2c0.1-1.5,0.7-2.8,1.8-3.8s2.5-1.5,4-1.6
	c1.1,0,2.8,0.5,2.8,1.9c0,2.3-5,2.8-6.8,2.8c-0.1,0.3-0.1,0.5-0.1,0.8c0,1.2,0.9,2.2,2.1,2.2c0.1,0,0.2,0,0.4,0
	c1.2-0.1,2.3-0.5,3.2-1.3L391.1,87.5z M385.3,84.6c1.5,0,5-0.3,5-2.2c-0.1-0.7-0.7-1.3-1.4-1.3h-0.1C387,81.2,385.7,83.1,385.3,84.6
	z"/>
<path class="st0" d="M394.8,84.7c-0.7-0.3-1.2-0.9-1.2-1.7c0-0.8,0.5-1.5,1.1-1.8c0.7-0.4,1.5-0.7,2.3-0.6c1,0,1.9,0.2,2.8,0.6
	c0.4,0.1,0.7,0.5,0.8,0.9c0,0.4-0.3,0.7-0.7,0.7c0,0,0,0-0.1,0c-0.4,0-0.8-0.2-1-0.6c-0.2-0.3-0.4-0.5-0.7-0.7
	c-0.4-0.2-0.8-0.3-1.2-0.3c-0.8-0.1-1.6,0.4-1.7,1.2v0.1c0,0.4,0.2,0.8,0.6,1c0.5,0.2,1.1,0.4,1.7,0.6c1.1,0.4,2.7,0.7,2.7,2.2
	c-0.1,0.9-0.6,1.7-1.4,2.2c-0.8,0.5-1.7,0.7-2.7,0.7s-2-0.2-2.9-0.7c-0.4-0.2-0.8-0.6-0.8-1.1c0-0.4,0.4-0.8,0.8-0.8
	c1.4,0,0.9,1.9,3.2,1.9c0.5,0,1-0.1,1.5-0.4c0.4-0.3,0.7-0.7,0.7-1.2c0-0.9-0.8-1.1-1.5-1.3L394.8,84.7z"/>
<path class="st0" d="M404,84.7c-0.7-0.3-1.2-0.9-1.2-1.7c0-0.8,0.5-1.5,1.1-1.8c0.7-0.4,1.5-0.7,2.3-0.6c1,0,1.9,0.2,2.8,0.6
	c0.4,0.1,0.7,0.5,0.8,0.9c0,0.4-0.3,0.7-0.7,0.7c0,0,0,0-0.1,0c-0.4,0-0.8-0.2-1-0.6c-0.2-0.3-0.4-0.5-0.7-0.7
	c-0.4-0.2-0.8-0.3-1.2-0.3c-0.8-0.1-1.6,0.4-1.7,1.2v0.1c0,0.4,0.2,0.8,0.6,1c0.5,0.2,1.1,0.4,1.7,0.6c1.1,0.4,2.7,0.7,2.7,2.2
	c-0.1,0.9-0.6,1.7-1.4,2.2c-0.8,0.5-1.7,0.7-2.7,0.7s-2-0.2-2.9-0.7c-0.5-0.2-0.8-0.6-0.9-1.1c0-0.4,0.4-0.8,0.8-0.8
	c1.4,0,0.9,1.9,3.2,1.9c0.5,0,1-0.1,1.5-0.4c0.4-0.3,0.7-0.7,0.7-1.2c0-0.9-0.8-1.1-1.5-1.3L404,84.7z"/>
<path class="st0" d="M426.2,80.7h-0.6c-0.3-0.7-0.7-1.3-1.2-1.9c-0.7-0.6-1.6-1-2.5-1c-0.7,0-1.4,0.2-2,0.6c-0.5,0.4-0.8,1-0.9,1.6
	c0,1.1,1.2,1.4,2,1.6l2.3,0.6c1.5,0.4,2.8,0.9,2.8,2.7c0,1.2-0.7,2.3-1.7,3c-1,0.8-2.3,1.2-3.6,1.2c-1.3,0.1-2.5-0.4-3.5-1.2
	l-0.5,0.9h-0.6l-0.4-4.2h0.7c0.4,2.1,2.1,3.6,4.2,3.7c0.9,0,1.7-0.3,2.4-0.8s1.1-1.2,1.1-2.1c0-0.5-0.3-1-0.8-1.2
	c-0.7-0.3-1.5-0.6-2.2-0.7c-1.7-0.4-4.2-0.9-4.2-3c0.1-1,0.5-1.9,1.3-2.5c0.9-0.7,2-1,3.1-1s2.2,0.3,3.2,0.9l0.3-0.6h0.5L426.2,80.7
	z"/>
<path class="st0" d="M434.1,87.3c-1,1.1-2.4,1.7-3.9,1.7c-1.8,0.1-3.3-1.3-3.4-3c0-0.1,0-0.2,0-0.3c0.1-2.8,2.3-5.1,5.2-5.2
	c1.1,0,2.6,0.6,2.6,1.9c0,0.6-0.4,1-1,1c-0.3,0-0.6-0.2-0.7-0.5c0,0,0,0,0-0.1s0-0.3,0-0.5c0-0.6-0.4-1-1-1c-0.1,0-0.2,0-0.2,0
	c-2,0-3.2,3-3.2,4.6c-0.1,1.2,0.9,2.2,2.1,2.3h0.1c1.1-0.1,2.2-0.6,3-1.4L434.1,87.3z"/>
<path class="st0" d="M443.1,86.5c-0.1,0.2-0.1,0.5-0.1,0.7c0,0.5,0.3,1,0.9,1h0.1c0.5,0,0.9-0.3,1.2-0.6l0.4,0.4
	c-0.6,0.7-1.5,1.2-2.4,1.2s-1.7-0.7-1.7-1.6c0-0.1,0-0.1,0-0.2v-0.2l0,0c-0.7,1.2-2,2-3.4,2c-1.6,0-2.9-1.2-2.9-2.8
	c0-0.1,0-0.2,0-0.4c0-2.6,2-5.3,4.8-5.3c0.9,0,1.9,0.3,2.5,1l0.2-0.8h1.6L443.1,86.5z M440.3,81.3c-2.3,0-3.5,3-3.5,5
	c-0.2,0.9,0.4,1.8,1.4,2c0.1,0,0.2,0,0.3,0c1.3,0,2.4-1.2,2.9-2.3c0.5-1.2,0.8-2.4,1-3.7C441.8,81.7,441.1,81.3,440.3,81.3z"/>
<path class="st0" d="M447.8,86c-0.1,0.4-0.1,0.7-0.2,1.1v0.1c0,0.5,0.4,1,0.9,1h0.1c0.5-0.1,0.9-0.3,1.2-0.6l0.4,0.4
	c-0.6,0.8-1.6,1.2-2.6,1.2c-0.9,0-1.6-0.7-1.6-1.6v-0.1c0-0.4,0.1-0.9,0.2-1.3l1.2-6.8c0-0.2,0.1-0.4,0.1-0.6c0-0.8-0.5-0.8-1.2-0.9
	l0.1-0.5c0.8-0.1,1.6-0.3,2.4-0.6h0.7L447.8,86z"/>
<path class="st0" d="M458.1,87.5c-1.2,1-2.7,1.5-4.2,1.6c-1.9,0-3.7-1.2-3.7-3.2c0.1-1.5,0.7-2.8,1.8-3.8s2.5-1.5,4-1.6
	c1.1,0,2.8,0.5,2.8,1.9c0,2.3-5,2.8-6.8,2.8c-0.1,0.3-0.1,0.5-0.1,0.8c0,1.2,0.9,2.2,2.1,2.3c0.1,0,0.3,0,0.4,0
	c1.2-0.1,2.3-0.5,3.2-1.3L458.1,87.5z M452.3,84.6c1.5,0,5-0.3,5-2.2c-0.1-0.7-0.7-1.3-1.4-1.3h-0.1C454,81.2,452.7,83.1,452.3,84.6
	L452.3,84.6z"/>
<polygon class="st1" points="56.6,35.1 59.4,39.3 64.8,24.9 57.2,22.1 51.8,36.4 "/>
<polygon class="st1" points="70,35.1 67.2,39.3 61.8,24.9 69.4,22.1 74.8,36.4 "/>
<polygon class="st1" points="63.3,3.9 66.3,1.6 68,5 71.6,4.1 71.7,7.9 75.4,8.8 73.7,12.2 76.7,14.6 73.7,17 75.4,20.4 71.7,21.3 
	71.6,25 68,24.2 66.3,27.6 63.3,25.3 60.3,27.6 58.7,24.2 55,25 55,21.3 51.3,20.4 52.9,17 50,14.6 52.9,12.2 51.3,8.8 55,7.9 
	55,4.1 58.7,5 60.3,1.6 "/>
<circle class="st2" cx="63.3" cy="15" r="6.2"/>
<rect x="209.1" y="7.9" class="st1" width="22" height="28.6"/>
<line class="st3" x1="212.9" y1="13.1" x2="227.3" y2="13.1"/>
<line class="st3" x1="212.9" y1="16.8" x2="227.3" y2="16.8"/>
<line class="st3" x1="212.9" y1="20.4" x2="227.3" y2="20.4"/>
<line class="st3" x1="212.9" y1="24" x2="227.3" y2="24"/>
<line class="st3" x1="212.9" y1="27.6" x2="227.3" y2="27.6"/>
<line class="st3" x1="212.9" y1="31.2" x2="222.1" y2="31.2"/>
<rect x="216.3" y="2.6" class="st1" width="22" height="28.6"/>
<line class="st3" x1="220.1" y1="7.9" x2="234.5" y2="7.9"/>
<line class="st3" x1="220.1" y1="11.5" x2="234.5" y2="11.5"/>
<line class="st3" x1="220.1" y1="15.1" x2="234.5" y2="15.1"/>
<line class="st3" x1="220.1" y1="18.7" x2="234.5" y2="18.7"/>
<line class="st3" x1="220.1" y1="22.3" x2="234.5" y2="22.3"/>
<line class="st3" x1="220.1" y1="25.9" x2="229.3" y2="25.9"/>
<rect x="382.3" y="18.5" class="st1" width="29.3" height="19.8"/>
<rect x="387.3" y="5.9" class="st4" width="19.2" height="30"/>
<polygon class="st1" points="407.7,11.4 396.9,0.8 386.1,11.4 390.9,11.4 390.9,32 402.9,32 402.9,11.4 "/>
</svg>
