<?xml version="1.0" encoding="utf-8"?>
<!-- Generator: Adobe Illustrator 24.0.3, SVG Export Plug-In . SVG Version: 6.00 Build 0)  -->
<svg version="1.1" id="Layer_1" xmlns="http://www.w3.org/2000/svg" xmlns:xlink="http://www.w3.org/1999/xlink" x="0px" y="0px"
	 viewBox="0 0 161.4 93.8" style="enable-background:new 0 0 161.4 93.8;" xml:space="preserve">
<style type="text/css">
	.st0{fill:#004A7C;}
	.st1{fill:#A9D15D;}
</style>
<g>
	<g>
		<path class="st0" d="M8.3,78.4c0,0.8-0.7,1.3-1.7,1.3h-4v-4.5h3.8c0.5,0,1,0.2,1.3,0.5C7.9,75.9,8,76.2,8,76.5
			c0,0.4-0.1,0.6-0.5,0.9C8,77.6,8.3,77.9,8.3,78.4 M6.9,76.5c0-0.3-0.2-0.4-0.5-0.4H3.7v0.9h2.8C6.7,76.9,6.9,76.7,6.9,76.5
			 M7.1,78.3c0-0.3-0.3-0.5-0.7-0.5H3.7v1h2.8C6.9,78.8,7.1,78.7,7.1,78.3"/>
		<path class="st0" d="M13.3,79.8c-1.7,0-2.7-0.7-2.7-1.7v-3h1.1V78c0,0.6,0.6,0.9,1.6,0.9c1,0,1.6-0.4,1.6-0.9v-2.9H16v3
			C16,79.1,15,79.8,13.3,79.8"/>
		<rect x="18.6" y="75.2" class="st0" width="1.1" height="4.5"/>
		<polygon class="st0" points="22.3,79.7 22.3,75.2 23.4,75.2 23.4,78.8 26.9,78.8 26.9,79.7 		"/>
		<path class="st0" d="M34.8,77.5c0,0.7-0.3,1.2-0.8,1.6c-0.5,0.4-1.1,0.6-1.8,0.6H29v-4.5h3C33.7,75.2,34.8,76.1,34.8,77.5
			 M33.3,78.3c0.2-0.2,0.3-0.5,0.3-0.8c0-0.8-0.6-1.4-1.5-1.4h-2v2.8h2C32.6,78.8,33.1,78.6,33.3,78.3"/>
		<rect x="37.1" y="75.2" class="st0" width="1.1" height="4.5"/>
		<polygon class="st0" points="45,79.7 42,76.5 41.9,76.5 41.9,79.7 40.8,79.7 40.8,75.2 42.1,75.2 45.2,78.4 45.2,78.4 45.2,75.2 
			46.3,75.2 46.3,79.7 		"/>
		<path class="st0" d="M54.2,79.1c-0.6,0.5-1.4,0.7-2.4,0.7c-0.9,0-1.7-0.3-2.3-0.8c-0.5-0.4-0.8-1-0.8-1.7c0-0.7,0.3-1.2,0.8-1.6
			c0.6-0.5,1.4-0.8,2.3-0.8c1.2,0,2.1,0.4,2.6,1.1l-1.1,0.4c-0.4-0.4-0.9-0.6-1.5-0.6c-1.2,0-2,0.7-2,1.5c0,0.5,0.2,0.9,0.7,1.2
			c0.3,0.2,0.8,0.4,1.3,0.4c0.9,0,1.7-0.4,2-1h-2.2v-0.9H55v0.3C55,78.1,54.7,78.7,54.2,79.1"/>
		<rect x="60.3" y="75.2" class="st0" width="1.1" height="4.5"/>
		<polygon class="st0" points="68.2,79.7 65.2,76.5 65.1,76.5 65.1,79.7 64,79.7 64,75.2 65.3,75.2 68.4,78.4 68.4,78.4 68.4,75.2 
			69.5,75.2 69.5,79.7 		"/>
		<path class="st0" d="M77.9,77.5c0,0.7-0.3,1.2-0.8,1.6c-0.5,0.4-1.1,0.6-1.8,0.6h-3.2v-4.5h3C76.9,75.2,77.9,76.1,77.9,77.5
			 M76.5,78.3c0.2-0.2,0.3-0.5,0.3-0.8c0-0.8-0.6-1.4-1.5-1.4h-2v2.8h2C75.7,78.8,76.2,78.6,76.5,78.3"/>
		<path class="st0" d="M83,79.8c-1.7,0-2.7-0.7-2.7-1.7v-3h1.1V78c0,0.6,0.6,0.9,1.6,0.9c1,0,1.6-0.4,1.6-0.9v-2.9h1.1v3
			C85.7,79.1,84.7,79.8,83,79.8"/>
		<path class="st0" d="M90.7,75.9c-0.9,0-1.4,0.2-1.4,0.5c0,0.2,0.1,0.3,0.4,0.3c0.4,0.1,1,0.1,1.7,0.1c1.4,0.1,2.1,0.5,2.1,1.4
			c0,1-0.9,1.6-2.7,1.6c-1.1,0-2.1-0.3-3-0.9l0.6-0.7c0.8,0.5,1.6,0.7,2.4,0.7c0.9,0,1.4-0.3,1.4-0.6c0-0.4-0.6-0.4-1.6-0.4
			c-1.8-0.1-2.6-0.4-2.6-1.3c0-0.9,0.9-1.5,2.5-1.5c1.1,0,2,0.2,2.7,0.7l-0.6,0.7C92.1,76.1,91.4,75.9,90.7,75.9"/>
		<polygon class="st0" points="98.6,76 98.6,79.7 97.5,79.7 97.5,76 95.3,76 95.3,75.2 100.8,75.2 100.8,76 		"/>
		<path class="st0" d="M107.1,79.7l-1.1-1.6h-2.1v1.6h-1.1v-4.5h3.7c1,0,1.7,0.6,1.7,1.5c0,0.7-0.4,1.2-1,1.4l1.2,1.7H107.1z
			 M107.2,76.6c0-0.3-0.3-0.6-0.7-0.6h-2.5v1.2h2.5C106.9,77.2,107.2,77,107.2,76.6"/>
		<polygon class="st0" points="113.5,77.9 113.5,79.7 112.4,79.7 112.4,77.9 109.7,75.2 111.1,75.2 113,77.1 114.8,75.2 116.2,75.2 
					"/>
		<path class="st0" d="M6.9,89.4l-0.5-1H3.5l-0.5,1H1.9l2.4-4.5h1.4L8,89.4H6.9z M4.9,85.7l-1,1.9h2L4.9,85.7z"/>
		<path class="st0" d="M12.5,85.6c-0.9,0-1.4,0.2-1.4,0.5c0,0.2,0.1,0.3,0.4,0.3c0.4,0.1,1,0.1,1.7,0.1c1.4,0.1,2.1,0.5,2.1,1.4
			c0,1-0.9,1.6-2.7,1.6c-1.1,0-2.1-0.3-2.9-0.9l0.6-0.7c0.8,0.5,1.5,0.7,2.4,0.7c0.9,0,1.4-0.3,1.4-0.6c0-0.4-0.6-0.4-1.6-0.4
			c-1.8-0.1-2.6-0.4-2.6-1.3c0-0.9,0.9-1.5,2.5-1.5c1.1,0,2,0.2,2.7,0.7l-0.6,0.7C13.8,85.8,13.2,85.6,12.5,85.6"/>
		<path class="st0" d="M20,85.6c-0.9,0-1.4,0.2-1.4,0.5c0,0.2,0.1,0.3,0.4,0.3c0.4,0.1,1,0.1,1.7,0.1c1.4,0.1,2.1,0.5,2.1,1.4
			c0,1-0.9,1.6-2.7,1.6c-1.1,0-2.1-0.3-3-0.9l0.6-0.7c0.8,0.5,1.6,0.7,2.4,0.7c0.9,0,1.4-0.3,1.4-0.6c0-0.4-0.6-0.4-1.6-0.4
			c-1.8-0.1-2.6-0.4-2.6-1.3c0-0.9,0.9-1.5,2.5-1.5c1.1,0,2,0.2,2.7,0.7L22,86.1C21.4,85.8,20.7,85.6,20,85.6"/>
		<path class="st0" d="M30.2,88.8c-0.6,0.5-1.4,0.7-2.3,0.7c-0.9,0-1.7-0.3-2.3-0.7c-0.5-0.4-0.8-1-0.8-1.7c0-0.7,0.3-1.2,0.8-1.7
			c0.6-0.5,1.4-0.8,2.3-0.8c0.9,0,1.7,0.3,2.3,0.8c0.5,0.4,0.8,1,0.8,1.7C31,87.8,30.7,88.4,30.2,88.8 M27.9,85.6
			c-1.2,0-2,0.6-2,1.5c0,0.9,0.7,1.5,1.9,1.5c1.2,0,2-0.6,2-1.5C29.9,86.2,29.1,85.6,27.9,85.6"/>
		<path class="st0" d="M38.1,86.4c-0.5-0.5-1.2-0.8-2-0.8c-1.1,0-1.9,0.6-1.9,1.5c0,0.9,0.8,1.5,2,1.5c0.8,0,1.4-0.3,1.9-0.8
			l0.9,0.5c-0.8,0.9-1.6,1.2-2.8,1.2c-0.8,0-1.5-0.2-2.1-0.6c-0.6-0.4-1-1.1-1-1.8c0-0.7,0.3-1.2,0.8-1.7c0.6-0.5,1.4-0.7,2.3-0.7
			c1.2,0,2.2,0.4,2.9,1.3L38.1,86.4z"/>
		<rect x="41.3" y="84.9" class="st0" width="1.1" height="4.5"/>
		<path class="st0" d="M49.4,89.4l-0.5-1H46l-0.5,1h-1.1l2.4-4.5h1.4l2.4,4.5H49.4z M47.5,85.7l-1,1.9h2L47.5,85.7z"/>
		<polygon class="st0" points="54.6,85.7 54.6,89.4 53.5,89.4 53.5,85.7 51.3,85.7 51.3,84.9 56.8,84.9 56.8,85.7 		"/>
		<rect x="58.8" y="84.9" class="st0" width="1.1" height="4.5"/>
		<path class="st0" d="M67.7,88.8c-0.6,0.5-1.4,0.7-2.3,0.7c-0.9,0-1.7-0.3-2.3-0.7c-0.5-0.4-0.8-1-0.8-1.7c0-0.7,0.3-1.2,0.8-1.7
			c0.6-0.5,1.4-0.8,2.3-0.8c0.9,0,1.7,0.3,2.3,0.8c0.5,0.4,0.8,1,0.8,1.7C68.5,87.8,68.2,88.4,67.7,88.8 M65.4,85.6
			c-1.2,0-2,0.6-2,1.5c0,0.9,0.7,1.5,1.9,1.5c1.2,0,2-0.6,2-1.5C67.3,86.2,66.6,85.6,65.4,85.6"/>
		<polygon class="st0" points="75,89.4 71.9,86.2 71.9,86.2 71.9,89.4 70.8,89.4 70.8,84.9 72.1,84.9 75.2,88.1 75.2,88.1 
			75.2,84.9 76.3,84.9 76.3,89.4 		"/>
		<path class="st0" d="M90,82.7c0-0.1-0.1-0.2-0.2-0.2c-0.1-0.1-0.1-0.2-0.1-0.2c0-0.1-0.1-0.1-0.1-0.1c0,0-0.1,0-0.1,0
			c0,0-0.1,0-0.1,0.1c-0.3,0.6-0.3,0.6-0.4,1l-1.4,3.1c-0.2-0.1-0.5-0.2-0.8-0.2h0c-0.3,0-0.6,0-0.9,0.1c-0.3,0.1-0.6,0.2-0.9,0.3
			c-0.2,0.1-0.3,0.1-0.4,0.1c-0.1,0-0.2,0.1-0.3,0.1l-0.5,0.1c0-0.1,0.1-0.1,0.1-0.2c0-0.1,0.1-0.2,0.2-0.3c0.1-0.2,0.1-0.2,0.2-0.3
			c0,0,0.1-0.1,0.1-0.2c0.1-0.1,0.2-0.3,0.3-0.6c0.2-0.3,0.3-0.5,0.5-0.8c0.2-0.3,0.3-0.6,0.4-0.9c0.1-0.3,0.2-0.5,0.2-0.7
			c0-0.1,0-0.2-0.1-0.2c0,0,0-0.1-0.1-0.1c0,0,0-0.1-0.1-0.1c-0.1-0.1-0.1-0.3-0.2-0.3c0,0-0.1,0-0.1,0c-0.1,0-0.2,0.2-0.4,0.6
			c0,0.1-0.1,0.2-0.2,0.3c-0.1,0.1-0.2,0.3-0.3,0.5l-0.1,0.2c-0.1,0.2-0.2,0.3-0.3,0.5l-0.3,0.6c-0.2,0.3-0.4,0.6-0.5,1
			c-0.2,0.3-0.2,0.4-0.4,0.6l-0.1,0.1c-0.1,0.2-0.1,0.2-0.2,0.3c0,0.1-0.1,0.1-0.1,0.2l-0.2,0.3c-0.4,0.1-0.9,0.2-1.4,0.3
			c-0.6,0.2-1.3,0.3-1.9,0.5c-0.1,0-0.2,0.1-0.3,0.1c0,0,0,0.1,0,0.1c0,0.1,0.1,0.1,0.3,0.2c0.1,0,0.2,0.1,0.3,0.1
			c0.1,0,0.1,0.1,0.2,0.2c0.2,0.1,0.3,0.2,0.5,0.1c0.1,0,0.3-0.1,0.4-0.1c0.2,0,0.4-0.1,0.6-0.1c0.1,0,0.2-0.1,0.4-0.1
			c-0.1,0.2-0.3,0.5-0.5,0.7c-0.2,0.3-0.4,0.7-0.6,0.9c-0.3,0.5-0.6,0.9-0.8,1.2c-0.1,0.1-0.1,0.3,0,0.5c0,0.1,0.1,0.2,0.2,0.2
			c0.1,0.1,0.1,0.2,0,0.3c0,0.1,0,0.1,0,0.1c0,0.1,0.1,0.1,0.1,0.1c0,0,0,0,0.1,0c0,0,0.1,0,0.1,0c0,0,0.1-0.1,0.2-0.2
			c0.1-0.2,0.3-0.5,0.5-0.8c0.2-0.3,0.4-0.6,0.6-0.9c0.1-0.2,0.3-0.4,0.4-0.7c0.2-0.2,0.3-0.5,0.4-0.6c0.2-0.3,0.4-0.6,0.5-0.8
			L83,88l0.8-0.3c0.2-0.1,0.4-0.1,0.5-0.2c0.1,0,0.3-0.1,0.5-0.2c0.4-0.1,0.8-0.3,1.2-0.4c0.1,0,0.3-0.1,0.6-0.1
			c0.2-0.1,0.4-0.1,0.6-0.1c-0.4,0.8-0.8,1.6-1.1,2.4c-0.4,0.8-0.7,1.6-1,2.3c0,0,0,0.1,0,0.2c0,0.1,0.1,0.1,0.2,0.1
			c0.1,0,0.1,0,0.2,0.1c0.1,0.1,0.1,0.2,0.2,0.2c0.1,0,0.2-0.1,0.3-0.1c0.1-0.1,0.2-0.3,0.3-0.6c0.3-0.7,0.7-1.5,1-2.3
			c0.4-0.9,0.8-1.6,1.1-2.4c0.4-0.8,0.7-1.6,1.1-2.4l0.1-0.2c0.2-0.4,0.2-0.4,0.4-0.8l0.1-0.3C90.2,83.1,90.2,82.9,90,82.7"/>
		<path class="st0" d="M95.2,87.2c-0.1,0-0.1,0-0.2,0c-0.1,0.1-0.2,0.1-0.2,0.1c-0.1,0-0.1,0-0.2,0.1c-0.1,0-0.1,0-0.2,0.1
			c-0.1,0-0.1,0.1-0.2,0.1c-0.1,0.1-0.2,0.2-0.4,0.3c-0.2,0.1-0.4,0.3-0.6,0.5c-0.2,0.2-0.4,0.3-0.6,0.5c-0.2,0.1-0.3,0.2-0.5,0.3
			c0,0,0,0,0,0l0,0c0-0.2,0.1-0.4,0.2-0.7c0.1-0.3,0.2-0.6,0.4-0.9c0.1-0.3,0.3-0.5,0.4-0.8c0.1-0.2,0.2-0.4,0.2-0.4
			c0.1-0.1,0.1-0.2,0-0.3c-0.1-0.1-0.1-0.2-0.3-0.3c-0.1-0.1-0.2-0.1-0.3-0.1c-0.1,0-0.2,0-0.3,0.1l-0.2,0.3
			c-0.2-0.2-0.3-0.3-0.5-0.3c-0.2-0.1-0.4-0.1-0.6,0c-0.2,0.1-0.4,0.2-0.6,0.3c-0.2,0.2-0.5,0.4-0.8,0.7c-0.4,0.4-0.6,0.7-0.8,1
			c-0.2,0.3-0.3,0.6-0.4,0.9c-0.1,0.3-0.1,0.5-0.1,0.8c0,0.2,0.1,0.4,0.1,0.5c0.2,0.3,0.4,0.6,0.7,0.6c0.1,0,0.1,0,0.2,0
			c0.2,0,0.5-0.1,0.7-0.2c0.2-0.1,0.4-0.3,0.6-0.5c0.1-0.2,0.3-0.4,0.4-0.6c0,0.2,0,0.3,0.1,0.4c0.1,0.2,0.4,0.3,0.7,0.4
			c0.2,0.1,0.4,0,0.6,0c0.2-0.1,0.4-0.3,0.6-0.4c0.1-0.1,0.2-0.2,0.3-0.3c0-0.1,0.1-0.1,0.1-0.2c0.1-0.2,0.3-0.3,0.4-0.4
			c0.1-0.2,0.3-0.3,0.4-0.5c0.3-0.3,0.5-0.6,0.7-0.9C95.2,87.4,95.3,87.3,95.2,87.2C95.2,87.2,95.2,87.2,95.2,87.2 M92,86.6
			c-0.3,0.4-0.6,0.9-0.9,1.3c-0.3,0.5-0.7,0.9-1,1.3c-0.3,0.3-0.5,0.6-0.6,0.7c-0.1,0.1-0.1,0.1-0.2,0.1c0,0,0,0,0,0
			c0-0.1,0-0.2,0-0.4c0.1-0.2,0.2-0.4,0.3-0.6c0.1-0.2,0.3-0.4,0.4-0.7c0.1-0.2,0.3-0.4,0.4-0.5c0-0.1,0.1-0.2,0.3-0.3
			c0.1-0.1,0.3-0.3,0.5-0.4c0.2-0.1,0.3-0.3,0.5-0.4C91.8,86.7,91.9,86.7,92,86.6"/>
		<path class="st0" d="M101.6,87.2c-0.1,0-0.2,0-0.3,0c-0.1-0.1-0.2-0.1-0.4-0.1c-0.2,0-0.4,0-0.6,0c-0.2,0-0.4-0.1-0.5-0.1
			c-0.1-0.2-0.2-0.3-0.3-0.4c-0.1-0.1-0.3-0.2-0.5-0.1c-0.2,0.1-0.3,0.2-0.4,0.4c-0.1,0.2,0,0.3,0,0.5c-0.1,0.2-0.3,0.4-0.5,0.6
			c-0.2,0.2-0.4,0.4-0.7,0.6c0.1-0.2,0.1-0.5,0.2-0.7c0.1-0.3,0.2-0.5,0.3-0.6c0.1-0.1,0.1-0.2,0-0.4c0-0.1-0.1-0.2-0.2-0.3
			c-0.1-0.1-0.2-0.2-0.3-0.2c-0.1,0-0.2,0-0.3,0c-0.2,0.2-0.4,0.4-0.7,0.6c-0.2,0.3-0.5,0.5-0.7,0.8c-0.2,0.3-0.5,0.6-0.7,0.9
			c-0.2,0.2-0.3,0.4-0.5,0.5c0-0.2,0.1-0.4,0.2-0.6c0.1-0.3,0.3-0.6,0.4-0.9c0.2-0.3,0.4-0.6,0.6-0.9c0.2-0.3,0.5-0.6,0.7-0.8
			c0.2-0.2,0.2-0.3,0.2-0.3c0,0,0,0-0.1,0c0,0-0.1,0-0.3,0.1c-0.1,0.1-0.2,0.1-0.4,0.2C96.1,86,96,86,95.9,86
			c-0.1,0-0.2,0.1-0.3,0.1c-0.1,0-0.2,0.1-0.3,0.2c-0.2,0.1-0.4,0.3-0.6,0.6c-0.2,0.3-0.4,0.5-0.5,0.8c-0.2,0.3-0.3,0.6-0.4,0.9
			c-0.1,0.3-0.1,0.6,0,0.8c0,0.1,0.1,0.2,0.2,0.4c0.1,0.1,0.2,0.3,0.3,0.4c0.1,0.1,0.3,0.2,0.4,0.3c0.1,0,0.1,0,0.2,0
			c0.1,0,0.2,0,0.3-0.1c0.2-0.1,0.4-0.3,0.6-0.6c0.2-0.2,0.3-0.4,0.5-0.6c0,0.1,0,0.2,0,0.3c0,0.1,0,0.2,0.1,0.3
			c0.1,0.1,0.1,0.2,0.2,0.2c0.1,0.1,0.2,0.1,0.3,0.1c0.1,0,0.2,0,0.3,0c0.1,0,0.2-0.1,0.4-0.2c0.2-0.1,0.4-0.3,0.7-0.5
			c0.2-0.2,0.5-0.4,0.7-0.6c0.2-0.2,0.4-0.4,0.6-0.7c0.2,0,0.4,0,0.6,0c0.2,0,0.3-0.1,0.4-0.1c0.1,0,0.1,0,0.2-0.1
			c0.2,0,0.4-0.1,0.5-0.2c0.1,0,0.1,0,0.2,0c0.1,0,0.1,0,0.2-0.1c0.1-0.1,0.2-0.2,0.2-0.3C101.8,87.2,101.7,87.2,101.6,87.2"/>
		<path class="st0" d="M106.9,86.9c-0.1,0-0.1,0-0.2,0c-0.1,0.1-0.2,0.1-0.2,0.1c-0.1,0-0.1,0-0.2,0.1c-0.1,0-0.1,0-0.2,0.1
			c-0.1,0-0.1,0.1-0.2,0.1l-0.4,0.3c-0.2,0.1-0.4,0.3-0.6,0.5c-0.2,0.2-0.4,0.3-0.6,0.5c-0.2,0.1-0.3,0.2-0.4,0.3
			c0-0.2,0.1-0.4,0.2-0.7c0.1-0.3,0.2-0.6,0.4-0.9c0.1-0.3,0.3-0.6,0.4-0.8c0.1-0.3,0.2-0.4,0.2-0.4c0.1-0.1,0.1-0.2,0-0.3
			c-0.1-0.1-0.1-0.2-0.3-0.3c-0.1-0.1-0.2-0.1-0.3-0.1c-0.2,0-0.3,0-0.3,0.1l-0.2,0.3c-0.2-0.2-0.3-0.3-0.5-0.3
			c-0.2-0.1-0.4-0.1-0.6,0c-0.2,0-0.4,0.2-0.6,0.3c-0.2,0.2-0.5,0.4-0.8,0.7c-0.4,0.4-0.6,0.7-0.8,1c-0.2,0.3-0.3,0.6-0.4,0.9
			c-0.1,0.3-0.1,0.5-0.1,0.8c0,0.2,0.1,0.4,0.1,0.6c0.2,0.3,0.4,0.6,0.7,0.6c0.1,0,0.1,0,0.2,0c0.2,0,0.5-0.1,0.7-0.2
			c0.2-0.1,0.4-0.3,0.6-0.5c0.1-0.2,0.3-0.4,0.4-0.6c0,0.2,0,0.3,0.1,0.4c0.1,0.2,0.4,0.3,0.7,0.4c0.2,0.1,0.4,0,0.6,0
			c0.2-0.1,0.4-0.2,0.5-0.3c0.2-0.1,0.3-0.3,0.5-0.5c0.1-0.2,0.3-0.3,0.4-0.4c0.1-0.1,0.2-0.3,0.4-0.4c0.1-0.1,0.2-0.2,0.3-0.3
			c0.1-0.1,0.2-0.3,0.3-0.4c0-0.1,0.1-0.2,0.1-0.2C106.9,87.1,107,87,106.9,86.9C106.9,86.9,106.9,86.9,106.9,86.9 M103.7,86.3
			c-0.3,0.5-0.6,0.9-0.9,1.3c-0.3,0.5-0.7,0.9-1,1.3c-0.3,0.3-0.5,0.6-0.6,0.7c-0.1,0.1-0.1,0.1-0.1,0.1c0,0,0,0,0,0
			c0-0.1,0-0.2,0-0.4c0.1-0.2,0.2-0.4,0.3-0.6c0.1-0.2,0.3-0.4,0.4-0.7c0.1-0.2,0.3-0.4,0.4-0.5c0-0.1,0.1-0.1,0.3-0.3
			c0.2-0.2,0.3-0.3,0.5-0.4c0.2-0.1,0.3-0.3,0.5-0.4C103.5,86.4,103.6,86.3,103.7,86.3"/>
		<path class="st0" d="M110.3,86.9c0,0-0.1,0-0.1,0l-0.2,0.2c-0.2,0.2-0.3,0.3-0.5,0.5c-0.3,0.2-0.5,0.5-0.7,0.7
			c-0.2,0.2-0.5,0.4-0.7,0.6c-0.2,0.2-0.4,0.3-0.6,0.4c0-0.1,0-0.3,0.1-0.5c0.1-0.3,0.2-0.6,0.3-1c0.1-0.4,0.3-0.7,0.4-1
			c0.1-0.3,0.2-0.6,0.3-0.8c0-0.1,0-0.3-0.2-0.4c-0.1-0.1-0.4-0.2-0.7-0.1c-0.1,0-0.2,0-0.3,0.1c-0.1,0.1-0.2,0.2-0.4,0.4
			c-0.2,0.2-0.3,0.4-0.5,0.6c-0.2,0.2-0.3,0.5-0.5,0.7c-0.2,0.3-0.4,0.5-0.5,0.8c0,0-0.1,0.2,0,0.2c0,0,0.1,0,0.2,0
			c0.1-0.1,0.2-0.1,0.2-0.1c0.1,0,0.1,0,0.2-0.1c0,0,0.1,0,0.1,0c0,0,0.1,0,0.1,0c0.1,0,0.1-0.1,0.2-0.1l0.2-0.1
			c-0.1,0.1-0.1,0.3-0.2,0.4c-0.1,0.2-0.1,0.5-0.2,0.7c-0.1,0.2-0.1,0.4-0.1,0.6c0,0.2,0,0.3,0.1,0.5c0.1,0.1,0.2,0.2,0.3,0.3
			c0.1,0.1,0.3,0.1,0.4,0.2c0.1,0,0.3,0.1,0.4,0.1h0c0.1,0,0.2,0,0.3-0.1c0.1-0.1,0.3-0.2,0.5-0.4c0.2-0.2,0.5-0.4,0.7-0.6
			c0.2-0.2,0.4-0.4,0.6-0.7c0.2-0.2,0.3-0.4,0.4-0.5c0-0.1,0.1-0.3,0.1-0.4c0-0.1,0.1-0.2,0.2-0.4C110.4,87,110.4,87,110.3,86.9
			C110.3,86.9,110.3,86.9,110.3,86.9"/>
		<path class="st0" d="M108.5,84.7C108.5,84.7,108.5,84.7,108.5,84.7c0.1,0,0.2,0,0.2-0.1c0.1-0.1,0.2-0.2,0.3-0.3
			c0.1-0.1,0.2-0.1,0.3-0.2c0.1-0.1,0.2-0.1,0.3-0.2c0.1-0.1,0.1-0.2,0.1-0.4c0-0.2,0-0.3-0.1-0.3c-0.1,0-0.2,0-0.3,0
			c-0.1,0-0.2,0.1-0.3,0.1c-0.1,0-0.2,0.1-0.3,0.1c-0.1,0-0.1,0-0.2,0.1c0,0-0.1,0.1-0.1,0.1l0,0c-0.2,0.3-0.2,0.6-0.2,0.8
			C108.4,84.6,108.4,84.7,108.5,84.7"/>
		<path class="st0" d="M112.2,84.6L112.2,84.6c0.1,0,0.1,0,0.2-0.1l0.6-0.3c0.3-0.1,0.4-0.3,0.4-0.4c0.1-0.1,0.1-0.3,0-0.4
			c0-0.1-0.1-0.1-0.2-0.1c-0.2-0.1-0.3,0-0.4,0c-0.1,0-0.1,0-0.2,0c-0.1,0-0.1,0-0.2,0.1c0,0-0.1,0.1-0.1,0.1l0,0
			c-0.1,0.2-0.2,0.5-0.3,0.7l0,0c0,0,0,0.1,0,0.1C112,84.5,112.1,84.6,112.2,84.6"/>
		<path class="st0" d="M114.1,86.8c-0.1,0-0.1,0-0.1,0c-0.2,0.2-0.5,0.4-0.7,0.7c-0.2,0.2-0.5,0.5-0.7,0.7c-0.2,0.2-0.5,0.4-0.7,0.6
			c-0.2,0.2-0.4,0.3-0.6,0.4c0-0.1,0-0.3,0.1-0.5c0.1-0.3,0.2-0.6,0.3-1c0.1-0.4,0.3-0.7,0.4-1c0.1-0.3,0.2-0.6,0.3-0.8
			c0-0.1,0-0.3-0.2-0.4c-0.1-0.1-0.4-0.2-0.7-0.1c-0.1,0-0.2,0-0.3,0.1c-0.1,0.1-0.2,0.2-0.4,0.4c-0.1,0.2-0.3,0.4-0.5,0.6
			c-0.2,0.2-0.4,0.5-0.5,0.7c-0.2,0.3-0.3,0.5-0.5,0.8c0,0,0,0.1-0.1,0.1c0,0,0,0.1,0,0.1c0.1,0,0.1,0.1,0.2,0.1c0.1,0,0.1,0,0.2,0
			c0.1,0,0.2-0.2,0.3-0.2c0.1-0.1,0.2-0.2,0.3-0.3l0.2-0.1c-0.1,0.1-0.1,0.3-0.2,0.4c-0.1,0.2-0.2,0.5-0.2,0.7
			c-0.1,0.2-0.1,0.4-0.1,0.6c0,0.2,0,0.3,0.1,0.5c0.1,0.1,0.2,0.2,0.3,0.3c0.1,0.1,0.3,0.1,0.4,0.2c0.1,0,0.3,0.1,0.4,0.1
			c0.1,0,0.2,0,0.3-0.1c0.1-0.1,0.3-0.2,0.5-0.4c0.2-0.2,0.5-0.4,0.7-0.6c0.2-0.2,0.4-0.5,0.6-0.7c0.2-0.2,0.3-0.4,0.4-0.5
			c0-0.1,0.1-0.3,0.1-0.4c0-0.1,0.1-0.2,0.2-0.4C114.2,86.9,114.2,86.9,114.1,86.8C114.1,86.8,114.1,86.8,114.1,86.8"/>
		<path class="st0" d="M95.9,27.3H84.1L65.7,61.9v5h7.1l4.5-8.5h25.4l4.5,8.5h7.1v-5.1L95.9,27.3z M81.2,50.8l8.7-16.2l8.7,16.2
			H81.2z"/>
		<path class="st0" d="M42.6,46.4c2.8-2,4-4.3,4-7.6c0-2.5-0.9-4.8-2.7-6.7c-2.6-2.9-6.8-4.7-11.3-4.7h-30v39.6h31.1
			c9.3,0,15-4.8,15-11.4C48.7,51.5,46.5,48.6,42.6,46.4 M12.3,34.9h20.3c2.6,0,4.3,1.6,4.3,3.8c0,2.3-1.8,4-3.9,4H12.3V34.9z
			 M33,59.3H12.3v-9h20.9c3.6,0,5.8,1.9,5.8,4.7C38.9,57.7,36.8,59.3,33,59.3"/>
		<rect x="52.5" y="27.3" class="st0" width="9.6" height="39.6"/>
		<path class="st1" d="M136.9,1.2l-22.6,13.1v26.2l22.6,13.1l22.6-13.1V14.3L136.9,1.2z M141,38.5l2.2-1.1l11.6-6.6l2.3-1.7v9.4H141
			z M136.6,16.2l15.1,8.7l2.4,1.2h-16.8L121.5,17l-1.7-0.8H136.6z M132.7,26.1h-15.9v-9.2l1.1,0.8l12.8,7.4L132.7,26.1z M116.7,28.6
			h15.9l-2,1l-13.9,8V28.6z M137.2,28.6H154l-2.4,1.2l-15.2,8.7h-16.7l2.2-1.1L137.2,28.6z M141.2,16.2h15.9v9.3l-2.2-1.6l-11.7-6.8
			L141.2,16.2z M141.2,13.7l2.1-1l4.4-2.5l4,2.3l2.4,1.2H141.2z M145.2,8.8l-8.6,5h-16.8l1.8-0.8L136.9,4L145.2,8.8z"/>
	</g>
	<g>
		<path class="st0" d="M2.6,14.3h2.9c1,0,1.9,0.3,1.9,1.4c0,1.2-0.9,1.4-1.9,1.4H3.2v2.1H2.6V14.3z M3.2,16.7h2.2
			c1,0,1.5-0.2,1.5-0.9c0-0.7-0.5-0.9-1.5-0.9H3.2V16.7z"/>
		<path class="st0" d="M9,14.3h2.9c0.8,0,2,0.2,2,1.4c0,1.1-1,1.4-1.6,1.4l1.7,2.2h-0.8l-1.6-2.2h-2v2.2H9V14.3z M9.7,16.6h2.2
			c0.9,0,1.5-0.1,1.5-0.9c0-0.7-0.7-0.9-1.5-0.9H9.7V16.6z"/>
		<path class="st0" d="M18.5,14.2c1.7,0,2.9,1,2.9,2.7c0,1.8-1.5,2.6-2.9,2.6s-2.9-0.8-2.9-2.6C15.5,15.2,16.8,14.2,18.5,14.2z
			 M18.5,18.9c1.2,0,2.3-0.6,2.3-2.2c0-1.1-0.9-2-2.3-2s-2.3,0.9-2.3,2C16.2,18.3,17.3,18.9,18.5,18.9z"/>
		<path class="st0" d="M28.3,17.3c0,1.8-1.4,2.2-2.6,2.2c-1.2,0-2.6-0.4-2.6-2.2v-3h0.6v3c0,1.2,0.7,1.7,2,1.7s2-0.5,2-1.7v-3h0.6
			V17.3z"/>
		<path class="st0" d="M30.3,14.3h2.5c1.6,0,2.7,0.8,2.7,2.5c0,2-1.6,2.6-2.9,2.6h-2.3V14.3z M30.9,18.8h1.8c0.5,0,2.2-0.1,2.2-2
			c0-1.5-1-1.9-2.1-1.9h-1.9V18.8z"/>
		<path class="st0" d="M40.3,14.3h0.9l1.9,4.2l1.9-4.2h0.9v5h-0.6v-4.5h0l-2,4.5h-0.5l-2-4.5h0v4.5h-0.6V14.3z"/>
		<path class="st0" d="M47.9,14.3h4.5v0.5h-3.9v1.6h3.2V17h-3.2v1.8h4v0.5h-4.6V14.3z"/>
		<path class="st0" d="M54,14.3H55l1.9,4.2l1.9-4.2h0.9v5h-0.6v-4.5h0l-2,4.5h-0.5l-2-4.5h0v4.5H54V14.3z"/>
		<path class="st0" d="M61.6,14.3h2.9c0.6,0,1.9,0,1.9,1.3c0,0.7-0.4,0.9-0.8,1.1c0.3,0.1,0.9,0.4,0.9,1.2c0,1.4-1.4,1.4-2.5,1.4
			h-2.6V14.3z M62.2,16.5h2.1c0.7,0,1.5-0.1,1.5-0.8c0-0.8-0.8-0.8-1.7-0.8h-1.9V16.5z M62.2,18.8h2.4c0.7,0,1.4-0.1,1.4-0.9
			c0-0.7-0.6-0.9-1.4-0.9h-2.4V18.8z"/>
		<path class="st0" d="M68.5,14.3h4.5v0.5h-3.9v1.6h3.2V17h-3.2v1.8h4v0.5h-4.6V14.3z"/>
		<path class="st0" d="M74.5,14.3h2.9c0.8,0,2,0.2,2,1.4c0,1.1-1,1.4-1.6,1.4l1.7,2.2h-0.8l-1.6-2.2h-2v2.2h-0.6V14.3z M75.1,16.6
			h2.2c0.9,0,1.5-0.1,1.5-0.9c0-0.7-0.7-0.9-1.5-0.9h-2.2V16.6z"/>
		<path class="st0" d="M87.2,14.2c1.7,0,2.9,1,2.9,2.7c0,1.8-1.5,2.6-2.9,2.6s-2.9-0.8-2.9-2.6C84.2,15.2,85.4,14.2,87.2,14.2z
			 M87.2,18.9c1.2,0,2.3-0.6,2.3-2.2c0-1.1-0.9-2-2.3-2s-2.3,0.9-2.3,2C84.8,18.3,85.9,18.9,87.2,18.9z"/>
		<path class="st0" d="M91.8,14.3h4.6v0.5h-4v1.6h3.4V17h-3.4v2.4h-0.6V14.3z"/>
	</g>
</g>
</svg>
