<?xml version="1.0" encoding="utf-8"?>
<!-- Generator: Adobe Illustrator 20.1.0, SVG Export Plug-In . SVG Version: 6.00 Build 0)  -->
<svg version="1.1" id="Layer_1" xmlns="http://www.w3.org/2000/svg" xmlns:xlink="http://www.w3.org/1999/xlink" x="0px" y="0px"
	 viewBox="0 0 385.4 150" style="enable-background:new 0 0 385.4 150;" xml:space="preserve">
<style type="text/css">
	.st0{fill:#891D03;}
	.st1{fill:#ADAFB1;}
</style>
<title>01-hiaccounting-web-ABOUT_advantage</title>
<path class="st0" d="M25.6,52.7c-1.1-0.1-2.3,0.1-3.3,0.6c-0.5,0.3-1.1,1.1-5.2,15.6c-0.1,0.4-0.2,0.8,0.2,0.9
	c1.2,0.2,2.5,0.2,3.7,0.1c7.9,0,10.8-6.5,10.8-11.4C31.8,55.6,30.3,52.7,25.6,52.7 M20.3,71.3c-1.2,0-2.3,0-3.5,0.1
	c-0.4,0.2-0.6,0.5-0.7,0.9c-4.1,14.3-4.5,17.1-3.8,17.9s1.8,1.1,5,1.1c7.3,0,12.3-5.3,12.3-12.1C29.6,74.9,26.3,71.3,20.3,71.3
	 M25.5,70.3c-0.2,0-0.4,0.5-0.1,0.5c7.4,0.9,10.2,4.9,10.2,9.3c0,6.2-6.9,12.6-18.4,12.6c-1.6,0-4.1-0.2-7.2-0.2s-8,0.1-9.7,0.2
	c-0.3,0.1-0.5-0.6,0-0.8c1.5-0.3,3.4-0.3,4.2-0.8c0.5-0.2,1.3-1.8,6.3-19.2s5.2-19,4.7-19.3c-0.6-0.4-2.2-0.4-3.6-0.8
	c-0.4-0.1-0.3-0.8,0-0.8c1.6,0.2,6.2,0.3,9.3,0.3s4.1-0.3,5.6-0.3c6.8,0,10.7,3.3,10.7,8S33,68.6,25.5,70.3"/>
<path class="st0" d="M52.1,68.3c-2.4,0-5,3.8-7.3,10.7c7.1-0.9,9-5.4,9-8.5C53.7,69.1,53.2,68.3,52.1,68.3 M44.4,79.7
	c-0.7,1.9-1.1,3.9-1.2,6c0,2.6,1.3,4.2,3.4,4.2c2.9,0,6.1-2.3,8-4.4c0.1-0.1,0.2-0.1,0.3,0c0.1,0.1,0.1,0.2,0,0.3l0,0
	c-2,3.7-6.6,7.3-10.3,7.3c-3.4,0-6.6-1.9-6.6-6.9c0-7.2,6.9-19,14.6-19c3,0,5.2,1.7,5.2,4.3C57.9,76.2,51.6,79.8,44.4,79.7"/>
<path class="st0" d="M72.7,73.6c-2.6,0-2.2-4.9-5.3-4.9c-1.6,0-2.9,1.8-2.9,3.6c0,3.2,6.3,8.7,6.3,13.2c0,3.8-3,7.7-8.8,7.7
	c-4.2,0-6.4-2.8-6.4-4.6c0-1.2,1-2.3,2.2-2.3c0,0,0.1,0,0.1,0c2.9,0,2.6,5.7,6,5.7c1.9,0,3.1-2,3.1-4.1c0-3.8-6-7.8-6-12.9
	c0-4,3.7-7.7,8.4-7.7c3.3,0,5.5,2.2,5.5,4.1C74.9,72.6,73.9,73.5,72.7,73.6"/>
<path class="st0" d="M92.3,70.3c-2-0.1-2.2-0.2-5.8-0.2c-2,5.3-4.5,11.8-6,16c-0.9,2.6-0.2,3.3,0.5,3.3c2.1,0,6.6-5.4,7.1-5.4
	c0.2,0,0.3,0.1,0.2,0.3c-1.7,3-6.9,8.8-10.7,8.8c-1.9,0-3.7-1.8-2-6c2.1-5.5,4.3-11.6,6.1-17c-2.3,0.1-2.9,0.1-4.6,0.2
	c-0.5,0.1-0.6-1.7,0.1-1.7c1.7,0.1,2.7,0.2,5,0.2c0.7-2,1.3-3.8,1.7-5.1c0.2-0.3,0.6-0.4,0.9-0.3c1,0,4.2,0.3,4,0.9
	c-0.5,1.2-1.1,2.8-1.8,4.5c3.4,0,3.3-0.1,5.4-0.2C92.9,68.6,93,70.4,92.3,70.3"/>
<path class="st0" d="M120.4,52.7c-1-0.1-2.1,0.1-3,0.5c-0.5,0.2-2.1,4.9-6.2,19.4c-0.1,0.5-0.2,0.7,0.2,0.8c1,0.2,2.1,0.3,3.1,0.3
	c6.4,0,13.1-6,13.1-13.4C127.5,55.8,124.8,52.7,120.4,52.7 M110.5,74.8c-4.3,15.1-4.3,16.2-3.9,16.4c0.6,0.5,3.1,0.4,4.4,0.8
	c0.5,0.1,0.3,0.8,0,0.8c-1.6-0.2-5.4-0.2-8.5-0.2c-2.4,0-4.8,0-7.1,0.2c-0.3,0.1-0.5-0.6,0-0.8c1.5-0.3,3.3-0.3,4.2-0.8
	c0.6-0.3,1.3-1.8,6.3-19.2c5-17.4,5.2-19,4.7-19.3s-2.2-0.4-3.5-0.8c-0.5-0.1-0.3-0.8,0-0.8c1.6,0.2,5.6,0.3,8.7,0.3
	c2.7,0,4.4-0.2,5.9-0.2c7.5,0,12.1,3.8,12.1,9.4C133.7,69.1,123.2,76.7,110.5,74.8"/>
<path class="st0" d="M134.7,85.5c-1.2,3.3-0.6,3.8,0.4,3.8c1.3,0,5.5-3.8,6.7-5.3c0.1-0.1,0.4,0.1,0.4,0.2
	c-0.8,2.1-6.7,8.9-10.7,8.9c-2.9,0-3.2-3.3-1.9-6.6c3.5-9.3,8.2-22,11.9-32.7c0.9-2.7-0.2-3.9-4.4-3.9c-0.2,0-0.3-0.2-0.3-0.4
	c0-0.2,0.1-0.3,0.3-0.3c3.1-0.4,10.2-0.7,10.7-0.7s0.6,0.3,0.4,1C142.8,63.1,137.4,77.9,134.7,85.5"/>
<path class="st0" d="M159.3,69c-4.9,0-12.2,12.8-12.2,18c0,1.9,0.8,2.8,1.9,2.8s2.7-1,4.3-2.9c4-4.7,7.7-14,7.9-15.9
	c0.1-1-0.6-1.9-1.6-2C159.5,69,159.4,69,159.3,69 M160.5,85.5c-1.1,3.1-0.8,3.9,0.2,3.9c1.6,0,4.6-4.2,5.2-4.2
	c0.1,0,0.2,0.1,0.2,0.2c0,0,0,0.1,0,0.1c-2,3.7-6.4,7.6-9,7.6c-0.8,0.1-1.6-0.5-1.7-1.3c0-0.1,0-0.2,0-0.3c0.1-1.5,0.4-3,0.9-4.4
	l1.2-3.7c-0.1-0.2-0.4-0.3-0.6-0.2c-3.6,6.2-7.2,10-10.4,10c-2.5,0-4.5-2-4.5-4.5c0-0.1,0-0.2,0-0.4c0-8.6,10.4-20.2,17.1-20.2
	c1.1,0,2.1,0.2,3,0.8c0.3,0.2,0.4,0.3,0.6,0.1c0.8-0.9,1.6-2.1,2-2.7s3.2,0.2,3.1,0.5L160.5,85.5z"/>
<path class="st0" d="M185,73.3c-2.9,0-2.3-4.2-5-4.2c-3.7,0-7.4,8.1-7.4,15.7c0,3.5,1.6,5.2,4,5.2c2.6,0,4.8-1.8,7-4.8
	c0.1-0.2,0.5-0.1,0.4,0.2c-2.1,4.9-6.4,7.7-9.6,7.7c-3.6,0-6.9-2.2-6.9-7.6c0-7.4,7.2-18.3,15.4-18.3c3.6,0,4.6,2.2,4.6,3.4
	c0.2,1.3-0.8,2.5-2.1,2.7C185.4,73.3,185.2,73.3,185,73.3"/>
<path class="st0" d="M200.2,68.3c-2.4,0-5,3.8-7.4,10.7c7.1-0.9,9.1-5.4,9.1-8.5C201.9,69.1,201.3,68.3,200.2,68.3 M192.5,79.7
	c-0.7,1.9-1.1,3.9-1.2,6c0,2.6,1.3,4.2,3.4,4.2c2.9,0,6.1-2.3,8-4.4c0.1-0.1,0.2-0.1,0.3,0c0.1,0.1,0.1,0.2,0,0.3
	c-2,3.7-6.6,7.3-10.3,7.3c-3.4,0-6.5-1.9-6.5-6.9c0-7.2,6.9-19,14.6-19c3,0,5.2,1.7,5.2,4.3C206,76.2,199.7,79.8,192.5,79.7"/>
<path class="st0" d="M220.8,73.6c-2.6,0-2.2-4.9-5.3-4.9c-1.6,0-2.9,1.8-2.9,3.6c0,3.2,6.3,8.7,6.3,13.2c0,3.8-3,7.7-8.8,7.7
	c-4.2,0-6.4-2.8-6.4-4.6c0-1.3,1-2.3,2.2-2.3c0,0,0.1,0,0.1,0c2.9,0,2.5,5.7,6,5.7c1.9,0,3.1-2,3.1-4.1c0-3.8-6-7.8-6-12.9
	c0-4,3.7-7.7,8.4-7.7c3.4,0,5.5,2.2,5.5,4.1C223,72.5,222,73.5,220.8,73.6"/>
<path class="st0" d="M250.4,70.4c-2-0.1-2.2-0.2-5.8-0.2c-2,5.3-4.5,11.8-6,16c-0.9,2.6-0.2,3.4,0.5,3.4c2.1,0,6.5-5.4,7.1-5.4
	c0.2,0,0.3,0.1,0.2,0.3c-1.8,3-6.9,8.8-10.7,8.8c-1.9,0-3.6-1.9-2-6c2.2-5.5,4.3-11.6,6.2-17c-2.3,0.1-2.9,0.1-4.6,0.2
	c-0.5,0.1-0.6-1.7,0.1-1.7c1.7,0.1,2.7,0.2,5,0.2c0.7-2,1.3-3.8,1.7-5.1c0.2-0.2,0.6-0.3,0.9-0.3c1,0,4.2,0.3,4,0.9
	c-0.5,1.2-1.1,2.8-1.8,4.5c3.4,0,3.4-0.1,5.4-0.2C251,68.6,251.1,70.4,250.4,70.4"/>
<path class="st0" d="M261.2,68.4c-4.2,0-9.4,13.6-9.4,19.9c0,2.6,0.9,3.8,2.7,3.8c4.2,0,9.4-13.5,9.4-19.8
	C263.8,69.7,262.9,68.4,261.2,68.4 M254.3,93.2c-3.8,0-6.9-2.4-6.9-8.2c0-7.1,5.9-17.8,14-17.8c3.8,0,6.8,2.5,6.8,8.2
	c0,7.2-5.9,17.7-14,17.7"/>
<path class="st0" d="M307.8,52.6c-1.7,0-2.2,0.1-2.9,0.6c-1.1,0.7-1.4,1.7-1.5,7.4c0,2-0.1,3.7-0.1,5.9c5.8-7.5,8-11,8-12.3
	C311.2,53.1,310.2,52.6,307.8,52.6 M329.4,54.6c-2.5,2.4-14,16.9-30.4,39c-0.5,0.3-1.1,0.2-1.5-0.2c0.2-9.8,0.3-14.8,0.3-20
	c-4.2,5.5-9.4,12.2-15.3,20.2c-0.5,0.3-1.1,0.2-1.6-0.2c0.6-34.5,0.3-39.5-0.9-40.3c-0.6-0.4-2.3-0.6-3.7-0.9
	c-0.4-0.1-0.3-0.8,0-0.8c2.3,0.2,4.5,0.3,6.8,0.3c3.1,0,6.7-0.1,8.4-0.3c0.4,0,0.5,0.6,0,0.8c-1.5,0.3-2.2,0.2-3.1,0.6
	s-1.5,1.1-1.7,7.9c-0.3,8.3-0.5,17.1-0.5,25.2c0,0.2,0.3,0.1,0.4,0c3.8-4.9,7.5-9.7,11.2-14.6c0.1-15.1-0.3-17.6-1.2-18.2
	c-0.8-0.5-1.8-0.8-2.7-0.9c-0.5-0.1-0.3-0.8,0-0.8c1.6,0.2,5.7,0.3,13.5,0.3c5.9,0,11.4-0.1,13-0.3c0.3,0,0.5,0.7,0,0.8
	c-3.1,0.4-4.7,1.2-6,2.5s-4.2,4.8-11.2,14c-0.2,6.1-0.2,10.4-0.4,17.2c0,0.2,0.3,0.1,0.4,0c10.8-14.4,23.2-30.5,23.2-32.1
	c0-0.7-0.6-1.2-3.8-1.6c-0.5-0.1-0.3-0.8,0-0.8c2.1,0.2,4.2,0.3,6.4,0.3c2,0,4-0.1,6-0.3c0.2,0,0.4,0.2,0.4,0.4
	c0,0.2-0.2,0.4-0.4,0.4C332.9,52.2,330.9,53.1,329.4,54.6"/>
<path class="st0" d="M330.9,68.4c-4.2,0-9.4,13.6-9.4,19.9c0,2.6,0.9,3.8,2.7,3.8c4.2,0,9.4-13.5,9.4-19.8
	C333.6,69.7,332.7,68.4,330.9,68.4 M324,93.2c-3.8,0-6.9-2.4-6.9-8.2c0-7.1,5.9-17.7,14-17.7c3.8,0,6.8,2.4,6.8,8.2
	C338,82.7,332.1,93.2,324,93.2"/>
<path class="st0" d="M358.2,74.3c-2.7,0-1.4-3.3-3-3.3s-4.1,3.1-12,21.3c-0.2,0.4-1.6,0.5-2.5,0.5c-1,0-2.4-0.1-2.1-0.5
	c3.6-9.7,6.1-17.5,6.1-19.5c0-1.2-0.3-1.7-0.9-1.7c-1.8,0-4.2,4.8-4.8,5c-0.2,0.1-0.5,0.1-0.4-0.2c1.9-4.6,5.7-8.7,8.4-8.7
	c1.7,0,2.3,1.6,2.3,3.4c0,2.3-1.1,5.9-3.3,12.2c-0.1,0.2,0.6,0.3,0.6,0.2c4.5-11,7.8-16,11.5-16c1.7,0,3,1.3,3.1,2.9
	c0,0.1,0,0.2,0,0.3C361.2,72.4,359.8,74.3,358.2,74.3"/>
<path class="st0" d="M378.9,70.6c-3.2,0-11.3,5.8-14.8,10.8c5.8-1.1,16.3-6.7,16.3-9.3c0.1-0.8-0.5-1.4-1.2-1.5
	C379.1,70.6,379,70.6,378.9,70.6 M382.9,95.6c1.5,0.1,2.5,1.4,2.4,2.9c0,2.1-1.7,3.8-3.7,3.8c-0.1,0-0.2,0-0.3,0
	c-6.1,0-9.6-4.7-12.8-12.6c-1.8-4.4-2.6-5.6-4.2-6.4c-0.3-0.2-0.6-0.2-0.9,0.1c-1.1,2.4-2.5,6.6-3.4,9c-0.2,0.4-1.2,0.5-2.4,0.5
	s-2.5-0.2-2.3-0.5c5.5-14.4,10.3-27.6,14.1-38.4c0.9-2.6-0.2-3.9-4.4-3.9c-0.2,0-0.3-0.1-0.4-0.3c0-0.2,0.1-0.3,0.2-0.4
	c3.1-0.4,10.3-0.7,10.8-0.7s0.6,0.3,0.3,1c-5.3,13.5-8.7,22.1-10.6,27.3c0,0.2,0.5,0.3,0.5,0.2c3.9-6.4,7.9-9.2,11.4-9.2
	c2.9,0,4.6,2.4,4.6,5.2c0,5-7.3,9.5-18,8.9c4.3,1,7.9,4,9.5,8.2c3,7.2,5.5,10.8,9.2,10.8c-1.1-0.7-1.8-1.8-1.9-3.1
	c-0.1-1.2,0.7-2.3,1.9-2.4C382.8,95.6,382.9,95.5,382.9,95.6"/>
<polygon class="st0" points="122,31 122,19.3 117.3,19.3 117.3,31 112.9,31 112.9,3.2 117.3,3.2 117.3,15.3 122,15.3 122,3.2 
	126.4,3.2 126.4,31 122,31 "/>
<path class="st0" d="M134.9,21.5c-2.1,0.7-3.1,1.9-3.1,3.5v1.6c-0.2,0.8,0.3,1.6,1.1,1.8c0.1,0,0.2,0,0.3,0c1,0,1.8-0.9,1.8-1.9
	c0,0,0-0.1,0-0.1L134.9,21.5L134.9,21.5L134.9,21.5z M138.4,31.3c-1.3,0-2.5-0.9-2.7-2.2c-0.7,1.3-2,2.2-3.5,2.2
	c-2.3,0-3.9-1.8-3.9-4.9v-1c0-3.7,2.8-5.4,6.7-6.8v-3c0.2-0.7-0.3-1.4-1-1.6c-0.1,0-0.2,0-0.4,0c-1,0-1.3,0.6-1.3,1.7v1.8h-3.4v-1.6
	c0-2.9,1.6-5.1,4.9-5.1s4.8,2.2,4.8,5.4v11.4c-0.1,0.5,0.2,0.9,0.7,1c0.1,0,0.1,0,0.2,0v2.8H138.4L138.4,31.3z"/>
<polygon class="st0" points="153.2,31 150.1,31 148.8,23.1 148.3,18.9 147.7,23.1 146.4,31 143.3,31 139.8,11 143.5,11 144.6,20.7 
	145.1,25 145.5,20.7 146.9,11 149.9,11 151.1,20.7 151.6,25 152.1,20.7 153.3,11 156.7,11 153.2,31 "/>
<path class="st0" d="M163.9,21.5c-2.1,0.7-3.1,1.9-3.1,3.5v1.6c0,1,0.4,1.8,1.4,1.8c1,0,1.8-0.9,1.8-1.9c0,0,0-0.1,0-0.1L163.9,21.5
	L163.9,21.5L163.9,21.5z M167.5,31.3c-1.3,0.1-2.5-0.9-2.7-2.2c-0.7,1.4-2.1,2.2-3.6,2.2c-2.3,0-3.9-1.8-3.9-4.9v-1
	c0-3.7,2.8-5.4,6.7-6.8v-3c0.2-0.7-0.3-1.4-1-1.6c-0.1,0-0.2,0-0.4,0c-1,0-1.3,0.6-1.3,1.7v1.8h-3.4v-1.6c0-2.9,1.6-5.1,4.9-5.1
	s4.8,2.2,4.8,5.4v11.4c-0.1,0.5,0.2,0.9,0.7,1c0.1,0,0.1,0,0.2,0v2.8H167.5z"/>
<path class="st0" d="M170.1,8.4V4.6h3.5v3.9L170.1,8.4L170.1,8.4z M170,31V11h3.7v20H170z"/>
<path class="st0" d="M176.2,8.4V4.6h3.5v3.9L176.2,8.4L176.2,8.4z M176.2,31V11h3.7v20H176.2z"/>
<path class="st1" d="M190.7,20.6c0.2-0.9-0.4-1.8-1.4-2c-0.1,0-0.2,0-0.4,0h-2.1v8.5h2.3c1,0,1.5-0.6,1.5-1.8V20.6L190.7,20.6z
	 M190.7,8.8c0-1.2-0.5-1.8-1.6-1.8h-2.2v8.3h2.1c0.9,0,1.7-0.7,1.7-1.6c0-0.1,0-0.3,0-0.4L190.7,8.8L190.7,8.8L190.7,8.8z M189.7,31
	h-7.3V3.2h7.2c3.1,0,5.3,1.6,5.3,5.4v4c0,2.1-0.8,3.6-2.8,4.2c1.8,0.5,3,2.3,2.8,4.2v4.6C195,29.4,192.7,30.9,189.7,31L189.7,31
	L189.7,31z"/>
<path class="st1" d="M204.4,31l-0.2-2.4c-0.4,1.6-1.9,2.7-3.6,2.8c-2.3,0-3.6-1.8-3.6-4.4v-16h3.7v15.4c-0.1,0.9,0.5,1.6,1.3,1.8
	c0,0,0.1,0,0.1,0c1,0,1.7-1.3,1.7-2.2V11h3.7v20L204.4,31L204.4,31z"/>
<path class="st1" d="M214.6,31.3c-3.3,0-5.1-2.1-5.1-5.4v-1.2h3.2v1.5c0,1.4,0.6,2,1.7,2c0.9,0.1,1.6-0.5,1.8-1.4c0-0.1,0-0.3,0-0.4
	c0-1.8-0.9-2.5-3.1-4.5c-1.9-1.5-3.5-3.3-3.5-6c0-3.3,2.1-5.2,4.9-5.2c3.2,0,4.9,2.2,4.9,5.2v1.2h-3.1v-1.5c0.1-0.9-0.5-1.6-1.4-1.7
	c-0.1,0-0.2,0-0.3,0c-0.8-0.1-1.5,0.5-1.5,1.3c0,0.1,0,0.2,0,0.3c0,1.5,0.8,2.4,2.6,4c2.1,1.6,3.9,3.4,3.9,6.5
	S217.9,31.4,214.6,31.3L214.6,31.3L214.6,31.3z"/>
<path class="st1" d="M221.4,8.4V4.6h3.5v3.9L221.4,8.4L221.4,8.4z M221.3,31V11h3.7v20H221.3z"/>
<path class="st1" d="M234.2,31V15.7c0.1-0.8-0.5-1.6-1.3-1.7c0,0-0.1,0-0.1,0c-1,0-1.7,1.3-1.7,2.3V31h-3.7V11h3.3l0.2,2.6
	c0.7-2,2-2.9,3.5-2.9c2.2,0,3.5,1.7,3.5,4.4V31H234.2z"/>
<path class="st1" d="M246.8,15.8c0-1.1-0.5-1.9-1.5-1.9c-0.9,0-1.6,0.8-1.6,1.7c0,0.1,0,0.1,0,0.2v3.5h3.1V15.8L246.8,15.8z
	 M245.2,31.3c-3,0-5.2-2.2-5.2-5.7v-9.3c0-3.4,2.2-5.7,5.2-5.7s5,2.3,5,5.7v5.1h-6.5v4.8c-0.1,0.9,0.5,1.7,1.3,1.8
	c0.1,0,0.2,0,0.3,0c0.9,0,1.6-0.6,1.6-1.5c0-0.1,0-0.2,0-0.3v-2.4h3.3v1.9C250.2,29.1,248.2,31.3,245.2,31.3L245.2,31.3L245.2,31.3z
	"/>
<path class="st1" d="M256.8,31.3c-3.3,0-5.1-2.1-5.1-5.4v-1.2h3.2v1.5c0,1.4,0.6,2,1.8,2c0.9,0.1,1.6-0.5,1.8-1.4c0-0.1,0-0.3,0-0.4
	c0-1.8-0.9-2.5-3.1-4.5c-2-1.5-3.5-3.3-3.5-6c0-3.3,2.1-5.2,4.9-5.2c3.2,0,4.9,2.2,4.9,5.2v1.2h-3.1v-1.5c0.1-0.9-0.5-1.6-1.4-1.7
	c-0.1,0-0.2,0-0.3,0c-0.8-0.1-1.5,0.5-1.5,1.3c0,0.1,0,0.2,0,0.3c0,1.5,0.8,2.4,2.6,4c2.1,1.6,3.9,3.4,3.9,6.5
	S260.1,31.4,256.8,31.3L256.8,31.3L256.8,31.3z"/>
<path class="st1" d="M267.9,31.3c-3.3,0-5.1-2.1-5.1-5.4v-1.2h3.2v1.5c0,1.4,0.6,2,1.7,2c0.9,0.1,1.6-0.5,1.8-1.3c0-0.1,0-0.3,0-0.4
	c0-1.8-0.9-2.5-3.1-4.5c-2-1.5-3.5-3.3-3.5-6c0-3.3,2.1-5.2,4.9-5.2c3.2,0,4.9,2.2,4.9,5.2v1.2h-3.1v-1.5c0.1-0.9-0.5-1.6-1.4-1.7
	c-0.1,0-0.2,0-0.3,0c-0.8-0.1-1.5,0.5-1.6,1.3c0,0.1,0,0.2,0,0.3c0,1.5,0.8,2.4,2.6,4c2.1,1.6,3.9,3.4,3.9,6.5
	S271.2,31.3,267.9,31.3L267.9,31.3z"/>
<path class="st1" d="M130.5,136.8l-1,4h-14.9v-4.4c0.5-0.2,1.7-0.8,3.7-1.9c1.8-0.9,3.5-2.1,4.9-3.5c0.7-0.7,1.2-1.6,1.2-2.6
	c0-1.6-1-2.4-2.9-2.4c-1.4,0-3,0.8-4.9,2.3l-2.9-3c2.4-2.3,5.7-3.5,9-3.5c1.8-0.1,3.6,0.5,5.1,1.6c1.3,1,1.9,2.6,1.9,4.2
	c0,2.2-1.1,4.1-3.4,5.8c-0.5,0.4-1.3,0.9-2.4,1.5l-2.5,1.4l-0.9,0.5c1.1-0.1,2.3-0.2,3.5-0.2L130.5,136.8L130.5,136.8z"/>
<path class="st1" d="M141.8,122.2c2.3-0.1,4.6,0.8,6.2,2.6c3.1,4.1,3,9.7-0.1,13.8c-3.3,3.4-8.7,3.5-12.1,0.2
	c-0.1-0.1-0.1-0.1-0.2-0.2c-3.1-4.1-3-9.7,0.1-13.8C137.2,123.1,139.5,122.1,141.8,122.2z M145.1,131.8c0-2.3-0.3-4-0.9-4.9
	c-0.5-0.8-1.4-1.2-2.3-1.2c-2.2,0-3.2,2-3.2,6c0,2.3,0.3,4,0.9,4.9c0.5,0.8,1.4,1.2,2.3,1.2C144,137.8,145.1,135.8,145.1,131.8
	L145.1,131.8z"/>
<path class="st1" d="M158.9,122.2h3.3v14.8h2.9v3.9h-11.4v-3.9h3.9v-9.2c-1.3,0.9-2.8,1.5-4.3,2.1l-1.2-2.6L158.9,122.2z"/>
<path class="st1" d="M173.8,122.2h3.2v14.8h2.9v3.9h-11.3v-3.9h3.9v-9.2c-1.3,0.9-2.8,1.5-4.3,2.1l-1.2-2.6L173.8,122.2z"/>
<path class="st1" d="M191.1,129h8.6v4.1h-8.6L191.1,129L191.1,129z"/>
<path class="st1" d="M219.2,136.8l-1,4h-14.9v-4.4c0.5-0.2,1.7-0.8,3.7-1.9c1.8-0.9,3.5-2.1,4.9-3.5c0.7-0.7,1.2-1.6,1.2-2.6
	c0-1.6-1-2.4-2.9-2.4c-1.4,0-3,0.8-4.9,2.3l-2.9-3c2.4-2.3,5.7-3.5,9-3.5c1.8-0.1,3.6,0.5,5.1,1.6c1.3,1,1.9,2.6,1.9,4.2
	c0,2.2-1.1,4.1-3.4,5.8c-0.5,0.4-1.3,0.9-2.4,1.5l-2.5,1.4l-0.9,0.5c1.1-0.1,2.3-0.2,3.5-0.2L219.2,136.8L219.2,136.8z"/>
<path class="st1" d="M230.6,122.2c2.3-0.1,4.6,0.8,6.2,2.6c3.1,4.1,3,9.7-0.1,13.8c-3.3,3.4-8.7,3.5-12.1,0.2
	c-0.1-0.1-0.1-0.1-0.2-0.2c-3.1-4.1-3-9.7,0.1-13.8C226,123.1,228.2,122.1,230.6,122.2z M233.8,131.8c0-2.3-0.3-4-0.9-4.9
	c-0.5-0.8-1.4-1.2-2.3-1.2c-2.2,0-3.2,2-3.2,6c0,2.3,0.3,4,0.9,4.9c0.5,0.8,1.4,1.2,2.3,1.2C232.7,137.8,233.8,135.8,233.8,131.8
	L233.8,131.8z"/>
<path class="st1" d="M247.6,122.2h3.2v14.8h2.9v3.9h-11.3v-3.9h3.9v-9.2c-1.3,0.9-2.8,1.5-4.3,2.1l-1.2-2.6L247.6,122.2z"/>
<path class="st1" d="M269.6,122.6l1,3.2c-4.5,1.4-7.4,4-8.6,7.6c1-0.8,2.3-1.1,3.5-1.1c1.9,0,3.7,0.7,5,2c1.3,1.3,2,3.1,2,4.9
	c0,2-0.8,4-2.2,5.4c-3.3,3-8.4,2.8-11.4-0.4c0,0,0,0,0,0c-1.6-1.9-2.4-4.2-2.3-6.7c0-1.6,0.3-3.2,0.9-4.7c0.8-2,2.1-3.8,3.7-5.3
	c1.2-1.1,2.5-2,3.9-2.8C266.5,123.8,268,123.1,269.6,122.6z M261.5,137c-0.1,0.7-0.1,1.3-0.1,2c-0.1,1.2,0.2,2.3,0.9,3.3
	c0.6,0.8,1.5,1.2,2.4,1.2c0.9,0,1.8-0.4,2.4-1.1c0.6-0.8,0.9-1.9,0.9-2.9c0-0.9-0.2-1.8-0.8-2.5c-0.5-0.6-1.4-1-2.2-0.9
	C263.7,136,262.5,136.3,261.5,137z"/>
</svg>
