<?xml version="1.0" encoding="utf-8"?>
<!-- Generator: Adobe Illustrator 24.0.3, SVG Export Plug-In . SVG Version: 6.00 Build 0)  -->
<svg version="1.1" id="Layer_1" xmlns="http://www.w3.org/2000/svg" xmlns:xlink="http://www.w3.org/1999/xlink" x="0px" y="0px"
	 viewBox="0 0 800 600" style="enable-background:new 0 0 800 600;" xml:space="preserve">
<style type="text/css">
	.st0{fill:#D6A45C;}
	.st1{fill:#313E48;}
	.st2{fill:#2EAAE2;}
</style>
<path class="st0" d="M599.3,171.3c-1.4-26.5,11.4-47.1,11.4-47.1s8.9,19.2,10.4,47.4c1.4,28.2-11.6,43.3-11.6,43.3
	S600.7,197.8,599.3,171.3z M200.7,171.3c1.4-26.5-11.4-47.1-11.4-47.1s-8.9,19.2-10.4,47.4s11.6,43.3,11.6,43.3
	S199.3,197.8,200.7,171.3z M594.8,322.3c0-0.4,0-0.9,0.1-1.3H571c-1.5,28.1,5.6,47.2,5.6,47.2S592.8,353.3,594.8,322.3z
	 M587.8,169.4c0,0,10.4-17.1,4.4-44.6c-6-27.6-17.9-45.1-17.9-45.1s-9.2,22.4-3.6,48.3C576.3,153.9,587.8,169.4,587.8,169.4z
	 M565.2,145.8c0,0,1.3-19.9-16.9-41.6c-18.1-21.6-36.8-31.6-36.8-31.6s2.3,24.1,19.3,44.5C547.9,137.4,565.2,145.8,565.2,145.8z
	 M229.3,128c5.6-25.9-3.6-48.3-3.6-48.3s-11.9,17.5-17.9,45.1s4.4,44.6,4.4,44.6S223.7,153.9,229.3,128z M269.1,117.1
	c17-20.3,19.3-44.5,19.3-44.5s-18.7,9.9-36.8,31.6c-18.1,21.6-16.9,41.6-16.9,41.6S252.1,137.4,269.1,117.1z M642,223.3
	c0.9-2,1.7-4.1,2.5-6.3c9.4-26.6,8.4-47.8,8.4-47.8s-19.6,14.3-28.4,39.3c-1.8,5.2-3.2,10.2-4.2,14.8H642z M592.3,198.8
	c0,0-1.5-19.9-22.4-38.8s-40.8-26.2-40.8-26.2s5.6,23.6,25.2,41.4C574,192.9,592.3,198.8,592.3,198.8z M205.2,322.3
	c2.1,31,18.3,45.9,18.3,45.9s7.1-19.1,5.6-47.2h-23.9C205.1,321.4,205.1,321.8,205.2,322.3z M223.4,223.3c1.4-13.3-0.4-23-0.4-23
	s-8.4,8.2-17.4,23H223.4z M235.4,345.7c0,0,2.8,24.3,18.4,53s37.6,35.8,37.6,35.8s-1.6-22.2-16.3-49.2
	C260.4,358.4,235.4,345.7,235.4,345.7z M207.7,198.8c0,0,18.3-5.9,38-23.7s25.2-41.4,25.2-41.4S251,141,230.1,160
	C209.1,178.9,207.7,198.8,207.7,198.8z M576.9,200.3c0,0-1.8,9.7-0.4,23h17.8C585.3,208.5,576.9,200.3,576.9,200.3z M508.6,434.6
	c0,0,22-7.1,37.6-35.8c15.6-28.7,18.4-53,18.4-53s-25,12.7-39.7,39.7C510.3,412.3,508.6,434.6,508.6,434.6z M423.8,468.7
	c0,0,6.6,19.7,46.5,23.9c39.9,4.3,56.9-4.2,56.9-4.2s-26.6-20.7-52.1-21.8C449.5,465.5,423.8,468.7,423.8,468.7z M471.1,454.1
	c0,0,16.7,15.9,49.4,15.9s55.4-9.2,55.4-9.2s-23.1-15.9-53.8-15.9S471.1,454.1,471.1,454.1z M505.8,402c0,0-19,0.6-52,23.4
	c-33,22.7-30,43.3-30,43.3s22.8-8.8,44.5-22.2C494.9,430.1,505.8,402,505.8,402z M571.4,410.9c-29.8,7.2-47.4,20.9-47.4,20.9
	s20,11.6,51.8,3.9s51.7-21.9,51.7-21.9S601.2,403.8,571.4,410.9z M617.3,321c-14.2,15.1-19.9,28.4-19.9,28.4s20,0.4,40.8-18.6
	c3.6-3.3,6.8-6.6,9.7-9.7L617.3,321L617.3,321z M550.4,408.1c0,0,22.9,3,49.3-16.4c26.3-19.3,39.2-40.2,39.2-40.2s-28.1,0.8-52.8,19
	C561.3,388.7,550.4,408.1,550.4,408.1z M421.1,481.1c0,26.7,43.9,55.7,43.9,41.5C464.9,508.5,421.1,490.6,421.1,481.1z M346.2,425.3
	c-33-22.7-52-23.4-52-23.4s10.9,28.1,37.5,44.5c21.7,13.4,44.5,22.2,44.5,22.2S379.2,448.1,346.2,425.3z M276,431.8
	c0,0-17.6-13.7-47.4-20.9c-29.8-7.2-56,2.9-56,2.9s19.9,14.2,51.7,21.9C256,443.4,276,431.8,276,431.8z M200.4,391.7
	c26.3,19.3,49.3,16.4,49.3,16.4s-11-19.4-35.7-37.6s-52.8-19-52.8-19S174,372.4,200.4,391.7z M202.6,349.3c0,0-5.7-13.2-19.9-28.4
	h-30.6c2.9,3.2,6.1,6.5,9.7,9.7C182.6,349.8,202.6,349.3,202.6,349.3z M376.2,468.7c0,0-25.7-3.2-51.2-2.1s-52.1,21.8-52.1,21.8
	s17,8.5,56.9,4.2C369.6,488.4,376.2,468.7,376.2,468.7z M328.9,454.1c0,0-20.3-9.2-51-9.2s-53.8,15.9-53.8,15.9s22.7,9.2,55.4,9.2
	S328.9,454.1,328.9,454.1z M335.1,522.7c0,14.2,43.9-14.8,43.9-41.5C378.9,490.6,335.1,508.5,335.1,522.7z M158,223.3h21.7
	c-1-4.6-2.4-9.5-4.2-14.8c-8.8-25-28.4-39.3-28.4-39.3s-1,21.1,8.4,47.8C156.2,219.3,157.1,221.3,158,223.3z"/>
<g>
	<path class="st1" d="M308,344.3v14.3l-4.5,3.7h-10.8l-4.5-3.7v-14.3l-2.6-0.7v-5.2h11.3v5.2l-1.6,0.7v11.4l0.9,0.8h4l0.9-0.8v-11.4
		l-1.5-0.7v-5.2h11.1v5.2L308,344.3z"/>
	<path class="st1" d="M338.8,338.3v5.2l-2.6,0.7v18.1h-6.9l-7.9-13.4v7.5l2.6,0.7v5.2h-11.2v-5.2l2.6-0.7v-12.2l-2.6-0.7v-5.2H323
		l7.1,12.8v-6.9l-2.6-0.7v-5.2L338.8,338.3L338.8,338.3z"/>
	<path class="st1" d="M351.4,344.3v12.2l2.6,0.7v5.2h-12.3v-5.2l2.6-0.7v-12.2l-2.6-0.7v-5.2H354v5.2L351.4,344.3z"/>
	<path class="st1" d="M380,344.3l-5.8,18.1h-9.5l-5.5-18.1l-2.3-0.7v-5.2H369v5.2l-1.7,0.7l3.2,10.5l3-10.5l-1.6-0.7v-5.2h10.3v5.2
		L380,344.3z"/>
	<path class="st1" d="M400.6,346.7l-0.7-2.5h-5.8v3.9h5.8v4.1h-5.8v4.2h5.8l0.7-2.5h5.1v8.4h-21.2v-5.2l2.6-0.7v-12.2l-2.6-0.7v-5.2
		h21.2v8.4L400.6,346.7L400.6,346.7z"/>
	<path class="st1" d="M408.6,362.3v-5.2l2.6-0.7v-12.2l-2.6-0.7v-5.2h17.8l4.6,3.9v7.2l-3.4,2.9l2.6,4.1l1.8,0.3v5.6h-6.5l-5.5-9.4
		h-1.8v3.5l2.6,0.7v5.2L408.6,362.3L408.6,362.3z M418.3,348.2h4.9l0.8-0.7v-2.6l-0.8-0.7h-4.9V348.2z"/>
	<path class="st1" d="M453.8,346.7h-6.4l-0.7-2.5h-4.8l-0.9,0.7v1.4l0.8,0.6l8.3,1.4l4,3.1v6.9l-4.9,4.1h-10.3l-4.9-4V354h6.4
		l0.7,2.5h5l0.9-0.7v-1.6l-0.7-0.6l-8.2-1.4l-4.1-3.4v-6.5l4.7-3.9h10.5l4.7,3.9v4.4L453.8,346.7L453.8,346.7z"/>
	<path class="st1" d="M467.4,344.3v12.2l2.6,0.7v5.2h-12.3v-5.2l2.6-0.7v-12.2l-2.6-0.7v-5.2H470v5.2L467.4,344.3z"/>
	<path class="st1" d="M491.9,348.2l-0.7-4.4h-2.6v12.5l2.9,0.7v5.2h-13V357l2.9-0.7v-12.6h-2.6l-0.7,4.4H473v-9.9h23.9v9.9h-5V348.2
		z"/>
	<path class="st1" d="M519.8,344.3L514,352v4.4l2.9,0.7v5.2h-13v-5.2l2.9-0.7V352l-5.9-7.8l-2.1-0.7v-5.2h11.1v5.2l-1.4,0.7l2.6,4
		l2.7-4l-1.4-0.7v-5.2h9.5v5.2L519.8,344.3z"/>
</g>
<g>
	<path class="st2" d="M439.8,232.1h-9l-25.2,66.3h9l18.8-52.2c0.9-1.3,0.9-2.6,1.7-4.7h0.4c0.9,1.7,0.9,3,1.7,4.7l9,25.7h-15.4
		l-2.7,7.7h20.7l6.8,18.8h9.4L439.8,232.1z"/>
	<path class="st2" d="M471,251.8h7.7v9c3-6.4,8.6-9.8,15-9.8c11.6,0,18.8,9.8,18.8,24.4c0,15-8.1,24.4-19.3,24.4
		c-7.3,0-12-3.9-14.5-8.6v25.7H471V251.8L471,251.8z M504.4,275.3c0-11.1-4.7-17.1-12.4-17.1c-7.7,0-12.8,6.4-12.8,16.3v2.1
		c0,10.3,4.7,16.3,12.8,16.3C499.7,292.4,504.4,286,504.4,275.3z"/>
	<path class="st2" d="M521.9,251.8h7.7v9c3-6.4,8.6-9.8,15-9.8c11.6,0,18.8,9.8,18.8,24.4c0,15-8.1,24.4-19.3,24.4
		c-7.3,0-12-3.9-14.5-8.6v25.7h-7.7V251.8L521.9,251.8z M555.3,275.3c0-11.1-4.7-17.1-12.4-17.1s-12.8,6.4-12.8,16.3v2.1
		c0,10.3,4.7,16.3,12.8,16.3C550.2,292.4,555.3,286,555.3,275.3z"/>
	<path class="st2" d="M593.8,250.5c0.9,0,0.9,0,1.7,0v7.7h-0.4c-4.7,0-8.1,1.3-10.3,3.4c-4.7,4.7-4.7,10.7-4.7,16.3V298h-7.7v-46.2
		h7.7v10.7C582.2,256.1,587,250.5,593.8,250.5z"/>
	<path class="st2" d="M598.1,275.3c0-15,8.6-24.4,21.4-24.4c13.3,0,21.4,9,21.4,24.4c0,15-8.6,24.4-21.4,24.4
		C606.6,299.3,598.1,290.3,598.1,275.3z M633.2,275.3c0-11.6-4.7-17.5-13.3-17.5s-13.3,6-13.3,17.5c0,11.6,4.7,17.5,13.3,17.5
		C628.4,292.4,633.2,286.4,633.2,275.3z"/>
	<path class="st2" d="M643.4,251.8h8.6l10.3,31.2c0.9,2.6,1.7,4.7,2.1,7.3h0.4c0.4-2.1,0.9-4.7,2.1-7.3l10.3-31.2h8.6l-17.1,46.6
		h-8.6L643.4,251.8z"/>
	<path class="st2" d="M728.1,277.5h-32.9c0,9,5.6,15,14.1,15c6,0,10.3-3.4,12.4-9l6.4,3c-3.4,8.6-10.3,13.3-19.7,13.3
		c-13.3,0-21.4-8.6-21.4-24c0-15.8,7.7-24.8,21.4-24.8c12.8,0,20.1,7.3,20.1,21.4L728.1,277.5L728.1,277.5z M720.4,269.8
		c0-8.6-4.3-13.3-12-13.3c-8.1,0-12.8,5.1-13.3,14.1h25.2L720.4,269.8L720.4,269.8z"/>
	<path class="st2" d="M733.7,275.3c0-14.5,8.1-24.4,20.1-24.4c6.4,0,10.7,2.6,13.7,8.1v-28.2h7.7v67.6h-7.7v-9
		c-3,6.4-7.7,9.8-15,9.8C741.4,299.3,733.7,289.9,733.7,275.3z M767.5,276.2V274c0-10.3-4.7-16.3-12.8-16.3
		c-7.7,0-12.8,6.4-12.8,17.1s4.7,17.1,12.8,17.1C762.4,292.4,767.5,286.4,767.5,276.2z"/>
	<path class="st2" d="M789.7,230.8H800l-2.1,50.5h-5.6L789.7,230.8z M799.6,298.4h-9.8v-9.8h9.8V298.4z"/>
</g>
<g>
	<g>
		<polygon class="st1" points="0,298.9 44.9,298.9 44.9,285.2 16.3,285.2 16.3,272.8 40.6,272.8 40.6,259.1 16.3,259.1 16.3,247.1 
			44.9,247.1 44.9,233.8 0,233.8 		"/>
	</g>
	<g>
		<path class="st1" d="M128.8,287.3c-7.3,0-10.3-6.4-10.3-13.7s3.4-13.3,10.3-13.3c6.8,0,10.3,6.4,10.3,13.7
			C139.5,281.3,136,287.3,128.8,287.3 M133,247.5c-6.8,0-11.6,2.1-15.8,7.7h-0.4l-2.1-6.4h-12v67.6h15.8V295h0.4
			c3,3.4,7.3,4.7,13.3,4.7c13.7,0,23.5-11.6,23.5-25.7v-2.1C155.7,256.9,144.2,247.5,133,247.5"/>
	</g>
	<g>
		<path class="st1" d="M174.5,267.6c0.9-5.1,3.9-9,9.8-9c5.1,0,9,3.4,9,9H174.5z M208.8,271.9c0-16.7-11.6-24.8-24.8-24.8
			c-14.5,0-25.7,10.3-25.7,25.7v1.7c0,15.8,12,25.7,26.1,25.7c11.6,0,21.4-5.6,24-17.1h-14.5c-1.7,3.9-4.7,5.1-9,5.1
			c-6.4,0-10.3-4.7-10.7-10.7h34.2C208.3,276.6,208.8,274,208.8,271.9"/>
	</g>
	<g>
		<path class="st1" d="M241.3,247.5c-6.4,0-11.1,2.1-14.5,7.7h-0.4l-2.1-6.4h-12v49.6H228v-28.7c0-6.4,3-9.4,8.1-9.4
			c4.3,0,7.7,3,7.7,9.4v28.7h15.8V265C259.3,255.2,253.3,247.5,241.3,247.5"/>
	</g>
	<g>
		<path class="st1" d="M283.2,266.3c-2.6-0.9-4.7-1.7-4.7-4.7c0-2.1,1.7-3.9,5.1-3.9c3.9,0,6,2.1,6,5.1h14.1v-0.9
			c0-10.3-9.8-14.5-20.1-14.5c-9.4,0-20.1,3.9-20.1,15.8v0.9c0,3.4,1.3,6.8,3.4,9c4.7,4.7,12.4,5.6,17.5,6.8c4.3,0.9,5.1,3,5.1,5.1
			c0,3-2.1,4.7-6,4.7c-4.3,0-6.8-2.1-7.3-7.3h-14.1v0.9c0.9,12,9.8,16.7,21.4,16.7c10.3,0,21.4-4.7,21.4-16.3V283
			c0-3.4-1.3-6.8-3.4-9C296.9,268.5,289.2,267.2,283.2,266.3"/>
	</g>
	<g>
		<rect x="308.4" y="248.8" class="st1" width="15.8" height="49.6"/>
	</g>
	<g>
		<polygon class="st1" points="100.1,248.8 83,248.8 74.4,261.6 65.9,248.8 47.9,248.8 65,272.3 45.8,298.9 63.3,298.9 73.6,283.5 
			84.3,298.9 102.2,298.9 83.4,271.9 		"/>
	</g>
	<g>
		<path class="st1" d="M316.1,224.4c-5.1,0-9.4,4.3-9.4,9.4c0,5.1,4.3,9.4,9.4,9.4s9.4-4.3,9.4-9.4
			C325.6,228.7,320.9,224.4,316.1,224.4"/>
	</g>
	<g>
		<path class="st1" d="M352.5,248.8v-1.7c0-4.3,3-8.6,7.7-8.6c0.9,0,4.7,0,4.7,0v-13.7h-6c-13.3,0.4-22.2,10.3-22.2,23.5v0.9h-9.4
			v11.6h9v38.1h15.8v-38.1h10.3l13.3,34.2l-9,21.4H383l28.2-67.6h-16.3l-10.7,29.5l-10.3-29.5C373,248.8,352.5,248.8,352.5,248.8z"
			/>
	</g>
	<g>
		<polygon class="st1" points="0,298.9 44.9,298.9 44.9,285.2 16.3,285.2 16.3,272.8 40.6,272.8 40.6,259.1 16.3,259.1 16.3,247.1 
			44.9,247.1 44.9,233.8 0,233.8 		"/>
	</g>
	<g>
		<path class="st1" d="M128.8,287.3c-7.3,0-10.3-6.4-10.3-13.7s3.4-13.3,10.3-13.3c6.8,0,10.3,6.4,10.3,13.7
			C139.5,281.3,136,287.3,128.8,287.3 M133,247.5c-6.8,0-11.6,2.1-15.8,7.7h-0.4l-2.1-6.4h-12v67.6h15.8V295h0.4
			c3,3.4,7.3,4.7,13.3,4.7c13.7,0,23.5-11.6,23.5-25.7v-2.1C155.7,256.9,144.2,247.5,133,247.5"/>
	</g>
	<g>
		<path class="st1" d="M174.5,267.6c0.9-5.1,3.9-9,9.8-9c5.1,0,9,3.4,9,9H174.5z M208.8,271.9c0-16.7-11.6-24.8-24.8-24.8
			c-14.5,0-25.7,10.3-25.7,25.7v1.7c0,15.8,12,25.7,26.1,25.7c11.6,0,21.4-5.6,24-17.1h-14.5c-1.7,3.9-4.7,5.1-9,5.1
			c-6.4,0-10.3-4.7-10.7-10.7h34.2C208.3,276.6,208.8,274,208.8,271.9"/>
	</g>
	<g>
		<path class="st1" d="M241.3,247.5c-6.4,0-11.1,2.1-14.5,7.7h-0.4l-2.1-6.4h-12v49.6H228v-28.7c0-6.4,3-9.4,8.1-9.4
			c4.3,0,7.7,3,7.7,9.4v28.7h15.8V265C259.3,255.2,253.3,247.5,241.3,247.5"/>
	</g>
	<g>
		<path class="st1" d="M283.2,266.3c-2.6-0.9-4.7-1.7-4.7-4.7c0-2.1,1.7-3.9,5.1-3.9c3.9,0,6,2.1,6,5.1h14.1v-0.9
			c0-10.3-9.8-14.5-20.1-14.5c-9.4,0-20.1,3.9-20.1,15.8v0.9c0,3.4,1.3,6.8,3.4,9c4.7,4.7,12.4,5.6,17.5,6.8c4.3,0.9,5.1,3,5.1,5.1
			c0,3-2.1,4.7-6,4.7c-4.3,0-6.8-2.1-7.3-7.3h-14.1v0.9c0.9,12,9.8,16.7,21.4,16.7c10.3,0,21.4-4.7,21.4-16.3V283
			c0-3.4-1.3-6.8-3.4-9C296.9,268.5,289.2,267.2,283.2,266.3"/>
	</g>
	<g>
		<rect x="308.4" y="248.8" class="st1" width="15.8" height="49.6"/>
	</g>
	<g>
		<polygon class="st1" points="100.1,248.8 83,248.8 74.4,261.6 65.9,248.8 47.9,248.8 65,272.3 45.8,298.9 63.3,298.9 73.6,283.5 
			84.3,298.9 102.2,298.9 83.4,271.9 		"/>
	</g>
	<g>
		<path class="st1" d="M316.1,224.4c-5.1,0-9.4,4.3-9.4,9.4c0,5.1,4.3,9.4,9.4,9.4s9.4-4.3,9.4-9.4
			C325.6,228.7,320.9,224.4,316.1,224.4"/>
	</g>
</g>
</svg>
