<?xml version="1.0" encoding="utf-8"?>
<!-- Generator: Adobe Illustrator 20.1.0, SVG Export Plug-In . SVG Version: 6.00 Build 0)  -->
<svg version="1.1" id="Layer_1" xmlns="http://www.w3.org/2000/svg" xmlns:xlink="http://www.w3.org/1999/xlink" x="0px" y="0px"
	 viewBox="0 0 502.9 190" style="enable-background:new 0 0 502.9 190;" xml:space="preserve">
<style type="text/css">
	.st0{fill:#65666A;}
	.st1{fill:#FFFFFF;}
</style>
<rect class="st0" width="502.9" height="190"/>
<path class="st1" d="M52.1,64.6c-0.2,0.8-0.3,1.5-0.3,2.3c0,2.3,2.3,2.3,4,2.4h0.7l-0.2,1.4h-15l0.3-1.3c1.6-0.1,3.2-0.4,4.7-1
	c1.1-0.5,1.4-2.5,1.5-3.6l3.1-17.4c0.1-0.5,0.2-1,0.2-1.5c0-2.2-1.9-2.2-3.7-2.2H46l0.2-1.3l8.2-1.6h1.8L52.1,64.6z"/>
<path class="st1" d="M81.4,64.7c-2.4,3.8-6.5,6.7-11.2,6.7c-7,0-9.9-5.7-9.9-12c0.1-4.4,1.4-8.7,3.7-12.4c2.6-4.2,6.2-7,11.3-7
	c7,0,9.6,6,9.6,12.1C85,56.5,83.7,60.9,81.4,64.7z M75.1,41.9c-2.2,0-4.3,1.1-5.6,2.8c-1.1,1.5-2,3.3-2.6,5.1
	c-1.3,3.7-2,7.6-2.1,11.5c-0.1,1.9,0.3,3.8,1.2,5.5c0.8,1.6,2.4,2.6,4.2,2.7c2.2-0.1,4.2-1.1,5.7-2.7c1.2-1.5,2.1-3.2,2.7-5.1
	c1.2-3.8,1.8-7.7,1.9-11.6C80.4,46.5,79.6,41.9,75.1,41.9L75.1,41.9z"/>
<path class="st1" d="M108.6,64.7c-2.4,3.8-6.5,6.7-11.2,6.7c-7,0-9.9-5.7-9.9-12C87.7,55,89,50.8,91.3,47c2.6-4.2,6.2-7,11.3-7
	c7,0,9.6,6,9.6,12.1C112.3,56.6,111,60.9,108.6,64.7z M102.4,41.9c-2.2,0-4.3,1.1-5.6,2.8c-1.1,1.5-2,3.3-2.6,5.1
	c-1.3,3.7-2,7.6-2.1,11.5c-0.1,1.9,0.3,3.8,1.2,5.5c0.8,1.6,2.4,2.6,4.2,2.7c2.2-0.1,4.2-1.1,5.7-2.7c1.2-1.5,2.1-3.2,2.7-5.1
	c1.2-3.8,1.8-7.7,1.9-11.6C107.7,46.5,106.9,41.9,102.4,41.9L102.4,41.9z"/>
<path class="st1" d="M119,55.2c-2.6,0-3.8-2.1-3.8-4.5c0.1-1.7,0.6-3.3,1.5-4.7c0.9-1.6,2.6-2.6,4.4-2.6c2.6,0,3.7,2.3,3.7,4.6
	C124.8,51.4,122.8,55.2,119,55.2z M121,44.3c-1.7,0-2.5,1.2-3,2.7c-0.5,1.4-0.8,2.8-0.8,4.3c0,1.3,0.4,3,2,3c3,0,3.8-4.7,3.8-7
	C122.9,46,122.6,44.3,121,44.3L121,44.3z M119.8,62.4h-1.7l13.5-18.7h1.7L119.8,62.4z M130.3,62.7c-2.6,0-3.8-2.1-3.8-4.5
	c0.1-1.7,0.6-3.3,1.5-4.7c0.9-1.6,2.6-2.6,4.4-2.6c2.6,0,3.7,2.3,3.7,4.6C136,58.9,134,62.7,130.3,62.7z M132.3,51.8
	c-1.7,0-2.5,1.3-3,2.7c-0.5,1.4-0.8,2.8-0.9,4.3c0,1.3,0.4,2.9,2,2.9c3.1,0,3.8-4.7,3.8-7C134.1,53.5,133.8,51.8,132.3,51.8
	L132.3,51.8z"/>
<path class="st1" d="M161.7,60l0.8-4.4c0.1-0.3,0.1-0.6,0.1-0.9c0.1-0.9-0.5-1.7-1.4-1.8c-0.1,0-0.2,0-0.3,0h-0.5l0.2-0.8h7.8
	l-0.1,0.8h-0.2c-2,0.2-2.5,1.2-2.9,3l-2,11.3c-0.1,0.2-0.1,0.5-0.1,0.7V68c0,1,0.7,1.8,1.7,1.8h0.3l-0.1,0.8h-7.8l0.1-0.8h0.2
	c0.7,0,1.4-0.2,1.9-0.7c0.6-0.6,0.9-1.5,0.9-2.3l1-5.7h-10.2l-1.1,6c-0.1,0.3-0.1,0.6-0.1,0.9c0,0.4,0.1,0.8,0.4,1.2
	c0.4,0.5,0.9,0.7,1.5,0.7h0.6l-0.2,0.8h-7.9l0.2-0.8c2.2-0.2,2.6-1.2,2.9-3l2-11.3c0-0.3,0.1-0.6,0.1-0.9c0.1-0.9-0.5-1.7-1.5-1.8
	c-0.1,0-0.1,0-0.2,0h-0.4l0.1-0.8h7.9l-0.1,0.8h-0.3c-2.2,0-2.6,0.9-3,3l-0.7,4.1L161.7,60L161.7,60z"/>
<path class="st1" d="M180.9,66.7c-0.1,0.4-0.2,0.7-0.2,1.1c0,0.8,0.6,1.5,1.5,1.5c0,0,0,0,0.1,0c0.8-0.1,1.5-0.4,1.9-1l0.6,0.6
	c-1,1.2-2.4,1.9-3.9,2c-1.5,0-2.7-1.2-2.7-2.6c0-0.1,0-0.2,0-0.3v-0.4h-0.1c-1.1,2-3.2,3.2-5.5,3.3c-3.1,0-4.7-2.3-4.7-5.2
	c0-4.2,3.3-8.6,7.8-8.6c1.5,0,3,0.5,4.1,1.6l0.2-1.4h2.5L180.9,66.7z M176.4,58.4c-3.7,0-5.7,4.9-5.7,8c0,1.6,0.7,3.2,2.6,3.2
	c2.1,0,3.9-2,4.7-3.8c0.8-1.9,1.3-3.9,1.6-6C178.8,58.9,177.6,58.4,176.4,58.4L176.4,58.4z"/>
<path class="st1" d="M189.1,65.9c-0.1,0.6-0.2,1.3-0.2,1.9c0,1.3,1,1.7,2.1,1.7c1.7-0.2,3.3-0.8,4.6-1.9l1.8-10.2h2.5l-1.4,7.7
	c-0.2,0.7-0.2,1.4-0.3,2.2v0.1c0,1.1,0.9,2,2,2c0.1,0,0.1,0,0.2,0c1.5-0.1,2.9-0.8,3.8-1.9c1-1.2,1.6-2.8,1.6-4.5
	c0-3.1-2.1-2.6-2.1-4.2c0-0.9,0.7-1.7,1.6-1.7c0.7,0,1.4,0.5,1.7,1.1c0.4,0.7,0.5,1.5,0.5,2.4c0,5-3,10.3-8.5,10.3
	c-1.4,0-3.3-0.6-3.4-2.3c-1.6,1.4-3.7,2.2-5.8,2.3c-1.9,0-3.6-0.7-3.6-2.9c0-0.4,0.1-0.8,0.1-1.2l1-5.4c0.1-0.3,0.1-0.6,0.1-0.9
	c0-1.2-0.9-1.3-2-1.5l0.1-0.8c1.4-0.1,2.7-0.4,4-0.8h1L189.1,65.9z"/>
<path class="st1" d="M222.2,66.7c-0.1,0.4-0.2,0.7-0.2,1.1c0,0.8,0.6,1.5,1.5,1.5c0,0,0,0,0.1,0c0.8-0.1,1.5-0.4,1.9-1l0.6,0.6
	c-1,1.2-2.4,1.9-3.9,2c-1.5,0-2.7-1.2-2.7-2.6c0-0.1,0-0.2,0-0.3v-0.4h-0.1c-1.1,2-3.2,3.2-5.5,3.3c-3.1,0-4.7-2.3-4.7-5.2
	c0-4.2,3.3-8.6,7.8-8.6c1.5,0,3,0.5,4.1,1.6l0.2-1.4h2.5L222.2,66.7z M217.6,58.4c-3.7,0-5.7,4.9-5.7,8c0,1.6,0.7,3.2,2.6,3.2
	c2.1,0,3.9-2,4.7-3.8c0.8-1.9,1.3-3.9,1.6-6C220,58.9,218.9,58.4,217.6,58.4L217.6,58.4z"/>
<path class="st1" d="M230.1,66.9c-0.1,0.3-0.1,0.6-0.1,0.9c-0.1,0.8,0.5,1.5,1.3,1.5c0.1,0,0.1,0,0.2,0c0.7-0.1,1.4-0.4,1.9-0.9
	l0.6,0.6c-1,1.2-2.4,1.9-3.9,1.9c-1.4,0.1-2.5-1-2.6-2.4c0-0.1,0-0.2,0-0.3c0-0.4,0.1-0.9,0.1-1.3l1-5.7c0.1-0.3,0.1-0.6,0.1-0.9
	c0-1.1-0.8-1.3-1.8-1.5h-0.2l0.1-0.8l1.1-0.1c1-0.1,1.9-0.3,2.9-0.6h0.9L230.1,66.9z M231.1,55.8c-0.7,0-1.3-0.6-1.3-1.4
	c0,0,0,0,0-0.1c0.1-1,0.9-1.8,1.9-1.9c0.7-0.1,1.4,0.4,1.4,1.2c0,0.1,0,0.1,0,0.2C233.1,54.9,232.2,55.8,231.1,55.8L231.1,55.8z"/>
<path class="st1" d="M237.8,66.9c-0.1,0.3-0.1,0.6-0.1,0.9c-0.1,0.8,0.5,1.5,1.3,1.5c0.1,0,0.1,0,0.2,0c0.7-0.1,1.4-0.4,1.9-0.9
	l0.6,0.6c-1,1.2-2.4,1.9-3.9,1.9c-1.4,0.1-2.5-1-2.6-2.4c0-0.1,0-0.2,0-0.3c0-0.4,0.1-0.9,0.1-1.3l1-5.7c0.1-0.3,0.1-0.6,0.1-0.9
	c0-1.1-0.8-1.3-1.8-1.5h-0.2l0.1-0.8l1.1-0.1c1-0.1,1.9-0.3,2.9-0.6h0.9L237.8,66.9z M238.8,55.8c-0.7,0-1.3-0.6-1.3-1.4
	c0,0,0,0,0-0.1c0.1-1,0.9-1.8,1.9-1.9c0.7-0.1,1.4,0.4,1.4,1.2c0,0.1,0,0.1,0,0.2C240.8,54.9,239.9,55.8,238.8,55.8L238.8,55.8z"/>
<path class="st1" d="M242.6,61.8h6.3l-0.8,1.5h-6.3L242.6,61.8z"/>
<path class="st1" d="M255.1,60.7L255.1,60.7c1.1-2.1,3.3-3.5,5.7-3.6c3,0,4.7,2.3,4.7,5.1c0,2.1-0.7,4.2-2.1,5.9
	c-1.4,1.7-3.4,2.7-5.6,2.8c-1.6,0-3.2-0.6-4.3-1.8l-1,1.6h-1.7l2.7-15.4c0.1-0.3,0.1-0.6,0.1-0.9v-0.1c0.1-0.8-0.5-1.4-1.2-1.5
	c-0.1,0-0.3,0-0.4,0h-0.3l0.1-0.8c1.4-0.1,2.8-0.4,4.1-1h0.8L255.1,60.7z M257.1,69.6c3.9,0,5.7-4.9,5.7-8.1c0-1.6-0.7-3.1-2.5-3.1
	c-2.3,0-4,2.1-4.9,4c-0.7,1.8-1.3,3.7-1.5,5.7C254.6,69.1,255.8,69.6,257.1,69.6L257.1,69.6z"/>
<path class="st1" d="M279.9,66.7c-0.1,0.4-0.2,0.7-0.2,1.1c0,0.8,0.6,1.5,1.5,1.5c0,0,0,0,0.1,0c0.8-0.1,1.5-0.4,1.9-1l0.6,0.6
	c-1,1.2-2.4,1.9-3.9,2c-1.5,0-2.7-1.2-2.7-2.6c0-0.1,0-0.2,0-0.3v-0.4h0c-1.1,2-3.2,3.2-5.5,3.3c-3,0-4.7-2.3-4.7-5.2
	c0-4.2,3.3-8.6,7.8-8.6c1.5,0,3,0.5,4.1,1.6l0.2-1.4h2.5L279.9,66.7z M275.4,58.4c-3.7,0-5.7,4.9-5.7,8c0,1.6,0.7,3.2,2.6,3.2
	c2.1,0,3.9-2,4.7-3.8c0.8-1.9,1.3-3.9,1.6-6C277.8,58.9,276.6,58.4,275.4,58.4z"/>
<path class="st1" d="M287.7,63.8c-1.2-0.4-2-1.5-2-2.7c0.1-1.2,0.7-2.4,1.8-3c1.1-0.7,2.5-1,3.8-1c1.6,0,3.1,0.3,4.5,1
	c0.7,0.2,1.1,0.8,1.3,1.5c0,0.6-0.5,1.1-1.1,1.1c0,0-0.1,0-0.1,0c-0.7,0-1.3-0.4-1.5-1c-0.2-0.5-0.6-0.9-1.1-1.2
	c-0.6-0.3-1.2-0.5-1.9-0.5c-1.3,0-2.8,0.6-2.8,2.1c0,0.6,0.3,1.2,0.9,1.5c0.9,0.4,1.8,0.8,2.7,1c1.8,0.6,4.3,1.2,4.3,3.6
	c-0.1,1.5-0.9,2.8-2.2,3.5c-1.3,0.7-2.8,1.1-4.3,1.1c-1.6,0-3.2-0.4-4.6-1.1c-0.8-0.3-1.3-1-1.5-1.8c0-0.7,0.6-1.2,1.3-1.2
	c2.3,0,1.5,3,5.1,3c0.8,0,1.7-0.2,2.4-0.7c0.7-0.4,1.1-1.1,1.1-1.9c0-1.4-1.3-1.8-2.5-2.2L287.7,63.8z"/>
<path class="st1" d="M311.4,68.3c-1.9,1.6-4.3,2.5-6.8,2.6c-3,0-5.9-1.9-5.9-5.1c0.1-2.4,1.2-4.6,2.9-6.1c1.8-1.6,4.1-2.5,6.5-2.5
	c1.8,0,4.6,0.8,4.6,3c0,3.8-8,4.5-11,4.6c-0.1,0.4-0.2,0.9-0.2,1.4c0,2.4,1.7,3.6,4,3.6c2,0,3.5-1,5.2-2.1L311.4,68.3z M301.9,63.7
	c2.4-0.1,8.1-0.5,8.1-3.6c0-1.4-1.3-2-2.5-2C304.7,58.1,302.6,61.2,301.9,63.7z"/>
<path class="st1" d="M330.9,68.9c-1,1.2-2.5,1.9-4.1,2c-1.4,0.1-2.6-1-2.7-2.4c0-0.1,0-0.1,0-0.2l0.1-1c-1.2,2.1-3.4,3.5-5.9,3.6
	c-3.1,0-4.8-2.3-4.8-5.2c0-2.2,0.9-4.3,2.3-6c1.4-1.6,3.5-2.6,5.7-2.6c1.6,0,3.1,0.6,4.2,1.7l0.6-3.6c0.1-0.3,0.1-0.7,0.1-1
	c-0.1-1.2-1-1.3-2-1.4h-0.2l0.2-0.8c1.4-0.1,2.7-0.4,4-1h1.2L327,66c-0.1,0.7-0.2,1.3-0.2,2c-0.1,0.7,0.5,1.4,1.2,1.5
	c0.1,0,0.1,0,0.2,0c0.8,0,1.5-0.4,2-1L330.9,68.9z M325.5,59.9c-0.8-1-2-1.6-3.3-1.6c-4,0-5.8,4.9-5.8,8.2c0,1.8,0.8,3.1,2.7,3.1
	c2,0,3.7-1.8,4.6-3.4c0.9-1.8,1.4-3.7,1.7-5.7L325.5,59.9z"/>
<path class="st1" d="M343.6,65.9c-0.1,0.6-0.2,1.3-0.2,1.9c0,1.3,1,1.7,2.1,1.7c1.7-0.2,3.3-0.8,4.6-1.9l1.8-10.2h2.5l-1.4,7.7
	c-0.2,0.7-0.2,1.4-0.3,2.2v0.1c0,1.1,0.9,2,2,2c0.1,0,0.1,0,0.2,0c1.5-0.1,2.9-0.8,3.8-1.9c1-1.2,1.6-2.8,1.6-4.5
	c0-3.1-2.1-2.6-2.1-4.2c0-0.9,0.7-1.7,1.6-1.7c0,0,0,0,0,0c0.7,0,1.4,0.5,1.7,1.1c0.4,0.7,0.5,1.5,0.5,2.4c0,5-3,10.3-8.5,10.3
	c-1.4,0-3.3-0.6-3.4-2.3c-1.6,1.4-3.7,2.2-5.8,2.3c-1.9,0-3.5-0.7-3.5-2.9c0-0.4,0.1-0.8,0.1-1.2l1-5.4c0.1-0.3,0.1-0.6,0.1-0.9
	c0-1.2-0.9-1.3-2-1.5l0.1-0.8c1.4-0.1,2.7-0.4,4-0.8h1L343.6,65.9z"/>
<path class="st1" d="M369.4,70.9c-3.4,0-5.8-2.1-5.8-5.6c0.1-2.1,0.9-4.1,2.3-5.7c1.5-1.7,3.6-2.6,5.9-2.5c3-0.2,5.5,2,5.7,5
	c0,0.2,0,0.5,0,0.7C377.5,67.2,373.9,70.9,369.4,70.9C369.4,70.9,369.4,70.9,369.4,70.9z M369.5,69.6c1.8,0,3.4-1.1,4.1-2.7
	c0.7-1.5,1.1-3.1,1.1-4.8c0.1-1-0.2-2.1-0.9-2.9c-0.6-0.5-1.4-0.8-2.3-0.8c-3.7,0-5.1,4.7-5.1,7.7C366.4,68.2,367.3,69.6,369.5,69.6
	L369.5,69.6z"/>
<path class="st1" d="M383.7,59.1L383.7,59.1c1.2-1.1,2.8-1.8,4.5-1.9c0.8-0.1,1.6,0.4,1.7,1.2c0,0,0,0.1,0,0.1
	c-0.1,0.8-0.8,1.5-1.6,1.4c0,0-0.1,0-0.1,0c-1.1,0-1.4-0.8-2.3-0.8c-2.2,0-2.8,3.3-3,5l-1.2,6.7h-2.5l1.7-9.6c0.1-0.3,0.1-0.7,0.1-1
	c0-1.1-0.9-1.2-1.9-1.3l0.1-0.8l3.9-0.6h1L383.7,59.1z"/>
<path class="st1" d="M393.6,64.9L393.6,64.9c1.1-1.8,2.5-3.5,4.1-4.9c1.6-1.4,3.9-2.9,6.1-2.9c0.8,0,1.9,0.3,1.9,1.2
	c-0.1,0.9-0.9,1.6-1.8,1.6c0,0,0,0,0,0c-1,0-1.4-0.7-2.2-0.7c-1.2,0.2-2.2,0.8-3,1.7c0.2,1.5,0.5,3,1,4.5c0.6,1.7,1.5,3.8,3.6,3.8
	c0.5,0,1.1-0.1,1.6-0.4l0.5,0.6c-1,0.9-2.3,1.4-3.7,1.5c-1.1,0-2.1-0.5-2.8-1.3c-1.4-1.6-1.9-4.5-2.4-7c-2.6,3-3.3,4-3.9,8h-2.5
	l2.7-15.4c0.1-0.5,0.2-0.9,0.2-1.4c0-1.1-1.1-1.2-2-1.3l0.1-0.8c1.3-0.1,2.7-0.3,3.9-0.8h1L393.6,64.9z"/>
<path class="st1" d="M415.6,57.4l-0.1,0.8h-2.9l-1.8,10.6c-0.4,2-0.6,3.9-1.8,5.6s-3.5,2.3-5.5,2.3c-1.2,0-3.7-0.5-3.7-2.1
	c0-0.6,0.6-1.1,1.2-1c0,0,0.1,0,0.1,0c1.8,0,1.8,2.1,3.6,2.1c0.8-0.1,1.5-0.4,2.1-1c0.5-0.8,0.8-1.6,0.9-2.6l0.4-1.8l2.1-12.2h-2.5
	l0.1-0.8h2.5c0.3-1.9,0.4-3.1,1.5-4.5c1.1-1.3,2.8-2.1,4.5-2.2c1,0,3.2,0.3,3.2,1.6c0,0.6-0.6,1.1-1.2,1.1c0,0,0,0-0.1,0
	c-1.6,0-1.1-1.7-2.8-1.7c-0.6,0-1.2,0.4-1.6,0.9c-0.4,0.7-0.7,1.6-0.7,2.4l-0.4,2.3L415.6,57.4L415.6,57.4z"/>
<path class="st1" d="M421.1,70.9c-3.4,0-5.8-2.1-5.8-5.6c0.1-2.1,0.9-4.1,2.3-5.7c1.5-1.7,3.6-2.6,5.9-2.5c3-0.2,5.5,2,5.8,5
	c0,0.2,0,0.5,0,0.7c0,4.5-3.6,8.1-8.1,8.2C421.2,70.9,421.1,70.9,421.1,70.9z M421.2,69.6c1.8,0,3.4-1.1,4.1-2.7
	c0.7-1.5,1.1-3.1,1.1-4.8c0.1-1-0.2-2.1-0.9-2.9c-0.6-0.5-1.4-0.8-2.3-0.8c-3.7,0-5.1,4.7-5.1,7.7C418.1,68.2,419,69.6,421.2,69.6
	L421.2,69.6z"/>
<path class="st1" d="M435.4,59.1L435.4,59.1c1.2-1.1,2.8-1.8,4.5-1.9c0.8-0.1,1.6,0.4,1.7,1.2c0,0,0,0.1,0,0.1
	c-0.1,0.8-0.8,1.5-1.6,1.4c0,0-0.1,0-0.1,0c-1.1,0-1.4-0.8-2.3-0.8c-2.2,0-2.8,3.3-3,5l-1.2,6.7h-2.5l1.7-9.6c0.1-0.3,0.1-0.7,0.1-1
	c0-1.1-0.9-1.2-1.9-1.3l0.1-0.8l3.9-0.6h1L435.4,59.1z"/>
<path class="st1" d="M453,68.1c-1.6,1.7-3.9,2.8-6.3,2.8c-2.9,0.2-5.4-2-5.6-4.9c0-0.2,0-0.3,0-0.5c0.1-4.6,3.8-8.3,8.4-8.4
	c1.8,0,4.2,0.9,4.2,3c0,0.8-0.6,1.6-1.5,1.6c0,0-0.1,0-0.1,0c-0.6,0-1-0.4-1.1-0.9c0,0,0,0,0-0.1c0-0.2,0-0.5,0-0.7
	c0-1.2-0.9-1.6-2-1.6c-3.3,0-5.2,4.8-5.2,7.5c-0.1,2,1.4,3.6,3.3,3.7c0.1,0,0.2,0,0.2,0c1.8-0.1,3.5-0.9,4.8-2.2L453,68.1z"/>
<path class="st1" d="M467,68.3c-1.9,1.6-4.3,2.5-6.8,2.6c-3,0-5.9-1.9-5.9-5.1c0.1-2.4,1.2-4.6,2.9-6.1c1.8-1.6,4.1-2.5,6.5-2.5
	c1.8,0,4.6,0.8,4.6,3c0,3.8-8,4.5-11,4.6c-0.1,0.4-0.2,0.9-0.2,1.4c0,2.4,1.7,3.6,4,3.6c2,0,3.5-1,5.2-2.1L467,68.3z M457.6,63.7
	c2.4-0.1,8.1-0.5,8.1-3.6c0-1.4-1.3-2-2.5-2C460.3,58.1,458.3,61.2,457.6,63.7z"/>
<path class="st1" d="M75.7,95.3c2.6-0.1,4.7,1.9,4.9,4.4c0,0.2,0,0.3,0,0.5c0,1.8-0.7,3.6-2,4.9c-1.3,1.4-3.1,2.1-4.9,2.1
	c-2.6,0.2-4.8-1.8-4.9-4.4c0-0.2,0-0.3,0-0.5C68.6,98.5,71.7,95.3,75.7,95.3C75.6,95.3,75.6,95.3,75.7,95.3z M77.8,97.1
	c-0.6-0.7-1.4-1-2.3-1c-1.6,0.1-3,1-3.8,2.5c-0.7,1.3-1.1,2.7-1.1,4.2c0,1.9,0.9,3.7,3,3.7c1.6-0.1,3.1-1,3.8-2.5
	c0.7-1.3,1.1-2.8,1.1-4.4C78.6,98.7,78.3,97.8,77.8,97.1L77.8,97.1z"/>
<path class="st1" d="M89,104.2c-0.1,0.4-0.1,0.7-0.1,1.1c0,0.5,0.4,0.9,0.8,0.9c0,0,0,0,0,0c0.4,0,0.9-0.3,1.2-0.6l0.4,0.3
	c-0.6,0.7-1.4,1.2-2.4,1.2c-0.9,0.1-1.6-0.6-1.7-1.4c0,0,0-0.1,0-0.1c-1,0.9-2.3,1.5-3.6,1.5c-0.9,0.1-1.7-0.5-1.9-1.4
	c0-0.1,0-0.2,0-0.2c0-0.4,0.1-0.8,0.1-1.1l0.5-3.1c0.1-0.2,0.1-0.4,0.1-0.6c0-0.4-0.3-0.8-0.7-0.8c0,0,0,0,0,0l-0.4-0.1l0.1-0.5
	l2.3-0.4h0.6l-1,5.5c-0.1,0.2-0.1,0.5-0.1,0.8v0.1c0,0.6,0.4,1,1,1c0,0,0.1,0,0.1,0c1.1-0.1,2.2-0.6,3-1.3l1.1-6h1.5L89,104.2z"/>
<path class="st1" d="M94.5,99.9L94.5,99.9c0.7-0.7,1.7-1.2,2.7-1.2c0.5-0.1,1,0.2,1,0.7c0,0,0,0,0,0.1c0,0.5-0.5,0.9-1,0.9
	c0,0,0,0-0.1,0c-0.7,0-0.8-0.5-1.4-0.5c-1.3,0-1.7,2-1.8,3l-0.7,4.1h-1.5l1-5.8c0-0.2,0.1-0.4,0.1-0.6c0-0.6-0.6-0.8-1.2-0.8
	l0.1-0.5l2.3-0.4h0.6L94.5,99.9z"/>
<path class="st1" d="M106.4,98.9h2.4l-0.1,0.5h-2.4l-0.8,4.5c-0.1,0.4-0.2,0.9-0.2,1.4c-0.1,0.5,0.3,1,0.8,1.1c0.1,0,0.2,0,0.2,0
	c0.6,0,1.2-0.3,1.6-0.8l0.4,0.4c-0.7,0.7-1.6,1-2.6,1.1c-0.9,0-2-0.3-2-1.4c0-0.5,0.1-1,0.2-1.5l0.8-4.8h-1.4l0.1-0.5
	c2-0.1,2.5-1.2,2.9-3h0.6L106.4,98.9z"/>
<path class="st1" d="M116.4,105.6c-1.2,1-2.6,1.5-4.1,1.6c-1.8,0-3.6-1.1-3.6-3.1c0.1-1.4,0.7-2.8,1.8-3.7c1.1-1,2.5-1.5,3.9-1.5
	c1.1,0,2.8,0.5,2.8,1.8c0,2.3-4.9,2.7-6.7,2.8c-0.1,0.3-0.1,0.5-0.1,0.8c0,1.2,0.9,2.2,2.1,2.2c0.1,0,0.2,0,0.3,0
	c1.1-0.1,2.2-0.5,3.1-1.2L116.4,105.6z M110.7,102.7c1.4,0,4.9-0.3,4.9-2.2c-0.1-0.7-0.7-1.3-1.4-1.2c0,0-0.1,0-0.1,0
	C112.3,99.3,111.1,101.2,110.7,102.7L110.7,102.7z"/>
<path class="st1" d="M125.7,104.6c-0.1,0.2-0.1,0.5-0.1,0.7c0,0.5,0.4,0.9,0.9,0.9c0,0,0,0,0,0c0.5,0,0.9-0.3,1.2-0.6l0.4,0.4
	c-0.6,0.7-1.5,1.2-2.4,1.2c-0.9,0-1.6-0.7-1.6-1.6c0-0.1,0-0.1,0-0.2v-0.2l0,0c-0.7,1.2-2,2-3.3,2c-1.6,0-2.9-1.2-2.9-2.8
	c0-0.1,0-0.2,0-0.3c0-2.6,2-5.2,4.7-5.2c0.9,0,1.8,0.3,2.5,1l0.1-0.8h1.5L125.7,104.6z M122.9,99.6c-2.3,0-3.5,3-3.5,4.9
	c-0.1,0.9,0.5,1.8,1.4,1.9c0.1,0,0.1,0,0.2,0c1.3,0,2.4-1.2,2.9-2.3c0.5-1.2,0.8-2.4,1-3.6C124.5,99.8,123.7,99.5,122.9,99.6
	L122.9,99.6z"/>
<path class="st1" d="M129.5,101.2c0-0.2,0.1-0.4,0.1-0.6c0-0.4-0.3-0.8-0.7-0.8c0,0,0,0,0,0l-0.4-0.1l0.1-0.5
	c0.8-0.1,1.6-0.2,2.4-0.4h0.6l-0.1,0.9c0.9-0.6,1.9-1,3-1c0.9-0.1,1.7,0.4,2,1.2c0.9-0.7,2-1.1,3.1-1.2c1-0.1,1.9,0.5,2,1.5
	c0,0,0,0.1,0,0.1c0,0.4-0.1,0.7-0.1,1.1l-0.5,3.1c-0.1,0.3-0.1,0.6-0.1,0.9c0,0.4,0.3,0.8,0.8,0.8c0,0,0,0,0,0c0.4,0,0.7-0.2,1-0.4
	l0.3,0.4c-0.6,0.5-1.3,0.9-2.1,0.9c-0.8,0.1-1.5-0.5-1.6-1.3c0-0.1,0-0.2,0-0.2v-0.1c0-0.4,0.1-0.7,0.1-1.1l0.6-3.2
	c0-0.2,0.1-0.4,0.1-0.6c0-0.6-0.4-1-1-1c-0.1,0-0.1,0-0.2,0c-0.9,0.1-1.7,0.4-2.4,0.9l-1.1,6.4h-1.5l0.9-5.2
	c0.1-0.3,0.1-0.9,0.2-1.2l0,0c0-0.6-0.4-1-1-1c-0.1,0-0.1,0-0.2,0c-0.9,0.1-1.7,0.4-2.4,0.9l-1.1,6.5h-1.5L129.5,101.2z"/>
<path class="st1" d="M150.2,104.7c0,0.2-0.1,0.4-0.1,0.6c0,0.5,0.3,0.9,0.8,0.9c0,0,0.1,0,0.1,0c0.4,0,0.8-0.2,1.1-0.6l0.4,0.3
	c-0.6,0.7-1.5,1.1-2.4,1.1c-0.8,0-1.5-0.6-1.6-1.4c0-0.1,0-0.1,0-0.2c0-0.3,0-0.5,0.1-0.8l0.6-3.4c0-0.2,0.1-0.4,0.1-0.6
	c0-0.7-0.5-0.8-1.1-0.9h-0.1l0.1-0.5l0.7-0.1c0.6-0.1,1.2-0.2,1.8-0.3h0.6L150.2,104.7z M150.8,97.9c-0.4,0-0.8-0.4-0.8-0.8
	c0,0,0,0,0,0c0-0.6,0.5-1.1,1.1-1.1c0.4,0,0.8,0.3,0.9,0.7c0,0,0,0.1,0,0.1C152,97.4,151.5,97.9,150.8,97.9L150.8,97.9z"/>
<path class="st1" d="M154.8,102.8c-0.7-0.3-1.2-0.9-1.2-1.6c0-0.7,0.4-1.4,1.1-1.8c0.7-0.4,1.5-0.6,2.3-0.6c0.9,0,1.9,0.2,2.7,0.6
	c0.4,0.1,0.7,0.5,0.8,0.9c0,0.4-0.3,0.7-0.6,0.7c0,0,0,0-0.1,0c-0.4,0-0.8-0.2-0.9-0.6c-0.2-0.3-0.4-0.5-0.7-0.7
	c-0.3-0.2-0.7-0.3-1.1-0.3c-0.8-0.1-1.6,0.4-1.7,1.2c0,0,0,0,0,0.1c0,0.4,0.2,0.8,0.6,0.9c0.5,0.2,1.1,0.4,1.6,0.6
	c1.1,0.4,2.6,0.7,2.6,2.2c-0.1,0.9-0.6,1.7-1.4,2.1c-0.8,0.5-1.7,0.7-2.6,0.7c-1,0-1.9-0.2-2.8-0.7c-0.5-0.2-0.8-0.6-0.9-1.1
	c0-0.4,0.4-0.8,0.8-0.8c0,0,0,0,0,0c1.4,0,0.9,1.8,3.1,1.8c0.5,0,1-0.1,1.4-0.4c0.4-0.2,0.7-0.7,0.7-1.1c0-0.9-0.8-1.1-1.5-1.3
	L154.8,102.8z"/>
<path class="st1" d="M174.5,104.6c-0.1,0.2-0.1,0.5-0.1,0.7c0,0.5,0.4,0.9,0.9,0.9c0,0,0,0,0,0c0.5,0,0.9-0.3,1.2-0.6l0.4,0.4
	c-0.6,0.7-1.5,1.2-2.4,1.2c-0.9,0-1.6-0.7-1.6-1.6c0-0.1,0-0.1,0-0.2v-0.2l0,0c-0.7,1.2-2,2-3.3,2c-1.6,0-2.9-1.2-2.9-2.8
	c0-0.1,0-0.2,0-0.3c0-2.6,2-5.2,4.7-5.2c0.9,0,1.8,0.3,2.5,1l0.1-0.8h1.5L174.5,104.6z M171.7,99.6c-2.3,0-3.5,3-3.5,4.9
	c-0.1,0.9,0.5,1.8,1.4,1.9c0.1,0,0.1,0,0.2,0c1.3,0,2.4-1.2,2.9-2.3c0.5-1.2,0.8-2.4,1-3.6C173.2,99.8,172.5,99.5,171.7,99.6
	L171.7,99.6z"/>
<path class="st1" d="M179.3,104.4c-0.1,0.2-0.1,0.5-0.1,0.7c0,0.6,0.4,1,0.9,1.1c0.1,0,0.2,0,0.4,0c2-0.1,3.6-1.8,3.6-3.9
	c0-1.9-1.3-1.7-1.3-2.6c0-0.6,0.4-1,1-1.1c0.4,0,0.8,0.3,1,0.7c0.2,0.5,0.3,1,0.3,1.6c0,3-1.9,6.1-5.2,6.1c-1.2,0-2.3-0.3-2.3-1.7
	c0-0.4,0.1-0.8,0.1-1.1l0.5-3c0-0.2,0.1-0.4,0.1-0.6c0-0.4-0.3-0.8-0.7-0.8c0,0,0,0-0.1,0l-0.4-0.1l0.1-0.5c0.8,0,1.6-0.2,2.4-0.4
	h0.6L179.3,104.4z"/>
<path class="st1" d="M193.9,104.6c-0.1,0.2-0.1,0.5-0.1,0.7c0,0.5,0.4,0.9,0.9,0.9c0,0,0,0,0,0c0.5,0,0.9-0.3,1.2-0.6l0.4,0.4
	c-0.6,0.7-1.5,1.2-2.4,1.2c-0.9,0-1.6-0.7-1.6-1.6c0-0.1,0-0.1,0-0.2v-0.2l0,0c-0.7,1.2-2,2-3.3,2c-1.6,0-2.9-1.2-2.9-2.8
	c0-0.1,0-0.2,0-0.3c0-2.6,2-5.2,4.7-5.2c0.9,0,1.8,0.3,2.5,1l0.1-0.8h1.5L193.9,104.6z M191.1,99.6c-2.3,0-3.5,3-3.5,4.9
	c-0.1,0.9,0.5,1.8,1.4,1.9c0.1,0,0.1,0,0.2,0c1.3,0,2.4-1.2,2.9-2.3c0.5-1.2,0.8-2.4,1-3.6C192.6,99.8,191.9,99.5,191.1,99.6
	L191.1,99.6z"/>
<path class="st1" d="M198.7,104.7c0,0.2-0.1,0.4-0.1,0.6c0,0.5,0.3,0.9,0.8,0.9c0,0,0.1,0,0.1,0c0.4,0,0.8-0.2,1.1-0.6l0.4,0.3
	c-0.6,0.7-1.5,1.1-2.4,1.1c-0.8,0-1.5-0.6-1.6-1.4c0-0.1,0-0.1,0-0.2c0-0.3,0-0.5,0.1-0.8l0.6-3.4c0-0.2,0.1-0.4,0.1-0.6
	c0-0.7-0.5-0.8-1.1-0.9h-0.1l0.1-0.5l0.7-0.1c0.6-0.1,1.2-0.2,1.8-0.3h0.6L198.7,104.7z M199.2,97.9c-0.4,0-0.8-0.4-0.8-0.8
	c0,0,0,0,0,0c0-0.6,0.5-1.1,1.1-1.1c0.4,0,0.8,0.3,0.9,0.7c0,0,0,0.1,0,0.1C200.5,97.3,199.9,97.9,199.2,97.9L199.2,97.9z"/>
<path class="st1" d="M203.2,104c-0.1,0.4-0.1,0.7-0.1,1.1v0.1c0,0.5,0.3,1,0.8,1c0.1,0,0.1,0,0.2,0c0.5-0.1,0.9-0.3,1.2-0.6l0.4,0.4
	c-0.6,0.8-1.5,1.2-2.5,1.2c-0.8,0-1.5-0.7-1.5-1.5c0,0,0-0.1,0-0.1c0-0.4,0.1-0.9,0.1-1.3l1.2-6.7c0-0.2,0.1-0.4,0.1-0.6
	c0-0.7-0.5-0.8-1.2-0.9l0.1-0.5c0.8-0.1,1.6-0.3,2.4-0.6h0.6L203.2,104z"/>
<path class="st1" d="M213.6,104.6c-0.1,0.2-0.1,0.5-0.1,0.7c0,0.5,0.4,0.9,0.9,0.9c0,0,0,0,0,0c0.5,0,0.9-0.3,1.2-0.6l0.4,0.4
	c-0.6,0.7-1.5,1.2-2.4,1.2c-0.9,0-1.6-0.7-1.6-1.6c0-0.1,0-0.1,0-0.2v-0.2l0,0c-0.7,1.2-2,2-3.3,2c-1.6,0-2.9-1.2-2.9-2.8
	c0-0.1,0-0.2,0-0.3c0-2.6,2-5.2,4.7-5.2c0.9,0,1.8,0.3,2.5,1l0.1-0.8h1.5L213.6,104.6z M210.8,99.6c-2.3,0-3.5,3-3.5,4.9
	c-0.1,0.9,0.5,1.8,1.4,1.9c0.1,0,0.1,0,0.2,0c1.3,0,2.4-1.2,2.9-2.3c0.5-1.2,0.8-2.4,1-3.6C212.3,99.8,211.6,99.5,210.8,99.6
	L210.8,99.6z"/>
<path class="st1" d="M218.9,100.9L218.9,100.9c0.7-1.3,2-2.2,3.4-2.2c1.6,0,2.9,1.2,2.9,2.8c0,0.1,0,0.2,0,0.3
	c0,1.3-0.4,2.6-1.3,3.6c-0.8,1-2.1,1.7-3.4,1.7c-1,0-1.9-0.4-2.6-1.1l-0.6,1h-1.1l1.6-9.4c0-0.2,0.1-0.4,0.1-0.6l0,0
	c0-0.5-0.3-0.9-0.8-0.9c-0.1,0-0.2,0-0.2,0h-0.2l0.1-0.5c0.9,0,1.7-0.2,2.5-0.6h0.5L218.9,100.9z M220.1,106.3c2.4,0,3.5-3,3.5-4.9
	c0.1-0.9-0.5-1.7-1.4-1.9c-0.1,0-0.1,0-0.2,0c-1.4,0-2.4,1.3-3,2.4c-0.5,1.1-0.8,2.3-0.9,3.5C218.6,106,219.3,106.3,220.1,106.3z"/>
<path class="st1" d="M228.3,104c-0.1,0.4-0.1,0.7-0.1,1.1v0.1c0,0.5,0.3,1,0.8,1c0.1,0,0.1,0,0.2,0c0.5-0.1,0.9-0.3,1.2-0.6l0.4,0.4
	c-0.6,0.8-1.5,1.2-2.5,1.2c-0.8,0-1.5-0.7-1.5-1.5c0,0,0-0.1,0-0.1c0-0.4,0.1-0.9,0.1-1.3l1.1-6.7c0-0.2,0.1-0.4,0.1-0.6
	c0-0.7-0.5-0.8-1.2-0.9l0.1-0.5c0.8-0.1,1.6-0.3,2.4-0.6h0.6L228.3,104z"/>
<path class="st1" d="M238.3,105.6c-1.2,1-2.6,1.5-4.1,1.6c-1.8,0-3.6-1.1-3.6-3.1c0.1-1.4,0.7-2.8,1.8-3.7c1.1-1,2.5-1.5,3.9-1.5
	c1.1,0,2.8,0.5,2.8,1.8c0,2.3-4.9,2.7-6.7,2.8c-0.1,0.3-0.1,0.5-0.1,0.8c0,1.2,0.9,2.2,2.1,2.2c0.1,0,0.2,0,0.3,0
	c1.1-0.1,2.2-0.5,3.1-1.2L238.3,105.6z M232.6,102.7c1.4,0,4.9-0.3,4.9-2.2c-0.1-0.7-0.7-1.3-1.4-1.2c0,0-0.1,0-0.1,0
	C234.3,99.3,233,101.2,232.6,102.7L232.6,102.7z"/>
<path class="st1" d="M248.1,98.9h2.4l-0.1,0.5H248l-0.8,4.5c-0.1,0.4-0.2,0.9-0.2,1.4c-0.1,0.5,0.3,1,0.8,1.1c0.1,0,0.2,0,0.2,0
	c0.6,0,1.2-0.3,1.6-0.8l0.4,0.4c-0.7,0.7-1.6,1-2.6,1.1c-0.9,0-2-0.3-2-1.4c0-0.5,0.1-1,0.2-1.5l0.9-4.8h-1.4l0.1-0.5
	c2-0.1,2.5-1.2,2.9-3h0.6L248.1,98.9z"/>
<path class="st1" d="M253.9,107.1c-1.8,0.2-3.4-1.1-3.5-2.9c0-0.2,0-0.3,0-0.5c0-1.3,0.5-2.5,1.4-3.4c0.9-1,2.2-1.6,3.6-1.5
	c1.8-0.1,3.4,1.2,3.5,3c0,0.1,0,0.3,0,0.4C258.8,104.9,256.6,107.1,253.9,107.1C253.9,107.1,253.9,107.1,253.9,107.1z M254,106.3
	c1.1,0,2.1-0.6,2.5-1.6c0.4-0.9,0.6-1.9,0.7-2.9c0-0.6-0.1-1.3-0.5-1.8c-0.4-0.3-0.9-0.5-1.4-0.5c-2.3,0-3.1,2.8-3.1,4.7
	C252.1,105.4,252.6,106.3,254,106.3L254,106.3z"/>
<path class="st1" d="M265.9,101.2c0-0.2,0.1-0.4,0.1-0.6c0-0.4-0.3-0.8-0.7-0.8c0,0,0,0,0,0l-0.4-0.1l0.1-0.5
	c0.8-0.1,1.6-0.2,2.4-0.4h0.6l-0.1,0.9c0.9-0.6,1.9-1,3-1c0.9-0.1,1.7,0.4,2,1.2c0.9-0.7,2-1.1,3.1-1.2c1-0.1,1.9,0.5,2,1.5
	c0,0,0,0.1,0,0.1c0,0.4-0.1,0.7-0.1,1.1l-0.5,3.1c-0.1,0.3-0.1,0.6-0.1,0.9c0,0.4,0.3,0.8,0.8,0.8c0,0,0,0,0,0c0.4,0,0.7-0.2,1-0.4
	l0.3,0.4c-0.6,0.5-1.3,0.9-2.1,0.9c-0.8,0.1-1.5-0.5-1.6-1.3c0-0.1,0-0.2,0-0.2v-0.1c0-0.4,0.1-0.7,0.1-1.1l0.6-3.2
	c0.1-0.2,0.1-0.4,0.1-0.6c0-0.6-0.4-1-1-1c-0.1,0-0.1,0-0.2,0c-0.9,0.1-1.7,0.4-2.4,0.9l-1.1,6.5H270l0.9-5.2c0-0.3,0.1-0.9,0.2-1.2
	l0,0c0-0.6-0.4-1-1-1c-0.1,0-0.1,0-0.2,0c-0.9,0.1-1.7,0.4-2.4,0.9l-1.1,6.5h-1.5L265.9,101.2z"/>
<path class="st1" d="M286.8,105.6c-1.2,1-2.6,1.5-4.1,1.6c-1.8,0-3.6-1.1-3.6-3.1c0.1-1.4,0.7-2.8,1.8-3.7c1.1-1,2.5-1.5,3.9-1.5
	c1.1,0,2.8,0.5,2.8,1.8c0,2.3-4.9,2.7-6.7,2.8c-0.1,0.3-0.1,0.5-0.1,0.8c0,1.2,0.9,2.2,2.1,2.2c0.1,0,0.2,0,0.3,0
	c1.1-0.1,2.2-0.5,3.1-1.2L286.8,105.6z M281.1,102.7c1.5,0,4.9-0.3,4.9-2.2c-0.1-0.7-0.7-1.3-1.4-1.2c0,0-0.1,0-0.1,0
	C282.7,99.3,281.5,101.2,281.1,102.7L281.1,102.7z"/>
<path class="st1" d="M295.8,105.6c-1.2,1-2.6,1.5-4.1,1.6c-1.8,0-3.6-1.1-3.6-3.1c0.1-1.4,0.7-2.8,1.8-3.7c1.1-1,2.5-1.5,3.9-1.5
	c1.1,0,2.8,0.5,2.8,1.8c0,2.3-4.9,2.7-6.7,2.8c-0.1,0.3-0.1,0.5-0.1,0.8c0,1.2,0.9,2.2,2.1,2.2c0.1,0,0.2,0,0.3,0
	c1.1-0.1,2.2-0.5,3.1-1.2L295.8,105.6z M290.1,102.7c1.5,0,4.9-0.3,4.9-2.2c-0.1-0.7-0.7-1.3-1.4-1.2c0,0-0.1,0-0.1,0
	C291.8,99.3,290.5,101.2,290.1,102.7L290.1,102.7z"/>
<path class="st1" d="M300.5,98.9h2.4l-0.1,0.5h-2.4l-0.8,4.5c-0.1,0.4-0.2,0.9-0.2,1.4c-0.1,0.5,0.3,1,0.8,1.1c0.1,0,0.2,0,0.2,0
	c0.6,0,1.2-0.3,1.6-0.8l0.4,0.4c-0.7,0.7-1.6,1-2.6,1.1c-0.9,0-2-0.3-2-1.4c0-0.5,0.1-1,0.2-1.5l0.9-4.8h-1.4l0.1-0.5
	c2-0.1,2.5-1.2,2.9-3h0.6L300.5,98.9z"/>
<path class="st1" d="M311.3,98.9h2.4l-0.1,0.5h-2.4l-0.8,4.5c-0.1,0.4-0.2,0.9-0.2,1.4c-0.1,0.5,0.3,1,0.8,1.1c0.1,0,0.2,0,0.2,0
	c0.6,0,1.2-0.3,1.6-0.8l0.4,0.4c-0.7,0.7-1.6,1-2.6,1.1c-0.9,0-2-0.3-2-1.4c0-0.5,0.1-1,0.2-1.5l0.9-4.8h-1.4l0.1-0.5
	c2-0.1,2.5-1.2,2.9-3h0.6L311.3,98.9z"/>
<path class="st1" d="M315.6,97.5c0-0.2,0.1-0.4,0.1-0.6c0-0.4-0.3-0.8-0.7-0.8c0,0-0.1,0-0.1,0h-0.4l0.1-0.5
	c0.8-0.1,1.6-0.3,2.4-0.6h0.6l-0.9,5.1c1-0.8,2.2-1.3,3.5-1.4c1,0,2.1,0.4,2.1,1.6c0,0.5-0.1,1-0.2,1.6l-0.4,2.5
	c-0.1,0.4-0.1,0.7-0.1,1.1c0,0.5,0.4,0.9,0.9,0.9c0,0,0,0,0.1,0c0.5,0,0.9-0.2,1.2-0.6l0.4,0.4c-0.6,0.7-1.4,1-2.3,1.1
	c-0.9,0.1-1.6-0.6-1.7-1.4c0-0.1,0-0.1,0-0.2c0-0.4,0.1-0.7,0.1-1.1l0.5-3c0-0.3,0.1-0.6,0.1-0.9l0,0c0-0.6-0.5-1-1.1-1
	c0,0-0.1,0-0.1,0c-1.1,0.2-2.2,0.6-3,1.4l-1.1,6.1h-1.5L315.6,97.5z"/>
<path class="st1" d="M331.6,105.6c-1.2,1-2.6,1.5-4.1,1.6c-1.8,0-3.6-1.1-3.6-3.1c0.1-1.4,0.7-2.8,1.8-3.7c1.1-1,2.5-1.5,3.9-1.5
	c1.1,0,2.8,0.5,2.8,1.8c0,2.3-4.9,2.7-6.7,2.8c-0.1,0.3-0.1,0.5-0.1,0.8c0,1.2,0.9,2.2,2.1,2.2c0.1,0,0.2,0,0.3,0
	c1.1-0.1,2.2-0.5,3.1-1.2L331.6,105.6z M325.8,102.7c1.5,0,4.9-0.3,4.9-2.2c-0.1-0.7-0.7-1.3-1.4-1.2c0,0-0.1,0-0.1,0
	C327.5,99.3,326.3,101.2,325.8,102.7L325.8,102.7z"/>
<path class="st1" d="M339.9,106.9h-1.5l1-5.8c0-0.2,0.1-0.4,0.1-0.6c0-0.6-0.5-0.8-1.1-0.8l0.1-0.5l2.3-0.4h0.6l-0.2,1.2
	c1-0.8,2.2-1.3,3.5-1.4c1,0,2,0.5,2,1.6c0,0.3-0.1,0.7-0.1,1l-0.6,3.3c-0.1,0.2-0.1,0.5-0.1,0.7c0,0.5,0.3,0.8,0.8,0.9
	c0.4,0,0.8-0.2,1.1-0.6l0.3,0.4c-0.6,0.6-1.4,1-2.2,1c-0.8,0-1.5-0.7-1.5-1.5l0,0c0-0.5,0.1-1.1,0.2-1.6l0.5-2.7
	c0.1-0.3,0.1-0.5,0.1-0.8c0-0.6-0.5-1-1.1-1c0,0,0,0,0,0c-1.1,0.1-2.1,0.6-2.9,1.3L339.9,106.9z"/>
<path class="st1" d="M355.9,105.6c-1.2,1-2.6,1.5-4.1,1.6c-1.8,0-3.6-1.1-3.6-3.1c0.1-1.4,0.7-2.8,1.8-3.7c1.1-1,2.5-1.5,3.9-1.5
	c1.1,0,2.8,0.5,2.8,1.8c0,2.3-4.9,2.7-6.7,2.8c-0.1,0.3-0.1,0.5-0.1,0.8c0,1.2,0.9,2.2,2.1,2.2c0.1,0,0.2,0,0.3,0
	c1.1-0.1,2.2-0.5,3.1-1.2L355.9,105.6z M350.2,102.7c1.5,0,4.9-0.3,4.9-2.2c-0.1-0.7-0.7-1.3-1.4-1.2c0,0-0.1,0-0.1,0
	C351.9,99.3,350.6,101.2,350.2,102.7L350.2,102.7z"/>
<path class="st1" d="M365,105.6c-1.2,1-2.6,1.5-4.1,1.6c-1.8,0-3.6-1.1-3.6-3.1c0.1-1.4,0.7-2.8,1.8-3.7c1.1-1,2.5-1.5,3.9-1.5
	c1.1,0,2.8,0.5,2.8,1.8c0,2.3-4.9,2.7-6.7,2.8c-0.1,0.3-0.1,0.5-0.1,0.8c0,1.2,0.9,2.2,2.1,2.2c0.1,0,0.2,0,0.3,0
	c1.1-0.1,2.2-0.5,3.1-1.2L365,105.6z M359.3,102.7c1.5,0,4.9-0.3,4.9-2.2c-0.1-0.7-0.7-1.3-1.4-1.2c0,0-0.1,0-0.1,0
	C360.9,99.3,359.7,101.2,359.3,102.7z"/>
<path class="st1" d="M376.8,105.9c-0.6,0.7-1.5,1.1-2.5,1.2c-0.8,0.1-1.6-0.6-1.6-1.4c0,0,0-0.1,0-0.1l0-0.6
	c-0.7,1.3-2.1,2.1-3.6,2.2c-1.9,0-2.9-1.4-2.9-3.2c0-1.3,0.5-2.6,1.4-3.6c0.9-1,2.1-1.6,3.5-1.6c0.9,0,1.9,0.4,2.5,1l0.4-2.2
	c0-0.2,0.1-0.4,0.1-0.6c0-0.7-0.6-0.8-1.2-0.9h-0.2l0.1-0.5c0.8-0.1,1.7-0.3,2.4-0.6h0.7l-1.6,9.1c-0.1,0.4-0.1,0.8-0.1,1.2
	c0,0.4,0.3,0.8,0.7,0.9c0,0,0.1,0,0.1,0c0.5,0,0.9-0.2,1.2-0.6L376.8,105.9z M373.5,100.4c-0.5-0.6-1.2-1-2-1c-2.4,0-3.5,3-3.5,5
	c-0.1,0.9,0.5,1.7,1.3,1.8c0.1,0,0.2,0,0.3,0c1.2-0.2,2.3-0.9,2.8-2.1c0.5-1.1,0.9-2.3,1-3.5L373.5,100.4z"/>
<path class="st1" d="M379.3,102.8c-0.7-0.3-1.2-0.9-1.2-1.6c0-0.7,0.4-1.4,1.1-1.8c0.7-0.4,1.5-0.6,2.3-0.6c0.9,0,1.9,0.2,2.7,0.6
	c0.4,0.1,0.7,0.5,0.8,0.9c0,0.4-0.3,0.7-0.6,0.7c0,0,0,0-0.1,0c-0.4,0-0.8-0.2-0.9-0.6c-0.2-0.3-0.4-0.5-0.7-0.7
	c-0.3-0.2-0.7-0.3-1.1-0.3c-0.8-0.1-1.6,0.4-1.7,1.2c0,0,0,0,0,0.1c0,0.4,0.2,0.8,0.5,0.9c0.5,0.2,1.1,0.4,1.6,0.6
	c1.1,0.4,2.6,0.7,2.6,2.2c-0.1,0.9-0.6,1.7-1.4,2.1c-0.8,0.5-1.7,0.7-2.6,0.7c-1,0-1.9-0.2-2.8-0.7c-0.5-0.2-0.8-0.6-0.9-1.1
	c0-0.4,0.4-0.7,0.8-0.7c1.4,0,0.9,1.8,3.1,1.8c0.5,0,1-0.1,1.4-0.4c0.4-0.2,0.7-0.7,0.7-1.1c0-0.9-0.8-1.1-1.5-1.3L379.3,102.8z"/>
<path class="st1" d="M394.5,107.1c-1.8,0.2-3.4-1.1-3.5-2.9c0-0.2,0-0.3,0-0.5c0-1.3,0.5-2.5,1.4-3.4c0.9-1,2.2-1.6,3.6-1.5
	c1.8-0.1,3.4,1.2,3.5,3c0,0.1,0,0.3,0,0.4C399.5,104.9,397.3,107.1,394.5,107.1C394.6,107.1,394.6,107.1,394.5,107.1z M394.6,106.3
	c1.1,0,2.1-0.6,2.5-1.6c0.4-0.9,0.6-1.9,0.7-2.9c0-0.6-0.1-1.3-0.5-1.8c-0.4-0.3-0.9-0.5-1.4-0.5c-2.3,0-3.1,2.8-3.1,4.7
	C392.7,105.4,393.3,106.3,394.6,106.3L394.6,106.3z"/>
<path class="st1" d="M405.9,98.9l-0.1,0.5h-1.7l-1.1,6.4c-0.1,1.2-0.5,2.4-1.1,3.4c-0.8,1-2.1,1.5-3.3,1.4c-0.7,0-2.3-0.3-2.3-1.3
	c0-0.4,0.3-0.6,0.7-0.6c0,0,0.1,0,0.1,0c1.1,0,1.1,1.3,2.2,1.3c0.5,0,0.9-0.2,1.2-0.6c0.3-0.5,0.5-1,0.5-1.6l0.2-1.1l1.3-7.4h-1.5
	l0.1-0.5h1.5c0-1,0.4-1.9,0.9-2.7c0.7-0.8,1.7-1.3,2.7-1.3c0.6,0,1.9,0.2,1.9,1c0,0.4-0.4,0.7-0.7,0.7c0,0,0,0,0,0c-1,0-0.6-1-1.7-1
	c-0.4,0-0.8,0.2-1,0.6c-0.3,0.5-0.4,1-0.5,1.5l-0.2,1.4L405.9,98.9L405.9,98.9z"/>
<path class="st1" d="M414.3,107.1c-1.8,0.2-3.4-1.1-3.5-2.9c0-0.2,0-0.3,0-0.5c0-1.3,0.5-2.5,1.4-3.4c0.9-1,2.2-1.6,3.6-1.5
	c1.8-0.1,3.4,1.2,3.5,3c0,0.1,0,0.3,0,0.4C419.2,104.9,417,107.1,414.3,107.1C414.3,107.1,414.3,107.1,414.3,107.1z M414.3,106.3
	c1.1,0,2.1-0.6,2.5-1.6c0.4-0.9,0.6-1.9,0.7-2.9c0-0.6-0.1-1.3-0.5-1.8c-0.4-0.3-0.9-0.5-1.4-0.5c-2.3,0-3.1,2.8-3.1,4.7
	C412.4,105.4,413,106.3,414.3,106.3L414.3,106.3z"/>
<path class="st1" d="M427.8,104.2c-0.1,0.4-0.1,0.7-0.1,1.1c0,0.5,0.4,0.9,0.8,0.9c0,0,0,0,0,0c0.4,0,0.9-0.3,1.1-0.6l0.4,0.3
	c-0.6,0.7-1.4,1.2-2.4,1.2c-0.9,0.1-1.6-0.6-1.7-1.5c0,0,0,0,0-0.1c-1,0.9-2.3,1.5-3.6,1.5c-0.9,0.1-1.7-0.5-1.9-1.4
	c0-0.1,0-0.2,0-0.2c0-0.4,0.1-0.8,0.1-1.1l0.5-3.1c0.1-0.2,0.1-0.4,0.1-0.6c0-0.4-0.3-0.8-0.7-0.8c0,0,0,0,0,0l-0.4-0.1l0.1-0.5
	l2.3-0.4h0.6l-1,5.5c-0.1,0.2-0.1,0.5-0.1,0.8v0.1c0,0.6,0.4,1,1,1c0,0,0.1,0,0.1,0c1.1-0.1,2.2-0.6,3-1.3l1.1-6h1.5L427.8,104.2z"
	/>
<path class="st1" d="M433.3,99.9L433.3,99.9c0.7-0.7,1.7-1.2,2.7-1.2c0.5-0.1,1,0.2,1,0.7c0,0,0,0,0,0.1c0,0.5-0.5,0.9-1,0.9
	c0,0,0,0-0.1,0c-0.6,0-0.9-0.5-1.4-0.5c-1.4,0-1.7,2-1.9,3l-0.7,4.1h-1.5l1-5.8c0-0.2,0.1-0.4,0.1-0.6c0-0.6-0.5-0.8-1.1-0.8
	l0.1-0.5l2.3-0.4h0.6L433.3,99.9z"/>
<path class="st1" d="M78.8,125.8c-1,1.1-2.4,1.7-3.8,1.7c-1.8,0.1-3.3-1.2-3.4-3c0-0.1,0-0.2,0-0.3c0.1-2.8,2.3-5,5.1-5.1
	c1.1,0,2.6,0.6,2.6,1.8c0,0.5-0.4,1-0.9,1c0,0,0,0-0.1,0c-0.3,0-0.6-0.2-0.6-0.5c0,0,0,0,0-0.1c0-0.1,0-0.3,0-0.4c0-0.6-0.4-1-1-1
	c-0.1,0-0.1,0-0.2,0c-2,0-3.1,2.9-3.1,4.5c-0.1,1.2,0.8,2.2,2,2.3c0,0,0.1,0,0.1,0c1.1-0.1,2.1-0.6,2.9-1.3L78.8,125.8z"/>
<path class="st1" d="M81.9,124.4c-0.1,0.4-0.1,0.7-0.2,1.1v0.1c0,0.5,0.3,1,0.8,1c0.1,0,0.1,0,0.2,0c0.5-0.1,0.9-0.3,1.2-0.6
	l0.4,0.3c-0.6,0.8-1.5,1.2-2.5,1.2c-0.8,0-1.5-0.7-1.5-1.5c0,0,0-0.1,0-0.1c0-0.4,0.1-0.9,0.2-1.3l1.2-6.7c0-0.2,0.1-0.4,0.1-0.6
	c0-0.7-0.5-0.8-1.2-0.9l0.1-0.5c0.8-0.1,1.6-0.3,2.4-0.6h0.7L81.9,124.4z"/>
<path class="st1" d="M86.7,125.1c0,0.2-0.1,0.4-0.1,0.6c0,0.5,0.3,0.9,0.8,0.9c0,0,0.1,0,0.1,0c0.4,0,0.8-0.2,1.1-0.6l0.4,0.3
	c-0.6,0.7-1.5,1.1-2.4,1.1c-0.8,0-1.5-0.6-1.6-1.4c0-0.1,0-0.1,0-0.2c0-0.3,0-0.5,0.1-0.8l0.6-3.4c0-0.2,0.1-0.4,0.1-0.6
	c0-0.7-0.5-0.8-1.1-0.9h-0.1l0.1-0.5l0.7-0.1c0.6-0.1,1.2-0.2,1.8-0.3h0.6L86.7,125.1z M87.3,118.3c-0.4,0-0.8-0.4-0.8-0.8
	c0,0,0,0,0,0c0-0.6,0.5-1.1,1.2-1.1c0.4,0,0.8,0.3,0.9,0.7c0,0,0,0.1,0,0.1C88.5,117.8,87.9,118.3,87.3,118.3z"/>
<path class="st1" d="M96.7,125.9c-1.2,1-2.6,1.5-4.1,1.6c-1.8,0-3.6-1.1-3.6-3.1c0.1-1.4,0.7-2.8,1.8-3.7c1.1-1,2.5-1.5,3.9-1.5
	c1.1,0,2.8,0.5,2.8,1.8c0,2.3-4.9,2.7-6.7,2.8c-0.1,0.3-0.1,0.5-0.1,0.8c0,1.2,0.9,2.2,2.1,2.2c0.1,0,0.2,0,0.3,0
	c1.1-0.1,2.2-0.5,3.1-1.2L96.7,125.9z M90.9,123.1c1.4,0,4.9-0.3,4.9-2.2c-0.1-0.7-0.7-1.3-1.4-1.2c0,0-0.1,0-0.1,0
	C92.6,119.7,91.4,121.6,90.9,123.1L90.9,123.1z"/>
<path class="st1" d="M100,127.4h-1.5l1-5.8c0-0.2,0.1-0.4,0.1-0.6c0-0.6-0.6-0.8-1.2-0.8l0.1-0.5l2.3-0.4h0.6l-0.2,1.2
	c1-0.8,2.2-1.3,3.5-1.4c1,0,2,0.5,2,1.6c0,0.3-0.1,0.7-0.1,1l-0.6,3.3c-0.1,0.2-0.1,0.5-0.1,0.7c0,0.5,0.3,0.8,0.8,0.9
	c0.4,0,0.8-0.2,1.1-0.6l0.3,0.4c-0.6,0.6-1.4,1-2.2,1c-0.8,0-1.5-0.6-1.5-1.4c0,0,0,0,0-0.1l0,0c0-0.5,0.1-1.1,0.2-1.6l0.5-2.7
	c0.1-0.3,0.1-0.5,0.1-0.8c0-0.6-0.5-1-1.1-1c0,0,0,0,0,0c-1.1,0.1-2.1,0.6-2.9,1.3L100,127.4z"/>
<path class="st1" d="M111.8,119.3h2.4l-0.1,0.5h-2.4l-0.8,4.5c-0.1,0.4-0.2,0.9-0.2,1.4c-0.1,0.5,0.3,1,0.8,1.1c0.1,0,0.2,0,0.2,0
	c0.6,0,1.2-0.3,1.6-0.8l0.4,0.4c-0.7,0.7-1.6,1-2.6,1.1c-0.9,0-2-0.3-2-1.4c0-0.5,0.1-1,0.2-1.5l0.8-4.8h-1.4l0.1-0.5
	c2-0.1,2.5-1.2,2.9-3h0.5L111.8,119.3z"/>
<path class="st1" d="M116.4,123.2c-0.7-0.3-1.2-0.9-1.2-1.6c0-0.7,0.4-1.4,1.1-1.8c0.7-0.4,1.5-0.6,2.3-0.6c0.9,0,1.9,0.2,2.7,0.6
	c0.4,0.1,0.7,0.5,0.8,0.9c0,0.4-0.3,0.7-0.6,0.7c0,0,0,0-0.1,0c-0.4,0-0.8-0.2-0.9-0.6c-0.2-0.3-0.4-0.5-0.7-0.7
	c-0.3-0.2-0.7-0.3-1.1-0.3c-0.8-0.1-1.6,0.4-1.7,1.2c0,0,0,0,0,0.1c0,0.4,0.2,0.8,0.6,0.9c0.5,0.2,1.1,0.4,1.6,0.6
	c1.1,0.4,2.6,0.7,2.6,2.2c-0.1,0.9-0.6,1.7-1.4,2.1c-0.8,0.5-1.7,0.7-2.6,0.7c-1,0-1.9-0.2-2.8-0.7c-0.5-0.2-0.8-0.6-0.9-1.1
	c0-0.4,0.4-0.7,0.8-0.7c1.4,0,0.9,1.8,3.1,1.8c0.5,0,1-0.1,1.4-0.4c0.4-0.2,0.7-0.7,0.7-1.1c0-0.9-0.8-1.1-1.5-1.3L116.4,123.2z"/>
<path class="st1" d="M138.6,126.3c-0.6,0.7-1.5,1.1-2.5,1.2c-0.8,0.1-1.6-0.6-1.6-1.4c0,0,0-0.1,0-0.1l0.1-0.6
	c-0.7,1.3-2.1,2.1-3.6,2.2c-1.9,0-2.9-1.4-2.9-3.2c0-1.3,0.5-2.6,1.4-3.6c0.9-1,2.1-1.6,3.5-1.6c0.9,0,1.9,0.4,2.5,1l0.4-2.2
	c0-0.2,0.1-0.4,0.1-0.6c0-0.7-0.6-0.8-1.2-0.9h-0.2l0.1-0.5c0.8-0.1,1.7-0.3,2.4-0.6h0.7l-1.6,9.1c-0.1,0.4-0.1,0.8-0.1,1.2
	c0,0.4,0.3,0.8,0.7,0.9c0,0,0.1,0,0.1,0c0.5,0,0.9-0.2,1.2-0.6L138.6,126.3z M135.3,120.9c-0.5-0.6-1.2-1-2-1c-2.4,0-3.5,3-3.5,5
	c-0.1,0.9,0.5,1.7,1.3,1.8c0.1,0,0.2,0,0.3,0c1.2-0.2,2.3-0.9,2.8-2.1c0.5-1.1,0.9-2.3,1.1-3.5L135.3,120.9z"/>
<path class="st1" d="M146.9,124.6c-0.1,0.4-0.1,0.7-0.1,1.1c0,0.5,0.4,0.9,0.8,0.9c0,0,0,0,0,0c0.4,0,0.9-0.3,1.1-0.6l0.4,0.3
	c-0.6,0.7-1.4,1.2-2.4,1.2c-0.9,0.1-1.6-0.6-1.7-1.5c0,0,0,0,0-0.1c-1,0.9-2.3,1.5-3.6,1.5c-0.9,0.1-1.7-0.5-1.9-1.4
	c0-0.1,0-0.2,0-0.2c0-0.4,0.1-0.8,0.1-1.1l0.5-3.1c0.1-0.2,0.1-0.4,0.1-0.6c0-0.4-0.3-0.8-0.7-0.8c0,0,0,0,0,0l-0.4-0.1l0.1-0.5
	l2.3-0.4h0.6l-1,5.5c-0.1,0.2-0.1,0.5-0.1,0.8v0.1c0,0.6,0.4,1,1,1c0,0,0.1,0,0.1,0c1.1-0.1,2.2-0.6,3-1.3l1.1-6h1.5L146.9,124.6z"
	/>
<path class="st1" d="M152.3,120.3L152.3,120.3c0.7-0.7,1.7-1.2,2.7-1.2c0.5-0.1,1,0.2,1,0.7c0,0,0,0,0,0.1c0,0.5-0.5,0.9-1,0.9
	c0,0,0,0-0.1,0c-0.6,0-0.9-0.5-1.4-0.5c-1.4,0-1.7,2-1.9,3l-0.7,4.1h-1.5l1-5.8c0-0.2,0.1-0.4,0.1-0.6c0-0.6-0.6-0.8-1.1-0.8
	l0.1-0.5l2.3-0.4h0.6L152.3,120.3z"/>
<path class="st1" d="M158.3,125.1c0,0.2-0.1,0.4-0.1,0.6c0,0.5,0.3,0.9,0.8,0.9c0,0,0.1,0,0.1,0c0.4,0,0.8-0.2,1.1-0.6l0.4,0.3
	c-0.6,0.7-1.5,1.1-2.4,1.1c-0.8,0-1.5-0.6-1.6-1.4c0-0.1,0-0.1,0-0.2c0-0.3,0-0.5,0.1-0.8l0.6-3.4c0-0.2,0.1-0.4,0.1-0.6
	c0-0.7-0.5-0.8-1.1-0.9h-0.1l0.1-0.5l0.7-0.1c0.6-0.1,1.2-0.2,1.8-0.3h0.5L158.3,125.1z M158.9,118.3c-0.4,0-0.8-0.4-0.8-0.8
	c0,0,0,0,0,0c0-0.6,0.5-1.1,1.1-1.1c0.4,0,0.8,0.3,0.9,0.7c0,0,0,0.1,0,0.1C160.1,117.8,159.5,118.3,158.9,118.3L158.9,118.3z"/>
<path class="st1" d="M162.4,127.4h-1.5l1-5.8c0-0.2,0.1-0.4,0.1-0.6c0-0.6-0.6-0.8-1.1-0.8l0.1-0.5l2.3-0.4h0.6l-0.2,1.2
	c1-0.8,2.2-1.3,3.5-1.4c1,0,2,0.5,2,1.6c0,0.3-0.1,0.7-0.1,1l-0.6,3.3c-0.1,0.2-0.1,0.5-0.1,0.7c0,0.5,0.3,0.8,0.8,0.9
	c0.4,0,0.8-0.2,1.1-0.6l0.3,0.4c-0.6,0.6-1.4,1-2.2,1c-0.8,0-1.5-0.6-1.5-1.4c0,0,0,0,0-0.1l0,0c0-0.5,0.1-1.1,0.2-1.6l0.5-2.7
	c0.1-0.3,0.1-0.5,0.1-0.8c0-0.6-0.5-1-1.1-1c0,0,0,0,0,0c-1.1,0.1-2.1,0.6-2.9,1.3L162.4,127.4z"/>
<path class="st1" d="M178.2,126.5c-0.2,1.3-0.4,2.4-1.5,3.4c-1,0.8-2.3,1.3-3.6,1.2c-0.8,0-1.6-0.1-2.4-0.5
	c-0.4-0.1-0.7-0.5-0.8-0.9c0-0.5,0.4-0.8,0.9-0.8c0.4,0,0.7,0.2,0.9,0.5c0.1,0.2,0.2,0.5,0.4,0.6c0.3,0.3,0.8,0.4,1.2,0.4
	c0.8,0,1.7-0.4,2.2-1c0.6-0.7,1-1.6,1.1-2.5l0.3-1.5l0,0c-0.6,1.2-1.9,2-3.3,2.1c-1.5,0-2.8-1.3-2.8-2.8c0-0.1,0-0.2,0-0.3
	c0-2.6,1.9-5.3,4.6-5.3c0.9,0,1.7,0.3,2.3,1l0.4-0.9h1.4L178.2,126.5z M177.6,120.9c-0.4-0.6-1.2-1-1.9-1c-2.2,0-3.2,3-3.2,4.9
	c0,1,0.2,2,1.4,2c1.2-0.2,2.2-0.9,2.7-2c0.5-1.1,0.8-2.3,1-3.5L177.6,120.9z"/>
<path class="st1" d="M188.6,119.3h2.4l-0.1,0.5h-2.4l-0.8,4.5c-0.1,0.4-0.2,0.9-0.2,1.4c-0.1,0.5,0.3,1,0.8,1.1c0.1,0,0.2,0,0.2,0
	c0.6,0,1.2-0.3,1.6-0.8l0.4,0.4c-0.7,0.7-1.6,1-2.6,1.1c-0.9,0-2-0.3-2-1.4c0-0.5,0.1-1,0.2-1.5l0.9-4.8h-1.4l0.1-0.5
	c2-0.1,2.5-1.2,2.9-3h0.6L188.6,119.3z"/>
<path class="st1" d="M192.9,117.9c0-0.2,0.1-0.4,0.1-0.6c0-0.4-0.3-0.8-0.7-0.8c0,0,0,0-0.1,0h-0.4l0.1-0.5c0.8-0.1,1.6-0.3,2.4-0.6
	h0.6l-0.9,5.1c1-0.8,2.2-1.3,3.5-1.4c1,0,2.1,0.4,2.1,1.6c0,0.5-0.1,1-0.2,1.6l-0.4,2.5c-0.1,0.4-0.1,0.7-0.1,1.1
	c0,0.5,0.4,0.9,0.9,0.9c0,0,0,0,0.1,0c0.5,0,0.9-0.2,1.2-0.6l0.4,0.4c-0.6,0.7-1.4,1-2.3,1.1c-0.9,0.1-1.6-0.6-1.7-1.4
	c0-0.1,0-0.1,0-0.2c0-0.4,0.1-0.7,0.1-1.1l0.5-3c0-0.3,0.1-0.6,0.1-0.9l0,0c0-0.6-0.5-1-1.1-1c0,0-0.1,0-0.1,0
	c-1.1,0.2-2.2,0.6-3,1.4l-1.1,6.1h-1.6L192.9,117.9z"/>
<path class="st1" d="M208.9,125.9c-1.2,1-2.6,1.5-4.1,1.6c-1.8,0-3.6-1.1-3.6-3.1c0.1-1.4,0.7-2.8,1.8-3.7c1.1-1,2.5-1.5,3.9-1.5
	c1.1,0,2.8,0.5,2.8,1.8c0,2.3-4.9,2.7-6.7,2.8c-0.1,0.3-0.1,0.5-0.1,0.8c0,1.2,0.9,2.2,2.1,2.2c0.1,0,0.2,0,0.3,0
	c1.1-0.1,2.2-0.5,3.1-1.2L208.9,125.9z M203.2,123.1c1.4,0,4.9-0.3,4.9-2.2c-0.1-0.7-0.7-1.3-1.4-1.2c0,0-0.1,0-0.1,0
	C204.9,119.7,203.6,121.6,203.2,123.1L203.2,123.1z"/>
<path class="st1" d="M212.7,125.1c0,0.2-0.1,0.4-0.1,0.6c0,0.5,0.3,0.9,0.8,0.9c0,0,0.1,0,0.1,0c0.4,0,0.8-0.2,1.1-0.6l0.4,0.3
	c-0.6,0.7-1.5,1.1-2.4,1.1c-0.8,0-1.5-0.6-1.6-1.4c0-0.1,0-0.1,0-0.2c0-0.3,0-0.5,0.1-0.8l0.6-3.4c0-0.2,0.1-0.4,0.1-0.6
	c0-0.7-0.5-0.8-1.1-0.9h-0.1l0.1-0.5l0.7-0.1c0.6-0.1,1.2-0.2,1.8-0.3h0.6L212.7,125.1z M213.3,118.3c-0.4,0-0.8-0.4-0.8-0.8
	c0,0,0,0,0,0c0-0.6,0.5-1.1,1.1-1.1c0.4,0,0.8,0.3,0.9,0.7c0,0,0,0.1,0,0.1C214.5,117.8,213.9,118.3,213.3,118.3L213.3,118.3z"/>
<path class="st1" d="M218.1,120.3L218.1,120.3c0.7-0.7,1.7-1.2,2.7-1.2c0.5-0.1,1,0.2,1,0.7c0,0,0,0,0,0.1c0,0.5-0.5,0.9-1,0.9
	c0,0,0,0-0.1,0c-0.6,0-0.9-0.5-1.4-0.5c-1.4,0-1.7,2-1.9,3l-0.7,4.1h-1.5l1-5.8c0-0.2,0.1-0.4,0.1-0.6c0-0.6-0.6-0.8-1.1-0.8
	l0.1-0.5l2.3-0.4h0.6L218.1,120.3z"/>
<path class="st1" d="M229.6,121.3L229.6,121.3c0.7-1.3,2-2.2,3.4-2.2c1.6,0,2.9,1.2,2.9,2.8c0,0.1,0,0.2,0,0.3
	c0,1.3-0.4,2.6-1.3,3.6c-0.8,1-2.1,1.7-3.4,1.7c-1,0-1.9-0.4-2.6-1.1l-0.6,1H227l1.6-9.4c0-0.2,0.1-0.4,0.1-0.6l0,0
	c0-0.5-0.3-0.9-0.8-0.9c-0.1,0-0.2,0-0.2,0h-0.2l0.1-0.5c0.9,0,1.7-0.2,2.5-0.6h0.5L229.6,121.3z M230.8,126.7c2.4,0,3.5-3,3.5-4.9
	c0.1-0.9-0.5-1.7-1.4-1.9c-0.1,0-0.1,0-0.2,0c-1.4,0-2.4,1.3-3,2.4c-0.5,1.1-0.8,2.3-0.9,3.5C229.3,126.4,230,126.7,230.8,126.7z"/>
<path class="st1" d="M244.7,124.6c-0.1,0.4-0.1,0.7-0.1,1.1c0,0.5,0.4,0.9,0.8,0.9c0,0,0,0,0,0c0.4,0,0.9-0.3,1.1-0.6l0.4,0.3
	c-0.6,0.7-1.4,1.2-2.4,1.2c-0.9,0.1-1.6-0.6-1.7-1.5c0,0,0,0,0-0.1c-1,0.9-2.3,1.5-3.6,1.5c-0.9,0.1-1.7-0.5-1.9-1.4
	c0-0.1,0-0.2,0-0.2c0-0.4,0.1-0.8,0.1-1.1l0.5-3.1c0.1-0.2,0.1-0.4,0.1-0.6c0-0.4-0.3-0.8-0.7-0.8c0,0,0,0,0,0l-0.4-0.1l0.1-0.5
	l2.3-0.4h0.6l-1,5.5c-0.1,0.2-0.1,0.5-0.1,0.8v0.1c0,0.6,0.4,1,1,1c0,0,0.1,0,0.1,0c1.1-0.1,2.2-0.6,3-1.3l1.1-6h1.5L244.7,124.6z"
	/>
<path class="st1" d="M249.3,123.2c-0.7-0.3-1.2-0.9-1.2-1.6c0-0.7,0.4-1.4,1.1-1.8c0.7-0.4,1.5-0.6,2.3-0.6c0.9,0,1.9,0.2,2.7,0.6
	c0.4,0.1,0.7,0.5,0.8,0.9c0,0.4-0.3,0.7-0.6,0.7c0,0,0,0-0.1,0c-0.4,0-0.8-0.2-0.9-0.6c-0.2-0.3-0.4-0.5-0.7-0.7
	c-0.3-0.2-0.7-0.3-1.1-0.3c-0.8-0.1-1.6,0.4-1.7,1.2c0,0,0,0,0,0.1c0,0.4,0.2,0.8,0.5,0.9c0.5,0.2,1.1,0.4,1.6,0.6
	c1.1,0.4,2.6,0.7,2.6,2.2c-0.1,0.9-0.6,1.7-1.4,2.1c-0.8,0.5-1.7,0.7-2.6,0.7c-1,0-1.9-0.2-2.8-0.7c-0.5-0.2-0.8-0.6-0.9-1.1
	c0-0.4,0.4-0.7,0.8-0.7c1.4,0,0.9,1.8,3.1,1.8c0.5,0,1-0.1,1.4-0.4c0.4-0.2,0.7-0.7,0.7-1.1c0-0.9-0.8-1.1-1.5-1.3L249.3,123.2z"/>
<path class="st1" d="M258.5,125.1c0,0.2-0.1,0.4-0.1,0.6c0,0.5,0.3,0.9,0.8,0.9c0,0,0.1,0,0.1,0c0.4,0,0.8-0.2,1.1-0.6l0.4,0.3
	c-0.6,0.7-1.5,1.1-2.4,1.1c-0.8,0-1.5-0.6-1.6-1.4c0-0.1,0-0.1,0-0.2c0-0.3,0-0.5,0.1-0.8l0.6-3.4c0-0.2,0.1-0.4,0.1-0.6
	c0-0.7-0.5-0.8-1.1-0.9h-0.1l0.1-0.5l0.7-0.1c0.6-0.1,1.2-0.2,1.8-0.3h0.5L258.5,125.1z M259,118.3c-0.4,0-0.8-0.4-0.8-0.8
	c0,0,0,0,0,0c0-0.6,0.5-1.1,1.1-1.1c0.4,0,0.8,0.3,0.9,0.7c0,0,0,0.1,0,0.1C260.3,117.8,259.7,118.3,259,118.3z"/>
<path class="st1" d="M262.7,127.4h-1.5l1-5.8c0-0.2,0.1-0.4,0.1-0.6c0-0.6-0.5-0.8-1.1-0.8l0.1-0.5l2.3-0.4h0.6l-0.2,1.2
	c1-0.8,2.2-1.3,3.5-1.4c1,0,2,0.5,2,1.6c0,0.3-0.1,0.7-0.1,1l-0.6,3.3c-0.1,0.2-0.1,0.5-0.1,0.7c0,0.5,0.3,0.8,0.8,0.9
	c0.4,0,0.8-0.2,1.1-0.6l0.3,0.4c-0.6,0.6-1.4,1-2.2,1c-0.8,0-1.5-0.6-1.5-1.4c0,0,0,0,0-0.1l0,0c0-0.5,0.1-1.1,0.2-1.6l0.5-2.7
	c0.1-0.3,0.1-0.5,0.1-0.8c0-0.6-0.5-1-1.1-1c0,0,0,0,0,0c-1.1,0.1-2.1,0.6-2.9,1.3L262.7,127.4z"/>
<path class="st1" d="M278.8,125.9c-1.2,1-2.6,1.5-4.1,1.6c-1.8,0-3.6-1.1-3.6-3.1c0.1-1.4,0.7-2.8,1.8-3.7c1.1-1,2.5-1.5,3.9-1.5
	c1.1,0,2.8,0.5,2.8,1.8c0,2.3-4.9,2.7-6.7,2.8c-0.1,0.3-0.1,0.5-0.1,0.8c0,1.2,0.9,2.2,2.1,2.2c0.1,0,0.2,0,0.3,0
	c1.1-0.1,2.2-0.5,3.1-1.2L278.8,125.9z M273,123.1c1.5,0,4.9-0.3,4.9-2.2c-0.1-0.7-0.7-1.3-1.4-1.2c0,0-0.1,0-0.1,0
	C274.7,119.7,273.5,121.6,273,123.1L273,123.1z"/>
<path class="st1" d="M282.4,123.2c-0.7-0.3-1.1-0.9-1.2-1.6c0-0.7,0.4-1.4,1.1-1.8c0.7-0.4,1.5-0.6,2.3-0.6c0.9,0,1.9,0.2,2.7,0.6
	c0.4,0.1,0.7,0.5,0.8,0.9c0,0.4-0.3,0.7-0.6,0.7c0,0,0,0-0.1,0c-0.4,0-0.8-0.2-0.9-0.6c-0.2-0.3-0.4-0.5-0.7-0.7
	c-0.3-0.2-0.7-0.3-1.1-0.3c-0.8-0.1-1.6,0.4-1.7,1.2c0,0,0,0,0,0.1c0,0.4,0.2,0.8,0.5,0.9c0.5,0.2,1.1,0.4,1.6,0.6
	c1.1,0.4,2.6,0.7,2.6,2.2c-0.1,0.9-0.6,1.7-1.4,2.1c-0.8,0.5-1.7,0.7-2.6,0.7c-1,0-1.9-0.2-2.8-0.7c-0.5-0.2-0.8-0.6-0.9-1.1
	c0-0.4,0.4-0.7,0.8-0.7c1.4,0,0.9,1.8,3.1,1.8c0.5,0,1-0.1,1.4-0.4c0.4-0.2,0.7-0.7,0.7-1.1c0-0.9-0.8-1.1-1.5-1.3L282.4,123.2z"/>
<path class="st1" d="M291.4,123.2c-0.7-0.3-1.2-0.9-1.2-1.6c0-0.7,0.4-1.4,1.1-1.8c0.7-0.4,1.5-0.6,2.3-0.6c0.9,0,1.9,0.2,2.7,0.6
	c0.4,0.1,0.7,0.5,0.8,0.9c0,0.4-0.3,0.7-0.6,0.7c0,0,0,0-0.1,0c-0.4,0-0.8-0.2-0.9-0.6c-0.2-0.3-0.4-0.5-0.7-0.7
	c-0.3-0.2-0.7-0.3-1.1-0.3c-0.8-0.1-1.6,0.4-1.7,1.2c0,0,0,0,0,0.1c0,0.4,0.2,0.8,0.5,0.9c0.5,0.2,1.1,0.4,1.6,0.6
	c1.1,0.4,2.6,0.7,2.6,2.2c-0.1,0.9-0.6,1.7-1.4,2.1c-0.8,0.5-1.7,0.7-2.6,0.7c-1,0-1.9-0.2-2.8-0.7c-0.5-0.2-0.8-0.6-0.9-1.1
	c0-0.4,0.4-0.7,0.8-0.7c1.4,0,0.9,1.8,3.1,1.8c0.5,0,1-0.1,1.4-0.4c0.4-0.2,0.7-0.7,0.7-1.1c0-0.9-0.8-1.1-1.5-1.3L291.4,123.2z"/>
<path class="st1" d="M305.2,117.9c0-0.2,0.1-0.4,0.1-0.6c0-0.4-0.3-0.8-0.7-0.8c0,0-0.1,0-0.1,0h-0.4l0.1-0.5
	c0.8-0.1,1.6-0.3,2.4-0.6h0.6l-0.9,5.1c1-0.8,2.2-1.3,3.5-1.4c1,0,2.1,0.4,2.1,1.6c0,0.5-0.1,1-0.2,1.6l-0.4,2.4
	c-0.1,0.4-0.1,0.7-0.1,1.1c0,0.5,0.4,0.9,0.9,0.9c0,0,0,0,0.1,0c0.5,0,0.9-0.2,1.2-0.6l0.4,0.4c-0.6,0.7-1.4,1-2.3,1.1
	c-0.9,0.1-1.6-0.6-1.7-1.4c0-0.1,0-0.1,0-0.2c0-0.4,0.1-0.7,0.1-1.1l0.5-3c0-0.3,0.1-0.6,0.1-0.9l0,0c0-0.6-0.5-1-1.1-1
	c0,0-0.1,0-0.1,0c-1.1,0.2-2.2,0.6-3,1.4l-1.1,6.1h-1.5L305.2,117.9z"/>
<path class="st1" d="M317,127.5c-1.8,0.2-3.4-1.1-3.5-2.9c0-0.2,0-0.3,0-0.5c0-1.3,0.5-2.5,1.4-3.4c0.9-1,2.2-1.6,3.6-1.5
	c1.8-0.1,3.4,1.2,3.5,3c0,0.1,0,0.3,0,0.4C322,125.3,319.8,127.5,317,127.5C317.1,127.5,317,127.5,317,127.5z M317.1,126.7
	c1.1,0,2.1-0.6,2.5-1.6c0.4-0.9,0.6-1.9,0.7-2.9c0-0.6-0.1-1.3-0.5-1.8c-0.4-0.3-0.9-0.5-1.4-0.5c-2.3,0-3.1,2.8-3.1,4.7
	C315.3,125.8,315.7,126.7,317.1,126.7z"/>
<path class="st1" d="M330.6,124.6c-0.1,0.4-0.1,0.7-0.1,1.1c0,0.5,0.4,0.9,0.8,0.9c0,0,0,0,0,0c0.4,0,0.9-0.3,1.1-0.6l0.4,0.3
	c-0.6,0.7-1.4,1.2-2.4,1.2c-0.9,0.1-1.6-0.6-1.7-1.5c0,0,0,0,0-0.1c-1,0.9-2.3,1.5-3.6,1.5c-0.9,0.1-1.7-0.5-1.9-1.4
	c0-0.1,0-0.2,0-0.2c0-0.4,0.1-0.8,0.1-1.1l0.5-3.1c0.1-0.2,0.1-0.4,0.1-0.6c0-0.4-0.3-0.8-0.7-0.8c0,0,0,0,0,0l-0.4-0.1l0.1-0.5
	l2.3-0.4h0.6l-1,5.5c-0.1,0.2-0.1,0.5-0.1,0.8v0.1c0,0.6,0.4,1,1,1c0,0,0.1,0,0.1,0c1.1-0.1,2.2-0.6,3-1.3l1.1-6h1.5L330.6,124.6z"
	/>
<path class="st1" d="M336.1,120.3L336.1,120.3c0.7-0.7,1.7-1.2,2.7-1.2c0.5-0.1,1,0.2,1,0.7c0,0,0,0,0,0.1c0,0.5-0.5,0.9-1,0.9
	c0,0,0,0-0.1,0c-0.6,0-0.9-0.5-1.4-0.5c-1.4,0-1.7,2-1.9,3l-0.7,4.1h-1.5l1-5.8c0-0.2,0.1-0.4,0.1-0.6c0-0.6-0.5-0.8-1.1-0.8
	l0.1-0.5l2.3-0.4h0.7L336.1,120.3z"/>
<path class="st1" d="M341.9,123.2c-0.7-0.3-1.2-0.9-1.2-1.6c0-0.7,0.4-1.4,1.1-1.8c0.7-0.4,1.5-0.6,2.3-0.6c0.9,0,1.9,0.2,2.7,0.6
	c0.4,0.1,0.7,0.5,0.8,0.9c0,0.4-0.3,0.7-0.6,0.7c0,0,0,0-0.1,0c-0.4,0-0.8-0.2-0.9-0.6c-0.2-0.3-0.4-0.5-0.7-0.7
	c-0.3-0.2-0.7-0.3-1.1-0.3c-0.8-0.1-1.6,0.4-1.7,1.2c0,0,0,0,0,0.1c0,0.4,0.2,0.8,0.5,0.9c0.5,0.2,1.1,0.4,1.6,0.6
	c1.1,0.4,2.6,0.7,2.6,2.2c-0.1,0.9-0.6,1.7-1.4,2.1c-0.8,0.5-1.7,0.7-2.6,0.7c-1,0-1.9-0.2-2.8-0.7c-0.5-0.2-0.8-0.6-0.9-1.1
	c0-0.4,0.4-0.7,0.8-0.7c1.4,0,0.9,1.8,3.1,1.8c0.5,0,1-0.1,1.4-0.4c0.4-0.2,0.7-0.7,0.7-1.1c0-0.9-0.8-1.1-1.5-1.3L341.9,123.2z"/>
<path class="st1" d="M349,129c0.7-0.4,1.3-1,1.5-1.8c-0.2,0.2-0.4,0.3-0.7,0.3c-0.4,0-0.7-0.4-0.7-0.8c0,0,0,0,0,0
	c0-0.7,0.6-1.2,1.2-1.2c0.5,0,1,0.5,0.9,1.1c-0.1,1.2-1,2.3-2.2,2.7L349,129z"/>
<path class="st1" d="M361.2,124.5c-0.1,0.4-0.1,0.8-0.1,1.2c0,0.6,0.5,1.1,1.1,1c0.1,0,0.1,0,0.2,0c1-0.1,2-0.5,2.8-1.2l1.1-6.2h1.5
	l-0.8,4.7c-0.1,0.4-0.1,0.9-0.2,1.3v0.1c0,0.7,0.5,1.2,1.2,1.2c0.1,0,0.1,0,0.2,0c0.9,0,1.7-0.5,2.3-1.2c0.7-0.8,1-1.7,1-2.7
	c0-1.9-1.2-1.6-1.2-2.6c0-0.6,0.4-1,1-1c0.4,0,0.8,0.3,1,0.7c0.2,0.4,0.3,0.9,0.3,1.4c0,3-1.8,6.3-5.2,6.3c-0.9,0-2-0.4-2.1-1.4
	c-1,0.8-2.2,1.3-3.5,1.4c-1.1,0-2.2-0.4-2.2-1.7c0-0.2,0-0.5,0.1-0.7l0.6-3.3c0-0.2,0.1-0.4,0.1-0.6c0-0.7-0.5-0.8-1.2-0.9l0.1-0.5
	c0.8,0,1.7-0.2,2.5-0.5h0.6L361.2,124.5z"/>
<path class="st1" d="M375.4,117.9c0-0.2,0.1-0.4,0.1-0.6c0-0.4-0.3-0.8-0.7-0.8c0,0-0.1,0-0.1,0h-0.4l0.1-0.5
	c0.8-0.1,1.6-0.3,2.4-0.6h0.6l-0.9,5.1c1-0.8,2.2-1.3,3.5-1.4c1,0,2.1,0.4,2.1,1.6c0,0.5-0.1,1-0.2,1.6l-0.4,2.5
	c-0.1,0.4-0.1,0.7-0.1,1.1c0,0.5,0.4,0.9,0.9,0.9c0,0,0,0,0.1,0c0.5,0,0.9-0.2,1.2-0.6l0.4,0.4c-0.6,0.7-1.4,1-2.3,1.1
	c-0.9,0.1-1.6-0.6-1.7-1.4c0-0.1,0-0.1,0-0.2c0-0.4,0.1-0.7,0.1-1.1l0.5-3c0-0.3,0.1-0.6,0.1-0.9l0,0c0-0.6-0.5-1-1.1-1
	c0,0-0.1,0-0.1,0c-1.1,0.2-2.2,0.6-3,1.4l-1.1,6.1h-1.5L375.4,117.9z"/>
<path class="st1" d="M391.7,124.9c-0.1,0.2-0.1,0.5-0.1,0.7c0,0.5,0.4,0.9,0.9,0.9c0,0,0,0,0,0c0.5,0,0.9-0.3,1.2-0.6l0.4,0.4
	c-0.6,0.7-1.5,1.2-2.4,1.2c-0.9,0-1.6-0.7-1.6-1.6c0-0.1,0-0.1,0-0.2v-0.2l0,0c-0.7,1.2-2,2-3.3,2c-1.6,0-2.9-1.2-2.9-2.8
	c0-0.1,0-0.2,0-0.3c0-2.6,2-5.2,4.7-5.2c0.9,0,1.8,0.3,2.5,1l0.1-0.8h1.5L391.7,124.9z M388.9,119.9c-2.3,0-3.5,3-3.5,4.9
	c-0.1,0.9,0.5,1.8,1.4,1.9c0.1,0,0.1,0,0.2,0c1.3,0,2.4-1.2,2.9-2.3c0.5-1.2,0.8-2.4,1-3.6C390.4,120.2,389.7,119.9,388.9,119.9
	L388.9,119.9z"/>
<path class="st1" d="M397.4,119.3h2.4l-0.1,0.5h-2.4l-0.8,4.5c-0.1,0.4-0.2,0.9-0.2,1.4c-0.1,0.5,0.3,1,0.8,1.1c0.1,0,0.2,0,0.2,0
	c0.6,0,1.2-0.3,1.6-0.8l0.4,0.4c-0.7,0.7-1.6,1-2.6,1.1c-0.9,0-2-0.3-2-1.4c0-0.5,0.1-1,0.2-1.5l0.9-4.8h-1.4l0.1-0.5
	c2-0.1,2.5-1.2,2.9-3h0.6L397.4,119.3z"/>
<path class="st1" d="M407.4,125.9c-1.2,1-2.6,1.5-4.1,1.6c-1.8,0-3.6-1.1-3.6-3.1c0.1-1.4,0.7-2.8,1.8-3.7c1.1-1,2.5-1.5,3.9-1.5
	c1.1,0,2.8,0.5,2.8,1.8c0,2.3-4.9,2.7-6.7,2.8c-0.1,0.3-0.1,0.5-0.1,0.8c0,1.2,0.9,2.2,2.1,2.2c0.1,0,0.2,0,0.3,0
	c1.1-0.1,2.2-0.5,3.1-1.2L407.4,125.9z M401.7,123.1c1.5,0,4.9-0.3,4.9-2.2c-0.1-0.7-0.7-1.3-1.4-1.2c0,0-0.1,0-0.1,0
	C403.3,119.7,402.1,121.6,401.7,123.1L401.7,123.1z"/>
<path class="st1" d="M411.2,124.9c-0.1,0.2-0.1,0.5-0.1,0.7c0,0.6,0.4,1,0.9,1.1c0.1,0,0.2,0,0.4,0c2-0.1,3.6-1.8,3.6-3.9
	c0-1.9-1.3-1.7-1.3-2.6c0-0.6,0.4-1,1-1.1c0.4,0,0.8,0.3,1,0.7c0.2,0.5,0.3,1,0.3,1.6c0,3-1.9,6.1-5.2,6.1c-1.2,0-2.3-0.3-2.3-1.7
	c0-0.4,0.1-0.8,0.1-1.1l0.5-3c0-0.2,0.1-0.4,0.1-0.6c0-0.4-0.3-0.8-0.7-0.8c0,0,0,0-0.1,0l-0.4-0.1l0.1-0.5c0.8,0,1.6-0.2,2.4-0.4
	h0.5L411.2,124.9z"/>
<path class="st1" d="M425.4,125.9c-1.2,1-2.6,1.5-4.1,1.6c-1.8,0-3.6-1.1-3.6-3.1c0.1-1.4,0.7-2.8,1.8-3.7c1.1-1,2.5-1.5,3.9-1.5
	c1.1,0,2.8,0.5,2.8,1.8c0,2.3-4.9,2.7-6.7,2.8c-0.1,0.3-0.1,0.5-0.1,0.8c0,1.2,0.9,2.2,2.1,2.2c0.1,0,0.2,0,0.3,0
	c1.1-0.1,2.2-0.5,3.1-1.2L425.4,125.9z M419.7,123.1c1.5,0,4.9-0.3,4.9-2.2c-0.1-0.7-0.7-1.3-1.4-1.2c0,0-0.1,0-0.1,0
	C421.4,119.7,420.1,121.6,419.7,123.1L419.7,123.1z"/>
<path class="st1" d="M429.9,120.3L429.9,120.3c0.7-0.7,1.7-1.2,2.7-1.2c0.5-0.1,1,0.2,1,0.7c0,0,0,0,0,0.1c0,0.5-0.5,0.9-1,0.9
	c0,0,0,0-0.1,0c-0.6,0-0.9-0.5-1.4-0.5c-1.4,0-1.7,2-1.9,3l-0.7,4.1h-1.5l1-5.8c0-0.2,0.1-0.4,0.1-0.6c0-0.6-0.5-0.8-1.1-0.8
	l0.1-0.5l2.3-0.4h0.6L429.9,120.3z"/>
<path class="st1" d="M199.8,139.7h2.4l-0.1,0.5h-2.4l-0.8,4.5c-0.1,0.4-0.2,0.9-0.2,1.4c-0.1,0.5,0.3,1,0.8,1.1c0.1,0,0.2,0,0.2,0
	c0.6,0,1.2-0.3,1.6-0.8l0.4,0.4c-0.7,0.7-1.6,1-2.6,1c-0.9,0-2-0.3-2-1.4c0-0.5,0.1-1,0.2-1.5l0.9-4.8h-1.4l0.1-0.5
	c2-0.1,2.5-1.2,2.9-3h0.6L199.8,139.7z"/>
<path class="st1" d="M204.1,138.3c0-0.2,0.1-0.4,0.1-0.6c0-0.4-0.3-0.8-0.7-0.8c0,0-0.1,0-0.1,0H203l0.1-0.5
	c0.8-0.1,1.6-0.3,2.4-0.6h0.6l-0.9,5.1c1-0.8,2.2-1.3,3.5-1.4c1,0,2.1,0.4,2.1,1.5c0,0.5-0.1,1-0.2,1.5l-0.4,2.5
	c-0.1,0.4-0.1,0.7-0.1,1.1c0,0.5,0.4,0.9,0.9,0.9c0,0,0,0,0.1,0c0.5,0,0.9-0.2,1.2-0.6l0.4,0.4c-0.6,0.7-1.4,1-2.3,1.1
	c-0.9,0.1-1.6-0.6-1.7-1.4c0-0.1,0-0.1,0-0.2c0-0.4,0.1-0.7,0.1-1l0.5-3c0-0.3,0.1-0.6,0.1-0.9l0,0c0-0.6-0.5-1-1.1-1
	c0,0-0.1,0-0.1,0c-1.1,0.2-2.2,0.6-3,1.4l-1.1,6.1h-1.5L204.1,138.3z"/>
<path class="st1" d="M216,147.9c-1.8,0.2-3.4-1.1-3.5-2.9c0-0.2,0-0.3,0-0.5c0-1.3,0.5-2.5,1.4-3.4c0.9-1,2.2-1.6,3.6-1.5
	c1.8-0.1,3.4,1.2,3.5,3c0,0.1,0,0.3,0,0.4C220.9,145.7,218.7,147.9,216,147.9C216,147.9,216,147.9,216,147.9z M216,147.1
	c1.1,0,2.1-0.6,2.5-1.6c0.4-0.9,0.6-1.9,0.7-2.9c0-0.6-0.1-1.3-0.5-1.8c-0.4-0.3-0.9-0.5-1.4-0.5c-2.3,0-3.1,2.8-3.1,4.7
	C214.2,146.2,214.7,147.1,216,147.1L216,147.1z"/>
<path class="st1" d="M223.8,143.6c-0.7-0.3-1.2-0.9-1.2-1.6c0-0.7,0.4-1.4,1.1-1.8c0.7-0.4,1.5-0.6,2.3-0.6c0.9,0,1.9,0.2,2.7,0.6
	c0.4,0.1,0.7,0.5,0.8,0.9c0,0.4-0.3,0.7-0.6,0.7c0,0,0,0-0.1,0c-0.4,0-0.8-0.2-0.9-0.6c-0.2-0.3-0.4-0.5-0.7-0.7
	c-0.3-0.2-0.7-0.3-1.1-0.3c-0.8-0.1-1.6,0.4-1.7,1.2c0,0,0,0,0,0.1c0,0.4,0.2,0.8,0.6,0.9c0.5,0.2,1.1,0.4,1.6,0.6
	c1.1,0.4,2.6,0.7,2.6,2.2c-0.1,0.9-0.6,1.7-1.4,2.1c-0.8,0.5-1.7,0.7-2.6,0.7c-1,0-1.9-0.2-2.8-0.7c-0.5-0.2-0.8-0.6-0.9-1.1
	c0-0.4,0.4-0.7,0.8-0.7c1.4,0,0.9,1.8,3.1,1.8c0.5,0,1-0.1,1.4-0.4c0.4-0.2,0.7-0.7,0.7-1.1c0-0.9-0.8-1.1-1.5-1.3L223.8,143.6z"/>
<path class="st1" d="M238.2,146.4c-1.2,1-2.6,1.5-4.1,1.6c-1.8,0-3.6-1.1-3.6-3.1c0.1-1.4,0.7-2.8,1.8-3.7c1.1-1,2.5-1.5,3.9-1.5
	c1.1,0,2.8,0.5,2.8,1.8c0,2.3-4.9,2.7-6.7,2.8c-0.1,0.3-0.1,0.5-0.1,0.8c0,1.2,0.9,2.2,2.1,2.2c0.1,0,0.2,0,0.3,0
	c1.1-0.1,2.2-0.5,3.1-1.2L238.2,146.4z M232.4,143.6c1.4,0,4.9-0.3,4.9-2.2c-0.1-0.7-0.7-1.3-1.4-1.2c0,0-0.1,0-0.1,0
	C234.1,140.1,232.9,142,232.4,143.6z"/>
<path class="st1" d="M246,142c0-0.2,0.1-0.4,0.1-0.6c0-0.4-0.3-0.8-0.7-0.8c0,0,0,0,0,0l-0.4-0.1l0.1-0.5c0.8-0.1,1.6-0.2,2.4-0.4
	h0.6l-0.1,0.9c0.9-0.6,1.9-1,3-1c0.9-0.1,1.7,0.4,2,1.2c0.9-0.7,2-1.1,3.1-1.2c1-0.1,1.9,0.5,2,1.5c0,0,0,0.1,0,0.1
	c0,0.4-0.1,0.7-0.1,1.1l-0.5,3.1c-0.1,0.3-0.1,0.6-0.1,0.9c0,0.4,0.3,0.8,0.8,0.8c0,0,0,0,0,0c0.4,0,0.7-0.2,1-0.5l0.3,0.4
	c-0.6,0.5-1.3,0.9-2.1,0.9c-0.8,0.1-1.5-0.5-1.6-1.3c0-0.1,0-0.2,0-0.2v-0.1c0-0.4,0.1-0.7,0.1-1l0.6-3.2c0-0.2,0.1-0.4,0.1-0.6
	c0-0.6-0.4-1-1-1c-0.1,0-0.1,0-0.2,0c-0.9,0.1-1.7,0.4-2.4,0.9l-1.1,6.5h-1.5l0.9-5.2c0-0.3,0.1-0.9,0.2-1.2l0,0c0-0.6-0.4-1-1-1
	c-0.1,0-0.1,0-0.2,0c-0.9,0.1-1.7,0.4-2.4,0.9l-1.1,6.5H245L246,142z"/>
<path class="st1" d="M267.2,145.4c-0.1,0.2-0.1,0.5-0.1,0.7c0,0.5,0.4,0.9,0.9,0.9c0,0,0,0,0,0c0.5,0,0.9-0.3,1.2-0.6l0.4,0.4
	c-0.6,0.7-1.5,1.2-2.4,1.2c-0.9,0-1.6-0.7-1.6-1.6c0-0.1,0-0.1,0-0.2v-0.2l0,0c-0.7,1.2-2,2-3.3,2c-1.6,0-2.9-1.2-2.9-2.8
	c0-0.1,0-0.2,0-0.3c0-2.6,2-5.2,4.7-5.2c0.9,0,1.8,0.3,2.5,1l0.1-0.8h1.5L267.2,145.4z M264.4,140.4c-2.3,0-3.5,3-3.5,4.9
	c-0.1,0.9,0.5,1.8,1.4,1.9c0.1,0,0.1,0,0.2,0c1.3,0,2.4-1.2,2.9-2.3c0.5-1.2,0.8-2.4,1-3.6C265.9,140.6,265.2,140.3,264.4,140.4
	L264.4,140.4z"/>
<path class="st1" d="M277.3,147.6c-0.1,1.2-0.7,2.2-1.6,2.8c-1,0.7-2.1,1-3.3,1c-0.7,0-1.5-0.1-2.2-0.5c-0.4-0.1-0.6-0.5-0.7-0.8
	c0-0.4,0.4-0.7,0.8-0.7c0,0,0,0,0,0c1.1,0,0.6,1.4,2.3,1.4c0.8,0,1.5-0.3,2-0.9c0.6-0.7,0.9-1.5,1-2.4l0.2-1.4c-1,1-2.3,1.6-3.7,1.7
	c-0.9,0.2-1.8-0.5-2-1.4c0-0.1,0-0.2,0-0.3v-0.6l0.1-0.5l0.5-3.1c0-0.2,0.1-0.4,0.1-0.6c0-0.7-0.5-0.8-1.2-0.8l0.1-0.5l0.5,0
	l1.8-0.3h0.6l-1,5.4c-0.1,0.3-0.1,0.6-0.1,0.9c-0.1,0.5,0.3,1,0.9,1.1c0.1,0,0.1,0,0.2,0c1.2-0.1,2.4-0.6,3.3-1.5l1-5.8h1.5
	L277.3,147.6z"/>
<path class="st1" d="M287.6,141.7L287.6,141.7c0.7-1.3,2-2.2,3.4-2.2c1.6,0,2.9,1.2,2.9,2.8c0,0.1,0,0.2,0,0.3
	c0,1.3-0.4,2.6-1.3,3.6c-0.8,1-2.1,1.7-3.4,1.7c-1,0-1.9-0.4-2.6-1.1l-0.6,1h-1l1.6-9.4c0-0.2,0.1-0.4,0.1-0.6l0,0
	c0-0.5-0.3-0.9-0.8-0.9c-0.1,0-0.2,0-0.2,0h-0.2l0.1-0.5c0.9,0,1.7-0.2,2.5-0.6h0.5L287.6,141.7z M288.7,147.1c2.4,0,3.5-3,3.5-4.9
	c0.1-0.9-0.5-1.7-1.4-1.9c-0.1,0-0.1,0-0.2,0c-1.4,0-2.4,1.3-3,2.4c-0.5,1.1-0.8,2.3-0.9,3.5C287.2,146.8,288,147.1,288.7,147.1
	L288.7,147.1z"/>
<path class="st1" d="M302.3,146.4c-1.2,1-2.6,1.5-4.1,1.6c-1.8,0-3.6-1.1-3.6-3.1c0.1-1.4,0.7-2.8,1.8-3.7c1.1-1,2.5-1.5,3.9-1.5
	c1.1,0,2.8,0.5,2.8,1.8c0,2.3-4.9,2.7-6.7,2.8c-0.1,0.3-0.1,0.5-0.1,0.8c0,1.2,0.9,2.2,2.1,2.2c0.1,0,0.2,0,0.3,0
	c1.1-0.1,2.2-0.5,3.1-1.2L302.3,146.4z M296.6,143.6c1.5,0,4.9-0.3,4.9-2.2c-0.1-0.7-0.7-1.3-1.4-1.2c0,0-0.1,0-0.1,0
	C298.3,140.1,297,142,296.6,143.6z"/>
<path class="st1" d="M304.2,147c0-0.7,0.6-1.3,1.3-1.3c0.5,0,0.9,0.4,0.9,0.9c0,0,0,0.1,0,0.1c0,0.7-0.6,1.3-1.3,1.3
	c-0.5,0-0.9-0.3-0.9-0.8C304.2,147.1,304.2,147.1,304.2,147z"/>
</svg>
