<?xml version="1.0" encoding="utf-8"?>
<!-- Generator: Adobe Illustrator 20.1.0, SVG Export Plug-In . SVG Version: 6.00 Build 0)  -->
<svg version="1.1" id="Layer_1" xmlns="http://www.w3.org/2000/svg" xmlns:xlink="http://www.w3.org/1999/xlink" x="0px" y="0px"
	 viewBox="0 0 460.5 89.1" style="enable-background:new 0 0 460.5 89.1;" xml:space="preserve">
<style type="text/css">
	.st0{fill:#66676B;}
	.st1{fill:#83BC41;}
</style>
<path class="st0" d="M101.6,37.2l-0.9,0.2c-0.9-2.4-3.3-3.8-5.8-3.6c-2.6,0-2.8,0.2-3.2,2.6l-0.6,3.1h1.6c0.6,0.1,1.3-0.1,1.9-0.3
	c0.6-0.4,1.1-1,1.2-1.7l0.2-0.6h0.7l-1.1,6.5h-0.7v-0.6c0-1.8-0.9-2.1-2.5-2.1h-1.5l-0.8,4.6c0,0.2-0.1,0.4-0.1,0.6V46
	c0,0.8,0.6,1.5,1.4,1.5l0,0h0.4l-0.1,0.7h-6.1l0.1-0.7c1.8-0.1,2.1-1,2.4-2.5l1.6-9.1c0.1-0.2,0.1-0.5,0.1-0.7
	c0.1-0.7-0.4-1.4-1.2-1.5h-0.1h-0.3l0.1-0.7h12.4L101.6,37.2z"/>
<path class="st0" d="M105,48.1c-2.8,0-4.7-1.7-4.7-4.5c0-1.7,0.7-3.3,1.9-4.6c1.2-1.3,3-2.1,4.8-2c2.4-0.2,4.5,1.6,4.6,4
	c0,0.2,0,0.4,0,0.5C111.6,45.2,108.7,48.1,105,48.1L105,48.1z M105.2,47.1c1.4,0,2.7-0.9,3.3-2.2c0.5-1.2,0.9-2.5,0.9-3.9
	c0.1-0.8-0.2-1.7-0.7-2.4c-0.5-0.4-1.2-0.7-1.9-0.6c-3,0-4.2,3.8-4.2,6.2C102.6,45.9,103.3,47.1,105.2,47.1L105.2,47.1z"/>
<path class="st0" d="M116.6,38.6L116.6,38.6c0.9-1,2.2-1.6,3.6-1.6c0.7-0.1,1.3,0.3,1.4,1l0,0c0,0.7-0.6,1.2-1.3,1.2h-0.1
	c-0.9,0-1.1-0.6-1.8-0.6c-1.8,0-2.2,2.7-2.5,4L115,48h-2l1.4-7.8c0.1-0.3,0.1-0.5,0.1-0.8c0-0.9-0.7-1-1.5-1l0.1-0.7l3.1-0.5h0.8
	L116.6,38.6z"/>
<path class="st0" d="M130.7,35.4c0.1-0.2,0.1-0.5,0.1-0.8c0-0.6-0.4-1-0.9-1.1c0,0,0,0-0.1,0l-0.5-0.1l0.1-0.7
	c1.1-0.1,2.2-0.4,3.2-0.8h0.8l-1.2,6.8c1.3-1.1,3-1.7,4.7-1.9c1.3,0,2.8,0.5,2.8,2.1c0,0.7-0.1,1.4-0.3,2.1l-0.6,3.3
	c-0.1,0.5-0.2,0.9-0.2,1.4c0,0.6,0.5,1.2,1.2,1.2c0,0,0,0,0.1,0c0.6,0,1.2-0.3,1.6-0.8l0.5,0.5c-0.8,0.9-1.8,1.4-3,1.5
	c-1.1,0.1-2.2-0.7-2.3-1.9c0-0.1,0-0.2,0-0.3c0-0.5,0.1-0.9,0.2-1.4l0.7-4c0.1-0.4,0.1-0.8,0.1-1.2l0,0c0-0.8-0.7-1.4-1.4-1.4
	c-0.1,0-0.1,0-0.2,0c-1.5,0.2-2.9,0.8-4,1.8l-1.4,8.1h-2L130.7,35.4z"/>
<path class="st0" d="M152.4,44.7c-0.1,0.3-0.1,0.6-0.1,0.9c0,0.7,0.5,1.2,1.2,1.2c0,0,0,0,0.1,0c0.6,0,1.2-0.3,1.6-0.8l0.5,0.5
	c-0.8,1-1.9,1.6-3.2,1.6c-1.2,0-2.2-1-2.2-2.1c0-0.1,0-0.2,0-0.2v-0.3l0,0c-0.9,1.6-2.6,2.6-4.4,2.7c-2.5,0-3.8-1.8-3.8-4.2
	c0-3.4,2.7-7,6.3-7c1.2,0,2.4,0.4,3.3,1.3l0.2-1.1h2L152.4,44.7z M148.7,38c-3,0-4.6,4-4.6,6.5c0,1.3,0.6,2.6,2.1,2.6
	c1.7,0,3.1-1.6,3.8-3c0.6-1.6,1.1-3.2,1.3-4.8C150.7,38.5,149.7,38,148.7,38L148.7,38z"/>
<path class="st0" d="M158.5,44.1c-0.1,0.5-0.2,1-0.2,1.5v0.1c0,0.7,0.5,1.2,1.2,1.3h0.1c0.6-0.1,1.2-0.4,1.6-0.9l0.5,0.5
	c-0.8,1-2.1,1.6-3.4,1.6c-1.1,0-2-0.9-2-2c0-0.1,0-0.1,0-0.2c0-0.6,0.1-1.1,0.2-1.7l1.6-8.9c0.1-0.3,0.1-0.5,0.1-0.8
	c0-1-0.7-1-1.6-1.2l0.1-0.7c1.1-0.1,2.1-0.4,3.1-0.8h0.9L158.5,44.1z"/>
<path class="st0" d="M169.5,37.2l-0.1,0.7h-2.3l-1.5,8.6c-0.1,1.6-0.6,3.1-1.5,4.5c-1.1,1.3-2.7,2-4.4,1.9c-1,0-3-0.4-3-1.7
	c0-0.5,0.5-0.8,0.9-0.8c0,0,0,0,0.1,0c1.5,0,1.4,1.7,2.9,1.7c0.6,0,1.2-0.3,1.7-0.8c0.4-0.6,0.6-1.3,0.7-2.1l0.3-1.5l1.7-9.8h-2
	l0.1-0.7h2c0-1.3,0.5-2.6,1.2-3.6c0.9-1.1,2.2-1.7,3.6-1.8c0.8,0,2.6,0.2,2.6,1.3c0,0.5-0.5,0.9-1,0.9l0,0c-1.3,0-0.9-1.4-2.2-1.4
	c-0.5,0-1,0.3-1.3,0.8c-0.3,0.6-0.5,1.3-0.6,2l-0.2,1.8L169.5,37.2L169.5,37.2z"/>
<path class="st0" d="M180.5,37.2h3.1l-0.1,0.7h-3.2l-1.1,6c-0.1,0.6-0.2,1.2-0.2,1.8c-0.1,0.7,0.3,1.3,1,1.5c0.1,0,0.2,0,0.3,0
	c0.8-0.1,1.6-0.4,2.2-1l0.5,0.6c-0.9,0.9-2.1,1.4-3.4,1.4c-1.2,0-2.7-0.4-2.7-1.9c0-0.7,0.1-1.3,0.3-2l1.1-6.4h-1.9l0.1-0.7
	c2.6-0.1,3.3-1.7,3.8-4h0.8L180.5,37.2z"/>
<path class="st0" d="M186.3,35.4c0.1-0.2,0.1-0.5,0.1-0.8c0-0.6-0.4-1-0.9-1.1c0,0,0,0-0.1,0l-0.5-0.1l0.1-0.7
	c1.1-0.1,2.2-0.4,3.2-0.8h0.8l-1.2,6.8c1.3-1.1,3-1.7,4.7-1.9c1.3,0,2.8,0.5,2.8,2.1c0,0.7-0.1,1.4-0.3,2.1l-0.6,3.3
	c-0.1,0.5-0.2,0.9-0.2,1.4c0,0.6,0.5,1.2,1.2,1.2c0,0,0,0,0.1,0c0.6,0,1.2-0.3,1.6-0.8l0.5,0.5c-0.8,0.9-1.8,1.4-3,1.5
	c-1.1,0.1-2.2-0.7-2.3-1.9c0-0.1,0-0.2,0-0.3c0-0.5,0.1-0.9,0.2-1.4l0.7-4c0.1-0.4,0.1-0.8,0.1-1.2l0,0c0-0.8-0.7-1.4-1.4-1.4
	c-0.1,0-0.1,0-0.2,0c-1.5,0.2-2.9,0.8-4,1.8l-1.4,8.1h-2L186.3,35.4z"/>
<path class="st0" d="M207.6,46c-1.5,1.3-3.5,2-5.5,2.1c-2.4,0-4.8-1.5-4.8-4.2c0.1-1.9,0.9-3.7,2.4-5s3.3-2,5.2-2
	c1.5,0,3.7,0.6,3.7,2.5c0,3-6.5,3.6-8.9,3.7c-0.1,0.4-0.2,0.7-0.2,1.1c0,1.9,1.4,2.9,3.2,2.9c1.5-0.1,3-0.7,4.2-1.7L207.6,46z
	 M200,42.3c1.9,0,6.6-0.4,6.6-2.9c-0.1-1-0.9-1.7-1.9-1.6h-0.1C202.2,37.7,200.5,40.3,200,42.3z"/>
<path class="st0" d="M220.2,40L220.2,40c0.8-1.8,2.5-3.1,4.5-3.1c2.4,0,3.6,1.8,3.6,4v0.2c0,1.7-0.6,3.3-1.7,4.7
	c-1.1,1.4-2.7,2.2-4.4,2.3c-1.2,0-2.4-0.5-3.2-1.4l-0.6,3.3c-0.1,0.3-0.1,0.5-0.1,0.8c0,1,0.7,1.1,1.7,1.2l-0.1,0.7H214l0.1-0.7
	c1.9-0.1,2.1-0.9,2.3-2.5l1.6-9.4c0.1-0.2,0.1-0.5,0.1-0.8c0-0.6-0.4-1-0.9-1.1h-0.1l-0.5-0.1l0.1-0.7l3.2-0.4h0.7L220.2,40z
	 M219.2,45.9c0.6,0.8,1.6,1.2,2.6,1.2c3,0,4.4-4,4.4-6.5c0-1.3-0.4-2.5-1.9-2.5s-2.9,1.4-3.5,2.6c-0.7,1.5-1.2,3-1.4,4.6L219.2,45.9
	z"/>
<path class="st0" d="M233.6,38.6L233.6,38.6c0.9-1,2.2-1.6,3.6-1.6c0.7-0.1,1.3,0.3,1.4,1l0,0c0,0.7-0.6,1.2-1.3,1.2h-0.1
	c-0.9,0-1.1-0.6-1.8-0.6c-1.8,0-2.2,2.7-2.5,4L232,48h-2l1.4-7.8c0.1-0.3,0.1-0.5,0.1-0.8c0-0.9-0.7-1-1.5-1l0.1-0.7l3.1-0.5h0.8
	L233.6,38.6z"/>
<path class="st0" d="M241.5,44.9c-0.1,0.2-0.1,0.5-0.1,0.7c-0.1,0.6,0.4,1.2,1,1.2c0.1,0,0.1,0,0.2,0c0.6-0.1,1.1-0.3,1.5-0.8
	l0.5,0.4c-0.8,0.9-1.9,1.5-3.2,1.5c-1.1,0.1-2-0.8-2.1-1.9c0-0.1,0-0.2,0-0.3c0-0.3,0-0.7,0.1-1l0.8-4.6c0.1-0.2,0.1-0.5,0.1-0.8
	c0-0.9-0.7-1.1-1.5-1.2h-0.2l0.1-0.7l0.9-0.1c0.8-0.1,1.6-0.2,2.3-0.5h0.7L241.5,44.9z M242.3,35.9c-0.6,0-1-0.5-1-1.1l0,0
	c0-0.8,0.7-1.5,1.5-1.5c0.6-0.1,1.1,0.4,1.2,0.9v0.1C243.9,35.2,243.2,35.9,242.3,35.9L242.3,35.9z"/>
<path class="st0" d="M254.1,45.9c-1.3,1.4-3.1,2.2-5.1,2.3c-2.3,0.1-4.3-1.6-4.5-4c0-0.1,0-0.3,0-0.4c0.1-3.7,3-6.7,6.8-6.8
	c1.4,0,3.4,0.7,3.4,2.4c0,0.7-0.5,1.3-1.2,1.3c0,0,0,0-0.1,0c-0.4,0.1-0.8-0.2-0.9-0.7v-0.1c0-0.2,0-0.4,0-0.6
	c0-0.7-0.6-1.3-1.4-1.3c-0.1,0-0.2,0-0.2,0c-2.7,0-4.2,3.9-4.2,6c-0.1,1.6,1.1,2.9,2.7,3c0.1,0,0.1,0,0.2,0c1.5-0.1,2.8-0.7,3.9-1.8
	L254.1,45.9z"/>
<path class="st0" d="M265.4,46c-1.5,1.3-3.5,2-5.5,2.1c-2.5,0-4.8-1.5-4.8-4.2c0.1-1.9,0.9-3.7,2.4-5s3.3-2,5.2-2
	c1.5,0,3.7,0.6,3.7,2.5c0,3-6.5,3.6-8.9,3.7c-0.1,0.4-0.2,0.7-0.2,1.1c0,1.9,1.4,2.9,3.2,2.9c1.5-0.1,3-0.7,4.2-1.7L265.4,46z
	 M257.8,42.3c1.9,0,6.6-0.4,6.6-2.9c-0.1-1-0.9-1.7-1.9-1.6h-0.1C260,37.7,258.4,40.3,257.8,42.3z"/>
<path class="st0" d="M284.5,44.7c-0.1,0.3-0.1,0.6-0.1,0.9c0,0.7,0.5,1.2,1.2,1.2c0,0,0,0,0.1,0c0.6,0,1.2-0.3,1.6-0.8l0.5,0.5
	c-0.8,1-1.9,1.6-3.2,1.6c-1.2,0-2.2-0.9-2.2-2.1c0-0.1,0-0.2,0-0.3v-0.3l0,0c-0.9,1.6-2.6,2.6-4.5,2.7c-2.5,0-3.8-1.8-3.8-4.2
	c0-3.4,2.7-7,6.3-7c1.2,0,2.4,0.4,3.3,1.3l0.2-1.1h2L284.5,44.7z M280.8,38c-3,0-4.6,4-4.6,6.5c0,1.3,0.6,2.6,2.1,2.6
	c1.7,0,3.1-1.6,3.8-3c0.6-1.6,1.1-3.2,1.3-4.8C282.8,38.5,281.8,38,280.8,38L280.8,38z"/>
<path class="st0" d="M303.9,45.9c-1.3,1.4-3.1,2.2-5.1,2.3c-2.3,0.2-4.4-1.6-4.5-3.9c0-0.2,0-0.3,0-0.5c0.1-3.7,3-6.7,6.8-6.8
	c1.4,0,3.4,0.7,3.4,2.4c0.1,0.7-0.4,1.3-1.1,1.4l0,0c-0.4,0.1-0.8-0.2-0.9-0.7V40c0-0.2,0-0.4,0-0.6c0-0.7-0.6-1.3-1.4-1.3
	c-0.1,0-0.2,0-0.2,0c-2.7,0-4.2,3.9-4.2,6c-0.1,1.6,1.1,2.9,2.7,3c0.1,0,0.1,0,0.2,0c1.5-0.1,2.8-0.7,3.9-1.8L303.9,45.9z"/>
<path class="st0" d="M308,44.1c-0.1,0.5-0.2,1-0.2,1.5v0.1c0,0.7,0.5,1.2,1.2,1.3h0.1c0.6-0.1,1.2-0.4,1.6-0.9l0.5,0.5
	c-0.8,1-2.1,1.6-3.4,1.6c-1.1,0-2-0.9-2-2c0-0.1,0-0.1,0-0.2c0-0.6,0.1-1.1,0.2-1.7l1.6-8.9c0.1-0.3,0.1-0.5,0.1-0.8
	c0-1-0.7-1-1.6-1.2l0.1-0.7c1.1-0.1,2.1-0.4,3.1-0.8h0.9L308,44.1z"/>
<path class="st0" d="M314.5,44.9c-0.1,0.2-0.1,0.5-0.1,0.7c-0.1,0.6,0.4,1.2,1,1.2c0.1,0,0.1,0,0.2,0c0.6-0.1,1.1-0.3,1.5-0.8
	l0.5,0.4c-0.8,0.9-1.9,1.5-3.2,1.5c-1.1,0.1-2-0.8-2.1-1.9c0-0.1,0-0.2,0-0.3c0-0.3,0-0.7,0.1-1l0.8-4.6c0.1-0.2,0.1-0.5,0.1-0.8
	c0-0.9-0.7-1.1-1.5-1.2h-0.2l0.1-0.7l0.9-0.1c0.8-0.1,1.6-0.2,2.3-0.5h0.7L314.5,44.9z M315.2,35.9c-0.6,0-1-0.5-1-1.1l0,0
	c0-0.8,0.7-1.5,1.5-1.5c0.6-0.1,1.1,0.4,1.2,0.9v0.1C316.9,35.2,316.2,35.9,315.2,35.9L315.2,35.9z"/>
<path class="st0" d="M327.7,46c-1.5,1.3-3.5,2-5.5,2.1c-2.5,0-4.8-1.5-4.8-4.2c0.1-1.9,0.9-3.7,2.4-5s3.3-2,5.2-2
	c1.5,0,3.7,0.6,3.7,2.5c0,3-6.5,3.6-8.9,3.7c-0.1,0.4-0.2,0.7-0.2,1.1c0,1.9,1.4,2.9,3.2,2.9c1.5-0.1,3-0.7,4.2-1.7L327.7,46z
	 M320.1,42.3c1.9,0,6.6-0.4,6.6-2.9c-0.1-1-0.9-1.7-1.9-1.6h-0.1C322.3,37.7,320.6,40.3,320.1,42.3z"/>
<path class="st0" d="M332.1,47.9h-2l1.4-7.7c0.1-0.3,0.1-0.5,0.1-0.8c0-0.9-0.7-1-1.5-1l0.1-0.7l3.1-0.5h0.8l-0.3,1.6
	c1.3-1.1,2.9-1.7,4.6-1.8c1.4,0,2.7,0.6,2.7,2.2c0,0.4-0.1,0.9-0.2,1.3l-0.8,4.4c-0.1,0.3-0.1,0.7-0.1,1c0,0.6,0.5,1.1,1.1,1.2
	c0.6-0.1,1.1-0.3,1.5-0.8l0.5,0.5c-0.8,0.9-1.8,1.4-3,1.4c-1.1,0-2-0.8-2.1-1.9c0,0,0,0,0-0.1l0,0c0-0.7,0.2-1.4,0.3-2.1l0.6-3.5
	c0.1-0.3,0.1-0.7,0.1-1c0-0.8-0.7-1.4-1.5-1.4h-0.1c-1.5,0.2-2.8,0.8-3.9,1.8L332.1,47.9z"/>
<path class="st0" d="M347.8,37.2h3.1l-0.1,0.7h-3.2l-1.1,6c-0.1,0.6-0.2,1.2-0.2,1.8c-0.1,0.7,0.3,1.3,1,1.5c0.1,0,0.2,0,0.3,0
	c0.8-0.1,1.6-0.4,2.2-1l0.5,0.6c-0.9,0.9-2.1,1.4-3.4,1.4c-1.2,0-2.7-0.4-2.7-1.9c0-0.7,0.1-1.3,0.3-2l1.1-6.4h-1.9l0.1-0.7
	c2.6-0.1,3.3-1.7,3.8-4h0.8L347.8,37.2z"/>
<path class="st0" d="M361.8,38.6L361.8,38.6c0.9-1,2.2-1.6,3.6-1.6c0.7-0.1,1.3,0.3,1.4,1l0,0c0,0.7-0.6,1.2-1.3,1.2h-0.1
	c-0.9,0-1.1-0.6-1.8-0.6c-1.8,0-2.2,2.7-2.5,4l-0.9,5.4h-2l1.4-7.8c0.1-0.3,0.1-0.5,0.1-0.8c0-0.9-0.7-1-1.5-1l0.1-0.7l3.1-0.5h0.8
	L361.8,38.6z"/>
<path class="st0" d="M376.7,46c-1.5,1.3-3.5,2-5.5,2.1c-2.5,0-4.8-1.5-4.8-4.2c0.1-1.9,0.9-3.7,2.4-5s3.3-2,5.2-2
	c1.5,0,3.7,0.6,3.7,2.5c0,3-6.5,3.6-8.9,3.7c-0.1,0.4-0.2,0.7-0.2,1.1c0,1.9,1.4,2.9,3.2,2.9c1.5-0.1,3-0.7,4.2-1.7L376.7,46z
	 M369,42.3c1.9,0,6.6-0.4,6.6-2.9c-0.1-1-0.9-1.7-1.9-1.6h-0.1C371.3,37.7,369.6,40.3,369,42.3z"/>
<path class="st0" d="M388,45.9c-1.3,1.4-3.1,2.2-5.1,2.3c-2.3,0.1-4.3-1.6-4.5-4c0-0.1,0-0.3,0-0.4c0.1-3.7,3-6.7,6.8-6.8
	c1.4,0,3.4,0.7,3.4,2.4c0,0.7-0.5,1.3-1.2,1.3h-0.1c-0.4,0.1-0.8-0.2-0.9-0.7v-0.1c0-0.2,0-0.4,0-0.6c0-0.7-0.6-1.3-1.4-1.3
	c-0.1,0-0.2,0-0.2,0c-2.7,0-4.2,3.9-4.2,6c-0.1,1.6,1.1,2.9,2.7,3c0.1,0,0.1,0,0.2,0c1.5-0.1,2.8-0.7,3.9-1.8L388,45.9z"/>
<path class="st0" d="M399.4,46c-1.5,1.3-3.5,2-5.5,2.1c-2.5,0-4.8-1.5-4.8-4.2c0.1-1.9,0.9-3.7,2.4-5s3.3-2,5.2-2
	c1.5,0,3.7,0.6,3.7,2.5c0,3-6.5,3.6-8.9,3.7c-0.1,0.4-0.2,0.7-0.2,1.1c0,1.9,1.4,2.9,3.2,2.9c1.5-0.1,3-0.7,4.2-1.7L399.4,46z
	 M391.7,42.3c1.9,0,6.6-0.4,6.6-2.9c-0.1-1-0.9-1.7-1.9-1.6h-0.1C394,37.7,392.3,40.3,391.7,42.3z"/>
<path class="st0" d="M404.3,44.9c-0.1,0.2-0.1,0.5-0.1,0.7c-0.1,0.6,0.4,1.2,1,1.2c0.1,0,0.1,0,0.2,0c0.6-0.1,1.1-0.3,1.5-0.8
	l0.5,0.4c-0.8,0.9-1.9,1.5-3.2,1.5c-1.1,0.1-2-0.8-2.1-1.9c0-0.1,0-0.2,0-0.3c0-0.3,0-0.7,0.1-1l0.8-4.6c0.1-0.2,0.1-0.5,0.1-0.8
	c0-0.9-0.7-1.1-1.5-1.2l0,0l0.1-0.7l0.9-0.1c0.8-0.1,1.6-0.2,2.3-0.5h0.7L404.3,44.9z M405.1,35.9c-0.6,0-1-0.5-1-1.1l0,0
	c0-0.8,0.7-1.5,1.5-1.5c0.6-0.1,1.1,0.4,1.2,0.9v0.1C406.7,35.2,406,35.9,405.1,35.9L405.1,35.9z"/>
<path class="st0" d="M410.6,44.6c-0.1,0.3-0.1,0.7-0.1,1c0,1.1,0.7,1.4,1.7,1.4c2.7-0.2,4.8-2.4,4.9-5.1c0-2.5-1.8-2.2-1.8-3.5
	c0-0.8,0.6-1.4,1.4-1.4c0.6,0.1,1.1,0.4,1.4,1c0.3,0.7,0.4,1.4,0.4,2.1c0,4-2.5,8.1-6.9,8.1c-1.6,0-3-0.4-3-2.2c0-0.5,0.1-1,0.2-1.5
	l0.7-4c0.1-0.2,0.1-0.5,0.1-0.8c0-0.6-0.4-1-0.9-1.1h-0.1l-0.6-0.1l0.1-0.7c1.1,0,2.2-0.2,3.2-0.5h0.7L410.6,44.6z"/>
<path class="st0" d="M429.6,46c-1.5,1.3-3.5,2-5.5,2.1c-2.5,0-4.8-1.5-4.8-4.2c0.1-1.9,0.9-3.7,2.4-5s3.3-2,5.2-2
	c1.5,0,3.7,0.6,3.7,2.5c0,3-6.5,3.6-8.9,3.7c-0.1,0.4-0.2,0.7-0.2,1.1c0,1.9,1.4,2.9,3.2,2.9c1.5-0.1,3-0.7,4.2-1.7L429.6,46z
	 M422,42.3c1.9,0,6.6-0.4,6.6-2.9c-0.1-1-0.9-1.7-1.9-1.6h-0.1C424.2,37.7,422.5,40.3,422,42.3z"/>
<path class="st0" d="M434.5,42.4c-0.9-0.3-1.6-1.2-1.6-2.2c0.1-1,0.6-1.9,1.5-2.4c0.9-0.6,2-0.9,3.1-0.9c1.3,0,2.5,0.2,3.6,0.8
	c0.5,0.2,0.9,0.6,1,1.2c0,0.5-0.4,0.9-0.9,0.9h-0.1c-0.5,0-1-0.3-1.2-0.8c-0.2-0.4-0.5-0.7-0.9-0.9c-0.5-0.3-1-0.4-1.5-0.4
	c-1.1,0-2.3,0.5-2.3,1.7c0,0.5,0.3,1,0.7,1.2c0.7,0.3,1.4,0.6,2.2,0.8c1.5,0.5,3.5,1,3.5,2.9c-0.1,1.2-0.7,2.3-1.8,2.8
	c-1.1,0.6-2.3,0.9-3.5,0.9c-1.3,0-2.6-0.3-3.7-0.9c-0.6-0.3-1.1-0.8-1.2-1.5c0-0.6,0.4-1,1-1c1.9,0,1.2,2.5,4.1,2.5
	c0.7,0,1.3-0.2,1.9-0.5c0.5-0.3,0.9-0.9,0.9-1.5c0-1.1-1.1-1.5-2-1.8L434.5,42.4z"/>
<path class="st0" d="M444.1,46.9c0-1,0.8-1.8,1.8-1.8c0.7,0,1.2,0.5,1.3,1.2v0.1c0,1-0.8,1.7-1.8,1.7c-0.6,0.1-1.2-0.4-1.2-1
	C444.1,47,444.1,47,444.1,46.9z"/>
<path class="st0" d="M450.7,46.9c0-1,0.8-1.8,1.8-1.8c0.7,0,1.2,0.5,1.3,1.2v0.1c0,1-0.8,1.7-1.8,1.7c-0.6,0.1-1.2-0.4-1.2-1
	C450.7,47,450.7,47,450.7,46.9z"/>
<path class="st0" d="M457.4,46.9c0-1,0.8-1.8,1.8-1.8c0.7,0,1.2,0.5,1.3,1.2v0.1c0,1-0.8,1.7-1.8,1.7c-0.6,0.1-1.2-0.4-1.2-1
	C457.4,47,457.4,47,457.4,46.9z"/>
<path class="st0" d="M54.8,36c-4.2,0-6.1-1.9-6.1-3.5c0-1,0.8-1.9,1.8-1.9h0.1c3,0,1.5,3.2,4.9,3.2c1.5,0,2.7-0.8,2.7-2.3
	c0-0.9-0.4-1.4-2.6-2.1l-1.7-0.5c-2.8-0.9-3.3-2.2-3.3-3.7c0-3,2.8-5.2,6.9-5.4l0.4-2.9h1.6l-0.4,2.9c3,0.3,5.1,1.7,5.1,3.5
	c0,0.9-0.7,1.6-1.6,1.7c-0.1,0-0.2,0-0.2,0c-2.1,0-1.8-3-4-3c-1.6,0-2.7,0.7-2.7,1.9c0,0.9,0.6,1.3,1.9,1.7l2.8,0.8
	c2.7,0.8,3.5,1.9,3.5,3.9c0,3.4-3.8,5.6-7.3,5.8l-0.5,3h-1.7L54.8,36z"/>
<rect class="st0" width="33.5" height="89.1"/>
<rect x="39.5" y="48.2" class="st1" width="33.5" height="40.8"/>
</svg>
