<?xml version="1.0" encoding="utf-8"?>
<!-- Generator: Adobe Illustrator 20.1.0, SVG Export Plug-In . SVG Version: 6.00 Build 0)  -->
<svg version="1.1" id="Layer_1" xmlns="http://www.w3.org/2000/svg" xmlns:xlink="http://www.w3.org/1999/xlink" x="0px" y="0px"
	 viewBox="0 0 460 94" style="enable-background:new 0 0 460 94;" xml:space="preserve">
<style type="text/css">
	.st0{fill:#66676B;}
	.st1{fill:#83BC41;}
</style>
<path class="st0" d="M101.4,39.7l-0.9,0.2c-0.9-2.4-3.3-3.8-5.8-3.6c-2.6,0-2.8,0.2-3.2,2.6L90.9,42h1.6c0.6,0.1,1.3-0.1,1.9-0.3
	c0.6-0.4,1.1-1,1.2-1.7l0.2-0.6h0.7l-1.1,6.5h-0.7v-0.6c0-1.8-0.9-2.1-2.5-2.1h-1.5l-0.8,4.6c0,0.2-0.1,0.4-0.1,0.6v0.1
	c0,0.8,0.6,1.5,1.4,1.5l0,0h0.4l-0.1,0.7h-6.1l0.1-0.7c1.8-0.1,2.1-1,2.4-2.5l1.6-9.1c0.1-0.2,0.1-0.5,0.1-0.7
	c0.1-0.7-0.4-1.4-1.2-1.5h-0.1H88l0.1-0.7h12.4L101.4,39.7z"/>
<path class="st0" d="M104.8,50.5c-2.8,0-4.7-1.7-4.7-4.5c0-1.7,0.7-3.3,1.9-4.6c1.2-1.3,3-2.1,4.8-2c2.4-0.2,4.5,1.6,4.6,4
	c0,0.2,0,0.4,0,0.5C111.4,47.6,108.5,50.5,104.8,50.5L104.8,50.5z M105,49.5c1.4,0,2.7-0.9,3.3-2.2c0.5-1.2,0.9-2.5,0.9-3.9
	c0.1-0.8-0.2-1.7-0.7-2.4c-0.5-0.4-1.2-0.7-1.9-0.6c-3,0-4.2,3.8-4.2,6.2C102.4,48.4,103.1,49.5,105,49.5L105,49.5z"/>
<path class="st0" d="M116.4,41L116.4,41c0.9-1,2.2-1.6,3.6-1.6c0.7-0.1,1.3,0.3,1.4,1l0,0c0,0.7-0.6,1.2-1.3,1.2H120
	c-0.9,0-1.1-0.6-1.8-0.6c-1.8,0-2.2,2.7-2.5,4l-0.9,5.4h-2l1.4-7.8c0.1-0.3,0.1-0.5,0.1-0.8c0-0.9-0.7-1-1.5-1l0.1-0.7l3.1-0.5h0.8
	L116.4,41z"/>
<path class="st0" d="M130.5,37.9c0.1-0.2,0.1-0.5,0.1-0.8c0-0.6-0.4-1-0.9-1.1c0,0,0,0-0.1,0l-0.5-0.1l0.1-0.7
	c1.1-0.1,2.2-0.4,3.2-0.8h0.8l-1.2,6.8c1.3-1.1,3-1.7,4.7-1.9c1.3,0,2.8,0.5,2.8,2.1c0,0.7-0.1,1.4-0.3,2.1l-0.6,3.3
	c-0.1,0.5-0.2,0.9-0.2,1.4c0,0.6,0.5,1.2,1.2,1.2c0,0,0,0,0.1,0c0.6,0,1.2-0.3,1.6-0.8l0.5,0.5c-0.8,0.9-1.8,1.4-3,1.5
	c-1.1,0.1-2.2-0.7-2.3-1.9c0-0.1,0-0.2,0-0.3c0-0.5,0.1-0.9,0.2-1.4l0.7-4c0.1-0.4,0.1-0.8,0.1-1.2l0,0c0-0.8-0.7-1.4-1.4-1.4
	c-0.1,0-0.1,0-0.2,0c-1.5,0.2-2.9,0.8-4,1.8l-1.4,8.1h-2L130.5,37.9z"/>
<path class="st0" d="M152.2,47.1c-0.1,0.3-0.1,0.6-0.1,0.9c0,0.7,0.5,1.2,1.2,1.2c0,0,0,0,0.1,0c0.6,0,1.2-0.3,1.6-0.8l0.5,0.5
	c-0.8,1-1.9,1.6-3.2,1.6c-1.2,0-2.2-1-2.2-2.1c0-0.1,0-0.2,0-0.2v-0.3l0,0c-0.9,1.6-2.6,2.6-4.4,2.7c-2.5,0-3.8-1.8-3.8-4.2
	c0-3.4,2.7-7,6.3-7c1.2,0,2.4,0.4,3.3,1.3l0.2-1.1h2L152.2,47.1z M148.5,40.5c-3,0-4.6,4-4.6,6.5c0,1.3,0.6,2.6,2.1,2.6
	c1.7,0,3.1-1.6,3.8-3c0.6-1.6,1.1-3.2,1.3-4.8C150.5,41,149.5,40.5,148.5,40.5L148.5,40.5z"/>
<path class="st0" d="M158.3,46.5c-0.1,0.5-0.2,1-0.2,1.5v0.1c0,0.7,0.5,1.2,1.2,1.3h0.1c0.6-0.1,1.2-0.4,1.6-0.9l0.5,0.5
	c-0.8,1-2.1,1.6-3.4,1.6c-1.1,0-2-0.9-2-2c0-0.1,0-0.1,0-0.2c0-0.6,0.1-1.1,0.2-1.7l1.6-8.9c0.1-0.3,0.1-0.5,0.1-0.8
	c0-1-0.7-1-1.6-1.2l0.1-0.7c1.1-0.1,2.1-0.4,3.1-0.8h0.9L158.3,46.5z"/>
<path class="st0" d="M169.3,39.7l-0.1,0.7h-2.3l-1.5,8.6c-0.1,1.6-0.6,3.1-1.5,4.5c-1.1,1.3-2.7,2-4.4,1.9c-1,0-3-0.4-3-1.7
	c0-0.5,0.5-0.8,0.9-0.8c0,0,0,0,0.1,0c1.5,0,1.4,1.7,2.9,1.7c0.6,0,1.2-0.3,1.7-0.8c0.4-0.6,0.6-1.3,0.7-2.1l0.3-1.5l1.7-9.8h-2
	l0.1-0.7h2c0-1.3,0.5-2.6,1.2-3.6c0.9-1.1,2.2-1.7,3.6-1.8c0.8,0,2.6,0.2,2.6,1.3c0,0.5-0.5,0.9-1,0.9l0,0c-1.3,0-0.9-1.4-2.2-1.4
	c-0.5,0-1,0.3-1.3,0.8c-0.3,0.6-0.5,1.3-0.6,2l-0.2,1.8L169.3,39.7L169.3,39.7z"/>
<path class="st0" d="M180.3,39.7h3.1l-0.1,0.7h-3.2l-1.1,6c-0.1,0.6-0.2,1.2-0.2,1.8c-0.1,0.7,0.3,1.3,1,1.5c0.1,0,0.2,0,0.3,0
	c0.8-0.1,1.6-0.4,2.2-1l0.5,0.6c-0.9,0.9-2.1,1.4-3.4,1.4c-1.2,0-2.7-0.4-2.7-1.9c0-0.7,0.1-1.3,0.3-2l1.1-6.4h-1.9l0.1-0.7
	c2.6-0.1,3.3-1.7,3.8-4h0.8L180.3,39.7z"/>
<path class="st0" d="M186.1,37.9c0.1-0.2,0.1-0.5,0.1-0.8c0-0.6-0.4-1-0.9-1.1c0,0,0,0-0.1,0l-0.5-0.1l0.1-0.7
	c1.1-0.1,2.2-0.4,3.2-0.8h0.8l-1.2,6.8c1.3-1.1,3-1.7,4.7-1.9c1.3,0,2.8,0.5,2.8,2.1c0,0.7-0.1,1.4-0.3,2.1l-0.6,3.3
	c-0.1,0.5-0.2,0.9-0.2,1.4c0,0.6,0.5,1.2,1.2,1.2c0,0,0,0,0.1,0c0.6,0,1.2-0.3,1.6-0.8l0.5,0.5c-0.8,0.9-1.8,1.4-3,1.5
	c-1.1,0.1-2.2-0.7-2.3-1.9c0-0.1,0-0.2,0-0.3c0-0.5,0.1-0.9,0.2-1.4l0.7-4c0.1-0.4,0.1-0.8,0.1-1.2l0,0c0-0.8-0.7-1.4-1.4-1.4
	c-0.1,0-0.1,0-0.2,0c-1.5,0.2-2.9,0.8-4,1.8l-1.4,8.1h-2L186.1,37.9z"/>
<path class="st0" d="M207.4,48.5c-1.5,1.3-3.5,2-5.5,2.1c-2.4,0-4.8-1.5-4.8-4.2c0.1-1.9,0.9-3.7,2.4-5s3.3-2,5.2-2
	c1.5,0,3.7,0.6,3.7,2.5c0,3-6.5,3.6-8.9,3.7c-0.1,0.4-0.2,0.7-0.2,1.1c0,1.9,1.4,2.9,3.2,2.9c1.5-0.1,3-0.7,4.2-1.7L207.4,48.5z
	 M199.8,44.8c1.9,0,6.6-0.4,6.6-2.9c-0.1-1-0.9-1.7-1.9-1.6h-0.1C202,40.2,200.3,42.8,199.8,44.8z"/>
<path class="st0" d="M220,42.5L220,42.5c0.8-1.8,2.5-3.1,4.5-3.1c2.4,0,3.6,1.8,3.6,4v0.2c0,1.7-0.6,3.3-1.7,4.7
	c-1.1,1.4-2.7,2.2-4.4,2.3c-1.2,0-2.4-0.5-3.2-1.4l-0.6,3.3c-0.1,0.3-0.1,0.5-0.1,0.8c0,1,0.7,1.1,1.7,1.2l-0.1,0.7h-5.9l0.1-0.7
	c1.9-0.1,2.1-0.9,2.3-2.5l1.6-9.4c0.1-0.2,0.1-0.5,0.1-0.8c0-0.6-0.4-1-0.9-1.1h-0.1l-0.5-0.1l0.1-0.7l3.2-0.4h0.7L220,42.5z
	 M219,48.4c0.6,0.8,1.6,1.2,2.6,1.2c3,0,4.4-4,4.4-6.5c0-1.3-0.4-2.5-1.9-2.5s-2.9,1.4-3.5,2.6c-0.7,1.5-1.2,3-1.4,4.6L219,48.4z"/>
<path class="st0" d="M233.4,41L233.4,41c0.9-1,2.2-1.6,3.6-1.6c0.7-0.1,1.3,0.3,1.4,1l0,0c0,0.7-0.6,1.2-1.3,1.2H237
	c-0.9,0-1.1-0.6-1.8-0.6c-1.8,0-2.2,2.7-2.5,4l-0.9,5.4h-2l1.4-7.8c0.1-0.3,0.1-0.5,0.1-0.8c0-0.9-0.7-1-1.5-1l0.1-0.7l3.1-0.5h0.8
	L233.4,41z"/>
<path class="st0" d="M241.3,47.4c-0.1,0.2-0.1,0.5-0.1,0.7c-0.1,0.6,0.4,1.2,1,1.2c0.1,0,0.1,0,0.2,0c0.6-0.1,1.1-0.3,1.5-0.8
	l0.5,0.4c-0.8,0.9-1.9,1.5-3.2,1.5c-1.1,0.1-2-0.8-2.1-1.9c0-0.1,0-0.2,0-0.3c0-0.3,0-0.7,0.1-1l0.8-4.6c0.1-0.2,0.1-0.5,0.1-0.8
	c0-0.9-0.7-1.1-1.5-1.2h-0.2l0.1-0.7l0.9-0.1c0.8-0.1,1.6-0.2,2.3-0.5h0.7L241.3,47.4z M242.1,38.4c-0.6,0-1-0.5-1-1.1l0,0
	c0-0.8,0.7-1.5,1.5-1.5c0.6-0.1,1.1,0.4,1.2,0.9v0.1C243.7,37.7,243,38.4,242.1,38.4L242.1,38.4z"/>
<path class="st0" d="M253.9,48.4c-1.3,1.4-3.1,2.2-5.1,2.3c-2.3,0.1-4.3-1.6-4.5-4c0-0.1,0-0.3,0-0.4c0.1-3.7,3-6.7,6.8-6.8
	c1.4,0,3.4,0.7,3.4,2.4c0,0.7-0.5,1.3-1.2,1.3c0,0,0,0-0.1,0c-0.4,0.1-0.8-0.2-0.9-0.7v-0.1c0-0.2,0-0.4,0-0.6
	c0-0.7-0.6-1.3-1.4-1.3c-0.1,0-0.2,0-0.2,0c-2.7,0-4.2,3.9-4.2,6c-0.1,1.6,1.1,2.9,2.7,3c0.1,0,0.1,0,0.2,0c1.5-0.1,2.8-0.7,3.9-1.8
	L253.9,48.4z"/>
<path class="st0" d="M265.1,48.5c-1.5,1.3-3.5,2-5.5,2.1c-2.5,0-4.8-1.5-4.8-4.2c0.1-1.9,0.9-3.7,2.4-5c1.5-1.3,3.3-2,5.2-2
	c1.5,0,3.7,0.6,3.7,2.5c0,3-6.5,3.6-8.9,3.7c-0.1,0.4-0.2,0.7-0.2,1.1c0,1.9,1.4,2.9,3.2,2.9c1.5-0.1,3-0.7,4.2-1.7L265.1,48.5z
	 M257.6,44.8c1.9,0,6.6-0.4,6.6-2.9c-0.1-1-0.9-1.7-1.9-1.6h-0.1C259.8,40.2,258.1,42.8,257.6,44.8z"/>
<path class="st0" d="M284.2,47.1c-0.1,0.3-0.1,0.6-0.1,0.9c0,0.7,0.5,1.2,1.2,1.2c0,0,0,0,0.1,0c0.6,0,1.2-0.3,1.6-0.8l0.5,0.5
	c-0.8,1-1.9,1.6-3.2,1.6c-1.2,0-2.2-0.9-2.2-2.1c0-0.1,0-0.2,0-0.3v-0.3l0,0c-0.9,1.6-2.6,2.6-4.5,2.7c-2.5,0-3.8-1.8-3.8-4.2
	c0-3.4,2.7-7,6.3-7c1.2,0,2.4,0.4,3.3,1.3l0.2-1.1h2L284.2,47.1z M280.6,40.5c-3,0-4.6,4-4.6,6.5c0,1.3,0.6,2.6,2.1,2.6
	c1.7,0,3.1-1.6,3.8-3c0.6-1.6,1.1-3.2,1.3-4.8C282.6,41,281.6,40.5,280.6,40.5L280.6,40.5z"/>
<path class="st0" d="M303.6,48.4c-1.3,1.4-3.1,2.2-5.1,2.3c-2.3,0.2-4.4-1.6-4.5-3.9c0-0.2,0-0.3,0-0.5c0.1-3.7,3-6.7,6.8-6.8
	c1.4,0,3.4,0.7,3.4,2.4c0.1,0.7-0.4,1.3-1.1,1.4l0,0c-0.4,0.1-0.8-0.2-0.9-0.7v-0.1c0-0.2,0-0.4,0-0.6c0-0.7-0.6-1.3-1.4-1.3
	c-0.1,0-0.2,0-0.2,0c-2.7,0-4.2,3.9-4.2,6c-0.1,1.6,1.1,2.9,2.7,3c0.1,0,0.1,0,0.2,0c1.5-0.1,2.8-0.7,3.9-1.8L303.6,48.4z"/>
<path class="st0" d="M307.8,46.5c-0.1,0.5-0.2,1-0.2,1.5v0.1c0,0.7,0.5,1.2,1.2,1.3h0.1c0.6-0.1,1.2-0.4,1.6-0.9L311,49
	c-0.8,1-2.1,1.6-3.4,1.6c-1.1,0-2-0.9-2-2c0-0.1,0-0.1,0-0.2c0-0.6,0.1-1.1,0.2-1.7l1.6-8.9c0.1-0.3,0.1-0.5,0.1-0.8
	c0-1-0.7-1-1.6-1.2l0.1-0.7c1.1-0.1,2.1-0.4,3.1-0.8h0.9L307.8,46.5z"/>
<path class="st0" d="M314.2,47.4c-0.1,0.2-0.1,0.5-0.1,0.7c-0.1,0.6,0.4,1.2,1,1.2c0.1,0,0.1,0,0.2,0c0.6-0.1,1.1-0.3,1.5-0.8
	l0.5,0.4c-0.8,0.9-1.9,1.5-3.2,1.5c-1.1,0.1-2-0.8-2.1-1.9c0-0.1,0-0.2,0-0.3c0-0.3,0-0.7,0.1-1l0.8-4.6c0.1-0.2,0.1-0.5,0.1-0.8
	c0-0.9-0.7-1.1-1.5-1.2h-0.2l0.1-0.7l0.9-0.1c0.8-0.1,1.6-0.2,2.3-0.5h0.7L314.2,47.4z M315,38.4c-0.6,0-1-0.5-1-1.1l0,0
	c0-0.8,0.7-1.5,1.5-1.5c0.6-0.1,1.1,0.4,1.2,0.9v0.1C316.6,37.7,316,38.4,315,38.4L315,38.4z"/>
<path class="st0" d="M327.5,48.5c-1.5,1.3-3.5,2-5.5,2.1c-2.5,0-4.8-1.5-4.8-4.2c0.1-1.9,0.9-3.7,2.4-5s3.3-2,5.2-2
	c1.5,0,3.7,0.6,3.7,2.5c0,3-6.5,3.6-8.9,3.7c-0.1,0.4-0.2,0.7-0.2,1.1c0,1.9,1.4,2.9,3.2,2.9c1.5-0.1,3-0.7,4.2-1.7L327.5,48.5z
	 M319.9,44.8c1.9,0,6.6-0.4,6.6-2.9c-0.1-1-0.9-1.7-1.9-1.6h-0.1C322.1,40.2,320.4,42.8,319.9,44.8z"/>
<path class="st0" d="M331.9,50.4h-2l1.4-7.7c0.1-0.3,0.1-0.5,0.1-0.8c0-0.9-0.7-1-1.5-1l0.1-0.7l3.1-0.5h0.8l-0.3,1.6
	c1.3-1.1,2.9-1.7,4.6-1.8c1.4,0,2.7,0.6,2.7,2.2c0,0.4-0.1,0.9-0.2,1.3l-0.8,4.4c-0.1,0.3-0.1,0.7-0.1,1c0,0.6,0.5,1.1,1.1,1.2
	c0.6-0.1,1.1-0.3,1.5-0.8l0.5,0.5c-0.8,0.9-1.8,1.4-3,1.4c-1.1,0-2-0.8-2.1-1.9c0,0,0,0,0-0.1l0,0c0-0.7,0.2-1.4,0.3-2.1l0.6-3.5
	c0.1-0.3,0.1-0.7,0.1-1c0-0.8-0.7-1.4-1.5-1.4h-0.1c-1.5,0.2-2.8,0.8-3.9,1.8L331.9,50.4z"/>
<path class="st0" d="M347.6,39.7h3.1l-0.1,0.7h-3.2l-1.1,6c-0.1,0.6-0.2,1.2-0.2,1.8c-0.1,0.7,0.3,1.3,1,1.5c0.1,0,0.2,0,0.3,0
	c0.8-0.1,1.6-0.4,2.2-1l0.5,0.6c-0.9,0.9-2.1,1.4-3.4,1.4c-1.2,0-2.7-0.4-2.7-1.9c0-0.7,0.1-1.3,0.3-2l1.1-6.4h-1.9l0.1-0.7
	c2.6-0.1,3.3-1.7,3.8-4h0.8L347.6,39.7z"/>
<path class="st0" d="M361.6,41L361.6,41c0.9-1,2.2-1.6,3.6-1.6c0.7-0.1,1.3,0.3,1.4,1l0,0c0,0.7-0.6,1.2-1.3,1.2h-0.1
	c-0.9,0-1.1-0.6-1.8-0.6c-1.8,0-2.2,2.7-2.5,4l-0.9,5.4h-2l1.4-7.8c0.1-0.3,0.1-0.5,0.1-0.8c0-0.9-0.7-1-1.5-1l0.1-0.7l3.1-0.5h0.8
	L361.6,41z"/>
<path class="st0" d="M376.5,48.5c-1.5,1.3-3.5,2-5.5,2.1c-2.5,0-4.8-1.5-4.8-4.2c0.1-1.9,0.9-3.7,2.4-5s3.3-2,5.2-2
	c1.5,0,3.7,0.6,3.7,2.5c0,3-6.5,3.6-8.9,3.7c-0.1,0.4-0.2,0.7-0.2,1.1c0,1.9,1.4,2.9,3.2,2.9c1.5-0.1,3-0.7,4.2-1.7L376.5,48.5z
	 M368.8,44.8c1.9,0,6.6-0.4,6.6-2.9c-0.1-1-0.9-1.7-1.9-1.6h-0.1C371.1,40.2,369.4,42.8,368.8,44.8z"/>
<path class="st0" d="M387.8,48.4c-1.3,1.4-3.1,2.2-5.1,2.3c-2.3,0.1-4.3-1.6-4.5-4c0-0.1,0-0.3,0-0.4c0.1-3.7,3-6.7,6.8-6.8
	c1.4,0,3.4,0.7,3.4,2.4c0,0.7-0.5,1.3-1.2,1.3H387c-0.4,0.1-0.8-0.2-0.9-0.7v-0.1c0-0.2,0-0.4,0-0.6c0-0.7-0.6-1.3-1.4-1.3
	c-0.1,0-0.2,0-0.2,0c-2.7,0-4.2,3.9-4.2,6c-0.1,1.6,1.1,2.9,2.7,3c0.1,0,0.1,0,0.2,0c1.5-0.1,2.8-0.7,3.9-1.8L387.8,48.4z"/>
<path class="st0" d="M399.1,48.5c-1.5,1.3-3.5,2-5.5,2.1c-2.5,0-4.8-1.5-4.8-4.2c0.1-1.9,0.9-3.7,2.4-5s3.3-2,5.2-2
	c1.5,0,3.7,0.6,3.7,2.5c0,3-6.5,3.6-8.9,3.7c-0.1,0.4-0.2,0.7-0.2,1.1c0,1.9,1.4,2.9,3.2,2.9c1.5-0.1,3-0.7,4.2-1.7L399.1,48.5z
	 M391.5,44.8c1.9,0,6.6-0.4,6.6-2.9c-0.1-1-0.9-1.7-1.9-1.6h-0.1C393.8,40.2,392.1,42.8,391.5,44.8z"/>
<path class="st0" d="M404.1,47.4c-0.1,0.2-0.1,0.5-0.1,0.7c-0.1,0.6,0.4,1.2,1,1.2c0.1,0,0.1,0,0.2,0c0.6-0.1,1.1-0.3,1.5-0.8
	l0.5,0.4c-0.8,0.9-1.9,1.5-3.2,1.5c-1.1,0.1-2-0.8-2.1-1.9c0-0.1,0-0.2,0-0.3c0-0.3,0-0.7,0.1-1l0.8-4.6c0.1-0.2,0.1-0.5,0.1-0.8
	c0-0.9-0.7-1.1-1.5-1.2l0,0l0.1-0.7l0.9-0.1c0.8-0.1,1.6-0.2,2.3-0.5h0.7L404.1,47.4z M404.9,38.4c-0.6,0-1-0.5-1-1.1l0,0
	c0-0.8,0.7-1.5,1.5-1.5c0.6-0.1,1.1,0.4,1.2,0.9v0.1C406.5,37.7,405.8,38.4,404.9,38.4L404.9,38.4z"/>
<path class="st0" d="M410.4,47c-0.1,0.3-0.1,0.7-0.1,1c0,1.1,0.7,1.4,1.7,1.4c2.7-0.2,4.8-2.4,4.9-5.1c0-2.5-1.8-2.2-1.8-3.5
	c0-0.8,0.6-1.4,1.4-1.4c0.6,0.1,1.1,0.4,1.4,1c0.3,0.7,0.4,1.4,0.4,2.1c0,4-2.5,8.1-6.9,8.1c-1.6,0-3-0.4-3-2.2c0-0.5,0.1-1,0.2-1.5
	l0.7-4c0.1-0.2,0.1-0.5,0.1-0.8c0-0.6-0.4-1-0.9-1.1h-0.1l-0.6-0.1l0.1-0.7c1.1,0,2.2-0.2,3.2-0.5h0.7L410.4,47z"/>
<path class="st0" d="M429.4,48.5c-1.5,1.3-3.5,2-5.5,2.1c-2.5,0-4.8-1.5-4.8-4.2c0.1-1.9,0.9-3.7,2.4-5s3.3-2,5.2-2
	c1.5,0,3.7,0.6,3.7,2.5c0,3-6.5,3.6-8.9,3.7c-0.1,0.4-0.2,0.7-0.2,1.1c0,1.9,1.4,2.9,3.2,2.9c1.5-0.1,3-0.7,4.2-1.7L429.4,48.5z
	 M421.8,44.8c1.9,0,6.6-0.4,6.6-2.9c-0.1-1-0.9-1.7-1.9-1.6h-0.1C424,40.2,422.2,42.8,421.8,44.8z"/>
<path class="st0" d="M434.2,44.9c-0.9-0.3-1.6-1.2-1.6-2.2c0.1-1,0.6-1.9,1.5-2.4c0.9-0.6,2-0.9,3.1-0.9c1.3,0,2.5,0.2,3.6,0.8
	c0.5,0.2,0.9,0.6,1,1.2c0,0.5-0.4,0.9-0.9,0.9h-0.1c-0.5,0-1-0.3-1.2-0.8c-0.2-0.4-0.5-0.7-0.9-0.9c-0.5-0.3-1-0.4-1.5-0.4
	c-1.1,0-2.3,0.5-2.3,1.7c0,0.5,0.3,1,0.7,1.2c0.7,0.3,1.4,0.6,2.2,0.8c1.5,0.5,3.5,1,3.5,2.9c-0.1,1.2-0.7,2.3-1.8,2.8
	c-1.1,0.6-2.3,0.9-3.5,0.9c-1.3,0-2.6-0.3-3.7-0.9c-0.6-0.3-1.1-0.8-1.2-1.5c0-0.6,0.4-1,1-1c1.9,0,1.2,2.5,4.1,2.5
	c0.7,0,1.3-0.2,1.9-0.5c0.5-0.3,0.9-0.9,0.9-1.5c0-1.1-1.1-1.5-2-1.8L434.2,44.9z"/>
<path class="st0" d="M443.9,49.4c0-1,0.8-1.8,1.8-1.8c0.7,0,1.2,0.5,1.3,1.2v0.1c0,1-0.8,1.7-1.8,1.7c-0.6,0.1-1.2-0.4-1.2-1
	C443.9,49.5,443.9,49.5,443.9,49.4z"/>
<path class="st0" d="M450.5,49.4c0-1,0.8-1.8,1.8-1.8c0.7,0,1.2,0.5,1.3,1.2v0.1c0,1-0.8,1.7-1.8,1.7c-0.6,0.1-1.2-0.4-1.2-1
	C450.5,49.5,450.5,49.5,450.5,49.4z"/>
<path class="st0" d="M457.1,49.4c0-1,0.8-1.8,1.8-1.8c0.7,0,1.2,0.5,1.3,1.2v0.1c0,1-0.8,1.7-1.8,1.7c-0.6,0.1-1.2-0.4-1.2-1
	C457.1,49.5,457.1,49.5,457.1,49.4z"/>
<path class="st0" d="M54.6,38.5c-4.2,0-6.1-1.9-6.1-3.5c0-1,0.8-1.9,1.8-1.9h0.1c3,0,1.5,3.2,4.9,3.2c1.5,0,2.7-0.8,2.7-2.3
	c0-0.9-0.4-1.4-2.6-2.1l-1.7-0.5c-2.8-0.9-3.3-2.2-3.3-3.7c0-3,2.8-5.2,6.9-5.4l0.4-2.9h1.6l-0.4,2.9c3,0.3,5.1,1.7,5.1,3.5
	c0,0.9-0.7,1.6-1.6,1.7c-0.1,0-0.2,0-0.2,0c-2.1,0-1.8-3-4-3c-1.6,0-2.7,0.7-2.7,1.9c0,0.9,0.6,1.3,1.9,1.7l2.8,0.8
	c2.7,0.8,3.5,1.9,3.5,3.9c0,3.4-3.8,5.6-7.3,5.8l-0.5,3h-1.7L54.6,38.5z"/>
<rect x="-0.2" y="2.5" class="st0" width="33.5" height="89.1"/>
<rect x="39.3" y="50.6" class="st1" width="33.5" height="40.8"/>
</svg>
