<?xml version="1.0" encoding="utf-8"?>
<!-- Generator: Adobe Illustrator 20.1.0, SVG Export Plug-In . SVG Version: 6.00 Build 0)  -->
<svg version="1.1" id="Layer_1" xmlns="http://www.w3.org/2000/svg" xmlns:xlink="http://www.w3.org/1999/xlink" x="0px" y="0px"
	 viewBox="0 0 385.3 150" style="enable-background:new 0 0 385.3 150;" xml:space="preserve">
<style type="text/css">
	.st0{fill:#89211B;}
	.st1{fill:#AFB0B2;}
</style>
<g>
	<g>
		<g>
			<g>
				<g>
					<path class="st0" d="M25.6,52.4c-1.6,0-2.6,0.2-3.3,0.6c-0.5,0.3-1.1,1.1-5.2,15.6c-0.1,0.4-0.2,0.8,0.2,0.9
						c0.6,0.1,1,0.1,3.7,0.1c7.9,0,10.8-6.5,10.8-11.4C31.8,55.3,30.3,52.4,25.6,52.4 M20.3,71c-2.1,0-2.8,0-3.5,0.1
						c-0.4,0.1-0.6,0.5-0.7,0.9c-4.1,14.3-4.5,17.1-3.8,17.9c0.7,0.9,1.8,1.1,5,1.1c7.3,0,12.3-5.3,12.3-12.1
						C29.6,74.5,26.3,71,20.3,71 M25.5,69.9c-0.2,0-0.4,0.5-0.1,0.5c7.4,0.9,10.3,4.9,10.3,9.3c0,6.1-6.9,12.6-18.4,12.6
						c-1.6,0-4.1-0.2-7.2-0.2c-3.1,0-8,0.1-9.7,0.2c-0.3,0.1-0.5-0.6,0-0.8c1.5-0.4,3.3-0.4,4.2-0.8c0.5-0.2,1.3-1.8,6.3-19.2
						c5-17.5,5.2-19,4.7-19.3c-0.6-0.4-2.3-0.4-3.6-0.8c-0.4-0.1-0.3-0.8,0-0.8c1.6,0.2,6.2,0.3,9.3,0.3c3.1,0,4.1-0.2,5.6-0.2
						c6.8,0,10.7,3.3,10.7,8.1C37.6,63.7,33,68.3,25.5,69.9"/>
					<path class="st0" d="M52.1,68c-2.4,0-5,3.8-7.3,10.7c7.1-0.9,9-5.4,9-8.5C53.8,68.9,53.2,68,52.1,68 M44.4,79.4
						c-0.7,2.1-1.2,4-1.2,6c0,2.6,1.3,4.2,3.4,4.2c2.9,0,6.1-2.3,8-4.4c0.2-0.2,0.5,0.1,0.4,0.3c-2,3.7-6.6,7.3-10.3,7.3
						c-3.4,0-6.6-1.9-6.6-6.9c0-7.2,6.9-19,14.6-19c3,0,5.2,1.7,5.2,4.3C57.9,75.9,51.6,79.4,44.4,79.4"/>
					<path class="st0" d="M72.7,73.2c-2.6,0-2.2-4.9-5.3-4.9c-1.6,0-2.9,1.8-2.9,3.6c0,3.2,6.3,8.7,6.3,13.2c0,3.8-3,7.7-8.8,7.7
						c-4.2,0-6.4-2.8-6.4-4.6c0-1.2,0.8-2.3,2.3-2.3c2.9,0,2.6,5.7,6,5.7c1.8,0,3.1-2,3.1-4.1c0-3.8-6-7.8-6-12.9
						c0-4,3.7-7.7,8.4-7.7c3.3,0,5.5,2.2,5.5,4.1C75,72.1,74,73.2,72.7,73.2"/>
					<path class="st0" d="M92.3,70c-2-0.1-2.2-0.2-5.8-0.2c-2,5.3-4.5,11.8-6,16c-0.9,2.5-0.2,3.3,0.5,3.3c2.1,0,6.6-5.4,7.1-5.4
						c0.2,0,0.3,0.1,0.2,0.3c-1.7,3-6.9,8.8-10.7,8.8c-1.9,0-3.6-1.8-2-6c2.1-5.5,4.3-11.6,6.1-17c-2.3,0.1-2.9,0.1-4.6,0.2
						c-0.5,0.1-0.6-1.7,0.1-1.7c1.7,0.1,2.7,0.2,5,0.2c0.7-2,1.4-3.8,1.7-5.1c0.1-0.3,0.6-0.3,0.9-0.3c1,0,4.2,0.3,4,0.9
						c-0.5,1.2-1.1,2.8-1.8,4.5c3.4,0,3.3-0.1,5.4-0.2C92.9,68.3,92.9,70.1,92.3,70"/>
					<path class="st0" d="M120.4,52.4c-1.8,0-2.3,0.2-3,0.5c-0.5,0.2-2.1,4.9-6.3,19.4c-0.1,0.5-0.2,0.7,0.2,0.8
						c0.7,0.2,1.3,0.3,3.1,0.3c6.5,0,13.1-6,13.1-13.4C127.6,55.4,124.9,52.4,120.4,52.4 M110.5,74.5c-4.3,15.1-4.3,16.2-3.9,16.4
						c0.6,0.5,3.1,0.4,4.4,0.8c0.5,0.1,0.3,0.8,0,0.8c-1.6-0.2-5.4-0.2-8.5-0.2c-3.1,0-5.5,0.1-7.1,0.2c-0.3,0.1-0.5-0.6,0-0.8
						c1.5-0.4,3.3-0.3,4.2-0.8c0.6-0.3,1.3-1.8,6.3-19.2c5-17.5,5.2-19,4.7-19.3c-0.6-0.4-2.2-0.4-3.5-0.8c-0.5-0.1-0.3-0.8,0-0.8
						c1.6,0.2,5.6,0.3,8.7,0.3c2.7,0,4.4-0.2,5.9-0.2c7.5,0,12.1,3.8,12.1,9.4C133.7,68.7,123.2,76.4,110.5,74.5"/>
					<path class="st0" d="M134.7,85.2c-1.2,3.3-0.6,3.8,0.4,3.8c1.3,0,5.5-3.8,6.7-5.3c0.1-0.1,0.4,0.1,0.3,0.2
						c-0.8,2.1-6.7,8.9-10.7,8.9c-2.9,0-3.2-3.3-1.9-6.6c3.5-9.3,8.2-22,11.9-32.7c0.9-2.7-0.2-3.9-4.4-3.9c-0.5,0-0.4-0.6-0.1-0.7
						c3.1-0.4,10.2-0.7,10.7-0.7c0.5,0,0.6,0.3,0.3,1C142.8,62.8,137.3,77.6,134.7,85.2"/>
					<path class="st0" d="M159.3,68.7c-4.9,0-12.2,12.8-12.2,18c0,1.9,0.8,2.8,1.9,2.8c1.2,0,2.7-1,4.3-2.9c4-4.7,7.7-14,7.9-15.9
						C161.2,69.5,160.6,68.7,159.3,68.7 M160.5,85.2c-1.1,3.1-0.8,3.9,0.2,3.9c1.6,0,4.6-4.2,5.2-4.2c0.2,0,0.2,0.2,0.2,0.3
						c-2,3.7-6.4,7.6-9,7.6c-1,0-1.7-0.5-1.7-1.7c0-1.1,0.3-2.5,0.9-4.4l1.2-3.7c0.1-0.1-0.5-0.4-0.6-0.2c-3.6,6.2-7.2,10-10.4,10
						c-2.1,0-4.5-1.5-4.5-4.9c0-8.6,10.4-20.3,17.1-20.3c1.1,0,2.5,0.4,3,0.8c0.3,0.2,0.4,0.3,0.6,0.1c0.7-0.9,1.6-2.1,2-2.7
						c0.5-0.6,3.2,0.2,3.1,0.5L160.5,85.2z"/>
					<path class="st0" d="M185,73c-2.9,0-2.3-4.2-5-4.2c-3.7,0-7.4,8.1-7.4,15.7c0,3.5,1.6,5.2,4,5.2c2.6,0,4.8-1.8,7-4.8
						c0.1-0.2,0.5-0.1,0.4,0.2c-2.1,4.9-6.4,7.7-9.6,7.7c-3.6,0-6.9-2.1-6.9-7.6c0-7.4,7.2-18.3,15.4-18.3c3.6,0,4.7,2.2,4.7,3.4
						C187.6,72.2,186.5,73,185,73"/>
					<path class="st0" d="M200.2,68c-2.4,0-5,3.8-7.4,10.7c7.1-0.9,9.1-5.4,9.1-8.5C201.9,68.9,201.3,68,200.2,68 M192.5,79.4
						c-0.7,2.1-1.2,4-1.2,6c0,2.6,1.3,4.2,3.4,4.2c2.9,0,6.1-2.3,8-4.4c0.2-0.2,0.5,0.1,0.3,0.3c-2,3.7-6.6,7.3-10.3,7.3
						c-3.4,0-6.5-1.9-6.5-6.9c0-7.2,6.9-19,14.6-19c3,0,5.2,1.7,5.2,4.3C206,75.9,199.7,79.4,192.5,79.4"/>
					<path class="st0" d="M220.8,73.2c-2.6,0-2.2-4.9-5.3-4.9c-1.6,0-2.9,1.8-2.9,3.6c0,3.2,6.3,8.7,6.3,13.2c0,3.8-3,7.7-8.8,7.7
						c-4.2,0-6.4-2.8-6.4-4.6c0-1.2,0.9-2.3,2.3-2.3c2.9,0,2.5,5.7,6,5.7c1.8,0,3.1-2,3.1-4.1c0-3.8-6-7.8-6-12.9
						c0-4,3.7-7.7,8.4-7.7c3.3,0,5.5,2.2,5.5,4.1C223.1,72.1,222.1,73.2,220.8,73.2"/>
					<path class="st0" d="M250.4,70c-2.1-0.1-2.2-0.2-5.8-0.2c-2,5.3-4.5,11.8-6,16c-0.9,2.6-0.2,3.4,0.5,3.4c2.1,0,6.5-5.4,7.1-5.4
						c0.2,0,0.3,0.1,0.2,0.3c-1.8,3-6.9,8.8-10.7,8.8c-1.9,0-3.7-1.9-2-6c2.2-5.5,4.3-11.6,6.2-17c-2.3,0.1-2.9,0.1-4.6,0.2
						c-0.5,0.1-0.6-1.7,0.1-1.7c1.7,0.1,2.7,0.2,5,0.2c0.7-2,1.3-3.8,1.7-5.1c0.1-0.3,0.7-0.3,0.9-0.3c1,0,4.2,0.3,4,0.9
						c-0.5,1.2-1.1,2.8-1.8,4.5c3.4,0,3.4-0.1,5.4-0.2C251,68.3,251.1,70.1,250.4,70"/>
					<path class="st0" d="M261.1,68.1c-4.2,0-9.4,13.6-9.4,19.9c0,2.5,0.9,3.8,2.7,3.8c4.2,0,9.4-13.5,9.4-19.8
						C263.8,69.4,262.9,68.1,261.1,68.1 M254.2,92.9c-3.8,0-6.9-2.4-6.9-8.2c0-7.1,5.9-17.8,14-17.8c3.8,0,6.8,2.4,6.8,8.2
						C268.2,82.4,262.3,92.9,254.2,92.9"/>
					<g>
						<path class="st0" d="M307.8,52.3c-1.7,0-2.2,0.1-2.9,0.6c-1.1,0.7-1.4,1.7-1.5,7.4c-0.1,2-0.1,3.7-0.1,5.9
							c5.8-7.5,8-11,8-12.3C311.1,52.8,310.2,52.3,307.8,52.3 M329.4,54.2c-2.5,2.4-14,16.9-30.4,39c-0.3,0.4-1.5,0.1-1.5-0.2
							c0.2-9.8,0.3-14.8,0.3-20c-4.2,5.5-9.4,12.2-15.3,20.2c-0.3,0.4-1.6,0.1-1.6-0.2c0.6-34.6,0.3-39.5-0.9-40.3
							c-0.6-0.4-2.3-0.6-3.7-0.9c-0.4-0.1-0.3-0.8,0-0.8c1.6,0.2,3.7,0.3,6.8,0.3c3.1,0,6.7-0.1,8.4-0.3c0.4,0,0.5,0.6,0,0.8
							c-1.5,0.3-2.2,0.2-3.1,0.6c-0.9,0.5-1.5,1.1-1.7,7.9c-0.3,8.3-0.5,17.1-0.5,25.2c0,0.2,0.3,0.1,0.4,0
							c3.8-4.9,7.5-9.7,11.2-14.5c0.1-15.1-0.3-17.6-1.2-18.2c-0.5-0.3-1.3-0.7-2.7-0.9c-0.5-0.1-0.3-0.8,0-0.8
							c1.6,0.2,5.7,0.3,13.4,0.3c5.9,0,11.3-0.1,13-0.3c0.3,0,0.5,0.7,0,0.8c-3.1,0.4-4.7,1.2-6,2.5c-1.3,1.2-4.2,4.8-11.2,14
							c-0.2,6.1-0.2,10.4-0.4,17.2c0,0.2,0.3,0.1,0.4,0C314.1,71,326.4,55,326.4,53.4c0-0.7-0.6-1.2-3.8-1.6c-0.5-0.1-0.3-0.8,0-0.8
							c1.5,0.2,3.3,0.3,6.4,0.3c3.1,0,4.3-0.1,6-0.3c0.4,0,0.5,0.7,0,0.8C332,52.1,330.7,53,329.4,54.2"/>
						<path class="st0" d="M330.9,68.1c-4.2,0-9.4,13.6-9.4,19.9c0,2.5,0.9,3.8,2.7,3.8c4.2,0,9.4-13.5,9.4-19.8
							C333.6,69.4,332.7,68.1,330.9,68.1 M324,92.9c-3.8,0-6.9-2.4-6.9-8.2c0-7.1,5.9-17.8,14-17.8c3.8,0,6.8,2.4,6.8,8.2
							C338,82.4,332.1,92.9,324,92.9"/>
						<path class="st0" d="M358.2,74c-2.7,0-1.4-3.3-3-3.3c-1.7,0-4.1,3.1-12,21.3c-0.2,0.4-1.6,0.5-2.5,0.5c-1,0-2.3-0.1-2.1-0.5
							c3.6-9.7,6.1-17.4,6.1-19.5c0-1.2-0.3-1.7-0.9-1.7c-1.8,0-4.2,4.8-4.8,5c-0.2,0.1-0.5,0.1-0.4-0.2c1.9-4.6,5.7-8.7,8.4-8.7
							c1.7,0,2.3,1.6,2.3,3.4c0,2.3-1.1,5.9-3.3,12.2c-0.1,0.2,0.6,0.3,0.6,0.2c4.5-11,7.8-16,11.5-16c2,0,3.1,1.4,3.1,3.2
							C361.2,72.1,359.8,74,358.2,74"/>
						<path class="st0" d="M378.8,70.3c-3.2,0-11.3,5.8-14.8,10.8c5.8-1.1,16.3-6.7,16.3-9.3C380.4,71,379.9,70.3,378.8,70.3
							 M382.9,95.3c1.4,0,2.4,1.3,2.4,2.9c0,1.9-1.3,3.8-4,3.8c-6.1,0-9.6-4.7-12.8-12.6c-1.8-4.4-2.6-5.6-4.2-6.4
							c-0.4-0.2-0.8-0.2-0.9,0.1c-1.1,2.4-2.5,6.6-3.4,9c-0.2,0.4-1.2,0.5-2.4,0.5c-1.2,0-2.5-0.2-2.3-0.5
							c5.5-14.4,10.3-27.6,14.1-38.4c0.9-2.6-0.2-3.9-4.4-3.9c-0.5,0-0.4-0.6-0.1-0.6c3.1-0.4,10.3-0.7,10.8-0.7
							c0.5,0,0.6,0.3,0.3,1c-5.3,13.5-8.7,22.1-10.6,27.3c0,0.2,0.5,0.3,0.5,0.2c3.9-6.4,7.9-9.2,11.4-9.2c2.9,0,4.6,2.4,4.6,5.2
							c0,5-7.3,9.5-18,8.9c4.7,1.3,7.8,3.9,9.5,8.2c3,7.2,5.5,10.8,9.2,10.8c-1.1-0.8-1.8-1.7-1.9-3.1
							C380.8,96.6,381.4,95.3,382.9,95.3"/>
					</g>
				</g>
				<g>
					<polygon class="st0" points="122,30.6 122,19 117.3,19 117.3,30.6 112.9,30.6 112.9,2.9 117.3,2.9 117.3,14.9 122,14.9 
						122,2.9 126.4,2.9 126.4,30.6 122,30.6 					"/>
					<path class="st0" d="M134.9,21.2c-2.1,0.7-3.1,1.9-3.1,3.5v1.6c0,1,0.5,1.8,1.4,1.8c1,0,1.8-0.9,1.8-2V21.2L134.9,21.2z
						 M138.4,31c-1.3,0-2.3-0.7-2.7-2.2c-0.8,1.4-2,2.2-3.6,2.2c-2.3,0-3.9-1.8-3.9-4.9v-1c0-3.7,2.8-5.4,6.7-6.8v-3.1
						c0-1-0.4-1.6-1.4-1.6c-1,0-1.3,0.6-1.3,1.7v1.8h-3.4v-1.6c0-2.9,1.6-5.1,4.9-5.1c3.2,0,4.8,2.2,4.8,5.4v11.4c0,0.6,0.2,1,0.8,1
						V31H138.4L138.4,31z"/>
					<polygon class="st0" points="153.2,30.6 150,30.6 148.8,22.7 148.2,18.6 147.7,22.7 146.4,30.6 143.3,30.6 139.8,10.7 
						143.5,10.7 144.6,20.4 145.1,24.7 145.5,20.4 146.9,10.7 149.9,10.7 151.1,20.4 151.6,24.7 152.1,20.4 153.3,10.7 156.7,10.7 
						153.2,30.6 					"/>
					<path class="st0" d="M163.9,21.2c-2.1,0.7-3.1,1.9-3.1,3.5v1.6c0,1,0.5,1.8,1.4,1.8c1,0,1.8-0.9,1.8-2V21.2L163.9,21.2z
						 M167.5,31c-1.3,0-2.3-0.7-2.7-2.2c-0.7,1.4-2,2.2-3.6,2.2c-2.3,0-3.9-1.8-3.9-4.9v-1c0-3.7,2.8-5.4,6.7-6.8v-3.1
						c0-1-0.4-1.6-1.4-1.6c-1,0-1.3,0.6-1.3,1.7v1.8h-3.4v-1.6c0-2.9,1.6-5.1,4.9-5.1c3.2,0,4.8,2.2,4.8,5.4v11.4c0,0.6,0.2,1,0.8,1
						V31H167.5L167.5,31z"/>
					<path class="st0" d="M170.1,8.1V4.2h3.5v3.9H170.1L170.1,8.1z M170,30.6v-20h3.7v20H170L170,30.6z"/>
					<path class="st0" d="M176.2,8.1V4.2h3.5v3.9H176.2L176.2,8.1z M176.1,30.6v-20h3.7v20H176.1L176.1,30.6z"/>
					<path class="st1" d="M190.7,20.3c0-1.2-0.6-2-1.7-2h-2.1v8.5h2.3c1,0,1.5-0.6,1.5-1.8V20.3L190.7,20.3z M190.6,8.5
						c0-1.2-0.5-1.8-1.5-1.8h-2.3v8.2h2.1c1.1,0,1.7-0.6,1.7-1.9V8.5L190.6,8.5z M189.6,30.6h-7.3V2.9h7.2c3.1,0,5.3,1.6,5.3,5.4v4
						c0,2.1-0.8,3.6-2.7,4.2c2,0.7,2.8,2.1,2.8,4.2v4.6C194.9,29.1,192.6,30.6,189.6,30.6L189.6,30.6z"/>
					<path class="st1" d="M204.4,30.6l-0.2-2.4c-0.7,1.8-2,2.8-3.5,2.8c-2.3,0-3.6-1.8-3.6-4.4v-16h3.7V26c0,1,0.6,1.8,1.5,1.8
						c1,0,1.7-1.3,1.7-2.2V10.7h3.7v20H204.4L204.4,30.6z"/>
					<path class="st1" d="M214.6,31c-3.3,0-5.1-2.1-5.1-5.4v-1.2h3.2v1.5c0,1.4,0.6,2,1.7,2c1.1,0,1.7-0.6,1.7-1.8
						c0-1.8-0.9-2.5-3.1-4.5c-1.9-1.5-3.5-3.3-3.5-6c0-3.3,2.1-5.2,4.9-5.2c3.2,0,4.9,2.2,4.9,5.2v1.2h-3.1v-1.5
						c0-1-0.6-1.7-1.7-1.7c-1,0-1.5,0.6-1.5,1.6c0,1.5,0.8,2.4,2.6,4c2.1,1.6,3.9,3.4,3.9,6.5C219.6,28.6,217.9,31,214.6,31
						L214.6,31z"/>
					<path class="st1" d="M221.3,8.1V4.2h3.5v3.9H221.3L221.3,8.1z M221.3,30.6v-20h3.7v20H221.3L221.3,30.6z"/>
					<path class="st1" d="M234.2,30.6V15.4c0-1-0.6-1.8-1.4-1.8c-1,0-1.7,1.3-1.7,2.2v14.8h-3.7v-20h3.3l0.2,2.6
						c0.7-2,2-2.9,3.5-2.9c2.2,0,3.5,1.7,3.5,4.4v15.9H234.2L234.2,30.6z"/>
					<path class="st1" d="M246.8,15.5c0-1.1-0.5-1.9-1.5-1.9c-1,0-1.6,0.8-1.6,1.9V19h3.1V15.5L246.8,15.5z M245.2,31
						c-3,0-5.2-2.2-5.2-5.7V16c0-3.4,2.2-5.7,5.2-5.7c3,0,5,2.3,5,5.7v5.1h-6.5v4.8c0,1.1,0.6,1.8,1.6,1.8c1.1,0,1.6-0.8,1.6-1.8
						v-2.5h3.3v1.9C250.2,28.7,248.3,31,245.2,31L245.2,31z"/>
					<path class="st1" d="M256.8,31c-3.3,0-5.1-2.1-5.1-5.4v-1.2h3.2v1.5c0,1.4,0.6,2,1.8,2c1.1,0,1.8-0.6,1.8-1.8
						c0-1.8-0.9-2.5-3.1-4.5c-2-1.5-3.5-3.3-3.5-6c0-3.3,2.1-5.2,4.9-5.2c3.2,0,4.9,2.2,4.9,5.2v1.2h-3.1v-1.5c0-1-0.6-1.7-1.7-1.7
						c-1,0-1.5,0.6-1.5,1.6c0,1.5,0.8,2.4,2.6,4c2.1,1.6,3.9,3.4,3.9,6.5C261.8,28.6,260.1,31,256.8,31L256.8,31z"/>
					<path class="st1" d="M267.9,31c-3.3,0-5.1-2.1-5.1-5.4v-1.2h3.2v1.5c0,1.4,0.6,2,1.7,2c1.1,0,1.8-0.6,1.8-1.8
						c0-1.8-0.9-2.5-3.1-4.5c-2-1.5-3.5-3.3-3.5-6c0-3.3,2.1-5.2,4.9-5.2c3.2,0,4.9,2.2,4.9,5.2v1.2h-3.1v-1.5c0-1-0.6-1.7-1.7-1.7
						c-1,0-1.6,0.6-1.6,1.6c0,1.5,0.8,2.4,2.6,4c2.1,1.6,3.9,3.4,3.9,6.5C272.9,28.6,271.2,31,267.9,31L267.9,31z"/>
				</g>
			</g>
		</g>
	</g>
	<g>
		<path class="st1" d="M130.5,136.5l-1,4h-14.9v-4.4c0.5-0.2,1.7-0.8,3.7-1.9c2.4-1.3,4-2.5,4.9-3.5c0.8-0.8,1.3-1.7,1.3-2.6
			c0-1.6-1-2.4-2.9-2.4c-1.4,0-3,0.8-4.9,2.3l-2.9-3c2.6-2.4,5.6-3.5,9-3.5c2.1,0,3.8,0.5,5.1,1.6c1.3,1.1,1.9,2.5,1.9,4.2
			c0,2.2-1.1,4.1-3.4,5.8c-0.5,0.4-1.3,0.9-2.4,1.5c-0.8,0.5-1.7,1-2.5,1.4l-0.9,0.5c0.9-0.1,2-0.2,3.5-0.2H130.5z"/>
		<path class="st1" d="M141.8,121.9c2.6,0,4.7,0.9,6.2,2.6c1.5,1.7,2.3,4,2.3,6.9c0,2.9-0.8,5.2-2.4,6.9c-1.6,1.8-3.6,2.6-6.1,2.6
			c-2.6,0-4.7-0.9-6.2-2.6c-1.5-1.7-2.3-4-2.3-6.9c0-2.9,0.8-5.2,2.4-6.9C137.3,122.7,139.3,121.9,141.8,121.9z M145,131.5
			c0-2.3-0.3-4-0.9-4.9c-0.5-0.8-1.3-1.2-2.3-1.2c-2.2,0-3.3,2-3.3,6c0,2.3,0.3,4,0.9,4.9c0.5,0.8,1.3,1.2,2.3,1.2
			C144,137.4,145,135.5,145,131.5z"/>
		<path class="st1" d="M158.9,121.9h3.2v14.8h2.9v3.9h-11.3v-3.9h3.9v-9.2c-1.5,0.9-2.9,1.6-4.3,2.1l-1.2-2.6L158.9,121.9z"/>
		<path class="st1" d="M173.8,121.9h3.2v14.8h2.9v3.9h-11.3v-3.9h3.9v-9.2c-1.5,0.9-2.9,1.6-4.3,2.1l-1.2-2.6L173.8,121.9z"/>
		<path class="st1" d="M191,128.7h8.6v4.1H191V128.7z"/>
		<path class="st1" d="M219.2,136.5l-1,4h-14.9v-4.4c0.5-0.2,1.7-0.8,3.7-1.9c2.4-1.3,4-2.5,4.9-3.5c0.8-0.8,1.3-1.7,1.3-2.6
			c0-1.6-1-2.4-2.9-2.4c-1.4,0-3,0.8-4.9,2.3l-2.9-3c2.6-2.4,5.6-3.5,9-3.5c2.1,0,3.8,0.5,5.1,1.6c1.3,1.1,1.9,2.5,1.9,4.2
			c0,2.2-1.1,4.1-3.4,5.8c-0.5,0.4-1.3,0.9-2.4,1.5c-0.8,0.5-1.7,1-2.5,1.4l-0.9,0.5c0.9-0.1,2-0.2,3.5-0.2H219.2z"/>
		<path class="st1" d="M230.5,121.9c2.6,0,4.7,0.9,6.2,2.6c1.5,1.7,2.3,4,2.3,6.9c0,2.9-0.8,5.2-2.4,6.9c-1.6,1.8-3.6,2.6-6.1,2.6
			c-2.6,0-4.7-0.9-6.2-2.6s-2.3-4-2.3-6.9c0-2.9,0.8-5.2,2.4-6.9C226,122.7,228,121.9,230.5,121.9z M233.8,131.5
			c0-2.3-0.3-4-0.9-4.9c-0.5-0.8-1.3-1.2-2.3-1.2c-2.2,0-3.3,2-3.3,6c0,2.3,0.3,4,0.9,4.9c0.5,0.8,1.3,1.2,2.3,1.2
			C232.7,137.4,233.8,135.5,233.8,131.5z"/>
		<path class="st1" d="M247.6,121.9h3.2v14.8h2.9v3.9h-11.3v-3.9h3.9v-9.2c-1.5,0.9-2.9,1.6-4.3,2.1l-1.2-2.6L247.6,121.9z"/>
		<path class="st1" d="M258.1,122.2h12.2l-0.7,4.1h-7l-0.5,5c0.6-0.1,1.2-0.2,1.7-0.2c2.2,0,4,0.6,5.4,1.9c1.4,1.3,2.1,3,2.1,5
			c0,2.6-1.1,4.8-3.2,6.5s-4.8,2.6-8.1,2.6c-0.9,0-1.8-0.1-2.7-0.3l-1-3.5c1.3,0.3,2.4,0.5,3.4,0.5c1.9,0,3.5-0.5,4.7-1.5
			c1.2-1,1.8-2.2,1.8-3.7c0-1.1-0.4-2.1-1.1-2.8s-1.7-1-2.8-1c-1.3,0-3.1,0.3-5.2,1L258.1,122.2z"/>
	</g>
</g>
</svg>
