<?xml version="1.0" encoding="utf-8"?>
<!-- Generator: Adobe Illustrator 20.1.0, SVG Export Plug-In . SVG Version: 6.00 Build 0)  -->
<svg version="1.1" id="Layer_1" xmlns="http://www.w3.org/2000/svg" xmlns:xlink="http://www.w3.org/1999/xlink" x="0px" y="0px"
	 viewBox="0 0 291.6 150" style="enable-background:new 0 0 291.6 150;" xml:space="preserve">
<style type="text/css">
	.st0{fill:#89211B;}
	.st1{fill:#AFB0B2;}
</style>
<g>
	<g>
		<g>
			<path class="st0" d="M193.2,97.7h-41.9l-0.7-13.3c21.2-11.6,25.8-17.5,25.8-24.8c0-5.7-2.9-8.5-7.4-8.5c-1.5,0-3.1,0.2-3.9,0.4
				l-1,5.7c-1.9,0.2-4.3,0.3-6.2,0.3c-1.8,0-4.6-0.1-6.4-0.3V41.8c5.2-2,11.8-3.2,17.5-3.2c13.7,0,23.1,6.3,23.1,19.4
				c0,8.8-4.7,16.6-19.4,25.5v0.7h21.4C194.2,88.1,194,93.4,193.2,97.7L193.2,97.7z"/>
			<path class="st0" d="M216.8,112.4c-6.3,0-12.5-1.1-17.6-3.1V93.8c1.8-0.2,4.7-0.3,6.5-0.3c1.9,0,4.3,0.1,6.1,0.3l1,5.6
				c1.5,0.3,2.8,0.5,4.4,0.5c6.2,0,9.5-3.3,9.5-9.8c0-7.1-4.9-10-16.6-10h-9.8c0.4-13.6,1.8-29,3.3-40.5h37.3c0,4-0.4,9.3-1.1,13.4
				h-23.9l-1.3,14.6h1.1c13.9,0,26.6,5.4,26.6,21.8C242.1,103.5,231.5,112.4,216.8,112.4L216.8,112.4z"/>
			<path class="st0" d="M264.9,64.1h-11.5l9.3,6.8l-3.6,10.9l9.3-6.8l9.3,6.8l-3.6-10.9l9.3-6.8H272l-3.6-10.9L264.9,64.1
				L264.9,64.1z M268.4,98.7c-14.2,0-23.2-8.3-23.2-30.1c0-21.2,9.7-30,23.2-30c14.6,0,23.2,8.4,23.2,30.1
				C291.6,89.5,282.5,98.7,268.4,98.7L268.4,98.7z"/>
			<path class="st0" d="M45.3,55.3c-1.4,0.2-3.6,0.3-5.1,0.3c-1.4,0-3.9-0.2-5.3-0.3l-0.5-4.7h-5.4v36.9l5.5,0.8
				c0.2,1.4,0.3,3.2,0.3,4.7c0,1.4-0.1,3.3-0.3,4.8H10.9c-0.2-1.4-0.3-3.3-0.3-4.8c0-1.4,0.1-3.3,0.3-4.7l5.5-0.8V50.6h-5.3l-0.8,5
				c-3.2,0-7-0.2-10.3-0.8c0.1-3,0.6-9.9,1.1-14.3h44.2V55.3L45.3,55.3z"/>
			<path class="st0" d="M71.1,50.2c-7.7,0-11.5,4.5-11.5,19c0,14.2,3.9,19,11.5,19c7.8,0,11.4-4.8,11.4-19
				C82.6,54.6,78.4,50.2,71.1,50.2L71.1,50.2z M71.2,98.7c-15.1,0-24.7-9.1-24.7-29.3c0-19.8,9.9-29.6,24.6-29.6
				c15.2,0,24.6,9.2,24.6,29.5C95.7,89.1,85.7,98.7,71.2,98.7L71.2,98.7z"/>
			<path class="st0" d="M123.3,50c-2.1,0-3.9,0-5.3,0.1v18.5h4.8c5.7,0,8.7-2.9,8.7-9.8C131.4,52.2,128.2,50,123.3,50L123.3,50z
				 M123.6,78.5h-5.7v9.1l5.9,0.8c0.2,1.4,0.3,3.2,0.3,4.7c0,1.4-0.1,3.3-0.3,4.8H99.9c-0.2-1.4-0.3-3.3-0.3-4.8
				c0-1.4,0.1-3.3,0.3-4.7l5.5-0.8V50.9L99.9,50c-0.2-1.4-0.3-3.2-0.3-4.7c0-1.5,0.1-3.3,0.3-4.8c7.5-0.3,15.8-0.4,21.7-0.4
				c13.9,0,22.4,5.1,22.4,18.5C144,72.7,134.2,78.5,123.6,78.5L123.6,78.5z"/>
			<path class="st0" d="M192.6,97.1h-41.9L150,83.8c21.2-11.6,25.8-17.6,25.8-24.8c0-5.7-2.9-8.5-7.4-8.5c-1.5,0-3.1,0.2-3.9,0.4
				l-1,5.7c-1.9,0.2-4.3,0.3-6.2,0.3c-1.8,0-4.6-0.1-6.4-0.3V41.3c5.2-2,11.8-3.2,17.6-3.2c13.7,0,23.1,6.3,23.1,19.4
				c0,8.8-4.7,16.6-19.4,25.5v0.7h21.4C193.6,87.5,193.4,92.8,192.6,97.1L192.6,97.1z"/>
			<path class="st0" d="M216.3,111.9c-6.3,0-12.5-1.1-17.7-3.1V93.3c1.8-0.2,4.7-0.3,6.5-0.3c1.9,0,4.3,0.1,6.1,0.3l1,5.6
				c1.5,0.3,2.8,0.5,4.4,0.5c6.2,0,9.5-3.3,9.5-9.8c0-7.1-4.9-10-16.6-10h-9.8c0.4-13.6,1.8-29,3.3-40.5h37.3c0,4-0.4,9.2-1.1,13.4
				h-23.9l-1.3,14.6h1.1c13.9,0,26.6,5.4,26.6,21.8C241.6,102.9,230.9,111.9,216.3,111.9L216.3,111.9z"/>
			<path class="st0" d="M264.3,63.5h-11.5l9.3,6.7l-3.5,10.9l9.3-6.7l9.3,6.7l-3.6-10.9l9.3-6.7h-11.5l-3.6-10.9L264.3,63.5
				L264.3,63.5z M267.9,98.2c-14.2,0-23.2-8.3-23.2-30.1c0-21.2,9.7-30,23.2-30c14.6,0,23.2,8.4,23.2,30.1
				C291.1,88.9,281.9,98.2,267.9,98.2L267.9,98.2z"/>
			<polygon class="st0" points="71.3,28.5 71.3,16.8 66.6,16.8 66.6,28.5 62.2,28.5 62.2,0.7 66.6,0.7 66.6,12.8 71.3,12.8 
				71.3,0.7 75.7,0.7 75.7,28.5 71.3,28.5 			"/>
			<path class="st0" d="M84.3,19c-2.1,0.7-3.1,1.9-3.1,3.5V24c0,1,0.5,1.8,1.4,1.8c1,0,1.8-0.9,1.8-2V19L84.3,19z M87.8,28.8
				c-1.3,0-2.3-0.7-2.7-2.2c-0.8,1.4-2,2.2-3.6,2.2c-2.3,0-3.9-1.8-3.9-4.9v-1c0-3.7,2.8-5.4,6.7-6.8v-3.1c0-1-0.4-1.6-1.4-1.6
				c-1,0-1.3,0.6-1.3,1.7v1.8h-3.4v-1.6c0-3,1.6-5.1,4.9-5.1c3.3,0,4.8,2.3,4.8,5.4V25c0,0.6,0.3,1,0.8,1v2.8H87.8L87.8,28.8z"/>
			<polygon class="st0" points="102.6,28.5 99.5,28.5 98.2,20.6 97.6,16.4 97.1,20.6 95.8,28.5 92.7,28.5 89.2,8.5 92.9,8.5 
				94,18.2 94.5,22.5 94.9,18.2 96.3,8.5 99.3,8.5 100.5,18.2 101,22.5 101.5,18.2 102.7,8.5 106.1,8.5 102.6,28.5 			"/>
			<path class="st0" d="M113.3,19c-2.1,0.7-3.1,1.9-3.1,3.5V24c0,1,0.5,1.8,1.4,1.8c1,0,1.8-0.9,1.8-2V19L113.3,19z M116.9,28.8
				c-1.3,0-2.3-0.7-2.7-2.2c-0.8,1.4-2,2.2-3.6,2.2c-2.3,0-3.9-1.8-3.9-4.9v-1c0-3.7,2.8-5.4,6.7-6.8v-3.1c0-1-0.4-1.6-1.4-1.6
				c-1,0-1.3,0.6-1.3,1.7v1.8h-3.4v-1.6c0-3,1.6-5.1,4.9-5.1c3.3,0,4.8,2.3,4.8,5.4V25c0,0.6,0.2,1,0.8,1v2.8H116.9L116.9,28.8z"/>
			<path class="st0" d="M119.5,5.9V2h3.5v3.9H119.5L119.5,5.9z M119.4,28.5v-20h3.7v20H119.4L119.4,28.5z"/>
			<path class="st0" d="M125.7,5.9V2h3.5v3.9H125.7L125.7,5.9z M125.6,28.5v-20h3.7v20H125.6L125.6,28.5z"/>
			<path class="st1" d="M140.1,18.1c0-1.2-0.6-2-1.7-2h-2.1v8.6h2.3c1,0,1.5-0.6,1.5-1.8V18.1L140.1,18.1z M140.1,6.3
				c0-1.2-0.5-1.8-1.6-1.8h-2.3v8.3h2.1c1.1,0,1.7-0.6,1.7-1.9V6.3L140.1,6.3z M139.1,28.5h-7.3V0.7h7.2c3.1,0,5.3,1.6,5.3,5.4v4
				c0,2.1-0.8,3.6-2.8,4.2c2.1,0.7,2.8,2.1,2.8,4.2v4.6C144.4,26.9,142.2,28.5,139.1,28.5L139.1,28.5z"/>
			<path class="st1" d="M153.9,28.5l-0.2-2.4c-0.7,1.8-2,2.8-3.5,2.8c-2.3,0-3.6-1.8-3.6-4.4v-16h3.7v15.4c0,1,0.6,1.8,1.5,1.8
				c1,0,1.7-1.3,1.7-2.2V8.5h3.7v20H153.9L153.9,28.5z"/>
			<path class="st1" d="M164.1,28.8c-3.3,0-5.1-2.1-5.1-5.4v-1.2h3.2v1.5c0,1.4,0.6,2,1.7,2c1.1,0,1.8-0.6,1.8-1.8
				c0-1.8-0.9-2.6-3.1-4.6c-2-1.5-3.5-3.3-3.5-6c0-3.3,2.1-5.3,4.9-5.3c3.2,0,4.9,2.2,4.9,5.3v1.2h-3.1v-1.5c0-1-0.6-1.7-1.7-1.7
				c-1,0-1.5,0.6-1.5,1.6c0,1.5,0.8,2.4,2.6,4c2.1,1.6,3.9,3.4,3.9,6.5C169.1,26.4,167.4,28.8,164.1,28.8L164.1,28.8z"/>
			<path class="st1" d="M170.9,5.9V2h3.6v3.9H170.9L170.9,5.9z M170.8,28.5v-20h3.7v20H170.8L170.8,28.5z"/>
			<path class="st1" d="M183.8,28.5V13.2c0-1-0.6-1.8-1.4-1.8c-1,0-1.7,1.3-1.7,2.3v14.8H177v-20h3.3l0.2,2.6c0.7-2,2-2.9,3.5-2.9
				c2.3,0,3.6,1.7,3.6,4.4v15.9H183.8L183.8,28.5z"/>
			<path class="st1" d="M196.4,13.3c0-1.1-0.5-1.9-1.5-1.9c-1,0-1.6,0.8-1.6,1.9v3.6h3.1V13.3L196.4,13.3z M194.8,28.8
				c-3,0-5.2-2.2-5.2-5.7v-9.3c0-3.4,2.2-5.7,5.2-5.7c3,0,5,2.3,5,5.7V19h-6.5v4.8c0,1.1,0.5,1.8,1.6,1.8c1.1,0,1.6-0.8,1.6-1.8
				v-2.5h3.3v1.9C199.8,26.6,197.9,28.8,194.8,28.8L194.8,28.8z"/>
			<path class="st1" d="M206.4,28.8c-3.3,0-5.1-2.1-5.1-5.4v-1.2h3.2v1.5c0,1.4,0.6,2,1.7,2c1.1,0,1.8-0.6,1.8-1.8
				c0-1.8-0.9-2.6-3.1-4.6c-2-1.5-3.5-3.3-3.5-6c0-3.3,2.1-5.3,4.9-5.3c3.2,0,4.9,2.2,4.9,5.3v1.2h-3.1v-1.5c0-1-0.6-1.7-1.7-1.7
				c-1,0-1.5,0.6-1.5,1.6c0,1.5,0.8,2.4,2.6,4c2.1,1.6,3.9,3.4,3.9,6.5C211.4,26.4,209.7,28.8,206.4,28.8L206.4,28.8z"/>
			<path class="st1" d="M217.5,28.8c-3.3,0-5.1-2.1-5.1-5.4v-1.2h3.2v1.5c0,1.4,0.6,2,1.7,2c1.1,0,1.8-0.6,1.8-1.8
				c0-1.8-0.9-2.6-3.1-4.6c-2-1.5-3.5-3.3-3.5-6c0-3.3,2.1-5.3,4.9-5.3c3.2,0,4.9,2.2,4.9,5.3v1.2h-3.1v-1.5c0-1-0.6-1.7-1.7-1.7
				c-1,0-1.5,0.6-1.5,1.6c0,1.5,0.8,2.4,2.6,4c2.1,1.6,3.9,3.4,3.9,6.5C222.6,26.4,220.8,28.8,217.5,28.8L217.5,28.8z"/>
		</g>
	</g>
	<g>
		<path class="st1" d="M81.7,138.4l-1.1,4.1H65.2V138c0.5-0.2,1.8-0.9,3.8-1.9c2.4-1.4,4.1-2.6,5.1-3.6c0.9-0.9,1.3-1.7,1.3-2.7
			c0-1.6-1-2.5-2.9-2.5c-1.4,0-3.1,0.8-5,2.4l-2.9-3.1c2.7-2.4,5.8-3.6,9.3-3.6c2.2,0,3.9,0.6,5.2,1.7c1.3,1.1,2,2.6,2,4.4
			c0,2.3-1.2,4.2-3.5,6c-0.5,0.4-1.4,0.9-2.5,1.5c-0.9,0.5-1.7,1-2.6,1.5l-1,0.5c0.9-0.1,2.1-0.2,3.6-0.2H81.7z"/>
		<path class="st1" d="M93.4,123.3c2.7,0,4.8,0.9,6.4,2.7s2.4,4.1,2.4,7.1c0,2.9-0.8,5.3-2.4,7.1s-3.7,2.7-6.3,2.7
			c-2.7,0-4.8-0.9-6.4-2.7c-1.6-1.8-2.4-4.1-2.4-7.1c0-2.9,0.8-5.3,2.4-7.1S90.8,123.3,93.4,123.3z M96.7,133.2c0-2.4-0.3-4.1-1-5.1
			c-0.5-0.8-1.3-1.2-2.4-1.2c-2.2,0-3.4,2.1-3.4,6.2c0,2.4,0.3,4.1,1,5.1c0.5,0.8,1.3,1.2,2.4,1.2C95.6,139.3,96.7,137.3,96.7,133.2
			z"/>
		<path class="st1" d="M111,123.3h3.3v15.2h2.9v4h-11.7v-4h4V129c-1.5,0.9-3,1.6-4.4,2.1l-1.3-2.7L111,123.3z"/>
		<path class="st1" d="M126.3,123.3h3.3v15.2h2.9v4h-11.7v-4h4V129c-1.5,0.9-3,1.6-4.4,2.1l-1.3-2.7L126.3,123.3z"/>
		<path class="st1" d="M144.1,130.3h8.8v4.3h-8.8V130.3z"/>
		<path class="st1" d="M173.2,138.4l-1.1,4.1h-15.4V138c0.5-0.2,1.8-0.9,3.8-1.9c2.4-1.4,4.1-2.6,5.1-3.6c0.9-0.9,1.3-1.7,1.3-2.7
			c0-1.6-1-2.5-2.9-2.5c-1.4,0-3.1,0.8-5,2.4l-2.9-3.1c2.7-2.4,5.8-3.6,9.3-3.6c2.2,0,3.9,0.6,5.2,1.7c1.3,1.1,2,2.6,2,4.4
			c0,2.3-1.2,4.2-3.5,6c-0.5,0.4-1.4,0.9-2.5,1.5c-0.9,0.5-1.7,1-2.6,1.5l-1,0.5c0.9-0.1,2.1-0.2,3.6-0.2H173.2z"/>
		<path class="st1" d="M184.9,123.3c2.7,0,4.8,0.9,6.4,2.7s2.4,4.1,2.4,7.1c0,2.9-0.8,5.3-2.4,7.1c-1.6,1.8-3.7,2.7-6.3,2.7
			c-2.7,0-4.8-0.9-6.4-2.7c-1.6-1.8-2.4-4.1-2.4-7.1c0-2.9,0.8-5.3,2.4-7.1C180.2,124.2,182.3,123.3,184.9,123.3z M188.2,133.2
			c0-2.4-0.3-4.1-1-5.1c-0.5-0.8-1.3-1.2-2.4-1.2c-2.2,0-3.4,2.1-3.4,6.2c0,2.4,0.3,4.1,1,5.1c0.5,0.8,1.3,1.2,2.4,1.2
			C187.1,139.3,188.2,137.3,188.2,133.2z"/>
		<path class="st1" d="M202.5,123.3h3.3v15.2h2.9v4h-11.7v-4h4V129c-1.5,0.9-3,1.6-4.4,2.1l-1.3-2.7L202.5,123.3z"/>
		<path class="st1" d="M213.3,123.6h12.6l-0.7,4.2h-7.2l-0.5,5.1c0.6-0.1,1.2-0.2,1.7-0.2c2.3,0,4.1,0.7,5.6,2
			c1.4,1.3,2.2,3,2.2,5.2c0,2.7-1.1,5-3.3,6.7c-2.2,1.8-5,2.6-8.3,2.6c-1,0-1.9-0.1-2.8-0.3l-1.1-3.6c1.3,0.3,2.5,0.5,3.5,0.5
			c2,0,3.6-0.5,4.8-1.5c1.2-1,1.9-2.3,1.9-3.9c0-1.2-0.4-2.1-1.1-2.8c-0.7-0.7-1.7-1.1-2.9-1.1c-1.4,0-3.2,0.3-5.4,1L213.3,123.6z"
			/>
	</g>
</g>
</svg>
