<?xml version="1.0" encoding="utf-8"?>
<!-- Generator: Adobe Illustrator 22.1.0, SVG Export Plug-In . SVG Version: 6.00 Build 0)  -->
<svg version="1.1" id="Layer_1" xmlns="http://www.w3.org/2000/svg" xmlns:xlink="http://www.w3.org/1999/xlink" x="0px" y="0px"
	 viewBox="0 0 792 612" style="enable-background:new 0 0 792 612;" xml:space="preserve">
<style type="text/css">
	.st0{fill:#6D6E71;}
	.st1{fill:#FFFFFF;}
	.st2{fill:url(#SVGID_1_);}
	.st3{fill:url(#SVGID_2_);}
</style>
<g>
	<g>
		<path class="st0" d="M454.3,278.6c0,2.7-0.2,6.7-0.6,9.8l-5.8,41.5c-0.8,5.6-1.5,13.4-1.5,19c0,2.5,0,4.2,0.2,7.1H414
			c-0.4-2.7-0.6-5.6-0.8-8.3c-8.3,7.5-18.1,11.7-30.5,11.7c-20.6,0-33.8-11.7-33.8-29.8c0-19,10-30.9,37.3-36.7l18.8-4
			c11.3-2.3,14.8-3.8,14.8-8.3c0-5.6-5.8-8.3-19.6-8.3c-12.7,0-27.3,3.1-40.5,7.9l7.9-27.7c11.7-4,24-6.5,36.9-6.5
			C438,245.8,454.3,257.7,454.3,278.6z M394.6,334.9c7.5,0,13.6-2.1,20-7.5l3.1-22.1c-1.9,0.8-4,1.7-6.3,2.1l-15.4,3.3
			c-10.6,2.3-14.6,6.9-14.6,13.8C381.5,331.1,386.2,334.9,394.6,334.9z"/>
		<path class="st0" d="M578.6,294.8c0,32.5-16.9,64.5-54.9,64.5c-12.9,0-21.9-4.2-27.5-9.8l-6.5,46.5h-35l20.6-146.9h30.9l0.2,7.5
			c6.9-7.3,15.4-10.8,27.1-10.8C560.2,245.8,578.6,263.6,578.6,294.8z M543.5,294.8c0-15-8.3-22.9-19.6-22.9c-7.5,0-12.3,1.5-17.5,5
			l-6.9,48.8c4.2,4.2,9.8,7.5,18.6,7.5C537.9,333.2,543.5,311.3,543.5,294.8z"/>
		<path class="st0" d="M640.5,327c0-4-1.7-5.6-10.6-9.4l-14.8-6.3c-16.3-6.9-23.8-15.6-23.8-31.3c0-19.6,15.2-34.2,49-34.2
			c15.2,0,29.4,4.2,41.1,10.4l-7.1,24c-11.1-5-23.8-9-34-9c-9,0-13.8,2.3-13.8,6.9c0,4.2,2.7,5.8,9,8.6l15.9,6.7
			c16.9,7.1,24.4,14.6,24.4,31.7c0,16.9-12.3,34.2-48.2,34.2c-19.4,0-33.6-5.2-44.2-11.1l6.9-24.2c10.4,5.4,23.8,9.8,37.3,9.8
			C637,333.9,640.5,331.4,640.5,327z"/>
	</g>
	<path class="st1" d="M273,232.7C273,232.7,272.9,232.7,273,232.7c-4-1.5-8.4-1.6-12.5,0.3l-142.4,48.3v69.5l111.1-64.4l-53.8,111.1
		h67.2l39.6-144.1C285.5,245.2,281.3,235.9,273,232.7z"/>
	<polygon class="st1" points="118.1,350.8 118.1,397.6 175.5,397.6 229.3,286.5 	"/>
	<linearGradient id="SVGID_1_" gradientUnits="userSpaceOnUse" x1="124.4107" y1="397.0904" x2="274.1646" y2="244.1948">
		<stop  offset="0" style="stop-color:#D1D3D4"/>
		<stop  offset="0.2454" style="stop-color:#CED0D1"/>
		<stop  offset="0.467" style="stop-color:#C5C7C9"/>
		<stop  offset="0.6795" style="stop-color:#B6B8BA"/>
		<stop  offset="0.8851" style="stop-color:#A1A3A6"/>
		<stop  offset="1" style="stop-color:#939598"/>
	</linearGradient>
	<polygon class="st2" points="118.1,350.8 118.1,397.6 175.5,397.6 229.3,286.5 	"/>
	<linearGradient id="SVGID_2_" gradientUnits="userSpaceOnUse" x1="119.0005" y1="399.5128" x2="318.3308" y2="194.1053">
		<stop  offset="0" style="stop-color:#27ACDE"/>
		<stop  offset="1" style="stop-color:#63C6BF"/>
	</linearGradient>
	<path class="st3" d="M290.7,214.4H128.8c-5.9,0-10.7,4.8-10.7,10.7v3.1v53.1L260.5,233c4.1-1.8,8.5-1.8,12.4-0.3c0,0,0.1,0,0.1,0
		c8.3,3.2,12.4,12.5,9.3,20.8l-39.6,144.1h33.5h14.4c5.9,0,10.7-4.8,10.7-10.7V225.1C301.3,219.2,296.6,214.4,290.7,214.4z"/>
</g>
</svg>
