<svg id="Layer_2" data-name="Layer 2" xmlns="http://www.w3.org/2000/svg" viewBox="0 0 433.02 176.99"><defs><style>.cls-1{fill:#88201b;}.cls-2{fill:#acaeb0;}</style></defs><title>advantage</title><path class="cls-1" d="M264,116.88H222l-0.75-13.31C242.45,92,247.13,86,247.13,78.76c0-5.75-2.87-8.51-7.46-8.51a18.7,18.7,0,0,0-3.94.42l-1,5.75a58.58,58.58,0,0,1-6.17.34,62.66,62.66,0,0,1-6.39-.34V61a51.18,51.18,0,0,1,17.56-3.19c13.73,0,23.11,6.28,23.11,19.39,0,8.83-4.69,16.6-19.38,25.55v0.74h21.4a84.91,84.91,0,0,1-1,13.42H264Z"/><path class="cls-1" d="M287.62,131.67A49.07,49.07,0,0,1,270,128.58V113c1.8-.21,4.68-0.32,6.49-0.32a57.08,57.08,0,0,1,6.07.32l1,5.65a20,20,0,0,0,4.37.53c6.17,0,9.47-3.29,9.47-9.79,0-7.13-4.9-10-16.61-10h-9.8c0.43-13.63,1.81-29,3.3-40.56H311.6a95.56,95.56,0,0,1-1.06,13.41h-24l-1.28,14.59h1.07c13.94,0,26.62,5.43,26.62,21.83,0,14-10.64,23-25.34,23h0v0Z"/><path class="cls-1" d="M335.75,83.19H324.25l9.31,6.76L330,100.89l9.31-6.76,9.31,6.76L345.06,90l9.31-6.76H342.87l-3.55-10.94-3.56,10.89h0Zm3.55,34.71c-14.27,0-23.21-8.31-23.21-30.13,0-21.19,9.69-30,23.21-30,14.59,0,23.21,8.42,23.21,30.14,0,20.77-9.16,30-23.21,30h0Z"/><path class="cls-1" d="M115.87,74.48a49.67,49.67,0,0,1-5.1.34c-1.45,0-3.91-.17-5.36-0.34L104.9,69.8H99.46v37l5.53,0.85a41.8,41.8,0,0,1,.25,4.68,44.64,44.64,0,0,1-.25,4.76H81.37a44.65,44.65,0,0,1-.25-4.76,41.79,41.79,0,0,1,.25-4.68l5.53-.85v-37H81.63l-0.85,5A69.09,69.09,0,0,1,70.51,74c0.08-3,.59-9.94,1.1-14.27h44.26v14.7h0Z"/><path class="cls-1" d="M141.69,69.38c-7.73,0-11.47,4.51-11.47,19,0,14.27,3.91,19,11.56,19,7.82,0,11.39-4.76,11.39-19,0-14.71-4.16-19-11.47-19h0Zm0.09,48.52c-15.12,0-24.73-9.09-24.73-29.32,0-19.8,9.94-29.65,24.64-29.65,15.21,0,24.64,9.18,24.64,29.49,0,19.88-10,29.49-24.55,29.49h0Z"/><path class="cls-1" d="M194,69.17c-2.12,0-3.91,0-5.36.08V87.74h4.76c5.69,0,8.75-2.88,8.75-9.85,0-6.55-3.22-8.76-8.16-8.76h0v0.05Zm0.34,28.55h-5.7v9.1l5.87,0.85a41,41,0,0,1,.26,4.68,43.79,43.79,0,0,1-.26,4.76h-24a43.06,43.06,0,0,1-.26-4.76,40.31,40.31,0,0,1,.26-4.68l5.52-.85V70.06l-5.52-.89a40.21,40.21,0,0,1-.26-4.67,42.77,42.77,0,0,1,.26-4.76c7.47-.26,15.8-0.43,21.75-0.43,13.94,0,22.43,5.1,22.43,18.53,0,14-9.77,19.8-20.4,19.8h0Z"/><path class="cls-1" d="M263.39,116.31h-42L220.69,103c21.21-11.6,25.88-17.56,25.88-24.81,0-5.75-2.87-8.51-7.45-8.51a19,19,0,0,0-3.95.42l-1,5.75a59.83,59.83,0,0,1-6.16.34c-1.8,0-4.58-.11-6.4-0.32V60.41a51.34,51.34,0,0,1,17.58-3.19c13.74,0,23.11,6.29,23.11,19.39,0,8.83-4.69,16.61-19.39,25.55v0.74h21.4a84.63,84.63,0,0,1-1,13.42h0.07Z"/><path class="cls-1" d="M287.1,131.11A49.46,49.46,0,0,1,269.42,128V112.48a64,64,0,0,1,6.49-.32,55.58,55.58,0,0,1,6.07.32l1,5.65a19.77,19.77,0,0,0,4.37.52c6.17,0,9.47-3.29,9.47-9.79,0-7.13-4.9-10-16.61-10h-9.79c0.43-13.64,1.81-29,3.3-40.56H311.1A95.13,95.13,0,0,1,310,71.68H286l-1.26,14.61h1.06c13.95,0,26.63,5.43,26.63,21.83,0,14-10.65,23-25.34,23h0Z"/><path class="cls-1" d="M335.16,82.68H323.68l9.3,6.76-3.54,10.93,9.3-6.76,9.31,6.76L344.5,89.44l9.31-6.76H342.3l-3.55-10.94-3.58,10.94h0Zm3.55,34.71c-14.27,0-23.21-8.31-23.21-30.13,0-21.19,9.68-30,23.21-30,14.59,0,23.21,8.42,23.21,30.14,0,20.76-9.15,30-23.21,30h0Z"/><polygon class="cls-1" points="141.9 47.64 141.9 35.94 137.22 35.94 137.22 47.64 132.79 47.64 132.79 19.8 137.22 19.8 137.22 31.87 141.9 31.87 141.9 19.8 146.35 19.8 146.35 47.64 141.9 47.64 141.9 47.64"/><path class="cls-1" d="M154.87,38.13c-2.09.71-3.13,1.88-3.13,3.46v1.54a1.49,1.49,0,0,0,1.19,1.74l0.18,0A1.85,1.85,0,0,0,154.87,43V38.13h0ZM158.42,48a2.66,2.66,0,0,1-2.71-2.17A3.92,3.92,0,0,1,152.11,48c-2.34,0-3.94-1.8-3.94-4.89v-1c0-3.67,2.84-5.43,6.69-6.86v-3.1a1.33,1.33,0,0,0-1.38-1.59c-1,0-1.34.59-1.34,1.67V34h-3.38V32.42c0-3,1.63-5.14,4.9-5.14s4.81,2.25,4.81,5.43V44.14a0.84,0.84,0,0,0,.67,1l0.17,0v2.8h-0.88V48Z"/><polygon class="cls-1" points="173.22 47.64 170.09 47.64 168.79 39.7 168.28 35.55 167.74 39.7 166.44 47.64 163.31 47.64 159.84 27.57 163.48 27.57 164.65 37.32 165.1 41.66 165.56 37.32 166.9 27.57 169.95 27.57 171.17 37.32 171.67 41.66 172.13 37.32 173.38 27.57 176.77 27.57 173.22 47.64 173.22 47.64"/><path class="cls-1" d="M184,38.13c-2.09.71-3.13,1.88-3.13,3.46v1.54c0,1,.46,1.76,1.37,1.76A1.84,1.84,0,0,0,184,43s0-.06,0-0.09V38.13h0ZM187.51,48a2.65,2.65,0,0,1-2.71-2.17A3.92,3.92,0,0,1,181.2,48c-2.34,0-3.94-1.8-3.94-4.89v-1c0-3.67,2.84-5.43,6.69-6.86v-3.1a1.33,1.33,0,0,0-1.38-1.59c-1,0-1.34.59-1.34,1.67V34h-3.38V32.42c0-3,1.63-5.14,4.9-5.14s4.81,2.25,4.81,5.43V44.14a0.84,0.84,0,0,0,.67,1l0.17,0v2.8h-0.87V48Z"/><path class="cls-1" d="M190.19,25V21.11h3.55V25h-3.55v0Zm-0.08,22.61v-20h3.71v20h-3.71Z"/><path class="cls-1" d="M196.33,25V21.11h3.54V25h-3.54v0Zm-0.08,22.61v-20H200v20h-3.72Z"/><path class="cls-2" d="M210.83,37.23a1.68,1.68,0,0,0-1.71-2H207v8.56h2.34c1,0,1.5-.62,1.5-1.8V37.23h0Zm0-11.83c0-1.18-.5-1.8-1.55-1.8H207v8.27h2.09a1.62,1.62,0,0,0,1.71-1.92V25.4h0Zm-1,22.24h-7.28V19.8h7.19c3.09,0,5.35,1.62,5.35,5.39v4c0,2.09-.79,3.59-2.76,4.19a3.91,3.91,0,0,1,2.84,4.19V42.2c0,3.81-2.3,5.4-5.35,5.4h0v0Z"/><path class="cls-2" d="M224.58,47.64l-0.21-2.42A3.78,3.78,0,0,1,220.83,48c-2.3,0-3.59-1.75-3.59-4.39v-16h3.71V43a1.57,1.57,0,0,0,1.38,1.74h0.08c1,0,1.66-1.29,1.66-2.25V27.57h3.72v20h-3.22v0Z"/><path class="cls-2" d="M234.83,48c-3.29,0-5.15-2.08-5.15-5.43V41.32h3.22v1.51c0,1.38.62,2,1.74,2a1.57,1.57,0,0,0,1.77-1.7c0-1.84-.92-2.55-3.09-4.57-2-1.46-3.46-3.3-3.46-6,0-3.31,2.08-5.27,4.93-5.27,3.21,0,4.89,2.17,4.89,5.27V33.8h-3.09V32.25a1.56,1.56,0,0,0-1.71-1.71,1.44,1.44,0,0,0-1.54,1.58c0,1.46.8,2.38,2.63,4,2.13,1.63,3.9,3.38,3.9,6.47s-1.71,5.4-5,5.4h0Z"/><path class="cls-2" d="M241.63,25V21.11h3.55V25h-3.55v0Zm-0.08,22.61v-20h3.72v20h-3.72Z"/><path class="cls-2" d="M254.56,47.64V32.3a1.54,1.54,0,0,0-1.3-1.75h-0.12c-1,0-1.7,1.3-1.7,2.25V47.64h-3.72v-20H251l0.21,2.63c0.67-2,2-2.92,3.5-2.92,2.25,0,3.55,1.75,3.55,4.39V47.64h-3.76Z"/><path class="cls-2" d="M267.18,32.42c0-1.12-.49-1.88-1.54-1.88a1.63,1.63,0,0,0-1.57,1.88V36h3.13V32.42h0ZM265.6,48c-3,0-5.19-2.25-5.19-5.69V33c0-3.38,2.18-5.69,5.19-5.69s5,2.3,5,5.69v5.16h-6.54V42.9a1.59,1.59,0,0,0,1.33,1.81l0.26,0a1.55,1.55,0,0,0,1.58-1.83V40.4h3.34v1.92c0,3.39-1.93,5.65-5,5.65h0Z"/><path class="cls-2" d="M277.21,48c-3.3,0-5.14-2.08-5.14-5.43V41.32h3.21v1.51c0,1.38.62,2,1.75,2a1.57,1.57,0,0,0,1.76-1.7c0-1.84-.92-2.55-3.09-4.57-2-1.46-3.46-3.3-3.46-6,0-3.31,2.08-5.27,4.93-5.27,3.22,0,4.9,2.17,4.9,5.27V33.8H279V32.25a1.56,1.56,0,0,0-1.72-1.71,1.44,1.44,0,0,0-1.54,1.58c0,1.46.79,2.38,2.63,4,2.13,1.63,3.89,3.38,3.89,6.47s-1.71,5.4-5,5.4h0v0Z"/><path class="cls-2" d="M288.34,48c-3.3,0-5.14-2.08-5.14-5.43V41.32h3.21v1.51c0,1.38.62,2,1.75,2a1.57,1.57,0,0,0,1.75-1.7c0-1.84-.92-2.55-3.09-4.57-2-1.46-3.47-3.3-3.47-6,0-3.31,2.09-5.27,4.94-5.27,3.21,0,4.89,2.17,4.89,5.27V33.8H290.1V32.25a1.56,1.56,0,0,0-1.4-1.71H288.4a1.44,1.44,0,0,0-1.56,1.58c0,1.46.79,2.38,2.64,4,2.12,1.63,3.88,3.38,3.88,6.47s-1.71,5.4-5,5.4h0v0Z"/><path class="cls-2" d="M149.27,157.65l-1.07,4.14H132.82v-4.5q0.81-.33,3.8-1.92a23,23,0,0,0,5.09-3.57,3.78,3.78,0,0,0,1.29-2.65q0-2.47-2.94-2.47-2.14,0-5,2.36l-3-3.06a13.58,13.58,0,0,1,9.29-3.65,7.82,7.82,0,0,1,5.24,1.66,5.47,5.47,0,0,1,2,4.39q0,3.39-3.46,6-0.81.59-2.47,1.55l-2.58,1.47-1,.48a27.94,27.94,0,0,1,3.57-.18h6.6v0Z"/><path class="cls-2" d="M161,142.53a8.09,8.09,0,0,1,6.38,2.67,11.82,11.82,0,0,1-.07,14.27,8.85,8.85,0,0,1-12.52.26l-0.21-.21a11.81,11.81,0,0,1,.07-14.27A8.11,8.11,0,0,1,161,142.53Zm3.32,9.92q0-3.61-1-5.09a2.6,2.6,0,0,0-2.36-1.22q-3.35,0-3.35,6.16,0,3.61,1,5.09A2.6,2.6,0,0,0,161,158.6q3.35,0,3.35-6.15h0Z"/><path class="cls-2" d="M178.63,142.53h3.31v15.23h3v4h-11.7v-4h4v-9.55a21.46,21.46,0,0,1-4.43,2.14l-1.25-2.65Z"/><path class="cls-2" d="M194,142.53h3.32v15.23h3v4h-11.7v-4h4v-9.55a21.46,21.46,0,0,1-4.43,2.14l-1.25-2.65Z"/><path class="cls-2" d="M210.31,149.54h8.85v4.28h-8.85v-4.28Z"/><path class="cls-2" d="M246.66,162.49h-16v-4.67c1.34-.69,1.68-0.69,3.94-2,5.29-3,6.63-4.71,6.63-6.47s-1.26-2.57-3.06-2.57c-1.65,0-3.06.69-5.21,2.45l-3.06-3.18a13.7,13.7,0,0,1,9.65-3.79c4.56,0,7.47,2.53,7.47,6.28,0,2.79-1.53,4.67-3.6,6.2-1.38,1-3.71,2.22-5.24,3.14-0.19.12-.61,0.31-1,0.5a33.75,33.75,0,0,1,3.71-.19h6.85Z"/><path class="cls-2" d="M259.89,162.95c-5.59,0-9.07-4-9.07-10.19s3.71-10.26,9.11-10.26c5.59,0,9.08,4,9.08,10.19S265.29,162.95,259.89,162.95Zm0-16.7c-2.6,0-3.48,2.53-3.48,6.4,0,5.4,1.49,6.55,3.45,6.55,2.61,0,3.49-2.53,3.49-6.39C263.38,147.4,261.89,146.25,259.93,146.25Z"/><path class="cls-2" d="M273.14,162.49v-4.17h4.14V148.4a22.15,22.15,0,0,1-4.6,2.22l-1.3-2.76,7.39-5.36h3.45v15.82h3.06v4.17H273.14Z"/><path class="cls-2" d="M302.58,147.36c-1.53,2.3-5.86,8.92-8,16a51.79,51.79,0,0,0-1.11,5.32l-5.63,1.42a72,72,0,0,1,2.76-9.19,61.53,61.53,0,0,1,3.37-7.7,39,39,0,0,1,3.56-5.9,6.28,6.28,0,0,1-1.53.15h-9.65l1.15-4.63h16Z"/></svg>