<?xml version="1.0" encoding="utf-8"?>
<!-- Generator: Adobe Illustrator 20.1.0, SVG Export Plug-In . SVG Version: 6.00 Build 0)  -->
<svg version="1.1" id="Layer_1" xmlns="http://www.w3.org/2000/svg" xmlns:xlink="http://www.w3.org/1999/xlink" x="0px" y="0px"
	 viewBox="0 0 216.7 164" style="enable-background:new 0 0 216.7 164;" xml:space="preserve">
<style type="text/css">
	.st0{fill:#7CA3DC;}
	.st1{fill:#FFFFFF;}
	.st2{fill:#F7B334;}
	.st3{fill:#E63C2F;}
	.st4{fill:#002F87;}
</style>
<g>
	<g>
		<rect x="128.6" class="st0" width="88.2" height="91.3"/>
		<path class="st1" d="M209,45c0,20.1-16.3,36.4-36.4,36.4c-20.1,0-36.4-16.3-36.4-36.4c0-20.1,16.3-36.4,36.4-36.4
			C192.7,8.6,209,24.9,209,45"/>
		<path class="st2" d="M153.7,52.1c0.4-0.2,1.2-0.6,1.6-0.7c0.4-0.2,0.4-0.4,0.2-0.8c-0.6-1.7-0.9-3.6-0.9-5.5
			c0-9.9,8-17.9,17.9-17.9c9.9,0,17.9,8,17.9,17.9c0,2.5-0.5,4.9-1.5,7.1c-0.1,0.2-0.1,0.5,0.2,0.6c0.3,0.1,1.4,0.6,1.7,0.7
			c0.3,0.1,0.5,0,0.7-0.3c1.1-2.5,1.7-5.3,1.7-8.2c0-11.4-9.3-20.7-20.6-20.7c-11.4,0-20.6,9.3-20.6,20.7c0,2.3,0.4,4.6,1.1,6.7
			C153.2,52.1,153.4,52.3,153.7,52.1"/>
		<path class="st2" d="M148.5,54.6c0.4-0.2,1.9-0.9,2.3-1.1c0.4-0.2,0.3-0.5,0.2-0.7c-0.9-2.4-1.3-5-1.3-7.7
			c0-12.7,10.3-22.9,22.9-22.9c12.6,0,22.9,10.3,22.9,22.9c0,3.2-0.7,6.3-1.9,9.1c-0.1,0.1-0.2,0.5,0.2,0.6c0.4,0.2,2,0.9,2.3,1
			c0.3,0.1,0.5,0.1,0.7-0.3c1.4-3.2,2.2-6.8,2.2-10.5c0-14.6-11.8-26.4-26.4-26.4c-14.6,0-26.4,11.9-26.4,26.4
			c0,3.2,0.6,6.3,1.6,9.1C147.9,54.4,148,54.8,148.5,54.6"/>
		<path class="st2" d="M141.4,57.9c0.5-0.2,3.6-1.7,4.2-1.9c0.5-0.2,0.3-0.7,0.2-0.9c-1.1-3.1-1.8-6.4-1.8-9.9
			c0-15.8,12.8-28.7,28.7-28.7c15.8,0,28.6,12.9,28.6,28.7c0,4-0.8,7.8-2.3,11.3c-0.1,0.2-0.2,0.6,0.3,0.9c0.5,0.2,3.5,1.6,3.9,1.7
			c0.4,0.2,0.7,0.2,1-0.5c1.8-4.1,2.7-8.7,2.7-13.4c0-18.9-15.4-34.3-34.3-34.3c-18.9,0-34.3,15.4-34.3,34.3c0,4.4,0.8,8.5,2.3,12.3
			C140.7,57.7,140.8,58.1,141.4,57.9"/>
		<path class="st3" d="M172.6,37.7c2,0,3.7-1.6,3.7-3.7c0-2-1.7-3.7-3.7-3.7c-2,0-3.7,1.6-3.7,3.7C169,36,170.6,37.7,172.6,37.7"/>
		<path class="st3" d="M174,56.9c0.7,0,1.3-0.6,1.3-1.3v-8.1c0-1,0.8-2.3,1.5-3.1l7.6-7.6c0.5-0.5,0.5-1.4,0-1.8l-1.4-1.4
			c-0.5-0.5-1.3-0.5-1.8,0l-6.9,6.9c-0.5,0.4-0.8,0.7-1.6,0.7c-0.9,0-1.2-0.3-1.6-0.7l-6.9-6.9c-0.5-0.5-1.3-0.5-1.8,0l-1.4,1.4
			c-0.5,0.5-0.5,1.3,0,1.8l7.6,7.6c0.7,0.8,1.4,2.1,1.5,3.1v8.1c0,0.7,0.6,1.3,1.3,1.3H174z"/>
		<path class="st4" d="M197.9,59.8c-1.3,0.5-3.7,2.8-4.8,3.8l-0.3,0.1c0.4-0.4,2-2.5,2.5-3.2c1.3-2.2-1.2-4.2-3.9-2.7
			c-1,0.6-2.7,2.4-3.6,3l-0.3,0.1c0.4-0.4,1.9-2.4,2.3-3c1.2-1.8-1.3-3.4-3.5-2.1c-1.5,0.9-2.8,2.2-4,3.1l-0.2,0.1
			c0.4-0.3,1.2-1.3,1.5-1.7c1.3-1.4-0.6-3.1-2.5-2.1c-1.8,0.9-4.5,3.6-7.4,5.4c1.3,0.7,3.7,0.8,7.4,2.4c3.7,1.6,4.9,5.3,2.5,8.3
			c-2.3,2.7-5.7,1.8-8.7,0.9c-3.4-1.1-4.6-2.2-8.8-3.6c-2.7-0.9-3.8-0.9-3.8-1.7c0.1-0.9,2.4-0.4,4.6,0.4c6.1,2.2,14.1,7.2,16.1,1.8
			c1.6-4.2-5.4-6.1-8.1-6.6c-3.7-0.7-6.3-3.4-9.5-5.2c-4.9-2.6-8.6-2.7-11.4-2.2c-3,0.5-7.3,3-9.9,4.5c-1.8,1.1-1.7,2.7,0.1,5.2
			c6.2,8.8,16.5,14.6,28.1,14.6c12.3,0,23.1-6.5,29.2-16.3C203.1,61,201,58.7,197.9,59.8"/>
		<rect class="st4" width="128.6" height="91.3"/>
		<path class="st1" d="M204.5,82.2v3.4h-0.8v-3.4h-1.3v-0.7h3.3v0.7H204.5z M210.5,85.6v-3.3l-0.1,0l-1.2,3.2h-0.5l-1.2-3.2l-0.1,0
			v3.2h-0.8v-4.1h1.2l1.2,3.1l1.2-3.1h1.1v4.1H210.5z"/>
		<path class="st1" d="M99.6,83.4c0,1,3.5,2.1,5.4,2.1c1.9,0,4.4-0.7,5.8-4c1.4-3.4,7.2-23.3,7.2-23.3l0.7,0c1.3-0.2,1.8-1,1.8-3
			c0-0.7-0.1-0.8-0.7-0.8h-4.8c-0.5,0-0.5,0.1-0.7,0.5l-4,15.3l-4.1-15.3c-0.1-0.5-0.2-0.5-0.6-0.5h-4.8c-0.6,0-0.7,0.1-0.7,0.8
			c0,2,0.5,2.8,1.8,3l0.7,0c0,0,3.8,13.3,5.8,18.9c0,0-0.3,1.1-0.3,1.1c-0.6,2.1-1.8,3-3.5,3c-0.4,0-2.8-0.4-2.8-0.4
			c-1.3-0.1-1.7,0.4-1.8,0.9C99.7,82.5,99.6,83.2,99.6,83.4"/>
		<path class="st1" d="M83.4,46.9h-5.7c-0.5,0-0.5,0-0.6,0.5l-3.2,19.9L70,47.6c-0.1-0.5-0.2-0.6-0.8-0.6h-2.6c-1,0-1,0.1-1.1,0.7
			l-4,19.7l-3-19.9c-0.1-0.5-0.1-0.5-0.6-0.5H52c-0.6,0-0.7,0.1-0.7,0.8c0,2.2,0.5,3,2.1,3.2l0.6,0l4.4,24.4
			c0.1,0.6,0.2,0.7,0.7,0.7H63c0.6,0,0.6,0,0.7-0.7l3.8-19l3.2,19C70.9,76,71,76,71.6,76h3.9c0.5,0,0.6-0.1,0.7-0.7l5-24.4l0.6,0
			c1.6-0.2,2.1-1,2.1-3.2C83.9,47,83.8,47,83.4,46.9"/>
		<path class="st1" d="M93.1,71.2c-0.5,0.6-1.7,1.8-3.2,1.8c-1.6,0-2.8-1.4-2.8-3.2c0-4,4.7-3.8,6-3.7V71.2z M98.2,72.2
			c-0.2-0.8-0.5-1.9-0.5-3.9v-7.7c0-4.8-2.1-7-6.9-7c-3.3,0-6.8,1.4-6.8,2.3c0,0.1,0.1,0.8,0.4,1.5c0.1,0.3,0.3,1,1.7,0.8
			c0.6,0,3-0.5,4-0.5c2.7,0,3,1.6,3,3.4v1.5c-3.4,0-10.6,0-10.6,7.4c0,4.1,2.3,6.7,6,6.7c2.8,0,4.2-1.5,5-2.5l0.3-0.4l0.1,0.6
			c0.2,0.9,0.3,1.5,1,1.5h4.9c0.6,0,0.7,0,0.7-0.8C100.5,73.1,100,72.3,98.2,72.2"/>
		<path class="st1" d="M63.7,36.2l-0.5,0V18.9c0-0.4,0-0.5-0.4-0.5h-6.9c-0.6,0-0.7,0-0.7,0.8c0,2.4,0.6,3.1,2.7,3.1h0.5v14l-0.5,0
			c-2,0-2.6,0.7-2.6,3.1c0,0.7,0.1,0.8,0.7,0.8h9.8c0.6,0,0.7-0.1,0.7-0.8C66.4,36.9,65.7,36.2,63.7,36.2"/>
		<path class="st1" d="M60.8,10.2c-1.6,0-2.9,1.4-2.9,3.1c0,1.7,1.3,3.1,2.9,3.1c1.6,0,2.9-1.4,2.9-3.1
			C63.6,11.6,62.3,10.2,60.8,10.2"/>
		<path class="st1" d="M28.3,15.7h0.1c2.1,0,2.7-0.8,2.7-3.2c0-0.7-0.1-0.8-0.7-0.8h-9.4c-0.5,0-0.6,0.1-0.7,0.4l0,0.4
			c0,2.4,0.7,3.2,2.7,3.2h0.1v14.2c0,2.7,0,6.4-4.4,6.4c-4,0-4.4-2.9-4.4-6.4V15.7h0.1c2,0,2.7-0.8,2.7-3.2l0-0.5
			c0-0.3-0.1-0.3-0.7-0.3H7.2c-0.6,0-0.7,0.1-0.7,0.8c0,2.4,0.6,3.2,2.7,3.2h0.1v14.2c0,7.7,2.8,10.9,9.5,10.9
			c6.6,0,9.5-3.3,9.5-10.9V15.7z"/>
		<path class="st1" d="M50.2,36.2V24.5c0-4.7-1.6-6.9-5.1-6.9c-3.1,0-4.8,1.8-6.2,3.2c-0.1-0.5-0.2-0.9-0.2-0.9
			c-0.2-1-0.4-1.5-1-1.5h-5.3c-0.6,0-0.7,0-0.7,0.8c0,2.2,0.6,3,2.4,3.1c0.3,0.9,0.4,1.7,0.4,3.9v10c-2,0-2.6,0.7-2.6,3.1
			c0,0.7,0.1,0.8,0.7,0.8H39c0.4,0,0.4-0.1,0.4-0.5l0-15.7C40,23.3,41.3,22,43,22c2.4,0,2.4,2.7,2.4,3.9v13.7c0,0.4,0,0.5,0.4,0.5
			h6.3c0.6,0,0.7-0.1,0.7-0.8C52.8,37,52.1,36.2,50.2,36.2"/>
		<path class="st1" d="M75.5,40.8c2.8,0,5.1-0.7,5.1-1.3c0-0.1-0.2-0.9-0.3-1.3c-0.4-1.6-0.5-2.2-3.5-1.9c-0.4,0-0.7,0-0.9-0.3
			c-0.6-0.6-0.6-1.9-0.6-2.9V22.2h2.7c2,0,2.7-0.7,2.7-3.1c0-0.7-0.1-0.8-0.7-0.8h-4.6v-6.1c0-0.6-0.1-0.6-0.3-0.6
			c-0.2,0-1.2,0.1-1.7,0.2c-1.4,0.2-2.8,1.3-2.8,3.7v2.8h-2.7c-0.6,0-0.7,0-0.7,0.8c0,2.4,0.6,3.1,2.6,3.1h0.8v10.1
			C70.5,36.5,70.5,40.8,75.5,40.8"/>
		<path class="st1" d="M87.3,26.7l0-0.4c0.1-1.5,0.4-4.9,3.5-4.9c3,0,3,3.5,3,5.3H87.3z M98.8,29.6c0-7.9-2.6-12-7.8-12
			c-5.2,0-8.6,4.7-8.6,11.8c0,9.4,4.8,11.4,8.8,11.4c3.2,0,7-1.5,7-2.5c0-0.2-0.2-0.9-0.4-1.5c-0.2-0.5-0.4-1-1.8-0.9
			c-1,0.1-2.8,0.5-4.3,0.5c-3,0-4.5-1.9-4.5-5.9H98C98.6,30.6,98.8,30.4,98.8,29.6"/>
		<path class="st1" d="M109.4,36.6c-2.9,0-3.5-2.7-3.5-7.3c0-4.9,0.6-7.6,3.7-7.6c1.2,0,2.2,0.3,3.2,0.9V35
			C112.3,35.7,111.4,36.6,109.4,36.6 M118.1,36.2c-0.3-0.8-0.4-1.7-0.4-3.9V10.7c0-0.4,0-0.5-0.4-0.5h-6.3c-0.6,0-0.7,0.1-0.7,0.8
			c0,2.3,0.6,3,2.5,3.1l0.1,0v5l-0.4-0.3c-0.7-0.5-1.7-1.2-3.8-1.2c-4.9,0-7.5,4.3-7.5,12.5c0,6.9,2.4,10.7,6.7,10.7
			c3.4,0,5.7-2.5,5.7-2.5l0.3,0.9c0.2,0.7,0.2,0.8,0.8,0.8h5.6c0.6,0,0.7-0.1,0.7-0.8C120.9,37,120.3,36.2,118.1,36.2"/>
		<path class="st4" d="M11.8,111.5c-0.1-0.6-0.6-2.4-0.6-2.4s-0.4,1.6-0.7,2.7c-0.3,1-0.4,1.7-0.7,2.6h2.7
			C12.5,114.2,12,112.8,11.8,111.5 M14.2,119.8l-1-3.3H9.1l-1,3.3H5.2L9.8,106h3l4.4,13.9H14.2z"/>
		<path class="st4" d="M20.9,120.1c-1.1,0-2-0.5-2.4-1.4c-0.2-0.5-0.2-0.8-0.2-2.3v-7.6c0-1.3,0-2.2-0.1-3.1l2.7-0.6
			c0.1,0.6,0.1,1.2,0.1,2.6v7.9c0,1.8,0,2,0.2,2.3c0.1,0.2,0.3,0.3,0.5,0.3c0.1,0,0.2,0,0.3,0l0.5,1.6C22,120,21.5,120.1,20.9,120.1
			"/>
		<path class="st4" d="M29,112c-0.3-0.3-0.7-0.5-1.2-0.5c-0.6,0-1.2,0.4-1.4,1c-0.2,0.5-0.3,1.3-0.3,2.3c0,1.2,0.1,2.1,0.3,2.6
			c0.2,0.6,0.8,0.8,1.4,0.8c1.2,0,1.7-1,1.7-3.4C29.5,113.3,29.3,112.4,29,112 M31.1,118.6c-0.8,0.9-1.8,1.4-3.4,1.4
			c-2.8,0-4.6-2.1-4.6-5.3c0-3.2,1.8-5.3,4.6-5.3c1.5,0,2.6,0.5,3.5,1.5c0.8,1,1.2,2.1,1.2,3.7C32.4,116.4,32,117.6,31.1,118.6"/>
		<path class="st4" d="M40.3,119.8V113c0-1-0.3-1.4-1-1.4c-0.7,0-1.5,0.4-2.1,0.9v7.3h-2.7v-11.8c0-1-0.1-1.9-0.2-2.3l2.7-0.6
			c0.1,0.6,0.2,1.5,0.2,2.5v2c0,0.3,0,0.7,0,0.9c0.7-0.7,1.9-1.1,2.9-1.1c1.3,0,2.3,0.6,2.6,1.5c0.2,0.6,0.3,0.9,0.3,1.9v7.1H40.3z"
			/>
		<path class="st4" d="M50.2,115.4c-1.8,0-2.5,0.3-2.5,1.6c0,0.8,0.5,1.3,1.2,1.3c0.5,0,1-0.3,1.4-0.7l0-2.2H50.2z M52.4,120.4
			c-0.6-0.3-1.2-0.7-1.4-1.2c-0.2,0.2-0.4,0.4-0.6,0.5c-0.5,0.4-1.2,0.6-2,0.6c-2.3,0-3.5-1.2-3.5-3.2c0-2.4,1.7-3.5,4.9-3.5
			c0.2,0,0.4,0,0.6,0v-0.4c0-1.1-0.2-1.5-1.2-1.5c-0.9,0-1.9,0.4-2.9,1.2l-1.1-1.9c0.5-0.3,0.9-0.5,1.7-0.8c1-0.4,1.9-0.6,2.8-0.6
			c1.7,0,2.9,0.6,3.3,1.8c0.1,0.4,0.2,0.7,0.2,1.8l-0.1,3.4c0,1.1,0.1,1.6,1,2.3L52.4,120.4z"/>
		<path class="st4" d="M69.9,117.5c-0.4,1.1-1.7,2.6-4.7,2.6c-2.1,0-3.7-0.6-4.4-1.8c-0.5-0.7-0.6-1.3-0.6-2.6V106H63v9.1
			c0,0.9,0.1,1.4,0.2,1.7c0.3,0.6,1,1,1.9,1c1.2,0,2-0.6,2.1-1.6c0-0.3,0-0.5,0-1.2V106h2.8v9.3C70.1,116.6,70.1,116.9,69.9,117.5"
			/>
		<path class="st4" d="M78.3,119.8v-6.6c0-1.2-0.2-1.5-0.9-1.5c-0.5,0-1.2,0.4-1.8,0.9v7.2h-2.7v-7.4c0-0.9-0.1-1.7-0.4-2.4l2.4-0.7
			c0.2,0.4,0.4,0.9,0.4,1.3c0.4-0.3,0.7-0.5,1.2-0.8c0.5-0.3,1.2-0.4,1.8-0.4c1.1,0,2.1,0.6,2.4,1.5c0.1,0.4,0.2,0.8,0.2,1.5v7.4
			H78.3z"/>
		<path class="st4" d="M83.7,119.8v-10l2.7-0.4v10.4H83.7z M85,108.5c-0.9,0-1.6-0.7-1.6-1.7c0-0.9,0.8-1.7,1.7-1.7
			c0.9,0,1.6,0.7,1.6,1.7C86.7,107.8,85.9,108.5,85,108.5"/>
		<path class="st4" d="M92.1,120.1c-1.4,0-2.4-0.6-2.7-1.5c-0.2-0.4-0.2-0.6-0.2-1.6v-5.5h-1v-1.8h1c0-1,0-1.6,0.1-2.4l2.7-0.7
			c-0.1,0.9-0.2,2.1-0.2,3.1h2.4l-0.7,1.8h-1.7v5.1c0,1.3,0.2,1.6,1.2,1.6c0.2,0,0.5-0.1,1-0.2l0.3,1.6
			C93.5,119.9,92.8,120.1,92.1,120.1"/>
		<path class="st4" d="M100.9,113.5c0-0.8-0.1-1.2-0.3-1.5c-0.3-0.4-0.6-0.6-1.2-0.6c-1,0-1.6,0.8-1.6,2.2v0h3.1V113.5z M97.8,115.6
			L97.8,115.6c0,1.7,0.8,2.5,2.2,2.5c0.9,0,1.8-0.3,2.6-1l1,1.6c-1.2,1-2.4,1.4-3.8,1.4c-2.9,0-4.8-2.1-4.8-5.3c0-1.8,0.4-3,1.3-4
			c0.8-0.9,1.9-1.4,3.2-1.4c1.2,0,2.3,0.4,2.9,1.1c0.9,1,1.4,2.3,1.4,4.5v0.6H97.8z"/>
		<path class="st4" d="M111.1,112.3c-0.5-0.4-1-0.7-1.5-0.7c-1.2,0-1.7,1-1.7,3.3c0,2.2,0.5,2.9,1.9,2.9c0.5,0,1.1-0.3,1.3-0.7
			V112.3z M111.7,119.8c-0.1-0.2-0.1-0.3-0.2-0.6c-0.7,0.6-1.4,0.9-2.4,0.9c-2.6,0-4.2-2-4.2-5.2c0-3.2,1.8-5.4,4.4-5.4
			c0.7,0,1.3,0.2,1.8,0.6c0-0.2-0.1-0.9-0.1-1.5v-3.5l2.7,0.4v10.6c0,2.5,0.2,3.3,0.4,3.7H111.7z"/>
		<path class="st4" d="M132.8,120h-3l-1.2-5.6c-0.4-1.7-0.6-3.4-0.7-3.9c0,0.3-0.3,2.1-0.7,3.9l-1.2,5.7h-3.2l-3.3-14h2.9l1.2,5.5
			c0.6,2.6,0.7,4.6,0.7,4.6c0.1-0.5,0.3-2.5,0.7-4.4l1.2-5.6h3l1.3,6.2c0.3,1.3,0.6,3.7,0.6,3.7c0-0.4,0.5-3.2,0.8-4.6l1.1-5.3h2.9
			L132.8,120z"/>
		<path class="st4" d="M141.6,115.4c-1.8,0-2.5,0.3-2.5,1.6c0,0.8,0.5,1.3,1.2,1.3c0.5,0,1-0.3,1.4-0.7l0-2.2H141.6z M143.9,120.4
			c-0.6-0.3-1.2-0.7-1.4-1.2c-0.2,0.2-0.4,0.4-0.6,0.5c-0.5,0.4-1.2,0.6-2,0.6c-2.3,0-3.5-1.2-3.5-3.2c0-2.4,1.7-3.5,4.9-3.5
			c0.2,0,0.4,0,0.6,0v-0.4c0-1.1-0.2-1.5-1.2-1.5c-0.9,0-1.8,0.4-2.9,1.2l-1.1-1.9c0.5-0.3,0.9-0.5,1.7-0.8c1-0.4,1.8-0.6,2.8-0.6
			c1.7,0,2.9,0.6,3.3,1.8c0.1,0.4,0.2,0.7,0.2,1.8l-0.1,3.4c0,1.1,0.1,1.6,1,2.3L143.9,120.4z"/>
		<path class="st4" d="M152,120c-0.7,2-1.2,2.8-1.9,3.4c-0.7,0.5-1.6,0.8-2.5,0.9l-0.9-1.8c0.6-0.2,1.3-0.4,1.6-0.7
			c0.3-0.2,0.5-0.5,0.8-0.8c0.3-0.4,0.3-0.6,0.6-1.2h-0.7c-0.3-1-0.9-2.6-1-2.9l-2.4-7.2l2.7-0.3l1.8,6c0.2,0.6,0.5,2,0.5,2.1
			c0-0.1,0.2-1.1,0.3-1.6c0.1-0.3,0.2-0.9,0.4-1.4l1.5-4.9h2.8L152,120z"/>
	</g>
	<g>
		<path class="st4" d="M1.6,163.7v-21.4h4.8c1.3,0,2.4,0.3,3.4,1c0.9,0.6,1.5,1.4,1.9,2.6c0.2,0.6,0.3,1.4,0.3,2.3
			c0,1.4-0.4,2.6-1.1,3.4c-0.3,0.4-0.7,0.6-1.1,0.8c0.7,0.3,1.3,0.8,1.8,1.6c0.3,0.5,0.6,1.3,0.7,2.1c0.1,0.4,0.1,0.9,0.1,1.5
			c0,1.4-0.3,2.5-0.8,3.4c-0.4,0.7-1,1.3-1.7,1.8c-0.8,0.5-1.6,0.8-2.4,0.8H1.6z M5.1,151.1h1.4c1,0,1.7-0.5,2-1.5
			c0.1-0.4,0.2-0.8,0.2-1.3c0-0.9-0.2-1.6-0.6-2c-0.4-0.4-0.9-0.6-1.6-0.6H5.1V151.1z M5.1,160.5h1.4c1.1,0,1.8-0.6,2.3-1.7
			c0.1-0.4,0.2-0.8,0.2-1.3c0-1.2-0.2-2.1-0.7-2.6c-0.4-0.5-1-0.8-1.8-0.8H5.1V160.5z"/>
		<path class="st4" d="M15.8,163.7v-21.4h9.2v3.2h-6v5.8h4.4v3.2H19v5.8h6v3.2H15.8z"/>
		<path class="st4" d="M38.7,158.4c0,1.5-0.4,2.8-1.2,3.8c-0.5,0.7-1.3,1.2-2.2,1.5c-0.5,0.2-1.1,0.2-1.8,0.2
			c-1.3,0-2.3-0.3-3.1-0.9c-0.7-0.5-1.2-1.2-1.6-2.1c-0.4-0.9-0.6-1.9-0.7-3l3.1-0.2c0.1,1.2,0.5,2.1,1,2.7c0.4,0.4,0.8,0.6,1.3,0.6
			c0.7,0,1.3-0.4,1.7-1c0.2-0.3,0.3-0.8,0.3-1.4c0-0.9-0.4-1.8-1.2-2.7c-0.6-0.6-1.6-1.5-2.9-2.7c-1.1-1-1.8-2-2.3-2.8
			c-0.5-0.9-0.7-1.9-0.7-3c0-1.9,0.7-3.4,2-4.4c0.8-0.6,1.8-0.9,3-0.9c1.1,0,2.1,0.3,3,0.8c0.6,0.4,1.2,1,1.5,1.7
			c0.4,0.7,0.6,1.5,0.7,2.5l-3.1,0.6c-0.1-0.9-0.3-1.6-0.8-2.1c-0.3-0.4-0.7-0.5-1.3-0.5c-0.6,0-1,0.3-1.3,0.8
			c-0.3,0.4-0.4,0.9-0.4,1.6c0,1,0.4,2,1.3,3c0.3,0.4,0.8,0.8,1.4,1.4c0.8,0.6,1.2,1.1,1.5,1.3c0.8,0.8,1.4,1.6,1.8,2.4
			c0.2,0.4,0.4,0.7,0.5,1C38.5,157.1,38.7,157.8,38.7,158.4z"/>
		<path class="st4" d="M45.3,145.6h-3.4v-3.2h10.1v3.2h-3.4v18.1h-3.2V145.6z"/>
		<path class="st4" d="M62.2,142.3l4.3,14.4v-14.4h3.2v21.4h-3.5L61.8,150v13.7h-3.2v-21.4H62.2z"/>
		<path class="st4" d="M73,163.7v-21.4h9.2v3.2h-6v5.8h4.4v3.2h-4.4v5.8h6v3.2H73z"/>
		<path class="st4" d="M98.8,142.3h3.4l-3.3,21.4h-3.1L93.9,152l-1.7,11.8h-3.1l-3.6-21.4h3.4l1.7,11.5l1.6-11.5h3.4l1.7,11.5
			L98.8,142.3z"/>
		<path class="st4" d="M113.9,164c-1.4,0-2.6-0.5-3.6-1.5c-1-1-1.5-2.2-1.5-3.6v-11.7c0-1.4,0.5-2.6,1.5-3.6c1-1,2.2-1.5,3.6-1.5
			c1.4,0,2.6,0.5,3.6,1.5c1,1,1.5,2.2,1.5,3.6v2.4h-3.3v-2.5c0-0.5-0.2-1-0.5-1.3c-0.4-0.4-0.8-0.6-1.3-0.6s-0.9,0.2-1.3,0.6
			c-0.4,0.4-0.5,0.8-0.5,1.3v11.7c0,0.5,0.2,0.9,0.5,1.3c0.4,0.4,0.8,0.5,1.3,0.5s0.9-0.2,1.3-0.5c0.4-0.4,0.5-0.8,0.5-1.3v-3h3.3v3
			c0,1.4-0.5,2.6-1.5,3.6C116.5,163.5,115.3,164,113.9,164z"/>
		<path class="st4" d="M126.1,158.8l-0.8,4.9h-3.4l3.6-21.4h4.4l3.6,21.4h-3.4l-0.8-4.9H126.1z M127.8,147.2l-1.2,8.4h2.4
			L127.8,147.2z"/>
		<path class="st4" d="M140.1,163.7h-3.2v-21.4h4.6l3,15.4l2.9-15.4h4.5v21.4h-3.2v-13.5l-2.8,13.5h-2.6l-3.1-13.4V163.7z"/>
		<path class="st4" d="M160.3,142.3c1.6,0,2.8,0.5,3.8,1.5c0.9,0.9,1.3,2.2,1.3,3.6v3.1c0,1.4-0.5,2.6-1.5,3.6c-1,1-2.2,1.5-3.6,1.5
			h-1.9v8.1h-3.2v-21.4H160.3z M162.2,147.5c0-0.6-0.2-1-0.5-1.4c-0.3-0.3-0.8-0.5-1.3-0.5h-1.9v6.8h1.9c0.5,0,0.9-0.2,1.3-0.5
			c0.4-0.4,0.5-0.8,0.5-1.3V147.5z"/>
		<path class="st4" d="M171.8,158.8l-0.8,4.9h-3.4l3.6-21.4h4.4l3.6,21.4h-3.4l-0.8-4.9H171.8z M173.5,147.2l-1.2,8.4h2.4
			L173.5,147.2z"/>
		<path class="st4" d="M185.8,163.7h-3.2v-21.4h3.2V163.7z"/>
		<path class="st4" d="M194.3,164c-1.4,0-2.6-0.5-3.6-1.5c-1-1-1.5-2.2-1.5-3.6v-11.7c0-1.4,0.5-2.6,1.5-3.6c1-1,2.2-1.5,3.6-1.5
			c1.4,0,2.6,0.5,3.6,1.5c1,1,1.5,2.2,1.5,3.6v2.4H196v-2.5c0-0.5-0.2-1-0.5-1.3c-0.4-0.4-0.8-0.6-1.3-0.6c-0.5,0-0.9,0.2-1.3,0.6
			c-0.4,0.4-0.5,0.8-0.5,1.3v11.7c0,0.5,0.2,0.9,0.5,1.3c0.4,0.4,0.8,0.5,1.3,0.5c0.5,0,0.9-0.2,1.3-0.5c0.4-0.4,0.5-0.8,0.5-1.3
			v-4.2h-1.8v-3.2h5.1v7.5c0,1.4-0.5,2.6-1.5,3.6C196.9,163.5,195.7,164,194.3,164z"/>
		<path class="st4" d="M206.3,142.3l4.3,14.4v-14.4h3.2v21.4h-3.5l-4.4-13.7v13.7h-3.2v-21.4H206.3z"/>
	</g>
</g>
</svg>
