<svg id="Layer_1" data-name="Layer 1" xmlns="http://www.w3.org/2000/svg" viewBox="0 0 520.5 381"><defs><style>.cls-1,.cls-4{fill:#fff;}.cls-2{font-size:28.95px;font-family:ITC Bookman;font-style:italic;}.cls-2,.cls-3{fill:#636569;}.cls-4,.cls-5,.cls-6{stroke:#65656a;stroke-linejoin:round;}.cls-4,.cls-5{stroke-width:1.55px;}.cls-5,.cls-6{fill:none;}.cls-6{stroke-width:1.49px;}</style></defs><title>benefits-of-mobile</title><g id="Layer_1-2" data-name="Layer 1"><rect class="cls-1" x="10.61" y="10.83" width="499.83" height="357.7"/></g><text class="cls-2" transform="translate(42.96 80.67)">You also receive...</text><path class="cls-3" d="M143.61,288.31h-8.44l0.23-1.3,0.14-.09a24.59,24.59,0,0,0,4.73-3.31c1.35-1.24,3.06-3.06,3.06-5a1.94,1.94,0,0,0-2.21-2c-1,0-2.82.63-2.82,1.83a0.83,0.83,0,0,0,.13.47,1.07,1.07,0,0,1,.18.54,1.22,1.22,0,0,1-1.21,1,1,1,0,0,1-.92-1,3.68,3.68,0,0,1,1.65-2.66,5.47,5.47,0,0,1,3.31-1.06,5,5,0,0,1,2.64.63,2.73,2.73,0,0,1,1.33,2.29c0,1.94-1.67,3.62-3.06,4.77a28,28,0,0,1-4.8,3.15l-0.4.23h4.14c1.82,0,2.23-.59,3.09-2.1l0.61,0.23Z"/><path class="cls-3" d="M154,284h2.52l-0.45,1h-2.25l-0.18,1a3.15,3.15,0,0,0-.07.58,1.31,1.31,0,0,0,.25.81,1.1,1.1,0,0,0,1,.4l0.32,0-0.09.54h-5.27l0.09-.54h0.18a1.75,1.75,0,0,0,1.33-.5,3.06,3.06,0,0,0,.59-1.73l0.11-.56h-5.56l-0.18-.77,7.3-8.15h1.73Zm-0.59-6.42L147.63,284h4.68Z"/><path class="cls-3" d="M165.08,278.13a3.31,3.31,0,0,0,.07-0.61,0.78,0.78,0,0,0-.83-0.86l-0.43-.05,0.09-.54a11.23,11.23,0,0,0,2.57-.65h0.65l-1,5.5a6.8,6.8,0,0,1,3.8-1.49c1,0,2.27.43,2.27,1.67a10.56,10.56,0,0,1-.22,1.67l-0.47,2.66a8.11,8.11,0,0,0-.16,1.15,0.94,0.94,0,0,0,1,.94,1.85,1.85,0,0,0,1.26-.63l0.4,0.4a3.56,3.56,0,0,1-2.46,1.17,1.68,1.68,0,0,1-1.83-1.75,6.16,6.16,0,0,1,.14-1.13l0.56-3.22a8.27,8.27,0,0,0,.11-0.94v0a1.14,1.14,0,0,0-1.28-1.12,6.34,6.34,0,0,0-3.24,1.48l-1.15,6.57h-1.66Z"/><path class="cls-3" d="M177.82,288.45a3.49,3.49,0,0,1-3.8-3.67,5.69,5.69,0,0,1,1.51-3.71,5,5,0,0,1,3.85-1.66,3.52,3.52,0,0,1,3.76,3.71A5.3,5.3,0,0,1,177.82,288.45Zm0.09-.85a2.85,2.85,0,0,0,2.66-1.78,8.21,8.21,0,0,0,.72-3.13,3,3,0,0,0-.56-1.93,2.13,2.13,0,0,0-1.49-.5c-2.43,0-3.36,3.06-3.36,5C175.88,286.65,176.43,287.61,177.91,287.61Z"/><path class="cls-3" d="M192.45,285.3a8.53,8.53,0,0,0-.14,1.17,1,1,0,0,0,.94,1,1.8,1.8,0,0,0,1.24-.65l0.43,0.36a3.43,3.43,0,0,1-2.54,1.28,1.7,1.7,0,0,1-1.82-1.64,6,6,0,0,1-3.9,1.64c-1.12,0-2.07-.5-2.07-1.73a7.05,7.05,0,0,1,.14-1.22l0.58-3.33a2.84,2.84,0,0,0,.09-0.67,0.8,0.8,0,0,0-.83-0.83l-0.41-.07,0.09-.54,2.52-.47h0.61l-1,5.92a4.08,4.08,0,0,0-.09.81v0.13a1.09,1.09,0,0,0,1.19,1.08,5.71,5.71,0,0,0,3.22-1.42l1.17-6.51h1.64Z"/><path class="cls-3" d="M198.33,280.72l0,0a4.49,4.49,0,0,1,2.88-1.33,1,1,0,0,1,1.13.85,1,1,0,0,1-1.15.94c-0.7,0-.92-0.5-1.48-0.5-1.46,0-1.82,2.16-2,3.24L197,288.31h-1.64l1.1-6.28a3.78,3.78,0,0,0,.09-0.63c0-.7-0.59-0.81-1.24-0.85l0.09-.54,2.52-.41h0.65Z"/><path class="cls-3" d="M204.61,283.83a2,2,0,0,1-1.28-1.78,2.4,2.4,0,0,1,1.17-1.94,4.5,4.5,0,0,1,2.48-.68,6.65,6.65,0,0,1,3,.63,1.26,1.26,0,0,1,.83,1,0.72,0.72,0,0,1-.77.74,1.11,1.11,0,0,1-1-.63,1.82,1.82,0,0,0-.74-0.74,2.43,2.43,0,0,0-1.22-.31,1.59,1.59,0,0,0-1.83,1.4,1.15,1.15,0,0,0,.59,1,9.82,9.82,0,0,0,1.76.63c1.21,0.38,2.81.77,2.81,2.32a2.77,2.77,0,0,1-1.46,2.29,5.44,5.44,0,0,1-2.81.72,6.36,6.36,0,0,1-3-.74,1.6,1.6,0,0,1-1-1.17,0.83,0.83,0,0,1,.83-0.79c1.53,0,1,2,3.35,2a2.76,2.76,0,0,0,1.55-.43,1.6,1.6,0,0,0,.74-1.22c0-.92-0.86-1.19-1.6-1.42Z"/><path class="cls-3" d="M225.82,285.68a3.29,3.29,0,0,0-.11.74,1,1,0,0,0,1,1,1.79,1.79,0,0,0,1.26-.67l0.41,0.38a3.57,3.57,0,0,1-2.57,1.31,1.75,1.75,0,0,1-1.76-1.92v-0.23h0a4.25,4.25,0,0,1-3.6,2.16c-2,0-3.09-1.48-3.09-3.38,0-2.77,2.16-5.65,5.09-5.65a3.65,3.65,0,0,1,2.66,1.06l0.16-.88h1.65Zm-3-5.42c-2.43,0-3.72,3.2-3.72,5.25,0,1.08.49,2.09,1.71,2.09,1.39,0,2.54-1.31,3.08-2.46a17.16,17.16,0,0,0,1-3.9A2.66,2.66,0,0,0,222.83,280.27Z"/><path class="cls-3" d="M245.09,287.17a3.76,3.76,0,0,1-2.66,1.28,1.66,1.66,0,0,1-1.76-1.66l0.05-.68a4.59,4.59,0,0,1-3.83,2.34c-2.05,0-3.13-1.51-3.13-3.44a6.21,6.21,0,0,1,1.51-3.9,5,5,0,0,1,3.74-1.69,3.94,3.94,0,0,1,2.73,1.1l0.41-2.36a3.8,3.8,0,0,0,.09-0.63c0-.77-0.63-0.86-1.28-0.94h-0.18l0.11-.54a7.82,7.82,0,0,0,2.63-.65h0.76l-1.73,9.8a7.9,7.9,0,0,0-.16,1.31,0.87,0.87,0,0,0,.94,1,1.75,1.75,0,0,0,1.33-.67Zm-3.53-5.86a2.7,2.7,0,0,0-2.16-1c-2.59,0-3.8,3.18-3.8,5.34a1.72,1.72,0,0,0,1.75,2,3.89,3.89,0,0,0,3-2.21,13,13,0,0,0,1.13-3.74Z"/><path class="cls-3" d="M253.89,285.68a3.29,3.29,0,0,0-.11.74,1,1,0,0,0,1,1,1.79,1.79,0,0,0,1.26-.67l0.41,0.38a3.57,3.57,0,0,1-2.57,1.31,1.75,1.75,0,0,1-1.76-1.92v-0.23h0a4.25,4.25,0,0,1-3.6,2.16c-2,0-3.09-1.48-3.09-3.38,0-2.77,2.16-5.65,5.09-5.65a3.65,3.65,0,0,1,2.66,1.06l0.16-.88H255Zm-3-5.42c-2.43,0-3.72,3.2-3.72,5.25,0,1.08.49,2.09,1.71,2.09,1.39,0,2.54-1.31,3.08-2.46a17.16,17.16,0,0,0,1-3.9A2.66,2.66,0,0,0,250.9,280.27Z"/><path class="cls-3" d="M264.7,288.15a4,4,0,0,1-1.76,3.06,6.19,6.19,0,0,1-3.54,1.08,5,5,0,0,1-2.34-.48,1.15,1.15,0,0,1-.72-0.9,0.83,0.83,0,0,1,.94-0.74c1.17,0,.68,1.48,2.48,1.48a3.07,3.07,0,0,0,2.2-1,4.75,4.75,0,0,0,1.12-2.57l0.27-1.47a6.29,6.29,0,0,1-4,1.83,1.84,1.84,0,0,1-2.12-1.83l0-.65,0.07-.58L257.9,282a3.32,3.32,0,0,0,.07-0.61c0-.76-0.54-0.86-1.28-0.86l0.09-.54,0.54-.05,1.92-.36H260l-1,5.81a8,8,0,0,0-.13.92,1.1,1.1,0,0,0,1.15,1.19,5.66,5.66,0,0,0,3.51-1.64l1.12-6.28h1.64Z"/><circle class="cls-4" cx="78.9" cy="283" r="35.94"/><polyline class="cls-4" points="98.12 301.66 78.9 283 78.9 260.52"/><line class="cls-5" x1="78.9" y1="251.76" x2="78.9" y2="254.73"/><line class="cls-5" x1="63.28" y1="255.95" x2="64.77" y2="258.52"/><line class="cls-5" x1="51.85" y1="267.38" x2="54.42" y2="268.86"/><line class="cls-5" x1="47.66" y1="283" x2="50.63" y2="283"/><line class="cls-5" x1="51.85" y1="298.61" x2="54.42" y2="297.13"/><line class="cls-5" x1="63.28" y1="310.05" x2="64.77" y2="307.47"/><line class="cls-5" x1="78.9" y1="314.23" x2="78.9" y2="311.26"/><line class="cls-5" x1="94.52" y1="310.05" x2="93.03" y2="307.47"/><line class="cls-5" x1="105.95" y1="298.61" x2="103.38" y2="297.13"/><line class="cls-5" x1="110.13" y1="283" x2="107.16" y2="283"/><line class="cls-5" x1="105.95" y1="267.38" x2="103.38" y2="268.86"/><line class="cls-5" x1="94.52" y1="255.95" x2="93.03" y2="258.52"/><path class="cls-3" d="M145.61,156.46L145,160c0,0.23,0,.38,0,0.59v0.09a1.25,1.25,0,0,0,.2.67,1,1,0,0,0,.94.43l0.32,0-0.11.54h-5.06l0.11-.54c1.44-.11,1.67-0.77,1.89-2l1.3-7.39a3.33,3.33,0,0,0,.07-0.59,1.07,1.07,0,0,0-1.06-1.19l-0.23,0,0.09-.54h6.42c1.92,0,4.14.23,4.14,2.7,0,2.16-1.94,3.56-4,3.71l2.07,3.62a2.55,2.55,0,0,0,2,1.69l-0.09.54h-3L148,156.46h-2.39Zm2.34-.7a4.93,4.93,0,0,0,2.75-.54,3,3,0,0,0,1.39-2.45,1.8,1.8,0,0,0-1-1.64,5.7,5.7,0,0,0-2.12-.34,4.8,4.8,0,0,0-2,.36,1.35,1.35,0,0,0-.54,1.08l-0.61,3.53h2.21Z"/><path class="cls-3" d="M162.94,160.76a7.48,7.48,0,0,1-4.43,1.69c-2,0-3.87-1.22-3.87-3.36a5.69,5.69,0,0,1,1.92-4,6.64,6.64,0,0,1,4.25-1.66c1.19,0,3,.5,3,2,0,2.46-5.25,3-7.2,3a3.58,3.58,0,0,0-.13.88,2.31,2.31,0,0,0,2.61,2.34,6.07,6.07,0,0,0,3.38-1.35Zm-6.17-3c1.57,0,5.31-.34,5.31-2.34a1.43,1.43,0,0,0-1.64-1.31C158.57,154.07,157.22,156.1,156.77,157.72Z"/><path class="cls-3" d="M173,159.68a3.31,3.31,0,0,0-.11.74,1,1,0,0,0,1,1,1.79,1.79,0,0,0,1.26-.67l0.41,0.38a3.57,3.57,0,0,1-2.57,1.31,1.75,1.75,0,0,1-1.76-1.92v-0.23h0a4.25,4.25,0,0,1-3.6,2.16c-2,0-3.09-1.47-3.09-3.38,0-2.77,2.16-5.65,5.09-5.65a3.65,3.65,0,0,1,2.66,1.06l0.16-.88H174Zm-3-5.42c-2.43,0-3.72,3.2-3.72,5.25,0,1.08.49,2.09,1.71,2.09,1.39,0,2.54-1.31,3.08-2.46a17.13,17.13,0,0,0,1-3.9A2.66,2.66,0,0,0,170,154.27Z"/><path class="cls-3" d="M178,159.16a6.27,6.27,0,0,0-.16,1.19v0.09a1,1,0,0,0,1,1,1.88,1.88,0,0,0,1.26-.68l0.41,0.38a3.58,3.58,0,0,1-2.72,1.29,1.65,1.65,0,0,1-1.64-1.75,6.94,6.94,0,0,1,.16-1.37l1.26-7.18a3.74,3.74,0,0,0,.07-0.63c0-.79-0.56-0.83-1.29-0.94l0.09-.54a9.55,9.55,0,0,0,2.54-.65h0.7Z"/><path class="cls-3" d="M181.29,156.46h4.14l-0.5,1h-4.14Z"/><path class="cls-3" d="M190,153.6h2.54l-0.09.54h-2.55L189,159a7.88,7.88,0,0,0-.18,1.46,1,1,0,0,0,1,1.19,2.73,2.73,0,0,0,1.75-.81l0.4,0.45a4,4,0,0,1-2.75,1.13c-1,0-2.16-.32-2.16-1.51a9.79,9.79,0,0,1,.22-1.6l0.92-5.2h-1.53l0.09-.54c2.12-.07,2.7-1.35,3.08-3.24h0.67Z"/><path class="cls-3" d="M195,159.86a3.15,3.15,0,0,0-.07.59,0.93,0.93,0,0,0,1,1,2,2,0,0,0,1.22-.61l0.41,0.36a3.47,3.47,0,0,1-2.57,1.24,1.62,1.62,0,0,1-1.69-1.76,4.34,4.34,0,0,1,.09-0.83l0.65-3.71a3.36,3.36,0,0,0,.09-0.61c0-.74-0.54-0.86-1.17-1h-0.13l0.09-.54,0.74-.09a11.34,11.34,0,0,0,1.89-.36h0.59Zm0.63-7.3a0.86,0.86,0,0,1-.83-0.94,1.32,1.32,0,0,1,1.24-1.24,0.85,0.85,0,0,1,.94.86A1.35,1.35,0,0,1,195.67,152.56Z"/><path class="cls-3" d="M199,156.12a4.17,4.17,0,0,0,.07-0.67,0.8,0.8,0,0,0-.83-0.83l-0.41-.07L198,154a15.25,15.25,0,0,0,2.54-.41h0.63l-0.16.93a5.88,5.88,0,0,1,3.18-1.12,2.11,2.11,0,0,1,2.19,1.3,5.66,5.66,0,0,1,3.36-1.3c1.1,0,2.19.5,2.19,1.76a8.31,8.31,0,0,1-.13,1.15l-0.61,3.38a5.29,5.29,0,0,0-.11.92,0.86,0.86,0,0,0,.88.88,1.71,1.71,0,0,0,1.12-.49l0.34,0.45a3.42,3.42,0,0,1-2.25,1,1.58,1.58,0,0,1-1.71-1.69v-0.09a8.35,8.35,0,0,1,.13-1.13l0.61-3.45a3.34,3.34,0,0,0,.07-0.61,1.1,1.1,0,0,0-1.26-1.12,5.42,5.42,0,0,0-2.59,1l-1.24,7h-1.64l1-5.59c0.05-.34.16-1,0.18-1.3v0a1.05,1.05,0,0,0-1.26-1,5.22,5.22,0,0,0-2.63,1l-1.24,7H198Z"/><path class="cls-3" d="M221.59,160.76a7.48,7.48,0,0,1-4.43,1.69c-2,0-3.87-1.22-3.87-3.36a5.69,5.69,0,0,1,1.92-4,6.64,6.64,0,0,1,4.25-1.66c1.19,0,3,.5,3,2,0,2.46-5.25,3-7.2,3a3.58,3.58,0,0,0-.13.88,2.31,2.31,0,0,0,2.61,2.34,6.07,6.07,0,0,0,3.38-1.35Zm-6.17-3c1.57,0,5.31-.34,5.31-2.34a1.43,1.43,0,0,0-1.64-1.31C217.22,154.07,215.87,156.1,215.42,157.72Z"/><path class="cls-3" d="M237,159.68a3.31,3.31,0,0,0-.11.74,1,1,0,0,0,1,1,1.79,1.79,0,0,0,1.26-.67l0.41,0.38a3.57,3.57,0,0,1-2.57,1.31,1.75,1.75,0,0,1-1.76-1.92v-0.23h0a4.25,4.25,0,0,1-3.6,2.16c-2,0-3.09-1.47-3.09-3.38,0-2.77,2.16-5.65,5.09-5.65a3.65,3.65,0,0,1,2.66,1.06l0.16-.88h1.66Zm-3-5.42c-2.43,0-3.72,3.2-3.72,5.25,0,1.08.49,2.09,1.71,2.09,1.39,0,2.54-1.31,3.08-2.46a17.13,17.13,0,0,0,1-3.9A2.66,2.66,0,0,0,234,154.27Z"/><path class="cls-3" d="M247.3,160.62a5.8,5.8,0,0,1-4.1,1.83,3.43,3.43,0,0,1-3.63-3.53,5.61,5.61,0,0,1,5.47-5.5c1.15,0,2.75.59,2.75,2a1,1,0,0,1-1,1.06,0.63,0.63,0,0,1-.7-0.63c0-.16,0-0.32,0-0.49a1.09,1.09,0,0,0-1.3-1.06c-2.16,0-3.38,3.13-3.38,4.89a2.32,2.32,0,0,0,2.34,2.45,5,5,0,0,0,3.15-1.44Z"/><path class="cls-3" d="M255.94,160.62a5.8,5.8,0,0,1-4.1,1.83,3.43,3.43,0,0,1-3.63-3.53,5.61,5.61,0,0,1,5.47-5.5c1.15,0,2.75.59,2.75,2a1,1,0,0,1-1,1.06,0.63,0.63,0,0,1-.7-0.63c0-.16,0-0.32,0-0.49a1.09,1.09,0,0,0-1.3-1.06c-2.16,0-3.38,3.13-3.38,4.89a2.32,2.32,0,0,0,2.34,2.45,5,5,0,0,0,3.15-1.44Z"/><path class="cls-3" d="M265.13,160.76a7.48,7.48,0,0,1-4.43,1.69c-2,0-3.87-1.22-3.87-3.36a5.69,5.69,0,0,1,1.92-4,6.64,6.64,0,0,1,4.25-1.66c1.19,0,3,.5,3,2,0,2.46-5.25,3-7.2,3a3.58,3.58,0,0,0-.13.88,2.31,2.31,0,0,0,2.61,2.34,6.07,6.07,0,0,0,3.38-1.35Zm-6.17-3c1.57,0,5.31-.34,5.31-2.34a1.43,1.43,0,0,0-1.64-1.31C260.76,154.07,259.41,156.1,259,157.72Z"/><path class="cls-3" d="M269.07,157.83A2,2,0,0,1,267.8,156,2.4,2.4,0,0,1,269,154.1a4.5,4.5,0,0,1,2.48-.68,6.66,6.66,0,0,1,3,.63,1.26,1.26,0,0,1,.83,1,0.72,0.72,0,0,1-.77.74,1.11,1.11,0,0,1-1-.63,1.82,1.82,0,0,0-.74-0.74,2.42,2.42,0,0,0-1.22-.31,1.59,1.59,0,0,0-1.83,1.4,1.15,1.15,0,0,0,.59,1,9.72,9.72,0,0,0,1.76.63c1.21,0.38,2.81.77,2.81,2.32a2.77,2.77,0,0,1-1.46,2.28,5.44,5.44,0,0,1-2.81.72,6.36,6.36,0,0,1-3-.74,1.59,1.59,0,0,1-1-1.17,0.83,0.83,0,0,1,.83-0.79c1.53,0,1,2,3.35,2a2.76,2.76,0,0,0,1.55-.43,1.59,1.59,0,0,0,.74-1.22c0-.92-0.86-1.19-1.6-1.42Z"/><path class="cls-3" d="M278.79,157.83a2,2,0,0,1-1.28-1.78,2.4,2.4,0,0,1,1.17-1.94,4.5,4.5,0,0,1,2.48-.68,6.66,6.66,0,0,1,3,.63,1.26,1.26,0,0,1,.83,1,0.72,0.72,0,0,1-.77.74,1.11,1.11,0,0,1-1-.63,1.82,1.82,0,0,0-.74-0.74,2.42,2.42,0,0,0-1.22-.31,1.59,1.59,0,0,0-1.83,1.4,1.15,1.15,0,0,0,.59,1,9.72,9.72,0,0,0,1.76.63c1.21,0.38,2.81.77,2.81,2.32a2.77,2.77,0,0,1-1.46,2.28,5.44,5.44,0,0,1-2.81.72,6.36,6.36,0,0,1-3-.74,1.59,1.59,0,0,1-1-1.17,0.83,0.83,0,0,1,.83-0.79c1.53,0,1,2,3.35,2a2.76,2.76,0,0,0,1.55-.43,1.59,1.59,0,0,0,.74-1.22c0-.92-0.86-1.19-1.6-1.42Z"/><path class="cls-3" d="M295.07,153.6h2.54l-0.09.54H295L294.1,159a7.88,7.88,0,0,0-.18,1.46,1,1,0,0,0,1,1.19,2.73,2.73,0,0,0,1.75-.81l0.4,0.45a4,4,0,0,1-2.75,1.13c-1,0-2.16-.32-2.16-1.51a9.79,9.79,0,0,1,.22-1.6l0.92-5.2H291.8l0.09-.54c2.12-.07,2.7-1.35,3.08-3.24h0.67Z"/><path class="cls-3" d="M301.3,162.45a3.49,3.49,0,0,1-3.8-3.67,5.69,5.69,0,0,1,1.51-3.71,5,5,0,0,1,3.85-1.66,3.52,3.52,0,0,1,3.76,3.71A5.3,5.3,0,0,1,301.3,162.45Zm0.09-.85a2.85,2.85,0,0,0,2.66-1.78,8.2,8.2,0,0,0,.72-3.13,3,3,0,0,0-.56-1.92,2.12,2.12,0,0,0-1.49-.5c-2.43,0-3.36,3.06-3.36,5C299.36,160.65,299.91,161.61,301.39,161.61Z"/><path class="cls-3" d="M321.23,159.68a3.29,3.29,0,0,0-.11.74,1,1,0,0,0,1,1,1.79,1.79,0,0,0,1.26-.67l0.41,0.38a3.58,3.58,0,0,1-2.57,1.31,1.75,1.75,0,0,1-1.76-1.92v-0.23h0a4.25,4.25,0,0,1-3.6,2.16c-2,0-3.09-1.47-3.09-3.38,0-2.77,2.16-5.65,5.09-5.65a3.65,3.65,0,0,1,2.66,1.06l0.16-.88h1.66Zm-3-5.42c-2.43,0-3.72,3.2-3.72,5.25,0,1.08.49,2.09,1.71,2.09,1.39,0,2.54-1.31,3.08-2.46a17.13,17.13,0,0,0,1-3.9A2.66,2.66,0,0,0,318.25,154.27Z"/><path class="cls-3" d="M326.22,159.16a6.27,6.27,0,0,0-.16,1.19v0.09a1,1,0,0,0,1,1,1.88,1.88,0,0,0,1.26-.68l0.41,0.38a3.58,3.58,0,0,1-2.72,1.29,1.65,1.65,0,0,1-1.64-1.75,6.94,6.94,0,0,1,.16-1.37l1.26-7.18a3.74,3.74,0,0,0,.07-0.63c0-.79-0.56-0.83-1.29-0.94l0.09-.54a9.55,9.55,0,0,0,2.54-.65h0.7Z"/><path class="cls-3" d="M331.26,159.16a6.27,6.27,0,0,0-.16,1.19v0.09a1,1,0,0,0,1,1,1.88,1.88,0,0,0,1.26-.68l0.41,0.38a3.58,3.58,0,0,1-2.72,1.29,1.65,1.65,0,0,1-1.64-1.75,6.94,6.94,0,0,1,.16-1.37l1.26-7.18a3.74,3.74,0,0,0,.07-0.63c0-.79-0.56-0.83-1.29-0.94l0.09-.54a9.55,9.55,0,0,0,2.54-.65H333Z"/><path class="cls-3" d="M150.32,184.15a4,4,0,0,1-1.76,3.06,6.19,6.19,0,0,1-3.54,1.08,5,5,0,0,1-2.34-.49,1.15,1.15,0,0,1-.72-0.9,0.83,0.83,0,0,1,.94-0.74c1.17,0,.68,1.48,2.48,1.48a3.07,3.07,0,0,0,2.19-1,4.75,4.75,0,0,0,1.12-2.57l0.27-1.48a6.29,6.29,0,0,1-4,1.83,1.84,1.84,0,0,1-2.12-1.83l0-.65,0.07-.58,0.59-3.36a3.35,3.35,0,0,0,.07-0.61c0-.76-0.54-0.86-1.28-0.86l0.09-.54,0.54-.05,1.92-.36h0.7l-1,5.81a8,8,0,0,0-.13.92,1.1,1.1,0,0,0,1.15,1.19,5.66,5.66,0,0,0,3.51-1.64l1.12-6.28h1.64Z"/><path class="cls-3" d="M156.64,184.45a3.49,3.49,0,0,1-3.8-3.67,5.69,5.69,0,0,1,1.51-3.71,5,5,0,0,1,3.85-1.66,3.52,3.52,0,0,1,3.76,3.71A5.3,5.3,0,0,1,156.64,184.45Zm0.09-.85a2.85,2.85,0,0,0,2.66-1.78,8.21,8.21,0,0,0,.72-3.13,3,3,0,0,0-.56-1.92,2.12,2.12,0,0,0-1.49-.5c-2.43,0-3.36,3.06-3.36,5C154.7,182.65,155.25,183.61,156.73,183.61Z"/><path class="cls-3" d="M171.27,181.3a8.7,8.7,0,0,0-.14,1.17,1,1,0,0,0,.94,1,1.8,1.8,0,0,0,1.24-.65l0.43,0.36a3.43,3.43,0,0,1-2.54,1.28,1.7,1.7,0,0,1-1.82-1.64,6,6,0,0,1-3.9,1.64c-1.12,0-2.07-.5-2.07-1.73a7.11,7.11,0,0,1,.14-1.22l0.58-3.33a2.81,2.81,0,0,0,.09-0.67,0.8,0.8,0,0,0-.83-0.83l-0.41-.07,0.09-.54,2.52-.47h0.61l-1,5.92a4.16,4.16,0,0,0-.09.81v0.13a1.09,1.09,0,0,0,1.19,1.08,5.71,5.71,0,0,0,3.22-1.42l1.17-6.51h1.64Z"/><path class="cls-3" d="M177.15,176.72l0,0a4.48,4.48,0,0,1,2.88-1.33,1,1,0,0,1,1.13.85,1,1,0,0,1-1.15.94c-0.7,0-.92-0.5-1.48-0.5-1.46,0-1.82,2.16-2,3.24l-0.76,4.37h-1.64l1.1-6.28a3.79,3.79,0,0,0,.09-0.63c0-.7-0.59-0.81-1.24-0.85l0.09-.54,2.52-.41h0.65Z"/><path class="cls-3" d="M189.49,177.78l0,0a4.27,4.27,0,0,1,3.71-2.39,3.06,3.06,0,0,1,3.08,3.35,6.05,6.05,0,0,1-1.37,3.83,4.91,4.91,0,0,1-3.63,1.85,3.7,3.7,0,0,1-2.79-1.21l-0.67,1.06h-1.13l1.76-10.08a3.74,3.74,0,0,0,.07-0.61v0a0.91,0.91,0,0,0-1.06-1h-0.22l0.09-.54a7.13,7.13,0,0,0,2.72-.65h0.52Zm1.26,5.83c2.54,0,3.74-3.18,3.74-5.31a1.76,1.76,0,0,0-1.64-2c-1.51,0-2.63,1.37-3.22,2.61a15.64,15.64,0,0,0-1,3.72A2.7,2.7,0,0,0,190.75,183.61Z"/><path class="cls-3" d="M205.81,181.3a8.7,8.7,0,0,0-.14,1.17,1,1,0,0,0,.94,1,1.8,1.8,0,0,0,1.24-.65l0.43,0.36a3.43,3.43,0,0,1-2.54,1.28,1.7,1.7,0,0,1-1.82-1.64,6,6,0,0,1-3.9,1.64c-1.12,0-2.07-.5-2.07-1.73a7.11,7.11,0,0,1,.14-1.22l0.58-3.33a2.81,2.81,0,0,0,.09-0.67,0.8,0.8,0,0,0-.83-0.83l-0.41-.07,0.09-.54,2.52-.47h0.61l-1,5.92a4.16,4.16,0,0,0-.09.81v0.13a1.09,1.09,0,0,0,1.19,1.08,5.71,5.71,0,0,0,3.22-1.42l1.17-6.51h1.64Z"/><path class="cls-3" d="M210.78,179.83A2,2,0,0,1,209.5,178a2.4,2.4,0,0,1,1.17-1.94,4.5,4.5,0,0,1,2.48-.68,6.66,6.66,0,0,1,3,.63,1.26,1.26,0,0,1,.83,1,0.72,0.72,0,0,1-.77.74,1.11,1.11,0,0,1-1-.63,1.82,1.82,0,0,0-.74-0.74,2.42,2.42,0,0,0-1.22-.31,1.59,1.59,0,0,0-1.83,1.4,1.15,1.15,0,0,0,.59,1,9.73,9.73,0,0,0,1.76.63c1.21,0.38,2.81.77,2.81,2.32a2.77,2.77,0,0,1-1.46,2.28,5.44,5.44,0,0,1-2.81.72,6.36,6.36,0,0,1-3-.74,1.6,1.6,0,0,1-1-1.17,0.83,0.83,0,0,1,.83-0.79c1.53,0,1,2,3.35,2a2.76,2.76,0,0,0,1.55-.43,1.59,1.59,0,0,0,.74-1.22c0-.92-0.86-1.19-1.6-1.42Z"/><path class="cls-3" d="M220.58,181.86a3.15,3.15,0,0,0-.07.59,0.93,0.93,0,0,0,1,1,2,2,0,0,0,1.22-.61l0.41,0.36a3.47,3.47,0,0,1-2.57,1.24,1.62,1.62,0,0,1-1.69-1.76,4.34,4.34,0,0,1,.09-0.83l0.65-3.71a3.36,3.36,0,0,0,.09-0.61c0-.74-0.54-0.86-1.17-1h-0.13l0.09-.54,0.74-.09a11.34,11.34,0,0,0,1.89-.36h0.59Zm0.63-7.3a0.86,0.86,0,0,1-.83-0.94,1.32,1.32,0,0,1,1.24-1.24,0.85,0.85,0,0,1,.94.86A1.35,1.35,0,0,1,221.21,174.56Z"/><path class="cls-3" d="M225.14,184.31H223.5l1.1-6.24a4.16,4.16,0,0,0,.07-0.67c0-.7-0.59-0.81-1.24-0.85l0.09-.54,2.52-.41h0.65l-0.23,1.29a6.56,6.56,0,0,1,3.74-1.48c1.12,0,2.19.5,2.19,1.76a7.17,7.17,0,0,1-.13,1.06l-0.65,3.56a4,4,0,0,0-.09.79,1,1,0,0,0,.86,1,1.87,1.87,0,0,0,1.21-.61l0.36,0.4a3.25,3.25,0,0,1-2.41,1.12,1.6,1.6,0,0,1-1.67-1.6v0a11.11,11.11,0,0,1,.25-1.73l0.5-2.86a6.43,6.43,0,0,0,.11-0.85,1.16,1.16,0,0,0-1.26-1.12,5.75,5.75,0,0,0-3.17,1.44Z"/><path class="cls-3" d="M242.46,182.76a7.48,7.48,0,0,1-4.43,1.69c-2,0-3.87-1.22-3.87-3.36a5.69,5.69,0,0,1,1.92-4,6.64,6.64,0,0,1,4.25-1.66c1.19,0,3,.5,3,2,0,2.46-5.25,3-7.2,3a3.58,3.58,0,0,0-.13.88,2.31,2.31,0,0,0,2.61,2.34,6.07,6.07,0,0,0,3.38-1.35Zm-6.17-3c1.57,0,5.31-.34,5.31-2.34a1.43,1.43,0,0,0-1.64-1.31C238.09,176.07,236.74,178.1,236.29,179.72Z"/><path class="cls-3" d="M246.4,179.83a2,2,0,0,1-1.28-1.78,2.4,2.4,0,0,1,1.17-1.94,4.5,4.5,0,0,1,2.48-.68,6.66,6.66,0,0,1,3,.63,1.26,1.26,0,0,1,.83,1,0.72,0.72,0,0,1-.77.74,1.11,1.11,0,0,1-1-.63,1.82,1.82,0,0,0-.74-0.74,2.42,2.42,0,0,0-1.22-.31,1.59,1.59,0,0,0-1.83,1.4,1.15,1.15,0,0,0,.59,1,9.73,9.73,0,0,0,1.76.63c1.21,0.38,2.81.77,2.81,2.32a2.77,2.77,0,0,1-1.46,2.28,5.44,5.44,0,0,1-2.81.72,6.36,6.36,0,0,1-3-.74,1.6,1.6,0,0,1-1-1.17,0.83,0.83,0,0,1,.83-0.79c1.53,0,1,2,3.35,2a2.76,2.76,0,0,0,1.55-.43,1.59,1.59,0,0,0,.74-1.22c0-.92-0.86-1.19-1.6-1.42Z"/><path class="cls-3" d="M256.12,179.83a2,2,0,0,1-1.28-1.78A2.4,2.4,0,0,1,256,176.1a4.5,4.5,0,0,1,2.48-.68,6.66,6.66,0,0,1,3,.63,1.26,1.26,0,0,1,.83,1,0.72,0.72,0,0,1-.77.74,1.11,1.11,0,0,1-1-.63,1.82,1.82,0,0,0-.74-0.74,2.42,2.42,0,0,0-1.22-.31,1.59,1.59,0,0,0-1.83,1.4,1.15,1.15,0,0,0,.59,1,9.73,9.73,0,0,0,1.76.63c1.21,0.38,2.81.77,2.81,2.32a2.77,2.77,0,0,1-1.46,2.28,5.44,5.44,0,0,1-2.81.72,6.36,6.36,0,0,1-3-.74,1.6,1.6,0,0,1-1-1.17,0.83,0.83,0,0,1,.83-0.79c1.53,0,1,2,3.35,2a2.76,2.76,0,0,0,1.55-.43,1.59,1.59,0,0,0,.74-1.22c0-.92-0.86-1.19-1.6-1.42Z"/><path class="cls-3" d="M280,183.17a3.76,3.76,0,0,1-2.66,1.28,1.65,1.65,0,0,1-1.76-1.66l0.05-.68a4.59,4.59,0,0,1-3.83,2.34c-2.05,0-3.13-1.51-3.13-3.44a6.21,6.21,0,0,1,1.51-3.9,5,5,0,0,1,3.74-1.69,3.94,3.94,0,0,1,2.73,1.1l0.41-2.36a3.78,3.78,0,0,0,.09-0.63c0-.77-0.63-0.86-1.28-0.94h-0.18l0.11-.54a7.81,7.81,0,0,0,2.63-.65h0.75l-1.73,9.8a7.9,7.9,0,0,0-.16,1.31,0.87,0.87,0,0,0,.94,1,1.75,1.75,0,0,0,1.33-.67Zm-3.53-5.86a2.7,2.7,0,0,0-2.16-1c-2.59,0-3.8,3.18-3.8,5.34a1.72,1.72,0,0,0,1.75,2,3.89,3.89,0,0,0,3-2.21,13.07,13.07,0,0,0,1.13-3.74Z"/><path class="cls-3" d="M288.85,181.68a3.34,3.34,0,0,0-.11.74,1,1,0,0,0,1,1,1.79,1.79,0,0,0,1.26-.67l0.41,0.38a3.57,3.57,0,0,1-2.57,1.31,1.76,1.76,0,0,1-1.76-1.92v-0.23h0a4.25,4.25,0,0,1-3.6,2.16c-2,0-3.09-1.47-3.09-3.38,0-2.77,2.16-5.65,5.09-5.65a3.65,3.65,0,0,1,2.66,1.06l0.16-.88h1.66Zm-3-5.42c-2.43,0-3.72,3.2-3.72,5.25,0,1.08.49,2.09,1.71,2.09,1.38,0,2.54-1.31,3.08-2.46a17.13,17.13,0,0,0,1-3.9A2.66,2.66,0,0,0,285.86,176.27Z"/><path class="cls-3" d="M295.07,175.6h2.54l-0.09.54H295L294.1,181a7.88,7.88,0,0,0-.18,1.46,1,1,0,0,0,1,1.19,2.73,2.73,0,0,0,1.75-.81l0.4,0.45a4,4,0,0,1-2.75,1.13c-1,0-2.16-.32-2.16-1.51a9.79,9.79,0,0,1,.22-1.6l0.92-5.2H291.8l0.09-.54c2.12-.07,2.7-1.35,3.08-3.24h0.67Z"/><path class="cls-3" d="M306.12,181.68a3.29,3.29,0,0,0-.11.74,1,1,0,0,0,1,1,1.79,1.79,0,0,0,1.26-.67l0.41,0.38a3.58,3.58,0,0,1-2.57,1.31,1.75,1.75,0,0,1-1.76-1.92v-0.23h0a4.25,4.25,0,0,1-3.6,2.16c-2,0-3.09-1.47-3.09-3.38,0-2.77,2.16-5.65,5.09-5.65a3.65,3.65,0,0,1,2.66,1.06l0.16-.88h1.66Zm-3-5.42c-2.43,0-3.72,3.2-3.72,5.25,0,1.08.49,2.09,1.71,2.09,1.39,0,2.54-1.31,3.08-2.46a17.13,17.13,0,0,0,1-3.9A2.66,2.66,0,0,0,303.13,176.27Z"/><rect class="cls-5" x="42.96" y="128.61" width="77.54" height="61.7" rx="7" ry="7"/><rect class="cls-5" x="50.86" y="136.32" width="61.74" height="42.36"/><polygon class="cls-5" points="91.44 204.14 72.01 204.14 73.39 190.31 90.07 190.31 91.44 204.14"/><rect class="cls-6" x="65.61" y="204.14" width="32.23" height="3.24"/><rect class="cls-5" x="57.54" y="152.97" width="4.09" height="8.4"/><rect class="cls-5" x="64.64" y="150.81" width="4.09" height="10.56"/><rect class="cls-5" x="71.74" y="148.65" width="4.09" height="12.72"/><rect class="cls-5" x="78.84" y="146.49" width="4.09" height="14.88"/><circle class="cls-5" cx="97.84" cy="153.93" r="5.48"/><polyline class="cls-5" points="97.84 148.45 97.84 153.93 103.32 153.93"/><line class="cls-5" x1="57.54" y1="167.11" x2="103.32" y2="167.11"/><line class="cls-5" x1="57.54" y1="170.62" x2="103.32" y2="170.62"/></svg>