<?xml version="1.0" encoding="utf-8"?>
<!-- Generator: Adobe Illustrator 19.2.1, SVG Export Plug-In . SVG Version: 6.00 Build 0)  -->
<svg version="1.1" id="Layer_1" xmlns="http://www.w3.org/2000/svg" xmlns:xlink="http://www.w3.org/1999/xlink" x="0px" y="0px"
	 viewBox="0 0 1041 146" style="enable-background:new 0 0 1041 146;" xml:space="preserve">
<style type="text/css">
	.st0{fill:#FFFFFF;}
	.st1{fill:#636569;}
	.st2{fill:#FFFFFF;stroke:#65656A;stroke-width:1.5503;stroke-linejoin:round;stroke-miterlimit:10;}
	.st3{fill:none;stroke:#65656A;stroke-width:1.5503;stroke-linejoin:round;stroke-miterlimit:10;}
	.st4{fill:none;stroke:#65656A;stroke-width:1.4861;stroke-linejoin:round;stroke-miterlimit:10;}
</style>
<title>01-benefits-of</title>
<g>
	<rect x="10.6" y="10.8" class="st0" width="1019.5" height="124.9"/>
	<g>
		<path class="st1" d="M69.7,62.1L69.6,63c-2.2,0.3-3.2,1.2-4.8,2.6l-6.3,7.6L57.5,78c-0.1,0.4-0.1,0.6-0.1,1c0,0.4,0.1,0.9,0.4,1.2
			c0.4,0.6,0.9,0.7,1.5,0.7l0.6,0.1l-0.2,0.9h-8.7l0.1-0.9l0.3,0c0.9,0,1.5-0.1,2.1-0.7c0.7-0.7,0.8-1.5,1-2.4l0.8-4.1l-4.1-8.5
			c-0.7-1.4-0.8-1.7-2.5-2.1l0.1-0.9h7.8L56.6,63c-0.9,0.1-2.1,0.3-2.1,1.4c0,0.4,0.2,0.8,0.3,1.1l3,6.5l5.5-6.6
			c0.3-0.4,0.6-0.8,0.6-1.4c0-0.8-1.1-1.1-1.8-1.1l0.1-0.9H69.7z"/>
		<path class="st1" d="M73.4,82c-3.6,0-6.1-2.2-6.1-5.9c0-2.1,1-4.4,2.4-6c1.6-1.8,3.8-2.7,6.2-2.7c3.6,0,6,2.3,6,6
			C82,78.2,78.2,82,73.4,82z M73.5,80.7c2,0,3.4-1.1,4.3-2.9c0.7-1.4,1.2-3.5,1.2-5c0-1-0.2-2.3-0.9-3.1c-0.5-0.6-1.6-0.8-2.4-0.8
			c-3.9,0-5.4,4.9-5.4,8.1C70.3,79.2,71.2,80.7,73.5,80.7z"/>
		<path class="st1" d="M96.9,77c-0.1,0.5-0.2,1.3-0.2,1.9c0,0.8,0.6,1.6,1.5,1.6c0.8,0,1.5-0.5,2-1l0.7,0.6c-1,1.2-2.5,2.1-4.1,2.1
			c-1.7,0-2.7-1-2.9-2.6c-1.7,1.5-3.9,2.6-6.3,2.6c-1.8,0-3.3-0.8-3.3-2.8c0-0.7,0.1-1.3,0.2-2l0.9-5.4c0.1-0.4,0.1-0.7,0.1-1.1
			c0-0.9-0.5-1.2-1.3-1.3l-0.7-0.1l0.1-0.9l4.1-0.8h1l-1.6,9.5C87,77.8,87,78.2,87,78.6v0.2c0.1,1.1,0.8,1.7,1.9,1.7
			c1.9,0,3.7-1.2,5.2-2.3l1.9-10.5h2.6L96.9,77z"/>
		<path class="st1" d="M123.4,77.6c-0.1,0.4-0.2,0.8-0.2,1.2c0,0.9,0.7,1.6,1.6,1.6c0.8,0,1.5-0.5,2-1.1l0.7,0.6
			c-0.8,1.2-2.8,2.1-4.1,2.1c-1.8,0-2.8-1.4-2.8-3.1v-0.4h-0.1c-1.4,2-3.2,3.5-5.8,3.5c-3.2,0-5-2.4-5-5.4c0-4.5,3.5-9.1,8.2-9.1
			c1.5,0,3.2,0.5,4.3,1.7l0.3-1.4h2.7L123.4,77.6z M118.6,68.9c-3.9,0-6,5.2-6,8.5c0,1.7,0.8,3.4,2.8,3.4c2.2,0,4.1-2.1,4.9-4
			c0.9-2,1.3-4.2,1.7-6.3C121.2,69.4,119.9,68.9,118.6,68.9z"/>
		<path class="st1" d="M131.4,76.8c-0.1,0.5-0.3,1.3-0.3,1.9v0.1c0.1,1,0.7,1.6,1.6,1.6c0.8,0,1.5-0.5,2-1.1l0.7,0.6
			c-1.1,1.3-2.7,2.1-4.4,2.1c-1.6,0-2.6-1.3-2.6-2.8c0-0.7,0.1-1.5,0.3-2.2l2-11.5c0.1-0.3,0.1-0.7,0.1-1c0-1.3-0.9-1.3-2.1-1.5
			l0.1-0.9c1.4-0.2,2.8-0.5,4.1-1h1.1L131.4,76.8z"/>
		<path class="st1" d="M139.7,74.6c-1.2-0.6-2.1-1.5-2.1-2.9c0-1.3,0.8-2.4,1.9-3.1c1.2-0.8,2.6-1.1,4-1.1c1.5,0,3.4,0.3,4.7,1
			c0.6,0.3,1.3,0.8,1.3,1.6c0,0.7-0.5,1.2-1.2,1.2c-0.8,0-1.2-0.4-1.6-1c-0.4-0.6-0.5-0.8-1.2-1.2c-0.6-0.3-1.3-0.5-2-0.5
			c-1.4,0-3,0.6-3,2.3c0,0.7,0.3,1.2,1,1.6c0.7,0.4,2.1,0.8,2.8,1c1.9,0.6,4.5,1.2,4.5,3.7c0,1.6-1,2.9-2.3,3.7
			c-1.3,0.8-3,1.2-4.5,1.2c-1.7,0-3.4-0.4-4.9-1.2c-0.7-0.3-1.6-1-1.6-1.9c0-0.7,0.6-1.3,1.3-1.3c2.5,0,1.6,3.2,5.4,3.2
			c0.8,0,1.8-0.2,2.5-0.7c0.6-0.4,1.2-1.2,1.2-2c0-1.5-1.4-1.9-2.6-2.3L139.7,74.6z"/>
		<path class="st1" d="M157.3,82c-3.6,0-6.1-2.2-6.1-5.9c0-2.1,1-4.4,2.4-6c1.6-1.8,3.8-2.7,6.2-2.7c3.6,0,6,2.3,6,6
			C165.9,78.2,162.1,82,157.3,82z M157.5,80.7c2,0,3.4-1.1,4.3-2.9c0.7-1.4,1.2-3.5,1.2-5c0-1-0.2-2.3-0.9-3.1
			c-0.5-0.6-1.6-0.8-2.4-0.8c-3.9,0-5.4,4.9-5.4,8.1C154.2,79.2,155.1,80.7,157.5,80.7z"/>
		<path class="st1" d="M181.1,69.6L181.1,69.6c1.3-1.1,3-2.1,4.7-2.1c0.8,0,1.8,0.3,1.8,1.4c0,1-0.9,1.5-1.9,1.5
			c-1.1,0-1.5-0.8-2.4-0.8c-2.3,0-2.9,3.5-3.2,5.2l-1.2,7h-2.6l1.8-10.1c0.1-0.3,0.1-0.7,0.1-1c0-1.1-1-1.3-2-1.4l0.1-0.9l4.1-0.7h1
			L181.1,69.6z"/>
		<path class="st1" d="M200.5,79.3c-1.9,1.5-4.6,2.7-7.1,2.7c-3.2,0-6.2-2-6.2-5.4c0-2.4,1.3-4.9,3.1-6.5c1.8-1.6,4.4-2.7,6.8-2.7
			c1.9,0,4.8,0.8,4.8,3.2c0,4-8.5,4.7-11.6,4.8c-0.1,0.5-0.2,0.9-0.2,1.4c0,2.5,1.8,3.8,4.2,3.8c2.1,0,3.7-1,5.4-2.2L200.5,79.3z
			 M190.5,74.4c2.5-0.1,8.5-0.5,8.5-3.8c0-1.5-1.3-2.1-2.6-2.1C193.4,68.6,191.3,71.8,190.5,74.4z"/>
		<path class="st1" d="M215.2,79.1c-1.5,1.8-4.3,3-6.6,3c-3.4,0-5.8-2.3-5.8-5.7c0-4.7,4.1-8.9,8.8-8.9c1.9,0,4.4,1,4.4,3.2
			c0,1-0.7,1.7-1.6,1.7c-0.6,0-1.1-0.3-1.1-1c0-0.3,0-0.5,0-0.8c0-1.2-0.9-1.7-2.1-1.7c-3.5,0-5.4,5-5.4,7.9c0,2.2,1.5,3.9,3.8,3.9
			c1.9,0,3.7-1.1,5.1-2.3L215.2,79.1z"/>
		<path class="st1" d="M230,79.3c-1.9,1.5-4.6,2.7-7.1,2.7c-3.2,0-6.2-2-6.2-5.4c0-2.4,1.3-4.9,3.1-6.5c1.8-1.6,4.4-2.7,6.8-2.7
			c1.9,0,4.8,0.8,4.8,3.2c0,4-8.5,4.7-11.6,4.8c-0.1,0.5-0.2,0.9-0.2,1.4c0,2.5,1.8,3.8,4.2,3.8c2.1,0,3.7-1,5.4-2.2L230,79.3z
			 M220.1,74.4c2.5-0.1,8.5-0.5,8.5-3.8c0-1.5-1.3-2.1-2.6-2.1C223,68.6,220.8,71.8,220.1,74.4z"/>
		<path class="st1" d="M236.5,77.9c-0.1,0.3-0.1,0.6-0.1,1c0,1,0.6,1.6,1.6,1.6c0.8,0,1.4-0.5,2-1l0.7,0.6c-0.9,1.2-2.6,2-4.1,2
			c-1.7,0-2.7-1.2-2.7-2.8c0-0.5,0.1-0.9,0.1-1.3l1-6c0.1-0.3,0.1-0.6,0.1-1c0-1.2-0.9-1.4-1.9-1.5h-0.2l0.1-0.9l1.2-0.1
			c1-0.1,2.1-0.3,3-0.6h1L236.5,77.9z M237.5,66.1c-0.8,0-1.3-0.7-1.3-1.5c0-1,1-2,2-2c0.8,0,1.5,0.5,1.5,1.4
			C239.7,65.2,238.6,66.1,237.5,66.1z"/>
		<path class="st1" d="M244.6,77.5c-0.1,0.5-0.1,0.8-0.1,1.3c0,1.4,1,1.8,2.2,1.8c3.4,0,6.3-3.4,6.3-6.7c0-3.3-2.3-2.9-2.3-4.5
			c0-1,0.8-1.8,1.8-1.8c0.8,0,1.4,0.6,1.8,1.3c0.4,0.8,0.5,1.8,0.5,2.7c0,5.3-3.2,10.5-9,10.5c-2,0-4-0.6-4-2.9c0-0.7,0.1-1.4,0.2-2
			l0.9-5.3c0.1-0.3,0.1-0.6,0.1-1c0-1-0.4-1.2-1.3-1.4l-0.7-0.1l0.1-0.9c1.4-0.1,2.9-0.3,4.2-0.7h0.9L244.6,77.5z"/>
		<path class="st1" d="M269.4,79.3c-1.9,1.5-4.6,2.7-7.1,2.7c-3.2,0-6.2-2-6.2-5.4c0-2.4,1.3-4.9,3.1-6.5c1.8-1.6,4.4-2.7,6.8-2.7
			c1.9,0,4.8,0.8,4.8,3.2c0,4-8.5,4.7-11.6,4.8c-0.1,0.5-0.2,0.9-0.2,1.4c0,2.5,1.8,3.8,4.2,3.8c2.1,0,3.7-1,5.4-2.2L269.4,79.3z
			 M259.4,74.4c2.5-0.1,8.5-0.5,8.5-3.8c0-1.5-1.3-2.1-2.6-2.1C262.3,68.6,260.2,71.8,259.4,74.4z"/>
		<path class="st1" d="M272.5,80.5c0-1.2,1-2.3,2.3-2.3c1,0,1.6,0.7,1.6,1.7c0,1.2-1.1,2.2-2.3,2.2C273.2,82,272.5,81.4,272.5,80.5z
			"/>
		<path class="st1" d="M281.2,80.5c0-1.2,1-2.3,2.3-2.3c1,0,1.6,0.7,1.6,1.7c0,1.2-1.1,2.2-2.3,2.2C281.9,82,281.2,81.4,281.2,80.5z
			"/>
		<path class="st1" d="M289.9,80.5c0-1.2,1-2.3,2.3-2.3c1,0,1.6,0.7,1.6,1.7c0,1.2-1.1,2.2-2.3,2.2C290.6,82,289.9,81.4,289.9,80.5z
			"/>
	</g>
	<g>
		<path class="st1" d="M487.9,61.7l-0.6,3.5c0,0.2,0,0.4,0,0.6v0.1c0,0.2,0.1,0.5,0.2,0.7c0.3,0.4,0.5,0.4,0.9,0.4l0.3,0l-0.1,0.5
			h-5.1l0.1-0.5c1.4-0.1,1.7-0.8,1.9-2l1.3-7.4c0-0.2,0.1-0.4,0.1-0.6c0-0.7-0.4-1.1-1.1-1.2l-0.2,0l0.1-0.5h6.4
			c1.9,0,4.1,0.2,4.1,2.7c0,2.2-1.9,3.6-4,3.7l2.1,3.6c0.6,1.1,0.8,1.4,2,1.7l-0.1,0.5h-3l-3.1-5.8H487.9z M490.3,61
			c0.9,0,2,0,2.8-0.5c0.8-0.5,1.4-1.5,1.4-2.4c0-0.7-0.4-1.3-1-1.6c-0.5-0.3-1.5-0.3-2.1-0.3c-0.5,0-1.6,0.1-2,0.4
			c-0.4,0.3-0.4,0.6-0.5,1.1L488,61H490.3z"/>
		<path class="st1" d="M505.2,66c-1.2,1-2.9,1.7-4.4,1.7c-2,0-3.9-1.2-3.9-3.4c0-1.5,0.8-3,1.9-4c1.1-1,2.7-1.7,4.2-1.7
			c1.2,0,3,0.5,3,2c0,2.5-5.3,3-7.2,3c-0.1,0.3-0.1,0.6-0.1,0.9c0,1.5,1.1,2.3,2.6,2.3c1.3,0,2.3-0.6,3.4-1.3L505.2,66z M499.1,63
			c1.6,0,5.3-0.3,5.3-2.3c0-0.9-0.8-1.3-1.6-1.3C500.9,59.3,499.5,61.4,499.1,63z"/>
		<path class="st1" d="M515.3,65c-0.1,0.2-0.1,0.5-0.1,0.7c0,0.6,0.4,1,1,1c0.5,0,1-0.3,1.3-0.7l0.4,0.4c-0.5,0.7-1.7,1.3-2.6,1.3
			c-1.1,0-1.8-0.8-1.8-1.9v-0.2h0c-0.8,1.3-2,2.2-3.6,2.2c-2,0-3.1-1.5-3.1-3.4c0-2.8,2.2-5.6,5.1-5.6c1,0,2,0.3,2.7,1.1l0.2-0.9
			h1.7L515.3,65z M512.3,59.5c-2.4,0-3.7,3.2-3.7,5.3c0,1.1,0.5,2.1,1.7,2.1c1.4,0,2.5-1.3,3.1-2.5c0.6-1.2,0.8-2.6,1-3.9
			C513.9,59.9,513.1,59.5,512.3,59.5z"/>
		<path class="st1" d="M520.3,64.4c-0.1,0.3-0.2,0.8-0.2,1.2v0.1c0,0.6,0.4,1,1,1c0.5,0,0.9-0.3,1.3-0.7l0.4,0.4
			c-0.7,0.8-1.7,1.3-2.7,1.3c-1,0-1.6-0.8-1.6-1.7c0-0.4,0.1-0.9,0.2-1.4l1.3-7.2c0-0.2,0.1-0.4,0.1-0.6c0-0.8-0.6-0.8-1.3-0.9
			l0.1-0.5c0.9-0.1,1.7-0.3,2.5-0.6h0.7L520.3,64.4z"/>
		<path class="st1" d="M523.6,61.7h4.1l-0.5,1h-4.1L523.6,61.7z"/>
		<path class="st1" d="M532.3,58.9h2.5l-0.1,0.5h-2.6l-0.9,4.9c-0.1,0.5-0.2,1-0.2,1.5c0,0.7,0.3,1.2,1,1.2c0.7,0,1.3-0.4,1.7-0.8
			l0.4,0.5c-0.7,0.7-1.7,1.1-2.8,1.1c-1,0-2.2-0.3-2.2-1.5c0-0.5,0.1-1.1,0.2-1.6l0.9-5.2H529l0.1-0.5c2.1-0.1,2.7-1.3,3.1-3.2h0.7
			L532.3,58.9z"/>
		<path class="st1" d="M537.3,65.1c0,0.2-0.1,0.4-0.1,0.6c0,0.6,0.4,1,1,1c0.5,0,0.9-0.3,1.2-0.6l0.4,0.4c-0.6,0.7-1.6,1.2-2.6,1.2
			c-1.1,0-1.7-0.7-1.7-1.8c0-0.3,0-0.5,0.1-0.8l0.6-3.7c0-0.2,0.1-0.4,0.1-0.6c0-0.7-0.5-0.9-1.2-1h-0.1l0.1-0.5l0.7-0.1
			c0.6-0.1,1.3-0.2,1.9-0.4h0.6L537.3,65.1z M538,57.8c-0.5,0-0.8-0.4-0.8-0.9c0-0.6,0.6-1.2,1.2-1.2c0.5,0,0.9,0.3,0.9,0.9
			C539.3,57.2,538.7,57.8,538,57.8z"/>
		<path class="st1" d="M541.4,61.4c0-0.3,0.1-0.4,0.1-0.7c0-0.6-0.3-0.7-0.8-0.8l-0.4-0.1l0.1-0.5c0.8-0.1,1.7-0.2,2.5-0.4h0.6
			l-0.2,0.9c1-0.6,2-1.1,3.2-1.1c0.9,0,1.9,0.3,2.2,1.3c0.9-0.7,2.2-1.3,3.4-1.3c1.1,0,2.2,0.5,2.2,1.8c0,0.4-0.1,0.8-0.1,1.2
			l-0.6,3.4c-0.1,0.3-0.1,0.6-0.1,0.9c0,0.5,0.4,0.9,0.9,0.9c0.5,0,0.8-0.2,1.1-0.5l0.3,0.4c-0.6,0.6-1.4,1-2.2,1
			c-1.1,0-1.7-0.7-1.7-1.7v-0.1c0-0.3,0.1-0.8,0.1-1.1l0.6-3.5c0-0.2,0.1-0.4,0.1-0.6c0-0.8-0.5-1.1-1.3-1.1c-0.8,0-1.9,0.5-2.6,1
			l-1.2,7h-1.6l1-5.6c0.1-0.3,0.2-1,0.2-1.3v0c0-0.8-0.5-1-1.3-1c-0.8,0-1.9,0.5-2.6,1l-1.2,7h-1.6L541.4,61.4z"/>
		<path class="st1" d="M563.9,66c-1.2,1-2.9,1.7-4.4,1.7c-2,0-3.9-1.2-3.9-3.4c0-1.5,0.8-3,1.9-4c1.1-1,2.7-1.7,4.2-1.7
			c1.2,0,3,0.5,3,2c0,2.5-5.3,3-7.2,3c-0.1,0.3-0.1,0.6-0.1,0.9c0,1.5,1.1,2.3,2.6,2.3c1.3,0,2.3-0.6,3.4-1.3L563.9,66z M557.7,63
			c1.6,0,5.3-0.3,5.3-2.3c0-0.9-0.8-1.3-1.6-1.3C559.5,59.3,558.2,61.4,557.7,63z"/>
		<path class="st1" d="M579.3,65c-0.1,0.2-0.1,0.5-0.1,0.7c0,0.6,0.4,1,1,1c0.5,0,1-0.3,1.3-0.7l0.4,0.4c-0.5,0.7-1.7,1.3-2.6,1.3
			c-1.1,0-1.8-0.8-1.8-1.9v-0.2h0c-0.8,1.3-2,2.2-3.6,2.2c-2,0-3.1-1.5-3.1-3.4c0-2.8,2.2-5.6,5.1-5.6c1,0,2,0.3,2.7,1.1l0.2-0.9
			h1.7L579.3,65z M576.3,59.5c-2.4,0-3.7,3.2-3.7,5.3c0,1.1,0.5,2.1,1.7,2.1c1.4,0,2.5-1.3,3.1-2.5c0.6-1.2,0.8-2.6,1-3.9
			C578,59.9,577.1,59.5,576.3,59.5z"/>
		<path class="st1" d="M589.6,65.9c-0.9,1.1-2.7,1.8-4.1,1.8c-2.1,0-3.6-1.4-3.6-3.5c0-3,2.5-5.5,5.5-5.5c1.2,0,2.8,0.6,2.8,2
			c0,0.6-0.4,1.1-1,1.1c-0.4,0-0.7-0.2-0.7-0.6c0-0.2,0-0.3,0-0.5c0-0.8-0.6-1.1-1.3-1.1c-2.2,0-3.4,3.1-3.4,4.9
			c0,1.3,0.9,2.4,2.3,2.4c1.2,0,2.3-0.7,3.1-1.4L589.6,65.9z"/>
		<path class="st1" d="M598.2,65.9c-0.9,1.1-2.7,1.8-4.1,1.8c-2.1,0-3.6-1.4-3.6-3.5c0-3,2.5-5.5,5.5-5.5c1.2,0,2.8,0.6,2.8,2
			c0,0.6-0.4,1.1-1,1.1c-0.4,0-0.7-0.2-0.7-0.6c0-0.2,0-0.3,0-0.5c0-0.8-0.6-1.1-1.3-1.1c-2.2,0-3.4,3.1-3.4,4.9
			c0,1.3,0.9,2.4,2.3,2.4c1.2,0,2.3-0.7,3.1-1.4L598.2,65.9z"/>
		<path class="st1" d="M607.4,66c-1.2,1-2.9,1.7-4.4,1.7c-2,0-3.9-1.2-3.9-3.4c0-1.5,0.8-3,1.9-4c1.1-1,2.7-1.7,4.2-1.7
			c1.2,0,3,0.5,3,2c0,2.5-5.3,3-7.2,3c-0.1,0.3-0.1,0.6-0.1,0.9c0,1.5,1.1,2.3,2.6,2.3c1.3,0,2.3-0.6,3.4-1.3L607.4,66z M601.3,63
			c1.6,0,5.3-0.3,5.3-2.3c0-0.9-0.8-1.3-1.6-1.3C603.1,59.3,601.7,61.4,601.3,63z"/>
		<path class="st1" d="M611.4,63.1c-0.7-0.4-1.3-0.9-1.3-1.8c0-0.8,0.5-1.5,1.2-1.9c0.7-0.5,1.6-0.7,2.5-0.7c1,0,2.1,0.2,3,0.6
			c0.4,0.2,0.8,0.5,0.8,1c0,0.4-0.3,0.7-0.8,0.7c-0.5,0-0.7-0.2-1-0.6c-0.3-0.4-0.3-0.5-0.7-0.7c-0.4-0.2-0.8-0.3-1.2-0.3
			c-0.9,0-1.8,0.4-1.8,1.4c0,0.4,0.2,0.8,0.6,1c0.4,0.3,1.3,0.5,1.8,0.6c1.2,0.4,2.8,0.8,2.8,2.3c0,1-0.6,1.8-1.5,2.3
			c-0.8,0.5-1.8,0.7-2.8,0.7c-1,0-2.1-0.2-3-0.7c-0.4-0.2-1-0.6-1-1.2c0-0.4,0.4-0.8,0.8-0.8c1.5,0,1,2,3.3,2c0.5,0,1.1-0.1,1.5-0.4
			c0.4-0.3,0.7-0.7,0.7-1.2c0-0.9-0.9-1.2-1.6-1.4L611.4,63.1z"/>
		<path class="st1" d="M621.1,63.1c-0.7-0.4-1.3-0.9-1.3-1.8c0-0.8,0.5-1.5,1.2-1.9c0.7-0.5,1.6-0.7,2.5-0.7c1,0,2.1,0.2,3,0.6
			c0.4,0.2,0.8,0.5,0.8,1c0,0.4-0.3,0.7-0.8,0.7c-0.5,0-0.7-0.2-1-0.6c-0.3-0.4-0.3-0.5-0.7-0.7c-0.4-0.2-0.8-0.3-1.2-0.3
			c-0.9,0-1.8,0.4-1.8,1.4c0,0.4,0.2,0.8,0.6,1c0.4,0.3,1.3,0.5,1.8,0.6c1.2,0.4,2.8,0.8,2.8,2.3c0,1-0.6,1.8-1.5,2.3
			c-0.8,0.5-1.8,0.7-2.8,0.7c-1,0-2.1-0.2-3-0.7c-0.4-0.2-1-0.6-1-1.2c0-0.4,0.4-0.8,0.8-0.8c1.5,0,1,2,3.3,2c0.5,0,1.1-0.1,1.5-0.4
			c0.4-0.3,0.7-0.7,0.7-1.2c0-0.9-0.9-1.2-1.6-1.4L621.1,63.1z"/>
		<path class="st1" d="M637.4,58.9h2.5l-0.1,0.5h-2.6l-0.9,4.9c-0.1,0.5-0.2,1-0.2,1.5c0,0.7,0.3,1.2,1,1.2c0.7,0,1.3-0.4,1.7-0.8
			l0.4,0.5c-0.7,0.7-1.7,1.1-2.8,1.1c-1,0-2.2-0.3-2.2-1.5c0-0.5,0.1-1.1,0.2-1.6l0.9-5.2h-1.5l0.1-0.5c2.1-0.1,2.7-1.3,3.1-3.2h0.7
			L637.4,58.9z"/>
		<path class="st1" d="M643.6,67.7c-2.2,0-3.8-1.4-3.8-3.7c0-1.3,0.6-2.7,1.5-3.7c1-1.1,2.3-1.7,3.8-1.7c2.2,0,3.8,1.4,3.8,3.7
			C648.9,65.4,646.6,67.7,643.6,67.7z M643.7,66.9c1.3,0,2.1-0.7,2.7-1.8c0.4-0.9,0.7-2.2,0.7-3.1c0-0.6-0.1-1.4-0.6-1.9
			c-0.3-0.4-1-0.5-1.5-0.5c-2.4,0-3.4,3.1-3.4,5C641.7,65.9,642.2,66.9,643.7,66.9z"/>
		<path class="st1" d="M663.5,65c-0.1,0.2-0.1,0.5-0.1,0.7c0,0.6,0.4,1,1,1c0.5,0,1-0.3,1.3-0.7l0.4,0.4c-0.5,0.7-1.7,1.3-2.6,1.3
			c-1.1,0-1.8-0.8-1.8-1.9v-0.2h0c-0.8,1.3-2,2.2-3.6,2.2c-2,0-3.1-1.5-3.1-3.4c0-2.8,2.2-5.6,5.1-5.6c1,0,2,0.3,2.7,1.1l0.2-0.9
			h1.7L663.5,65z M660.6,59.5c-2.4,0-3.7,3.2-3.7,5.3c0,1.1,0.5,2.1,1.7,2.1c1.4,0,2.5-1.3,3.1-2.5c0.6-1.2,0.8-2.6,1-3.9
			C662.2,59.9,661.3,59.5,660.6,59.5z"/>
		<path class="st1" d="M668.5,64.4c-0.1,0.3-0.2,0.8-0.2,1.2v0.1c0,0.6,0.4,1,1,1c0.5,0,0.9-0.3,1.3-0.7l0.4,0.4
			c-0.7,0.8-1.7,1.3-2.7,1.3c-1,0-1.6-0.8-1.6-1.7c0-0.4,0.1-0.9,0.2-1.4l1.3-7.2c0-0.2,0.1-0.4,0.1-0.6c0-0.8-0.6-0.8-1.3-0.9
			l0.1-0.5c0.9-0.1,1.7-0.3,2.5-0.6h0.7L668.5,64.4z"/>
		<path class="st1" d="M673.6,64.4c-0.1,0.3-0.2,0.8-0.2,1.2v0.1c0,0.6,0.4,1,1,1c0.5,0,0.9-0.3,1.3-0.7l0.4,0.4
			c-0.7,0.8-1.7,1.3-2.7,1.3c-1,0-1.6-0.8-1.6-1.7c0-0.4,0.1-0.9,0.2-1.4l1.3-7.2c0-0.2,0.1-0.4,0.1-0.6c0-0.8-0.6-0.8-1.3-0.9
			l0.1-0.5c0.9-0.1,1.7-0.3,2.5-0.6h0.7L673.6,64.4z"/>
		<path class="st1" d="M492.6,89.4c-0.2,1.4-0.6,2.2-1.8,3.1c-1,0.7-2.3,1.1-3.5,1.1c-0.7,0-1.7-0.1-2.3-0.5
			c-0.3-0.2-0.7-0.5-0.7-0.9c0-0.5,0.5-0.7,0.9-0.7c1.2,0,0.7,1.5,2.5,1.5c0.8,0,1.6-0.4,2.2-1c0.7-0.7,1-1.6,1.1-2.6l0.3-1.5
			c-1,1-2.6,1.8-4,1.8c-1.2,0-2.1-0.6-2.1-1.8l0-0.6l0.1-0.6l0.6-3.4c0-0.2,0.1-0.4,0.1-0.6c0-0.8-0.5-0.9-1.3-0.9l0.1-0.5l0.5-0.1
			l1.9-0.4h0.7l-1,5.8c0,0.3-0.1,0.7-0.1,0.9c0,0.7,0.4,1.2,1.2,1.2c1.2,0,2.7-0.8,3.5-1.6l1.1-6.3h1.6L492.6,89.4z"/>
		<path class="st1" d="M498.9,89.7c-2.2,0-3.8-1.4-3.8-3.7c0-1.3,0.6-2.7,1.5-3.7c1-1.1,2.3-1.7,3.8-1.7c2.2,0,3.8,1.4,3.8,3.7
			C504.3,87.4,501.9,89.7,498.9,89.7z M499,88.9c1.3,0,2.1-0.7,2.7-1.8c0.4-0.9,0.7-2.2,0.7-3.1c0-0.6-0.1-1.4-0.6-1.9
			c-0.3-0.4-1-0.5-1.5-0.5c-2.4,0-3.4,3.1-3.4,5C497,87.9,497.6,88.9,499,88.9z"/>
		<path class="st1" d="M513.6,86.6c-0.1,0.3-0.1,0.8-0.1,1.2c0,0.5,0.4,1,0.9,1c0.5,0,0.9-0.3,1.2-0.6l0.4,0.4
			c-0.6,0.7-1.5,1.3-2.5,1.3c-1,0-1.7-0.6-1.8-1.6c-1.1,1-2.4,1.6-3.9,1.6c-1.1,0-2.1-0.5-2.1-1.7c0-0.4,0.1-0.8,0.1-1.2l0.6-3.3
			c0.1-0.3,0.1-0.4,0.1-0.7c0-0.6-0.3-0.7-0.8-0.8l-0.4-0.1l0.1-0.5l2.5-0.5h0.6l-1,5.9c-0.1,0.3-0.1,0.5-0.1,0.8v0.1
			c0,0.7,0.5,1.1,1.2,1.1c1.2,0,2.3-0.7,3.2-1.4l1.2-6.5h1.6L513.6,86.6z"/>
		<path class="st1" d="M519.5,82L519.5,82c0.8-0.7,1.8-1.3,2.9-1.3c0.5,0,1.1,0.2,1.1,0.8c0,0.6-0.6,0.9-1.2,0.9
			c-0.7,0-0.9-0.5-1.5-0.5c-1.5,0-1.8,2.2-2,3.2l-0.8,4.4h-1.6l1.1-6.3c0-0.2,0.1-0.4,0.1-0.6c0-0.7-0.6-0.8-1.2-0.8l0.1-0.5
			l2.5-0.4h0.6L519.5,82z"/>
		<path class="st1" d="M531.8,83.1L531.8,83.1c0.7-1.3,2.1-2.4,3.7-2.4c2,0,3.1,1.5,3.1,3.3c0,1.4-0.5,2.8-1.4,3.8
			c-0.9,1.1-2.2,1.9-3.6,1.9c-1,0-2.1-0.4-2.8-1.2l-0.7,1.1H529l1.8-10.1c0-0.2,0.1-0.4,0.1-0.6v0c0-0.8-0.5-1-1.1-1h-0.2l0.1-0.5
			c0.9,0,1.9-0.3,2.7-0.6h0.5L531.8,83.1z M533.1,88.9c2.5,0,3.7-3.2,3.7-5.3c0-1-0.5-2-1.6-2c-1.5,0-2.6,1.4-3.2,2.6
			c-0.5,1.2-0.8,2.5-1,3.7C531.5,88.5,532.2,88.9,533.1,88.9z"/>
		<path class="st1" d="M548.1,86.6c-0.1,0.3-0.1,0.8-0.1,1.2c0,0.5,0.4,1,0.9,1c0.5,0,0.9-0.3,1.2-0.6l0.4,0.4
			c-0.6,0.7-1.5,1.3-2.5,1.3c-1,0-1.7-0.6-1.8-1.6c-1.1,1-2.4,1.6-3.9,1.6c-1.1,0-2.1-0.5-2.1-1.7c0-0.4,0.1-0.8,0.1-1.2l0.6-3.3
			c0.1-0.3,0.1-0.4,0.1-0.7c0-0.6-0.3-0.7-0.8-0.8l-0.4-0.1l0.1-0.5l2.5-0.5h0.6l-1,5.9c-0.1,0.3-0.1,0.5-0.1,0.8v0.1
			c0,0.7,0.5,1.1,1.2,1.1c1.2,0,2.3-0.7,3.2-1.4l1.2-6.5h1.6L548.1,86.6z"/>
		<path class="st1" d="M553.1,85.1c-0.7-0.4-1.3-0.9-1.3-1.8c0-0.8,0.5-1.5,1.2-1.9c0.7-0.5,1.6-0.7,2.5-0.7c1,0,2.1,0.2,3,0.6
			c0.4,0.2,0.8,0.5,0.8,1c0,0.4-0.3,0.7-0.8,0.7c-0.5,0-0.7-0.2-1-0.6c-0.3-0.4-0.3-0.5-0.7-0.7c-0.4-0.2-0.8-0.3-1.2-0.3
			c-0.9,0-1.8,0.4-1.8,1.4c0,0.4,0.2,0.8,0.6,1c0.4,0.3,1.3,0.5,1.8,0.6c1.2,0.4,2.8,0.8,2.8,2.3c0,1-0.6,1.8-1.5,2.3
			c-0.8,0.5-1.8,0.7-2.8,0.7c-1,0-2.1-0.2-3-0.7c-0.4-0.2-1-0.6-1-1.2c0-0.4,0.4-0.8,0.8-0.8c1.5,0,1,2,3.3,2c0.5,0,1.1-0.1,1.5-0.4
			c0.4-0.3,0.7-0.7,0.7-1.2c0-0.9-0.9-1.2-1.6-1.4L553.1,85.1z"/>
		<path class="st1" d="M562.9,87.1c0,0.2-0.1,0.4-0.1,0.6c0,0.6,0.4,1,1,1c0.5,0,0.9-0.3,1.2-0.6l0.4,0.4c-0.6,0.7-1.6,1.2-2.6,1.2
			c-1.1,0-1.7-0.7-1.7-1.8c0-0.3,0-0.5,0.1-0.8l0.6-3.7c0-0.2,0.1-0.4,0.1-0.6c0-0.7-0.5-0.9-1.2-1h-0.1l0.1-0.5l0.7-0.1
			c0.6-0.1,1.3-0.2,1.9-0.4h0.6L562.9,87.1z M563.5,79.8c-0.5,0-0.8-0.4-0.8-0.9c0-0.6,0.6-1.2,1.2-1.2c0.5,0,0.9,0.3,0.9,0.9
			C564.9,79.2,564.2,79.8,563.5,79.8z"/>
		<path class="st1" d="M567.4,89.6h-1.6l1.1-6.2c0-0.3,0.1-0.4,0.1-0.7c0-0.7-0.6-0.8-1.2-0.8l0.1-0.5l2.5-0.4h0.6l-0.2,1.3
			c1.1-0.8,2.3-1.5,3.7-1.5c1.1,0,2.2,0.5,2.2,1.8c0,0.4-0.1,0.7-0.1,1.1l-0.6,3.6c-0.1,0.3-0.1,0.5-0.1,0.8c0,0.4,0.4,1,0.9,1
			c0.5,0,0.9-0.3,1.2-0.6l0.4,0.4c-0.6,0.7-1.5,1.1-2.4,1.1c-0.9,0-1.7-0.7-1.7-1.6v0c0-0.6,0.1-1.2,0.3-1.7l0.5-2.9
			c0-0.3,0.1-0.6,0.1-0.8c0-0.7-0.6-1.1-1.3-1.1c-1.2,0-2.3,0.8-3.2,1.4L567.4,89.6z"/>
		<path class="st1" d="M584.8,88c-1.2,1-2.9,1.7-4.4,1.7c-2,0-3.9-1.2-3.9-3.4c0-1.5,0.8-3,1.9-4c1.1-1,2.7-1.7,4.2-1.7
			c1.2,0,3,0.5,3,2c0,2.5-5.3,3-7.2,3c-0.1,0.3-0.1,0.6-0.1,0.9c0,1.5,1.1,2.3,2.6,2.3c1.3,0,2.3-0.6,3.4-1.3L584.8,88z M578.6,85
			c1.6,0,5.3-0.3,5.3-2.3c0-0.9-0.8-1.3-1.6-1.3C580.4,81.3,579,83.4,578.6,85z"/>
		<path class="st1" d="M588.7,85.1c-0.7-0.4-1.3-0.9-1.3-1.8c0-0.8,0.5-1.5,1.2-1.9c0.7-0.5,1.6-0.7,2.5-0.7c1,0,2.1,0.2,3,0.6
			c0.4,0.2,0.8,0.5,0.8,1c0,0.4-0.3,0.7-0.8,0.7c-0.5,0-0.7-0.2-1-0.6c-0.3-0.4-0.3-0.5-0.7-0.7c-0.4-0.2-0.8-0.3-1.2-0.3
			c-0.9,0-1.8,0.4-1.8,1.4c0,0.4,0.2,0.8,0.6,1c0.4,0.3,1.3,0.5,1.8,0.6c1.2,0.4,2.8,0.8,2.8,2.3c0,1-0.6,1.8-1.5,2.3
			c-0.8,0.5-1.8,0.7-2.8,0.7c-1,0-2.1-0.2-3-0.7c-0.4-0.2-1-0.6-1-1.2c0-0.4,0.4-0.8,0.8-0.8c1.5,0,1,2,3.3,2c0.5,0,1.1-0.1,1.5-0.4
			c0.4-0.3,0.7-0.7,0.7-1.2c0-0.9-0.9-1.2-1.6-1.4L588.7,85.1z"/>
		<path class="st1" d="M598.4,85.1c-0.7-0.4-1.3-0.9-1.3-1.8c0-0.8,0.5-1.5,1.2-1.9c0.7-0.5,1.6-0.7,2.5-0.7c1,0,2.1,0.2,3,0.6
			c0.4,0.2,0.8,0.5,0.8,1c0,0.4-0.3,0.7-0.8,0.7c-0.5,0-0.7-0.2-1-0.6c-0.3-0.4-0.3-0.5-0.7-0.7c-0.4-0.2-0.8-0.3-1.2-0.3
			c-0.9,0-1.8,0.4-1.8,1.4c0,0.4,0.2,0.8,0.6,1c0.4,0.3,1.3,0.5,1.8,0.6c1.2,0.4,2.8,0.8,2.8,2.3c0,1-0.6,1.8-1.5,2.3
			c-0.8,0.5-1.8,0.7-2.8,0.7c-1,0-2.1-0.2-3-0.7c-0.4-0.2-1-0.6-1-1.2c0-0.4,0.4-0.8,0.8-0.8c1.5,0,1,2,3.3,2c0.5,0,1.1-0.1,1.5-0.4
			c0.4-0.3,0.7-0.7,0.7-1.2c0-0.9-0.9-1.2-1.6-1.4L598.4,85.1z"/>
		<path class="st1" d="M622.4,88.4c-0.6,0.7-1.7,1.3-2.7,1.3c-1,0-1.8-0.6-1.8-1.7l0.1-0.7c-0.8,1.3-2.2,2.3-3.8,2.3
			c-2.1,0-3.1-1.5-3.1-3.4c0-1.4,0.6-2.9,1.5-3.9c1-1.1,2.3-1.7,3.7-1.7c1,0,2,0.4,2.7,1.1l0.4-2.4c0-0.2,0.1-0.4,0.1-0.6
			c0-0.8-0.6-0.9-1.3-0.9h-0.2l0.1-0.5c0.9-0.1,1.8-0.3,2.6-0.6h0.8l-1.7,9.8c-0.1,0.4-0.2,0.9-0.2,1.3c0,0.6,0.4,1,0.9,1
			c0.6,0,0.9-0.3,1.3-0.7L622.4,88.4z M618.8,82.6c-0.5-0.7-1.4-1-2.2-1c-2.6,0-3.8,3.2-3.8,5.3c0,1.2,0.5,2,1.7,2
			c1.3,0,2.4-1.2,3-2.2c0.6-1.1,0.9-2.5,1.1-3.7L618.8,82.6z"/>
		<path class="st1" d="M631.2,87c-0.1,0.2-0.1,0.5-0.1,0.7c0,0.6,0.4,1,1,1c0.5,0,1-0.3,1.3-0.7l0.4,0.4c-0.5,0.7-1.7,1.3-2.6,1.3
			c-1.1,0-1.8-0.8-1.8-1.9v-0.2h0c-0.8,1.3-2,2.2-3.6,2.2c-2,0-3.1-1.5-3.1-3.4c0-2.8,2.2-5.6,5.1-5.6c1,0,2,0.3,2.7,1.1l0.2-0.9
			h1.7L631.2,87z M628.2,81.5c-2.4,0-3.7,3.2-3.7,5.3c0,1.1,0.5,2.1,1.7,2.1c1.4,0,2.5-1.3,3.1-2.5c0.6-1.2,0.8-2.6,1-3.9
			C629.8,81.9,628.9,81.5,628.2,81.5z"/>
		<path class="st1" d="M637.4,80.9h2.5l-0.1,0.5h-2.6l-0.9,4.9c-0.1,0.5-0.2,1-0.2,1.5c0,0.7,0.3,1.2,1,1.2c0.7,0,1.3-0.4,1.7-0.8
			l0.4,0.5c-0.7,0.7-1.7,1.1-2.8,1.1c-1,0-2.2-0.3-2.2-1.5c0-0.5,0.1-1.1,0.2-1.6l0.9-5.2h-1.5l0.1-0.5c2.1-0.1,2.7-1.3,3.1-3.2h0.7
			L637.4,80.9z"/>
		<path class="st1" d="M648.4,87c-0.1,0.2-0.1,0.5-0.1,0.7c0,0.6,0.4,1,1,1c0.5,0,1-0.3,1.3-0.7l0.4,0.4c-0.5,0.7-1.7,1.3-2.6,1.3
			c-1.1,0-1.8-0.8-1.8-1.9v-0.2h0c-0.8,1.3-2,2.2-3.6,2.2c-2,0-3.1-1.5-3.1-3.4c0-2.8,2.2-5.6,5.1-5.6c1,0,2,0.3,2.7,1.1l0.2-0.9
			h1.7L648.4,87z M645.4,81.5c-2.4,0-3.7,3.2-3.7,5.3c0,1.1,0.5,2.1,1.7,2.1c1.4,0,2.5-1.3,3.1-2.5c0.6-1.2,0.8-2.6,1-3.9
			C647.1,81.9,646.2,81.5,645.4,81.5z"/>
	</g>
	<g>
		<path class="st1" d="M820.6,78.6h-8.4l0.2-1.3l0.1-0.1c1.8-1,3.2-1.9,4.7-3.3c1.3-1.2,3.1-3.1,3.1-5c0-1.3-1-2-2.2-2
			c-1,0-2.8,0.6-2.8,1.8c0,0.2,0,0.3,0.1,0.5s0.2,0.3,0.2,0.5c0,0.6-0.7,1-1.2,1c-0.6,0-0.9-0.5-0.9-1c0-1.1,0.8-2.1,1.7-2.7
			c1-0.7,2.1-1.1,3.3-1.1c0.9,0,1.9,0.1,2.6,0.6c0.8,0.5,1.3,1.3,1.3,2.3c0,1.9-1.7,3.6-3.1,4.8c-1.7,1.4-3,2.1-4.8,3.1l-0.4,0.2
			h4.1c1.8,0,2.2-0.6,3.1-2.1l0.6,0.2L820.6,78.6z"/>
		<path class="st1" d="M831,74.2h2.5l-0.4,1h-2.2l-0.2,1c0,0.2-0.1,0.4-0.1,0.6c0,0.3,0.1,0.6,0.3,0.8c0.3,0.4,0.6,0.4,1,0.4l0.3,0
			l-0.1,0.5h-5.3l0.1-0.5h0.2c0.5,0,0.9-0.1,1.3-0.5c0.5-0.5,0.5-1.1,0.6-1.7l0.1-0.6h-5.6l-0.2-0.8l7.3-8.2h1.7L831,74.2z
			 M830.4,67.8l-5.8,6.4h4.7L830.4,67.8z"/>
		<path class="st1" d="M842,68.4c0-0.2,0.1-0.4,0.1-0.6c0-0.6-0.3-0.8-0.8-0.9l-0.4-0.1l0.1-0.5c0.9-0.2,1.8-0.3,2.6-0.6h0.6l-1,5.5
			c1.2-0.8,2.3-1.5,3.8-1.5c1,0,2.3,0.4,2.3,1.7c0,0.5-0.1,1.2-0.2,1.7l-0.5,2.7c-0.1,0.3-0.2,0.8-0.2,1.2c0,0.6,0.4,0.9,1,0.9
			c0.5,0,0.9-0.3,1.3-0.6l0.4,0.4c-0.6,0.7-1.6,1.2-2.5,1.2c-1.1,0-1.8-0.6-1.8-1.7c0-0.4,0.1-0.8,0.1-1.1l0.6-3.2
			c0-0.3,0.1-0.6,0.1-0.9v0c0-0.8-0.6-1.1-1.3-1.1c-1,0-2.4,0.8-3.2,1.5l-1.2,6.6h-1.7L842,68.4z"/>
		<path class="st1" d="M854.8,78.7c-2.2,0-3.8-1.4-3.8-3.7c0-1.3,0.6-2.7,1.5-3.7c1-1.1,2.3-1.7,3.8-1.7c2.2,0,3.8,1.4,3.8,3.7
			C860.1,76.4,857.8,78.7,854.8,78.7z M854.9,77.9c1.3,0,2.1-0.7,2.7-1.8c0.4-0.9,0.7-2.2,0.7-3.1c0-0.6-0.1-1.4-0.6-1.9
			c-0.3-0.4-1-0.5-1.5-0.5c-2.4,0-3.4,3.1-3.4,5C852.8,76.9,853.4,77.9,854.9,77.9z"/>
		<path class="st1" d="M869.4,75.6c-0.1,0.3-0.1,0.8-0.1,1.2c0,0.5,0.4,1,0.9,1c0.5,0,0.9-0.3,1.2-0.6l0.4,0.4
			c-0.6,0.7-1.5,1.3-2.5,1.3c-1,0-1.7-0.6-1.8-1.6c-1.1,1-2.4,1.6-3.9,1.6c-1.1,0-2.1-0.5-2.1-1.7c0-0.4,0.1-0.8,0.1-1.2l0.6-3.3
			c0.1-0.3,0.1-0.4,0.1-0.7c0-0.6-0.3-0.7-0.8-0.8l-0.4-0.1l0.1-0.5l2.5-0.5h0.6l-1,5.9c-0.1,0.3-0.1,0.5-0.1,0.8v0.1
			c0,0.7,0.5,1.1,1.2,1.1c1.2,0,2.3-0.7,3.2-1.4l1.2-6.5h1.6L869.4,75.6z"/>
		<path class="st1" d="M875.3,71L875.3,71c0.8-0.7,1.8-1.3,2.9-1.3c0.5,0,1.1,0.2,1.1,0.8c0,0.6-0.6,0.9-1.2,0.9
			c-0.7,0-0.9-0.5-1.5-0.5c-1.5,0-1.8,2.2-2,3.2l-0.8,4.4h-1.6l1.1-6.3c0-0.2,0.1-0.4,0.1-0.6c0-0.7-0.6-0.8-1.2-0.8l0.1-0.5
			l2.5-0.4h0.6L875.3,71z"/>
		<path class="st1" d="M881.6,74.1c-0.7-0.4-1.3-0.9-1.3-1.8c0-0.8,0.5-1.5,1.2-1.9c0.7-0.5,1.6-0.7,2.5-0.7c1,0,2.1,0.2,3,0.6
			c0.4,0.2,0.8,0.5,0.8,1c0,0.4-0.3,0.7-0.8,0.7c-0.5,0-0.7-0.2-1-0.6c-0.3-0.4-0.3-0.5-0.7-0.7c-0.4-0.2-0.8-0.3-1.2-0.3
			c-0.9,0-1.8,0.4-1.8,1.4c0,0.4,0.2,0.8,0.6,1c0.4,0.3,1.3,0.5,1.8,0.6c1.2,0.4,2.8,0.8,2.8,2.3c0,1-0.6,1.8-1.5,2.3
			c-0.8,0.5-1.8,0.7-2.8,0.7c-1,0-2.1-0.2-3-0.7c-0.4-0.2-1-0.6-1-1.2c0-0.4,0.4-0.8,0.8-0.8c1.5,0,1,2,3.3,2c0.5,0,1.1-0.1,1.5-0.4
			c0.4-0.3,0.7-0.7,0.7-1.2c0-0.9-0.9-1.2-1.6-1.4L881.6,74.1z"/>
		<path class="st1" d="M902.8,76c-0.1,0.2-0.1,0.5-0.1,0.7c0,0.6,0.4,1,1,1c0.5,0,1-0.3,1.3-0.7l0.4,0.4c-0.5,0.7-1.7,1.3-2.6,1.3
			c-1.1,0-1.8-0.8-1.8-1.9v-0.2h0c-0.8,1.3-2,2.2-3.6,2.2c-2,0-3.1-1.5-3.1-3.4c0-2.8,2.2-5.6,5.1-5.6c1,0,2,0.3,2.7,1.1l0.2-0.9
			h1.7L902.8,76z M899.8,70.5c-2.4,0-3.7,3.2-3.7,5.3c0,1.1,0.5,2.1,1.7,2.1c1.4,0,2.5-1.3,3.1-2.5c0.6-1.2,0.8-2.6,1-3.9
			C901.4,70.9,900.6,70.5,899.8,70.5z"/>
		<path class="st1" d="M922.1,77.4c-0.6,0.7-1.7,1.3-2.7,1.3c-1,0-1.8-0.6-1.8-1.7l0.1-0.7c-0.8,1.3-2.2,2.3-3.8,2.3
			c-2.1,0-3.1-1.5-3.1-3.4c0-1.4,0.6-2.9,1.5-3.9c1-1.1,2.3-1.7,3.7-1.7c1,0,2,0.4,2.7,1.1l0.4-2.4c0-0.2,0.1-0.4,0.1-0.6
			c0-0.8-0.6-0.9-1.3-0.9h-0.2l0.1-0.5c0.9-0.1,1.8-0.3,2.6-0.6h0.8l-1.7,9.8c-0.1,0.4-0.2,0.9-0.2,1.3c0,0.6,0.4,1,0.9,1
			c0.6,0,0.9-0.3,1.3-0.7L922.1,77.4z M918.5,71.6c-0.5-0.7-1.4-1-2.2-1c-2.6,0-3.8,3.2-3.8,5.3c0,1.2,0.5,2,1.7,2
			c1.3,0,2.4-1.2,3-2.2c0.6-1.1,0.9-2.5,1.1-3.7L918.5,71.6z"/>
		<path class="st1" d="M930.9,76c-0.1,0.2-0.1,0.5-0.1,0.7c0,0.6,0.4,1,1,1c0.5,0,1-0.3,1.3-0.7l0.4,0.4c-0.5,0.7-1.7,1.3-2.6,1.3
			c-1.1,0-1.8-0.8-1.8-1.9v-0.2h0c-0.8,1.3-2,2.2-3.6,2.2c-2,0-3.1-1.5-3.1-3.4c0-2.8,2.2-5.6,5.1-5.6c1,0,2,0.3,2.7,1.1l0.2-0.9
			h1.7L930.9,76z M927.9,70.5c-2.4,0-3.7,3.2-3.7,5.3c0,1.1,0.5,2.1,1.7,2.1c1.4,0,2.5-1.3,3.1-2.5c0.6-1.2,0.8-2.6,1-3.9
			C929.5,70.9,928.6,70.5,927.9,70.5z"/>
		<path class="st1" d="M941.7,78.4c-0.2,1.4-0.6,2.2-1.8,3.1c-1,0.7-2.3,1.1-3.5,1.1c-0.7,0-1.7-0.1-2.3-0.5
			c-0.3-0.2-0.7-0.5-0.7-0.9c0-0.5,0.5-0.7,0.9-0.7c1.2,0,0.7,1.5,2.5,1.5c0.8,0,1.6-0.4,2.2-1c0.7-0.7,1-1.6,1.1-2.6l0.3-1.5
			c-1,1-2.6,1.8-4,1.8c-1.2,0-2.1-0.6-2.1-1.8l0-0.6l0.1-0.6l0.6-3.4c0-0.2,0.1-0.4,0.1-0.6c0-0.8-0.5-0.9-1.3-0.9l0.1-0.5l0.5-0.1
			l1.9-0.4h0.7l-1,5.8c0,0.3-0.1,0.7-0.1,0.9c0,0.7,0.5,1.2,1.2,1.2c1.2,0,2.7-0.8,3.5-1.6l1.1-6.3h1.6L941.7,78.4z"/>
	</g>
	<g>
		<circle class="st2" cx="755.9" cy="73.3" r="35.9"/>
		<polyline class="st2" points="775.1,91.9 755.9,73.3 755.9,50.8 		"/>
		<line class="st3" x1="755.9" y1="42" x2="755.9" y2="45"/>
		<line class="st3" x1="740.2" y1="46.2" x2="741.7" y2="48.8"/>
		<line class="st3" x1="728.8" y1="57.7" x2="731.4" y2="59.1"/>
		<line class="st3" x1="724.6" y1="73.3" x2="727.6" y2="73.3"/>
		<line class="st3" x1="728.8" y1="88.9" x2="731.4" y2="87.4"/>
		<line class="st3" x1="740.2" y1="100.3" x2="741.7" y2="97.7"/>
		<line class="st3" x1="755.9" y1="104.5" x2="755.9" y2="101.5"/>
		<line class="st3" x1="771.5" y1="100.3" x2="770" y2="97.7"/>
		<line class="st3" x1="782.9" y1="88.9" x2="780.3" y2="87.4"/>
		<line class="st3" x1="787.1" y1="73.3" x2="784.1" y2="73.3"/>
		<line class="st3" x1="782.9" y1="57.7" x2="780.3" y2="59.1"/>
		<line class="st3" x1="771.5" y1="46.2" x2="770" y2="48.8"/>
	</g>
	<g>
		<path class="st3" d="M455.8,95.6h-63.5c-3.9,0-7-3.2-7-7V40.9c0-3.9,3.1-7,7-7h63.5c3.9,0,7,3.1,7,7v47.7
			C462.8,92.4,459.7,95.6,455.8,95.6z"/>
		<rect x="393.2" y="41.6" class="st3" width="61.7" height="42.4"/>
		<polygon class="st3" points="433.8,109.4 414.3,109.4 415.7,95.6 432.4,95.6 		"/>
		<rect x="407.9" y="109.4" class="st4" width="32.2" height="3.2"/>
		<rect x="399.8" y="58.2" class="st3" width="4.1" height="8.4"/>
		<rect x="406.9" y="56.1" class="st3" width="4.1" height="10.6"/>
		<rect x="414" y="53.9" class="st3" width="4.1" height="12.7"/>
		<rect x="421.1" y="51.8" class="st3" width="4.1" height="14.9"/>
		<circle class="st3" cx="440.2" cy="59.2" r="5.5"/>
		<path class="st3" d="M440.2,59.2"/>
		<polyline class="st3" points="440.2,53.7 440.2,59.2 445.6,59.2 		"/>
		<line class="st3" x1="399.8" y1="72.4" x2="445.6" y2="72.4"/>
		<line class="st3" x1="399.8" y1="75.9" x2="445.6" y2="75.9"/>
	</g>
</g>
</svg>
