<svg id="Layer_1" data-name="Layer 1" xmlns="http://www.w3.org/2000/svg" viewBox="0 0 539 288"><defs><style>.cls-1{fill:#fff;}.cls-2{fill:#81ba41;}.cls-3{fill:#f9b001;}</style></defs><path class="cls-1" d="M304.6,197.58c0-2.25-.2-3.91-3.14-4.12l-.64-.05v-1.27h12v1.27h-.47c-1.19.09-2.41.23-3,1.42a9.16,9.16,0,0,0-.47,3.47v6.34H324.1v-7c0-2.24-.21-4-3.19-4.16l-.63-.05v-1.27h11.89v1.27h-.42c-1.14.14-2.38.26-2.93,1.42a7.05,7.05,0,0,0-.47,3v17.76c0,2.21.22,3.91,3.18,4.12l.64.05v1.26H320.28v-1.26h.43c1.13-.1,2.33-.26,2.93-1.41a9.14,9.14,0,0,0,.46-3.45v-8.53H308.85v9.09c0,2.34.17,4,3.23,4.25l.72.05v1.26h-12v-1.26h.43c1.14-.14,2.34-.26,2.94-1.41a7.79,7.79,0,0,0,.41-3v-17.8Z"/><path class="cls-1" d="M341.77,215.67c0,2.35.38,3.92,3,4.14h.52v1.26H334.09v-1.26h.38c2.8-.18,3.22-1.54,3.22-4.14v-8.82c0-2.38-.42-3.95-3.09-4.13h-.69v-1.27l6.51-.94h1.35Zm-2-17.28a2.51,2.51,0,0,1-2.51-2.63,2.61,2.61,0,0,1,2.56-2.47,2.55,2.55,0,1,1,0,5.1Z"/><path class="cls-1" d="M373.83,201.19l-1.61.47c-2.51-3.95-6.08-8.11-11.18-8.11-6.84,0-9.3,7.3-9.3,13a16.33,16.33,0,0,0,2.12,8.58,9.37,9.37,0,0,0,7.91,4.54c4.2,0,8.53-2.29,8.53-7,0-2.93-1.4-3.79-4.11-4.09v-1.27h11.64v1.27l-.35,0a3.13,3.13,0,0,0-2.8,1.36,7.58,7.58,0,0,0-.42,3v8.06h-2l-1.31-2.93a14.42,14.42,0,0,1-9.52,3.66c-8.71,0-14.75-6.75-14.75-15.25a15.24,15.24,0,0,1,3.66-10.33,13.9,13.9,0,0,1,18.81-2l.81-2.05h1.32Z"/><path class="cls-1" d="M385.47,215.67c.09,2.43.43,4,3.15,4.09l.72.05v1.26H377.65v-1.26h.47c2.81-.18,3.27-1.5,3.27-4.14v-8.82c0-2.38-.42-3.95-3.1-4.13h-.68v-1.27l6.5-.94h1.36v3.19c1.87-1.91,4.29-3.62,7.15-3.62,1.39,0,3.14.56,3.14,2.27a2.25,2.25,0,0,1-2.34,2.29c-2,0-2.47-1.4-3.79-1.4s-3.22,1.31-4.16,2.33Z"/><path class="cls-1" d="M413.71,202.77a11.55,11.55,0,0,1,3.1,8.06c0,6.42-4,10.58-10.4,10.58S396,217.25,396,211s3.7-10.92,10.23-10.92A10.61,10.61,0,0,1,413.71,202.77Zm-7.26-1c-4.8,0-6,5.23-6,9.09,0,4.12,1.19,8.83,6.25,8.83,4.62,0,5.68-4.8,5.68-8.54a14.71,14.71,0,0,0-1.06-6.19,5.4,5.4,0,0,0-4.75-3.19Z"/><path class="cls-1" d="M440.84,215.72c0,2.3.26,4.13,2.56,4.13h.3l.64,0v1.26h-7.57v-3.51a13,13,0,0,1-9.13,3.85,6.94,6.94,0,0,1-5.1-1.82c-1.27-1.4-1.32-3-1.32-4.8v-7.94c0-2.38-.43-3.95-3.11-4.13h-.67v-1.27l6.5-.94h1.36v14.2a7.17,7.17,0,0,0,.47,3.06,3.72,3.72,0,0,0,3.23,1.56,11.64,11.64,0,0,0,7.77-3.61v-8.87c0-2.38-.42-3.95-3.1-4.13H433v-1.27l6.5-.94h1.35Z"/><path class="cls-1" d="M452.52,225.37c0,2.59.44,3.95,3.19,4.07l.84.05v1.28H444.83v-1.28h.39c2.76-.17,3.23-1.57,3.23-4.12V206.85c0-2.38-.43-3.95-3.1-4.13h-.69v-1.27l6.5-.94h1.36v2.73a8.64,8.64,0,0,1,6.71-3.16c6.17,0,9.36,4.85,9.36,10.59s-3.45,10.74-9.7,10.74a10.21,10.21,0,0,1-6.37-2.08Zm0-8.17a7.32,7.32,0,0,0,5.15,2.18c4.93,0,6.49-4.12,6.49-8.46,0-4-1.1-8.75-6.08-8.75a6.72,6.72,0,0,0-5.56,3.23Z"/><path class="cls-2" d="M265.5,229.19h-.25a7.09,7.09,0,0,1-3-.67,15.9,15.9,0,0,0,2.72-2.17l.29-.28.27.29a16.37,16.37,0,0,0,2.73,2.15c-.23.11-.44.19-.65.27l.18.09-.29.09.09-.17-.2.06-.1,0-.34.1h0l-.12,0h-.05a6.87,6.87,0,0,1-1.26.15Zm-13.73-5a7.1,7.1,0,0,1-2.61-1.66,7.17,7.17,0,0,1-1.65-2.59,15.56,15.56,0,0,0,3.46.39h.41c0,.13,0,.27,0,.41a15.62,15.62,0,0,0,.4,3.45Zm27,0a15.51,15.51,0,0,0,.39-3.44v-.42h.42a15.4,15.4,0,0,0,3.45-.39c-.09.24-.18.44-.27.65l.17-.07-.12.24-.05-.18,0,.09-.07.13v0l-.06.11a1.72,1.72,0,0,1-.18.32v0h0a.64.64,0,0,0-.06.11l0,0a7,7,0,0,1-.94,1.14,6.88,6.88,0,0,1-2.6,1.65Zm-20.69-.35a9.32,9.32,0,0,1-.54-3.1,9.16,9.16,0,0,1,.32-2.38,5.29,5.29,0,0,0,.8.06,5.57,5.57,0,0,0,1.77-.3,5.27,5.27,0,0,0,1.66,2,8.87,8.87,0,0,1-1.45,1.93,9.55,9.55,0,0,1-2.56,1.8Zm14.41,0a9.23,9.23,0,0,1-2.57-1.8,9.1,9.1,0,0,1-1.46-1.92,5.46,5.46,0,0,0,1.66-2,5.14,5.14,0,0,0,1.72.29,4.8,4.8,0,0,0,.85-.07,8.82,8.82,0,0,1,.32,2.35v.08a9.24,9.24,0,0,1-.52,3.09ZM251,214.17a9.31,9.31,0,0,1-3.1-.53,9.27,9.27,0,0,1,1.81-2.57,9,9,0,0,1,2-1.49,5.52,5.52,0,0,0,2,1.66,5.48,5.48,0,0,0-.31,1.79,7.54,7.54,0,0,0,.06.82,9.08,9.08,0,0,1-2.37.32Zm28.6,0a9.25,9.25,0,0,1-2.43-.34,7.54,7.54,0,0,0,.06-.82,5.49,5.49,0,0,0-.29-1.75,5.41,5.41,0,0,0,2-1.68,9.39,9.39,0,0,1,1.95,1.5,9,9,0,0,1,1.8,2.55,9,9,0,0,1-3.08.54Zm-36.4-4.73a7.15,7.15,0,0,1,0-6,14.85,14.85,0,0,0,2.17,2.7l.29.3a3.83,3.83,0,0,0-.29.28h0a15,15,0,0,0-2.17,2.72Zm44.19,0a15,15,0,0,0-2.15-2.71l-.31-.3.3-.29a15.5,15.5,0,0,0,2.17-2.73c0,.07.05.14.07.18l.05.12,0,.07.06.15V204c0,.08.06.17.09.24l0,.13,0,0c0,.07,0,.17.06.22l0,0v0a2.25,2.25,0,0,1,.05.22V205a5.94,5.94,0,0,1,.15,1.35v.08a7.2,7.2,0,0,1-.66,3Zm-35.73-6.15a10,10,0,0,1-2-1.49,9.25,9.25,0,0,1-1.8-2.57,9.25,9.25,0,0,1,3.09-.53h0a9,9,0,0,1,2.4.34,5.93,5.93,0,0,0-.06.84,5.46,5.46,0,0,0,.29,1.73,5.4,5.4,0,0,0-2,1.68Zm27.25,0a5.27,5.27,0,0,0-2-1.66,5.48,5.48,0,0,0,.31-1.79,7.18,7.18,0,0,0-.06-.81,8.86,8.86,0,0,1,2.4-.34,9.69,9.69,0,0,1,3.08.55,9.27,9.27,0,0,1-1.8,2.56,9.11,9.11,0,0,1-2,1.49Zm-18.48-8.51a5.43,5.43,0,0,0-1.69-.27,4.91,4.91,0,0,0-.86.07,9.72,9.72,0,0,1-.32-2.43,8.91,8.91,0,0,1,.53-3.08,9.16,9.16,0,0,1,2.56,1.81,8.67,8.67,0,0,1,1.45,1.9,5.4,5.4,0,0,0-1.67,2Zm9.68,0a5.35,5.35,0,0,0-1.65-2,8.66,8.66,0,0,1,1.47-1.92,9,9,0,0,1,2.57-1.81,9.46,9.46,0,0,1,.53,3.09,9.2,9.2,0,0,1-.32,2.37,5.67,5.67,0,0,0-.82-.07,5.38,5.38,0,0,0-1.78.31Zm-22.56-1.81a6.72,6.72,0,0,1,1.65-2.59A6.81,6.81,0,0,1,251,189h0l.07,0,.21-.1.2-.09.12,0a.64.64,0,0,1,.18-.06,15.41,15.41,0,0,0-.4,3.45v.41h-.49a14.56,14.56,0,0,0-3.36.39Zm35.48,0a15.24,15.24,0,0,0-3.43-.4h-.42v-.41a15.52,15.52,0,0,0-.4-3.47l.2.08.1,0,.07,0,.18.08h0l0,0,.21.1a.45.45,0,0,1,.12.06l.09,0c.06,0,.14.07.21.13H280a1,1,0,0,1,.16.12h0l0,0a6.32,6.32,0,0,1,1.11.91,7,7,0,0,1,1.65,2.59Zm-4.26-4.31c0-.07,0-.14-.05-.22l0-.06.38.14-.31.14Zm-13.49-1.83c-.1-.09-.19-.2-.28-.28a15.06,15.06,0,0,0-2.73-2.17,7.12,7.12,0,0,1,5.24-.33h0l0,0,.27.09h0a1,1,0,0,1,.22.08l.1,0,0,0,0,0,.17.07a16.79,16.79,0,0,0-2.73,2.17c-.1.1-.19.21-.29.3Z"/><path class="cls-2" d="M265.27,233.58h0a11.69,11.69,0,0,1-8.31-3.49,11.23,11.23,0,0,1-1-1.15,10,10,0,0,1-1.52.12,11.68,11.68,0,0,1-11.77-12.35c0-.29,0-.61.08-1a14,14,0,0,1-1.13-1,11.7,11.7,0,0,1,.39-17.06l.73-.61c0-.33-.06-.64-.08-1a11.74,11.74,0,0,1,3.4-8.92A11.26,11.26,0,0,1,249,185.1l.12-.06.07,0,.16-.07.44-.2h.05l.13-.05.12,0,.26-.08.06,0h.05l.11-.05h0l.12,0,.41-.12c.2-.05.41-.11.59-.14l.11,0h.06l0,0h0l.23-.06h0l.1,0h.1a3.21,3.21,0,0,1,.43-.07,12.26,12.26,0,0,1,1.59-.11,12.88,12.88,0,0,1,1.5.1c.21-.26.42-.51.63-.73a11.59,11.59,0,0,1,12.28-3.35l.12,0,.06,0,.19.07c.19.07.34.12.46.18l.15.05.14.07.24.11.05,0,.06,0,.11,0h0l.09,0h0l0,0a2.55,2.55,0,0,1,.32.17c.2.11.4.23.59.36l.05,0,.05,0,0,0h0l.2.11h0l0,0,.07.06,0,0,0,0,.36.27a10.89,10.89,0,0,1,1.19,1.05,11.31,11.31,0,0,1,1,1.14,11.43,11.43,0,0,1,4.31.22H279l0,0h.09l.28.07h.07l.05,0,.13.05.4.12.07,0,.11,0c.19.07.37.15.54.23a3.76,3.76,0,0,1,.39.17l.37.17.09.05.13.06.47.27a3.48,3.48,0,0,1,.47.31l0,0h0a11.47,11.47,0,0,1,1.7,1.41,11.67,11.67,0,0,1,3.4,8.91c0,.31-.05.63-.08,1a12.66,12.66,0,0,1,1.15,1,12.28,12.28,0,0,1,1.75,2.19l0,0,0,0v0h0v0l0,0v0l.15.24,0,0,0,0,0,.07.07.12a2.7,2.7,0,0,0,.15.29h0v0l0,.05,0,.09,0,.08c.07.18.15.36.21.54l.18.42,0,.09c0,.08.06.19.1.29l0,.09.05.12c.06.2.1.36.14.52a5.58,5.58,0,0,1,.13.57v0a10.73,10.73,0,0,1,.21,2.2,11.65,11.65,0,0,1-3.89,8.69c-.24.22-.47.42-.74.63a12.1,12.1,0,0,1-1.07,6.71l0,.1h0v0l0,0,0,0a.93.93,0,0,1-.05.1l0,.06,0,.08,0,0c-.08.16-.17.31-.28.49a1.6,1.6,0,0,1-.13.21v0l-.07.11a12.39,12.39,0,0,1-1.51,1.86,11.73,11.73,0,0,1-8.35,3.4,11.26,11.26,0,0,1-1.51-.1,12.09,12.09,0,0,1-5.52,4l-.1,0h-.09l-.19.07-.08,0h-.06l-.55.15-.27.06-.12,0a11,11,0,0,1-2.35.24Zm-6.43-5.33a9,9,0,0,0,6.41,2.69,8.47,8.47,0,0,0,1.86-.2h.06a1.8,1.8,0,0,0,.19,0,4.8,4.8,0,0,0,.48-.12l.08,0,.15,0,.06,0h0l0,0a9.42,9.42,0,0,0,3.49-2.21,13.28,13.28,0,0,1-4.91-3.12l-.36-.36-1.17-1.27-1.17,1.27c-.12.13-.22.24-.35.36a13.46,13.46,0,0,1-4.9,3.14Zm-13.55-10.93a9,9,0,0,0,9.09,9.08,13.47,13.47,0,0,1-1.25-5.67c0-.17,0-.35,0-.49l.06-1.73-1.71.05H251a13.59,13.59,0,0,1-5.68-1.25Zm32,1.16.06,1.73c0,.16,0,.34,0,.51a13.49,13.49,0,0,1-1.25,5.68,9.17,9.17,0,0,0,6.45-2.63,8.93,8.93,0,0,0,1.17-1.45v0a1,1,0,0,0,.1-.16c.08-.14.17-.28.24-.41l.06-.11.09-.17,0-.09a9.51,9.51,0,0,0,.92-4,13.55,13.55,0,0,1-5.68,1.25l-.52,0-1.72-.06Zm-20.74-2.15-.39,1.4a10.88,10.88,0,0,0,.95,8.28,10.7,10.7,0,0,0,6.54-5.18l.69-1.28-1.2-.82a3.62,3.62,0,0,1-1.56-3,3.94,3.94,0,0,1,.07-.69,3.11,3.11,0,0,1-.44.52,3.63,3.63,0,0,1-2.57,1.07,3.32,3.32,0,0,1-.65-.07l-1.44-.25Zm9.55,3.23.71,1.27a11,11,0,0,0,1.81,2.41,10.9,10.9,0,0,0,4.74,2.77,11,11,0,0,0,.93-8.33l-.4-1.4-1.44.27a4.91,4.91,0,0,1-.68.06,3.61,3.61,0,0,1-2.58-1.07,2.93,2.93,0,0,1-.4-.46,2.9,2.9,0,0,1,.07.66,3.6,3.6,0,0,1-1.57,3l-1.19.83Zm-20.47-5a10.67,10.67,0,0,0,5.3,1.39h0a10.64,10.64,0,0,0,3-.45l1.39-.41-.27-1.42a3.66,3.66,0,0,1,1-3.23,6.4,6.4,0,0,1,.5-.41,3.68,3.68,0,0,1-.58,0,3.61,3.61,0,0,1-3-1.59l-.82-1.21-1.28.71a10.86,10.86,0,0,0-5.24,6.57Zm29.45.51,1.4.42a11.39,11.39,0,0,0,3.05.42,10.85,10.85,0,0,0,5.29-1.36,10.71,10.71,0,0,0-2.78-4.71,10.53,10.53,0,0,0-2.45-1.85l-1.28-.71-.82,1.21a3.66,3.66,0,0,1-3,1.59,3.45,3.45,0,0,1-.57,0c.14.12.29.24.42.37a3.65,3.65,0,0,1,1,3.25l-.27,1.42Zm-16.45-5.68a3.63,3.63,0,0,1,3.58,4.33,3.62,3.62,0,0,1,6-.08,3.68,3.68,0,0,1-.06-.66,3.64,3.64,0,0,1,3.64-3.65,5.46,5.46,0,0,1,.58,0,3.6,3.6,0,0,1-1.51-2.94,3.66,3.66,0,0,1,1.58-3,4.07,4.07,0,0,1-.61.05,3.64,3.64,0,0,1-3.59-4.3,3,3,0,0,1-.43.52,3.57,3.57,0,0,1-2.58,1.07,3.68,3.68,0,0,1-2.93-1.49,4.21,4.21,0,0,1,.05.62,3.64,3.64,0,0,1-3.64,3.63,3.86,3.86,0,0,1-.58,0,2.33,2.33,0,0,1,.45.38,3.61,3.61,0,0,1,0,5.14,3.52,3.52,0,0,1-.5.43,3,3,0,0,1,.59-.05ZM243.43,200a9,9,0,0,0,0,12.86,13.58,13.58,0,0,1,3.14-4.91l.36-.35,1.26-1.17-1.26-1.17c-.11-.12-.24-.24-.36-.35a13.71,13.71,0,0,1-3.14-4.91Zm38.87,6.4,1.28,1.2c.12.11.24.24.38.36a13.55,13.55,0,0,1,3.12,4.88,9,9,0,0,0,2.7-6.42,9.28,9.28,0,0,0-.18-1.75,3.62,3.62,0,0,0-.09-.41c0-.11-.05-.21-.08-.31l0-.1v-.09l0-.09c0-.11-.06-.2-.1-.29a2.52,2.52,0,0,0-.12-.29l0-.11,0,0-.14-.32v0l0,0c-.11-.22-.21-.43-.33-.65l0,0v0l-.11-.16a9.18,9.18,0,0,0-1.36-1.72,13.41,13.41,0,0,1-3.14,4.9c-.12.11-.23.23-.35.33l-1.29,1.17Zm-36.64-8.08a10.89,10.89,0,0,0,2.77,4.71,11.41,11.41,0,0,0,2.44,1.84l1.29.72.84-1.21a3.61,3.61,0,0,1,3-1.59,2.84,2.84,0,0,1,.58.05,5.3,5.3,0,0,1-.43-.38,3.58,3.58,0,0,1-1-3.25l.26-1.43-1.39-.4a10.71,10.71,0,0,0-8.35.94Zm28.83,4.47a3.67,3.67,0,0,1,3,1.59l.82,1.19,1.27-.71a10.36,10.36,0,0,0,2.47-1.83,10.68,10.68,0,0,0,2.77-4.72,10.78,10.78,0,0,0-5.28-1.38,10.63,10.63,0,0,0-3,.43l-1.4.4.26,1.41a3.58,3.58,0,0,1-1,3.24,3.13,3.13,0,0,1-.52.43,3.14,3.14,0,0,1,.61-.05Zm-8.36-9.49,1.18.82a3.68,3.68,0,0,1,1.57,3,3.6,3.6,0,0,1-.07.66,3.11,3.11,0,0,1,.44-.52,3.65,3.65,0,0,1,2.56-1.07,2.93,2.93,0,0,1,.67.07l1.44.26.4-1.42a10.55,10.55,0,0,0,.42-3,10.87,10.87,0,0,0-1.36-5.28,10.77,10.77,0,0,0-6.56,5.18l-.69,1.27Zm-7.41,2.94a3.63,3.63,0,0,1,2.56,1.07,2.93,2.93,0,0,1,.37.42,3,3,0,0,1,0-.6,3.63,3.63,0,0,1,1.57-3l1.2-.83-.72-1.28a11,11,0,0,0-6.51-5.16,10.67,10.67,0,0,0-1.38,5.28,11.56,11.56,0,0,0,.43,3l.39,1.41,1.45-.27a3.23,3.23,0,0,1,.69-.07Zm-6.4-9.54h0a3.84,3.84,0,0,0-.54.13l-.24.06-.08,0-.13,0a.2.2,0,0,1-.1,0l0,0-.22.07-.06,0,0,0-.07,0-.31.13,0,0,0,0h0l-.06,0-.07,0-.06,0h0a9.25,9.25,0,0,0-2.27,1.65,9.1,9.1,0,0,0-2.64,6.45,13.72,13.72,0,0,1,5.69-1.25H251l.43,0,1.73.05-.06-1.72c0-.17,0-.34,0-.51a13.59,13.59,0,0,1,1.24-5.67,10.34,10.34,0,0,0-1.24.09l-.34,0h-.12l-.11,0-.12,0-.11,0Zm27.24,7.59h0a13.46,13.46,0,0,1,5.66,1.25,9,9,0,0,0-2.63-6.45,9.29,9.29,0,0,0-1.37-1.12,2.61,2.61,0,0,0-.32-.2,1.79,1.79,0,0,0-.32-.18l0,0-.07,0,0,0,0,0-.06,0-.27-.14-.33-.14-.08,0-.07,0-.29-.13h-.07l-.69-.21h0v0l-.17,0a10.1,10.1,0,0,0-2.19-.27,13.59,13.59,0,0,1,1.24,5.69c0,.16,0,.32,0,.5l-.08,1.74,1.75-.08Zm-20.73-9.67a13.5,13.5,0,0,1,4.89,3.12,3.81,3.81,0,0,1,.33.36l1.18,1.28,1.19-1.27c.12-.13.23-.26.35-.38a13.85,13.85,0,0,1,4.91-3.12,9.62,9.62,0,0,0-1-.84l-.25-.18h0l-.09-.08-.11-.06-.08-.05-.14-.09h0l-.43-.26-.22-.12-.08,0-.13-.06a.23.23,0,0,1-.1,0h0l0,0-.18-.09-.06,0h0l-.08,0-.32-.12h-.06l-.14-.05,0,0-.09,0a8.81,8.81,0,0,0-2.76-.45,9,9,0,0,0-6.42,2.72Z"/><path class="cls-1" d="M310.39,230.73l-.52.19a3.78,3.78,0,0,0-3.25-2.22c-.54,0-.57.26-.57.67v6.68a3.56,3.56,0,0,0,.13,1.11c.21.47.69.49,1.12.52h.31v.45h-4.55v-.44h.28c.42,0,.88-.05,1.09-.47a3.07,3.07,0,0,0,.16-1.18v-6.56c0-.5,0-.74-.62-.74a3.63,3.63,0,0,0-3.25,2.19l-.49-.19.82-2.58h8.52Z"/><path class="cls-1" d="M318.81,236.27c0,.81.12,1.34,1,1.42H320v.44h-3.92v-.44h.17c1,0,1.14-.48,1.14-1.42v-3.15a1.75,1.75,0,0,0-.23-1.05,1.26,1.26,0,0,0-1-.41,4.23,4.23,0,0,0-2.58,1.16v3.45c0,.81.1,1.36,1,1.42h.19v.44h-3.91v-.44H311c1,0,1.17-.48,1.17-1.42V230c0-.76-.08-1.34-1.11-1.41l-.2,0v-.44a8.34,8.34,0,0,0,2.12-.48h.59v4.49a4.51,4.51,0,0,1,3-1.23,2.81,2.81,0,0,1,1.64.5,1.86,1.86,0,0,1,.59,1.69v3.19Z"/><path class="cls-1" d="M323.08,233.9l0,.75a3.86,3.86,0,0,0,.64,2,2.22,2.22,0,0,0,1.85.91,2.34,2.34,0,0,0,2.16-1.35l.48.25a3.19,3.19,0,0,1-3,1.76,3.55,3.55,0,0,1-2.56-.95,3.94,3.94,0,0,1-1.1-2.74,3.41,3.41,0,0,1,3.5-3.67h0a2.94,2.94,0,0,1,3.13,3v.06Zm3.55-.6a1.66,1.66,0,0,0-1.68-1.81,1.91,1.91,0,0,0-1.84,1.81Z"/><path class="cls-2" d="M336.51,230c0-.78-.08-1.35-1.08-1.43h-.22v-.44h4.13v.44h-.16c-.41,0-.83.07-1,.48a3.12,3.12,0,0,0-.16,1.21v2.18h5.26V230c0-.77-.08-1.36-1.09-1.44h-.23v-.44H346v.44h-.15c-.39,0-.81.09-1,.48a2.42,2.42,0,0,0-.16,1.06v6.12c0,.76.08,1.35,1.1,1.43H346v.44h-4.1v-.44h.14a1.07,1.07,0,0,0,1-.48,3.07,3.07,0,0,0,.17-1.18v-2.95H338v3.13c0,.8.06,1.39,1.11,1.47h.25v.44h-4.13v-.44h.15c.39,0,.8-.09,1-.48a2.62,2.62,0,0,0,.15-1V230Z"/><path class="cls-2" d="M355.8,237.75a2.19,2.19,0,0,1-1.43.5h-.06a1.59,1.59,0,0,1-1.6-1.06,4.2,4.2,0,0,1-2.75,1.06c-1,0-2.25-.56-2.25-1.73,0-1,.62-1.47,1.46-1.83a7.72,7.72,0,0,1,2.45-.6l1.09-.12v-1.06a1.26,1.26,0,0,0-.51-1.11,2.46,2.46,0,0,0-1.31-.31c-.46,0-1.42.22-1.42.79v.18c0,.49-.19.88-.74.88a.68.68,0,0,1-.69-.64c0-.63.67-1.17,1.18-1.38a6.17,6.17,0,0,1,2.07-.43h.06a4.54,4.54,0,0,1,1.91.49c.78.42.86,1,.86,1.8v2.87c0,.61.08,1.54.8,1.54a1.07,1.07,0,0,0,.61-.23Zm-3.09-3.26c-1.12.09-3.52.4-3.52,1.85a1.24,1.24,0,0,0,1.34,1.19,3.63,3.63,0,0,0,2.18-1Z"/><path class="cls-2" d="M365.87,233.11a2.33,2.33,0,0,0,.18-.78c0-.64-.53-.86-1.08-.86V231h3.23v.43c-.93.17-1.24.81-1.58,1.64l-2,5h-1l-1.46-4.22-1.8,4.22h-1l-1.93-5.51c-.25-.6-.5-1.11-1.37-1.15V231h3.5v.43c-.41,0-.89,0-.89.49a1.87,1.87,0,0,0,.15.66l1.46,4.17,1.56-3.71-.12-.26c-.33-.82-.39-1.19-1.38-1.35V231h3.31v.43c-.36,0-.84,0-.84.49a2.86,2.86,0,0,0,.13.66l1.43,4.1Z"/><path class="cls-2" d="M377.18,237.75a2.21,2.21,0,0,1-1.43.5h-.06a1.6,1.6,0,0,1-1.6-1.06,4.2,4.2,0,0,1-2.75,1.06c-1,0-2.24-.56-2.24-1.73,0-1,.61-1.47,1.44-1.83a7.91,7.91,0,0,1,2.47-.6l1.08-.12v-1.06a1.26,1.26,0,0,0-.51-1.11,2.45,2.45,0,0,0-1.32-.31c-.46,0-1.4.22-1.4.79v.18c0,.49-.2.88-.76.88a.68.68,0,0,1-.69-.64c0-.63.68-1.17,1.19-1.38a6.23,6.23,0,0,1,2.07-.43h.06a4.43,4.43,0,0,1,1.9.49c.8.42.87,1,.87,1.8v2.87c0,.61.09,1.54.8,1.54a1,1,0,0,0,.6-.23Zm-3.09-3.26c-1.11.09-3.51.4-3.51,1.85a1.23,1.23,0,0,0,1.33,1.19,3.63,3.63,0,0,0,2.18-1Z"/><path class="cls-2" d="M380.81,236.27c0,.81.13,1.34,1,1.42H382v.44h-3.88v-.44h.14c1-.06,1.12-.53,1.12-1.42v-3.05c0-.81-.15-1.36-1.07-1.42h-.24v-.44l2.25-.32h.46Zm-.7-6a.88.88,0,0,1-.87-.91.9.9,0,0,1,.88-.85.88.88,0,0,1,.89.9A.89.89,0,0,1,380.11,230.31Z"/><path class="cls-2" d="M385.94,236.27c0,.81.13,1.34,1,1.42h.17v.44h-3.86v-.44h.13c1-.06,1.11-.53,1.11-1.42v-3.05c0-.81-.14-1.36-1.07-1.42h-.24v-.44l2.25-.32h.47Zm-.71-6a.87.87,0,0,1-.86-.91.89.89,0,0,1,.88-.85.88.88,0,1,1,0,1.76Z"/><path class="cls-1" d="M403.51,231.28l-.56.15c-.86-1.36-2.09-2.79-3.86-2.79-2.35,0-3.21,2.52-3.21,4.48a5.67,5.67,0,0,0,.74,3,3.23,3.23,0,0,0,2.72,1.57c1.45,0,3-.8,3-2.42,0-1-.49-1.31-1.42-1.41v-.45h4v.45l-.13,0a1.1,1.1,0,0,0-1,.46,2.7,2.7,0,0,0-.15,1v2.78H403l-.45-1a5,5,0,0,1-8.37-4,5.25,5.25,0,0,1,1.26-3.56,5,5,0,0,1,3.6-1.65,4.9,4.9,0,0,1,2.89,1l.28-.71h.45Z"/><path class="cls-1" d="M408.2,236.27c0,.83.15,1.36,1.09,1.41h.25v.44h-4v-.44h.16c1-.06,1.13-.51,1.13-1.42v-3.05c0-.81-.15-1.36-1.07-1.42h-.23v-.44l2.23-.32h.47v1.1a3.54,3.54,0,0,1,2.47-1.25c.47,0,1.09.19,1.09.78a.78.78,0,0,1-.81.79c-.69,0-.86-.48-1.32-.48a2.37,2.37,0,0,0-1.43.81Z"/><path class="cls-1" d="M418.28,231.82a4,4,0,0,1,1.07,2.78,3.58,3.58,0,1,1-7.16.06c0-2.19,1.27-3.77,3.53-3.77A3.67,3.67,0,0,1,418.28,231.82Zm-2.51-.35c-1.65,0-2.06,1.81-2.06,3.15s.41,3,2.15,3,2-1.67,2-2.95a5,5,0,0,0-.36-2.14,1.88,1.88,0,0,0-1.64-1.11Z"/><path class="cls-1" d="M428.21,236.28c0,.8.08,1.42.88,1.42h.33v.44H426.8v-1.22a4.42,4.42,0,0,1-3.14,1.34,2.33,2.33,0,0,1-1.76-.64,2.22,2.22,0,0,1-.46-1.65v-2.74c0-.81-.14-1.36-1.08-1.42h-.22v-.44l2.24-.32h.47v4.89a2.35,2.35,0,0,0,.16,1,1.28,1.28,0,0,0,1.11.55,4,4,0,0,0,2.68-1.25v-3.06c0-.81-.14-1.36-1.07-1.42h-.23v-.44l2.24-.32h.47Z"/><path class="cls-1" d="M432.81,239.61c0,.89.14,1.36,1.1,1.41h.29v.44h-4V241h.13c.95-.06,1.12-.54,1.12-1.42v-6.39c0-.81-.15-1.36-1.08-1.42h-.24v-.44l2.25-.32h.47V232a2.94,2.94,0,0,1,2.31-1.09c2.13,0,3.22,1.67,3.22,3.65s-1.18,3.71-3.33,3.71a3.54,3.54,0,0,1-2.2-.72Zm0-2.82a2.48,2.48,0,0,0,1.76.76c1.71,0,2.26-1.43,2.26-2.93s-.39-3-2.11-3a2.28,2.28,0,0,0-1.91,1.11Z"/><path class="cls-1" d="M86.25,217.51c.34,1.55.36,2.55,2.25,2.8l-.12.72H81.8l.13-.72c.92-.13,2-.27,2-1.46a3.78,3.78,0,0,0-.1-.78l-.66-3.18H77L75.85,217a4.67,4.67,0,0,0-.77,2.07c0,.84.63,1.11,1.35,1.21l.49.08-.14.72H70.41l.13-.72A3.94,3.94,0,0,0,73.62,218l7.55-13.5H83.5Zm-4.79-11-4,7.34H83Z"/><path class="cls-1" d="M107.36,204.5c1.77,0,4.13.24,5.61,1.33a6.79,6.79,0,0,1,2.31,5.42,10.31,10.31,0,0,1-2.82,7.08c-2.09,2.14-4.51,2.68-7.4,2.7H96.8l.17-.72c1.9-.2,2.21-1.08,2.5-2.68l1.75-10a3.13,3.13,0,0,0,.1-.8,1.45,1.45,0,0,0-1.44-1.6l-.29,0,.12-.72Zm-5.58,13.59a4,4,0,0,0-.1.78.89.89,0,0,0,.51.87,4.59,4.59,0,0,0,2,.35,7.58,7.58,0,0,0,6.25-2.68,10.41,10.41,0,0,0,2-6.31c0-3.55-1.75-5.58-5.3-5.58a6.24,6.24,0,0,0-2.69.43,2,2,0,0,0-.8,1.48Z"/><path class="cls-1" d="M119.86,217.73a4.17,4.17,0,0,0-.1.8,1.25,1.25,0,0,0,1.31,1.36,2.63,2.63,0,0,0,1.65-.83l.56.49a4.71,4.71,0,0,1-3.47,1.68,2.2,2.2,0,0,1-2.29-2.38,5.35,5.35,0,0,1,.13-1.12l.87-5a4.49,4.49,0,0,0,.12-.83c0-1-.73-1.16-1.58-1.28h-.17l.12-.73,1-.12a15.94,15.94,0,0,0,2.55-.49h.8Zm.85-9.86a1.16,1.16,0,0,1-1.12-1.26,1.78,1.78,0,0,1,1.68-1.68,1.15,1.15,0,0,1,1.26,1.17A1.82,1.82,0,0,1,120.71,207.87Z"/><path class="cls-1" d="M127.19,217.39a5.57,5.57,0,0,0-.12,1.07c0,1.16.8,1.53,1.85,1.53,2.86,0,5.29-2.82,5.29-5.61s-1.92-2.43-1.92-3.82a1.53,1.53,0,0,1,1.48-1.52,1.78,1.78,0,0,1,1.49,1.06,5.43,5.43,0,0,1,.43,2.29c0,4.42-2.72,8.84-7.55,8.84-1.7,0-3.33-.49-3.33-2.46a9.19,9.19,0,0,1,.2-1.67l.78-4.42a5.55,5.55,0,0,0,.09-.83c0-.8-.36-1-1.09-1.19l-.61-.1.12-.72a15.74,15.74,0,0,0,3.55-.56h.78Z"/><path class="cls-1" d="M140.75,217.73a4.17,4.17,0,0,0-.1.8,1.25,1.25,0,0,0,1.32,1.36,2.65,2.65,0,0,0,1.65-.83l.55.49a4.68,4.68,0,0,1-3.47,1.68,2.19,2.19,0,0,1-2.28-2.38,6.09,6.09,0,0,1,.12-1.12l.87-5a4.49,4.49,0,0,0,.13-.83c0-1-.73-1.16-1.58-1.28h-.17l.12-.73,1-.12a15.52,15.52,0,0,0,2.55-.49h.8Zm.85-9.86a1.16,1.16,0,0,1-1.11-1.26,1.78,1.78,0,0,1,1.67-1.68,1.15,1.15,0,0,1,1.26,1.17A1.82,1.82,0,0,1,141.6,207.87Z"/><path class="cls-1" d="M147.92,215a2.63,2.63,0,0,1-1.73-2.4,3.24,3.24,0,0,1,1.58-2.62,6.14,6.14,0,0,1,3.35-.92,9,9,0,0,1,4,.85c.5.27,1.11.67,1.11,1.31a1,1,0,0,1-1,1c-.7,0-1-.31-1.36-.85a2.45,2.45,0,0,0-1-1,3.27,3.27,0,0,0-1.65-.42c-1.16,0-2.47.54-2.47,1.9a1.55,1.55,0,0,0,.8,1.36,13,13,0,0,0,2.38.85c1.62.51,3.78,1,3.78,3.13a3.73,3.73,0,0,1-2,3.08,7.37,7.37,0,0,1-3.79,1,8.58,8.58,0,0,1-4.08-1c-.56-.29-1.31-.87-1.31-1.58a1.12,1.12,0,0,1,1.12-1.07c2.06,0,1.31,2.67,4.51,2.67a3.65,3.65,0,0,0,2.09-.58,2.15,2.15,0,0,0,1-1.65c0-1.24-1.17-1.6-2.17-1.92Z"/><path class="cls-1" d="M161.65,217.73a4.17,4.17,0,0,0-.1.8,1.25,1.25,0,0,0,1.31,1.36,2.63,2.63,0,0,0,1.65-.83l.56.49a4.71,4.71,0,0,1-3.47,1.68,2.2,2.2,0,0,1-2.29-2.38,5.35,5.35,0,0,1,.13-1.12l.87-5a4.49,4.49,0,0,0,.12-.83c0-1-.72-1.16-1.58-1.28h-.17l.12-.73,1-.12a15.94,15.94,0,0,0,2.55-.49h.8Zm.85-9.86a1.16,1.16,0,0,1-1.12-1.26,1.79,1.79,0,0,1,1.68-1.68,1.15,1.15,0,0,1,1.26,1.17A1.82,1.82,0,0,1,162.5,207.87Z"/><path class="cls-1" d="M170.54,221.23c-3,0-5.12-1.85-5.12-5a7.7,7.7,0,0,1,2-5,6.73,6.73,0,0,1,5.2-2.23,4.75,4.75,0,0,1,5.08,5A7.17,7.17,0,0,1,170.54,221.23Zm.12-1.14a3.85,3.85,0,0,0,3.59-2.41,11,11,0,0,0,1-4.22,4,4,0,0,0-.75-2.6,2.86,2.86,0,0,0-2-.68c-3.28,0-4.54,4.13-4.54,6.77C167.92,218.8,168.67,220.09,170.66,220.09Z"/><path class="cls-1" d="M181.89,221h-2.21l1.48-8.42a5.49,5.49,0,0,0,.09-.9c0-1-.79-1.09-1.67-1.15l.12-.72,3.4-.56H184l-.31,1.75a8.87,8.87,0,0,1,5.05-2c1.51,0,3,.68,3,2.38a10.13,10.13,0,0,1-.17,1.43l-.87,4.81a5.48,5.48,0,0,0-.12,1.07,1.29,1.29,0,0,0,1.16,1.28,2.54,2.54,0,0,0,1.63-.82l.48.53a4.39,4.39,0,0,1-3.25,1.51,2.16,2.16,0,0,1-2.26-2.17v0a16.7,16.7,0,0,1,.34-2.34l.68-3.86a8,8,0,0,0,.15-1.14,1.56,1.56,0,0,0-1.7-1.5c-1.55,0-3.09,1-4.27,1.94Z"/><path class="cls-1" d="M208.44,221.23c-3,0-5.12-1.85-5.12-5a7.66,7.66,0,0,1,2-5,6.7,6.7,0,0,1,5.19-2.23,4.75,4.75,0,0,1,5.08,5A7.16,7.16,0,0,1,208.44,221.23Zm.12-1.14a3.87,3.87,0,0,0,3.6-2.41,11.21,11.21,0,0,0,1-4.22,4,4,0,0,0-.76-2.6,2.85,2.85,0,0,0-2-.68c-3.28,0-4.54,4.13-4.54,6.77C205.82,218.8,206.57,220.09,208.56,220.09Z"/><path class="cls-1" d="M225.42,209.28l-.09.73H222.8l-1.6,9.35a11.48,11.48,0,0,1-1.6,4.93,5.94,5.94,0,0,1-4.84,2c-1.06,0-3.3-.41-3.3-1.84,0-.66.58-.87,1.14-.87,1.61,0,1.58,1.86,3.21,1.86a2.78,2.78,0,0,0,1.82-.87,5.38,5.38,0,0,0,.8-2.26l.32-1.6L220.59,210h-2.16l.1-.73h2.21c.24-1.65.39-2.77,1.36-3.93a5.25,5.25,0,0,1,4-1.92c.85,0,2.79.24,2.79,1.41a1,1,0,0,1-1.12,1c-1.45,0-.94-1.49-2.42-1.49a1.74,1.74,0,0,0-1.39.83,5.17,5.17,0,0,0-.65,2.14l-.34,2Z"/><rect class="cls-3" x="24.2" y="84.44" width="64.86" height="65.65"/><path class="cls-1" d="M55.29,102a.22.22,0,0,1,.05.08S55.33,102,55.29,102Z"/><path class="cls-1" d="M73,119.56a12.39,12.39,0,0,0-1.1-1l-2.17-1.35a7.36,7.36,0,0,0,2.14-1.12,14,14,0,0,0,1.1-1,10.09,10.09,0,1,0-14.26-14.26,11,11,0,0,0-1,1.1,5.08,5.08,0,0,0-1.16,2.22,13,13,0,0,0-1.26-2.16s-.71-.88-1-1.18c-4.17-4.17-10.7-4.4-14.6-.51s-3.66,10.43.51,14.6a11.12,11.12,0,0,0,1.1,1,13.36,13.36,0,0,0,2.31,1.31,12.69,12.69,0,0,0-2.25,1.14c.41-.28-.78.62-1.13,1a10.1,10.1,0,1,0,14.26,14.27,10.74,10.74,0,0,0,.95-1.09,8.12,8.12,0,0,0,1.12-2.36,7.23,7.23,0,0,0,1.34,2.33,11.59,11.59,0,0,0,1,1.14c4.17,4.17,10.71,4.4,14.6.51S77.18,123.73,73,119.56ZM60.47,130.3a7.87,7.87,0,0,1-1.32-1.76,4.28,4.28,0,0,0,1.33-5.62,6.85,6.85,0,0,1-7.68,0,4.39,4.39,0,0,0-.49,2,4.45,4.45,0,0,0,1.93,3.62A7.79,7.79,0,0,1,53,130.26a7.09,7.09,0,0,1-8,1.56l-.16-.1-.38-.2-.14-.09a6.64,6.64,0,0,1-1-.81,6.86,6.86,0,0,1,.37-9.67,8,8,0,0,1,1.71-1.28,4.33,4.33,0,0,0,5.6,1.4,6.84,6.84,0,0,1,0-7.63,4.3,4.3,0,0,0-5.67,1.28,7.44,7.44,0,0,1-1.72-1.29c-2.81-2.81-3-7.14-.48-9.68s6.88-2.33,9.68.48A7.87,7.87,0,0,1,54.1,106a4.24,4.24,0,0,0-1.88,3.58,4.41,4.41,0,0,0,.56,2.06,6.82,6.82,0,0,1,7.66,0,4.31,4.31,0,0,0,.49-2A4.41,4.41,0,0,0,59,106a7.81,7.81,0,0,1,1.3-1.74A6.85,6.85,0,0,1,70,103.9a5.92,5.92,0,0,1,1.13,1.56l.12.24c0,.09.08.18.11.27a3.82,3.82,0,0,1,.13.36,1.06,1.06,0,0,1,.06.19l.1.37c0,.09,0,.17.05.26l.06.29a7.27,7.27,0,0,1-2.13,6.14,7.39,7.39,0,0,1-1.7,1.27,4.37,4.37,0,0,0-3.59-1.9,4.15,4.15,0,0,0-2,.51,6.82,6.82,0,0,1,0,7.63,4.29,4.29,0,0,0,5.65-1.29,8.17,8.17,0,0,1,1.73,1.3,7.37,7.37,0,0,1,2.08,6.79s0,.09,0,.12c0,.18-.1.35-.16.53s-.09.21-.13.32-.07.15-.1.22a1.71,1.71,0,0,1-.14.27,1.59,1.59,0,0,1-.15.29l-.12.19a5.86,5.86,0,0,1-.78,1C67.61,133.32,63.28,133.11,60.47,130.3Z"/><path class="cls-1" d="M134.67,114.2h-1.23l-.16-.31a26.35,26.35,0,0,0-3.34-5.37,8.38,8.38,0,0,0-6.37-2.65,7.7,7.7,0,0,0-6.8,3.76,15.92,15.92,0,0,0-2,8.29c0,2.65.53,5.76,2.15,8a9.16,9.16,0,0,0,7.37,3.61,11.28,11.28,0,0,0,9.48-5.76l1.65.92a13,13,0,0,1-11.75,6.76c-7.94,0-13.51-5.76-13.51-13.67,0-7.33,5.34-13.78,12.9-13.78a11.16,11.16,0,0,1,7.64,2.76l.84-1.77h1.23Z"/><path class="cls-1" d="M158.53,129.75a5.77,5.77,0,0,1-3.76,1.3h-.16a4.13,4.13,0,0,1-4.18-2.76,11,11,0,0,1-7.22,2.76c-2.69,0-5.87-1.46-5.87-4.53,0-2.61,1.61-3.84,3.8-4.8a20.87,20.87,0,0,1,6.45-1.57l2.84-.31v-2.76a3.34,3.34,0,0,0-1.35-2.92,6.38,6.38,0,0,0-3.45-.81c-1.19,0-3.69.58-3.69,2v.5c0,1.26-.5,2.3-2,2.3a1.78,1.78,0,0,1-1.8-1.69c0-1.61,1.77-3,3.11-3.61a15.55,15.55,0,0,1,5.41-1.11h.16a11.71,11.71,0,0,1,5,1.27c2.07,1.11,2.26,2.57,2.26,4.72v7.52c0,1.62.23,4,2.12,4a2.89,2.89,0,0,0,1.57-.57Zm-8.1-8.56c-2.92.26-9.22,1.07-9.22,4.87a3.22,3.22,0,0,0,3.5,3.11,9.48,9.48,0,0,0,5.72-2.57Z"/><path class="cls-1" d="M166.13,125.87c0,2.07.31,3.53,2.65,3.68l.46,0v1.16H159.18v-1.16h.35c2.5-.19,2.92-1.42,2.92-3.72V109.4c0-2-.19-3.53-2.88-3.73l-.54,0v-1.16a21.7,21.7,0,0,0,5.57-1.26h1.53Z"/><path class="cls-1" d="M178.6,125.87c0,2.11.34,3.53,2.72,3.72h.46v1.16H171.65v-1.16H172c2.54-.15,2.92-1.38,2.92-3.72v-8c0-2.15-.38-3.57-2.8-3.72h-.62V113l5.88-.85h1.23Zm-1.85-15.63a2.27,2.27,0,0,1-2.26-2.38,2.34,2.34,0,0,1,2.3-2.22,2.3,2.3,0,1,1,0,4.6Z"/><path class="cls-1" d="M195.65,113.39h-3.8v12.48c0,2.11.3,3.53,2.68,3.68l.54,0v1.16H184.9v-1.16h.34c2.5-.15,2.92-1.42,2.92-3.72V113.39H184.9v-1.23h3.26v-1.57c0-2,.08-3.84,1.65-5.41a10.42,10.42,0,0,1,6.95-2.62c1.27,0,3.26.62,3.26,2.19a1.78,1.78,0,0,1-1.8,1.69c-1.8,0-1.77-2.22-3.65-2.22a3,3,0,0,0-1.88.88,3.79,3.79,0,0,0-.84,3v4.11h3.8Z"/><path class="cls-1" d="M213.34,114.2a10.46,10.46,0,0,1,2.8,7.29c0,5.8-3.61,9.56-9.41,9.56s-9.36-3.76-9.36-9.4,3.34-9.87,9.25-9.87A9.61,9.61,0,0,1,213.34,114.2Zm-6.57-.89c-4.34,0-5.41,4.73-5.41,8.22,0,3.73,1.07,8,5.64,8,4.19,0,5.15-4.34,5.15-7.72a13.42,13.42,0,0,0-1-5.61,4.91,4.91,0,0,0-4.3-2.88Z"/><path class="cls-1" d="M225.32,125.87c.08,2.19.38,3.57,2.84,3.68l.65,0v1.16H218.25v-1.16h.43c2.53-.15,2.95-1.34,2.95-3.72v-8c0-2.15-.38-3.57-2.8-3.72h-.61V113l5.87-.85h1.23V115c1.69-1.73,3.88-3.26,6.45-3.26,1.27,0,2.84.5,2.84,2a2,2,0,0,1-2.11,2.08c-1.81,0-2.23-1.27-3.42-1.27s-2.92,1.19-3.76,2.11Z"/><path class="cls-1" d="M257,125.91c0,2.07.34,3.53,2.72,3.68h.5v1.16H250v-1.16h.54c2.42-.15,2.76-1.57,2.76-3.72V118a5.34,5.34,0,0,0-.61-2.8,3.16,3.16,0,0,0-2.69-1.38c-2.53,0-5,1.45-6.83,3.07v9c0,2.15.34,3.57,2.76,3.72h.54v1.16H236.05v-1.16h.43c2.53-.11,3-1.3,3-3.72v-8c0-2.15-.38-3.57-2.8-3.72h-.62V113l5.88-.85h1.23v3a11.69,11.69,0,0,1,8.17-3.42,6.33,6.33,0,0,1,4.15,1.53c1.31,1.12,1.5,2.38,1.5,4Z"/><path class="cls-1" d="M269,125.87c0,2.11.35,3.53,2.73,3.72h.46v1.16H262v-1.16h.35c2.53-.15,2.92-1.38,2.92-3.72v-8c0-2.15-.39-3.57-2.81-3.72h-.61V113l5.87-.85H269Zm-1.84-15.63a2.27,2.27,0,0,1-2.27-2.38,2.35,2.35,0,0,1,2.31-2.22,2.3,2.3,0,1,1,0,4.6Z"/><path class="cls-1" d="M295.16,129.75a5.8,5.8,0,0,1-3.77,1.3h-.15a4.15,4.15,0,0,1-4.19-2.76,11,11,0,0,1-7.21,2.76c-2.69,0-5.88-1.46-5.88-4.53,0-2.61,1.62-3.84,3.8-4.8a21,21,0,0,1,6.45-1.57l2.84-.31v-2.76a3.31,3.31,0,0,0-1.34-2.92,6.4,6.4,0,0,0-3.45-.81c-1.19,0-3.69.58-3.69,2v.5c0,1.26-.5,2.3-2,2.3a1.78,1.78,0,0,1-1.8-1.69c0-1.61,1.76-3,3.11-3.61a15.51,15.51,0,0,1,5.41-1.11h.15a11.75,11.75,0,0,1,5,1.27c2.07,1.11,2.26,2.57,2.26,4.72v7.52c0,1.62.23,4,2.11,4a2.89,2.89,0,0,0,1.58-.57Zm-8.11-8.56c-2.91.26-9.21,1.07-9.21,4.87a3.21,3.21,0,0,0,3.49,3.11,9.43,9.43,0,0,0,5.72-2.57Z"/><path class="cls-1" d="M325.44,125c1,2.38,1.53,4.68,4.57,4.83V131H319.22v-1.16c1.27-.15,3-.42,3-1.92a6.67,6.67,0,0,0-.57-2.11l-1.73-4.53H310L309,124.14a11.58,11.58,0,0,0-.89,3.19c0,1.92,1.54,2.3,3.38,2.49V131H301.17v-1.16l.43-.07a4.3,4.3,0,0,0,3.45-2.57,52.16,52.16,0,0,0,2.5-5.88L314,104.83h3.57Zm-6.22-5.46-4.38-11.4-4.26,11.4Z"/><path class="cls-1" d="M347.83,127a9.12,9.12,0,0,1-8.22,4.26c-5.72,0-9.48-3.76-9.48-9.48s3.53-9.79,9.44-9.79a9.33,9.33,0,0,1,5.15,1.34c1.26.81,2.61,2.15,2.61,3.77a2,2,0,0,1-2,2.11,1.9,1.9,0,0,1-2-1.85c0-.49.15-1,.15-1.45,0-1.69-2.49-2.46-3.8-2.46-4.41,0-5.22,4.76-5.26,8.25v.12c0,3.88,1.73,7.95,6.22,7.95,2.69,0,4.42-1.5,6-3.5Z"/><path class="cls-1" d="M367.32,127a9.1,9.1,0,0,1-8.22,4.26c-5.72,0-9.48-3.76-9.48-9.48s3.53-9.79,9.45-9.79a9.27,9.27,0,0,1,5.14,1.34c1.27.81,2.61,2.15,2.61,3.77a2,2,0,0,1-2,2.11,1.89,1.89,0,0,1-1.95-1.85c0-.49.15-1,.15-1.45,0-1.69-2.5-2.46-3.8-2.46-4.42,0-5.22,4.76-5.26,8.25v.12c0,3.88,1.73,7.95,6.22,7.95,2.69,0,4.41-1.5,6-3.5Z"/><path class="cls-1" d="M385.56,114.43a10.46,10.46,0,0,1,2.8,7.29c0,5.8-3.61,9.56-9.4,9.56s-9.37-3.76-9.37-9.4,3.34-9.87,9.25-9.87A9.61,9.61,0,0,1,385.56,114.43Zm-6.56-.88c-4.34,0-5.42,4.72-5.42,8.21,0,3.73,1.08,8,5.65,8,4.18,0,5.14-4.34,5.14-7.72a13.26,13.26,0,0,0-1-5.61,4.9,4.9,0,0,0-4.3-2.87Z"/><path class="cls-1" d="M411.59,126.14c0,2.07.23,3.72,2.31,3.72h.27l.57,0V131h-6.83v-3.19a11.71,11.71,0,0,1-8.26,3.49,6.25,6.25,0,0,1-4.6-1.65c-1.16-1.27-1.19-2.72-1.19-4.34v-7.18c0-2.15-.39-3.57-2.81-3.72h-.61v-1.15l5.87-.85h1.23v12.83A6.4,6.4,0,0,0,398,128a3.36,3.36,0,0,0,2.92,1.42,10.51,10.51,0,0,0,7-3.26v-8c0-2.15-.39-3.57-2.8-3.72h-.62v-1.15l5.88-.85h1.22Z"/><path class="cls-1" d="M437.48,126.14c0,2.07.34,3.53,2.72,3.68h.5V131H430.49v-1.16H431c2.42-.15,2.77-1.57,2.77-3.72v-7.91a5.34,5.34,0,0,0-.62-2.8,3.14,3.14,0,0,0-2.68-1.38c-2.54,0-5,1.46-6.84,3.07v9c0,2.15.35,3.57,2.77,3.72H427V131H416.55v-1.16H417c2.54-.11,3-1.3,3-3.72v-8c0-2.15-.39-3.57-2.81-3.72h-.61v-1.15l5.87-.85h1.23v3a11.72,11.72,0,0,1,8.18-3.42,6.31,6.31,0,0,1,4.15,1.54,4.61,4.61,0,0,1,1.5,4Z"/><path class="cls-1" d="M453.78,113.62h-5.45v10.79c0,2.15,0,5.22,2.92,5.22a4.73,4.73,0,0,0,3.34-1.69l1,.85a6.56,6.56,0,0,1-5.41,2.49,7.63,7.63,0,0,1-3.8-.92c-1.54-1-1.69-2.49-1.69-4.18V113.62h-3.23v-1.23c4.42-.15,5.26-3.26,5.26-7h1.65v7h5.45Z"/><path class="cls-1" d="M464.06,126.1c0,2.11.34,3.53,2.72,3.72h.47V131H457.11v-1.16h.34c2.54-.15,2.92-1.38,2.92-3.72v-8c0-2.15-.38-3.57-2.8-3.72H457v-1.15l5.87-.85h1.23Zm-1.84-15.63a2.27,2.27,0,0,1-2.27-2.38,2.34,2.34,0,0,1,2.3-2.22,2.3,2.3,0,1,1,0,4.6Z"/><path class="cls-1" d="M489.87,126.14c0,2.07.35,3.53,2.73,3.68h.5V131H482.88v-1.16h.54c2.42-.15,2.77-1.57,2.77-3.72v-7.91a5.34,5.34,0,0,0-.62-2.8,3.14,3.14,0,0,0-2.69-1.38c-2.53,0-5,1.46-6.83,3.07v9c0,2.15.35,3.57,2.76,3.72h.54V131H469v-1.16h.42c2.53-.11,3-1.3,3-3.72v-8c0-2.15-.38-3.57-2.8-3.72H469v-1.15l5.87-.85h1.23v3a11.7,11.7,0,0,1,8.18-3.42,6.28,6.28,0,0,1,4.14,1.54c1.31,1.11,1.5,2.38,1.5,4Z"/><path class="cls-1" d="M508.47,129.21c2.91.38,6.18,1,6.18,4.68,0,5.26-6.22,6.42-10.33,6.42-3.11,0-9.67-.77-9.67-4.92,0-2.19,2.18-3.45,4-4v-.08a3.3,3.3,0,0,1-2.8-3.11c0-2.11,1.84-3.57,3.76-3.91a6.08,6.08,0,0,1-3-5.26v-.23c.15-4.27,3.76-6.76,7.71-6.76a11,11,0,0,1,3.5.61c.92-1.76,2.68-3.41,4.76-3.41,1,0,2.26.42,2.26,1.65a1.42,1.42,0,0,1-1.42,1.46c-.88,0-1.61-.69-2.42-.69s-1.53.88-2,1.45a6.88,6.88,0,0,1,3.18,5.76,6.38,6.38,0,0,1-2.34,4.84,8.72,8.72,0,0,1-5.6,1.61,9.7,9.7,0,0,1-3.46-.61c-.77.31-1.84,1.15-1.84,2,0,1.35,2.11,1.5,3,1.62Zm-8.41,2.5c-1.46.46-3.11,1.76-3.11,3.41,0,3.38,5.14,4,7.6,4s7.41-.54,7.41-3.88c0-2.15-2.76-2.38-4.34-2.57Zm.23-13c0,2.88.77,5.3,4.15,5.3a3.77,3.77,0,0,0,3.34-1.81,9,9,0,0,0,.61-3.61c0-2.8-.69-5.22-3.95-5.22S500.29,116,500.29,118.73Z"/></svg>