<?xml version="1.0" encoding="utf-8"?>
<!-- Generator: Adobe Illustrator 25.4.1, SVG Export Plug-In . SVG Version: 6.00 Build 0)  -->
<svg version="1.1" id="Artwork" xmlns="http://www.w3.org/2000/svg" xmlns:xlink="http://www.w3.org/1999/xlink" x="0px" y="0px"
	 viewBox="0 0 218.9 147.9" style="enable-background:new 0 0 218.9 147.9;" xml:space="preserve">
<style type="text/css">
	.st0{fill:#FFFFFF;}
	.st1{fill:#80BC00;}
	.st2{fill:#FAB101;}
	.st3{fill:none;stroke:#FFFFFF;stroke-width:0.78;stroke-miterlimit:10;}
</style>
<path class="st0" d="M126.4,126.8c0-1.1-0.1-1.9-1.5-2h-0.3v-0.6h5.8v0.6h-0.2c-0.6,0-1.2,0.1-1.4,0.7c-0.2,0.5-0.3,1.1-0.2,1.7v3
	h7.3v-3.4c0-1.1-0.1-1.9-1.5-2h-0.3v-0.6h5.8v0.6h-0.2c-0.5,0.1-1.1,0.1-1.4,0.7c-0.2,0.5-0.3,1-0.2,1.5v8.5c0,1.1,0.1,1.9,1.5,2
	h0.3v0.6h-5.7v-0.6h0.2c0.6,0.1,1.1-0.2,1.4-0.7c0.2-0.5,0.3-1.1,0.2-1.7v-4.1h-7.3v4.4c0,1.1,0.1,1.9,1.6,2h0.3v0.6h-5.8v-0.6h0.2
	c0.6-0.1,1.1-0.1,1.4-0.7c0.2-0.5,0.2-1,0.2-1.5L126.4,126.8L126.4,126.8z"/>
<path class="st0" d="M144.2,135.5c0,1.1,0.2,1.9,1.4,2h0.2v0.6h-5.4v-0.6h0.2c1.4-0.1,1.6-0.7,1.6-2v-4.3c0-1.1-0.2-1.9-1.5-2h-0.3
	v-0.6l3.1-0.4h0.6V135.5z M143.2,127.2c-0.7,0-1.2-0.6-1.2-1.2c0,0,0,0,0,0c0-0.7,0.6-1.2,1.2-1.2c0.7-0.1,1.3,0.4,1.3,1.1
	c0.1,0.7-0.4,1.3-1.1,1.3C143.4,127.2,143.3,127.2,143.2,127.2L143.2,127.2z"/>
<path class="st0" d="M159.6,128.6l-0.8,0.2c-1.2-1.9-2.9-3.9-5.4-3.9c-3.3,0-4.5,3.5-4.5,6.3c-0.1,1.4,0.3,2.9,1,4.1
	c0.8,1.3,2.2,2.2,3.8,2.2c2,0,4.1-1.1,4.1-3.4c0-1.4-0.7-1.8-2-2v-0.6h5.6v0.6h-0.2c-0.5,0-1.1,0.2-1.4,0.6c-0.2,0.5-0.2,1-0.2,1.4
	v3.9h-1l-0.6-1.4c-1.3,1.1-2.9,1.8-4.6,1.8c-3.9,0.1-7-3-7.1-6.9c0-0.1,0-0.3,0-0.4c-0.1-1.8,0.6-3.6,1.8-5c2.3-2.7,6.2-3.1,9.1-1
	l0.4-1h0.6L159.6,128.6z"/>
<path class="st0" d="M165.2,135.5c0,1.2,0.2,1.9,1.5,2h0.4v0.6h-5.6v-0.6h0.2c1.4-0.1,1.6-0.7,1.6-2v-4.3c0-1.1-0.2-1.9-1.5-2h-0.3
	v-0.6l3.2-0.4h0.7v1.5c0.9-1,2.1-1.6,3.4-1.7c0.7,0,1.5,0.3,1.5,1.1c0,0.6-0.5,1.1-1.1,1.1c0,0,0,0-0.1,0c-1,0-1.2-0.7-1.8-0.7
	c-0.8,0.1-1.5,0.5-2,1.1L165.2,135.5z"/>
<path class="st0" d="M178.8,129.3c1,1.1,1.5,2.4,1.5,3.9c0,2.8-2.2,5-5,5c-2.8,0-5-2.2-5-5l0,0c0-3,1.8-5.2,4.9-5.2
	C176.6,128,177.8,128.4,178.8,129.3z M175.3,128.9c-2.3,0-2.9,2.5-2.9,4.4s0.6,4.2,3,4.2c2.2,0,2.7-2.3,2.7-4.1c0-1-0.1-2-0.5-3
	C177.3,129.5,176.4,128.9,175.3,128.9L175.3,128.9z"/>
<path class="st0" d="M191.9,135.6c0,1.1,0.1,2,1.2,2h0.1h0.3v0.6h-3.6v-1.7c-1.2,1.2-2.7,1.8-4.4,1.9c-0.9,0-1.8-0.3-2.4-0.9
	c-0.5-0.7-0.7-1.5-0.6-2.3v-3.9c0-1.1-0.2-1.9-1.5-2h-0.3v-0.6l3.1-0.4h0.7v6.8c0,0.5,0,1,0.2,1.5c0.4,0.5,0.9,0.8,1.6,0.8
	c1.4-0.1,2.8-0.7,3.7-1.7v-4.2c0-1.1-0.2-1.9-1.5-2h-0.3v-0.6l3.1-0.4h0.6L191.9,135.6z"/>
<path class="st0" d="M197.5,140.2c0,1.2,0.2,1.9,1.5,2h0.4v0.6h-5.6v-0.6h0.2c1.3-0.1,1.6-0.8,1.6-2v-9c0-1.1-0.2-1.9-1.5-2h-0.3
	v-0.6l3.1-0.4h0.6v1.3c0.8-1,2-1.5,3.2-1.5c3,0,4.5,2.3,4.5,5.1s-1.7,5.2-4.7,5.2c-1.1,0-2.2-0.3-3.1-1V140.2z M197.5,136.3
	c0.7,0.6,1.6,1,2.5,1c2.4,0,3.1-2,3.1-4.1c0-1.9-0.5-4.2-2.9-4.2c-1.1,0-2.1,0.6-2.7,1.6V136.3z"/>
<path class="st1" d="M107.5,142h-0.1c-0.5,0-1-0.1-1.4-0.3c0.5-0.3,0.9-0.7,1.3-1.1l0.1-0.1c0.1,0,0.1,0.1,0.1,0.1
	c0.4,0.4,0.8,0.7,1.3,1c-0.1,0.1-0.2,0.1-0.3,0.1h0.1l-0.1,0.1v-0.1h-0.1h-0.1l-0.2,0.1h-0.1c-0.2,0-0.4,0.1-0.6,0.1L107.5,142z
	 M100.9,139.6c-0.5-0.2-0.9-0.4-1.2-0.8c-0.4-0.4-0.6-0.8-0.8-1.2c0.5,0.1,1.1,0.2,1.7,0.2h0.2v0.2
	C100.7,138.5,100.8,139.1,100.9,139.6z M113.9,139.6c0.1-0.5,0.2-1.1,0.2-1.6l0,0v-0.2h0.2c0.6,0,1.1-0.1,1.7-0.2
	c0,0.1-0.1,0.2-0.1,0.3h0.1l-0.1,0.1v-0.1l0,0v0.1l0,0v0.1c0,0.1,0,0.1-0.1,0.1l0,0l0,0l0,0l0,0c-0.1,0.2-0.3,0.4-0.4,0.6
	c-0.3,0.4-0.8,0.6-1.2,0.8L113.9,139.6z M103.9,139.4c-0.2-0.5-0.3-1-0.3-1.5c0-0.4,0.1-0.8,0.1-1.1c0.1,0,0.3,0,0.4,0
	c0.3,0,0.6-0.1,0.9-0.1c0.2,0.4,0.4,0.7,0.8,1c-0.2,0.3-0.4,0.6-0.7,0.9C104.8,139,104.4,139.2,103.9,139.4L103.9,139.4z
	 M110.9,139.4c-0.5-0.2-0.9-0.5-1.2-0.9c-0.3-0.3-0.5-0.6-0.7-0.9c0.3-0.3,0.6-0.6,0.8-1c0.3,0.1,0.5,0.1,0.8,0.1c0.1,0,0.3,0,0.4,0
	c0.1,0.4,0.2,0.7,0.2,1.1l0,0C111.1,138.4,111,138.9,110.9,139.4L110.9,139.4z M100.5,134.8c-0.5,0-1-0.1-1.5-0.2
	c0.2-0.5,0.5-0.9,0.9-1.2c0.3-0.3,0.6-0.5,0.9-0.7c0.2,0.3,0.6,0.6,0.9,0.8c-0.1,0.3-0.1,0.6-0.1,0.9c0,0.1,0,0.3,0,0.4
	C101.2,134.8,100.9,134.8,100.5,134.8L100.5,134.8z M114.3,134.8c-0.4,0-0.8-0.1-1.2-0.2c0-0.1,0-0.3,0-0.4c0-0.3,0-0.6-0.1-0.8
	c0.4-0.2,0.7-0.5,1-0.8c0.3,0.2,0.7,0.4,0.9,0.7c0.4,0.4,0.7,0.8,0.9,1.2C115.3,134.7,114.8,134.8,114.3,134.8L114.3,134.8z
	 M96.8,132.5c-0.2-0.5-0.3-0.9-0.3-1.4c0-0.5,0.1-1,0.3-1.4c0.3,0.5,0.6,0.9,1,1.3l0.1,0.1c0,0-0.1,0.1-0.1,0.1l0,0
	C97.4,131.6,97,132.1,96.8,132.5z M118,132.5c-0.3-0.5-0.6-0.9-1-1.3l-0.1-0.1l0.1-0.1c0.4-0.4,0.7-0.8,1-1.3c0,0,0,0.1,0,0.1v0.1
	l0,0c0,0,0,0,0,0.1l0,0c0,0,0,0.1,0,0.1v0.1l0,0c0,0,0,0.1,0,0.1l0,0c0,0,0,0.1,0,0.1l0,0l0,0c0.1,0.2,0.1,0.4,0.1,0.6l0,0l0,0
	c0,0.5-0.1,1-0.3,1.4L118,132.5z M100.8,129.5c-0.3-0.2-0.7-0.4-0.9-0.7c-0.4-0.4-0.6-0.8-0.9-1.2c0.5-0.2,1-0.3,1.5-0.2l0,0
	c0.4,0,0.8,0.1,1.2,0.2c0,0.1,0,0.3,0,0.4c0,0.3,0,0.6,0.1,0.8C101.4,128.9,101.1,129.2,100.8,129.5L100.8,129.5z M113.9,129.5
	c-0.2-0.3-0.6-0.6-0.9-0.8c0.1-0.3,0.1-0.6,0.1-0.9c0-0.1,0-0.3,0-0.4c0.4-0.1,0.8-0.2,1.2-0.2c0.5,0,1,0.1,1.5,0.3
	c-0.2,0.5-0.5,0.9-0.9,1.2C114.6,129.1,114.3,129.3,113.9,129.5L113.9,129.5z M105,125.4c-0.3-0.1-0.5-0.1-0.8-0.1
	c-0.1,0-0.3,0-0.4,0c-0.1-0.4-0.1-0.8-0.1-1.2c0-0.5,0.1-1,0.2-1.5c0.5,0.2,0.9,0.5,1.2,0.9c0.3,0.3,0.5,0.6,0.7,0.9
	C105.5,124.7,105.2,125,105,125.4L105,125.4z M109.7,125.4c-0.2-0.4-0.5-0.7-0.8-0.9c0.2-0.3,0.4-0.7,0.7-0.9
	c0.4-0.4,0.8-0.6,1.2-0.9c0.2,0.5,0.3,1,0.3,1.5c0,0.4-0.1,0.8-0.2,1.1c-0.1,0-0.3,0-0.4,0C110.3,125.3,110,125.4,109.7,125.4
	L109.7,125.4z M98.8,124.6c0.2-0.5,0.4-0.9,0.8-1.2c0.3-0.3,0.6-0.5,0.9-0.6l0,0l0,0h0.1l0.1-0.1h0.1h0.1c-0.1,0.5-0.2,1.1-0.2,1.7
	v0.2h-0.2c-0.5,0-1.1,0.1-1.6,0.2L98.8,124.6z M115.9,124.6c-0.5-0.1-1.1-0.2-1.6-0.2h-0.2v-0.1c0-0.6-0.1-1.1-0.2-1.7h0.1l0,0l0,0
	h0.1l0,0h0.1h0.1l0,0l0.1,0.1l0,0l0.1,0.1l0,0c0.2,0.1,0.4,0.3,0.5,0.4c0.4,0.4,0.6,0.8,0.8,1.2L115.9,124.6z M113.9,122.5
	c0,0,0-0.1,0-0.1l0,0l0.2,0.1L113.9,122.5L113.9,122.5z M107.4,121.6l-0.1-0.1c-0.4-0.4-0.8-0.7-1.3-1c0.5-0.2,1-0.3,1.5-0.3
	c0.4,0,0.7,0.1,1.1,0.2l0,0l0.1,0.1l0,0h0.1l0,0l0,0h0.1c-0.5,0.3-0.9,0.6-1.3,1L107.4,121.6L107.4,121.6z"/>
<path class="st1" d="M107.4,144.1L107.4,144.1c-1.5,0-2.9-0.6-4-1.7c-0.2-0.2-0.3-0.4-0.5-0.6c-0.2,0-0.5,0-0.7,0.1
	c-3.1,0-5.6-2.5-5.7-5.6c0-0.1,0-0.2,0-0.4c0-0.1,0-0.3,0-0.5c-0.2-0.2-0.4-0.3-0.5-0.5c-2.2-2.2-2.3-5.7-0.1-7.9
	c0.1-0.1,0.2-0.2,0.3-0.3l0.4-0.3c0-0.2,0-0.3,0-0.5c-0.1-1.6,0.5-3.2,1.6-4.3c0.4-0.4,0.9-0.7,1.4-1h0.1l0,0h0.1l0.2-0.1l0,0h0.1
	h0.1h0.1h0.1l0,0l0,0h0.1l0.2-0.1l0.3-0.1h0.1h0.1l0,0l0,0h0.1h0.2c0.3,0,0.5,0,0.8,0c0.2,0,0.5,0,0.7,0l0.3-0.4
	c1.1-1.2,2.6-1.9,4.2-1.9c0.6,0,1.2,0.1,1.7,0.3h0.1l0,0h0.1l0.2,0.1h0.1h0.1l0.1,0.1l0,0l0,0h0.1l0,0l0,0l0,0
	c0.1,0,0.1,0.1,0.2,0.1c0.1,0.1,0.2,0.1,0.3,0.2l0,0l0,0l0,0l0.1,0.1l0,0l0,0l0,0l0.2,0.1c0.2,0.2,0.4,0.3,0.6,0.5
	c0.2,0.2,0.3,0.3,0.5,0.5c0.4-0.1,0.8-0.1,1.3,0c0.5,0,0.9,0.1,1.3,0.2h0.1h0.1h0.1h0.1l0.2,0.1l0,0h0.1l0.3,0.1l0.2,0.1l0.2,0.1
	l0,0h0.1l0.2,0.1l0.2,0.1l0,0c0.3,0.2,0.6,0.4,0.8,0.7c1.1,1.1,1.7,2.7,1.6,4.3c0,0.2,0,0.3,0,0.5c0.2,0.2,0.4,0.3,0.6,0.5
	c0.3,0.3,0.6,0.6,0.8,1l0,0l0,0l0,0l0,0l0.1,0.1v0.1v0.1l0.1,0.1l0,0l0,0l0,0l0,0c0,0.1,0.1,0.2,0.1,0.3c0,0.1,0.1,0.1,0.1,0.2l0,0
	c0,0,0,0.1,0.1,0.1l0,0v0.1l0.1,0.2c0,0.1,0,0.2,0.1,0.3l0,0c0.1,0.3,0.1,0.7,0.1,1.1c0.2,1.7-0.4,3.4-1.6,4.7l-0.4,0.3
	c0.1,1.1,0,2.2-0.5,3.2l0,0l0,0l0,0l0,0l0,0l0,0l0,0l-0.1,0.2c0,0,0,0.1-0.1,0.1l0,0v0.1c-1.1,1.6-2.8,2.5-4.7,2.5
	c-0.2,0-0.5,0-0.7-0.1c-0.7,0.9-1.6,1.5-2.6,1.9h-0.1l0,0h-0.1h-0.1l-0.3,0.1h-0.1h-0.1c-0.4,0.1-0.7,0.1-1.1,0.1L107.4,144.1z
	 M104.3,141.6c0.8,0.8,1.9,1.3,3.1,1.3c0.3,0,0.6,0,0.9-0.1l0,0h0.1l0.2-0.1l0,0h0.1h0.1c0.6-0.2,1.2-0.6,1.7-1.1
	c-0.9-0.3-1.7-0.8-2.4-1.5l-0.2-0.2l-0.6-0.6l-0.6,0.6l-0.2,0.2C105.9,140.8,105.1,141.3,104.3,141.6L104.3,141.6z M97.8,136.3
	c0,2.4,1.9,4.4,4.3,4.4c0,0,0,0,0.1,0c-0.4-0.9-0.6-1.8-0.6-2.7c0-0.1,0-0.2,0-0.2v-0.8h-0.8h-0.2C99.6,136.9,98.6,136.7,97.8,136.3
	L97.8,136.3z M113.2,136.9v0.8c0,0.1,0,0.2,0,0.2c0,0.9-0.2,1.9-0.6,2.7c1.2,0,2.3-0.4,3.1-1.3c0.2-0.2,0.4-0.4,0.6-0.7l0,0l0,0
	c0,0,0,0,0.1-0.1l0.1-0.2v-0.1v-0.1v-0.1c0.3-0.6,0.4-1.3,0.4-1.9c-0.9,0.4-1.8,0.6-2.7,0.6h-0.2h-0.8L113.2,136.9z M103.2,135.9
	l-0.2,0.7c-0.1,0.5-0.2,1-0.2,1.4c0,0.9,0.2,1.8,0.7,2.6c0.9-0.2,1.6-0.7,2.3-1.3c0.3-0.3,0.6-0.7,0.9-1.2l0.3-0.6l-0.6-0.4
	c-0.5-0.3-0.7-0.9-0.8-1.4c0-0.1,0-0.2,0-0.3c-0.1,0.1-0.1,0.2-0.2,0.2c-0.3,0.3-0.8,0.5-1.2,0.5c-0.1,0-0.2,0-0.3,0L103.2,135.9
	L103.2,135.9z M107.8,137.4l0.3,0.6c0.2,0.4,0.5,0.8,0.9,1.2c0.6,0.6,1.4,1.1,2.3,1.3c0.7-1.2,0.8-2.7,0.4-4l-0.2-0.7l-0.7,0.1
	c-0.1,0-0.2,0-0.3,0c-0.5,0-0.9-0.2-1.2-0.5c-0.1-0.1-0.1-0.1-0.2-0.2c0,0.1,0,0.2,0,0.3c0,0.6-0.3,1.1-0.8,1.4L107.8,137.4
	L107.8,137.4z M98,135c0.8,0.4,1.7,0.7,2.6,0.7l0,0c0.5,0,1-0.1,1.4-0.2l0.7-0.2l-0.1-0.7c-0.1-0.6,0.1-1.2,0.5-1.6l0.2-0.2
	c-0.1,0-0.2,0-0.3,0c-0.6,0-1.1-0.3-1.4-0.8l-0.4-0.6l-0.6,0.3C99.3,132.5,98.3,133.7,98,135L98,135z M112.1,135.3l0.7,0.2
	c1.3,0.4,2.8,0.2,4-0.4c-0.2-0.9-0.7-1.6-1.3-2.3c-0.4-0.3-0.7-0.6-1.2-0.9l-0.6-0.3l-0.4,0.6c-0.3,0.5-0.9,0.8-1.4,0.8
	c-0.1,0-0.2,0-0.3,0l0.2,0.2c0.4,0.4,0.6,1,0.5,1.6L112.1,135.3L112.1,135.3z M104.2,132.5c1,0,1.8,0.8,1.8,1.7c0,0.1,0,0.2,0,0.3
	c0.6-0.8,1.6-1,2.4-0.4c0.2,0.1,0.3,0.3,0.4,0.4c0-0.1,0-0.2,0-0.3c0-0.5,0.2-0.9,0.5-1.2c0.3-0.3,0.8-0.5,1.2-0.5h0.3
	c-0.5-0.3-0.7-0.8-0.7-1.4c0-0.6,0.3-1.1,0.8-1.4c-0.1,0-0.2,0-0.3,0c-1,0-1.7-0.8-1.8-1.7c0,0,0,0,0,0c0-0.1,0-0.2,0-0.3
	c-0.1,0.1-0.1,0.2-0.2,0.2c-0.7,0.7-1.8,0.7-2.5,0c-0.1-0.1-0.1-0.1-0.2-0.2c0,0.1,0,0.2,0,0.3c0,1-0.8,1.7-1.7,1.8c0,0,0,0,0,0
	c-0.1,0-0.2,0-0.3,0c0.1,0.1,0.2,0.1,0.2,0.2c0.7,0.7,0.7,1.8,0,2.5c0,0,0,0,0,0c-0.1,0.1-0.2,0.2-0.2,0.2
	C104,132.6,104.1,132.6,104.2,132.5L104.2,132.5z M96.9,128c-1.7,1.7-1.7,4.4,0,6.2c0,0,0,0,0,0c0.3-0.9,0.8-1.7,1.5-2.4l0.2-0.2
	l0.6-0.6l-0.6-0.6l-0.2-0.2C97.7,129.7,97.2,128.9,96.9,128L96.9,128z M115.6,131.1l0.6,0.6l0.2,0.2c0.7,0.7,1.2,1.5,1.5,2.4
	c0.8-0.8,1.3-1.9,1.3-3.1c0-0.3,0-0.6-0.1-0.9c0-0.1,0-0.1-0.1-0.2c0-0.1,0-0.1,0-0.1v-0.1v-0.1c0,0,0-0.1-0.1-0.1l-0.1-0.1l0,0l0,0
	c0,0-0.1-0.1-0.1-0.1l0,0l0,0l-0.1-0.3l0,0V129c-0.2-0.3-0.4-0.6-0.6-0.8c-0.3,0.9-0.8,1.7-1.5,2.4l-0.2,0.2l-0.6,0.6L115.6,131.1z
	 M98,127.2c0.2,0.9,0.7,1.6,1.3,2.3c0.3,0.4,0.7,0.7,1.2,0.9l0.6,0.4l0.4-0.6c0.3-0.5,0.9-0.8,1.4-0.8h0.3c-0.1-0.1-0.1-0.1-0.2-0.2
	c-0.4-0.4-0.6-1-0.5-1.6l0.1-0.7l-0.7-0.2c-0.5-0.1-1-0.2-1.5-0.2C99.6,126.5,98.7,126.8,98,127.2L98,127.2z M111.8,129.4
	c0.6,0,1.1,0.3,1.4,0.8l0.4,0.6l0.6-0.3c0.4-0.2,0.8-0.5,1.2-0.9c0.6-0.6,1.1-1.4,1.3-2.3c-0.8-0.4-1.6-0.7-2.5-0.7
	c-0.5,0-1,0.1-1.4,0.2l-0.7,0.2l0.1,0.7c0.1,0.6-0.1,1.2-0.5,1.6c-0.1,0.1-0.2,0.1-0.2,0.2L111.8,129.4L111.8,129.4z M107.8,124.8
	l0.6,0.4c0.5,0.3,0.7,0.9,0.8,1.4c0,0.1,0,0.2,0,0.3c0.1-0.1,0.1-0.2,0.2-0.2c0.3-0.3,0.8-0.5,1.2-0.5c0.1,0,0.2,0,0.3,0l0.7,0.1
	l0.2-0.7c0.1-0.5,0.2-0.9,0.2-1.4c0-0.9-0.2-1.8-0.7-2.5c-0.9,0.2-1.6,0.7-2.3,1.3c-0.3,0.3-0.6,0.7-0.9,1.2L107.8,124.8
	L107.8,124.8z M104.3,126.2c0.5,0,0.9,0.2,1.2,0.5c0.1,0.1,0.1,0.1,0.2,0.2c0-0.1,0-0.2,0-0.3c0-0.6,0.3-1.1,0.8-1.4l0.6-0.4
	l-0.3-0.6c-0.2-0.4-0.5-0.8-0.9-1.1c-0.6-0.6-1.4-1.1-2.3-1.3c-0.4,0.8-0.7,1.7-0.7,2.5c0,0.5,0.1,1,0.2,1.5l0.2,0.7l0.7-0.1
	C104.1,126.2,104.2,126.2,104.3,126.2L104.3,126.2z M101.2,121.6L101.2,121.6c-0.1,0-0.2,0-0.3,0.1h-0.1l0,0h-0.1h-0.1l0,0h-0.1
	h-0.1l-0.1,0.1h-0.1l0,0l0,0l0,0c-0.4,0.2-0.8,0.5-1.1,0.8c-0.8,0.8-1.3,1.9-1.3,3.1c0.9-0.4,1.8-0.6,2.7-0.6h0.2h0.8v-0.8v0
	c0-0.9,0.2-1.9,0.6-2.7c-0.2,0-0.4,0-0.6,0h-0.2h-0.1h-0.1h-0.1L101.2,121.6z M114.3,125.3L114.3,125.3c0.9,0,1.9,0.2,2.7,0.6
	c0-1.2-0.4-2.3-1.3-3.1c-0.2-0.2-0.4-0.4-0.7-0.5l-0.2-0.1c0,0-0.1-0.1-0.1-0.1l0,0h-0.1l0,0l-0.1-0.1l-0.2-0.1l0,0l0,0l-0.1-0.1
	l0,0l-0.3-0.1l0,0h-0.1c-0.3-0.1-0.7-0.1-1-0.1c0.4,0.9,0.6,1.8,0.6,2.7v0.2v0.8h0.8L114.3,125.3z M104.3,120.6
	c0.9,0.3,1.7,0.8,2.4,1.5l0.2,0.2l0.6,0.6l0.6-0.6c0.1-0.1,0.1-0.1,0.2-0.2c0.7-0.7,1.5-1.2,2.4-1.5c-0.1-0.1-0.3-0.3-0.5-0.4
	l-0.1-0.1l0,0l0,0l0,0l0,0h-0.1l0,0l-0.2-0.1l-0.1-0.1l0,0h-0.1l0,0l0,0l0,0h-0.1l0,0l0,0l-0.1-0.1l0,0h-0.1l0,0l0,0
	c-1.6-0.5-3.3-0.1-4.4,1.1L104.3,120.6z"/>
<path class="st0" d="M129.1,142.8l-0.2,0.1c-0.3-0.6-0.9-1-1.6-1.1c-0.3,0-0.3,0.1-0.3,0.3v3.2c0,0.2,0,0.4,0.1,0.5
	c0.1,0.2,0.3,0.2,0.5,0.2h0.1v0.2h-2.2v-0.2h0.1c0.2,0,0.4,0,0.5-0.2c0.1-0.2,0.1-0.4,0.1-0.6v-3.2c0-0.2,0-0.4-0.3-0.4
	c-0.7,0-1.3,0.4-1.6,1.1l-0.2-0.1l0.4-1.2h4.1L129.1,142.8z"/>
<path class="st0" d="M133.2,145.4c0,0.4,0.1,0.6,0.5,0.7h0.1v0.2h-1.9v-0.2h0.1c0.5,0,0.6-0.2,0.6-0.7v-1.5c0-0.2,0-0.4-0.1-0.5
	c-0.1-0.1-0.3-0.2-0.5-0.2c-0.5,0-0.9,0.2-1.2,0.6v1.7c0,0.4,0.1,0.7,0.5,0.7h0.1v0.2h-1.9v-0.2h0.1c0.5,0,0.6-0.2,0.6-0.7v-3
	c0-0.4,0-0.6-0.5-0.7h-0.1v-0.2c0.3,0,0.7-0.1,1-0.2h0.3v2.2c0.4-0.4,0.9-0.6,1.4-0.6c0.3,0,0.6,0.1,0.8,0.2
	c0.2,0.2,0.3,0.5,0.3,0.8L133.2,145.4L133.2,145.4z"/>
<path class="st0" d="M135.2,144.3v0.4c0,0.4,0.1,0.7,0.3,1c0.2,0.3,0.5,0.5,0.9,0.4c0.4,0,0.8-0.3,1-0.6l0.2,0.1
	c-0.3,0.5-0.8,0.9-1.4,0.8c-0.5,0-0.9-0.1-1.2-0.4c-0.3-0.4-0.5-0.8-0.5-1.3c-0.1-0.9,0.6-1.7,1.5-1.8c0.1,0,0.1,0,0.2,0l0,0
	c0.8,0,1.5,0.5,1.5,1.3c0,0,0,0.1,0,0.1l0,0L135.2,144.3z M136.9,144c0-0.4-0.3-0.8-0.7-0.9c0,0-0.1,0-0.1,0c-0.5,0-0.9,0.4-0.9,0.9
	H136.9z"/>
<path class="st1" d="M141.7,142.4c0-0.4,0-0.6-0.5-0.7h-0.1v-0.2h2v0.2H143c-0.2,0-0.4,0-0.5,0.2c-0.1,0.2-0.1,0.4-0.1,0.6v1.1h2.5
	v-1.2c0-0.4,0-0.7-0.5-0.7h-0.1v-0.2h2v0.2h-0.1c-0.2,0-0.4,0-0.5,0.2c-0.1,0.2-0.1,0.3-0.1,0.5v2.9c0,0.4,0,0.6,0.5,0.7h0.1v0.2h-2
	v-0.2h0.1c0.2,0,0.4,0,0.5-0.2c0.1-0.2,0.1-0.4,0.1-0.6v-1.4h-2.5v1.5c0,0.4,0,0.7,0.5,0.7h0.1v0.2h-2v-0.2h0.1c0.2,0,0.4,0,0.5-0.2
	c0.1-0.2,0.1-0.3,0.1-0.5L141.7,142.4L141.7,142.4z"/>
<path class="st1" d="M151,146.2c-0.2,0.2-0.4,0.2-0.7,0.2l0,0c-0.3,0-0.7-0.2-0.8-0.5c-0.4,0.3-0.8,0.5-1.3,0.5
	c-0.5,0-1.1-0.3-1.1-0.8s0.3-0.7,0.7-0.9c0.4-0.2,0.8-0.3,1.2-0.3h0.5v-0.5c0-0.2-0.1-0.4-0.2-0.5c-0.2-0.1-0.4-0.2-0.6-0.1
	c-0.2,0-0.7,0.1-0.7,0.4v0.1c0,0.2-0.1,0.4-0.4,0.4c-0.2,0-0.3-0.1-0.3-0.3c0,0,0,0,0,0c0-0.3,0.3-0.6,0.6-0.7
	c0.3-0.1,0.7-0.2,1-0.2l0,0c0.3,0,0.6,0.1,0.9,0.2c0.4,0.2,0.4,0.5,0.4,0.9v1.4c0,0.3,0,0.7,0.4,0.7c0.1,0,0.2,0,0.3-0.1L151,146.2z
	 M149.5,144.6c-0.5,0-1.7,0.2-1.7,0.9c0,0.3,0.3,0.6,0.6,0.6c0,0,0,0,0,0c0.4,0,0.7-0.2,1-0.5L149.5,144.6z"/>
<path class="st1" d="M155.8,143.9c0-0.1,0.1-0.2,0.1-0.4c0-0.3-0.2-0.4-0.5-0.4v-0.2h1.6v0.2c-0.4,0.1-0.6,0.4-0.8,0.8l-0.9,2.4
	h-0.5l-0.7-2l-0.9,2h-0.5l-0.9-2.6c-0.1-0.3-0.2-0.5-0.7-0.6v-0.2h1.7v0.2c-0.2,0-0.4,0-0.4,0.2c0,0.1,0,0.2,0.1,0.3l0.7,2l0.8-1.8
	l-0.1-0.1c-0.1-0.4-0.2-0.6-0.7-0.6v-0.2h1.6v0.2c-0.2,0-0.4,0-0.4,0.2c0,0.1,0,0.2,0.1,0.3l0.7,2L155.8,143.9z"/>
<path class="st1" d="M161.3,146.2c-0.2,0.2-0.4,0.2-0.7,0.2l0,0c-0.3,0-0.7-0.2-0.8-0.5c-0.4,0.3-0.8,0.5-1.3,0.5
	c-0.5,0-1.1-0.3-1.1-0.8s0.3-0.7,0.7-0.9c0.4-0.2,0.8-0.3,1.2-0.3h0.5v-0.5c0-0.2-0.1-0.4-0.2-0.5c-0.2-0.1-0.4-0.2-0.6-0.1
	c-0.2,0-0.7,0.1-0.7,0.4v0.1c0,0.2-0.1,0.4-0.4,0.4c-0.2,0-0.3-0.1-0.3-0.3c0-0.3,0.3-0.6,0.6-0.7c0.3-0.1,0.7-0.2,1-0.2l0,0
	c0.3,0,0.6,0.1,0.9,0.2c0.4,0.2,0.4,0.5,0.4,0.9v1.4c0,0.3,0,0.7,0.4,0.7c0.1,0,0.2,0,0.3-0.1L161.3,146.2z M159.8,144.6
	c-0.5,0-1.7,0.2-1.7,0.9c0,0.3,0.3,0.6,0.6,0.6c0,0,0,0,0,0c0.4,0,0.7-0.2,1-0.5L159.8,144.6z"/>
<path class="st1" d="M163,145.4c0,0.4,0.1,0.6,0.5,0.7h0.1v0.2h-1.9v-0.2h0.1c0.5,0,0.5-0.3,0.5-0.7V144c0-0.4-0.1-0.7-0.5-0.7h-0.1
	v-0.2l1.1-0.1h0.2L163,145.4z M162.7,142.6c-0.2,0-0.4-0.2-0.4-0.4c0,0,0,0,0,0c0-0.2,0.2-0.4,0.4-0.4c0.2,0,0.4,0.2,0.4,0.4
	C163.1,142.4,162.9,142.6,162.7,142.6C162.7,142.6,162.6,142.6,162.7,142.6L162.7,142.6z"/>
<path class="st1" d="M165.5,145.4c0,0.4,0.1,0.6,0.5,0.7h0.1v0.2h-1.9v-0.2h0.1c0.5,0,0.5-0.3,0.5-0.7V144c0-0.4-0.1-0.7-0.5-0.7
	h-0.1v-0.2l1.1-0.1h0.2V145.4z M165.1,142.6c-0.2,0-0.4-0.2-0.4-0.4c0,0,0,0,0,0c0-0.2,0.2-0.4,0.4-0.4c0.2,0,0.4,0.2,0.4,0.4
	c0,0,0,0,0,0C165.6,142.4,165.4,142.6,165.1,142.6C165.1,142.6,165.1,142.6,165.1,142.6z"/>
<path class="st0" d="M173.9,143l-0.3,0.1c-0.3-0.7-1-1.3-1.9-1.4c-1.1,0-1.5,1.2-1.5,2.2c0,0.5,0.1,1,0.4,1.4
	c0.3,0.5,0.8,0.7,1.3,0.8c0.7,0.1,1.3-0.4,1.4-1.1c0,0,0,0,0-0.1c0-0.5-0.2-0.6-0.7-0.7V144h2v0.2h-0.1c-0.2,0-0.4,0.1-0.5,0.2
	c-0.1,0.2-0.1,0.3-0.1,0.5v1.3h-0.4l-0.2-0.5c-1,0.9-2.5,0.8-3.4-0.3c-0.4-0.5-0.6-1.1-0.6-1.7c0-0.6,0.2-1.2,0.6-1.7
	c0.4-0.5,1.1-0.8,1.7-0.8c0.5,0,1,0.2,1.4,0.5l0.1-0.3h0.2L173.9,143z"/>
<path class="st0" d="M176.2,145.4c0,0.4,0.1,0.7,0.5,0.7h0.1v0.2h-1.9v-0.2h0.1c0.5,0,0.6-0.2,0.6-0.7V144c0-0.4-0.1-0.7-0.5-0.7
	h-0.1v-0.2l1.1-0.1h0.2v0.5c0.3-0.4,0.7-0.6,1.2-0.6c0.2,0,0.5,0.1,0.5,0.4c0,0.2-0.2,0.4-0.4,0.4c0,0,0,0,0,0
	c-0.3,0-0.4-0.2-0.6-0.2c-0.3,0-0.5,0.2-0.7,0.4V145.4z"/>
<path class="st0" d="M181,143.3c0.3,0.4,0.5,0.8,0.5,1.3c0,0.9-0.8,1.7-1.7,1.7s-1.7-0.8-1.7-1.7c-0.1-0.9,0.6-1.7,1.5-1.8
	c0.1,0,0.2,0,0.2,0C180.3,142.8,180.7,143,181,143.3z M179.8,143.1c-0.8,0-1,0.9-1,1.5s0.2,1.5,1,1.5s0.9-0.8,0.9-1.4
	c0-0.3,0-0.7-0.2-1C180.4,143.4,180.1,143.2,179.8,143.1L179.8,143.1z"/>
<path class="st0" d="M185.8,145.4c0,0.4,0,0.7,0.4,0.7h0.2v0.2h-1.3v-0.6c-0.4,0.4-0.9,0.6-1.5,0.6c-0.3,0-0.6-0.1-0.9-0.3
	c-0.2-0.2-0.3-0.5-0.2-0.8V144c0-0.4-0.1-0.7-0.5-0.7h-0.1v-0.2l1.1-0.1h0.2v2.3c0,0.2,0,0.3,0.1,0.5c0.1,0.2,0.3,0.3,0.5,0.3
	c0.5,0,1-0.2,1.3-0.6v-1.5c0-0.4-0.1-0.7-0.5-0.7h-0.1V143l1.1-0.1h0.2L185.8,145.4z"/>
<path class="st0" d="M188,147c0,0.4,0.1,0.6,0.5,0.7h0.1v0.2h-2v-0.2h0.1c0.4,0,0.5-0.3,0.5-0.7V144c0-0.4-0.1-0.7-0.5-0.7h-0.1
	v-0.2l1.1-0.1h0.2v0.4c0.3-0.3,0.7-0.5,1.1-0.5c0.9,0,1.6,0.7,1.6,1.6c0,0.1,0,0.1,0,0.2c0.1,0.9-0.5,1.7-1.4,1.8
	c-0.1,0-0.1,0-0.2,0c-0.4,0-0.8-0.1-1.1-0.3L188,147z M188,145.7c0.2,0.2,0.5,0.4,0.9,0.4c0.8,0,1.1-0.7,1.1-1.4s-0.2-1.4-1-1.4
	c-0.4,0-0.7,0.2-0.9,0.5L188,145.7z"/>
<path class="st0" d="M21.3,136.4c0.2,0.8,0.2,1.2,1.1,1.3v0.4h-3.2l0.1-0.4c0.4,0,1-0.1,1-0.7c0-0.1,0-0.2,0-0.4l-0.3-1.5h-3l-0.5,1
	c-0.2,0.3-0.3,0.6-0.4,1c0,0.4,0.3,0.5,0.7,0.6h0.2l-0.1,0.4h-3.1l0.1-0.4c0.7-0.1,1.2-0.5,1.5-1.1l3.6-6.5H20L21.3,136.4z
	 M19,131.1l-1.9,3.5h2.7L19,131.1z"/>
<path class="st0" d="M31.5,130.2c0.9-0.1,1.9,0.2,2.7,0.6c0.8,0.7,1.2,1.6,1.1,2.6c0,1.3-0.5,2.5-1.3,3.4c-0.9,0.9-2.2,1.4-3.6,1.3
	h-4l0.1-0.4c0.9-0.1,1.1-0.5,1.2-1.3l0.8-4.8c0-0.1,0-0.3,0-0.4c0-0.4-0.2-0.7-0.6-0.8c0,0,0,0-0.1,0h-0.1l0.1-0.4L31.5,130.2z
	 M28.8,136.7c0,0.1,0,0.2,0,0.4c0,0.2,0.1,0.3,0.2,0.4c0.3,0.1,0.7,0.2,1,0.2c1.1,0.1,2.3-0.4,3-1.3c0.6-0.9,1-1.9,1-3
	c0-1.7-0.8-2.7-2.6-2.7c-0.4,0-0.9,0-1.3,0.2c-0.2,0.2-0.4,0.4-0.4,0.7L28.8,136.7z"/>
<path class="st0" d="M37.5,136.5c0,0.1,0,0.3,0,0.4c0,0.3,0.2,0.6,0.5,0.6c0,0,0.1,0,0.1,0c0.3,0,0.6-0.2,0.8-0.4l0.3,0.2
	c-0.4,0.5-1,0.8-1.7,0.8c-0.6,0-1.1-0.4-1.1-1c0,0,0-0.1,0-0.1c0-0.2,0-0.4,0.1-0.5l0.4-2.4c0-0.1,0.1-0.3,0.1-0.4
	c0-0.5-0.3-0.6-0.8-0.6h-0.1l0.1-0.4l0.5-0.1c0.4,0,0.8-0.1,1.2-0.2h0.4L37.5,136.5z M37.9,131.8c-0.3,0-0.5-0.3-0.5-0.6
	c0,0,0,0,0,0c0-0.4,0.4-0.8,0.8-0.8c0.3,0,0.6,0.2,0.6,0.5c0,0,0,0,0,0.1C38.7,131.4,38.4,131.8,37.9,131.8z"/>
<path class="st0" d="M41,136.4c0,0.2,0,0.3,0,0.5c0,0.6,0.4,0.7,0.9,0.7c1.4-0.1,2.5-1.3,2.6-2.7c0-1.3-0.9-1.2-0.9-1.8
	c0-0.4,0.3-0.7,0.7-0.7c0.3,0,0.6,0.2,0.7,0.5c0.2,0.3,0.2,0.7,0.2,1.1c0,2.1-1.3,4.2-3.6,4.2c-0.8,0-1.6-0.2-1.6-1.2
	c0-0.3,0-0.5,0.1-0.8l0.4-2.1c0-0.1,0-0.3,0-0.4c0-0.4-0.2-0.5-0.5-0.6h-0.3v-0.4c0.6,0,1.2-0.1,1.7-0.3h0.4L41,136.4z"/>
<path class="st0" d="M47.5,136.5c0,0.1,0,0.3,0,0.4c0,0.3,0.2,0.6,0.5,0.6c0,0,0.1,0,0.1,0c0.3,0,0.6-0.2,0.8-0.4l0.3,0.2
	c-0.4,0.5-1,0.8-1.7,0.8c-0.6,0-1.1-0.4-1.1-1c0,0,0-0.1,0-0.1c0-0.2,0-0.4,0-0.5l0.4-2.4c0-0.1,0.1-0.3,0.1-0.4
	c0-0.5-0.3-0.6-0.8-0.6h-0.1l0.1-0.4l0.5-0.1c0.4,0,0.8-0.1,1.2-0.2h0.4L47.5,136.5z M47.9,131.8c-0.3,0-0.6-0.3-0.5-0.6
	c0,0,0,0,0,0c0-0.4,0.4-0.8,0.8-0.8c0.3,0,0.6,0.2,0.6,0.5c0,0,0,0,0,0.1C48.8,131.4,48.4,131.8,47.9,131.8z"/>
<path class="st0" d="M51,135.2c-0.5-0.2-0.8-0.6-0.8-1.1c0-0.5,0.3-1,0.8-1.3c0.5-0.3,1-0.5,1.6-0.4c0.7,0,1.3,0.1,1.9,0.4
	c0.2,0.1,0.5,0.3,0.5,0.6c0,0.3-0.2,0.5-0.4,0.5c0,0,0,0-0.1,0c-0.3,0-0.5-0.1-0.7-0.4c-0.1-0.2-0.3-0.4-0.5-0.5
	c-0.2-0.1-0.5-0.2-0.8-0.2c-0.6,0-1.2,0.2-1.2,0.9c0,0.3,0.1,0.5,0.4,0.6c0.4,0.2,0.8,0.3,1.2,0.4c0.8,0.2,1.8,0.5,1.8,1.5
	c0,0.6-0.4,1.2-1,1.5c-0.6,0.3-1.2,0.5-1.8,0.5c-0.7,0-1.4-0.2-2-0.5c-0.3-0.1-0.6-0.4-0.6-0.8c0-0.3,0.3-0.5,0.5-0.5
	c1,0,0.6,1.3,2.2,1.3c0.4,0,0.7-0.1,1-0.3c0.3-0.2,0.5-0.5,0.5-0.8c0-0.6-0.6-0.8-1-0.9L51,135.2z"/>
<path class="st0" d="M57.6,136.5c0,0.1,0,0.3,0,0.4c0,0.3,0.2,0.6,0.5,0.6c0,0,0.1,0,0.1,0c0.3,0,0.6-0.2,0.8-0.4l0.3,0.2
	c-0.4,0.5-1,0.8-1.7,0.8c-0.6,0-1.1-0.4-1.1-1c0,0,0-0.1,0-0.1c0-0.2,0-0.4,0.1-0.5l0.4-2.4c0-0.1,0-0.3,0-0.4
	c0-0.5-0.3-0.6-0.8-0.6h-0.1l0.1-0.4l0.5-0.1c0.4,0,0.8-0.1,1.2-0.2h0.4L57.6,136.5z M58,131.8c-0.3,0-0.6-0.3-0.5-0.6c0,0,0,0,0,0
	c0-0.4,0.4-0.8,0.8-0.8c0.3,0,0.6,0.2,0.6,0.5c0,0,0,0,0,0.1C58.8,131.4,58.5,131.8,58,131.8z"/>
<path class="st0" d="M61.9,138.2c-1.2,0.1-2.4-0.8-2.5-2.1c0-0.1,0-0.2,0-0.3c0-0.9,0.4-1.7,1-2.4c0.6-0.7,1.5-1.1,2.5-1.1
	c1.3-0.1,2.4,0.9,2.4,2.1c0,0.1,0,0.2,0,0.3C65.3,136.7,63.8,138.2,61.9,138.2C61.9,138.2,61.9,138.2,61.9,138.2z M61.9,137.7
	c0.8,0,1.4-0.5,1.7-1.2c0.3-0.6,0.4-1.3,0.5-2c0-0.4-0.1-0.9-0.4-1.2c-0.3-0.2-0.6-0.4-1-0.3c-1.6,0-2.2,2-2.2,3.3
	C60.6,137,61,137.7,61.9,137.7L61.9,137.7z"/>
<path class="st0" d="M67.3,138.1h-1.1l0.7-4.1c0-0.1,0-0.3,0.1-0.4c0-0.5-0.4-0.5-0.8-0.6l0.1-0.4l1.6-0.3h0.4l-0.1,0.8
	c0.7-0.6,1.5-0.9,2.4-1c0.7,0,1.4,0.3,1.4,1.1c0,0.2,0,0.5-0.1,0.7l-0.4,2.3c0,0.2-0.1,0.3-0.1,0.5c0,0.3,0.2,0.6,0.6,0.6
	c0.3,0,0.6-0.2,0.8-0.4l0.2,0.2c-0.4,0.5-1,0.7-1.6,0.7c-0.6,0-1-0.4-1.1-0.9c0,0,0-0.1,0-0.1l0,0c0-0.4,0.1-0.8,0.2-1.1l0.3-1.9
	c0-0.2,0.1-0.4,0.1-0.6c0-0.4-0.4-0.7-0.8-0.7c0,0,0,0,0,0c-0.8,0.1-1.5,0.4-2.1,0.9L67.3,138.1z"/>
<path class="st0" d="M80.1,138.2c-1.2,0.1-2.4-0.8-2.5-2.1c0-0.1,0-0.2,0-0.3c0-0.9,0.4-1.7,1-2.4c0.6-0.7,1.5-1.1,2.5-1.1
	c1.3-0.1,2.4,0.9,2.4,2.1c0,0.1,0,0.2,0,0.3C83.6,136.7,82,138.2,80.1,138.2C80.1,138.2,80.1,138.2,80.1,138.2z M80.1,137.7
	c0.8,0,1.4-0.5,1.7-1.2c0.3-0.6,0.4-1.3,0.5-2c0-0.4-0.1-0.9-0.4-1.2c-0.3-0.2-0.6-0.4-1-0.3c-1.6,0-2.2,2-2.2,3.3
	C78.8,137,79.2,137.7,80.1,137.7L80.1,137.7z"/>
<path class="st0" d="M88.3,132.5l-0.1,0.4H87l-0.8,4.5c-0.1,0.8-0.3,1.7-0.8,2.4c-0.6,0.7-1.4,1-2.3,1c-0.5,0-1.6-0.2-1.6-0.9
	c0-0.3,0.3-0.4,0.6-0.4c0.8,0,0.8,0.9,1.5,0.9c0.3,0,0.7-0.2,0.9-0.4c0.2-0.3,0.3-0.7,0.4-1.1L85,138l0.9-5.2h-1l0.1-0.4H86
	c0-0.7,0.3-1.3,0.7-1.9c0.5-0.6,1.2-0.9,1.9-0.9c0.4,0,1.4,0.1,1.4,0.7c0,0.3-0.3,0.5-0.5,0.5c0,0,0,0,0,0c-0.7,0-0.5-0.7-1.2-0.7
	c-0.3,0-0.5,0.2-0.7,0.4c-0.2,0.3-0.3,0.6-0.3,1l-0.2,1L88.3,132.5z"/>
<path class="st0" d="M47.3,12.4h-0.6l-0.1-0.2c-0.4-0.9-0.9-1.7-1.5-2.4c-0.7-0.8-1.8-1.2-2.9-1.2c-1.3,0-2.4,0.6-3.1,1.7
	c-0.6,1.1-0.9,2.4-0.9,3.8c0,1.3,0.3,2.5,1,3.6c0.8,1.1,2,1.7,3.4,1.7c1.8-0.1,3.4-1,4.3-2.6l0.8,0.4c-1.7,2.9-5.4,3.9-8.4,2.2
	c-1.9-1.1-3.1-3.2-3.1-5.4c-0.1-3.3,2.4-6.1,5.8-6.2c0,0,0.1,0,0.1,0c1.3,0,2.5,0.4,3.5,1.2l0.4-0.8h0.6L47.3,12.4z"/>
<path class="st0" d="M58.5,19.4c-0.5,0.4-1.1,0.6-1.7,0.6h-0.1c-0.8,0.1-1.6-0.5-1.9-1.2c-0.9,0.8-2,1.2-3.2,1.2
	c-1.2,0-2.7-0.7-2.7-2c0-1.2,0.7-1.7,1.7-2.2c0.9-0.4,1.9-0.6,2.9-0.7l1.3-0.1v-1.3c0-0.5-0.2-1-0.6-1.3c-0.5-0.3-1-0.4-1.6-0.4
	c-0.5,0-1.7,0.3-1.7,0.9v0.2c0,0.6-0.2,1-0.9,1c-0.4,0-0.8-0.3-0.8-0.8c0-0.7,0.8-1.4,1.4-1.6c0.8-0.3,1.6-0.5,2.4-0.5h0.1
	c0.8,0,1.6,0.2,2.3,0.6c0.9,0.5,1,1.2,1,2.1v3.4c0,0.7,0.1,1.8,0.9,1.8c0.3,0,0.5-0.1,0.7-0.3L58.5,19.4z M54.9,15.6
	c-1.3,0.1-4.2,0.5-4.2,2.2c0,0.8,0.7,1.4,1.5,1.4c0,0,0.1,0,0.1,0c1-0.1,1.9-0.5,2.6-1.2V15.6z"/>
<path class="st0" d="M62,17.7c0,0.9,0.1,1.6,1.2,1.7h0.2v0.5h-4.6v-0.5H59c1.1-0.1,1.3-0.6,1.3-1.7v-7.4c0-0.9-0.1-1.6-1.3-1.7h-0.2
	V8c0.9-0.1,1.7-0.3,2.5-0.6H62V17.7z"/>
<path class="st0" d="M67.2,17.7c0,1,0.1,1.6,1.2,1.7h0.2v0.5h-4.6v-0.5h0.2c1.1-0.1,1.3-0.6,1.3-1.7v-3.6c0-1-0.2-1.6-1.3-1.7H64
	v-0.5l2.7-0.4h0.6L67.2,17.7z M66.4,10.6c-0.6,0-1-0.4-1-1c0,0,0-0.1,0-0.1c0-0.5,0.5-1,1-1c0.6,0,1,0.5,1,1
	C67.4,10.1,66.9,10.6,66.4,10.6L66.4,10.6z"/>
<path class="st0" d="M74.1,12h-1.7v5.7c0,1,0.1,1.6,1.2,1.7h0.2v0.5h-4.6v-0.5h0.1c1.1-0.1,1.3-0.6,1.3-1.7V12h-1.5v-0.6h1.4v-0.7
	c-0.1-0.9,0.2-1.8,0.8-2.5c0.9-0.8,2-1.2,3.1-1.2c0.6,0,1.5,0.3,1.5,1c0,0.4-0.4,0.8-0.8,0.8c-0.8,0-0.8-1-1.6-1
	c-0.3,0-0.6,0.2-0.9,0.4c-0.3,0.4-0.5,0.9-0.4,1.3v1.9H74L74.1,12z"/>
<path class="st0" d="M82.3,12.4c0.8,0.9,1.3,2.1,1.3,3.3c0,2.3-1.9,4.3-4.2,4.3c-2.3,0-4.3-1.9-4.3-4.2l0,0c0-2.6,1.5-4.5,4.2-4.5
	C80.4,11.3,81.5,11.6,82.3,12.4z M79.3,12c-2,0-2.4,2.1-2.4,3.7s0.5,3.6,2.6,3.6c1.9,0,2.3-2,2.3-3.5c0-0.9-0.1-1.7-0.4-2.5
	C80.9,12.5,80.2,12,79.3,12L79.3,12z"/>
<path class="st0" d="M87.7,17.7c0,1,0.2,1.6,1.3,1.7h0.3v0.5h-4.8v-0.5h0.2c1.1-0.1,1.3-0.6,1.3-1.7v-3.6c0-1-0.2-1.6-1.3-1.7h-0.3
	v-0.5l2.7-0.4h0.6v1.3c0.7-0.9,1.8-1.4,2.9-1.5c0.6,0,1.3,0.2,1.3,0.9c0,0.5-0.4,0.9-0.9,0.9c0,0-0.1,0-0.1,0c-0.8,0-1-0.6-1.5-0.6
	c-0.7,0.1-1.3,0.5-1.7,1L87.7,17.7z"/>
<path class="st0" d="M101.6,17.7c0,0.9,0.2,1.6,1.2,1.7h0.2v0.5h-4.6v-0.5h0.2c1.1-0.1,1.2-0.7,1.2-1.7v-3.6c0-0.4-0.1-0.9-0.3-1.3
	c-0.3-0.4-0.7-0.6-1.2-0.6c-1.2,0.1-2.3,0.6-3.1,1.4v4.1c0,1,0.2,1.6,1.2,1.7h0.2v0.5h-4.7v-0.5h0.2c1.1-0.1,1.4-0.6,1.4-1.7v-3.6
	c0-1-0.2-1.6-1.3-1.7h-0.3v-0.5l2.7-0.4h0.6v1.4c1-1,2.3-1.5,3.7-1.6c0.7,0,1.4,0.2,1.9,0.7c0.5,0.5,0.8,1.1,0.7,1.8L101.6,17.7z"/>
<path class="st0" d="M106.8,17.7c0,1,0.1,1.6,1.2,1.7h0.2v0.5h-4.6v-0.5h0.2c1.1-0.1,1.3-0.6,1.3-1.7v-3.6c0-1-0.2-1.6-1.3-1.7h-0.3
	v-0.5l2.7-0.4h0.6L106.8,17.7z M106,10.6c-0.6,0-1-0.4-1-1c0,0,0-0.1,0-0.1c0-0.5,0.5-1,1-1c0.6,0,1,0.5,1,1
	C107,10.1,106.6,10.6,106,10.6L106,10.6z"/>
<path class="st0" d="M118.7,19.4c-0.5,0.4-1.1,0.6-1.7,0.6h-0.1c-0.8,0.1-1.6-0.5-1.9-1.2c-0.9,0.8-2.1,1.2-3.3,1.2
	c-1.2,0-2.7-0.7-2.7-2c0-1.2,0.7-1.7,1.7-2.2c0.9-0.4,1.9-0.6,2.9-0.7L115,15v-1.3c0-0.5-0.2-1-0.6-1.3c-0.5-0.3-1-0.4-1.6-0.4
	c-0.5,0-1.7,0.3-1.7,0.9v0.2c0,0.6-0.2,1-0.9,1c-0.4,0-0.8-0.3-0.8-0.8c0-0.7,0.8-1.4,1.4-1.6c0.8-0.3,1.6-0.5,2.4-0.5h0.1
	c0.8,0,1.6,0.2,2.3,0.6c0.9,0.5,1,1.2,1,2.1v3.4c0,0.7,0.1,1.8,1,1.8c0.3,0,0.5-0.1,0.7-0.3L118.7,19.4z M115,15.6
	c-1.3,0.1-4.2,0.5-4.2,2.2c0,0.8,0.7,1.4,1.5,1.4c0,0,0.1,0,0.1,0c1-0.1,1.9-0.5,2.6-1.2V15.6z"/>
<path class="st0" d="M133.6,16.9c0.4,1.1,0.7,2.1,2.1,2.2v0.5h-4.9v-0.5c0.6-0.1,1.4-0.2,1.4-0.9c0-0.3-0.1-0.6-0.3-0.9l-0.8-2h-4.5
	l-0.5,1.3c-0.2,0.5-0.3,0.9-0.4,1.4c0,0.9,0.7,1,1.5,1.1v0.5h-4.6v-0.5h0.2c0.7-0.1,1.3-0.5,1.6-1.2c0.4-0.9,0.8-1.8,1.1-2.7
	l2.9-7.5h1.6L133.6,16.9z M130.8,14.4l-2-5.2l-1.9,5.2H130.8z"/>
<path class="st0" d="M143.7,17.8c-0.8,1.3-2.2,2-3.7,1.9c-2.2,0.2-4.1-1.5-4.3-3.7c0-0.2,0-0.4,0-0.6c-0.2-2.2,1.5-4.2,3.7-4.4
	c0.2,0,0.4,0,0.6,0c0.8,0,1.6,0.2,2.3,0.6c0.6,0.3,1.1,1,1.2,1.7c0.1,0.5-0.3,0.9-0.8,1c0,0-0.1,0-0.1,0c-0.5,0-0.9-0.4-0.9-0.8
	c0,0,0,0,0,0c0-0.2,0.1-0.4,0.1-0.7c0-0.8-1.1-1.1-1.7-1.1c-2,0-2.4,2.2-2.4,3.7l0,0c0,1.8,0.8,3.6,2.8,3.6c1.1,0,2.1-0.6,2.7-1.6
	L143.7,17.8z"/>
<path class="st0" d="M152.8,17.8c-0.8,1.3-2.2,2-3.7,1.9c-2.4-0.1-4.3-2.2-4.2-4.6c0.1-2.2,1.9-4,4.2-4.2c0.8,0,1.6,0.2,2.3,0.6
	c0.6,0.3,1.1,1,1.2,1.7c0.1,0.5-0.3,0.9-0.8,1c0,0-0.1,0-0.1,0c-0.5,0-0.9-0.4-0.9-0.8c0,0,0,0,0,0c0-0.2,0.1-0.4,0.1-0.7
	c0-0.8-1.1-1.1-1.7-1.1c-2,0-2.4,2.2-2.4,3.7l0,0c0,1.8,0.8,3.6,2.8,3.6c1.1,0,2.1-0.6,2.7-1.6L152.8,17.8z"/>
<path class="st0" d="M161,12.1c0.8,0.9,1.3,2.1,1.3,3.3c0,2.3-1.9,4.3-4.2,4.3c-2.3,0-4.3-1.9-4.3-4.2c0-2.6,1.5-4.5,4.2-4.5
	C159.1,11,160.2,11.4,161,12.1z M158,11.7c-2,0-2.4,2.1-2.4,3.7s0.5,3.6,2.6,3.6c1.9,0,2.3-2,2.3-3.5c0-0.9-0.1-1.7-0.4-2.5
	C159.7,12.2,158.9,11.7,158,11.7L158,11.7z"/>
<path class="st0" d="M172.8,17.4c0,0.9,0.1,1.7,1,1.7h0.1h0.3v0.5h-3.1v-1.5c-1,1-2.3,1.6-3.7,1.6c-0.8,0-1.5-0.2-2.1-0.8
	c-0.4-0.6-0.6-1.3-0.5-2v-3.2c0-1-0.2-1.6-1.3-1.7h-0.3v-0.5l2.7-0.4h0.6V17c0,0.4,0.1,0.8,0.2,1.2c0.3,0.4,0.8,0.7,1.3,0.6
	c1.2-0.1,2.3-0.6,3.2-1.5v-3.6c0-1-0.2-1.6-1.3-1.7h-0.2v-0.5l2.7-0.4h0.6L172.8,17.4z"/>
<path class="st0" d="M184.6,17.4c0,0.9,0.2,1.6,1.2,1.7h0.2v0.5h-4.6v-0.5h0.2c1.1-0.1,1.2-0.7,1.2-1.7v-3.6c0-0.4-0.1-0.9-0.3-1.3
	c-0.3-0.4-0.7-0.6-1.2-0.6c-1.2,0.1-2.3,0.6-3.1,1.4v4.1c0,1,0.2,1.6,1.2,1.7h0.2v0.5h-4.7v-0.5h0.2c1.1,0,1.4-0.6,1.4-1.7v-3.6
	c0-1-0.2-1.6-1.3-1.7h-0.3v-0.5l2.7-0.4h0.6v1.4c1-1,2.3-1.5,3.7-1.6c0.7,0,1.4,0.2,1.9,0.7c0.5,0.5,0.8,1.1,0.7,1.8L184.6,17.4z"/>
<path class="st0" d="M192.1,11.8h-2.5v4.9c0,1,0,2.4,1.3,2.4c0.6,0,1.1-0.3,1.5-0.8l0.4,0.4c-0.6,0.7-1.5,1.2-2.4,1.1
	c-0.6,0-1.2-0.1-1.7-0.4c-0.6-0.4-0.9-1.2-0.8-1.9v-5.7h-1.5v-0.5c2-0.1,2.4-1.5,2.4-3.2h0.7v3.2h2.5L192.1,11.8z"/>
<path class="st0" d="M196.4,17.4c0,1,0.2,1.6,1.2,1.7h0.2v0.5h-4.6v-0.5h0.1c1.1-0.1,1.3-0.6,1.3-1.7v-3.6c0-1-0.2-1.6-1.3-1.7h-0.3
	v-0.5l2.7-0.4h0.5L196.4,17.4z M195.5,10.3c-0.6,0-1-0.4-1-1c0,0,0-0.1,0-0.1c0-0.6,0.5-1,1-1c0.6,0,1,0.5,1,1
	C196.6,9.9,196.2,10.3,195.5,10.3L195.5,10.3z"/>
<path class="st0" d="M207.8,17.4c0,0.9,0.1,1.6,1.2,1.7h0.2v0.5h-4.7v-0.5h0.2c1.1-0.1,1.2-0.7,1.2-1.7v-3.6c0-0.4-0.1-0.9-0.3-1.3
	c-0.3-0.4-0.7-0.6-1.2-0.6c-1.1,0.1-2.2,0.6-3,1.4v4.1c0,1,0.1,1.6,1.2,1.7h0.2v0.5h-4.7v-0.5h0.2c1.1,0,1.4-0.6,1.4-1.7v-3.6
	c0-1-0.2-1.6-1.3-1.7h-0.3v-0.5l2.7-0.4h0.6v1.4c1-1,2.3-1.5,3.7-1.6c0.7,0,1.4,0.2,1.9,0.7c0.5,0.5,0.8,1.1,0.7,1.8L207.8,17.4z"/>
<path class="st0" d="M216.1,18.8c1.3,0.2,2.8,0.4,2.8,2.1c0,2.4-2.8,2.9-4.7,2.9c-1.4,0-4.4-0.3-4.4-2.2c0-1,1-1.6,1.8-1.8l0,0
	c-0.7-0.1-1.2-0.7-1.3-1.4c0.1-0.9,0.8-1.7,1.7-1.8c-0.9-0.5-1.4-1.4-1.4-2.4v-0.1c0.1-1.8,1.7-3.2,3.5-3.1c0,0,0,0,0,0
	c0.5,0,1.1,0.1,1.6,0.3c0.4-0.9,1.2-1.5,2.2-1.5c0.5,0,1,0.2,1,0.7c0,0.4-0.3,0.6-0.6,0.7c0,0,0,0,0,0c-0.4,0-0.7-0.3-1.1-0.3
	s-0.7,0.4-0.9,0.7c0.9,0.6,1.4,1.6,1.4,2.6c0,0.8-0.4,1.6-1,2.1c-0.7,0.5-1.6,0.8-2.5,0.7c-0.5,0-1.1-0.1-1.6-0.3
	c-0.4,0.1-0.8,0.5-0.8,0.9c0,0.6,1,0.7,1.4,0.7L216.1,18.8z M212.3,20c-0.7,0.2-1.3,0.8-1.4,1.6c0,1.5,2.3,1.8,3.4,1.8
	s3.4-0.2,3.4-1.8c0-1-1.2-1.1-2-1.2L212.3,20z M212.4,14.1c0,1.3,0.4,2.4,1.9,2.4c0.6,0,1.2-0.3,1.5-0.8c0.2-0.5,0.3-1.1,0.3-1.6
	c0-1.3-0.3-2.4-1.8-2.4S212.3,12.9,212.4,14.1L212.4,14.1z"/>
<path class="st2" d="M17.4,14c-0.3,0.5-0.9,0.7-1.4,0.7c-0.3,0-0.6-0.1-0.8-0.2c0.6-0.9,0.6-2.1,0-3c0.2-0.1,0.5-0.2,0.8-0.2
	c0.6,0,1.1,0.3,1.4,0.8c0.2-0.1,0.5-0.3,0.7-0.5c0.6-0.6,1-1.5,0.8-2.4c0,0,0-0.1,0-0.1s0-0.1,0-0.1s0-0.1,0-0.2V8.7
	c0,0,0-0.1,0-0.1c0,0,0-0.1,0-0.1c0,0,0-0.1-0.1-0.1c-0.1-0.2-0.3-0.4-0.4-0.6c-1.1-1-2.8-1-3.8,0.1c0,0,0,0,0,0
	c-0.2,0.2-0.4,0.4-0.5,0.7c0.4,0.3,0.6,0.9,0.6,1.4c0,0.3-0.1,0.5-0.2,0.8c-0.9-0.6-2.1-0.6-3,0c-0.1-0.2-0.2-0.5-0.2-0.8
	c0-0.6,0.3-1.1,0.7-1.4c-0.1-0.3-0.3-0.5-0.5-0.7c-0.9-1.1-2.6-1.2-3.7-0.3c-1.1,0.9-1.2,2.6-0.3,3.7c0.1,0.1,0.2,0.2,0.3,0.3
	C8,11.7,8.2,11.9,8.5,12c0.5-0.7,1.5-0.9,2.2-0.5c-0.6,0.9-0.6,2.1,0,3c-0.2,0.1-0.5,0.2-0.8,0.2c-0.6,0-1.1-0.3-1.4-0.8
	c-0.2,0.1-0.5,0.3-0.7,0.5c-1.1,0.9-1.2,2.6-0.3,3.7c0.2,0.2,0.3,0.3,0.5,0.5h0.1l0.2,0.1h0.1c1,0.5,2.3,0.3,3.1-0.5
	c0.2-0.2,0.4-0.4,0.5-0.7c-0.5-0.3-0.8-0.9-0.8-1.4c0-0.3,0.1-0.5,0.2-0.8c0.9,0.6,2.1,0.6,3,0c0.1,0.2,0.2,0.5,0.2,0.8
	c0,0.6-0.3,1.1-0.8,1.4c0.1,0.3,0.3,0.5,0.5,0.7c1,1.1,2.7,1.2,3.8,0.2c0.1-0.1,0.2-0.2,0.3-0.4V18l0.1-0.1c0,0,0-0.1,0-0.1
	c0,0,0-0.1,0-0.1c0,0,0-0.1,0-0.1c0-0.1,0.1-0.1,0.1-0.2l0,0c0.2-1-0.1-2-0.8-2.7C17.7,14.4,17.5,14.2,17.4,14z"/>
<path class="st2" d="M0,0v26.1h25.8V0H0z M19.6,19.7c-1.7,1.5-4.2,1.5-5.8-0.2c0,0,0,0,0,0c-0.1-0.1-0.3-0.3-0.4-0.4
	c-0.2-0.3-0.4-0.6-0.5-0.9c-0.1,0.3-0.2,0.7-0.4,0.9c-0.1,0.2-0.2,0.3-0.4,0.4c-1.6,1.6-4.1,1.6-5.7,0s-1.6-4.1,0-5.7l0,0
	c0.1-0.1,0.6-0.5,0.4-0.4c0.3-0.2,0.6-0.3,0.9-0.4c-0.3-0.1-0.6-0.3-0.9-0.5l-0.4-0.4c-1.8-1.3-2.1-3.8-0.8-5.6s3.8-2.1,5.6-0.8
	C11.5,6,11.8,6.2,12,6.5C12.1,6.7,12.4,7,12.4,7c0.2,0.3,0.4,0.6,0.5,0.9C13,7.5,13.2,7.2,13.4,7c0.1-0.2,0.2-0.3,0.4-0.4
	c1.5-1.6,4.1-1.6,5.7-0.1C21,8,21,10.5,19.5,12.1c0,0-0.1,0.1-0.1,0.1c-0.1,0.1-0.3,0.3-0.4,0.4c-0.3,0.2-0.5,0.3-0.8,0.4l0.9,0.5
	l0.4,0.4C21,15.5,21.1,18.1,19.6,19.7z"/>
<path class="st0" d="M73.2,65.6c0-0.9-0.1-1.6-1.3-1.7h-0.3v-0.5h4.9V64h-0.2c-0.5,0-1,0.1-1.2,0.6C75,65,74.9,65.5,75,65.9v2.6h6.2
	v-2.8c0-0.9-0.1-1.6-1.3-1.7h-0.3v-0.5h4.8V64h-0.2c-0.5,0-1,0.1-1.2,0.6c-0.2,0.4-0.2,0.8-0.2,1.2V73c0,0.9,0.1,1.6,1.3,1.7h0.2
	v0.5h-4.8v-0.5h0.2c0.5,0,0.9-0.2,1.2-0.6c0.2-0.4,0.2-0.9,0.2-1.4v-3.5H75v3.7c0,1,0.1,1.6,1.3,1.7h0.3v0.5h-4.9v-0.5h0.2
	c0.5-0.1,0.9-0.1,1.2-0.6c0.1-0.4,0.2-0.8,0.2-1.2L73.2,65.6L73.2,65.6z"/>
<path class="st0" d="M88.5,73c0,1,0.2,1.6,1.2,1.7h0.2v0.5h-4.6v-0.5h0.2c1.1-0.1,1.3-0.6,1.3-1.7v-3.6c0-1-0.2-1.6-1.3-1.7h-0.3
	v-0.5l2.6-0.4h0.6L88.5,73z M87.6,66c-0.6,0-1-0.4-1-1c0,0,0,0,0-0.1c0-0.6,0.4-1,1-1c0.6,0,1,0.5,1,1C88.7,65.5,88.2,66,87.6,66z"
	/>
<path class="st0" d="M101.4,72.5c0.4,1.1,0.7,2.1,2.1,2.2v0.5h-4.8v-0.5c0.6-0.1,1.4-0.2,1.4-0.9c0-0.3-0.1-0.6-0.3-0.9l-0.8-2h-4.4
	L94,72.1c-0.2,0.5-0.3,0.9-0.4,1.4c0,0.9,0.7,1,1.5,1.1v0.5h-4.6v-0.5h0.2c0.7-0.1,1.3-0.5,1.6-1.2c0.4-0.9,0.8-1.7,1.1-2.6l2.9-7.4
	h1.6L101.4,72.5z M98.6,70l-2-5.1L94.7,70H98.6z"/>
<path class="st0" d="M110.8,73.4c-0.8,1.3-2.2,2-3.7,1.9c-2.4,0-4.3-1.9-4.3-4.3c0-2.4,1.9-4.3,4.3-4.3c0.8,0,1.6,0.2,2.3,0.6
	c0.6,0.3,1.1,1,1.2,1.7c0,0.5-0.3,0.9-0.8,0.9c0,0,0,0,0,0c-0.5,0-0.9-0.3-0.9-0.8c0,0,0,0,0,0c0-0.2,0.1-0.4,0.1-0.7
	c0-0.8-1.1-1.1-1.7-1.1c-2,0-2.3,2.1-2.4,3.7v0.1c0,1.7,0.8,3.6,2.8,3.6c1.1,0,2.1-0.6,2.7-1.6L110.8,73.4z"/>
<path class="st0" d="M119.3,73.4c-0.8,1.3-2.2,2-3.7,1.9c-2.4,0-4.3-1.9-4.3-4.3c0-2.4,1.9-4.3,4.3-4.3c0.8,0,1.6,0.2,2.3,0.6
	c0.6,0.3,1.1,1,1.2,1.7c0,0.5-0.3,0.9-0.8,0.9c0,0,0,0,0,0c-0.5,0-0.9-0.3-0.9-0.8c0,0,0,0,0,0c0-0.2,0.1-0.4,0.1-0.7
	c0-0.8-1.1-1.1-1.7-1.1c-2,0-2.3,2.1-2.4,3.7v0.1c0,1.7,0.8,3.6,2.8,3.6c1.1,0,2.1-0.6,2.7-1.6L119.3,73.4z"/>
<path class="st0" d="M127.1,67.7c0.8,0.9,1.3,2.1,1.3,3.3c0.1,2.3-1.6,4.3-4,4.5s-4.3-1.6-4.5-4c0-0.1,0-0.3,0-0.4
	c0-2.6,1.5-4.4,4.2-4.4C125.2,66.6,126.3,67,127.1,67.7z M124.1,67.3c-1.9,0-2.4,2.1-2.4,3.7c0,1.6,0.5,3.6,2.5,3.6
	c1.9,0,2.3-2,2.3-3.5c0-0.9-0.1-1.7-0.4-2.5C125.8,67.9,125,67.4,124.1,67.3L124.1,67.3z"/>
<path class="st0" d="M137.5,73c0,0.9,0.1,1.7,1,1.7h0.2h0.2v0.5h-3.1v-1.4c-1,1-2.3,1.6-3.7,1.6c-0.8,0-1.5-0.2-2.1-0.8
	c-0.4-0.5-0.6-1.2-0.5-1.9v-3.2c0-1-0.2-1.6-1.3-1.7H128v-0.5l2.6-0.4h0.6v5.8c0,0.4,0,0.8,0.2,1.2c0.3,0.4,0.8,0.7,1.3,0.6
	c1.2-0.1,2.3-0.6,3.1-1.5v-3.6c0-1-0.2-1.6-1.2-1.7h-0.3v-0.5l2.6-0.4h0.6L137.5,73z"/>
<path class="st0" d="M148.6,73c0,0.9,0.1,1.6,1.2,1.6h0.2v0.5h-4.6v-0.5h0.2c1.1-0.1,1.2-0.7,1.2-1.7v-3.6c0-0.4-0.1-0.9-0.3-1.3
	c-0.3-0.4-0.7-0.6-1.2-0.6c-1.2,0.1-2.2,0.6-3.1,1.4v4c0,1,0.2,1.6,1.2,1.7h0.2v0.5h-4.7v-0.5h0.2c1.1-0.1,1.3-0.6,1.3-1.7v-3.6
	c0-1-0.2-1.6-1.3-1.7h-0.3v-0.4l2.6-0.4h0.5v1.4c1-1,2.3-1.5,3.7-1.5c0.7,0,1.3,0.2,1.9,0.7c0.5,0.4,0.8,1.1,0.7,1.8L148.6,73z"/>
<path class="st0" d="M154.4,67.4H152v4.9c0,1,0,2.3,1.3,2.3c0.6,0,1.1-0.3,1.5-0.8l0.4,0.4c-0.6,0.7-1.5,1.1-2.4,1.1
	c-0.6,0-1.2-0.1-1.7-0.4c-0.6-0.4-0.9-1.2-0.8-1.9v-5.6h-1.4v-0.6c2-0.1,2.4-1.5,2.4-3.2h0.7v3.2h2.4L154.4,67.4z"/>
<path class="st0" d="M158.6,73c0,1,0.2,1.6,1.2,1.7h0.2v0.5h-4.6v-0.5h0.1c1.1-0.1,1.3-0.6,1.3-1.7v-3.6c0-1-0.2-1.6-1.3-1.7h-0.3
	v-0.5l2.6-0.4h0.6V73z M157.8,66c-0.6,0-1-0.4-1-1c0,0,0,0,0-0.1c0-0.6,0.4-1,1-1c0.6,0,1,0.5,1,1C158.8,65.5,158.4,66,157.8,66z"/>
<path class="st0" d="M169.9,73c0,0.9,0.2,1.6,1.2,1.6h0.2v0.5h-4.6v-0.5h0.2c1.1-0.1,1.2-0.7,1.2-1.7v-3.6c0-0.4-0.1-0.9-0.3-1.3
	c-0.3-0.4-0.7-0.6-1.2-0.6c-1.2,0.1-2.2,0.6-3.1,1.4v4c0,1,0.2,1.6,1.2,1.7h0.2v0.5h-4.7v-0.5h0.2c1.1-0.1,1.3-0.6,1.3-1.7v-3.6
	c0-1-0.2-1.6-1.2-1.7h-0.3v-0.4l2.6-0.4h0.5v1.4c1-1,2.3-1.5,3.7-1.5c0.7,0,1.3,0.2,1.9,0.7c0.5,0.4,0.8,1.1,0.7,1.8V73z"/>
<path class="st0" d="M177.2,74.4c1.3,0.2,2.8,0.4,2.8,2.1c0,2.4-2.8,2.9-4.6,2.9c-1.4,0-4.4-0.4-4.4-2.2c0-1,1-1.6,1.8-1.8l0,0
	c-0.7-0.1-1.2-0.7-1.3-1.4c0.1-0.9,0.8-1.7,1.7-1.8c-0.8-0.5-1.4-1.4-1.4-2.4v-0.1c0.1-1.8,1.7-3.1,3.5-3c0.5,0,1.1,0.1,1.6,0.3
	c0.4-0.9,1.2-1.4,2.1-1.5c0.5,0,1,0.2,1,0.7c0,0.4-0.3,0.6-0.6,0.7c-0.4,0-0.7-0.3-1.1-0.3s-0.7,0.4-0.9,0.7
	c0.9,0.6,1.4,1.5,1.4,2.6c0,0.8-0.4,1.6-1,2.2c-0.7,0.5-1.6,0.8-2.5,0.7c-0.5,0-1.1-0.1-1.6-0.3c-0.4,0.1-0.8,0.5-0.8,0.9
	c0,0.6,0.9,0.7,1.4,0.7L177.2,74.4z M173.4,75.5c-0.6,0.2-1.4,0.8-1.4,1.5c0,1.5,2.3,1.8,3.4,1.8s3.3-0.2,3.3-1.8
	c0-1-1.2-1.1-1.9-1.1L173.4,75.5z M173.5,69.7c0,1.3,0.4,2.4,1.9,2.4c0.6,0,1.2-0.3,1.5-0.8c0.2-0.5,0.3-1.1,0.3-1.6
	c0-1.3-0.3-2.4-1.8-2.4S173.5,68.5,173.5,69.7z"/>
<path class="st1" d="M38.9,56.2v26.1H65V56.2H38.9z M56.1,66.1c1.8-0.1,3.3,1.3,3.4,3c0.1,1.8-1.3,3.3-3,3.4c-0.1,0-0.2,0-0.4,0
	c-0.2,0-0.3,0-0.5,0c0.7,0.5,1.5,0.8,2.4,0.8c0.9,0,1.7-0.4,2.3-1c-0.5,1.3-1.7,2.2-3.1,2.3c-0.1,1.4-1,2.6-2.3,3.1
	c0.6-0.6,1-1.4,1-2.3c0-0.9-0.2-1.7-0.8-2.4c0,0.2,0,0.3,0,0.5c0.1,1.8-1.2,3.3-3,3.5c-1.8,0.1-3.3-1.2-3.5-3c0-0.2,0-0.3,0-0.5
	c0-0.2,0-0.3,0-0.5c-0.5,0.7-0.8,1.5-0.7,2.4c0,0.8,0.4,1.7,0.9,2.3c-0.8-0.3-1.4-0.8-1.8-1.6c-0.2-0.4-0.4-0.9-0.4-1.3v-0.2v-0.1
	h-0.1l-0.3-0.1c-0.2,0-0.5-0.1-0.7-0.2c-0.9-0.4-1.6-1.1-2-2c0.6,0.6,1.4,1,2.3,1c0.9,0,1.7-0.2,2.4-0.7h-0.5
	c-1.8,0.1-3.3-1.3-3.4-3c-0.1-1.8,1.3-3.3,3-3.4c0.1,0,0.2,0,0.4,0c0.2,0,0.3,0,0.5,0c-0.7-0.5-1.5-0.8-2.4-0.7
	c-0.9,0-1.7,0.4-2.3,1c0.5-1.2,1.6-2.1,2.9-2.3h0.2c0.1,0,0.1,0,0.1,0c0,0,0,0,0-0.1c0-0.1,0-0.2,0-0.3c0-0.2,0.1-0.5,0.2-0.7
	c0.4-0.9,1.1-1.6,2-2c-0.6,0.6-0.9,1.4-0.9,2.3c0,0.9,0.2,1.7,0.7,2.4c0-0.2,0-0.3,0-0.5c-0.1-1.8,1.3-3.3,3-3.4
	c1.8-0.1,3.3,1.3,3.4,3c0,0.1,0,0.2,0,0.4c0,0.2,0,0.3,0,0.5c0.5-0.7,0.8-1.5,0.8-2.4c0-0.9-0.4-1.7-1-2.3c1.2,0.5,2.1,1.6,2.3,2.9
	c0,0.1,0,0.1,0,0.2c0,0.1,0,0.1,0,0.1h0.1h0.3c0.2,0,0.5,0.1,0.7,0.2c0.9,0.4,1.6,1.1,2,2c-0.6-0.6-1.4-1-2.3-1
	c-0.9,0-1.7,0.2-2.4,0.7C55.8,66.1,56,66.1,56.1,66.1L56.1,66.1z"/>
<path class="st1" d="M54.6,68.5c-0.5,0.6-1.4,0.6-2,0c0,0,0,0,0,0c-0.6-0.5-0.6-1.4,0-2c0,0,0,0,0,0c0.3-0.3,0.8-0.5,1.2-0.4
	c0.1-0.2,0.1-0.5,0.1-0.7c0.1-1.2-0.9-2.2-2.1-2.3c-0.1,0-0.3,0-0.4,0.1h-0.1h-0.1h-0.1h-0.1H51l-0.2,0.1l0,0
	c-0.7,0.4-1.1,1.2-1.1,2c0,0.2,0,0.5,0.1,0.7c0.8-0.1,1.5,0.4,1.6,1.2c0.1,0.4-0.1,0.9-0.4,1.2c-0.5,0.5-1.4,0.5-2,0
	c-0.3-0.3-0.5-0.8-0.4-1.2C48.6,67,48.4,67,48.1,67c-0.7,0-1.4,0.3-1.9,0.9L46.2,68v0.1c0,0,0,0.1-0.1,0.1l0,0l-0.1,0.1v0.1v0.1
	C46,68.6,46,68.8,46,69.1c0.1,1.2,1.1,2.1,2.3,2.1c0.2,0,0.5,0,0.7-0.1c-0.1-0.5,0.1-0.9,0.4-1.2c0.5-0.5,1.4-0.5,2,0
	c0.5,0.5,0.5,1.4,0,2c-0.3,0.3-0.8,0.5-1.2,0.4C50,72.4,50,72.6,50,72.8c-0.1,1.2,0.8,2.2,2,2.2s2.2-0.8,2.2-2c0-0.1,0-0.2,0-0.3
	c0-0.2,0-0.5-0.1-0.7c-0.4,0.1-0.9-0.1-1.2-0.4c-0.6-0.6-0.6-1.4,0-2c0.6-0.6,1.4-0.6,2,0c0.3,0.3,0.5,0.8,0.4,1.2
	c0.2,0.1,0.4,0.1,0.7,0.1c1.2,0.1,2.2-0.9,2.3-2.1c0-0.1,0-0.3,0-0.4l0,0v-0.1c0,0,0,0,0-0.1c-0.5-0.9-1.4-1.4-2.4-1.2
	c-0.2,0-0.5,0-0.7,0.1C55.1,67.8,55,68.2,54.6,68.5z"/>
<line class="st3" x1="206" y1="41.2" x2="12.9" y2="41.2"/>
</svg>
