<?xml version="1.0" encoding="utf-8"?>
<!-- Generator: Adobe Illustrator 20.1.0, SVG Export Plug-In . SVG Version: 6.00 Build 0)  -->
<svg version="1.1" id="Layer_1" xmlns="http://www.w3.org/2000/svg" xmlns:xlink="http://www.w3.org/1999/xlink" x="0px" y="0px"
	 viewBox="0 0 201.1 37.2" style="enable-background:new 0 0 201.1 37.2;" xml:space="preserve">
<style type="text/css">
	.st0{fill:#989898;}
</style>
<g>
	<path class="st0" d="M48.9,13.4c0-1.3-0.1-2.3-1.8-2.4l-0.4,0v-0.7h6.9V11h-0.3c-0.7,0-1.4,0.1-1.7,0.8c-0.3,0.5-0.3,1.3-0.3,2v3.7
		h8.8v-4c0-1.3-0.1-2.3-1.8-2.4L58,11v-0.7h6.9V11h-0.3c-0.7,0.1-1.4,0.1-1.7,0.8c-0.3,0.4-0.3,1.2-0.3,1.8v10.3
		c0,1.3,0.1,2.3,1.8,2.4l0.4,0v0.7H58v-0.7h0.2c0.7,0,1.4-0.1,1.7-0.8c0.2-0.5,0.3-1.4,0.3-2v-4.9h-8.8v5.2c0,1.4,0.1,2.3,1.9,2.5
		l0.4,0v0.7h-6.9v-0.7H47c0.7-0.1,1.4-0.1,1.7-0.8c0.2-0.4,0.2-1.2,0.2-1.7v-0.5V13.4z"/>
	<path class="st0" d="M70.6,23.8c0,1.3,0.2,2.3,1.7,2.4h0.3v0.7h-6.5v-0.7h0.2c1.6-0.1,1.9-0.9,1.9-2.4v-5.1c0-1.4-0.2-2.3-1.8-2.4
		h-0.4v-0.7l3.8-0.5h0.8V23.8z M69.5,13.8c-0.9,0-1.4-0.7-1.4-1.5c0-0.8,0.7-1.4,1.5-1.4c0.9,0,1.5,0.7,1.5,1.5
		C71,13.2,70.2,13.8,69.5,13.8z"/>
	<path class="st0" d="M89,23.1c0.6,1.5,1,3,2.9,3.1v0.7H85v-0.7c0.8-0.1,1.9-0.3,1.9-1.2c0-0.4-0.2-1-0.4-1.4l-1.1-2.9h-6.3
		l-0.7,1.8c-0.2,0.5-0.6,1.5-0.6,2c0,1.2,1,1.5,2.2,1.6v0.7h-6.6v-0.7l0.3,0c1.2-0.3,1.6-0.6,2.2-1.6c0.6-1,1.2-2.7,1.6-3.8
		l4.1-10.5h2.3L89,23.1z M85,19.6l-2.8-7.3l-2.7,7.3H85z"/>
	<path class="st0" d="M102.5,24.4c-1.2,1.9-3,2.7-5.3,2.7c-3.7,0-6.1-2.4-6.1-6c0-3.7,2.3-6.3,6-6.3c1.2,0,2.3,0.2,3.3,0.9
		c0.8,0.5,1.7,1.4,1.7,2.4c0,0.7-0.5,1.3-1.3,1.3c-0.7,0-1.3-0.5-1.3-1.2c0-0.3,0.1-0.6,0.1-0.9c0-1.1-1.6-1.6-2.4-1.6
		c-2.8,0-3.3,3-3.4,5.3v0.1c0,2.5,1.1,5.1,4,5.1c1.7,0,2.8-1,3.8-2.2L102.5,24.4z"/>
	<path class="st0" d="M114.6,24.4c-1.2,1.9-3,2.7-5.3,2.7c-3.6,0-6.1-2.4-6.1-6c0-3.7,2.3-6.3,6-6.3c1.2,0,2.3,0.2,3.3,0.9
		c0.8,0.5,1.7,1.4,1.7,2.4c0,0.7-0.5,1.3-1.3,1.3c-0.7,0-1.2-0.5-1.2-1.2c0-0.3,0.1-0.6,0.1-0.9c0-1.1-1.6-1.6-2.4-1.6
		c-2.8,0-3.3,3-3.4,5.3v0.1c0,2.5,1.1,5.1,4,5.1c1.7,0,2.8-1,3.8-2.2L114.6,24.4z"/>
	<path class="st0" d="M125.7,16.4c1.2,1.2,1.8,3,1.8,4.7c0,3.7-2.3,6.1-6,6.1c-3.6,0-6-2.4-6-6c0-3.7,2.1-6.3,5.9-6.3
		C122.9,14.8,124.5,15.3,125.7,16.4z M121.4,15.8c-2.8,0-3.5,3-3.5,5.3c0,2.4,0.7,5.1,3.6,5.1c2.7,0,3.3-2.8,3.3-4.9
		c0-1.1-0.1-2.6-0.6-3.6C123.8,16.6,122.7,15.8,121.4,15.8L121.4,15.8z"/>
	<path class="st0" d="M140.5,23.8c0,1.3,0.2,2.4,1.5,2.4h0.2l0.4,0v0.7h-4.4v-2c-1.4,1.3-3.2,2.2-5.3,2.2c-1,0-2.2-0.3-3-1.1
		c-0.7-0.8-0.8-1.7-0.8-2.8v-4.6c0-1.4-0.2-2.3-1.8-2.4h-0.4v-0.7l3.8-0.5h0.8v8.2c0,0.6,0,1.3,0.3,1.8c0.4,0.6,1.2,0.9,1.9,0.9
		c1.7,0,3.4-1,4.5-2.1v-5.1c0-1.4-0.2-2.3-1.8-2.4h-0.4v-0.7l3.7-0.5h0.8V23.8z"/>
	<path class="st0" d="M156.4,23.8c0,1.3,0.2,2.3,1.7,2.4h0.3v0.7h-6.5v-0.7h0.3c1.6-0.1,1.8-1,1.8-2.4v-5.1c0-0.6-0.1-1.3-0.4-1.8
		c-0.4-0.6-1.1-0.9-1.7-0.9c-1.6,0-3.2,0.9-4.4,2v5.8c0,1.4,0.2,2.3,1.8,2.4h0.4v0.7H143v-0.7h0.3c1.6-0.1,1.9-0.8,1.9-2.4v-5.1
		c0-1.4-0.2-2.3-1.8-2.4H143v-0.7l3.8-0.5h0.8V17c1.5-1.4,3.2-2.2,5.2-2.2c0.9,0,1.9,0.3,2.6,1c0.8,0.7,1,1.5,1,2.5V23.8z"/>
	<path class="st0" d="M164.7,15.8h-3.5v6.9c0,1.4,0,3.3,1.9,3.3c0.9,0,1.6-0.5,2.1-1.1l0.6,0.5c-0.8,1.1-2.1,1.6-3.5,1.6
		c-0.8,0-1.7-0.2-2.4-0.6c-1-0.6-1.1-1.6-1.1-2.7v-8h-2.1v-0.8c2.8-0.1,3.4-2.1,3.4-4.5h1.1v4.5h3.5V15.8z"/>
	<path class="st0" d="M170.6,23.8c0,1.3,0.2,2.3,1.7,2.4h0.3v0.7h-6.5v-0.7h0.2c1.6-0.1,1.9-0.9,1.9-2.4v-5.1c0-1.4-0.3-2.3-1.8-2.4
		h-0.4v-0.7l3.8-0.5h0.8V23.8z M169.4,13.8c-0.9,0-1.4-0.7-1.4-1.5c0-0.8,0.7-1.4,1.5-1.4c0.9,0,1.5,0.7,1.5,1.5
		C170.9,13.2,170.2,13.8,169.4,13.8z"/>
	<path class="st0" d="M186.7,23.8c0,1.3,0.2,2.3,1.7,2.4h0.3v0.7h-6.5v-0.7h0.3c1.5-0.1,1.8-1,1.8-2.4v-5.1c0-0.6-0.1-1.3-0.4-1.8
		c-0.4-0.6-1.1-0.9-1.7-0.9c-1.6,0-3.2,0.9-4.4,2v5.8c0,1.4,0.2,2.3,1.8,2.4h0.3v0.7h-6.7v-0.7h0.3c1.6-0.1,1.9-0.8,1.9-2.4v-5.1
		c0-1.4-0.2-2.3-1.8-2.4h-0.4v-0.7l3.8-0.5h0.8V17c1.5-1.4,3.2-2.2,5.2-2.2c1,0,1.9,0.3,2.6,1c0.8,0.7,1,1.5,1,2.5V23.8z"/>
	<path class="st0" d="M197,25.8c1.9,0.2,3.9,0.6,3.9,3c0,3.4-4,4.1-6.6,4.1c-2,0-6.2-0.5-6.2-3.1c0-1.4,1.4-2.2,2.6-2.6v-0.1
		c-1-0.2-1.8-0.9-1.8-2c0-1.4,1.2-2.3,2.4-2.5c-1.2-0.7-1.9-2-1.9-3.4v-0.1c0.1-2.7,2.4-4.3,4.9-4.3c0.8,0,1.5,0.1,2.2,0.4
		c0.6-1.1,1.7-2.2,3-2.2c0.7,0,1.4,0.3,1.4,1.1c0,0.5-0.4,0.9-0.9,0.9c-0.6,0-1-0.4-1.5-0.4c-0.5,0-1,0.6-1.3,0.9
		c1.2,0.9,2,2.1,2,3.7c0,1.2-0.6,2.4-1.5,3.1c-1,0.8-2.3,1-3.6,1c-0.8,0-1.5-0.1-2.2-0.4c-0.5,0.2-1.2,0.7-1.2,1.3
		c0,0.9,1.3,1,1.9,1L197,25.8z M191.6,27.4c-0.9,0.3-2,1.1-2,2.2c0,2.2,3.3,2.5,4.9,2.5c1.6,0,4.7-0.3,4.7-2.5
		c0-1.4-1.8-1.5-2.8-1.6L191.6,27.4z M191.8,19.1c0,1.8,0.5,3.4,2.6,3.4c0.8,0,1.7-0.4,2.1-1.1c0.3-0.6,0.4-1.6,0.4-2.3
		c0-1.8-0.4-3.3-2.5-3.3C192.4,15.7,191.8,17.4,191.8,19.1z"/>
	<path class="st0" d="M0,0v37.2h37.2V0H0z M24.6,14c2.7,0,4.8,2,4.8,4.6c0,2.5-2.2,4.6-4.8,4.6c-0.2,0-0.5,0-0.7,0
		c1,0.7,2.2,1.1,3.4,1.1c1.2,0,2.4-0.5,3.2-1.4c-0.7,1.9-2.5,3.1-4.5,3.3c-0.1,2-1.4,3.7-3.3,4.4c0.8-0.9,1.3-2,1.4-3.2
		c0.1-1.2-0.3-2.4-1.1-3.4c0,0.2,0,0.4,0,0.7c0,2.7-2,4.8-4.6,4.8S14,27.2,14,24.6c0-0.2,0-0.4,0-0.7c-0.7,1-1.1,2.2-1.1,3.4
		c0,1.2,0.5,2.4,1.4,3.2c-1.1-0.4-2-1.2-2.6-2.2c-0.3-0.6-0.6-1.2-0.6-1.9c0-0.1,0-0.2,0-0.3c0-0.1,0-0.1,0-0.1c0,0-0.1,0-0.1,0
		c-0.2,0-0.3,0-0.5-0.1c-0.3-0.1-0.6-0.1-1-0.3c-1.3-0.5-2.4-1.6-2.9-2.9c0.9,0.8,2,1.3,3.2,1.4c1.2,0,2.4-0.3,3.4-1.1
		c-0.2,0-0.4,0-0.7,0c-2.7,0-4.8-2-4.8-4.6c0-2.5,2.2-4.6,4.8-4.6c0.2,0,0.5,0,0.7,0c-1-0.7-2.2-1.1-3.4-1.1c-1.2,0-2.4,0.5-3.2,1.4
		c0.4-1.1,1.2-2,2.2-2.6c0.6-0.3,1.2-0.5,1.9-0.6c0.1,0,0.2,0,0.3,0c0,0,0.1,0,0.1,0c0,0,0-0.1,0-0.1c0-0.2,0-0.3,0.1-0.5
		c0.1-0.3,0.1-0.7,0.3-1C12,8.2,13,7.1,14.3,6.6c-0.8,0.9-1.3,2-1.4,3.2c0,1.2,0.3,2.4,1.1,3.4c0-0.2,0-0.4,0-0.7
		c0-2.7,2-4.8,4.6-4.8c2.5,0,4.6,2.2,4.6,4.8c0,0.2,0,0.5,0,0.7c0.7-1,1.1-2.2,1.1-3.4c0-1.2-0.5-2.4-1.4-3.2c1.1,0.4,2,1.2,2.6,2.2
		c0.3,0.6,0.5,1.2,0.6,1.9c0,0.1,0,0.2,0,0.3c0,0,0,0.1,0,0.1s0.1,0,0.1,0c0.2,0,0.3,0,0.5,0.1c0.3,0.1,0.6,0.2,0.9,0.3
		C29,12,30,13,30.5,14.3c-0.9-0.8-2-1.3-3.2-1.4c-1.2,0-2.4,0.3-3.4,1.1C24.1,14,24.3,14,24.6,14z"/>
	<path class="st0" d="M22.5,17.5c-0.8,0.8-2,0.8-2.8,0c-0.8-0.8-0.8-2,0-2.8c0.5-0.5,1.1-0.7,1.8-0.6c0.1-0.3,0.1-0.6,0.1-1
		c0-1.8-1.3-3.3-3-3.3c-0.2,0-0.4,0-0.6,0.1c0,0-0.1,0-0.1,0c0,0-0.1,0-0.1,0c0,0-0.1,0-0.1,0c0,0-0.1,0-0.1,0c-0.1,0-0.1,0-0.1,0.1
		c-0.1,0-0.2,0.1-0.2,0.1c0,0,0,0,0,0c-0.9,0.6-1.5,1.6-1.5,2.8c0,0.4,0,0.7,0.1,1c0.6-0.1,1.3,0.1,1.8,0.6c0.8,0.8,0.8,2,0,2.8
		c-0.8,0.8-2,0.8-2.8,0c-0.5-0.5-0.7-1.1-0.5-1.8c-0.3-0.1-0.6-0.1-1-0.1c-1.1,0-2.1,0.5-2.7,1.3c0,0-0.1,0.1-0.1,0.1
		c0,0,0,0.1-0.1,0.1c0,0-0.1,0.1-0.1,0.2c0,0,0,0,0,0.1c0,0.1,0,0.1-0.1,0.2c0,0,0,0.1,0,0.1c0,0,0,0.1,0,0.1
		C10,18,9.9,18.3,9.9,18.6c0,1.7,1.5,3,3.3,3c0.4,0,0.7-0.1,1-0.1c-0.1-0.6,0.1-1.3,0.5-1.8c0.8-0.8,2-0.8,2.8,0
		c0.8,0.8,0.8,2,0,2.8c-0.5,0.5-1.1,0.7-1.8,0.5c-0.1,0.3-0.1,0.6-0.1,1c0,1.8,1.3,3.3,3,3.3c1.6,0,3-1.5,3-3.3c0-0.3-0.1-0.7-0.1-1
		c-0.6,0.1-1.3-0.1-1.8-0.5c-0.8-0.8-0.8-2,0-2.8c0.8-0.8,2-0.8,2.8,0c0.5,0.5,0.7,1.1,0.5,1.8c0.3,0.1,0.6,0.1,1,0.1
		c1.8,0,3.3-1.3,3.3-3c0-0.2,0-0.4-0.1-0.6c0,0,0-0.1,0-0.1c0-0.1,0-0.1,0-0.2c0,0,0-0.1,0-0.1c-0.4-1.2-1.6-2.1-3.1-2.1
		c-0.3,0-0.7,0.1-1,0.1C23.1,16.4,22.9,17,22.5,17.5z"/>
</g>
</svg>
