<?xml version="1.0" encoding="utf-8"?>
<!-- Generator: Adobe Illustrator 20.1.0, SVG Export Plug-In . SVG Version: 6.00 Build 0)  -->
<svg version="1.1" id="Layer_1" xmlns="http://www.w3.org/2000/svg" xmlns:xlink="http://www.w3.org/1999/xlink" x="0px" y="0px"
	 viewBox="0 0 239.3 42.2" style="enable-background:new 0 0 239.3 42.2;" xml:space="preserve">
<style type="text/css">
	.st0{fill:#65666A;}
	.st1{fill:#82BB41;}
</style>
<g>
	<path class="st0" d="M57.6,14c0-1.6-0.2-2.7-2.2-2.9l-0.4,0v-0.9h8.4v0.9H63c-0.8,0.1-1.7,0.1-2.1,1c-0.3,0.6-0.3,1.6-0.3,2.4V19
		h10.7v-4.9c0-1.6-0.2-2.8-2.2-2.9l-0.4,0v-0.9h8.3v0.9h-0.3c-0.8,0.1-1.7,0.2-2.1,1c-0.3,0.5-0.3,1.4-0.3,2.1v12.4
		c0,1.5,0.2,2.7,2.2,2.9l0.4,0v0.9h-8.3v-0.9h0.3c0.8,0,1.6-0.2,2-1c0.3-0.6,0.3-1.6,0.3-2.4v-6H60.6v6.3c0,1.6,0.1,2.8,2.3,3l0.5,0
		v0.9H55v-0.9h0.3c0.8-0.1,1.6-0.2,2-1c0.3-0.5,0.3-1.4,0.3-2.1v-0.7V14z"/>
	<path class="st0" d="M82.4,26.7c0,1.6,0.3,2.7,2.1,2.9h0.4v0.9H77v-0.9h0.3c2-0.1,2.2-1.1,2.2-2.9v-6.2c0-1.7-0.3-2.7-2.2-2.9h-0.5
		v-0.9l4.5-0.7h0.9V26.7z M80.9,14.6c-1,0-1.8-0.8-1.8-1.8c0-0.9,0.9-1.7,1.8-1.7c1,0,1.8,0.8,1.8,1.8
		C82.8,13.9,81.9,14.6,80.9,14.6"/>
	<path class="st0" d="M104,25.8c0.7,1.8,1.2,3.6,3.5,3.7v0.9h-8.3v-0.9c1-0.1,2.3-0.3,2.3-1.5c0-0.5-0.3-1.2-0.4-1.6l-1.3-3.5h-7.6
		l-0.8,2.2c-0.2,0.6-0.7,1.8-0.7,2.5c0,1.5,1.2,1.8,2.6,1.9v0.9h-7.9v-0.9l0.3,0c1.4-0.3,1.9-0.7,2.7-2c0.7-1.2,1.4-3.2,1.9-4.5
		l4.9-12.7h2.8L104,25.8z M99.2,21.6l-3.4-8.8l-3.3,8.8H99.2z"/>
	<path class="st0" d="M120.2,27.4c-1.5,2.3-3.6,3.3-6.3,3.3c-4.4,0-7.3-2.9-7.3-7.3c0-4.5,2.7-7.6,7.3-7.6c1.4,0,2.7,0.3,4,1
		c1,0.6,2,1.7,2,2.9c0,0.9-0.6,1.6-1.5,1.6c-0.8,0-1.5-0.6-1.5-1.4c0-0.4,0.1-0.7,0.1-1.1c0-1.3-1.9-1.9-2.9-1.9
		c-3.4,0-4,3.7-4.1,6.4v0.1c0,3,1.3,6.1,4.8,6.1c2.1,0,3.4-1.1,4.6-2.7L120.2,27.4z"/>
	<path class="st0" d="M134.9,27.4c-1.5,2.3-3.7,3.3-6.4,3.3c-4.4,0-7.3-2.9-7.3-7.3c0-4.5,2.7-7.6,7.3-7.6c1.4,0,2.8,0.3,4,1
		c1,0.6,2,1.7,2,2.9c0,0.9-0.6,1.6-1.5,1.6c-0.8,0-1.5-0.6-1.5-1.4c0-0.4,0.1-0.7,0.1-1.1c0-1.3-1.9-1.9-2.9-1.9
		c-3.4,0-4,3.7-4.1,6.4v0.1c0,3,1.3,6.1,4.8,6.1c2.1,0,3.4-1.1,4.6-2.7L134.9,27.4z"/>
	<path class="st0" d="M148.2,17.6c1.5,1.4,2.2,3.7,2.2,5.6c0,4.5-2.8,7.4-7.3,7.4c-4.4,0-7.2-2.9-7.2-7.3c0-4.4,2.6-7.6,7.2-7.6
		C144.9,15.8,146.9,16.3,148.2,17.6 M143.2,17c-3.3,0-4.2,3.6-4.2,6.4c0,2.9,0.8,6.2,4.4,6.2c3.2,0,4-3.3,4-6c0-1.4-0.1-3.1-0.7-4.3
		C146,17.9,144.7,17,143.2,17L143.2,17z"/>
	<path class="st0" d="M166.1,26.7c0,1.6,0.2,2.9,1.8,2.9h0.2l0.4,0v0.9h-5.3V28c-1.7,1.6-3.8,2.7-6.4,2.7c-1.3,0-2.7-0.3-3.6-1.3
		c-0.9-1-0.9-2.1-0.9-3.4v-5.5c0-1.7-0.3-2.7-2.2-2.9h-0.5v-0.9l4.5-0.7h0.9V26c0,0.7,0,1.6,0.3,2.1c0.4,0.8,1.4,1.1,2.3,1.1
		c2.1,0,4.1-1.2,5.4-2.5v-6.2c0-1.7-0.3-2.7-2.2-2.9h-0.5v-0.9l4.5-0.7h0.9V26.7z"/>
	<path class="st0" d="M185.4,26.7c0,1.6,0.3,2.7,2.1,2.8h0.4v0.9H180v-0.9h0.4c1.9-0.1,2.1-1.2,2.1-2.9v-6.1c0-0.8-0.1-1.5-0.5-2.2
		c-0.4-0.7-1.3-1.1-2.1-1.1c-2,0-3.8,1.1-5.3,2.4v7c0,1.7,0.3,2.8,2.1,2.9h0.4v0.9h-8v-0.9h0.3c2-0.1,2.3-1,2.3-2.9v-6.2
		c0-1.7-0.3-2.7-2.2-2.9h-0.5v-0.9l4.5-0.7h0.9v2.3c1.8-1.7,3.9-2.6,6.3-2.6c1.2,0,2.3,0.4,3.2,1.2c1,0.9,1.2,1.8,1.2,3.1V26.7z"/>
	<path class="st0" d="M195.3,17h-4.2v8.3c0,1.7,0,4,2.3,4c1.1,0,1.9-0.6,2.6-1.3l0.7,0.7c-1,1.3-2.6,1.9-4.2,1.9
		c-1,0-2.1-0.2-2.9-0.7c-1.2-0.8-1.3-1.9-1.3-3.2V17h-2.5v-1c3.4-0.1,4.1-2.5,4.1-5.4h1.3v5.4h4.2V17z"/>
	<path class="st0" d="M202.5,26.7c0,1.6,0.3,2.7,2.1,2.9h0.4v0.9h-7.8v-0.9h0.3c2-0.1,2.3-1.1,2.3-2.9v-6.2c0-1.7-0.3-2.7-2.2-2.9
		h-0.5v-0.9l4.5-0.7h1V26.7z M201.1,14.6c-1,0-1.8-0.8-1.8-1.8c0-0.9,0.9-1.7,1.8-1.7c1.1,0,1.8,0.8,1.8,1.8
		C202.9,13.9,202.1,14.6,201.1,14.6"/>
	<path class="st0" d="M221.9,26.7c0,1.6,0.3,2.7,2.1,2.8h0.4v0.9h-7.9v-0.9h0.4c1.9-0.1,2.1-1.2,2.1-2.9v-6.1c0-0.8-0.1-1.5-0.5-2.2
		c-0.5-0.7-1.3-1.1-2.1-1.1c-2,0-3.9,1.1-5.3,2.4v7c0,1.7,0.3,2.8,2.1,2.9h0.4v0.9h-8v-0.9h0.3c2-0.1,2.3-1,2.3-2.9v-6.2
		c0-1.7-0.3-2.7-2.2-2.9h-0.5v-0.9l4.5-0.7h0.9v2.3c1.8-1.7,3.9-2.6,6.3-2.6c1.2,0,2.3,0.4,3.2,1.2c1,0.9,1.2,1.8,1.2,3.1V26.7z"/>
	<path class="st0" d="M234.4,29.1c2.3,0.3,4.8,0.7,4.8,3.6c0,4.1-4.8,4.9-8,4.9c-2.4,0-7.5-0.6-7.5-3.8c0-1.7,1.7-2.7,3.1-3.1v-0.1
		c-1.2-0.3-2.2-1.1-2.2-2.4c0-1.6,1.4-2.8,2.9-3c-1.5-0.8-2.3-2.4-2.3-4.1V21c0.1-3.3,2.9-5.2,6-5.2c0.9,0,1.8,0.2,2.7,0.5
		c0.7-1.4,2.1-2.6,3.7-2.6c0.8,0,1.7,0.3,1.7,1.3c0,0.6-0.4,1.1-1.1,1.1c-0.7,0-1.2-0.5-1.9-0.5s-1.2,0.7-1.6,1.1
		c1.5,1.1,2.4,2.5,2.4,4.5c0,1.4-0.7,2.9-1.8,3.7c-1.2,1-2.8,1.2-4.3,1.2c-0.9,0-1.8-0.1-2.7-0.5c-0.6,0.2-1.4,0.9-1.4,1.6
		c0,1,1.6,1.2,2.3,1.2L234.4,29.1z M227.9,31c-1.1,0.3-2.4,1.4-2.4,2.6c0,2.6,4,3,5.9,3c1.9,0,5.7-0.4,5.7-3c0-1.7-2.1-1.8-3.3-2
		L227.9,31z M228.1,21c0,2.2,0.6,4.1,3.2,4.1c1,0,2.1-0.5,2.6-1.4c0.4-0.7,0.5-2,0.5-2.8c0-2.2-0.5-4-3.1-4
		C228.9,16.8,228.1,18.9,228.1,21"/>
	<path class="st1" d="M25.9,19.8c-0.9,1-2.5,1-3.5,0c-0.9-1-0.9-2.5,0-3.4c0.6-0.6,1.4-0.8,2.2-0.7c0.1-0.4,0.2-0.8,0.2-1.2
		c0-2.2-1.6-4-3.7-4c-0.2,0-0.5,0-0.7,0.1c0,0-0.1,0-0.1,0c-0.1,0-0.1,0-0.2,0c-0.1,0-0.1,0.1-0.2,0.1c0,0-0.1,0-0.1,0.1
		c-0.1,0-0.1,0-0.2,0.1c-0.1,0-0.2,0.1-0.3,0.1c0,0,0,0-0.1,0c-1.1,0.7-1.9,2-1.9,3.5c0,0.4,0.1,0.8,0.2,1.2
		c0.8-0.1,1.6,0.1,2.2,0.7c0.9,0.9,0.9,2.5,0,3.4c-1,1-2.5,1-3.5,0c-0.6-0.6-0.8-1.4-0.7-2.1c-0.4-0.1-0.8-0.2-1.2-0.2
		c-1.4,0-2.6,0.6-3.3,1.6c0,0-0.1,0.1-0.1,0.1c0,0-0.1,0.1-0.1,0.1c0,0-0.1,0.1-0.1,0.2c0,0,0,0.1-0.1,0.1c0,0-0.1,0.1-0.1,0.2
		c0,0.1,0,0.1-0.1,0.2c0,0,0,0.1,0,0.1c-0.1,0.3-0.2,0.7-0.2,1c0,2,1.8,3.7,4,3.7c0.4,0,0.8-0.1,1.2-0.2c-0.1-0.8,0.1-1.6,0.7-2.2
		c0.9-0.9,2.5-0.9,3.4,0c1,0.9,1,2.5,0,3.4c-0.6,0.6-1.4,0.8-2.2,0.7c-0.1,0.4-0.2,0.8-0.2,1.2c0,2.2,1.6,4,3.7,4c2,0,3.7-1.8,3.7-4
		c0-0.4-0.1-0.8-0.2-1.2c-0.8,0.1-1.6-0.1-2.2-0.7c-1-0.9-1-2.5,0-3.4c1-1,2.5-1,3.4,0c0.6,0.6,0.8,1.4,0.7,2.2
		c0.4,0.1,0.8,0.2,1.2,0.2c2.2,0,4-1.6,4-3.6c0-0.2,0-0.5-0.1-0.7c0,0,0-0.1,0-0.1c0-0.1-0.1-0.2-0.1-0.2c0,0,0-0.1,0-0.1
		c-0.5-1.5-2-2.5-3.8-2.5c-0.4,0-0.8,0.1-1.2,0.2C26.7,18.4,26.4,19.2,25.9,19.8 M0,42.2h42.2V0H0V42.2z M28.4,15.5
		c3.3,0,6,2.5,6,5.6c0,3.1-2.7,5.6-6,5.6c-0.3,0-0.6,0-0.8-0.1c1.2,0.9,2.7,1.4,4.2,1.3c1.5-0.1,2.9-0.6,4-1.7c-0.9,2.3-3,3.8-5.5,4
		c-0.1,2.4-1.7,4.6-4,5.5c1-1.1,1.6-2.5,1.7-4c0.1-1.5-0.4-3-1.3-4.2c0,0.3,0.1,0.5,0.1,0.8c0,3.3-2.5,5.9-5.6,5.9
		c-3.1,0-5.6-2.7-5.6-5.9c0-0.3,0-0.5,0.1-0.8c-0.9,1.2-1.4,2.7-1.3,4.2c0,1.5,0.6,2.9,1.6,4c-1.3-0.5-2.5-1.5-3.2-2.7
		c-0.4-0.7-0.7-1.5-0.8-2.3c0-0.1,0-0.2,0-0.3c0-0.1,0-0.1-0.1-0.1c-0.1,0-0.1,0-0.2,0c-0.2,0-0.4,0-0.6-0.1
		c-0.4-0.1-0.8-0.2-1.2-0.4c-1.6-0.6-2.9-1.9-3.5-3.5c1.1,1,2.5,1.6,4,1.7c1.5,0,3-0.4,4.2-1.3c-0.3,0-0.5,0-0.8,0
		c-3.3,0-5.9-2.5-5.9-5.6c0-3.1,2.7-5.6,5.9-5.6c0.3,0,0.6,0,0.8,0.1c-1.2-0.9-2.7-1.4-4.2-1.3c-1.5,0-2.9,0.6-4,1.6
		c0.5-1.3,1.5-2.5,2.7-3.2c0.7-0.4,1.5-0.7,2.3-0.8c0.1,0,0.2,0,0.3,0c0.1,0,0.1,0,0.1-0.1c0,0,0-0.1,0-0.1c0-0.2,0-0.4,0.1-0.6
		c0.1-0.4,0.2-0.8,0.3-1.2C13,8.3,14.3,7,15.9,6.4c-1,1.1-1.6,2.5-1.6,4c-0.1,1.5,0.4,2.9,1.3,4.2c0-0.3-0.1-0.5-0.1-0.8
		c0-3.3,2.5-5.9,5.6-5.9c3.1,0,5.6,2.6,5.6,5.9c0,0.3,0,0.6-0.1,0.8c0.9-1.2,1.4-2.7,1.3-4.2c-0.1-1.5-0.6-2.9-1.7-4
		c1.3,0.5,2.5,1.5,3.2,2.7c0.4,0.7,0.7,1.5,0.8,2.3c0,0.1,0,0.2,0,0.3c0,0.1,0,0.1,0.1,0.1c0.1,0,0.1,0,0.2,0c0.2,0,0.4,0,0.6,0.1
		c0.4,0.1,0.8,0.2,1.2,0.3c1.6,0.7,2.9,2,3.5,3.6c-1.1-1-2.5-1.6-4-1.6c-1.5-0.1-3,0.4-4.1,1.3C27.9,15.5,28.2,15.5,28.4,15.5"/>
</g>
</svg>
