<?xml version="1.0" encoding="utf-8"?>
<!-- Generator: Adobe Illustrator 20.1.0, SVG Export Plug-In . SVG Version: 6.00 Build 0)  -->
<svg version="1.1" id="Layer_1" xmlns="http://www.w3.org/2000/svg" xmlns:xlink="http://www.w3.org/1999/xlink" x="0px" y="0px"
	 viewBox="0 0 160 108" style="enable-background:new 0 0 160 108;" xml:space="preserve">
<style type="text/css">
	.st0{fill:#646469;}
</style>
<title>hiaccounting-HOME copy</title>
<g>
	<path class="st0" d="M59.9,19.7c0-1.8-1.5-3.3-3.3-3.3c0,0,0,0,0,0H9.1c-1.8,0-3.3,1.5-3.3,3.3c0,0,0,0,0,0V88
		c0,1.8,1.5,3.3,3.3,3.3c0,0,0,0,0,0h47.5c1.8,0,3.3-1.5,3.3-3.3l0,0V19.7z M54,85.8H11.7V22H54V85.8L54,85.8z"/>
</g>
<g>
	<rect x="18.6" y="29.9" class="st0" width="28.6" height="7.2"/>
</g>
<g>
	<rect x="83.1" y="19.5" class="st0" width="5.8" height="71.8"/>
</g>
<g>
	<polygon class="st0" points="96.9,76.7 93.6,74.5 111.4,48.3 123.7,60.5 145.9,30.6 149.1,33 124.1,66.5 112,54.5 	"/>
</g>
<g>
	<rect x="18.6" y="45.5" class="st0" width="6.9" height="8.1"/>
</g>
<g>
	<rect x="29.4" y="45.5" class="st0" width="6.9" height="8.1"/>
</g>
<g>
	<rect x="40.3" y="45.5" class="st0" width="6.8" height="8.1"/>
</g>
<g>
	<rect x="18.6" y="57.5" class="st0" width="6.9" height="8.1"/>
</g>
<g>
	<rect x="29.4" y="57.5" class="st0" width="6.9" height="8.1"/>
</g>
<g>
	<rect x="18.6" y="69.7" class="st0" width="6.9" height="8.1"/>
</g>
<g>
	<rect x="29.4" y="69.7" class="st0" width="6.9" height="8.1"/>
</g>
<g>
	<rect x="40.3" y="57.5" class="st0" width="6.8" height="20.2"/>
</g>
<g>
	<rect x="83.1" y="85.8" class="st0" width="71.8" height="5.8"/>
</g>
</svg>
