<?xml version="1.0" encoding="utf-8"?>
<!-- Generator: Adobe Illustrator 16.0.4, SVG Export Plug-In . SVG Version: 6.00 Build 0)  -->
<!DOCTYPE svg PUBLIC "-//W3C//DTD SVG 1.1//EN" "http://www.w3.org/Graphics/SVG/1.1/DTD/svg11.dtd">
<svg version="1.1" id="Layer_1" xmlns="http://www.w3.org/2000/svg" xmlns:xlink="http://www.w3.org/1999/xlink" x="0px" y="0px"
	 width="256px" height="256px" viewBox="0 0 256 256" enable-background="new 0 0 256 256" xml:space="preserve">
<g>
	<g>
		<path fill="#808080" d="M-1043.16016,5.21338l-106.5791,61.51709v123.02441l106.5791,61.46875l106.54004-61.46875V66.73047
			L-1043.16016,5.21338z M-1008.83984,101.68896c15.29785,0,27.69043,11.74268,27.69043,26.23486
			c0,14.44531-12.39258,26.22656-27.69043,26.22656c-1.31348,0-2.62793-0.11426-3.90332-0.29492
			c5.58984,4.15234,12.53223,6.38574,19.48242,6.1748c6.95312-0.25977,13.60059-3.0166,18.60352-7.81152
			c-4.09961,10.59961-14.17773,18.07129-25.60254,18.71484c-0.61914,11.31055-8.04102,21.44531-18.64062,25.53418
			c4.80469-5.00586,7.51172-11.71484,7.76758-18.5957c0.25293-6.90723-1.96289-13.84668-6.06348-19.44727
			c0.11914,1.29004,0.2373,2.54004,0.2373,3.83789c0,15.33887-11.71875,27.72266-26.20117,27.72266
			c-14.49219,0-26.20215-12.38379-26.20215-27.72266c0-1.29785,0.08691-2.54785,0.24609-3.83789
			c-4.10938,5.60059-6.38477,12.54004-6.09082,19.44727c0.22559,6.88086,2.96191,13.58984,7.70703,18.5957
			c-6.19531-2.40723-11.44336-6.87598-14.80469-12.65039c-1.90283-3.35254-3.14844-7.0293-3.62793-10.88477
			c-0.08984-0.52441-0.11816-1.05176-0.19775-1.61035c0-0.2627,0.10791-0.38867-0.25586-0.38867
			c-0.2251-0.06445-0.43018-0.06445-0.66504-0.10449c-0.90234-0.03418-1.80566-0.16016-2.70801-0.37988
			c-1.88135-0.32617-3.70654-0.82422-5.50977-1.52539c-7.53027-3.02051-13.55176-9.15332-16.4541-16.70508
			c5.01953,4.79492,11.68848,7.55176,18.62061,7.81152c6.94287,0.21094,13.86621-1.99316,19.44531-6.11914
			c-1.23438,0.125-2.54883,0.23926-3.84277,0.23926c-15.3374,0-27.73047-11.70605-27.73047-26.22656
			c0-14.4585,12.39307-26.23486,27.73047-26.23486c1.29395,0,2.6084,0.18652,3.84277,0.33838
			c-5.5791-4.15723-12.50244-6.36035-19.44531-6.13477c-6.93213,0.28955-13.60107,3.02197-18.62061,7.77734
			c2.3916-6.14551,6.92188-11.52734,12.66943-14.81348c3.37305-1.94043,7.07861-3.15088,10.88379-3.6626
			c0.51074-0.04248,1.04053-0.13184,1.55859-0.229c0.34277,0,0.48096,0.18652,0.48096-0.21045
			c0-0.20117,0.03076-0.43262,0.07959-0.60889c0.05811-0.95459,0.20459-1.88184,0.37012-2.75439
			c0.3252-1.89355,0.86523-3.74756,1.56055-5.53662c2.98047-7.49609,9.13867-13.54102,16.62012-16.4502
			c-4.74512,4.98779-7.48145,11.7085-7.70703,18.5835c-0.29395,6.93311,1.92285,13.81641,6.08105,19.38574
			c-0.19727-1.19141-0.2666-2.49561-0.2666-3.78857c0-15.33252,11.70117-27.70898,26.19238-27.70898
			c14.52246,0,26.20117,12.37646,26.20117,27.70898c0,1.38281-0.08789,2.65674-0.2334,3.93945
			c4.13672-5.65137,6.35254-12.55957,6.09961-19.53662c-0.25586-6.875-2.96289-13.5957-7.76758-18.5835
			c6.24609,2.41797,11.49219,6.92871,14.80762,12.71875c1.9209,3.32031,3.14844,7.04639,3.67773,10.88477
			c0.10547,0.49512,0.12598,1.01025,0.15527,1.54541c0,0.25293-0.0498,0.41162,0.25488,0.41162
			c0.26367,0,0.5,0.09717,0.67578,0.09717c0.94336,0.13184,1.80371,0.21729,2.72656,0.36963
			c1.8623,0.33691,3.70801,0.93115,5.49121,1.58203c7.55078,2.96143,13.61035,9.16846,16.4541,16.65625
			c-5.00293-4.75537-11.65039-7.48779-18.60352-7.77734c-6.91113-0.22559-13.81348,1.97754-19.38574,6.08447
			C-1011.38867,101.82031-1010.15332,101.68896-1008.83984,101.68896z"/>
		<path fill="#808080" d="M-1020.92969,121.81592c-4.46289,4.39746-11.6416,4.39746-16.09082,0
			c-4.47363-4.41797-4.47363-11.65039,0-16.11719c2.72559-2.80908,6.56738-3.77979,10.14746-3.10303
			c0.48145-1.82373,0.77539-3.68115,0.77539-5.65918c0-10.36279-7.64844-18.71875-17.10254-18.71875
			c-1.09863,0-2.21484,0.1333-3.21582,0.39697c-0.17676,0-0.41113,0-0.54004,0.0835c-0.30371,0.0791-0.58691,0.1416-0.85352,0.23096
			c-0.25488,0.04541-0.50781,0.10742-0.78418,0.24023c-0.15625,0.05811-0.39258,0.1709-0.58789,0.26514
			c-0.31348,0.10693-0.58984,0.22119-0.80273,0.36279c-0.45312,0.17578-0.90332,0.43994-1.29492,0.5918
			c-0.05957,0.08301-0.17578,0.19629-0.27539,0.20801c-5.21582,3.22021-8.74805,9.34521-8.74805,16.33936
			c0,1.97803,0.29492,3.80518,0.7959,5.5127c3.55859-0.57373,7.34277,0.44043,10.08887,3.18164
			c4.43359,4.43555,4.43359,11.6582,0,16.07617c-4.47168,4.44385-11.66797,4.44385-16.09961,0
			c-2.76562-2.71045-3.82422-6.52148-3.13867-10.10059c-1.80469-0.4751-3.60645-0.78857-5.53027-0.78857
			c-6.375,0-11.98242,2.94287-15.41553,7.3877c-0.15723,0.19629-0.27344,0.47754-0.45117,0.61572
			c-0.13672,0.22412-0.21436,0.41992-0.33252,0.59766c-0.21729,0.26807-0.35156,0.57715-0.51074,0.91016
			c-0.07666,0.1084-0.15527,0.25439-0.23535,0.42139c-0.15527,0.29395-0.31201,0.62256-0.47021,0.89941
			c-0.05859,0.23486-0.15625,0.47803-0.26318,0.70898c-0.06885,0.22461-0.16846,0.41357-0.25635,0.64258
			c-0.47998,1.57422-0.79395,3.21191-0.79395,4.92236c0,9.43945,8.43115,17.10742,18.729,17.10742
			c1.98047,0,3.86426-0.32715,5.64844-0.77344c-0.7168-3.62402,0.35254-7.41992,3.1377-10.17871
			c4.41309-4.44336,11.66895-4.44336,16.08203,0c4.45215,4.44336,4.45215,11.64258,0,16.1123
			c-2.78516,2.74805-6.55078,3.78125-10.15918,3.14062c-0.48047,1.76562-0.8252,3.65234-0.8252,5.59863
			c0,10.34082,7.70898,18.7334,17.14258,18.7334c9.45215,0,17.10059-8.39258,17.10059-18.7334
			c0-1.91699-0.31445-3.76172-0.78516-5.50098c-3.55859,0.65723-7.37402-0.44531-10.1084-3.11914
			c-4.40137-4.49512-4.40137-11.71777,0-16.16309c4.44238-4.40039,11.65723-4.40039,16.09277,0
			c2.74512,2.73535,3.7832,6.51562,3.16309,10.11035c1.75879,0.44629,3.60156,0.77344,5.54199,0.77344
			c10.33398,0,18.69043-7.66797,18.69043-17.10742c0-1.1167-0.12598-2.25488-0.35156-3.28467
			c-0.05859-0.11084-0.06934-0.26416-0.13867-0.44092c-0.05859-0.38232-0.12695-0.68652-0.23535-1.05469
			c-0.07715-0.14209-0.13574-0.29346-0.18555-0.46582c-2.40332-6.9043-9.44238-11.88867-17.7793-11.88867
			c-1.94043,0-3.86328,0.34229-5.64648,0.81738C-1017.11426,115.18555-1018.19434,119.04541-1020.92969,121.81592z"/>
	</g>
	<g>
		<path fill="#808080" d="M-1514.90381,164.56543c-7.47168,7.20117-17.4541,11.32422-27.87646,11.6582
			c-10.36621,0.34668-20.77979-2.97754-29.13477-9.21777c1.88232,0.28027,3.82324,0.44629,5.80566,0.44629
			c22.93506,0,41.49902-17.64551,41.49902-39.25684c0-21.75098-18.56396-39.28809-41.49902-39.28809
			c-1.98242,0-3.80518,0.19482-5.6875,0.41211c8.36426-6.13867,18.70947-9.44531,29.0166-9.125
			c10.42236,0.40283,20.40479,4.53027,27.87646,11.66797c-4.27588-11.26514-13.34521-20.48389-24.64209-24.94971
			c-2.65674-0.94727-5.46143-1.85303-8.20801-2.3833c-1.35303-0.22656-2.69531-0.3623-4.11621-0.5249
			c-0.27588,0-0.60889-0.14209-1.00244-0.14209c-0.47021,0-0.35254-0.22021-0.35254-0.64307
			c-0.07715-0.78857-0.11768-1.55664-0.25391-2.31348c-0.79443-5.75635-2.61035-11.32471-5.51221-16.29883
			c-4.94238-8.61719-12.82568-15.38477-22.17188-18.99756c7.16992,7.45215,11.24854,17.48242,11.66016,27.78564
			c0.35303,10.46729-2.95068,20.81689-9.19824,29.2251c0.25586-1.90576,0.39258-3.82324,0.39258-5.84912
			c0-22.95361-17.5127-41.54102-39.24219-41.54102c-21.68115,0-39.18555,18.5874-39.18555,41.54102
			c0,1.92725,0.09912,3.82617,0.37256,5.65869c-6.23584-8.36035-9.53125-18.6167-9.09961-29.03467
			c0.33496-10.30322,4.43115-20.3335,11.53174-27.78564c-11.19678,4.32422-20.43555,13.34521-24.88672,24.60791
			c-1.03027,2.66699-1.86426,5.45166-2.354,8.27002c-0.22607,1.31494-0.4502,2.69434-0.50977,4.11963
			c-0.09766,0.26514-0.11768,0.6123-0.11768,0.89648c0,0.61865-0.21484,0.35889-0.74365,0.35889
			c-0.74707,0.14209-1.57031,0.25977-2.33447,0.30469c-5.70752,0.82764-11.23779,2.62793-16.31836,5.49951
			c-8.60986,4.94727-15.37598,12.95361-18.93457,22.1958c7.50195-7.1377,17.46387-11.26514,27.84814-11.66797
			c10.44434-0.32031,20.73877,2.98633,29.1333,9.20215c-1.88184-0.23486-3.82568-0.48926-5.77637-0.48926
			c-22.95361,0-41.49756,17.57617-41.49756,39.28809c0,21.69824,18.54395,39.25684,41.49756,39.25684
			c1.95068,0,3.89453-0.16602,5.77637-0.3623c-8.39453,6.22168-18.68896,9.48047-29.1333,9.13379
			c-10.38428-0.33398-20.34619-4.45703-27.84814-11.6582c4.34424,11.32422,13.34424,20.49707,24.61279,24.97949
			c2.69824,1.05859,5.46143,1.83398,8.24707,2.29297c1.37256,0.2998,2.69727,0.53516,4.06006,0.58105
			c0.37256,0.00781,0.66748,0.00781,1.01953,0.15625c0.5293,0,0.3916,0.19922,0.3916,0.59766
			c0.11768,0.83691,0.1377,1.62402,0.27344,2.41113c0.68848,5.7627,2.54932,11.25098,5.41309,16.29492
			c5.04199,8.62207,12.92529,15.33594,22.18164,18.94727c-7.10059-7.50488-11.19678-17.55078-11.53174-27.84375
			c-0.43164-10.38867,2.94336-20.75586,9.12109-29.1123c-0.23535,1.91602-0.35303,3.77344-0.35303,5.72754
			c0,22.9502,17.51172,41.51367,39.22363,41.51367c21.65039,0,39.22168-18.56348,39.22168-41.51367
			c0-1.9541-0.17627-3.81152-0.40186-5.72754c6.19824,8.35645,9.50195,18.72363,9.14893,29.1123
			c-0.41162,10.29297-4.49023,20.33887-11.66016,27.84375c15.88672-6.12109,26.96875-21.32129,27.93799-38.25098
			C-1536.1626,191.6084-1521.05127,180.46484-1514.90381,164.56543z M-1629.64307,57.04736
			c0.61865-0.30029,1.27637-0.69092,1.95166-0.98486c0.33447-0.21143,0.74609-0.31494,1.19629-0.49121
			c0.29443-0.18652,0.62842-0.29004,0.88281-0.41602c0.4126-0.1377,0.76611-0.29492,1.15723-0.37256
			c0.42188-0.07959,0.82422-0.18359,1.29443-0.31494c0.17627-0.1416,0.52979-0.1416,0.80518-0.1416
			c1.5083-0.36719,3.14746-0.57764,4.80469-0.57764c14.16064,0,25.61328,12.50781,25.61328,28.01465
			c0,2.96143-0.43213,5.75537-1.17725,8.47266c-5.37354-1.01953-11.08154,0.44043-15.16895,4.66309
			c-6.71777,6.64844-6.71777,17.47803,0,24.14648c6.64746,6.59375,17.44238,6.59375,24.08301,0
			c4.10645-4.17139,5.73535-9.91357,4.67676-15.32227c2.68652-0.70166,5.53076-1.17627,8.47119-1.17627
			c12.47314,0,23.00586,7.45264,26.61279,17.78223c0.07959,0.25439,0.15771,0.49023,0.28662,0.69531
			c0.13574,0.58105,0.23486,1.02686,0.36279,1.58105c0.06641,0.24463,0.11768,0.45947,0.19482,0.69043
			c0.35254,1.47461,0.5293,3.21143,0.5293,4.89941c0,14.12402-12.53125,25.59668-27.98633,25.59668
			c-2.94043,0-5.66699-0.49512-8.29541-1.18066c0.92188-5.37988-0.60742-11.01367-4.73535-15.10254
			c-6.68896-6.55762-17.42578-6.55762-24.13232,0c-6.57031,6.64746-6.57031,17.46484,0,24.19238
			c4.11719,4.02441,9.82422,5.65918,15.14014,4.68262c0.76465,2.56055,1.17578,5.38281,1.17578,8.22559
			c0,15.43945-11.43164,28.06152-25.57178,28.06152c-14.16113,0-25.66357-12.62207-25.66357-28.06152
			c0-2.90527,0.48047-5.74805,1.22607-8.42383c5.39404,1.01367,11.0415-0.5625,15.19922-4.66211
			c6.64795-6.72949,6.64795-17.5127,0-24.13086c-6.61035-6.67871-17.45459-6.67871-24.06396,0
			c-4.19775,4.15234-5.77539,9.80469-4.72754,15.21875c-2.64648,0.68555-5.46973,1.18066-8.43213,1.18066
			c-15.44482,0-28.03516-11.47266-28.03516-25.59668c0-2.55615,0.44287-5.02393,1.18652-7.37598
			c0.1377-0.38184,0.27393-0.62109,0.39355-0.97168c0.13623-0.36328,0.27344-0.71875,0.37109-1.08691
			c0.23438-0.43701,0.47021-0.86719,0.69824-1.3291c0.10645-0.23535,0.22363-0.47607,0.3418-0.64258
			c0.22607-0.49023,0.48047-0.94727,0.74414-1.35693c0.17725-0.27979,0.33545-0.55811,0.53076-0.85205
			c0.2749-0.25244,0.46094-0.68848,0.70508-0.95361c5.11865-6.61426,13.53271-11.03076,23.06396-11.03076
			c2.86328,0,5.57031,0.42578,8.25537,1.12744c-1.00928,5.40869,0.58936,11.07471,4.71826,15.15674
			c6.65771,6.6709,17.41504,6.6709,24.1123,0c6.63037-6.6167,6.63037-17.41602,0-24.07471
			c-4.11719-4.12891-9.80664-5.64355-15.16016-4.75098c-0.72461-2.57422-1.12744-5.32959-1.12744-8.29102
			c0-10.50244,5.24561-19.64795,13.06201-24.45215C-1629.896,57.28271-1629.75049,57.15869-1629.64307,57.04736z"/>
	</g>
	<g>
		<path fill="#808080" d="M-567.26172,21.65283v213.12939h213.1123V21.65283H-567.26172z M-426.36914,101.9585
			c15.29883,0,27.69336,11.70166,27.69336,26.23682c0,14.40234-12.39453,26.21484-27.69336,26.21484
			c-1.33301,0-2.62793-0.1084-3.91406-0.32324c5.59961,4.16504,12.55273,6.38184,19.4873,6.1543
			c6.95996-0.21094,13.6084-2.96777,18.60938-7.7832c-4.09961,10.63965-14.19824,18.04297-25.60254,18.73047
			c-0.61719,11.27637-8.04883,21.43066-18.65039,25.51465c4.79297-5.01172,7.5127-11.72363,7.77637-18.57324
			c0.25391-6.94141-1.96191-13.86523-6.0625-19.44824c0.11816,1.28223,0.22656,2.51465,0.22656,3.81543
			c0,15.34277-11.71484,27.74316-26.19043,27.74316c-14.50488,0-26.20117-12.40039-26.20117-27.74316
			c0-1.30078,0.08887-2.5332,0.24609-3.81543c-4.11035,5.58301-6.38672,12.50684-6.0918,19.44824
			c0.21582,6.84961,2.9541,13.56152,7.70898,18.57324c-6.1875-2.39941-11.45508-6.86426-14.82617-12.65039
			c-1.88477-3.3418-3.13867-7.01465-3.61035-10.86426c-0.09766-0.54004-0.09766-1.04492-0.19629-1.61035
			c0-0.28027,0.09863-0.38965-0.25488-0.38965c-0.23438-0.06543-0.42969-0.06543-0.66406-0.09863
			c-0.9248-0.06348-1.80664-0.17773-2.70898-0.41309c-1.90332-0.29395-3.70605-0.79785-5.53027-1.51758
			c-7.50977-3.00586-13.53125-9.12891-16.43359-16.70117c5.01953,4.81543,11.66895,7.57227,18.61035,7.7832
			c6.94238,0.22754,13.86523-1.95508,19.45508-6.07227c-1.23535,0.13281-2.5498,0.24121-3.84277,0.24121
			c-15.33789,0-27.73047-11.74707-27.73047-26.21484c0-14.51367,12.39258-26.23682,27.73047-26.23682
			c1.29297,0,2.60742,0.14648,3.84277,0.27344c-5.58984-4.1377-12.5127-6.31885-19.45508-6.08789
			c-6.94141,0.25879-13.59082,3.00537-18.61035,7.74512c2.39258-6.15332,6.90137-11.4873,12.64746-14.83594
			c3.39355-1.86719,7.08203-3.08398,10.90723-3.62158c0.50684-0.04492,1.03711-0.11328,1.54785-0.20312
			c0.33301,0,0.48926,0.1582,0.48926-0.21826c0-0.18311,0.02051-0.47119,0.09863-0.6499
			c0.03906-0.93066,0.17773-1.83789,0.34277-2.75488c0.33398-1.85742,0.87305-3.73047,1.56055-5.52002
			c3-7.49805,9.1377-13.53711,16.63086-16.41113c-4.75488,4.99121-7.49316,11.66943-7.70898,18.54346
			c-0.29492,6.96777,1.92188,13.83105,6.07031,19.40674c-0.19434-1.22168-0.26465-2.51514-0.26465-3.77637
			c0-15.34521,11.70898-27.74072,26.20215-27.74072c14.51465,0,26.2002,12.39551,26.2002,27.74072
			c0,1.31006-0.09863,2.62402-0.24414,3.8877c4.14746-5.59326,6.36328-12.50732,6.10938-19.51807
			c-0.26367-6.87402-2.9834-13.55225-7.77637-18.54346c6.24609,2.37891,11.50195,6.92383,14.81641,12.68018
			c1.9209,3.31982,3.13867,7.05518,3.67676,10.88428c0.09961,0.48096,0.12891,1.02051,0.15723,1.58838
			c0,0.20654-0.05762,0.40137,0.25586,0.40137c0.2627,0,0.48926,0.08984,0.65625,0.08984
			c0.96094,0.11328,1.83301,0.18945,2.74805,0.35303c1.83984,0.32812,3.70215,0.95459,5.48926,1.60107
			c7.5293,2.96338,13.60938,9.13037,16.45312,16.6167c-5.00098-4.73975-11.64941-7.48633-18.60938-7.74512
			c-6.9043-0.23096-13.80762,1.9502-19.37695,6.07764C-428.92676,102.06689-427.70215,101.9585-426.36914,101.9585z"/>
		<path fill="#808080" d="M-438.44922,122.05127c-4.47168,4.43018-11.6709,4.43018-16.10254,0
			c-4.46973-4.43359-4.46973-11.67334,0-16.09082c2.72559-2.81982,6.55957-3.80566,10.13867-3.14014
			c0.49316-1.81885,0.77539-3.6709,0.77539-5.65576c0-10.34619-7.65918-18.69141-17.09082-18.69141
			c-1.10059,0-2.2168,0.12744-3.2168,0.3667c-0.17773,0-0.41309,0-0.53906,0.10303
			c-0.30371,0.08936-0.57812,0.13281-0.85352,0.22656c-0.25586,0.03906-0.5293,0.11719-0.79297,0.25049
			c-0.15918,0.04248-0.40234,0.15283-0.58008,0.25342c-0.31445,0.11377-0.58887,0.22119-0.80371,0.31836
			c-0.44238,0.20264-0.9043,0.46289-1.2959,0.67383c-0.07715,0.04883-0.1748,0.146-0.27344,0.16602
			c-5.22559,3.22021-8.74609,9.32129-8.74609,16.33301c0,1.98486,0.27441,3.80127,0.7832,5.54932
			c3.55078-0.60889,7.35645,0.42676,10.08203,3.16699c4.43066,4.42773,4.43066,11.65039,0,16.05713
			c-4.45215,4.44092-11.65039,4.44092-16.08301,0c-2.76562-2.69678-3.82324-6.50586-3.14844-10.08594
			c-1.79395-0.47461-3.59863-0.78369-5.51953-0.78369c-6.36523,0-12.00195,2.96533-15.41406,7.37207
			c-0.1582,0.19678-0.28613,0.48682-0.4707,0.64014c-0.12012,0.2041-0.21777,0.42529-0.31445,0.57227
			c-0.2168,0.27441-0.37402,0.58887-0.5293,0.92188c-0.05859,0.08936-0.1377,0.25537-0.21582,0.42188
			c-0.16699,0.30762-0.31348,0.60889-0.47168,0.90283c-0.06836,0.22852-0.1582,0.49023-0.27441,0.70605
			c-0.06738,0.23535-0.15625,0.396-0.24512,0.65625c-0.48047,1.57715-0.7832,3.21973-0.7832,4.93359
			c0,9.41797,8.42188,17.08008,18.71875,17.08008c1.98047,0,3.86426-0.33398,5.62793-0.76953
			c-0.70605-3.61914,0.36328-7.42188,3.15918-10.19824c4.41113-4.44727,11.6582-4.44727,16.08105,0
			c4.44238,4.4668,4.44238,11.6416,0,16.15137c-2.78418,2.71875-6.55078,3.77441-10.1582,3.10352
			c-0.49121,1.75488-0.82422,3.65625-0.82422,5.60938c0,10.3291,7.68652,18.71973,17.14062,18.71973
			c9.45312,0,17.10156-8.39062,17.10156-18.71973c0-1.89844-0.31348-3.75684-0.79395-5.49316
			c-3.55957,0.66309-7.36426-0.42676-10.11035-3.13672c-4.40332-4.47559-4.40332-11.72168,0-16.19043
			c4.47168-4.3584,11.66797-4.3584,16.10059,0c2.74707,2.80078,3.78418,6.55469,3.1582,10.1543
			c1.76367,0.43555,3.58691,0.76953,5.5498,0.76953c10.33398,0,18.68945-7.66211,18.68945-17.08008
			c0-1.13525-0.11621-2.28711-0.36328-3.29102c-0.04688-0.15186-0.06738-0.29004-0.12695-0.46777
			c-0.06934-0.35498-0.1377-0.68408-0.23535-1.05762c-0.07715-0.11719-0.13867-0.29395-0.19629-0.46582
			c-2.39062-6.88623-9.43262-11.87158-17.76758-11.87158c-1.96289,0-3.88379,0.33594-5.64941,0.81055
			C-434.64453,115.43213-435.72461,119.28467-438.44922,122.05127z"/>
	</g>
	<g>
		<path fill="#808080" d="M194.4707,62.1709V21.67139H62.39648V62.1709H21.87012v132.09473h40.52637v40.50098H194.4707v-40.50098
			H235V62.1709H194.4707z M162.76855,101.9585c15.29785,0,27.69434,11.73633,27.69434,26.23682
			c0,14.41895-12.39648,26.19043-27.69434,26.19043c-1.3125,0-2.62695-0.11328-3.89941-0.27148
			c5.60547,4.1377,12.5498,6.35449,19.49219,6.14453c6.94043-0.21094,13.60156-2.98535,18.59082-7.80078
			c-4.0957,10.625-14.18066,18.04297-25.59473,18.73047c-0.62402,11.29688-8.04883,21.43066-18.65039,25.51465
			c4.78711-4.99707,7.51172-11.70801,7.76758-18.58789c0.25684-6.92676-1.97168-13.83398-6.06055-19.43359
			c0.11914,1.28223,0.23535,2.54883,0.23535,3.81543c0,15.32422-11.7168,27.74316-26.19043,27.74316
			c-14.50488,0-26.21191-12.41895-26.21191-27.74316c0-1.2666,0.09766-2.5332,0.25586-3.81543
			c-4.11621,5.59961-6.39258,12.50684-6.08789,19.43359c0.20312,6.87988,2.94922,13.59082,7.71484,18.58789
			c-6.20605-2.3877-11.46387-6.88379-14.83691-12.66113c-1.89062-3.29785-3.1377-7.01855-3.60742-10.85352
			c-0.08887-0.52051-0.10742-1.04492-0.20605-1.6377c0-0.25879,0.11719-0.3623-0.25684-0.3623
			c-0.22266-0.07227-0.42871-0.07227-0.64355-0.09863c-0.92578-0.04297-1.8252-0.20996-2.72559-0.39258
			c-1.88672-0.31445-3.70898-0.83691-5.51465-1.57715c-7.51172-2.9541-13.53125-9.07227-16.44238-16.66211
			c5.00879,4.81543,11.67871,7.58984,18.6084,7.80078c6.94531,0.20996,13.86914-1.97266,19.44629-6.1084
			c-1.23242,0.12207-2.54688,0.23535-3.84375,0.23535c-15.33691,0-27.72852-11.74219-27.72852-26.19043
			c0-14.48389,12.3916-26.23682,27.72852-26.23682c1.29688,0,2.61133,0.14648,3.84375,0.30762
			c-5.57715-4.17188-12.50098-6.35303-19.44629-6.12207c-6.92969,0.25879-13.59961,3.00537-18.6084,7.76562
			c2.40137-6.14355,6.91211-11.47314,12.65918-14.82812c3.37207-1.89551,7.07812-3.1123,10.88477-3.6709
			C83.9502,85.39014,84.49902,85.31836,85,85.22852c0.3418,0,0.47949,0.16162,0.47949-0.21826
			c0-0.2041,0.02051-0.47119,0.09863-0.6333c0.03711-0.93701,0.17676-1.87402,0.35059-2.72559
			c0.31738-1.90332,0.86426-3.77637,1.57129-5.53076c2.97266-7.52246,9.11816-13.57227,16.62988-16.44629
			c-4.76562,5.00732-7.51172,11.68945-7.71484,18.56689c-0.30469,6.94434,1.90918,13.80762,6.06738,19.36328
			c-0.19531-1.20166-0.26367-2.49512-0.26367-3.74023c0-15.36133,11.71875-27.73633,26.19336-27.73633
			c14.52051,0,26.19727,12.375,26.19727,27.73633c0,1.32861-0.09863,2.60791-0.23535,3.90186
			c4.12891-5.60986,6.35742-12.5376,6.10059-19.5249c-0.25586-6.87744-2.98047-13.55957-7.76758-18.56689
			c6.24805,2.39307,11.5166,6.91016,14.81055,12.66943c1.92188,3.33057,3.14648,7.06592,3.68652,10.89502
			c0.09668,0.52637,0.11621,1.02051,0.15332,1.56738c0,0.24658-0.05664,0.42236,0.25586,0.42236
			c0.2666,0,0.49023,0.08984,0.66797,0.08984c0.94238,0.09229,1.82227,0.17529,2.72754,0.3667
			c1.86133,0.31445,3.70605,0.94092,5.49219,1.59766c7.54004,2.92334,13.60938,9.12012,16.45117,16.62695
			c-4.98926-4.76025-11.65039-7.50684-18.59082-7.76562c-6.92188-0.23096-13.81836,1.9502-19.39551,6.07764
			C160.21875,102.06689,161.45605,101.9585,162.76855,101.9585z"/>
		<path fill="#808080" d="M150.68652,122.08496c-4.46973,4.39648-11.64746,4.39648-16.09766,0
			c-4.46289-4.45654-4.46289-11.6792,0-16.12451c2.72559-2.81982,6.57031-3.80566,10.15527-3.14014
			c0.47168-1.81885,0.76562-3.6709,0.76562-5.65576c0-10.34619-7.64844-18.69141-17.09766-18.69141
			c-1.10254,0-2.21777,0.09326-3.21875,0.3667c-0.16602,0-0.41406,0-0.53906,0.08936c-0.30469,0.0791-0.5791,0.1626-0.85254,0.24023
			c-0.25488,0.05811-0.50879,0.1333-0.78516,0.25049c-0.1543,0.04248-0.38965,0.15283-0.57715,0.25342
			c-0.32422,0.11377-0.58789,0.20068-0.7959,0.31836c-0.46191,0.24561-0.91992,0.48047-1.31348,0.65771
			c-0.06055,0.0791-0.16602,0.18213-0.27344,0.18213c-5.21875,3.22021-8.74023,9.33984-8.74023,16.33301
			c0,1.98486,0.28613,3.80127,0.78711,5.55859c3.55859-0.61816,7.34277,0.41748,10.08789,3.15771
			c4.43457,4.42773,4.43457,11.66748,0,16.05713c-4.4502,4.47656-11.66992,4.47656-16.09766,0
			c-2.7666-2.69678-3.82617-6.50586-3.14062-10.10449c-1.80469-0.45605-3.60938-0.76514-5.52734-0.76514
			c-6.35742,0-12.00488,2.95117-15.40039,7.37207c-0.15527,0.21094-0.29102,0.48682-0.46875,0.6499
			c-0.13672,0.19434-0.23535,0.39404-0.33105,0.57666c-0.19629,0.26025-0.35547,0.57471-0.5127,0.86914
			c-0.06836,0.12793-0.15918,0.31152-0.23438,0.4458c-0.15723,0.30518-0.29297,0.58789-0.4707,0.90283
			c-0.05762,0.24316-0.1582,0.50488-0.25488,0.7207c-0.0791,0.21045-0.17676,0.396-0.25781,0.65625
			c-0.48633,1.54297-0.78125,3.21973-0.78125,4.93359c0,9.39258,8.41211,17.0957,18.71191,17.0957
			c1.97754,0,3.86035-0.35938,5.64648-0.78125c-0.71484-3.62305,0.35156-7.42578,3.13672-10.18652
			c4.43164-4.42676,11.66699-4.42676,16.10156,0c4.43262,4.4209,4.43262,11.64355,0,16.12891
			c-2.80371,2.72559-6.57324,3.75977-10.16895,3.11035c-0.49902,1.77734-0.8252,3.65625-0.8252,5.62793
			c0,10.33008,7.69922,18.71484,17.14258,18.71484s17.09277-8.38477,17.09277-18.71484c0-1.91699-0.31641-3.7959-0.78516-5.51172
			c-3.55273,0.66309-7.37695-0.41113-10.10938-3.10254c-4.40625-4.50977-4.40625-11.75586,0-16.18555
			c4.46289-4.39746,11.65723-4.39746,16.09082,0c2.7666,2.73145,3.78516,6.51562,3.16895,10.11914
			c1.75195,0.42188,3.57715,0.78125,5.54004,0.78125c10.33398,0,18.68652-7.70312,18.68652-17.0957
			c0-1.13525-0.11816-2.28027-0.35352-3.31006c-0.05664-0.13281-0.06934-0.271-0.13672-0.44873
			c-0.05762-0.39014-0.12695-0.6665-0.23438-1.05762c-0.08691-0.11719-0.13477-0.27344-0.18457-0.47559
			c-2.4043-6.89844-9.44531-11.86182-17.77734-11.86182c-1.96289,0-3.86621,0.33594-5.64941,0.79199
			C154.49219,115.43213,153.41309,119.28467,150.68652,122.08496z"/>
	</g>
</g>
</svg>
