<?xml version="1.0" encoding="utf-8"?>
<!-- Generator: Adobe Illustrator 19.0.1, SVG Export Plug-In . SVG Version: 6.00 Build 0)  -->
<svg version="1.1" id="Layer_1" xmlns="http://www.w3.org/2000/svg" xmlns:xlink="http://www.w3.org/1999/xlink" x="0px" y="0px"
	 viewBox="0 0 53.4 54.1" style="enable-background:new 0 0 53.4 54.1;" xml:space="preserve">
<style type="text/css">
	.st0{fill:#65666A;}
</style>
<g>
	<path class="st0" d="M27.3,49.8h-0.2c-1,0-2-0.2-3-0.7c1-0.6,1.9-1.4,2.7-2.2c0.1-0.1,0.2-0.2,0.3-0.3c0.1,0.1,0.2,0.2,0.3,0.3
		c0.8,0.8,1.7,1.5,2.7,2.1c-0.2,0.1-0.4,0.2-0.7,0.3l0.2,0.1l-0.3,0.1l0.1-0.2c0,0-0.1,0-0.2,0.1h-0.1c-0.1,0-0.2,0.1-0.3,0.1l0,0
		l0,0h-0.1h-0.1C28.1,49.7,27.7,49.7,27.3,49.8L27.3,49.8L27.3,49.8z M13.6,44.8c-1-0.4-1.9-0.9-2.6-1.7c-0.7-0.7-1.3-1.6-1.6-2.6
		c1.1,0.3,2.3,0.4,3.5,0.4c0.1,0,0.3,0,0.4,0c0,0.1,0,0.3,0,0.4C13.2,42.5,13.4,43.6,13.6,44.8L13.6,44.8z M40.6,44.8
		c0.3-1.1,0.4-2.3,0.4-3.4l0,0l0,0c0-0.1,0-0.3,0-0.4c0.1,0,0.3,0,0.4,0c1.2,0,2.3-0.1,3.5-0.4c-0.1,0.2-0.2,0.4-0.3,0.6l0.2-0.1
		l-0.1,0.2l-0.1-0.2v0.1l-0.1,0.1l0,0l-0.1,0.1c-0.1,0.1-0.1,0.2-0.2,0.3l0,0l0,0c0,0.1,0,0.1-0.1,0.1v0.1c-0.3,0.4-0.6,0.8-0.9,1.1
		C42.4,43.8,41.6,44.4,40.6,44.8L40.6,44.8z M19.9,44.4c-0.4-1-0.5-2-0.5-3.1c0-0.8,0.1-1.6,0.3-2.4c0.3,0,0.5,0.1,0.8,0.1
		c0.6,0,1.2-0.1,1.8-0.3c0.4,0.8,1,1.5,1.7,2c-0.4,0.7-0.9,1.4-1.4,1.9C21.7,43.3,20.9,43.9,19.9,44.4L19.9,44.4z M34.3,44.4
		c-1-0.5-1.8-1.1-2.6-1.8c-0.6-0.6-1.1-1.2-1.5-1.9c0.7-0.5,1.3-1.2,1.7-2c0.6,0.2,1.2,0.3,1.7,0.3c0.3,0,0.6,0,0.8-0.1
		c0.2,0.8,0.3,1.6,0.3,2.3v0.1C34.8,42.4,34.6,43.4,34.3,44.4L34.3,44.4z M12.8,34.8c-1.1,0-2.1-0.2-3.1-0.5c0.4-1,1.1-1.8,1.8-2.6
		c0.6-0.6,1.2-1.1,2-1.5c0.5,0.7,1.2,1.3,1.9,1.7c-0.2,0.6-0.3,1.2-0.3,1.8c0,0.3,0,0.6,0.1,0.8C14.4,34.7,13.6,34.8,12.8,34.8
		L12.8,34.8z M41.4,34.8c-0.8,0-1.6-0.1-2.4-0.3c0-0.3,0.1-0.5,0.1-0.8c0-0.6-0.1-1.2-0.3-1.7c0.8-0.4,1.5-1,2-1.7
		c0.7,0.4,1.4,0.9,1.9,1.5c0.7,0.8,1.4,1.6,1.8,2.6C43.5,34.6,42.4,34.8,41.4,34.8L41.4,34.8z M5,30c-0.4-0.9-0.7-2-0.7-3
		s0.2-2,0.7-3c0.6,1,1.3,1.9,2.2,2.7c0.1,0.1,0.2,0.2,0.3,0.3c-0.1,0.1-0.2,0.2-0.3,0.3l0,0C6.4,28.1,5.6,29,5,30L5,30z M49.1,30
		c-0.6-1-1.3-1.9-2.2-2.7c-0.1-0.1-0.2-0.2-0.3-0.3c0.1-0.1,0.2-0.2,0.3-0.3c0.8-0.8,1.6-1.7,2.2-2.7c0,0.1,0.1,0.1,0.1,0.2v0.1v0.1
		c0,0,0,0.1,0.1,0.1l0,0l0,0c0,0.1,0.1,0.2,0.1,0.2v0.1v0.1c0,0.1,0.1,0.2,0.1,0.2l0,0l0,0c0,0.1,0,0.2,0,0.2l0,0l0,0
		c0.1,0.4,0.1,0.9,0.1,1.4l0,0l0,0C49.8,28.1,49.6,29.1,49.1,30L49.1,30z M13.5,23.9c-0.7-0.4-1.4-0.9-1.9-1.5
		c-0.8-0.8-1.4-1.6-1.8-2.6c1-0.4,2-0.5,3.1-0.5l0,0c0.8,0,1.6,0.1,2.4,0.3c0,0.3-0.1,0.6-0.1,0.8c0,0.6,0.1,1.2,0.3,1.7
		C14.7,22.6,14,23.2,13.5,23.9L13.5,23.9z M40.7,23.9c-0.5-0.7-1.2-1.3-2-1.7c0.2-0.6,0.3-1.2,0.3-1.8c0-0.3,0-0.5-0.1-0.8
		c0.8-0.2,1.6-0.3,2.4-0.3c1.1,0,2.1,0.2,3.1,0.5c-0.4,0.9-1.1,1.8-1.8,2.6C42.1,23,41.4,23.5,40.7,23.9L40.7,23.9z M22.2,15.4
		c-0.5-0.2-1.1-0.3-1.7-0.3c-0.3,0-0.6,0-0.9,0.1c-0.2-0.8-0.3-1.6-0.3-2.4c0-1.1,0.2-2.1,0.5-3.1c1,0.5,1.8,1.1,2.6,1.8
		c0.5,0.5,1,1.2,1.4,1.9C23.2,13.9,22.6,14.6,22.2,15.4L22.2,15.4z M31.9,15.4c-0.4-0.8-1-1.5-1.7-2c0.4-0.7,0.9-1.4,1.5-1.9
		c0.8-0.8,1.6-1.4,2.6-1.8c0.3,1,0.5,2,0.5,3.1c0,0.8-0.1,1.6-0.3,2.4c-0.3,0-0.5-0.1-0.8-0.1C33.1,15.1,32.5,15.2,31.9,15.4
		L31.9,15.4z M9.4,13.5c0.4-1,0.9-1.9,1.6-2.6c0.5-0.5,1.1-1,1.8-1.3l0,0l0,0h0.1c0.1,0,0.1-0.1,0.2-0.1c0.1,0,0.1-0.1,0.2-0.1
		c0.1,0,0.1,0,0.1-0.1c0.1,0,0.1,0,0.2-0.1c-0.3,1.1-0.4,2.3-0.4,3.5c0,0.1,0,0.3,0,0.4c-0.1,0-0.2,0-0.3,0l0,0l0,0l0,0h-0.1
		C11.6,13.2,10.5,13.3,9.4,13.5L9.4,13.5z M44.8,13.5c-1.1-0.3-2.3-0.4-3.4-0.4c-0.1,0-0.3,0-0.4,0c0-0.1,0-0.3,0-0.4
		c0-1.2-0.1-2.3-0.4-3.5c0.1,0,0.1,0.1,0.2,0.1l0.1,0.1H41c0.1,0,0.1,0,0.2,0.1l0,0l0,0c0.1,0,0.2,0.1,0.2,0.1s0.1,0,0.1,0.1h0.1
		c0.1,0,0.1,0.1,0.2,0.1l0,0l0,0c0.1,0,0.1,0.1,0.2,0.1l0,0l0,0c0.4,0.3,0.8,0.6,1.1,0.9C43.9,11.7,44.4,12.6,44.8,13.5L44.8,13.5z
		 M40.5,9.2c0-0.1,0-0.1-0.1-0.2V8.9L40.8,9L40.5,9.2L40.5,9.2z M27.1,7.4c-0.1-0.1-0.2-0.2-0.3-0.3c-0.8-0.8-1.7-1.6-2.7-2.2
		c1-0.4,2-0.7,3-0.7c0.7,0,1.5,0.1,2.2,0.4l0,0l0,0l0,0c0.1,0,0.2,0.1,0.3,0.1l0,0c0.1,0,0.2,0.1,0.2,0.1h0.1l0,0l0,0
		c0.1,0,0.1,0.1,0.2,0.1c-1,0.6-1.9,1.3-2.7,2.2C27.3,7.2,27.2,7.3,27.1,7.4L27.1,7.4z"/>
	<path class="st0" d="M27.1,54.1L27.1,54.1c-3.1,0-6.1-1.2-8.3-3.5c-0.3-0.3-0.7-0.7-1-1.1c-0.5,0.1-1,0.1-1.5,0.1
		c-3.2,0-6.2-1.2-8.4-3.4c-2.3-2.3-3.6-5.5-3.4-8.9c0-0.3,0-0.6,0.1-1c-0.4-0.3-0.8-0.7-1.1-1C1.2,33,0,30.1,0,27
		c0-3.3,1.4-6.4,3.9-8.7c0.2-0.2,0.5-0.4,0.7-0.6c0-0.3-0.1-0.6-0.1-1c-0.1-3.4,1.1-6.6,3.4-8.9C8.7,7,9.7,6.2,10.8,5.7l0.1-0.1H11
		l0.2-0.1c0.2-0.1,0.3-0.1,0.4-0.2l0,0l0,0l0.1-0.1l0.1-0.1C11.9,5.1,12,5,12.1,5h0.1l0,0h0.1l0,0l0,0h0.1c0.1,0,0.3-0.1,0.4-0.1
		c0.2-0.1,0.4-0.1,0.6-0.1h0.1h0.1l0,0l0,0l0.2-0.1l0,0l0,0h0.1H14l0,0c0.1,0,0.3,0,0.4-0.1c0.5-0.1,1.1-0.1,1.6-0.1s1,0,1.5,0.1
		c0.2-0.3,0.4-0.5,0.6-0.7C20.4,1.4,23.5,0,26.8,0c1.2,0,2.4,0.2,3.6,0.6h0.1h0.1l0.2,0.1c0.2,0.1,0.3,0.1,0.5,0.2L31.5,1l0.1,0.1
		c0.1,0,0.2,0.1,0.2,0.1h0.1H32h0.1l0,0l0,0l0.1,0.1l0,0l0,0c0.1,0,0.2,0.1,0.3,0.2c0.2,0.1,0.4,0.2,0.6,0.4l0,0h0.1l0,0l0,0L33.4,2
		l0,0l0,0l0.1,0.1l0,0l0,0c0.1,0.1,0.2,0.2,0.4,0.3c0.4,0.3,0.8,0.7,1.2,1.1c0.3,0.3,0.7,0.7,1,1.1c0.5-0.1,1-0.1,1.5-0.1
		c0.9,0,1.9,0.1,2.8,0.3h0.1l0,0l0,0l0,0h0.1l0,0l0.3,0.1l0,0l0,0l0,0H41L41.4,5h0.1h0.1c0.2,0.1,0.4,0.1,0.5,0.2
		c0.2,0.1,0.3,0.1,0.4,0.2c0.1,0.1,0.3,0.1,0.4,0.2H43l0.1,0.1c0.2,0.1,0.3,0.2,0.5,0.3c0.2,0.1,0.3,0.2,0.5,0.3l0,0l0,0
		c0.6,0.4,1.2,0.9,1.7,1.4c2.3,2.3,3.5,5.5,3.4,8.9c0,0.3,0,0.6-0.1,0.9c0.4,0.3,0.8,0.7,1.2,1c0.7,0.7,1.3,1.4,1.7,2.2v0.1l0,0l0,0
		l0,0l0,0l0,0l0,0l0.2,0.2l0,0l0,0v0.1l0.1,0.1c0,0.1,0.1,0.2,0.2,0.3l0,0l0,0l0,0v0.1v0.1c0.1,0.2,0.2,0.4,0.2,0.5
		c0.1,0.2,0.1,0.3,0.2,0.4v0.1c0,0.1,0.1,0.2,0.1,0.3v0.1v0.1c0.1,0.2,0.1,0.4,0.1,0.5c0.1,0.2,0.1,0.4,0.1,0.6l0,0l0,0
		c0.1,0.7,0.2,1.4,0.2,2.2c0,3.3-1.4,6.4-3.9,8.7c-0.2,0.2-0.5,0.4-0.7,0.6c0.3,2.3-0.1,4.7-1.1,6.7v0.1l0,0l0,0l0,0l0,0
		c0,0,0,0.1-0.1,0.1v0.1v0.1V43c-0.1,0.2-0.2,0.3-0.3,0.5c-0.1,0.1-0.1,0.2-0.1,0.2l0,0l-0.1,0.1c-0.5,0.7-0.9,1.3-1.5,1.9
		c-2.2,2.2-5.2,3.4-8.3,3.4c-0.5,0-1,0-1.5-0.1c-1.4,1.9-3.4,3.2-5.5,4h-0.1l0,0l0,0l0,0L30,53.1h-0.1h-0.1
		c-0.2,0.1-0.3,0.1-0.5,0.2c-0.1,0-0.2,0-0.3,0.1h-0.1C28.7,54.1,27.9,54.1,27.1,54.1L27.1,54.1z M20.7,48.8c1.8,1.7,4,2.7,6.4,2.7
		c0.6,0,1.2-0.1,1.9-0.2h0.1c0.1,0,0.1,0,0.2,0c0.2,0,0.3-0.1,0.5-0.1h0.1H30h0.1l0,0l0,0c1.3-0.5,2.5-1.2,3.5-2.2
		c-1.8-0.7-3.5-1.7-4.9-3.1c-0.1-0.1-0.2-0.2-0.4-0.4l-1.2-1.3l-1.2,1.3c-0.1,0.1-0.2,0.2-0.4,0.4C24.2,47.1,22.5,48.2,20.7,48.8
		L20.7,48.8z M7.1,37.9c0,2.5,0.9,4.7,2.6,6.4c1.7,1.7,4,2.6,6.4,2.6c-0.8-1.8-1.2-3.7-1.2-5.7c0-0.2,0-0.3,0-0.5L15,39h-1.7h-0.1
		c-0.1,0-0.3,0-0.4,0C10.9,39.2,8.9,38.7,7.1,37.9L7.1,37.9z M39.1,39.1l0.1,1.7c0,0.2,0,0.3,0,0.5c0,2-0.4,3.9-1.3,5.7
		c2.5,0,4.8-0.9,6.4-2.6c0.4-0.4,0.8-0.9,1.2-1.4l0,0l0,0c0-0.1,0.1-0.1,0.1-0.2c0.1-0.1,0.2-0.3,0.2-0.4l0.1-0.1
		c0-0.1,0.1-0.1,0.1-0.2V42c0.6-1.2,0.9-2.6,0.9-4c-1.8,0.8-3.7,1.2-5.7,1.2c-0.2,0-0.3,0-0.5,0L39.1,39.1L39.1,39.1z M18.4,36.9
		L18,38.3c-0.3,1-0.4,2-0.4,3c0,1.9,0.5,3.7,1.4,5.3c1.8-0.5,3.4-1.5,4.7-2.8c0.7-0.7,1.3-1.5,1.8-2.4l0.7-1.3L25,39.3
		c-1-0.7-1.6-1.8-1.6-3c0-0.2,0-0.5,0.1-0.7c-0.1,0.2-0.3,0.4-0.4,0.5c-0.7,0.7-1.6,1.1-2.6,1.1c-0.2,0-0.4,0-0.6-0.1L18.4,36.9
		L18.4,36.9z M28,40.1l0.7,1.3c0.5,0.9,1.1,1.7,1.8,2.4c1.3,1.3,2.9,2.3,4.7,2.8c0.9-1.6,1.4-3.4,1.4-5.3c0-1-0.1-2.1-0.4-3
		l-0.4-1.4l-1.4,0.3c-0.2,0-0.4,0.1-0.7,0.1c-1,0-1.9-0.4-2.6-1.1c-0.1-0.1-0.3-0.3-0.4-0.5c0.1,0.2,0.1,0.4,0.1,0.7
		c0,1.2-0.6,2.3-1.6,3L28,40.1L28,40.1z M7.5,35.1c1.6,0.9,3.4,1.4,5.3,1.4l0,0c1,0,2-0.2,3-0.4l1.4-0.4l-0.3-1.4
		c-0.2-1.2,0.2-2.4,1-3.2c0.2-0.1,0.3-0.3,0.5-0.4c-0.2,0-0.4,0.1-0.6,0.1c-1.2,0-2.3-0.6-3-1.6L14,28l-1.3,0.7
		c-0.9,0.5-1.7,1.1-2.5,1.8C9,31.8,8,33.4,7.5,35.1L7.5,35.1z M36.9,35.7l1.4,0.4c1,0.3,2,0.4,3,0.4c1.9,0,3.7-0.5,5.3-1.4
		c-0.5-1.8-1.4-3.4-2.8-4.7c-0.7-0.7-1.5-1.3-2.5-1.8L40,27.9l-0.8,1.2c-0.7,1-1.8,1.6-3,1.6c-0.2,0-0.4,0-0.6-0.1
		c0.1,0.1,0.3,0.2,0.4,0.4c0.8,0.8,1.2,2.1,1,3.2L36.9,35.7L36.9,35.7z M20.5,30c1,0,1.9,0.4,2.6,1.1c0.9,0.9,1.2,2.1,1,3.3
		c0.7-1,1.8-1.6,3-1.6s2.3,0.6,3,1.5c0-0.2-0.1-0.4-0.1-0.7c0-1,0.4-1.9,1.1-2.6c0.7-0.7,1.6-1.1,2.6-1.1c0.2,0,0.4,0,0.6,0
		c-0.9-0.7-1.5-1.7-1.5-2.9c0-1.2,0.6-2.3,1.6-3c-0.2,0-0.4,0-0.6,0c-1,0-1.9-0.4-2.6-1.1c-0.7-0.7-1.1-1.6-1.1-2.6
		c0-0.2,0-0.4,0.1-0.7c-0.1,0.2-0.3,0.4-0.4,0.5c-0.7,0.7-1.6,1.1-2.6,1.1c-1.2,0-2.3-0.6-2.9-1.5c0,0.2,0.1,0.4,0.1,0.6
		c0,1-0.4,1.9-1.1,2.6c-0.7,0.7-1.6,1.1-2.6,1.1c-0.2,0-0.4,0-0.6,0c0.2,0.1,0.3,0.2,0.4,0.4c0.7,0.7,1.1,1.6,1.1,2.6
		s-0.4,1.9-1.1,2.6c-0.2,0.2-0.3,0.3-0.5,0.4C20.1,30,20.3,30,20.5,30L20.5,30z M5.3,20.6c-1.7,1.8-2.7,4-2.7,6.4s0.9,4.7,2.7,6.4
		C6,31.6,7,29.9,8.4,28.5c0.1-0.1,0.2-0.2,0.4-0.3L10,27l-1.2-1.2c-0.1-0.1-0.2-0.2-0.4-0.3C7,24.1,6,22.4,5.3,20.6L5.3,20.6z
		 M44.1,27l1.3,1.2c0.1,0.1,0.2,0.2,0.4,0.4c1.4,1.4,2.5,3.1,3.1,4.9c1.7-1.8,2.7-4,2.7-6.4c0-0.6-0.1-1.2-0.2-1.7
		c0-0.2-0.1-0.3-0.1-0.4s-0.1-0.2-0.1-0.3v-0.1l0,0l0,0v-0.1c0-0.1-0.1-0.2-0.1-0.3c0-0.1-0.1-0.2-0.1-0.3v-0.1l0,0
		c0-0.1-0.1-0.2-0.1-0.3l0,0l0,0c-0.1-0.2-0.2-0.4-0.3-0.6l0,0l0,0l-0.1-0.2c-0.4-0.6-0.8-1.2-1.4-1.7c-0.7,1.8-1.7,3.5-3.1,4.9
		c-0.1,0.1-0.2,0.2-0.4,0.3L44.1,27L44.1,27z M7.5,18.9c0.5,1.8,1.4,3.4,2.8,4.7c0.7,0.7,1.5,1.3,2.4,1.8l1.3,0.7l0.8-1.2
		c0.7-1,1.8-1.6,3-1.6c0.2,0,0.4,0,0.6,0c-0.2-0.1-0.3-0.2-0.4-0.4c-0.9-0.8-1.2-2-1-3.2l0.3-1.4l-1.4-0.4c-1-0.3-2-0.4-3-0.4
		C10.9,17.5,9.1,18,7.5,18.9L7.5,18.9z M36.3,23.4c1.2,0,2.3,0.6,3,1.6l0.8,1.2l1.3-0.7c0.9-0.5,1.8-1.1,2.5-1.8
		c1.3-1.3,2.3-3,2.8-4.7c-1.6-0.9-3.4-1.4-5.3-1.4c-1,0-2,0.1-3,0.4L37,18.4l0.3,1.4c0.2,1.2-0.1,2.4-1,3.2
		c-0.2,0.2-0.3,0.3-0.5,0.4C35.9,23.4,36.1,23.4,36.3,23.4L36.3,23.4z M28,13.9l1.2,0.8c1,0.7,1.6,1.8,1.6,3c0,0.2,0,0.5-0.1,0.7
		c0.1-0.2,0.3-0.4,0.4-0.5c0.7-0.7,1.6-1.1,2.6-1.1c0.2,0,0.5,0,0.7,0.1l1.4,0.3l0.4-1.4c0.3-1,0.4-2,0.4-3c0-1.9-0.5-3.7-1.4-5.3
		c-1.8,0.5-3.4,1.4-4.7,2.7c-0.7,0.7-1.3,1.6-1.8,2.4L28,13.9L28,13.9z M20.6,16.9c1,0,1.9,0.4,2.6,1.1c0.1,0.1,0.3,0.3,0.4,0.4
		c0-0.2,0-0.4,0-0.6c0-1.2,0.6-2.3,1.6-3l1.2-0.8l-0.7-1.3c-0.5-0.9-1.1-1.7-1.8-2.4C22.6,9,21,8,19.2,7.5c-0.9,1.6-1.4,3.4-1.4,5.3
		c0,1,0.1,2,0.4,3l0.4,1.4l1.4-0.3C20.1,16.9,20.3,16.9,20.6,16.9L20.6,16.9z M14.2,7.3L14.2,7.3c-0.2,0-0.4,0.1-0.5,0.1
		s-0.2,0-0.2,0.1h-0.1h-0.1h-0.1l0,0c-0.1,0-0.1,0-0.2,0.1h-0.1l0,0h-0.1c-0.1,0-0.2,0.1-0.3,0.1l0,0l0,0l0,0l0,0h-0.1h-0.1h-0.1
		l0,0c-0.9,0.4-1.6,1-2.3,1.6c-1.7,1.7-2.6,4-2.6,6.4c1.8-0.8,3.7-1.2,5.7-1.2h0.1c0.1,0,0.3,0,0.4,0l1.7,0.1l-0.1-1.7
		c0-0.2,0-0.3,0-0.5c0-2,0.4-3.9,1.2-5.7c-0.4,0-0.8,0-1.2,0.1c-0.1,0-0.2,0-0.3,0l0,0l0,0h-0.1h-0.1h-0.1L14.2,7.3L14.2,7.3z
		 M41.4,14.9L41.4,14.9c2,0,3.9,0.4,5.7,1.3c0-2.5-0.9-4.7-2.6-6.4c-0.4-0.4-0.9-0.8-1.4-1.1c-0.1-0.1-0.2-0.1-0.3-0.2
		s-0.2-0.1-0.3-0.2l0,0h-0.1l0,0l0,0h-0.1c-0.1,0-0.2-0.1-0.3-0.1c-0.1-0.1-0.2-0.1-0.3-0.1h-0.1h-0.1c-0.1,0-0.2-0.1-0.3-0.1l0,0
		l0,0c-0.2-0.1-0.5-0.1-0.7-0.2l0,0l0,0h-0.2c-0.7-0.2-1.4-0.3-2.2-0.3c0.8,1.8,1.2,3.7,1.2,5.7c0,0.2,0,0.3,0,0.5l-0.1,1.7l1.7-0.1
		C41,14.9,41.2,14.9,41.4,14.9L41.4,14.9z M20.7,5.2c1.8,0.7,3.5,1.7,4.9,3.1c0.1,0.1,0.2,0.2,0.3,0.4l1.2,1.3l1.2-1.3
		c0.1-0.1,0.2-0.3,0.4-0.4c1.4-1.4,3.1-2.4,4.9-3.1c-0.3-0.3-0.6-0.6-1-0.8c-0.1-0.1-0.2-0.1-0.3-0.2l0,0l0,0l-0.1-0.1L32.1,4H32
		l-0.2-0.1l0,0c-0.1-0.1-0.3-0.2-0.4-0.3c-0.1,0-0.1-0.1-0.2-0.1h-0.1L31,3.4h-0.1l0,0l0,0c-0.1,0-0.1-0.1-0.2-0.1h-0.1l0,0h-0.1
		c-0.1,0-0.2-0.1-0.3-0.1l0,0l0,0h-0.1l0,0H30c-0.9-0.3-1.8-0.4-2.8-0.4C24.7,2.5,22.4,3.5,20.7,5.2L20.7,5.2z"/>
</g>
</svg>
