<svg id="Layer_1" data-name="Layer 1" xmlns="http://www.w3.org/2000/svg" viewBox="0 0 85 71"><defs><style>.cls-1{fill:#646569;}</style></defs><title>services</title><path class="cls-1" d="M72.25,35.05L61.69,27.17,63.33,14.1,50.29,16,42.21,5.59,34.33,16.15,21.26,14.51l1.89,13-10.4,8.08,10.56,7.88L21.67,56.58l13-1.89,8.08,10.4,7.88-10.56,13.07,1.64-1.9-13ZM44,47.22v4.62H41.48V47.22c-5.45-.11-9.93-2.78-9.93-6.05A2.92,2.92,0,0,1,34.68,38a3,3,0,0,1,3.35,3c0.23,1.84,2,2.67,4.29,2.67,3,0,5-1.17,5-3,0-1.65-1.17-2.18-2.93-2.56l-5-1.09c-3.95-.86-6.81-2.44-6.81-6.65,0-4.55,4.44-7.25,9-7.48V18.84H44V23c4,0.23,8.2,2,8.2,5.45a2.73,2.73,0,0,1-2.75,2.74,2.67,2.67,0,0,1-3-2.4c-0.41-1.88-1.24-2.56-4.17-2.56-2,0-3.69.79-3.69,2.44S40.32,31,43.1,31.62l4.4,1c3.76,0.9,5.94,2.71,5.94,6.54C53.45,44.7,48.86,46.65,44,47.22Z"/></svg>