<?xml version="1.0" encoding="utf-8"?>
<!-- Generator: Adobe Illustrator 16.0.4, SVG Export Plug-In . SVG Version: 6.00 Build 0)  -->
<!DOCTYPE svg PUBLIC "-//W3C//DTD SVG 1.1//EN" "http://www.w3.org/Graphics/SVG/1.1/DTD/svg11.dtd">
<svg version="1.1" id="Layer_1" xmlns="http://www.w3.org/2000/svg" xmlns:xlink="http://www.w3.org/1999/xlink" x="0px" y="0px"
	 width="256px" height="256px" viewBox="0 0 256 256" enable-background="new 0 0 256 256" xml:space="preserve">
<path fill="#646469" d="M-3499.32,255.645L-3499.32,255.645c-60.501,0-109.74-49.245-109.74-109.743
	c0-60.5,49.239-109.644,109.74-109.644V-0.355l73.22,54.868l-73.22,54.872V72.772c-40.364,0-73.129,32.762-73.129,73.127
	c0,40.267,32.765,73.228,73.129,73.228c40.272-0.006,73.22-32.961,73.22-73.228c0-4.727-0.479-9.253-1.25-13.7
	c-1.973-9.917,4.528-19.44,14.511-21.315c9.796-1.981,19.502,4.628,21.286,14.512c1.251,6.694,1.973,13.521,1.973,20.504
	C-3389.58,206.399-3438.821,255.641-3499.32,255.645z"/>
<g>
	<g id="Your_Icon_2_">
		<g>
			<path fill="#646469" d="M-3108.876,179.908v-12.122c0-59.276-46.283-107.716-104.681-111.214v-6.395
				c0-3.726-3.026-6.752-6.761-6.752s-6.761,3.026-6.761,6.752v6.395c-58.397,3.499-104.689,51.938-104.689,111.214v12.122
				H-3108.876z"/>
			<polygon fill="#646469" points="-3099.585,190.403 -3341.051,190.403 -3348.315,211.409 -3092.319,211.409 			"/>
		</g>
	</g>
	<path fill="#646469" d="M-3239.347,62.446c0-10.511,8.526-19.021,19.021-19.021c10.512,0,19.038,8.51,19.038,19.021
		s-8.526,19.038-19.038,19.038C-3230.82,81.483-3239.347,72.957-3239.347,62.446z"/>
	<path fill="none" stroke="#DCDCDD" stroke-width="2" stroke-linecap="round" stroke-miterlimit="10" d="M-3231.179,86.405
		c-30.793,1.847-56.478,22.625-65.59,50.84"/>
</g>
<g>
	<rect x="-3030.949" y="98.643" fill="#646469" width="64.535" height="139.38"/>
	<rect x="-3068.375" y="136.068" fill="#646469" width="139.387" height="64.527"/>
	<rect x="-2914.321" y="19.398" fill="#646469" width="64.52" height="139.38"/>
	<rect x="-2951.748" y="56.825" fill="#646469" width="139.373" height="64.527"/>
</g>
<g>
	<path fill="#646469" d="M-2584.871,105.769l17.093-13.833l-17.093-13.839c-2.172-1.756-2.86-4.774-1.665-7.296l9.402-19.88
		l-21.413-5.034c-2.716-0.646-4.646-3.066-4.665-5.854l-0.151-21.993l-21.474,4.744c-2.722,0.604-5.516-0.736-6.747-3.247
		l-9.681-19.748l-17.285,13.591c-2.197,1.727-5.287,1.727-7.483,0l-17.292-13.591l-9.681,19.748
		c-1.23,2.511-4.025,3.851-6.741,3.247l-21.474-4.744l-0.156,21.993c-0.019,2.788-1.943,5.208-4.666,5.854l-21.407,5.034
		l9.403,19.88c1.195,2.522,0.507,5.546-1.66,7.296l-17.104,13.839l17.104,13.833c2.167,1.75,2.855,4.768,1.66,7.297l-9.403,19.874
		l21.407,5.046c2.723,0.64,4.647,3.06,4.666,5.848l0.156,21.999l21.474-4.75c0.435-0.09,0.875-0.139,1.304-0.139
		c2.275,0,4.406,1.279,5.438,3.393l9.681,19.747l17.292-13.592c2.196-1.726,5.286-1.726,7.483,0l17.285,13.592l9.681-19.747
		c1.231-2.512,4.02-3.852,6.747-3.254l21.474,4.75l0.151-21.999c0.019-2.788,1.949-5.208,4.665-5.848l21.413-5.046l-9.402-19.88
		C-2587.731,110.537-2587.043,107.519-2584.871,105.769z M-2662.292,139.409c-24.841,0-45.06-20.206-45.06-45.059
		c0-24.841,20.219-45.048,45.06-45.048c24.842,0,45.06,20.207,45.06,45.048C-2617.232,119.203-2637.45,139.409-2662.292,139.409z"/>
	<g>
		<path fill="#646469" d="M-2598.667,179.267l-24.136-5.329l-10.882,22.192c-0.803,1.642-2.306,2.83-4.092,3.24
			c-0.446,0.103-0.894,0.151-1.34,0.151c-1.352,0-2.667-0.447-3.748-1.304l-15.589-12.252l26.398,69.823l20.979-31.74l36.725,9.91
			l-20.804-55.006C-2596.266,179.388-2597.484,179.532-2598.667,179.267z"/>
	</g>
	<path fill="#646469" d="M-2681.726,198.218c-1.437,1.135-3.313,1.557-5.088,1.152c-1.78-0.41-3.289-1.599-4.086-3.24
		l-10.888-22.192l-24.129,5.329c-0.96,0.205-1.932,0.169-2.86-0.078l-20.714,54.771l36.719-9.91l20.979,31.74l26.712-70.644
		L-2681.726,198.218z"/>
</g>
<g>
	<path fill="#646469" d="M-2356.67,69.031l-36.743-36.71l-1.683-1.326c-3.631-2.818-7.576-5.305-11.704-7.344
		c-10.013-4.998-20.788-7.535-32.077-7.535c-19.146,0-37.175,7.452-50.76,20.954c-13.577,13.502-21.086,31.29-21.104,50.122
		c-0.016,17.1,6.167,33.817,17.581,47.817c0.39-1.31,0.87-2.595,1.45-3.847c1.243-2.66,2.918-5.047,4.99-7.086l56.811-56.811
		l-15.658-15.674l-2.71-2.702l2.71-2.694l4.8-4.824l2.719-2.686l2.686,2.686l53.146,53.197c2.794,2.768,6.631,4.285,10.775,4.285
		c4.849,0,9.715-2.072,13.328-5.694C-2351.083,86.122-2350.437,75.305-2356.67,69.031z"/>
	<path fill="#646469" d="M-2419.73,77.444l-56.827,56.81c-2.039,2.039-3.149,4.824-3.149,7.816c0,3.241,1.293,6.324,3.639,8.695
		c2.371,2.354,5.463,3.663,8.695,3.663c2.967,0,5.752-1.136,7.824-3.199l56.811-56.811L-2419.73,77.444z"/>
	<path fill="#646469" d="M-2278.226,141.531c15.168-15.185,23.498-34.497,23.481-54.34c-0.008-18.815-7.51-36.62-21.103-50.114
		c-13.602-13.502-31.638-20.954-50.769-20.954c-16.926,0-33.104,5.877-45.985,16.61l26.093,26.126
		c11.869,11.845,11.239,31.829-1.376,44.51c-6.398,6.333-14.986,9.947-23.557,9.947c-7.56,0-14.638-2.711-20.059-7.659
		l-56.827,56.827c-2.105,2.122-3.24,4.974-3.158,7.99c0.066,3.208,1.368,6.225,3.639,8.513c2.354,2.362,5.438,3.672,8.712,3.672
		c2.976,0,5.761-1.136,7.8-3.183l62.555-62.514l2.693-2.702l2.686,2.702l6.664,6.64l2.686,2.702l-2.686,2.693l-62.521,62.563
		c-2.047,2.039-3.174,4.807-3.174,7.808c0,3.232,1.309,6.324,3.68,8.694c2.346,2.363,5.445,3.656,8.67,3.656
		c2.984,0,5.769-1.145,7.85-3.184l62.505-62.546l2.686-2.702l2.693,2.702l5.835,5.852l2.694,2.702l-2.694,2.686l-62.521,62.547
		c-2.071,2.104-3.199,4.973-3.141,8.006c0.066,3.184,1.359,6.217,3.646,8.505c2.346,2.37,5.413,3.663,8.679,3.663
		c2.992,0,5.769-1.127,7.808-3.183l64.328-63.772C-2298.591,161.864-2287.691,150.973-2278.226,141.531z"/>
</g>
<g>
	<polyline fill="#646469" points="-2061.141,105.796 -2060.801,106.128 -2059.977,106.381 -2059.384,106.888 -2059.225,106.888 
		-2058.299,108.717 -2057.887,109.382 -2057.554,109.556 -2057.467,110.134 -2057.388,110.221 -2056.969,110.395 -2056.802,110.72 
		-2056.723,111.06 -2056.723,111.146 -2056.636,111.306 -2056.47,111.566 -2056.217,111.971 -2056.13,112.217 -2055.797,112.39 
		-2055.638,112.304 -2055.211,112.137 -2054.626,111.971 -2053.382,111.479 -2052.124,111.233 -2051.625,111.06 -2051.126,110.72 
		-2050.959,110.467 -2050.706,110.301 -2050.128,109.975 -2049.788,109.975 -2049.622,110.134 -2049.535,110.055 -2049.455,110.055 
		-2049.123,109.722 -2048.79,109.556 -2047.959,109.881 -2046.953,109.628 -2046.447,110.134 -2045.861,109.975 -2045.702,109.975 
		-2044.95,110.134 -2044.357,110.395 -2044.357,111.146 -2044.198,111.146 -2043.945,111.06 -2043.779,111.146 -2043.692,111.646 
		-2042.781,112.304 -2041.609,113.143 -2041.523,113.229 -2041.356,113.648 -2039.687,113.895 -2039.527,114.56 -2038.935,115.572 
		-2038.183,115.485 -2037.684,115.312 -2036.267,116.31 -2036.267,116.403 -2035.016,116.483 -2033.598,117.062 -2033.598,117.322 
		-2033.598,117.409 -2032.846,118.06 -2032.68,118.486 -2032.846,118.898 -2032.759,119.657 -2032.846,120.735 -2033.013,121.162 
		-2033.512,121.993 -2034.018,122.571 -2034.35,122.492 -2034.849,122.745 -2035.261,123.244 -2035.435,123.67 -2035.854,124.162 
		-2036.187,124.329 -2037.185,124.162 -2037.604,124.495 -2038.436,124.914 -2038.602,124.994 -2039.021,125.247 -2039.44,125.587 
		-2040.02,125.753 -2040.105,125.753 -2040.272,125.493 -2040.691,125.493 -2041.356,125.587 -2041.523,125.753 -2042.029,125.493 
		-2042.448,125.413 -2043.193,125.587 -2043.866,125.753 -2043.945,125.833 -2044.444,126.172 -2044.618,126.245 -2044.95,126.418 
		-2045.529,126.751 -2045.861,126.91 -2046.613,127.17 -2046.7,127.17 -2046.867,127.416 -2047.12,127.59 -2047.532,127.662 
		-2047.626,127.662 -2048.038,127.662 -2048.117,127.662 -2048.291,127.662 -2048.537,127.59 -2049.875,127.662 -2050.207,127.922 
		-2050.793,128.096 -2051.039,128.168 -2051.458,128.096 -2051.545,128.009 -2052.876,127.763 -2052.963,127.59 -2052.876,127.33 
		-2052.963,127.17 -2053.208,126.997 -2053.461,127.17 -2053.628,127.17 -2053.96,126.997 -2054.213,126.664 -2054.127,126.418 
		-2054.546,124.994 -2054.293,124.661 -2054.213,124.249 -2054.213,124.162 -2054.213,124.076 -2054.293,123.323 -2054.467,121.827 
		-2054.546,121.241 -2054.626,120.822 -2054.712,120.576 -2054.958,120.243 -2055.045,119.997 -2055.132,119.578 -2055.132,119.404 
		-2055.132,118.486 -2055.211,118.233 -2055.211,117.987 -2055.718,117.567 -2056.47,117.235 -2056.47,117.148 -2057.055,117.148 
		-2057.214,117.148 -2057.721,117.409 -2057.807,117.567 -2057.887,117.821 -2058.053,117.987 -2058.14,118.06 -2058.718,118.233 
		-2059.138,117.987 -2063.144,116.15 -2064.813,114.313 -2064.813,114.227 -2065.312,113.648 -2065.486,113.475 -2065.646,113.229 
		-2065.819,112.81 -2065.819,112.644 -2065.819,112.304 -2065.819,111.884 -2065.979,111.566 -2066.064,111.566 -2066.064,111.479 
		-2066.238,111.393 -2066.397,111.146 -2066.151,109.556 -2066.064,109.476 -2065.486,108.218 -2065.067,107.3 -2064.813,106.888 
		-2064.142,106.714 -2063.896,106.468 -2063.729,106.215 -2063.809,106.056 -2063.729,105.796 -2062.638,105.796 -2062.305,105.962 
		-2062.305,105.796 -2062.059,105.463 -2061.394,105.55 -2061.141,105.796 	"/>
	<polyline fill="#646469" points="-2125.163,72.736 -2124.91,72.989 -2124.664,73.662 -2124.49,74.074 -2124.245,74.573 
		-2124.078,74.739 -2123.825,74.905 -2123.825,74.992 -2123.825,75.151 -2123.738,75.578 -2123.738,75.665 -2123.825,75.99 
		-2123.738,76.164 -2123.493,76.496 -2123.406,76.583 -2123.247,76.916 -2122.741,77.161 -2122.574,77.407 -2121.989,78.159 
		-2121.656,78.752 -2121.735,79.49 -2121.403,79.583 -2121.157,79.331 -2120.651,79.417 -2120.484,79.583 -2120.239,80.083 
		-2119.986,80.582 -2119.732,81.008 -2119.732,81.919 -2120.318,82.006 -2120.398,82.252 -2120.484,82.505 -2120.318,83.257 
		-2120.318,83.51 -2120.239,83.843 -2120.152,84.183 -2119.986,84.428 -2119.906,84.508 -2119.819,84.508 -2119.154,84.682 
		-2118.821,85.007 -2118.648,85.419 -2118.315,86.012 -2118.069,86.186 -2117.896,86.345 -2117.737,86.431 -2117.397,86.677 
		-2117.23,86.677 -2117.064,86.598 -2116.812,86.431 -2116.732,86.012 -2116.732,85.925 -2116.732,85.751 -2116.812,85.347 
		-2116.812,84.761 -2116.732,84.587 -2116.399,84.428 -2116.06,84.428 -2115.9,84.428 -2115.48,84.508 -2115.314,84.508 
		-2115.148,84.508 -2114.815,84.682 -2114.815,85.007 -2114.815,85.26 -2115.062,85.593 -2115.148,85.925 -2115.148,86.012 
		-2115.235,86.265 -2115.235,86.764 -2115.235,86.843 -2115.235,87.097 -2115.148,87.263 -2114.729,87.342 -2114.643,87.342 
		-2114.562,87.342 -2114.483,87.342 -2114.396,87.342 -2114.396,87.429 -2114.31,87.429 -2114.31,87.516 -2114.23,87.675 
		-2113.977,88.008 -2113.731,88.268 -2113.731,88.514 -2113.891,89.02 -2113.811,89.512 -2113.731,89.772 -2113.645,89.938 
		-2113.479,90.264 -2113.225,90.69 -2113.065,90.856 -2112.806,91.016 -2112.64,91.103 -2112.56,91.103 -2112.56,91.189 
		-2112.141,91.435 -2111.634,91.695 -2111.634,91.768 -2111.555,91.768 -2111.222,91.768 -2111.056,91.768 -2111.056,91.854 
		-2111.143,92.361 -2111.808,92.766 -2112.806,93.518 -2113.065,93.771 -2113.065,94.11 -2113.312,94.284 -2113.811,94.356 
		-2113.977,94.284 -2113.977,94.11 -2113.891,93.857 -2113.891,93.358 -2113.977,93.271 -2114.31,93.105 -2115.062,93.271 
		-2115.235,93.358 -2115.979,93.604 -2116.233,93.518 -2116.399,93.518 -2116.732,93.691 -2116.985,93.771 -2117.064,93.857 
		-2117.145,93.937 -2117.397,94.19 -2117.65,94.443 -2117.737,94.443 -2117.982,94.53 -2118.481,94.609 -2118.648,94.53 
		-2118.98,94.443 -2119.154,94.284 -2119.233,93.937 -2119.313,93.771 -2119.487,93.518 -2119.646,93.358 -2120.152,92.939 
		-2120.745,92.766 -2120.904,92.693 -2121.236,92.527 -2121.403,92.527 -2122.242,92.187 -2122.408,91.608 -2122.408,91.522 
		-2122.495,91.348 -2122.654,91.103 -2122.907,91.016 -2122.994,91.016 -2123.073,91.103 -2123.247,91.269 -2123.58,91.522 
		-2123.493,91.768 -2123.326,91.941 -2123.247,92.187 -2125.163,92.187 -2125.084,91.854 -2125.084,91.608 -2125.084,91.522 
		-2125.908,91.103 -2125.995,91.103 -2126.081,91.103 -2126.168,91.103 -2126.747,91.435 -2126.92,91.608 -2127.079,91.608 
		-2128.497,92.021 -2128.75,92.021 -2129.589,92.187 -2131.505,92.527 -2132.17,92.606 -2132.676,92.361 -2133.009,91.608 
		-2133.096,91.348 -2132.59,91.189 -2132.676,90.943 -2132.922,90.77 -2133.255,90.943 -2133.508,89.859 -2133.595,89.512 
		-2133.848,88.933 -2133.927,88.854 -2133.927,88.774 -2134.094,88.601 -2134.339,88.181 -2134.592,87.936 -2134.932,87.675 
		-2135.757,87.263 -2135.757,87.176 -2135.844,87.01 -2135.844,86.431 -2135.93,86.012 -2135.93,85.838 -2136.017,85.838 
		-2136.017,85.751 -2136.097,85.593 -2136.263,85.173 -2136.35,85.086 -2136.841,84.682 -2136.936,84.508 -2137.102,84.428 
		-2137.601,84.009 -2138.02,83.51 -2138.179,83.177 -2138.272,83.091 -2138.179,81.254 -2138.179,80.842 -2138.353,80.502 
		-2139.098,79.583 -2140.269,78.832 -2140.435,78.665 -2140.355,78.579 -2139.271,78.325 -2136.263,78.159 -2135.345,78.419 
		-2133.848,78.253 -2133.255,78.159 -2133.175,78.08 -2132.344,77.667 -2132.344,77.581 -2132.344,77.32 -2132.51,77.248 
		-2132.423,77.074 -2132.17,76.916 -2131.085,76.077 -2130.507,75.325 -2130.507,74.905 -2130.333,74.573 -2130.261,74.414 
		-2129.082,73.322 -2128.497,72.736 -2128.251,72.49 -2126.992,72.071 -2126.747,71.904 -2125.908,71.904 -2125.163,72.736 	"/>
	<polyline fill="#646469" points="-2195.606,45.852 -2195.107,45.772 -2194.442,45.852 -2193.937,46.184 -2193.524,46.018 
		-2192.772,45.692 -2191.94,46.018 -2191.94,46.104 -2191.854,46.271 -2191.188,46.444 -2190.936,46.524 -2190.604,46.524 
		-2190.523,46.357 -2190.35,46.357 -2189.685,46.856 -2189.598,46.936 -2189.353,47.196 -2188.933,47.608 -2188.6,47.934 
		-2188.514,48.281 -2188.434,48.44 -2188.434,48.527 -2188.434,48.772 -2188.354,48.946 -2188.354,49.033 -2188.354,49.12 
		-2188.354,49.279 -2188.268,49.366 -2188.268,49.445 -2188.181,49.539 -2187.935,49.698 -2187.848,49.698 -2187.762,49.785 
		-2187.682,49.944 -2187.682,50.031 -2187.682,50.277 -2187.682,50.617 -2187.682,50.783 -2187.682,51.029 -2187.682,51.115 
		-2187.682,51.369 -2187.762,51.535 -2188.015,52.113 -2188.268,52.453 -2188.687,53.205 -2188.687,53.285 -2188.767,53.538 
		-2188.933,54.116 -2189.02,54.29 -2189.438,54.543 -2189.519,54.63 -2189.598,54.789 -2189.598,54.868 -2189.685,54.868 
		-2189.685,54.962 -2189.851,55.787 -2189.685,57.045 -2189.598,57.377 -2189.519,58.129 -2189.519,58.375 -2189.519,58.636 
		-2189.519,59.041 -2189.519,59.214 -2189.771,59.293 -2189.931,59.467 -2190.264,59.72 -2190.604,60.212 -2191.768,60.964 
		-2192.52,61.803 -2193.025,62.294 -2193.524,62.714 -2193.857,62.967 -2193.937,63.046 -2194.11,63.133 -2194.522,63.466 
		-2194.775,63.64 -2195.946,63.046 -2196.279,62.967 -2196.778,62.801 -2196.865,62.714 -2197.609,62.627 -2198.116,62.627 
		-2199.2,62.555 -2199.866,62.555 -2200.784,62.294 -2200.863,62.135 -2201.117,62.135 -2201.203,62.215 -2201.37,62.215 
		-2201.615,62.215 -2201.702,62.215 -2201.789,62.215 -2202.288,62.215 -2202.454,62.215 -2202.454,62.135 -2202.787,61.882 
		-2203.033,61.716 -2203.12,61.716 -2203.46,61.47 -2203.713,61.224 -2203.872,60.964 -2204.125,60.458 -2204.204,60.458 
		-2205.13,59.388 -2205.289,59.214 -2205.708,59.041 -2206.374,58.961 -2206.793,58.881 -2207.299,58.636 -2207.545,58.549 
		-2208.21,58.289 -2209.295,58.042 -2209.628,57.71 -2209.888,57.211 -2210.467,56.452 -2210.633,56.119 -2210.799,55.454 
		-2210.633,54.543 -2210.553,53.863 -2210.221,53.372 -2208.717,52.034 -2208.384,51.289 -2208.21,50.617 -2208.131,50.45 
		-2208.051,49.944 -2207.719,49.445 -2206.461,48.772 -2206.041,48.772 -2205.043,48.527 -2204.045,47.934 -2203.872,47.775 
		-2202.201,46.777 -2201.37,46.184 -2201.037,45.772 -2200.618,45.772 -2200.119,45.692 -2199.866,45.692 -2199.62,45.772 
		-2199.367,45.852 -2199.2,46.104 -2199.114,46.184 -2199.034,46.357 -2198.694,46.184 -2198.203,46.271 -2198.029,46.357 
		-2198.029,46.444 -2197.949,46.604 -2197.863,46.777 -2197.783,46.777 -2197.696,46.856 -2197.53,46.856 -2197.197,46.604 
		-2197.197,46.357 -2197.197,46.271 -2197.197,45.938 -2196.612,45.519 -2196.192,45.519 -2195.606,45.852 	"/>
	<polyline fill="#646469" points="-2081.257,98.03 -2080.845,98.116 -2080.512,98.203 -2080.172,98.03 -2080.006,97.871 
		-2079.753,97.119 -2079.753,96.945 -2079.84,96.786 -2079.84,96.699 -2079.334,96.367 -2079.08,96.453 -2078.835,96.699 
		-2078.249,97.704 -2078.249,98.203 -2077.996,98.536 -2076.665,98.869 -2076,99.114 -2075.747,99.035 -2075.668,98.782 
		-2075.668,98.702 -2074.33,99.035 -2073.079,98.869 -2072.16,98.536 -2069.825,98.283 -2069.073,98.37 -2068.487,98.449 
		-2068.234,98.623 -2068.154,99.114 -2067.396,99.035 -2067.062,99.114 -2067.149,99.621 -2067.655,100.618 -2068.74,101.79 
		-2069.984,102.788 -2070.736,103.127 -2070.823,103.467 -2072.746,104.125 -2074.25,104.378 -2074.749,104.798 -2075.414,104.711 
		-2075.581,104.465 -2075.747,104.465 -2078.249,103.959 -2078.336,103.872 -2079.587,103.54 -2079.919,103.374 -2080.418,103.207 
		-2080.671,103.127 -2080.845,103.127 -2081.091,103.048 -2081.178,103.048 -2081.756,102.875 -2081.93,102.788 -2082.009,102.788 
		-2082.262,102.455 -2084.258,102.036 -2084.931,102.036 -2085.01,102.036 -2085.343,102.036 -2085.516,102.123 -2086.348,102.209 
		-2087.266,102.542 -2092.443,102.875 -2094.439,102.542 -2095.191,102.123 -2094.525,100.792 -2094.525,100.618 -2094.28,100.126 
		-2093.86,99.534 -2093.441,99.201 -2093.361,99.288 -2092.689,98.623 -2092.443,98.283 -2092.277,97.871 -2092.277,97.032 
		-2092.609,96.612 -2092.775,96.54 -2092.862,96.367 -2092.775,96.113 -2092.609,96.034 -2091.857,96.367 -2091.192,96.367 
		-2090.44,96.28 -2090.028,96.453 -2089.521,97.032 -2089.276,97.119 -2087.932,97.364 -2087.512,97.364 -2087.353,97.278 
		-2087.353,97.198 -2086.514,97.278 -2086.095,97.451 -2085.849,97.451 -2085.097,97.451 -2084.099,97.784 -2083.506,97.871 
		-2083.173,97.871 -2083.094,97.871 -2083.014,97.871 -2082.761,97.784 -2082.421,97.784 -2081.257,98.03 	"/>
	<polyline fill="#646469" points="-2080.925,110.799 -2080.006,110.72 -2079.08,110.973 -2077.504,111.06 -2076.665,111.146 
		-2075.668,111.479 -2072.833,114.053 -2072.24,114.726 -2071.488,115.984 -2071.401,116.23 -2071.488,116.815 -2071.828,117.488 
		-2072.833,118.985 -2073.166,119.231 -2073.411,119.231 -2074.25,119.484 -2075.248,119.997 -2076.166,120.33 -2077.996,120.33 
		-2078.922,120.576 -2079.674,119.484 -2080.172,117.987 -2079.919,116.562 -2080.006,115.984 -2080.758,114.82 -2080.925,114.56 
		-2083.014,113.475 -2083.26,113.063 -2083.347,112.81 -2083.347,112.137 -2083.26,111.646 -2082.176,110.973 -2081.677,110.799 
		-2080.925,110.799 	"/>
	<polyline fill="#646469" points="-2231.335,67.233 -2231.581,66.98 -2232.087,66.228 -2232.174,66.141 -2232.253,65.975 
		-2232.087,64.305 -2232,64.138 -2231.668,63.3 -2231.509,62.801 -2231.509,62.714 -2231.335,62.468 -2231.248,62.294 
		-2230.583,61.803 -2230.163,61.383 -2230.004,61.138 -2229.672,60.798 -2229.498,60.718 -2229.411,60.631 -2228.413,60.125 
		-2226.909,59.388 -2226.49,59.041 -2226.41,58.881 -2226.244,58.715 -2226.07,58.202 -2225.991,57.963 -2225.738,57.045 
		-2225.405,56.886 -2225.159,56.886 -2224.986,56.799 -2224.653,56.712 -2223.988,56.712 -2223.901,56.712 -2223.236,57.045 
		-2222.99,57.71 -2222.99,57.884 -2223.156,57.963 -2223.41,58.042 -2223.489,57.963 -2223.568,58.042 -2224.241,59.135 
		-2224.574,60.458 -2224.321,61.304 -2224.241,62.049 -2225.239,62.627 -2225.326,62.627 -2225.405,62.627 -2226.41,62.967 
		-2227.488,63.133 -2228.168,63.553 -2228.746,64.464 -2229.498,65.649 -2230.25,67.312 -2230.004,67.472 -2230.25,67.812 
		-2230.583,67.646 -2230.67,67.646 -2230.836,67.559 -2231.169,67.312 -2231.248,67.233 -2231.335,67.233 	"/>
	<polyline fill="#646469" points="-2059.977,126.91 -2059.637,127.17 -2059.384,127.416 -2059.051,127.922 -2058.892,128.096 
		-2058.892,128.421 -2059.138,128.674 -2059.471,130.005 -2059.304,130.179 -2058.718,130.424 -2058.639,130.757 -2058.718,130.844 
		-2058.892,131.003 -2059.138,131.09 -2059.637,131.003 -2060.888,131.596 -2061.727,130.931 -2062.97,131.422 -2063.477,131.762 
		-2063.729,131.596 -2064.142,131.762 -2064.314,131.762 -2064.734,131.929 -2065.067,131.929 -2065.399,131.842 -2066.397,130.844 
		-2066.311,130.591 -2066.064,130.092 -2065.732,129.759 -2065.312,129.34 -2064.647,129.094 -2063.982,128.92 -2063.562,128.674 
		-2063.144,128.342 -2062.226,127.835 -2062.059,127.503 -2061.813,127.33 -2060.468,126.838 -2059.977,126.91 	"/>
	<g>
		<polyline fill="#646469" points="-2014.979,209.241 -2015.152,209.487 -2016.07,210.312 -2016.735,210.738 -2016.901,210.738 
			-2017.234,210.658 -2017.4,210.572 -2017.487,210.405 -2017.574,210.312 -2017.654,209.979 -2017.733,209.574 -2018.485,208.901 
			-2019.237,208.229 -2019.324,208.143 -2021.161,207.563 -2023.164,205.973 -2024.747,205.641 -2025.499,205.561 -2026.75,204.889 
			-2026.917,204.729 -2027.004,203.97 -2027.835,202.727 -2028.088,202.727 -2028.088,202.64 -2028.753,200.724 -2028.587,198.966 
			-2027.922,195.879 -2028.001,195.206 -2027.922,193.796 -2027.582,193.037 -2027.423,191.786 -2027.249,189.869 
			-2027.336,189.356 -2027.835,187.859 -2028.508,186.688 -2028.334,186.117 -2028.334,186.03 -2028.92,185.278 -2029.086,184.852 
			-2029.086,183.348 -2028.999,182.849 -2029.086,182.689 -2029.339,182.516 -2029.592,182.516 -2029.672,182.603 
			-2029.672,182.689 -2029.751,182.689 -2030.344,182.429 -2030.424,182.35 -2030.511,181.265 -2030.677,180.347 -2030.677,180.188 
			-2030.843,179.436 -2030.923,179.183 -2031.089,179.103 -2031.263,179.009 -2031.342,177.512 -2031.595,176.673 
			-2031.675,176.428 -2031.762,176.261 -2032.26,175.343 -2032.514,174.837 -2032.68,174.663 -2032.933,174.584 -2034.097,174.338 
			-2034.35,174.171 -2034.43,173.839 -2034.35,173.419 -2034.177,173.253 -2034.097,173.253 -2034.177,172.913 -2034.509,172.335 
			-2035.016,171.923 -2035.261,171.67 -2035.261,170.917 -2035.854,170.332 -2035.514,169.746 -2035.261,168.994 -2035.182,167.822 
			-2033.844,166.738 -2033.179,165.993 -2033.092,165.906 -2033.092,165.819 -2033.013,165.732 -2032.094,164.568 
			-2031.762,164.323 -2031.176,164.062 -2030.511,163.983 -2030.258,164.149 -2030.084,164.149 -2029.339,163.816 
			-2029.419,163.317 -2029.339,163.064 -2028.92,162.399 -2028.666,161.98 -2028.666,161.894 -2028.587,161.813 -2028.254,161.148 
			-2027.922,160.649 -2027.922,160.396 -2027.835,160.144 -2026.671,159.066 -2026.584,158.986 -2026.165,158.307 
			-2025.412,157.888 -2025.333,157.974 -2025.167,157.974 -2024.993,157.555 -2024.993,157.468 -2024.921,156.977 
			-2024.747,155.473 -2024.921,154.974 -2025.254,154.475 -2025.499,154.142 -2025.586,154.055 -2025.745,153.881 
			-2025.919,153.636 -2026.006,153.549 -2026.75,152.804 -2027.582,151.466 -2028.254,149.456 -2028.666,146.535 -2028.421,145.038 
			-2028.001,144.033 -2027.582,143.613 -2027.17,143.354 -2026.251,143.194 -2024.328,143.693 -2024.248,143.693 -2023.75,143.946 
			-2022.91,144.365 -2022.665,144.445 -2022.404,144.445 -2022.072,144.626 -2021.161,145.038 -2020.654,145.537 -2020.654,146.043 
			-2020.496,146.376 -2019.071,147.12 -2016.735,148.292 -2015.65,149.29 -2015.318,149.29 -2014.566,149.709 -2014.233,150.295 
			-2014.067,150.382 -2013.728,150.454 -2013.641,150.454 -2013.308,150.382 -2012.643,150.034 -2012.224,149.962 
			-2011.891,150.034 -2010.561,150.555 -2010.228,150.801 -2009.975,150.801 -2009.562,150.801 -2007.972,151.3 -2006.8,151.712 
			-2006.555,151.799 -2004.964,152.551 -2004.797,152.638 -2004.718,152.71 -2004.125,153.057 -2002.968,153.636 -2002.707,153.795 
			-2001.377,154.475 -2000.871,154.72 -1999.707,155.14 -1999.295,155.219 -1999.121,155.219 -1998.543,155.631 -1998.369,155.718 
			-1998.289,155.805 -1998.21,155.885 -1998.123,155.964 -1997.617,156.383 -1997.53,156.47 -1997.371,156.557 -1997.118,156.803 
			-1996.445,157.222 -1995.954,157.468 -1995.361,157.808 -1994.949,158.228 -1994.869,158.394 -1994.196,158.806 -1992.7,160.144 
			-1992.526,160.23 -1991.861,160.896 -1991.774,160.982 -1991.528,161.401 -1991.362,161.894 -1991.029,162.226 -1990.689,162.573 
			-1990.277,162.818 -1990.104,162.818 -1989.691,163.404 -1989.605,163.729 -1989.605,164.236 -1989.771,164.901 
			-1989.865,165.075 -1990.024,165.494 -1989.945,165.819 -1989.945,166.239 -1989.865,167.157 -1989.865,167.403 
			-1989.945,167.577 -1989.945,167.663 -1989.945,168.242 -1989.945,168.329 -1989.945,169.334 -1989.865,169.413 -1989.771,169.58 
			-1989.605,169.833 -1989.525,169.833 -1989.272,169.912 -1989.026,169.833 -1988.521,169.746 -1988.021,169.413 -1987.688,169.16 
			-1985.772,169.16 -1985.354,169.659 -1985.267,169.833 -1985.18,170.165 -1984.848,170.657 -1984.602,171.583 -1984.688,172.494 
			-1984.688,173.752 -1984.688,174.005 -1984.182,174.417 -1983.683,174.75 -1983.011,174.75 -1982.931,174.837 -1982.931,175.01 
			-1983.098,175.43 -1982.852,175.849 -1982.259,176.182 -1982.013,176.341 -1982.013,176.428 -1981.767,176.76 -1981.514,176.927 
			-1981.348,177.006 -1980.754,177.512 -1980.176,177.845 -1979.424,178.178 -1978.339,178.51 -1977.587,179.103 -1977.088,179.103 
			-1976.503,179.436 -1976.257,179.854 -1976.257,180.014 -1976.922,181.938 -1977.088,182.184 -1977.587,182.762 
			-1979.005,184.106 -1979.258,184.28 -1979.923,184.686 -1981.847,186.196 -1982.519,186.941 -1983.517,187.78 -1984.269,188.619 
			-1984.428,188.691 -1986.019,189.529 -1986.105,189.529 -1988.021,190.368 -1990.53,191.699 -1990.863,191.952 -1991.441,192.451 
			-1992.7,192.87 -1993.278,192.783 -1993.943,192.957 -1994.363,193.203 -1994.869,193.203 -1996.698,192.783 -1997.617,192.625 
			-1999.208,193.037 -1999.54,193.29 -1999.96,193.796 -2001.29,194.707 -2001.623,195.546 -2002.129,195.965 -2003.04,196.298 
			-2003.546,196.385 -2004.125,196.631 -2004.797,197.035 -2005.296,197.462 -2005.549,197.874 -2006.555,198.887 
			-2007.133,199.133 -2008.97,199.632 -2009.389,199.877 -2009.302,200.051 -2009.302,200.304 -2009.642,200.637 -2009.975,200.724 
			-2010.054,200.803 -2010.807,201.975 -2011.139,202.054 -2011.392,202.387 -2011.312,203.052 -2011.312,203.804 
			-2011.392,204.223 -2011.812,204.889 -2012.311,205.148 -2012.556,205.395 -2013.229,206.652 -2013.229,207.491 
			-2013.481,207.976 -2013.974,208.07 -2014.566,208.489 -2014.566,208.568 -2014.653,208.655 -2014.732,208.901 -2014.979,209.241 
					"/>
		<polyline fill="none" stroke="#FFFFFF" stroke-width="0.1382" stroke-miterlimit="10" points="-2014.979,209.241 
			-2015.152,209.487 -2016.07,210.312 -2016.735,210.738 -2016.901,210.738 -2017.234,210.658 -2017.4,210.572 -2017.487,210.405 
			-2017.574,210.312 -2017.654,209.979 -2017.733,209.574 -2018.485,208.901 -2019.237,208.229 -2019.324,208.143 
			-2021.161,207.563 -2023.164,205.973 -2024.747,205.641 -2025.499,205.561 -2026.75,204.889 -2026.917,204.729 -2027.004,203.97 
			-2027.835,202.727 -2028.088,202.727 -2028.088,202.64 -2028.753,200.724 -2028.587,198.966 -2027.922,195.879 -2028.001,195.206 
			-2027.922,193.796 -2027.582,193.037 -2027.423,191.786 -2027.249,189.869 -2027.336,189.356 -2027.835,187.859 
			-2028.508,186.688 -2028.334,186.117 -2028.334,186.03 -2028.92,185.278 -2029.086,184.852 -2029.086,183.348 -2028.999,182.849 
			-2029.086,182.689 -2029.339,182.516 -2029.592,182.516 -2029.672,182.603 -2029.672,182.689 -2029.751,182.689 
			-2030.344,182.429 -2030.424,182.35 -2030.511,181.265 -2030.677,180.347 -2030.677,180.188 -2030.843,179.436 -2030.923,179.183 
			-2031.089,179.103 -2031.263,179.009 -2031.342,177.512 -2031.595,176.673 -2031.675,176.428 -2031.762,176.261 -2032.26,175.343 
			-2032.514,174.837 -2032.68,174.663 -2032.933,174.584 -2034.097,174.338 -2034.35,174.171 -2034.43,173.839 -2034.35,173.419 
			-2034.177,173.253 -2034.097,173.253 -2034.177,172.913 -2034.509,172.335 -2035.016,171.923 -2035.261,171.67 -2035.261,170.917 
			-2035.854,170.332 -2035.514,169.746 -2035.261,168.994 -2035.182,167.822 -2033.844,166.738 -2033.179,165.993 
			-2033.092,165.906 -2033.092,165.819 -2033.013,165.732 -2032.094,164.568 -2031.762,164.323 -2031.176,164.062 
			-2030.511,163.983 -2030.258,164.149 -2030.084,164.149 -2029.339,163.816 -2029.419,163.317 -2029.339,163.064 -2028.92,162.399 
			-2028.666,161.98 -2028.666,161.894 -2028.587,161.813 -2028.254,161.148 -2027.922,160.649 -2027.922,160.396 -2027.835,160.144 
			-2026.671,159.066 -2026.584,158.986 -2026.165,158.307 -2025.412,157.888 -2025.333,157.974 -2025.167,157.974 
			-2024.993,157.555 -2024.993,157.468 -2024.921,156.977 -2024.747,155.473 -2024.921,154.974 -2025.254,154.475 
			-2025.499,154.142 -2025.586,154.055 -2025.745,153.881 -2025.919,153.636 -2026.006,153.549 -2026.75,152.804 -2027.582,151.466 
			-2028.254,149.456 -2028.666,146.535 -2028.421,145.038 -2028.001,144.033 -2027.582,143.613 -2027.17,143.354 -2026.251,143.194 
			-2024.328,143.693 -2024.248,143.693 -2023.75,143.946 -2022.91,144.365 -2022.665,144.445 -2022.404,144.445 -2022.072,144.626 
			-2021.161,145.038 -2020.654,145.537 -2020.654,146.043 -2020.496,146.376 -2019.071,147.12 -2016.735,148.292 -2015.65,149.29 
			-2015.318,149.29 -2014.566,149.709 -2014.233,150.295 -2014.067,150.382 -2013.728,150.454 -2013.641,150.454 -2013.308,150.382 
			-2012.643,150.034 -2012.224,149.962 -2011.891,150.034 -2010.561,150.555 -2010.228,150.801 -2009.975,150.801 
			-2009.562,150.801 -2007.972,151.3 -2006.8,151.712 -2006.555,151.799 -2004.964,152.551 -2004.797,152.638 -2004.718,152.71 
			-2004.125,153.057 -2002.968,153.636 -2002.707,153.795 -2001.377,154.475 -2000.871,154.72 -1999.707,155.14 -1999.295,155.219 
			-1999.121,155.219 -1998.543,155.631 -1998.369,155.718 -1998.289,155.805 -1998.21,155.885 -1998.123,155.964 -1997.617,156.383 
			-1997.53,156.47 -1997.371,156.557 -1997.118,156.803 -1996.445,157.222 -1995.954,157.468 -1995.361,157.808 -1994.949,158.228 
			-1994.869,158.394 -1994.196,158.806 -1992.7,160.144 -1992.526,160.23 -1991.861,160.896 -1991.774,160.982 -1991.528,161.401 
			-1991.362,161.894 -1991.029,162.226 -1990.689,162.573 -1990.277,162.818 -1990.104,162.818 -1989.691,163.404 
			-1989.605,163.729 -1989.605,164.236 -1989.771,164.901 -1989.865,165.075 -1990.024,165.494 -1989.945,165.819 
			-1989.945,166.239 -1989.865,167.157 -1989.865,167.403 -1989.945,167.577 -1989.945,167.663 -1989.945,168.242 
			-1989.945,168.329 -1989.945,169.334 -1989.865,169.413 -1989.771,169.58 -1989.605,169.833 -1989.525,169.833 -1989.272,169.912 
			-1989.026,169.833 -1988.521,169.746 -1988.021,169.413 -1987.688,169.16 -1985.772,169.16 -1985.354,169.659 -1985.267,169.833 
			-1985.18,170.165 -1984.848,170.657 -1984.602,171.583 -1984.688,172.494 -1984.688,173.752 -1984.688,174.005 -1984.182,174.417 
			-1983.683,174.75 -1983.011,174.75 -1982.931,174.837 -1982.931,175.01 -1983.098,175.43 -1982.852,175.849 -1982.259,176.182 
			-1982.013,176.341 -1982.013,176.428 -1981.767,176.76 -1981.514,176.927 -1981.348,177.006 -1980.754,177.512 -1980.176,177.845 
			-1979.424,178.178 -1978.339,178.51 -1977.587,179.103 -1977.088,179.103 -1976.503,179.436 -1976.257,179.854 -1976.257,180.014 
			-1976.922,181.938 -1977.088,182.184 -1977.587,182.762 -1979.005,184.106 -1979.258,184.28 -1979.923,184.686 -1981.847,186.196 
			-1982.519,186.941 -1983.517,187.78 -1984.269,188.619 -1984.428,188.691 -1986.019,189.529 -1986.105,189.529 -1988.021,190.368 
			-1990.53,191.699 -1990.863,191.952 -1991.441,192.451 -1992.7,192.87 -1993.278,192.783 -1993.943,192.957 -1994.363,193.203 
			-1994.869,193.203 -1996.698,192.783 -1997.617,192.625 -1999.208,193.037 -1999.54,193.29 -1999.96,193.796 -2001.29,194.707 
			-2001.623,195.546 -2002.129,195.965 -2003.04,196.298 -2003.546,196.385 -2004.125,196.631 -2004.797,197.035 -2005.296,197.462 
			-2005.549,197.874 -2006.555,198.887 -2007.133,199.133 -2008.97,199.632 -2009.389,199.877 -2009.302,200.051 -2009.302,200.304 
			-2009.642,200.637 -2009.975,200.724 -2010.054,200.803 -2010.807,201.975 -2011.139,202.054 -2011.392,202.387 
			-2011.312,203.052 -2011.312,203.804 -2011.392,204.223 -2011.812,204.889 -2012.311,205.148 -2012.556,205.395 
			-2013.229,206.652 -2013.229,207.491 -2013.481,207.976 -2013.974,208.07 -2014.566,208.489 -2014.566,208.568 -2014.653,208.655 
			-2014.732,208.901 -2014.979,209.241 		"/>
	</g>
</g>
<g>
	<polygon fill="#646469" points="-1762.631,154.9 -1762.631,215.975 -1923.354,215.975 -1923.354,55.274 -1788.621,55.274 
		-1764.962,25.464 -1953.155,25.464 -1953.155,245.785 -1732.821,245.785 -1732.821,117.348 	"/>
	<g>
		<path fill="#646469" d="M-1823.11,188.005l-65.202-85.536c-4.811-6.309-3.593-15.334,2.725-20.154
			c6.318-4.802,15.335-3.575,20.137,2.734l42.805,56.146l99.85-125.773c4.942-6.239,13.985-7.255,20.207-2.331
			c6.212,4.942,7.255,13.985,2.312,20.189L-1823.11,188.005z"/>
	</g>
</g>
<g>
	<path fill="#646469" d="M-1632.814,79.954h-9.621c1.533,0.471,3.131,0.777,4.811,0.777
		C-1635.939,80.731-1634.354,80.425-1632.814,79.954z"/>
	<path fill="#646469" d="M-1637.625,46.874c-9.346,0-16.934,7.581-16.934,16.935c0,9.35,7.588,16.922,16.934,16.922
		c9.355,0,16.914-7.572,16.914-16.922C-1620.711,54.455-1628.27,46.874-1637.625,46.874z"/>
	<path fill="#646469" d="M-1621.494,85.131h-1.399c-4.198,2.903-9.255,4.64-14.731,4.64c-5.41,0-10.434-1.712-14.598-4.557
		c-11.307,0.843-21.511,12.497-21.511,21.182v41.594c0,0.141,0.064,0.294,0.07,0.443h9.384v-40.648c0-2.498,2.021-4.524,4.516-4.524
		c2.504,0,4.524,2.026,4.524,4.524v40.648h35.234v-40.648c0-2.498,2.014-4.524,4.512-4.524c2.497,0,4.522,2.026,4.522,4.524v40.648
		h9.391c0-0.149,0.059-0.303,0.059-0.451v-41.586C-1601.521,97.389-1609.689,85.131-1621.494,85.131z"/>
	<path fill="#646469" d="M-1637.625,46.874c-9.346,0-16.934,7.581-16.934,16.935c0,9.35,7.588,16.922,16.934,16.922
		c9.355,0,16.914-7.572,16.914-16.922C-1620.711,54.455-1628.27,46.874-1637.625,46.874z"/>
	<rect x="-1655.182" y="158.775" fill="#646469" width="35.106" height="52.174"/>
	<path fill="#646469" d="M-1540.925,79.954h-9.612c1.527,0.471,3.124,0.777,4.801,0.777
		C-1544.045,80.731-1542.455,80.425-1540.925,79.954z"/>
	<path fill="#646469" d="M-1545.736,46.874c-9.342,0-16.914,7.581-16.914,16.935c0,9.35,7.572,16.922,16.914,16.922
		c9.353,0,16.929-7.572,16.929-16.922C-1528.808,54.455-1536.384,46.874-1545.736,46.874z"/>
	<path fill="#646469" d="M-1529.602,85.131h-1.39c-4.202,2.903-9.264,4.64-14.745,4.64c-5.415,0-10.42-1.712-14.586-4.557
		c-11.307,0.843-21.519,12.497-21.519,21.182v41.594c0,0.141,0.07,0.294,0.07,0.443h9.388v-40.648c0-2.498,2.023-4.524,4.525-4.524
		c2.486,0,4.508,2.026,4.508,4.524v40.648h35.236v-40.648c0-2.498,2.026-4.524,4.508-4.524c2.498,0,4.524,2.026,4.524,4.524v40.648
		h9.388c0-0.149,0.074-0.303,0.074-0.451v-41.586C-1509.619,97.389-1517.799,85.131-1529.602,85.131z"/>
	<path fill="#646469" d="M-1545.736,46.874c-9.342,0-16.914,7.581-16.914,16.935c0,9.35,7.572,16.922,16.914,16.922
		c9.353,0,16.929-7.572,16.929-16.922C-1528.808,54.455-1536.384,46.874-1545.736,46.874z"/>
	<rect x="-1563.289" y="158.775" fill="#646469" width="35.122" height="52.174"/>
	<path fill="#646469" d="M-1449.026,79.954h-9.619c1.538,0.471,3.118,0.777,4.81,0.777
		C-1452.161,80.731-1450.564,80.425-1449.026,79.954z"/>
	<path fill="#646469" d="M-1453.836,46.874c-9.354,0-16.927,7.581-16.927,16.935c0,9.35,7.572,16.922,16.927,16.922
		s16.918-7.572,16.918-16.922C-1436.918,54.455-1444.481,46.874-1453.836,46.874z"/>
	<path fill="#646469" d="M-1437.703,85.131h-1.398c-4.188,2.903-9.255,4.64-14.734,4.64c-5.422,0-10.434-1.712-14.594-4.557
		c-11.314,0.843-21.513,12.497-21.513,21.182v41.594c0,0.141,0.058,0.294,0.058,0.443h9.392v-40.648
		c0-2.498,2.026-4.524,4.524-4.524c2.494,0,4.512,2.026,4.512,4.524v40.648h35.234v-40.648c0-2.498,2.026-4.524,4.524-4.524
		c2.493,0,4.52,2.026,4.52,4.524v40.648h9.392c0-0.149,0.054-0.303,0.054-0.451v-41.586
		C-1417.733,97.389-1425.909,85.131-1437.703,85.131z"/>
	<path fill="#646469" d="M-1453.836,46.874c-9.354,0-16.927,7.581-16.927,16.935c0,9.35,7.572,16.922,16.927,16.922
		s16.918-7.572,16.918-16.922C-1436.918,54.455-1444.481,46.874-1453.836,46.874z"/>
	<rect x="-1471.391" y="158.775" fill="#646469" width="35.11" height="52.174"/>
</g>
<path fill="#646469" d="M-1158.572,186.025V65.351c0-3.928-3.193-7.117-7.121-7.117h-34.791v-8.354h-133.2v8.354h-34.787
	c-3.932,0-7.125,3.189-7.125,7.117v120.675h-19.491v21.658h256.002v-21.658H-1158.572z M-1307.563,163.752h-26.823v-25.786h26.823
	V163.752z M-1307.563,124.371h-26.823V98.597h26.823V124.371z M-1253.732,163.752h-26.82v-25.786h26.82V163.752z M-1253.732,124.371
	h-26.82V98.597h26.82V124.371z M-1199.897,187.773h-26.828v-42.096h26.828V187.773z M-1199.897,124.371h-26.828V98.597h26.828
	V124.371z"/>
<g>
	<g>
		<g>
			<g>
				<rect x="-1088.261" y="116.09" fill="#646469" width="90.179" height="6.945"/>
			</g>
			<g>
				<rect x="-1088.261" y="133.448" fill="#646469" width="58.954" height="6.944"/>
			</g>
		</g>
		<polygon fill="#646469" points="-939.228,114.133 -943.333,122.935 -933.618,122.912 -859.677,75.707 -865.29,66.924 		"/>
		<g>
			<rect x="-984.372" y="84.263" fill="#646469" width="51.656" height="6.941"/>
		</g>
	</g>
	<g>
		<path fill="#646469" d="M-891.159,106.417v75.441h-179.045v-9.8h-14.273v16.937c0,3.94,3.192,7.133,7.133,7.133h193.322
			c3.944,0,7.137-3.192,7.137-7.133V98.344c0-0.334-0.054-0.648-0.096-0.975L-891.159,106.417z"/>
	</g>
	<g>
		<path fill="#646469" d="M-922.353,126.334v24.564h-179.053V74.513h179.053v18.233l14.273-9.113V67.376
			c0-3.937-3.2-7.129-7.137-7.129h-193.326c-3.937,0-7.137,3.192-7.137,7.129v90.659c0,3.94,3.2,7.136,7.137,7.136h193.326
			c3.937,0,7.137-3.195,7.137-7.136v-40.81L-922.353,126.334z"/>
	</g>
</g>
<g>
	<path fill="#646469" d="M-731.121,205.786v-53.259c0-1.733-1.409-3.14-3.142-3.14h-15.355v-3.69h-58.789v3.69h-15.355
		c-1.735,0-3.144,1.406-3.144,3.14v53.259h-8.603v9.56h112.988v-9.56H-731.121z M-796.88,195.957h-11.839v-11.38h11.839V195.957z
		 M-796.88,178.575h-11.839v-11.376h11.839V178.575z M-773.119,195.957h-11.838v-11.38h11.838V195.957z M-773.119,178.575h-11.838
		v-11.376h11.838V178.575z M-749.359,206.562H-761.2v-18.579h11.841V206.562z M-749.359,178.575H-761.2v-11.376h11.841V178.575z"/>
	<path fill="#646469" d="M-588.11,205.786V47.475c0-1.736-1.407-3.144-3.142-3.144h-15.356v-3.686h-58.788v3.686h-15.354
		c-1.737,0-3.144,1.407-3.144,3.144v158.312h-8.604v9.56h112.988v-9.56H-588.11z M-653.869,195.957h-11.839v-11.38h11.839V195.957z
		 M-653.869,178.575h-11.839v-11.376h11.839V178.575z M-653.869,161.081h-11.839v-11.376h11.839V161.081z M-653.869,143.583h-11.839
		v-11.372h11.839V143.583z M-653.869,126.091h-11.839v-11.38h11.839V126.091z M-653.869,108.593h-11.839V97.221h11.839V108.593z
		 M-653.869,91.094h-11.839V79.722h11.839V91.094z M-653.869,73.6h-11.839V62.224h11.839V73.6z M-630.108,195.957h-11.838v-11.38
		h11.838V195.957z M-630.108,178.575h-11.838v-11.376h11.838V178.575z M-630.108,161.081h-11.838v-11.376h11.838V161.081z
		 M-630.108,143.583h-11.838v-11.372h11.838V143.583z M-630.108,126.091h-11.838v-11.38h11.838V126.091z M-630.108,108.593h-11.838
		V97.221h11.838V108.593z M-630.108,91.094h-11.838V79.722h11.838V91.094z M-630.108,73.6h-11.838V62.224h11.838V73.6z
		 M-606.349,206.562h-11.837v-18.579h11.837V206.562z M-606.349,178.575h-11.837v-11.376h11.837V178.575z M-606.349,161.081h-11.837
		v-11.376h11.837V161.081z M-606.349,143.583h-11.837v-11.372h11.837V143.583z M-606.349,126.091h-11.837v-11.38h11.837V126.091z
		 M-606.349,108.593h-11.837V97.221h11.837V108.593z M-606.349,91.094h-11.837V79.722h11.837V91.094z M-606.349,73.6h-11.837V62.224
		h11.837V73.6z"/>
</g>
<g>
	<path fill="#646469" d="M-419.662,128.337l15.688-2.811c2.261-9.751,2.61-19.512,1.269-28.908l-15.413-4.148l-8.546-19.889
		l7.591-14.026c-5.985-7.555-13.369-14.054-21.899-19.048l-12.842,9.465l-20.88-5.703l-6.261-14.672
		c-9.86-0.023-19.493,1.806-28.453,5.257l-0.607,15.937l-17.472,12.767l-15.382-4.271c-5.935,7.409-10.61,15.996-13.628,25.533
		l12.073,10.406l-0.91,21.626l-12.935,9.36c2.169,9.524,6.083,18.525,11.471,26.576l15.661-2.952l16.325,14.194l-0.739,15.937
		c4.314,2.093,8.867,3.821,13.651,5.131c4.753,1.296,9.521,2.105,14.263,2.501l7.469-14.085l21.289-3.925l11.982,10.515
		c8.734-4.193,16.676-9.951,23.389-17.042l-6.369-14.636L-419.662,128.337z M-489.696,139.372c-17.472-4.767-27.76-22.796-23-40.261
		c4.767-17.465,22.79-27.762,40.255-23c17.465,4.771,27.767,22.791,23,40.255C-454.208,133.833-472.231,144.13-489.696,139.372z"/>
	<path fill="#646469" d="M-314.433,184.785l11.141-2.442c1.351-7.031,1.337-14.021,0.123-20.707l-11.129-2.548l-6.649-13.985
		l5.044-10.242c-4.48-5.236-9.934-9.675-16.167-13.013l-8.923,7.118l-15.075-3.488l-4.875-10.32
		c-7.048,0.251-13.884,1.829-20.191,4.525v11.44l-12.15,9.597l-11.104-2.629c-4.046,5.472-7.152,11.729-9.053,18.629l8.914,7.118
		l-0.068,15.481l-8.982,7.063c1.806,6.74,4.846,13.085,8.909,18.684l11.121-2.547l12.052,9.705l-0.095,11.412
		c3.138,1.373,6.438,2.496,9.896,3.297c3.429,0.791,6.863,1.237,10.263,1.392l4.955-10.283l15.108-3.393l8.847,7.186
		c6.131-3.229,11.657-7.559,16.26-12.821l-4.948-10.297L-314.433,184.785z M-364.191,194.609
		c-12.607-2.925-20.457-15.536-17.523-28.153c2.929-12.621,15.536-20.493,28.144-17.564c12.619,2.925,20.462,15.541,17.53,28.152
		C-338.972,189.67-351.574,197.533-364.191,194.609z"/>
</g>
<g>
	<path fill="#646469" d="M-75.559,91.671c-2.343,3.239-1.629,7.758,1.609,10.101l11.18,8.105c3.239,2.342,7.759,1.629,10.109-1.61
		L-36,85.358c2.352-3.238,1.629-7.758-1.592-10.1l-11.18-8.101c-3.238-2.365-7.758-1.633-10.118,1.587L-75.559,91.671z"/>
	<path fill="#646469" d="M-76.071,95.386c-1.043-6.569-7.722-10.101-13.586-14.364s-4.354-4.007-10.457-3.074
		c0,0-7.31,0.64-12.186,7.337c-4.867,6.715-9.277,12.772-9.277,12.772l-30.739-22.3c0,0,3.65-5,13.394-18.412
		c9.753-13.394,10.823-17.968-7.163-31.014c-17.986-13.042-43.091-11.234-43.091-11.234l-2.205-9.058
		c42.413-7.301,56.018-8.179,71.306,2.928c15.296,11.088,27.592,19.999,38.277,27.757c10.687,7.758,6.588,7.502,9.561,18.243
		c1.638,5.965,0.303,4.721,6.176,9.002c5.873,4.245,3.988,4.172,10.549,3.147L-76.071,95.386z"/>
	<path fill="#646469" d="M-128.658,107.81l-95.513,138.974l-1.189,1.629l-4.025,5.544c-2.342,3.238-7.502,3.513-11.5,0.622
		l-23.246-16.889c-4.008-2.891-5.343-7.868-3.001-11.106l4.043-5.562l1.189-1.592l102.74-133.741L-128.658,107.81z"/>
</g>
<g>
	<path fill="#646469" d="M216.65,19.957h-34.248v-4.169c0-1.406-1.152-2.576-2.56-2.576h-31.181V5.654c0-2.83-2.305-5.13-5.118-5.13
		h-30.436c-2.813,0-5.118,2.3-5.118,5.13v7.558H76.801c-1.415,0-2.567,1.169-2.567,2.576v4.169H40.002
		c-1.406,0-2.559,1.136-2.559,2.542v231.483c0,1.406,1.152,2.541,2.559,2.541H216.65c1.406,0,2.559-1.135,2.559-2.541V22.499
		C219.209,21.093,218.057,19.957,216.65,19.957z M128.317,6.451c2.805,0,5.075,2.271,5.075,5.067c0,2.813-2.271,5.084-5.075,5.084
		c-2.796,0-5.066-2.271-5.066-5.084C123.251,8.722,125.521,6.451,128.317,6.451z M199.992,237.069c0,1.407-1.152,2.56-2.559,2.56
		H59.211c-1.407,0-2.551-1.152-2.551-2.56V39.412c0-1.407,1.144-2.576,2.551-2.576h15.022v4.287c0,1.407,1.152,2.559,2.567,2.559
		h103.042c1.407,0,2.56-1.152,2.56-2.559v-4.287h15.031c1.406,0,2.559,1.169,2.559,2.576V237.069z"/>
	<rect x="74.233" y="65.797" fill="#646469" width="97.611" height="6.084"/>
	<rect x="74.233" y="81.489" fill="#646469" width="97.611" height="6.084"/>
	<rect x="74.233" y="97.182" fill="#646469" width="74.563" height="6.067"/>
	<rect x="74.233" y="128.549" fill="#646469" width="97.611" height="6.071"/>
	<rect x="74.233" y="144.212" fill="#646469" width="97.611" height="6.084"/>
	<rect x="74.233" y="159.888" fill="#646469" width="74.563" height="6.101"/>
	<polygon fill="#646469" points="106.16,218.708 95.314,218.708 100.779,209.252 176.979,165.869 182.352,175.343 	"/>
</g>
</svg>
