<?xml version="1.0" encoding="utf-8"?>
<!-- Generator: Adobe Illustrator 16.0.4, SVG Export Plug-In . SVG Version: 6.00 Build 0)  -->
<!DOCTYPE svg PUBLIC "-//W3C//DTD SVG 1.1//EN" "http://www.w3.org/Graphics/SVG/1.1/DTD/svg11.dtd">
<svg version="1.1" id="Layer_1" xmlns="http://www.w3.org/2000/svg" xmlns:xlink="http://www.w3.org/1999/xlink" x="0px" y="0px"
	 width="256px" height="256px" viewBox="0 0 256 256" enable-background="new 0 0 256 256" xml:space="preserve">
<path fill="#646469" d="M-2383.32,255.645L-2383.32,255.645c-60.501,0-109.74-49.245-109.74-109.743
	c0-60.5,49.239-109.644,109.74-109.644V-0.355l73.22,54.868l-73.22,54.872V72.772c-40.364,0-73.129,32.762-73.129,73.127
	c0,40.267,32.765,73.228,73.129,73.228c40.272-0.006,73.22-32.961,73.22-73.228c0-4.727-0.479-9.253-1.25-13.7
	c-1.973-9.917,4.528-19.44,14.511-21.315c9.796-1.981,19.502,4.628,21.286,14.512c1.251,6.694,1.973,13.521,1.973,20.504
	C-2273.58,206.399-2322.821,255.641-2383.32,255.645z"/>
<g>
	<g id="Your_Icon_2_">
		<g>
			<path fill="#646469" d="M-1992.876,179.908v-12.122c0-59.276-46.283-107.716-104.681-111.214v-6.395
				c0-3.726-3.026-6.752-6.761-6.752s-6.761,3.026-6.761,6.752v6.395c-58.397,3.499-104.689,51.938-104.689,111.214v12.122
				H-1992.876z"/>
			<polygon fill="#646469" points="-1983.585,190.403 -2225.051,190.403 -2232.315,211.409 -1976.319,211.409 			"/>
		</g>
	</g>
	<path fill="#646469" d="M-2123.347,62.446c0-10.511,8.526-19.021,19.021-19.021c10.512,0,19.038,8.51,19.038,19.021
		s-8.526,19.038-19.038,19.038C-2114.82,81.483-2123.347,72.957-2123.347,62.446z"/>
	<path fill="none" stroke="#DCDCDD" stroke-width="2" stroke-linecap="round" stroke-miterlimit="10" d="M-2115.179,86.405
		c-30.793,1.847-56.478,22.625-65.59,50.84"/>
</g>
<g>
	<rect x="-1914.949" y="98.643" fill="#646469" width="64.535" height="139.38"/>
	<rect x="-1952.375" y="136.068" fill="#646469" width="139.387" height="64.527"/>
	<rect x="-1798.321" y="19.398" fill="#646469" width="64.52" height="139.38"/>
	<rect x="-1835.748" y="56.825" fill="#646469" width="139.373" height="64.527"/>
</g>
<g>
	<path fill="#646469" d="M-1468.871,105.769l17.093-13.833l-17.093-13.839c-2.172-1.756-2.86-4.774-1.665-7.296l9.402-19.88
		l-21.413-5.034c-2.716-0.646-4.646-3.066-4.665-5.854l-0.151-21.993l-21.474,4.744c-2.722,0.604-5.516-0.736-6.747-3.247
		l-9.681-19.748l-17.285,13.591c-2.197,1.727-5.287,1.727-7.483,0l-17.292-13.591l-9.681,19.748
		c-1.23,2.511-4.025,3.851-6.741,3.247l-21.474-4.744l-0.156,21.993c-0.019,2.788-1.943,5.208-4.666,5.854l-21.407,5.034
		l9.403,19.88c1.195,2.522,0.507,5.546-1.66,7.296l-17.104,13.839l17.104,13.833c2.167,1.75,2.855,4.768,1.66,7.297l-9.403,19.874
		l21.407,5.046c2.723,0.64,4.647,3.06,4.666,5.848l0.156,21.999l21.474-4.75c0.435-0.09,0.875-0.139,1.304-0.139
		c2.275,0,4.406,1.279,5.438,3.393l9.681,19.747l17.292-13.592c2.196-1.726,5.286-1.726,7.483,0l17.285,13.592l9.681-19.747
		c1.231-2.512,4.02-3.852,6.747-3.254l21.474,4.75l0.151-21.999c0.019-2.788,1.949-5.208,4.665-5.848l21.413-5.046l-9.402-19.88
		C-1471.731,110.537-1471.043,107.519-1468.871,105.769z M-1546.292,139.409c-24.841,0-45.06-20.206-45.06-45.059
		c0-24.841,20.219-45.048,45.06-45.048c24.842,0,45.06,20.207,45.06,45.048C-1501.232,119.203-1521.45,139.409-1546.292,139.409z"/>
	<g>
		<path fill="#646469" d="M-1482.667,179.267l-24.136-5.329l-10.882,22.192c-0.803,1.642-2.306,2.83-4.092,3.24
			c-0.446,0.103-0.894,0.151-1.34,0.151c-1.352,0-2.667-0.447-3.748-1.304l-15.589-12.252l26.398,69.823l20.979-31.74l36.725,9.91
			l-20.804-55.006C-1480.266,179.388-1481.484,179.532-1482.667,179.267z"/>
	</g>
	<path fill="#646469" d="M-1565.726,198.218c-1.437,1.135-3.313,1.557-5.088,1.152c-1.78-0.41-3.289-1.599-4.086-3.24
		l-10.888-22.192l-24.129,5.329c-0.96,0.205-1.932,0.169-2.86-0.078l-20.714,54.771l36.719-9.91l20.979,31.74l26.712-70.644
		L-1565.726,198.218z"/>
</g>
<g>
	<path fill="#646469" d="M-1240.67,69.031l-36.743-36.71l-1.683-1.326c-3.631-2.818-7.576-5.305-11.704-7.344
		c-10.013-4.998-20.788-7.535-32.077-7.535c-19.146,0-37.175,7.452-50.76,20.954c-13.577,13.502-21.086,31.29-21.104,50.122
		c-0.016,17.1,6.167,33.817,17.581,47.817c0.39-1.31,0.87-2.595,1.45-3.847c1.243-2.66,2.918-5.047,4.99-7.086l56.811-56.811
		l-15.658-15.674l-2.71-2.702l2.71-2.694l4.8-4.824l2.719-2.686l2.686,2.686l53.146,53.197c2.794,2.768,6.631,4.285,10.775,4.285
		c4.849,0,9.715-2.072,13.328-5.694C-1235.083,86.122-1234.437,75.305-1240.67,69.031z"/>
	<path fill="#646469" d="M-1303.73,77.444l-56.827,56.81c-2.039,2.039-3.149,4.824-3.149,7.816c0,3.241,1.293,6.324,3.639,8.695
		c2.371,2.354,5.463,3.663,8.695,3.663c2.967,0,5.752-1.136,7.824-3.199l56.811-56.811L-1303.73,77.444z"/>
	<path fill="#646469" d="M-1162.226,141.531c15.168-15.185,23.498-34.497,23.481-54.34c-0.008-18.815-7.51-36.62-21.103-50.114
		c-13.602-13.502-31.638-20.954-50.769-20.954c-16.926,0-33.104,5.877-45.985,16.61l26.093,26.126
		c11.869,11.845,11.239,31.829-1.376,44.51c-6.398,6.333-14.986,9.947-23.557,9.947c-7.56,0-14.638-2.711-20.059-7.659
		l-56.827,56.827c-2.105,2.122-3.24,4.974-3.158,7.99c0.066,3.208,1.368,6.225,3.639,8.513c2.354,2.362,5.438,3.672,8.712,3.672
		c2.976,0,5.761-1.136,7.8-3.183l62.555-62.514l2.693-2.702l2.686,2.702l6.664,6.64l2.686,2.702l-2.686,2.693l-62.521,62.563
		c-2.047,2.039-3.174,4.807-3.174,7.808c0,3.232,1.309,6.324,3.68,8.694c2.346,2.363,5.445,3.656,8.67,3.656
		c2.984,0,5.769-1.145,7.85-3.184l62.505-62.546l2.686-2.702l2.693,2.702l5.835,5.852l2.694,2.702l-2.694,2.686l-62.521,62.547
		c-2.071,2.104-3.199,4.973-3.141,8.006c0.066,3.184,1.359,6.217,3.646,8.505c2.346,2.37,5.413,3.663,8.679,3.663
		c2.992,0,5.769-1.127,7.808-3.183l64.328-63.772C-1182.591,161.864-1171.691,150.973-1162.226,141.531z"/>
</g>
<g>
	<polyline fill="#646469" points="-945.141,105.796 -944.801,106.128 -943.977,106.381 -943.384,106.888 -943.225,106.888 
		-942.299,108.717 -941.887,109.382 -941.554,109.556 -941.467,110.134 -941.388,110.221 -940.969,110.395 -940.802,110.72 
		-940.723,111.06 -940.723,111.146 -940.636,111.306 -940.47,111.566 -940.217,111.971 -940.13,112.217 -939.797,112.39 
		-939.638,112.304 -939.211,112.137 -938.626,111.971 -937.382,111.479 -936.124,111.233 -935.625,111.06 -935.126,110.72 
		-934.959,110.467 -934.706,110.301 -934.128,109.975 -933.788,109.975 -933.622,110.134 -933.535,110.055 -933.455,110.055 
		-933.123,109.722 -932.79,109.556 -931.959,109.881 -930.953,109.628 -930.447,110.134 -929.861,109.975 -929.702,109.975 
		-928.95,110.134 -928.357,110.395 -928.357,111.146 -928.198,111.146 -927.945,111.06 -927.779,111.146 -927.692,111.646 
		-926.781,112.304 -925.609,113.143 -925.523,113.229 -925.356,113.648 -923.687,113.895 -923.527,114.56 -922.935,115.572 
		-922.183,115.485 -921.684,115.312 -920.267,116.31 -920.267,116.403 -919.016,116.483 -917.598,117.062 -917.598,117.322 
		-917.598,117.409 -916.846,118.06 -916.68,118.486 -916.846,118.898 -916.759,119.657 -916.846,120.735 -917.013,121.162 
		-917.512,121.993 -918.018,122.571 -918.35,122.492 -918.849,122.745 -919.261,123.244 -919.435,123.67 -919.854,124.162 
		-920.187,124.329 -921.185,124.162 -921.604,124.495 -922.436,124.914 -922.602,124.994 -923.021,125.247 -923.44,125.587 
		-924.02,125.753 -924.105,125.753 -924.272,125.493 -924.691,125.493 -925.356,125.587 -925.523,125.753 -926.029,125.493 
		-926.448,125.413 -927.193,125.587 -927.866,125.753 -927.945,125.833 -928.444,126.172 -928.618,126.245 -928.95,126.418 
		-929.529,126.751 -929.861,126.91 -930.613,127.17 -930.7,127.17 -930.867,127.416 -931.12,127.59 -931.532,127.662 
		-931.626,127.662 -932.038,127.662 -932.117,127.662 -932.291,127.662 -932.537,127.59 -933.875,127.662 -934.207,127.922 
		-934.793,128.096 -935.039,128.168 -935.458,128.096 -935.545,128.009 -936.876,127.763 -936.963,127.59 -936.876,127.33 
		-936.963,127.17 -937.208,126.997 -937.461,127.17 -937.628,127.17 -937.96,126.997 -938.213,126.664 -938.127,126.418 
		-938.546,124.994 -938.293,124.661 -938.213,124.249 -938.213,124.162 -938.213,124.076 -938.293,123.323 -938.467,121.827 
		-938.546,121.241 -938.626,120.822 -938.712,120.576 -938.958,120.243 -939.045,119.997 -939.132,119.578 -939.132,119.404 
		-939.132,118.486 -939.211,118.233 -939.211,117.987 -939.718,117.567 -940.47,117.235 -940.47,117.148 -941.055,117.148 
		-941.214,117.148 -941.721,117.409 -941.807,117.567 -941.887,117.821 -942.053,117.987 -942.14,118.06 -942.718,118.233 
		-943.138,117.987 -947.144,116.15 -948.813,114.313 -948.813,114.227 -949.312,113.648 -949.486,113.475 -949.646,113.229 
		-949.819,112.81 -949.819,112.644 -949.819,112.304 -949.819,111.884 -949.979,111.566 -950.064,111.566 -950.064,111.479 
		-950.238,111.393 -950.397,111.146 -950.151,109.556 -950.064,109.476 -949.486,108.218 -949.067,107.3 -948.813,106.888 
		-948.142,106.714 -947.896,106.468 -947.729,106.215 -947.809,106.056 -947.729,105.796 -946.638,105.796 -946.305,105.962 
		-946.305,105.796 -946.059,105.463 -945.394,105.55 -945.141,105.796 	"/>
	<polyline fill="#646469" points="-1009.163,72.736 -1008.91,72.989 -1008.664,73.662 -1008.49,74.074 -1008.245,74.573 
		-1008.078,74.739 -1007.825,74.905 -1007.825,74.992 -1007.825,75.151 -1007.738,75.578 -1007.738,75.665 -1007.825,75.99 
		-1007.738,76.164 -1007.493,76.496 -1007.406,76.583 -1007.247,76.916 -1006.741,77.161 -1006.574,77.407 -1005.989,78.159 
		-1005.656,78.752 -1005.735,79.49 -1005.403,79.583 -1005.157,79.331 -1004.651,79.417 -1004.484,79.583 -1004.239,80.083 
		-1003.986,80.582 -1003.732,81.008 -1003.732,81.919 -1004.318,82.006 -1004.398,82.252 -1004.484,82.505 -1004.318,83.257 
		-1004.318,83.51 -1004.239,83.843 -1004.152,84.183 -1003.986,84.428 -1003.906,84.508 -1003.819,84.508 -1003.154,84.682 
		-1002.821,85.007 -1002.648,85.419 -1002.315,86.012 -1002.069,86.186 -1001.896,86.345 -1001.737,86.431 -1001.397,86.677 
		-1001.23,86.677 -1001.064,86.598 -1000.812,86.431 -1000.732,86.012 -1000.732,85.925 -1000.732,85.751 -1000.812,85.347 
		-1000.812,84.761 -1000.732,84.587 -1000.399,84.428 -1000.06,84.428 -999.9,84.428 -999.48,84.508 -999.314,84.508 
		-999.148,84.508 -998.815,84.682 -998.815,85.007 -998.815,85.26 -999.062,85.593 -999.148,85.925 -999.148,86.012 
		-999.235,86.265 -999.235,86.764 -999.235,86.843 -999.235,87.097 -999.148,87.263 -998.729,87.342 -998.643,87.342 
		-998.562,87.342 -998.483,87.342 -998.396,87.342 -998.396,87.429 -998.31,87.429 -998.31,87.516 -998.23,87.675 -997.977,88.008 
		-997.731,88.268 -997.731,88.514 -997.891,89.02 -997.811,89.512 -997.731,89.772 -997.645,89.938 -997.479,90.264 -997.225,90.69 
		-997.065,90.856 -996.806,91.016 -996.64,91.103 -996.56,91.103 -996.56,91.189 -996.141,91.435 -995.634,91.695 -995.634,91.768 
		-995.555,91.768 -995.222,91.768 -995.056,91.768 -995.056,91.854 -995.143,92.361 -995.808,92.766 -996.806,93.518 
		-997.065,93.771 -997.065,94.11 -997.312,94.284 -997.811,94.356 -997.977,94.284 -997.977,94.11 -997.891,93.857 -997.891,93.358 
		-997.977,93.271 -998.31,93.105 -999.062,93.271 -999.235,93.358 -999.979,93.604 -1000.233,93.518 -1000.399,93.518 
		-1000.732,93.691 -1000.985,93.771 -1001.064,93.857 -1001.145,93.937 -1001.397,94.19 -1001.65,94.443 -1001.737,94.443 
		-1001.982,94.53 -1002.481,94.609 -1002.648,94.53 -1002.98,94.443 -1003.154,94.284 -1003.233,93.937 -1003.313,93.771 
		-1003.487,93.518 -1003.646,93.358 -1004.152,92.939 -1004.745,92.766 -1004.904,92.693 -1005.236,92.527 -1005.403,92.527 
		-1006.242,92.187 -1006.408,91.608 -1006.408,91.522 -1006.495,91.348 -1006.654,91.103 -1006.907,91.016 -1006.994,91.016 
		-1007.073,91.103 -1007.247,91.269 -1007.58,91.522 -1007.493,91.768 -1007.326,91.941 -1007.247,92.187 -1009.163,92.187 
		-1009.084,91.854 -1009.084,91.608 -1009.084,91.522 -1009.908,91.103 -1009.995,91.103 -1010.081,91.103 -1010.168,91.103 
		-1010.747,91.435 -1010.92,91.608 -1011.079,91.608 -1012.497,92.021 -1012.75,92.021 -1013.589,92.187 -1015.505,92.527 
		-1016.17,92.606 -1016.676,92.361 -1017.009,91.608 -1017.096,91.348 -1016.59,91.189 -1016.676,90.943 -1016.922,90.77 
		-1017.255,90.943 -1017.508,89.859 -1017.595,89.512 -1017.848,88.933 -1017.927,88.854 -1017.927,88.774 -1018.094,88.601 
		-1018.339,88.181 -1018.592,87.936 -1018.932,87.675 -1019.757,87.263 -1019.757,87.176 -1019.844,87.01 -1019.844,86.431 
		-1019.93,86.012 -1019.93,85.838 -1020.017,85.838 -1020.017,85.751 -1020.097,85.593 -1020.263,85.173 -1020.35,85.086 
		-1020.841,84.682 -1020.936,84.508 -1021.102,84.428 -1021.601,84.009 -1022.02,83.51 -1022.179,83.177 -1022.272,83.091 
		-1022.179,81.254 -1022.179,80.842 -1022.353,80.502 -1023.098,79.583 -1024.269,78.832 -1024.435,78.665 -1024.355,78.579 
		-1023.271,78.325 -1020.263,78.159 -1019.345,78.419 -1017.848,78.253 -1017.255,78.159 -1017.175,78.08 -1016.344,77.667 
		-1016.344,77.581 -1016.344,77.32 -1016.51,77.248 -1016.423,77.074 -1016.17,76.916 -1015.085,76.077 -1014.507,75.325 
		-1014.507,74.905 -1014.333,74.573 -1014.261,74.414 -1013.082,73.322 -1012.497,72.736 -1012.251,72.49 -1010.992,72.071 
		-1010.747,71.904 -1009.908,71.904 -1009.163,72.736 	"/>
	<polyline fill="#646469" points="-1079.606,45.852 -1079.107,45.772 -1078.442,45.852 -1077.937,46.184 -1077.524,46.018 
		-1076.772,45.692 -1075.94,46.018 -1075.94,46.104 -1075.854,46.271 -1075.188,46.444 -1074.936,46.524 -1074.604,46.524 
		-1074.523,46.357 -1074.35,46.357 -1073.685,46.856 -1073.598,46.936 -1073.353,47.196 -1072.933,47.608 -1072.6,47.934 
		-1072.514,48.281 -1072.434,48.44 -1072.434,48.527 -1072.434,48.772 -1072.354,48.946 -1072.354,49.033 -1072.354,49.12 
		-1072.354,49.279 -1072.268,49.366 -1072.268,49.445 -1072.181,49.539 -1071.935,49.698 -1071.848,49.698 -1071.762,49.785 
		-1071.682,49.944 -1071.682,50.031 -1071.682,50.277 -1071.682,50.617 -1071.682,50.783 -1071.682,51.029 -1071.682,51.115 
		-1071.682,51.369 -1071.762,51.535 -1072.015,52.113 -1072.268,52.453 -1072.687,53.205 -1072.687,53.285 -1072.767,53.538 
		-1072.933,54.116 -1073.02,54.29 -1073.438,54.543 -1073.519,54.63 -1073.598,54.789 -1073.598,54.868 -1073.685,54.868 
		-1073.685,54.962 -1073.851,55.787 -1073.685,57.045 -1073.598,57.377 -1073.519,58.129 -1073.519,58.375 -1073.519,58.636 
		-1073.519,59.041 -1073.519,59.214 -1073.771,59.293 -1073.931,59.467 -1074.264,59.72 -1074.604,60.212 -1075.768,60.964 
		-1076.52,61.803 -1077.025,62.294 -1077.524,62.714 -1077.857,62.967 -1077.937,63.046 -1078.11,63.133 -1078.522,63.466 
		-1078.775,63.64 -1079.946,63.046 -1080.279,62.967 -1080.778,62.801 -1080.865,62.714 -1081.609,62.627 -1082.116,62.627 
		-1083.2,62.555 -1083.866,62.555 -1084.784,62.294 -1084.863,62.135 -1085.117,62.135 -1085.203,62.215 -1085.37,62.215 
		-1085.615,62.215 -1085.702,62.215 -1085.789,62.215 -1086.288,62.215 -1086.454,62.215 -1086.454,62.135 -1086.787,61.882 
		-1087.033,61.716 -1087.12,61.716 -1087.46,61.47 -1087.713,61.224 -1087.872,60.964 -1088.125,60.458 -1088.204,60.458 
		-1089.13,59.388 -1089.289,59.214 -1089.708,59.041 -1090.374,58.961 -1090.793,58.881 -1091.299,58.636 -1091.545,58.549 
		-1092.21,58.289 -1093.295,58.042 -1093.628,57.71 -1093.888,57.211 -1094.467,56.452 -1094.633,56.119 -1094.799,55.454 
		-1094.633,54.543 -1094.553,53.863 -1094.221,53.372 -1092.717,52.034 -1092.384,51.289 -1092.21,50.617 -1092.131,50.45 
		-1092.051,49.944 -1091.719,49.445 -1090.461,48.772 -1090.041,48.772 -1089.043,48.527 -1088.045,47.934 -1087.872,47.775 
		-1086.201,46.777 -1085.37,46.184 -1085.037,45.772 -1084.618,45.772 -1084.119,45.692 -1083.866,45.692 -1083.62,45.772 
		-1083.367,45.852 -1083.2,46.104 -1083.114,46.184 -1083.034,46.357 -1082.694,46.184 -1082.203,46.271 -1082.029,46.357 
		-1082.029,46.444 -1081.949,46.604 -1081.863,46.777 -1081.783,46.777 -1081.696,46.856 -1081.53,46.856 -1081.197,46.604 
		-1081.197,46.357 -1081.197,46.271 -1081.197,45.938 -1080.612,45.519 -1080.192,45.519 -1079.606,45.852 	"/>
	<polyline fill="#646469" points="-965.257,98.03 -964.845,98.116 -964.512,98.203 -964.172,98.03 -964.006,97.871 -963.753,97.119 
		-963.753,96.945 -963.84,96.786 -963.84,96.699 -963.334,96.367 -963.08,96.453 -962.835,96.699 -962.249,97.704 -962.249,98.203 
		-961.996,98.536 -960.665,98.869 -960,99.114 -959.747,99.035 -959.668,98.782 -959.668,98.702 -958.33,99.035 -957.079,98.869 
		-956.16,98.536 -953.825,98.283 -953.073,98.37 -952.487,98.449 -952.234,98.623 -952.154,99.114 -951.396,99.035 -951.062,99.114 
		-951.149,99.621 -951.655,100.618 -952.74,101.79 -953.984,102.788 -954.736,103.127 -954.823,103.467 -956.746,104.125 
		-958.25,104.378 -958.749,104.798 -959.414,104.711 -959.581,104.465 -959.747,104.465 -962.249,103.959 -962.336,103.872 
		-963.587,103.54 -963.919,103.374 -964.418,103.207 -964.671,103.127 -964.845,103.127 -965.091,103.048 -965.178,103.048 
		-965.756,102.875 -965.93,102.788 -966.009,102.788 -966.262,102.455 -968.258,102.036 -968.931,102.036 -969.01,102.036 
		-969.343,102.036 -969.516,102.123 -970.348,102.209 -971.266,102.542 -976.443,102.875 -978.439,102.542 -979.191,102.123 
		-978.525,100.792 -978.525,100.618 -978.28,100.126 -977.86,99.534 -977.441,99.201 -977.361,99.288 -976.689,98.623 
		-976.443,98.283 -976.277,97.871 -976.277,97.032 -976.609,96.612 -976.775,96.54 -976.862,96.367 -976.775,96.113 
		-976.609,96.034 -975.857,96.367 -975.192,96.367 -974.44,96.28 -974.028,96.453 -973.521,97.032 -973.276,97.119 -971.932,97.364 
		-971.512,97.364 -971.353,97.278 -971.353,97.198 -970.514,97.278 -970.095,97.451 -969.849,97.451 -969.097,97.451 
		-968.099,97.784 -967.506,97.871 -967.173,97.871 -967.094,97.871 -967.014,97.871 -966.761,97.784 -966.421,97.784 
		-965.257,98.03 	"/>
	<polyline fill="#646469" points="-964.925,110.799 -964.006,110.72 -963.08,110.973 -961.504,111.06 -960.665,111.146 
		-959.668,111.479 -956.833,114.053 -956.24,114.726 -955.488,115.984 -955.401,116.23 -955.488,116.815 -955.828,117.488 
		-956.833,118.985 -957.166,119.231 -957.411,119.231 -958.25,119.484 -959.248,119.997 -960.166,120.33 -961.996,120.33 
		-962.922,120.576 -963.674,119.484 -964.172,117.987 -963.919,116.562 -964.006,115.984 -964.758,114.82 -964.925,114.56 
		-967.014,113.475 -967.26,113.063 -967.347,112.81 -967.347,112.137 -967.26,111.646 -966.176,110.973 -965.677,110.799 
		-964.925,110.799 	"/>
	<polyline fill="#646469" points="-1115.335,67.233 -1115.581,66.98 -1116.087,66.228 -1116.174,66.141 -1116.253,65.975 
		-1116.087,64.305 -1116,64.138 -1115.668,63.3 -1115.509,62.801 -1115.509,62.714 -1115.335,62.468 -1115.248,62.294 
		-1114.583,61.803 -1114.163,61.383 -1114.004,61.138 -1113.672,60.798 -1113.498,60.718 -1113.411,60.631 -1112.413,60.125 
		-1110.909,59.388 -1110.49,59.041 -1110.41,58.881 -1110.244,58.715 -1110.07,58.202 -1109.991,57.963 -1109.738,57.045 
		-1109.405,56.886 -1109.159,56.886 -1108.986,56.799 -1108.653,56.712 -1107.988,56.712 -1107.901,56.712 -1107.236,57.045 
		-1106.99,57.71 -1106.99,57.884 -1107.156,57.963 -1107.41,58.042 -1107.489,57.963 -1107.568,58.042 -1108.241,59.135 
		-1108.574,60.458 -1108.321,61.304 -1108.241,62.049 -1109.239,62.627 -1109.326,62.627 -1109.405,62.627 -1110.41,62.967 
		-1111.488,63.133 -1112.168,63.553 -1112.746,64.464 -1113.498,65.649 -1114.25,67.312 -1114.004,67.472 -1114.25,67.812 
		-1114.583,67.646 -1114.67,67.646 -1114.836,67.559 -1115.169,67.312 -1115.248,67.233 -1115.335,67.233 	"/>
	<polyline fill="#646469" points="-943.977,126.91 -943.637,127.17 -943.384,127.416 -943.051,127.922 -942.892,128.096 
		-942.892,128.421 -943.138,128.674 -943.471,130.005 -943.304,130.179 -942.718,130.424 -942.639,130.757 -942.718,130.844 
		-942.892,131.003 -943.138,131.09 -943.637,131.003 -944.888,131.596 -945.727,130.931 -946.97,131.422 -947.477,131.762 
		-947.729,131.596 -948.142,131.762 -948.314,131.762 -948.734,131.929 -949.067,131.929 -949.399,131.842 -950.397,130.844 
		-950.311,130.591 -950.064,130.092 -949.732,129.759 -949.312,129.34 -948.647,129.094 -947.982,128.92 -947.562,128.674 
		-947.144,128.342 -946.226,127.835 -946.059,127.503 -945.813,127.33 -944.468,126.838 -943.977,126.91 	"/>
	<g>
		<polyline fill="#646469" points="-898.979,209.241 -899.152,209.487 -900.07,210.312 -900.735,210.738 -900.901,210.738 
			-901.234,210.658 -901.4,210.572 -901.487,210.405 -901.574,210.312 -901.654,209.979 -901.733,209.574 -902.485,208.901 
			-903.237,208.229 -903.324,208.143 -905.161,207.563 -907.164,205.973 -908.747,205.641 -909.499,205.561 -910.75,204.889 
			-910.917,204.729 -911.004,203.97 -911.835,202.727 -912.088,202.727 -912.088,202.64 -912.753,200.724 -912.587,198.966 
			-911.922,195.879 -912.001,195.206 -911.922,193.796 -911.582,193.037 -911.423,191.786 -911.249,189.869 -911.336,189.356 
			-911.835,187.859 -912.508,186.688 -912.334,186.117 -912.334,186.03 -912.92,185.278 -913.086,184.852 -913.086,183.348 
			-912.999,182.849 -913.086,182.689 -913.339,182.516 -913.592,182.516 -913.672,182.603 -913.672,182.689 -913.751,182.689 
			-914.344,182.429 -914.424,182.35 -914.511,181.265 -914.677,180.347 -914.677,180.188 -914.843,179.436 -914.923,179.183 
			-915.089,179.103 -915.263,179.009 -915.342,177.512 -915.595,176.673 -915.675,176.428 -915.762,176.261 -916.26,175.343 
			-916.514,174.837 -916.68,174.663 -916.933,174.584 -918.097,174.338 -918.35,174.171 -918.43,173.839 -918.35,173.419 
			-918.177,173.253 -918.097,173.253 -918.177,172.913 -918.509,172.335 -919.016,171.923 -919.261,171.67 -919.261,170.917 
			-919.854,170.332 -919.514,169.746 -919.261,168.994 -919.182,167.822 -917.844,166.738 -917.179,165.993 -917.092,165.906 
			-917.092,165.819 -917.013,165.732 -916.094,164.568 -915.762,164.323 -915.176,164.062 -914.511,163.983 -914.258,164.149 
			-914.084,164.149 -913.339,163.816 -913.419,163.317 -913.339,163.064 -912.92,162.399 -912.666,161.98 -912.666,161.894 
			-912.587,161.813 -912.254,161.148 -911.922,160.649 -911.922,160.396 -911.835,160.144 -910.671,159.066 -910.584,158.986 
			-910.165,158.307 -909.412,157.888 -909.333,157.974 -909.167,157.974 -908.993,157.555 -908.993,157.468 -908.921,156.977 
			-908.747,155.473 -908.921,154.974 -909.254,154.475 -909.499,154.142 -909.586,154.055 -909.745,153.881 -909.919,153.636 
			-910.006,153.549 -910.75,152.804 -911.582,151.466 -912.254,149.456 -912.666,146.535 -912.421,145.038 -912.001,144.033 
			-911.582,143.613 -911.17,143.354 -910.251,143.194 -908.328,143.693 -908.248,143.693 -907.75,143.946 -906.91,144.365 
			-906.665,144.445 -906.404,144.445 -906.072,144.626 -905.161,145.038 -904.654,145.537 -904.654,146.043 -904.496,146.376 
			-903.071,147.12 -900.735,148.292 -899.65,149.29 -899.318,149.29 -898.566,149.709 -898.233,150.295 -898.067,150.382 
			-897.728,150.454 -897.641,150.454 -897.308,150.382 -896.643,150.034 -896.224,149.962 -895.891,150.034 -894.561,150.555 
			-894.228,150.801 -893.975,150.801 -893.562,150.801 -891.972,151.3 -890.8,151.712 -890.555,151.799 -888.964,152.551 
			-888.797,152.638 -888.718,152.71 -888.125,153.057 -886.968,153.636 -886.707,153.795 -885.377,154.475 -884.871,154.72 
			-883.707,155.14 -883.295,155.219 -883.121,155.219 -882.543,155.631 -882.369,155.718 -882.289,155.805 -882.21,155.885 
			-882.123,155.964 -881.617,156.383 -881.53,156.47 -881.371,156.557 -881.118,156.803 -880.445,157.222 -879.954,157.468 
			-879.361,157.808 -878.949,158.228 -878.869,158.394 -878.196,158.806 -876.7,160.144 -876.526,160.23 -875.861,160.896 
			-875.774,160.982 -875.528,161.401 -875.362,161.894 -875.029,162.226 -874.689,162.573 -874.277,162.818 -874.104,162.818 
			-873.691,163.404 -873.605,163.729 -873.605,164.236 -873.771,164.901 -873.865,165.075 -874.024,165.494 -873.945,165.819 
			-873.945,166.239 -873.865,167.157 -873.865,167.403 -873.945,167.577 -873.945,167.663 -873.945,168.242 -873.945,168.329 
			-873.945,169.334 -873.865,169.413 -873.771,169.58 -873.605,169.833 -873.525,169.833 -873.272,169.912 -873.026,169.833 
			-872.521,169.746 -872.021,169.413 -871.688,169.16 -869.772,169.16 -869.354,169.659 -869.267,169.833 -869.18,170.165 
			-868.848,170.657 -868.602,171.583 -868.688,172.494 -868.688,173.752 -868.688,174.005 -868.182,174.417 -867.683,174.75 
			-867.011,174.75 -866.931,174.837 -866.931,175.01 -867.098,175.43 -866.852,175.849 -866.259,176.182 -866.013,176.341 
			-866.013,176.428 -865.767,176.76 -865.514,176.927 -865.348,177.006 -864.754,177.512 -864.176,177.845 -863.424,178.178 
			-862.339,178.51 -861.587,179.103 -861.088,179.103 -860.503,179.436 -860.257,179.854 -860.257,180.014 -860.922,181.938 
			-861.088,182.184 -861.587,182.762 -863.005,184.106 -863.258,184.28 -863.923,184.686 -865.847,186.196 -866.519,186.941 
			-867.517,187.78 -868.269,188.619 -868.428,188.691 -870.019,189.529 -870.105,189.529 -872.021,190.368 -874.53,191.699 
			-874.863,191.952 -875.441,192.451 -876.7,192.87 -877.278,192.783 -877.943,192.957 -878.363,193.203 -878.869,193.203 
			-880.698,192.783 -881.617,192.625 -883.208,193.037 -883.54,193.29 -883.96,193.796 -885.29,194.707 -885.623,195.546 
			-886.129,195.965 -887.04,196.298 -887.546,196.385 -888.125,196.631 -888.797,197.035 -889.296,197.462 -889.549,197.874 
			-890.555,198.887 -891.133,199.133 -892.97,199.632 -893.389,199.877 -893.302,200.051 -893.302,200.304 -893.642,200.637 
			-893.975,200.724 -894.054,200.803 -894.807,201.975 -895.139,202.054 -895.392,202.387 -895.312,203.052 -895.312,203.804 
			-895.392,204.223 -895.812,204.889 -896.311,205.148 -896.556,205.395 -897.229,206.652 -897.229,207.491 -897.481,207.976 
			-897.974,208.07 -898.566,208.489 -898.566,208.568 -898.653,208.655 -898.732,208.901 -898.979,209.241 		"/>
		<polyline fill="none" stroke="#FFFFFF" stroke-width="0.1382" stroke-miterlimit="10" points="-898.979,209.241 -899.152,209.487 
			-900.07,210.312 -900.735,210.738 -900.901,210.738 -901.234,210.658 -901.4,210.572 -901.487,210.405 -901.574,210.312 
			-901.654,209.979 -901.733,209.574 -902.485,208.901 -903.237,208.229 -903.324,208.143 -905.161,207.563 -907.164,205.973 
			-908.747,205.641 -909.499,205.561 -910.75,204.889 -910.917,204.729 -911.004,203.97 -911.835,202.727 -912.088,202.727 
			-912.088,202.64 -912.753,200.724 -912.587,198.966 -911.922,195.879 -912.001,195.206 -911.922,193.796 -911.582,193.037 
			-911.423,191.786 -911.249,189.869 -911.336,189.356 -911.835,187.859 -912.508,186.688 -912.334,186.117 -912.334,186.03 
			-912.92,185.278 -913.086,184.852 -913.086,183.348 -912.999,182.849 -913.086,182.689 -913.339,182.516 -913.592,182.516 
			-913.672,182.603 -913.672,182.689 -913.751,182.689 -914.344,182.429 -914.424,182.35 -914.511,181.265 -914.677,180.347 
			-914.677,180.188 -914.843,179.436 -914.923,179.183 -915.089,179.103 -915.263,179.009 -915.342,177.512 -915.595,176.673 
			-915.675,176.428 -915.762,176.261 -916.26,175.343 -916.514,174.837 -916.68,174.663 -916.933,174.584 -918.097,174.338 
			-918.35,174.171 -918.43,173.839 -918.35,173.419 -918.177,173.253 -918.097,173.253 -918.177,172.913 -918.509,172.335 
			-919.016,171.923 -919.261,171.67 -919.261,170.917 -919.854,170.332 -919.514,169.746 -919.261,168.994 -919.182,167.822 
			-917.844,166.738 -917.179,165.993 -917.092,165.906 -917.092,165.819 -917.013,165.732 -916.094,164.568 -915.762,164.323 
			-915.176,164.062 -914.511,163.983 -914.258,164.149 -914.084,164.149 -913.339,163.816 -913.419,163.317 -913.339,163.064 
			-912.92,162.399 -912.666,161.98 -912.666,161.894 -912.587,161.813 -912.254,161.148 -911.922,160.649 -911.922,160.396 
			-911.835,160.144 -910.671,159.066 -910.584,158.986 -910.165,158.307 -909.412,157.888 -909.333,157.974 -909.167,157.974 
			-908.993,157.555 -908.993,157.468 -908.921,156.977 -908.747,155.473 -908.921,154.974 -909.254,154.475 -909.499,154.142 
			-909.586,154.055 -909.745,153.881 -909.919,153.636 -910.006,153.549 -910.75,152.804 -911.582,151.466 -912.254,149.456 
			-912.666,146.535 -912.421,145.038 -912.001,144.033 -911.582,143.613 -911.17,143.354 -910.251,143.194 -908.328,143.693 
			-908.248,143.693 -907.75,143.946 -906.91,144.365 -906.665,144.445 -906.404,144.445 -906.072,144.626 -905.161,145.038 
			-904.654,145.537 -904.654,146.043 -904.496,146.376 -903.071,147.12 -900.735,148.292 -899.65,149.29 -899.318,149.29 
			-898.566,149.709 -898.233,150.295 -898.067,150.382 -897.728,150.454 -897.641,150.454 -897.308,150.382 -896.643,150.034 
			-896.224,149.962 -895.891,150.034 -894.561,150.555 -894.228,150.801 -893.975,150.801 -893.562,150.801 -891.972,151.3 
			-890.8,151.712 -890.555,151.799 -888.964,152.551 -888.797,152.638 -888.718,152.71 -888.125,153.057 -886.968,153.636 
			-886.707,153.795 -885.377,154.475 -884.871,154.72 -883.707,155.14 -883.295,155.219 -883.121,155.219 -882.543,155.631 
			-882.369,155.718 -882.289,155.805 -882.21,155.885 -882.123,155.964 -881.617,156.383 -881.53,156.47 -881.371,156.557 
			-881.118,156.803 -880.445,157.222 -879.954,157.468 -879.361,157.808 -878.949,158.228 -878.869,158.394 -878.196,158.806 
			-876.7,160.144 -876.526,160.23 -875.861,160.896 -875.774,160.982 -875.528,161.401 -875.362,161.894 -875.029,162.226 
			-874.689,162.573 -874.277,162.818 -874.104,162.818 -873.691,163.404 -873.605,163.729 -873.605,164.236 -873.771,164.901 
			-873.865,165.075 -874.024,165.494 -873.945,165.819 -873.945,166.239 -873.865,167.157 -873.865,167.403 -873.945,167.577 
			-873.945,167.663 -873.945,168.242 -873.945,168.329 -873.945,169.334 -873.865,169.413 -873.771,169.58 -873.605,169.833 
			-873.525,169.833 -873.272,169.912 -873.026,169.833 -872.521,169.746 -872.021,169.413 -871.688,169.16 -869.772,169.16 
			-869.354,169.659 -869.267,169.833 -869.18,170.165 -868.848,170.657 -868.602,171.583 -868.688,172.494 -868.688,173.752 
			-868.688,174.005 -868.182,174.417 -867.683,174.75 -867.011,174.75 -866.931,174.837 -866.931,175.01 -867.098,175.43 
			-866.852,175.849 -866.259,176.182 -866.013,176.341 -866.013,176.428 -865.767,176.76 -865.514,176.927 -865.348,177.006 
			-864.754,177.512 -864.176,177.845 -863.424,178.178 -862.339,178.51 -861.587,179.103 -861.088,179.103 -860.503,179.436 
			-860.257,179.854 -860.257,180.014 -860.922,181.938 -861.088,182.184 -861.587,182.762 -863.005,184.106 -863.258,184.28 
			-863.923,184.686 -865.847,186.196 -866.519,186.941 -867.517,187.78 -868.269,188.619 -868.428,188.691 -870.019,189.529 
			-870.105,189.529 -872.021,190.368 -874.53,191.699 -874.863,191.952 -875.441,192.451 -876.7,192.87 -877.278,192.783 
			-877.943,192.957 -878.363,193.203 -878.869,193.203 -880.698,192.783 -881.617,192.625 -883.208,193.037 -883.54,193.29 
			-883.96,193.796 -885.29,194.707 -885.623,195.546 -886.129,195.965 -887.04,196.298 -887.546,196.385 -888.125,196.631 
			-888.797,197.035 -889.296,197.462 -889.549,197.874 -890.555,198.887 -891.133,199.133 -892.97,199.632 -893.389,199.877 
			-893.302,200.051 -893.302,200.304 -893.642,200.637 -893.975,200.724 -894.054,200.803 -894.807,201.975 -895.139,202.054 
			-895.392,202.387 -895.312,203.052 -895.312,203.804 -895.392,204.223 -895.812,204.889 -896.311,205.148 -896.556,205.395 
			-897.229,206.652 -897.229,207.491 -897.481,207.976 -897.974,208.07 -898.566,208.489 -898.566,208.568 -898.653,208.655 
			-898.732,208.901 -898.979,209.241 		"/>
	</g>
</g>
<g>
	<polygon fill="#646469" points="-646.631,154.9 -646.631,215.975 -807.354,215.975 -807.354,55.274 -672.621,55.274 
		-648.962,25.464 -837.155,25.464 -837.155,245.785 -616.821,245.785 -616.821,117.348 	"/>
	<g>
		<path fill="#646469" d="M-707.11,188.005l-65.202-85.536c-4.811-6.309-3.593-15.334,2.725-20.154
			c6.318-4.802,15.335-3.575,20.137,2.734l42.805,56.146l99.85-125.773c4.942-6.239,13.985-7.255,20.207-2.331
			c6.212,4.942,7.255,13.985,2.312,20.189L-707.11,188.005z"/>
	</g>
</g>
<g>
	<path fill="#646469" d="M-516.814,79.954h-9.621c1.533,0.471,3.131,0.777,4.811,0.777
		C-519.939,80.731-518.354,80.425-516.814,79.954z"/>
	<path fill="#646469" d="M-521.625,46.874c-9.346,0-16.934,7.581-16.934,16.935c0,9.35,7.588,16.922,16.934,16.922
		c9.355,0,16.914-7.572,16.914-16.922C-504.711,54.455-512.27,46.874-521.625,46.874z"/>
	<path fill="#646469" d="M-505.494,85.131h-1.399c-4.198,2.903-9.255,4.64-14.731,4.64c-5.41,0-10.434-1.712-14.598-4.557
		c-11.307,0.843-21.511,12.497-21.511,21.182v41.594c0,0.141,0.064,0.294,0.07,0.443h9.384v-40.648c0-2.498,2.021-4.524,4.516-4.524
		c2.504,0,4.524,2.026,4.524,4.524v40.648h35.234v-40.648c0-2.498,2.014-4.524,4.512-4.524c2.497,0,4.522,2.026,4.522,4.524v40.648
		h9.391c0-0.149,0.059-0.303,0.059-0.451v-41.586C-485.521,97.389-493.689,85.131-505.494,85.131z"/>
	<path fill="#646469" d="M-521.625,46.874c-9.346,0-16.934,7.581-16.934,16.935c0,9.35,7.588,16.922,16.934,16.922
		c9.355,0,16.914-7.572,16.914-16.922C-504.711,54.455-512.27,46.874-521.625,46.874z"/>
	<rect x="-539.182" y="158.775" fill="#646469" width="35.106" height="52.174"/>
	<path fill="#646469" d="M-424.925,79.954h-9.612c1.527,0.471,3.124,0.777,4.801,0.777
		C-428.045,80.731-426.455,80.425-424.925,79.954z"/>
	<path fill="#646469" d="M-429.736,46.874c-9.342,0-16.914,7.581-16.914,16.935c0,9.35,7.572,16.922,16.914,16.922
		c9.353,0,16.929-7.572,16.929-16.922C-412.808,54.455-420.384,46.874-429.736,46.874z"/>
	<path fill="#646469" d="M-413.602,85.131h-1.39c-4.202,2.903-9.264,4.64-14.745,4.64c-5.415,0-10.42-1.712-14.586-4.557
		c-11.307,0.843-21.519,12.497-21.519,21.182v41.594c0,0.141,0.07,0.294,0.07,0.443h9.388v-40.648c0-2.498,2.023-4.524,4.525-4.524
		c2.486,0,4.508,2.026,4.508,4.524v40.648h35.236v-40.648c0-2.498,2.026-4.524,4.508-4.524c2.498,0,4.524,2.026,4.524,4.524v40.648
		h9.388c0-0.149,0.074-0.303,0.074-0.451v-41.586C-393.619,97.389-401.799,85.131-413.602,85.131z"/>
	<path fill="#646469" d="M-429.736,46.874c-9.342,0-16.914,7.581-16.914,16.935c0,9.35,7.572,16.922,16.914,16.922
		c9.353,0,16.929-7.572,16.929-16.922C-412.808,54.455-420.384,46.874-429.736,46.874z"/>
	<rect x="-447.289" y="158.775" fill="#646469" width="35.122" height="52.174"/>
	<path fill="#646469" d="M-333.026,79.954h-9.619c1.538,0.471,3.118,0.777,4.81,0.777
		C-336.161,80.731-334.564,80.425-333.026,79.954z"/>
	<path fill="#646469" d="M-337.836,46.874c-9.354,0-16.927,7.581-16.927,16.935c0,9.35,7.572,16.922,16.927,16.922
		s16.918-7.572,16.918-16.922C-320.918,54.455-328.481,46.874-337.836,46.874z"/>
	<path fill="#646469" d="M-321.703,85.131h-1.398c-4.188,2.903-9.255,4.64-14.734,4.64c-5.422,0-10.434-1.712-14.594-4.557
		c-11.314,0.843-21.513,12.497-21.513,21.182v41.594c0,0.141,0.058,0.294,0.058,0.443h9.392v-40.648
		c0-2.498,2.026-4.524,4.524-4.524c2.494,0,4.512,2.026,4.512,4.524v40.648h35.234v-40.648c0-2.498,2.026-4.524,4.524-4.524
		c2.493,0,4.52,2.026,4.52,4.524v40.648h9.392c0-0.149,0.054-0.303,0.054-0.451v-41.586
		C-301.733,97.389-309.909,85.131-321.703,85.131z"/>
	<path fill="#646469" d="M-337.836,46.874c-9.354,0-16.927,7.581-16.927,16.935c0,9.35,7.572,16.922,16.927,16.922
		s16.918-7.572,16.918-16.922C-320.918,54.455-328.481,46.874-337.836,46.874z"/>
	<rect x="-355.391" y="158.775" fill="#646469" width="35.11" height="52.174"/>
</g>
<path fill="#646469" d="M-42.572,186.025V65.351c0-3.928-3.193-7.117-7.121-7.117h-34.791v-8.354h-133.2v8.354h-34.787
	c-3.932,0-7.125,3.189-7.125,7.117v120.675h-19.491v21.658h256.002v-21.658H-42.572z M-191.563,163.752h-26.823v-25.786h26.823
	V163.752z M-191.563,124.371h-26.823V98.597h26.823V124.371z M-137.732,163.752h-26.82v-25.786h26.82V163.752z M-137.732,124.371
	h-26.82V98.597h26.82V124.371z M-83.897,187.773h-26.828v-42.096h26.828V187.773z M-83.897,124.371h-26.828V98.597h26.828V124.371z"
	/>
<g>
	<g>
		<g>
			<g>
				<rect x="27.739" y="116.09" fill="#646469" width="90.179" height="6.945"/>
			</g>
			<g>
				<rect x="27.739" y="133.448" fill="#646469" width="58.954" height="6.944"/>
			</g>
		</g>
		<polygon fill="#646469" points="176.772,114.133 172.667,122.935 182.382,122.912 256.323,75.707 250.71,66.924 		"/>
		<g>
			<rect x="131.628" y="84.263" fill="#646469" width="51.656" height="6.941"/>
		</g>
	</g>
	<g>
		<path fill="#646469" d="M224.841,106.417v75.441H45.796v-9.8H31.522v16.937c0,3.94,3.192,7.133,7.133,7.133h193.322
			c3.944,0,7.137-3.192,7.137-7.133V98.344c0-0.334-0.054-0.648-0.096-0.975L224.841,106.417z"/>
	</g>
	<g>
		<path fill="#646469" d="M193.647,126.334v24.564H14.595V74.513h179.053v18.233l14.273-9.113V67.376c0-3.937-3.2-7.129-7.137-7.129
			H7.458c-3.937,0-7.137,3.192-7.137,7.129v90.659c0,3.94,3.2,7.136,7.137,7.136h193.326c3.937,0,7.137-3.195,7.137-7.136v-40.81
			L193.647,126.334z"/>
	</g>
</g>
</svg>
