<svg id="Layer_1" data-name="Layer 1" xmlns="http://www.w3.org/2000/svg" viewBox="0 0 85 71"><defs><style>.cls-1{fill:#646469;}</style></defs><title>services</title><path class="cls-1" d="M45.66,35.3l4.67-.84a23.4,23.4,0,0,0,.38-8.61l-4.59-1.24L43.57,18.7l2.26-4.18a23.42,23.42,0,0,0-6.52-5.67l-3.83,2.82L29.27,10,27.4,5.59a23.42,23.42,0,0,0-8.48,1.57l-0.18,4.75-5.2,3.8L9,14.44A23.45,23.45,0,0,0,4.9,22l3.6,3.1L8.22,31.59,4.37,34.37a23.71,23.71,0,0,0,3.42,7.92l4.67-.88,4.86,4.23-0.22,4.75a23.33,23.33,0,0,0,8.32,2.27l2.22-4.2L34,47.3l3.57,3.13a23.74,23.74,0,0,0,7-5.08L42.62,41ZM24.8,38.59a9.77,9.77,0,1,1,12-6.85A9.77,9.77,0,0,1,24.8,38.59Z"/><path class="cls-1" d="M77,52.12l3.32-.73a16.76,16.76,0,0,0,0-6.17L77,44.47l-2-4.17,1.5-3.05a16.74,16.74,0,0,0-4.82-3.88L69.1,35.49l-4.49-1-1.45-3.07a16.83,16.83,0,0,0-6,1.35v3.41L53.52,39l-3.31-.78a16.83,16.83,0,0,0-2.7,5.55l2.66,2.12,0,4.61-2.68,2.1a17,17,0,0,0,2.65,5.57l3.31-.76L57,60.3l0,3.4a16.78,16.78,0,0,0,2.95,1,17,17,0,0,0,3.06.41L64.48,62,69,61l2.64,2.14a16.88,16.88,0,0,0,4.84-3.82L75,56.27ZM62.18,55a7,7,0,1,1,8.39-5.23A7,7,0,0,1,62.18,55Z"/></svg>