<?xml version="1.0" encoding="utf-8"?>
<!-- Generator: Adobe Illustrator 16.0.4, SVG Export Plug-In . SVG Version: 6.00 Build 0)  -->
<!DOCTYPE svg PUBLIC "-//W3C//DTD SVG 1.1//EN" "http://www.w3.org/Graphics/SVG/1.1/DTD/svg11.dtd">
<svg version="1.1" id="Layer_1" xmlns="http://www.w3.org/2000/svg" xmlns:xlink="http://www.w3.org/1999/xlink" x="0px" y="0px"
	 width="30px" height="30px" viewBox="0 0 30 30" style="enable-background:new 0 0 30 30;" xml:space="preserve">
<style type="text/css">
<![CDATA[
	.st0{fill:#A5A5A5;}
]]>
</style>
<g>
	<path class="st0" d="M8.8,24.6c-0.8-0.2-1.6-0.4-2.5-0.4c-2.3,0-4.5,0.9-5.8,2.2c0.9,2.1,3,3.6,5.4,3.6h7.3c0-0.1,0-0.2,0-0.3
		c0-0.4,0-0.7-0.1-1C12.6,27,10.9,26.1,8.8,24.6z"/>
	<path class="st0" d="M10.5,11.6C10,8.1,7.8,5.3,5.1,5.2c-2.6-0.1-4.4,2.6-3.9,6c0.5,3.4,2.9,5.8,5.6,5.9
		C9.4,17.2,10.9,15,10.5,11.6z"/>
	<path class="st0" d="M24.2,0H5.8C2.6,0,0,2.6,0,5.8v0.4c1.7-1.5,4-2.5,6.6-2.5c2.5,0,9.7,0,9.7,0l-2.2,2.3h-2.6
		c1.8,1,2.8,3.2,2.8,5.5c0,2.1-1.2,3.9-2.9,5.2c-1.6,1.3-2,1.8-2,2.9c0,0.9,2,2.3,2.9,3c3.1,2.4,3.8,3.8,3.8,6.8c0,0.2,0,0.5,0,0.7
		h8.1c3.2,0,5.8-2.6,5.8-5.8V5.8C30,2.6,27.4,0,24.2,0z M28.3,10.8h-4.5v4.5h-2.2v-4.5h-4.5V8.6h4.5V4.1h2.2v4.5h4.5V10.8z"/>
	<path class="st0" d="M0,24.2C1.4,23.5,3.1,23,5,23c0.6,0,1.2,0,1.8,0c-0.8-0.8-1.4-1.4-1.4-2.5c0-0.7,0.2-1.3,0.5-1.9
		c-0.3,0-0.6,0-0.9,0c-2,0-3.7-0.6-4.9-1.7V24.2z"/>
</g>
</svg>
