<?xml version="1.0" encoding="utf-8"?>
<!-- Generator: Adobe Illustrator 16.0.4, SVG Export Plug-In . SVG Version: 6.00 Build 0)  -->
<!DOCTYPE svg PUBLIC "-//W3C//DTD SVG 1.1//EN" "http://www.w3.org/Graphics/SVG/1.1/DTD/svg11.dtd">
<svg version="1.1" id="Layer_1" xmlns="http://www.w3.org/2000/svg" xmlns:xlink="http://www.w3.org/1999/xlink" x="0px" y="0px"
	 width="36.3px" height="30px" viewBox="0 0 36.3 30" style="enable-background:new 0 0 36.3 30;" xml:space="preserve">
<style type="text/css">
<![CDATA[
	.st0{fill:#A5A5A5;}
]]>
</style>
<g>
	<path id="Big_Icon_1_" class="st0" d="M36.3,3.6c-1.3,0.6-2.7,1-4.2,1.1c0,0,0-0.1,0-0.1c1.6-0.9,2.8-2.4,3.4-4.1
		c-0.5,0.3-2.6,1.5-4.8,1.9C29.2,1,27.2,0,25,0c-4.7,0-7.6,3.9-7.6,7.6c0,0.3,0.1,1.5,0.2,1.6C11.2,9,5.6,6,2,1.3
		C-0.6,6,2.1,10.1,4,11.6c-1.1,0-2.1-0.2-3-0.7c0.2,3.6,2.8,6.6,6.3,7.3c-1.4,0.4-3,0.1-3.7-0.1c1,3,3.8,5.2,7.1,5.4
		C5.6,27.3,0.1,26.9,0,26.9C3.2,28.9,7,30,11.1,30c14.8-0.1,22.4-13.2,21.5-22.7C34.2,6.6,35.5,5.3,36.3,3.6z"/>
</g>
</svg>
