<?xml version="1.0" encoding="utf-8"?>
<!-- Generator: Adobe Illustrator 16.0.4, SVG Export Plug-In . SVG Version: 6.00 Build 0)  -->
<!DOCTYPE svg PUBLIC "-//W3C//DTD SVG 1.1//EN" "http://www.w3.org/Graphics/SVG/1.1/DTD/svg11.dtd">
<svg version="1.1" id="Layer_1" xmlns="http://www.w3.org/2000/svg" xmlns:xlink="http://www.w3.org/1999/xlink" x="0px" y="0px"
	 width="30px" height="30px" viewBox="0 0 30 30" style="enable-background:new 0 0 30 30;" xml:space="preserve">
<style type="text/css">
<![CDATA[
	.st0{fill:#A5A5A5;}
]]>
</style>
<path class="st0" d="M24.2,0H5.8C2.6,0,0,2.6,0,5.8v18.4C0,27.4,2.6,30,5.8,30h10.1V18.8h-3.8v-4.4h3.8v-3.2c0-3.7,2.3-5.7,5.6-5.7
	c1.6,0,3,0.1,3.4,0.2v3.9l-2.3,0c-1.8,0-2.2,0.9-2.2,2.1v2.8h4.3l-0.6,4.4h-3.7V30h3.8c3.2,0,5.8-2.6,5.8-5.8V5.8
	C30,2.6,27.4,0,24.2,0z"/>
</svg>
