<?xml version="1.0" encoding="utf-8"?>
<!-- Generator: Adobe Illustrator 19.0.1, SVG Export Plug-In . SVG Version: 6.00 Build 0)  -->
<svg version="1.1" id="Layer_1" xmlns="http://www.w3.org/2000/svg" xmlns:xlink="http://www.w3.org/1999/xlink" x="0px" y="0px"
	 viewBox="-291 381 32 32" style="enable-background:new -291 381 32 32;" xml:space="preserve">
<style type="text/css">
	.st0{fill:#A5A5A5;}
</style>
<g>
	<path class="st0" d="M-281.6,407.2c-0.9-0.2-1.7-0.4-2.7-0.4c-2.5,0-4.8,1-6.2,2.3c1,2.2,3.2,3.8,5.8,3.8h7.8c0-0.1,0-0.2,0-0.3
		c0-0.4,0-0.7-0.1-1.1C-277.6,409.8-279.4,408.8-281.6,407.2z"/>
	<path class="st0" d="M-279.8,393.4c-0.5-3.7-2.9-6.7-5.8-6.8c-2.8-0.1-4.7,2.8-4.2,6.4s3.1,6.2,6,6.3
		C-281,399.3-279.4,397-279.8,393.4z"/>
	<path class="st0" d="M-265.2,381h-19.6c-3.4,0-6.2,2.8-6.2,6.2v0.4c1.8-1.6,4.3-2.7,7-2.7c2.7,0,10.3,0,10.3,0l-2.3,2.4h-2.8
		c1.9,1.1,3,3.4,3,5.8c0,2.2-1.3,4.1-3.1,5.5c-1.7,1.4-2.1,1.9-2.1,3.1c0,1,2.1,2.4,3.1,3.2c3.3,2.6,4.1,4,4.1,7.2
		c0,0.2,0,0.5,0,0.7h8.6c3.4,0,6.2-2.8,6.2-6.2v-19.7C-259,383.8-261.8,381-265.2,381z M-260.8,392.5h-4.8v4.8h-2.3v-4.8h-4.8v-2.3
		h4.8v-4.8h2.3v4.8h4.8V392.5z"/>
	<path class="st0" d="M-291,406.8c1.5-0.7,3.3-1.3,5.3-1.3c0.6,0,1.3,0,1.9,0c-0.9-0.9-1.5-1.5-1.5-2.7c0-0.7,0.2-1.4,0.5-2
		c-0.3,0-0.6,0-1,0c-2.1,0-3.9-0.6-5.2-1.8v7.8H-291z"/>
</g>
</svg>
