<?xml version="1.0" encoding="utf-8"?>
<!-- Generator: Adobe Illustrator 16.0.4, SVG Export Plug-In . SVG Version: 6.00 Build 0)  -->
<!DOCTYPE svg PUBLIC "-//W3C//DTD SVG 1.1//EN" "http://www.w3.org/Graphics/SVG/1.1/DTD/svg11.dtd">
<svg version="1.1" id="Layer_1" xmlns="http://www.w3.org/2000/svg" xmlns:xlink="http://www.w3.org/1999/xlink" x="0px" y="0px"
	 width="30px" height="30px" viewBox="0 0 30 30" style="enable-background:new 0 0 30 30;" xml:space="preserve">
<style type="text/css">
<![CDATA[
	.st0{fill-rule:evenodd;clip-rule:evenodd;fill:#A5A5A5;}
]]>
</style>
<path class="st0" d="M3.9,0h22.3C28.3,0,30,1.7,30,3.9v22.3c0,2.1-1.7,3.9-3.9,3.9H3.9C1.7,30,0,28.3,0,26.1V3.9C0,1.7,1.7,0,3.9,0
	L3.9,0z M21.9,3.3c-0.7,0-1.3,0.6-1.3,1.4v3.2c0,0.7,0.6,1.4,1.3,1.4h3.4c0.7,0,1.4-0.6,1.4-1.4V4.7c0-0.7-0.6-1.4-1.4-1.4H21.9
	L21.9,3.3z M26.6,12.7H24c0.3,0.8,0.4,1.7,0.4,2.6c0,5-4.2,9-9.3,9s-9.3-4-9.3-9c0-0.9,0.1-1.8,0.4-2.6H3.3v12.7
	c0,0.7,0.5,1.2,1.2,1.2h20.9c0.7,0,1.2-0.5,1.2-1.2V12.7L26.6,12.7z M15,9.1c-3.3,0-6,2.6-6,5.8c0,3.2,2.7,5.8,6,5.8
	c3.3,0,6-2.6,6-5.8C21.1,11.7,18.4,9.1,15,9.1z"/>
</svg>
