<?xml version="1.0" encoding="utf-8"?>
<!-- Generator: Adobe Illustrator 19.0.1, SVG Export Plug-In . SVG Version: 6.00 Build 0)  -->
<svg version="1.1" id="Layer_1" xmlns="http://www.w3.org/2000/svg" xmlns:xlink="http://www.w3.org/1999/xlink" x="0px" y="0px"
	 viewBox="-284.8 383.8 32 26.4" style="enable-background:new -284.8 383.8 32 26.4;" xml:space="preserve">
<style type="text/css">
	.st0{fill:#A5A5A5;}
</style>
<g>
	<path id="Big_Icon_1_" class="st0" d="M-252.9,387c-1.1,0.5-2.4,0.9-3.7,1v-0.1c1.4-0.8,2.5-2.1,3-3.6c-0.4,0.3-2.3,1.3-4.2,1.7
		c-1.3-1.2-3.1-2.1-5-2.1c-4.1,0-6.7,3.4-6.7,6.7c0,0.3,0.1,1.3,0.2,1.4c-5.6-0.2-10.6-2.8-13.8-7c-2.3,4.1,0.1,7.8,1.8,9.1
		c-1,0-1.9-0.2-2.6-0.6c0.2,3.2,2.5,5.8,5.6,6.4c-1.2,0.4-2.6,0.1-3.3-0.1c0.9,2.6,3.3,4.6,6.3,4.8c-4.5,3.3-9.3,3-9.4,3
		c2.8,1.8,6.2,2.7,9.8,2.7c13-0.1,19.7-11.6,19-20C-254.7,389.6-253.6,388.4-252.9,387z"/>
</g>
</svg>
