<?xml version="1.0" encoding="utf-8"?>
<!-- Generator: Adobe Illustrator 19.0.1, SVG Export Plug-In . SVG Version: 6.00 Build 0)  -->
<svg version="1.1" id="Layer_1" xmlns="http://www.w3.org/2000/svg" xmlns:xlink="http://www.w3.org/1999/xlink" x="0px" y="0px"
	 viewBox="-291 381 32 32" style="enable-background:new -291 381 32 32;" xml:space="preserve">
<style type="text/css">
	.st0{fill:#A5A5A5;}
</style>
<path class="st0" d="M-265.2,381h-19.6c-3.4,0-6.2,2.8-6.2,6.2v19.6c0,3.4,2.8,6.2,6.2,6.2h19.6c3.4,0,6.2-2.8,6.2-6.2v-19.6
	C-259,383.8-261.8,381-265.2,381z M-280.7,407.2h-4.3v-13.7h4.3V407.2z M-282.8,391.7c-1.4,0-2.5-1.1-2.5-2.5c0-1.4,1.1-2.5,2.5-2.5
	c1.4,0,2.5,1.1,2.5,2.5C-280.3,390.6-281.4,391.7-282.8,391.7z M-264.8,407.2h-4.3v-6.6c0-1.6,0-3.6-2.2-3.6s-2.6,1.7-2.6,3.5v6.7
	h-4.3v-13.7h4.2v1.8h0.1c0.5-1.1,1.9-2.2,4.1-2.2c4.3,0,5.1,2.9,5.1,6.5v7.6H-264.8z"/>
</svg>
