<svg id="Layer_1" data-name="Layer 1" xmlns="http://www.w3.org/2000/svg" viewBox="0 0 160 108"><defs><style>.cls-1{fill:#646469;}</style></defs><title>hiaccounting-HOME copy</title><rect class="cls-1" x="33.54" y="48.41" width="41.65" height="3.21"/><rect class="cls-1" x="33.54" y="56.43" width="27.23" height="3.21"/><polygon class="cls-1" points="102.38 47.51 100.48 51.57 104.97 51.56 139.12 29.76 136.53 25.7 102.38 47.51"/><rect class="cls-1" x="81.53" y="33.71" width="23.86" height="3.21"/><path class="cls-1" d="M124.58,43.94V78.79H41.88V74.26H35.29v7.82a3.29,3.29,0,0,0,3.3,3.29h89.29a3.29,3.29,0,0,0,3.3-3.29V40.22a3.32,3.32,0,0,0,0-.45Z"/><path class="cls-1" d="M110.17,53.14V64.49H27.47V29.21h82.7v8.42l6.59-4.21V25.91a3.29,3.29,0,0,0-3.3-3.29H24.18a3.29,3.29,0,0,0-3.3,3.29V67.79a3.3,3.3,0,0,0,3.3,3.3h89.29a3.3,3.3,0,0,0,3.3-3.3V48.94Z"/></svg>