<svg id="Layer_1" data-name="Layer 1" xmlns="http://www.w3.org/2000/svg" viewBox="0 0 160 108"><defs><style>.cls-1{fill:#646469;}</style></defs><title>hiaccounting-HOME copy</title><rect class="cls-1" x="59.32" y="30.39" width="37.57" height="2.34"/><rect class="cls-1" x="59.32" y="36.42" width="37.57" height="2.34"/><rect class="cls-1" x="59.32" y="42.46" width="28.7" height="2.34"/><rect class="cls-1" x="59.32" y="54.53" width="37.57" height="2.34"/><rect class="cls-1" x="59.32" y="60.57" width="37.57" height="2.34"/><rect class="cls-1" x="59.32" y="66.6" width="28.7" height="2.34"/><rect class="cls-1" x="66.23" y="85.77" width="21.79" height="2.34"/><polygon class="cls-1" points="93.81 83.3 91.71 86.94 95.89 86.94 125.22 70.24 123.15 66.6 93.81 83.3"/><polygon class="cls-1" points="107.78 84.75 107.78 98.21 48.16 98.21 48.16 18.61 107.78 18.61 107.78 70.77 112.13 68.29 112.13 14.25 43.8 14.25 43.8 102.56 112.13 102.56 112.13 82.28 107.78 84.75"/><polygon class="cls-1" points="45.55 89.4 39.13 89.4 39.13 9.79 98.75 9.79 98.75 16.35 103.1 16.63 103.1 5.43 34.78 5.43 34.78 93.75 45.71 93.75 45.55 89.4"/></svg>