<?xml version="1.0" encoding="utf-8"?>
<!-- Generator: Adobe Illustrator 16.0.4, SVG Export Plug-In . SVG Version: 6.00 Build 0)  -->
<!DOCTYPE svg PUBLIC "-//W3C//DTD SVG 1.1//EN" "http://www.w3.org/Graphics/SVG/1.1/DTD/svg11.dtd">
<svg version="1.1" id="Layer_1" xmlns="http://www.w3.org/2000/svg" xmlns:xlink="http://www.w3.org/1999/xlink" x="0px" y="0px"
	 width="397.6px" height="62.1px" viewBox="0 0 397.6 62.1" style="enable-background:new 0 0 397.6 62.1;" xml:space="preserve">
<style type="text/css">
<![CDATA[
	.st0{fill:#646569;}
]]>
</style>
<g>
	<g>
		<g>
			<g>
				<path class="st0" d="M233.9,18.3c0-2.2-0.2-3.9-3.1-4.1l-0.6,0v-1.3h12v1.3h-0.5c-1.2,0.1-2.4,0.2-3,1.4
					c-0.4,0.9-0.5,2.3-0.5,3.5v6.3h15.2v-7c0-2.2-0.2-3.9-3.2-4.2l-0.6,0v-1.3h11.9v1.3H261c-1.1,0.1-2.4,0.3-2.9,1.4
					c-0.4,0.8-0.5,2-0.5,3.1v17.7c0,2.2,0.2,3.9,3.2,4.1l0.6,0v1.3h-11.9v-1.3h0.4c1.1-0.1,2.3-0.3,2.9-1.4c0.4-0.9,0.5-2.3,0.5-3.4
					v-8.5h-15.2v9.1c0,2.3,0.2,4,3.2,4.2l0.7,0v1.3h-12v-1.3h0.4c1.1-0.1,2.3-0.3,2.9-1.4c0.4-0.8,0.4-2,0.4-3v-0.9V18.3z"/>
				<path class="st0" d="M271,36.4c0,2.3,0.4,3.9,3,4.1h0.5v1.3h-11.2v-1.3h0.4c2.8-0.2,3.2-1.5,3.2-4.1v-8.8c0-2.4-0.4-3.9-3.1-4.1
					h-0.7v-1.3l6.5-0.9h1.3V36.4z M269,19.1c-1.5,0-2.5-1.2-2.5-2.6c0-1.3,1.2-2.5,2.6-2.5c1.5,0,2.5,1.2,2.5,2.6
					C271.6,18,270.3,19.1,269,19.1z"/>
				<path class="st0" d="M303,21.9l-1.6,0.5c-2.5-3.9-6.1-8.1-11.2-8.1c-6.8,0-9.3,7.3-9.3,13c0,3,0.6,6,2.1,8.6
					c1.7,2.8,4.6,4.5,7.9,4.5c4.2,0,8.5-2.3,8.5-7c0-2.9-1.4-3.8-4.1-4.1V28H307v1.3l-0.3,0c-1.1,0.1-2.2,0.3-2.8,1.4
					c-0.4,0.8-0.4,2-0.4,3v8.1h-2l-1.3-2.9c-2.7,2.3-6,3.7-9.5,3.7c-8.7,0-14.7-6.7-14.7-15.2c0-3.8,1.1-7.4,3.7-10.3
					c2.6-2.9,6.5-4.8,10.4-4.8c2.9,0,6.1,1,8.3,2.8l0.8-2h1.3L303,21.9z"/>
				<path class="st0" d="M314.6,36.4c0.1,2.4,0.4,3.9,3.1,4.1l0.7,0v1.3h-11.7v-1.3h0.5c2.8-0.2,3.3-1.5,3.3-4.1v-8.8
					c0-2.4-0.4-3.9-3.1-4.1h-0.7v-1.3l6.5-0.9h1.4v3.2c1.9-1.9,4.3-3.6,7.1-3.6c1.4,0,3.1,0.6,3.1,2.3c0,1.3-1,2.3-2.3,2.3
					c-2,0-2.5-1.4-3.8-1.4c-1.4,0-3.2,1.3-4.2,2.3V36.4z"/>
				<path class="st0" d="M342.8,23.5c2.1,2,3.1,5.2,3.1,8c0,6.4-4,10.6-10.4,10.6c-6.3,0-10.3-4.2-10.3-10.4
					c0-6.3,3.7-10.9,10.2-10.9C338,20.8,340.9,21.6,342.8,23.5z M335.6,22.5c-4.8,0-6,5.2-6,9.1c0,4.1,1.2,8.8,6.2,8.8
					c4.6,0,5.7-4.8,5.7-8.5c0-1.9-0.2-4.4-1.1-6.2c-0.9-1.8-2.7-3.2-4.8-3.2H335.6z"/>
				<path class="st0" d="M369.9,36.4c0,2.3,0.3,4.1,2.6,4.1h0.3l0.6,0v1.3h-7.6v-3.5c-2.4,2.3-5.5,3.9-9.1,3.9
					c-1.8,0-3.9-0.5-5.1-1.8c-1.3-1.4-1.3-3-1.3-4.8v-7.9c0-2.4-0.4-3.9-3.1-4.1h-0.7v-1.3l6.5-0.9h1.4v14.2c0,1,0.1,2.3,0.5,3.1
					c0.6,1.1,2,1.6,3.2,1.6c3,0,5.8-1.7,7.8-3.6v-8.9c0-2.4-0.4-3.9-3.1-4.1h-0.7v-1.3l6.5-0.9h1.4V36.4z"/>
				<path class="st0" d="M381.6,46c0,2.6,0.4,3.9,3.2,4.1l0.8,0v1.3h-11.7v-1.3h0.4c2.8-0.2,3.2-1.6,3.2-4.1V27.6
					c0-2.4-0.4-3.9-3.1-4.1h-0.7v-1.3l6.5-0.9h1.4v2.7c1.7-2,4-3.1,6.7-3.1c6.2,0,9.3,4.8,9.3,10.6c0,5.9-3.4,10.7-9.7,10.7
					c-2.4,0-4.5-0.7-6.4-2.1V46z M381.6,37.9c1.4,1.3,3.1,2.2,5.1,2.2c4.9,0,6.5-4.1,6.5-8.4c0-4-1.1-8.7-6.1-8.7
					c-2.3,0-4.4,1.4-5.6,3.2V37.9z"/>
			</g>
			<g>
				<path class="st0" d="M194.8,49.9h-0.2c-1,0-2-0.2-3-0.7c1-0.6,1.9-1.4,2.7-2.2c0.1-0.1,0.2-0.2,0.3-0.3c0.1,0.1,0.2,0.2,0.3,0.3
					c0.8,0.8,1.7,1.5,2.7,2.1c-0.2,0.1-0.4,0.2-0.7,0.3l0.2,0.1l-0.3,0.1l0.1-0.2c0,0-0.1,0-0.2,0.1l-0.1,0c-0.1,0-0.2,0.1-0.3,0.1
					l0,0h0c0,0-0.1,0-0.1,0l-0.1,0C195.6,49.8,195.2,49.8,194.8,49.9L194.8,49.9L194.8,49.9z M181.1,44.9c-1-0.4-1.9-0.9-2.6-1.7
					c-0.7-0.7-1.3-1.6-1.6-2.6c1.1,0.3,2.3,0.4,3.5,0.4c0.1,0,0.3,0,0.4,0c0,0.1,0,0.3,0,0.4C180.7,42.6,180.9,43.7,181.1,44.9
					L181.1,44.9z M208.1,44.9c0.3-1.1,0.4-2.3,0.4-3.4v0v0c0-0.1,0-0.3,0-0.4c0.1,0,0.3,0,0.4,0c1.2,0,2.3-0.1,3.5-0.4
					c-0.1,0.2-0.2,0.4-0.3,0.6l0.2-0.1l-0.1,0.2l-0.1-0.2c0,0,0,0.1,0,0.1l-0.1,0.1l0,0l-0.1,0.1c-0.1,0.1-0.1,0.2-0.2,0.3l0,0l0,0
					c0,0.1,0,0.1-0.1,0.1l0,0.1c-0.3,0.4-0.6,0.8-0.9,1.1C209.9,43.9,209.1,44.5,208.1,44.9L208.1,44.9z M187.4,44.5
					c-0.4-1-0.5-2-0.5-3.1c0-0.8,0.1-1.6,0.3-2.4c0.3,0,0.5,0.1,0.8,0.1c0.6,0,1.2-0.1,1.8-0.3c0.4,0.8,1,1.5,1.7,2
					c-0.4,0.7-0.9,1.4-1.4,1.9C189.2,43.4,188.4,44,187.4,44.5L187.4,44.5z M201.8,44.5c-1-0.5-1.8-1.1-2.6-1.8
					c-0.6-0.6-1.1-1.2-1.5-1.9c0.7-0.5,1.3-1.2,1.7-2c0.6,0.2,1.2,0.3,1.7,0.3c0.3,0,0.6,0,0.8-0.1c0.2,0.8,0.3,1.6,0.3,2.3v0.1
					C202.3,42.5,202.1,43.5,201.8,44.5L201.8,44.5z M180.3,34.9c-1.1,0-2.1-0.2-3.1-0.5c0.4-1,1.1-1.8,1.8-2.6
					c0.6-0.6,1.2-1.1,2-1.5c0.5,0.7,1.2,1.3,1.9,1.7c-0.2,0.6-0.3,1.2-0.3,1.8c0,0.3,0,0.6,0.1,0.8
					C181.9,34.8,181.1,34.9,180.3,34.9L180.3,34.9z M208.9,34.9c-0.8,0-1.6-0.1-2.4-0.3c0-0.3,0.1-0.5,0.1-0.8
					c0-0.6-0.1-1.2-0.3-1.7c0.8-0.4,1.5-1,2-1.7c0.7,0.4,1.4,0.9,1.9,1.5c0.7,0.8,1.4,1.6,1.8,2.6C211,34.7,209.9,34.9,208.9,34.9
					L208.9,34.9z M172.5,30.1c-0.4-0.9-0.7-2-0.7-3s0.2-2,0.7-3c0.6,1,1.3,1.9,2.2,2.7c0.1,0.1,0.2,0.2,0.3,0.3
					c-0.1,0.1-0.2,0.2-0.3,0.3l0,0C173.9,28.2,173.1,29.1,172.5,30.1L172.5,30.1z M216.6,30.1c-0.6-1-1.3-1.9-2.2-2.7
					c-0.1-0.1-0.2-0.2-0.3-0.3c0.1-0.1,0.2-0.2,0.3-0.3c0.8-0.8,1.6-1.7,2.2-2.7c0,0.1,0.1,0.1,0.1,0.2l0,0.1l0,0.1
					c0,0,0,0.1,0.1,0.1l0,0l0,0c0,0.1,0.1,0.2,0.1,0.2l0,0.1l0,0.1c0,0.1,0.1,0.2,0.1,0.2l0,0l0,0c0,0.1,0,0.2,0,0.2v0l0,0
					c0.1,0.4,0.1,0.9,0.1,1.4v0v0C217.3,28.2,217.1,29.2,216.6,30.1L216.6,30.1z M181,24c-0.7-0.4-1.4-0.9-1.9-1.5
					c-0.8-0.8-1.4-1.6-1.8-2.6c1-0.4,2-0.5,3.1-0.5h0c0.8,0,1.6,0.1,2.4,0.3c0,0.3-0.1,0.6-0.1,0.8c0,0.6,0.1,1.2,0.3,1.7
					C182.2,22.7,181.5,23.3,181,24L181,24z M208.2,24c-0.5-0.7-1.2-1.3-2-1.7c0.2-0.6,0.3-1.2,0.3-1.8c0-0.3,0-0.5-0.1-0.8
					c0.8-0.2,1.6-0.3,2.4-0.3c1.1,0,2.1,0.2,3.1,0.5c-0.4,0.9-1.1,1.8-1.8,2.6C209.6,23.1,208.9,23.6,208.2,24L208.2,24z
					 M189.7,15.5c-0.5-0.2-1.1-0.3-1.7-0.3c-0.3,0-0.6,0-0.9,0.1c-0.2-0.8-0.3-1.6-0.3-2.4c0-1.1,0.2-2.1,0.5-3.1
					c1,0.5,1.8,1.1,2.6,1.8c0.5,0.5,1,1.2,1.4,1.9C190.7,14,190.1,14.7,189.7,15.5L189.7,15.5z M199.4,15.5c-0.4-0.8-1-1.5-1.7-2
					c0.4-0.7,0.9-1.4,1.5-1.9c0.8-0.8,1.6-1.4,2.6-1.8c0.3,1,0.5,2,0.5,3.1c0,0.8-0.1,1.6-0.3,2.4c-0.3,0-0.5-0.1-0.8-0.1
					C200.6,15.2,200,15.3,199.4,15.5L199.4,15.5z M176.9,13.6c0.4-1,0.9-1.9,1.6-2.6c0.5-0.5,1.1-1,1.8-1.3h0l0,0l0.1,0
					c0.1,0,0.1-0.1,0.2-0.1c0.1,0,0.1-0.1,0.2-0.1c0.1,0,0.1,0,0.1-0.1c0.1,0,0.1,0,0.2-0.1c-0.3,1.1-0.4,2.3-0.4,3.5
					c0,0.1,0,0.3,0,0.4c-0.1,0-0.2,0-0.3,0h0h0h0h-0.1C179.1,13.3,178,13.4,176.9,13.6L176.9,13.6z M212.3,13.6
					c-1.1-0.3-2.3-0.4-3.4-0.4c-0.1,0-0.3,0-0.4,0c0-0.1,0-0.3,0-0.4c0-1.2-0.1-2.3-0.4-3.5c0.1,0,0.1,0.1,0.2,0.1l0.1,0.1l0.1,0
					c0.1,0,0.1,0,0.2,0.1l0,0l0,0c0.1,0,0.2,0.1,0.2,0.1c0,0,0.1,0,0.1,0.1l0.1,0c0.1,0,0.1,0.1,0.2,0.1l0,0l0,0
					c0.1,0,0.1,0.1,0.2,0.1l0,0l0,0c0.4,0.3,0.8,0.6,1.1,0.9C211.4,11.8,211.9,12.7,212.3,13.6L212.3,13.6z M208,9.3
					c0-0.1,0-0.1-0.1-0.2l0-0.1l0.4,0.1L208,9.3L208,9.3z M194.6,7.5c-0.1-0.1-0.2-0.2-0.3-0.3c-0.8-0.8-1.7-1.6-2.7-2.2
					c1-0.4,2-0.7,3-0.7c0.7,0,1.5,0.1,2.2,0.4l0,0l0,0l0,0c0.1,0,0.2,0.1,0.3,0.1l0,0c0.1,0,0.2,0.1,0.2,0.1c0,0,0.1,0,0.1,0l0,0
					l0,0c0.1,0,0.1,0.1,0.2,0.1c-1,0.6-1.9,1.3-2.7,2.2C194.8,7.3,194.7,7.4,194.6,7.5L194.6,7.5z"/>
				<path class="st0" d="M194.6,54.2L194.6,54.2c-3.1,0-6.1-1.2-8.3-3.5c-0.3-0.3-0.7-0.7-1-1.1c-0.5,0.1-1,0.1-1.5,0.1
					c-3.2,0-6.2-1.2-8.4-3.4c-2.3-2.3-3.6-5.5-3.4-8.9c0-0.3,0-0.6,0.1-1c-0.4-0.3-0.8-0.7-1.1-1c-2.3-2.3-3.5-5.2-3.5-8.3
					c0-3.3,1.4-6.4,3.9-8.7c0.2-0.2,0.5-0.4,0.7-0.6c0-0.3-0.1-0.6-0.1-1c-0.1-3.4,1.1-6.6,3.4-8.9c0.8-0.8,1.8-1.6,2.9-2.1l0.1-0.1
					l0.1,0l0.2-0.1c0.2-0.1,0.3-0.1,0.4-0.2l0,0l0,0l0.1-0.1l0.1-0.1c0.1,0,0.2-0.1,0.3-0.1l0.1,0l0,0l0.1,0l0,0h0l0.1,0
					c0.1,0,0.3-0.1,0.4-0.1c0.2-0.1,0.4-0.1,0.6-0.1l0.1,0l0.1,0l0,0l0,0l0.2-0.1h0h0l0.1,0h0.1h0c0.1,0,0.3,0,0.4-0.1
					c0.5-0.1,1.1-0.1,1.6-0.1c0.5,0,1,0,1.5,0.1c0.2-0.3,0.4-0.5,0.6-0.7c2.3-2.5,5.4-3.9,8.7-3.9c1.2,0,2.4,0.2,3.6,0.6l0.1,0
					l0.1,0l0.2,0.1c0.2,0.1,0.3,0.1,0.5,0.2l0.2,0.1l0.1,0.1c0.1,0,0.2,0.1,0.2,0.1l0.1,0l0.1,0l0.1,0l0,0l0,0l0.1,0.1l0,0l0,0
					c0.1,0,0.2,0.1,0.3,0.2c0.2,0.1,0.4,0.2,0.6,0.4l0,0l0.1,0l0,0l0,0l0.2,0.1l0,0l0,0l0.1,0.1l0,0l0,0c0.1,0.1,0.2,0.2,0.4,0.3
					c0.4,0.3,0.8,0.7,1.2,1.1c0.3,0.3,0.7,0.7,1,1.1c0.5-0.1,1-0.1,1.5-0.1c0.9,0,1.9,0.1,2.8,0.3l0.1,0h0l0,0l0,0l0.1,0l0,0
					l0.3,0.1h0l0,0l0,0l0.1,0l0.4,0.1l0.1,0l0.1,0c0.2,0.1,0.4,0.1,0.5,0.2c0.2,0.1,0.3,0.1,0.4,0.2c0.1,0.1,0.3,0.1,0.4,0.2l0.1,0
					l0.1,0.1c0.2,0.1,0.3,0.2,0.5,0.3c0.2,0.1,0.3,0.2,0.5,0.3l0,0l0,0c0.6,0.4,1.2,0.9,1.7,1.4c2.3,2.3,3.5,5.5,3.4,8.9
					c0,0.3,0,0.6-0.1,0.9c0.4,0.3,0.8,0.7,1.2,1c0.7,0.7,1.3,1.4,1.7,2.2l0,0.1l0,0l0,0l0,0l0,0l0,0l0,0l0.2,0.2l0,0l0,0l0,0.1
					l0.1,0.1c0,0.1,0.1,0.2,0.2,0.3l0,0l0,0l0,0l0,0.1l0,0.1c0.1,0.2,0.2,0.4,0.2,0.5c0.1,0.2,0.1,0.3,0.2,0.4l0,0.1
					c0,0.1,0.1,0.2,0.1,0.3l0,0.1l0,0.1c0.1,0.2,0.1,0.4,0.1,0.5c0.1,0.2,0.1,0.4,0.1,0.6v0l0,0c0.1,0.7,0.2,1.4,0.2,2.2
					c0,3.3-1.4,6.4-3.9,8.7c-0.2,0.2-0.5,0.4-0.7,0.6c0.3,2.3-0.1,4.7-1.1,6.7l0,0.1h0v0l0,0l0,0c0,0,0,0.1-0.1,0.1l0,0.1l0,0.1
					l0,0.1c-0.1,0.2-0.2,0.3-0.3,0.5c-0.1,0.1-0.1,0.2-0.1,0.2l0,0l-0.1,0.1c-0.5,0.7-0.9,1.3-1.5,1.9c-2.2,2.2-5.2,3.4-8.3,3.4
					c-0.5,0-1,0-1.5-0.1c-1.4,1.9-3.4,3.2-5.5,4l-0.1,0l0,0l0,0h0l-0.2,0.1l-0.1,0l-0.1,0c-0.2,0.1-0.3,0.1-0.5,0.2
					c-0.1,0-0.2,0-0.3,0.1l-0.1,0C196.2,54.2,195.4,54.2,194.6,54.2L194.6,54.2z M188.2,48.9c1.8,1.7,4,2.7,6.4,2.7
					c0.6,0,1.2-0.1,1.9-0.2l0.1,0c0.1,0,0.1,0,0.2,0c0.2,0,0.3-0.1,0.5-0.1l0.1,0l0.1,0l0.1,0h0l0,0c1.3-0.5,2.5-1.2,3.5-2.2
					c-1.8-0.7-3.5-1.7-4.9-3.1c-0.1-0.1-0.2-0.2-0.4-0.4l-1.2-1.3l-1.2,1.3c-0.1,0.1-0.2,0.2-0.4,0.4
					C191.7,47.2,190,48.3,188.2,48.9L188.2,48.9z M174.6,38c0,2.5,0.9,4.7,2.6,6.4c1.7,1.7,4,2.6,6.4,2.6c-0.8-1.8-1.2-3.7-1.2-5.7
					c0-0.2,0-0.3,0-0.5l0.1-1.7l-1.7,0h-0.1c-0.1,0-0.3,0-0.4,0C178.4,39.3,176.4,38.8,174.6,38L174.6,38z M206.6,39.2l0.1,1.7
					c0,0.2,0,0.3,0,0.5c0,2-0.4,3.9-1.3,5.7c2.5,0,4.8-0.9,6.4-2.6c0.4-0.4,0.8-0.9,1.2-1.4l0,0l0,0c0-0.1,0.1-0.1,0.1-0.2
					c0.1-0.1,0.2-0.3,0.2-0.4l0.1-0.1c0-0.1,0.1-0.1,0.1-0.2l0-0.1c0.6-1.2,0.9-2.6,0.9-4c-1.8,0.8-3.7,1.2-5.7,1.2
					c-0.2,0-0.3,0-0.5,0L206.6,39.2L206.6,39.2z M185.9,37l-0.4,1.4c-0.3,1-0.4,2-0.4,3c0,1.9,0.5,3.7,1.4,5.3
					c1.8-0.5,3.4-1.5,4.7-2.8c0.7-0.7,1.3-1.5,1.8-2.4l0.7-1.3l-1.2-0.8c-1-0.7-1.6-1.8-1.6-3c0-0.2,0-0.5,0.1-0.7
					c-0.1,0.2-0.3,0.4-0.4,0.5c-0.7,0.7-1.6,1.1-2.6,1.1c-0.2,0-0.4,0-0.6-0.1L185.9,37L185.9,37z M195.5,40.2l0.7,1.3
					c0.5,0.9,1.1,1.7,1.8,2.4c1.3,1.3,2.9,2.3,4.7,2.8c0.9-1.6,1.4-3.4,1.4-5.3c0-1-0.1-2.1-0.4-3l-0.4-1.4l-1.4,0.3
					c-0.2,0-0.4,0.1-0.7,0.1c-1,0-1.9-0.4-2.6-1.1c-0.1-0.1-0.3-0.3-0.4-0.5c0.1,0.2,0.1,0.4,0.1,0.7c0,1.2-0.6,2.3-1.6,3
					L195.5,40.2L195.5,40.2z M175,35.2c1.6,0.9,3.4,1.4,5.3,1.4c0,0,0,0,0,0c1,0,2-0.2,3-0.4l1.4-0.4l-0.3-1.4
					c-0.2-1.2,0.2-2.4,1-3.2c0.2-0.1,0.3-0.3,0.5-0.4c-0.2,0-0.4,0.1-0.6,0.1c-1.2,0-2.3-0.6-3-1.6l-0.8-1.2l-1.3,0.7
					c-0.9,0.5-1.7,1.1-2.5,1.8C176.5,31.9,175.5,33.5,175,35.2L175,35.2z M204.4,35.8l1.4,0.4c1,0.3,2,0.4,3,0.4
					c1.9,0,3.7-0.5,5.3-1.4c-0.5-1.8-1.4-3.4-2.8-4.7c-0.7-0.7-1.5-1.3-2.5-1.8l-1.3-0.7l-0.8,1.2c-0.7,1-1.8,1.6-3,1.6
					c-0.2,0-0.4,0-0.6-0.1c0.1,0.1,0.3,0.2,0.4,0.4c0.8,0.8,1.2,2.1,1,3.2L204.4,35.8L204.4,35.8z M188,30.1c1,0,1.9,0.4,2.6,1.1
					c0.9,0.9,1.2,2.1,1,3.3c0.7-1,1.8-1.6,3-1.6c1.2,0,2.3,0.6,3,1.5c0-0.2-0.1-0.4-0.1-0.7c0-1,0.4-1.9,1.1-2.6
					c0.7-0.7,1.6-1.1,2.6-1.1c0.2,0,0.4,0,0.6,0c-0.9-0.7-1.5-1.7-1.5-2.9c0-1.2,0.6-2.3,1.6-3c-0.2,0-0.4,0-0.6,0
					c-1,0-1.9-0.4-2.6-1.1c-0.7-0.7-1.1-1.6-1.1-2.6c0-0.2,0-0.4,0.1-0.7c-0.1,0.2-0.3,0.4-0.4,0.5c-0.7,0.7-1.6,1.1-2.6,1.1
					c-1.2,0-2.3-0.6-2.9-1.5c0,0.2,0.1,0.4,0.1,0.6c0,1-0.4,1.9-1.1,2.6c-0.7,0.7-1.6,1.1-2.6,1.1c-0.2,0-0.4,0-0.6,0
					c0.2,0.1,0.3,0.2,0.4,0.4c0.7,0.7,1.1,1.6,1.1,2.6c0,1-0.4,1.9-1.1,2.6c-0.2,0.2-0.3,0.3-0.5,0.4
					C187.6,30.1,187.8,30.1,188,30.1L188,30.1z M172.8,20.7c-1.7,1.8-2.7,4-2.7,6.4s0.9,4.7,2.7,6.4c0.7-1.8,1.7-3.5,3.1-4.9
					c0.1-0.1,0.2-0.2,0.4-0.3l1.2-1.2l-1.2-1.2c-0.1-0.1-0.2-0.2-0.4-0.3C174.5,24.2,173.5,22.5,172.8,20.7L172.8,20.7z M211.6,27.1
					l1.3,1.2c0.1,0.1,0.2,0.2,0.4,0.4c1.4,1.4,2.5,3.1,3.1,4.9c1.7-1.8,2.7-4,2.7-6.4c0-0.6-0.1-1.2-0.2-1.7c0-0.2-0.1-0.3-0.1-0.4
					c0-0.1-0.1-0.2-0.1-0.3l0-0.1l0,0l0,0l0-0.1c0-0.1-0.1-0.2-0.1-0.3c0-0.1-0.1-0.2-0.1-0.3l0-0.1l0,0c0-0.1-0.1-0.2-0.1-0.3l0,0
					l0,0c-0.1-0.2-0.2-0.4-0.3-0.6l0,0l0,0l-0.1-0.2c-0.4-0.6-0.8-1.2-1.4-1.7c-0.7,1.8-1.7,3.5-3.1,4.9c-0.1,0.1-0.2,0.2-0.4,0.3
					L211.6,27.1L211.6,27.1z M175,19c0.5,1.8,1.4,3.4,2.8,4.7c0.7,0.7,1.5,1.3,2.4,1.8l1.3,0.7l0.8-1.2c0.7-1,1.8-1.6,3-1.6
					c0.2,0,0.4,0,0.6,0c-0.2-0.1-0.3-0.2-0.4-0.4c-0.9-0.8-1.2-2-1-3.2l0.3-1.4l-1.4-0.4c-1-0.3-2-0.4-3-0.4
					C178.4,17.6,176.6,18.1,175,19L175,19z M203.8,23.5c1.2,0,2.3,0.6,3,1.6l0.8,1.2l1.3-0.7c0.9-0.5,1.8-1.1,2.5-1.8
					c1.3-1.3,2.3-3,2.8-4.7c-1.6-0.9-3.4-1.4-5.3-1.4c-1,0-2,0.1-3,0.4l-1.4,0.4l0.3,1.4c0.2,1.2-0.1,2.4-1,3.2
					c-0.2,0.2-0.3,0.3-0.5,0.4C203.4,23.5,203.6,23.5,203.8,23.5L203.8,23.5z M195.5,14l1.2,0.8c1,0.7,1.6,1.8,1.6,3
					c0,0.2,0,0.5-0.1,0.7c0.1-0.2,0.3-0.4,0.4-0.5c0.7-0.7,1.6-1.1,2.6-1.1c0.2,0,0.5,0,0.7,0.1l1.4,0.3l0.4-1.4c0.3-1,0.4-2,0.4-3
					c0-1.9-0.5-3.7-1.4-5.3c-1.8,0.5-3.4,1.4-4.7,2.7c-0.7,0.7-1.3,1.6-1.8,2.4L195.5,14L195.5,14z M188.1,17c1,0,1.9,0.4,2.6,1.1
					c0.1,0.1,0.3,0.3,0.4,0.4c0-0.2,0-0.4,0-0.6c0-1.2,0.6-2.3,1.6-3l1.2-0.8l-0.7-1.3c-0.5-0.9-1.1-1.7-1.8-2.4
					c-1.3-1.3-2.9-2.3-4.7-2.8c-0.9,1.6-1.4,3.4-1.4,5.3c0,1,0.1,2,0.4,3l0.4,1.4l1.4-0.3C187.6,17,187.8,17,188.1,17L188.1,17z
					 M181.7,7.4L181.7,7.4c-0.2,0-0.4,0.1-0.5,0.1c-0.1,0-0.2,0-0.2,0.1l-0.1,0l-0.1,0c0,0-0.1,0-0.1,0l0,0c-0.1,0-0.1,0-0.2,0.1
					l-0.1,0l0,0l-0.1,0c-0.1,0-0.2,0.1-0.3,0.1l0,0l0,0l0,0l0,0l-0.1,0l-0.1,0l-0.1,0l0,0c-0.9,0.4-1.6,1-2.3,1.6
					c-1.7,1.7-2.6,4-2.6,6.4c1.8-0.8,3.7-1.2,5.7-1.2h0.1c0.1,0,0.3,0,0.4,0l1.7,0.1l-0.1-1.7c0-0.2,0-0.3,0-0.5
					c0-2,0.4-3.9,1.2-5.7c-0.4,0-0.8,0-1.2,0.1c-0.1,0-0.2,0-0.3,0l0,0h0l-0.1,0l-0.1,0l-0.1,0L181.7,7.4L181.7,7.4z M208.9,15
					L208.9,15c2,0,3.9,0.4,5.7,1.3c0-2.5-0.9-4.7-2.6-6.4c-0.4-0.4-0.9-0.8-1.4-1.1c-0.1-0.1-0.2-0.1-0.3-0.2
					c-0.1-0.1-0.2-0.1-0.3-0.2l0,0l-0.1,0l0,0l0,0l-0.1,0c-0.1,0-0.2-0.1-0.3-0.1c-0.1-0.1-0.2-0.1-0.3-0.1l-0.1,0l-0.1,0
					c-0.1,0-0.2-0.1-0.3-0.1l0,0l0,0c-0.2-0.1-0.5-0.1-0.7-0.2h0l0,0l-0.2,0c-0.7-0.2-1.4-0.3-2.2-0.3c0.8,1.8,1.2,3.7,1.2,5.7
					c0,0.2,0,0.3,0,0.5l-0.1,1.7l1.7-0.1C208.5,15,208.7,15,208.9,15L208.9,15z M188.2,5.3c1.8,0.7,3.5,1.7,4.9,3.1
					c0.1,0.1,0.2,0.2,0.3,0.4l1.2,1.3l1.2-1.3c0.1-0.1,0.2-0.3,0.4-0.4c1.4-1.4,3.1-2.4,4.9-3.1c-0.3-0.3-0.6-0.6-1-0.8
					c-0.1-0.1-0.2-0.1-0.3-0.2l0,0l0,0l-0.1-0.1l-0.1-0.1l-0.1,0L199.3,4l0,0c-0.1-0.1-0.3-0.2-0.4-0.3c-0.1,0-0.1-0.1-0.2-0.1
					l-0.1,0l-0.1-0.1c0,0-0.1,0-0.1,0h0l0,0c-0.1,0-0.1-0.1-0.2-0.1l-0.1,0l0,0l-0.1,0c-0.1,0-0.2-0.1-0.3-0.1l0,0l0,0
					c0,0-0.1,0-0.1,0l0,0l-0.1,0c-0.9-0.3-1.8-0.4-2.8-0.4C192.2,2.6,189.9,3.6,188.2,5.3L188.2,5.3z"/>
			</g>
			<path class="st0" d="M239.7,51.4l-0.5,0.2c-0.6-1.2-1.8-2.2-3.2-2.2c-0.5,0-0.6,0.3-0.6,0.7v6.7c0,0.4,0,0.8,0.1,1.1
				c0.2,0.5,0.7,0.5,1.1,0.5h0.3v0.5h-4.5v-0.4l0.3,0c0.4,0,0.9,0,1.1-0.5c0.1-0.3,0.2-0.8,0.2-1.2v-6.5c0-0.5,0-0.7-0.6-0.7
				c-1.5,0-2.6,0.9-3.2,2.2l-0.5-0.2l0.8-2.6h8.5L239.7,51.4z"/>
			<path class="st0" d="M248.1,56.9c0,0.8,0.1,1.3,1,1.4h0.2v0.4h-3.9v-0.4h0.2c1,0,1.1-0.5,1.1-1.4v-3.1c0-0.3,0-0.8-0.2-1.1
				c-0.2-0.3-0.6-0.4-1-0.4c-0.8,0-2,0.6-2.6,1.2v3.4c0,0.8,0.1,1.4,1,1.4h0.2v0.4h-3.9v-0.4h0.2c1,0,1.2-0.5,1.2-1.4v-6.3
				c0-0.8-0.1-1.3-1.1-1.4l-0.2,0v-0.4c0.7-0.1,1.4-0.2,2.1-0.5h0.6v4.5c0.8-0.7,1.8-1.2,3-1.2c0.5,0,1.2,0.2,1.6,0.5
				c0.6,0.4,0.6,1,0.6,1.7v0.1V56.9z"/>
			<path class="st0" d="M252.3,54.6l0,0.7c0,0.7,0.3,1.5,0.6,2c0.4,0.6,1.1,0.9,1.9,0.9c1,0,1.7-0.5,2.2-1.3l0.5,0.2
				c-0.5,1.2-1.7,1.8-3,1.8c-1,0-1.8-0.3-2.6-0.9c-0.7-0.7-1.1-1.7-1.1-2.7c0-2.1,1.3-3.6,3.5-3.7h0c1.7,0,3.1,1.2,3.1,2.9v0.1
				H252.3z M255.9,54c0-1.1-0.7-1.8-1.7-1.8c-1,0-1.7,0.9-1.8,1.8H255.9z"/>
			<path class="st0" d="M265.7,50.7c0-0.8-0.1-1.3-1.1-1.4l-0.2,0v-0.4h4.1v0.4h-0.2c-0.4,0-0.8,0.1-1,0.5c-0.1,0.3-0.2,0.8-0.2,1.2
				v2.2h5.3v-2.4c0-0.8-0.1-1.4-1.1-1.4l-0.2,0v-0.4h4.1v0.4h-0.1c-0.4,0-0.8,0.1-1,0.5c-0.1,0.3-0.2,0.7-0.2,1.1v6.1
				c0,0.8,0.1,1.3,1.1,1.4l0.2,0v0.4h-4.1v-0.4h0.1c0.4,0,0.8-0.1,1-0.5c0.1-0.3,0.2-0.8,0.2-1.2v-2.9h-5.3v3.1
				c0,0.8,0.1,1.4,1.1,1.5l0.2,0v0.4h-4.1v-0.4h0.1c0.4,0,0.8-0.1,1-0.5c0.1-0.3,0.1-0.7,0.1-1v-0.3V50.7z"/>
			<path class="st0" d="M285,58.4c-0.4,0.3-1,0.5-1.4,0.5h-0.1c-0.7,0-1.4-0.3-1.6-1c-0.9,0.7-1.7,1-2.8,1c-1,0-2.2-0.6-2.2-1.7
				c0-1,0.6-1.5,1.5-1.8c0.8-0.4,1.6-0.5,2.5-0.6l1.1-0.1v-1c0-0.5-0.1-0.8-0.5-1.1c-0.4-0.2-0.9-0.3-1.3-0.3
				c-0.5,0-1.4,0.2-1.4,0.8v0.2c0,0.5-0.2,0.9-0.7,0.9c-0.4,0-0.7-0.3-0.7-0.6c0-0.6,0.7-1.2,1.2-1.4c0.6-0.3,1.4-0.4,2.1-0.4h0.1
				c0.6,0,1.4,0.2,1.9,0.5c0.8,0.4,0.9,1,0.9,1.8v2.9c0,0.6,0.1,1.5,0.8,1.5c0.2,0,0.4-0.1,0.6-0.2L285,58.4z M281.9,55.2
				c-1.1,0.1-3.5,0.4-3.5,1.8c0,0.7,0.6,1.2,1.3,1.2c0.8,0,1.6-0.5,2.2-1V55.2z"/>
			<path class="st0" d="M295.1,53.8c0.1-0.3,0.2-0.5,0.2-0.8c0-0.6-0.5-0.9-1.1-0.9v-0.4h3.2v0.4c-0.9,0.2-1.2,0.8-1.6,1.6l-2,5h-1
				l-1.5-4.2l-1.8,4.2h-1l-1.9-5.5c-0.2-0.6-0.5-1.1-1.4-1.1v-0.4h3.5v0.4c-0.4,0-0.9,0-0.9,0.5c0,0.2,0.1,0.5,0.1,0.7l1.5,4.2
				l1.6-3.7l-0.1-0.3c-0.3-0.8-0.4-1.2-1.4-1.3v-0.4h3.3v0.4c-0.4,0-0.8,0-0.8,0.5c0,0.2,0.1,0.5,0.1,0.7l1.4,4.1L295.1,53.8z"/>
			<path class="st0" d="M306.4,58.4c-0.4,0.3-1,0.5-1.4,0.5h-0.1c-0.7,0-1.4-0.3-1.6-1c-0.9,0.7-1.6,1-2.7,1c-1,0-2.2-0.6-2.2-1.7
				c0-1,0.6-1.5,1.4-1.8c0.8-0.4,1.6-0.5,2.5-0.6l1.1-0.1v-1c0-0.5-0.1-0.8-0.5-1.1c-0.4-0.2-0.9-0.3-1.3-0.3
				c-0.5,0-1.4,0.2-1.4,0.8v0.2c0,0.5-0.2,0.9-0.8,0.9c-0.4,0-0.7-0.3-0.7-0.6c0-0.6,0.7-1.2,1.2-1.4c0.6-0.3,1.4-0.4,2.1-0.4h0.1
				c0.6,0,1.4,0.2,1.9,0.5c0.8,0.4,0.9,1,0.9,1.8v2.9c0,0.6,0.1,1.5,0.8,1.5c0.2,0,0.4-0.1,0.6-0.2L306.4,58.4z M303.3,55.2
				c-1.1,0.1-3.5,0.4-3.5,1.8c0,0.7,0.6,1.2,1.3,1.2c0.8,0,1.6-0.5,2.2-1V55.2z"/>
			<path class="st0" d="M310,56.9c0,0.8,0.1,1.3,1,1.4h0.2v0.4h-3.9v-0.4h0.1c1-0.1,1.1-0.5,1.1-1.4v-3c0-0.8-0.1-1.4-1.1-1.4h-0.2
				V52l2.2-0.3h0.5V56.9z M309.3,51c-0.5,0-0.9-0.4-0.9-0.9c0-0.5,0.4-0.9,0.9-0.9c0.5,0,0.9,0.4,0.9,0.9
				C310.2,50.6,309.7,51,309.3,51z"/>
			<path class="st0" d="M315.1,56.9c0,0.8,0.1,1.3,1,1.4h0.2v0.4h-3.9v-0.4h0.1c1-0.1,1.1-0.5,1.1-1.4v-3c0-0.8-0.1-1.4-1.1-1.4
				h-0.2V52l2.2-0.3h0.5V56.9z M314.4,51c-0.5,0-0.9-0.4-0.9-0.9c0-0.5,0.4-0.9,0.9-0.9c0.5,0,0.9,0.4,0.9,0.9
				C315.3,50.6,314.9,51,314.4,51z"/>
			<path class="st0" d="M332.7,51.9l-0.6,0.2c-0.9-1.4-2.1-2.8-3.9-2.8c-2.3,0-3.2,2.5-3.2,4.5c0,1,0.2,2.1,0.7,3
				c0.6,0.9,1.6,1.6,2.7,1.6c1.4,0,2.9-0.8,2.9-2.4c0-1-0.5-1.3-1.4-1.4V54h4v0.4l-0.1,0c-0.4,0-0.8,0.1-1,0.5
				c-0.1,0.3-0.1,0.7-0.1,1v2.8h-0.7l-0.4-1c-0.9,0.8-2.1,1.3-3.3,1.3c-3,0-5.1-2.3-5.1-5.2c0-1.3,0.4-2.6,1.3-3.6
				c0.9-1,2.3-1.6,3.6-1.6c1,0,2.1,0.3,2.9,1l0.3-0.7h0.5L332.7,51.9z"/>
			<path class="st0" d="M337.3,56.9c0,0.8,0.1,1.4,1.1,1.4l0.2,0v0.4h-4v-0.4h0.2c1-0.1,1.1-0.5,1.1-1.4v-3c0-0.8-0.2-1.4-1.1-1.4
				h-0.2V52l2.2-0.3h0.5v1.1c0.6-0.7,1.5-1.2,2.5-1.2c0.5,0,1.1,0.2,1.1,0.8c0,0.5-0.4,0.8-0.8,0.8c-0.7,0-0.9-0.5-1.3-0.5
				c-0.5,0-1.1,0.5-1.4,0.8V56.9z"/>
			<path class="st0" d="M347.4,52.5c0.7,0.7,1.1,1.8,1.1,2.8c0,2.2-1.4,3.6-3.6,3.6c-2.2,0-3.6-1.4-3.6-3.6c0-2.2,1.3-3.8,3.5-3.8
				C345.7,51.6,346.7,51.8,347.4,52.5z M344.9,52.1c-1.7,0-2.1,1.8-2.1,3.1c0,1.4,0.4,3,2.2,3c1.6,0,2-1.7,2-2.9
				c0-0.7,0-1.5-0.4-2.1C346.3,52.6,345.7,52.1,344.9,52.1L344.9,52.1z"/>
			<path class="st0" d="M357.3,56.9c0,0.8,0.1,1.4,0.9,1.4h0.1l0.2,0v0.4h-2.6v-1.2c-0.8,0.8-1.9,1.3-3.1,1.3
				c-0.6,0-1.3-0.2-1.8-0.6c-0.4-0.5-0.5-1-0.5-1.7v-2.7c0-0.8-0.1-1.4-1.1-1.4h-0.2V52l2.2-0.3h0.5v4.9c0,0.4,0,0.8,0.2,1.1
				c0.2,0.4,0.7,0.5,1.1,0.5c1,0,2-0.6,2.7-1.2v-3.1c0-0.8-0.1-1.4-1.1-1.4h-0.2V52l2.2-0.3h0.5V56.9z"/>
			<path class="st0" d="M361.9,60.3c0,0.9,0.1,1.4,1.1,1.4l0.3,0v0.4h-4v-0.4h0.1c1-0.1,1.1-0.5,1.1-1.4v-6.4c0-0.8-0.1-1.4-1.1-1.4
				h-0.2V52l2.2-0.3h0.5v0.9c0.6-0.7,1.4-1.1,2.3-1.1c2.1,0,3.2,1.7,3.2,3.6c0,2-1.2,3.7-3.3,3.7c-0.8,0-1.6-0.2-2.2-0.7V60.3z
				 M361.9,57.5c0.5,0.5,1.1,0.8,1.8,0.8c1.7,0,2.2-1.4,2.2-2.9c0-1.4-0.4-3-2.1-3c-0.8,0-1.5,0.5-1.9,1.1V57.5z"/>
		</g>
		<g>
			<path class="st0" d="M15.8,38.2c0.3,1.6,0.4,2.5,2.3,2.8l-0.1,0.7h-6.6l0.1-0.7c0.9-0.1,2-0.3,2-1.5c0-0.3,0-0.5-0.1-0.8
				l-0.7-3.2H6.5l-1.1,2.1c-0.3,0.6-0.8,1.4-0.8,2.1c0,0.8,0.6,1.1,1.4,1.2L6.5,41l-0.1,0.7H0L0.1,41c1.5-0.1,2.4-1.1,3.1-2.3
				l7.5-13.5h2.3L15.8,38.2z M11,27.2l-4,7.3h5.5L11,27.2z"/>
			<path class="st0" d="M36.9,25.2c1.8,0,4.1,0.2,5.6,1.3c1.6,1.2,2.3,3.5,2.3,5.4c0,2.6-1,5.2-2.8,7.1c-2.1,2.1-4.5,2.7-7.4,2.7
				h-8.2l0.2-0.7c1.9-0.2,2.2-1.1,2.5-2.7l1.7-10c0.1-0.3,0.1-0.5,0.1-0.8c0-1-0.5-1.5-1.4-1.6l-0.3,0l0.1-0.7H36.9z M31.3,38.8
				c0,0.3-0.1,0.5-0.1,0.8c0,0.4,0.1,0.7,0.5,0.9c0.5,0.3,1.4,0.3,2,0.3c2.5,0,4.7-0.8,6.2-2.7c1.4-1.7,2-4.1,2-6.3
				c0-3.5-1.7-5.6-5.3-5.6c-0.7,0-2.1,0-2.7,0.4c-0.5,0.3-0.7,0.9-0.8,1.5L31.3,38.8z"/>
			<path class="st0" d="M49.4,38.4c-0.1,0.3-0.1,0.5-0.1,0.8c0,0.8,0.5,1.4,1.3,1.4c0.7,0,1.2-0.4,1.6-0.8l0.6,0.5
				c-0.8,1-2.2,1.7-3.5,1.7c-1.4,0-2.3-1-2.3-2.4c0-0.4,0-0.7,0.1-1.1l0.9-5c0-0.3,0.1-0.5,0.1-0.8c0-1-0.7-1.2-1.6-1.3h-0.2
				l0.1-0.7l1-0.1c0.9-0.1,1.7-0.2,2.5-0.5h0.8L49.4,38.4z M50.2,28.6c-0.7,0-1.1-0.6-1.1-1.3c0-0.8,0.8-1.7,1.7-1.7
				c0.7,0,1.3,0.4,1.3,1.2C52,27.8,51.2,28.6,50.2,28.6z"/>
			<path class="st0" d="M56.7,38.1c-0.1,0.4-0.1,0.7-0.1,1.1c0,1.2,0.8,1.5,1.8,1.5c2.9,0,5.3-2.8,5.3-5.6c0-2.8-1.9-2.4-1.9-3.8
				c0-0.8,0.7-1.5,1.5-1.5c0.7,0,1.2,0.5,1.5,1.1c0.3,0.7,0.4,1.5,0.4,2.3c0,4.4-2.7,8.8-7.5,8.8c-1.7,0-3.3-0.5-3.3-2.4
				c0-0.6,0.1-1.1,0.2-1.7l0.8-4.4c0-0.3,0.1-0.5,0.1-0.8c0-0.8-0.4-1-1.1-1.2l-0.6-0.1l0.1-0.7c1.2-0.1,2.4-0.2,3.5-0.6h0.8
				L56.7,38.1z"/>
			<path class="st0" d="M70.2,38.4c0,0.3-0.1,0.5-0.1,0.8c0,0.8,0.5,1.4,1.3,1.4c0.7,0,1.2-0.4,1.6-0.8l0.6,0.5
				c-0.8,1-2.2,1.7-3.5,1.7c-1.4,0-2.3-1-2.3-2.4c0-0.4,0-0.7,0.1-1.1l0.9-5c0-0.3,0.1-0.5,0.1-0.8c0-1-0.7-1.2-1.6-1.3h-0.2
				l0.1-0.7l1-0.1c0.8-0.1,1.7-0.2,2.5-0.5h0.8L70.2,38.4z M71.1,28.6c-0.7,0-1.1-0.6-1.1-1.3c0-0.8,0.8-1.7,1.7-1.7
				c0.7,0,1.3,0.4,1.3,1.2C72.9,27.8,72.1,28.6,71.1,28.6z"/>
			<path class="st0" d="M77.4,35.7c-1-0.5-1.7-1.2-1.7-2.4c0-1.1,0.7-2,1.6-2.6c1-0.7,2.2-0.9,3.3-0.9c1.3,0,2.8,0.2,4,0.8
				c0.5,0.3,1.1,0.7,1.1,1.3c0,0.6-0.4,1-1,1c-0.7,0-1-0.3-1.4-0.8c-0.3-0.5-0.5-0.7-1-1c-0.5-0.3-1.1-0.4-1.6-0.4
				c-1.2,0-2.5,0.5-2.5,1.9c0,0.6,0.3,1,0.8,1.4c0.6,0.3,1.7,0.7,2.4,0.8c1.6,0.5,3.8,1,3.8,3.1c0,1.3-0.9,2.4-2,3.1
				c-1.1,0.7-2.5,1-3.8,1c-1.4,0-2.8-0.3-4.1-1C74.8,40.6,74,40,74,39.3c0-0.6,0.5-1.1,1.1-1.1c2.1,0,1.3,2.7,4.5,2.7
				c0.7,0,1.5-0.2,2.1-0.6c0.5-0.4,1-1,1-1.6c0-1.2-1.2-1.6-2.2-1.9L77.4,35.7z"/>
			<path class="st0" d="M91.1,38.4c0,0.3-0.1,0.5-0.1,0.8c0,0.8,0.5,1.4,1.3,1.4c0.7,0,1.2-0.4,1.6-0.8l0.6,0.5
				c-0.8,1-2.2,1.7-3.5,1.7c-1.4,0-2.3-1-2.3-2.4c0-0.4,0-0.7,0.1-1.1l0.9-5c0-0.3,0.1-0.5,0.1-0.8c0-1-0.7-1.2-1.6-1.3h-0.2
				l0.1-0.7l1-0.1c0.8-0.1,1.7-0.2,2.5-0.5h0.8L91.1,38.4z M92,28.6c-0.7,0-1.1-0.6-1.1-1.3c0-0.8,0.8-1.7,1.7-1.7
				c0.7,0,1.3,0.4,1.3,1.2C93.8,27.8,92.9,28.6,92,28.6z"/>
			<path class="st0" d="M100,41.9c-3,0-5.1-1.8-5.1-4.9c0-1.8,0.8-3.7,2-5c1.4-1.5,3.2-2.2,5.2-2.2c3,0,5.1,1.9,5.1,5
				C107.2,38.7,104,41.9,100,41.9z M100.1,40.8c1.7,0,2.9-0.9,3.6-2.4c0.6-1.2,1-2.9,1-4.2c0-0.8-0.1-1.9-0.8-2.6
				c-0.5-0.5-1.4-0.7-2-0.7c-3.3,0-4.5,4.1-4.5,6.8C97.4,39.5,98.1,40.8,100.1,40.8z"/>
			<path class="st0" d="M111.3,41.7h-2.2l1.5-8.4c0.1-0.3,0.1-0.6,0.1-0.9c0-0.9-0.8-1.1-1.7-1.1l0.1-0.7l3.4-0.6h0.9l-0.3,1.7
				c1.5-1.1,3.2-2,5-2c1.5,0,3,0.7,3,2.4c0,0.5-0.1,0.9-0.2,1.4l-0.9,4.8c-0.1,0.4-0.1,0.7-0.1,1.1c0,0.6,0.5,1.3,1.2,1.3
				c0.6,0,1.2-0.4,1.6-0.8l0.5,0.5c-0.8,0.9-2.1,1.5-3.2,1.5c-1.3,0-2.3-0.9-2.3-2.2v0c0-0.8,0.2-1.6,0.3-2.3l0.7-3.9
				c0-0.3,0.1-0.8,0.1-1.1c0-0.9-0.8-1.5-1.7-1.5c-1.6,0-3.1,1-4.3,1.9L111.3,41.7z"/>
			<path class="st0" d="M137.8,41.9c-3,0-5.1-1.8-5.1-4.9c0-1.8,0.8-3.7,2-5c1.4-1.5,3.2-2.2,5.2-2.2c3,0,5.1,1.9,5.1,5
				C145,38.7,141.8,41.9,137.8,41.9z M138,40.8c1.7,0,2.9-0.9,3.6-2.4c0.6-1.2,1-2.9,1-4.2c0-0.8-0.1-1.9-0.8-2.6
				c-0.5-0.5-1.4-0.7-2-0.7c-3.3,0-4.5,4.1-4.5,6.8C135.2,39.5,136,40.8,138,40.8z"/>
			<path class="st0" d="M154.8,30l-0.1,0.7h-2.5l-1.6,9.3c-0.3,1.7-0.5,3.4-1.6,4.9c-1.1,1.5-3.1,2-4.8,2c-1.1,0-3.3-0.4-3.3-1.8
				c0-0.7,0.6-0.9,1.1-0.9c1.6,0,1.6,1.9,3.2,1.9c0.7,0,1.4-0.4,1.8-0.9c0.5-0.6,0.7-1.6,0.8-2.3l0.3-1.6l1.8-10.7h-2.2l0.1-0.7h2.2
				c0.2-1.6,0.4-2.8,1.4-3.9c0.9-1.2,2.5-1.9,4-1.9c0.8,0,2.8,0.2,2.8,1.4c0,0.6-0.5,1-1.1,1c-1.5,0-0.9-1.5-2.4-1.5
				c-0.6,0-1.1,0.4-1.4,0.8c-0.5,0.7-0.5,1.4-0.7,2.1l-0.3,2H154.8z"/>
		</g>
	</g>
</g>
</svg>
