<?xml version="1.0" encoding="utf-8"?>
<!-- Generator: Adobe Illustrator 16.0.4, SVG Export Plug-In . SVG Version: 6.00 Build 0)  -->
<!DOCTYPE svg PUBLIC "-//W3C//DTD SVG 1.1//EN" "http://www.w3.org/Graphics/SVG/1.1/DTD/svg11.dtd">
<svg version="1.1" id="Layer_1" xmlns="http://www.w3.org/2000/svg" xmlns:xlink="http://www.w3.org/1999/xlink" x="0px" y="0px"
	 width="296px" height="79.91px" viewBox="1 10.523 296 79.91" enable-background="new 1 10.523 296 79.91" xml:space="preserve">
<g>
	<g>
		<path fill="#FFFFFF" d="M86.407,34.061c0-2.891-0.273-5.021-4.034-5.295l-0.822-0.053v-1.634h15.383v1.634h-0.597
			c-1.529,0.11-3.108,0.271-3.876,1.8c-0.544,1.141-0.597,3.001-0.597,4.473v8.13h19.585v-9.005c0-2.894-0.273-5.072-4.094-5.345
			l-0.814-0.053v-1.634h15.275v1.634h-0.546c-1.474,0.163-3.054,0.326-3.768,1.8c-0.542,0.983-0.6,2.62-0.6,3.926v22.805
			c0,2.843,0.273,5.024,4.094,5.298l0.82,0.053v1.64h-15.275v-1.64h0.546c1.469-0.11,2.996-0.326,3.763-1.798
			c0.544-1.146,0.599-3.001,0.599-4.425V45.406H91.865v11.669c0,3.012,0.218,5.193,4.145,5.467l0.925,0.053v1.64H81.551v-1.64h0.546
			c1.469-0.158,2.999-0.326,3.763-1.798c0.491-0.988,0.546-2.57,0.546-3.879v-1.198V34.061z"/>
		<path fill="#FFFFFF" d="M134.147,57.307c0,2.995,0.491,5.008,3.871,5.287h0.66v1.64h-14.408v-1.64h0.489
			c3.605-0.216,4.149-1.961,4.149-5.287V45.952c0-3.051-0.544-5.072-3.984-5.292h-0.873v-1.632l8.349-1.206h1.748V57.307z
			 M131.53,35.096c-1.913,0-3.225-1.529-3.225-3.382c0-1.692,1.582-3.169,3.274-3.169c1.91,0,3.274,1.532,3.274,3.387
			C134.854,33.73,133.272,35.096,131.53,35.096z"/>
		<path fill="#FFFFFF" d="M175.32,38.697l-2.076,0.602c-3.216-5.077-7.799-10.422-14.343-10.422c-8.79,0-11.954,9.384-11.954,16.697
			c0,3.818,0.712,7.744,2.735,11.024c2.228,3.537,5.944,5.839,10.144,5.839c5.402,0,10.963-2.943,10.963-9.014
			c0-3.757-1.798-4.851-5.293-5.234v-1.635h14.953v1.635l-0.441,0.05c-1.356,0.113-2.891,0.392-3.601,1.753
			c-0.488,0.982-0.541,2.564-0.541,3.879v10.364h-2.623l-1.692-3.764c-3.432,3.001-7.694,4.688-12.219,4.688
			c-11.182,0-18.931-8.678-18.931-19.585c0-4.914,1.416-9.552,4.688-13.26c3.334-3.705,8.406-6.165,13.428-6.165
			c3.711,0,7.8,1.309,10.748,3.545l1.036-2.615h1.691L175.32,38.697z"/>
		<path fill="#FFFFFF" d="M190.267,57.307c0.11,3.105,0.547,5.071,4.042,5.234l0.925,0.053v1.64h-15v-1.64h0.594
			c3.605-0.216,4.199-1.908,4.199-5.287V45.952c0-3.051-0.541-5.072-3.979-5.292h-0.872v-1.632l8.346-1.206h1.745v4.091
			c2.396-2.454,5.508-4.633,9.171-4.633c1.803,0,4.031,0.709,4.031,2.893c0,1.74-1.304,2.943-3.001,2.943
			c-2.56,0-3.158-1.797-4.856-1.797c-1.85,0-4.142,1.689-5.345,2.999V57.307z"/>
		<path fill="#FFFFFF" d="M226.537,40.717c2.67,2.615,3.974,6.709,3.974,10.368c0,8.24-5.125,13.575-13.36,13.575
			c-8.078,0-13.308-5.335-13.308-13.36c0-8.13,4.741-14.02,13.145-14.02C220.361,37.28,224.024,38.26,226.537,40.717z
			 M217.203,39.459c-6.17,0-7.7,6.711-7.7,11.681c0,5.289,1.53,11.345,8.026,11.345c5.949,0,7.311-6.155,7.311-10.964
			c0-2.507-0.211-5.676-1.361-7.962c-1.151-2.352-3.438-4.099-6.112-4.099H217.203z"/>
		<path fill="#FFFFFF" d="M261.382,57.354c0,2.948,0.331,5.298,3.28,5.298h0.384l0.814-0.058v1.64h-9.707v-4.53
			c-3.112,2.995-7.043,4.956-11.736,4.956c-2.286,0-4.962-0.589-6.549-2.345c-1.64-1.792-1.687-3.863-1.687-6.154V45.952
			c0-3.051-0.547-5.072-3.989-5.292h-0.873v-1.632l8.352-1.206h1.75V56.04c0,1.314,0.048,2.954,0.594,3.932
			c0.825,1.419,2.618,2.019,4.152,2.019c3.873,0,7.469-2.182,9.986-4.636V45.952c0-3.051-0.547-5.072-3.989-5.292h-0.878v-1.632
			l8.352-1.206h1.744V57.354z"/>
		<path fill="#FFFFFF" d="M276.382,69.742c0,3.332,0.547,5.077,4.089,5.234l1.094,0.058v1.64h-15.058v-1.64h0.494
			c3.542-0.215,4.141-2.023,4.141-5.292v-23.79c0-3.051-0.541-5.072-3.983-5.292h-0.872v-1.632l8.351-1.206h1.745v3.498
			c2.123-2.512,5.124-4.039,8.614-4.039c7.915,0,12.004,6.22,12.004,13.586c0,7.529-4.415,13.794-12.435,13.794
			c-3.06,0-5.845-0.862-8.184-2.67V69.742z M276.382,59.267c1.745,1.687,3.979,2.785,6.596,2.785c6.333,0,8.347-5.292,8.347-10.863
			c0-5.182-1.414-11.237-7.8-11.237c-2.996,0-5.618,1.743-7.143,4.144V59.267z"/>
	</g>
	<path fill="#FFFFFF" d="M93.836,76.637l-0.678,0.236c-0.807-1.587-2.312-2.822-4.157-2.822c-0.696,0-0.733,0.31-0.733,0.841v8.583
		c0,0.462,0.021,1.045,0.171,1.435c0.26,0.594,0.885,0.614,1.427,0.651h0.397v0.578h-5.832v-0.557l0.36-0.021
		c0.523-0.037,1.127-0.058,1.39-0.604c0.189-0.399,0.205-1.03,0.205-1.519v-8.414c0-0.631-0.016-0.952-0.788-0.952
		c-1.918,0-3.327,1.156-4.173,2.802l-0.62-0.236l1.051-3.306h10.929L93.836,76.637z"/>
	<path fill="#FFFFFF" d="M104.655,83.759c0,1.03,0.145,1.724,1.311,1.824h0.226v0.557h-5.04v-0.557h0.226
		c1.261-0.059,1.469-0.626,1.469-1.824v-4.047c0-0.446-0.019-0.962-0.299-1.361c-0.302-0.352-0.812-0.521-1.264-0.521
		c-1.093,0-2.554,0.736-3.311,1.482v4.446c0,1.03,0.134,1.745,1.282,1.824h0.242v0.557h-5.019v-0.557h0.21
		c1.256-0.059,1.482-0.626,1.482-1.824V75.68c0-0.972-0.095-1.729-1.409-1.818l-0.265-0.021v-0.568
		c0.922-0.104,1.845-0.263,2.728-0.614h0.749v5.781c1.075-0.946,2.354-1.588,3.818-1.588c0.699,0,1.545,0.205,2.107,0.642
		c0.736,0.562,0.757,1.33,0.757,2.16v0.137V83.759z"/>
	<path fill="#FFFFFF" d="M110.144,80.711l-0.039,0.956c0,0.867,0.323,1.882,0.812,2.617c0.525,0.768,1.469,1.156,2.386,1.156
		c1.277,0,2.163-0.62,2.765-1.724l0.62,0.315c-0.675,1.492-2.239,2.26-3.836,2.26c-1.256,0-2.371-0.331-3.29-1.219
		c-0.922-0.92-1.411-2.244-1.411-3.521c0-2.728,1.713-4.678,4.496-4.699h0.037c2.218,0,4.005,1.482,4.005,3.779v0.079H110.144z
		 M114.696,79.938c0-1.388-0.886-2.312-2.163-2.312c-1.335,0-2.22,1.104-2.352,2.312H114.696z"/>
	<g>
		<path fill="#82BC00" d="M127.394,75.738c0-0.993-0.095-1.729-1.393-1.823l-0.281-0.016v-0.567h5.303v0.567h-0.208
			c-0.526,0.037-1.072,0.089-1.335,0.625c-0.189,0.39-0.208,1.03-0.208,1.535v2.807h6.753V75.76c0-0.993-0.095-1.75-1.414-1.845
			l-0.281-0.016v-0.567h5.266v0.567h-0.189c-0.504,0.053-1.051,0.11-1.298,0.625c-0.187,0.331-0.205,0.894-0.205,1.346v7.868
			c0,0.972,0.095,1.724,1.409,1.823l0.284,0.021v0.557h-5.266v-0.557h0.189c0.507-0.048,1.033-0.121,1.295-0.626
			c0.192-0.399,0.21-1.03,0.21-1.519v-3.784h-6.753v4.021c0,1.035,0.079,1.787,1.429,1.887l0.321,0.021v0.557h-5.303v-0.557h0.189
			c0.507-0.059,1.033-0.121,1.295-0.626c0.168-0.336,0.189-0.878,0.189-1.335v-0.41V75.738z"/>
		<path fill="#82BC00" d="M152.164,85.656c-0.455,0.431-1.228,0.636-1.845,0.636h-0.071c-0.925-0.021-1.773-0.431-2.055-1.346
			c-1.106,0.857-2.124,1.346-3.535,1.346c-1.316,0-2.877-0.709-2.877-2.213c0-1.293,0.791-1.887,1.863-2.354
			c0.993-0.451,2.084-0.662,3.159-0.777l1.39-0.147v-1.346c-0.037-0.588-0.131-1.082-0.66-1.435c-0.483-0.32-1.125-0.394-1.69-0.394
			c-0.581,0-1.805,0.278-1.805,0.998v0.242c0,0.62-0.244,1.13-0.957,1.13c-0.455,0-0.886-0.363-0.886-0.831
			c0-0.793,0.862-1.481,1.521-1.771c0.791-0.337,1.806-0.521,2.652-0.542h0.073c0.791,0,1.771,0.264,2.447,0.62
			c1.017,0.547,1.111,1.257,1.111,2.318v3.685c0,0.777,0.11,1.965,1.035,1.965c0.279,0,0.542-0.12,0.771-0.278L152.164,85.656z
			 M148.193,81.462c-1.427,0.126-4.512,0.525-4.512,2.387c0,0.956,0.81,1.529,1.713,1.529c1.015,0,2.029-0.61,2.799-1.267V81.462z"
			/>
		<path fill="#82BC00" d="M165.108,79.691c0.11-0.321,0.2-0.642,0.2-0.994c0-0.814-0.657-1.098-1.372-1.098v-0.568h4.157v0.568
			c-1.209,0.215-1.598,1.024-2.034,2.092l-2.533,6.448h-1.225l-1.887-5.419l-2.312,5.419h-1.256l-2.483-7.068
			c-0.317-0.773-0.639-1.436-1.747-1.472v-0.568h4.493v0.568c-0.521,0.026-1.151,0.026-1.151,0.625c0,0.284,0.095,0.589,0.195,0.847
			l1.881,5.36l1.992-4.777l-0.147-0.342c-0.415-1.03-0.488-1.519-1.776-1.713v-0.568h4.258v0.568
			c-0.458,0.026-1.072,0.026-1.072,0.625c0,0.284,0.089,0.589,0.162,0.847l1.829,5.266L165.108,79.691z"/>
		<path fill="#82BC00" d="M179.625,85.656c-0.457,0.431-1.22,0.636-1.84,0.636h-0.079c-0.919-0.021-1.771-0.431-2.049-1.346
			c-1.114,0.857-2.129,1.346-3.537,1.346c-1.314,0-2.875-0.709-2.875-2.213c0-1.293,0.788-1.887,1.855-2.354
			c1.003-0.451,2.092-0.662,3.163-0.777l1.394-0.147v-1.346c-0.043-0.588-0.132-1.082-0.657-1.435
			c-0.489-0.32-1.13-0.394-1.698-0.394c-0.583,0-1.802,0.278-1.802,0.998v0.242c0,0.62-0.247,1.13-0.957,1.13
			c-0.457,0-0.888-0.363-0.888-0.831c0-0.793,0.867-1.481,1.523-1.771c0.789-0.337,1.803-0.521,2.649-0.542h0.078
			c0.789,0,1.767,0.264,2.449,0.62c1.01,0.547,1.104,1.257,1.104,2.318v3.685c0,0.777,0.115,1.965,1.04,1.965
			c0.278,0,0.541-0.12,0.772-0.278L179.625,85.656z M175.657,81.462c-1.43,0.126-4.515,0.525-4.515,2.387
			c0,0.956,0.809,1.529,1.713,1.529c1.015,0,2.028-0.61,2.802-1.267V81.462z"/>
		<path fill="#82BC00" d="M184.286,83.759c0,1.03,0.174,1.724,1.341,1.824h0.226v0.557h-4.967v-0.557h0.169
			c1.24-0.079,1.43-0.673,1.43-1.824v-3.91c0-1.062-0.189-1.755-1.372-1.829h-0.3v-0.567l2.875-0.421h0.599V83.759z M183.383,76.101
			c-0.651,0-1.104-0.531-1.104-1.167c0-0.583,0.546-1.093,1.124-1.093c0.652,0,1.13,0.52,1.13,1.161
			C184.533,75.634,183.992,76.101,183.383,76.101z"/>
		<path fill="#82BC00" d="M190.872,83.759c0,1.03,0.168,1.724,1.335,1.824h0.226v0.557h-4.967v-0.557h0.174
			c1.235-0.079,1.435-0.673,1.435-1.824v-3.91c0-1.062-0.199-1.755-1.382-1.829h-0.3v-0.567l2.875-0.421h0.604V83.759z
			 M189.973,76.101c-0.662,0-1.114-0.531-1.114-1.167c0-0.583,0.541-1.093,1.13-1.093c0.656,0,1.135,0.52,1.135,1.161
			C191.124,75.634,190.572,76.101,189.973,76.101z"/>
	</g>
	<g>
		<path fill="#FFFFFF" d="M213.419,77.342l-0.72,0.205c-1.099-1.745-2.681-3.595-4.94-3.595c-3.022,0-4.11,3.237-4.11,5.76
			c0,1.314,0.236,2.67,0.931,3.795c0.772,1.225,2.05,2.018,3.5,2.018c1.86,0,3.779-1.014,3.779-3.105
			c0-1.293-0.615-1.672-1.819-1.809v-0.562h5.151v0.562l-0.152,0.021c-0.468,0.037-0.994,0.126-1.241,0.604
			c-0.162,0.336-0.184,0.883-0.184,1.329v3.574h-0.914l-0.578-1.304c-1.183,1.041-2.644,1.624-4.21,1.624
			c-3.853,0-6.522-2.984-6.522-6.748c0-1.692,0.488-3.29,1.613-4.572c1.146-1.277,2.896-2.129,4.625-2.129
			c1.282,0,2.696,0.458,3.705,1.225l0.357-0.903h0.584L213.419,77.342z"/>
		<path fill="#FFFFFF" d="M219.463,83.759c0.031,1.062,0.184,1.745,1.398,1.803l0.315,0.021v0.557h-5.178v-0.557h0.211
			c1.234-0.079,1.445-0.662,1.445-1.824v-3.91c0-1.062-0.189-1.755-1.372-1.829h-0.3v-0.567l2.875-0.421h0.604v1.414
			c0.83-0.846,1.897-1.593,3.159-1.593c0.62,0,1.387,0.247,1.387,0.999c0,0.594-0.446,1.015-1.03,1.015
			c-0.883,0-1.093-0.62-1.671-0.62c-0.642,0-1.43,0.578-1.845,1.029V83.759z"/>
		<path fill="#FFFFFF" d="M232.397,78.035c0.93,0.904,1.377,2.312,1.377,3.574c0,2.833-1.767,4.683-4.609,4.683
			c-2.78,0-4.588-1.85-4.588-4.609c0-2.796,1.64-4.83,4.535-4.83C230.279,76.852,231.535,77.189,232.397,78.035z M229.18,77.599
			c-2.118,0-2.644,2.317-2.644,4.025c0,1.824,0.525,3.91,2.759,3.91c2.05,0,2.523-2.118,2.523-3.773c0-0.862-0.074-1.96-0.474-2.743
			c-0.399-0.814-1.188-1.419-2.102-1.419H229.18z"/>
		<path fill="#FFFFFF" d="M245.152,83.774c0,1.015,0.116,1.824,1.13,1.824h0.127l0.278-0.016v0.557h-3.338v-1.561
			c-1.071,1.04-2.433,1.713-4.047,1.713c-0.782,0-1.702-0.205-2.254-0.81c-0.562-0.62-0.578-1.329-0.578-2.123v-3.511
			c0-1.062-0.195-1.755-1.377-1.829h-0.306v-0.567l2.881-0.421h0.599v6.291c0,0.452,0.021,1.015,0.21,1.356
			c0.279,0.483,0.904,0.699,1.436,0.699c1.329,0,2.569-0.757,3.437-1.604v-3.926c0-1.062-0.188-1.755-1.377-1.829h-0.299v-0.567
			l2.88-0.421h0.599V83.774z"/>
		<path fill="#FFFFFF" d="M251.06,88.042c0,1.146,0.188,1.756,1.408,1.803l0.378,0.016v0.573h-5.197V89.86h0.179
			c1.225-0.062,1.424-0.693,1.424-1.818v-8.193c0-1.062-0.184-1.755-1.371-1.829h-0.295v-0.567l2.87-0.421h0.604v1.215
			c0.74-0.867,1.771-1.394,2.975-1.394c2.722,0,4.136,2.145,4.136,4.684c0,2.591-1.524,4.756-4.288,4.756
			c-1.052,0-2.019-0.305-2.822-0.914V88.042z M251.06,84.431c0.609,0.578,1.371,0.951,2.275,0.951c2.187,0,2.875-1.818,2.875-3.736
			c0-1.787-0.483-3.868-2.686-3.868c-1.036,0-1.939,0.594-2.465,1.424V84.431z"/>
	</g>
	<g>
		<path fill="#82BC00" d="M18.057,63.266c-0.176,0-0.349,0-0.523,0c-1.484,0-2.982-0.162-4.433-0.504
			c0.465,1.267,1.175,2.391,2.11,3.332c0.946,0.94,2.073,1.655,3.348,2.123c-0.339-1.472-0.512-2.948-0.512-4.431
			C18.047,63.603,18.047,63.429,18.057,63.266z"/>
		<path fill="#82BC00" d="M18.383,49.47c-0.936,0.528-1.776,1.164-2.515,1.899c-0.959,0.965-1.748,2.079-2.326,3.299
			c1.275,0.468,2.607,0.693,3.974,0.693c1.025,0,2.055-0.142,3.053-0.415c-0.05-0.342-0.079-0.694-0.079-1.052
			c0-0.771,0.134-1.555,0.394-2.301C19.881,51.094,19.027,50.359,18.383,49.47z"/>
		<path fill="#82BC00" d="M29.654,60.413c-0.733,0.252-1.49,0.379-2.262,0.379c-0.342,0-0.694-0.026-1.036-0.085
			c-0.265,1.01-0.405,2.04-0.405,3.069c0,1.372,0.234,2.707,0.691,3.974c1.219-0.578,2.323-1.355,3.292-2.317
			c0.723-0.721,1.348-1.551,1.858-2.455C30.884,62.315,30.158,61.438,29.654,60.413z"/>
		<path fill="#82BC00" d="M53.693,63.266c0.008,0.163,0.011,0.337,0.011,0.521c0,1.482-0.176,2.959-0.513,4.431
			c1.277-0.468,2.402-1.183,3.348-2.123c0.933-0.941,1.642-2.065,2.11-3.332c-1.456,0.342-2.946,0.504-4.436,0.504
			C54.045,63.266,53.866,63.266,53.693,63.266z"/>
		<path fill="#82BC00" d="M51.178,54.947c1.001,0.273,2.031,0.415,3.048,0.415c1.372,0,2.709-0.226,3.976-0.693
			c-0.575-1.22-1.361-2.334-2.32-3.299c-0.741-0.735-1.584-1.371-2.517-1.899c-0.642,0.888-1.498,1.624-2.497,2.124
			c0.252,0.746,0.392,1.529,0.392,2.301C51.26,54.253,51.231,54.605,51.178,54.947z"/>
		<path fill="#82BC00" d="M44.357,60.792c-0.768,0-1.53-0.127-2.263-0.379c-0.502,1.025-1.232,1.902-2.131,2.564
			c0.505,0.904,1.13,1.734,1.853,2.455c0.965,0.962,2.071,1.739,3.293,2.317c0.455-1.267,0.688-2.602,0.688-3.974
			c0-1.029-0.134-2.06-0.405-3.069C45.05,60.765,44.701,60.792,44.357,60.792z"/>
		<path fill="#82BC00" d="M35.889,70.672v-0.036c-0.005,0.005-0.01,0.016-0.018,0.021c-0.003-0.005-0.008-0.016-0.013-0.021v0.036
			c-0.108,0.11-0.21,0.221-0.323,0.337c-1.054,1.057-2.234,1.976-3.5,2.774c1.222,0.578,2.504,0.867,3.824,0.867l0,0h0.013l0,0l0,0
			h0.018l0,0c1.322,0,2.602-0.289,3.829-0.867c-1.27-0.799-2.449-1.718-3.506-2.774C36.102,70.892,35.997,70.782,35.889,70.672z"/>
		<path fill="#82BC00" d="M53.693,27.56c0.173,0,0.352-0.003,0.521-0.003c1.49,0,2.98,0.168,4.436,0.51
			c-0.468-1.274-1.177-2.394-2.11-3.334c-0.946-0.938-2.071-1.656-3.348-2.121c0.336,1.469,0.513,2.951,0.513,4.428
			C53.704,27.218,53.701,27.394,53.693,27.56z"/>
		<path fill="#82BC00" d="M53.365,41.353c0.933-0.525,1.776-1.164,2.517-1.897c0.959-0.967,1.745-2.081,2.32-3.306
			c-1.267-0.455-2.604-0.686-3.976-0.686c-1.017,0-2.047,0.145-3.048,0.418c0.052,0.339,0.082,0.686,0.082,1.046
			c0,0.778-0.14,1.558-0.392,2.302C51.867,39.737,52.723,40.468,53.365,41.353z"/>
		<path fill="#82BC00" d="M42.094,30.416c0.733-0.25,1.495-0.378,2.263-0.378c0.344,0,0.693,0.026,1.035,0.082
			c0.271-1.009,0.405-2.037,0.405-3.072c0-1.361-0.234-2.701-0.688-3.973c-1.222,0.581-2.328,1.354-3.293,2.318
			c-0.723,0.725-1.348,1.558-1.853,2.462C40.862,28.513,41.592,29.388,42.094,30.416z"/>
		<path fill="#82BC00" d="M64.247,41.558c-0.794,1.264-1.729,2.433-2.78,3.482c-0.126,0.126-0.25,0.242-0.378,0.37l0.002,0.003
			c0,0.002,0,0.002-0.002,0.008c0.128,0.124,0.252,0.239,0.378,0.365c1.051,1.043,1.986,2.226,2.78,3.482
			c0.567-1.225,0.854-2.52,0.854-3.847l-0.003-0.008l0.003-0.003C65.101,44.078,64.814,42.783,64.247,41.558z"/>
		<path fill="#82BC00" d="M18.057,27.56c-0.01-0.166-0.01-0.342-0.01-0.521c0-1.477,0.173-2.959,0.512-4.428
			c-1.274,0.465-2.402,1.183-3.348,2.121c-0.936,0.941-1.645,2.06-2.11,3.334c1.451-0.341,2.949-0.51,4.433-0.51
			C17.708,27.557,17.881,27.56,18.057,27.56z"/>
		<path fill="#82BC00" d="M20.569,35.882c-0.999-0.273-2.028-0.418-3.053-0.418c-1.367,0-2.699,0.231-3.974,0.686
			c0.578,1.225,1.367,2.339,2.326,3.306c0.739,0.733,1.58,1.372,2.515,1.897c0.644-0.886,1.498-1.616,2.501-2.124
			c-0.26-0.744-0.394-1.524-0.394-2.302C20.49,36.568,20.519,36.221,20.569,35.882z"/>
		<path fill="#82BC00" d="M27.391,30.038c0.772,0,1.529,0.128,2.262,0.378c0.505-1.028,1.23-1.903,2.139-2.562
			c-0.51-0.904-1.135-1.737-1.858-2.462c-0.97-0.964-2.073-1.737-3.292-2.318c-0.458,1.272-0.691,2.612-0.691,3.973
			c0,1.036,0.14,2.063,0.405,3.072C26.698,30.064,27.05,30.038,27.391,30.038z"/>
		<path fill="#82BC00" d="M35.858,20.152v0.034c0.005-0.005,0.01-0.013,0.013-0.018c0.008,0.005,0.013,0.013,0.018,0.018v-0.034
			c0.108-0.11,0.213-0.218,0.323-0.331c1.057-1.054,2.236-1.989,3.506-2.78c-1.228-0.575-2.507-0.862-3.829-0.862v-0.002h-0.018l0,0
			l0,0h-0.013v0.002c-1.319,0-2.602,0.287-3.824,0.862c1.267,0.791,2.447,1.727,3.5,2.78C35.648,19.934,35.75,20.041,35.858,20.152z
			"/>
		<path fill="#82BC00" d="M10.284,45.04c-1.054-1.049-1.987-2.218-2.778-3.482c-0.57,1.225-0.859,2.52-0.859,3.852v0.003v0.002
			c0,1.333,0.289,2.628,0.859,3.853c0.791-1.256,1.724-2.438,2.778-3.482c0.126-0.126,0.247-0.242,0.378-0.365
			c-0.005-0.005-0.005-0.005-0.005-0.005s0-0.005,0.005-0.005C10.531,45.282,10.41,45.166,10.284,45.04z"/>
		<path fill="#82BC00" d="M70.751,45.403c0-3.997-1.595-7.797-4.499-10.706c-0.449-0.431-0.933-0.867-1.456-1.28
			c0.05-0.434,0.084-0.833,0.098-1.222c0.197-4.378-1.354-8.446-4.36-11.455c-2.83-2.828-6.651-4.386-10.756-4.386
			c-0.623,0-1.274,0.044-1.939,0.124c-0.41-0.523-0.841-1.017-1.283-1.456c-2.901-2.904-6.688-4.499-10.669-4.499h-0.01h-0.005
			h-0.008c-3.981,0-7.765,1.595-10.671,4.499c-0.444,0.439-0.875,0.933-1.282,1.456c-0.663-0.079-1.317-0.124-1.939-0.124
			c-4.105,0-7.926,1.558-10.753,4.386c-3.006,3.009-4.559,7.077-4.359,11.455c0.011,0.389,0.047,0.789,0.097,1.222
			c-0.523,0.413-1.009,0.849-1.456,1.28C2.597,37.606,1,41.406,1,45.403c0,0.003,0.002,0.008,0.002,0.008
			C1.002,45.416,1,45.421,1,45.424c0,4,1.598,7.8,4.499,10.712c0.446,0.425,0.933,0.861,1.456,1.271
			c-0.05,0.431-0.086,0.836-0.097,1.219c-0.2,4.384,1.354,8.446,4.359,11.458c2.828,2.832,6.648,4.388,10.753,4.388
			c0.623,0,1.277-0.047,1.939-0.126c0.407,0.525,0.838,1.02,1.282,1.461c2.906,2.907,6.69,4.499,10.671,4.499h0.008h0.005h0.01
			c3.981,0,7.768-1.592,10.669-4.499c0.441-0.441,0.873-0.936,1.283-1.461c0.665,0.079,1.316,0.126,1.939,0.126
			c4.105,0,7.926-1.556,10.756-4.388c3.006-3.012,4.557-7.074,4.36-11.458c-0.013-0.383-0.047-0.788-0.098-1.219
			c0.523-0.41,1.007-0.847,1.456-1.271c2.904-2.912,4.499-6.712,4.499-10.712c0-0.002,0-0.008,0-0.008S70.751,45.406,70.751,45.403z
			 M58.129,23.139c2.181,2.184,3.374,5.106,3.393,8.283c-2.284-1.059-4.791-1.613-7.308-1.613c-0.179,0-0.355,0.008-0.528,0.013
			h-0.129l-2.207,0.071l0.084-2.215c0.01-0.208,0.016-0.42,0.016-0.639c0-2.504-0.555-5.009-1.608-7.287
			C53.015,19.771,55.958,20.971,58.129,23.139z M50.382,33.772c1.261-0.378,2.554-0.565,3.842-0.565c0.003,0,0.011,0,0.011,0
			c2.41,0,4.751,0.612,6.798,1.766c-0.625,2.268-1.855,4.357-3.561,6.073c-0.925,0.922-1.986,1.716-3.172,2.368l-1.64,0.904
			l-1.056-1.548c-0.865-1.275-2.312-2.034-3.868-2.034c-0.25,0-0.502,0.024-0.744,0.061c0.229-0.158,0.444-0.339,0.652-0.536
			c1.083-1.088,1.563-2.638,1.288-4.136l-0.336-1.829L50.382,33.772z M44.443,48.719c0.203,0.205,0.42,0.384,0.654,0.542
			c-0.252-0.037-0.507-0.055-0.767-0.055c-1.253,0-2.426,0.483-3.311,1.366c-1.138,1.132-1.563,2.72-1.274,4.197
			c-0.841-1.246-2.266-2.055-3.868-2.055l0,0c0,0-0.003,0-0.005,0l0,0l0,0c-1.603,0-3.027,0.809-3.868,2.055
			c0.292-1.477-0.134-3.064-1.272-4.197c-0.883-0.883-2.061-1.366-3.316-1.366c-0.252,0-0.51,0.018-0.762,0.055
			c0.237-0.158,0.45-0.336,0.657-0.542c0.873-0.883,1.361-2.06,1.361-3.298v-0.008V45.41c0-1.246-0.488-2.417-1.361-3.306
			c-0.208-0.2-0.42-0.381-0.657-0.539c0.252,0.037,0.51,0.055,0.762,0.055c1.256,0,2.434-0.483,3.316-1.364
			c1.138-1.138,1.563-2.72,1.272-4.199c0.841,1.243,2.265,2.06,3.868,2.062l0,0l0,0c0.002,0,0.005,0,0.005,0l0,0
			c1.603-0.002,3.027-0.82,3.868-2.062c-0.289,1.479,0.136,3.061,1.274,4.199c0.885,0.88,2.058,1.364,3.311,1.364
			c0.26,0,0.515-0.019,0.767-0.055c-0.234,0.158-0.452,0.339-0.654,0.539c-0.877,0.888-1.366,2.06-1.366,3.306v0.003v0.002
			C43.077,46.659,43.566,47.836,44.443,48.719z M48.051,27.055c0,1.285-0.187,2.583-0.541,3.839l-0.507,1.8l-1.837-0.334
			c-0.271-0.05-0.554-0.076-0.841-0.076c-1.24,0-2.41,0.489-3.306,1.369c-0.21,0.215-0.395,0.436-0.555,0.673
			c0.05-0.289,0.084-0.581,0.084-0.891c0-1.519-0.757-2.959-2.01-3.823l-1.535-1.059l0.896-1.637
			c0.633-1.159,1.419-2.208,2.32-3.114c1.689-1.687,3.776-2.907,6.07-3.545C47.436,22.304,48.051,24.643,48.051,27.055z
			 M35.871,13.921c3.087,0,5.991,1.219,8.238,3.456c-2.35,0.875-4.518,2.255-6.304,4.039c-0.147,0.15-0.292,0.294-0.437,0.452
			l-1.498,1.619l-1.487-1.619c-0.15-0.158-0.292-0.302-0.439-0.452c-1.787-1.784-3.952-3.164-6.307-4.039
			C29.885,15.14,32.794,13.921,35.871,13.921z M25.457,20.257c2.3,0.638,4.386,1.858,6.073,3.545
			c0.901,0.906,1.689,1.955,2.318,3.114l0.898,1.637l-1.535,1.059c-1.256,0.864-2.013,2.305-2.013,3.823
			c0,0.311,0.034,0.602,0.086,0.891c-0.16-0.237-0.347-0.458-0.554-0.673c-0.899-0.88-2.068-1.369-3.309-1.369
			c-0.286,0-0.567,0.026-0.833,0.076l-1.847,0.334l-0.507-1.8c-0.354-1.256-0.536-2.554-0.536-3.839
			C23.699,24.643,24.309,22.304,25.457,20.257z M23.153,34.295l-0.331,1.829c-0.279,1.498,0.2,3.048,1.282,4.136
			c0.205,0.197,0.423,0.378,0.652,0.536c-0.239-0.037-0.489-0.061-0.741-0.061c-1.559,0-3.006,0.759-3.871,2.034l-1.054,1.548
			l-1.642-0.904c-1.183-0.652-2.244-1.445-3.172-2.368c-1.703-1.716-2.933-3.805-3.558-6.073c2.044-1.154,4.389-1.766,6.795-1.766
			c0,0,0.008,0,0.011,0c1.288,0,2.581,0.187,3.844,0.565L23.153,34.295z M13.614,23.139c2.176-2.168,5.124-3.369,8.296-3.387
			c-1.056,2.278-1.608,4.783-1.608,7.287c0,0.218,0.008,0.431,0.016,0.639l0.081,2.215l-2.207-0.071h-0.126
			c-0.176-0.005-0.347-0.013-0.531-0.013c-2.512,0-5.024,0.554-7.308,1.613C10.247,28.245,11.437,25.323,13.614,23.139z
			 M4.395,45.421v-0.008V45.41c0-3.098,1.222-6.002,3.456-8.259c0.862,2.347,2.239,4.512,4.029,6.299
			c0.158,0.157,0.32,0.307,0.473,0.452l1.603,1.508l-0.005,0.003l0.005,0.008l-1.603,1.5c-0.152,0.147-0.315,0.294-0.473,0.455
			c-1.79,1.792-3.167,3.953-4.029,6.298C5.617,51.418,4.395,48.514,4.395,45.421z M13.614,67.681
			c-2.176-2.181-3.366-5.104-3.387-8.277c2.283,1.057,4.795,1.613,7.308,1.613c0.184,0,0.355-0.005,0.531-0.016h0.126l2.207-0.063
			l-0.081,2.208c-0.008,0.215-0.016,0.42-0.016,0.641c0,2.507,0.552,5.009,1.608,7.284C18.738,71.055,15.789,69.857,13.614,67.681z
			 M21.368,57.054c-1.264,0.378-2.557,0.567-3.844,0.567c-0.002,0-0.011,0-0.011,0c-2.407,0-4.751-0.615-6.795-1.771
			c0.625-2.265,1.855-4.356,3.558-6.07c0.928-0.922,1.989-1.718,3.172-2.365l1.642-0.904l1.054,1.545
			c0.865,1.272,2.312,2.034,3.871,2.034c0.252,0,0.502-0.023,0.741-0.06c-0.229,0.158-0.447,0.339-0.652,0.533
			c-1.083,1.087-1.561,2.644-1.282,4.142l0.331,1.828L21.368,57.054z M23.699,63.771c0-1.287,0.182-2.58,0.536-3.837l0.507-1.808
			l1.847,0.337c0.266,0.052,0.547,0.084,0.833,0.084c1.24,0,2.41-0.494,3.309-1.372c0.208-0.221,0.394-0.431,0.554-0.679
			c-0.052,0.289-0.086,0.578-0.086,0.895c0,1.523,0.757,2.959,2.013,3.826l1.535,1.051l-0.898,1.645
			c-0.628,1.151-1.417,2.208-2.318,3.111c-1.687,1.683-3.773,2.901-6.073,3.543C24.309,68.517,23.699,66.178,23.699,63.771z
			 M35.871,76.9c-3.077,0-5.986-1.22-8.233-3.453c2.354-0.867,4.52-2.249,6.307-4.036c0.147-0.152,0.289-0.3,0.439-0.452
			l1.487-1.619l1.498,1.619c0.145,0.152,0.289,0.3,0.437,0.452c1.787,1.787,3.955,3.169,6.304,4.036
			C41.863,75.68,38.959,76.9,35.871,76.9z M46.291,70.567c-2.294-0.642-4.381-1.86-6.07-3.543c-0.901-0.903-1.688-1.96-2.32-3.111
			l-0.896-1.645l1.535-1.051c1.253-0.867,2.01-2.303,2.01-3.826c0-0.316-0.034-0.605-0.084-0.895
			c0.16,0.248,0.344,0.458,0.555,0.679c0.896,0.878,2.065,1.372,3.306,1.372c0.287,0,0.57-0.032,0.841-0.084l1.837-0.337
			l0.507,1.808c0.354,1.257,0.541,2.55,0.541,3.837C48.051,66.178,47.436,68.517,46.291,70.567z M48.595,56.534l0.336-1.828
			c0.276-1.498-0.205-3.055-1.288-4.142c-0.208-0.194-0.423-0.375-0.652-0.533c0.242,0.037,0.494,0.06,0.744,0.06
			c1.556,0,3.003-0.762,3.868-2.034l1.056-1.545l1.64,0.904c1.186,0.646,2.247,1.442,3.172,2.365
			c1.706,1.713,2.936,3.805,3.561,6.07c-2.047,1.156-4.389,1.771-6.798,1.771c0,0-0.008,0-0.011,0c-1.288,0-2.581-0.189-3.842-0.567
			L48.595,56.534z M58.129,67.681c-2.171,2.176-5.114,3.374-8.289,3.39c1.054-2.275,1.608-4.777,1.608-7.284
			c0-0.221-0.005-0.426-0.016-0.641l-0.084-2.208l2.207,0.063h0.129c0.173,0.011,0.35,0.016,0.528,0.016
			c2.518,0,5.024-0.557,7.308-1.613C61.503,62.578,60.31,65.501,58.129,67.681z M67.353,45.421c0,3.093-1.222,5.997-3.456,8.253
			c-0.859-2.346-2.236-4.506-4.028-6.298c-0.155-0.16-0.315-0.308-0.471-0.455l-1.603-1.5l0.008-0.008l-0.008-0.003l1.603-1.508
			c0.155-0.145,0.315-0.294,0.471-0.452c1.792-1.787,3.169-3.953,4.028-6.299c2.233,2.257,3.456,5.161,3.456,8.259v0.003
			C67.353,45.413,67.353,45.416,67.353,45.421z"/>
	</g>
</g>
</svg>
