<?xml version="1.0" encoding="utf-8"?>
<!-- Generator: Adobe Illustrator 19.1.0, SVG Export Plug-In . SVG Version: 6.00 Build 0)  -->
<svg version="1.1" id="Layer_1" xmlns="http://www.w3.org/2000/svg" xmlns:xlink="http://www.w3.org/1999/xlink" x="0px" y="0px"
	 viewBox="0 0 778.8 195.6" style="enable-background:new 0 0 778.8 195.6;" xml:space="preserve">
<style type="text/css">
	.st0{opacity:0.45;}
	.st1{fill:#80B000;}
	.st2{fill:#FFFFFF;}
	.st3{fill:none;stroke:#808080;stroke-width:0.9591;stroke-miterlimit:10;}
</style>
<g>
	<g class="st0">
		<path class="st1" d="M386.4,125.1h-0.6c-2.5,0-4.8-0.5-7.1-1.6c2.3-1.5,4.5-3.2,6.5-5.2c0.2-0.2,0.5-0.5,0.7-0.7
			c0.2,0.2,0.4,0.5,0.7,0.7c1.9,1.9,4.1,3.7,6.5,5.1c-0.6,0.3-1.1,0.5-1.5,0.6l0.4,0.2l-0.7,0.2l0.2-0.4c-0.1,0-0.2,0.1-0.5,0.2
			l-0.2,0.1c-0.3,0.1-0.5,0.1-0.8,0.2h-0.1l-0.1,0c-0.1,0-0.2,0.1-0.3,0.1l-0.1,0C388.3,125,387.3,125.1,386.4,125.1L386.4,125.1
			L386.4,125.1z M353.6,113.2c-2.4-0.9-4.4-2.2-6.2-3.9c-1.7-1.7-3-3.8-3.9-6.2c2.7,0.6,5.5,1,8.2,1c0.3,0,0.6,0,1,0
			c0,0.3,0,0.6,0,1C352.7,107.7,353,110.5,353.6,113.2L353.6,113.2z M417.9,113.2c0.6-2.7,0.9-5.5,0.9-8.2v0l0-0.1
			c0-0.3,0-0.6,0-0.9c0.3,0,0.7,0,1,0c2.8,0,5.5-0.3,8.2-0.9c-0.2,0.6-0.4,1.1-0.6,1.5l0.4-0.2l-0.3,0.6l-0.1-0.4
			c0,0.1-0.1,0.1-0.1,0.2l-0.2,0.3l0-0.1l-0.2,0.3c-0.1,0.2-0.3,0.5-0.4,0.8l0,0.1l0,0c0,0.1-0.1,0.2-0.1,0.2l-0.1,0.1
			c-0.7,1-1.4,1.9-2.2,2.7C422.3,111,420.3,112.3,417.9,113.2L417.9,113.2z M368.6,112.4c-0.8-2.4-1.3-4.8-1.3-7.4
			c0-1.9,0.3-3.8,0.8-5.7c0.6,0.1,1.3,0.1,1.9,0.1c1.4,0,2.8-0.2,4.2-0.7c0.9,1.9,2.3,3.5,4,4.8c-0.9,1.7-2.1,3.2-3.4,4.6
			C373,109.8,370.9,111.3,368.6,112.4L368.6,112.4z M402.9,112.3c-2.3-1.1-4.3-2.5-6.1-4.3c-1.3-1.4-2.5-2.9-3.5-4.6
			c1.7-1.2,3-2.9,4-4.8c1.3,0.5,2.7,0.7,4.1,0.7c0.7,0,1.3-0.1,2-0.2c0.5,1.8,0.8,3.7,0.8,5.6v0.2
			C404.2,107.5,403.8,110,402.9,112.3L402.9,112.3z M351.7,89.4c-2.5,0-5-0.4-7.4-1.3c1.1-2.3,2.5-4.3,4.3-6.1
			c1.4-1.4,2.9-2.5,4.7-3.5c1.2,1.6,2.8,3,4.6,3.9c-0.5,1.4-0.7,2.8-0.7,4.3c0,0.7,0.1,1.3,0.1,1.9
			C355.5,89.1,353.6,89.4,351.7,89.4L351.7,89.4z M419.8,89.3c-1.9,0-3.8-0.3-5.8-0.8c0.1-0.6,0.2-1.3,0.2-2c0-1.4-0.2-2.8-0.7-4.2
			c1.9-0.9,3.5-2.3,4.7-4c1.7,1,3.3,2.2,4.6,3.5c1.8,1.8,3.2,3.8,4.3,6.1C424.8,88.9,422.3,89.3,419.8,89.3L419.8,89.3z M333.2,78.1
			c-1.1-2.3-1.6-4.7-1.6-7.1c0-2.5,0.5-4.9,1.6-7.1c1.5,2.3,3.2,4.5,5.2,6.5c0.2,0.2,0.5,0.5,0.7,0.7c-0.2,0.2-0.5,0.5-0.7,0.7l0,0
			C336.4,73.6,334.6,75.7,333.2,78.1L333.2,78.1z M438.4,78.1c-1.5-2.3-3.2-4.5-5.1-6.4c-0.2-0.2-0.5-0.5-0.7-0.7
			c0.2-0.2,0.5-0.4,0.7-0.7c2-2,3.7-4.2,5.2-6.5c0.1,0.2,0.1,0.3,0.2,0.5l0.1,0.3l0.1,0.2c0.1,0.1,0.1,0.2,0.1,0.3l0,0.1l0,0.1
			c0.1,0.2,0.1,0.4,0.2,0.6l0.1,0.3l0.1,0.1c0,0.2,0.1,0.4,0.1,0.5l0,0.1l0,0.1c0,0.2,0.1,0.3,0.1,0.5l0,0.1l0,0.1
			c0.2,1,0.3,2.1,0.3,3.2v0.1v0.1C439.9,73.4,439.4,75.8,438.4,78.1L438.4,78.1z M353.3,63.4c-1.7-1-3.3-2.2-4.6-3.5
			c-1.8-1.8-3.2-3.8-4.3-6.1c2.4-0.8,4.8-1.3,7.4-1.3h0.1c1.9,0,3.8,0.3,5.7,0.8c-0.1,0.7-0.2,1.3-0.2,2c0,1.4,0.2,2.8,0.7,4.1
			C356.1,60.4,354.5,61.8,353.3,63.4L353.3,63.4z M418.2,63.4c-1.2-1.7-2.8-3-4.7-3.9c0.5-1.4,0.7-2.8,0.7-4.3
			c0-0.6-0.1-1.3-0.1-1.9c1.9-0.5,3.8-0.8,5.7-0.8c2.5,0,5,0.4,7.3,1.3c-1.1,2.2-2.5,4.3-4.3,6.1C421.5,61.2,419.9,62.4,418.2,63.4
			L418.2,63.4z M374.2,43.2c-1.3-0.4-2.7-0.6-4-0.6c-0.7,0-1.4,0.1-2,0.2c-0.5-1.9-0.8-3.9-0.8-5.8c0-2.5,0.4-5,1.3-7.3
			c2.3,1.1,4.3,2.5,6.1,4.3c1.3,1.3,2.5,2.8,3.5,4.5C376.5,39.6,375.1,41.3,374.2,43.2L374.2,43.2z M397.2,43.1
			c-0.9-1.9-2.3-3.5-3.9-4.7c1-1.7,2.1-3.2,3.5-4.6c1.8-1.8,3.9-3.2,6.1-4.3c0.8,2.3,1.3,4.8,1.3,7.4c0,1.9-0.3,3.7-0.8,5.6
			c-0.6-0.1-1.3-0.1-1.9-0.1C400,42.4,398.6,42.6,397.2,43.1L397.2,43.1z M343.5,38.8c0.9-2.4,2.2-4.5,3.9-6.2
			c1.2-1.2,2.7-2.3,4.3-3.1l0,0l0,0l0.2-0.1c0.2-0.1,0.3-0.2,0.5-0.2c0.2-0.1,0.4-0.2,0.5-0.2c0.1,0,0.2-0.1,0.3-0.1
			c0.1-0.1,0.3-0.1,0.4-0.1c-0.6,2.7-0.9,5.5-0.9,8.2c0,0.3,0,0.7,0,1c-0.3,0-0.5,0-0.8,0h-0.1h-0.1h0h-0.2
			C348.8,37.9,346.1,38.2,343.5,38.8L343.5,38.8z M428,38.8c-2.7-0.6-5.4-0.9-8.2-1c-0.3,0-0.7,0-1,0c0-0.3,0-0.6,0-1
			c0-2.8-0.3-5.6-0.9-8.3c0.2,0.1,0.3,0.1,0.5,0.2l0.3,0.1l0.1,0.1c0.1,0.1,0.3,0.1,0.4,0.2l0.1,0l0.1,0c0.2,0.1,0.4,0.2,0.5,0.2
			c0.1,0,0.2,0.1,0.3,0.1l0.2,0.1c0.1,0.1,0.3,0.2,0.5,0.3l0.1,0l0.1,0c0.1,0.1,0.3,0.2,0.4,0.3l0.1,0l0.1,0
			c0.9,0.6,1.8,1.3,2.7,2.2C425.8,34.3,427.1,36.4,428,38.8L428,38.8z M417.8,28.5c0-0.2-0.1-0.3-0.1-0.5l0-0.1l0.9,0.3L417.8,28.5
			L417.8,28.5z M385.7,24.2c-0.2-0.2-0.4-0.5-0.7-0.7c-1.9-2-4.1-3.7-6.5-5.2c2.3-1.1,4.7-1.6,7.2-1.6c1.8,0,3.5,0.3,5.3,0.9l0,0
			l-0.1,0l0.1,0c0.2,0.1,0.4,0.2,0.6,0.2l0,0c0.2,0.1,0.4,0.1,0.5,0.2c0.1,0,0.2,0.1,0.2,0.1l-0.1,0l0.1,0c0.1,0.1,0.3,0.1,0.4,0.2
			c-2.4,1.5-4.5,3.2-6.5,5.1C386.2,23.7,386,24,385.7,24.2L385.7,24.2z"/>
		<path class="st1" d="M385.8,135.6L385.8,135.6c-7.5,0-14.5-3-19.9-8.3c-0.8-0.8-1.6-1.7-2.4-2.7c-1.2,0.2-2.4,0.2-3.6,0.2
			c-7.6,0-14.7-2.9-19.9-8.1c-5.6-5.6-8.4-13.1-8.1-21.2c0-0.7,0.1-1.5,0.2-2.3c-1-0.8-1.9-1.6-2.7-2.4c-5.4-5.4-8.3-12.4-8.3-19.9
			c0-7.9,3.3-15.3,9.3-20.7c0.5-0.5,1.1-1,1.7-1.5c-0.1-0.8-0.2-1.5-0.2-2.3c-0.4-8.1,2.5-15.7,8.1-21.3c2-2,4.4-3.7,7-5.1l0.3-0.1
			l0.2-0.1l0.4-0.2c0.4-0.2,0.7-0.3,1-0.5l0.1,0l0,0l0.3-0.1l0.3-0.1c0.2-0.1,0.4-0.1,0.6-0.2l0.2-0.1l0.1,0l0.3-0.1l0,0l0,0
			l0.3-0.1c0.3-0.1,0.6-0.2,1-0.3c0.5-0.1,1-0.3,1.4-0.4l0.2-0.1l0.2,0l0.1,0l0.1,0l0.5-0.1l0.1,0h0.1l0.2,0l0.1,0l0.1,0
			c0.3-0.1,0.6-0.1,1-0.2c1.3-0.2,2.5-0.2,3.8-0.2c1.2,0,2.3,0.1,3.6,0.2c0.5-0.6,1-1.2,1.5-1.8c5.5-6,12.8-9.3,20.7-9.3
			c2.8,0,5.7,0.5,8.5,1.4l0.3,0.1l0.1,0l0.4,0.2c0.4,0.1,0.8,0.3,1.1,0.4l0.4,0.1l0.3,0.1c0.2,0.1,0.4,0.2,0.6,0.3l0.1,0.1l0.2,0.1
			l0.2,0.1l0,0l0,0l0.2,0.1l0,0l0.1,0.1c0.2,0.1,0.5,0.2,0.8,0.4c0.5,0.3,1,0.6,1.4,0.9l0.1,0.1l0.1,0.1l0.1,0.1h0l0.5,0.3l0,0l0,0
			l0.2,0.1l0.1,0.1l0.1,0.1c0.2,0.2,0.5,0.4,0.8,0.6c1,0.8,2,1.6,2.8,2.5c0.8,0.8,1.6,1.7,2.4,2.7c1.3-0.2,2.5-0.2,3.7-0.2
			c2.2,0,4.4,0.3,6.6,0.8l0.2,0l0.1,0l0,0l0.1,0l0.1,0l0.1,0l0.6,0.2l0.1,0l0.1,0l0.1,0l0.3,0.1l1,0.3l0.2,0.1l0.3,0.1
			c0.4,0.2,0.9,0.3,1.3,0.5c0.4,0.2,0.7,0.3,1,0.4c0.3,0.2,0.6,0.3,0.9,0.4l0.2,0.1l0.3,0.2c0.4,0.2,0.8,0.4,1.1,0.6
			c0.4,0.3,0.8,0.5,1.1,0.7l0.1,0l0.1,0c1.5,1,2.8,2.1,4,3.3c5.6,5.6,8.4,13.1,8.1,21.2c0,0.7-0.1,1.5-0.2,2.3
			c1,0.8,1.9,1.6,2.8,2.4c1.6,1.6,3,3.3,4.2,5.2l0.1,0.1l0.1,0.1l0,0l0,0l0,0.1l0,0.1l0,0l0.4,0.6l0.1,0.1l0,0.1l0,0.1l0.2,0.3
			c0.1,0.2,0.2,0.4,0.3,0.7l0,0l0,0l0.1,0.1l0.1,0.2l0.1,0.2c0.2,0.4,0.4,0.8,0.5,1.3c0.2,0.4,0.3,0.7,0.4,1l0.1,0.2
			c0.1,0.2,0.2,0.5,0.2,0.7l0.1,0.2l0.1,0.3c0.1,0.5,0.3,0.9,0.3,1.2c0.1,0.5,0.2,0.9,0.3,1.4l0,0.1l0,0.1c0.3,1.7,0.5,3.5,0.5,5.2
			c0,7.9-3.3,15.2-9.3,20.7c-0.6,0.5-1.1,1-1.7,1.5c0.7,5.6-0.2,11.1-2.6,16l-0.1,0.2l0,0l0,0l0,0.1l0,0.1c0,0.1-0.1,0.2-0.1,0.2
			l-0.1,0.1l-0.1,0.2l-0.1,0.1c-0.2,0.4-0.4,0.7-0.7,1.2c-0.1,0.2-0.2,0.4-0.3,0.5l0,0.1l-0.1,0.2c-1.1,1.6-2.2,3.1-3.6,4.4
			c-5.2,5.2-12.3,8.1-19.9,8.1c-1.2,0-2.3-0.1-3.6-0.2c-3.5,4.4-8,7.7-13.1,9.5l-0.2,0.1l-0.1,0l-0.1,0l0,0l-0.5,0.2l-0.2,0l-0.1,0
			c-0.4,0.1-0.8,0.2-1.3,0.4c-0.3,0.1-0.4,0.1-0.6,0.1l-0.3,0.1C389.5,135.4,387.7,135.6,385.8,135.6L385.8,135.6z M370.5,122.9
			c4.2,4.1,9.6,6.4,15.3,6.4c1.5,0,2.9-0.1,4.4-0.5l0.2,0c0.1,0,0.3-0.1,0.5-0.1c0.4-0.1,0.8-0.2,1.1-0.3l0.2-0.1l0.4-0.1l0.1,0
			l0.1,0l0.1,0c3.1-1.1,5.9-2.9,8.3-5.2c-4.4-1.6-8.4-4.2-11.7-7.5c-0.3-0.3-0.6-0.6-0.8-0.9l-2.8-3l-2.8,3
			c-0.3,0.3-0.5,0.6-0.8,0.8C378.9,118.7,374.8,121.3,370.5,122.9L370.5,122.9z M338.2,96.9c0,5.9,2.2,11.3,6.3,15.3
			c4,4,9.5,6.2,15.4,6.3c-2-4.2-3-8.9-3-13.5c0-0.4,0-0.8,0-1.2l0.2-4.1l-4.1,0.1h-0.2c-0.3,0-0.6,0-1,0
			C347.1,99.9,342.4,98.8,338.2,96.9L338.2,96.9z M414.5,99.7l0.2,4.1c0,0.4,0,0.8,0,1.2c0,4.7-1,9.3-3,13.5
			c5.9,0,11.3-2.3,15.3-6.3c1-1,1.9-2.1,2.8-3.4l0,0l0-0.1c0.1-0.2,0.2-0.3,0.2-0.4c0.2-0.3,0.4-0.7,0.6-1l0.1-0.2
			c0.1-0.2,0.2-0.3,0.2-0.4l0.1-0.3c1.4-2.9,2.2-6.2,2.2-9.6c-4.2,2-8.8,3-13.5,3c-0.4,0-0.8,0-1.2,0L414.5,99.7L414.5,99.7z
			 M365.1,94.5l-0.9,3.3c-0.7,2.3-1,4.7-1,7.1c0,4.5,1.1,8.8,3.3,12.6c4.3-1.2,8.1-3.4,11.3-6.6c1.7-1.7,3.1-3.6,4.3-5.8l1.7-3
			l-2.8-2c-2.3-1.6-3.7-4.3-3.7-7.1c0-0.6,0.1-1.1,0.2-1.7c-0.3,0.4-0.6,0.9-1,1.3c-1.7,1.6-3.8,2.5-6.1,2.5c-0.5,0-1.1,0-1.6-0.1
			L365.1,94.5L365.1,94.5z M387.8,102.2l1.7,3c1.2,2.1,2.6,4,4.3,5.7c3.1,3.1,7,5.4,11.3,6.6c2.1-3.8,3.2-8.1,3.2-12.6
			c0-2.4-0.3-4.9-1-7.2l-1-3.3L403,95c-0.5,0.1-1.1,0.2-1.6,0.2c-2.3,0-4.5-0.9-6.1-2.6c-0.4-0.3-0.7-0.7-0.9-1.1
			c0.1,0.5,0.1,1,0.1,1.6c0,2.9-1.4,5.5-3.7,7.1L387.8,102.2L387.8,102.2z M339.1,90.3c3.8,2.1,8.1,3.3,12.6,3.3c0,0,0,0,0,0
			c2.4,0,4.8-0.3,7.1-1l3.3-1l-0.6-3.4c-0.5-2.8,0.4-5.7,2.4-7.7c0.4-0.4,0.8-0.7,1.2-1c-0.5,0.1-0.9,0.1-1.4,0.1
			c-2.9,0-5.6-1.4-7.2-3.8l-2-2.9l-3,1.7c-2.2,1.2-4.2,2.7-5.9,4.4C342.5,82.2,340.3,86.1,339.1,90.3L339.1,90.3z M409.2,91.5l3.3,1
			c2.4,0.7,4.9,1.1,7.3,1.1c4.5,0,8.8-1.1,12.6-3.3c-1.2-4.2-3.5-8.1-6.6-11.2c-1.7-1.7-3.7-3.2-5.9-4.4l-3-1.7l-2,2.9
			c-1.6,2.4-4.3,3.8-7.2,3.8c-0.5,0-0.9,0-1.4-0.1c0.4,0.3,0.7,0.5,1,0.9c2,2,2.9,4.9,2.4,7.7L409.2,91.5L409.2,91.5z M370.1,78
			c2.3,0,4.5,0.9,6.1,2.5c2.1,2.1,2.9,5,2.4,7.8c1.6-2.3,4.2-3.8,7.2-3.8c2.9,0,5.5,1.4,7,3.6c-0.1-0.5-0.1-1-0.1-1.6
			c0-2.3,0.9-4.5,2.5-6.1c1.6-1.6,3.8-2.5,6.1-2.5c0.5,0,0.9,0,1.4,0.1c-2.2-1.6-3.6-4.1-3.6-7c0-3,1.5-5.6,3.8-7.2
			c-0.5,0.1-1,0.1-1.5,0.1c-2.3,0-4.5-0.9-6.1-2.5c-1.6-1.6-2.5-3.8-2.5-6.1c0-0.5,0-1,0.1-1.6c-0.3,0.5-0.7,0.9-1,1.2
			c-1.6,1.6-3.8,2.5-6.1,2.6c-2.9,0-5.4-1.4-7-3.6c0.1,0.5,0.1,1,0.1,1.5c0,2.3-0.9,4.5-2.5,6.1c-1.6,1.6-3.8,2.5-6.1,2.5
			c-0.5,0-0.9,0-1.4-0.1c0.4,0.3,0.7,0.6,1.1,0.9c1.6,1.6,2.5,3.8,2.5,6.1c0,2.3-0.9,4.5-2.5,6.1c-0.4,0.4-0.8,0.7-1.2,1
			C369.1,78,369.6,78,370.1,78L370.1,78z M333.8,55.6c-4.1,4.2-6.4,9.6-6.4,15.3c0,5.7,2.3,11.1,6.4,15.3c1.6-4.3,4.2-8.4,7.5-11.7
			c0.3-0.3,0.6-0.6,0.9-0.8l3-2.8l-3-2.8c-0.3-0.3-0.6-0.5-0.9-0.8C338,64,335.4,60,333.8,55.6L333.8,55.6z M426.3,70.9l3,2.8
			c0.3,0.3,0.6,0.6,0.9,0.9c3.3,3.3,5.8,7.3,7.4,11.6c4.1-4.2,6.4-9.6,6.4-15.3c0-1.4-0.1-2.8-0.4-4.2c-0.1-0.4-0.1-0.7-0.2-1
			c-0.1-0.3-0.1-0.5-0.2-0.7l-0.1-0.2l0-0.1l0-0.1l-0.1-0.2c-0.1-0.3-0.2-0.5-0.2-0.7c-0.1-0.2-0.2-0.5-0.3-0.7l-0.1-0.3l0-0.1
			c-0.1-0.3-0.2-0.5-0.3-0.8l0-0.1l0,0c-0.3-0.5-0.5-1-0.8-1.5l0-0.1l0,0l-0.2-0.4c-0.9-1.5-2-2.8-3.3-4.1
			c-1.6,4.3-4.1,8.4-7.5,11.7c-0.3,0.3-0.6,0.6-0.8,0.8L426.3,70.9L426.3,70.9z M339.1,51.6c1.2,4.2,3.4,8.1,6.6,11.2
			c1.7,1.7,3.6,3.2,5.8,4.4l3.1,1.7l2-2.9c1.6-2.4,4.3-3.8,7.2-3.8c0.5,0,0.9,0,1.4,0.1c-0.4-0.3-0.7-0.6-1-0.9
			c-2-2-2.9-4.9-2.4-7.7l0.7-3.4l-3.3-1c-2.4-0.7-4.8-1-7.3-1C347.2,48.3,342.9,49.5,339.1,51.6L339.1,51.6z M407.8,62.3
			c2.9,0,5.5,1.4,7.2,3.8l2,2.8l3-1.7c2.2-1.2,4.2-2.7,5.9-4.4c3.2-3.2,5.4-7,6.6-11.2c-3.8-2.2-8.2-3.3-12.6-3.3
			c-2.4,0-4.8,0.3-7.2,1l-3.3,1l0.6,3.4c0.5,2.9-0.3,5.7-2.4,7.7c-0.4,0.4-0.8,0.7-1.2,1C406.8,62.3,407.3,62.3,407.8,62.3
			L407.8,62.3z M387.8,39.7l2.8,2c2.3,1.6,3.7,4.3,3.7,7.1c0,0.5-0.1,1.1-0.1,1.6c0.3-0.4,0.6-0.8,1-1.2c1.6-1.6,3.8-2.5,6.1-2.5
			c0.5,0,1.1,0,1.6,0.1l3.4,0.6l0.9-3.4c0.7-2.4,1-4.7,1-7.1c0-4.4-1.1-8.8-3.3-12.6c-4.2,1.2-8.1,3.5-11.2,6.6
			c-1.7,1.7-3.2,3.7-4.4,5.8L387.8,39.7L387.8,39.7z M370.2,46.7c2.3,0,4.5,0.9,6.1,2.5c0.3,0.3,0.6,0.6,0.9,1
			c-0.1-0.5-0.1-1-0.1-1.4c0-2.9,1.4-5.5,3.7-7.1l2.9-2l-1.7-3c-1.2-2.1-2.6-4.1-4.3-5.7c-3.1-3.1-7-5.4-11.2-6.6
			c-2.1,3.8-3.3,8.1-3.3,12.6c0,2.4,0.3,4.8,1,7.2l0.9,3.4l3.5-0.6C369.1,46.7,369.7,46.7,370.2,46.7L370.2,46.7z M355,23.9
			L355,23.9c-0.4,0.1-0.9,0.2-1.3,0.3c-0.2,0.1-0.4,0.1-0.6,0.2l-0.2,0.1l-0.3,0.1c-0.1,0-0.1,0.1-0.2,0.1l-0.1,0
			c-0.2,0-0.4,0.1-0.5,0.2l-0.1,0l-0.1,0.1l-0.2,0.1c-0.2,0.1-0.5,0.2-0.7,0.3l-0.1,0.1l-0.1,0l0,0l0,0l-0.2,0.1l-0.2,0.1l-0.1,0
			l-0.1,0c-2,1-3.9,2.4-5.4,3.9c-4.1,4-6.3,9.5-6.3,15.4c4.2-1.9,8.8-3,13.5-3h0.2c0.3,0,0.7,0,1,0l4.1,0.1l-0.1-4.1
			c0-0.4,0-0.8,0-1.2c0-4.7,1-9.3,3-13.5c-1,0-2,0.1-3,0.2c-0.3,0-0.5,0.1-0.8,0.1h0l0,0l-0.3,0l-0.2,0.1l-0.3,0.1L355,23.9
			L355,23.9z M419.8,42L419.8,42c4.6,0,9.3,1,13.5,3c0-5.9-2.2-11.3-6.3-15.4c-1-1-2.1-1.9-3.3-2.7c-0.3-0.2-0.5-0.4-0.8-0.5
			c-0.3-0.2-0.5-0.3-0.7-0.4l-0.1-0.1l-0.1-0.1l-0.1,0l-0.1,0l-0.2-0.1c-0.2-0.1-0.4-0.2-0.7-0.3c-0.3-0.1-0.5-0.2-0.8-0.3l-0.2-0.1
			l-0.2-0.1c-0.2-0.1-0.5-0.2-0.7-0.3l-0.1,0l-0.1,0c-0.6-0.2-1.1-0.3-1.7-0.5l-0.1,0l-0.1,0l-0.4-0.1c-1.7-0.4-3.5-0.6-5.2-0.6
			c1.9,4.2,3,8.9,3,13.5c0,0.4,0,0.8,0,1.2l-0.2,4.2l4.2-0.2C419,42,419.4,42,419.8,42L419.8,42z M370.5,19
			c4.4,1.6,8.4,4.2,11.6,7.4c0.3,0.3,0.5,0.6,0.8,0.9l2.8,3l2.8-3c0.3-0.3,0.6-0.6,0.8-0.9c3.3-3.3,7.3-5.8,11.7-7.4
			c-0.7-0.7-1.5-1.4-2.3-2c-0.2-0.2-0.4-0.3-0.6-0.4l0,0l0,0l-0.2-0.2l-0.3-0.2l-0.2-0.1l-0.3-0.2v0c-0.3-0.2-0.6-0.4-1-0.6
			c-0.2-0.1-0.4-0.2-0.5-0.3l-0.2-0.1l-0.3-0.1c-0.1,0-0.1-0.1-0.2-0.1l-0.1,0l-0.1-0.1c-0.1-0.1-0.3-0.1-0.4-0.2l-0.1,0l-0.1,0
			l-0.2-0.1c-0.3-0.1-0.5-0.2-0.8-0.3l-0.1,0l-0.1,0c-0.1,0-0.2-0.1-0.3-0.1l-0.1,0l-0.2-0.1c-2.2-0.7-4.4-1-6.6-1
			C380,12.5,374.7,14.8,370.5,19L370.5,19z"/>
	</g>
	<g>
		<g>
			<path class="st2" d="M285.8,55.4l-0.2,1.2c-2.9,0.4-4.3,1.5-6.4,3.5l-8.4,10.1l-1.2,6.4c-0.1,0.5-0.2,0.8-0.2,1.3
				c0,0.6,0.2,1.2,0.5,1.6c0.5,0.8,1.2,0.9,2,0.9l0.8,0.1l-0.2,1.2h-11.5l0.2-1.2l0.5,0c1.2,0,2-0.1,2.8-1c1-1,1-2,1.3-3.2l1-5.4
				l-5.5-11.3c-0.9-1.9-1.1-2.2-3.4-2.8l0.2-1.2h10.4l-0.2,1.2c-1.2,0.1-2.8,0.4-2.8,1.9c0,0.6,0.2,1,0.5,1.5l4,8.6l7.3-8.7
				c0.5-0.6,0.8-1,0.8-1.8c0-1.1-1.5-1.4-2.3-1.5l0.2-1.2H285.8z"/>
			<path class="st2" d="M290.7,81.8c-4.8,0-8.1-2.9-8.1-7.8c0-2.8,1.3-5.8,3.2-7.9c2.2-2.4,5-3.5,8.2-3.5c4.8,0,8,3.1,8,7.9
				C302,76.8,297,81.8,290.7,81.8z M290.9,80c2.7,0,4.5-1.5,5.7-3.8c0.9-1.9,1.5-4.6,1.5-6.7c0-1.3-0.2-3-1.2-4.1
				c-0.7-0.8-2.1-1.1-3.2-1.1c-5.2,0-7.2,6.5-7.2,10.7C286.5,78,287.7,80,290.9,80z"/>
			<path class="st2" d="M321.9,75.1c-0.1,0.7-0.3,1.8-0.3,2.5c0,1.1,0.8,2.1,2,2.1c1,0,2-0.7,2.6-1.4l0.9,0.8
				c-1.3,1.6-3.3,2.7-5.4,2.7c-2.2,0-3.6-1.3-3.9-3.5c-2.3,2-5.2,3.5-8.3,3.5c-2.4,0-4.4-1.1-4.4-3.7c0-0.9,0.2-1.7,0.3-2.6l1.2-7.1
				c0.1-0.5,0.2-0.9,0.2-1.4c0-1.2-0.7-1.5-1.8-1.8l-0.9-0.2l0.2-1.2l5.4-1h1.3l-2.2,12.6c-0.1,0.6-0.2,1.2-0.2,1.7v0.3
				c0.1,1.5,1.1,2.3,2.5,2.3c2.6,0,4.9-1.6,6.9-3l2.5-13.9h3.5L321.9,75.1z"/>
			<path class="st2" d="M334.4,65.3L334.4,65.3c1.7-1.4,3.9-2.8,6.2-2.8c1.1,0,2.4,0.5,2.4,1.8c0,1.4-1.2,2-2.5,2
				c-1.5,0-2-1.1-3.1-1.1c-3.1,0-3.9,4.6-4.3,6.9l-1.6,9.3h-3.5l2.3-13.4c0.1-0.5,0.2-0.9,0.2-1.3c0-1.5-1.3-1.7-2.6-1.8l0.2-1.2
				l5.4-0.9h1.4L334.4,65.3z"/>
			<path class="st2" d="M370.5,55.4c1.9,0,4.5,0,6.3,0.8c2.1,0.8,3.4,2.4,3.4,4.7c0,3.7-3.4,5.9-6.7,6.4v0.1
				c2.9,0.4,5.8,2.3,5.8,5.5c0,3-1.9,5.7-4.5,7.1c-2.8,1.6-6.1,1.6-9.2,1.6h-13.3l0.2-1.2c3.1-0.3,3.6-1.7,4.1-4.3l2.8-15.8
				c0.1-0.5,0.2-0.8,0.2-1.2c0-1.5-0.8-2.4-2.3-2.5l-0.5,0l0.2-1.2H370.5z M360.2,76.4c-0.1,0.4-0.1,1-0.1,1.4
				c0,0.8,0.3,1.3,1.1,1.6c0.8,0.4,2.7,0.5,3.6,0.5c2.5,0,5-0.2,7.1-1.6c1.8-1.3,3-3.6,3-5.8c0-2.1-0.9-3.4-3-3.9
				c-1.7-0.4-3.8-0.4-5.5-0.4h-4.7L360.2,76.4z M366.6,66.7c2.1,0,4.6-0.1,6.5-1c1.8-0.9,3-2.6,3-4.6c0-3.9-4.6-4.1-7.4-4.1h-0.3
				c-1.3,0-3.2,0-4.1,0.8c-0.8,0.6-0.9,1.5-1,2.4l-1.2,6.5H366.6z"/>
			<path class="st2" d="M400.2,75.1c-0.1,0.7-0.3,1.8-0.3,2.5c0,1.1,0.8,2.1,2,2.1c1,0,2-0.7,2.6-1.4l0.9,0.8
				c-1.3,1.6-3.3,2.7-5.4,2.7c-2.2,0-3.6-1.3-3.9-3.5c-2.3,2-5.2,3.5-8.3,3.5c-2.4,0-4.4-1.1-4.4-3.7c0-0.9,0.2-1.7,0.3-2.6l1.2-7.1
				c0.1-0.5,0.2-0.9,0.2-1.4c0-1.2-0.7-1.5-1.8-1.8l-0.9-0.2l0.2-1.2l5.4-1h1.3l-2.2,12.6c-0.1,0.6-0.2,1.2-0.2,1.7v0.3
				c0.1,1.5,1.1,2.3,2.5,2.3c2.6,0,4.9-1.6,6.9-3l2.5-13.9h3.5L400.2,75.1z"/>
			<path class="st2" d="M410.8,72c-1.6-0.8-2.7-2-2.7-3.8c0-1.8,1.1-3.2,2.5-4.1c1.6-1,3.5-1.5,5.3-1.5c2,0,4.5,0.4,6.3,1.3
				c0.8,0.4,1.8,1.1,1.8,2.1c0,1-0.7,1.6-1.7,1.6c-1.1,0-1.5-0.5-2.2-1.3c-0.5-0.8-0.7-1.1-1.6-1.6c-0.8-0.5-1.7-0.7-2.6-0.7
				c-1.8,0-3.9,0.8-3.9,3c0,0.9,0.5,1.6,1.3,2.1c0.9,0.5,2.8,1,3.8,1.3c2.6,0.8,6,1.6,6,4.9c0,2.1-1.4,3.8-3.1,4.9
				c-1.8,1.1-3.9,1.5-6,1.5c-2.2,0-4.5-0.5-6.4-1.6c-0.9-0.5-2.1-1.4-2.1-2.5c0-0.9,0.8-1.7,1.8-1.7c3.3,0,2.1,4.2,7.1,4.2
				c1.1,0,2.4-0.3,3.3-0.9c0.8-0.6,1.6-1.6,1.6-2.6c0-2-1.8-2.5-3.4-3L410.8,72z"/>
			<path class="st2" d="M431.7,76.3c-0.1,0.4-0.2,0.8-0.2,1.3c0,1.3,0.8,2.1,2.1,2.1c1.1,0,1.9-0.7,2.6-1.3l0.9,0.8
				c-1.2,1.6-3.5,2.6-5.5,2.6c-2.3,0-3.6-1.6-3.6-3.8c0-0.6,0.1-1.2,0.2-1.8l1.4-7.9c0.1-0.4,0.2-0.8,0.2-1.3c0-1.6-1.2-1.8-2.5-2
				H427l0.2-1.2l1.6-0.2c1.3-0.2,2.7-0.3,4-0.8h1.3L431.7,76.3z M433.1,60.7c-1.1,0-1.8-1-1.8-2c0-1.3,1.3-2.6,2.6-2.6
				c1.1,0,2,0.7,2,1.8C436,59.5,434.6,60.7,433.1,60.7z"/>
			<path class="st2" d="M441.4,81.5H438l2.3-13.3c0.1-0.5,0.2-0.9,0.2-1.4c0-1.5-1.3-1.7-2.6-1.8l0.2-1.2l5.4-0.9h1.4l-0.5,2.8
				c2.4-1.7,5-3.1,8-3.1c2.4,0,4.7,1.1,4.7,3.8c0,0.8-0.2,1.5-0.3,2.3l-1.4,7.6c-0.1,0.6-0.2,1.1-0.2,1.7c0,1,0.8,2,1.8,2
				c1,0,1.9-0.7,2.6-1.3l0.8,0.8c-1.2,1.5-3.3,2.4-5.1,2.4c-2,0-3.6-1.4-3.6-3.4v-0.1c0-1.2,0.3-2.5,0.5-3.7l1.1-6.1
				c0.1-0.5,0.2-1.2,0.2-1.8c0-1.5-1.3-2.4-2.7-2.4c-2.5,0-4.9,1.6-6.8,3.1L441.4,81.5z"/>
			<path class="st2" d="M478.4,78.2c-2.5,2-6.1,3.6-9.4,3.6c-4.2,0-8.3-2.6-8.3-7.2c0-3.2,1.8-6.4,4.1-8.6c2.4-2.1,5.8-3.5,9.1-3.5
				c2.5,0,6.4,1.1,6.4,4.2c0,5.3-11.2,6.3-15.4,6.4c-0.2,0.6-0.3,1.2-0.3,1.9c0,3.3,2.4,5,5.6,5c2.8,0,4.9-1.4,7.2-2.9L478.4,78.2z
				 M465.3,71.7c3.3-0.1,11.3-0.7,11.3-5c0-2-1.8-2.8-3.5-2.8C469.1,64,466.2,68.3,465.3,71.7z"/>
			<path class="st2" d="M486.8,72c-1.6-0.8-2.7-2-2.7-3.8c0-1.8,1.1-3.2,2.5-4.1c1.6-1,3.5-1.5,5.3-1.5c2,0,4.5,0.4,6.3,1.3
				C499,64.3,500,65,500,66c0,1-0.7,1.6-1.7,1.6c-1.1,0-1.5-0.5-2.2-1.3c-0.5-0.8-0.7-1.1-1.6-1.6c-0.8-0.5-1.7-0.7-2.6-0.7
				c-1.8,0-3.9,0.8-3.9,3c0,0.9,0.5,1.6,1.3,2.1c0.9,0.5,2.8,1,3.8,1.3c2.6,0.8,6,1.6,6,4.9c0,2.1-1.4,3.8-3.1,4.9
				c-1.8,1.1-3.9,1.5-6,1.5c-2.2,0-4.5-0.5-6.5-1.6c-0.9-0.5-2.1-1.4-2.1-2.5c0-0.9,0.8-1.7,1.8-1.7c3.3,0,2.1,4.2,7.1,4.2
				c1.1,0,2.4-0.3,3.3-0.9c0.8-0.6,1.6-1.6,1.6-2.6c0-2-1.8-2.5-3.4-3L486.8,72z"/>
			<path class="st2" d="M507.6,72c-1.6-0.8-2.7-2-2.7-3.8c0-1.8,1.1-3.2,2.5-4.1c1.6-1,3.5-1.5,5.3-1.5c2,0,4.5,0.4,6.3,1.3
				c0.8,0.4,1.8,1.1,1.8,2.1c0,1-0.7,1.6-1.7,1.6c-1.1,0-1.5-0.5-2.2-1.3c-0.5-0.8-0.7-1.1-1.6-1.6c-0.8-0.5-1.7-0.7-2.6-0.7
				c-1.8,0-3.9,0.8-3.9,3c0,0.9,0.5,1.6,1.3,2.1c0.9,0.5,2.8,1,3.8,1.3c2.6,0.8,6,1.6,6,4.9c0,2.1-1.4,3.8-3.1,4.9
				c-1.8,1.1-3.9,1.5-6,1.5c-2.2,0-4.5-0.5-6.5-1.6c-0.9-0.5-2.1-1.4-2.1-2.5c0-0.9,0.8-1.7,1.8-1.7c3.3,0,2.1,4.2,7.1,4.2
				c1.1,0,2.4-0.3,3.3-0.9c0.8-0.6,1.6-1.6,1.6-2.6c0-2-1.8-2.5-3.4-3L507.6,72z"/>
		</g>
	</g>
</g>
<g>
	<line class="st3" x1="12.1" y1="160.5" x2="769.4" y2="160.5"/>
	<line class="st3" x1="11.7" y1="160.5" x2="11.7" y2="187.4"/>
	<line class="st3" x1="489.7" y1="160.5" x2="489.7" y2="187.4"/>
	<line class="st3" x1="231.4" y1="160.5" x2="231.4" y2="187.4"/>
	<line class="st3" x1="768.9" y1="160.5" x2="768.9" y2="187.4"/>
</g>
</svg>
