<svg xmlns="http://www.w3.org/2000/svg" viewBox="0 0 57.65 57.65"><title>tax-</title><path d="M33.58,14.74l2,1a7.07,7.07,0,0,0-13.69.37.35.35,0,0,1-.4.31A.34.34,0,0,1,21.2,16s0,0,0-.08a7.8,7.8,0,0,1,15.07-.47l1-2a.36.36,0,0,1,.64.31L36.52,16.6a.36.36,0,0,1-.48.16l-2.78-1.38a.34.34,0,0,1-.16-.47.36.36,0,0,1,.48-.17ZM19.79,21.41a.35.35,0,0,0,.16.48.37.37,0,0,0,.48-.16l.9-1.84a7.8,7.8,0,0,0,15.08-.43.36.36,0,0,0-.25-.44.35.35,0,0,0-.44.24.06.06,0,0,1,0,0A7.07,7.07,0,0,1,22,19.42l2.14,1.06a.36.36,0,1,0,.41-.58.19.19,0,0,0-.09,0l-2.78-1.38a.34.34,0,0,0-.47.16Z" fill="#65656a" stroke="#65656a" stroke-linejoin="round" stroke-width="0.9"/><path d="M42.38,39.21A6.36,6.36,0,0,0,45,34a6.48,6.48,0,1,0-12.95,0,6.35,6.35,0,0,0,2.64,5.18,10.3,10.3,0,0,0-5.88,5.36A10.25,10.25,0,0,0,23,39.21,6.35,6.35,0,0,0,25.59,34a6.48,6.48,0,1,0-12.95,0,6.34,6.34,0,0,0,2.63,5.18,10.28,10.28,0,0,0-6.8,9.62.93.93,0,0,0,.93.92H48.25a.93.93,0,0,0,.93-.92A10.28,10.28,0,0,0,42.38,39.21ZM14.49,34a4.63,4.63,0,1,1,4.62,4.62A4.64,4.64,0,0,1,14.49,34ZM10.37,47.9a8.32,8.32,0,0,1,8.28-7.4h.92a8.35,8.35,0,0,1,8.28,7.4ZM33.91,34a4.63,4.63,0,1,1,4.63,4.62A4.64,4.64,0,0,1,33.91,34ZM29.8,47.9a8.31,8.31,0,0,1,8.27-7.4H39a8.36,8.36,0,0,1,8.28,7.4Z" fill="#65656a"/></svg>