<svg xmlns="http://www.w3.org/2000/svg" viewBox="0 0 57.65 57.65"><title>tax-</title><path d="M29.9,27.38V24.44a8.35,8.35,0,0,1,2.3,1.1l1.19-2A7.87,7.87,0,0,0,30,22.15v-1.1H28.16V22.1c-2.29.23-3.85,1.56-3.85,3.58h0c0,2.16,1.28,3.17,3.9,3.86v3a7.21,7.21,0,0,1-3-1.51L23.8,33a8.84,8.84,0,0,0,4.31,1.75V36.6H30V34.86c2.34-.23,3.9-1.56,3.9-3.58v-.05C33.85,29.21,32.66,28.11,29.9,27.38Zm-1.69-.46c-1.11-.37-1.38-.78-1.38-1.38v0c0-.64.41-1.1,1.38-1.19Zm3.07,4.5c0,.68-.51,1.14-1.42,1.24V30c1.1.37,1.42.78,1.42,1.47Z" fill="#65656a"/><rect x="10.77" y="16.25" width="36.11" height="25.14" fill="none" stroke="#65656a" stroke-linejoin="round" stroke-width="1.86"/><line x1="14.63" y1="21.09" x2="21.42" y2="21.09" fill="none" stroke="#65656a" stroke-linejoin="round" stroke-width="1.86"/><line x1="36.23" y1="21.09" x2="43.02" y2="21.09" fill="none" stroke="#65656a" stroke-linejoin="round" stroke-width="1.86"/><line x1="14.63" y1="36.55" x2="21.42" y2="36.55" fill="none" stroke="#65656a" stroke-linejoin="round" stroke-width="1.86"/><line x1="36.23" y1="36.55" x2="43.02" y2="36.55" fill="none" stroke="#65656a" stroke-linejoin="round" stroke-width="1.86"/></svg>