<?xml version="1.0" encoding="utf-8"?>
<!-- Generator: Adobe Illustrator 25.3.1, SVG Export Plug-In . SVG Version: 6.00 Build 0)  -->
<svg version="1.1" id="Layer_1" xmlns="http://www.w3.org/2000/svg" xmlns:xlink="http://www.w3.org/1999/xlink" x="0px" y="0px"
	 viewBox="0 0 124 72" style="enable-background:new 0 0 124 72;" xml:space="preserve">
<style type="text/css">
	.st0{fill:#004A7C;}
	.st1{fill:#A9D15D;}
</style>
<g id="Layer_1_1_">
	<g>
		<g>
			<path class="st0" d="M5.1,60.7c0,0.6-0.6,1-1.3,1H0.6v-3.5h3c0.4,0,0.8,0.2,1,0.4c0.2,0.2,0.2,0.4,0.2,0.6c0,0.3-0.1,0.5-0.4,0.7
				C4.8,60.1,5.1,60.3,5.1,60.7 M4,59.2c0-0.2-0.2-0.3-0.4-0.3H1.5v0.7h2.2C3.8,59.5,4,59.4,4,59.2 M4.1,60.6c0-0.2-0.2-0.4-0.6-0.4
				H1.4V61h2.2C4,61,4.1,60.9,4.1,60.6"/>
			<path class="st0" d="M9,61.8c-1.3,0-2.1-0.6-2.1-1.3v-2.4h0.9v2.3c0,0.5,0.5,0.7,1.3,0.7s1.3-0.3,1.3-0.7v-2.3h0.9v2.4
				C11.1,61.2,10.4,61.8,9,61.8"/>
			<rect x="13.2" y="58.2" class="st0" width="0.9" height="3.5"/>
			<polygon class="st0" points="16.1,61.7 16.1,58.2 17,58.2 17,61 19.7,61 19.7,61.7 			"/>
			<path class="st0" d="M25.9,60c0,0.6-0.2,0.9-0.6,1.3c-0.4,0.3-0.9,0.5-1.4,0.5h-2.5v-3.5h2.4C25.1,58.2,25.9,58.9,25.9,60
				 M24.7,60.6c0.2-0.2,0.2-0.4,0.2-0.6c0-0.6-0.5-1.1-1.2-1.1h-1.6v2.2h1.6C24.2,61,24.6,60.9,24.7,60.6"/>
			<rect x="27.7" y="58.2" class="st0" width="0.9" height="3.5"/>
			<polygon class="st0" points="33.9,61.7 31.6,59.2 31.5,59.2 31.5,61.7 30.6,61.7 30.6,58.2 31.7,58.2 34.1,60.7 34.1,60.7 
				34.1,58.2 35,58.2 35,61.7 			"/>
			<path class="st0" d="M41.2,61.2c-0.5,0.4-1.1,0.6-1.9,0.6c-0.7,0-1.3-0.2-1.8-0.6c-0.4-0.3-0.6-0.8-0.6-1.3s0.2-0.9,0.6-1.3
				c0.5-0.4,1.1-0.6,1.8-0.6c0.9,0,1.7,0.3,2,0.9l-0.9,0.3c-0.3-0.3-0.7-0.5-1.2-0.5c-0.9,0-1.6,0.6-1.6,1.2c0,0.4,0.2,0.7,0.6,0.9
				c0.2,0.2,0.6,0.3,1,0.3c0.7,0,1.3-0.3,1.6-0.8h-1.7v-0.7h2.7v0.2C41.8,60.5,41.6,60.9,41.2,61.2"/>
			<rect x="46" y="58.2" class="st0" width="0.9" height="3.5"/>
			<polygon class="st0" points="52.2,61.7 49.8,59.2 49.7,59.2 49.7,61.7 48.9,61.7 48.9,58.2 49.9,58.2 52.3,60.7 52.3,60.7 
				52.3,58.2 53.2,58.2 53.2,61.7 			"/>
			<path class="st0" d="M59.8,60c0,0.6-0.2,0.9-0.6,1.3c-0.4,0.3-0.9,0.5-1.4,0.5h-2.5v-3.5h2.4C59,58.2,59.8,58.9,59.8,60
				 M58.7,60.6c0.2-0.2,0.2-0.4,0.2-0.6c0-0.6-0.5-1.1-1.2-1.1h-1.6v2.2h1.6C58.1,61,58.5,60.9,58.7,60.6"/>
			<path class="st0" d="M63.8,61.8c-1.3,0-2.1-0.6-2.1-1.3v-2.4h0.9v2.3c0,0.5,0.5,0.7,1.3,0.7s1.3-0.3,1.3-0.7v-2.3h0.9v2.4
				C65.9,61.2,65.2,61.8,63.8,61.8"/>
			<path class="st0" d="M69.9,58.7c-0.7,0-1.1,0.2-1.1,0.4c0,0.2,0.1,0.2,0.3,0.2c0.3,0.1,0.8,0.1,1.3,0.1c1.1,0.1,1.7,0.4,1.7,1.1
				c0,0.8-0.7,1.3-2.1,1.3c-0.9,0-1.7-0.2-2.4-0.7l0.5-0.6c0.6,0.4,1.3,0.6,1.9,0.6c0.7,0,1.1-0.2,1.1-0.5s-0.5-0.3-1.3-0.3
				c-1.4-0.1-2-0.3-2-1s0.7-1.2,2-1.2c0.9,0,1.6,0.2,2.1,0.6l-0.5,0.6C71,58.9,70.4,58.7,69.9,58.7"/>
			<polygon class="st0" points="76.1,58.8 76.1,61.7 75.2,61.7 75.2,58.8 73.5,58.8 73.5,58.2 77.8,58.2 77.8,58.8 			"/>
			<path class="st0" d="M82.8,61.7l-0.9-1.3h-1.7v1.3h-0.9v-3.5h2.9c0.8,0,1.3,0.5,1.3,1.2c0,0.6-0.3,0.9-0.8,1.1l0.9,1.3L82.8,61.7
				L82.8,61.7z M82.8,59.3c0-0.2-0.2-0.5-0.6-0.5h-2v0.9h2C82.6,59.8,82.8,59.6,82.8,59.3"/>
			<polygon class="st0" points="87.8,60.3 87.8,61.7 86.9,61.7 86.9,60.3 84.8,58.2 85.9,58.2 87.4,59.7 88.8,58.2 89.9,58.2 			"/>
			<path class="st0" d="M4,69.3l-0.4-0.7H1.3l-0.4,0.8H0l1.9-3.5H3l1.8,3.5H4V69.3z M2.4,66.4l-0.8,1.5h1.6L2.4,66.4z"/>
			<path class="st0" d="M8.4,66.4c-0.7,0-1.1,0.2-1.1,0.4C7.3,67,7.4,67,7.6,67c0.3,0.1,0.8,0.1,1.3,0.1c1.1,0.1,1.7,0.4,1.7,1.1
				c0,0.8-0.7,1.3-2.1,1.3c-0.9,0-1.7-0.2-2.3-0.7l0.5-0.6c0.6,0.4,1.2,0.6,1.9,0.6c0.7,0,1.1-0.2,1.1-0.5S9.2,68,8.4,68
				c-1.4-0.1-2-0.3-2-1s0.7-1.2,2-1.2c0.9,0,1.6,0.2,2.1,0.6L10,67C9.4,66.5,8.9,66.4,8.4,66.4"/>
			<path class="st0" d="M14.3,66.4c-0.7,0-1.1,0.2-1.1,0.4c0,0.2,0.1,0.2,0.3,0.2c0.3,0.1,0.8,0.1,1.3,0.1c1.1,0.1,1.7,0.4,1.7,1.1
				c0,0.8-0.7,1.3-2.1,1.3c-0.9,0-1.7-0.2-2.4-0.7l0.5-0.6c0.6,0.4,1.3,0.6,1.9,0.6c0.7,0,1.1-0.2,1.1-0.5S15,68,14.2,68
				c-1.4-0.1-2-0.3-2-1s0.7-1.2,2-1.2c0.9,0,1.6,0.2,2.1,0.6l-0.4,0.5C15.4,66.5,14.8,66.4,14.3,66.4"/>
			<path class="st0" d="M22.3,68.9c-0.5,0.4-1.1,0.6-1.8,0.6c-0.7,0-1.3-0.2-1.8-0.6c-0.4-0.3-0.6-0.8-0.6-1.3
				c0-0.6,0.2-0.9,0.6-1.3c0.5-0.4,1.1-0.6,1.8-0.6c0.7,0,1.3,0.2,1.8,0.6c0.4,0.3,0.6,0.8,0.6,1.3C22.9,68.1,22.7,68.6,22.3,68.9
				 M20.5,66.4c-0.9,0-1.6,0.5-1.6,1.2s0.6,1.2,1.5,1.2s1.6-0.5,1.6-1.2C22.1,66.8,21.4,66.4,20.5,66.4"/>
			<path class="st0" d="M28.5,67c-0.4-0.4-0.9-0.6-1.6-0.6c-0.9,0-1.5,0.5-1.5,1.2s0.6,1.2,1.6,1.2c0.6,0,1.1-0.2,1.5-0.6l0.7,0.4
				c-0.6,0.7-1.3,0.9-2.2,0.9c-0.6,0-1.2-0.2-1.7-0.5s-0.7-0.9-0.7-1.5s0.2-0.9,0.6-1.3c0.5-0.4,1.1-0.6,1.8-0.6
				c0.9,0,1.7,0.3,2.3,1L28.5,67z"/>
			<rect x="31" y="65.8" class="st0" width="0.9" height="3.5"/>
			<path class="st0" d="M37.4,69.3L37,68.5h-2.3l-0.4,0.8h-0.9l1.9-3.5h1.1l1.9,3.5H37.4z M35.9,66.4l-0.8,1.5h1.6L35.9,66.4z"/>
			<polygon class="st0" points="41.5,66.4 41.5,69.3 40.6,69.3 40.6,66.4 38.9,66.4 38.9,65.8 43.2,65.8 43.2,66.4 			"/>
			<rect x="44.8" y="65.8" class="st0" width="0.9" height="3.5"/>
			<path class="st0" d="M51.8,68.9c-0.5,0.4-1.1,0.6-1.8,0.6s-1.3-0.2-1.8-0.6c-0.4-0.3-0.6-0.8-0.6-1.3c0-0.6,0.2-0.9,0.6-1.3
				c0.5-0.4,1.1-0.6,1.8-0.6s1.3,0.2,1.8,0.6c0.4,0.3,0.6,0.8,0.6,1.3C52.4,68.1,52.2,68.6,51.8,68.9 M50,66.4
				c-0.9,0-1.6,0.5-1.6,1.2s0.6,1.2,1.5,1.2s1.6-0.5,1.6-1.2C51.5,66.8,50.9,66.4,50,66.4"/>
			<polygon class="st0" points="57.5,69.3 55.1,66.8 55.1,66.8 55.1,69.3 54.2,69.3 54.2,65.8 55.2,65.8 57.7,68.3 57.7,68.3 
				57.7,65.8 58.6,65.8 58.6,69.3 			"/>
			<path class="st0" d="M69.3,64.1c0-0.1-0.1-0.2-0.2-0.2C69,63.8,69,63.7,69,63.7c0-0.1-0.1-0.1-0.1-0.1h-0.1c0,0-0.1,0-0.1,0.1
				c-0.2,0.5-0.2,0.5-0.3,0.8l-1.1,2.4c-0.2-0.1-0.4-0.2-0.6-0.2l0,0c-0.2,0-0.5,0-0.7,0.1S65.5,67,65.3,67
				c-0.2,0.1-0.2,0.1-0.3,0.1s-0.2,0.1-0.2,0.1l-0.4,0.1c0-0.1,0.1-0.1,0.1-0.2s0.1-0.2,0.2-0.2c0.1-0.2,0.1-0.2,0.2-0.2
				c0,0,0.1-0.1,0.1-0.2c0.1-0.1,0.2-0.2,0.2-0.5c0.2-0.2,0.2-0.4,0.4-0.6s0.2-0.5,0.3-0.7s0.2-0.4,0.2-0.6c0-0.1,0-0.2-0.1-0.2
				c0,0,0-0.1-0.1-0.1c0,0,0-0.1-0.1-0.1c-0.1-0.1-0.1-0.2-0.2-0.2h-0.1c-0.1,0-0.2,0.2-0.3,0.5c0,0.1-0.1,0.2-0.2,0.2
				c-0.1,0.1-0.2,0.2-0.2,0.4l-0.1,0.2c-0.1,0.2-0.2,0.2-0.2,0.4l-0.2,0.5c-0.2,0.2-0.3,0.5-0.4,0.8c-0.2,0.2-0.2,0.3-0.3,0.5
				l-0.1,0.1c-0.1,0.2-0.1,0.2-0.2,0.2c0,0.1-0.1,0.1-0.1,0.2L63,67.7c-0.3,0.1-0.7,0.2-1.1,0.2c-0.5,0.2-1,0.2-1.5,0.4
				c-0.1,0-0.2,0.1-0.2,0.1v0.1c0,0.1,0.1,0.1,0.2,0.2c0.1,0,0.2,0.1,0.2,0.1c0.1,0,0.1,0.1,0.2,0.2c0.2,0.1,0.2,0.2,0.4,0.1
				c0.1,0,0.2-0.1,0.3-0.1c0.2,0,0.3-0.1,0.5-0.1c0.1,0,0.2-0.1,0.3-0.1c-0.1,0.2-0.2,0.4-0.4,0.6c-0.2,0.2-0.3,0.6-0.5,0.7
				c-0.2,0.4-0.5,0.7-0.6,0.9c-0.1,0.1-0.1,0.2,0,0.4c0,0.1,0.1,0.2,0.2,0.2c0.1,0.1,0.1,0.2,0,0.2c0,0.1,0,0.1,0,0.1
				c0,0.1,0.1,0.1,0.1,0.1s0,0,0.1,0h0.1c0,0,0.1-0.1,0.2-0.2c0.1-0.2,0.2-0.4,0.4-0.6c0.2-0.2,0.3-0.5,0.5-0.7
				c0.1-0.2,0.2-0.3,0.3-0.6c0.2-0.2,0.2-0.4,0.3-0.5c0.2-0.2,0.3-0.5,0.4-0.6l0.5-0.6l0.6-0.2c0.2-0.1,0.3-0.1,0.4-0.2
				c0.1,0,0.2-0.1,0.4-0.2c0.3-0.1,0.6-0.2,0.9-0.3c0.1,0,0.2-0.1,0.5-0.1c0.2-0.1,0.3-0.1,0.5-0.1c-0.3,0.6-0.6,1.3-0.9,1.9
				c-0.3,0.6-0.6,1.3-0.8,1.8c0,0,0,0.1,0,0.2s0.1,0.1,0.2,0.1s0.1,0,0.2,0.1s0.1,0.2,0.2,0.2s0.2-0.1,0.2-0.1
				c0.1-0.1,0.2-0.2,0.2-0.5c0.2-0.6,0.6-1.2,0.8-1.8c0.3-0.7,0.6-1.3,0.9-1.9c0.3-0.6,0.6-1.3,0.9-1.9l0.1-0.2
				c0.2-0.3,0.2-0.3,0.3-0.6l0.1-0.2C69.5,64.4,69.5,64.2,69.3,64.1"/>
			<path class="st0" d="M73.4,67.6c-0.1,0-0.1,0-0.2,0c-0.1,0.1-0.2,0.1-0.2,0.1c-0.1,0-0.1,0-0.2,0.1c-0.1,0-0.1,0-0.2,0.1
				c-0.1,0-0.1,0.1-0.2,0.1c-0.1,0.1-0.2,0.2-0.3,0.2c-0.2,0.1-0.3,0.2-0.5,0.4s-0.3,0.2-0.5,0.4c-0.2,0.1-0.2,0.2-0.4,0.2l0,0l0,0
				c0-0.2,0.1-0.3,0.2-0.6s0.2-0.5,0.3-0.7s0.2-0.4,0.3-0.6s0.2-0.3,0.2-0.3c0.1-0.1,0.1-0.2,0-0.2s-0.1-0.2-0.2-0.2
				c-0.1-0.1-0.2-0.1-0.2-0.1c-0.1,0-0.2,0-0.2,0.1l-0.2,0.2c-0.2-0.2-0.2-0.2-0.4-0.2c-0.2-0.1-0.3-0.1-0.5,0s-0.3,0.2-0.5,0.2
				c-0.2,0.2-0.4,0.3-0.6,0.6c-0.3,0.3-0.5,0.6-0.6,0.8c-0.2,0.2-0.2,0.5-0.3,0.7s-0.1,0.4-0.1,0.6s0.1,0.3,0.1,0.4
				c0.2,0.2,0.3,0.5,0.6,0.5c0.1,0,0.1,0,0.2,0c0.2,0,0.4-0.1,0.6-0.2c0.2-0.1,0.3-0.2,0.5-0.4c0.1-0.2,0.2-0.3,0.3-0.5
				c0,0.2,0,0.2,0.1,0.3c0.1,0.2,0.3,0.2,0.6,0.3c0.2,0.1,0.3,0,0.5,0c0.2-0.1,0.3-0.2,0.5-0.3c0.1-0.1,0.2-0.2,0.2-0.2
				c0-0.1,0.1-0.1,0.1-0.2c0.1-0.2,0.2-0.2,0.3-0.3c0.1-0.2,0.2-0.2,0.3-0.4c0.2-0.2,0.4-0.5,0.6-0.7C73.4,67.8,73.5,67.7,73.4,67.6
				L73.4,67.6 M70.9,67.1c-0.2,0.3-0.5,0.7-0.7,1c-0.2,0.4-0.6,0.7-0.8,1c-0.2,0.2-0.4,0.5-0.5,0.6s-0.1,0.1-0.2,0.1l0,0
				c0-0.1,0-0.2,0-0.3c0.1-0.2,0.2-0.3,0.2-0.5c0.1-0.2,0.2-0.3,0.3-0.6c0.1-0.2,0.2-0.3,0.3-0.4c0-0.1,0.1-0.2,0.2-0.2
				c0.1-0.1,0.2-0.2,0.4-0.3s0.2-0.2,0.4-0.3C70.7,67.2,70.8,67.2,70.9,67.1"/>
			<path class="st0" d="M78.4,67.6c-0.1,0-0.2,0-0.2,0c-0.1-0.1-0.2-0.1-0.3-0.1c-0.2,0-0.3,0-0.5,0s-0.3-0.1-0.4-0.1
				c-0.1-0.2-0.2-0.2-0.2-0.3c-0.1-0.1-0.2-0.2-0.4-0.1s-0.2,0.2-0.3,0.3c-0.1,0.2,0,0.2,0,0.4c-0.1,0.2-0.2,0.3-0.4,0.5
				s-0.3,0.3-0.6,0.5c0.1-0.2,0.1-0.4,0.2-0.6c0.1-0.2,0.2-0.4,0.2-0.5c0.1-0.1,0.1-0.2,0-0.3c0-0.1-0.1-0.2-0.2-0.2
				s-0.2-0.2-0.2-0.2h-0.2c-0.2,0.2-0.3,0.3-0.6,0.5c-0.2,0.2-0.4,0.4-0.6,0.6c-0.2,0.2-0.4,0.5-0.6,0.7c-0.2,0.2-0.2,0.3-0.4,0.4
				c0-0.2,0.1-0.3,0.2-0.5c0.1-0.2,0.2-0.5,0.3-0.7c0.2-0.2,0.3-0.5,0.5-0.7s0.4-0.5,0.6-0.6c0.2-0.2,0.2-0.2,0.2-0.2s0,0-0.1,0
				c0,0-0.1,0-0.2,0.1c-0.1,0.1-0.2,0.1-0.3,0.2c0.2,0,0.2,0,0.1,0s-0.2,0.1-0.2,0.1c-0.1,0-0.2,0.1-0.2,0.2
				c-0.2,0.1-0.3,0.2-0.5,0.5c-0.2,0.2-0.3,0.4-0.4,0.6c-0.2,0.2-0.2,0.5-0.3,0.7s-0.1,0.5,0,0.6c0,0.1,0.1,0.2,0.2,0.3
				c0.1,0.1,0.2,0.2,0.2,0.3s0.2,0.2,0.3,0.2s0.1,0,0.2,0s0.2,0,0.2-0.1c0.2-0.1,0.3-0.2,0.5-0.5c0.2-0.2,0.2-0.3,0.4-0.5
				c0,0.1,0,0.2,0,0.2s0,0.2,0.1,0.2c0.1,0.1,0.1,0.2,0.2,0.2c0.1,0.1,0.2,0.1,0.2,0.1c0.1,0,0.2,0,0.2,0c0.1,0,0.2-0.1,0.3-0.2
				s0.3-0.2,0.6-0.4c0.2-0.2,0.4-0.3,0.6-0.5c0.2-0.2,0.3-0.3,0.5-0.6c0.2,0,0.3,0,0.5,0s0.2-0.1,0.3-0.1s0.1,0,0.2-0.1
				c0.2,0,0.3-0.1,0.4-0.2c0.1,0,0.1,0,0.2,0s0.1,0,0.2-0.1s0.2-0.2,0.2-0.2C78.6,67.6,78.5,67.6,78.4,67.6"/>
			<path class="st0" d="M82.6,67.4c-0.1,0-0.1,0-0.2,0c-0.1,0.1-0.2,0.1-0.2,0.1c-0.1,0-0.1,0-0.2,0.1c-0.1,0-0.1,0-0.2,0.1
				c-0.1,0-0.1,0.1-0.2,0.1L81.3,68c-0.2,0.1-0.3,0.2-0.5,0.4s-0.3,0.2-0.5,0.4C80.1,68.9,80.1,69,80,69c0-0.2,0.1-0.3,0.2-0.6
				c0.1-0.2,0.2-0.5,0.3-0.7s0.2-0.5,0.3-0.6c0.1-0.2,0.2-0.3,0.2-0.3c0.1-0.1,0.1-0.2,0-0.2c-0.1-0.1-0.1-0.2-0.2-0.2
				c-0.1-0.1-0.2-0.1-0.2-0.1c-0.2,0-0.2,0-0.2,0.1l-0.2,0.2c-0.2-0.2-0.2-0.2-0.4-0.2c-0.2-0.1-0.3-0.1-0.5,0
				c-0.2,0-0.3,0.2-0.5,0.2c-0.2,0.2-0.4,0.3-0.6,0.6c-0.3,0.3-0.5,0.6-0.6,0.8c-0.2,0.2-0.2,0.5-0.3,0.7s-0.1,0.4-0.1,0.6
				s0.1,0.3,0.1,0.5c0.2,0.2,0.3,0.5,0.6,0.5c0.1,0,0.1,0,0.2,0c0.2,0,0.4-0.1,0.6-0.2c0.2-0.1,0.3-0.2,0.5-0.4
				c0.1-0.2,0.2-0.3,0.3-0.5c0,0.2,0,0.2,0.1,0.3c0.1,0.2,0.3,0.2,0.6,0.3c0.2,0.1,0.3,0,0.5,0c0.2-0.1,0.3-0.2,0.4-0.2
				c0.2-0.1,0.2-0.2,0.4-0.4c0.1-0.2,0.2-0.2,0.3-0.3s0.2-0.2,0.3-0.3c0.1-0.1,0.2-0.2,0.2-0.2c0.1-0.1,0.2-0.2,0.2-0.3
				c0-0.1,0.1-0.2,0.1-0.2C82.6,67.5,82.7,67.5,82.6,67.4L82.6,67.4 M80.1,66.9c-0.2,0.4-0.5,0.7-0.7,1c-0.2,0.4-0.6,0.7-0.8,1
				c-0.2,0.2-0.4,0.5-0.5,0.6S78,69.6,78,69.6l0,0c0-0.1,0-0.2,0-0.3c0.1-0.2,0.2-0.3,0.2-0.5s0.2-0.3,0.3-0.6
				c0.1-0.2,0.2-0.3,0.3-0.4c0-0.1,0.1-0.1,0.2-0.2c0.2-0.2,0.2-0.2,0.4-0.3c0.2-0.1,0.2-0.2,0.4-0.3C79.9,67,80,66.9,80.1,66.9"/>
			<path class="st0" d="M85.3,67.4L85.3,67.4l-0.2,0.2c-0.2,0.2-0.2,0.2-0.4,0.4c-0.2,0.2-0.4,0.4-0.6,0.6s-0.4,0.3-0.6,0.5
				s-0.3,0.2-0.5,0.3c0-0.1,0-0.2,0.1-0.4c0.1-0.2,0.2-0.5,0.2-0.8c0.1-0.3,0.2-0.6,0.3-0.8c0.1-0.2,0.2-0.5,0.2-0.6s0-0.2-0.2-0.3
				c-0.1-0.1-0.3-0.2-0.6-0.1c-0.1,0-0.2,0-0.2,0.1c-0.1,0.1-0.2,0.2-0.3,0.3c-0.2,0.2-0.2,0.3-0.4,0.5s-0.2,0.4-0.4,0.6
				s-0.3,0.4-0.4,0.6c0,0-0.1,0.2,0,0.2c0,0,0.1,0,0.2,0c0.1-0.1,0.2-0.1,0.2-0.1c0.1,0,0.1,0,0.2-0.1H82h0.1c0.1,0,0.1-0.1,0.2-0.1
				l0.2-0.1c-0.1,0.1-0.1,0.2-0.2,0.3c-0.1,0.2-0.1,0.4-0.2,0.6S82,69.5,82,69.7s0,0.2,0.1,0.4c0.1,0.1,0.2,0.2,0.2,0.2
				c0.1,0.1,0.2,0.1,0.3,0.2c0.1,0,0.2,0.1,0.3,0.1l0,0c0.1,0,0.2,0,0.2-0.1s0.2-0.2,0.4-0.3c0.2-0.2,0.4-0.3,0.6-0.5
				s0.3-0.3,0.5-0.6c0.2-0.2,0.2-0.3,0.3-0.4c0-0.1,0.1-0.2,0.1-0.3c0-0.1,0.1-0.2,0.2-0.3C85.4,67.5,85.4,67.5,85.3,67.4L85.3,67.4
				"/>
			<path class="st0" d="M83.9,65.7L83.9,65.7c0.1,0,0.2,0,0.2-0.1c0.1-0.1,0.2-0.2,0.2-0.2c0.1-0.1,0.2-0.1,0.2-0.2
				c0.1-0.1,0.2-0.1,0.2-0.2c0.1-0.1,0.1-0.2,0.1-0.3c0-0.2,0-0.2-0.1-0.2s-0.2,0-0.2,0l-0.2,0.1c-0.1,0-0.2,0.1-0.2,0.1
				s-0.1,0-0.2,0.1l-0.1,0.1l0,0c-0.2,0.2-0.2,0.5-0.2,0.6C83.8,65.6,83.8,65.7,83.9,65.7"/>
			<path class="st0" d="M86.8,65.6L86.8,65.6c0.1,0,0.1,0,0.2-0.1l0.5-0.2c0.2-0.1,0.3-0.2,0.3-0.3c0.1-0.1,0.1-0.2,0-0.3
				c0-0.1-0.1-0.1-0.2-0.1c-0.2-0.1-0.2,0-0.3,0s-0.1,0-0.2,0s-0.1,0-0.2,0.1l-0.1,0.1l0,0c-0.1,0.2-0.2,0.4-0.2,0.6l0,0v0.1
				C86.6,65.5,86.7,65.6,86.8,65.6"/>
			<path class="st0" d="M88.3,67.3C88.2,67.3,88.2,67.3,88.3,67.3c-0.2,0.2-0.5,0.3-0.6,0.6c-0.2,0.2-0.4,0.4-0.6,0.6
				c-0.2,0.2-0.4,0.3-0.6,0.5c-0.2,0.2-0.3,0.2-0.5,0.3c0-0.1,0-0.2,0.1-0.4c0.1-0.2,0.2-0.5,0.2-0.8c0.1-0.3,0.2-0.6,0.3-0.8
				c0.1-0.2,0.2-0.5,0.2-0.6s0-0.2-0.2-0.3c-0.1-0.1-0.3-0.2-0.6-0.1c-0.1,0-0.2,0-0.2,0.1c-0.1,0.1-0.2,0.2-0.3,0.3
				c-0.1,0.2-0.2,0.3-0.4,0.5s-0.3,0.4-0.4,0.6c-0.2,0.2-0.2,0.4-0.4,0.6c0,0,0,0.1-0.1,0.1v0.1c0.1,0,0.1,0.1,0.2,0.1s0.1,0,0.2,0
				s0.2-0.2,0.2-0.2c0.1-0.1,0.2-0.2,0.2-0.2l0.2-0.1c-0.1,0.1-0.1,0.2-0.2,0.3c-0.1,0.2-0.2,0.4-0.2,0.6c-0.1,0.2-0.1,0.3-0.1,0.5
				s0,0.2,0.1,0.4c0.1,0.1,0.2,0.2,0.2,0.2c0.1,0.1,0.2,0.1,0.3,0.2c0.1,0,0.2,0.1,0.3,0.1s0.2,0,0.2-0.1c0.1-0.1,0.2-0.2,0.4-0.3
				c0.2-0.2,0.4-0.3,0.6-0.5c0.2-0.2,0.3-0.4,0.5-0.6s0.2-0.3,0.3-0.4c0-0.1,0.1-0.2,0.1-0.3s0.1-0.2,0.2-0.3
				C88.4,67.4,88.4,67.4,88.3,67.3L88.3,67.3"/>
			<path class="st0" d="M74,20.5h-9.3L50.2,47.7v3.9h5.6l3.5-6.7h20l3.5,6.7h5.6v-4L74,20.5z M62.4,39l6.8-12.7L76,39H62.4z"/>
			<path class="st0" d="M32.1,35.5c2.2-1.6,3.1-3.4,3.1-6c0-2-0.7-3.8-2.1-5.3c-2-2.3-5.3-3.7-8.9-3.7H0.6v31.1h24.5
				c7.3,0,11.8-3.8,11.8-9C36.8,39.5,35.1,37.3,32.1,35.5 M8.2,26.5h16c2,0,3.4,1.3,3.4,3c0,1.8-1.4,3.1-3.1,3.1H8.2V26.5z
				 M24.5,45.7H8.2v-7.1h16.4c2.8,0,4.6,1.5,4.6,3.7C29.1,44.4,27.5,45.7,24.5,45.7"/>
			<rect x="39.8" y="20.5" class="st0" width="7.5" height="31.1"/>
			<path class="st1" d="M106.2,0L88.4,10.3v20.6l17.8,10.3L124,30.9V10.3L106.2,0z M109.4,29.3l1.7-0.9l9.1-5.2l1.8-1.3v7.4H109.4z
				 M106,11.8l11.9,6.8l1.9,0.9h-13.2l-12.4-7.2l-1.3-0.6L106,11.8L106,11.8z M102.9,19.6H90.4v-7.2l0.9,0.6l10.1,5.8L102.9,19.6z
				 M90.3,21.5h12.5l-1.6,0.8l-10.9,6.3V21.5z M106.4,21.5h13.2l-1.9,0.9l-12,6.8H92.6l1.7-0.9L106.4,21.5z M109.6,11.8h12.5v7.3
				l-1.7-1.3l-9.2-5.3L109.6,11.8z M109.6,9.8l1.7-0.8l3.5-2l3.1,1.8l1.9,0.9L109.6,9.8L109.6,9.8z M112.7,6l-6.8,3.9H92.7l1.4-0.6
				l12-7.1L112.7,6z"/>
		</g>
		<g>
			<path class="st0" d="M0.6,10.3h2.3c0.8,0,1.5,0.2,1.5,1.1c0,0.9-0.7,1.1-1.5,1.1H1.1v1.7H0.6V10.3z M1.1,12.2h1.7
				C3.6,12.2,4,12,4,11.5c0-0.6-0.4-0.7-1.2-0.7H1.1V12.2z"/>
			<path class="st0" d="M5.6,10.3h2.3c0.6,0,1.6,0.2,1.6,1.1c0,0.9-0.8,1.1-1.3,1.1l1.3,1.7H8.9l-1.3-1.7H6v1.7H5.6V10.3z M6.2,12.1
				h1.7c0.7,0,1.2-0.1,1.2-0.7c0-0.6-0.6-0.7-1.2-0.7H6.2V12.1z"/>
			<path class="st0" d="M13.1,10.2c1.3,0,2.3,0.8,2.3,2.1c0,1.4-1.2,2-2.3,2c-1.1,0-2.3-0.6-2.3-2C10.7,11,11.8,10.2,13.1,10.2z
				 M13.1,13.9c0.9,0,1.8-0.5,1.8-1.7c0-0.9-0.7-1.6-1.8-1.6c-1.1,0-1.8,0.7-1.8,1.6C11.3,13.4,12.2,13.9,13.1,13.9z"/>
			<path class="st0" d="M20.8,12.7c0,1.4-1.1,1.7-2,1.7s-2-0.3-2-1.7v-2.4h0.5v2.4c0,0.9,0.6,1.3,1.6,1.3s1.6-0.4,1.6-1.3v-2.4H21
				v2.4H20.8z"/>
			<path class="st0" d="M22.4,10.3h2c1.3,0,2.1,0.6,2.1,2c0,1.6-1.3,2-2.3,2h-1.8C22.4,14.3,22.4,10.3,22.4,10.3z M22.9,13.8h1.4
				c0.4,0,1.7-0.1,1.7-1.6c0-1.2-0.8-1.5-1.7-1.5h-1.5C22.9,10.8,22.9,13.8,22.9,13.8z"/>
			<path class="st0" d="M30.2,10.3h0.7l1.5,3.3l1.5-3.3h0.7v3.9h-0.5v-3.5l0,0l-1.5,3.5h-0.4l-1.6-3.5l0,0v3.5h-0.5L30.2,10.3
				L30.2,10.3z"/>
			<path class="st0" d="M36.2,10.3h3.5v0.4h-3.1V12h2.5v0.5h-2.5v1.4h3.1v0.4h-3.6L36.2,10.3L36.2,10.3z"/>
			<path class="st0" d="M41,10.3h0.8l1.5,3.3l1.5-3.3h0.7v3.9H45v-3.5l0,0l-1.6,3.5H43l-1.6-3.5l0,0v3.5h-0.5L41,10.3L41,10.3z"/>
			<path class="st0" d="M47,10.3h2.3c0.5,0,1.5,0,1.5,1c0,0.6-0.3,0.7-0.6,0.9c0.2,0.1,0.7,0.3,0.7,0.9c0,1.1-1.1,1.1-2,1.1h-2
				L47,10.3L47,10.3z M47.5,12h1.7c0.6,0,1.2-0.1,1.2-0.6c0-0.6-0.6-0.6-1.3-0.6h-1.5C47.5,10.8,47.5,12,47.5,12z M47.5,13.8h1.9
				c0.6,0,1.1-0.1,1.1-0.7c0-0.6-0.5-0.7-1.1-0.7h-1.9V13.8z"/>
			<path class="st0" d="M52.4,10.3h3.5v0.4h-3.1V12h2.5v0.5h-2.5v1.4h3.1v0.4h-3.6L52.4,10.3L52.4,10.3z"/>
			<path class="st0" d="M57.1,10.3h2.3c0.6,0,1.6,0.2,1.6,1.1c0,0.9-0.8,1.1-1.3,1.1l1.3,1.7h-0.6l-1.3-1.7h-1.5v1.7h-0.5V10.3z
				 M57.6,12.1h1.7c0.7,0,1.2-0.1,1.2-0.7c0-0.6-0.6-0.7-1.2-0.7h-1.7V12.1z"/>
			<path class="st0" d="M67.1,10.2c1.3,0,2.3,0.8,2.3,2.1c0,1.4-1.2,2-2.3,2s-2.3-0.6-2.3-2C64.8,11,65.7,10.2,67.1,10.2z
				 M67.1,13.9c0.9,0,1.8-0.5,1.8-1.7c0-0.9-0.7-1.6-1.8-1.6s-1.8,0.7-1.8,1.6C65.2,13.4,66.1,13.9,67.1,13.9z"/>
			<path class="st0" d="M70.7,10.3h3.6v0.4h-3.1V12h2.7v0.5h-2.7v1.9h-0.5V10.3z"/>
		</g>
	</g>
</g>
<g id="Layer_2_1_">
</g>
</svg>
