<?xml version="1.0" encoding="utf-8"?>
<!-- Generator: Adobe Illustrator 26.0.3, SVG Export Plug-In . SVG Version: 6.00 Build 0)  -->
<svg version="1.1" id="Layer_1" xmlns="http://www.w3.org/2000/svg" xmlns:xlink="http://www.w3.org/1999/xlink" x="0px" y="0px"
	 viewBox="0 0 490.74 378.18" style="enable-background:new 0 0 490.74 378.18;" xml:space="preserve">
<style type="text/css">
	.st0{fill:#636569;}
	.st1{fill:#FFFFFF;}
	.st2{opacity:0.5;fill:none;stroke:#636569;stroke-width:0.87;stroke-miterlimit:10;}
	.st3{fill:#1A1A17;}
	.st4{opacity:0.9;}
	.st5{fill:#04181B;}
	.st6{opacity:0.75;}
	.st7{fill:none;}
	.st8{opacity:0.7;}
	.st9{opacity:0.5;}
	.st10{filter:url(#Adobe_OpacityMaskFilter);}
	
		.st11{clip-path:url(#SVGID_00000016768185157011479350000004946397832621313969_);fill:url(#SVGID_00000049927872841617193550000006726629321111611789_);}
	
		.st12{clip-path:url(#SVGID_00000016768185157011479350000004946397832621313969_);mask:url(#SVGID_00000047056094214570783850000010412238675195054497_);fill:#828185;}
	.st13{opacity:0.8;fill:url(#SVGID_00000174594738437677636000000008192394276560589465_);}
	.st14{fill:#93BA1F;}
	.st15{fill:#80BC00;}
	.st16{fill:#CC0000;}
	.st17{fill:none;stroke:#FFFFFF;stroke-width:3.1304;stroke-miterlimit:10;}
	.st18{fill:#AEB0B2;}
	.st19{fill:#ACADAF;}
	.st20{fill:#272525;}
	.st21{fill:#76230D;}
	.st22{opacity:0.8;}
	.st23{opacity:0.85;}
	.st24{opacity:0.6;}
	.st25{fill:none;stroke:#636569;stroke-width:2;stroke-miterlimit:10;}
	.st26{fill:#80BC00;stroke:#636569;stroke-miterlimit:10;}
	.st27{fill:#FFFFFF;stroke:#636569;stroke-width:1.2778;stroke-miterlimit:10;}
	.st28{fill:#E8E8E8;stroke:#636569;stroke-width:1.2778;stroke-miterlimit:10;}
	.st29{fill:none;stroke:#FFFFFF;stroke-miterlimit:10;}
	.st30{fill:#FFFFFF;stroke:#636569;stroke-width:1.3783;stroke-miterlimit:10;}
	.st31{opacity:0.65;}
	.st32{fill:none;stroke:#636569;stroke-width:0.8767;stroke-miterlimit:10;}
	.st33{fill:#FFFFFF;stroke:#636569;stroke-width:0.8767;stroke-miterlimit:10;}
	.st34{fill:#6E6F71;}
	.st35{fill:#E8AE36;}
	.st36{fill:#010201;}
	.st37{fill:#F7E836;}
	.st38{fill:#3F6FA7;}
	.st39{fill:#0F1011;}
	.st40{fill:none;stroke:#636569;stroke-width:0.7527;stroke-miterlimit:10;}
	.st41{fill:#FFFFFF;stroke:#636569;stroke-width:0.9937;stroke-miterlimit:10;}
	.st42{fill:#FFFFFF;stroke:#636569;stroke-width:0.7527;stroke-miterlimit:10;}
	.st43{fill:#62AD99;}
	.st44{fill:#262425;}
	.st45{fill:#ECBD5F;}
	.st46{fill:#DA802E;}
	.st47{fill:#7F7E80;}
	.st48{fill:#9CC34D;}
	.st49{fill:#201F20;}
	.st50{fill:url(#SVGID_00000132089526371694794010000006788214261863994506_);}
	.st51{fill:url(#SVGID_00000031185684420177763760000009743378770835091647_);}
	.st52{fill:none;stroke:#636569;stroke-width:0.861;stroke-miterlimit:10;}
	.st53{fill:none;stroke:#80BC00;stroke-width:4.631;stroke-miterlimit:10;}
	.st54{fill-rule:evenodd;clip-rule:evenodd;}
	.st55{fill:#2CACE3;}
	.st56{fill:#0C5E95;}
	.st57{fill:#2BACE2;}
	.st58{fill:#E8E8E8;}
	.st59{fill:none;stroke:#80BC00;stroke-miterlimit:10;}
	.st60{clip-path:url(#SVGID_00000069385306943914692570000016716747533839958406_);}
	.st61{fill-rule:evenodd;clip-rule:evenodd;fill:#FFFFFF;}
	.st62{filter:url(#Adobe_OpacityMaskFilter_00000035529148660214077640000012929784197723351737_);}
	.st63{mask:url(#mask-2_3_);fill-rule:evenodd;clip-rule:evenodd;fill:#FFFFFF;}
	.st64{filter:url(#Adobe_OpacityMaskFilter_00000182499627239608731360000015157458070798005904_);}
	.st65{mask:url(#mask-2_2_);fill-rule:evenodd;clip-rule:evenodd;fill:#FFFFFF;}
	.st66{filter:url(#Adobe_OpacityMaskFilter_00000011004675566302643440000005962834506442369461_);}
	.st67{mask:url(#mask-2_1_);fill-rule:evenodd;clip-rule:evenodd;fill:#FFFFFF;}
	.st68{fill-rule:evenodd;clip-rule:evenodd;fill:#DE8F44;}
	.st69{fill-rule:evenodd;clip-rule:evenodd;fill:#636569;}
	.st70{filter:url(#Adobe_OpacityMaskFilter_00000052803514899487219150000010371917608260845980_);}
	.st71{mask:url(#mask-2_00000075880408174705706970000014807813792727960720_);fill-rule:evenodd;clip-rule:evenodd;fill:#636569;}
	.st72{filter:url(#Adobe_OpacityMaskFilter_00000023253108297039263550000004222853441717277605_);}
	.st73{mask:url(#mask-2_00000127738027506448440020000009089270088009524382_);fill-rule:evenodd;clip-rule:evenodd;fill:#636569;}
	.st74{filter:url(#Adobe_OpacityMaskFilter_00000127744598636922906310000009277667385874659729_);}
	.st75{mask:url(#mask-2_00000173128317550975664510000016579881566819321482_);fill-rule:evenodd;clip-rule:evenodd;fill:#636569;}
	.st76{opacity:0.3;}
	.st77{fill:none;stroke:#80BC00;stroke-width:1.0416;stroke-miterlimit:10;}
</style>
<g>
	<g>
		<path id="Fill-1_00000155864308947483124440000010422928350292476056_" class="st69" d="M19.35,264.96v37.26h2.99
			c1.96,0,2.94-1.06,2.94-3.19v-30.84c0-1.51-0.61-2.51-1.83-2.99c-0.35-0.16-1.01-0.24-1.98-0.24H19.35z M19.35,220.99v37.21h2.12
			c0.97,0,1.62-0.06,1.98-0.19c1.22-0.48,1.83-1.48,1.83-2.99v-30.79c0-2.16-0.98-3.23-2.94-3.23H19.35z M12.5,214.28h10.52
			c6.08,0,9.12,3.31,9.12,9.94v30.79c0,3.09-1.25,5.28-3.76,6.57c2.51,1.28,3.76,3.49,3.76,6.61v30.84c0,6.59-3.19,9.91-9.56,9.94
			H12.5V214.28L12.5,214.28z"/>
		<polyline id="Fill-2_00000130614853708479896050000017491326820194734513_" class="st69" points="57.17,308.98 57.17,214.28 
			64.02,214.28 64.02,302.22 74.89,302.22 74.89,308.98 57.17,308.98 		"/>
		<polygon id="Fill-3_00000179643067793253088870000007070313845744658048_" class="st69" points="98.22,308.98 105.08,308.98 
			105.08,214.28 98.22,214.28 		"/>
		<path id="Fill-4_00000000902207743733254240000003905234647329357960_" class="st69" d="M137.21,277.85v22.11
			c0,2.16,1,3.23,2.99,3.23c1.96,0,2.94-1.08,2.94-3.23v-28.57c0-2.28-2.12-4.95-6.37-8.01c-4.28-3.02-6.42-6.72-6.42-11.1v-29.01
			c0-6.63,3.26-9.94,9.8-9.94c6.56,0,9.85,3.31,9.85,9.94v22.2h-6.85v-22.2c0-2.12-0.98-3.19-2.94-3.19h-0.05
			c-1.96,0-2.94,1.06-2.94,3.19v28.86c0,2.13,2.12,4.71,6.37,7.77c4.28,3.02,6.42,6.66,6.42,10.91v29.15c0,6.66-3.27,9.99-9.8,9.99
			c-6.56-0.03-9.84-3.36-9.84-9.99v-22.11H137.21"/>
		<path id="Fill-5_00000106836693055970278470000005940059103007240607_" class="st69" d="M181.4,277.85v22.11
			c0,2.16,1,3.23,2.99,3.23c1.96,0,2.95-1.08,2.95-3.23v-28.57c0-2.28-2.12-4.95-6.37-8.01c-4.28-3.02-6.42-6.72-6.42-11.1v-29.01
			c0-6.63,3.27-9.94,9.8-9.94c6.57,0,9.85,3.31,9.85,9.94v22.2h-6.85v-22.2c0-2.12-0.98-3.19-2.95-3.19h-0.05
			c-1.96,0-2.94,1.06-2.94,3.19v28.86c0,2.13,2.12,4.71,6.37,7.77c4.28,3.02,6.42,6.66,6.42,10.91v29.15c0,6.66-3.27,9.99-9.8,9.99
			c-6.56-0.03-9.84-3.36-9.84-9.99v-22.11H181.4"/>
		<polygon id="Fill-6_00000090984948975121886280000002192605324450366866_" class="st69" points="251.68,308.98 258.54,308.98 
			258.54,214.28 251.68,214.28 		"/>
		<path id="Fill-7_00000163781748534439764650000016197021647427157693_" class="st69" d="M290.66,277.85v22.11
			c0,2.16,1,3.23,2.99,3.23c1.96,0,2.94-1.08,2.94-3.23v-28.57c0-2.28-2.12-4.95-6.37-8.01c-4.28-3.02-6.42-6.72-6.42-11.1v-29.01
			c0-6.63,3.26-9.94,9.8-9.94c6.57,0,9.85,3.31,9.85,9.94v22.2h-6.85v-22.2c0-2.12-0.98-3.19-2.94-3.19h-0.05
			c-1.96,0-2.94,1.06-2.94,3.19v28.86c0,2.13,2.12,4.71,6.37,7.77c4.28,3.02,6.42,6.66,6.42,10.91v29.15c0,6.66-3.27,9.99-9.8,9.99
			c-6.56-0.03-9.84-3.36-9.84-9.99v-22.11H290.66"/>
		<polyline id="Fill-8_00000129188360581006471310000011194516467418333082_" class="st69" points="328.48,308.98 328.48,214.28 
			335.33,214.28 335.33,302.22 346.19,302.22 346.19,308.98 328.48,308.98 		"/>
		<path id="Fill-9_00000081647400690557277410000009964665707315291012_" class="st69" d="M381.55,278.38l-2.94-47.15l-2.94,47.15
			H381.55z M375.28,285.13l-1.5,23.84h-6.9l2.22-33.5l4.82-61.2h9.36l4.83,61.1l2.22,33.59h-6.9l-1.5-23.84H375.28L375.28,285.13z"
			/>
		<polyline id="Fill-10_00000183943706136244224380000007864126605700177062_" class="st69" points="426.51,214.28 433.08,214.28 
			433.08,308.98 428.25,308.98 419.76,251.01 419.76,308.98 413.44,308.98 413.44,214.28 418.31,214.28 426.51,272.2 426.51,214.28 
					"/>
		<path id="Fill-11_00000159453068390044630780000011210293770498819760_" class="st69" d="M465.45,220.99v81.23h2.99
			c1.96,0,2.94-1.06,2.94-3.19v-74.81c0-2.16-0.98-3.23-2.94-3.23H465.45z M458.59,214.28h10.52c6.08,0,9.12,3.31,9.12,9.94v74.81
			c0,6.59-3.19,9.91-9.56,9.94h-10.09V214.28L458.59,214.28z"/>
	</g>
	<path id="Fill-12_00000092418121336482094020000018057172534244146599_" class="st69" d="M130.64,358.72
		c4.07,0,5.87-2.23,5.91-5.56c0-3.33-2.39-5.28-5.87-5.28h-8.61v10.84H130.64z M122.07,368.97h3.88v3.17c-3.41,0-7.28,0-10.64,0
		v-3.17h3.37v-21.09h-3.41v-3.13h15.42c5.32,0,9.24,2.82,9.28,8.3c0,5.24-3.44,8.26-8.61,8.53l6.03,7.4h3.72v3.17
		c-3.52,0-4.03,0-7.59,0v-2.9l-5.99-7.59h-5.44V368.97L122.07,368.97z"/>
	<defs>
		<filter id="Adobe_OpacityMaskFilter" filterUnits="userSpaceOnUse" x="163.71" y="344.75" width="22.97" height="27.39">
			<feColorMatrix  type="matrix" values="1 0 0 0 0  0 1 0 0 0  0 0 1 0 0  0 0 0 1 0"/>
		</filter>
	</defs>
	
		<mask maskUnits="userSpaceOnUse" x="163.71" y="344.75" width="22.97" height="27.39" id="mask-2_00000075880408174705706970000014807813792727960720_">
		<g class="st10">
			<polygon id="path-1_00000004525486662941137810000003228611565226926009_" class="st61" points="163.71,344.2 282.45,344.2 
				282.45,372.61 163.71,372.61 			"/>
		</g>
	</mask>
	<polyline id="Fill-13_00000004506617232967137500000001783358334253095348_" class="st71" points="163.71,372.14 163.71,369.01 
		167.12,369.01 167.12,347.84 163.79,347.84 163.79,344.75 186.1,344.75 186.1,352.03 183.04,352.03 182.93,347.88 170.48,347.88 
		170.48,356.6 182.97,356.6 182.97,359.77 170.48,359.77 170.48,368.93 183.51,368.93 183.63,364.75 186.69,364.75 186.69,372.14 
		163.71,372.14 	"/>
	<defs>
		
			<filter id="Adobe_OpacityMaskFilter_00000041294008624426938920000004189101147910227082_" filterUnits="userSpaceOnUse" x="210.2" y="344.2" width="21.68" height="28.49">
			<feColorMatrix  type="matrix" values="1 0 0 0 0  0 1 0 0 0  0 0 1 0 0  0 0 0 1 0"/>
		</filter>
	</defs>
	
		<mask maskUnits="userSpaceOnUse" x="210.2" y="344.2" width="21.68" height="28.49" id="mask-2_00000127738027506448440020000009089270088009524382_">
		<g style="filter:url(#Adobe_OpacityMaskFilter_00000041294008624426938920000004189101147910227082_);">
			<polygon id="path-1_00000067227621407333674720000015612078792081178021_" class="st61" points="163.71,344.2 282.45,344.2 
				282.45,372.61 163.71,372.61 			"/>
		</g>
	</mask>
	<path id="Fill-15_00000093888304947599735300000008842516171142651313_" class="st73" d="M230.28,347.33c0,2-0.04,3.44-0.04,5.44
		h-3.01l-0.16-3.95c-1.84-1.13-4.38-1.6-6.5-1.6c-3.44,0-7.01,1.37-7.01,4.66c0,3.05,3.25,3.91,7.2,4.58
		c5.56,0.86,11.11,2.07,11.11,8.06c-0.04,6.38-6.11,8.18-11.35,8.18c-3.95,0-7.28-0.98-10.33-3.72v-5.44h3.09l0.16,3.83
		c1.92,1.37,4.7,2.15,7.12,2.15c3.37,0,7.91-0.94,7.91-5.01c0.04-3.76-5.24-4.5-8.1-4.93c-5.24-0.82-10.17-2.15-10.17-7.79
		c-0.08-5.67,5.56-7.59,10.29-7.59C224.14,344.2,227.35,344.9,230.28,347.33"/>
	<defs>
		
			<filter id="Adobe_OpacityMaskFilter_00000063602893998919486870000014393362438842089600_" filterUnits="userSpaceOnUse" x="254.62" y="344.28" width="27.83" height="28.41">
			<feColorMatrix  type="matrix" values="1 0 0 0 0  0 1 0 0 0  0 0 1 0 0  0 0 0 1 0"/>
		</filter>
	</defs>
	
		<mask maskUnits="userSpaceOnUse" x="254.62" y="344.28" width="27.83" height="28.41" id="mask-2_00000173128317550975664510000016579881566819321482_">
		<g style="filter:url(#Adobe_OpacityMaskFilter_00000063602893998919486870000014393362438842089600_);">
			<polygon id="path-1_00000132054621228316658860000007973354116949313199_" class="st61" points="163.71,344.2 282.45,344.2 
				282.45,372.61 163.71,372.61 			"/>
		</g>
	</mask>
	<path id="Fill-16_00000132788857124015021920000007753588979398923662_" class="st75" d="M268.6,347.41
		c-6.97,0-10.57,5.13-10.57,11.11c0,5.56,3.37,10.96,10.57,10.96c7.2,0,10.45-5.56,10.45-10.96
		C279.08,352.97,275.75,347.49,268.6,347.41z M282.45,358.52c-0.04,7.16-4.5,14.17-13.89,14.17c-9.39,0-13.93-6.96-13.93-14.17
		c0-7.94,5.32-14.24,13.97-14.24C277.87,344.32,282.49,351.28,282.45,358.52L282.45,358.52z"/>
	<path id="Fill-18_00000069400047130616158770000018130199276316315266_" class="st69" d="M320.53,358.72
		c4.07,0,5.87-2.23,5.91-5.56c0-3.33-2.39-5.28-5.87-5.28h-8.61v10.84H320.53z M311.96,368.97h3.87v3.17c-3.4,0-7.28,0-10.64,0
		v-3.17h3.36v-21.09h-3.4v-3.13h15.42c5.32,0,9.24,2.82,9.27,8.3c0,5.24-3.44,8.26-8.61,8.53l6.03,7.4h3.72v3.17
		c-3.52,0-4.03,0-7.59,0v-2.9l-5.99-7.59h-5.44V368.97L311.96,368.97z"/>
	<polyline id="Fill-19_00000173855849610751052860000007280261177126763173_" class="st69" points="355.99,347.8 355.87,352.03 
		352.85,352.03 352.85,344.75 375.47,344.75 375.47,352.03 372.46,352.03 372.31,347.8 365.85,347.8 365.85,369.01 369.37,369.01 
		369.37,372.14 358.92,372.14 358.92,369.01 362.48,369.01 362.48,347.8 355.99,347.8 	"/>
</g>
<g>
	<circle id="Oval_00000079473967748449016860000002135638814267942543_" class="st61" cx="245.37" cy="91.68" r="83.67"/>
	<path id="Fill-20_00000101789823909959501380000005790105849480107703_" class="st68" d="M305.13,62.13
		c-13.89-4.41-26.47-2.94-37.5,4.38c7.19-2.55,17.63-3.92,27.81,3.06C296.64,67.51,299.65,63.41,305.13,62.13"/>
	<path id="Fill-21_00000158748097103559297410000008596692933982238347_" class="st68" d="M231.47,60.6
		c-8.77-9.92-20.53-14.59-35.09-13.93c4.99,2.65,6.81,7.39,7.43,9.7C215.46,52.26,225.19,56.28,231.47,60.6"/>
	<path id="Fill-22_00000114041705622048570580000015537699363456418491_" class="st68" d="M246.93,24.23
		c1.06,5.54-1.48,9.94-2.89,11.87c10.5,6.49,13.47,16.59,14.05,24.19C260.32,47.24,256.58,35.15,246.93,24.23"/>
	<path id="Fill-23_00000039817521390328942210000006917680870508481956_" class="st68" d="M275.67,75.46
		c-6.12-1.88-12.18-0.73-18.08,3.48c-1.95,1.39-3.62,2.94-4.97,4.38c3.6-1.8,8.77-3.17,15.41-2.02
		C268.97,79.81,271.45,76.51,275.67,75.46"/>
	<path id="Fill-24_00000167381931948300112410000007065789602590153088_" class="st68" d="M261.74,88.59
		c7.29,1.8,15.41,6.41,17.78,17.68c2.2-0.34,6.94-0.38,10.83,4.39c-3.59-16.2-20.04-21.19-22.03-21.74
		C266.01,88.68,263.8,88.58,261.74,88.59"/>
	<path id="Fill-25_00000172440622719919722150000002518276208548738452_" class="st68" d="M216.34,82.14
		c-13.26,0.41-24.36,6.51-33.14,18.16c5.21-2.15,10.03-0.54,12.21,0.45C199.68,89.15,209,84.22,216.34,82.14"/>
	<path id="Fill-26_00000009580232033643587590000011357414980203335359_" class="st68" d="M231.63,86.46
		C231.63,86.46,231.63,86.46,231.63,86.46c-7.22,0-12.81,2.57-16.69,7.64c4.05-1.59,7.98-0.34,9.61,0.34
		c4.75-4.79,9.75-6.66,13.73-7.29C236.32,86.76,234.04,86.46,231.63,86.46"/>
	<path id="Fill-27_00000005227561998894274610000016897060966486619835_" class="st68" d="M232.7,84.29
		c-1.98-0.57-4.13-1.07-6.42-1.46c-0.03,0-0.06,0-0.1,0c-2.48,0-19.3,0.55-27.02,14.95c5.04-3.54,9.6-2.22,11.63-1.3
		C216.14,86.28,225.2,84.05,232.7,84.29"/>
	<path id="Fill-28_00000075843514458134871880000017107958748908981658_" class="st68" d="M305.04,117.43
		c-5.28-13.58-14.31-22.45-26.93-26.46c6.49,4,14.1,11.27,15.05,23.58C295.53,114.19,300.61,113.96,305.04,117.43"/>
	<path id="Fill-29_00000021839897151038829120000007820971009940341944_" class="st68" d="M240.27,74.6
		c-0.82-1.88-1.8-3.85-2.96-5.85c-1.3-1.59-12.52-14.62-28.77-11.37c5.92,1.63,7.8,5.98,8.37,8.13
		C228.18,63.12,235.67,68.66,240.27,74.6"/>
	<path id="Fill-30_00000107585893007604737440000018283381073238842004_" class="st68" d="M237.92,75.16
		c-4.6-5.56-10.14-8.23-16.52-7.99c3.81,2.11,5.35,5.93,5.86,7.62c6.72,0.6,11.35,3.27,14.36,5.93
		C240.68,78.97,239.46,77.02,237.92,75.16"/>
	<path id="Fill-31_00000110429726465516638960000003816421331998990976_" class="st68" d="M280.43,75.01
		c1.11-1.93,4.06-5.64,10.21-5.68c-14.86-7.37-29.08,2.32-30.75,3.53c-1.64,1.64-3.1,3.29-4.38,4.9
		C261.49,73.21,270.16,69.79,280.43,75.01"/>
	<path id="Fill-32_00000165933066304992780380000010731772882754995333_" class="st68" d="M276.18,102.85
		c-2.37-5.93-7.05-9.92-13.99-11.88c-2.32-0.65-4.6-0.98-6.59-1.14c3.66,1.68,7.97,4.84,11.23,10.74
		C268.59,100.35,272.71,100.22,276.18,102.85"/>
	<path id="Fill-33_00000145042423192051630990000005675736725916317314_" class="st68" d="M238.09,107.06
		c3.53-7.67,6.65-13.28,8.49-16.42c-0.25-0.39-0.44-0.64-0.48-0.69c-0.12-0.15-0.18-0.32-0.21-0.5c-0.17,0.04-0.36,0.06-0.54,0.01
		c-0.07-0.02-0.41-0.1-0.97-0.18c-3.6,5.58-6.87,11.19-9.83,16.78L238.09,107.06"/>
	<path id="Fill-34_00000036965766711045703850000010527277348040430727_" class="st68" d="M223.44,149.98
		c1.61-7.04,3.51-13.65,5.53-19.74l-5-1.33c-2.67,6.64-4.94,13.14-6.88,19.41L223.44,149.98"/>
	<path id="Fill-36_00000100365193755385568630000015205192863181839500_" class="st68" d="M245.37,8
		c-46.21,0-83.67,37.46-83.67,83.67c0,33.44,19.62,62.29,47.98,75.68c5.16-22.78,14.67-50.81,32.16-78.26
		c-3.86-0.01-10.29,1.12-16.23,7.45c-0.02,0.02-0.05,0.03-0.07,0.05c-0.06,0.05-0.12,0.09-0.19,0.13c-0.06,0.04-0.12,0.07-0.18,0.09
		c-0.07,0.03-0.14,0.04-0.21,0.05c-0.07,0.01-0.13,0.02-0.21,0.02c-0.07,0-0.13-0.02-0.2-0.03c-0.08-0.02-0.15-0.04-0.22-0.07
		c-0.03-0.01-0.05-0.01-0.08-0.02c-0.28-0.16-6.93-3.72-12.16,2c0,0-0.01,0.01-0.01,0.01c-0.08,0.09-0.18,0.16-0.28,0.21
		c-0.03,0.02-0.06,0.03-0.1,0.04c-0.08,0.03-0.16,0.06-0.25,0.07c-0.04,0.01-0.07,0.01-0.11,0.02c-0.03,0-0.05,0.01-0.08,0.01
		c-0.04,0-0.07-0.02-0.1-0.02c-0.1-0.01-0.19-0.03-0.29-0.06c-0.03-0.01-0.06-0.01-0.09-0.02c-0.03-0.01-0.05-0.04-0.07-0.05
		c-0.03-0.02-0.06-0.02-0.09-0.04c-0.27-0.18-6.82-4.53-13.71,4.11c-0.01,0.01-0.03,0.02-0.04,0.03c-0.06,0.07-0.12,0.13-0.19,0.18
		c-0.02,0.01-0.04,0.02-0.05,0.03c-0.02,0.01-0.04,0.02-0.06,0.03c-0.03,0.02-0.06,0.04-0.1,0.05c-0.05,0.02-0.1,0.04-0.15,0.05
		c-0.04,0.01-0.08,0.01-0.12,0.02c-0.05,0.01-0.11,0.02-0.16,0.02c-0.04,0-0.07-0.01-0.11-0.02c-0.05,0-0.09-0.01-0.13-0.02
		c-0.03-0.01-0.06,0-0.1-0.02c0,0,0,0-0.01,0c-0.05-0.02-0.1-0.05-0.15-0.08c-0.03-0.02-0.07-0.02-0.1-0.04
		c-0.33-0.21-8.23-5.06-15.64,1.9c-0.05,0.05-0.11,0.07-0.16,0.1c-0.04,0.03-0.08,0.06-0.13,0.08c-0.15,0.07-0.3,0.11-0.46,0.12
		c0,0-0.01,0-0.01,0c-0.13,0-0.26-0.03-0.39-0.08c-0.03-0.01-0.06-0.03-0.09-0.04c-0.04-0.02-0.08-0.03-0.11-0.05
		c-0.05-0.03-0.07-0.07-0.11-0.11c-0.04-0.03-0.08-0.04-0.11-0.08c-0.02-0.02-0.02-0.05-0.04-0.07c-0.05-0.06-0.09-0.13-0.12-0.2
		c-0.03-0.06-0.06-0.12-0.08-0.18c-0.02-0.07-0.03-0.14-0.03-0.21c-0.01-0.07-0.01-0.14-0.01-0.21c0.01-0.07,0.03-0.13,0.04-0.2
		c0.02-0.07,0.04-0.14,0.08-0.21c0.01-0.02,0.01-0.05,0.03-0.08c14.28-22.77,33.54-25.39,47.94-23.16c0.29-0.01,0.48-0.01,0.5-0.01
		c0.2,0,0.38,0.08,0.54,0.17c7.13,1.24,12.97,3.6,16.25,5.15c-2-2.87-7.07-8.35-17.01-8.98c-0.04,0-0.07-0.02-0.11-0.03
		c-0.09-0.01-0.18-0.03-0.27-0.07c-0.05-0.02-0.09-0.05-0.14-0.08c-0.07-0.04-0.13-0.09-0.19-0.15c-0.04-0.04-0.07-0.08-0.11-0.13
		c-0.05-0.06-0.09-0.13-0.12-0.2c-0.03-0.05-0.05-0.11-0.06-0.17c-0.01-0.03-0.03-0.06-0.03-0.09c-0.06-0.33-1.56-7.71-9.29-8.09
		c-0.02,0-0.04-0.01-0.06-0.01c-0.06-0.01-0.11-0.02-0.17-0.04c-0.08-0.02-0.16-0.04-0.23-0.08c-0.05-0.03-0.09-0.06-0.14-0.09
		c-0.07-0.05-0.13-0.1-0.18-0.16c-0.04-0.04-0.07-0.09-0.1-0.14c-0.04-0.07-0.08-0.14-0.11-0.22c-0.01-0.03-0.03-0.06-0.04-0.09
		c-0.01-0.03,0-0.06,0-0.09c-0.01-0.04-0.02-0.06-0.03-0.1c-0.03-0.33-0.83-8.17-11.91-7.95c-0.01,0-0.01,0-0.02,0
		c0,0-0.01,0-0.01,0c-0.03,0-0.05-0.01-0.08-0.01c-0.11-0.01-0.22-0.03-0.33-0.07c-0.04-0.02-0.07-0.04-0.11-0.07
		c-0.08-0.04-0.16-0.09-0.23-0.16c-0.04-0.04-0.07-0.08-0.1-0.12c-0.05-0.07-0.1-0.13-0.14-0.21c0-0.01-0.01-0.02-0.01-0.03
		c0-0.01-0.02-0.02-0.02-0.03c-0.02-0.04-0.01-0.08-0.02-0.13c-0.01-0.05-0.04-0.1-0.05-0.15c-0.05-0.41-1.36-9.57-11.44-10.84
		c-0.03,0-0.05-0.02-0.07-0.02c-0.09-0.02-0.16-0.05-0.24-0.08c-0.05-0.02-0.11-0.04-0.15-0.08c-0.07-0.05-0.13-0.1-0.19-0.16
		c-0.04-0.04-0.08-0.08-0.12-0.13c-0.04-0.06-0.07-0.13-0.1-0.2c-0.03-0.07-0.05-0.13-0.07-0.21c-0.01-0.03-0.02-0.05-0.03-0.08
		c-0.01-0.05,0.01-0.09,0.01-0.14c0-0.05-0.02-0.09-0.01-0.14c0-0.03,0.02-0.05,0.03-0.08c0.02-0.08,0.04-0.15,0.08-0.22
		c0.03-0.06,0.05-0.12,0.09-0.17c0.04-0.06,0.09-0.12,0.15-0.17c0.05-0.05,0.09-0.09,0.15-0.13s0.12-0.06,0.18-0.09
		c0.07-0.03,0.14-0.06,0.22-0.08c0.03,0,0.04-0.02,0.07-0.02c26.66-3.51,40.95,9.67,48.41,22.18c0.19,0.22,0.3,0.36,0.32,0.38
		c0.12,0.16,0.18,0.34,0.21,0.52c3.9,6.82,5.8,13.32,6.6,16.66c0.9-3.62,1.49-10.56-3.87-18.15c-0.02-0.02-0.02-0.05-0.04-0.08
		c-0.04-0.07-0.07-0.13-0.09-0.2c-0.02-0.07-0.05-0.13-0.06-0.21c-0.01-0.07-0.01-0.13,0-0.2c0-0.08,0.01-0.15,0.03-0.22
		c0.02-0.06,0.04-0.12,0.07-0.19c0.03-0.07,0.07-0.14,0.11-0.2c0.02-0.02,0.02-0.05,0.04-0.07c0.23-0.27,5.02-6.06,0.48-12.31
		c-0.01-0.02-0.01-0.04-0.03-0.05c-0.03-0.05-0.06-0.11-0.08-0.17c-0.03-0.07-0.06-0.14-0.08-0.22c-0.01-0.06-0.01-0.12-0.01-0.18
		c0-0.08,0-0.15,0.01-0.23c0.01-0.06,0.03-0.11,0.05-0.17c0.03-0.08,0.06-0.15,0.11-0.22c0.02-0.03,0.02-0.06,0.04-0.09
		c0.02-0.02,0.04-0.04,0.06-0.06c0.02-0.03,0.04-0.06,0.06-0.08c0.24-0.23,5.81-5.77-1.28-14.26c0,0,0-0.01-0.01-0.02
		c-0.04-0.04-0.06-0.1-0.08-0.15c-0.03-0.06-0.07-0.11-0.09-0.17c-0.01-0.02-0.02-0.04-0.03-0.07c-0.01-0.05-0.01-0.1-0.02-0.15
		c-0.01-0.07-0.02-0.13-0.02-0.2c0-0.03,0-0.05,0-0.07c0-0.05,0.03-0.09,0.04-0.14c0.02-0.07,0.03-0.13,0.06-0.2
		c0.01-0.03,0.02-0.05,0.03-0.08c0-0.01,0-0.01,0.01-0.02c0.02-0.04,0.06-0.07,0.09-0.1c0.03-0.04,0.04-0.09,0.08-0.12
		c0.27-0.28,6.61-7.06,1.27-15.71c-0.01-0.02-0.01-0.05-0.03-0.08c-0.04-0.07-0.06-0.14-0.08-0.21c-0.02-0.07-0.04-0.13-0.04-0.2
		c-0.01-0.07,0-0.14,0.01-0.21c0.01-0.07,0.01-0.14,0.04-0.21c0.02-0.07,0.05-0.13,0.08-0.19c0.04-0.07,0.07-0.13,0.12-0.19
		c0.02-0.02,0.02-0.05,0.04-0.07c0.04-0.04,0.08-0.05,0.12-0.08c0.04-0.03,0.06-0.07,0.1-0.1c0.02-0.01,0.05-0.01,0.07-0.03
		c0.07-0.04,0.14-0.06,0.21-0.08c0.07-0.02,0.13-0.04,0.2-0.04c0.07-0.01,0.14,0,0.21,0.01c0.07,0.01,0.14,0.02,0.21,0.04
		c0.06,0.02,0.12,0.05,0.18,0.08c0.07,0.04,0.13,0.07,0.2,0.12c0.02,0.02,0.05,0.02,0.07,0.04c19.44,18.54,18.15,37.93,13.09,51.6
		c-0.05,0.3-0.09,0.48-0.1,0.5c-0.05,0.2-0.15,0.36-0.28,0.5c-0.33,0.84-0.67,1.65-1.02,2.44c0.58-0.64,1.19-1.28,1.82-1.92
		c0.07-0.17,0.18-0.34,0.34-0.46c0.02-0.01,0.17-0.12,0.42-0.3c10.45-10.15,27.66-19.17,52.48-8.88c0.03,0.01,0.04,0.03,0.06,0.04
		c0.07,0.04,0.13,0.08,0.19,0.13c0.05,0.04,0.11,0.08,0.15,0.13c0.05,0.06,0.08,0.12,0.12,0.18c0.04,0.06,0.07,0.12,0.09,0.19
		c0.02,0.07,0.03,0.14,0.04,0.21c0.01,0.07,0.02,0.14,0.01,0.22c0,0.03,0.01,0.05,0,0.08c-0.01,0.05-0.04,0.09-0.05,0.14
		c-0.01,0.05-0.01,0.09-0.03,0.14c-0.01,0.03-0.03,0.04-0.04,0.07c-0.04,0.07-0.08,0.13-0.13,0.19c-0.04,0.06-0.09,0.11-0.14,0.16
		c-0.05,0.04-0.11,0.07-0.16,0.11c-0.07,0.04-0.13,0.08-0.21,0.1c-0.06,0.02-0.12,0.03-0.19,0.04c-0.08,0.01-0.16,0.02-0.24,0.01
		c-0.03,0-0.05,0.01-0.08,0.01c-10.14-1.4-13.82,7.42-13.85,7.51c-0.03,0.07-0.07,0.12-0.11,0.18c-0.01,0.02-0.02,0.05-0.03,0.07
		c0,0.01-0.01,0.01-0.02,0.02c0,0.01-0.01,0.01-0.01,0.02c-0.08,0.1-0.17,0.18-0.28,0.24c-0.01,0.01-0.02,0.02-0.04,0.02
		c-0.03,0.01-0.05,0.02-0.08,0.03c-0.08,0.04-0.16,0.07-0.25,0.09c-0.03,0.01-0.05,0.02-0.07,0.02c-0.02,0-0.04,0-0.07,0
		c-0.03,0-0.05,0.01-0.08,0.01c-0.04,0-0.09-0.02-0.13-0.03c-0.05-0.01-0.11,0-0.16-0.02c-0.01,0-0.01,0-0.02,0
		c-10.63-3.05-13.45,4.29-13.56,4.6c-0.01,0.03-0.04,0.06-0.05,0.09c-0.01,0.03-0.01,0.05-0.03,0.08c-0.02,0.03-0.05,0.05-0.07,0.08
		c-0.04,0.06-0.09,0.12-0.14,0.17c-0.05,0.05-0.1,0.09-0.16,0.13c-0.05,0.03-0.11,0.06-0.17,0.09c-0.07,0.03-0.13,0.05-0.2,0.07
		c-0.07,0.01-0.14,0.02-0.21,0.02c-0.06,0-0.13,0.01-0.19,0c-0.02,0-0.04,0-0.06,0c-7.57-1.64-10.93,5.13-11.07,5.41
		c-0.02,0.03-0.04,0.06-0.06,0.09c-0.02,0.04-0.04,0.07-0.07,0.1c-0.06,0.08-0.13,0.15-0.21,0.21c-0.02,0.02-0.04,0.04-0.07,0.05
		c-0.1,0.06-0.21,0.11-0.33,0.14c-0.05,0.01-0.09,0.01-0.14,0.02c-0.04,0-0.09,0.02-0.13,0.02c-0.03,0-0.06-0.02-0.09-0.02
		c-0.04,0-0.09,0.01-0.13,0c-9.11-1.84-15.21,1.51-18.16,3.8c3.38-0.62,10.09-1.51,17.9-0.7c0.18-0.05,0.37-0.07,0.56-0.02
		c0.02,0,0.2,0.05,0.5,0.14c14.46,1.77,32.28,9.52,39.84,35.3c0.01,0.03,0,0.05,0.01,0.08c0.02,0.08,0.02,0.15,0.02,0.22
		c0,0.07,0,0.14-0.01,0.21c-0.01,0.07-0.04,0.13-0.06,0.2c-0.03,0.07-0.05,0.13-0.09,0.2c-0.04,0.06-0.08,0.1-0.13,0.15
		c-0.05,0.06-0.11,0.11-0.17,0.16c-0.02,0.02-0.03,0.04-0.06,0.05c-0.08,0.05-0.16,0.08-0.24,0.1c-0.01,0-0.02,0.01-0.03,0.01
		c0,0-0.01,0-0.01,0c-0.1,0.03-0.2,0.04-0.3,0.04h0c0,0,0,0,0,0c-0.11,0-0.21-0.02-0.32-0.05c-0.03-0.01-0.06-0.02-0.09-0.04
		c-0.07-0.03-0.14-0.06-0.2-0.1c-0.03-0.02-0.06-0.04-0.09-0.07c-0.06-0.05-0.11-0.1-0.15-0.16c-0.03-0.03-0.05-0.06-0.07-0.09
		c-0.01-0.01-0.02-0.02-0.03-0.04c-5.24-8.72-14.16-6.19-14.54-6.08c-0.05,0.01-0.09,0-0.13,0.01c-0.05,0.01-0.09,0.03-0.14,0.03
		c-0.01,0-0.02,0-0.04,0c0,0,0,0-0.01,0c-0.03,0-0.05-0.01-0.08-0.01c-0.04,0-0.08-0.01-0.11-0.02c-0.06-0.01-0.13-0.03-0.19-0.05
		c-0.03-0.01-0.06-0.03-0.09-0.04c-0.03-0.02-0.06-0.03-0.09-0.04c-0.05-0.03-0.1-0.07-0.15-0.11c-0.03-0.02-0.06-0.05-0.09-0.08
		c-0.02-0.02-0.04-0.03-0.06-0.05c-0.01-0.01-0.01-0.02-0.01-0.02c-0.04-0.05-0.07-0.11-0.1-0.17c-0.01-0.03-0.03-0.05-0.04-0.07
		c0,0-0.01-0.01-0.01-0.01c-4.3-10.19-11.77-7.78-12.09-7.68c-0.03,0.01-0.07,0.01-0.1,0.01c-0.03,0.01-0.05,0.03-0.08,0.03
		c-0.06,0.01-0.13,0.02-0.19,0.02c-0.01,0-0.01,0-0.02,0c-0.05,0-0.09-0.02-0.13-0.02c-0.09-0.01-0.17-0.02-0.25-0.05
		c-0.04-0.02-0.07-0.04-0.11-0.06c-0.08-0.04-0.15-0.08-0.22-0.14c-0.04-0.03-0.06-0.08-0.09-0.11c-0.05-0.06-0.11-0.12-0.15-0.2
		c0-0.01-0.01-0.02-0.02-0.03c-3.48-6.93-10.85-5.3-11.16-5.22c-0.03,0.01-0.06,0-0.08,0c-0.08,0.01-0.16,0.01-0.25,0.01
		c-0.06,0-0.11-0.01-0.17-0.02c-0.09-0.02-0.17-0.05-0.25-0.09c-0.05-0.02-0.09-0.04-0.13-0.07c-0.07-0.05-0.13-0.11-0.19-0.17
		c-0.04-0.05-0.08-0.09-0.12-0.15c-0.02-0.03-0.04-0.05-0.06-0.08c-4.53-8.72-11.6-11.19-15.05-11.89
		c2.75,2.38,7.25,6.75,11.25,12.75c0.15,0.11,0.29,0.24,0.38,0.42c0.01,0.02,0.09,0.19,0.2,0.47c7.86,12.27,13.25,30.95-1.81,53.2
		c0,0.01-0.01,0.01-0.02,0.02c-0.09,0.13-0.22,0.24-0.35,0.32c-0.03,0.02-0.06,0.03-0.09,0.05c-0.14,0.07-0.3,0.11-0.46,0.11h0
		c-0.12,0-0.23-0.02-0.35-0.06c-0.01,0-0.01,0-0.02,0c-0.02-0.01-0.04-0.03-0.06-0.03c-0.07-0.03-0.14-0.05-0.2-0.09
		c-0.02-0.02-0.04-0.04-0.06-0.06c-0.06-0.05-0.11-0.1-0.16-0.16c-0.04-0.05-0.09-0.11-0.12-0.17c-0.04-0.06-0.06-0.13-0.08-0.2
		c-0.02-0.07-0.04-0.13-0.05-0.21c-0.01-0.07,0-0.13,0-0.2c0-0.08,0.01-0.15,0.03-0.23c0.01-0.03,0-0.05,0.01-0.08
		c3.38-9.59-4.26-14.86-4.58-15.08c-0.04-0.03-0.07-0.07-0.11-0.11c-0.03-0.03-0.07-0.04-0.1-0.08c0-0.01,0-0.01-0.01-0.02
		c-0.02-0.02-0.03-0.05-0.05-0.07c-0.04-0.05-0.06-0.11-0.09-0.17c-0.02-0.05-0.06-0.09-0.07-0.14c-0.01-0.03-0.01-0.05-0.01-0.08
		c-0.01-0.06-0.02-0.12-0.02-0.18c0-0.06-0.02-0.11-0.02-0.17c0-0.03,0.01-0.05,0.02-0.08c0.01-0.06,0.03-0.11,0.05-0.17
		c0.02-0.06,0.03-0.12,0.05-0.17c0-0.01,0-0.01,0.01-0.02c5.12-9.8-1.51-14.03-1.79-14.21c-0.03-0.02-0.04-0.04-0.07-0.06
		c-0.03-0.02-0.06-0.03-0.08-0.05c-0.03-0.03-0.04-0.06-0.07-0.09c-0.05-0.06-0.1-0.12-0.14-0.18c-0.03-0.06-0.06-0.11-0.09-0.17
		c-0.03-0.07-0.04-0.14-0.06-0.21c-0.01-0.06-0.02-0.12-0.03-0.19c0-0.08,0.01-0.15,0.03-0.22c0.01-0.06,0.02-0.12,0.04-0.18
		c0.01-0.02,0.01-0.04,0.01-0.06c3.12-7.1-2.83-11.73-3.08-11.93c-0.02-0.02-0.04-0.04-0.06-0.06c-0.06-0.05-0.11-0.11-0.15-0.17
		c-0.04-0.05-0.08-0.11-0.11-0.17c-0.03-0.07-0.05-0.14-0.07-0.21c-0.02-0.07-0.03-0.13-0.04-0.2c-0.01-0.07,0-0.14,0.01-0.22
		c0.01-0.07,0.02-0.14,0.04-0.21c0.01-0.03,0.01-0.06,0.02-0.09c3.41-8.05,1.79-14.41,0.21-17.92
		c-5.98,10.41-21.51,40.51-25.93,79.02c7.45,2.17,15.32,3.36,23.48,3.36c46.21,0,83.67-37.46,83.67-83.67
		C329.04,45.46,291.58,8,245.37,8"/>
	<path id="Fill-38_00000040537985513244329140000002701800192229632696_" class="st68" d="M219.74,171.33
		c0.78-6.65,1.87-13.06,3.2-19.16l-6.51-1.71c-1.87,6.22-3.41,12.2-4.68,17.84C214.35,169.43,217.01,170.45,219.74,171.33"/>
	<path id="Fill-39_00000070120239148924631150000017464674326384081839_" class="st68" d="M229.68,128.11
		c2.45-7.15,5.04-13.52,7.48-18.99l-3.66-1.05c-3.26,6.31-6.14,12.58-8.68,18.74L229.68,128.11"/>
	<path id="Fill-40_00000070840043185051287670000003303154108830673803_" class="st68" d="M264.54,113.56
		c1.06,7.55,0.3,18.05-8.58,26.63c1.79,1.59,5.21,5.35,5.35,10.98C268.42,138.45,269.5,125.84,264.54,113.56"/>
	<path id="Fill-41_00000098206056305511536140000003845127316684445854_" class="st68" d="M248.78,80.82
		c0.78-1.84,1.53-4.01,2.01-6.38c1.44-7.07,0.04-13.06-4.14-17.88c0.74,4.29-1.26,7.89-2.26,9.35
		C248.14,71.52,248.97,76.8,248.78,80.82"/>
	<path id="Fill-42_00000182503929222331833950000015354492084709164428_" class="st68" d="M253.65,124.4
		c1.67,1.48,4.71,5.11,3.52,11.14c10.21-13.1,3.54-28.99,2.7-30.84c-1.28-1.93-2.61-3.7-3.93-5.28
		C259.21,106.19,260.83,115.38,253.65,124.4"/>
	<path id="Fill-43_00000034068359246750525710000003219584487920411313_" class="st68" d="M249.97,110.99
		c1.28,1.21,4.01,4.3,4.2,8.65c3.06-5.6,3.15-11.75,0.24-18.35c-0.97-2.21-2.17-4.17-3.32-5.8
		C252.12,99.38,252.43,104.71,249.97,110.99"/>
	<path id="Fill-44_00000084498246797229780620000009364078965076004741_" class="st68" d="M245.14,52.02
		c8.93,7.28,9.3,16.6,7.56,23.91c0.95-1.82,1.88-3.83,2.71-5.99c0.43-2,3.55-18.93-9.21-29.56
		C248.65,46.03,246.45,50.23,245.14,52.02"/>
</g>
</svg>
