<?xml version="1.0" encoding="utf-8"?>
<!-- Generator: Adobe Illustrator 23.1.1, SVG Export Plug-In . SVG Version: 6.00 Build 0)  -->
<svg version="1.2" baseProfile="tiny" id="Layer_1" xmlns="http://www.w3.org/2000/svg" xmlns:xlink="http://www.w3.org/1999/xlink"
	 x="0px" y="0px" viewBox="0 0 605.78 520.08" xml:space="preserve">
<rect x="147.29" y="193.36" transform="matrix(-1.836970e-16 1 -1 -1.836970e-16 577.1184 198.4355)" fill="#65656A" width="84.1" height="388.83"/>
<rect x="37.77" y="47.89" transform="matrix(-1.836970e-16 1 -1 -1.836970e-16 213.5034 52.9665)" fill="#65656A" width="85" height="170.69"/>
<rect x="74.38" y="96.28" transform="matrix(-1.836970e-16 1 -1 -1.836970e-16 335.1056 101.3567)" fill="#65656A" width="85" height="243.9"/>
<rect x="110.51" y="145.14" transform="matrix(-1.836970e-16 1 -1 -1.836970e-16 456.2397 150.2148)" fill="#65656A" width="85" height="316.17"/>
<g>
	<rect x="-5.07" y="5.74" fill="#65656A" width="99.51" height="85"/>
</g>
<g>
	<path fill="#65656A" d="M128.99,38.99l-0.14,0.86c-2.3,0.2-2.82,1.21-3.14,3.16l-2.07,11.82c-0.06,0.35-0.12,0.58-0.09,0.92
		c0.09,1.18,0.69,1.78,1.81,1.93l0.4,0.03l-0.17,0.86h-7.86l0.17-0.86c2.22-0.23,2.59-1.27,2.94-3.16l2.07-11.82
		c0.06-0.35,0.12-0.58,0.12-0.95c0-1.15-0.58-1.75-1.7-1.9l-0.32-0.03l0.14-0.86H128.99z"/>
	<path fill="#65656A" d="M131.61,58.58h-2.62l1.76-9.98c0.06-0.4,0.12-0.66,0.12-1.06c0-1.12-0.95-1.29-1.99-1.35l0.14-0.86
		l4.03-0.66h1.04l-0.37,2.07c1.78-1.27,3.74-2.36,5.99-2.36c1.78,0,3.51,0.81,3.51,2.82c0,0.58-0.12,1.12-0.2,1.7l-1.04,5.69
		c-0.09,0.46-0.14,0.81-0.14,1.27c0,0.72,0.6,1.52,1.38,1.52c0.75,0,1.41-0.49,1.93-0.98l0.58,0.63c-0.89,1.09-2.45,1.78-3.86,1.78
		c-1.53,0-2.71-1.09-2.68-2.62c0.03-0.92,0.23-1.87,0.4-2.76l0.81-4.57c0.06-0.4,0.17-0.92,0.17-1.35c0-1.12-0.95-1.78-2.01-1.78
		c-1.84,0-3.66,1.24-5.06,2.3L131.61,58.58z"/>
	<path fill="#65656A" d="M151.96,44.66h4.06l-0.14,0.86h-4.09l-1.38,7.82c-0.14,0.75-0.29,1.55-0.29,2.33c0,1.09,0.49,1.9,1.67,1.9
		c1.06,0,2.01-0.6,2.79-1.29l0.63,0.72c-1.15,1.12-2.79,1.81-4.4,1.81c-1.55,0-3.45-0.52-3.45-2.42c0-0.81,0.2-1.75,0.34-2.56
		l1.47-8.31h-2.45l0.14-0.86c3.4-0.12,4.32-2.16,4.92-5.18h1.06L151.96,44.66z"/>
	<path fill="#65656A" d="M169.11,56.11c-1.9,1.52-4.58,2.7-7.08,2.7c-3.17,0-6.19-1.96-6.19-5.38c0-2.39,1.32-4.83,3.08-6.41
		c1.81-1.61,4.38-2.65,6.79-2.65c1.9,0,4.81,0.81,4.81,3.16c0,3.94-8.4,4.72-11.51,4.77c-0.12,0.46-0.2,0.92-0.2,1.41
		c0,2.47,1.78,3.74,4.17,3.74c2.13,0,3.68-1.04,5.41-2.16L169.11,56.11z M159.24,51.24c2.5-0.06,8.49-0.55,8.49-3.74
		c0-1.47-1.32-2.1-2.62-2.1C162.12,45.41,159.96,48.66,159.24,51.24z"/>
	<path fill="#65656A" d="M176.89,46.44l0.06,0.06c1.21-1.12,2.88-2.13,4.6-2.13c0.83,0,1.81,0.35,1.81,1.35
		c0,1.04-0.92,1.5-1.84,1.5c-1.12,0-1.47-0.8-2.36-0.8c-2.33,0-2.91,3.45-3.19,5.18l-1.21,6.99h-2.62l1.76-10.04
		c0.06-0.34,0.14-0.66,0.14-1.01c0-1.12-0.95-1.29-1.99-1.35l0.14-0.86l4.03-0.66h1.04L176.89,46.44z"/>
	<path fill="#65656A" d="M187.39,58.58h-2.62l1.76-9.98c0.06-0.4,0.12-0.66,0.12-1.06c0-1.12-0.95-1.29-1.99-1.35l0.14-0.86
		l4.03-0.66h1.04l-0.37,2.07c1.78-1.27,3.74-2.36,5.99-2.36c1.78,0,3.51,0.81,3.51,2.82c0,0.58-0.12,1.12-0.2,1.7l-1.04,5.69
		c-0.09,0.46-0.14,0.81-0.14,1.27c0,0.72,0.6,1.52,1.38,1.52c0.75,0,1.41-0.49,1.93-0.98l0.58,0.63c-0.89,1.09-2.45,1.78-3.86,1.78
		c-1.53,0-2.71-1.09-2.68-2.62c0.03-0.92,0.23-1.87,0.4-2.76l0.81-4.57c0.06-0.4,0.17-0.92,0.17-1.35c0-1.12-0.95-1.78-2.01-1.78
		c-1.84,0-3.66,1.24-5.06,2.3L187.39,58.58z"/>
</g>
<g>
	<path fill="#65656A" d="M207.85,128.94h-1.04c-0.55-1.15-1.09-2.27-2.04-3.16c-1.12-1.01-2.71-1.61-4.23-1.61
		c-1.21,0-2.45,0.35-3.42,1.09c-0.81,0.6-1.47,1.64-1.47,2.7c0,1.81,2.07,2.3,3.45,2.7l3.94,1.09c2.5,0.66,4.72,1.55,4.72,4.54
		c0,2.16-1.18,3.85-2.85,5.12c-1.76,1.32-3.89,1.96-6.07,1.96c-2.13,0-4.35-0.52-5.96-1.96l-0.78,1.47h-1.06l-0.66-7.1h1.12
		c0.81,3.39,3.48,6.24,7.14,6.24c1.5,0,2.94-0.43,4.12-1.35c1.09-0.81,1.93-2.1,1.93-3.51c0-1.01-0.37-1.55-1.27-2.04
		c-1.12-0.58-2.56-0.89-3.77-1.21c-2.79-0.72-7.08-1.52-7.08-5.15c0-1.64,1.01-3.34,2.27-4.31c1.47-1.12,3.45-1.64,5.27-1.64
		c2.01,0,3.68,0.46,5.35,1.55l0.55-1.06h0.92L207.85,128.94z"/>
	<path fill="#65656A" d="M214.82,128.96h4.06l-0.14,0.86h-4.09l-1.38,7.82c-0.14,0.75-0.29,1.55-0.29,2.33c0,1.09,0.49,1.9,1.67,1.9
		c1.06,0,2.01-0.6,2.79-1.29l0.63,0.72c-1.15,1.12-2.79,1.81-4.4,1.81c-1.55,0-3.45-0.52-3.45-2.42c0-0.81,0.2-1.75,0.35-2.56
		l1.47-8.31h-2.45l0.14-0.86c3.4-0.11,4.32-2.16,4.92-5.18h1.06L214.82,128.96z"/>
	<path fill="#65656A" d="M232.49,138.69c-0.09,0.37-0.17,0.78-0.17,1.18c0,0.89,0.66,1.61,1.58,1.61c0.75,0,1.53-0.49,2.01-1.06
		l0.66,0.6c-0.78,1.15-2.73,2.1-4.12,2.1c-1.78,0-2.82-1.35-2.82-3.08v-0.37h-0.06c-1.35,2.01-3.17,3.45-5.76,3.45
		c-3.19,0-4.95-2.36-4.95-5.41c0-4.43,3.45-9.03,8.14-9.03c1.53,0,3.22,0.55,4.26,1.7l0.26-1.41h2.65L232.49,138.69z M227.72,130.03
		c-3.88,0-5.96,5.12-5.96,8.4c0,1.73,0.78,3.34,2.73,3.34c2.22,0,4.06-2.1,4.92-3.94c0.89-1.96,1.27-4.14,1.67-6.24
		C230.31,130.55,228.95,130.03,227.72,130.03z"/>
	<path fill="#65656A" d="M246.63,128.96l-0.12,0.86h-2.99l-1.9,11.07c-0.37,2.07-0.63,4.08-1.9,5.84c-1.27,1.75-3.63,2.42-5.73,2.42
		c-1.27,0-3.91-0.49-3.91-2.19c0-0.78,0.69-1.04,1.35-1.04c1.9,0,1.87,2.21,3.8,2.21c0.78,0,1.64-0.49,2.16-1.04
		c0.55-0.66,0.81-1.87,0.95-2.67l0.37-1.9l2.19-12.71h-2.56l0.12-0.86h2.62c0.29-1.96,0.46-3.28,1.61-4.66
		c1.12-1.38,2.94-2.27,4.72-2.27c1.01,0,3.31,0.29,3.31,1.67c0,0.72-0.63,1.15-1.32,1.15c-1.73,0-1.12-1.75-2.88-1.75
		c-0.69,0-1.27,0.43-1.64,0.98c-0.55,0.78-0.6,1.67-0.78,2.53l-0.4,2.36H246.63z"/>
	<path fill="#65656A" d="M255.87,128.96l-0.12,0.86h-2.99l-1.9,11.07c-0.37,2.07-0.63,4.08-1.9,5.84c-1.27,1.75-3.63,2.42-5.73,2.42
		c-1.27,0-3.91-0.49-3.91-2.19c0-0.78,0.69-1.04,1.35-1.04c1.9,0,1.87,2.21,3.8,2.21c0.78,0,1.64-0.49,2.16-1.04
		c0.55-0.66,0.81-1.87,0.95-2.67l0.37-1.9l2.19-12.71h-2.56l0.12-0.86h2.62c0.29-1.96,0.46-3.28,1.61-4.66
		c1.12-1.38,2.94-2.27,4.72-2.27c1.01,0,3.31,0.29,3.31,1.67c0,0.72-0.63,1.15-1.32,1.15c-1.73,0-1.12-1.75-2.88-1.75
		c-0.69,0-1.27,0.43-1.64,0.98c-0.55,0.78-0.6,1.67-0.78,2.53l-0.4,2.36H255.87z"/>
</g>
<g>
	<path fill="#65656A" d="M281.27,214.17h-1.04c-0.55-1.15-1.09-2.27-2.04-3.16c-1.12-1.01-2.71-1.61-4.23-1.61
		c-1.21,0-2.45,0.35-3.42,1.09c-0.81,0.6-1.47,1.64-1.47,2.7c0,1.81,2.07,2.3,3.45,2.7l3.94,1.09c2.5,0.66,4.72,1.55,4.72,4.54
		c0,2.16-1.18,3.85-2.85,5.12c-1.76,1.32-3.89,1.96-6.07,1.96c-2.13,0-4.35-0.52-5.96-1.96l-0.78,1.47h-1.06l-0.66-7.1h1.12
		c0.81,3.39,3.48,6.24,7.14,6.24c1.5,0,2.94-0.43,4.12-1.35c1.09-0.81,1.93-2.1,1.93-3.51c0-1.01-0.37-1.55-1.27-2.04
		c-1.12-0.58-2.56-0.89-3.77-1.21c-2.79-0.72-7.08-1.52-7.08-5.15c0-1.64,1.01-3.34,2.27-4.31c1.47-1.12,3.45-1.64,5.27-1.64
		c2.01,0,3.68,0.46,5.35,1.55l0.55-1.06h0.92L281.27,214.17z"/>
	<path fill="#65656A" d="M295.61,225.65c-1.9,1.52-4.58,2.7-7.08,2.7c-3.17,0-6.19-1.96-6.19-5.38c0-2.39,1.32-4.83,3.08-6.41
		c1.81-1.61,4.37-2.65,6.79-2.65c1.9,0,4.81,0.81,4.81,3.16c0,3.94-8.4,4.72-11.51,4.77c-0.12,0.46-0.2,0.92-0.2,1.41
		c0,2.47,1.78,3.74,4.17,3.74c2.13,0,3.68-1.04,5.41-2.16L295.61,225.65z M285.74,220.79c2.5-0.06,8.49-0.55,8.49-3.74
		c0-1.47-1.32-2.1-2.62-2.1C288.62,214.95,286.46,218.2,285.74,220.79z"/>
	<path fill="#65656A" d="M301.28,228.12h-2.62l1.76-9.98c0.06-0.4,0.12-0.66,0.12-1.06c0-1.12-0.95-1.29-1.99-1.35l0.14-0.86
		l4.03-0.66h1.04l-0.37,2.07c1.78-1.27,3.74-2.36,5.99-2.36c1.78,0,3.51,0.81,3.51,2.82c0,0.58-0.11,1.12-0.2,1.7l-1.04,5.69
		c-0.09,0.46-0.14,0.81-0.14,1.27c0,0.72,0.6,1.52,1.38,1.52c0.75,0,1.41-0.49,1.93-0.98l0.58,0.63c-0.89,1.09-2.45,1.78-3.86,1.78
		c-1.52,0-2.71-1.09-2.68-2.62c0.03-0.92,0.23-1.87,0.4-2.76l0.81-4.57c0.06-0.4,0.17-0.92,0.17-1.35c0-1.12-0.95-1.78-2.01-1.78
		c-1.84,0-3.66,1.24-5.07,2.3L301.28,228.12z"/>
	<path fill="#65656A" d="M319.91,224.21c-0.06,0.32-0.12,0.6-0.12,0.95c0,0.95,0.58,1.61,1.55,1.61c0.81,0,1.41-0.52,1.96-0.98
		l0.66,0.58c-0.92,1.18-2.62,1.98-4.12,1.98c-1.7,0-2.71-1.18-2.71-2.82c0-0.46,0.06-0.86,0.14-1.32l1.04-5.93
		c0.06-0.32,0.14-0.63,0.14-0.98c0-1.18-0.86-1.38-1.87-1.52h-0.2l0.14-0.86l1.18-0.14c1.01-0.14,2.04-0.26,3.02-0.58h0.95
		L319.91,224.21z M320.91,212.54c-0.83,0-1.32-0.72-1.32-1.5c0-1.01,0.98-1.98,1.99-1.98c0.83,0,1.5,0.49,1.5,1.38
		C323.07,211.59,322.06,212.54,320.91,212.54z"/>
	<path fill="#65656A" d="M329.86,228.35c-3.6,0-6.07-2.19-6.07-5.87c0-2.13,0.98-4.37,2.42-5.92c1.64-1.81,3.74-2.65,6.16-2.65
		c3.57,0,6.01,2.3,6.01,5.93C338.38,224.56,334.61,228.35,329.86,228.35z M330.01,227c2.01,0,3.4-1.09,4.26-2.85
		c0.66-1.41,1.15-3.45,1.15-5c0-1.01-0.17-2.27-0.89-3.08c-0.55-0.6-1.61-0.81-2.39-0.81c-3.89,0-5.38,4.89-5.38,8.02
		C326.76,225.48,327.65,227,330.01,227z"/>
	<path fill="#65656A" d="M344.83,215.99l0.06,0.06c1.21-1.12,2.88-2.13,4.6-2.13c0.83,0,1.81,0.35,1.81,1.35
		c0,1.04-0.92,1.5-1.84,1.5c-1.12,0-1.47-0.81-2.36-0.81c-2.33,0-2.91,3.45-3.19,5.18l-1.21,6.99h-2.62l1.76-10.04
		c0.06-0.35,0.14-0.66,0.14-1.01c0-1.12-0.95-1.29-1.99-1.35l0.14-0.86l4.03-0.66h1.04L344.83,215.99z"/>
</g>
<g>
	<path fill="#65656A" d="M341.23,294.16l-2.5,14.09c-0.06,0.35-0.09,0.58-0.09,0.92c0,0.43,0.09,0.86,0.32,1.21
		c0.4,0.58,0.86,0.66,1.5,0.72l0.52,0.03l-0.14,0.86h-6.79l0.14-0.86c2.3-0.2,2.71-1.24,3.02-3.16l2.1-11.82
		c0.06-0.35,0.12-0.58,0.12-0.92c0-1.18-0.6-1.78-1.73-1.93l-0.35-0.03l0.14-0.86h6.36l2.65,15.1l8.35-15.1h6.19l-0.14,0.86
		c-2.3,0.2-2.79,1.24-3.14,3.16l-2.07,11.82c-0.06,0.35-0.12,0.58-0.12,0.92c0,1.18,0.69,1.78,1.81,1.93l0.35,0.03l-0.14,0.86h-7.91
		l0.23-0.86c2.27-0.17,2.65-1.24,2.99-3.16l2.39-13.55L345.55,312h-1.24L341.23,294.16z"/>
	<path fill="#65656A" d="M373.93,307.8c-0.09,0.37-0.17,0.78-0.17,1.18c0,0.89,0.66,1.61,1.58,1.61c0.75,0,1.53-0.49,2.01-1.06
		l0.66,0.6c-0.78,1.15-2.73,2.1-4.12,2.1c-1.78,0-2.82-1.35-2.82-3.08v-0.37h-0.06c-1.35,2.01-3.17,3.45-5.76,3.45
		c-3.19,0-4.95-2.36-4.95-5.41c0-4.43,3.45-9.03,8.14-9.03c1.53,0,3.22,0.55,4.26,1.7l0.26-1.41h2.65L373.93,307.8z M369.15,299.14
		c-3.88,0-5.96,5.12-5.96,8.4c0,1.73,0.78,3.34,2.73,3.34c2.22,0,4.06-2.1,4.92-3.94c0.89-1.96,1.27-4.14,1.67-6.24
		C371.74,299.66,370.39,299.14,369.15,299.14z"/>
	<path fill="#65656A" d="M381.39,312h-2.62l1.76-9.98c0.06-0.4,0.12-0.66,0.12-1.06c0-1.12-0.95-1.29-1.99-1.35l0.14-0.86l4.03-0.66
		h1.04l-0.37,2.07c1.78-1.27,3.74-2.36,5.99-2.36c1.78,0,3.51,0.81,3.51,2.82c0,0.58-0.11,1.12-0.2,1.7l-1.04,5.69
		c-0.09,0.46-0.14,0.81-0.14,1.27c0,0.72,0.6,1.52,1.38,1.52c0.75,0,1.41-0.49,1.93-0.98l0.58,0.63c-0.89,1.09-2.45,1.78-3.86,1.78
		c-1.52,0-2.71-1.09-2.68-2.62c0.03-0.92,0.23-1.87,0.4-2.76l0.81-4.57c0.06-0.4,0.17-0.92,0.17-1.35c0-1.12-0.95-1.78-2.01-1.78
		c-1.84,0-3.65,1.24-5.06,2.3L381.39,312z"/>
	<path fill="#65656A" d="M409.62,307.8c-0.09,0.37-0.17,0.78-0.17,1.18c0,0.89,0.66,1.61,1.58,1.61c0.75,0,1.53-0.49,2.01-1.06
		l0.66,0.6c-0.78,1.15-2.73,2.1-4.12,2.1c-1.78,0-2.82-1.35-2.82-3.08v-0.37h-0.06c-1.35,2.01-3.17,3.45-5.76,3.45
		c-3.19,0-4.95-2.36-4.95-5.41c0-4.43,3.45-9.03,8.14-9.03c1.53,0,3.22,0.55,4.26,1.7l0.26-1.41h2.65L409.62,307.8z M404.84,299.14
		c-3.88,0-5.96,5.12-5.96,8.4c0,1.73,0.78,3.34,2.73,3.34c2.22,0,4.06-2.1,4.92-3.94c0.89-1.96,1.27-4.14,1.67-6.24
		C407.43,299.66,406.08,299.14,404.84,299.14z"/>
	<path fill="#65656A" d="M426.34,310.44c-0.4,2.3-0.69,4.2-2.62,5.78c-1.73,1.44-4.06,2.13-6.27,2.13c-1.38,0-2.88-0.17-4.12-0.83
		c-0.66-0.32-1.41-0.78-1.41-1.58c0-0.83,0.83-1.38,1.58-1.38c0.75,0,1.18,0.26,1.5,0.92c0.2,0.37,0.4,0.81,0.75,1.09
		c0.55,0.49,1.38,0.69,2.1,0.69c1.5,0,2.82-0.6,3.83-1.7c1.09-1.18,1.61-2.7,1.87-4.29l0.49-2.59l-0.06-0.06
		c-1.09,2.01-3.25,3.6-5.64,3.6c-3.11,0-4.75-2.45-4.75-5.32c0-4.43,3.22-9.12,7.94-9.12c1.53,0,3.05,0.63,4.03,1.78l0.63-1.5h2.33
		L426.34,310.44z M425.37,300.81c-0.72-1.04-2.04-1.64-3.31-1.64c-3.77,0-5.5,5.21-5.5,8.34c0,1.67,0.43,3.37,2.42,3.37
		c1.99,0,3.68-1.84,4.58-3.48c0.98-1.87,1.35-4,1.73-6.04L425.37,300.81z"/>
	<path fill="#65656A" d="M443.07,309.52c-1.9,1.52-4.58,2.7-7.08,2.7c-3.17,0-6.19-1.96-6.19-5.38c0-2.39,1.32-4.83,3.08-6.41
		c1.81-1.61,4.37-2.65,6.79-2.65c1.9,0,4.81,0.81,4.81,3.16c0,3.94-8.4,4.72-11.51,4.77c-0.12,0.46-0.2,0.92-0.2,1.41
		c0,2.47,1.78,3.74,4.17,3.74c2.13,0,3.68-1.04,5.41-2.16L443.07,309.52z M433.2,304.66c2.5-0.06,8.49-0.55,8.49-3.74
		c0-1.47-1.32-2.1-2.62-2.1C436.08,298.82,433.92,302.07,433.2,304.66z"/>
	<path fill="#65656A" d="M450.84,299.86l0.06,0.06c1.21-1.12,2.88-2.13,4.6-2.13c0.83,0,1.81,0.35,1.81,1.35
		c0,1.04-0.92,1.5-1.84,1.5c-1.12,0-1.47-0.8-2.36-0.8c-2.33,0-2.91,3.45-3.19,5.18l-1.21,6.99h-2.62l1.76-10.04
		c0.06-0.34,0.14-0.66,0.14-1.01c0-1.12-0.95-1.29-1.99-1.35l0.14-0.86l4.03-0.66h1.04L450.84,299.86z"/>
</g>
<g>
	<path fill="#65656A" d="M492.98,462.48c2.1,0,4.89,0.29,6.65,1.58c1.93,1.41,2.73,4.11,2.73,6.41c0,3.08-1.21,6.18-3.34,8.4
		c-2.47,2.53-5.35,3.16-8.78,3.19h-9.78l0.2-0.86c2.24-0.23,2.62-1.27,2.96-3.16l2.07-11.82c0.09-0.35,0.12-0.6,0.12-0.95
		c0-1.15-0.58-1.75-1.7-1.9l-0.35-0.03l0.14-0.86H492.98z M486.36,478.59c-0.06,0.32-0.12,0.58-0.12,0.92c0,0.46,0.17,0.81,0.6,1.04
		c0.63,0.35,1.67,0.4,2.39,0.4c2.94,0,5.61-0.89,7.4-3.16c1.61-2.07,2.36-4.86,2.36-7.48c0-4.2-2.07-6.62-6.27-6.62
		c-0.81,0-2.5,0.06-3.19,0.52c-0.6,0.4-0.83,1.06-0.95,1.75L486.36,478.59z"/>
	<path fill="#65656A" d="M507.2,478.16c-0.06,0.32-0.12,0.6-0.12,0.95c0,0.95,0.58,1.61,1.55,1.61c0.81,0,1.41-0.52,1.96-0.98
		l0.66,0.58c-0.92,1.18-2.62,1.98-4.12,1.98c-1.7,0-2.71-1.18-2.71-2.82c0-0.46,0.06-0.86,0.14-1.32l1.04-5.93
		c0.06-0.32,0.14-0.63,0.14-0.98c0-1.18-0.86-1.38-1.87-1.52h-0.2l0.14-0.86l1.18-0.14c1.01-0.14,2.04-0.26,3.02-0.58h0.95
		L507.2,478.16z M508.21,466.48c-0.83,0-1.32-0.72-1.32-1.5c0-1.01,0.98-1.98,1.99-1.98c0.83,0,1.5,0.49,1.5,1.38
		C510.37,465.53,509.36,466.48,508.21,466.48z"/>
	<path fill="#65656A" d="M516.58,469.93l0.06,0.06c1.21-1.12,2.88-2.13,4.6-2.13c0.83,0,1.81,0.35,1.81,1.35
		c0,1.04-0.92,1.5-1.84,1.5c-1.12,0-1.47-0.81-2.36-0.81c-2.33,0-2.91,3.45-3.19,5.18l-1.21,6.99h-2.62l1.76-10.04
		c0.06-0.35,0.14-0.66,0.14-1.01c0-1.12-0.95-1.29-1.99-1.35l0.14-0.86l4.03-0.66h1.04L516.58,469.93z"/>
	<path fill="#65656A" d="M535.44,479.6c-1.9,1.52-4.58,2.7-7.08,2.7c-3.17,0-6.19-1.96-6.19-5.38c0-2.39,1.32-4.83,3.08-6.41
		c1.81-1.61,4.37-2.65,6.79-2.65c1.9,0,4.81,0.81,4.81,3.16c0,3.94-8.4,4.72-11.51,4.77c-0.12,0.46-0.2,0.92-0.2,1.41
		c0,2.47,1.78,3.74,4.17,3.74c2.13,0,3.68-1.04,5.41-2.16L535.44,479.6z M525.57,474.73c2.5-0.06,8.49-0.55,8.49-3.74
		c0-1.47-1.32-2.1-2.62-2.1C528.45,468.9,526.29,472.15,525.57,474.73z"/>
	<path fill="#65656A" d="M550.09,479.37c-1.47,1.75-4.29,2.93-6.56,2.93c-3.34,0-5.81-2.24-5.81-5.64c0-4.72,4.06-8.8,8.75-8.8
		c1.84,0,4.4,0.95,4.4,3.14c0,0.95-0.66,1.7-1.61,1.7c-0.63,0-1.12-0.35-1.12-1.01c0-0.26,0.03-0.52,0.03-0.78
		c0-1.21-0.92-1.7-2.07-1.7c-3.45,0-5.41,5-5.41,7.82c0,2.16,1.47,3.91,3.74,3.91c1.9,0,3.65-1.09,5.04-2.3L550.09,479.37z"/>
	<path fill="#65656A" d="M557.43,468.15h4.06l-0.14,0.86h-4.09l-1.38,7.82c-0.14,0.75-0.29,1.55-0.29,2.33c0,1.09,0.49,1.9,1.67,1.9
		c1.06,0,2.01-0.6,2.79-1.29l0.63,0.72c-1.15,1.12-2.79,1.81-4.4,1.81c-1.55,0-3.45-0.52-3.45-2.42c0-0.81,0.2-1.75,0.35-2.56
		l1.47-8.31h-2.45l0.14-0.86c3.4-0.11,4.32-2.16,4.92-5.18h1.06L557.43,468.15z"/>
	<path fill="#65656A" d="M567.39,482.3c-3.6,0-6.07-2.19-6.07-5.87c0-2.13,0.98-4.37,2.42-5.92c1.64-1.81,3.74-2.65,6.16-2.65
		c3.57,0,6.01,2.3,6.01,5.93C575.91,478.5,572.14,482.3,567.39,482.3z M567.54,480.95c2.01,0,3.4-1.09,4.26-2.85
		c0.66-1.41,1.15-3.45,1.15-5c0-1.01-0.17-2.27-0.89-3.08c-0.55-0.6-1.61-0.81-2.39-0.81c-3.89,0-5.38,4.89-5.38,8.02
		C564.28,479.42,565.18,480.95,567.54,480.95z"/>
	<path fill="#65656A" d="M582.36,469.93l0.06,0.06c1.21-1.12,2.88-2.13,4.6-2.13c0.83,0,1.81,0.35,1.81,1.35
		c0,1.04-0.92,1.5-1.84,1.5c-1.12,0-1.47-0.81-2.36-0.81c-2.33,0-2.91,3.45-3.19,5.18l-1.21,6.99h-2.62l1.76-10.04
		c0.06-0.35,0.14-0.66,0.14-1.01c0-1.12-0.95-1.29-1.99-1.35l0.14-0.86l4.03-0.66h1.04L582.36,469.93z"/>
</g>
<g>
	<path fill="#65656A" d="M425.39,369.76h-1.04c-0.55-1.15-1.09-2.27-2.04-3.16c-1.12-1.01-2.71-1.61-4.23-1.61
		c-1.21,0-2.45,0.35-3.42,1.09c-0.81,0.6-1.47,1.64-1.47,2.7c0,1.81,2.07,2.3,3.45,2.7l3.94,1.09c2.5,0.66,4.72,1.55,4.72,4.54
		c0,2.16-1.18,3.85-2.85,5.12c-1.76,1.32-3.89,1.96-6.07,1.96c-2.13,0-4.35-0.52-5.96-1.96l-0.78,1.47h-1.06l-0.66-7.1h1.12
		c0.81,3.39,3.48,6.24,7.14,6.24c1.5,0,2.94-0.43,4.12-1.35c1.09-0.81,1.93-2.1,1.93-3.51c0-1.01-0.37-1.55-1.27-2.04
		c-1.12-0.58-2.56-0.89-3.77-1.21c-2.79-0.72-7.08-1.52-7.08-5.15c0-1.64,1.01-3.34,2.27-4.31c1.47-1.12,3.45-1.64,5.27-1.64
		c2.01,0,3.68,0.46,5.35,1.55l0.55-1.06h0.92L425.39,369.76z"/>
	<path fill="#65656A" d="M439.73,381.24c-1.9,1.52-4.58,2.7-7.08,2.7c-3.17,0-6.19-1.96-6.19-5.38c0-2.39,1.32-4.83,3.08-6.41
		c1.81-1.61,4.37-2.65,6.79-2.65c1.9,0,4.81,0.81,4.81,3.16c0,3.94-8.4,4.72-11.51,4.77c-0.12,0.46-0.2,0.92-0.2,1.41
		c0,2.47,1.78,3.74,4.17,3.74c2.13,0,3.68-1.04,5.41-2.16L439.73,381.24z M429.86,376.38c2.5-0.06,8.49-0.55,8.49-3.74
		c0-1.47-1.32-2.1-2.62-2.1C432.74,370.54,430.58,373.79,429.86,376.38z"/>
	<path fill="#65656A" d="M445.4,383.71h-2.62l1.76-9.98c0.06-0.4,0.12-0.66,0.12-1.06c0-1.12-0.95-1.29-1.99-1.35l0.14-0.86
		l4.03-0.66h1.04l-0.37,2.07c1.78-1.27,3.74-2.36,5.99-2.36c1.78,0,3.51,0.81,3.51,2.82c0,0.58-0.11,1.12-0.2,1.7l-1.04,5.69
		c-0.09,0.46-0.14,0.81-0.14,1.27c0,0.72,0.6,1.52,1.38,1.52c0.75,0,1.41-0.49,1.93-0.98l0.58,0.63c-0.89,1.09-2.45,1.78-3.86,1.78
		c-1.52,0-2.71-1.09-2.68-2.62c0.03-0.92,0.23-1.87,0.4-2.76l0.81-4.57c0.06-0.4,0.17-0.92,0.17-1.35c0-1.12-0.95-1.78-2.01-1.78
		c-1.84,0-3.66,1.24-5.07,2.3L445.4,383.71z"/>
	<path fill="#65656A" d="M464.03,379.8c-0.06,0.32-0.12,0.6-0.12,0.95c0,0.95,0.58,1.61,1.55,1.61c0.81,0,1.41-0.52,1.96-0.98
		l0.66,0.58c-0.92,1.18-2.62,1.98-4.12,1.98c-1.7,0-2.71-1.18-2.71-2.82c0-0.46,0.06-0.86,0.14-1.32l1.04-5.93
		c0.06-0.32,0.14-0.63,0.14-0.98c0-1.18-0.86-1.38-1.87-1.52h-0.2l0.14-0.86l1.18-0.14c1.01-0.14,2.04-0.26,3.02-0.58h0.95
		L464.03,379.8z M465.03,368.12c-0.83,0-1.32-0.72-1.32-1.5c0-1.01,0.98-1.98,1.99-1.98c0.83,0,1.5,0.49,1.5,1.38
		C467.19,367.18,466.19,368.12,465.03,368.12z"/>
	<path fill="#65656A" d="M473.99,383.94c-3.6,0-6.07-2.19-6.07-5.87c0-2.13,0.98-4.37,2.42-5.92c1.64-1.81,3.74-2.65,6.16-2.65
		c3.57,0,6.01,2.3,6.01,5.93C482.5,380.15,478.73,383.94,473.99,383.94z M474.13,382.59c2.01,0,3.4-1.09,4.26-2.85
		c0.66-1.41,1.15-3.45,1.15-5c0-1.01-0.17-2.27-0.89-3.08c-0.55-0.6-1.61-0.81-2.39-0.81c-3.89,0-5.38,4.89-5.38,8.02
		C470.88,381.07,471.77,382.59,474.13,382.59z"/>
	<path fill="#65656A" d="M488.95,371.58l0.06,0.06c1.21-1.12,2.88-2.13,4.6-2.13c0.83,0,1.81,0.35,1.81,1.35
		c0,1.04-0.92,1.5-1.84,1.5c-1.12,0-1.47-0.81-2.36-0.81c-2.33,0-2.91,3.45-3.19,5.18l-1.21,6.99h-2.62l1.76-10.04
		c0.06-0.35,0.14-0.66,0.14-1.01c0-1.12-0.95-1.29-1.99-1.35l0.14-0.86l4.03-0.66h1.04L488.95,371.58z"/>
	<path fill="#65656A" d="M413.88,392.39l-2.5,14.09c-0.06,0.35-0.09,0.58-0.09,0.92c0,0.43,0.09,0.86,0.32,1.21
		c0.4,0.58,0.86,0.66,1.5,0.72l0.52,0.03l-0.14,0.86h-6.79l0.14-0.86c2.3-0.2,2.71-1.24,3.02-3.16l2.1-11.82
		c0.06-0.35,0.12-0.58,0.12-0.92c0-1.18-0.6-1.78-1.73-1.93L410,391.5l0.14-0.86h6.36l2.65,15.1l8.35-15.1h6.19l-0.14,0.86
		c-2.3,0.2-2.79,1.24-3.14,3.16l-2.07,11.82c-0.06,0.35-0.12,0.58-0.12,0.92c0,1.18,0.69,1.78,1.81,1.93l0.35,0.03l-0.14,0.86h-7.91
		l0.23-0.86c2.27-0.17,2.65-1.24,2.99-3.16l2.39-13.55l-9.73,17.57h-1.24L413.88,392.39z"/>
	<path fill="#65656A" d="M446.58,406.03c-0.09,0.37-0.17,0.78-0.17,1.18c0,0.89,0.66,1.61,1.58,1.61c0.75,0,1.53-0.49,2.01-1.06
		l0.66,0.6c-0.78,1.15-2.73,2.1-4.12,2.1c-1.78,0-2.82-1.35-2.82-3.08V407h-0.06c-1.35,2.01-3.17,3.45-5.76,3.45
		c-3.19,0-4.95-2.36-4.95-5.41c0-4.43,3.45-9.03,8.14-9.03c1.53,0,3.22,0.55,4.26,1.7l0.26-1.41h2.65L446.58,406.03z M441.8,397.37
		c-3.88,0-5.96,5.12-5.96,8.4c0,1.73,0.78,3.34,2.73,3.34c2.22,0,4.06-2.1,4.92-3.94c0.89-1.96,1.27-4.14,1.67-6.24
		C444.39,397.89,443.04,397.37,441.8,397.37z"/>
	<path fill="#65656A" d="M454.04,410.23h-2.62l1.76-9.98c0.06-0.4,0.12-0.66,0.12-1.06c0-1.12-0.95-1.29-1.99-1.35l0.14-0.86
		l4.03-0.66h1.04l-0.37,2.07c1.78-1.27,3.74-2.36,5.99-2.36c1.78,0,3.51,0.81,3.51,2.82c0,0.58-0.11,1.12-0.2,1.7l-1.04,5.69
		c-0.09,0.46-0.14,0.81-0.14,1.27c0,0.72,0.6,1.52,1.38,1.52c0.75,0,1.41-0.49,1.93-0.98l0.58,0.63c-0.89,1.09-2.45,1.78-3.86,1.78
		c-1.52,0-2.71-1.09-2.68-2.62c0.03-0.92,0.23-1.87,0.4-2.76l0.81-4.57c0.06-0.4,0.17-0.92,0.17-1.35c0-1.12-0.95-1.78-2.01-1.78
		c-1.84,0-3.65,1.24-5.06,2.3L454.04,410.23z"/>
	<path fill="#65656A" d="M482.27,406.03c-0.09,0.37-0.17,0.78-0.17,1.18c0,0.89,0.66,1.61,1.58,1.61c0.75,0,1.53-0.49,2.01-1.06
		l0.66,0.6c-0.78,1.15-2.73,2.1-4.12,2.1c-1.78,0-2.82-1.35-2.82-3.08V407h-0.06c-1.35,2.01-3.17,3.45-5.76,3.45
		c-3.19,0-4.95-2.36-4.95-5.41c0-4.43,3.45-9.03,8.14-9.03c1.53,0,3.22,0.55,4.26,1.7l0.26-1.41h2.65L482.27,406.03z M477.5,397.37
		c-3.88,0-5.96,5.12-5.96,8.4c0,1.73,0.78,3.34,2.73,3.34c2.22,0,4.06-2.1,4.92-3.94c0.89-1.96,1.27-4.14,1.67-6.24
		C480.09,397.89,478.73,397.37,477.5,397.37z"/>
	<path fill="#65656A" d="M499,408.67c-0.4,2.3-0.69,4.2-2.62,5.78c-1.73,1.44-4.06,2.13-6.27,2.13c-1.38,0-2.88-0.17-4.12-0.83
		c-0.66-0.32-1.41-0.78-1.41-1.58c0-0.83,0.83-1.38,1.58-1.38c0.75,0,1.18,0.26,1.5,0.92c0.2,0.37,0.4,0.81,0.75,1.09
		c0.55,0.49,1.38,0.69,2.1,0.69c1.5,0,2.82-0.6,3.83-1.7c1.09-1.18,1.61-2.7,1.87-4.29l0.49-2.59l-0.06-0.06
		c-1.09,2.01-3.25,3.6-5.64,3.6c-3.11,0-4.75-2.44-4.75-5.32c0-4.43,3.22-9.12,7.94-9.12c1.53,0,3.05,0.63,4.03,1.78l0.63-1.5h2.33
		L499,408.67z M498.02,399.04c-0.72-1.04-2.04-1.64-3.31-1.64c-3.77,0-5.5,5.21-5.5,8.34c0,1.67,0.43,3.37,2.42,3.37
		c1.99,0,3.68-1.84,4.58-3.48c0.98-1.87,1.35-4,1.73-6.04L498.02,399.04z"/>
	<path fill="#65656A" d="M515.72,407.75c-1.9,1.52-4.58,2.7-7.08,2.7c-3.17,0-6.19-1.96-6.19-5.38c0-2.39,1.32-4.83,3.08-6.41
		c1.81-1.61,4.37-2.65,6.79-2.65c1.9,0,4.81,0.81,4.81,3.16c0,3.94-8.4,4.72-11.51,4.77c-0.12,0.46-0.2,0.92-0.2,1.41
		c0,2.47,1.78,3.74,4.17,3.74c2.13,0,3.68-1.04,5.41-2.16L515.72,407.75z M505.85,402.89c2.5-0.06,8.49-0.55,8.49-3.74
		c0-1.47-1.32-2.1-2.62-2.1C508.73,397.05,506.57,400.3,505.85,402.89z"/>
	<path fill="#65656A" d="M523.5,398.09l0.06,0.06c1.21-1.12,2.88-2.13,4.6-2.13c0.83,0,1.81,0.35,1.81,1.35
		c0,1.04-0.92,1.5-1.84,1.5c-1.12,0-1.47-0.81-2.36-0.81c-2.33,0-2.91,3.45-3.19,5.18l-1.21,6.99h-2.62l1.76-10.04
		c0.06-0.35,0.14-0.66,0.14-1.01c0-1.12-0.95-1.29-1.99-1.35l0.14-0.86l4.03-0.66h1.04L523.5,398.09z"/>
</g>
<rect x="183.43" y="241.33" transform="matrix(-1.836970e-16 1 -1 -1.836970e-16 697.3596 246.4006)" fill="#65656A" width="84.1" height="461.11"/>
<g>
	<g>
		<path fill="#80B73F" d="M0,6.63V5.66h6.81v0.97H0z M13.61,6.63V5.66h6.81v0.97H13.61z M27.23,6.63V5.66h6.81v0.97H27.23z
			 M40.84,6.63V5.66h6.81v0.97H40.84z M54.45,6.63V5.66h6.81v0.97H54.45z M68.06,6.63V5.66h6.81v0.97H68.06z M81.68,6.63V5.66h6.81
			v0.97H81.68z M95.29,6.63V5.66h6.81v0.97H95.29z M108.9,6.63V5.66h6.81v0.97H108.9z M122.52,6.63V5.66h6.81v0.97H122.52z
			 M136.13,6.63V5.66h6.81v0.97H136.13z M149.74,6.63V5.66h6.81v0.97H149.74z M163.36,6.63V5.66h6.81v0.97H163.36z M176.97,6.63
			V5.66h6.81v0.97H176.97z M190.58,6.63V5.66h6.81v0.97H190.58z M204.19,6.63V5.66H211v0.97H204.19z M217.81,6.63V5.66h6.81v0.97
			H217.81z M231.42,6.63V5.66h6.81v0.97H231.42z M245.03,6.63V5.66h6.81v0.97H245.03z M258.65,6.63V5.66h6.81v0.97H258.65z
			 M272.26,6.63V5.66h6.81v0.97H272.26z M285.87,6.63V5.66h6.81v0.97H285.87z M299.48,6.63V5.66h6.81v0.97H299.48z"/>
	</g>
	<g>
		<path fill="#80B73F" d="M299.48,6.63V5.66h6.81v0.97H299.48z M313.1,6.63V5.66h6.81v0.97H313.1z M326.71,6.63V5.66h6.81v0.97
			H326.71z M340.32,6.63V5.66h6.81v0.97H340.32z M353.94,6.63V5.66h6.81v0.97H353.94z M367.55,6.63V5.66h6.81v0.97H367.55z
			 M381.16,6.63V5.66h6.81v0.97H381.16z M394.78,6.63V5.66h6.81v0.97H394.78z M408.39,6.63V5.66h6.81v0.97H408.39z M422,6.63V5.66
			h6.81v0.97H422z M435.61,6.63V5.66h6.81v0.97H435.61z M449.23,6.63V5.66h6.81v0.97H449.23z M462.84,6.63V5.66h6.81v0.97H462.84z
			 M476.45,6.63V5.66h6.81v0.97H476.45z M490.07,6.63V5.66h6.81v0.97H490.07z M503.68,6.63V5.66h6.81v0.97H503.68z M517.29,6.63
			V5.66h6.81v0.97H517.29z M530.91,6.63V5.66h6.81v0.97H530.91z M544.52,6.63V5.66h6.81v0.97H544.52z M558.13,6.63V5.66h6.81v0.97
			H558.13z M571.74,6.63V5.66h6.81v0.97H571.74z M585.36,6.63V5.66h6.81v0.97H585.36z M598.97,6.63V5.66h6.81v0.97H598.97z"/>
	</g>
</g>
<g>
	<g>
		<path fill="#80B73F" d="M0,91.22v-0.97h6.81v0.97H0z M13.61,91.22v-0.97h6.81v0.97H13.61z M27.23,91.22v-0.97h6.81v0.97H27.23z
			 M40.84,91.22v-0.97h6.81v0.97H40.84z M54.45,91.22v-0.97h6.81v0.97H54.45z M68.06,91.22v-0.97h6.81v0.97H68.06z M81.68,91.22
			v-0.97h6.81v0.97H81.68z M95.29,91.22v-0.97h6.81v0.97H95.29z M108.9,91.22v-0.97h6.81v0.97H108.9z M122.52,91.22v-0.97h6.81v0.97
			H122.52z M136.13,91.22v-0.97h6.81v0.97H136.13z M149.74,91.22v-0.97h6.81v0.97H149.74z M163.36,91.22v-0.97h6.81v0.97H163.36z
			 M176.97,91.22v-0.97h6.81v0.97H176.97z M190.58,91.22v-0.97h6.81v0.97H190.58z M204.19,91.22v-0.97H211v0.97H204.19z
			 M217.81,91.22v-0.97h6.81v0.97H217.81z M231.42,91.22v-0.97h6.81v0.97H231.42z M245.03,91.22v-0.97h6.81v0.97H245.03z
			 M258.65,91.22v-0.97h6.81v0.97H258.65z M272.26,91.22v-0.97h6.81v0.97H272.26z M285.87,91.22v-0.97h6.81v0.97H285.87z
			 M299.48,91.22v-0.97h6.81v0.97H299.48z"/>
	</g>
	<g>
		<path fill="#80B73F" d="M299.48,91.22v-0.97h6.81v0.97H299.48z M313.1,91.22v-0.97h6.81v0.97H313.1z M326.71,91.22v-0.97h6.81
			v0.97H326.71z M340.32,91.22v-0.97h6.81v0.97H340.32z M353.94,91.22v-0.97h6.81v0.97H353.94z M367.55,91.22v-0.97h6.81v0.97
			H367.55z M381.16,91.22v-0.97h6.81v0.97H381.16z M394.78,91.22v-0.97h6.81v0.97H394.78z M408.39,91.22v-0.97h6.81v0.97H408.39z
			 M422,91.22v-0.97h6.81v0.97H422z M435.61,91.22v-0.97h6.81v0.97H435.61z M449.23,91.22v-0.97h6.81v0.97H449.23z M462.84,91.22
			v-0.97h6.81v0.97H462.84z M476.45,91.22v-0.97h6.81v0.97H476.45z M490.07,91.22v-0.97h6.81v0.97H490.07z M503.68,91.22v-0.97h6.81
			v0.97H503.68z M517.29,91.22v-0.97h6.81v0.97H517.29z M530.91,91.22v-0.97h6.81v0.97H530.91z M544.52,91.22v-0.97h6.81v0.97
			H544.52z M558.13,91.22v-0.97h6.81v0.97H558.13z M571.74,91.22v-0.97h6.81v0.97H571.74z M585.36,91.22v-0.97h6.81v0.97H585.36z
			 M598.97,91.22v-0.97h6.81v0.97H598.97z"/>
	</g>
</g>
<g>
	<g>
		<path fill="#80B73F" d="M0,176.22v-0.97h6.81v0.97H0z M13.61,176.22v-0.97h6.81v0.97H13.61z M27.23,176.22v-0.97h6.81v0.97H27.23z
			 M40.84,176.22v-0.97h6.81v0.97H40.84z M54.45,176.22v-0.97h6.81v0.97H54.45z M68.06,176.22v-0.97h6.81v0.97H68.06z M81.68,176.22
			v-0.97h6.81v0.97H81.68z M95.29,176.22v-0.97h6.81v0.97H95.29z M108.9,176.22v-0.97h6.81v0.97H108.9z M122.52,176.22v-0.97h6.81
			v0.97H122.52z M136.13,176.22v-0.97h6.81v0.97H136.13z M149.74,176.22v-0.97h6.81v0.97H149.74z M163.36,176.22v-0.97h6.81v0.97
			H163.36z M176.97,176.22v-0.97h6.81v0.97H176.97z M190.58,176.22v-0.97h6.81v0.97H190.58z M204.19,176.22v-0.97H211v0.97H204.19z
			 M217.81,176.22v-0.97h6.81v0.97H217.81z M231.42,176.22v-0.97h6.81v0.97H231.42z M245.03,176.22v-0.97h6.81v0.97H245.03z
			 M258.65,176.22v-0.97h6.81v0.97H258.65z M272.26,176.22v-0.97h6.81v0.97H272.26z M285.87,176.22v-0.97h6.81v0.97H285.87z
			 M299.48,176.22v-0.97h6.81v0.97H299.48z"/>
	</g>
	<g>
		<path fill="#80B73F" d="M299.48,176.22v-0.97h6.81v0.97H299.48z M313.1,176.22v-0.97h6.81v0.97H313.1z M326.71,176.22v-0.97h6.81
			v0.97H326.71z M340.32,176.22v-0.97h6.81v0.97H340.32z M353.94,176.22v-0.97h6.81v0.97H353.94z M367.55,176.22v-0.97h6.81v0.97
			H367.55z M381.16,176.22v-0.97h6.81v0.97H381.16z M394.78,176.22v-0.97h6.81v0.97H394.78z M408.39,176.22v-0.97h6.81v0.97H408.39z
			 M422,176.22v-0.97h6.81v0.97H422z M435.61,176.22v-0.97h6.81v0.97H435.61z M449.23,176.22v-0.97h6.81v0.97H449.23z
			 M462.84,176.22v-0.97h6.81v0.97H462.84z M476.45,176.22v-0.97h6.81v0.97H476.45z M490.07,176.22v-0.97h6.81v0.97H490.07z
			 M503.68,176.22v-0.97h6.81v0.97H503.68z M517.29,176.22v-0.97h6.81v0.97H517.29z M530.91,176.22v-0.97h6.81v0.97H530.91z
			 M544.52,176.22v-0.97h6.81v0.97H544.52z M558.13,176.22v-0.97h6.81v0.97H558.13z M571.74,176.22v-0.97h6.81v0.97H571.74z
			 M585.36,176.22v-0.97h6.81v0.97H585.36z M598.97,176.22v-0.97h6.81v0.97H598.97z"/>
	</g>
</g>
<g>
	<g>
		<path fill="#80B73F" d="M0,261.22v-0.97h6.81v0.97H0z M13.61,261.22v-0.97h6.81v0.97H13.61z M27.23,261.22v-0.97h6.81v0.97H27.23z
			 M40.84,261.22v-0.97h6.81v0.97H40.84z M54.45,261.22v-0.97h6.81v0.97H54.45z M68.06,261.22v-0.97h6.81v0.97H68.06z M81.68,261.22
			v-0.97h6.81v0.97H81.68z M95.29,261.22v-0.97h6.81v0.97H95.29z M108.9,261.22v-0.97h6.81v0.97H108.9z M122.52,261.22v-0.97h6.81
			v0.97H122.52z M136.13,261.22v-0.97h6.81v0.97H136.13z M149.74,261.22v-0.97h6.81v0.97H149.74z M163.36,261.22v-0.97h6.81v0.97
			H163.36z M176.97,261.22v-0.97h6.81v0.97H176.97z M190.58,261.22v-0.97h6.81v0.97H190.58z M204.19,261.22v-0.97H211v0.97H204.19z
			 M217.81,261.22v-0.97h6.81v0.97H217.81z M231.42,261.22v-0.97h6.81v0.97H231.42z M245.03,261.22v-0.97h6.81v0.97H245.03z
			 M258.65,261.22v-0.97h6.81v0.97H258.65z M272.26,261.22v-0.97h6.81v0.97H272.26z M285.87,261.22v-0.97h6.81v0.97H285.87z
			 M299.48,261.22v-0.97h6.81v0.97H299.48z"/>
	</g>
	<g>
		<path fill="#80B73F" d="M299.48,261.22v-0.97h6.81v0.97H299.48z M313.1,261.22v-0.97h6.81v0.97H313.1z M326.71,261.22v-0.97h6.81
			v0.97H326.71z M340.32,261.22v-0.97h6.81v0.97H340.32z M353.94,261.22v-0.97h6.81v0.97H353.94z M367.55,261.22v-0.97h6.81v0.97
			H367.55z M381.16,261.22v-0.97h6.81v0.97H381.16z M394.78,261.22v-0.97h6.81v0.97H394.78z M408.39,261.22v-0.97h6.81v0.97H408.39z
			 M422,261.22v-0.97h6.81v0.97H422z M435.61,261.22v-0.97h6.81v0.97H435.61z M449.23,261.22v-0.97h6.81v0.97H449.23z
			 M462.84,261.22v-0.97h6.81v0.97H462.84z M476.45,261.22v-0.97h6.81v0.97H476.45z M490.07,261.22v-0.97h6.81v0.97H490.07z
			 M503.68,261.22v-0.97h6.81v0.97H503.68z M517.29,261.22v-0.97h6.81v0.97H517.29z M530.91,261.22v-0.97h6.81v0.97H530.91z
			 M544.52,261.22v-0.97h6.81v0.97H544.52z M558.13,261.22v-0.97h6.81v0.97H558.13z M571.74,261.22v-0.97h6.81v0.97H571.74z
			 M585.36,261.22v-0.97h6.81v0.97H585.36z M598.97,261.22v-0.97h6.81v0.97H598.97z"/>
	</g>
</g>
<g>
	<g>
		<path fill="#80B73F" d="M0,346.21v-0.97h6.81v0.97H0z M13.61,346.21v-0.97h6.81v0.97H13.61z M27.23,346.21v-0.97h6.81v0.97H27.23z
			 M40.84,346.21v-0.97h6.81v0.97H40.84z M54.45,346.21v-0.97h6.81v0.97H54.45z M68.06,346.21v-0.97h6.81v0.97H68.06z M81.68,346.21
			v-0.97h6.81v0.97H81.68z M95.29,346.21v-0.97h6.81v0.97H95.29z M108.9,346.21v-0.97h6.81v0.97H108.9z M122.52,346.21v-0.97h6.81
			v0.97H122.52z M136.13,346.21v-0.97h6.81v0.97H136.13z M149.74,346.21v-0.97h6.81v0.97H149.74z M163.36,346.21v-0.97h6.81v0.97
			H163.36z M176.97,346.21v-0.97h6.81v0.97H176.97z M190.58,346.21v-0.97h6.81v0.97H190.58z M204.19,346.21v-0.97H211v0.97H204.19z
			 M217.81,346.21v-0.97h6.81v0.97H217.81z M231.42,346.21v-0.97h6.81v0.97H231.42z M245.03,346.21v-0.97h6.81v0.97H245.03z
			 M258.65,346.21v-0.97h6.81v0.97H258.65z M272.26,346.21v-0.97h6.81v0.97H272.26z M285.87,346.21v-0.97h6.81v0.97H285.87z
			 M299.48,346.21v-0.97h6.81v0.97H299.48z"/>
	</g>
	<g>
		<path fill="#80B73F" d="M299.48,346.21v-0.97h6.81v0.97H299.48z M313.1,346.21v-0.97h6.81v0.97H313.1z M326.71,346.21v-0.97h6.81
			v0.97H326.71z M340.32,346.21v-0.97h6.81v0.97H340.32z M353.94,346.21v-0.97h6.81v0.97H353.94z M367.55,346.21v-0.97h6.81v0.97
			H367.55z M381.16,346.21v-0.97h6.81v0.97H381.16z M394.78,346.21v-0.97h6.81v0.97H394.78z M408.39,346.21v-0.97h6.81v0.97H408.39z
			 M422,346.21v-0.97h6.81v0.97H422z M435.61,346.21v-0.97h6.81v0.97H435.61z M449.23,346.21v-0.97h6.81v0.97H449.23z
			 M462.84,346.21v-0.97h6.81v0.97H462.84z M476.45,346.21v-0.97h6.81v0.97H476.45z M490.07,346.21v-0.97h6.81v0.97H490.07z
			 M503.68,346.21v-0.97h6.81v0.97H503.68z M517.29,346.21v-0.97h6.81v0.97H517.29z M530.91,346.21v-0.97h6.81v0.97H530.91z
			 M544.52,346.21v-0.97h6.81v0.97H544.52z M558.13,346.21v-0.97h6.81v0.97H558.13z M571.74,346.21v-0.97h6.81v0.97H571.74z
			 M585.36,346.21v-0.97h6.81v0.97H585.36z M598.97,346.21v-0.97h6.81v0.97H598.97z"/>
	</g>
</g>
<g>
	<g>
		<path fill="#80B73F" d="M0,430.32v-0.97h6.81v0.97H0z M13.61,430.32v-0.97h6.81v0.97H13.61z M27.23,430.32v-0.97h6.81v0.97H27.23z
			 M40.84,430.32v-0.97h6.81v0.97H40.84z M54.45,430.32v-0.97h6.81v0.97H54.45z M68.06,430.32v-0.97h6.81v0.97H68.06z M81.68,430.32
			v-0.97h6.81v0.97H81.68z M95.29,430.32v-0.97h6.81v0.97H95.29z M108.9,430.32v-0.97h6.81v0.97H108.9z M122.52,430.32v-0.97h6.81
			v0.97H122.52z M136.13,430.32v-0.97h6.81v0.97H136.13z M149.74,430.32v-0.97h6.81v0.97H149.74z M163.36,430.32v-0.97h6.81v0.97
			H163.36z M176.97,430.32v-0.97h6.81v0.97H176.97z M190.58,430.32v-0.97h6.81v0.97H190.58z M204.19,430.32v-0.97H211v0.97H204.19z
			 M217.81,430.32v-0.97h6.81v0.97H217.81z M231.42,430.32v-0.97h6.81v0.97H231.42z M245.03,430.32v-0.97h6.81v0.97H245.03z
			 M258.65,430.32v-0.97h6.81v0.97H258.65z M272.26,430.32v-0.97h6.81v0.97H272.26z M285.87,430.32v-0.97h6.81v0.97H285.87z
			 M299.48,430.32v-0.97h6.81v0.97H299.48z"/>
	</g>
	<g>
		<path fill="#80B73F" d="M299.48,430.32v-0.97h6.81v0.97H299.48z M313.1,430.32v-0.97h6.81v0.97H313.1z M326.71,430.32v-0.97h6.81
			v0.97H326.71z M340.32,430.32v-0.97h6.81v0.97H340.32z M353.94,430.32v-0.97h6.81v0.97H353.94z M367.55,430.32v-0.97h6.81v0.97
			H367.55z M381.16,430.32v-0.97h6.81v0.97H381.16z M394.78,430.32v-0.97h6.81v0.97H394.78z M408.39,430.32v-0.97h6.81v0.97H408.39z
			 M422,430.32v-0.97h6.81v0.97H422z M435.61,430.32v-0.97h6.81v0.97H435.61z M449.23,430.32v-0.97h6.81v0.97H449.23z
			 M462.84,430.32v-0.97h6.81v0.97H462.84z M476.45,430.32v-0.97h6.81v0.97H476.45z M490.07,430.32v-0.97h6.81v0.97H490.07z
			 M503.68,430.32v-0.97h6.81v0.97H503.68z M517.29,430.32v-0.97h6.81v0.97H517.29z M530.91,430.32v-0.97h6.81v0.97H530.91z
			 M544.52,430.32v-0.97h6.81v0.97H544.52z M558.13,430.32v-0.97h6.81v0.97H558.13z M571.74,430.32v-0.97h6.81v0.97H571.74z
			 M585.36,430.32v-0.97h6.81v0.97H585.36z M598.97,430.32v-0.97h6.81v0.97H598.97z"/>
	</g>
</g>
<g>
	<g>
		<path fill="#80B73F" d="M0,514.42v-0.97h6.81v0.97H0z M13.61,514.42v-0.97h6.81v0.97H13.61z M27.23,514.42v-0.97h6.81v0.97H27.23z
			 M40.84,514.42v-0.97h6.81v0.97H40.84z M54.45,514.42v-0.97h6.81v0.97H54.45z M68.06,514.42v-0.97h6.81v0.97H68.06z M81.68,514.42
			v-0.97h6.81v0.97H81.68z M95.29,514.42v-0.97h6.81v0.97H95.29z M108.9,514.42v-0.97h6.81v0.97H108.9z M122.52,514.42v-0.97h6.81
			v0.97H122.52z M136.13,514.42v-0.97h6.81v0.97H136.13z M149.74,514.42v-0.97h6.81v0.97H149.74z M163.36,514.42v-0.97h6.81v0.97
			H163.36z M176.97,514.42v-0.97h6.81v0.97H176.97z M190.58,514.42v-0.97h6.81v0.97H190.58z M204.19,514.42v-0.97H211v0.97H204.19z
			 M217.81,514.42v-0.97h6.81v0.97H217.81z M231.42,514.42v-0.97h6.81v0.97H231.42z M245.03,514.42v-0.97h6.81v0.97H245.03z
			 M258.65,514.42v-0.97h6.81v0.97H258.65z M272.26,514.42v-0.97h6.81v0.97H272.26z M285.87,514.42v-0.97h6.81v0.97H285.87z
			 M299.48,514.42v-0.97h6.81v0.97H299.48z"/>
	</g>
	<g>
		<path fill="#80B73F" d="M299.48,514.42v-0.97h6.81v0.97H299.48z M313.1,514.42v-0.97h6.81v0.97H313.1z M326.71,514.42v-0.97h6.81
			v0.97H326.71z M340.32,514.42v-0.97h6.81v0.97H340.32z M353.94,514.42v-0.97h6.81v0.97H353.94z M367.55,514.42v-0.97h6.81v0.97
			H367.55z M381.16,514.42v-0.97h6.81v0.97H381.16z M394.78,514.42v-0.97h6.81v0.97H394.78z M408.39,514.42v-0.97h6.81v0.97H408.39z
			 M422,514.42v-0.97h6.81v0.97H422z M435.61,514.42v-0.97h6.81v0.97H435.61z M449.23,514.42v-0.97h6.81v0.97H449.23z
			 M462.84,514.42v-0.97h6.81v0.97H462.84z M476.45,514.42v-0.97h6.81v0.97H476.45z M490.07,514.42v-0.97h6.81v0.97H490.07z
			 M503.68,514.42v-0.97h6.81v0.97H503.68z M517.29,514.42v-0.97h6.81v0.97H517.29z M530.91,514.42v-0.97h6.81v0.97H530.91z
			 M544.52,514.42v-0.97h6.81v0.97H544.52z M558.13,514.42v-0.97h6.81v0.97H558.13z M571.74,514.42v-0.97h6.81v0.97H571.74z
			 M585.36,514.42v-0.97h6.81v0.97H585.36z M598.97,514.42v-0.97h6.81v0.97H598.97z"/>
	</g>
</g>
</svg>
