<?xml version="1.0" encoding="utf-8"?>
<!-- Generator: Adobe Illustrator 26.3.1, SVG Export Plug-In . SVG Version: 6.00 Build 0)  -->
<svg version="1.1" id="Layer_1" xmlns="http://www.w3.org/2000/svg" xmlns:xlink="http://www.w3.org/1999/xlink" x="0px" y="0px"
	 viewBox="0 0 125.39 79.3" style="enable-background:new 0 0 125.39 79.3;" xml:space="preserve">
<style type="text/css">
	.st0{fill:#66666C;}
	.st1{fill:#8A221D;}
	.st2{fill:#AEAFB1;}
	.st3{fill:#66676C;}
</style>
<g>
	<g>
		<path class="st0" d="M76.85,46.2H64.34l-0.22-3.97c6.32-3.46,7.72-5.24,7.72-7.4c0-1.72-0.86-2.54-2.22-2.54
			c-0.44,0-0.92,0.06-1.17,0.13l-0.29,1.71c-0.57,0.06-1.27,0.1-1.84,0.1c-0.54,0-1.37-0.04-1.91-0.1v-4.6
			c1.55-0.6,3.52-0.95,5.24-0.95c4.1,0,6.89,1.87,6.89,5.78c0,2.63-1.4,4.95-5.78,7.62v0.22h6.38
			C77.13,43.34,77.07,44.93,76.85,46.2L76.85,46.2z"/>
		<path class="st0" d="M83.9,50.61c-1.87,0-3.75-0.32-5.27-0.92v-4.63c0.54-0.06,1.39-0.1,1.93-0.1c0.57,0,1.27,0.03,1.81,0.1
			l0.29,1.68c0.44,0.09,0.83,0.16,1.3,0.16c1.84,0,2.83-0.98,2.83-2.92c0-2.13-1.46-2.98-4.95-2.98h-2.92
			c0.13-4.07,0.54-8.67,0.99-12.1h11.14c0,1.21-0.13,2.76-0.32,4h-7.14l-0.38,4.35h0.32c4.16,0,7.94,1.62,7.94,6.51
			C91.46,47.95,88.29,50.61,83.9,50.61L83.9,50.61z"/>
		<path class="st0" d="M98.26,36.17h-3.43l2.78,2.02l-1.06,3.27l2.78-2.02l2.78,2.02l-1.06-3.27l2.78-2.02h-3.43l-1.06-3.26
			L98.26,36.17L98.26,36.17z M99.32,46.52c-4.25,0-6.92-2.48-6.92-8.99c0-6.32,2.89-8.96,6.92-8.96c4.35,0,6.92,2.51,6.92,8.99
			C106.24,43.76,103.51,46.52,99.32,46.52L99.32,46.52z"/>
		<path class="st0" d="M32.68,33.55c-0.41,0.05-1.06,0.1-1.52,0.1c-0.43,0-1.17-0.05-1.6-0.1l-0.15-1.39h-1.62v11.02l1.65,0.25
			c0.05,0.4,0.08,0.96,0.08,1.39c0,0.43-0.02,0.99-0.08,1.42h-7.05c-0.05-0.43-0.08-0.99-0.08-1.42c0-0.43,0.03-0.99,0.08-1.39
			l1.65-0.25V32.16h-1.57l-0.25,1.49c-0.96,0-2.1-0.07-3.07-0.23c0.02-0.89,0.18-2.96,0.33-4.26h13.2V33.55L32.68,33.55z"/>
		<path class="st0" d="M40.38,32.03c-2.3,0-3.42,1.34-3.42,5.68c0,4.26,1.17,5.67,3.45,5.67c2.33,0,3.39-1.42,3.39-5.67
			C43.8,33.33,42.56,32.03,40.38,32.03L40.38,32.03z M40.41,46.51c-4.51,0-7.38-2.71-7.38-8.75c0-5.9,2.96-8.84,7.35-8.84
			c4.54,0,7.35,2.74,7.35,8.8C47.73,43.64,44.74,46.51,40.41,46.51L40.41,46.51z"/>
		<path class="st0" d="M55.97,31.96c-0.63,0-1.17,0-1.6,0.02v5.53h1.42c1.7,0,2.61-0.86,2.61-2.94
			C58.4,32.62,57.44,31.96,55.97,31.96L55.97,31.96z M56.07,40.47h-1.7v2.71l1.75,0.25c0.05,0.4,0.08,0.96,0.08,1.39
			c0,0.43-0.02,0.99-0.08,1.42h-7.15c-0.05-0.43-0.08-0.99-0.08-1.42c0-0.43,0.02-0.99,0.08-1.39l1.65-0.25V32.24l-1.65-0.25
			c-0.05-0.4-0.08-0.96-0.08-1.39c0-0.43,0.02-0.99,0.08-1.42c2.23-0.08,4.71-0.13,6.49-0.13c4.16,0,6.69,1.52,6.69,5.53
			C62.15,38.75,59.24,40.47,56.07,40.47L56.07,40.47z"/>
		<path class="st0" d="M76.68,46.03H64.17l-0.22-3.97c6.32-3.46,7.72-5.24,7.72-7.4c0-1.71-0.86-2.54-2.22-2.54
			c-0.44,0-0.92,0.06-1.18,0.13l-0.29,1.71c-0.57,0.06-1.27,0.1-1.84,0.1c-0.54,0-1.36-0.03-1.91-0.1v-4.61
			c1.56-0.6,3.53-0.95,5.24-0.95c4.1,0,6.89,1.88,6.89,5.78c0,2.63-1.4,4.96-5.78,7.62v0.22h6.38
			C76.97,43.17,76.9,44.76,76.68,46.03L76.68,46.03z"/>
		<path class="st0" d="M83.73,50.44c-1.87,0-3.75-0.32-5.27-0.92v-4.64c0.54-0.06,1.4-0.1,1.94-0.1c0.57,0,1.27,0.03,1.81,0.1
			l0.29,1.68c0.44,0.09,0.83,0.16,1.3,0.16c1.84,0,2.83-0.98,2.83-2.92c0-2.13-1.46-2.98-4.95-2.98h-2.92
			c0.13-4.07,0.54-8.67,0.98-12.1h11.15c0,1.21-0.13,2.76-0.32,4h-7.14l-0.38,4.35h0.32c4.16,0,7.94,1.62,7.94,6.51
			C91.29,47.78,88.12,50.44,83.73,50.44L83.73,50.44z"/>
		<path class="st0" d="M98.09,36h-3.43l2.77,2.02l-1.06,3.26l2.78-2.01l2.78,2.01l-1.06-3.26l2.78-2.02h-3.43l-1.06-3.27L98.09,36
			L98.09,36z M99.15,46.35c-4.25,0-6.92-2.48-6.92-8.99c0-6.32,2.89-8.96,6.92-8.96c4.35,0,6.92,2.51,6.92,8.99
			C106.07,43.59,103.34,46.35,99.15,46.35L99.15,46.35z"/>
		<polygon class="st0" points="40.44,25.55 40.44,22.06 39.05,22.06 39.05,25.55 37.73,25.55 37.73,17.25 39.05,17.25 39.05,20.85 
			40.44,20.85 40.44,17.25 41.77,17.25 41.77,25.55 40.44,25.55 		"/>
		<path class="st0" d="M44.31,22.71c-0.62,0.21-0.94,0.56-0.94,1.03v0.47c0,0.3,0.14,0.53,0.41,0.53c0.3,0,0.53-0.26,0.53-0.59
			V22.71L44.31,22.71z M45.37,25.65c-0.39,0-0.68-0.2-0.81-0.65c-0.23,0.43-0.61,0.65-1.07,0.65c-0.7,0-1.17-0.54-1.17-1.46V23.9
			c0-1.1,0.85-1.62,2-2.05v-0.92c0-0.3-0.12-0.48-0.41-0.48c-0.3,0-0.4,0.18-0.4,0.5v0.52h-1.01v-0.47c0-0.88,0.49-1.53,1.46-1.53
			c0.97,0,1.43,0.67,1.43,1.62v3.41c0,0.19,0.08,0.29,0.25,0.3v0.84H45.37L45.37,25.65z"/>
		<polygon class="st0" points="49.78,25.55 48.85,25.55 48.46,23.18 48.31,21.95 48.15,23.18 47.76,25.55 46.83,25.55 45.79,19.57 
			46.88,19.57 47.23,22.47 47.36,23.77 47.5,22.47 47.9,19.57 48.81,19.57 49.17,22.47 49.32,23.77 49.46,22.47 49.83,19.57 
			50.84,19.57 49.78,25.55 		"/>
		<path class="st0" d="M53,22.71c-0.62,0.21-0.93,0.56-0.93,1.03v0.47c0,0.3,0.14,0.53,0.41,0.53c0.3,0,0.52-0.26,0.52-0.59V22.71
			L53,22.71z M54.06,25.65c-0.39,0-0.69-0.2-0.81-0.65c-0.23,0.43-0.61,0.65-1.07,0.65c-0.7,0-1.17-0.54-1.17-1.46V23.9
			c0-1.1,0.85-1.62,2-2.05v-0.92c0-0.3-0.13-0.48-0.41-0.48c-0.3,0-0.4,0.18-0.4,0.5v0.52h-1.01v-0.47c0-0.88,0.49-1.53,1.46-1.53
			c0.97,0,1.43,0.67,1.43,1.62v3.41c0,0.19,0.07,0.29,0.25,0.3v0.84H54.06L54.06,25.65z"/>
		<path class="st0" d="M54.84,18.81v-1.16h1.06v1.16H54.84L54.84,18.81z M54.82,25.55v-5.98h1.11v5.98H54.82L54.82,25.55z"/>
		<path class="st0" d="M56.68,18.81v-1.16h1.06v1.16H56.68L56.68,18.81z M56.65,25.55v-5.98h1.11v5.98H56.65L56.65,25.55z"/>
		<path class="st0" d="M61,22.44c0-0.37-0.19-0.59-0.51-0.59h-0.64v2.55h0.7c0.31,0,0.45-0.18,0.45-0.54V22.44L61,22.44z
			 M60.99,18.92c0-0.35-0.15-0.54-0.46-0.54h-0.67v2.47h0.62c0.33,0,0.51-0.18,0.51-0.57V18.92L60.99,18.92z M60.69,25.55h-2.17
			v-8.3h2.15c0.92,0,1.6,0.48,1.6,1.61v1.21c0,0.62-0.24,1.07-0.82,1.25c0.61,0.2,0.85,0.64,0.85,1.25v1.38
			C62.29,25.08,61.6,25.55,60.69,25.55L60.69,25.55z"/>
		<path class="st0" d="M65.1,25.55l-0.06-0.72c-0.2,0.55-0.61,0.82-1.06,0.82c-0.69,0-1.07-0.52-1.07-1.31v-4.78h1.11v4.6
			c0,0.31,0.19,0.52,0.44,0.52c0.31,0,0.5-0.39,0.5-0.67v-4.45h1.11v5.98H65.1L65.1,25.55z"/>
		<path class="st0" d="M68.16,25.65c-0.98,0-1.53-0.62-1.53-1.62v-0.36h0.96v0.45c0,0.41,0.18,0.6,0.52,0.6
			c0.34,0,0.52-0.18,0.52-0.52c0-0.55-0.27-0.76-0.92-1.36c-0.58-0.44-1.03-0.98-1.03-1.78c0-0.99,0.62-1.57,1.47-1.57
			c0.96,0,1.46,0.65,1.46,1.57v0.37h-0.92v-0.46c0-0.31-0.17-0.51-0.51-0.51c-0.3,0-0.46,0.19-0.46,0.47c0,0.44,0.24,0.71,0.79,1.19
			c0.64,0.49,1.16,1.01,1.16,1.93C69.66,24.92,69.14,25.65,68.16,25.65L68.16,25.65z"/>
		<path class="st0" d="M70.19,18.81v-1.16h1.06v1.16H70.19L70.19,18.81z M70.16,25.55v-5.98h1.11v5.98H70.16L70.16,25.55z"/>
		<path class="st0" d="M74.04,25.55v-4.57c0-0.31-0.17-0.53-0.42-0.53c-0.31,0-0.51,0.39-0.51,0.67v4.43H72v-5.98h0.99l0.06,0.79
			c0.2-0.59,0.6-0.87,1.05-0.87c0.67,0,1.06,0.52,1.06,1.31v4.76H74.04L74.04,25.55z"/>
		<path class="st0" d="M77.81,21.01c0-0.33-0.15-0.56-0.46-0.56c-0.3,0-0.47,0.23-0.47,0.56v1.06h0.93V21.01L77.81,21.01z
			 M77.34,25.65c-0.9,0-1.55-0.67-1.55-1.7v-2.78c0-1.01,0.65-1.69,1.55-1.69c0.91,0,1.48,0.69,1.48,1.69v1.53h-1.95v1.42
			c0,0.32,0.16,0.55,0.47,0.55c0.34,0,0.47-0.23,0.47-0.55v-0.74h1v0.57C78.82,24.98,78.24,25.65,77.34,25.65L77.34,25.65z"/>
		<path class="st0" d="M80.8,25.65c-0.98,0-1.53-0.62-1.53-1.62v-0.36h0.96v0.45c0,0.41,0.19,0.6,0.52,0.6
			c0.34,0,0.53-0.18,0.53-0.52c0-0.55-0.27-0.76-0.92-1.36c-0.58-0.44-1.03-0.98-1.03-1.78c0-0.99,0.62-1.57,1.47-1.57
			c0.96,0,1.46,0.65,1.46,1.57v0.37h-0.92v-0.46c0-0.31-0.17-0.51-0.51-0.51c-0.3,0-0.46,0.19-0.46,0.47c0,0.44,0.24,0.71,0.79,1.19
			c0.63,0.49,1.16,1.01,1.16,1.93C82.3,24.92,81.78,25.65,80.8,25.65L80.8,25.65z"/>
		<path class="st0" d="M84.12,25.65c-0.99,0-1.53-0.62-1.53-1.62v-0.36h0.96v0.45c0,0.41,0.19,0.6,0.52,0.6
			c0.34,0,0.52-0.18,0.52-0.52c0-0.55-0.28-0.76-0.92-1.36c-0.59-0.44-1.04-0.98-1.04-1.78c0-0.99,0.62-1.57,1.47-1.57
			c0.96,0,1.46,0.65,1.46,1.57v0.37h-0.92v-0.46c0-0.31-0.17-0.51-0.51-0.51c-0.3,0-0.46,0.19-0.46,0.47c0,0.44,0.24,0.71,0.79,1.19
			c0.63,0.49,1.16,1.01,1.16,1.93C85.61,24.92,85.1,25.65,84.12,25.65L84.12,25.65z"/>
	</g>
</g>
<g>
	<path class="st3" d="M43.98,58.46c0.16-0.38,0.53-0.78,1.12-1.2c0.51-0.37,0.84-0.63,1-0.79c0.23-0.25,0.35-0.52,0.35-0.81
		c0-0.24-0.07-0.44-0.2-0.6s-0.32-0.24-0.57-0.24c-0.34,0-0.57,0.13-0.69,0.38c-0.07,0.15-0.11,0.38-0.12,0.7h-1.08
		c0.02-0.48,0.11-0.87,0.26-1.17c0.3-0.57,0.83-0.85,1.58-0.85c0.6,0,1.08,0.17,1.43,0.5s0.53,0.77,0.53,1.32
		c0,0.42-0.12,0.79-0.38,1.12c-0.16,0.22-0.43,0.46-0.81,0.72l-0.45,0.32c-0.28,0.2-0.47,0.34-0.57,0.43s-0.19,0.19-0.26,0.31h2.47
		v0.98h-3.88C43.73,59.16,43.81,58.79,43.98,58.46z"/>
	<path class="st3" d="M51.6,54.63c0.29,0.51,0.44,1.23,0.44,2.16s-0.15,1.66-0.44,2.16s-0.8,0.76-1.52,0.76s-1.23-0.25-1.52-0.76
		s-0.44-1.23-0.44-2.16s0.15-1.66,0.44-2.16s0.8-0.76,1.52-0.76S51.31,54.12,51.6,54.63z M49.43,58.29
		c0.11,0.34,0.33,0.52,0.66,0.52s0.55-0.17,0.65-0.52s0.15-0.84,0.15-1.49c0-0.68-0.05-1.19-0.15-1.52s-0.32-0.49-0.65-0.49
		s-0.55,0.16-0.66,0.49s-0.16,0.83-0.16,1.52C49.27,57.45,49.32,57.94,49.43,58.29z"/>
	<path class="st3" d="M52.61,55.66v-0.76c0.35-0.02,0.6-0.04,0.74-0.07c0.22-0.05,0.41-0.15,0.55-0.3c0.1-0.1,0.17-0.24,0.22-0.41
		c0.03-0.1,0.04-0.18,0.04-0.23h0.93v5.66h-1.14v-3.91H52.61z"/>
	<path class="st3" d="M56.14,55.66v-0.76c0.35-0.02,0.6-0.04,0.74-0.07c0.22-0.05,0.41-0.15,0.55-0.3c0.1-0.1,0.17-0.24,0.22-0.41
		c0.03-0.1,0.04-0.18,0.04-0.23h0.93v5.66h-1.14v-3.91H56.14z"/>
	<path class="st3" d="M60.37,56.81h2.18v1.05h-2.18V56.81z"/>
	<path class="st3" d="M64.59,58.46c0.16-0.38,0.53-0.78,1.12-1.2c0.51-0.37,0.84-0.63,1-0.79c0.23-0.25,0.35-0.52,0.35-0.81
		c0-0.24-0.07-0.44-0.2-0.6s-0.32-0.24-0.57-0.24c-0.34,0-0.57,0.13-0.69,0.38c-0.07,0.15-0.11,0.38-0.12,0.7h-1.08
		c0.02-0.48,0.11-0.87,0.26-1.17c0.3-0.57,0.83-0.85,1.58-0.85c0.6,0,1.08,0.17,1.43,0.5s0.53,0.77,0.53,1.32
		c0,0.42-0.12,0.79-0.38,1.12c-0.16,0.22-0.43,0.46-0.81,0.72l-0.45,0.32c-0.28,0.2-0.47,0.34-0.57,0.43s-0.19,0.19-0.26,0.31h2.47
		v0.98h-3.88C64.34,59.16,64.43,58.79,64.59,58.46z"/>
	<path class="st3" d="M72.28,54.63c0.29,0.51,0.44,1.23,0.44,2.16s-0.15,1.66-0.44,2.16s-0.8,0.76-1.52,0.76s-1.23-0.25-1.52-0.76
		s-0.44-1.23-0.44-2.16s0.15-1.66,0.44-2.16s0.8-0.76,1.52-0.76S71.99,54.12,72.28,54.63z M70.11,58.29
		c0.11,0.34,0.33,0.52,0.66,0.52s0.55-0.17,0.65-0.52s0.15-0.84,0.15-1.49c0-0.68-0.05-1.19-0.15-1.52s-0.32-0.49-0.65-0.49
		s-0.55,0.16-0.66,0.49s-0.16,0.83-0.16,1.52C69.95,57.45,70,57.94,70.11,58.29z"/>
	<path class="st3" d="M73.49,58.46c0.16-0.38,0.53-0.78,1.12-1.2c0.51-0.37,0.84-0.63,1-0.79c0.23-0.25,0.35-0.52,0.35-0.81
		c0-0.24-0.07-0.44-0.2-0.6s-0.32-0.24-0.57-0.24c-0.34,0-0.57,0.13-0.69,0.38c-0.07,0.15-0.11,0.38-0.12,0.7h-1.08
		c0.02-0.48,0.11-0.87,0.26-1.17c0.3-0.57,0.83-0.85,1.58-0.85c0.6,0,1.08,0.17,1.43,0.5s0.53,0.77,0.53,1.32
		c0,0.42-0.12,0.79-0.38,1.12c-0.16,0.22-0.43,0.46-0.81,0.72l-0.45,0.32c-0.28,0.2-0.47,0.34-0.57,0.43s-0.19,0.19-0.26,0.31h2.47
		v0.98h-3.88C73.24,59.16,73.33,58.79,73.49,58.46z"/>
	<path class="st3" d="M78.06,58.46c0.16-0.38,0.53-0.78,1.12-1.2c0.51-0.37,0.84-0.63,1-0.79c0.23-0.25,0.35-0.52,0.35-0.81
		c0-0.24-0.07-0.44-0.2-0.6s-0.32-0.24-0.57-0.24c-0.34,0-0.57,0.13-0.69,0.38c-0.07,0.15-0.11,0.38-0.12,0.7h-1.08
		c0.02-0.48,0.11-0.87,0.26-1.17c0.3-0.57,0.83-0.85,1.58-0.85c0.6,0,1.08,0.17,1.43,0.5s0.53,0.77,0.53,1.32
		c0,0.42-0.12,0.79-0.38,1.12c-0.16,0.22-0.43,0.46-0.81,0.72l-0.45,0.32c-0.28,0.2-0.47,0.34-0.57,0.43s-0.19,0.19-0.26,0.31h2.47
		v0.98H77.8C77.81,59.16,77.89,58.79,78.06,58.46z"/>
</g>
</svg>
