<?xml version="1.0" encoding="utf-8"?>
<!-- Generator: Adobe Illustrator 28.3.0, SVG Export Plug-In . SVG Version: 6.00 Build 0)  -->
<svg version="1.1" id="Layer_1" xmlns="http://www.w3.org/2000/svg" xmlns:xlink="http://www.w3.org/1999/xlink" x="0px" y="0px"
	 viewBox="0 0 125.4 79.3" style="enable-background:new 0 0 125.4 79.3;" xml:space="preserve">
<style type="text/css">
	.st0{fill:#8A221D;}
	.st1{fill:#AEAFB1;}
</style>
<g>
	<g>
		<path class="st0" d="M76.5,46.2H63.9l-0.2-4c6.3-3.5,7.7-5.2,7.7-7.4c0-1.7-0.9-2.5-2.2-2.5c-0.4,0-0.9,0.1-1.2,0.1l-0.3,1.7
			c-0.6,0.1-1.3,0.1-1.8,0.1c-0.5,0-1.4,0-1.9-0.1v-4.6c1.6-0.6,3.5-1,5.2-1c4.1,0,6.9,1.9,6.9,5.8c0,2.6-1.4,5-5.8,7.6v0.2h6.4
			C76.7,43.3,76.7,44.9,76.5,46.2L76.5,46.2z"/>
		<path class="st0" d="M83.5,50.6c-1.9,0-3.8-0.3-5.3-0.9v-4.6c0.5-0.1,1.4-0.1,1.9-0.1c0.6,0,1.3,0,1.8,0.1l0.3,1.7
			c0.4,0.1,0.8,0.2,1.3,0.2c1.8,0,2.8-1,2.8-2.9c0-2.1-1.5-3-4.9-3h-2.9c0.1-4.1,0.5-8.7,1-12.1h11.1c0,1.2-0.1,2.8-0.3,4h-7.1
			l-0.4,4.3h0.3c4.2,0,7.9,1.6,7.9,6.5C91.1,48,87.9,50.6,83.5,50.6L83.5,50.6z"/>
		<path class="st0" d="M97.9,36.2h-3.4l2.8,2l-1.1,3.3l2.8-2l2.8,2l-1.1-3.3l2.8-2H100l-1.1-3.3L97.9,36.2L97.9,36.2z M98.9,46.5
			c-4.2,0-6.9-2.5-6.9-9c0-6.3,2.9-9,6.9-9c4.3,0,6.9,2.5,6.9,9C105.8,43.8,103.1,46.5,98.9,46.5L98.9,46.5z"/>
		<path class="st0" d="M32.3,33.5c-0.4,0-1.1,0.1-1.5,0.1c-0.4,0-1.2,0-1.6-0.1L29,32.2h-1.6v11l1.6,0.2c0,0.4,0.1,1,0.1,1.4
			s0,1-0.1,1.4h-7c0-0.4-0.1-1-0.1-1.4c0-0.4,0-1,0.1-1.4l1.6-0.2v-11h-1.6l-0.2,1.5c-1,0-2.1-0.1-3.1-0.2c0-0.9,0.2-3,0.3-4.3h13.2
			V33.5L32.3,33.5z"/>
		<path class="st0" d="M40,32c-2.3,0-3.4,1.3-3.4,5.7c0,4.3,1.2,5.7,3.5,5.7c2.3,0,3.4-1.4,3.4-5.7C43.4,33.3,42.2,32,40,32L40,32z
			 M40,46.5c-4.5,0-7.4-2.7-7.4-8.8c0-5.9,3-8.8,7.3-8.8c4.5,0,7.3,2.7,7.3,8.8C47.3,43.6,44.3,46.5,40,46.5L40,46.5z"/>
		<path class="st0" d="M55.6,32c-0.6,0-1.2,0-1.6,0v5.5h1.4c1.7,0,2.6-0.9,2.6-2.9C58,32.6,57,32,55.6,32L55.6,32z M55.7,40.5H54
			v2.7l1.8,0.2c0,0.4,0.1,1,0.1,1.4s0,1-0.1,1.4h-7.2c0-0.4-0.1-1-0.1-1.4c0-0.4,0-1,0.1-1.4l1.7-0.2V32.2L48.6,32
			c0-0.4-0.1-1-0.1-1.4s0-1,0.1-1.4c2.2-0.1,4.7-0.1,6.5-0.1c4.2,0,6.7,1.5,6.7,5.5C61.8,38.8,58.8,40.5,55.7,40.5L55.7,40.5z"/>
		<path class="st0" d="M76.3,46H63.8l-0.2-4c6.3-3.5,7.7-5.2,7.7-7.4c0-1.7-0.9-2.5-2.2-2.5c-0.4,0-0.9,0.1-1.2,0.1L67.6,34
			c-0.6,0.1-1.3,0.1-1.8,0.1c-0.5,0-1.4,0-1.9-0.1v-4.6c1.6-0.6,3.5-1,5.2-1c4.1,0,6.9,1.9,6.9,5.8c0,2.6-1.4,5-5.8,7.6V42h6.4
			C76.6,43.2,76.5,44.8,76.3,46L76.3,46z"/>
		<path class="st0" d="M83.3,50.4c-1.9,0-3.8-0.3-5.3-0.9v-4.6c0.5-0.1,1.4-0.1,1.9-0.1c0.6,0,1.3,0,1.8,0.1l0.3,1.7
			c0.4,0.1,0.8,0.2,1.3,0.2c1.8,0,2.8-1,2.8-2.9c0-2.1-1.5-3-4.9-3h-2.9c0.1-4.1,0.5-8.7,1-12.1h11.2c0,1.2-0.1,2.8-0.3,4H83
			l-0.4,4.3H83c4.2,0,7.9,1.6,7.9,6.5C90.9,47.8,87.7,50.4,83.3,50.4L83.3,50.4z"/>
		<path class="st0" d="M97.7,36h-3.4l2.8,2L96,41.3l2.8-2l2.8,2l-1.1-3.3l2.8-2h-3.4l-1.1-3.3L97.7,36L97.7,36z M98.8,46.3
			c-4.2,0-6.9-2.5-6.9-9c0-6.3,2.9-9,6.9-9c4.3,0,6.9,2.5,6.9,9C105.7,43.6,102.9,46.3,98.8,46.3L98.8,46.3z"/>
		<polygon class="st0" points="40,25.5 40,22.1 38.7,22.1 38.7,25.5 37.3,25.5 37.3,17.2 38.7,17.2 38.7,20.9 40,20.9 40,17.2 
			41.4,17.2 41.4,25.5 		"/>
		<path class="st0" d="M43.9,22.7c-0.6,0.2-0.9,0.6-0.9,1v0.5c0,0.3,0.1,0.5,0.4,0.5c0.3,0,0.5-0.3,0.5-0.6V22.7L43.9,22.7z
			 M45,25.6c-0.4,0-0.7-0.2-0.8-0.6c-0.2,0.4-0.6,0.6-1.1,0.6c-0.7,0-1.2-0.5-1.2-1.5v-0.3c0-1.1,0.8-1.6,2-2v-0.9
			c0-0.3-0.1-0.5-0.4-0.5c-0.3,0-0.4,0.2-0.4,0.5v0.5h-1V21c0-0.9,0.5-1.5,1.5-1.5c1,0,1.4,0.7,1.4,1.6v3.4c0,0.2,0.1,0.3,0.2,0.3
			v0.8L45,25.6L45,25.6z"/>
		<polygon class="st0" points="49.4,25.5 48.5,25.5 48.1,23.2 47.9,22 47.8,23.2 47.4,25.5 46.4,25.5 45.4,19.6 46.5,19.6 
			46.8,22.5 47,23.8 47.1,22.5 47.5,19.6 48.4,19.6 48.8,22.5 48.9,23.8 49.1,22.5 49.4,19.6 50.4,19.6 		"/>
		<path class="st0" d="M52.6,22.7c-0.6,0.2-0.9,0.6-0.9,1v0.5c0,0.3,0.1,0.5,0.4,0.5c0.3,0,0.5-0.3,0.5-0.6V22.7L52.6,22.7z
			 M53.7,25.6c-0.4,0-0.7-0.2-0.8-0.6c-0.2,0.4-0.6,0.6-1.1,0.6c-0.7,0-1.2-0.5-1.2-1.5v-0.3c0-1.1,0.8-1.6,2-2v-0.9
			c0-0.3-0.1-0.5-0.4-0.5c-0.3,0-0.4,0.2-0.4,0.5v0.5h-1V21c0-0.9,0.5-1.5,1.5-1.5c1,0,1.4,0.7,1.4,1.6v3.4c0,0.2,0.1,0.3,0.2,0.3
			v0.8L53.7,25.6L53.7,25.6z"/>
		<path class="st0" d="M54.4,18.8v-1.2h1.1v1.2H54.4L54.4,18.8z M54.4,25.5v-6h1.1v6H54.4L54.4,25.5z"/>
		<path class="st0" d="M56.3,18.8v-1.2h1.1v1.2H56.3L56.3,18.8z M56.3,25.5v-6h1.1v6H56.3L56.3,25.5z"/>
		<path class="st1" d="M60.6,22.4c0-0.4-0.2-0.6-0.5-0.6h-0.6v2.5h0.7c0.3,0,0.5-0.2,0.5-0.5L60.6,22.4L60.6,22.4z M60.6,18.9
			c0-0.4-0.2-0.5-0.5-0.5h-0.7v2.5h0.6c0.3,0,0.5-0.2,0.5-0.6V18.9L60.6,18.9z M60.3,25.5h-2.2v-8.3h2.2c0.9,0,1.6,0.5,1.6,1.6v1.2
			c0,0.6-0.2,1.1-0.8,1.2c0.6,0.2,0.8,0.6,0.8,1.2v1.4C61.9,25.1,61.2,25.5,60.3,25.5L60.3,25.5z"/>
		<path class="st1" d="M64.7,25.5l-0.1-0.7c-0.2,0.5-0.6,0.8-1.1,0.8c-0.7,0-1.1-0.5-1.1-1.3v-4.8h1.1v4.6c0,0.3,0.2,0.5,0.4,0.5
			c0.3,0,0.5-0.4,0.5-0.7v-4.4h1.1v6L64.7,25.5L64.7,25.5z"/>
		<path class="st1" d="M67.8,25.6c-1,0-1.5-0.6-1.5-1.6v-0.4h1v0.5c0,0.4,0.2,0.6,0.5,0.6s0.5-0.2,0.5-0.5c0-0.5-0.3-0.8-0.9-1.4
			c-0.6-0.4-1-1-1-1.8c0-1,0.6-1.6,1.5-1.6c1,0,1.5,0.6,1.5,1.6v0.4h-0.9V21c0-0.3-0.2-0.5-0.5-0.5c-0.3,0-0.5,0.2-0.5,0.5
			c0,0.4,0.2,0.7,0.8,1.2c0.6,0.5,1.2,1,1.2,1.9C69.3,24.9,68.7,25.6,67.8,25.6L67.8,25.6z"/>
		<path class="st1" d="M69.8,18.8v-1.2h1.1v1.2H69.8L69.8,18.8z M69.8,25.5v-6h1.1v6H69.8L69.8,25.5z"/>
		<path class="st1" d="M73.6,25.5V21c0-0.3-0.2-0.5-0.4-0.5c-0.3,0-0.5,0.4-0.5,0.7v4.4h-1.1v-6h1l0.1,0.8c0.2-0.6,0.6-0.9,1.1-0.9
			c0.7,0,1.1,0.5,1.1,1.3v4.8L73.6,25.5L73.6,25.5z"/>
		<path class="st1" d="M77.4,21c0-0.3-0.2-0.6-0.5-0.6c-0.3,0-0.5,0.2-0.5,0.6v1.1h0.9V21L77.4,21z M76.9,25.6
			c-0.9,0-1.6-0.7-1.6-1.7v-2.8c0-1,0.7-1.7,1.6-1.7c0.9,0,1.5,0.7,1.5,1.7v1.5h-1.9v1.4c0,0.3,0.2,0.5,0.5,0.5
			c0.3,0,0.5-0.2,0.5-0.5v-0.7h1v0.6C78.4,25,77.8,25.6,76.9,25.6L76.9,25.6z"/>
		<path class="st1" d="M80.4,25.6c-1,0-1.5-0.6-1.5-1.6v-0.4h1v0.5c0,0.4,0.2,0.6,0.5,0.6c0.3,0,0.5-0.2,0.5-0.5
			c0-0.5-0.3-0.8-0.9-1.4c-0.6-0.4-1-1-1-1.8c0-1,0.6-1.6,1.5-1.6c1,0,1.5,0.6,1.5,1.6v0.4h-0.9V21c0-0.3-0.2-0.5-0.5-0.5
			c-0.3,0-0.5,0.2-0.5,0.5c0,0.4,0.2,0.7,0.8,1.2c0.6,0.5,1.2,1,1.2,1.9C81.9,24.9,81.4,25.6,80.4,25.6L80.4,25.6z"/>
		<path class="st1" d="M83.7,25.6c-1,0-1.5-0.6-1.5-1.6v-0.4h1v0.5c0,0.4,0.2,0.6,0.5,0.6c0.3,0,0.5-0.2,0.5-0.5
			c0-0.5-0.3-0.8-0.9-1.4c-0.6-0.4-1-1-1-1.8c0-1,0.6-1.6,1.5-1.6c1,0,1.5,0.6,1.5,1.6v0.4h-0.9V21c0-0.3-0.2-0.5-0.5-0.5
			c-0.3,0-0.5,0.2-0.5,0.5c0,0.4,0.2,0.7,0.8,1.2c0.6,0.5,1.2,1,1.2,1.9C85.2,24.9,84.7,25.6,83.7,25.6L83.7,25.6z"/>
	</g>
</g>
<g>
	<path class="st1" d="M42.6,59.8l2.2-2c0.1-0.1,0.2-0.2,0.3-0.3c0.1-0.1,0.2-0.3,0.2-0.4c0-0.2-0.1-0.3-0.2-0.5
		c-0.1-0.1-0.3-0.2-0.5-0.2c-0.2,0-0.4,0.1-0.5,0.2s-0.2,0.3-0.2,0.5L42.6,57c0-0.3,0.1-0.5,0.2-0.8c0.1-0.2,0.2-0.4,0.4-0.5
		c0.2-0.1,0.4-0.3,0.6-0.3c0.2-0.1,0.5-0.1,0.8-0.1c0.3,0,0.5,0,0.7,0.1c0.2,0.1,0.4,0.2,0.6,0.3c0.2,0.1,0.3,0.3,0.4,0.5
		c0.1,0.2,0.1,0.5,0.1,0.7c0,0.2,0,0.3-0.1,0.5c0,0.1-0.1,0.3-0.2,0.4c-0.1,0.1-0.1,0.2-0.2,0.3c-0.1,0.1-0.2,0.2-0.3,0.3L44,60h2.5
		v1.1h-4V59.8z"/>
	<path class="st1" d="M47.2,58.2c0-0.3,0-0.7,0.1-1c0.1-0.3,0.2-0.7,0.3-0.9c0.2-0.3,0.4-0.5,0.6-0.7s0.6-0.3,1-0.3
		c0.4,0,0.8,0.1,1,0.3s0.5,0.4,0.6,0.7c0.2,0.3,0.3,0.6,0.3,0.9c0.1,0.3,0.1,0.7,0.1,1s0,0.7-0.1,1c-0.1,0.3-0.2,0.7-0.3,0.9
		c-0.2,0.3-0.4,0.5-0.6,0.7s-0.6,0.3-1,0.3c-0.4,0-0.8-0.1-1-0.3s-0.5-0.4-0.6-0.7c-0.2-0.3-0.3-0.6-0.3-0.9S47.2,58.6,47.2,58.2z
		 M48.4,58.2c0,0.1,0,0.3,0,0.5s0,0.4,0.1,0.6c0.1,0.2,0.1,0.4,0.3,0.5c0.1,0.1,0.3,0.2,0.5,0.2c0.2,0,0.4-0.1,0.5-0.2
		c0.1-0.1,0.2-0.3,0.3-0.5c0.1-0.2,0.1-0.4,0.1-0.6s0-0.4,0-0.5s0-0.3,0-0.5s0-0.4-0.1-0.6c-0.1-0.2-0.1-0.4-0.3-0.5
		c-0.1-0.1-0.3-0.2-0.5-0.2c-0.2,0-0.4,0.1-0.5,0.2c-0.1,0.1-0.2,0.3-0.3,0.5c-0.1,0.2-0.1,0.4-0.1,0.6S48.4,58.1,48.4,58.2z"/>
	<path class="st1" d="M53.9,56.7l-1.1,1L52.1,57l1.8-1.6h1.1v5.7h-1.2V56.7z"/>
	<path class="st1" d="M58.7,56.7l-1.1,1L56.9,57l1.8-1.6h1.1v5.7h-1.2V56.7z"/>
	<path class="st1" d="M63.3,59.6h-2v-1h2V59.6z"/>
	<path class="st1" d="M63.9,59.8l2.2-2c0.1-0.1,0.2-0.2,0.3-0.3c0.1-0.1,0.2-0.3,0.2-0.4c0-0.2-0.1-0.3-0.2-0.5
		c-0.1-0.1-0.3-0.2-0.5-0.2c-0.2,0-0.4,0.1-0.5,0.2c-0.1,0.1-0.2,0.3-0.2,0.5L63.9,57c0-0.3,0.1-0.5,0.2-0.8s0.2-0.4,0.4-0.5
		c0.2-0.1,0.4-0.3,0.6-0.3c0.2-0.1,0.5-0.1,0.8-0.1c0.3,0,0.5,0,0.7,0.1c0.2,0.1,0.4,0.2,0.6,0.3c0.2,0.1,0.3,0.3,0.4,0.5
		c0.1,0.2,0.1,0.5,0.1,0.7c0,0.2,0,0.3-0.1,0.5c0,0.1-0.1,0.3-0.2,0.4c-0.1,0.1-0.1,0.2-0.2,0.3c-0.1,0.1-0.2,0.2-0.3,0.3L65.3,60
		h2.5v1.1h-4V59.8z"/>
	<path class="st1" d="M68.5,58.2c0-0.3,0-0.7,0.1-1c0.1-0.3,0.2-0.7,0.3-0.9c0.2-0.3,0.4-0.5,0.6-0.7c0.3-0.2,0.6-0.3,1-0.3
		c0.4,0,0.8,0.1,1,0.3c0.3,0.2,0.5,0.4,0.6,0.7c0.2,0.3,0.3,0.6,0.3,0.9c0.1,0.3,0.1,0.7,0.1,1s0,0.7-0.1,1
		c-0.1,0.3-0.2,0.7-0.3,0.9c-0.2,0.3-0.4,0.5-0.6,0.7c-0.3,0.2-0.6,0.3-1,0.3c-0.4,0-0.8-0.1-1-0.3c-0.3-0.2-0.5-0.4-0.6-0.7
		c-0.2-0.3-0.3-0.6-0.3-0.9S68.5,58.6,68.5,58.2z M69.7,58.2c0,0.1,0,0.3,0,0.5s0,0.4,0.1,0.6c0.1,0.2,0.1,0.4,0.3,0.5
		c0.1,0.1,0.3,0.2,0.5,0.2c0.2,0,0.4-0.1,0.5-0.2c0.1-0.1,0.2-0.3,0.3-0.5c0.1-0.2,0.1-0.4,0.1-0.6c0-0.2,0-0.4,0-0.5s0-0.3,0-0.5
		c0-0.2,0-0.4-0.1-0.6c-0.1-0.2-0.1-0.4-0.3-0.5c-0.1-0.1-0.3-0.2-0.5-0.2c-0.2,0-0.4,0.1-0.5,0.2c-0.1,0.1-0.2,0.3-0.3,0.5
		c-0.1,0.2-0.1,0.4-0.1,0.6S69.7,58.1,69.7,58.2z"/>
	<path class="st1" d="M73.3,59.8l2.2-2c0.1-0.1,0.2-0.2,0.3-0.3C76,57.3,76,57.2,76,57c0-0.2-0.1-0.3-0.2-0.5s-0.3-0.2-0.5-0.2
		c-0.2,0-0.4,0.1-0.5,0.2s-0.2,0.3-0.2,0.5L73.4,57c0-0.3,0.1-0.5,0.2-0.8c0.1-0.2,0.2-0.4,0.4-0.5c0.2-0.1,0.4-0.3,0.6-0.3
		c0.2-0.1,0.5-0.1,0.8-0.1c0.3,0,0.5,0,0.7,0.1c0.2,0.1,0.4,0.2,0.6,0.3c0.2,0.1,0.3,0.3,0.4,0.5c0.1,0.2,0.1,0.5,0.1,0.7
		c0,0.2,0,0.3-0.1,0.5c0,0.1-0.1,0.3-0.2,0.4c-0.1,0.1-0.1,0.2-0.2,0.3c-0.1,0.1-0.2,0.2-0.3,0.3L74.8,60h2.5v1.1h-4V59.8z"/>
	<path class="st1" d="M79.4,57.6h0.4c0.1,0,0.2,0,0.3,0c0.1,0,0.2,0,0.3-0.1s0.2-0.1,0.2-0.2c0.1-0.1,0.1-0.2,0.1-0.3
		c0-0.2-0.1-0.3-0.2-0.4c-0.1-0.1-0.3-0.2-0.5-0.2c-0.2,0-0.3,0.1-0.5,0.2c-0.1,0.1-0.2,0.2-0.2,0.4L78,56.7
		c0.1-0.2,0.2-0.5,0.3-0.6c0.1-0.2,0.3-0.3,0.5-0.4c0.2-0.1,0.4-0.2,0.6-0.2c0.2-0.1,0.4-0.1,0.7-0.1c0.3,0,0.5,0,0.7,0.1
		c0.2,0.1,0.4,0.2,0.6,0.3s0.3,0.3,0.4,0.5c0.1,0.2,0.2,0.4,0.2,0.7c0,0.3-0.1,0.6-0.2,0.8c-0.2,0.2-0.4,0.4-0.7,0.4v0
		c0.2,0,0.3,0.1,0.5,0.2c0.1,0.1,0.2,0.2,0.3,0.3c0.1,0.1,0.2,0.2,0.2,0.4c0,0.1,0.1,0.3,0.1,0.5c0,0.3-0.1,0.5-0.2,0.7
		c-0.1,0.2-0.3,0.4-0.4,0.5c-0.2,0.1-0.4,0.2-0.6,0.3s-0.5,0.1-0.8,0.1c-0.5,0-0.9-0.1-1.3-0.4s-0.6-0.6-0.7-1.1l1.3-0.3
		c0,0.2,0.1,0.4,0.3,0.5c0.1,0.1,0.3,0.2,0.6,0.2c0.3,0,0.5-0.1,0.6-0.2s0.2-0.3,0.2-0.5c0-0.2,0-0.3-0.1-0.4
		c-0.1-0.1-0.2-0.2-0.3-0.2c-0.1,0-0.2-0.1-0.4-0.1s-0.3,0-0.4,0h-0.3V57.6z"/>
</g>
</svg>
