<?xml version="1.0" encoding="UTF-8"?>
<svg xmlns="http://www.w3.org/2000/svg" version="1.1" viewBox="0 0 125.4 79.3">
  <defs>
    <style>
      .cls-1 {
        font-family: Avenir-Black, Avenir;
        font-size: 8px;
        font-weight: 800;
      }

      .cls-1, .cls-2 {
        fill: #aeafb1;
      }

      .cls-3 {
        fill: #8a221d;
      }
    </style>
  </defs>
  <!-- Generator: Adobe Illustrator 28.6.0, SVG Export Plug-In . SVG Version: 1.2.0 Build 709)  -->
  <g>
    <g id="Layer_1">
      <g>
        <path class="cls-3" d="M76.5,46.2h-12.6l-.2-4c6.3-3.5,7.7-5.2,7.7-7.4s-.9-2.5-2.2-2.5-.9,0-1.2,0l-.3,1.7c-.6,0-1.3,0-1.8,0s-1.4,0-1.9,0v-4.6c1.6-.6,3.5-1,5.2-1,4.1,0,6.9,1.9,6.9,5.8s-1.4,5-5.8,7.6v.2h6.4c0,1.2,0,2.8-.2,4.1h0Z"/>
        <path class="cls-3" d="M83.5,50.6c-1.9,0-3.8-.3-5.3-.9v-4.6c.5,0,1.4,0,1.9,0s1.3,0,1.8,0l.3,1.7c.4,0,.8.2,1.3.2,1.8,0,2.8-1,2.8-2.9s-1.5-3-4.9-3h-2.9c0-4.1.5-8.7,1-12.1h11.1c0,1.2,0,2.8-.3,4h-7.1l-.4,4.3h.3c4.2,0,7.9,1.6,7.9,6.5,0,4.2-3.1,6.8-7.5,6.8h0Z"/>
        <path class="cls-3" d="M97.9,36.2h-3.4l2.8,2-1.1,3.3,2.8-2,2.8,2-1.1-3.3,2.8-2h-3.5l-1.1-3.3-1,3.3h0ZM98.9,46.5c-4.2,0-6.9-2.5-6.9-9s2.9-9,6.9-9,6.9,2.5,6.9,9-2.7,9-6.9,9h0Z"/>
        <path class="cls-3" d="M32.3,33.5c-.4,0-1.1,0-1.5,0s-1.2,0-1.6,0l-.2-1.3h-1.6v11l1.6.2c0,.4.1,1,.1,1.4s0,1-.1,1.4h-7c0-.4-.1-1-.1-1.4s0-1,.1-1.4l1.6-.2v-11h-1.6l-.2,1.5c-1,0-2.1,0-3.1-.2,0-.9.2-3,.3-4.3h13.2v4.3h.1Z"/>
        <path class="cls-3" d="M40,32c-2.3,0-3.4,1.3-3.4,5.7s1.2,5.7,3.5,5.7,3.4-1.4,3.4-5.7c0-4.4-1.3-5.7-3.5-5.7h0ZM40,46.5c-4.5,0-7.4-2.7-7.4-8.8s3-8.8,7.3-8.8,7.3,2.7,7.3,8.8c.1,5.9-2.9,8.8-7.2,8.8h0Z"/>
        <path class="cls-3" d="M55.6,32h-1.6v5.5h1.4c1.7,0,2.6-.9,2.6-2.9s-1-2.6-2.4-2.6h0ZM55.7,40.5h-1.7v2.7l1.8.2c0,.4,0,1,0,1.4s0,1,0,1.4h-7.2c0-.4,0-1,0-1.4s0-1,0-1.4l1.7-.2v-11l-1.7-.2c0-.4,0-1,0-1.4s0-1,0-1.4c2.2-.1,4.7-.1,6.5-.1,4.2,0,6.7,1.5,6.7,5.5s-3,5.9-6.1,5.9h0Z"/>
        <path class="cls-3" d="M76.3,46h-12.5l-.2-4c6.3-3.5,7.7-5.2,7.7-7.4s-.9-2.5-2.2-2.5-.9,0-1.2,0l-.3,1.8c-.6,0-1.3,0-1.8,0s-1.4,0-1.9,0v-4.6c1.6-.6,3.5-1,5.2-1,4.1,0,6.9,1.9,6.9,5.8s-1.4,5-5.8,7.6v.2h6.4c0,1.2,0,2.8-.3,4h0Z"/>
        <path class="cls-3" d="M83.3,50.4c-1.9,0-3.8-.3-5.3-.9v-4.6c.5,0,1.4,0,1.9,0s1.3,0,1.8,0l.3,1.7c.4,0,.8.2,1.3.2,1.8,0,2.8-1,2.8-2.9s-1.5-3-4.9-3h-2.9c0-4.1.5-8.7,1-12.1h11.2c0,1.2,0,2.8-.3,4h-7.2l-.4,4.3h.4c4.2,0,7.9,1.6,7.9,6.5s-3.2,6.8-7.6,6.8h0Z"/>
        <path class="cls-3" d="M97.7,36h-3.4l2.8,2-1.1,3.3,2.8-2,2.8,2-1.1-3.3,2.8-2h-3.4l-1.1-3.3-1.1,3.3h0ZM98.8,46.3c-4.2,0-6.9-2.5-6.9-9s2.9-9,6.9-9,6.9,2.5,6.9,9c0,6.3-2.8,9-6.9,9h0Z"/>
        <polygon class="cls-3" points="40 25.5 40 22.1 38.7 22.1 38.7 25.5 37.3 25.5 37.3 17.2 38.7 17.2 38.7 20.9 40 20.9 40 17.2 41.4 17.2 41.4 25.5 40 25.5"/>
        <path class="cls-3" d="M43.9,22.7c-.6.2-.9.6-.9,1v.5c0,.3,0,.5.4.5s.5-.3.5-.6v-1.4h0ZM45,25.6c-.4,0-.7-.2-.8-.6-.2.4-.6.6-1.1.6s-1.2-.5-1.2-1.5v-.3c0-1.1.8-1.6,2-2v-.9c0-.3,0-.5-.4-.5s-.4.2-.4.5v.5h-1v-.4c0-.9.5-1.5,1.5-1.5s1.4.7,1.4,1.6v3.4c0,.2,0,.3.2.3v.8h-.2Z"/>
        <polygon class="cls-3" points="49.4 25.5 48.5 25.5 48.1 23.2 47.9 22 47.8 23.2 47.4 25.5 46.4 25.5 45.4 19.6 46.5 19.6 46.8 22.5 47 23.8 47.1 22.5 47.5 19.6 48.4 19.6 48.8 22.5 48.9 23.8 49.1 22.5 49.4 19.6 50.4 19.6 49.4 25.5"/>
        <path class="cls-3" d="M52.6,22.7c-.6.2-.9.6-.9,1v.5c0,.3,0,.5.4.5s.5-.3.5-.6v-1.4h0ZM53.7,25.6c-.4,0-.7-.2-.8-.6-.2.4-.6.6-1.1.6s-1.2-.5-1.2-1.5v-.3c0-1.1.8-1.6,2-2v-.9c0-.3,0-.5-.4-.5s-.4.2-.4.5v.5h-1v-.4c0-.9.5-1.5,1.5-1.5s1.4.7,1.4,1.6v3.4c0,.2,0,.3.2.3v.8h-.2Z"/>
        <path class="cls-3" d="M54.4,18.8v-1.2h1.1v1.2h-1.1ZM54.4,25.5v-6h1.1v6h-1.1Z"/>
        <path class="cls-3" d="M56.3,18.8v-1.2h1.1v1.2h-1.1ZM56.3,25.5v-6h1.1v6h-1.1Z"/>
        <path class="cls-2" d="M60.6,22.4c0-.4-.2-.6-.5-.6h-.6v2.5h.7c.3,0,.5-.2.5-.5v-1.4h-.1ZM60.6,18.9c0-.4-.2-.5-.5-.5h-.7v2.5h.6c.3,0,.5-.2.5-.6v-1.4h.1ZM60.3,25.5h-2.2v-8.3h2.2c.9,0,1.6.5,1.6,1.6v1.2c0,.6-.2,1.1-.8,1.2.6.2.8.6.8,1.2v1.4c0,1.3-.7,1.7-1.6,1.7h0Z"/>
        <path class="cls-2" d="M64.7,25.5v-.7c-.3.5-.7.8-1.2.8s-1.1-.5-1.1-1.3v-4.8h1.1v4.6c0,.3.2.5.4.5.3,0,.5-.4.5-.7v-4.4h1.1v6h-.8Z"/>
        <path class="cls-2" d="M67.8,25.6c-1,0-1.5-.6-1.5-1.6v-.4h1v.5c0,.4.2.6.5.6s.5-.2.5-.5c0-.5-.3-.8-.9-1.4-.6-.4-1-1-1-1.8s.6-1.6,1.5-1.6,1.5.6,1.5,1.6v.4h-.9v-.4c0-.3-.2-.5-.5-.5s-.5.2-.5.5.2.7.8,1.2c.6.5,1.2,1,1.2,1.9-.2.8-.8,1.5-1.7,1.5h0Z"/>
        <path class="cls-2" d="M69.8,18.8v-1.2h1.1v1.2h-1.1ZM69.8,25.5v-6h1.1v6h-1.1Z"/>
        <path class="cls-2" d="M73.6,25.5v-4.5c0-.3-.2-.5-.4-.5-.3,0-.5.4-.5.7v4.4h-1.1v-6h1v.8c.3-.6.7-.9,1.2-.9s1.1.5,1.1,1.3v4.8h-1.3Z"/>
        <path class="cls-2" d="M77.4,21c0-.3-.2-.6-.5-.6s-.5.2-.5.6v1.1h.9v-1.1h0ZM76.9,25.6c-.9,0-1.6-.7-1.6-1.7v-2.8c0-1,.7-1.7,1.6-1.7s1.5.7,1.5,1.7v1.5h-1.9v1.4c0,.3.2.5.5.5s.5-.2.5-.5v-.7h1v.6c0,1.1-.7,1.7-1.6,1.7h0Z"/>
        <path class="cls-2" d="M80.4,25.6c-1,0-1.5-.6-1.5-1.6v-.4h1v.5c0,.4.2.6.5.6s.5-.2.5-.5c0-.5-.3-.8-.9-1.4-.6-.4-1-1-1-1.8s.6-1.6,1.5-1.6,1.5.6,1.5,1.6v.4h-.9v-.4c0-.3-.2-.5-.5-.5s-.5.2-.5.5.2.7.8,1.2c.6.5,1.2,1,1.2,1.9-.2.8-.7,1.5-1.7,1.5h0Z"/>
        <path class="cls-2" d="M83.7,25.6c-1,0-1.5-.6-1.5-1.6v-.4h1v.5c0,.4.2.6.5.6s.5-.2.5-.5c0-.5-.3-.8-.9-1.4-.6-.4-1-1-1-1.8s.6-1.6,1.5-1.6,1.5.6,1.5,1.6v.4h-.9v-.4c0-.3-.2-.5-.5-.5s-.5.2-.5.5.2.7.8,1.2c.6.5,1.2,1,1.2,1.9-.2.8-.7,1.5-1.7,1.5h0Z"/>
      </g>
      <text class="cls-1" transform="translate(41.8 60.8)"><tspan x="0" y="0">2011-2024</tspan></text>
    </g>
  </g>
</svg>