<?xml version="1.0" encoding="utf-8"?>
<!-- Generator: Adobe Illustrator 28.3.0, SVG Export Plug-In . SVG Version: 6.00 Build 0)  -->
<svg version="1.1" id="Layer_1" xmlns="http://www.w3.org/2000/svg" xmlns:xlink="http://www.w3.org/1999/xlink" x="0px" y="0px"
	 viewBox="0 0 125.4 79.3" style="enable-background:new 0 0 125.4 79.3;" xml:space="preserve">
<style type="text/css">
	.st0{fill:#66666C;}
	.st1{font-family:'Avenir-Black';}
	.st2{font-size:8px;}
</style>
<g>
	<g>
		<path class="st0" d="M76.7,46.2H64.2l-0.2-4c6.3-3.5,7.7-5.2,7.7-7.4c0-1.7-0.9-2.5-2.2-2.5c-0.4,0-0.9,0.1-1.2,0.1L68,34.1
			c-0.6,0.1-1.3,0.1-1.8,0.1c-0.5,0-1.4,0-1.9-0.1v-4.6c1.6-0.6,3.5-1,5.2-1c4.1,0,6.9,1.9,6.9,5.8c0,2.6-1.4,5-5.8,7.6v0.2H77
			C77,43.3,76.9,44.9,76.7,46.2L76.7,46.2z"/>
		<path class="st0" d="M83.8,50.6c-1.9,0-3.8-0.3-5.3-0.9v-4.6C79,45,79.9,45,80.4,45c0.6,0,1.3,0,1.8,0.1l0.3,1.7
			c0.4,0.1,0.8,0.2,1.3,0.2c1.8,0,2.8-1,2.8-2.9c0-2.1-1.5-3-4.9-3h-2.9c0.1-4.1,0.5-8.7,1-12.1h11.1c0,1.2-0.1,2.8-0.3,4h-7.1
			l-0.4,4.3h0.3c4.2,0,7.9,1.6,7.9,6.5C91.3,48,88.2,50.6,83.8,50.6L83.8,50.6z"/>
		<path class="st0" d="M98.1,36.2h-3.4l2.8,2l-1.1,3.3l2.8-2l2.8,2l-1.1-3.3l2.8-2h-3.4l-1.1-3.3L98.1,36.2L98.1,36.2z M99.2,46.5
			c-4.2,0-6.9-2.5-6.9-9c0-6.3,2.9-9,6.9-9c4.3,0,6.9,2.5,6.9,9C106.1,43.8,103.4,46.5,99.2,46.5L99.2,46.5z"/>
		<path class="st0" d="M32.6,33.5c-0.4,0-1.1,0.1-1.5,0.1c-0.4,0-1.2,0-1.6-0.1l-0.1-1.4h-1.6v11l1.6,0.2c0,0.4,0.1,1,0.1,1.4
			s0,1-0.1,1.4h-7c0-0.4-0.1-1-0.1-1.4c0-0.4,0-1,0.1-1.4l1.6-0.2v-11h-1.6l-0.2,1.5c-1,0-2.1-0.1-3.1-0.2c0-0.9,0.2-3,0.3-4.3h13.2
			V33.5L32.6,33.5z"/>
		<path class="st0" d="M40.3,32c-2.3,0-3.4,1.3-3.4,5.7c0,4.3,1.2,5.7,3.5,5.7c2.3,0,3.4-1.4,3.4-5.7C43.7,33.3,42.4,32,40.3,32
			L40.3,32z M40.3,46.5c-4.5,0-7.4-2.7-7.4-8.8c0-5.9,3-8.8,7.3-8.8c4.5,0,7.3,2.7,7.3,8.8C47.6,43.6,44.6,46.5,40.3,46.5L40.3,46.5
			z"/>
		<path class="st0" d="M55.8,32c-0.6,0-1.2,0-1.6,0v5.5h1.4c1.7,0,2.6-0.9,2.6-2.9C58.3,32.6,57.3,32,55.8,32L55.8,32z M55.9,40.5
			h-1.7v2.7l1.8,0.2c0,0.4,0.1,1,0.1,1.4s0,1-0.1,1.4h-7.2c0-0.4-0.1-1-0.1-1.4c0-0.4,0-1,0.1-1.4l1.7-0.2V32.2L48.8,32
			c0-0.4-0.1-1-0.1-1.4s0-1,0.1-1.4c2.2-0.1,4.7-0.1,6.5-0.1c4.2,0,6.7,1.5,6.7,5.5C62,38.8,59.1,40.5,55.9,40.5L55.9,40.5z"/>
		<path class="st0" d="M76.6,46H64l-0.2-4c6.3-3.5,7.7-5.2,7.7-7.4c0-1.7-0.9-2.5-2.2-2.5c-0.4,0-0.9,0.1-1.2,0.1L67.9,34
			c-0.6,0.1-1.3,0.1-1.8,0.1c-0.5,0-1.4,0-1.9-0.1v-4.6c1.6-0.6,3.5-1,5.2-1c4.1,0,6.9,1.9,6.9,5.8c0,2.6-1.4,5-5.8,7.6V42h6.4
			C76.8,43.2,76.8,44.8,76.6,46L76.6,46z"/>
		<path class="st0" d="M83.6,50.4c-1.9,0-3.8-0.3-5.3-0.9v-4.6c0.5-0.1,1.4-0.1,1.9-0.1c0.6,0,1.3,0,1.8,0.1l0.3,1.7
			c0.4,0.1,0.8,0.2,1.3,0.2c1.8,0,2.8-1,2.8-2.9c0-2.1-1.5-3-4.9-3h-2.9c0.1-4.1,0.5-8.7,1-12.1h11.2c0,1.2-0.1,2.8-0.3,4h-7.1
			l-0.4,4.3h0.3c4.2,0,7.9,1.6,7.9,6.5C91.2,47.8,88,50.4,83.6,50.4L83.6,50.4z"/>
		<path class="st0" d="M98,36h-3.4l2.8,2l-1.1,3.3l2.8-2l2.8,2l-1.1-3.3l2.8-2h-3.4L99,32.7L98,36L98,36z M99,46.3
			c-4.2,0-6.9-2.5-6.9-9c0-6.3,2.9-9,6.9-9c4.3,0,6.9,2.5,6.9,9C105.9,43.6,103.2,46.3,99,46.3L99,46.3z"/>
		<polygon class="st0" points="40.3,25.5 40.3,22.1 38.9,22.1 38.9,25.5 37.6,25.5 37.6,17.2 38.9,17.2 38.9,20.9 40.3,20.9 
			40.3,17.2 41.6,17.2 41.6,25.5 		"/>
		<path class="st0" d="M44.2,22.7c-0.6,0.2-0.9,0.6-0.9,1v0.5c0,0.3,0.1,0.5,0.4,0.5c0.3,0,0.5-0.3,0.5-0.6V22.7L44.2,22.7z
			 M45.2,25.6c-0.4,0-0.7-0.2-0.8-0.6c-0.2,0.4-0.6,0.6-1.1,0.6c-0.7,0-1.2-0.5-1.2-1.5v-0.3c0-1.1,0.8-1.6,2-2v-0.9
			c0-0.3-0.1-0.5-0.4-0.5c-0.3,0-0.4,0.2-0.4,0.5v0.5h-1V21c0-0.9,0.5-1.5,1.5-1.5c1,0,1.4,0.7,1.4,1.6v3.4c0,0.2,0.1,0.3,0.2,0.3
			v0.8L45.2,25.6L45.2,25.6z"/>
		<polygon class="st0" points="49.7,25.5 48.7,25.5 48.3,23.2 48.2,22 48,23.2 47.6,25.5 46.7,25.5 45.7,19.6 46.8,19.6 47.1,22.5 
			47.2,23.8 47.4,22.5 47.8,19.6 48.7,19.6 49,22.5 49.2,23.8 49.3,22.5 49.7,19.6 50.7,19.6 		"/>
		<path class="st0" d="M52.9,22.7c-0.6,0.2-0.9,0.6-0.9,1v0.5c0,0.3,0.1,0.5,0.4,0.5c0.3,0,0.5-0.3,0.5-0.6V22.7L52.9,22.7z
			 M53.9,25.6c-0.4,0-0.7-0.2-0.8-0.6c-0.2,0.4-0.6,0.6-1.1,0.6c-0.7,0-1.2-0.5-1.2-1.5v-0.3c0-1.1,0.8-1.6,2-2v-0.9
			c0-0.3-0.1-0.5-0.4-0.5c-0.3,0-0.4,0.2-0.4,0.5v0.5h-1V21c0-0.9,0.5-1.5,1.5-1.5c1,0,1.4,0.7,1.4,1.6v3.4c0,0.2,0.1,0.3,0.2,0.3
			v0.8L53.9,25.6L53.9,25.6z"/>
		<path class="st0" d="M54.7,18.8v-1.2h1.1v1.2H54.7L54.7,18.8z M54.7,25.5v-6h1.1v6H54.7L54.7,25.5z"/>
		<path class="st0" d="M56.6,18.8v-1.2h1.1v1.2H56.6L56.6,18.8z M56.5,25.5v-6h1.1v6H56.5L56.5,25.5z"/>
		<path class="st0" d="M60.9,22.4c0-0.4-0.2-0.6-0.5-0.6h-0.6v2.5h0.7c0.3,0,0.5-0.2,0.5-0.5L60.9,22.4L60.9,22.4z M60.9,18.9
			c0-0.4-0.2-0.5-0.5-0.5h-0.7v2.5h0.6c0.3,0,0.5-0.2,0.5-0.6V18.9L60.9,18.9z M60.6,25.5h-2.2v-8.3h2.2c0.9,0,1.6,0.5,1.6,1.6v1.2
			c0,0.6-0.2,1.1-0.8,1.2c0.6,0.2,0.8,0.6,0.8,1.2v1.4C62.2,25.1,61.5,25.5,60.6,25.5L60.6,25.5z"/>
		<path class="st0" d="M65,25.5l-0.1-0.7c-0.2,0.5-0.6,0.8-1.1,0.8c-0.7,0-1.1-0.5-1.1-1.3v-4.8h1.1v4.6c0,0.3,0.2,0.5,0.4,0.5
			c0.3,0,0.5-0.4,0.5-0.7v-4.4h1.1v6L65,25.5L65,25.5z"/>
		<path class="st0" d="M68,25.6c-1,0-1.5-0.6-1.5-1.6v-0.4h1v0.5c0,0.4,0.2,0.6,0.5,0.6s0.5-0.2,0.5-0.5c0-0.5-0.3-0.8-0.9-1.4
			c-0.6-0.4-1-1-1-1.8c0-1,0.6-1.6,1.5-1.6c1,0,1.5,0.6,1.5,1.6v0.4h-0.9V21c0-0.3-0.2-0.5-0.5-0.5c-0.3,0-0.5,0.2-0.5,0.5
			c0,0.4,0.2,0.7,0.8,1.2c0.6,0.5,1.2,1,1.2,1.9C69.5,24.9,69,25.6,68,25.6L68,25.6z"/>
		<path class="st0" d="M70.1,18.8v-1.2h1.1v1.2H70.1L70.1,18.8z M70,25.5v-6h1.1v6H70L70,25.5z"/>
		<path class="st0" d="M73.9,25.5V21c0-0.3-0.2-0.5-0.4-0.5c-0.3,0-0.5,0.4-0.5,0.7v4.4h-1.1v-6h1l0.1,0.8c0.2-0.6,0.6-0.9,1.1-0.9
			c0.7,0,1.1,0.5,1.1,1.3v4.8L73.9,25.5L73.9,25.5z"/>
		<path class="st0" d="M77.7,21c0-0.3-0.2-0.6-0.5-0.6c-0.3,0-0.5,0.2-0.5,0.6v1.1h0.9V21L77.7,21z M77.2,25.6
			c-0.9,0-1.6-0.7-1.6-1.7v-2.8c0-1,0.7-1.7,1.6-1.7c0.9,0,1.5,0.7,1.5,1.7v1.5h-1.9v1.4c0,0.3,0.2,0.5,0.5,0.5
			c0.3,0,0.5-0.2,0.5-0.5v-0.7h1v0.6C78.7,25,78.1,25.6,77.2,25.6L77.2,25.6z"/>
		<path class="st0" d="M80.7,25.6c-1,0-1.5-0.6-1.5-1.6v-0.4h1v0.5c0,0.4,0.2,0.6,0.5,0.6c0.3,0,0.5-0.2,0.5-0.5
			c0-0.5-0.3-0.8-0.9-1.4c-0.6-0.4-1-1-1-1.8c0-1,0.6-1.6,1.5-1.6c1,0,1.5,0.6,1.5,1.6v0.4h-0.9V21c0-0.3-0.2-0.5-0.5-0.5
			c-0.3,0-0.5,0.2-0.5,0.5c0,0.4,0.2,0.7,0.8,1.2c0.6,0.5,1.2,1,1.2,1.9C82.2,24.9,81.7,25.6,80.7,25.6L80.7,25.6z"/>
		<path class="st0" d="M84,25.6c-1,0-1.5-0.6-1.5-1.6v-0.4h1v0.5c0,0.4,0.2,0.6,0.5,0.6c0.3,0,0.5-0.2,0.5-0.5
			c0-0.5-0.3-0.8-0.9-1.4c-0.6-0.4-1-1-1-1.8c0-1,0.6-1.6,1.5-1.6c1,0,1.5,0.6,1.5,1.6v0.4h-0.9V21c0-0.3-0.2-0.5-0.5-0.5
			c-0.3,0-0.5,0.2-0.5,0.5c0,0.4,0.2,0.7,0.8,1.2c0.6,0.5,1.2,1,1.2,1.9C85.5,24.9,85,25.6,84,25.6L84,25.6z"/>
	</g>
</g>
<text transform="matrix(1 0 0 1 42.4434 59.4281)" class="st0 st1 st2">2011-2023</text>
</svg>
