<?xml version="1.0" standalone="no"?>
<!DOCTYPE svg PUBLIC "-//W3C//DTD SVG 20010904//EN"
 "http://www.w3.org/TR/2001/REC-SVG-20010904/DTD/svg10.dtd">
<svg version="1.0" xmlns="http://www.w3.org/2000/svg"
 width="700.000000pt" height="700.000000pt" viewBox="0 0 700.000000 700.000000"
 preserveAspectRatio="xMidYMid meet">
<metadata>
Created by potrace 1.11, written by Peter Selinger 2001-2013
</metadata>
<g transform="translate(0.000000,700.000000) scale(0.100000,-0.100000)"
fill="#000000" stroke="none">
<path d="M670 3495 l0 -2915 2913 0 2912 0 -1 2907 c-1 1600 -2 2911 -3 2915
0 4 -1310 7 -2911 7 l-2910 0 0 -2914z m2229 1856 c-105 -143 -138 -206 -169
-329 -36 -146 -31 -302 16 -446 20 -60 79 -181 104 -214 18 -22 18 -21 18 60
-1 102 6 158 33 245 75 243 257 426 495 500 45 14 90 18 189 18 115 -1 139 -4
210 -29 299 -103 494 -381 499 -709 1 -107 1 -108 20 -85 43 54 109 212 132
322 10 46 12 185 4 251 -18 139 -92 309 -173 395 -29 31 -29 32 -6 25 64 -20
183 -99 254 -170 108 -107 201 -290 219 -430 12 -87 19 -95 88 -95 45 0 209
-57 261 -90 26 -16 50 -30 53 -30 13 0 131 -105 168 -149 49 -58 99 -136 120
-184 14 -36 14 -37 -4 -27 -10 6 -22 15 -25 20 -9 15 -107 76 -157 98 -167 75
-355 91 -531 46 -86 -22 -225 -83 -274 -122 -22 -16 -20 -17 63 -13 74 3 113
-2 224 -24 8 -2 40 -13 70 -24 290 -110 480 -379 474 -671 -2 -99 -8 -140 -35
-217 -61 -178 -212 -342 -391 -422 -116 -52 -173 -65 -305 -65 -119 -1 -122
-2 -100 -19 39 -31 179 -97 252 -118 102 -31 302 -35 409 -8 96 23 225 85 290
139 26 22 50 40 52 40 8 0 -33 -78 -73 -140 -122 -189 -339 -326 -562 -354
-25 -3 -48 -9 -52 -13 -4 -5 -10 -30 -13 -58 -14 -122 -97 -316 -165 -386 -9
-9 -28 -29 -42 -45 -60 -68 -161 -143 -234 -174 -59 -25 -61 -25 -34 3 72 74
148 234 172 359 14 77 15 216 2 292 -18 102 -84 266 -132 325 l-19 23 2 -81
c1 -45 -3 -103 -8 -129 -4 -26 -10 -58 -13 -70 -25 -138 -133 -314 -254 -413
-76 -63 -186 -120 -256 -135 -5 -1 -30 -7 -55 -13 -71 -16 -254 -7 -326 17
-199 66 -351 200 -440 387 -54 114 -74 206 -74 349 -1 52 -5 85 -10 80 -18
-19 -91 -163 -110 -218 -39 -113 -54 -278 -35 -396 16 -110 83 -262 149 -345
53 -65 51 -67 -20 -30 -177 94 -302 228 -375 403 -30 72 -58 184 -59 229 0 26
-10 33 -53 39 -158 19 -325 95 -437 197 -79 71 -168 197 -200 283 l-11 29 33
-31 c60 -56 151 -109 256 -148 23 -9 42 -14 42 -12 0 2 24 -2 53 -10 70 -19
271 -13 357 10 84 23 164 57 237 101 l58 35 -91 0 c-50 0 -116 5 -145 11 -30
6 -64 12 -77 15 -108 22 -279 127 -366 226 -247 279 -237 683 22 948 152 154
340 231 555 227 l98 -2 -28 22 c-66 53 -217 113 -340 134 -61 11 -227 8 -282
-5 -123 -28 -236 -80 -320 -146 -29 -23 -54 -40 -56 -38 -3 2 17 42 43 87 84
150 224 279 368 340 92 39 147 54 243 66 18 2 35 6 36 7 2 2 6 27 10 56 33
267 187 478 450 618 51 28 50 28 34 5z"/>
<path d="M3525 4848 c-142 -17 -285 -122 -351 -259 -28 -58 -36 -82 -50 -144
-10 -45 -10 -143 0 -195 l11 -55 62 -2 c206 -5 353 -214 287 -406 -51 -146
-210 -237 -356 -203 -144 34 -238 144 -244 285 -1 35 -6 67 -11 71 -25 25
-186 28 -274 5 -136 -35 -268 -135 -323 -244 -119 -234 -24 -497 224 -618 88
-42 139 -52 250 -48 117 4 129 6 131 14 1 3 3 36 4 72 4 101 53 186 141 244
60 40 87 48 174 48 164 1 299 -133 302 -302 4 -179 -130 -308 -326 -315 -35
-1 -41 -5 -48 -31 -17 -62 -15 -167 6 -265 3 -14 21 -57 41 -96 45 -92 130
-179 216 -221 63 -31 171 -54 219 -47 97 14 140 30 206 72 152 98 238 274 230
468 -5 104 -17 128 -60 120 -17 -3 -58 1 -90 9 -172 45 -270 218 -219 388 65
219 338 294 501 139 67 -64 94 -120 100 -210 5 -71 5 -72 36 -81 49 -13 191
-10 253 6 217 56 373 244 373 448 0 119 -46 223 -139 315 -97 96 -224 150
-357 151 -74 1 -152 -10 -160 -22 -3 -5 -6 -37 -8 -72 -1 -44 -10 -78 -30
-119 -115 -235 -446 -231 -558 7 -33 71 -33 190 1 259 54 109 164 178 284 177
37 0 57 4 58 12 0 7 3 23 7 37 10 43 6 186 -8 236 -24 91 -71 175 -134 239
-106 107 -224 149 -371 133z"/>
</g>
</svg>
