<?xml version="1.0" encoding="UTF-8"?>
<svg xmlns="http://www.w3.org/2000/svg" version="1.1" viewBox="0 0 333.1 185.5">
  <defs>
    <style>
      .cls-1 {
        fill: none;
      }

      .cls-2 {
        font-family: Avenir-Heavy, Avenir;
        font-size: 12px;
        font-weight: 800;
        isolation: isolate;
      }

      .cls-2, .cls-3 {
        fill: #fff;
      }

      .cls-4 {
        fill: #65656a;
      }

      .cls-5 {
        fill: #464649;
      }
    </style>
  </defs>
  <!-- Generator: Adobe Illustrator 28.6.0, SVG Export Plug-In . SVG Version: 1.2.0 Build 709)  -->
  <g>
    <g id="Layer_1">
      <g id="Layer_2">
        <g>
          <polygon class="cls-4" points="142.1 163.7 206 153.3 205.8 119.7 159.4 120.9 142.1 163.7"/>
          <polygon class="cls-5" points="205.8 153.3 148.7 147.7 150.5 142.8 205.9 142 205.8 153.3"/>
          <polygon class="cls-4" points="206 153.3 98.1 136.4 98.1 111 206 124.2 206 153.3"/>
          <polygon class="cls-5" points="205.9 139.6 98 136.4 98.3 115.2 206.2 126.2 205.9 139.6"/>
          <polygon class="cls-4" points="233.1 136.4 98 136.4 98 26.4 233.1 25.8 233.1 136.4"/>
          <path class="cls-3" d="M152.6,62.9c0-1.5-1.1-2.4-3-2.4h-2.8v4.6h2.7c1.9,0,3.1-.7,3.1-2.2M146.8,59.6h2.7c1.2,0,2.6-.6,2.6-2.2s-.9-2.1-2.9-2.1h-2.4v4.3h0ZM153.7,62.9c0,1.8-1.2,3-3.9,3h-3.9v-11.4h3.5c2.1,0,3.7.8,3.7,2.7s-.6,2.3-1.8,2.6h0c1.2.5,2.4,1.4,2.4,3.1"/>
          <polygon class="cls-3" points="156 54.5 162.9 54.5 162.9 55.3 157 55.3 157 59.8 161.9 59.8 161.9 60.7 157 60.7 157 65.1 163.2 65.1 163.2 65.9 156 65.9 156 54.5"/>
          <path class="cls-3" d="M164.7,64.3l.6-.7c.9,1,2.2,1.6,3.4,1.6s2.7-.9,2.7-2.1-1.2-2-2.8-2.6-3.4-1.2-3.4-3.1,1.5-2.8,3.4-2.8,2.5.5,3.5,1.2l-.6.8c-.9-.8-2-1.1-2.9-1.1s-2.4.7-2.4,1.9,1.2,1.8,2.7,2.4c1.9.8,3.5,1.2,3.5,3.4s-1.6,3-3.7,3c-1.4-.2-2.8-.7-4-1.9"/>
          <polygon class="cls-3" points="177 55.3 173.5 55.3 173.5 54.5 181.6 54.5 181.6 55.3 178 55.3 178 65.9 177 65.9 177 55.3"/>
          <path class="cls-3" d="M118.9,76.9l-1.2-3.9h0l-1.2,3.9h2.4ZM119.6,79.2h-4l-.7,2.1h-2.8l4.2-11.4h2.6l4.3,11.4h-2.8l-.8-2.1Z"/>
          <path class="cls-3" d="M123.1,75.6c0-3.3,2.1-6,5.9-6s3.3.7,4.6,2.2l-2,1.7c-.6-.7-1.5-1.3-2.6-1.3-1.7,0-3.1,1.2-3.1,3.3s1.2,3.2,3.1,3.2,2-.6,2.6-1.3l2,1.7c-.9,1.2-2.6,2.2-4.6,2.2-3.1.1-5.9-1.9-5.9-5.7"/>
          <path class="cls-3" d="M134.5,75.6c0-3.3,2.1-6,5.9-6s3.3.7,4.6,2.2l-2,1.7c-.6-.7-1.5-1.3-2.6-1.3-1.7,0-3.1,1.2-3.1,3.3s1.2,3.2,3.1,3.2,2-.6,2.6-1.3l2,1.7c-.9,1.2-2.6,2.2-4.6,2.2-3.2.1-5.9-1.9-5.9-5.7"/>
          <path class="cls-3" d="M154.8,75.5c0-1.9-1.3-3.4-3-3.4s-3.1,1.5-3.1,3.4,1.2,3.4,3.1,3.4,3-1.5,3-3.4M145.8,75.5c0-3.4,2.4-5.9,5.9-5.9s5.9,2.4,5.9,5.9-2.5,5.9-5.9,5.9-5.9-2.4-5.9-5.9"/>
          <path class="cls-3" d="M159.1,76.4v-6.7h2.7v6.5c0,1.4.7,2.6,2,2.6s2.1-.9,2.1-2.6v-6.5h2.7v6.7c0,3-1.7,4.9-4.7,4.9-2.9,0-4.8-1.6-4.8-4.9"/>
          <polygon class="cls-3" points="180.3 69.8 180.3 81.3 177.4 81.3 173.1 74.4 173.1 74.4 173.1 81.3 170.4 81.3 170.4 69.8 173.1 69.8 177.5 76.8 177.5 69.8 180.3 69.8"/>
          <polygon class="cls-3" points="184.6 72.2 181.6 72.2 181.6 69.8 190.3 69.8 190.3 72.2 187.3 72.2 187.3 81.3 184.6 81.3 184.6 72.2"/>
          <rect class="cls-3" x="191.6" y="69.8" width="2.7" height="11.4"/>
          <polygon class="cls-3" points="206.3 69.8 206.3 81.3 203.5 81.3 199.2 74.4 199.2 74.4 199.2 81.3 196.4 81.3 196.4 69.8 199.2 69.8 203.6 76.8 203.6 69.8 206.3 69.8"/>
          <path class="cls-3" d="M207.9,75.5c0-3.3,2.2-5.9,5.8-5.9s3.4.7,4.6,2.1l-1.9,1.6c-.6-.6-1.5-1.1-2.7-1.1s-3,1.2-3,3.4,1.1,3.4,3.1,3.4,1.3-.2,2-.5v-1.3h-2.2v-2.3h4.8v5.1c-1,.9-2.7,1.4-4.5,1.4-3.5,0-6-2.1-6-5.9"/>
          <polygon class="cls-3" points="140.9 85.1 148.7 85.1 148.7 87.5 143.6 87.5 143.6 90.1 147.8 90.1 147.8 92.4 143.6 92.4 143.6 96.5 140.9 96.5 140.9 85.1"/>
          <rect class="cls-3" x="150.2" y="85.1" width="2.7" height="11.4"/>
          <path class="cls-3" d="M157.6,90.4h1.2c1.1,0,1.9-.6,1.9-1.5s-.6-1.5-1.8-1.5h-1.3v3h0ZM161,96.5l-2.4-3.7h-.9v3.7h-2.7v-11.4h4.4c2.8,0,4.1,1.7,4.1,4s-.9,2.8-2.1,3.4h0l2.6,4.1h-3Z"/>
          <polygon class="cls-3" points="177.1 85.1 177.1 96.5 174.4 96.5 174.4 90.2 174.4 90.2 172.1 94.4 170.3 94.4 168.1 90.3 168 90.3 168 96.5 165.3 96.5 165.3 85.1 168.1 85.1 171.2 91.1 171.3 91.1 174.4 85.1 177.1 85.1"/>
          <path class="cls-3" d="M178.4,94.8l1.6-2c.9.9,1.9,1.3,2.6,1.3s1.3-.4,1.3-.9-.4-.9-1.7-1.3c-1.7-.6-3.5-1.4-3.5-3.7s1.7-3.4,3.8-3.4,2.8.6,4,1.5l-1.5,2c-.9-.8-1.7-1.1-2.4-1.1s-1,.4-1,.9.4.8,1.7,1.2c2,.8,3.5,1.3,3.5,3.5s-2.4,3.7-4.2,3.7c-1.5.2-3-.4-4.2-1.7"/>
          <polygon class="cls-3" points="113.3 101.2 109.7 101.2 109.7 100.4 117.8 100.4 117.8 101.2 114.2 101.2 114.2 111.8 113.3 111.8 113.3 101.2"/>
          <path class="cls-3" d="M129,106.1c0-2.9-2.1-4.9-4.7-4.9s-4.7,2.2-4.7,4.9,1.9,4.9,4.7,4.9,4.7-2,4.7-4.9M118.6,106.1c0-3.2,2.3-5.8,5.7-5.8s5.7,2.3,5.7,5.8-2.5,5.8-5.7,5.8c-3.5,0-5.7-2.6-5.7-5.8"/>
          <polygon class="cls-3" points="151.2 100.4 147.5 111.8 146.6 111.8 143.6 101.7 143.6 101.7 140.6 111.8 139.7 111.8 136 100.4 137 100.4 140.1 110.3 140.2 110.3 143.1 100.4 144.1 100.4 147.1 110.3 150.2 100.4 151.2 100.4"/>
          <path class="cls-3" d="M162.7,106.1c0-2.9-2.1-4.9-4.7-4.9s-4.7,2.2-4.7,4.9,1.9,4.9,4.7,4.9,4.7-2,4.7-4.9M152.3,106.1c0-3.2,2.3-5.8,5.7-5.8s5.7,2.3,5.7,5.8-2.5,5.8-5.7,5.8c-3.5,0-5.7-2.6-5.7-5.8"/>
          <path class="cls-3" d="M167,106.2h2.6c2.2,0,3-1.1,3-2.6s-1-2.6-2.7-2.6h-2.9v5.2ZM172.7,111.8l-3.2-4.6h-2.6v4.6h-.9v-11.4h3.9c2.6,0,3.7,1.4,3.7,3.4s-1.2,3.1-3,3.4l3.2,4.6h-1.1Z"/>
          <polygon class="cls-3" points="179.1 106.3 177.1 108.7 177.1 111.8 176.3 111.8 176.3 100.4 177.1 100.4 177.1 107.4 177.1 107.4 183.1 100.4 184.3 100.4 179.8 105.7 184.4 111.8 183.2 111.8 179.1 106.3"/>
          <polygon class="cls-3" points="191 100.4 198.1 100.4 198.1 101.2 191.9 101.2 191.9 105.8 197.3 105.8 197.3 106.6 191.9 106.6 191.9 111.8 191 111.8 191 100.4"/>
          <path class="cls-3" d="M209.7,106.1c0-2.9-2.1-4.9-4.7-4.9s-4.7,2.2-4.7,4.9,1.9,4.9,4.7,4.9,4.7-2,4.7-4.9M199.4,106.1c0-3.2,2.3-5.8,5.7-5.8s5.7,2.3,5.7,5.8-2.5,5.8-5.7,5.8c-3.5,0-5.7-2.6-5.7-5.8"/>
          <path class="cls-3" d="M214,106.2h2.6c2.2,0,3-1.1,3-2.6s-1-2.6-2.7-2.6h-2.9v5.2ZM219.8,111.8l-3.2-4.6h-2.6v4.6h-.9v-11.4h3.9c2.6,0,3.7,1.4,3.7,3.4s-1.2,3.1-3,3.4l3.2,4.6h-1.1Z"/>
          <path class="cls-3" d="M110.9,41.9c-1.5,0-1.5-.9-1.5-1.1,0-1.1,1.6-1.3,3-1.3h.6v.3c0,1-.5,2.1-2.1,2.1M115,41.6v-4.2c0-1.4-.9-2.9-3.7-2.9s-2.6.5-3.4,1.2l-.2.2,1.2,1.2.3-.2c.5-.4,1-.8,2.1-.8s1.7.8,1.7,1.5h0c0,0-1,0-1,0-3,0-4.7,1-4.7,3s1.2,2.6,3,2.6,2-.4,2.6-1v.9h1.9v-.2c.2-.2.2-.7.2-1.4"/>
          <path class="cls-3" d="M121.9,40.9c-.5.6-1,.9-1.8.9-1.4,0-2.5-1-2.5-2.6s.8-2.6,2.4-2.6,1.3.3,1.9.9l.2.2,1.5-1.4-.2-.2c-.9-.9-2-1.3-3.3-1.3-2.6,0-4.5,1.9-4.5,4.5s1.9,4.5,4.5,4.5,2.5-.5,3.3-1.3l.2-.2-1.4-1.4h-.3Z"/>
          <path class="cls-3" d="M129.4,40.9c-.5.6-1,.9-1.8.9-1.4,0-2.5-1-2.5-2.6s.8-2.6,2.4-2.6,1.3.3,1.9.9l.2.2,1.5-1.4-.2-.2c-.9-.9-2-1.3-3.3-1.3-2.6,0-4.5,1.9-4.5,4.5s1.9,4.5,4.5,4.5,2.5-.5,3.3-1.3l.2-.2-1.4-1.4h-.3Z"/>
          <path class="cls-3" d="M135,41.6c-1.5,0-2.5-1-2.5-2.6s1-2.6,2.5-2.6,2.5,1,2.5,2.6-.9,2.6-2.5,2.6M135,34.5c-2.6,0-4.5,2-4.5,4.5s2,4.5,4.5,4.5,4.5-2,4.5-4.5c.2-2.5-1.9-4.5-4.5-4.5"/>
          <path class="cls-3" d="M146,39.2c0,1.6-.8,2.5-2.1,2.5s-1.6-.3-1.6-1.9v-5.1h-2v5.5c0,2.5,1.6,3.3,3.2,3.3s2-.4,2.5-1v.8h2v-8.6h-2v4.5h0Z"/>
          <path class="cls-3" d="M153.2,34.5c-1,0-2,.4-2.5,1v-.8h-2v8.6h2v-4.3c0-1.6.8-2.5,2.1-2.5s1.6.3,1.6,1.9v5.1h2v-5.5c-.1-2.6-1.7-3.5-3.2-3.5"/>
          <path class="cls-3" d="M161.5,41.6c-.9,0-.9-.7-.9-1.7v-3.5h2.3v-1.8h-2.3v-1.6l-2,.4v1.1h-1.8v1.8h1.8v4.1c0,1.2,0,3,2.6,3s1,0,1.5-.3h.1v-2.1l-.4.2c-.2.4-.6.4-.9.4"/>
          <rect class="cls-3" x="163.5" y="34.7" width="2" height="8.6"/>
          <path class="cls-3" d="M181.7,39.1c0,1.5-.9,2.6-2.5,2.6s-2.5-.9-2.5-2.6.9-2.6,2.5-2.6c1.4,0,2.5,1,2.5,2.6M181.7,34.7v.9c-.7-.7-1.6-1-2.6-1-2.6,0-4.4,1.9-4.4,4.5s.5,2.4,1.2,3.1c.9.9,1.9,1.2,3.1,1.2s2-.4,2.6-1v.6c0,1.2-.5,2.6-2.7,2.6s-2-.4-2.7-1.2l-.2-.2-1.3,1.7.2.2c1.1,1,2.5,1.5,4.2,1.5,2.7,0,4.7-1.8,4.7-4.4v-8.3l-2.1-.2h0Z"/>
          <polygon class="cls-3" points="191.4 34.7 184.3 34.7 184.3 36.5 186.9 36.5 186.9 43.4 188.9 43.4 188.9 36.5 191.4 36.5 191.4 34.7"/>
          <path class="cls-3" d="M196,41.7c-1.5,0-2.6-1.1-2.6-2.7s1-2.6,2.6-2.6,2.6,1.1,2.6,2.6c-.1,1.6-1.2,2.7-2.6,2.7M196,34.4h0c-1.4,0-2.6.5-3.4,1.2-.9.9-1.3,2-1.3,3.3s.5,2.5,1.3,3.3,2,1.2,3.3,1.2h0c2.7,0,4.6-1.9,4.6-4.5s-.5-2.5-1.2-3.3c-.9-.7-2-1.2-3.3-1.2"/>
          <path class="cls-3" d="M212,39.7l.9-2.4.9,2.4h-1.8ZM212.1,34.7h0l-3.8,8.7h2.2l.8-1.9h3.2l.8,1.9h2.3l-3.8-8.7h-1.7Z"/>
          <polygon class="cls-3" points="221.3 34.7 219.4 37.7 217.5 34.7 215.1 34.7 218.4 39.7 218.4 43.4 220.4 43.4 220.4 39.7 223.7 34.7 221.3 34.7"/>
          <path class="cls-3" d="M203.1,36.5h1.1c1.3,0,2.8.5,2.8,2.6s-2,2.6-3.1,2.6h-.9v-5.2h.1ZM207.7,35.8c-.8-.7-1.9-1-3-1h-3.5v8.7h3.3c2.3,0,4.6-1.5,4.6-4.4s-.5-2.6-1.4-3.3"/>
          <path class="cls-3" d="M170.8,34.5c-1,0-1.9.4-2.5,1v-.8h-2v8.6h2v-4.3c0-1.6.8-2.5,2.1-2.5s1.6.3,1.6,1.9v5.1h2v-5.5c0-2.6-1.6-3.5-3.2-3.5"/>
        </g>
      </g>
      <rect class="cls-1" x="131.1" y="118.8" width="67.7" height="15.5"/>
      <text class="cls-2" transform="translate(153.7 129.4)"><tspan x="0" y="0">2024</tspan></text>
      <text/>
    </g>
  </g>
</svg>