<?xml version="1.0" encoding="utf-8"?>
<!-- Generator: Adobe Illustrator 28.3.0, SVG Export Plug-In . SVG Version: 6.00 Build 0)  -->
<svg version="1.1" id="Layer_1" xmlns="http://www.w3.org/2000/svg" xmlns:xlink="http://www.w3.org/1999/xlink" x="0px" y="0px"
	 viewBox="0 0 333.1 185.5" style="enable-background:new 0 0 333.1 185.5;" xml:space="preserve">
<style type="text/css">
	.st0{fill:#65656A;}
	.st1{fill:#464649;}
	.st2{fill:#FFFFFF;}
	.st3{fill:none;}
	.st4{font-family:'Avenir-Heavy';}
	.st5{font-size:12px;}
</style>
<g id="Layer_2_1_">
	<g>
		<polygon class="st0" points="142.1,163.7 206,153.3 205.8,119.7 159.4,120.9 		"/>
		<polygon class="st1" points="205.8,153.3 148.7,147.7 150.5,142.8 205.9,142 		"/>
		<polygon class="st0" points="206,153.3 98.1,136.4 98.1,111 206,124.2 		"/>
		<polygon class="st1" points="205.9,139.6 98,136.4 98.3,115.2 206.2,126.2 		"/>
		<polygon class="st0" points="233.1,136.4 98,136.4 98,26.4 233.1,25.8 		"/>
		<path class="st2" d="M152.6,62.9c0-1.5-1.1-2.4-3-2.4h-2.8v4.6h2.7C151.4,65.1,152.6,64.4,152.6,62.9 M146.8,59.6h2.7
			c1.2,0,2.6-0.6,2.6-2.2c0-1.2-0.9-2.1-2.9-2.1h-2.4L146.8,59.6L146.8,59.6z M153.7,62.9c0,1.8-1.2,3-3.9,3h-3.9V54.5h3.5
			c2.1,0,3.7,0.8,3.7,2.7c0,1.1-0.6,2.3-1.8,2.6l0,0C152.5,60.3,153.7,61.2,153.7,62.9"/>
		<polygon class="st2" points="156,54.5 162.9,54.5 162.9,55.3 157,55.3 157,59.8 161.9,59.8 161.9,60.7 157,60.7 157,65.1 
			163.2,65.1 163.2,65.9 156,65.9 		"/>
		<path class="st2" d="M164.7,64.3l0.6-0.7c0.9,1,2.2,1.6,3.4,1.6c1.6,0,2.7-0.9,2.7-2.1c0-1.6-1.2-2-2.8-2.6s-3.4-1.2-3.4-3.1
			c0-1.6,1.5-2.8,3.4-2.8c1.1,0,2.5,0.5,3.5,1.2l-0.6,0.8c-0.9-0.8-2-1.1-2.9-1.1c-1.2,0-2.4,0.7-2.4,1.9c0,1.4,1.2,1.8,2.7,2.4
			c1.9,0.8,3.5,1.2,3.5,3.4c0,1.9-1.6,3-3.7,3C167.3,66,165.9,65.5,164.7,64.3"/>
		<polygon class="st2" points="177,55.3 173.5,55.3 173.5,54.5 181.6,54.5 181.6,55.3 178,55.3 178,65.9 177,65.9 		"/>
		<path class="st2" d="M118.9,76.9l-1.2-3.9l0,0l-1.2,3.9H118.9z M119.6,79.2h-4l-0.7,2.1h-2.8l4.2-11.4h2.6l4.3,11.4h-2.8
			L119.6,79.2z"/>
		<path class="st2" d="M123.1,75.6c0-3.3,2.1-6,5.9-6c1.6,0,3.3,0.7,4.6,2.2l-2,1.7c-0.6-0.7-1.5-1.3-2.6-1.3
			c-1.7,0-3.1,1.2-3.1,3.3c0,1.8,1.2,3.2,3.1,3.2c1,0,2-0.6,2.6-1.3l2,1.7c-0.9,1.2-2.6,2.2-4.6,2.2
			C125.9,81.4,123.1,79.4,123.1,75.6"/>
		<path class="st2" d="M134.5,75.6c0-3.3,2.1-6,5.9-6c1.6,0,3.3,0.7,4.6,2.2l-2,1.7c-0.6-0.7-1.5-1.3-2.6-1.3
			c-1.7,0-3.1,1.2-3.1,3.3c0,1.8,1.2,3.2,3.1,3.2c1,0,2-0.6,2.6-1.3l2,1.7c-0.9,1.2-2.6,2.2-4.6,2.2
			C137.2,81.4,134.5,79.4,134.5,75.6"/>
		<path class="st2" d="M154.8,75.5c0-1.9-1.3-3.4-3-3.4c-1.8,0-3.1,1.5-3.1,3.4s1.2,3.4,3.1,3.4C153.5,78.9,154.8,77.4,154.8,75.5
			 M145.8,75.5c0-3.4,2.4-5.9,5.9-5.9c3.4,0,5.9,2.4,5.9,5.9s-2.5,5.9-5.9,5.9S145.8,79,145.8,75.5"/>
		<path class="st2" d="M159.1,76.4v-6.7h2.7v6.5c0,1.4,0.7,2.6,2,2.6c1.1,0,2.1-0.9,2.1-2.6v-6.5h2.7v6.7c0,3-1.7,4.9-4.7,4.9
			C161,81.4,159.1,79.7,159.1,76.4"/>
		<polygon class="st2" points="180.3,69.8 180.3,81.3 177.4,81.3 173.1,74.4 173.1,74.4 173.1,81.3 170.4,81.3 170.4,69.8 
			173.1,69.8 177.5,76.8 177.5,69.8 		"/>
		<polygon class="st2" points="184.6,72.2 181.6,72.2 181.6,69.8 190.3,69.8 190.3,72.2 187.3,72.2 187.3,81.3 184.6,81.3 		"/>
		<rect x="191.6" y="69.8" class="st2" width="2.7" height="11.4"/>
		<polygon class="st2" points="206.3,69.8 206.3,81.3 203.5,81.3 199.2,74.4 199.2,74.4 199.2,81.3 196.4,81.3 196.4,69.8 
			199.2,69.8 203.6,76.8 203.6,69.8 		"/>
		<path class="st2" d="M207.9,75.5c0-3.3,2.2-5.9,5.8-5.9c1.6,0,3.4,0.7,4.6,2.1l-1.9,1.6c-0.6-0.6-1.5-1.1-2.7-1.1
			c-1.6,0-3,1.2-3,3.4c0,1.9,1.1,3.4,3.1,3.4c0.7,0,1.3-0.2,2-0.5v-1.3h-2.2v-2.3h4.8V80c-1,0.9-2.7,1.4-4.5,1.4
			C210.4,81.4,207.9,79.3,207.9,75.5"/>
		<polygon class="st2" points="140.9,85.1 148.7,85.1 148.7,87.5 143.6,87.5 143.6,90.1 147.8,90.1 147.8,92.4 143.6,92.4 
			143.6,96.5 140.9,96.5 		"/>
		<rect x="150.2" y="85.1" class="st2" width="2.7" height="11.4"/>
		<path class="st2" d="M157.6,90.4h1.2c1.1,0,1.9-0.6,1.9-1.5s-0.6-1.5-1.8-1.5h-1.3L157.6,90.4L157.6,90.4z M161,96.5l-2.4-3.7
			h-0.9v3.7H155V85.1h4.4c2.8,0,4.1,1.7,4.1,4c0,1.7-0.9,2.8-2.1,3.4l0,0l2.6,4.1L161,96.5L161,96.5z"/>
		<polygon class="st2" points="177.1,85.1 177.1,96.5 174.4,96.5 174.4,90.2 174.4,90.2 172.1,94.4 170.3,94.4 168.1,90.3 168,90.3 
			168,96.5 165.3,96.5 165.3,85.1 168.1,85.1 171.2,91.1 171.3,91.1 174.4,85.1 		"/>
		<path class="st2" d="M178.4,94.8l1.6-2c0.9,0.9,1.9,1.3,2.6,1.3c0.9,0,1.3-0.4,1.3-0.9c0-0.7-0.4-0.9-1.7-1.3
			c-1.7-0.6-3.5-1.4-3.5-3.7c0-1.9,1.7-3.4,3.8-3.4c1.5,0,2.8,0.6,4,1.5l-1.5,2c-0.9-0.8-1.7-1.1-2.4-1.1s-1,0.4-1,0.9
			s0.4,0.8,1.7,1.2c2,0.8,3.5,1.3,3.5,3.5c0,2.6-2.4,3.7-4.2,3.7C181.1,96.7,179.6,96.1,178.4,94.8"/>
		<polygon class="st2" points="113.3,101.2 109.7,101.2 109.7,100.4 117.8,100.4 117.8,101.2 114.2,101.2 114.2,111.8 113.3,111.8 
					"/>
		<path class="st2" d="M129,106.1c0-2.9-2.1-4.9-4.7-4.9c-2.8,0-4.7,2.2-4.7,4.9c0,2.7,1.9,4.9,4.7,4.9C126.8,111,129,109,129,106.1
			 M118.6,106.1c0-3.2,2.3-5.8,5.7-5.8c3.1,0,5.7,2.3,5.7,5.8s-2.5,5.8-5.7,5.8C120.8,111.8,118.6,109.3,118.6,106.1"/>
		<polygon class="st2" points="151.2,100.4 147.5,111.8 146.6,111.8 143.6,101.7 143.6,101.7 140.6,111.8 139.7,111.8 136,100.4 
			137,100.4 140.1,110.3 140.2,110.3 143.1,100.4 144.1,100.4 147.1,110.3 150.2,100.4 		"/>
		<path class="st2" d="M162.7,106.1c0-2.9-2.1-4.9-4.7-4.9c-2.8,0-4.7,2.2-4.7,4.9c0,2.7,1.9,4.9,4.7,4.9
			C160.5,111,162.7,109,162.7,106.1 M152.3,106.1c0-3.2,2.3-5.8,5.7-5.8c3.1,0,5.7,2.3,5.7,5.8s-2.5,5.8-5.7,5.8
			C154.5,111.8,152.3,109.3,152.3,106.1"/>
		<path class="st2" d="M167,106.2h2.6c2.2,0,3-1.1,3-2.6c0-1.7-1-2.6-2.7-2.6H167V106.2z M172.7,111.8l-3.2-4.6h-2.6v4.6H166v-11.4
			h3.9c2.6,0,3.7,1.4,3.7,3.4c0,2.1-1.2,3.1-3,3.4l3.2,4.6H172.7z"/>
		<polygon class="st2" points="179.1,106.3 177.1,108.7 177.1,111.8 176.3,111.8 176.3,100.4 177.1,100.4 177.1,107.4 177.1,107.4 
			183.1,100.4 184.3,100.4 179.8,105.7 184.4,111.8 183.2,111.8 		"/>
		<polygon class="st2" points="191,100.4 198.1,100.4 198.1,101.2 191.9,101.2 191.9,105.8 197.3,105.8 197.3,106.6 191.9,106.6 
			191.9,111.8 191,111.8 		"/>
		<path class="st2" d="M209.7,106.1c0-2.9-2.1-4.9-4.7-4.9c-2.8,0-4.7,2.2-4.7,4.9c0,2.7,1.9,4.9,4.7,4.9
			C207.6,111,209.7,109,209.7,106.1 M199.4,106.1c0-3.2,2.3-5.8,5.7-5.8c3.1,0,5.7,2.3,5.7,5.8s-2.5,5.8-5.7,5.8
			C201.6,111.8,199.4,109.3,199.4,106.1"/>
		<path class="st2" d="M214,106.2h2.6c2.2,0,3-1.1,3-2.6c0-1.7-1-2.6-2.7-2.6H214V106.2z M219.8,111.8l-3.2-4.6H214v4.6h-0.9v-11.4
			h3.9c2.6,0,3.7,1.4,3.7,3.4c0,2.1-1.2,3.1-3,3.4l3.2,4.6H219.8z"/>
		<path class="st2" d="M110.9,41.9c-1.5,0-1.5-0.9-1.5-1.1c0-1.1,1.6-1.3,3-1.3h0.6v0.3C113.1,40.8,112.5,41.9,110.9,41.9 M115,41.6
			v-4.2c0-1.4-0.9-2.9-3.7-2.9c-1.3,0-2.6,0.5-3.4,1.2l-0.2,0.2l1.2,1.2l0.3-0.2c0.5-0.4,1-0.8,2.1-0.8c1.2,0,1.7,0.8,1.7,1.5v0.1
			h-1c-3,0-4.7,1-4.7,3c0,1.6,1.2,2.6,3,2.6c1.1,0,2-0.4,2.6-1c0,0.2,0,0.5,0,0.7v0.2h1.9V43C115,42.8,115,42.3,115,41.6"/>
		<path class="st2" d="M121.9,40.9c-0.5,0.6-1,0.9-1.8,0.9c-1.4,0-2.5-1-2.5-2.6c0-1.3,0.8-2.6,2.4-2.6c0.8,0,1.3,0.3,1.9,0.9
			l0.2,0.2l1.5-1.4l-0.2-0.2c-0.9-0.9-2-1.3-3.3-1.3c-2.6,0-4.5,1.9-4.5,4.5s1.9,4.5,4.5,4.5c1.3,0,2.5-0.5,3.3-1.3l0.2-0.2
			l-1.4-1.4L121.9,40.9z"/>
		<path class="st2" d="M129.4,40.9c-0.5,0.6-1,0.9-1.8,0.9c-1.4,0-2.5-1-2.5-2.6c0-1.3,0.8-2.6,2.4-2.6c0.8,0,1.3,0.3,1.9,0.9
			l0.2,0.2l1.5-1.4l-0.2-0.2c-0.9-0.9-2-1.3-3.3-1.3c-2.6,0-4.5,1.9-4.5,4.5s1.9,4.5,4.5,4.5c1.3,0,2.5-0.5,3.3-1.3l0.2-0.2
			l-1.4-1.4L129.4,40.9z"/>
		<path class="st2" d="M135,41.6c-1.5,0-2.5-1-2.5-2.6s1-2.6,2.5-2.6s2.5,1,2.5,2.6S136.6,41.6,135,41.6 M135,34.5
			c-2.6,0-4.5,2-4.5,4.5s2,4.5,4.5,4.5c2.6,0,4.5-2,4.5-4.5C139.7,36.5,137.6,34.5,135,34.5"/>
		<path class="st2" d="M146,39.2c0,1.6-0.8,2.5-2.1,2.5c-0.6,0-1.6-0.3-1.6-1.9v-5.1h-2v5.5c0,2.5,1.6,3.3,3.2,3.3c1,0,2-0.4,2.5-1
			v0.8h2v-8.6h-2L146,39.2L146,39.2z"/>
		<path class="st2" d="M153.2,34.5c-1,0-2,0.4-2.5,1v-0.8h-2v8.6h2V39c0-1.6,0.8-2.5,2.1-2.5c0.6,0,1.6,0.3,1.6,1.9v5.1h2V38
			C156.3,35.4,154.7,34.5,153.2,34.5"/>
		<path class="st2" d="M161.5,41.6c-0.9,0-0.9-0.7-0.9-1.7v-3.5h2.3v-1.8h-2.3V33l-2,0.4v1.1h-1.8v1.8h1.8v4.1c0,1.2,0,3,2.6,3
			c0.3,0,1-0.1,1.5-0.3l0.1-0.1v-2l-0.4,0.2C162.2,41.6,161.8,41.6,161.5,41.6"/>
		<rect x="163.5" y="34.7" class="st2" width="2" height="8.6"/>
		<path class="st2" d="M181.7,39.1c0,1.5-0.9,2.6-2.5,2.6s-2.5-0.9-2.5-2.6s0.9-2.6,2.5-2.6C180.6,36.4,181.7,37.5,181.7,39.1
			 M181.7,34.7v0.9c-0.7-0.7-1.6-1-2.6-1c-2.6,0-4.4,1.9-4.4,4.5c0,1.2,0.5,2.4,1.2,3.1c0.9,0.9,1.9,1.2,3.1,1.2c1,0,2-0.4,2.6-1V43
			c0,1.2-0.5,2.6-2.7,2.6c-1,0-2-0.4-2.7-1.2l-0.2-0.2l-1.3,1.7l0.2,0.2c1.1,1,2.5,1.5,4.2,1.5c2.7,0,4.7-1.8,4.7-4.4v-8.3
			L181.7,34.7L181.7,34.7z"/>
		<polygon class="st2" points="191.4,34.7 184.3,34.7 184.3,36.5 186.9,36.5 186.9,43.4 188.9,43.4 188.9,36.5 191.4,36.5 		"/>
		<path class="st2" d="M196,41.7c-1.5,0-2.6-1.1-2.6-2.7c0-1.5,1-2.6,2.6-2.6c1.5,0,2.6,1.1,2.6,2.6C198.5,40.6,197.4,41.7,196,41.7
			 M196,34.4L196,34.4c-1.4,0-2.6,0.5-3.4,1.2c-0.9,0.9-1.3,2-1.3,3.3s0.5,2.5,1.3,3.3s2,1.2,3.3,1.2l0,0l0,0c2.7,0,4.6-1.9,4.6-4.5
			c0-1.3-0.5-2.5-1.2-3.3C198.4,34.9,197.3,34.4,196,34.4"/>
		<path class="st2" d="M212,39.7l0.9-2.4l0.9,2.4H212z M212.1,34.7L212.1,34.7l-3.8,8.7h2.2l0.8-1.9h3.2l0.8,1.9h2.3l-3.8-8.7H212.1
			z"/>
		<polygon class="st2" points="221.3,34.7 219.4,37.7 217.5,34.7 215.1,34.7 218.4,39.7 218.4,43.4 220.4,43.4 220.4,39.7 
			223.7,34.7 		"/>
		<path class="st2" d="M203.1,36.5h1.1c1.3,0,2.8,0.5,2.8,2.6c0,2.2-2,2.6-3.1,2.6H203L203.1,36.5L203.1,36.5z M207.7,35.8
			c-0.8-0.7-1.9-1-3-1h-3.5v8.7h3.3c2.3,0,4.6-1.5,4.6-4.4C209.1,37.7,208.6,36.5,207.7,35.8"/>
		<path class="st2" d="M170.8,34.5c-1,0-1.9,0.4-2.5,1v-0.8h-2v8.6h2V39c0-1.6,0.8-2.5,2.1-2.5c0.6,0,1.6,0.3,1.6,1.9v5.1h2V38
			C174,35.4,172.4,34.5,170.8,34.5"/>
	</g>
</g>
<rect x="131.1" y="118.8" class="st3" width="67.7" height="15.5"/>
<text transform="matrix(1 0 0 1 153.7001 129.4297)" class="st2 st4 st5">2023</text>
</svg>
