<?xml version="1.0" encoding="utf-8"?>
<!-- Generator: Adobe Illustrator 25.0.1, SVG Export Plug-In . SVG Version: 6.00 Build 0)  -->
<svg version="1.1" id="Layer_1" xmlns="http://www.w3.org/2000/svg" xmlns:xlink="http://www.w3.org/1999/xlink" x="0px" y="0px"
	 viewBox="0 0 333.1 185.5" style="enable-background:new 0 0 333.1 185.5;" xml:space="preserve">
<style type="text/css">
	.st0{fill:#65656A;}
	.st1{fill:#999999;}
</style>
<g id="Layer_1_1_">
</g>
<g>
	<path class="st0" d="M243.9,88.7h-7.5l6,4.4l-2.3,7.1l6-4.4l6,4.4l-2.3-7.1l6-4.4h-7.5l-2.3-7.1L243.9,88.7L243.9,88.7z
		 M246.2,111.2c-9.2,0-15.1-5.4-15.1-19.6c0-13.8,6.3-19.6,15.1-19.6c9.5,0,15.1,5.5,15.1,19.6C261.3,105.1,255.4,111.2,246.2,111.2
		z"/>
	<path class="st0" d="M101.2,83c-0.9,0-2.3,0.2-3.3,0.2s-2.5-0.1-3.5-0.2l-0.3-3h-3.5v23.9l3.6,0.5c0.1,1,0.2,2,0.2,3
		c0,1.1,0,2.1-0.2,3.2H79c-0.1-1-0.2-2.1-0.2-3.1s0-2,0.2-3l3.6-0.5V80H79l-0.5,3.3c-2.2,0-4.5-0.2-6.7-0.6c0-1.9,0.4-6.5,0.7-9.3
		h28.7V83z"/>
	<path class="st0" d="M118,79.7c-5,0-7.4,2.9-7.4,12.3s2.5,12.4,7.5,12.4s7.4-3.1,7.4-12.4S122.7,79.7,118,79.7z M118,111.2
		c-9.8,0-16.1-5.9-16.1-19s6.5-19.2,16-19.2c9.9,0,16,5.9,16,19.1S127.4,111.2,118,111.2z"/>
	<path class="st0" d="M151.9,79.5c-1.4,0-2.5,0-3.5,0v12h3.1c3.7,0,5.7-1.9,5.7-6.4S155,79.5,151.9,79.5L151.9,79.5z M152.1,98h-3.7
		v5.9l3.8,0.5c0.1,1,0.2,2,0.2,3s0,2.1-0.1,3.1h-15.6c-0.1-1-0.2-2.1-0.2-3.1s0-2,0.2-3l3.6-0.5V80.2l-3.6-0.6c-0.1-1-0.2-2-0.2-3
		s0.1-2.1,0.2-3.1c4.8-0.2,10.2-0.3,14.1-0.3c9.1,0,14.6,3.3,14.6,12C165.4,94.3,159,98.1,152.1,98L152.1,98z"/>
	<path class="st0" d="M197,110.1h-27.3l-0.5-8.7C183,93.9,186,90,186,85.3c0-3.7-1.8-5.5-4.8-5.5c-0.9,0-1.7,0.1-2.6,0.3l-0.6,3.7
		c-1.2,0.1-2.8,0.2-4,0.2s-3,0-4.2-0.2v-10c3.7-1.3,7.5-2,11.4-2.1c8.9,0,15,4.1,15,12.6c0,5.7-3,10.8-12.6,16.6v0.5h13.9
		C197.6,104.4,197.4,107.3,197,110.1L197,110.1z"/>
	<path class="st0" d="M212.3,119.8c-3.9,0-7.8-0.6-11.5-2v-10.1c1.2-0.1,3-0.2,4.2-0.2c1.3,0,2.6,0.1,3.9,0.2l0.6,3.7
		c0.9,0.2,1.9,0.3,2.8,0.3c4,0,6.2-2.2,6.2-6.4c0-4.6-3.2-6.5-10.9-6.5h-6.3c0.3-8.9,1.2-18.9,2.2-26.3h24.2c0,2.9-0.3,5.8-0.7,8.7
		h-15.5l-0.8,9.5h0.7c9.1,0,17.3,3.5,17.3,14.2C228.8,113.9,221.9,119.7,212.3,119.8L212.3,119.8z"/>
	<polygon class="st0" points="118.1,65.6 118.1,58 115.1,58 115.1,65.6 112.2,65.6 112.2,47.5 115.1,47.5 115.1,55.4 118.1,55.4 
		118.1,47.5 121,47.5 121,65.6 	"/>
	<path class="st0" d="M126.5,59.4c-1.3,0.5-2,1.2-2,2.2v1.2c0,0.6,0.3,1.1,0.9,1.1s1.2-0.6,1.1-1.2l0,0V59.4z M128.8,65.8
		c-0.9,0-1.6-0.6-1.8-1.4c-0.4,0.9-1.3,1.4-2.3,1.4c-1.5,0-2.5-1.2-2.5-3.2V62c0-2.4,1.8-3.5,4.4-4.4v-2.1c0-0.7-0.3-1-0.9-1
		s-0.9,0.4-0.9,1.1v1.2h-2.2v-1c-0.2-1.6,1-3.1,2.7-3.3c0.2,0,0.3,0,0.5,0c2.2,0,3.1,1.5,3.1,3.5v7.4c0,0.4,0.2,0.6,0.5,0.7v1.8
		L128.8,65.8L128.8,65.8z"/>
	<polygon class="st0" points="138.5,65.6 136.4,65.6 135.6,60.4 135.2,57.8 134.9,60.4 134.1,65.6 132,65.6 129.8,52.6 132.1,52.6 
		132.9,58.9 133.2,61.7 133.5,58.9 134.4,52.6 136.3,52.6 137.1,58.9 137.4,61.7 137.7,58.9 138.6,52.6 140.8,52.6 	"/>
	<path class="st0" d="M145.5,59.4c-1.3,0.5-2,1.2-2,2.2v1.2c0,0.6,0.3,1.1,0.9,1.1c0.6,0,1.2-0.6,1.1-1.2l0,0V59.4z M147.8,65.8
		c-0.9,0-1.6-0.6-1.8-1.4c-0.4,0.9-1.4,1.5-2.4,1.4c-1.5,0-2.5-1.2-2.5-3.2V62c0-2.4,1.8-3.5,4.4-4.4v-2.1c0-0.7-0.3-1-0.9-1
		c-0.6,0-0.9,0.4-0.9,1.1v1.2h-2.2v-1c-0.2-1.6,1-3.1,2.7-3.3c0.2,0,0.4,0,0.5,0c2.2,0,3.1,1.5,3.1,3.5v7.4c0,0.4,0.2,0.6,0.5,0.7
		v1.8L147.8,65.8L147.8,65.8z"/>
	<path class="st0" d="M149.5,50.9v-2.5h2.3v2.5H149.5z M149.5,65.6V52.5h2.4v13.1H149.5z"/>
	<path class="st0" d="M153.5,50.9v-2.5h2.3v2.5H153.5z M153.5,65.6V52.5h2.4v13.1H153.5z"/>
	<path class="st1" d="M162.9,58.8c0-0.8-0.4-1.3-1.1-1.3h-1.4V63h1.5c0.7,0,1-0.4,1-1.2V58.8z M162.9,51.2c0-0.8-0.3-1.2-1-1.2h-1.5
		v5.4h1.3c0.7,0,1.1-0.4,1.1-1.2L162.9,51.2L162.9,51.2z M162.2,65.6h-4.7V47.5h4.7c1.7-0.2,3.3,1.1,3.5,2.8c0,0.2,0,0.5,0,0.7v2.6
		c0.2,1.2-0.6,2.4-1.8,2.7c1.2,0.3,2,1.5,1.8,2.7v3c0.2,1.7-1,3.3-2.8,3.5C162.7,65.6,162.4,65.6,162.2,65.6L162.2,65.6z"/>
	<path class="st1" d="M171.9,65.6l-0.1-1.6c-0.3,1-1.2,1.8-2.3,1.8c-1.5,0-2.3-1.1-2.3-2.9V52.6h2.4v10c-0.1,0.6,0.3,1.1,0.9,1.1
		c0,0,0,0,0.1,0c0.7,0,1.1-0.8,1.1-1.5v-9.7h2.4v13.1H171.9z"/>
	<path class="st1" d="M178.4,65.8c-1.7,0.1-3.2-1.2-3.3-3c0-0.2,0-0.4,0-0.6v-0.8h2.2v1c0,0.9,0.4,1.3,1.1,1.3
		c0.6,0.1,1.1-0.3,1.1-0.9c0-0.1,0-0.2,0-0.3c0-1.2-0.6-1.7-2-3c-1.3-0.9-2.1-2.3-2.2-3.9c-0.2-1.7,1.1-3.2,2.8-3.4
		c0.1,0,0.2,0,0.3,0c1.7-0.1,3.1,1.2,3.2,2.9c0,0.2,0,0.4,0,0.5v0.8h-2v-1c0.1-0.5-0.3-1-0.9-1.1c-0.1,0-0.2,0-0.3,0
		c-0.5,0-1,0.3-1,0.9c0,0.1,0,0.1,0,0.2c0,0.9,0.5,1.5,1.7,2.6c1.5,0.9,2.4,2.5,2.5,4.2c0.2,1.8-1.1,3.3-2.9,3.5
		C178.7,65.8,178.5,65.8,178.4,65.8z"/>
	<path class="st1" d="M182.8,50.9v-2.5h2.4v2.5H182.8z M182.8,65.6V52.5h2.4v13.1H182.8z"/>
	<path class="st1" d="M191.2,65.6v-9.9c0-0.7-0.4-1.2-0.9-1.2s-1.1,0.8-1.1,1.5v9.6h-2.4V52.5h2.2l0.2,1.7c0.2-1,1.1-1.8,2.2-1.9
		c1.5,0,2.3,1.1,2.3,2.9v10.4H191.2z"/>
	<path class="st1" d="M199.4,55.7c0-0.7-0.3-1.2-1-1.2s-1,0.5-1,1.2V58h2V55.7z M198.4,65.8c-1.9,0-3.4-1.5-3.4-3.4
		c0-0.1,0-0.2,0-0.3v-6c-0.2-1.9,1.2-3.5,3.1-3.7c0.1,0,0.2,0,0.3,0c1.8,0,3.3,1.5,3.2,3.3c0,0.1,0,0.3,0,0.4v3.3h-4.4v3.1
		c0,0.7,0.4,1.2,1,1.2c0.7,0,1-0.5,1-1.2v-1.6h2.2v1.3c0.2,1.8-1,3.4-2.8,3.6C198.6,65.8,198.5,65.8,198.4,65.8z"/>
	<path class="st1" d="M205.9,65.8c-1.7,0.1-3.2-1.2-3.3-3c0-0.2,0-0.4,0-0.6v-0.8h2.2v1c0,0.9,0.4,1.3,1.1,1.3
		c0.6,0.1,1.1-0.3,1.1-0.9c0-0.1,0-0.2,0-0.3c0-1.2-0.6-1.7-2-3c-1.3-0.9-2.1-2.3-2.2-3.9c-0.2-1.7,1.1-3.2,2.8-3.4
		c0.1,0,0.3,0,0.4,0c1.7,0,3,1.4,3,3c0,0.1,0,0.2,0,0.4v0.8h-2v-1c0.1-0.5-0.3-1-0.9-1.1c-0.1,0-0.2,0-0.2,0c-0.5,0-1,0.3-1,0.9
		c0,0.1,0,0.1,0,0.2c0,0.9,0.5,1.5,1.7,2.6c1.5,0.9,2.4,2.5,2.5,4.2c0.2,1.8-1.1,3.3-2.9,3.5C206.2,65.8,206.1,65.8,205.9,65.8z"/>
	<path class="st1" d="M213.2,65.8c-1.7,0.1-3.2-1.2-3.3-2.9c0-0.2,0-0.4,0-0.6v-0.8h2.2v1c0,0.9,0.4,1.3,1.1,1.3
		c0.6,0.1,1.1-0.3,1.1-0.9c0-0.1,0-0.2,0-0.3c0-1.2-0.6-1.7-2-3c-1.3-0.8-2.1-2.3-2.2-3.9c-0.2-1.7,1.1-3.2,2.8-3.4
		c0.1,0,0.2,0,0.2,0c1.7,0,3.1,1.3,3.1,3c0,0.2,0,0.3,0,0.5v0.8h-2v-1c0.1-0.5-0.3-1-0.9-1.1c-0.1,0-0.1,0-0.2,0c-0.5,0-1,0.3-1,0.9
		c0,0.1,0,0.1,0,0.2c0,0.9,0.5,1.5,1.7,2.6c1.5,0.9,2.4,2.5,2.5,4.2c0.2,1.7-1.1,3.3-2.8,3.5C213.5,65.8,213.4,65.8,213.2,65.8z"/>
	<g>
		<path class="st1" d="M129.3,135.9c0.3-0.7,1-1.5,2.2-2.3c1-0.7,1.6-1.2,1.9-1.5c0.4-0.5,0.7-1,0.7-1.6c0-0.5-0.1-0.8-0.4-1.2
			c-0.3-0.3-0.6-0.5-1.1-0.5c-0.7,0-1.1,0.2-1.3,0.7c-0.1,0.3-0.2,0.7-0.2,1.3h-2.1c0-0.9,0.2-1.7,0.5-2.3c0.6-1.1,1.6-1.6,3.1-1.6
			c1.2,0,2.1,0.3,2.8,1c0.7,0.6,1,1.5,1,2.5c0,0.8-0.2,1.5-0.7,2.2c-0.3,0.4-0.8,0.9-1.6,1.4l-0.9,0.6c-0.5,0.4-0.9,0.7-1.1,0.8
			c-0.2,0.2-0.4,0.4-0.5,0.6h4.8v1.9h-7.5C128.8,137.3,128.9,136.6,129.3,135.9z"/>
		<path class="st1" d="M144.7,128.5c0.6,1,0.8,2.4,0.8,4.2c0,1.8-0.3,3.2-0.8,4.2s-1.5,1.5-2.9,1.5s-2.4-0.5-2.9-1.5
			s-0.8-2.4-0.8-4.2c0-1.8,0.3-3.2,0.8-4.2c0.6-1,1.5-1.5,2.9-1.5S144.1,127.5,144.7,128.5z M140.5,135.6c0.2,0.7,0.6,1,1.3,1
			c0.6,0,1.1-0.3,1.3-1c0.2-0.7,0.3-1.6,0.3-2.9c0-1.3-0.1-2.3-0.3-2.9c-0.2-0.6-0.6-1-1.3-1c-0.6,0-1.1,0.3-1.3,1
			c-0.2,0.6-0.3,1.6-0.3,2.9C140.2,134,140.3,134.9,140.5,135.6z"/>
		<path class="st1" d="M147.2,130.5v-1.5c0.7,0,1.2-0.1,1.4-0.1c0.4-0.1,0.8-0.3,1.1-0.6c0.2-0.2,0.3-0.5,0.4-0.8
			c0.1-0.2,0.1-0.3,0.1-0.4h1.8v10.9h-2.2v-7.6H147.2z"/>
		<path class="st1" d="M154.2,130.5v-1.5c0.7,0,1.2-0.1,1.4-0.1c0.4-0.1,0.8-0.3,1.1-0.6c0.2-0.2,0.3-0.5,0.4-0.8
			c0.1-0.2,0.1-0.3,0.1-0.4h1.8v10.9h-2.2v-7.6H154.2z"/>
		<path class="st1" d="M162,132.7h4.2v2H162V132.7z"/>
		<path class="st1" d="M169.4,135.9c0.3-0.7,1-1.5,2.2-2.3c1-0.7,1.6-1.2,1.9-1.5c0.4-0.5,0.7-1,0.7-1.6c0-0.5-0.1-0.8-0.4-1.2
			c-0.3-0.3-0.6-0.5-1.1-0.5c-0.7,0-1.1,0.2-1.3,0.7c-0.1,0.3-0.2,0.7-0.2,1.3H169c0-0.9,0.2-1.7,0.5-2.3c0.6-1.1,1.6-1.6,3.1-1.6
			c1.2,0,2.1,0.3,2.8,1c0.7,0.6,1,1.5,1,2.5c0,0.8-0.2,1.5-0.7,2.2c-0.3,0.4-0.8,0.9-1.6,1.4l-0.9,0.6c-0.5,0.4-0.9,0.7-1.1,0.8
			c-0.2,0.2-0.4,0.4-0.5,0.6h4.8v1.9h-7.5C168.9,137.3,169.1,136.6,169.4,135.9z"/>
		<path class="st1" d="M184.8,128.5c0.6,1,0.8,2.4,0.8,4.2c0,1.8-0.3,3.2-0.8,4.2s-1.5,1.5-2.9,1.5c-1.4,0-2.4-0.5-2.9-1.5
			s-0.8-2.4-0.8-4.2c0-1.8,0.3-3.2,0.8-4.2c0.6-1,1.5-1.5,2.9-1.5C183.3,127.1,184.3,127.5,184.8,128.5z M180.6,135.6
			c0.2,0.7,0.6,1,1.3,1c0.6,0,1.1-0.3,1.3-1c0.2-0.7,0.3-1.6,0.3-2.9c0-1.3-0.1-2.3-0.3-2.9c-0.2-0.6-0.6-1-1.3-1
			c-0.6,0-1.1,0.3-1.3,1c-0.2,0.6-0.3,1.6-0.3,2.9C180.3,134,180.4,134.9,180.6,135.6z"/>
		<path class="st1" d="M203.5,128.5c0.6,1,0.8,2.4,0.8,4.2c0,1.8-0.3,3.2-0.8,4.2s-1.5,1.5-2.9,1.5c-1.4,0-2.4-0.5-2.9-1.5
			s-0.8-2.4-0.8-4.2c0-1.8,0.3-3.2,0.8-4.2c0.6-1,1.5-1.5,2.9-1.5C202,127.1,203,127.5,203.5,128.5z M199.3,135.6
			c0.2,0.7,0.6,1,1.3,1c0.6,0,1.1-0.3,1.3-1c0.2-0.7,0.3-1.6,0.3-2.9c0-1.3-0.1-2.3-0.3-2.9c-0.2-0.6-0.6-1-1.3-1
			c-0.6,0-1.1,0.3-1.3,1c-0.2,0.6-0.3,1.6-0.3,2.9C199,134,199.1,134.9,199.3,135.6z"/>
		<path class="st1" d="M187.8,135.9c0.3-0.7,1-1.5,2.2-2.3c1-0.7,1.6-1.2,1.9-1.5c0.4-0.5,0.7-1,0.7-1.6c0-0.5-0.1-0.8-0.4-1.2
			c-0.3-0.3-0.6-0.5-1.1-0.5c-0.7,0-1.1,0.2-1.3,0.7c-0.1,0.3-0.2,0.7-0.2,1.3h-2.1c0-0.9,0.2-1.7,0.5-2.3c0.6-1.1,1.6-1.6,3.1-1.6
			c1.2,0,2.1,0.3,2.8,1c0.7,0.6,1,1.5,1,2.5c0,0.8-0.2,1.5-0.7,2.2c-0.3,0.4-0.8,0.9-1.6,1.4l-0.9,0.6c-0.5,0.4-0.9,0.7-1.1,0.8
			c-0.2,0.2-0.4,0.4-0.5,0.6h4.8v1.9h-7.5C187.4,137.3,187.5,136.6,187.8,135.9z"/>
	</g>
</g>
</svg>
