<?xml version="1.0" encoding="utf-8"?>
<!-- Generator: Adobe Illustrator 24.2.3, SVG Export Plug-In . SVG Version: 6.00 Build 0)  -->
<svg version="1.1" xmlns="http://www.w3.org/2000/svg" xmlns:xlink="http://www.w3.org/1999/xlink" x="0px" y="0px"
	 viewBox="0 0 333.1 185.5" style="enable-background:new 0 0 333.1 185.5;" xml:space="preserve">
<style type="text/css">
	.st0{fill:#80BC00;}
	.st1{fill:#FFFFFF;}
	.st2{fill:#EDEDED;}
	.st3{fill:#81BA3F;}
	.st4{opacity:0.1;fill:url(#SVGID_1_);}
	.st5{opacity:0.75;fill:url(#SVGID_2_);}
	.st6{opacity:0.75;fill:url(#SVGID_3_);}
	.st7{fill:#646469;}
	.st8{fill:none;stroke:#81BA3F;stroke-width:2.3;stroke-miterlimit:10;}
	.st9{fill:#808080;}
	.st10{fill:#636569;}
	.st11{fill:#FFFFFF;stroke:#65656A;stroke-width:1.5542;stroke-linejoin:round;stroke-miterlimit:10;}
	.st12{fill:#FFFFFF;stroke:#65656A;stroke-width:1.9187;stroke-linejoin:round;stroke-miterlimit:10;}
	.st13{fill:none;stroke:#65656A;stroke-width:1.3822;stroke-miterlimit:10;}
	.st14{fill:none;stroke:#80BC00;stroke-width:3;stroke-linejoin:round;stroke-miterlimit:10;}
	.st15{fill:#ECECEC;stroke:#65656A;stroke-width:3;stroke-linejoin:round;stroke-miterlimit:10;}
	.st16{fill:none;stroke:#65656A;stroke-width:3;stroke-linejoin:round;stroke-miterlimit:10;}
	.st17{fill:#96CEE2;}
	.st18{fill:#49B2CE;}
	.st19{fill:#006796;}
	.st20{fill:none;stroke:#006796;stroke-width:0.9411;stroke-miterlimit:10;}
	.st21{fill:#8D8E92;}
	.st22{fill:#65656A;}
	.st23{opacity:0.98;fill:#484849;}
	.st24{fill:#999999;}
	.st25{fill:none;stroke:#999999;stroke-miterlimit:10;}
	.st26{fill:#81BA41;}
	.st27{opacity:0.75;fill:url(#SVGID_4_);}
	.st28{opacity:0.98;}
	.st29{fill:#8BC53F;}
	.st30{fill:#848487;}
	.st31{opacity:0.98;fill:none;stroke:#484849;stroke-width:1.5066;stroke-miterlimit:10;}
	.st32{clip-path:url(#SVGID_6_);}
	.st33{fill:#111111;}
	.st34{fill:#00DB00;}
	.st35{fill:#8F8A87;}
	.st36{fill:#EF7E19;}
	.st37{fill:#F6B881;}
	.st38{fill:#CCCCCC;}
	.st39{fill:#6D6E71;}
	.st40{clip-path:url(#SVGID_8_);fill:url(#SVGID_9_);}
	.st41{clip-path:url(#SVGID_11_);fill:url(#SVGID_12_);}
	.st42{fill:#37444C;}
	.st43{fill:#00A7DA;}
	.st44{fill:#ABBF00;}
	.st45{fill:#FFD100;}
	.st46{fill:url(#SVGID_13_);}
	.st47{fill:#2EAAE2;}
	.st48{fill:#2ECB70;}
	.st49{fill:#FFC600;}
	.st50{fill:none;}
	.st51{fill:#313E48;}
	.st52{fill:#FF6C0E;}
	.st53{fill:#C75B12;}
	.st54{fill:#004A7C;}
	.st55{fill:#A9D15D;}
	.st56{clip-path:url(#SVGID_15_);fill:url(#SVGID_16_);}
	.st57{clip-path:url(#SVGID_18_);fill:url(#SVGID_19_);}
	.st58{fill:url(#SVGID_20_);}
	.st59{fill:#F63900;}
	.st60{opacity:0.75;clip-path:url(#SVGID_22_);}
	.st61{opacity:0.75;}
	.st62{clip-path:url(#SVGID_24_);}
	.st63{clip-path:url(#SVGID_26_);}
	.st64{fill:#2CA9E1;}
	.st65{fill:#085F93;}
	.st66{fill:#28AAE1;}
	.st67{fill:#88201B;}
	.st68{fill:#ADAFB0;}
	.st69{clip-path:url(#SVGID_28_);}
	.st70{fill:#76A2DB;}
	.st71{fill:#F2B334;}
	.st72{fill:#E23E2F;}
	.st73{fill:#003088;}
	.st74{clip-path:url(#SVGID_30_);}
	.st75{clip-path:url(#SVGID_34_);}
	.st76{clip-path:url(#SVGID_36_);}
	.st77{opacity:0.75;clip-path:url(#SVGID_40_);}
	.st78{clip-path:url(#SVGID_42_);}
	.st79{clip-path:url(#SVGID_44_);}
	.st80{opacity:0.75;clip-path:url(#SVGID_46_);}
	.st81{clip-path:url(#SVGID_48_);}
	.st82{clip-path:url(#SVGID_50_);}
	.st83{opacity:0.75;fill:url(#SVGID_51_);}
	.st84{fill:#464649;}
</style>
<g id="Layer_1">
</g>
<g id="Layer_2">
	<path class="st22" d="M243.9,88.7h-7.5l6,4.4l-2.3,7.1l6-4.4l6,4.4l-2.3-7.1l6-4.4h-7.5l-2.3-7.1L243.9,88.7L243.9,88.7z
		 M246.2,111.2c-9.2,0-15.1-5.4-15.1-19.6c0-13.8,6.3-19.6,15.1-19.6c9.5,0,15.1,5.5,15.1,19.6C261.3,105.1,255.4,111.2,246.2,111.2
		z"/>
	<path class="st22" d="M101.2,83c-0.9,0-2.3,0.2-3.3,0.2c-1,0-2.5-0.1-3.5-0.2l-0.3-3h-3.5v23.9l3.6,0.5c0.1,1,0.2,2,0.2,3
		c0,1.1,0,2.1-0.2,3.2H79c-0.1-1-0.2-2.1-0.2-3.1c0-1,0-2,0.2-3l3.6-0.5V80H79l-0.5,3.3c-2.2,0-4.5-0.2-6.7-0.6
		c0-1.9,0.4-6.5,0.7-9.3h28.7V83z"/>
	<path class="st22" d="M118,79.7c-5,0-7.4,2.9-7.4,12.3s2.5,12.4,7.5,12.4c5,0,7.4-3.1,7.4-12.4S122.7,79.7,118,79.7z M118,111.2
		c-9.8,0-16.1-5.9-16.1-19s6.5-19.2,16-19.2c9.9,0,16,5.9,16,19.1S127.4,111.2,118,111.2z"/>
	<path class="st22" d="M151.9,79.5c-1.4,0-2.5,0-3.5,0v12h3.1c3.7,0,5.7-1.9,5.7-6.4C157.2,80.6,155,79.5,151.9,79.5L151.9,79.5z
		 M152.1,98h-3.7v5.9l3.8,0.5c0.1,1,0.2,2,0.2,3c0,1,0,2.1-0.1,3.1h-15.6c-0.1-1-0.2-2.1-0.2-3.1c0-1,0-2,0.2-3l3.6-0.5V80.2
		l-3.6-0.6c-0.1-1-0.2-2-0.2-3c0-1,0.1-2.1,0.2-3.1c4.8-0.2,10.2-0.3,14.1-0.3c9.1,0,14.6,3.3,14.6,12C165.4,94.3,159,98.1,152.1,98
		L152.1,98z"/>
	<path class="st22" d="M197,110.1h-27.3l-0.5-8.7C183,93.9,186,90,186,85.3c0-3.7-1.8-5.5-4.8-5.5c-0.9,0-1.7,0.1-2.6,0.3l-0.6,3.7
		c-1.2,0.1-2.8,0.2-4,0.2c-1.2,0-3,0-4.2-0.2v-10c3.7-1.3,7.5-2,11.4-2.1c8.9,0,15,4.1,15,12.6c0,5.7-3,10.8-12.6,16.6v0.5h13.9
		C197.6,104.4,197.4,107.3,197,110.1L197,110.1z"/>
	<path class="st22" d="M212.3,119.8c-3.9,0-7.8-0.6-11.5-2v-10.1c1.2-0.1,3-0.2,4.2-0.2c1.3,0,2.6,0.1,3.9,0.2l0.6,3.7
		c0.9,0.2,1.9,0.3,2.8,0.3c4,0,6.2-2.2,6.2-6.4c0-4.6-3.2-6.5-10.9-6.5h-6.3c0.3-8.9,1.2-18.9,2.2-26.3h24.2c0,2.9-0.3,5.8-0.7,8.7
		h-15.5l-0.8,9.5h0.7c9.1,0,17.3,3.5,17.3,14.2C228.8,113.9,221.9,119.7,212.3,119.8L212.3,119.8z"/>
	<polygon class="st22" points="118.1,65.6 118.1,58 115.1,58 115.1,65.6 112.2,65.6 112.2,47.5 115.1,47.5 115.1,55.4 118.1,55.4 
		118.1,47.5 121,47.5 121,65.6 118.1,65.6 	"/>
	<path class="st22" d="M126.5,59.4c-1.3,0.5-2,1.2-2,2.2v1.2c0,0.6,0.3,1.1,0.9,1.1c0.6,0,1.2-0.6,1.1-1.2c0,0,0,0,0,0V59.4z
		 M128.8,65.8c-0.9,0-1.6-0.6-1.8-1.4c-0.4,0.9-1.3,1.4-2.3,1.4c-1.5,0-2.5-1.2-2.5-3.2V62c0-2.4,1.8-3.5,4.4-4.4v-2.1
		c0-0.7-0.3-1-0.9-1s-0.9,0.4-0.9,1.1v1.2h-2.2v-1c-0.2-1.6,1-3.1,2.7-3.3c0.2,0,0.3,0,0.5,0c2.2,0,3.1,1.5,3.1,3.5v7.4
		c0,0.4,0.2,0.6,0.5,0.7v1.8H128.8z"/>
	<polygon class="st22" points="138.5,65.6 136.4,65.6 135.6,60.4 135.2,57.8 134.9,60.4 134.1,65.6 132,65.6 129.8,52.6 132.1,52.6 
		132.9,58.9 133.2,61.7 133.5,58.9 134.4,52.6 136.3,52.6 137.1,58.9 137.4,61.7 137.7,58.9 138.6,52.6 140.8,52.6 138.5,65.6 	"/>
	<path class="st22" d="M145.5,59.4c-1.3,0.5-2,1.2-2,2.2v1.2c0,0.6,0.3,1.1,0.9,1.1c0.6,0,1.2-0.6,1.1-1.2c0,0,0,0,0,0V59.4z
		 M147.8,65.8c-0.9,0-1.6-0.6-1.8-1.4c-0.4,0.9-1.4,1.5-2.4,1.4c-1.5,0-2.5-1.2-2.5-3.2V62c0-2.4,1.8-3.5,4.4-4.4v-2.1
		c0-0.7-0.3-1-0.9-1c-0.6,0-0.9,0.4-0.9,1.1v1.2h-2.2v-1c-0.2-1.6,1-3.1,2.7-3.3c0.2,0,0.4,0,0.5,0c2.2,0,3.1,1.5,3.1,3.5v7.4
		c0,0.4,0.2,0.6,0.5,0.7v1.8H147.8z"/>
	<path class="st22" d="M149.5,50.9v-2.5h2.3v2.5H149.5z M149.5,65.6V52.5h2.4v13.1H149.5z"/>
	<path class="st22" d="M153.5,50.9v-2.5h2.3v2.5H153.5z M153.5,65.6V52.5h2.4v13.1H153.5z"/>
	<path class="st24" d="M162.9,58.8c0-0.8-0.4-1.3-1.1-1.3h-1.4v5.5h1.5c0.7,0,1-0.4,1-1.2V58.8z M162.9,51.2c0-0.8-0.3-1.2-1-1.2
		h-1.5v5.4h1.3c0.7,0,1.1-0.4,1.1-1.2V51.2z M162.2,65.6h-4.7V47.5h4.7c1.7-0.2,3.3,1.1,3.5,2.8c0,0.2,0,0.5,0,0.7v2.6
		c0.2,1.2-0.6,2.4-1.8,2.7c1.2,0.3,2,1.5,1.8,2.7v3c0.2,1.7-1,3.3-2.8,3.5C162.7,65.6,162.4,65.6,162.2,65.6L162.2,65.6z"/>
	<path class="st24" d="M171.9,65.6l-0.1-1.6c-0.3,1-1.2,1.8-2.3,1.8c-1.5,0-2.3-1.1-2.3-2.9V52.6h2.4v10c-0.1,0.6,0.3,1.1,0.9,1.1
		c0,0,0,0,0.1,0c0.7,0,1.1-0.8,1.1-1.5v-9.7h2.4v13.1L171.9,65.6z"/>
	<path class="st24" d="M178.4,65.8c-1.7,0.1-3.2-1.2-3.3-3c0-0.2,0-0.4,0-0.6v-0.8h2.2v1c0,0.9,0.4,1.3,1.1,1.3
		c0.6,0.1,1.1-0.3,1.1-0.9c0-0.1,0-0.2,0-0.3c0-1.2-0.6-1.7-2-3c-1.3-0.9-2.1-2.3-2.2-3.9c-0.2-1.7,1.1-3.2,2.8-3.4
		c0.1,0,0.2,0,0.3,0c1.7-0.1,3.1,1.2,3.2,2.9c0,0.2,0,0.4,0,0.5v0.8h-2v-1c0.1-0.5-0.3-1-0.9-1.1c-0.1,0-0.2,0-0.3,0
		c-0.5,0-1,0.3-1,0.9c0,0.1,0,0.1,0,0.2c0,0.9,0.5,1.5,1.7,2.6c1.5,0.9,2.4,2.5,2.5,4.2c0.2,1.8-1.1,3.3-2.9,3.5
		C178.7,65.8,178.5,65.8,178.4,65.8z"/>
	<path class="st24" d="M182.8,50.9v-2.5h2.4v2.5H182.8z M182.8,65.6V52.5h2.4v13.1H182.8z"/>
	<path class="st24" d="M191.2,65.6v-9.9c0-0.7-0.4-1.2-0.9-1.2c-0.5,0-1.1,0.8-1.1,1.5v9.6h-2.4V52.5h2.2l0.2,1.7
		c0.2-1,1.1-1.8,2.2-1.9c1.5,0,2.3,1.1,2.3,2.9v10.4H191.2z"/>
	<path class="st24" d="M199.4,55.7c0-0.7-0.3-1.2-1-1.2s-1,0.5-1,1.2V58h2V55.7z M198.4,65.8c-1.9,0-3.4-1.5-3.4-3.4
		c0-0.1,0-0.2,0-0.3v-6c-0.2-1.9,1.2-3.5,3.1-3.7c0.1,0,0.2,0,0.3,0c1.8,0,3.3,1.5,3.2,3.3c0,0.1,0,0.3,0,0.4v3.3h-4.4v3.1
		c0,0.7,0.4,1.2,1,1.2c0.7,0,1-0.5,1-1.2v-1.6h2.2v1.3c0.2,1.8-1,3.4-2.8,3.6C198.6,65.8,198.5,65.8,198.4,65.8z"/>
	<path class="st24" d="M205.9,65.8c-1.7,0.1-3.2-1.2-3.3-3c0-0.2,0-0.4,0-0.6v-0.8h2.2v1c0,0.9,0.4,1.3,1.1,1.3
		c0.6,0.1,1.1-0.3,1.1-0.9c0-0.1,0-0.2,0-0.3c0-1.2-0.6-1.7-2-3c-1.3-0.9-2.1-2.3-2.2-3.9c-0.2-1.7,1.1-3.2,2.8-3.4
		c0.1,0,0.3,0,0.4,0c1.7,0,3,1.4,3,3c0,0.1,0,0.2,0,0.4v0.8h-2v-1c0.1-0.5-0.3-1-0.9-1.1c-0.1,0-0.2,0-0.2,0c-0.5,0-1,0.3-1,0.9
		c0,0.1,0,0.1,0,0.2c0,0.9,0.5,1.5,1.7,2.6c1.5,0.9,2.4,2.5,2.5,4.2c0.2,1.8-1.1,3.3-2.9,3.5C206.2,65.8,206.1,65.8,205.9,65.8z"/>
	<path class="st24" d="M213.2,65.8c-1.7,0.1-3.2-1.2-3.3-2.9c0-0.2,0-0.4,0-0.6v-0.8h2.2v1c0,0.9,0.4,1.3,1.1,1.3
		c0.6,0.1,1.1-0.3,1.1-0.9c0-0.1,0-0.2,0-0.3c0-1.2-0.6-1.7-2-3c-1.3-0.8-2.1-2.3-2.2-3.9c-0.2-1.7,1.1-3.2,2.8-3.4
		c0.1,0,0.2,0,0.2,0c1.7,0,3.1,1.3,3.1,3c0,0.2,0,0.3,0,0.5v0.8h-2v-1c0.1-0.5-0.3-1-0.9-1.1c-0.1,0-0.1,0-0.2,0c-0.5,0-1,0.3-1,0.9
		c0,0.1,0,0.1,0,0.2c0,0.9,0.5,1.5,1.7,2.6c1.5,0.9,2.4,2.5,2.5,4.2c0.2,1.7-1.1,3.3-2.8,3.5C213.5,65.8,213.4,65.8,213.2,65.8z"/>
	<g>
		<path class="st24" d="M129.1,135.7c0.3-0.7,1-1.4,2.1-2.2c0.9-0.7,1.5-1.2,1.8-1.4c0.4-0.5,0.6-0.9,0.6-1.5c0-0.4-0.1-0.8-0.4-1.1
			c-0.2-0.3-0.6-0.4-1-0.4c-0.6,0-1,0.2-1.3,0.7c-0.1,0.3-0.2,0.7-0.2,1.3h-2c0-0.9,0.2-1.6,0.5-2.1c0.5-1,1.5-1.6,2.9-1.6
			c1.1,0,2,0.3,2.6,0.9c0.6,0.6,1,1.4,1,2.4c0,0.8-0.2,1.4-0.7,2c-0.3,0.4-0.8,0.8-1.5,1.3l-0.8,0.6c-0.5,0.4-0.9,0.6-1,0.8
			c-0.2,0.2-0.3,0.4-0.5,0.6h4.5v1.8h-7.1C128.6,137,128.8,136.3,129.1,135.7z"/>
		<path class="st24" d="M143.7,128.7c0.5,0.9,0.8,2.2,0.8,4s-0.3,3-0.8,4c-0.5,0.9-1.5,1.4-2.8,1.4s-2.2-0.5-2.8-1.4
			c-0.5-0.9-0.8-2.2-0.8-4s0.3-3,0.8-4s1.5-1.4,2.8-1.4S143.2,127.8,143.7,128.7z M139.7,135.4c0.2,0.6,0.6,0.9,1.2,0.9
			s1-0.3,1.2-0.9c0.2-0.6,0.3-1.5,0.3-2.7c0-1.2-0.1-2.2-0.3-2.8c-0.2-0.6-0.6-0.9-1.2-0.9s-1,0.3-1.2,0.9c-0.2,0.6-0.3,1.5-0.3,2.8
			C139.4,133.9,139.5,134.8,139.7,135.4z"/>
		<path class="st24" d="M146.6,130.6v-1.4c0.6,0,1.1-0.1,1.3-0.1c0.4-0.1,0.7-0.3,1-0.5c0.2-0.2,0.3-0.4,0.4-0.7
			c0.1-0.2,0.1-0.3,0.1-0.4h1.7v10.4h-2.1v-7.2H146.6z"/>
		<path class="st24" d="M155.4,130.6v-1.4c0.6,0,1.1-0.1,1.3-0.1c0.4-0.1,0.7-0.3,1-0.5c0.2-0.2,0.3-0.4,0.4-0.7
			c0.1-0.2,0.1-0.3,0.1-0.4h1.7v10.4h-2.1v-7.2H155.4z"/>
		<path class="st24" d="M164.3,132.7h4v1.9h-4V132.7z"/>
		<path class="st24" d="M170.9,135.7c0.3-0.7,1-1.4,2.1-2.2c0.9-0.7,1.5-1.2,1.8-1.4c0.4-0.5,0.6-0.9,0.6-1.5c0-0.4-0.1-0.8-0.4-1.1
			c-0.2-0.3-0.6-0.4-1-0.4c-0.6,0-1,0.2-1.3,0.7c-0.1,0.3-0.2,0.7-0.2,1.3h-2c0-0.9,0.2-1.6,0.5-2.1c0.5-1,1.5-1.6,2.9-1.6
			c1.1,0,2,0.3,2.6,0.9c0.6,0.6,1,1.4,1,2.4c0,0.8-0.2,1.4-0.7,2c-0.3,0.4-0.8,0.8-1.5,1.3l-0.8,0.6c-0.5,0.4-0.9,0.6-1,0.8
			c-0.2,0.2-0.3,0.4-0.5,0.6h4.5v1.8h-7.1C170.5,137,170.6,136.3,170.9,135.7z"/>
		<path class="st24" d="M185.5,128.7c0.5,0.9,0.8,2.2,0.8,4s-0.3,3-0.8,4c-0.5,0.9-1.5,1.4-2.8,1.4s-2.2-0.5-2.8-1.4
			c-0.5-0.9-0.8-2.2-0.8-4s0.3-3,0.8-4c0.5-0.9,1.5-1.4,2.8-1.4S185,127.8,185.5,128.7z M181.6,135.4c0.2,0.6,0.6,0.9,1.2,0.9
			s1-0.3,1.2-0.9c0.2-0.6,0.3-1.5,0.3-2.7c0-1.2-0.1-2.2-0.3-2.8c-0.2-0.6-0.6-0.9-1.2-0.9s-1,0.3-1.2,0.9c-0.2,0.6-0.3,1.5-0.3,2.8
			C181.3,133.9,181.4,134.8,181.6,135.4z"/>
		<path class="st24" d="M188.4,135.7c0.3-0.7,1-1.4,2.1-2.2c0.9-0.7,1.5-1.2,1.8-1.4c0.4-0.5,0.6-0.9,0.6-1.5c0-0.4-0.1-0.8-0.4-1.1
			c-0.2-0.3-0.6-0.4-1-0.4c-0.6,0-1,0.2-1.3,0.7c-0.1,0.3-0.2,0.7-0.2,1.3h-2c0-0.9,0.2-1.6,0.5-2.1c0.5-1,1.5-1.6,2.9-1.6
			c1.1,0,2,0.3,2.6,0.9c0.6,0.6,1,1.4,1,2.4c0,0.8-0.2,1.4-0.7,2c-0.3,0.4-0.8,0.8-1.5,1.3l-0.8,0.6c-0.5,0.4-0.9,0.6-1,0.8
			c-0.2,0.2-0.3,0.4-0.5,0.6h4.5v1.8h-7.1C187.9,137,188.1,136.3,188.4,135.7z"/>
		<path class="st24" d="M203,128.7c0.5,0.9,0.8,2.2,0.8,4s-0.3,3-0.8,4c-0.5,0.9-1.5,1.4-2.8,1.4s-2.2-0.5-2.8-1.4
			c-0.5-0.9-0.8-2.2-0.8-4s0.3-3,0.8-4s1.5-1.4,2.8-1.4S202.5,127.8,203,128.7z M199,135.4c0.2,0.6,0.6,0.9,1.2,0.9s1-0.3,1.2-0.9
			c0.2-0.6,0.3-1.5,0.3-2.7c0-1.2-0.1-2.2-0.3-2.8c-0.2-0.6-0.6-0.9-1.2-0.9s-1,0.3-1.2,0.9c-0.2,0.6-0.3,1.5-0.3,2.8
			C198.7,133.9,198.8,134.8,199,135.4z"/>
	</g>
</g>
</svg>
