<?xml version="1.0" encoding="utf-8"?>
<!-- Generator: Adobe Illustrator 25.0.1, SVG Export Plug-In . SVG Version: 6.00 Build 0)  -->
<svg version="1.1" id="Layer_1" xmlns="http://www.w3.org/2000/svg" xmlns:xlink="http://www.w3.org/1999/xlink" x="0px" y="0px"
	 viewBox="0 0 333.1 185.5" style="enable-background:new 0 0 333.1 185.5;" xml:space="preserve">
<style type="text/css">
	.st0{fill:#65656A;}
	.st1{fill:#999999;}
</style>
<g id="Layer_1_1_">
</g>
<g>
	<path class="st0" d="M42,82c-0.8-0.1-1.7,0-2.5,0.3c-0.4,0.2-0.8,0.8-3.9,11.6c0,0.3-0.1,0.6,0.1,0.6c0.9,0.1,1.9,0.2,2.8,0.1
		c5.9,0,8-4.8,8-8.5c0.2-2.2-1.5-4.1-3.7-4.3l0,0C42.6,81.9,42.3,81.9,42,82 M38.1,95.9c-0.9-0.1-1.7-0.1-2.6,0
		C35.2,96,35,96.3,35,96.6c-3,10.6-3.4,12.7-2.9,13.3c0.5,0.6,1.3,0.8,3.8,0.8c4.9,0.2,9-3.7,9.2-8.6l0,0v-0.4
		C45,98.5,42.5,95.9,38.1,95.9 M41.9,95.1c-0.2,0-0.3,0.4,0,0.4c5.5,0.7,7.6,3.6,7.6,7c0,4.6-5.1,9.4-13.7,9.4
		c-1.2,0-3.1-0.2-5.3-0.2s-6,0-7.2,0.2c-0.2,0-0.3-0.1-0.3-0.3c0-0.2,0.1-0.3,0.3-0.3c1-0.1,2-0.3,3-0.5c0.4-0.2,0.9-1.3,4.7-14.3
		s3.9-14.2,3.5-14.4c-0.9-0.3-1.8-0.5-2.7-0.6c-0.3,0-0.2-0.6,0-0.6c1.2,0.1,4.6,0.2,7,0.2s3-0.2,4.2-0.2c5.1,0,7.9,2.5,7.9,6
		S47.5,93.9,41.9,95.1"/>
	<path class="st0" d="M61.7,93.7c-1.8,0-3.8,2.8-5.5,7.9c5.3-0.7,6.7-4,6.7-6.3C63,94.3,62.6,93.7,61.7,93.7 M56,102.2
		c-0.5,1.4-0.8,2.9-0.9,4.4c0,1.9,1,3.2,2.6,3.2c2.3-0.3,4.5-1.5,6-3.3c0.1-0.1,0.2-0.1,0.2,0s0,0.1,0,0.2c-1.5,2.8-4.9,5.4-7.7,5.4
		c-2.5,0.2-4.8-1.6-5-4.2l0,0c0-0.3,0-0.7,0-1c0-5.3,5.1-14.2,10.8-14.2c1.9-0.2,3.6,1.1,3.8,3l0,0c0,0,0,0.1,0,0.2
		c0,3.4-4.7,6.1-10.1,6.1"/>
	<path class="st0" d="M77.1,97.6c-1.9,0-1.6-3.5-3.9-3.5c-1.2,0.2-2.2,1.3-2.1,2.5c0,2.4,4.7,6.5,4.7,9.8c-0.1,3.3-2.9,5.9-6.2,5.8
		h-0.4c-3.1,0-4.8-2.1-4.8-3.4c0-1,0.8-1.8,1.8-1.8c2.2,0,1.9,4.2,4.5,4.2c1.4,0,2.3-1.5,2.3-3.1c0-2.9-4.5-5.8-4.5-9.6
		c0.2-3.3,3-5.8,6.3-5.7c2-0.2,3.7,1.1,4.1,3C78.8,96.8,78,97.5,77.1,97.6"/>
	<path class="st0" d="M91.7,95.2c-1.5,0-1.6-0.1-4.3-0.1c-1.5,4-3.4,8.9-4.5,11.9c-0.6,1.9-0.2,2.5,0.4,2.5c1.6,0,4.9-4,5.3-4
		s0.2,0,0.1,0.2c-1.3,2.3-5.1,6.5-8,6.5c-1.4,0-2.7-1.4-1.5-4.5c1.6-4.1,3.2-8.7,4.6-12.7c-1.2,0-2.4,0-3.5,0.1
		c-0.4,0-0.4-1.3,0-1.2c1.3,0,2,0.1,3.7,0.1c0.5-1.5,1-2.9,1.3-3.8c0-0.2,0.5-0.2,0.7-0.2c0.7,0,3.2,0.2,3,0.7
		c-0.4,0.9-0.8,2.1-1.3,3.4c1.3,0,2.7,0,4-0.1C92,94,92,95.3,91.7,95.2"/>
	<path class="st0" d="M112.6,82c-0.8-0.1-1.5,0.1-2.2,0.4c-0.4,0.2-1.6,3.7-4.7,14.5c0,0.3-0.1,0.5,0.1,0.6c0.8,0.2,1.6,0.2,2.3,0.2
		c5.4-0.3,9.7-4.6,9.8-10c0.3-2.8-1.7-5.3-4.5-5.7C113.2,82,112.9,82,112.6,82 M105.3,98.5c-3.2,11.3-3.2,12.1-2.9,12.2
		c0.3,0.2,2.3,0.3,3.3,0.6c0.4,0.1,0.2,0.6,0,0.6c-1.2-0.1-4-0.2-6.3-0.2c-1.8,0-3.5,0-5.3,0.2c-0.2,0-0.3-0.1-0.3-0.3
		c0-0.2,0.1-0.3,0.3-0.3c1-0.1,2-0.3,3-0.5c0.4-0.2,1-1.3,4.7-14.3s3.8-14.2,3.5-14.4c-0.9-0.3-1.8-0.5-2.7-0.6
		c-0.4,0-0.2-0.6,0-0.6c1.2,0.1,4.2,0.2,6.5,0.2s3.3-0.2,4.4-0.2c5.6,0,9,2.8,9,7.1c0,6.2-7.8,12-17.3,10.5"/>
	<path class="st0" d="M123.3,106.5c-0.9,2.5-0.5,2.9,0.3,2.9c1.9-1,3.6-2.3,5-3.9c0,0,0.3,0,0.3,0.1c-0.6,1.6-5,6.6-8,6.6
		c-2.1,0-2.4-2.5-1.4-4.9c2.6-6.9,6.1-16.4,8.9-24.4c0.7-2-0.2-2.9-3.3-2.9c-0.4,0-0.3-0.5,0-0.5c2.3-0.3,7.6-0.5,8-0.5
		s0.5,0.2,0.2,0.8C129.4,89.8,125.3,100.8,123.3,106.5"/>
	<path class="st0" d="M141.7,94.2c-3.7,0-9.1,9.5-9.1,13.4c0,1.4,0.6,2.1,1.4,2.1c1.3-0.3,2.5-1,3.2-2.2c2.7-3.5,4.7-7.6,5.9-11.8
		c0.1-0.7-0.4-1.4-1.2-1.5C141.8,94.2,141.8,94.2,141.7,94.2 M142.6,106.5c-0.9,2.3-0.6,2.9,0.1,2.9c1.2,0,3.5-3.1,3.9-3.1
		c0.1,0,0.1,0.1,0.1,0.1l0,0l0,0c-1.5,2.7-4.8,5.7-6.8,5.7c-0.6,0.1-1.2-0.4-1.3-1v-0.2c0.1-1.1,0.3-2.2,0.6-3.2l0.9-2.8
		c0,0-0.4-0.3-0.5-0.2c-2.7,4.6-5.3,7.4-7.7,7.4c-1.9,0-3.4-1.5-3.4-3.4l0,0v-0.2c0-6.4,7.7-15.1,12.7-15.1c0.8,0,1.5,0.2,2.2,0.6
		c0.2,0.2,0.3,0.2,0.4,0c0.5-0.7,1.2-1.5,1.5-2s2.4,0.1,2.3,0.4L142.6,106.5z"/>
	<path class="st0" d="M160.8,97.4c-2.1,0-1.8-3.1-3.7-3.1c-2.7,0-5.5,6-5.5,11.7c0,2.6,1.2,3.9,3,3.9s3.5-1.3,5.2-3.5
		c0-0.1,0.4,0,0.3,0.1c-1.1,3.1-3.9,5.3-7.1,5.7c-2.7,0-5.1-1.6-5.1-5.7c0-5.5,5.3-13.6,11.5-13.6c2.6,0,3.5,1.6,3.5,2.5
		c0.1,1-0.5,1.9-1.5,2l0,0C161.2,97.4,161,97.4,160.8,97.4"/>
	<path class="st0" d="M172.1,93.7c-1.8,0-3.8,2.8-5.5,7.9c5.3-0.7,6.8-4,6.8-6.3C173.3,94.3,173,93.7,172.1,93.7 M166.4,102.2
		c-0.5,1.4-0.8,2.9-0.9,4.4c0,1.9,1,3.2,2.6,3.2c2.3-0.3,4.5-1.5,6-3.3c0.1-0.1,0.3,0,0.2,0.2c-1.5,2.8-4.9,5.4-7.7,5.4
		c-2.5,0.2-4.7-1.8-4.9-4.3l0,0c0-0.3,0-0.6,0-0.8c0-5.3,5.1-14.2,10.8-14.2c1.9-0.2,3.7,1.2,3.9,3.2l0,0l0,0
		C176.4,99.5,171.7,102.1,166.4,102.2"/>
	<path class="st0" d="M187.5,97.6c-1.9,0-1.6-3.5-3.9-3.5c-1.3,0.2-2.2,1.3-2.2,2.5c0,2.4,4.7,6.5,4.7,9.8c-0.1,3.3-2.9,5.9-6.2,5.8
		h-0.4c-3.1,0-4.8-2.1-4.8-3.4c0-1,0.8-1.8,1.8-1.8c2.2,0,1.9,4.2,4.5,4.2c1.4,0,2.3-1.5,2.3-3.1c0-2.9-4.5-5.8-4.5-9.6
		c0.2-3.3,3-5.8,6.3-5.7c2-0.2,3.7,1.1,4.1,3C189.1,96.8,188.3,97.5,187.5,97.6"/>
	<path class="st0" d="M209.5,95.2c-1.5,0-1.6-0.1-4.3-0.1c-1.5,4-3.4,8.9-4.5,11.9c-0.7,1.9-0.2,2.5,0.4,2.5c1.6,0,4.9-4,5.3-4
		c0.4,0,0.2,0,0.1,0.2c-1.3,2.3-5.2,6.5-8,6.5c-1.4,0-2.7-1.4-1.5-4.5c1.6-4.1,3.2-8.7,4.6-12.7c-1.2,0-2.4,0-3.5,0.1
		c-0.4,0-0.4-1.3,0.1-1.2c1.3,0,2,0.1,3.7,0.1c0.5-1.5,1-2.9,1.3-3.8c0-0.2,0.5-0.2,0.7-0.2c0.7,0,3.2,0.2,3,0.6
		c-0.4,0.9-0.8,2.1-1.3,3.4c1.3,0,2.7,0,4-0.1C209.9,93.9,209.9,95.2,209.5,95.2"/>
	<path class="st0" d="M217.5,93.7c-3.1,0-7,10.1-7,14.8c0,1.9,0.7,2.9,2,2.9c3.1,0,7-10.1,7-14.8C219.5,94.7,218.8,93.7,217.5,93.7
		 M212.4,112.2c-2.8,0-5.1-1.8-5.1-6.1c0-5.3,4.4-13.2,10.5-13.2c2.8,0,5.1,1.8,5.1,6.1C222.8,104.4,218.4,112.2,212.4,112.2"/>
	<path class="st0" d="M252.3,82c-1.3,0-1.6,0-2.2,0.4c-0.8,0.5-1.1,1.2-1.2,5.5c0,1.5,0,2.7,0,4.4c4.3-5.6,5.9-8.2,5.9-9.2
		S254.1,81.9,252.3,82 M268.5,83.4c-1.8,1.8-10.4,12.6-22.6,29.1c-0.2,0.3-1.1,0-1.1-0.1c0.2-7.3,0.2-11.1,0.2-14.9
		c-3.2,4.1-7,9.1-11.4,15c-0.2,0.3-1.2,0-1.2-0.1c0.5-25.7,0.2-29.4-0.7-30.1c-0.9-0.3-1.8-0.5-2.7-0.7c-0.3,0-0.2-0.6,0-0.6
		c1.7,0.2,3.4,0.2,5.1,0.2c2.1,0.1,4.2,0,6.2-0.2c0.2,0,0.3,0.1,0.3,0.3c0,0.2-0.1,0.3-0.3,0.3c-0.8,0.1-1.5,0.2-2.3,0.5
		c-0.7,0.4-1.1,0.8-1.3,5.9c-0.2,6.2-0.4,12.7-0.4,18.7c0,0.1,0.2,0,0.3,0c2.8-3.5,5.5-7.3,8.3-10.8c0-11.2-0.2-13.1-0.9-13.6
		c-0.6-0.4-1.3-0.6-2-0.7c-0.4,0-0.2-0.6,0-0.6c1.2,0.1,4.3,0.2,10,0.2c4.4,0,8.5,0,9.7-0.2c0.2,0,0.4,0.5,0,0.6
		c-1.7,0-3.3,0.7-4.5,1.8c-3,3.3-5.7,6.8-8.3,10.4c-0.1,4.6-0.2,7.7-0.3,12.8c0,0.1,0.2,0,0.3,0C257,96,266.2,84,266.2,82.7
		c0-0.5-0.4-0.9-2.8-1.2c-0.3,0-0.2-0.6,0-0.6c1.6,0.2,3.2,0.2,4.8,0.2c1.5,0,3-0.1,4.4-0.2c0.3,0,0.4,0.5,0,0.6
		c-1.6,0.1-3,0.7-4.2,1.8"/>
	<path class="st0" d="M269.5,93.7c-3.2,0-7.1,10.1-7.1,14.8c0,1.9,0.7,2.9,2,2.9c3.2,0,7-10.1,7-14.8c0-1.9-0.7-2.9-2-2.9
		 M264.3,112.2c-2.8,0-5.1-1.8-5.1-6.1c0-5.3,4.4-13.2,10.4-13.2c2.8,0,5.1,1.8,5.1,6.1C274.7,104.4,270.3,112.2,264.3,112.2"/>
	<path class="st0" d="M289.9,98.2c-2,0-1.1-2.5-2.3-2.5c-1.2,0-3,2.3-8.9,16c-0.1,0.3-1.2,0.4-1.8,0.4s-1.8,0-1.6-0.4
		c2.7-7.3,4.5-13,4.5-14.6c0-0.9-0.2-1.3-0.7-1.3c-1.3,0-3.2,3.5-3.5,3.8c-0.4,0.2-0.3,0-0.3-0.1c1.4-3.4,4.2-6.5,6.3-6.5
		c1.3,0,1.8,1.2,1.8,2.5c-0.4,3.1-1.2,6.2-2.5,9.1c0,0.2,0.4,0.2,0.4,0.2c3.4-8.2,5.8-11.9,8.6-11.9c1.2,0,2.3,0.9,2.3,2.1l0,0
		c0,0.1,0,0.2,0,0.3C292.2,96.8,291.2,98.2,289.9,98.2"/>
	<path class="st0" d="M305.2,95.4c-2.4,0-8.4,4.3-11,8c4.3-0.8,12.1-5,12.1-6.9c0.1-0.5-0.3-1-0.9-1.1l0,0
		C305.4,95.4,305.3,95.4,305.2,95.4 M308.3,114c1.1,0.1,1.8,1,1.8,2.1c0,1.5-1.2,2.8-2.7,2.8l0,0h-0.3c-4.5,0-7.1-3.5-9.6-9.4
		c-1.3-3.3-1.9-4.1-3.1-4.8c-0.3-0.1-0.5-0.1-0.7,0c-0.8,1.8-1.8,4.9-2.5,6.7c-0.1,0.3-0.9,0.4-1.8,0.4s-1.8-0.2-1.8-0.4
		c4.1-10.7,7.7-20.5,10.5-28.6c0.6-1.9-0.2-2.9-3.3-2.9c-0.1,0-0.2-0.2-0.2-0.3c0-0.1,0.1-0.2,0.2-0.2c2.3-0.3,7.7-0.5,8-0.5
		c0.4,0,0.5,0.2,0.2,0.8c-4,10.1-6.5,16.5-7.9,20.3c0,0.2,0.4,0.2,0.4,0.2c2.9-4.8,5.9-6.8,8.5-6.8c2,0,3.5,1.6,3.5,3.5
		c0,0.1,0,0.2,0,0.3c0,3.8-5.4,7.1-13.4,6.6c3.2,0.7,5.9,3,7.1,6.1c2.3,5.3,4.1,8,6.9,8c-0.8-0.5-1.3-1.4-1.4-2.3s0.6-1.7,1.5-1.8
		l0,0l0,0"/>
	<g>
		<polygon class="st0" points="119,65.8 119,58 115.9,58 115.9,65.8 113,65.8 113,47.2 115.9,47.2 115.9,55.3 119,55.3 119,47.2 
			122,47.2 122,65.8 		"/>
		<path class="st0" d="M127.7,59.4c-1.4,0.5-2.1,1.3-2.1,2.2v1.2c0,0.6,0.3,1.2,0.9,1.2c0.7,0,1.2-0.6,1.2-1.2l0,0V59.4z M130,66
			c-0.9,0-1.7-0.6-1.8-1.5c-0.4,0.9-1.4,1.5-2.4,1.5c-1.6,0-2.6-1.2-2.6-3.3v-0.6c0-2.5,1.9-3.6,4.5-4.5v-2.2c0-0.7-0.3-1.1-0.9-1.1
			s-0.9,0.4-0.9,1.1v1.2h-2.2v-1.1c-0.2-1.7,1-3.2,2.7-3.4c0.2,0,0.3,0,0.5,0c2.2,0,3.2,1.5,3.2,3.6v7.6c0,0.4,0.2,0.6,0.6,0.7v2
			H130z"/>
		<polygon class="st0" points="139.9,65.8 137.8,65.8 137,60.5 136.6,57.7 136.3,60.5 135.4,65.8 133.3,65.8 131,52.4 133.4,52.4 
			134.2,58.9 134.5,61.8 134.8,58.9 135.7,52.4 137.7,52.4 138.5,58.9 138.9,61.8 139.2,58.9 140,52.4 142.3,52.4 		"/>
		<path class="st0" d="M147.1,59.4c-1.4,0.5-2.1,1.3-2.1,2.2v1.2c0,0.6,0.3,1.2,0.9,1.2c0.7,0,1.2-0.6,1.2-1.2l0,0L147.1,59.4
			L147.1,59.4z M149.5,66c-0.9,0-1.7-0.6-1.8-1.5c-0.5,0.9-1.4,1.5-2.5,1.5c-1.6,0-2.6-1.2-2.6-3.3v-0.6c0-2.5,1.9-3.6,4.5-4.5v-2.2
			c0-0.7-0.3-1.1-0.9-1.1c-0.6,0-0.9,0.4-0.9,1.1v1.2H143v-1.1c-0.2-1.7,1-3.2,2.7-3.4c0.2,0,0.4,0,0.5,0c2.2,0,3.2,1.5,3.2,3.6v7.6
			c0,0.4,0.2,0.6,0.6,0.7v2H149.5z"/>
		<path class="st0" d="M151.2,50.7v-2.6h2.4v2.6H151.2z M151.2,65.8V52.4h2.5v13.4H151.2z"/>
		<path class="st0" d="M155.4,50.7v-2.6h2.4v2.6H155.4z M155.4,65.8V52.4h2.5v13.4H155.4z"/>
	</g>
	<g>
		<path class="st1" d="M165,58.9c0-0.9-0.4-1.3-1.1-1.3h-1.4v5.7h1.6c0.7,0,1-0.4,1-1.2v-3.2H165z M165,51c0-0.8-0.3-1.2-1-1.2h-1.5
			v5.5h1.4c0.7,0,1.1-0.4,1.1-1.3V51z M164.3,65.8h-4.9V47.2h4.8c1.8-0.2,3.4,1.1,3.6,2.9c0,0.2,0,0.5,0,0.7v2.7
			c0.2,1.3-0.6,2.5-1.8,2.8c1.2,0.3,2,1.5,1.9,2.8v3.1c0.2,1.8-1.1,3.4-2.8,3.6C164.8,65.8,164.6,65.8,164.3,65.8L164.3,65.8z"/>
		<path class="st1" d="M174.3,65.8l-0.1-1.6c-0.3,1.1-1.3,1.8-2.4,1.8c-1.5,0-2.4-1.2-2.4-2.9V52.4h2.5v10.3
			c-0.1,0.6,0.4,1.1,0.9,1.2c0,0,0,0,0.1,0c0.7,0,1.1-0.9,1.1-1.5v-10h2.5v13.4H174.3z"/>
		<path class="st1" d="M181,66c-1.8,0.1-3.3-1.2-3.4-3c0-0.2,0-0.4,0-0.6v-0.8h2.2v1c0,0.9,0.4,1.3,1.2,1.3c0.6,0.1,1.1-0.3,1.2-0.9
			c0-0.1,0-0.2,0-0.3c0-1.2-0.6-1.7-2.1-3c-1.4-0.9-2.2-2.4-2.2-4c-0.2-1.8,1.1-3.3,2.9-3.5c0.1,0,0.2,0,0.3,0
			c1.7-0.1,3.2,1.2,3.3,3c0,0.2,0,0.4,0,0.5v0.8h-2.1v-1c0.1-0.6-0.3-1.1-0.9-1.1c-0.1,0-0.2,0-0.3,0c-0.5,0-1,0.4-1,0.9
			c0,0.1,0,0.1,0,0.2c0,1,0.5,1.6,1.8,2.6c1.5,0.9,2.5,2.5,2.6,4.3c0.2,1.8-1.2,3.4-3,3.6C181.3,66,181.1,66,181,66z"/>
		<path class="st1" d="M185.5,50.7v-2.6h2.5v2.6H185.5z M185.5,65.8V52.4h2.5v13.4H185.5z"/>
		<path class="st1" d="M194.2,65.8V55.6c0-0.7-0.4-1.2-0.9-1.2s-1.1,0.9-1.1,1.5v9.9h-2.5V52.4h2.2l0.2,1.7c0.2-1.1,1.1-1.8,2.2-1.9
			c1.5,0,2.4,1.2,2.4,2.9v10.7H194.2z"/>
		<path class="st1" d="M202.6,55.6c0-0.7-0.3-1.3-1-1.3s-1.1,0.5-1.1,1.3V58h2.1V55.6z M201.6,66c-1.9,0-3.5-1.5-3.5-3.5
			c0-0.1,0-0.2,0-0.4V56c-0.2-1.9,1.2-3.6,3.2-3.8c0.1,0,0.2,0,0.3,0c1.9,0,3.4,1.6,3.3,3.4c0,0.1,0,0.3,0,0.4v3.4h-4.5v3.2
			c0,0.7,0.4,1.2,1.1,1.2s1.1-0.5,1.1-1.2V61h2.2v1.3c0.2,1.8-1.1,3.5-2.9,3.7C201.8,66,201.7,66,201.6,66z"/>
		<path class="st1" d="M209.3,66c-1.8,0.1-3.3-1.2-3.4-3c0-0.2,0-0.4,0-0.6v-0.8h2.2v1c0,0.9,0.4,1.3,1.2,1.3
			c0.6,0.1,1.1-0.3,1.2-0.9c0-0.1,0-0.2,0-0.3c0-1.2-0.6-1.7-2.1-3c-1.4-0.9-2.2-2.4-2.2-4c-0.2-1.8,1.1-3.3,2.9-3.5
			c0.1,0,0.3,0,0.4,0c1.7,0,3.1,1.4,3.1,3.1c0,0.1,0,0.3,0,0.4v0.8h-2.1v-1c0.1-0.6-0.3-1.1-0.9-1.1c-0.1,0-0.2,0-0.2,0
			c-0.5,0-1,0.4-1,0.9c0,0.1,0,0.1,0,0.2c0,1,0.5,1.6,1.8,2.6c1.5,0.9,2.5,2.5,2.6,4.3c0.2,1.8-1.2,3.4-3,3.6
			C209.6,66,209.4,66,209.3,66z"/>
		<path class="st1" d="M216.8,66c-1.8,0.1-3.3-1.2-3.4-3c0-0.2,0-0.4,0-0.6v-0.8h2.2v1c0,0.9,0.4,1.3,1.2,1.3
			c0.6,0.1,1.1-0.3,1.2-0.9c0-0.1,0-0.2,0-0.3c0-1.2-0.6-1.7-2.1-3c-1.4-0.9-2.2-2.4-2.2-4c-0.2-1.8,1.1-3.3,2.9-3.5
			c0.1,0,0.2,0,0.2,0c1.7,0,3.1,1.3,3.2,3c0,0.2,0,0.3,0,0.5v0.8h-2.1v-1c0.1-0.6-0.3-1.1-0.9-1.1c-0.1,0-0.1,0-0.2,0
			c-0.5,0-1,0.4-1,0.9c0,0.1,0,0.1,0,0.2c0,1,0.5,1.6,1.8,2.6c1.5,0.9,2.5,2.5,2.6,4.3c0.2,1.8-1.1,3.4-2.9,3.6
			C217.1,66,216.9,66,216.8,66z"/>
	</g>
	<g>
		<path class="st1" d="M130.6,135.9c0.3-0.7,1-1.5,2.2-2.3c1-0.7,1.6-1.2,1.9-1.5c0.5-0.5,0.7-1,0.7-1.6c0-0.5-0.1-0.9-0.4-1.2
			c-0.3-0.3-0.6-0.5-1.1-0.5c-0.7,0-1.1,0.2-1.3,0.7c-0.1,0.3-0.2,0.7-0.2,1.4h-2.1c0-0.9,0.2-1.7,0.5-2.3c0.6-1.1,1.6-1.7,3.1-1.7
			c1.2,0,2.1,0.3,2.8,1c0.7,0.6,1,1.5,1,2.6c0,0.8-0.2,1.5-0.7,2.2c-0.3,0.4-0.8,0.9-1.6,1.4l-0.9,0.6c-0.5,0.4-0.9,0.7-1.1,0.8
			c-0.2,0.2-0.4,0.4-0.5,0.6h4.8v1.9h-7.6C130.1,137.3,130.3,136.6,130.6,135.9z"/>
		<path class="st1" d="M146.1,128.5c0.6,1,0.8,2.4,0.8,4.2s-0.3,3.2-0.8,4.2c-0.6,1-1.6,1.5-3,1.5s-2.4-0.5-3-1.5s-0.8-2.4-0.8-4.2
			s0.3-3.2,0.8-4.2c0.6-1,1.6-1.5,3-1.5C144.6,127,145.6,127.5,146.1,128.5z M141.9,135.6c0.2,0.7,0.6,1,1.3,1c0.6,0,1.1-0.3,1.3-1
			s0.3-1.6,0.3-2.9c0-1.3-0.1-2.3-0.3-3c-0.2-0.6-0.6-1-1.3-1c-0.6,0-1.1,0.3-1.3,1c-0.2,0.6-0.3,1.6-0.3,3
			C141.6,134,141.7,134.9,141.9,135.6z"/>
		<path class="st1" d="M148.7,130.5V129c0.7,0,1.2-0.1,1.4-0.1c0.4-0.1,0.8-0.3,1.1-0.6c0.2-0.2,0.3-0.5,0.4-0.8
			c0.1-0.2,0.1-0.3,0.1-0.4h1.8v11h-2.2v-7.6L148.7,130.5L148.7,130.5z"/>
		<path class="st1" d="M155.7,130.5V129c0.7,0,1.2-0.1,1.4-0.1c0.4-0.1,0.8-0.3,1.1-0.6c0.2-0.2,0.3-0.5,0.4-0.8
			c0.1-0.2,0.1-0.3,0.1-0.4h1.8v11h-2.2v-7.6L155.7,130.5L155.7,130.5z"/>
		<path class="st1" d="M163.6,132.7h4.2v2.1h-4.2V132.7z"/>
		<path class="st1" d="M171,135.9c0.3-0.7,1-1.5,2.2-2.3c1-0.7,1.6-1.2,1.9-1.5c0.5-0.5,0.7-1,0.7-1.6c0-0.5-0.1-0.9-0.4-1.2
			c-0.3-0.3-0.6-0.5-1.1-0.5c-0.7,0-1.1,0.2-1.3,0.7c-0.1,0.3-0.2,0.7-0.2,1.4h-2.1c0-0.9,0.2-1.7,0.5-2.3c0.6-1.1,1.6-1.7,3.1-1.7
			c1.2,0,2.1,0.3,2.8,1c0.7,0.6,1,1.5,1,2.6c0,0.8-0.2,1.5-0.7,2.2c-0.3,0.4-0.8,0.9-1.6,1.4l-0.9,0.6c-0.5,0.4-0.9,0.7-1.1,0.8
			c-0.2,0.2-0.4,0.4-0.5,0.6h4.8v1.9h-7.6C170.6,137.3,170.7,136.6,171,135.9z"/>
		<path class="st1" d="M186.6,128.5c0.6,1,0.8,2.4,0.8,4.2s-0.3,3.2-0.8,4.2c-0.6,1-1.6,1.5-3,1.5s-2.4-0.5-3-1.5s-0.8-2.4-0.8-4.2
			s0.3-3.2,0.8-4.2c0.6-1,1.6-1.5,3-1.5S186,127.5,186.6,128.5z M182.3,135.6c0.2,0.7,0.6,1,1.3,1c0.6,0,1.1-0.3,1.3-1
			s0.3-1.6,0.3-2.9c0-1.3-0.1-2.3-0.3-3c-0.2-0.6-0.6-1-1.3-1c-0.6,0-1.1,0.3-1.3,1c-0.2,0.6-0.3,1.6-0.3,3
			C182,134,182.1,134.9,182.3,135.6z"/>
		<path class="st1" d="M189.6,135.9c0.3-0.7,1-1.5,2.2-2.3c1-0.7,1.6-1.2,1.9-1.5c0.5-0.5,0.7-1,0.7-1.6c0-0.5-0.1-0.9-0.4-1.2
			c-0.3-0.3-0.6-0.5-1.1-0.5c-0.7,0-1.1,0.2-1.3,0.7c-0.1,0.3-0.2,0.7-0.2,1.4h-2.1c0-0.9,0.2-1.7,0.5-2.3c0.6-1.1,1.6-1.7,3.1-1.7
			c1.2,0,2.1,0.3,2.8,1c0.7,0.6,1,1.5,1,2.6c0,0.8-0.2,1.5-0.7,2.2c-0.3,0.4-0.8,0.9-1.6,1.4l-0.9,0.6c-0.5,0.4-0.9,0.7-1.1,0.8
			c-0.2,0.2-0.4,0.4-0.5,0.6h4.8v1.9h-7.6C189.1,137.3,189.3,136.6,189.6,135.9z"/>
		<path class="st1" d="M198.2,130.5V129c0.7,0,1.2-0.1,1.4-0.1c0.4-0.1,0.8-0.3,1.1-0.6c0.2-0.2,0.3-0.5,0.4-0.8
			c0.1-0.2,0.1-0.3,0.1-0.4h1.8v11h-2.2v-7.6L198.2,130.5L198.2,130.5z"/>
	</g>
</g>
</svg>
