<?xml version="1.0" encoding="utf-8"?>
<!-- Generator: Adobe Illustrator 24.2.3, SVG Export Plug-In . SVG Version: 6.00 Build 0)  -->
<svg version="1.1" xmlns="http://www.w3.org/2000/svg" xmlns:xlink="http://www.w3.org/1999/xlink" x="0px" y="0px"
	 viewBox="0 0 333.1 185.5" style="enable-background:new 0 0 333.1 185.5;" xml:space="preserve">
<style type="text/css">
	.st0{fill:#80BC00;}
	.st1{fill:#FFFFFF;}
	.st2{fill:#EDEDED;}
	.st3{fill:#81BA3F;}
	.st4{opacity:0.1;fill:url(#SVGID_1_);}
	.st5{opacity:0.75;fill:url(#SVGID_2_);}
	.st6{opacity:0.75;fill:url(#SVGID_3_);}
	.st7{fill:#646469;}
	.st8{fill:none;stroke:#81BA3F;stroke-width:2.3;stroke-miterlimit:10;}
	.st9{fill:#808080;}
	.st10{fill:#636569;}
	.st11{fill:#FFFFFF;stroke:#65656A;stroke-width:1.5542;stroke-linejoin:round;stroke-miterlimit:10;}
	.st12{fill:#FFFFFF;stroke:#65656A;stroke-width:1.9187;stroke-linejoin:round;stroke-miterlimit:10;}
	.st13{fill:none;stroke:#65656A;stroke-width:1.3822;stroke-miterlimit:10;}
	.st14{fill:none;stroke:#80BC00;stroke-width:3;stroke-linejoin:round;stroke-miterlimit:10;}
	.st15{fill:#ECECEC;stroke:#65656A;stroke-width:3;stroke-linejoin:round;stroke-miterlimit:10;}
	.st16{fill:none;stroke:#65656A;stroke-width:3;stroke-linejoin:round;stroke-miterlimit:10;}
	.st17{fill:#96CEE2;}
	.st18{fill:#49B2CE;}
	.st19{fill:#006796;}
	.st20{fill:none;stroke:#006796;stroke-width:0.9411;stroke-miterlimit:10;}
	.st21{fill:#8D8E92;}
	.st22{fill:#65656A;}
	.st23{opacity:0.98;fill:#484849;}
	.st24{fill:#999999;}
	.st25{fill:none;stroke:#999999;stroke-miterlimit:10;}
	.st26{fill:#81BA41;}
	.st27{opacity:0.75;fill:url(#SVGID_4_);}
	.st28{opacity:0.98;}
	.st29{fill:#8BC53F;}
	.st30{fill:#848487;}
	.st31{opacity:0.98;fill:none;stroke:#484849;stroke-width:1.5066;stroke-miterlimit:10;}
	.st32{clip-path:url(#SVGID_6_);}
	.st33{fill:#111111;}
	.st34{fill:#00DB00;}
	.st35{fill:#8F8A87;}
	.st36{fill:#EF7E19;}
	.st37{fill:#F6B881;}
	.st38{fill:#CCCCCC;}
	.st39{fill:#6D6E71;}
	.st40{clip-path:url(#SVGID_8_);fill:url(#SVGID_9_);}
	.st41{clip-path:url(#SVGID_11_);fill:url(#SVGID_12_);}
	.st42{fill:#37444C;}
	.st43{fill:#00A7DA;}
	.st44{fill:#ABBF00;}
	.st45{fill:#FFD100;}
	.st46{fill:url(#SVGID_13_);}
	.st47{fill:#2EAAE2;}
	.st48{fill:#2ECB70;}
	.st49{fill:#FFC600;}
	.st50{fill:none;}
	.st51{fill:#313E48;}
	.st52{fill:#FF6C0E;}
	.st53{fill:#C75B12;}
	.st54{fill:#004A7C;}
	.st55{fill:#A9D15D;}
	.st56{clip-path:url(#SVGID_15_);fill:url(#SVGID_16_);}
	.st57{clip-path:url(#SVGID_18_);fill:url(#SVGID_19_);}
	.st58{fill:url(#SVGID_20_);}
	.st59{fill:#F63900;}
	.st60{opacity:0.75;clip-path:url(#SVGID_22_);}
	.st61{opacity:0.75;}
	.st62{clip-path:url(#SVGID_24_);}
	.st63{clip-path:url(#SVGID_26_);}
	.st64{fill:#2CA9E1;}
	.st65{fill:#085F93;}
	.st66{fill:#28AAE1;}
	.st67{fill:#88201B;}
	.st68{fill:#ADAFB0;}
	.st69{clip-path:url(#SVGID_28_);}
	.st70{fill:#76A2DB;}
	.st71{fill:#F2B334;}
	.st72{fill:#E23E2F;}
	.st73{fill:#003088;}
	.st74{clip-path:url(#SVGID_30_);}
	.st75{clip-path:url(#SVGID_34_);}
	.st76{clip-path:url(#SVGID_36_);}
	.st77{opacity:0.75;clip-path:url(#SVGID_40_);}
	.st78{clip-path:url(#SVGID_42_);}
	.st79{clip-path:url(#SVGID_44_);}
	.st80{opacity:0.75;clip-path:url(#SVGID_46_);}
	.st81{clip-path:url(#SVGID_48_);}
	.st82{clip-path:url(#SVGID_50_);}
	.st83{opacity:0.75;fill:url(#SVGID_51_);}
	.st84{fill:#464649;}
</style>
<g id="Layer_1">
</g>
<g id="Layer_2">
	<g>
		<path class="st24" d="M88.5,123.1l0-3l-3.1,0c-2.7,0-3.3-0.2-3.3-1.3c0-0.7,0.5-1.7,1-3.2l1.8-5.2l14.7,0l1.7,4.6
			c0.3,0.9,1.3,2.8,1.3,3.8c0,0.9-0.7,1.3-3,1.3l-3.5,0l0,3l18.1,0l0-3l-2.2,0c-2,0-3.3-0.9-4-2.8L95.3,85l-4.7,0l-12.2,31.7
			c-0.9,2.2-1.7,3.4-4.2,3.4l-2.3,0l0,3L88.5,123.1z M98.2,107.5l-12.4,0L92,91.2L98.2,107.5z M108.7,99.1h0.7
			c1.9,0,2.7,0.6,3.3,1.9l9,22.4l3.2,0l6.5-16.6l6.7,16.6l3.3,0l8.6-21.6c0.6-1.5,1.7-2.7,3.5-2.7h0.9l0-2.7l-11.9,0l0,2.7h1.1
			c1.7,0,3.2,0.4,3.2,1.1c0,0.6-0.2,1.1-0.5,1.8l-5.8,15.6h-0.1l-5.6-15.4c-0.3-0.9-0.7-1.4-0.7-2.1c0-0.7,0.5-1,2.1-1l2.3,0l0-2.7
			l-13.4,0l0,2.7l1.5,0c1.6,0,2.7,1.4,3.5,3.2l-6.1,14.9h-0.1l-5.7-15.2c-0.3-0.7-0.5-1.2-0.5-1.8c0-0.8,0.5-1.1,1.8-1.1l2.1,0
			l0-2.7l-12.9,0L108.7,99.1z M173.5,113.7c0,3.9-4.5,7.5-8.3,7.5c-2.9,0-4.5-1.8-4.5-4.7c0-2,1.3-3.2,4.3-4.6c3.4-1.4,6-2,8.4-3.4
			L173.5,113.7z M178.4,104.8c0-7.4-4.3-9.3-10.8-9.3c-4.3,0-10.8,1.9-10.8,6.8c0,2.3,1,4,3,4c1.6,0,3.4-0.8,3.4-3
			c0-1.7-0.9-2.6-2.6-2.9c1.7-1.9,4.4-2.2,6.7-2.2c5,0,6.4,1.6,6.4,4.9c0,1.7-0.4,2.8-2.2,3.7c-5.8,2.7-16,2.6-16,10
			c0,5.1,3.8,7.1,8.4,7.1c4.1,0,7.3-1.4,10.1-4.5c0.5,2.7,2.2,4.4,5,4.4c4.3,0,6.4-2.2,6.4-8.3l0-1.7l-2.7,0l0,2.4
			c0,1.7-0.2,4.8-2.7,4.8c-1,0-1.5-1.3-1.5-3L178.4,104.8z M197,96.3l-10.8,0l0,2.7l3.9,0c1.9,0,2.3,0.9,2.3,2.6l0,16.1
			c0,1.8-0.4,2.6-2.3,2.6l-3.7,0l0,2.7l16.8,0l0-2.7l-3.1,0c-1.8,0-2.9-0.9-2.9-2.6l0-7.7c0-5.6,2.8-11.9,8.1-11.9
			c1.3,0,3,0.3,3.3,1.6c-2.1,0-3.4,0.9-3.4,3c0,1.7,1.7,2.6,3.2,2.6c2.3,0,3.2-1.7,3.2-3.8c0-3.9-2.6-6-6.4-6
			c-3.3,0-6.7,2.7-8.1,6.6H197L197,96.3z M235.6,123l10.3,0l0-2.7l-3.3,0c-1.3,0-2.1-0.7-2.1-2.1l0-33.1l-10.4,0l0,2.7l3,0
			c1.9,0,2.6,1.4,2.6,3.2l0,10h-0.1c-1.9-3.6-5.8-5.6-9.5-5.6c-8.6,0-12.3,7.2-12.3,14.2c0,7,3.8,14.2,12.3,14.2c5,0,7.4-2.2,9.5-6
			h0.1L235.6,123z M227.2,98.6c5.8,0,8.2,5.3,8.2,11c0,5.7-2.3,11-8.8,11c-5.2,0-7.5-4.5-7.5-11C219.1,103.9,221.4,98.6,227.2,98.6
			 M247.7,112.2l0,11.1l3,0l1.1-3c2.6,2.4,6.2,3.5,9.7,3.5c5.2,0,10.6-2.3,10.6-8.3c0-11.2-19.2-6.1-19.2-12.9
			c0-3.7,2.9-4.6,5.4-4.6c4.7,0,9,3.4,9.6,8.4l2.7,0l0-10.5l-2.6,0l-1,2.7c-2.4-2.1-5.6-3.2-8.8-3.2c-5,0-10.1,2.2-10.1,7.9
			c0,11.7,19.2,6,19.2,13.4c0,2.7-2.5,4.4-5.9,4.5c-5.4,0-9.8-3.5-10.6-8.9L247.7,112.2z"/>
		<path class="st22" d="M95.7,72.2c0-6.9,1.2-10.5,8.2-10.5l2.2,0l0,25.4c0,1.6-0.7,2.6-2.3,2.6l-4.4,0l0,2.6l18,0l0-2.6l-4.3,0
			c-1.6,0-2.3-1-2.3-2.6l0-25.4l1.9,0c7.3,0,8.6,3.1,8.6,10.5l2.6,0l0-13.1l-30.9,0l0,13.1L95.7,72.2z M138.2,68.1
			c-8.1,0-12.9,5.3-12.9,12.5c0,7.2,4.9,12.5,12.9,12.5c8.1,0,12.9-5.3,12.9-12.5C151.1,73.4,146.3,68.1,138.2,68.1 M138.2,70.5
			c6.2,0,8.2,4.7,8.2,10.1c0,5.4-1.9,10.1-8.2,10.1c-6.2,0-8.2-4.7-8.2-10.1C130,75.2,132,70.5,138.2,70.5 M161.4,68.9l-9.5,0l0,2.4
			l3.5,0c1.7,0,2,0.7,2,2.3l0,14.1c0,1.6-0.3,2.3-2,2.3l-3.3,0l0,2.4l14.7,0l0-2.4l-2.7,0c-1.6,0-2.5-0.7-2.5-2.3l0-6.8
			c0-5,2.4-10.4,7.2-10.4c1.1,0,2.7,0.2,2.9,1.4c-1.8,0-3,0.8-3,2.6c0,1.5,1.5,2.3,2.8,2.3c2,0,2.8-1.5,2.8-3.4
			c0-3.5-2.3-5.3-5.7-5.3c-2.9,0-5.9,2.4-7.1,5.8h-0.1L161.4,68.9z M194.6,83.7c-0.8,4.3-3.3,7-7.3,7c-5.4,0-7.5-5.5-7.5-10.1
			c0-4.6,2-10.1,8.4-10.1c2.3,0,5.6,0.9,6.4,3.4c-1.7,0.3-2.6,1.2-2.6,2.9c0,1.3,1.2,2.4,2.5,2.4c2,0,3.2-1.4,3.2-3.5
			c0-5.2-5.7-7.5-10.2-7.5c-7.1,0-12.4,5.1-12.4,12.5c0,8.3,4.8,12.5,11,12.5c6.6,0,10.7-2.6,11.4-9.4L194.6,83.7z M206.9,59.1
			l-9.5,0l0,2.4l3.3,0c1.7,0,2,0.7,2,2.3l0,23.9c0,1.6-0.3,2.3-2,2.3l-3.3,0l0,2.4l14.6,0l0-2.4l-3.1,0c-1.7,0-2-0.7-2-2.3l0-8.9
			c0-4,2.8-7.8,7.6-7.8c3.9,0,5.2,2,5.2,5.5l0,11.2c0,1.6-0.3,2.3-2,2.3l-2.8,0l0,2.4l14,0l0-2.4l-3,0c-1.7,0-2-0.7-2-2.3l0-10.9
			c0-5.2-2.8-8.7-8.1-8.7c-3.9,0-6.9,1.9-8.8,4.8h-0.1L206.9,59.1z"/>
		<polygon class="st22" points="84.2,62.9 66.5,62.9 65.8,65 70.6,65 71.5,67.9 79.3,67.9 80.2,65 84.9,65 		"/>
		<path class="st22" d="M69.4,51c-0.7,0.9-0.9,2-0.7,3.1c0.2,1.1,0.8,2.1,1.7,2.7l4.3,3.1c0.2,0.2,0.4,0.4,0.4,0.7
			c0,0.3,0,0.6-0.2,0.8l0.6,0.5l2.2-3.1c0.5-0.7,0.8-1.6,0.8-2.5c0-0.2,0-0.4-0.1-0.7c-0.2-1.1-0.8-2.1-1.7-2.7l-4.3-3.1
			c-0.2-0.2-0.4-0.4-0.4-0.7c0-0.1,0-0.1,0-0.2c0-0.2,0.1-0.4,0.2-0.6v0l-0.6-0.5L69.4,51z"/>
		<path class="st22" d="M71.9,38.5c-0.8,1.1-1.2,2.3-1.2,3.6c0,0.3,0,0.6,0.1,1c0.3,1.6,1.1,3,2.4,4l5.3,3.9
			c0.7,0.5,1.2,1.3,1.3,2.1c0,0.2,0,0.3,0,0.5c0,0.7-0.2,1.3-0.6,1.9h0l0.5,0.4l4.2-5.8c1-1.3,1.3-2.9,1.1-4.5c-0.3-1.6-1.1-3-2.4-4
			l-6.5-4.7c-0.4-0.3-0.7-0.7-0.8-1.2c-0.1-0.5,0-1,0.3-1.4l-0.5-0.4L71.9,38.5z"/>
		<path class="st22" d="M66,78.2c1,0,1.6-0.4,1.6-1.1v0c0-0.7-0.5-1.1-1.7-1.1h-2.7v2.3H66z M65.4,74c1,0,1.7-0.3,1.7-1.1v0
			c0-0.7-0.5-1.1-1.5-1.1h-2.3V74H65.4z M61,69.7h4.9c1.2,0,2.1,0.3,2.7,0.9c0.5,0.5,0.7,1.1,0.7,1.8v0c0,1.2-0.6,1.8-1.4,2.3
			c1.2,0.5,2,1.2,2,2.6v0c0,1.9-1.6,2.9-3.9,2.9h-5V69.7z"/>
		<path class="st22" d="M75.9,78.2c1,0,1.6-0.4,1.6-1.1v0c0-0.7-0.5-1.1-1.7-1.1h-2.7v2.3H75.9z M75.3,74c1,0,1.7-0.3,1.7-1.1v0
			c0-0.7-0.5-1.1-1.5-1.1h-2.3V74H75.3z M70.9,69.7h4.9c1.2,0,2.1,0.3,2.7,0.9c0.5,0.5,0.7,1.1,0.7,1.8v0c0,1.2-0.6,1.8-1.4,2.3
			c1.2,0.5,2,1.2,2,2.6v0c0,1.9-1.6,2.9-3.9,2.9h-5V69.7z"/>
		<path class="st22" d="M85.8,78.2c1,0,1.6-0.4,1.6-1.1v0c0-0.7-0.5-1.1-1.7-1.1h-2.7v2.3H85.8z M85.2,74c1,0,1.7-0.3,1.7-1.1v0
			c0-0.7-0.5-1.1-1.5-1.1h-2.3V74H85.2z M80.9,69.7h4.9c1.2,0,2.1,0.3,2.7,0.9c0.5,0.5,0.7,1.1,0.7,1.8v0c0,1.2-0.6,1.8-1.4,2.3
			c1.2,0.5,2,1.2,2,2.6v0c0,1.9-1.6,2.9-3.9,2.9h-5V69.7z"/>
		<path class="st22" d="M90.2,79.2C90.3,79.2,90.3,79.2,90.2,79.2c0.2,0,0.3,0.1,0.3,0.1c0,0.1-0.1,0.1-0.2,0.1h-0.1V79.2z
			 M90.2,79.5L90.2,79.5c0.2,0,0.2,0,0.3,0.1c0,0.1,0,0.2,0.1,0.2h0.1c0,0,0-0.1,0-0.2c0-0.1-0.1-0.2-0.1-0.2v0
			c0.1,0,0.2-0.1,0.2-0.2c0-0.1,0-0.1-0.1-0.2c0,0-0.1-0.1-0.2-0.1c-0.1,0-0.2,0-0.2,0v0.8h0.1V79.5z M90.4,78.9
			c0.3,0,0.6,0.3,0.6,0.6c0,0.3-0.2,0.6-0.6,0.6c-0.3,0-0.6-0.3-0.6-0.6C89.8,79.1,90.1,78.9,90.4,78.9L90.4,78.9z M90.4,78.8
			c-0.4,0-0.7,0.3-0.7,0.7c0,0.4,0.3,0.7,0.7,0.7c0.4,0,0.7-0.3,0.7-0.7C91.1,79.1,90.8,78.8,90.4,78.8L90.4,78.8z"/>
		<path class="st22" d="M142.6,128.1l-0.9,0.8l0.1,0.3h2.3c-0.5,2.8-0.8,5.1-1.5,9c-0.9,5.5-1.6,6.7-2,7.1c-0.3,0.3-0.7,0.6-1.2,0.6
			c-0.5,0-1.3-0.3-1.8-0.7c-0.2-0.2-0.3-0.2-0.5,0c-0.4,0.3-0.8,0.8-0.8,1.2c0,0.7,0.9,1.2,1.8,1.2c0.8,0,2-0.5,3.2-1.8
			c1.6-1.6,2.6-3.8,3.6-8.6c0.6-3.2,0.9-4.8,1.4-8l2.8-0.3l0.6-0.9h-3.2c0.9-5.3,1.7-6.6,2.8-6.6c0.6,0,1.2,0.4,1.8,1
			c0.2,0.2,0.5,0.2,0.7,0c0.3-0.2,0.7-0.7,0.7-1.2c0-0.5-0.7-1.2-1.7-1.2c-1.1,0-2.8,0.8-4.1,2.3c-1.3,1.4-2,3.6-2.4,5.7H142.6z
			 M152.6,140.7c1.6,0,3.2-0.8,4.4-1.8c2-1.6,3-4.4,3-6.9c0-2.8-1.4-4.4-3.8-4.4c-0.9,0-2,0.4-3.1,0.9c-2.4,1.3-4.3,4.1-4.3,7.8
			C148.8,138.6,149.9,140.7,152.6,140.7 M153.6,139.6c-1.5,0-2.4-1.3-2.4-3.4c0-4.4,1.9-6.7,3-7.2c0.3-0.1,0.7-0.3,1.1-0.3
			c1.3,0,2.3,1.1,2.3,3.4c0,3.6-1.6,6.7-3.1,7.3C154.2,139.5,154,139.6,153.6,139.6 M165.7,132.3l0.3-1.4c0.4-2,0.4-3.3-0.3-3.3
			c-0.8,0-2.5,1.2-4,2.8l0.4,0.7c0.9-0.8,1.8-1.4,2-1.4c0.2,0,0.2,0.3,0.1,1.2c-0.5,3-1.3,6.5-2.1,9.6l0.2,0.2
			c0.6-0.2,1.4-0.4,2-0.5c0.3-1.9,0.7-3.7,1.1-5.6c0.5-1.3,1.4-2.6,2-3.5c0.7-0.9,1.1-1.2,1.4-1.2c0.3,0,0.7,0.1,1,0.5
			c0.1,0.1,0.4,0.1,0.6,0c0.3-0.2,0.5-0.5,0.7-0.8c0.2-0.4,0.2-0.9,0-1.2c-0.3-0.4-0.7-0.7-1.2-0.7
			C168.9,127.6,167.3,129.6,165.7,132.3L165.7,132.3z"/>
		<path class="st22" d="M194.5,145.8v-8h-2.1c-0.3,4.2-1.3,5.9-3.9,5.9h-5.7v-6.6h1.5c1.7,0,2.5,0.9,2.5,3.2v0.7h2.1v-9.5h-2.1v0.4
			c0,2.3-0.8,3.2-2.5,3.2h-1.5v-5.9h5c3.8,0,4.2,1.5,4.6,5.4h2.1V127h-18.8v2.1h1.3c1.5,0,1.8,0.4,1.8,1.6v11.1c0,1.7-0.5,2-1.5,2
			h-1.6v2.1H194.5z M198.7,134.4v8.7c0,2.3,1.5,3.2,3.6,3.2c2.2,0,3.9-1.3,3.9-4.3v-2.4h-1.9v2.5c0,1.1-0.3,1.6-1.2,1.6
			c-0.8,0-1.1-0.4-1.1-0.9v-8.4h3.7v-1.9H202v-5.3h-1.8c-0.3,2.6-1,5.2-3.9,5.4v1.8H198.7z M213.4,127h-6.1v1.9h1.6
			c0.8,0,1.1,0.3,1.1,1.1v12.8c0,0.8-0.3,1.1-1.1,1.1h-1.6v1.9h8.4V144h-1.1c-0.8,0-1.1-0.3-1.1-1.1v-4.4c0-2.5,1.7-4.1,3.2-4.1
			c1.5,0,2.5,0.5,2.5,2v6.5c0,0.8-0.3,1.1-1.1,1.1h-1.1v1.9h8.3V144h-1.6c-0.8,0-1.1-0.3-1.1-1.1v-6.7c0-2.4-1.5-4-4-4
			c-2.2,0-3.8,1.1-4.9,2.7h-0.1V127z M234.8,145.8V144h-1.4c-0.8,0-1.1-0.3-1.1-1.1v-10.3h-5.8v1.9h1.3c0.8,0,1.1,0.3,1.1,1.1v7.3
			c0,0.8-0.3,1.1-1.1,1.1h-1.3v1.9H234.8z M228.2,128.7c0,1.1,0.9,2,2,2c1.1,0,2-0.9,2-2c0-1.1-0.9-2-2-2
			C229.1,126.7,228.2,127.6,228.2,128.7 M246.3,140.4c-0.2,2-1.4,3.5-3.1,3.5c-3,0-3.7-2.8-3.7-4.9c0-2.2,0.8-4.9,3.8-4.9
			c1.1,0,2.1,0.3,2.7,1.1c-1.1,0.1-1.7,0.7-1.7,1.8c0,1.2,1.2,1.7,2.2,1.7c1.2,0,2-1.1,2-2.4c0-2.4-2.6-4.2-5.9-4.2
			c-3.7,0-7,2.8-7,7.1c0,4.6,2.3,7.1,6.7,7.1c3.9,0,5.9-2.1,6.1-5.9H246.3z M250.5,140.6v5.2h1.9l0.6-1c1.3,1.2,3,1.5,4.8,1.5
			c2.7,0,5.2-1.2,5.2-4.2c0-5.2-9-4.1-9-6.4c0-1.1,1.2-1.5,2.2-1.5c2.2,0,3.5,1.1,4.2,3.1h1.8v-4.7h-1.6l-0.6,1
			c-1.2-0.8-2.7-1.4-4.2-1.4c-2.5,0-5.2,1.4-5.2,4.3c0,5.1,9,3.5,9,6.3c0,1.2-1.2,1.7-2.2,1.7c-2.5,0-4.2-1.2-4.8-3.7H250.5z"/>
	</g>
</g>
</svg>
