<?xml version="1.0" encoding="utf-8"?>
<!-- Generator: Adobe Illustrator 20.1.0, SVG Export Plug-In . SVG Version: 6.00 Build 0)  -->
<svg version="1.1" id="Layer_1" xmlns="http://www.w3.org/2000/svg" xmlns:xlink="http://www.w3.org/1999/xlink" x="0px" y="0px"
	 viewBox="0 0 331.2 130" style="enable-background:new 0 0 331.2 130;" xml:space="preserve">
<style type="text/css">
	.st0{fill:#989898;}
	.st1{fill:#65666B;}
	.st2{fill:#056897;}
	.st3{opacity:0.98;fill:none;stroke:#49494A;stroke-width:1.5066;stroke-miterlimit:10;}
</style>
<g>
	<g>
		<path class="st0" d="M29,99.1l0-3.1l-3.3,0c-2.9,0-3.5-0.2-3.5-1.4c0-0.8,0.5-1.7,1-3.4l1.9-5.5l15.5,0l1.8,4.9
			c0.4,0.9,1.3,3,1.3,4c0,1-0.7,1.4-3.1,1.4l-3.7,0l0,3.1l19.1,0l0-3.1l-2.3,0c-2.1,0-3.5-1-4.3-3l-13.2-34l-4.9,0L18.4,92.4
			C17.5,94.7,16.7,96,14,96l-2.5,0l0,3.1L29,99.1z M39.3,82.6l-13.1,0l6.5-17.1L39.3,82.6z M50.3,73.8H51c2,0,2.9,0.7,3.4,2
			l9.5,23.6l3.4,0l6.9-17.5l7,17.5l3.5,0l9.1-22.8c0.6-1.6,1.7-2.8,3.7-2.8h0.9l0-2.8l-12.6,0l0,2.8h1.2c1.7,0,3.4,0.4,3.4,1.2
			c0,0.7-0.2,1.1-0.5,1.9l-6.1,16.4h-0.1L77.8,77c-0.3-0.9-0.7-1.5-0.7-2.2c0-0.7,0.5-1.1,2.2-1.1l2.5,0l0-2.8l-14.2,0l0,2.8l1.6,0
			c1.7,0,2.9,1.5,3.7,3.4l-6.4,15.8h-0.1l-6-16c-0.3-0.7-0.5-1.3-0.5-1.9c0-0.8,0.5-1.1,1.9-1.1l2.2,0l0-2.8l-13.6,0L50.3,73.8z
			 M118.7,89.2c0,4.1-4.7,7.9-8.7,7.9c-3.1,0-4.7-1.9-4.8-5c0-2.1,1.3-3.4,4.6-4.8c3.5-1.5,6.3-2.1,8.9-3.6L118.7,89.2z M123.8,79.8
			c0-7.8-4.5-9.9-11.4-9.8c-4.6,0-11.4,2.1-11.4,7.2c0,2.4,1,4.3,3.1,4.3c1.7,0,3.6-0.8,3.6-3.2c0-1.8-1-2.8-2.8-3.1
			c1.7-2,4.7-2.3,7-2.3c5.2,0,6.7,1.7,6.7,5.2c0,1.8-0.4,2.9-2.3,3.9c-6.1,2.9-16.9,2.8-16.9,10.6c0,5.4,4,7.5,8.8,7.5
			c4.3,0,7.7-1.4,10.6-4.7c0.5,2.9,2.3,4.7,5.3,4.7c4.6,0,6.7-2.3,6.7-8.7l0-1.7l-2.8,0l0,2.5c0,1.7-0.2,5.1-2.8,5.1
			c-1.1,0-1.6-1.4-1.6-3.2L123.8,79.8z M143.4,70.9l-11.4,0l0,2.8l4.1,0c2,0,2.4,0.9,2.4,2.8l0,17c0,1.9-0.4,2.8-2.4,2.8l-3.9,0
			l0,2.8l17.7,0l0-2.8l-3.2,0c-1.9,0-3-0.9-3-2.8l0-8.1c0-6,2.9-12.5,8.6-12.5c1.3,0,3.2,0.3,3.5,1.7c-2.2,0-3.6,1-3.6,3.1
			c0,1.7,1.7,2.8,3.4,2.8c2.4,0,3.4-1.7,3.4-4c0-4.1-2.7-6.4-6.8-6.4c-3.5,0-7,2.8-8.5,7h-0.1L143.4,70.9z M184.1,99l10.8,0l0-2.8
			l-3.5,0c-1.4,0-2.2-0.7-2.2-2.2l0-34.9l-11,0l0,2.8l3.1,0c2,0,2.8,1.4,2.8,3.4l0,10.5H184c-2-3.8-6.1-5.9-10-5.9
			c-9,0-13,7.6-13,15c0,7.3,4,15,13,15c5.3,0,7.8-2.3,10-6.3h0.1L184.1,99z M175.3,73.3c6.1,0,8.6,5.6,8.6,11.6
			c0,6-2.5,11.6-9.2,11.6c-5.5,0-7.9-4.7-7.9-11.6C166.7,78.9,169.2,73.3,175.3,73.3 M197,87.6l0,11.7l3.1,0l1.1-3.1
			c2.8,2.6,6.5,3.7,10.2,3.7c5.5,0,11.2-2.4,11.2-8.7c0-11.8-20.2-6.4-20.2-13.6c0-3.9,3.1-4.8,5.7-4.8c4.9,0,9.5,3.5,10.2,8.8
			l2.8,0l0-11.1l-2.7,0l-1.1,2.8c-2.5-2.2-6-3.4-9.3-3.4c-5.2,0-10.7,2.3-10.7,8.3c0,12.3,20.2,6.4,20.2,14.1c0,2.9-2.6,4.7-6.2,4.7
			c-5.7,0-10.3-3.7-11.2-9.4L197,87.6z"/>
		<path class="st1" d="M36.6,45.5c0-7.2,1.3-11,8.7-11l2.3,0l0,26.8c0,1.7-0.7,2.7-2.4,2.7l-4.6,0l0,2.7l19,0l0-2.7l-4.5,0
			c-1.6,0-2.4-1-2.4-2.7l0-26.8l2,0c7.7,0,9,3.3,9,11l2.7,0l0-13.8l-32.6,0l0,13.8L36.6,45.5z M81.4,41.1c-8.5,0-13.6,5.6-13.6,13.2
			s5.1,13.1,13.6,13.1c8.5,0,13.6-5.6,13.6-13.2C95.1,46.7,89.9,41.1,81.4,41.1 M81.4,43.6c6.5,0,8.6,5,8.6,10.7
			C90,60,88,65,81.4,65c-6.5,0-8.6-5-8.6-10.7C72.8,48.6,74.9,43.6,81.4,43.6 M105.9,41.9l-10,0l0,2.5l3.6,0c1.7,0,2.1,0.8,2.1,2.4
			l0,14.9c0,1.6-0.4,2.4-2.1,2.4l-3.4,0l0,2.5l15.5,0l0-2.5l-2.9,0c-1.7,0-2.6-0.8-2.6-2.4l0-7.1c0-5.2,2.6-11,7.5-11
			c1.2,0,2.8,0.3,3.1,1.5c-1.9,0-3.2,0.8-3.2,2.7c0,1.5,1.5,2.4,3,2.4c2.1,0,3-1.5,3-3.5c0-3.6-2.4-5.6-6-5.6
			c-3.1,0-6.2,2.5-7.5,6.1h-0.1L105.9,41.9z M140.9,57.5c-0.8,4.5-3.5,7.4-7.7,7.4c-5.7,0-7.9-5.8-7.9-10.7c0-4.9,2.2-10.7,8.9-10.7
			c2.4,0,5.9,1,6.7,3.6c-1.8,0.3-2.7,1.2-2.7,3c0,1.4,1.3,2.5,2.6,2.5c2.1,0,3.3-1.5,3.3-3.6c0-5.5-6-7.9-10.7-7.9
			c-7.5,0-13.1,5.3-13.1,13.2c0,8.8,5.1,13.1,11.6,13.1c6.9,0,11.3-2.8,12-9.9L140.9,57.5z M153.9,31.6l-10,0l0,2.5l3.4,0
			c1.7,0,2.1,0.8,2.1,2.4l0,25.2c0,1.6-0.4,2.4-2.1,2.4l-3.4,0l0,2.5l15.4,0l0-2.5l-3.2,0c-1.7,0-2.1-0.8-2.1-2.4l0-9.4
			c0-4.2,3-8.2,8-8.2c4.1,0,5.4,2.2,5.4,5.8l0,11.8c0,1.6-0.4,2.4-2.1,2.4l-2.9,0l0,2.5l14.8,0l0-2.5l-3.2,0c-1.7,0-2.1-0.8-2.1-2.4
			l0-11.5c0-5.5-3-9.1-8.5-9.1c-4.1,0-7.2,2-9.3,5h-0.1L153.9,31.6z"/>
		<polygon class="st1" points="24.5,35.6 5.8,35.6 5.1,37.8 10.1,37.8 11,40.9 19.2,40.9 20.2,37.8 25.2,37.8 		"/>
		<path class="st1" d="M8.8,23c-0.7,1-1,2.1-0.8,3.3c0.2,1.2,0.8,2.2,1.8,2.9l4.5,3.3c0.2,0.2,0.4,0.4,0.4,0.7c0,0.3,0,0.6-0.2,0.8
			l0.7,0.5l2.4-3.3c0.6-0.8,0.8-1.7,0.8-2.6c0-0.2,0-0.5-0.1-0.7c-0.2-1.2-0.8-2.2-1.8-2.9l-4.5-3.3c-0.2-0.2-0.4-0.4-0.4-0.7
			c0-0.1,0-0.1,0-0.2c0-0.2,0.1-0.5,0.2-0.6v0l-0.7-0.5L8.8,23z"/>
		<path class="st1" d="M11.5,9.9c-0.8,1.1-1.2,2.4-1.2,3.8c0,0.3,0,0.7,0.1,1c0.3,1.7,1.2,3.2,2.6,4.2l5.6,4.1
			c0.7,0.5,1.2,1.3,1.4,2.2c0,0.2,0,0.4,0,0.5c0,0.7-0.2,1.4-0.7,2h0l0.5,0.4l4.4-6.1c1-1.4,1.4-3.1,1.1-4.8
			c-0.3-1.7-1.2-3.2-2.6-4.2l-6.8-4.9c-0.4-0.3-0.7-0.8-0.8-1.3c-0.1-0.5,0-1,0.4-1.5l-0.5-0.4L11.5,9.9z"/>
		<path class="st1" d="M5.3,51.7c1.1,0,1.7-0.4,1.7-1.2v0c0-0.7-0.6-1.2-1.8-1.2H2.4v2.4H5.3z M4.6,47.3c1.1,0,1.8-0.3,1.8-1.2v0
			c0-0.7-0.6-1.1-1.6-1.1H2.4v2.3H4.6z M0,42.8h5.1c1.3,0,2.3,0.3,2.9,1c0.5,0.5,0.8,1.1,0.8,1.9v0c0,1.2-0.7,1.9-1.5,2.4
			c1.3,0.5,2.1,1.2,2.1,2.7v0c0,2-1.6,3-4.1,3H0V42.8z"/>
		<path class="st1" d="M15.7,51.7c1.1,0,1.7-0.4,1.7-1.2v0c0-0.7-0.6-1.2-1.8-1.2h-2.8v2.4H15.7z M15.1,47.3c1.1,0,1.8-0.3,1.8-1.2
			v0c0-0.7-0.6-1.1-1.6-1.1h-2.4v2.3H15.1z M10.5,42.8h5.1c1.3,0,2.3,0.3,2.9,1c0.5,0.5,0.8,1.1,0.8,1.9v0c0,1.2-0.7,1.9-1.5,2.4
			c1.3,0.5,2.1,1.2,2.1,2.7v0c0,2-1.6,3-4.1,3h-5.3V42.8z"/>
		<path class="st1" d="M26.2,51.7c1.1,0,1.7-0.4,1.7-1.2v0c0-0.7-0.6-1.2-1.8-1.2h-2.8v2.4H26.2z M25.5,47.3c1.1,0,1.8-0.3,1.8-1.2
			v0c0-0.7-0.6-1.1-1.6-1.1h-2.4v2.3H25.5z M20.9,42.8h5.1c1.3,0,2.3,0.3,2.9,1c0.5,0.5,0.8,1.1,0.8,1.9v0c0,1.2-0.7,1.9-1.5,2.4
			c1.3,0.5,2.1,1.2,2.1,2.7v0c0,2-1.6,3-4.1,3h-5.3V42.8z"/>
		<path class="st2" d="M30.8,52.8C30.9,52.8,30.9,52.8,30.8,52.8c0.2,0,0.3,0.1,0.3,0.1c0,0.1-0.1,0.1-0.2,0.1h-0.1V52.8z
			 M30.8,53.2L30.8,53.2c0.2,0,0.2,0,0.3,0.1c0,0.1,0,0.2,0.1,0.2h0.1c0,0,0-0.1-0.1-0.2c0-0.1-0.1-0.2-0.1-0.2v0
			c0.1,0,0.2-0.1,0.2-0.2c0-0.1,0-0.1-0.1-0.2c0,0-0.1-0.1-0.3-0.1c-0.1,0-0.2,0-0.2,0v0.8h0.1V53.2z M31,52.5
			c0.3,0,0.6,0.3,0.6,0.6c0,0.3-0.3,0.6-0.6,0.6c-0.3,0-0.6-0.3-0.6-0.6C30.4,52.7,30.6,52.5,31,52.5L31,52.5z M31,52.3
			c-0.4,0-0.7,0.3-0.7,0.7c0,0.4,0.3,0.7,0.7,0.7c0.4,0,0.7-0.3,0.7-0.7C31.7,52.7,31.4,52.3,31,52.3L31,52.3z"/>
		<path class="st1" d="M86.1,104.4l-0.9,0.8l0.1,0.3h2.5c-0.5,2.9-0.9,5.4-1.6,9.5c-1,5.8-1.7,7.1-2.1,7.5c-0.3,0.4-0.8,0.6-1.3,0.6
			c-0.5,0-1.4-0.3-1.9-0.7c-0.2-0.2-0.3-0.2-0.6,0c-0.5,0.4-0.8,0.9-0.8,1.3c0,0.7,1,1.3,1.9,1.3c0.8,0,2.1-0.5,3.4-1.9
			c1.7-1.7,2.8-4,3.8-9.1c0.7-3.3,1-5.1,1.5-8.4l3-0.3l0.6-0.9h-3.4c0.9-5.5,1.8-7,2.9-7c0.6,0,1.3,0.4,1.9,1c0.2,0.2,0.5,0.2,0.7,0
			c0.3-0.2,0.7-0.8,0.7-1.2c0-0.5-0.7-1.3-1.8-1.3c-1.2,0-2.9,0.9-4.3,2.4c-1.3,1.5-2.1,3.7-2.5,6H86.1z M96.6,117.7
			c1.7,0,3.3-0.8,4.6-1.9c2.1-1.7,3.2-4.7,3.2-7.3c0-3-1.5-4.7-4-4.7c-0.9,0-2.2,0.4-3.2,1c-2.5,1.3-4.6,4.3-4.6,8.2
			C92.6,115.5,93.7,117.7,96.6,117.7 M97.7,116.5c-1.6,0-2.5-1.4-2.5-3.6c0-4.6,2-7.1,3.2-7.6c0.3-0.1,0.7-0.3,1.1-0.3
			c1.4,0,2.4,1.2,2.4,3.6c0,3.8-1.6,7-3.3,7.7C98.3,116.5,98,116.5,97.7,116.5 M110.4,108.9l0.3-1.5c0.4-2.1,0.4-3.5-0.3-3.5
			c-0.8,0-2.7,1.2-4.2,2.9l0.4,0.7c0.9-0.8,1.9-1.4,2.1-1.4c0.2,0,0.2,0.3,0.1,1.3c-0.6,3.2-1.4,6.9-2.2,10.1l0.2,0.2
			c0.7-0.2,1.5-0.4,2.1-0.5c0.4-2,0.7-3.9,1.2-5.9c0.5-1.3,1.5-2.8,2.1-3.7c0.7-1,1.2-1.3,1.5-1.3c0.3,0,0.7,0.1,1,0.5
			c0.1,0.2,0.4,0.2,0.7,0c0.3-0.2,0.6-0.5,0.8-0.9c0.2-0.4,0.2-0.9,0-1.3c-0.3-0.4-0.8-0.7-1.3-0.7
			C113.8,103.9,112.1,105.9,110.4,108.9L110.4,108.9z"/>
		<path class="st1" d="M140.8,123.1v-8.4h-2.2c-0.3,4.5-1.3,6.2-4.1,6.2h-6v-7h1.6c1.8,0,2.6,0.9,2.6,3.4v0.7h2.2v-10h-2.2v0.4
			c0,2.4-0.8,3.3-2.6,3.3h-1.6v-6.2h5.3c4,0,4.4,1.6,4.8,5.7h2.2v-7.9H121v2.2h1.4c1.6,0,1.9,0.4,1.9,1.7v11.7
			c0,1.8-0.6,2.1-1.6,2.1H121v2.2H140.8z M145.2,111v9.2c0,2.4,1.6,3.3,3.8,3.3c2.4,0,4.1-1.4,4.1-4.5v-2.5h-2v2.7
			c0,1.2-0.4,1.7-1.3,1.7c-0.8,0-1.1-0.4-1.1-1V111h3.9v-2h-4v-5.6h-1.9c-0.3,2.8-1.1,5.5-4.1,5.7v1.9H145.2z M160.8,103.2h-6.4v2
			h1.7c0.8,0,1.2,0.3,1.2,1.2v13.5c0,0.9-0.4,1.2-1.2,1.2h-1.7v2h8.8v-2H162c-0.8,0-1.2-0.3-1.2-1.2v-4.7c0-2.6,1.8-4.3,3.4-4.3
			c1.6,0,2.6,0.6,2.6,2.1v6.9c0,0.9-0.4,1.2-1.2,1.2h-1.1v2h8.8v-2h-1.7c-0.8,0-1.2-0.3-1.2-1.2v-7.1c0-2.5-1.6-4.2-4.3-4.2
			c-2.3,0-4,1.2-5.2,2.8h-0.1V103.2z M183.3,123.1v-2h-1.5c-0.8,0-1.2-0.3-1.2-1.2v-10.9h-6.1v2h1.4c0.8,0,1.2,0.3,1.2,1.2v7.7
			c0,0.9-0.4,1.2-1.2,1.2h-1.4v2H183.3z M176.3,105c0,1.2,1,2.2,2.2,2.2c1.2,0,2.2-1,2.2-2.2s-1-2.2-2.2-2.2
			C177.3,102.9,176.3,103.8,176.3,105 M195.5,117.3c-0.2,2.2-1.5,3.7-3.3,3.7c-3.1,0-3.9-2.9-3.9-5.2c0-2.3,0.9-5.2,4-5.2
			c1.2,0,2.2,0.3,2.8,1.2c-1.2,0.1-1.8,0.8-1.8,1.9c0,1.3,1.3,1.8,2.3,1.8c1.3,0,2.2-1.2,2.2-2.5c0-2.5-2.7-4.4-6.2-4.4
			c-3.9,0-7.4,3-7.4,7.4c0,4.8,2.4,7.5,7,7.5c4.1,0,6.2-2.2,6.4-6.2H195.5z M199.8,117.6v5.5h2l0.6-1.1c1.4,1.2,3.2,1.5,5,1.5
			c2.8,0,5.5-1.3,5.5-4.4c0-5.5-9.4-4.4-9.4-6.7c0-1.2,1.3-1.6,2.3-1.6c2.3,0,3.7,1.1,4.4,3.3h1.9v-5h-1.6l-0.6,1
			c-1.3-0.9-2.8-1.5-4.4-1.5c-2.6,0-5.5,1.5-5.5,4.5c0,5.4,9.4,3.7,9.4,6.6c0,1.2-1.3,1.8-2.3,1.8c-2.6,0-4.5-1.3-5.1-3.9H199.8z"/>
	</g>
	<g>
		<g>
			<path class="st1" d="M263.3,89.7h-0.7c-0.1-0.5-0.4-1.1-0.9-1.7c-0.4-0.6-0.8-0.9-1.2-1c-0.2,0-0.4,0-0.7-0.1c-0.3,0-0.6,0-0.9,0
				h-2.3v5.6h1.6c0.5,0,0.9-0.1,1.1-0.2s0.5-0.3,0.7-0.5c0.1-0.1,0.2-0.4,0.4-0.7c0.1-0.3,0.2-0.6,0.2-1h0.7v5.5h-0.7
				c0-0.3-0.1-0.6-0.2-1s-0.2-0.6-0.4-0.8c-0.2-0.2-0.4-0.4-0.7-0.5s-0.7-0.1-1.1-0.1h-1.6v4.8c0,0.2,0,0.4,0.1,0.6
				c0.1,0.2,0.2,0.3,0.4,0.4c0.1,0,0.3,0.1,0.6,0.2c0.3,0.1,0.6,0.1,0.7,0.1v0.7h-6v-0.7c0.2,0,0.5,0,0.8-0.1c0.3,0,0.5-0.1,0.6-0.1
				c0.2-0.1,0.3-0.2,0.4-0.4c0.1-0.2,0.1-0.4,0.1-0.6v-10c0-0.2,0-0.4-0.1-0.6c-0.1-0.2-0.2-0.3-0.4-0.4c-0.2-0.1-0.4-0.2-0.7-0.2
				c-0.3-0.1-0.5-0.1-0.7-0.1v-0.7h10.9V89.7z"/>
			<path class="st1" d="M269.4,100h-4.7v-0.6c0.1,0,0.3,0,0.5,0c0.2,0,0.3,0,0.4-0.1c0.2-0.1,0.3-0.2,0.4-0.3
				c0.1-0.1,0.1-0.3,0.1-0.6v-5.9c0-0.2,0-0.4-0.1-0.6c-0.1-0.2-0.2-0.3-0.4-0.4c-0.1-0.1-0.3-0.1-0.5-0.2c-0.2-0.1-0.4-0.1-0.6-0.1
				v-0.6l3.4-0.2l0.1,0.1v7.9c0,0.2,0,0.4,0.1,0.6c0.1,0.1,0.2,0.3,0.4,0.3c0.1,0.1,0.3,0.1,0.4,0.1c0.1,0,0.3,0.1,0.5,0.1V100z
				 M268.2,86.5c0,0.4-0.1,0.7-0.4,1s-0.5,0.4-0.9,0.4c-0.3,0-0.6-0.1-0.9-0.4c-0.2-0.3-0.4-0.6-0.4-0.9c0-0.4,0.1-0.7,0.4-0.9
				c0.2-0.3,0.5-0.4,0.9-0.4c0.4,0,0.7,0.1,0.9,0.4C268.1,85.9,268.2,86.2,268.2,86.5z"/>
			<path class="st1" d="M281.7,100H277v-0.6c0.1,0,0.3,0,0.5,0c0.2,0,0.3,0,0.4-0.1c0.2-0.1,0.3-0.2,0.4-0.3
				c0.1-0.1,0.1-0.3,0.1-0.6v-5c0-0.7-0.2-1.2-0.5-1.6c-0.3-0.4-0.7-0.6-1.2-0.6c-0.3,0-0.7,0.1-1,0.2s-0.5,0.2-0.8,0.4
				c-0.2,0.1-0.4,0.3-0.5,0.5c-0.1,0.2-0.2,0.3-0.3,0.4v5.5c0,0.2,0,0.4,0.1,0.5c0.1,0.1,0.2,0.3,0.4,0.3c0.1,0.1,0.3,0.1,0.4,0.1
				c0.2,0,0.3,0.1,0.5,0.1v0.6h-4.7v-0.6c0.1,0,0.3,0,0.5,0c0.2,0,0.3,0,0.4-0.1c0.2-0.1,0.3-0.2,0.4-0.3c0.1-0.1,0.1-0.3,0.1-0.6
				v-5.9c0-0.2,0-0.4-0.1-0.6c-0.1-0.2-0.2-0.3-0.4-0.5c-0.1-0.1-0.3-0.1-0.4-0.2c-0.2,0-0.4-0.1-0.5-0.1v-0.6l3.2-0.2l0.1,0.1v1.4
				h0c0.2-0.2,0.4-0.3,0.6-0.6s0.5-0.4,0.7-0.5c0.2-0.2,0.5-0.3,0.9-0.4c0.3-0.1,0.7-0.2,1.1-0.2c0.9,0,1.6,0.3,2.1,0.9
				c0.4,0.6,0.7,1.3,0.7,2.3v5c0,0.2,0,0.4,0.1,0.6c0.1,0.1,0.2,0.2,0.4,0.3c0.2,0.1,0.3,0.1,0.4,0.1c0.1,0,0.3,0,0.5,0.1V100z"/>
			<path class="st1" d="M292.3,99.9c-0.3,0.1-0.6,0.2-0.8,0.3c-0.2,0.1-0.5,0.1-0.8,0.1c-0.5,0-0.9-0.1-1.2-0.4
				c-0.3-0.2-0.5-0.6-0.6-1h-0.1c-0.4,0.5-0.9,0.8-1.4,1.1c-0.5,0.2-1.1,0.4-1.8,0.4c-0.7,0-1.3-0.2-1.8-0.7c-0.5-0.4-0.7-1-0.7-1.7
				c0-0.4,0.1-0.7,0.2-1c0.1-0.3,0.3-0.6,0.5-0.8c0.2-0.2,0.4-0.4,0.6-0.5c0.3-0.2,0.5-0.3,0.8-0.4c0.3-0.1,0.9-0.3,1.8-0.6
				c0.9-0.3,1.5-0.5,1.8-0.7v-1c0-0.1,0-0.2-0.1-0.5c0-0.2-0.1-0.5-0.2-0.7c-0.1-0.2-0.3-0.5-0.6-0.6c-0.2-0.2-0.6-0.3-1-0.3
				c-0.3,0-0.6,0.1-0.8,0.2c-0.3,0.1-0.4,0.2-0.5,0.3c0,0.1,0,0.3,0.1,0.6c0.1,0.3,0.1,0.5,0.1,0.7c0,0.2-0.1,0.4-0.3,0.6
				c-0.2,0.2-0.5,0.3-0.9,0.3c-0.3,0-0.6-0.1-0.7-0.3c-0.2-0.2-0.2-0.5-0.2-0.8c0-0.3,0.1-0.6,0.3-0.9s0.5-0.5,0.8-0.7
				c0.3-0.2,0.6-0.3,1.1-0.5c0.4-0.1,0.8-0.2,1.2-0.2c0.5,0,1,0,1.4,0.1c0.4,0.1,0.8,0.2,1.1,0.5c0.3,0.2,0.6,0.6,0.8,1
				c0.2,0.4,0.3,0.9,0.3,1.6c0,0.9,0,1.8,0,2.5s0,1.5,0,2.4c0,0.3,0,0.5,0.1,0.6c0.1,0.2,0.2,0.3,0.4,0.4c0.1,0.1,0.3,0.1,0.5,0.1
				c0.2,0,0.4,0,0.6,0V99.9z M288.9,94.7c-0.6,0.2-1,0.3-1.5,0.5c-0.4,0.2-0.8,0.4-1.2,0.6c-0.3,0.2-0.6,0.5-0.8,0.8
				c-0.2,0.3-0.3,0.7-0.3,1.1c0,0.5,0.1,0.9,0.4,1.2s0.6,0.4,1.1,0.4c0.5,0,0.9-0.1,1.2-0.3c0.4-0.2,0.6-0.5,0.9-0.8L288.9,94.7z"/>
			<path class="st1" d="M298.4,100h-4.7v-0.6c0.1,0,0.3,0,0.5,0c0.2,0,0.3,0,0.4-0.1c0.2-0.1,0.3-0.2,0.4-0.3
				c0.1-0.1,0.1-0.3,0.1-0.6V87.2c0-0.2-0.1-0.5-0.2-0.7c-0.1-0.2-0.2-0.4-0.4-0.5c-0.1-0.1-0.3-0.1-0.6-0.2
				c-0.3-0.1-0.6-0.1-0.8-0.1v-0.6l3.6-0.2l0.1,0.1v13.2c0,0.2,0,0.4,0.1,0.6c0.1,0.1,0.2,0.3,0.4,0.3c0.1,0.1,0.3,0.1,0.4,0.1
				c0.1,0,0.3,0.1,0.5,0.1V100z"/>
			<path class="st1" d="M304.7,100h-4.7v-0.6c0.1,0,0.3,0,0.5,0c0.2,0,0.3,0,0.4-0.1c0.2-0.1,0.3-0.2,0.4-0.3
				c0.1-0.1,0.1-0.3,0.1-0.6v-5.9c0-0.2,0-0.4-0.1-0.6c-0.1-0.2-0.2-0.3-0.4-0.4c-0.1-0.1-0.3-0.1-0.5-0.2c-0.2-0.1-0.4-0.1-0.6-0.1
				v-0.6l3.4-0.2l0.1,0.1v7.9c0,0.2,0,0.4,0.1,0.6c0.1,0.1,0.2,0.3,0.4,0.3c0.1,0.1,0.3,0.1,0.4,0.1c0.1,0,0.3,0.1,0.5,0.1V100z
				 M303.5,86.5c0,0.4-0.1,0.7-0.4,1s-0.5,0.4-0.9,0.4c-0.3,0-0.6-0.1-0.9-0.4c-0.2-0.3-0.4-0.6-0.4-0.9c0-0.4,0.1-0.7,0.4-0.9
				c0.2-0.3,0.5-0.4,0.9-0.4c0.4,0,0.7,0.1,0.9,0.4C303.4,85.9,303.5,86.2,303.5,86.5z"/>
			<path class="st1" d="M312.7,95.3c0.3,0.2,0.5,0.5,0.6,0.8c0.1,0.3,0.2,0.7,0.2,1.1c0,0.9-0.3,1.6-1,2.2c-0.7,0.6-1.5,0.9-2.6,0.9
				c-0.6,0-1.1-0.1-1.5-0.3c-0.5-0.2-0.8-0.4-1-0.6l-0.2,0.6h-0.7l-0.1-3.4h0.7c0.1,0.3,0.2,0.6,0.3,0.9c0.2,0.3,0.4,0.6,0.6,0.9
				c0.3,0.3,0.6,0.5,0.9,0.7c0.4,0.2,0.8,0.3,1.2,0.3c0.6,0,1.1-0.1,1.4-0.4c0.3-0.3,0.5-0.7,0.5-1.2c0-0.3-0.1-0.5-0.2-0.7
				c-0.1-0.2-0.3-0.4-0.5-0.5c-0.2-0.1-0.5-0.3-0.8-0.4c-0.3-0.1-0.7-0.2-1-0.4c-0.3-0.1-0.6-0.2-1-0.4c-0.4-0.2-0.7-0.3-1-0.6
				c-0.3-0.2-0.5-0.5-0.7-0.8c-0.2-0.3-0.3-0.7-0.3-1.2c0-0.8,0.3-1.5,0.9-2c0.6-0.5,1.4-0.8,2.4-0.8c0.4,0,0.8,0,1.2,0.1
				c0.4,0.1,0.7,0.2,1,0.4l0.2-0.5h0.7l0.1,3.1h-0.7c-0.1-0.7-0.4-1.3-0.9-1.7c-0.5-0.4-1-0.7-1.7-0.7c-0.5,0-1,0.1-1.3,0.4
				c-0.3,0.3-0.5,0.6-0.5,1c0,0.3,0.1,0.5,0.2,0.7c0.1,0.2,0.3,0.4,0.5,0.5c0.2,0.1,0.4,0.3,0.7,0.4c0.3,0.1,0.7,0.2,1.1,0.4
				c0.4,0.1,0.8,0.3,1.2,0.5C312.1,94.9,312.4,95.1,312.7,95.3z"/>
			<path class="st1" d="M321.2,99.6c-0.4,0.2-0.8,0.3-1.2,0.4c-0.4,0.1-0.8,0.2-1.4,0.2c-0.8,0-1.4-0.2-1.7-0.6
				c-0.3-0.4-0.5-1-0.5-1.7v-6.5h-1.7v-0.9h1.8v-3h1.8v3h2.8v0.9h-2.7v5.4c0,0.4,0,0.7,0,1c0,0.3,0.1,0.5,0.2,0.7
				c0.1,0.2,0.3,0.3,0.5,0.4c0.2,0.1,0.5,0.1,0.8,0.1c0.2,0,0.4,0,0.7,0c0.3,0,0.5-0.1,0.7-0.1V99.6z"/>
		</g>
	</g>
	<g>
		<g>
			<path class="st1" d="M266.2,71.6H250v-2.4c0.3-0.4,0.7-0.8,1.3-1.2c0.6-0.4,1.2-0.9,2-1.4c0.5-0.3,1-0.7,1.7-1
				c0.6-0.4,1.4-0.8,2.2-1.2c0.9-0.5,1.6-0.9,2.1-1.3c0.5-0.4,0.9-0.8,1.3-1.4c0.3-0.4,0.5-0.8,0.6-1.3c0.2-0.5,0.2-1.3,0.2-2.3
				c0-1.4-0.4-2.5-1.2-3.2c-0.8-0.7-1.8-1-3-1c-0.7,0-1.5,0.1-2.1,0.4c-0.7,0.3-1.2,0.7-1.5,1.2c0.1,0.4,0.2,0.8,0.3,1.3
				c0.1,0.5,0.2,1,0.2,1.5c0,0.4-0.2,0.8-0.5,1.2c-0.4,0.3-0.9,0.5-1.6,0.5c-0.6,0-1-0.2-1.3-0.6c-0.3-0.4-0.5-0.9-0.5-1.6
				c0-0.6,0.2-1.2,0.5-1.9c0.3-0.6,0.8-1.2,1.5-1.7c0.6-0.5,1.4-0.9,2.4-1.3s1.9-0.5,3-0.5c2.4,0,4.2,0.5,5.6,1.6
				c1.4,1.1,2.1,2.5,2.1,4.2c0,0.8-0.1,1.6-0.4,2.3c-0.2,0.7-0.6,1.3-1.2,1.8c-0.6,0.6-1.3,1.1-2.1,1.5c-0.8,0.4-2.1,1-3.8,1.8
				c-1,0.4-1.9,0.9-2.8,1.4c-0.9,0.5-1.6,1-2.1,1.4h13.3V71.6z"/>
			<path class="st1" d="M287.6,55.4c0.7,0.9,1.3,1.9,1.7,3.1c0.4,1.2,0.5,2.4,0.5,3.7c0,1.6-0.2,3-0.7,4.2c-0.4,1.2-1.1,2.3-1.9,3.1
				c-0.8,0.8-1.8,1.5-2.9,1.9c-1.1,0.4-2.3,0.6-3.7,0.6c-1.5,0-2.8-0.2-4-0.7c-1.2-0.5-2.1-1.2-2.8-2c-0.8-0.9-1.3-2-1.7-3.2
				c-0.4-1.2-0.6-2.5-0.6-3.9c0-1.4,0.2-2.6,0.5-3.8c0.4-1.2,0.9-2.2,1.7-3.1c0.7-0.9,1.7-1.6,2.9-2.1c1.2-0.5,2.5-0.8,4-0.8
				c1.6,0,2.9,0.3,4.1,0.8C285.9,53.8,286.8,54.5,287.6,55.4z M285.9,62.3c0-2.7-0.5-4.9-1.4-6.4c-0.9-1.5-2.2-2.3-3.8-2.3
				c-1.6,0-2.9,0.8-3.9,2.3c-0.9,1.5-1.4,3.6-1.4,6.4c0,2.6,0.5,4.7,1.4,6.3c0.9,1.6,2.2,2.4,3.9,2.4c1.7,0,3-0.8,3.9-2.4
				C285.5,67,285.9,64.9,285.9,62.3z"/>
			<path class="st1" d="M306.8,71.6h-11.7v-1.2c0.3,0,0.9-0.1,1.6-0.1c0.7-0.1,1.2-0.2,1.5-0.2c0.4-0.1,0.6-0.3,0.8-0.6
				s0.3-0.6,0.3-1.2V56.1H295v-1.5h1c1.2,0,2.4-0.2,3.3-0.7c1-0.5,1.7-1,2.1-1.5h1.4c0,0.7-0.1,1.6-0.1,2.6c0,1-0.1,1.9-0.1,2.7V68
				c0,0.4,0.1,0.8,0.3,1.1c0.2,0.3,0.4,0.6,0.8,0.7c0.3,0.1,0.8,0.2,1.5,0.3c0.7,0.1,1.2,0.2,1.5,0.2V71.6z"/>
			<path class="st1" d="M328,63.6c0,1.2-0.2,2.3-0.6,3.4s-1,1.9-1.7,2.7c-0.8,0.8-1.8,1.5-2.8,1.9c-1,0.4-2.1,0.6-3.2,0.6
				c-1.3,0-2.4-0.2-3.5-0.7c-1-0.5-1.9-1.1-2.6-2c-0.7-0.9-1.3-1.9-1.7-3.2c-0.4-1.3-0.6-2.7-0.6-4.3c0-4.1,1.2-7.6,3.7-10.4
				c2.4-2.8,5.7-4.5,9.8-5.1L325,48l-1.6,0.3c-2.5,0.8-4.4,2.1-5.8,3.8c-1.4,1.7-2.3,3.8-2.7,6.2c1-0.9,2-1.5,2.9-1.8
				c1-0.4,2-0.5,3.1-0.5c1.9,0,3.6,0.7,4.9,2.2C327.3,59.6,328,61.4,328,63.6z M324.2,64.1c0-1.9-0.4-3.4-1.3-4.5
				c-0.9-1.1-2-1.7-3.4-1.7c-0.9,0-1.7,0.2-2.4,0.5c-0.7,0.3-1.5,0.9-2.2,1.6c0,0.1,0,0.5-0.1,1c0,0.5,0,0.9,0,1.2
				c0,2.7,0.4,4.8,1.3,6.3s2,2.3,3.5,2.3c1.4,0,2.5-0.6,3.3-1.8C323.8,67.8,324.2,66.1,324.2,64.1z"/>
		</g>
	</g>
	<line class="st3" x1="243.6" y1="79.9" x2="331.2" y2="79.9"/>
</g>
</svg>
