<svg viewBox="0 0 161.94 53.97" xmlns="http://www.w3.org/2000/svg"><g fill="#737275"><path d="m10.72 20.81a3 3 0 0 0 -1.39.19c-.22.12-.46.46-2.2 6.56 0 .17-.08.33.07.36a8.27 8.27 0 0 0 1.57.08c3.31 0 4.53-2.71 4.53-4.8a2.27 2.27 0 0 0 -2.1-2.43 1.93 1.93 0 0 0 -.48 0m-2.25 7.87a8.9 8.9 0 0 0 -1.46 0 .45.45 0 0 0 -.29.37c-1.72 5.99-1.9 7.19-1.61 7.51s.75.46 2.12.46a5 5 0 0 0 5.17-4.83v-.24c0-1.83-1.41-3.31-3.93-3.31m2.17-.44c-.09 0-.17.21 0 .21 3.12.39 4.31 2.05 4.31 3.93 0 2.58-2.9 5.29-7.75 5.29-.69 0-1.73-.1-3-.1s-3.39 0-4.07.1a.16.16 0 0 1 0-.32 16.57 16.57 0 0 0 1.72-.27c.22-.09.53-.75 2.63-8.06s2.19-8 2-8.1a7.44 7.44 0 0 0 -1.54-.34c-.17 0-.11-.34 0-.32.67.08 2.62.12 3.93.12s1.71-.1 2.36-.1c2.88 0 4.48 1.39 4.48 3.38s-1.92 3.91-5.09 4.59"/><path d="m21.83 27.39c-1 0-2.12 1.6-3.09 4.48 3-.39 3.8-2.27 3.8-3.58 0-.56-.22-.9-.71-.9m-3.21 4.8a7.42 7.42 0 0 0 -.49 2.51c0 1.08.56 1.79 1.44 1.79a5.16 5.16 0 0 0 3.37-1.86.11.11 0 0 1 .14 0 .12.12 0 0 1 0 .1c-.85 1.56-2.75 3.07-4.33 3.07a2.6 2.6 0 0 1 -2.83-2.35 3.35 3.35 0 0 1 0-.55c0-3 2.9-8 6.12-8a1.94 1.94 0 0 1 2.17 1.68s0 .08 0 .13c0 1.94-2.65 3.45-5.67 3.45"/><path d="m30.5 29.58c-1.09 0-.93-2-2.22-2a1.41 1.41 0 0 0 -1.21 1.42c0 1.34 2.66 3.65 2.66 5.55a3.38 3.38 0 0 1 -3.5 3.25h-.23c-1.75 0-2.7-1.17-2.7-1.93a1 1 0 0 1 1-1c1.22 0 1.08 2.39 2.54 2.39.78 0 1.31-.82 1.31-1.73 0-1.61-2.53-3.27-2.53-5.41a3.44 3.44 0 0 1 3.53-3.24 2.12 2.12 0 0 1 2.32 1.71 1 1 0 0 1 -1 .94"/><path d="m38.74 28.22c-.86 0-.93-.07-2.44-.07-.85 2.24-1.9 5-2.53 6.73-.36 1.07-.1 1.41.22 1.41.9 0 2.76-2.26 3-2.26s.12 0 .07.12c-.73 1.27-2.9 3.68-4.51 3.68-.8 0-1.53-.78-.82-2.53.9-2.29 1.8-4.88 2.58-7.14a17.09 17.09 0 0 0 -2 .07c-.21 0-.24-.73 0-.7.71 0 1.15.07 2.1.07.29-.85.56-1.61.73-2.15 0-.12.27-.12.39-.12.42 0 1.78.12 1.68.37-.2.51-.46 1.19-.76 1.9a18.69 18.69 0 0 0 2.26-.07c.2 0 .22.73 0 .7"/><path d="m50.53 20.81a2.41 2.41 0 0 0 -1.24.22c-.22.09-.9 2.07-2.63 8.16 0 .19-.08.29.07.34a4.89 4.89 0 0 0 1.32.12 5.78 5.78 0 0 0 5.51-5.65 2.91 2.91 0 0 0 -2.56-3.19 3 3 0 0 0 -.42 0m-4.15 9.29c-1.82 6.36-1.8 6.8-1.63 6.89s1.29.17 1.85.32c.2.05.12.34 0 .32-.66-.08-2.26-.1-3.56-.1a27.34 27.34 0 0 0 -3 .1.16.16 0 0 1 0-.32 11.27 11.27 0 0 0 1.72-.31c.24-.12.56-.75 2.65-8.06s2.17-8 2-8.1a7.12 7.12 0 0 0 -1.52-.34c-.2 0-.12-.34 0-.32.65.08 2.36.12 3.66.12s1.85-.1 2.46-.1c3.14 0 5.09 1.59 5.09 4 0 3.51-4.41 6.75-9.78 5.92"/><path d="m56.56 34.61c-.49 1.39-.27 1.61.16 1.61a9.55 9.55 0 0 0 2.8-2.22s.17 0 .15.08c-.34.88-2.8 3.75-4.49 3.75-1.21 0-1.33-1.39-.8-2.76 1.49-3.92 3.44-9.23 5-13.74.39-1.13-.1-1.66-1.85-1.66-.22 0-.18-.27 0-.29 1.3-.15 4.29-.3 4.51-.3s.27.14.14.44c-2.18 5.67-4.48 11.89-5.6 15.08"/><path d="m66.94 27.68c-2.07 0-5.14 5.36-5.14 7.56 0 .78.32 1.17.8 1.17a2.85 2.85 0 0 0 1.8-1.22 20.58 20.58 0 0 0 3.33-6.67.75.75 0 0 0 -.66-.83.33.33 0 0 0 -.14 0m.51 6.92c-.48 1.32-.34 1.65.08 1.65.67 0 2-1.76 2.19-1.76a.08.08 0 0 1 .08.08c-.84 1.55-2.7 3.2-3.84 3.2a.66.66 0 0 1 -.73-.57v-.13a6.32 6.32 0 0 1 .36-1.83l.51-1.56s-.22-.17-.27-.1c-1.53 2.59-3 4.2-4.36 4.2a1.9 1.9 0 0 1 -1.9-1.9v-.1c0-3.63 4.36-8.51 7.19-8.51a2.34 2.34 0 0 1 1.24.32c.12.1.17.12.24 0 .31-.39.66-.86.85-1.12s1.36.08 1.32.22z"/><path d="m77.7 29.49c-1.21 0-1-1.75-2.1-1.75-1.55 0-3.09 3.41-3.09 6.6 0 1.48.66 2.19 1.68 2.19s2-.75 2.93-2c0-.07.22 0 .17.08a5 5 0 0 1 -4 3.22c-1.51 0-2.9-.9-2.9-3.19 0-3.12 3-7.7 6.47-7.7 1.49 0 2 .9 2 1.41a1 1 0 0 1 -.86 1.13.76.76 0 0 1 -.26 0"/><path d="m84.08 27.39c-1 0-2.12 1.6-3.1 4.48 3-.39 3.81-2.27 3.81-3.58 0-.56-.22-.9-.71-.9m-3.21 4.8a7.42 7.42 0 0 0 -.49 2.51c0 1.08.56 1.79 1.44 1.79a5.18 5.18 0 0 0 3.36-1.86c.07-.07.19 0 .14.12-.85 1.56-2.75 3.07-4.34 3.07a2.6 2.6 0 0 1 -2.76-2.43 2.44 2.44 0 0 1 0-.47c0-3 2.9-8 6.12-8a2 2 0 0 1 2.2 1.78c0 1.94-2.66 3.45-5.68 3.45"/><path d="m92.76 29.58c-1.1 0-.93-2-2.21-2a1.42 1.42 0 0 0 -1.22 1.42c0 1.34 2.65 3.65 2.65 5.55a3.38 3.38 0 0 1 -3.5 3.25h-.21c-1.75 0-2.7-1.17-2.7-1.93a1 1 0 0 1 1-1c1.22 0 1.07 2.39 2.53 2.39.78 0 1.3-.82 1.3-1.73 0-1.61-2.53-3.27-2.53-5.41a3.45 3.45 0 0 1 3.54-3.24 2.1 2.1 0 0 1 2.31 1.71 1 1 0 0 1 -1 .94"/><path d="m105.21 28.24c-.86 0-.93-.08-2.44-.08-.85 2.25-1.9 5-2.53 6.73-.37 1.07-.1 1.41.22 1.41.9 0 2.75-2.27 3-2.27s.12 0 .08.12c-.73 1.27-2.91 3.68-4.52 3.68-.8 0-1.54-.78-.83-2.53.9-2.29 1.8-4.88 2.58-7.15a13.82 13.82 0 0 0 -2 .08c-.22 0-.24-.73.05-.7.71 0 1.14.07 2.09.07.29-.86.56-1.61.72-2.15 0-.12.27-.12.39-.12.42 0 1.78.12 1.69.36-.2.51-.46 1.19-.76 1.9a18.88 18.88 0 0 0 2.27-.07c.2 0 .22.73 0 .7"/><path d="m109.71 27.41c-1.77 0-3.95 5.7-3.95 8.36 0 1.07.39 1.61 1.13 1.61 1.77 0 3.94-5.67 3.94-8.34 0-1.07-.39-1.63-1.13-1.63m-2.89 10.43c-1.58 0-2.9-1-2.9-3.43 0-3 2.49-7.46 5.9-7.46 1.58 0 2.87 1 2.87 3.46 0 3-2.49 7.43-5.87 7.43"/><path d="m129.32 20.76c-.71 0-.92 0-1.22.25-.46.31-.6.7-.65 3.11v2.46c2.44-3.17 3.34-4.63 3.34-5.17s-.42-.65-1.41-.65m9.09.83c-1 1-5.87 7.09-12.77 16.4-.12.17-.63 0-.63-.08.1-4.12.13-6.24.14-8.43-1.78 2.32-3.94 5.12-6.44 8.48-.12.17-.65 0-.65-.07.27-14.52.13-16.59-.39-17a8.28 8.28 0 0 0 -1.54-.39c-.17 0-.12-.34 0-.32a27.17 27.17 0 0 0 2.85.12 28.49 28.49 0 0 0 3.51-.12.16.16 0 0 1 0 .32 5.68 5.68 0 0 0 -1.29.26c-.39.21-.63.45-.71 3.32-.12 3.48-.2 7.18-.22 10.57 0 .07.11 0 .17 0 1.6-2 3.13-4.1 4.69-6.11 0-6.34-.14-7.38-.51-7.65a2.91 2.91 0 0 0 -1.15-.39c-.2 0-.13-.34 0-.32.66.08 2.41.12 5.65.12 2.49 0 4.78 0 5.46-.12.11 0 .21.3 0 .32a4 4 0 0 0 -2.54 1 68.53 68.53 0 0 0 -4.7 5.89c-.08 2.58-.09 4.37-.15 7.21 0 .07.13 0 .17 0 4.56-6 9.77-12.77 9.77-13.47 0-.29-.23-.49-1.58-.68-.19 0-.12-.34 0-.32a24 24 0 0 0 2.68.12 21 21 0 0 0 2.51-.12c.15 0 .22.3 0 .32a3.71 3.71 0 0 0 -2.36 1"/><path d="m139.05 27.41c-1.78 0-4 5.7-4 8.36 0 1.07.39 1.61 1.12 1.61 1.78 0 3.94-5.67 3.94-8.34 0-1.07-.38-1.63-1.12-1.63m-2.9 10.43c-1.59 0-2.89-1-2.89-3.43 0-3 2.48-7.46 5.89-7.46 1.58 0 2.87 1 2.87 3.46 0 3-2.48 7.43-5.87 7.43"/><path d="m150.53 29.9c-1.13 0-.6-1.39-1.28-1.39s-1.72 1.29-5 9c-.07.18-.68.23-1 .23s-1 0-.9-.23c1.51-4.09 2.56-7.33 2.56-8.21 0-.51-.13-.71-.39-.71-.76 0-1.78 2-2 2.12s-.19 0-.17-.07c.8-1.94 2.38-3.66 3.53-3.66.73 0 1 .66 1 1.42a20 20 0 0 1 -1.39 5.14c0 .1.24.14.24.1 1.91-4.63 3.27-6.72 4.84-6.72a1.25 1.25 0 0 1 1.3 1.21.75.75 0 0 1 0 .15c0 .85-.58 1.66-1.24 1.66"/><path d="m159.2 28.34c-1.36 0-4.74 2.44-6.21 4.53 2.44-.46 6.85-2.81 6.85-3.9a.56.56 0 0 0 -.5-.63.33.33 0 0 0 -.14 0m1.74 10.5a1.12 1.12 0 0 1 1 1.18 1.57 1.57 0 0 1 -1.56 1.59h-.15c-2.56 0-4-2-5.39-5.31-.75-1.85-1.09-2.34-1.75-2.68-.15-.07-.31-.07-.37 0-.46 1-1 2.78-1.41 3.8-.07.18-.52.23-1 .23s-1-.1-1-.23c2.32-6.06 4.34-11.59 5.92-16.15.36-1.1-.09-1.66-1.86-1.66a.15.15 0 0 1 -.1-.17.14.14 0 0 1 .1-.1c1.32-.17 4.34-.31 4.54-.31s.26.14.14.43c-2.24 5.68-3.65 9.29-4.46 11.47 0 .1.2.13.2.1 1.63-2.68 3.32-3.85 4.8-3.85a2 2 0 0 1 2 2v.15c0 2.12-3.07 4-7.56 3.75a5.55 5.55 0 0 1 4 3.44c1.28 3 2.3 4.53 3.88 4.53a1.71 1.71 0 0 1 -.79-1.3.92.92 0 0 1 .84-1"/><path d="m51.21 11.68v-4.9h-1.96v4.9h-1.86v-11.66h1.86v5.06h1.96v-5.06h1.86v11.66z"/><path d="m56.64 7.69c-.87.3-1.31.79-1.31 1.45v.67c0 .42.2.74.58.74a.78.78 0 0 0 .73-.81v-2zm1.49 4.13a1.13 1.13 0 0 1 -1.19-.91 1.65 1.65 0 0 1 -1.51.91c-1 0-1.65-.76-1.65-2v-.4c0-1.54 1.19-2.28 2.8-2.87v-1.35c0-.42-.17-.67-.58-.67s-.56.25-.56.7v.77h-1.36v-.7a1.93 1.93 0 0 1 1.72-2.14 1.31 1.31 0 0 1 .28 0c1.37 0 2 .95 2 2.28v4.79c0 .26.1.41.35.42v1.18z"/><path d="m64.33 11.68h-1.32l-.54-3.33-.21-1.73-.23 1.73-.54 3.33h-1.31l-1.46-8.41h1.53l.49 4.08.19 1.82.19-1.82.56-4.08h1.28l.51 4.08.21 1.82.19-1.82.53-4.08h1.41z"/><path d="m68.85 7.69c-.88.3-1.32.79-1.32 1.45v.67c0 .42.19.74.58.74a.78.78 0 0 0 .74-.82v-2zm1.49 4.13a1.11 1.11 0 0 1 -1.13-.91 1.65 1.65 0 0 1 -1.51.91c-1 0-1.65-.76-1.65-2v-.4c0-1.54 1.19-2.28 2.8-2.87v-1.35c0-.42-.18-.67-.58-.67s-.56.25-.56.7v.77h-1.42v-.7a1.93 1.93 0 0 1 1.71-2.14 1.3 1.3 0 0 1 .34 0c1.36 0 2 .95 2 2.28v4.79c0 .26.1.41.35.42v1.18z"/><path d="m71.43 2.21v-1.63h1.51v1.63zm0 9.47v-8.41h1.51v8.4z"/><path d="m74 2.21v-1.63h1.5v1.63zm0 9.47v-8.41h1.56v8.4z"/><path d="m80.09 7.32c0-.52-.27-.82-.72-.82h-.89v3.59h1c.44 0 .63-.26.63-.75v-2zm0-5c0-.49-.21-.75-.65-.75h-1v3.51h.88c.45 0 .72-.26.72-.81v-1.95zm-.42 9.31h-3v-11.63h3a2 2 0 0 1 2.24 1.72 1.63 1.63 0 0 1 0 .54v1.74a1.63 1.63 0 0 1 -1.16 1.75 1.64 1.64 0 0 1 1.19 1.75v1.9a2 2 0 0 1 -1.7 2.25 2 2 0 0 1 -.54 0z"/><path d="m85.85 11.68-.09-1a1.59 1.59 0 0 1 -1.49 1.16c-1 0-1.5-.74-1.5-1.84v-6.73h1.56v6.47a.65.65 0 0 0 .57.73c.44 0 .7-.54.7-.94v-6.26h1.6v8.4z"/><path d="m90.13 11.82a2 2 0 0 1 -2.2-1.82 2.08 2.08 0 0 1 0-.5v-.5h1.35v.63c0 .58.26.84.73.84a.66.66 0 0 0 .73-.58.43.43 0 0 0 0-.16c0-.77-.38-1.07-1.3-1.91a3.08 3.08 0 0 1 -1.44-2.48 2 2 0 0 1 1.78-2.2 1.38 1.38 0 0 1 .29 0 2 2 0 0 1 2 2 1.7 1.7 0 0 1 0 .22v.52h-1.3v-.65a.64.64 0 0 0 -.57-.72h-.15a.6.6 0 0 0 -.65.54v.12c0 .61.34 1 1.1 1.66a3.28 3.28 0 0 1 1.74 2.73 2.06 2.06 0 0 1 -1.85 2.25h-.26z"/><path d="m93 2.21v-1.63h1.49v1.63zm0 9.47v-8.41h1.56v8.4z"/><path d="m98.4 11.68v-6.42c0-.44-.25-.74-.6-.74s-.72.54-.72 1v6.22h-1.55v-8.47h1.41l.06 1.1a1.58 1.58 0 0 1 1.5-1.22c.94 0 1.49.73 1.49 1.84v6.69z"/><path d="m103.69 5.3c0-.47-.21-.78-.65-.78s-.67.32-.67.78v1.5h1.31v-1.5zm-.69 6.52a2.19 2.19 0 0 1 -2.18-2.18 1.27 1.27 0 0 1 0-.2v-3.91a2.19 2.19 0 0 1 2-2.37h.18a2.1 2.1 0 0 1 2.1 2.12 2.28 2.28 0 0 1 0 .26v2.15h-2.73v2c0 .45.23.77.67.77s.67-.31.67-.77v-1h1.4v.8a2.1 2.1 0 0 1 -1.81 2.35h-.27z"/><path d="m107.94 11.82a2 2 0 0 1 -2.17-1.82 1.84 1.84 0 0 1 0-.47v-.53h1.35v.63c0 .58.26.84.74.84a.67.67 0 0 0 .74-.57.48.48 0 0 0 0-.17c0-.77-.38-1.07-1.3-1.91a3.08 3.08 0 0 1 -1.45-2.5 2 2 0 0 1 1.78-2.2 1.38 1.38 0 0 1 .29 0 2 2 0 0 1 2 2 1.7 1.7 0 0 1 0 .22v.52h-1.29v-.63a.65.65 0 0 0 -.61-.71h-.09a.6.6 0 0 0 -.65.54v.12c0 .61.33 1 1.1 1.66a3.3 3.3 0 0 1 1.62 2.71 2.06 2.06 0 0 1 -1.84 2.26z"/><path d="m112.55 11.82a2 2 0 0 1 -2.16-1.82 1.76 1.76 0 0 1 0-.46v-.54h1.35v.63c0 .58.26.84.73.84a.67.67 0 0 0 .74-.57.48.48 0 0 0 0-.17c0-.77-.38-1.07-1.3-1.91a3.08 3.08 0 0 1 -1.45-2.5 2 2 0 0 1 1.78-2.2 1.38 1.38 0 0 1 .29 0 2 2 0 0 1 2 2 1.7 1.7 0 0 1 0 .22v.52h-1.29v-.63a.64.64 0 0 0 -.57-.72h-.15a.6.6 0 0 0 -.65.54v.12c0 .61.33 1 1.11 1.66a3.3 3.3 0 0 1 1.63 2.71 2.06 2.06 0 0 1 -1.85 2.25h-.25z"/><path d="m50.89 46.07c1.78 0 3.62.73 3.62 2.28 0 1.28-1.2 2-2.89 2.53-1.38.46-2.43 1-2.67 1.48h5.72v1.37h-7.81v-.73c.22-1.38 1.57-2.58 3.77-3.29 1.22-.41 2.16-.69 2.16-1.31s-1-1-1.95-1a3.69 3.69 0 0 0 -2.84 1.31l-1-.9a4.77 4.77 0 0 1 3.89-1.74z"/><path d="m55.72 50c0-2.48 1.71-3.95 4.52-3.95s4.53 1.47 4.53 3.95-1.71 4-4.53 4-4.52-1.51-4.52-4zm7.28 0c0-1.64-1.07-2.49-2.79-2.49s-2.8.85-2.8 2.49 1.07 2.49 2.8 2.49 2.79-.84 2.79-2.49z"/><path d="m67.82 48.17a5.26 5.26 0 0 1 -2.26.84v-1.43a5.48 5.48 0 0 0 2.67-1.29h1.29v7.44h-1.7z"/><path d="m73.05 48.17a5.26 5.26 0 0 1 -2.26.84v-1.43a5.48 5.48 0 0 0 2.67-1.29h1.29v7.44h-1.7z"/><path d="m76.5 51.21v-1.38h4.88v1.38z"/><path d="m86.28 46.07c1.78 0 3.62.73 3.62 2.28 0 1.28-1.2 2-2.89 2.53-1.39.46-2.43 1-2.67 1.48h5.72v1.37h-7.81v-.73c.21-1.38 1.57-2.58 3.77-3.29 1.22-.41 2.16-.69 2.16-1.31s-1-1-2-1a3.69 3.69 0 0 0 -2.81 1.29l-1-.9a4.76 4.76 0 0 1 3.91-1.72z"/><path d="m91.11 50c0-2.48 1.71-3.95 4.52-3.95s4.53 1.47 4.53 3.95-1.71 4-4.53 4-4.52-1.51-4.52-4zm7.31 0c0-1.64-1.06-2.49-2.78-2.49s-2.8.85-2.8 2.49 1.06 2.49 2.8 2.49 2.78-.84 2.78-2.49z"/><path d="m103.2 48.17a5.17 5.17 0 0 1 -2.2.83v-1.42a5.48 5.48 0 0 0 2.67-1.29h1.29v7.44h-1.76z"/><path d="m114.84 50c0 2.43-1.7 4-4.5 4a5.23 5.23 0 0 1 -3.76-1.28l1-1a3.69 3.69 0 0 0 2.59.95c1.69 0 2.92-.66 2.93-2.61a4.91 4.91 0 0 1 -3.27 1.12c-1.63 0-3.49-.7-3.49-2.47 0-1.53 1.47-2.63 4-2.63 2.8-.02 4.5 1.51 4.5 3.92zm-4.64-.08a4.38 4.38 0 0 0 2.8-.92c-.36-1.16-1.34-1.59-2.64-1.59s-2.28.43-2.28 1.33.92 1.19 2.12 1.19z"/></g></svg>