<svg id="Layer_1" data-name="Layer 1" xmlns="http://www.w3.org/2000/svg" viewBox="0 0 329.6 112.15"><defs><style>.cls-1,.cls-2{fill:#65666b;}.cls-2{font-size:17.41px;font-family:Helvetica-Bold, Helvetica;font-weight:700;}</style></defs><path class="cls-1" d="M25.51,42.39a5.9,5.9,0,0,0-2.76.37c-.43.24-.91.92-4.36,13,0,.34-.16.66.14.72a17,17,0,0,0,3.11.16c6.57,0,9-5.38,9-9.52a4.5,4.5,0,0,0-4.16-4.82h0a3.78,3.78,0,0,0-.95,0M21.05,57.92a17.55,17.55,0,0,0-2.9,0,.89.89,0,0,0-.57.73c-3.41,11.88-3.77,14.26-3.2,14.89s1.49.91,4.21.91a9.91,9.91,0,0,0,10.25-9.56h0V64.4c0-3.63-2.79-6.56-7.79-6.56m4.3-.88c-.18,0-.34.42,0,.42,6.19.77,8.55,4.07,8.55,7.79,0,5.12-5.75,10.49-15.37,10.49-1.37,0-3.43-.19-6-.19s-6.72,0-8.07.19a.32.32,0,1,1,0-.63,33.11,33.11,0,0,0,3.41-.54c.44-.17,1.05-1.48,5.22-16s4.34-15.87,4-16.06a14.47,14.47,0,0,0-3.05-.68c-.34,0-.22-.67,0-.63,1.33.16,5.19.24,7.79.24s3.39-.2,4.68-.2c5.71,0,8.89,2.75,8.89,6.7S31.6,55.63,25.31,57"/><path class="cls-1" d="M47.54,55.44c-2,0-4.2,3.17-6.13,8.88,6-.77,7.54-4.5,7.54-7.1,0-1.11-.44-1.78-1.41-1.78M41.18,65a14.59,14.59,0,0,0-1,5c0,2.14,1.11,3.55,2.85,3.55a10.18,10.18,0,0,0,6.68-3.69.24.24,0,0,1,.28,0,.23.23,0,0,1,0,.2c-1.68,3.1-5.45,6.09-8.59,6.09a5.16,5.16,0,0,1-5.61-4.66h0a6.61,6.61,0,0,1,0-1.09c0-6,5.75-15.87,12.14-15.87a3.86,3.86,0,0,1,4.3,3.33h0v.25C52.26,61.9,47,64.9,41,64.9"/><path class="cls-1" d="M64.74,59.78c-2.17,0-1.85-4-4.41-4a2.81,2.81,0,0,0-2.4,2.82c0,2.66,5.28,7.24,5.28,11a6.71,6.71,0,0,1-6.94,6.44h-.46c-3.47,0-5.35-2.32-5.35-3.83a2,2,0,0,1,2-2c2.42,0,2.14,4.74,5,4.74,1.55,0,2.6-1.63,2.6-3.43,0-3.19-5-6.49-5-10.73a6.82,6.82,0,0,1,7-6.43,4.22,4.22,0,0,1,4.6,3.4,2,2,0,0,1-2,1.86"/><path class="cls-1" d="M81.08,57.08c-1.71,0-1.85-.14-4.84-.14-1.69,4.45-3.77,9.92-5,13.35-.71,2.12-.2,2.8.44,2.8,1.78,0,5.47-4.49,6-4.49s.24,0,.14.24c-1.45,2.52-5.76,7.3-9,7.3-1.58,0-3-1.55-1.62-5C69,66.58,70.75,61.45,72.29,57a34.86,34.86,0,0,0-4,.14c-.42,0-.48-1.45,0-1.39,1.4,0,2.28.14,4.16.14.58-1.68,1.11-3.19,1.45-4.26,0-.24.53-.24.77-.24.83,0,3.53.24,3.33.73-.39,1-.91,2.36-1.5,3.77A35.3,35.3,0,0,0,81,55.71c.39,0,.43,1.45,0,1.39"/><path class="cls-1" d="M104.46,42.39a4.75,4.75,0,0,0-2.46.43c-.44.18-1.78,4.11-5.22,16.19,0,.37-.15.57.14.67a9.63,9.63,0,0,0,2.62.24,11.47,11.47,0,0,0,10.93-11.21,5.55,5.55,0,0,0-5.91-6.32M96.33,60.81C92.72,73.42,92.76,74.3,93.1,74.47s2.55.34,3.66.64c.4.1.24.67,0,.63-1.3-.15-4.48-.19-7.06-.19a53.51,53.51,0,0,0-5.94.19.32.32,0,1,1,0-.63,22,22,0,0,0,3.41-.62c.47-.23,1.11-1.48,5.25-16s4.3-15.87,4-16.06a14.2,14.2,0,0,0-3-.68c-.39,0-.23-.67,0-.63,1.29.16,4.68.24,7.26.24s3.67-.2,4.88-.2c6.23,0,10.09,3.15,10.09,7.93,0,7-8.74,13.39-19.39,11.74"/><path class="cls-1" d="M116.42,69.75c-1,2.76-.54,3.2.31,3.2a18.89,18.89,0,0,0,5.56-4.41s.33,0,.3.16c-.68,1.75-5.56,7.44-8.91,7.44-2.4,0-2.64-2.76-1.59-5.47,3-7.78,6.83-18.31,9.92-27.25.77-2.24-.2-3.29-3.67-3.29-.44,0-.36-.54,0-.58,2.58-.3,8.51-.59,9-.59s.53.27.27.87c-4.32,11.24-8.88,23.58-11.1,29.9"/><path class="cls-1" d="M137,56c-4.1,0-10.19,10.63-10.19,15,0,1.55.63,2.32,1.59,2.32A5.65,5.65,0,0,0,132,70.9a41,41,0,0,0,6.6-13.22A1.49,1.49,0,0,0,137.26,56a.66.66,0,0,0-.28,0m1,13.72c-1,2.62-.67,3.28.16,3.28,1.33,0,4-3.49,4.35-3.49a.16.16,0,0,1,.15.16h0C141,72.77,137.3,76,135,76a1.31,1.31,0,0,1-1.45-1.13v-.26a12.52,12.52,0,0,1,.72-3.63l1-3.09s-.44-.34-.54-.2c-3,5.14-5.95,8.33-8.65,8.33a3.76,3.76,0,0,1-3.76-3.77h0v-.2c0-7.19,8.64-16.87,14.26-16.87a4.67,4.67,0,0,1,2.45.63c.24.2.34.24.48,0,.62-.77,1.31-1.7,1.69-2.22s2.69.16,2.61.44Z"/><path class="cls-1" d="M158.34,59.6c-2.4,0-2-3.47-4.16-3.47-3.08,0-6.13,6.76-6.13,13.09,0,2.93,1.31,4.34,3.33,4.34s4-1.49,5.81-4c0-.14.44,0,.34.15a9.92,9.92,0,0,1-7.93,6.39c-3,0-5.76-1.78-5.76-6.33,0-6.18,5.95-15.27,12.84-15.27,2.95,0,4,1.79,4,2.8A2,2,0,0,1,159,59.58h0a1.51,1.51,0,0,1-.52,0"/><path class="cls-1" d="M171,55.44c-2,0-4.2,3.17-6.14,8.88,6-.77,7.55-4.5,7.55-7.1,0-1.11-.43-1.78-1.41-1.78M164.63,65a14.59,14.59,0,0,0-1,5c0,2.14,1.11,3.55,2.85,3.55a10.29,10.29,0,0,0,6.67-3.69c.13-.13.37,0,.27.24-1.68,3.1-5.45,6.09-8.6,6.09a5.16,5.16,0,0,1-5.48-4.82h0a4.82,4.82,0,0,1,0-.93c0-6,5.75-15.87,12.14-15.87A4,4,0,0,1,175.87,58h0c0,3.85-5.27,6.85-11.26,6.85"/><path class="cls-1" d="M188.21,59.78c-2.18,0-1.85-4-4.39-4a2.82,2.82,0,0,0-2.41,2.82c0,2.66,5.25,7.24,5.25,11a6.7,6.7,0,0,1-6.94,6.44h-.42c-3.47,0-5.35-2.32-5.35-3.83a2,2,0,0,1,2-2c2.42,0,2.12,4.74,5,4.74,1.55,0,2.58-1.63,2.58-3.43,0-3.19-5-6.49-5-10.73a6.85,6.85,0,0,1,7-6.43,4.17,4.17,0,0,1,4.58,3.4,2,2,0,0,1-2,1.86"/><path class="cls-1" d="M212.9,57.12c-1.71,0-1.85-.16-4.84-.16-1.69,4.47-3.77,9.92-5,13.35-.73,2.12-.2,2.8.44,2.8,1.78,0,5.45-4.51,6-4.51s.24,0,.16.24c-1.45,2.52-5.78,7.3-9,7.3-1.58,0-3.05-1.55-1.64-5,1.78-4.54,3.57-9.67,5.11-14.18a27.56,27.56,0,0,0-4,.16c-.44,0-.48-1.45.1-1.39,1.4,0,2.26.14,4.14.14.58-1.7,1.11-3.19,1.43-4.26,0-.24.53-.24.77-.24.83,0,3.53.24,3.35.71-.39,1-.91,2.36-1.5,3.77a35.61,35.61,0,0,0,4.5-.14c.39,0,.43,1.45,0,1.39"/><path class="cls-1" d="M221.82,55.48c-3.51,0-7.83,11.3-7.83,16.58,0,2.12.77,3.19,2.24,3.19,3.51,0,7.81-11.25,7.81-16.54,0-2.12-.77-3.23-2.24-3.23m-5.73,20.68c-3.13,0-5.75-2-5.75-6.8,0-6,4.94-14.8,11.7-14.8,3.13,0,5.69,2,5.69,6.87,0,5.94-4.94,14.73-11.64,14.73"/><path class="cls-1" d="M260.71,42.29c-1.41,0-1.82,0-2.42.49-.91.62-1.19,1.39-1.29,6.17v4.88c4.84-6.29,6.63-9.18,6.63-10.25s-.84-1.29-2.8-1.29m18,1.64c-2,2-11.64,14.06-25.33,32.53-.24.33-1.25,0-1.25-.16.2-8.17.26-12.38.28-16.72-3.53,4.6-7.81,10.15-12.77,16.82-.24.34-1.29,0-1.29-.14.54-28.8.26-32.9-.77-33.71a16.16,16.16,0,0,0-3.06-.78c-.33,0-.24-.67,0-.63a53.39,53.39,0,0,0,5.65.24,57.92,57.92,0,0,0,7-.24.32.32,0,0,1,0,.63,11.19,11.19,0,0,0-2.56.52c-.78.41-1.25.89-1.41,6.58-.24,6.9-.4,14.24-.44,21,0,.14.22,0,.34,0,3.17-4,6.21-8.13,9.3-12.11,0-12.58-.28-14.64-1-15.17a5.78,5.78,0,0,0-2.28-.78c-.4,0-.26-.67,0-.63,1.31.16,4.78.24,11.2.24,4.94,0,9.48,0,10.83-.24.22,0,.42.59,0,.63a7.91,7.91,0,0,0-5,2,136.27,136.27,0,0,0-9.32,11.68c-.15,5.11-.17,8.66-.29,14.29,0,.14.25,0,.33,0C266,57.84,276.32,44.41,276.32,43c0-.57-.46-1-3.13-1.35-.38,0-.24-.67,0-.63a47.07,47.07,0,0,0,5.31.24,41.42,41.42,0,0,0,5-.24c.3,0,.43.59,0,.63a7.36,7.36,0,0,0-4.68,2"/><path class="cls-1" d="M280,55.48c-3.53,0-7.93,11.3-7.93,16.58,0,2.12.77,3.19,2.22,3.19,3.53,0,7.81-11.25,7.81-16.54,0-2.12-.75-3.23-2.22-3.23m-5.75,20.68c-3.16,0-5.73-2-5.73-6.8,0-6,4.91-14.8,11.68-14.8,3.13,0,5.69,2,5.69,6.87,0,5.94-4.92,14.73-11.64,14.73"/><path class="cls-1" d="M302.77,60.41c-2.24,0-1.19-2.75-2.53-2.75s-3.42,2.56-9.92,17.85c-.14.35-1.35.45-2,.45s-2,0-1.79-.45c3-8.12,5.08-14.54,5.08-16.29,0-1-.26-1.4-.77-1.4-1.51,0-3.53,4-4,4.2s-.38,0-.34-.14c1.59-3.85,4.72-7.26,7-7.26,1.45,0,2,1.31,2,2.82a39.65,39.65,0,0,1-2.76,10.19c0,.2.48.28.48.2,3.78-9.18,6.48-13.33,9.59-13.33a2.48,2.48,0,0,1,2.58,2.38v0a1.5,1.5,0,0,1,0,.3c0,1.69-1.15,3.29-2.46,3.29"/><path class="cls-1" d="M320,57.32c-2.7,0-9.4,4.84-12.32,9,4.84-.91,13.59-5.57,13.59-7.73a1.11,1.11,0,0,0-1-1.25h0a.66.66,0,0,0-.28,0m3.45,20.82a2.22,2.22,0,0,1,2,2.34,3.12,3.12,0,0,1-3.07,3.16H322c-5.08,0-7.93-4-10.69-10.53-1.49-3.67-2.16-4.64-3.47-5.32-.3-.14-.61-.14-.73,0-.91,2-2,5.51-2.8,7.54-.14.35-1,.45-2,.45s-2-.19-2-.45c4.61-12,8.61-23,11.75-32,.71-2.18-.18-3.29-3.69-3.29a.3.3,0,0,1-.2-.34.27.27,0,0,1,.2-.2c2.61-.34,8.6-.61,9-.61s.52.27.28.85c-4.44,11.26-7.24,18.42-8.85,22.75,0,.19.4.25.4.19,3.23-5.31,6.58-7.63,9.52-7.63a4,4,0,0,1,4,4v.29c0,4.21-6.08,7.94-15,7.44a11,11,0,0,1,7.93,6.82c2.54,5.95,4.57,9,7.7,9A3.39,3.39,0,0,1,321.79,80a1.82,1.82,0,0,1,1.65-2h0"/><text class="cls-2" transform="translate(119.16 105.02)">2011-2022</text><polygon class="cls-1" points="111.65 24.22 111.65 15.48 108.14 15.48 108.14 24.22 104.84 24.22 104.84 3.44 108.14 3.44 108.14 12.45 111.65 12.45 111.65 3.44 114.95 3.44 114.95 24.22 111.65 24.22 111.65 24.22"/><path class="cls-1" d="M121.31,17.11c-1.55.52-2.33,1.4-2.33,2.5V21c0,.73.33,1.3,1,1.3a1.34,1.34,0,0,0,1.3-1.39V17.11ZM124,24.47a2,2,0,0,1-2-1.63,2.91,2.91,0,0,1-2.68,1.63c-1.75,0-2.93-1.35-2.93-3.66v-.7c0-2.75,2.13-4.05,5-5V12.68c0-.75-.3-1.2-1-1.2s-1,.45-1,1.25v1.32H116.8v-1.2A3.46,3.46,0,0,1,119.86,9a3.37,3.37,0,0,1,.55,0c2.5,0,3.58,1.68,3.58,4.06v8.53c0,.48.2.73.62.76v2.1Z"/><polygon class="cls-1" points="135.03 24.22 132.67 24.22 131.7 18.29 131.32 15.21 130.92 18.29 129.95 24.22 127.62 24.22 125.02 9.25 127.74 9.25 128.62 16.51 128.94 19.76 129.29 16.51 130.3 9.25 132.57 9.25 133.47 16.51 133.85 19.76 134.2 16.51 135.13 9.25 137.66 9.25 135.03 24.22 135.03 24.22"/><path class="cls-1" d="M143.06,17.11c-1.55.52-2.33,1.4-2.33,2.5V21c0,.73.33,1.3,1,1.3a1.35,1.35,0,0,0,1.31-1.39.13.13,0,0,1,0-.06Zm2.66,7.36a2,2,0,0,1-2-1.63,2.89,2.89,0,0,1-2.76,1.63c-1.75,0-2.92-1.35-2.92-3.66v-.7c0-2.75,2.1-4.05,5-5V12.68c0-.75-.32-1.2-1-1.2s-1,.45-1,1.25v1.32h-2.55v-1.2a3.46,3.46,0,0,1,3-3.81,4.1,4.1,0,0,1,.61,0c2.5,0,3.58,1.68,3.58,4.06v8.53c0,.48.2.73.62.76v2.1Z"/><path class="cls-1" d="M147.67,7.35V4.44h2.65V7.35Zm0,16.87V9.2h2.78v15Z"/><path class="cls-1" d="M152.27,7.35V4.44h2.66V7.35Zm0,16.87V9.2h2.78v15Z"/><path class="cls-1" d="M163.09,16.46c0-1-.45-1.48-1.28-1.48h-1.58v6.38H162c.77,0,1.1-.45,1.1-1.32Zm0-8.84c0-.87-.38-1.35-1.15-1.35h-1.68v6.18h1.55c.83,0,1.28-.45,1.28-1.42Zm-.75,16.6h-5.46V3.44h5.38a3.64,3.64,0,0,1,4,3.24,4.17,4.17,0,0,1,0,.79v3a2.84,2.84,0,0,1-2.05,3.12,2.94,2.94,0,0,1,2.13,3.13v3.46a3.63,3.63,0,0,1-3.19,4,3.22,3.22,0,0,1-.82,0Z"/><path class="cls-1" d="M173.47,24.22l-.15-1.8a2.8,2.8,0,0,1-2.65,2c-1.7,0-2.68-1.3-2.68-3.28V9.25h2.78V20.76a1.18,1.18,0,0,0,1,1.3h.06c.78,0,1.23-1,1.23-1.67V9.25h2.8v15Z"/><path class="cls-1" d="M181,24.47a3.68,3.68,0,0,1-3.83-4.06v-.9h2.51v1.13c0,1,.45,1.5,1.3,1.5a1.18,1.18,0,0,0,1.3-1,1.5,1.5,0,0,0,0-.3c0-1.37-.68-1.9-2.3-3.4A5.49,5.49,0,0,1,177.45,13,3.59,3.59,0,0,1,180.67,9L181,9a3.51,3.51,0,0,1,3.68,3.33,4,4,0,0,1,0,.6v.93h-2.33V12.73a1.14,1.14,0,0,0-1-1.28.92.92,0,0,0-.33,0,1.07,1.07,0,0,0-1.15,1,.74.74,0,0,0,0,.21c0,1.08.6,1.78,2,3a5.88,5.88,0,0,1,2.9,4.83,3.67,3.67,0,0,1-3.31,4Z"/><path class="cls-1" d="M186,7.35V4.44h2.75V7.35Zm0,16.87V9.2h2.8v15Z"/><path class="cls-1" d="M195.73,24.22V12.78c0-.78-.43-1.33-1-1.33s-1.28,1-1.28,1.68V24.22h-2.78V9.2h2.5l.18,2A2.83,2.83,0,0,1,195.8,9c1.7,0,2.66,1.31,2.66,3.28v12Z"/><path class="cls-1" d="M205.16,12.85c0-.82-.37-1.4-1.15-1.4s-1.2.58-1.2,1.4v2.66h2.35ZM204,24.47a3.88,3.88,0,0,1-3.9-3.86,2.61,2.61,0,0,1,0-.4V13.28A3.9,3.9,0,0,1,203.65,9L204,9a3.78,3.78,0,0,1,3.73,3.83,3.11,3.11,0,0,1,0,.43v3.83h-5v3.55c0,.8.42,1.38,1.2,1.38s1.17-.58,1.17-1.38V18.81h2.51v1.45a3.73,3.73,0,0,1-3.23,4.18Z"/><path class="cls-1" d="M212.65,24.47a3.63,3.63,0,0,1-3.83-4.06v-.9h2.5v1.13c0,1,.45,1.5,1.3,1.5a1.19,1.19,0,0,0,1.31-1,1,1,0,0,0,0-.3c0-1.37-.67-1.9-2.3-3.4a5.45,5.45,0,0,1-2.5-4.46A3.57,3.57,0,0,1,212.33,9a3.62,3.62,0,0,1,.47,0,3.51,3.51,0,0,1,3.5,3.51c0,.14,0,.28,0,.42v.93H214V12.73a1.16,1.16,0,0,0-1-1.28h-.27a1.07,1.07,0,0,0-1.15,1,.74.74,0,0,0,0,.21c0,1.08.6,1.78,2,3a5.91,5.91,0,0,1,2.9,4.83,3.67,3.67,0,0,1-3.31,4A3.24,3.24,0,0,1,212.65,24.47Z"/><path class="cls-1" d="M221,24.47a3.61,3.61,0,0,1-3.85-3.34,4.33,4.33,0,0,1,0-.72v-.9h2.51v1.13c0,1,.45,1.5,1.3,1.5a1.18,1.18,0,0,0,1.3-1,1.5,1.5,0,0,0,0-.3c0-1.37-.68-1.9-2.3-3.4A5.44,5.44,0,0,1,217.5,13,3.6,3.6,0,0,1,220.77,9L221,9a3.48,3.48,0,0,1,3.56,3.4,3.08,3.08,0,0,1,0,.53v.93h-2.3V12.73a1.15,1.15,0,0,0-1-1.27H221a1.07,1.07,0,0,0-1.15,1,.74.74,0,0,0,0,.21c0,1.08.6,1.78,2,3a5.86,5.86,0,0,1,2.88,4.83,3.65,3.65,0,0,1-3.26,4Z"/></svg>