<?xml version="1.0" encoding="utf-8"?>
<!-- Generator: Adobe Illustrator 28.3.0, SVG Export Plug-In . SVG Version: 6.00 Build 0)  -->
<svg version="1.1" id="Layer_1" xmlns="http://www.w3.org/2000/svg" xmlns:xlink="http://www.w3.org/1999/xlink" x="0px" y="0px"
	 viewBox="0 0 329.6 112.2" style="enable-background:new 0 0 329.6 112.2;" xml:space="preserve">
<style type="text/css">
	.st0{fill:#88201B;}
	.st1{fill:#ADAFB0;}
	.st2{font-family:'Helvetica-Bold';}
	.st3{font-size:17.41px;}
</style>
<path class="st0" d="M25.5,42.4c-0.9-0.1-1.9,0-2.8,0.4c-0.4,0.2-0.9,0.9-4.4,13c0,0.3-0.2,0.7,0.1,0.7c1,0.1,2.1,0.2,3.1,0.2
	c6.6,0,9-5.4,9-9.5c0.2-2.5-1.7-4.6-4.2-4.8l0,0l0,0C26.2,42.3,25.8,42.3,25.5,42.4 M21,57.9c-1-0.1-1.9-0.1-2.9,0
	c-0.3,0.1-0.5,0.4-0.6,0.7c-3.4,11.9-3.8,14.3-3.2,14.9s1.5,0.9,4.2,0.9c5.5,0.2,10.1-4.1,10.2-9.6l0,0l0,0v-0.5
	C28.8,60.8,26,57.8,21,57.9 M25.3,57c-0.2,0-0.3,0.4,0,0.4c6.2,0.8,8.5,4.1,8.5,7.8c0,5.1-5.8,10.5-15.4,10.5c-1.4,0-3.4-0.2-6-0.2
	s-6.7,0-8.1,0.2c-0.2,0-0.3-0.1-0.4-0.3c0-0.2,0.1-0.3,0.3-0.4h0.1c1.1-0.1,2.3-0.3,3.4-0.5c0.4-0.2,1.1-1.5,5.2-16s4.3-15.9,4-16.1
	c-1-0.3-2-0.6-3.1-0.7c-0.3,0-0.2-0.7,0-0.6c1.3,0.2,5.2,0.2,7.8,0.2s3.4-0.2,4.7-0.2c5.7,0,8.9,2.8,8.9,6.7S31.6,55.6,25.3,57"/>
<path class="st0" d="M47.5,55.4c-2,0-4.2,3.2-6.1,8.9c6-0.8,7.5-4.5,7.5-7.1C49,56.1,48.5,55.4,47.5,55.4 M41.2,65
	c-0.6,1.6-1,3.3-1,5c0,2.1,1.1,3.6,2.8,3.6c2.6-0.3,5-1.6,6.7-3.7c0.1-0.1,0.2-0.1,0.3,0c0,0.1,0,0.1,0,0.2
	c-1.7,3.1-5.5,6.1-8.6,6.1c-2.8,0.3-5.3-1.8-5.6-4.7l0,0c0-0.4,0-0.7,0-1.1c0-6,5.8-15.9,12.1-15.9c2.1-0.3,4,1.2,4.3,3.3l0,0V58
	c0,3.8-5.2,6.8-11.2,6.8"/>
<path class="st0" d="M64.7,59.8c-2.2,0-1.8-4-4.4-4c-1.4,0.2-2.4,1.4-2.4,2.8c0,2.7,5.3,7.2,5.3,11c-0.1,3.7-3.2,6.6-6.9,6.4h-0.5
	c-3.5,0-5.3-2.3-5.3-3.8c0-1.1,0.9-2,2-2c2.4,0,2.1,4.7,5,4.7c1.5,0,2.6-1.6,2.6-3.4c0-3.2-5-6.5-5-10.7c0.2-3.7,3.3-6.5,7-6.4
	c2.2-0.2,4.2,1.2,4.6,3.4c-0.1,1-0.9,1.9-2,1.9"/>
<path class="st0" d="M81.1,57.1c-1.7,0-1.8-0.1-4.8-0.1c-1.7,4.5-3.8,9.9-5,13.3c-0.7,2.1-0.2,2.8,0.4,2.8c1.8,0,5.5-4.5,6-4.5
	s0.2,0,0.1,0.2c-1.4,2.5-5.8,7.3-9,7.3c-1.6,0-3-1.6-1.6-5c1.8-4.6,3.5-9.7,5.1-14.1c-1.3,0-2.7,0-4,0.1c-0.4,0-0.5-1.5,0-1.4
	c1.4,0,2.3,0.1,4.2,0.1c0.6-1.7,1.1-3.2,1.4-4.3c0-0.2,0.5-0.2,0.8-0.2c0.8,0,3.5,0.2,3.3,0.7c-0.4,1-0.9,2.4-1.5,3.8
	c1.5,0,3,0,4.5-0.2C81.4,55.7,81.4,57.2,81.1,57.1"/>
<path class="st0" d="M104.5,42.4c-0.8-0.1-1.7,0.1-2.5,0.4c-0.4,0.2-1.8,4.1-5.2,16.2c0,0.4-0.2,0.6,0.1,0.7
	c0.9,0.2,1.7,0.3,2.6,0.2c6-0.3,10.8-5.2,10.9-11.2c0.4-3-1.7-5.8-4.7-6.3C105.4,42.4,105,42.4,104.5,42.4 M96.3,60.8
	c-3.6,12.6-3.6,13.5-3.2,13.7s2.6,0.3,3.7,0.6c0.4,0.1,0.2,0.7,0,0.6c-1.3-0.2-4.5-0.2-7.1-0.2c-2,0-4,0-5.9,0.2
	c-0.2,0-0.3-0.1-0.4-0.3c0-0.2,0.1-0.3,0.3-0.4h0.1c1.2-0.1,2.3-0.3,3.4-0.6c0.5-0.2,1.1-1.5,5.2-16s4.3-15.9,4-16.1
	c-1-0.3-2-0.6-3-0.7c-0.4,0-0.2-0.7,0-0.6c1.3,0.2,4.7,0.2,7.3,0.2s3.7-0.2,4.9-0.2c6.2,0,10.1,3.2,10.1,7.9
	C115.7,56.1,106.9,62.5,96.3,60.8"/>
<path class="st0" d="M116.4,69.8c-1,2.8-0.5,3.2,0.3,3.2c2.1-1.1,4-2.6,5.6-4.4c0,0,0.3,0,0.3,0.2c-0.7,1.8-5.6,7.4-8.9,7.4
	c-2.4,0-2.6-2.8-1.6-5.5c3-7.8,6.8-18.3,9.9-27.2c0.8-2.2-0.2-3.3-3.7-3.3c-0.4,0-0.4-0.5,0-0.6c2.6-0.3,8.5-0.6,9-0.6
	s0.5,0.3,0.3,0.9C123.3,51.1,118.7,63.4,116.4,69.8"/>
<path class="st0" d="M137,56c-4.1,0-10.2,10.6-10.2,15c0,1.6,0.6,2.3,1.6,2.3c1.5-0.3,2.8-1.2,3.6-2.4c3-4,5.2-8.4,6.6-13.2
	c0.1-0.8-0.5-1.6-1.3-1.7c0,0,0,0-0.1,0C137.2,56,137.1,56,137,56 M138,69.7c-1,2.6-0.7,3.3,0.2,3.3c1.3,0,4-3.5,4.4-3.5
	c0.1,0,0.2,0.1,0.1,0.2l0,0c-1.6,3.1-5.3,6.3-7.6,6.3c-0.7,0.1-1.4-0.4-1.4-1.1v-0.3c0.1-1.2,0.3-2.5,0.7-3.6l1-3.1
	c0,0-0.4-0.3-0.5-0.2c-3,5.1-5.9,8.3-8.7,8.3c-2.1,0-3.8-1.7-3.8-3.8l0,0l0,0V72c0-7.2,8.6-16.9,14.3-16.9c0.9,0,1.7,0.2,2.4,0.6
	c0.2,0.2,0.3,0.2,0.5,0c0.6-0.8,1.3-1.7,1.7-2.2s2.7,0.2,2.6,0.4L138,69.7z"/>
<path class="st0" d="M158.3,59.6c-2.4,0-2-3.5-4.2-3.5c-3.1,0-6.1,6.8-6.1,13.1c0,2.9,1.3,4.3,3.3,4.3s4-1.5,5.8-4
	c0-0.1,0.4,0,0.3,0.2c-1.3,3.4-4.3,5.9-7.9,6.4c-3,0-5.8-1.8-5.8-6.3c0-6.2,5.9-15.3,12.8-15.3c2.9,0,4,1.8,4,2.8
	c0.2,1.1-0.6,2.1-1.7,2.3l0,0l0,0C158.6,59.6,158.5,59.6,158.3,59.6"/>
<path class="st0" d="M171,55.4c-2,0-4.2,3.2-6.1,8.9c6-0.8,7.6-4.5,7.6-7.1C172.4,56.1,172,55.4,171,55.4 M164.6,65
	c-0.6,1.6-1,3.3-1,5c0,2.1,1.1,3.6,2.9,3.6c2.6-0.3,5-1.7,6.7-3.7c0.1-0.1,0.4,0,0.3,0.2c-1.7,3.1-5.4,6.1-8.6,6.1
	c-2.8,0.2-5.3-2-5.5-4.8l0,0l0,0c0-0.3,0-0.6,0-0.9c0-6,5.8-15.9,12.1-15.9c2.1-0.2,4.1,1.3,4.4,3.4l0,0c0,3.8-5.3,6.8-11.3,6.8"/>
<path class="st0" d="M188.2,59.8c-2.2,0-1.9-4-4.4-4c-1.4,0.2-2.4,1.4-2.4,2.8c0,2.7,5.2,7.2,5.2,11c-0.1,3.7-3.2,6.6-6.9,6.4h-0.4
	c-3.5,0-5.4-2.3-5.4-3.8c0-1.1,0.9-2,2-2c2.4,0,2.1,4.7,5,4.7c1.6,0,2.6-1.6,2.6-3.4c0-3.2-5-6.5-5-10.7c0.2-3.7,3.3-6.5,7-6.4
	c2.2-0.3,4.2,1.2,4.6,3.4c-0.1,1-0.9,1.9-2,1.9"/>
<path class="st0" d="M212.9,57.1c-1.7,0-1.9-0.2-4.8-0.2c-1.7,4.5-3.8,9.9-5,13.3c-0.7,2.1-0.2,2.8,0.4,2.8c1.8,0,5.4-4.5,6-4.5
	s0.2,0,0.2,0.2c-1.4,2.5-5.8,7.3-9,7.3c-1.6,0-3.1-1.6-1.6-5c1.8-4.5,3.6-9.7,5.1-14.2c-1.3,0-2.7,0-4,0.2c-0.4,0-0.5-1.5,0.1-1.4
	c1.4,0,2.3,0.1,4.1,0.1c0.6-1.7,1.1-3.2,1.4-4.3c0-0.2,0.5-0.2,0.8-0.2c0.8,0,3.5,0.2,3.4,0.7c-0.4,1-0.9,2.4-1.5,3.8
	c1.5,0,3,0,4.5-0.1C213.3,55.7,213.4,57.2,212.9,57.1"/>
<path class="st0" d="M221.8,55.5c-3.5,0-7.8,11.3-7.8,16.6c0,2.1,0.8,3.2,2.2,3.2c3.5,0,7.8-11.2,7.8-16.5
	C224,56.6,223.3,55.5,221.8,55.5 M216.1,76.2c-3.1,0-5.8-2-5.8-6.8c0-6,4.9-14.8,11.7-14.8c3.1,0,5.7,2,5.7,6.9
	C227.7,67.4,222.8,76.2,216.1,76.2"/>
<path class="st0" d="M260.7,42.3c-1.4,0-1.8,0-2.4,0.5c-0.9,0.6-1.2,1.4-1.3,6.2v4.9c4.8-6.3,6.6-9.2,6.6-10.2s-0.8-1.3-2.8-1.3
	 M278.8,43.9c-2,2-11.6,14.1-25.3,32.5c-0.2,0.3-1.2,0-1.2-0.2c0.2-8.2,0.3-12.4,0.3-16.7c-3.5,4.6-7.8,10.2-12.8,16.8
	c-0.2,0.3-1.3,0-1.3-0.1c0.5-28.8,0.3-32.9-0.8-33.7c-1-0.4-2-0.6-3.1-0.8c-0.3,0-0.2-0.7,0-0.6c1.9,0.2,3.8,0.3,5.6,0.2
	c2.3,0.1,4.7,0,7-0.2c0.2,0,0.3,0.2,0.3,0.4c0,0.1-0.1,0.2-0.3,0.3c-0.9,0.1-1.7,0.2-2.6,0.5c-0.8,0.4-1.2,0.9-1.4,6.6
	c-0.2,6.9-0.4,14.2-0.4,21c0,0.1,0.2,0,0.3,0c3.2-4,6.2-8.1,9.3-12.1c0-12.6-0.3-14.6-1-15.2c-0.7-0.4-1.5-0.7-2.3-0.8
	c-0.4,0-0.3-0.7,0-0.6c1.3,0.2,4.8,0.2,11.2,0.2c4.9,0,9.5,0,10.8-0.2c0.2,0,0.4,0.6,0,0.6c-1.8,0.1-3.6,0.8-5,2
	c-3.3,3.7-6.4,7.6-9.3,11.7c-0.1,5.1-0.2,8.7-0.3,14.3c0,0.1,0.2,0,0.3,0c9-11.9,19.3-25.4,19.3-26.8c0-0.6-0.5-1-3.1-1.3
	c-0.4,0-0.2-0.7,0-0.6c1.8,0.2,3.5,0.3,5.3,0.2c1.7,0,3.3-0.1,5-0.2c0.3,0,0.4,0.6,0,0.6c-1.7,0.1-3.4,0.8-4.7,2"/>
<path class="st0" d="M280,55.5c-3.5,0-7.9,11.3-7.9,16.6c0,2.1,0.8,3.2,2.2,3.2c3.5,0,7.8-11.2,7.8-16.5c0-2.1-0.8-3.2-2.2-3.2
	 M274.1,76.2c-3.2,0-5.7-2-5.7-6.8c0-6,4.9-14.8,11.7-14.8c3.1,0,5.7,2,5.7,6.9C285.8,67.4,280.8,76.2,274.1,76.2"/>
<path class="st0" d="M302.8,60.4c-2.2,0-1.2-2.8-2.5-2.8s-3.4,2.6-9.9,17.9c-0.1,0.3-1.4,0.4-2,0.4s-2,0-1.8-0.4
	c3-8.1,5.1-14.5,5.1-16.3c0-1-0.3-1.4-0.8-1.4c-1.5,0-3.5,4-4,4.2s-0.4,0-0.3-0.1c1.6-3.8,4.7-7.3,7-7.3c1.5,0,2,1.3,2,2.8
	c-0.5,3.5-1.4,6.9-2.8,10.2c0,0.2,0.5,0.3,0.5,0.2c3.8-9.2,6.5-13.3,9.6-13.3c1.4-0.1,2.5,1,2.6,2.4l0,0l0,0c0,0.1,0,0.2,0,0.3
	c0,1.7-1.1,3.3-2.5,3.3"/>
<path class="st0" d="M320,57.3c-2.7,0-9.4,4.8-12.3,9c4.8-0.9,13.6-5.6,13.6-7.7c0.1-0.6-0.3-1.2-1-1.2l0,0l0,0
	C320.2,57.3,320.1,57.3,320,57.3 M323.4,78.2c1.2,0.1,2.1,1.1,2,2.3c0,1.7-1.4,3.1-3.1,3.2H322c-5.1,0-7.9-4-10.7-10.5
	c-1.5-3.7-2.2-4.6-3.5-5.3c-0.3-0.1-0.6-0.1-0.7,0c-0.9,2-2,5.5-2.8,7.5c-0.1,0.3-1,0.4-2,0.4s-2-0.2-2-0.4c4.6-12,8.6-23,11.8-32
	c0.7-2.2-0.2-3.3-3.7-3.3c-0.1,0-0.2-0.2-0.2-0.3s0.1-0.2,0.2-0.2c2.6-0.3,8.6-0.6,9-0.6s0.5,0.3,0.3,0.8
	c-4.4,11.3-7.2,18.4-8.9,22.8c0,0.2,0.4,0.2,0.4,0.2c3.2-5.3,6.6-7.6,9.5-7.6c2.2,0,4,1.8,4,4v0.3c0,4.2-6.1,7.9-15,7.4
	c3.6,0.8,6.6,3.4,7.9,6.8c2.5,5.9,4.6,9,7.7,9c-0.9-0.6-1.5-1.5-1.6-2.6c-0.1-1,0.6-1.9,1.6-2l0,0l0,0"/>
<text transform="matrix(1 0 0 1 119.16 105.02)" class="st1 st2 st3">2011-2024</text>
<polygon class="st0" points="111.7,24.2 111.7,15.5 108.1,15.5 108.1,24.2 104.8,24.2 104.8,3.4 108.1,3.4 108.1,12.4 111.7,12.4 
	111.7,3.4 114.9,3.4 114.9,24.2 "/>
<path class="st0" d="M121.3,17.1c-1.6,0.5-2.3,1.4-2.3,2.5V21c0,0.7,0.3,1.3,1,1.3s1.3-0.6,1.3-1.4l0,0V17.1L121.3,17.1z M124,24.5
	c-1,0-1.8-0.7-2-1.6c-0.5,1-1.5,1.7-2.7,1.6c-1.8,0-2.9-1.4-2.9-3.7v-0.7c0-2.8,2.1-4.1,5-5v-2.4c0-0.8-0.3-1.2-1-1.2s-1,0.4-1,1.2
	V14h-2.6v-1.2c-0.2-1.9,1.1-3.6,3-3.8l0,0c0.2,0,0.4,0,0.6,0c2.5,0,3.6,1.7,3.6,4.1v8.5c0,0.5,0.2,0.7,0.6,0.8v2.1L124,24.5z"/>
<polygon class="st0" points="135,24.2 132.7,24.2 131.7,18.3 131.3,15.2 130.9,18.3 129.9,24.2 127.6,24.2 125,9.2 127.7,9.2 
	128.6,16.5 128.9,19.8 129.3,16.5 130.3,9.2 132.6,9.2 133.5,16.5 133.9,19.8 134.2,16.5 135.1,9.2 137.7,9.2 "/>
<path class="st0" d="M143.1,17.1c-1.6,0.5-2.3,1.4-2.3,2.5V21c0,0.7,0.3,1.3,1,1.3s1.3-0.6,1.3-1.4l0,0c0,0,0,0,0-0.1V17.1z
	 M145.7,24.5c-1,0-1.8-0.7-2-1.6c-0.5,1.1-1.6,1.7-2.8,1.6c-1.8,0-2.9-1.4-2.9-3.7v-0.7c0-2.8,2.1-4,5-5v-2.4c0-0.8-0.3-1.2-1-1.2
	s-1,0.4-1,1.2V14h-2.6v-1.2c-0.2-1.9,1.1-3.6,3-3.8c0.2,0,0.4,0,0.6,0c2.5,0,3.6,1.7,3.6,4.1v8.5c0,0.5,0.2,0.7,0.6,0.8v2.1
	L145.7,24.5z"/>
<path class="st0" d="M147.7,7.3V4.4h2.6v2.9H147.7z M147.7,24.2v-15h2.8v15H147.7z"/>
<path class="st0" d="M152.3,7.3V4.4h2.7v2.9H152.3z M152.3,24.2v-15h2.8v15H152.3z"/>
<path class="st1" d="M163.1,16.5c0-1-0.4-1.5-1.3-1.5h-1.6v6.4h1.8c0.8,0,1.1-0.5,1.1-1.3V16.5z M163.1,7.6c0-0.9-0.4-1.3-1.1-1.3
	h-1.7v6.2h1.6c0.8,0,1.3-0.4,1.3-1.4L163.1,7.6z M162.3,24.2h-5.5V3.4h5.4c2-0.2,3.8,1.2,4,3.2c0,0.3,0,0.5,0,0.8v3
	c0.2,1.4-0.7,2.7-2.1,3.1c1.4,0.4,2.3,1.7,2.1,3.1v3.5c0.2,2-1.2,3.8-3.2,4C162.9,24.2,162.6,24.2,162.3,24.2L162.3,24.2z"/>
<path class="st1" d="M173.5,24.2l-0.1-1.8c-0.4,1.2-1.4,2-2.6,2c-1.7,0-2.7-1.3-2.7-3.3V9.2h2.8v11.5c-0.1,0.6,0.4,1.2,1,1.3h0.1
	c0.8,0,1.2-1,1.2-1.7V9.2h2.8v15H173.5z"/>
<path class="st1" d="M181,24.5c-2,0.1-3.8-1.5-3.8-3.5c0-0.2,0-0.4,0-0.6v-0.9h2.5v1.1c0,1,0.4,1.5,1.3,1.5c0.6,0.1,1.2-0.4,1.3-1
	c0-0.1,0-0.2,0-0.3c0-1.4-0.7-1.9-2.3-3.4c-1.5-1-2.5-2.6-2.5-4.4c-0.2-2,1.2-3.8,3.1-4h0.1h0.3c1.9-0.1,3.6,1.4,3.7,3.3
	c0,0.2,0,0.4,0,0.6v0.9h-2.3v-1.1c0.1-0.6-0.4-1.2-1-1.3l0,0c-0.1,0-0.2,0-0.3,0c-0.6,0-1.1,0.4-1.1,1l0,0c0,0.1,0,0.1,0,0.2
	c0,1.1,0.6,1.8,2,3c1.7,1,2.8,2.8,2.9,4.8c0.2,2-1.3,3.8-3.3,4l0,0L181,24.5z"/>
<path class="st1" d="M186,7.3V4.4h2.8v2.9H186z M186,24.2v-15h2.8v15H186z"/>
<path class="st1" d="M195.7,24.2V12.8c0-0.8-0.4-1.3-1-1.3s-1.3,1-1.3,1.7v11.1h-2.8v-15h2.5l0.2,2c0.3-1.2,1.2-2.1,2.5-2.2
	c1.7,0,2.7,1.3,2.7,3.3v12L195.7,24.2z"/>
<path class="st1" d="M205.2,12.9c0-0.8-0.4-1.4-1.1-1.4s-1.2,0.6-1.2,1.4v2.7h2.4L205.2,12.9z M204,24.5c-2.1,0-3.9-1.7-3.9-3.9l0,0
	c0-0.1,0-0.3,0-0.4v-6.9c-0.2-2.1,1.3-4.1,3.5-4.3c0,0,0,0,0.1,0h0.4c2.1,0,3.8,1.7,3.7,3.8l0,0c0,0.1,0,0.3,0,0.4V17h-5v3.5
	c0,0.8,0.4,1.4,1.2,1.4s1.2-0.6,1.2-1.4v-1.8h2.5v1.5c0.3,2-1.2,3.9-3.2,4.2l0,0L204,24.5z"/>
<path class="st1" d="M212.6,24.5c-2,0.1-3.7-1.4-3.8-3.4c0-0.2,0-0.4,0-0.7v-0.9h2.5v1.1c0,1,0.4,1.5,1.3,1.5c0.6,0.1,1.2-0.4,1.3-1
	c0-0.1,0-0.2,0-0.3c0-1.4-0.7-1.9-2.3-3.4c-1.5-1-2.5-2.7-2.5-4.5c-0.2-2,1.2-3.7,3.1-4h0.1c0.2,0,0.3,0,0.5,0
	c1.9,0,3.5,1.6,3.5,3.5c0,0.1,0,0.3,0,0.4v0.9H214v-1.1c0.1-0.6-0.4-1.2-1-1.3h-0.3c-0.6,0-1.1,0.4-1.1,1l0,0c0,0.1,0,0.1,0,0.2
	c0,1.1,0.6,1.8,2,3c1.7,1,2.8,2.8,2.9,4.8c0.2,2-1.3,3.8-3.3,4l0,0C213,24.5,212.8,24.5,212.6,24.5z"/>
<path class="st1" d="M221,24.5c-2,0.1-3.7-1.4-3.9-3.3c0-0.2,0-0.5,0-0.7v-0.9h2.5v1.1c0,1,0.4,1.5,1.3,1.5c0.6,0.1,1.2-0.4,1.3-1
	c0-0.1,0-0.2,0-0.3c0-1.4-0.7-1.9-2.3-3.4c-1.5-1-2.4-2.6-2.5-4.4c-0.2-2,1.2-3.8,3.2-4h0.1h0.2c1.9,0,3.5,1.5,3.6,3.4l0,0
	c0,0.2,0,0.4,0,0.5v0.9h-2.3v-1.1c0.1-0.6-0.4-1.2-1-1.3H221c-0.6,0-1.1,0.4-1.1,1l0,0c0,0.1,0,0.1,0,0.2c0,1.1,0.6,1.8,2,3
	c1.7,1,2.8,2.8,2.9,4.8c0.2,2-1.3,3.8-3.3,4H221z"/>
</svg>
