<?xml version="1.0" encoding="utf-8"?>
<!-- Generator: Adobe Illustrator 23.0.2, SVG Export Plug-In . SVG Version: 6.00 Build 0)  -->
<svg version="1.1" id="Layer_1" xmlns="http://www.w3.org/2000/svg" xmlns:xlink="http://www.w3.org/1999/xlink" x="0px" y="0px"
	 viewBox="0 0 162 58.8" style="enable-background:new 0 0 162 58.8;" xml:space="preserve">
<style type="text/css">
	.st0{fill:#88201B;}
	.st1{fill:#ACAEB0;}
</style>
<title>Asset 1</title>
<g>
	<g id="Layer_1-2">
		<path class="st0" d="M10.8,20.8c-0.5,0-0.9,0-1.4,0.2c-0.2,0.1-0.5,0.5-2.2,6.6c0,0.2-0.1,0.3,0.1,0.4C7.8,28,8.3,28,8.8,28
			c3.3,0,4.5-2.7,4.5-4.8c0.1-1.3-0.9-2.3-2.1-2.4C11.1,20.8,10.9,20.8,10.8,20.8 M8.5,28.6c-0.5,0-1,0-1.5,0
			c-0.2,0.1-0.3,0.2-0.3,0.4c-1.7,6-1.9,7.2-1.6,7.5S5.9,37,7.3,37c2.8,0.1,5.1-2.1,5.2-4.8c0-0.1,0-0.2,0-0.2
			C12.5,30.1,11,28.6,8.5,28.6 M10.7,28.1c-0.1,0-0.2,0.2,0,0.2c3.1,0.4,4.3,2,4.3,3.9c0,2.6-2.9,5.3-7.8,5.3c-0.7,0-1.7-0.1-3-0.1
			s-3.4,0-4.1,0.1c-0.1,0-0.2-0.3,0-0.3c0.6-0.1,1.2-0.1,1.7-0.2c0.2-0.1,0.5-0.8,2.6-8.1s2.2-8,2-8.1c-0.5-0.2-1-0.3-1.5-0.3
			c-0.2,0-0.1-0.3,0-0.3c0.7,0.1,2.6,0.1,3.9,0.1s1.7-0.1,2.4-0.1c2.9,0,4.5,1.4,4.5,3.4S13.9,27.5,10.7,28.1"/>
		<path class="st0" d="M21.9,27.4c-1,0-2.1,1.6-3.1,4.5c3-0.4,3.8-2.3,3.8-3.6C22.6,27.7,22.4,27.4,21.9,27.4 M18.7,32.2
			c-0.3,0.8-0.5,1.7-0.5,2.5c0,1.1,0.6,1.8,1.4,1.8c1.3-0.2,2.5-0.8,3.4-1.9c0,0,0.1,0,0.1,0c0,0,0,0.1,0,0.1
			c-0.9,1.6-2.8,3.1-4.3,3.1c-1.4,0.1-2.7-0.9-2.8-2.4c0-0.2,0-0.4,0-0.5c0-3,2.9-8,6.1-8c1.1-0.1,2,0.6,2.2,1.7c0,0,0,0.1,0,0.1
			C24.3,30.7,21.6,32.2,18.7,32.2"/>
		<path class="st0" d="M30.6,29.6c-1.1,0-0.9-2-2.2-2c-0.7,0.1-1.3,0.8-1.2,1.5c0,1.3,2.7,3.7,2.7,5.5c-0.1,1.9-1.6,3.3-3.5,3.3
			c-0.1,0-0.1,0-0.2,0c-1.8,0-2.7-1.2-2.7-1.9c0-0.6,0.4-1,1-1c1.2,0,1.1,2.4,2.5,2.4c0.8,0,1.3-0.8,1.3-1.7c0-1.6-2.5-3.3-2.5-5.4
			c0.1-1.9,1.7-3.3,3.5-3.2c1.1-0.1,2.1,0.6,2.3,1.7C31.5,29.1,31.1,29.5,30.6,29.6"/>
		<path class="st0" d="M38.8,28.2c-0.9,0-0.9-0.1-2.4-0.1c-0.8,2.2-1.9,5-2.5,6.7c-0.4,1.1-0.1,1.4,0.2,1.4c0.9,0,2.8-2.3,3-2.3
			s0.1,0,0.1,0.1c-0.7,1.3-2.9,3.7-4.5,3.7c-0.8,0-1.5-0.8-0.8-2.5c0.9-2.3,1.8-4.9,2.6-7.1c-1,0-1.2,0-2,0.1c-0.2,0-0.2-0.7,0-0.7
			c0.7,0,1.2,0.1,2.1,0.1c0.3-0.9,0.6-1.6,0.7-2.1c0-0.1,0.3-0.1,0.4-0.1c0.4,0,1.8,0.1,1.7,0.4c-0.2,0.5-0.5,1.2-0.8,1.9
			c1.4,0,1.4,0,2.3-0.1C39,27.5,39,28.2,38.8,28.2"/>
		<path class="st0" d="M50.6,20.8c-0.4,0-0.9,0-1.2,0.2c-0.2,0.1-0.9,2.1-2.6,8.2c0,0.2-0.1,0.3,0.1,0.3c0.4,0.1,0.9,0.1,1.3,0.1
			c3-0.1,5.4-2.6,5.5-5.6c0.2-1.6-1-3-2.6-3.2C50.9,20.8,50.8,20.8,50.6,20.8 M46.5,30.1c-1.8,6.4-1.8,6.8-1.6,6.9s1.3,0.2,1.8,0.3
			c0.2,0,0.1,0.3,0,0.3c-0.7-0.1-2.3-0.1-3.6-0.1c-1,0-2,0-3,0.1c-0.1,0-0.2-0.3,0-0.3c0.6,0,1.2-0.1,1.7-0.3
			c0.2-0.1,0.6-0.8,2.7-8.1s2.2-8,2-8.1c-0.5-0.2-1-0.3-1.5-0.3c-0.2,0-0.1-0.3,0-0.3c0.7,0.1,2.4,0.1,3.7,0.1s1.8-0.1,2.5-0.1
			c3.1,0,5.1,1.6,5.1,4C56.2,27.7,51.8,31,46.5,30.1"/>
		<path class="st0" d="M56.6,34.6c-0.5,1.4-0.3,1.6,0.2,1.6s2.3-1.6,2.8-2.2c0,0,0.2,0,0.2,0.1c-0.3,0.9-2.8,3.8-4.5,3.8
			c-1.2,0-1.3-1.4-0.8-2.8c1.5-3.9,3.4-9.2,5-13.7c0.4-1.1-0.1-1.7-1.8-1.7c-0.2,0-0.2-0.3,0-0.3c1.3-0.1,4.3-0.3,4.5-0.3
			s0.3,0.1,0.1,0.4C60,25.2,57.8,31.4,56.6,34.6"/>
		<path class="st0" d="M67,27.7c-2.1,0-5.1,5.4-5.1,7.6c0,0.8,0.3,1.2,0.8,1.2s1.1-0.4,1.8-1.2c1.5-2,2.6-4.3,3.3-6.7
			c0-0.4-0.3-0.8-0.7-0.8C67.1,27.7,67,27.7,67,27.7 M67.5,34.6c-0.5,1.3-0.3,1.7,0.1,1.7c0.7,0,1.9-1.8,2.2-1.8c0,0,0.1,0,0.1,0.1
			c0,0,0,0,0,0c-0.8,1.6-2.7,3.2-3.8,3.2c-0.4,0-0.7-0.2-0.7-0.6c0,0,0-0.1,0-0.1c0-0.6,0.2-1.2,0.4-1.8l0.5-1.6
			c0,0-0.2-0.2-0.3-0.1c-1.5,2.6-3,4.2-4.4,4.2c-1,0-1.9-0.8-1.9-1.9c0,0,0-0.1,0-0.1c0-3.6,4.4-8.5,7.2-8.5c0.4,0,0.9,0.1,1.2,0.3
			c0.1,0.1,0.2,0.1,0.2,0c0.3-0.4,0.7-0.9,0.8-1.1s1.4,0.1,1.3,0.2L67.5,34.6z"/>
		<path class="st0" d="M77.8,29.5c-1.2,0-1-1.8-2.1-1.8c-1.6,0-3.1,3.4-3.1,6.6c0,1.5,0.7,2.2,1.7,2.2s2-0.8,2.9-2
			c0-0.1,0.2,0,0.2,0.1c-0.6,1.7-2.2,3-4,3.2c-1.5,0-2.9-0.9-2.9-3.2c0-3.1,3-7.7,6.5-7.7c1.5,0,2,0.9,2,1.4
			c0.1,0.5-0.3,1.1-0.8,1.1C78,29.5,77.9,29.5,77.8,29.5"/>
		<path class="st0" d="M84.1,27.4c-1,0-2.1,1.6-3.1,4.5c3-0.4,3.8-2.3,3.8-3.6C84.8,27.7,84.6,27.4,84.1,27.4 M80.9,32.2
			c-0.3,0.8-0.5,1.7-0.5,2.5c0,1.1,0.6,1.8,1.4,1.8c1.3-0.2,2.5-0.8,3.4-1.9c0.1-0.1,0.2,0,0.1,0.1c-0.8,1.6-2.8,3.1-4.3,3.1
			c-1.4,0.1-2.7-1-2.8-2.4c0-0.2,0-0.3,0-0.5c0-3,2.9-8,6.1-8c1.1-0.1,2.1,0.7,2.2,1.8c0,0,0,0,0,0C86.6,30.6,84,32.2,80.9,32.2"/>
		<path class="st0" d="M92.8,29.6c-1.1,0-0.9-2-2.2-2c-0.7,0.1-1.3,0.8-1.2,1.5c0,1.3,2.7,3.7,2.7,5.5c-0.1,1.9-1.6,3.3-3.5,3.3
			c-0.1,0-0.1,0-0.2,0c-1.8,0-2.7-1.2-2.7-1.9c0-0.6,0.4-1,1-1c1.2,0,1.1,2.4,2.5,2.4c0.8,0,1.3-0.8,1.3-1.7c0-1.6-2.5-3.3-2.5-5.4
			c0.1-1.9,1.7-3.3,3.5-3.2c1.1-0.1,2.1,0.6,2.3,1.7C93.7,29.1,93.3,29.5,92.8,29.6"/>
		<path class="st0" d="M105.3,28.2c-0.9,0-0.9-0.1-2.4-0.1c-0.8,2.2-1.9,5-2.5,6.7c-0.4,1.1-0.1,1.4,0.2,1.4c0.9,0,2.8-2.3,3-2.3
			s0.1,0,0.1,0.1c-0.7,1.3-2.9,3.7-4.5,3.7c-0.8,0-1.5-0.8-0.8-2.5c0.9-2.3,1.8-4.9,2.6-7.1c-1,0-1.2,0-1.9,0.1
			c-0.2,0-0.2-0.7,0.1-0.7c0.7,0,1.1,0.1,2.1,0.1c0.3-0.9,0.6-1.6,0.7-2.1c0.1-0.1,0.3-0.1,0.4-0.1c0.4,0,1.8,0.1,1.7,0.4
			c-0.2,0.5-0.5,1.2-0.8,1.9c1.4,0,1.4,0,2.3-0.1C105.5,27.5,105.6,28.2,105.3,28.2"/>
		<path class="st0" d="M109.8,27.4c-1.8,0-3.9,5.7-3.9,8.4c0,1.1,0.4,1.6,1.1,1.6c1.8,0,3.9-5.7,3.9-8.3
			C110.9,28,110.5,27.4,109.8,27.4 M106.9,37.8c-1.6,0-2.9-1-2.9-3.4c0-3,2.5-7.5,5.9-7.5c1.6,0,2.9,1,2.9,3.5
			C112.7,33.4,110.3,37.8,106.9,37.8"/>
		<path class="st0" d="M129.4,20.7c-0.7,0-0.9,0-1.2,0.2c-0.5,0.3-0.6,0.7-0.7,3.1c0,0.9-0.1,1.5-0.1,2.5c2.4-3.2,3.3-4.6,3.3-5.2
			S130.4,20.7,129.4,20.7 M138.5,21.6c-1,1-5.9,7.1-12.8,16.4c-0.1,0.2-0.6,0-0.6-0.1c0.1-4.1,0.1-6.2,0.1-8.4
			c-1.8,2.3-3.9,5.1-6.4,8.5c-0.1,0.2-0.7,0-0.7-0.1c0.3-14.5,0.1-16.6-0.4-17c-0.5-0.2-1-0.3-1.5-0.4c-0.2,0-0.1-0.3,0-0.3
			c0.9,0.1,1.9,0.1,2.8,0.1c1.3,0,2.8,0,3.5-0.1c0.2,0,0.2,0.3,0,0.3c-0.4,0-0.9,0.1-1.3,0.3c-0.4,0.2-0.6,0.5-0.7,3.3
			c-0.1,3.5-0.2,7.2-0.2,10.6c0,0.1,0.1,0,0.2,0c1.6-2,3.1-4.1,4.7-6.1c0-6.3-0.1-7.4-0.5-7.6c-0.4-0.2-0.7-0.3-1.2-0.4
			c-0.2,0-0.1-0.3,0-0.3c0.7,0.1,2.4,0.1,5.7,0.1c2.5,0,4.8,0,5.5-0.1c0.1,0,0.2,0.3,0,0.3c-0.9,0-1.8,0.4-2.5,1
			c-1.7,1.9-3.2,3.8-4.7,5.9c-0.1,2.6-0.1,4.4-0.2,7.2c0,0.1,0.1,0,0.2,0c4.6-6,9.8-12.8,9.8-13.5c0-0.3-0.2-0.5-1.6-0.7
			c-0.2,0-0.1-0.3,0-0.3c0.9,0.1,1.8,0.1,2.7,0.1c0.8,0,1.7,0,2.5-0.1c0.1,0,0.2,0.3,0,0.3c-0.9,0-1.7,0.4-2.4,1"/>
		<path class="st0" d="M139.1,27.4c-1.8,0-3.9,5.7-3.9,8.4c0,1.1,0.4,1.6,1.1,1.6c1.8,0,3.9-5.7,3.9-8.3
			C140.2,28,139.8,27.4,139.1,27.4 M136.2,37.8c-1.6,0-2.9-1-2.9-3.4c0-3,2.5-7.5,5.9-7.5c1.6,0,2.9,1,2.9,3.5
			C142.1,33.4,139.6,37.8,136.2,37.8"/>
		<path class="st0" d="M150.6,29.9c-1.1,0-0.6-1.4-1.3-1.4s-1.7,1.3-5,9c-0.1,0.2-0.7,0.2-1,0.2s-1,0-0.9-0.2
			c1.5-4.1,2.6-7.3,2.6-8.2c0-0.5-0.1-0.7-0.4-0.7c-0.8,0-1.8,2-2,2.1s-0.2,0-0.2-0.1c0.8-1.9,2.4-3.7,3.5-3.7c0.7,0,1,0.7,1,1.4
			c-0.2,1.8-0.7,3.5-1.4,5.1c0,0.1,0.2,0.1,0.2,0.1c1.9-4.6,3.3-6.7,4.8-6.7c0.7,0,1.3,0.5,1.3,1.2c0,0,0,0.1,0,0.1
			c0,0.9-0.6,1.7-1.2,1.7"/>
		<path class="st0" d="M159.3,28.3c-1.4,0-4.7,2.4-6.2,4.5c2.4-0.5,6.9-2.8,6.9-3.9c0-0.3-0.2-0.6-0.5-0.6
			C159.4,28.3,159.3,28.3,159.3,28.3 M161,38.8c0.6,0.1,1,0.6,1,1.2c0,0.9-0.7,1.6-1.6,1.6c0,0-0.1,0-0.1,0c-2.6,0-4-2-5.4-5.3
			c-0.8-1.8-1.1-2.3-1.8-2.7c-0.1-0.1-0.3-0.1-0.4,0c-0.5,1-1,2.8-1.4,3.8c-0.1,0.2-0.5,0.2-1,0.2s-1-0.1-1-0.2
			c2.3-6.1,4.3-11.6,5.9-16.1c0.4-1.1-0.1-1.7-1.9-1.7c-0.1,0-0.1-0.1-0.1-0.2c0,0,0.1-0.1,0.1-0.1c1.3-0.2,4.3-0.3,4.5-0.3
			s0.3,0.1,0.1,0.4c-2.2,5.7-3.6,9.3-4.5,11.5c0,0.1,0.2,0.1,0.2,0.1c1.6-2.7,3.3-3.9,4.8-3.9c1.1,0,2,0.9,2,2c0,0,0,0.1,0,0.1
			c0,2.1-3.1,4-7.6,3.7c1.8,0.4,3.3,1.7,4,3.4c1.3,3,2.3,4.5,3.9,4.5c-0.5-0.3-0.7-0.8-0.8-1.3C160.1,39.3,160.5,38.8,161,38.8
			C161,38.8,161,38.8,161,38.8"/>
		<polygon class="st0" points="51.3,11.7 51.3,6.8 49.3,6.8 49.3,11.7 47.5,11.7 47.5,0 49.3,0 49.3,5.1 51.3,5.1 51.3,0 53.1,0 
			53.1,11.7 51.3,11.7 		"/>
		<path class="st0" d="M56.7,7.7c-0.9,0.3-1.3,0.8-1.3,1.4v0.7c0,0.4,0.2,0.7,0.6,0.7c0.4,0,0.8-0.4,0.7-0.8c0,0,0,0,0,0V7.7
			L56.7,7.7z M58.2,11.8c-0.6,0-1.1-0.3-1.2-0.9c-0.3,0.6-0.9,0.9-1.5,0.9c-1,0-1.7-0.8-1.7-2V9.4c0-1.5,1.2-2.3,2.8-2.9V5.2
			c0-0.4-0.2-0.7-0.6-0.7s-0.6,0.2-0.6,0.7v0.7h-1.4V5.3c-0.1-1.1,0.7-2,1.7-2.1c0.1,0,0.2,0,0.3,0c1.4,0,2,0.9,2,2.3v4.8
			c0,0.3,0.1,0.4,0.3,0.4v1.2H58.2z"/>
		<polygon class="st0" points="64.4,11.7 63.1,11.7 62.5,8.3 62.3,6.6 62.1,8.3 61.5,11.7 60.2,11.7 58.8,3.2 60.3,3.2 60.8,7.3 
			61,9.1 61.2,7.3 61.7,3.2 63,3.2 63.5,7.3 63.7,9.1 63.9,7.3 64.5,3.2 65.9,3.2 64.4,11.7 		"/>
		<path class="st0" d="M68.9,7.7C68,8,67.6,8.5,67.6,9.1v0.7c0,0.4,0.2,0.7,0.6,0.7c0.4,0,0.8-0.4,0.7-0.8c0,0,0,0,0,0V7.7L68.9,7.7
			z M70.4,11.8c-0.6,0-1-0.4-1.1-0.9c-0.3,0.6-0.9,0.9-1.5,0.9c-1,0-1.7-0.8-1.7-2V9.4c0-1.5,1.2-2.3,2.8-2.9V5.2
			c0-0.4-0.2-0.7-0.6-0.7s-0.6,0.2-0.6,0.7v0.7h-1.4V5.3c-0.1-1.1,0.6-2,1.7-2.1c0.1,0,0.2,0,0.3,0c1.4,0,2,0.9,2,2.3v4.8
			c0,0.3,0.1,0.4,0.3,0.4v1.2H70.4z"/>
		<path class="st0" d="M71.5,2.2V0.6H73v1.6H71.5z M71.5,11.7V3.2H73v8.4L71.5,11.7z"/>
		<path class="st0" d="M74.1,2.2V0.6h1.5v1.6H74.1z M74.1,11.7V3.2h1.6v8.4L74.1,11.7z"/>
		<path class="st1" d="M80.2,7.3c0-0.5-0.3-0.8-0.7-0.8h-0.9v3.6h1c0.4,0,0.6-0.3,0.6-0.8L80.2,7.3L80.2,7.3z M80.2,2.3
			c0-0.5-0.2-0.8-0.7-0.8h-0.9v3.5h0.9c0.4,0,0.7-0.3,0.7-0.8V2.3L80.2,2.3z M79.7,11.6h-3V0h3c1.1-0.1,2.1,0.6,2.2,1.7
			c0,0.2,0,0.4,0,0.5V4c0.1,0.8-0.4,1.5-1.2,1.8c0.8,0.2,1.3,1,1.2,1.8v1.9c0.2,1.1-0.6,2.1-1.7,2.3C80.1,11.7,79.9,11.7,79.7,11.6
			L79.7,11.6z"/>
		<path class="st1" d="M85.9,11.7l-0.1-1c-0.2,0.7-0.8,1.1-1.5,1.2c-1,0-1.5-0.7-1.5-1.8V3.2h1.6v6.5c0,0.4,0.2,0.7,0.6,0.7
			c0,0,0,0,0,0c0.4,0,0.7-0.5,0.7-0.9V3.2h1.6v8.4L85.9,11.7z"/>
		<path class="st1" d="M90.2,11.8c-1.1,0.1-2.1-0.7-2.2-1.8c0-0.2,0-0.3,0-0.5V9h1.3v0.6c0,0.6,0.3,0.8,0.7,0.8
			c0.4,0,0.7-0.2,0.7-0.6c0-0.1,0-0.1,0-0.2c0-0.8-0.4-1.1-1.3-1.9c-0.9-0.5-1.4-1.5-1.4-2.5c-0.1-1.1,0.7-2.1,1.8-2.2
			c0.1,0,0.2,0,0.3,0c1.1,0,2,0.9,2,2c0,0.1,0,0.1,0,0.2v0.5h-1.3V5.2c0-0.4-0.2-0.7-0.6-0.7c0,0-0.1,0-0.1,0
			c-0.3,0-0.6,0.2-0.7,0.5c0,0,0,0.1,0,0.1c0,0.6,0.3,1,1.1,1.7c1,0.5,1.7,1.6,1.7,2.7c0.1,1.1-0.7,2.1-1.8,2.3
			C90.4,11.8,90.3,11.8,90.2,11.8L90.2,11.8z"/>
		<path class="st1" d="M93.1,2.2V0.6h1.5v1.6H93.1z M93.1,11.7V3.2h1.6v8.4L93.1,11.7z"/>
		<path class="st1" d="M98.5,11.7V5.2c0-0.4-0.2-0.7-0.6-0.7S97.1,5,97.1,5.4v6.2h-1.6V3.2H97l0.1,1.1c0.2-0.7,0.8-1.2,1.5-1.2
			c0.9,0,1.5,0.7,1.5,1.8v6.7H98.5z"/>
		<path class="st1" d="M103.8,5.3c0-0.5-0.2-0.8-0.7-0.8s-0.7,0.3-0.7,0.8v1.5h1.3L103.8,5.3L103.8,5.3z M103.1,11.8
			c-1.2,0-2.2-1-2.2-2.2c0-0.1,0-0.1,0-0.2V5.5c-0.1-1.2,0.8-2.3,2-2.4c0.1,0,0.1,0,0.2,0c1.2,0,2.1,1,2.1,2.1c0,0.1,0,0.2,0,0.3
			v2.2h-2.7v2c0,0.4,0.2,0.8,0.7,0.8s0.7-0.3,0.7-0.8v-1h1.4v0.8c0.1,1.2-0.7,2.2-1.8,2.4C103.3,11.8,103.2,11.8,103.1,11.8
			L103.1,11.8z"/>
		<path class="st1" d="M108,11.8c-1.1,0.1-2.1-0.7-2.2-1.8c0-0.2,0-0.3,0-0.5V9h1.3v0.6c0,0.6,0.3,0.8,0.7,0.8
			c0.4,0,0.7-0.2,0.7-0.6c0-0.1,0-0.1,0-0.2c0-0.8-0.4-1.1-1.3-1.9c-0.9-0.5-1.4-1.5-1.4-2.5c-0.1-1.1,0.7-2.1,1.8-2.2
			c0.1,0,0.2,0,0.3,0c1.1,0,2,0.9,2,2c0,0.1,0,0.1,0,0.2v0.5h-1.3V5.2c0-0.4-0.2-0.7-0.6-0.7c0,0-0.1,0-0.1,0
			c-0.3,0-0.6,0.2-0.7,0.5c0,0,0,0.1,0,0.1c0,0.6,0.3,1,1.1,1.7c1,0.6,1.6,1.6,1.6,2.7c0.1,1.1-0.7,2.1-1.8,2.3
			C108.2,11.8,108.1,11.8,108,11.8z"/>
		<path class="st1" d="M112.6,11.8c-1.1,0.1-2.1-0.7-2.2-1.8c0-0.2,0-0.3,0-0.5V9h1.3v0.6c0,0.6,0.3,0.8,0.7,0.8
			c0.4,0,0.7-0.2,0.7-0.6c0-0.1,0-0.1,0-0.2c0-0.8-0.4-1.1-1.3-1.9c-0.9-0.5-1.4-1.5-1.4-2.5c-0.1-1.1,0.7-2.1,1.8-2.2
			c0.1,0,0.2,0,0.3,0c1.1,0,2,0.9,2,2c0,0.1,0,0.1,0,0.2v0.5h-1.3V5.2c0-0.4-0.2-0.7-0.6-0.7c0,0-0.1,0-0.1,0
			c-0.3,0-0.6,0.2-0.7,0.5c0,0,0,0.1,0,0.1c0,0.6,0.3,1,1.1,1.7c1,0.6,1.6,1.6,1.6,2.7c0.1,1.1-0.7,2.1-1.8,2.3
			C112.7,11.8,112.7,11.8,112.6,11.8L112.6,11.8z"/>
	</g>
</g>
<g>
	<path class="st1" d="M53,47.8c1.8,0,3.6,0.7,3.6,2.3c0,1.3-1.2,2-2.9,2.5c-1.4,0.5-2.4,1-2.7,1.5h5.7v1.4H49v-0.8
		c0.2-1.4,1.6-2.6,3.8-3.3c1.2-0.4,2.2-0.7,2.2-1.3c0-0.6-1-1-1.9-1c-1.1,0-2,0.5-2.8,1.3l-1-0.9C49.9,48.6,51.3,47.8,53,47.8z"/>
	<path class="st1" d="M57.9,51.7c0-2.5,1.7-4,4.5-4c2.8,0,4.5,1.5,4.5,4c0,2.5-1.7,4-4.5,4C59.6,55.7,57.9,54.2,57.9,51.7z
		 M65.2,51.7c0-1.6-1.1-2.5-2.8-2.5c-1.7,0-2.8,0.9-2.8,2.5s1.1,2.5,2.8,2.5C64.1,54.2,65.2,53.4,65.2,51.7z"/>
	<path class="st1" d="M70,49.9c-0.6,0.5-1.4,0.7-2.3,0.8v-1.4c1-0.1,2-0.7,2.7-1.3h1.3v7.4H70V49.9z"/>
	<path class="st1" d="M75.2,49.9c-0.6,0.5-1.4,0.7-2.3,0.8v-1.4c1-0.1,2-0.7,2.7-1.3h1.3v7.4h-1.7V49.9z"/>
	<path class="st1" d="M78.7,52.9v-1.4h4.9v1.4H78.7z"/>
	<path class="st1" d="M88.4,47.8c1.8,0,3.6,0.7,3.6,2.3c0,1.3-1.2,2-2.9,2.5c-1.4,0.5-2.4,1-2.7,1.5h5.7v1.4h-7.8v-0.8
		c0.2-1.4,1.6-2.6,3.8-3.3c1.2-0.4,2.2-0.7,2.2-1.3c0-0.6-1-1-1.9-1c-1.1,0-2,0.5-2.8,1.3l-1-0.9C85.3,48.6,86.7,47.8,88.4,47.8z"/>
	<path class="st1" d="M93.3,51.7c0-2.5,1.7-4,4.5-4c2.8,0,4.5,1.5,4.5,4c0,2.5-1.7,4-4.5,4C95,55.7,93.3,54.2,93.3,51.7z
		 M100.6,51.7c0-1.6-1.1-2.5-2.8-2.5c-1.7,0-2.8,0.9-2.8,2.5s1.1,2.5,2.8,2.5C99.5,54.2,100.6,53.4,100.6,51.7z"/>
	<path class="st1" d="M105.4,49.9c-0.6,0.5-1.4,0.7-2.3,0.8v-1.4c1-0.1,2-0.7,2.7-1.3h1.3v7.4h-1.7V49.9z"/>
	<path class="st1" d="M117,51.7c0,2.4-1.7,4-4.5,4c-1.7,0-2.9-0.5-3.8-1.3l1-1c0.7,0.6,1.6,0.9,2.6,0.9c1.7,0,2.9-0.7,2.9-2.6
		c-0.8,0.7-2,1.1-3.3,1.1c-1.6,0-3.5-0.7-3.5-2.5c0-1.5,1.5-2.6,4-2.6C115.3,47.8,117,49.3,117,51.7z M112.4,51.7c1,0,2.1-0.3,2.8-1
		c-0.4-1.2-1.3-1.6-2.6-1.6c-1.4,0-2.3,0.4-2.3,1.3C110.2,51.4,111.1,51.7,112.4,51.7z"/>
</g>
</svg>
