<?xml version="1.0" encoding="utf-8"?>
<!-- Generator: Adobe Illustrator 20.1.0, SVG Export Plug-In . SVG Version: 6.00 Build 0)  -->
<svg version="1.1" id="Layer_1" xmlns="http://www.w3.org/2000/svg" xmlns:xlink="http://www.w3.org/1999/xlink" x="0px" y="0px"
	 viewBox="0 0 279.7 120" style="enable-background:new 0 0 279.7 120;" xml:space="preserve">
<style type="text/css">
	.st0{fill:#65666B;}
	.st1{fill:#989898;}
</style>
<g>
	<g>
		<g>
			<g>
				<g>
					<g>
						<g>
							<path class="st0" d="M18.6,43.3c-1.2,0-1.9,0.2-2.4,0.4c-0.4,0.2-0.8,0.8-3.8,11.3c-0.1,0.3-0.1,0.6,0.1,0.6
								c0.4,0.1,0.8,0.1,2.7,0.1c5.7,0,7.8-4.7,7.8-8.3C23.1,45.4,22,43.3,18.6,43.3 M14.7,56.8c-1.6,0-2.1,0-2.5,0.1
								c-0.3,0.1-0.4,0.3-0.5,0.6C8.8,67.9,8.4,70,8.9,70.5c0.5,0.6,1.3,0.8,3.7,0.8c5.3,0,8.9-3.9,8.9-8.7
								C21.5,59.4,19.1,56.8,14.7,56.8 M18.5,56.1c-0.2,0-0.3,0.4-0.1,0.4c5.4,0.7,7.4,3.5,7.4,6.8c0,4.5-5,9.1-13.4,9.1
								c-1.2,0-3-0.2-5.2-0.2c-2.3,0-5.8,0-7,0.2c-0.2,0-0.4-0.5,0-0.5c1.1-0.3,2.4-0.3,3.1-0.6c0.4-0.2,0.9-1.3,4.5-13.9
								c3.6-12.7,3.8-13.8,3.4-14c-0.5-0.3-1.6-0.3-2.6-0.5c-0.3-0.1-0.2-0.6,0-0.6c1.2,0.1,4.5,0.2,6.8,0.2c2.2,0,3-0.2,4.1-0.2
								c5,0,7.7,2.4,7.7,5.8C27.3,51.6,24,54.9,18.5,56.1"/>
							<path class="st0" d="M37.8,54.7c-1.8,0-3.7,2.8-5.3,7.7c5.1-0.7,6.6-3.9,6.6-6.2C39,55.3,38.6,54.7,37.8,54.7 M32.2,63
								c-0.5,1.6-0.8,2.9-0.8,4.3c0,1.9,1,3.1,2.5,3.1c2.1,0,4.4-1.7,5.8-3.2c0.2-0.1,0.3,0,0.3,0.2c-1.5,2.7-4.8,5.3-7.5,5.3
								c-2.5,0-4.8-1.4-4.8-5c0-5.3,5-13.8,10.6-13.8c2.2,0,3.8,1.3,3.8,3.1C42,60.4,37.5,63,32.2,63"/>
							<path class="st0" d="M52.8,58.5c-1.9,0-1.6-3.5-3.8-3.5c-1.2,0-2.1,1.3-2.1,2.6c0,2.3,4.6,6.3,4.6,9.6c0,2.7-2.2,5.6-6.4,5.6
								c-3,0-4.7-2-4.7-3.3c0-0.8,0.6-1.7,1.7-1.7c2.1,0,1.9,4.1,4.4,4.1c1.3,0,2.3-1.4,2.3-3c0-2.8-4.4-5.6-4.4-9.3
								c0-2.9,2.7-5.6,6.1-5.6c2.4,0,4,1.6,4,3C54.4,57.6,53.7,58.5,52.8,58.5"/>
							<path class="st0" d="M67,56.1C65.5,56,65.4,56,62.8,56c-1.5,3.9-3.3,8.5-4.4,11.6c-0.6,1.8-0.2,2.4,0.4,2.4
								c1.6,0,4.8-3.9,5.1-3.9c0.1,0,0.2,0.1,0.1,0.2c-1.3,2.2-5,6.4-7.8,6.4c-1.4,0-2.6-1.3-1.4-4.4c1.6-4,3.1-8.4,4.5-12.3
								c-1.6,0-2.1,0-3.4,0.1c-0.4,0-0.4-1.3,0.1-1.2c1.2,0.1,2,0.1,3.6,0.1c0.5-1.5,1-2.8,1.3-3.7c0.1-0.2,0.5-0.2,0.7-0.2
								c0.7,0,3.1,0.2,2.9,0.6c-0.3,0.9-0.8,2.1-1.3,3.3c2.5,0,2.4,0,3.9-0.1C67.4,54.9,67.5,56.2,67,56.1"/>
							<path class="st0" d="M87.4,43.3c-1.3,0-1.7,0.2-2.1,0.4c-0.4,0.2-1.6,3.6-4.5,14.1c-0.1,0.3-0.1,0.5,0.1,0.6
								c0.5,0.1,0.9,0.2,2.3,0.2c4.7,0,9.5-4.3,9.5-9.7C92.6,45.5,90.6,43.3,87.4,43.3 M80.2,59.4c-3.1,11-3.1,11.7-2.8,11.9
								c0.4,0.4,2.2,0.3,3.2,0.6c0.3,0.1,0.2,0.6,0,0.5c-1.1-0.1-3.9-0.2-6.1-0.2c-2.3,0-4,0-5.2,0.2c-0.3,0-0.4-0.5,0-0.5
								c1.1-0.3,2.4-0.2,3-0.6c0.4-0.2,1-1.3,4.6-13.9c3.6-12.7,3.8-13.8,3.4-14c-0.4-0.3-1.6-0.3-2.6-0.5c-0.3-0.1-0.2-0.6,0-0.6
								c1.1,0.1,4.1,0.2,6.3,0.2c2,0,3.2-0.2,4.3-0.2c5.4,0,8.8,2.7,8.8,6.8C97.1,55.2,89.5,60.8,80.2,59.4"/>
							<path class="st0" d="M97.8,67.1c-0.8,2.4-0.5,2.8,0.3,2.8c0.9,0,4-2.8,4.8-3.8c0-0.1,0.3,0.1,0.3,0.1
								c-0.6,1.5-4.8,6.5-7.8,6.5c-2.1,0-2.3-2.4-1.4-4.8c2.6-6.8,5.9-15.9,8.6-23.7c0.7-1.9-0.2-2.9-3.2-2.9
								c-0.4,0-0.3-0.5-0.1-0.5c2.2-0.3,7.4-0.5,7.8-0.5c0.3,0,0.5,0.2,0.3,0.8C103.6,50.9,99.7,61.6,97.8,67.1"/>
							<path class="st0" d="M115.6,55.2c-3.6,0-8.9,9.3-8.9,13c0,1.3,0.6,2,1.4,2c0.9,0,1.9-0.7,3.1-2.1c2.9-3.4,5.6-10.2,5.8-11.5
								C117,55.8,116.5,55.2,115.6,55.2 M116.5,67.1c-0.8,2.3-0.6,2.9,0.1,2.9c1.2,0,3.4-3,3.8-3c0.1,0,0.2,0.1,0.1,0.2
								c-1.4,2.7-4.6,5.5-6.5,5.5c-0.8,0-1.3-0.4-1.3-1.2c0-0.8,0.2-1.8,0.6-3.2l0.9-2.7c0-0.1-0.4-0.3-0.5-0.2
								c-2.6,4.5-5.2,7.2-7.5,7.2c-1.5,0-3.3-1.1-3.3-3.5c0-6.3,7.5-14.7,12.4-14.7c0.8,0,1.8,0.3,2.1,0.6c0.2,0.2,0.3,0.2,0.4,0
								c0.5-0.7,1.1-1.5,1.5-1.9c0.3-0.4,2.4,0.1,2.3,0.4L116.5,67.1z"/>
							<path class="st0" d="M134.3,58.3c-2.1,0-1.6-3-3.6-3c-2.7,0-5.3,5.9-5.3,11.4c0,2.6,1.1,3.8,2.9,3.8c1.9,0,3.5-1.3,5.1-3.5
								c0.1-0.1,0.4-0.1,0.3,0.1c-1.5,3.5-4.6,5.6-6.9,5.6c-2.6,0-5-1.6-5-5.5c0-5.4,5.3-13.3,11.2-13.3c2.6,0,3.4,1.6,3.4,2.4
								C136.2,57.7,135.4,58.3,134.3,58.3"/>
							<path class="st0" d="M145.3,54.7c-1.8,0-3.7,2.8-5.3,7.7c5.2-0.7,6.6-3.9,6.6-6.2C146.5,55.3,146.1,54.7,145.3,54.7
								 M139.7,63c-0.5,1.6-0.8,2.9-0.8,4.3c0,1.9,1,3.1,2.5,3.1c2.1,0,4.4-1.7,5.8-3.2c0.1-0.1,0.3,0,0.2,0.2
								c-1.5,2.7-4.8,5.3-7.5,5.3c-2.5,0-4.7-1.4-4.7-5c0-5.3,5-13.8,10.6-13.8c2.2,0,3.8,1.3,3.8,3.1C149.5,60.4,144.9,63,139.7,63
								"/>
							<path class="st0" d="M160.3,58.5c-1.9,0-1.6-3.5-3.8-3.5c-1.2,0-2.1,1.3-2.1,2.6c0,2.3,4.6,6.3,4.6,9.6
								c0,2.7-2.2,5.6-6.4,5.6c-3,0-4.7-2-4.7-3.3c0-0.8,0.6-1.7,1.7-1.7c2.1,0,1.8,4.1,4.4,4.1c1.3,0,2.3-1.4,2.3-3
								c0-2.8-4.4-5.6-4.4-9.3c0-2.9,2.7-5.6,6.1-5.6c2.4,0,4,1.6,4,3C161.9,57.6,161.2,58.5,160.3,58.5"/>
							<path class="st0" d="M181.8,56.1c-1.5-0.1-1.6-0.1-4.2-0.1c-1.5,3.9-3.3,8.5-4.4,11.6c-0.6,1.9-0.2,2.4,0.4,2.4
								c1.6,0,4.8-3.9,5.1-3.9c0.1,0,0.2,0.1,0.1,0.2c-1.3,2.2-5,6.4-7.8,6.4c-1.4,0-2.7-1.3-1.4-4.4c1.6-4,3.1-8.4,4.5-12.3
								c-1.6,0.1-2.1,0.1-3.4,0.1c-0.4,0-0.4-1.3,0.1-1.2c1.2,0.1,2,0.1,3.6,0.1c0.5-1.5,1-2.8,1.3-3.7c0.1-0.2,0.5-0.2,0.7-0.2
								c0.7,0,3.1,0.2,2.9,0.6c-0.3,0.9-0.8,2.1-1.3,3.3c2.5,0,2.4,0,3.9-0.1C182.2,54.9,182.2,56.2,181.8,56.1"/>
							<path class="st0" d="M189.5,54.7c-3.1,0-6.8,9.8-6.8,14.4c0,1.8,0.7,2.8,1.9,2.8c3.1,0,6.8-9.8,6.8-14.4
								C191.5,55.7,190.8,54.7,189.5,54.7 M184.5,72.7c-2.7,0-5-1.7-5-5.9c0-5.2,4.3-12.9,10.2-12.9c2.7,0,5,1.8,5,6
								C194.7,65.1,190.4,72.7,184.5,72.7"/>
							<g>
								<path class="st0" d="M223.4,43.2c-1.2,0-1.6,0.1-2.1,0.4c-0.8,0.5-1,1.2-1.1,5.4c0,1.5-0.1,2.6-0.1,4.3
									c4.2-5.5,5.8-8,5.8-8.9C225.8,43.6,225.1,43.2,223.4,43.2 M239.1,44.7c-1.8,1.8-10.1,12.2-22,28.3c-0.2,0.3-1.1,0.1-1.1-0.1
									c0.2-7.1,0.2-10.8,0.2-14.6c-3.1,4-6.8,8.8-11.1,14.6c-0.2,0.3-1.1,0.1-1.1-0.1c0.5-25.1,0.2-28.7-0.7-29.3
									c-0.4-0.3-1.7-0.4-2.7-0.7c-0.3-0.1-0.2-0.6,0-0.6c1.1,0.1,2.7,0.2,4.9,0.2c2.3,0,4.9-0.1,6.1-0.2c0.3,0,0.4,0.5,0,0.6
									c-1.1,0.3-1.6,0.1-2.2,0.5c-0.7,0.4-1.1,0.8-1.2,5.7c-0.2,6-0.3,12.4-0.4,18.3c0,0.1,0.2,0.1,0.3,0
									c2.8-3.5,5.4-7.1,8.1-10.6c0-10.9-0.2-12.7-0.9-13.2c-0.4-0.3-1-0.5-2-0.7c-0.3,0-0.2-0.6,0-0.6c1.1,0.1,4.2,0.2,9.8,0.2
									c4.3,0,8.2-0.1,9.4-0.2c0.2,0,0.4,0.5,0,0.6c-2.2,0.3-3.4,0.9-4.4,1.8c-0.9,0.9-3.1,3.5-8.1,10.2c-0.1,4.5-0.2,7.5-0.3,12.5
									c0,0.1,0.2,0.1,0.3,0c7.9-10.4,16.9-22,16.9-23.3c0-0.5-0.4-0.8-2.7-1.2c-0.3,0-0.2-0.6,0-0.6c1.1,0.1,2.4,0.2,4.6,0.2
									c2.2,0,3.2-0.1,4.3-0.2c0.3,0,0.4,0.5,0,0.6C241,43.1,240,43.8,239.1,44.7"/>
								<path class="st0" d="M240.2,54.7c-3.1,0-6.8,9.8-6.8,14.4c0,1.8,0.7,2.8,1.9,2.8c3.1,0,6.8-9.8,6.8-14.4
									C242.1,55.7,241.4,54.7,240.2,54.7 M235.2,72.7c-2.7,0-5-1.7-5-5.9c0-5.2,4.3-12.9,10.2-12.9c2.7,0,5,1.8,5,6
									C245.3,65.1,241,72.7,235.2,72.7"/>
								<path class="st0" d="M260,59c-2,0-1-2.4-2.2-2.4c-1.2,0-3,2.2-8.7,15.5c-0.1,0.3-1.2,0.4-1.8,0.4c-0.7,0-1.7-0.1-1.6-0.4
									c2.6-7.1,4.4-12.7,4.4-14.2c0-0.9-0.2-1.2-0.7-1.2c-1.3,0-3.1,3.5-3.5,3.7c-0.1,0.1-0.3,0.1-0.3-0.1
									c1.4-3.4,4.1-6.3,6.1-6.3c1.3,0,1.7,1.1,1.7,2.4c0,1.6-0.8,4.3-2.4,8.9c-0.1,0.2,0.4,0.2,0.4,0.2c3.3-8,5.6-11.6,8.4-11.6
									c1.4,0,2.2,1,2.2,2.3C262.1,57.6,261.1,59,260,59"/>
								<path class="st0" d="M275,56.3c-2.4,0-8.2,4.2-10.7,7.8c4.2-0.8,11.8-4.8,11.8-6.7C276.1,56.8,275.8,56.3,275,56.3
									 M277.9,74.4c1,0,1.8,1,1.8,2.1c0,1.3-1,2.7-2.9,2.7c-4.4,0-7-3.4-9.3-9.2c-1.3-3.2-1.9-4-3-4.6c-0.3-0.1-0.5-0.1-0.6,0
									c-0.8,1.8-1.8,4.8-2.4,6.6c-0.1,0.3-0.9,0.4-1.8,0.4c-0.8,0-1.8-0.2-1.7-0.4c4-10.5,7.5-20,10.2-27.9
									c0.6-1.9-0.2-2.9-3.2-2.9c-0.4,0-0.3-0.5-0.1-0.5c2.3-0.3,7.5-0.5,7.8-0.5c0.3,0,0.4,0.2,0.2,0.7c-3.9,9.8-6.3,16-7.7,19.8
									c0,0.2,0.4,0.2,0.4,0.2c2.8-4.6,5.7-6.6,8.3-6.6c2.1,0,3.4,1.7,3.4,3.8c0,3.7-5.3,6.9-13,6.5c3.4,0.9,5.6,2.9,6.9,5.9
									c2.2,5.2,4,7.8,6.7,7.8c-0.8-0.6-1.3-1.3-1.4-2.2C276.4,75.4,276.8,74.4,277.9,74.4"/>
							</g>
						</g>
					</g>
					<g>
						<polygon class="st0" points="88.5,27.5 88.5,19.1 85.1,19.1 85.1,27.5 81.9,27.5 81.9,7.4 85.1,7.4 85.1,16.2 88.5,16.2 
							88.5,7.4 91.7,7.4 91.7,27.5 88.5,27.5 						"/>
						<path class="st0" d="M97.9,20.7c-1.5,0.5-2.3,1.4-2.3,2.5v1.2c0,0.7,0.3,1.3,1,1.3c0.7,0,1.3-0.6,1.3-1.4V20.7L97.9,20.7z
							 M100.5,27.8c-0.9,0-1.7-0.5-2-1.6c-0.5,1-1.5,1.6-2.6,1.6c-1.7,0-2.8-1.3-2.8-3.5v-0.7c0-2.7,2.1-3.9,4.8-5v-2.2
							c0-0.7-0.3-1.2-1-1.2c-0.7,0-1,0.4-1,1.2v1.3h-2.4v-1.2c0-2.1,1.2-3.7,3.5-3.7s3.5,1.6,3.5,3.9V25c0,0.5,0.2,0.7,0.6,0.7v2
							H100.5L100.5,27.8z"/>
						<polygon class="st0" points="111.2,27.5 108.9,27.5 108,21.8 107.6,18.8 107.2,21.8 106.3,27.5 104,27.5 101.5,13 104.1,13 
							105,20.1 105.3,23.2 105.6,20.1 106.6,13 108.8,13 109.7,20.1 110.1,23.2 110.4,20.1 111.3,13 113.7,13 111.2,27.5 						"/>
						<path class="st0" d="M119,20.7c-1.5,0.5-2.3,1.4-2.3,2.5v1.2c0,0.7,0.3,1.3,1,1.3c0.7,0,1.3-0.6,1.3-1.4V20.7L119,20.7z
							 M121.5,27.8c-0.9,0-1.7-0.5-2-1.6c-0.5,1-1.5,1.6-2.6,1.6c-1.7,0-2.8-1.3-2.8-3.5v-0.7c0-2.7,2.1-3.9,4.8-5v-2.2
							c0-0.7-0.3-1.2-1-1.2c-0.7,0-1,0.4-1,1.2v1.3h-2.4v-1.2c0-2.1,1.2-3.7,3.5-3.7c2.4,0,3.5,1.6,3.5,3.9V25
							c0,0.5,0.2,0.7,0.6,0.7v2H121.5L121.5,27.8z"/>
						<path class="st0" d="M123.4,11.2V8.4h2.6v2.8H123.4L123.4,11.2z M123.4,27.5V13h2.7v14.5H123.4L123.4,27.5z"/>
						<path class="st0" d="M127.9,11.2V8.4h2.6v2.8H127.9L127.9,11.2z M127.8,27.5V13h2.7v14.5H127.8L127.8,27.5z"/>
						<path class="st1" d="M138.4,20c0-0.9-0.5-1.4-1.2-1.4h-1.5v6.2h1.7c0.8,0,1.1-0.5,1.1-1.3V20L138.4,20z M138.4,11.5
							c0-0.9-0.4-1.3-1.1-1.3h-1.6v6h1.5c0.8,0,1.2-0.5,1.2-1.4V11.5L138.4,11.5z M137.6,27.5h-5.3V7.4h5.2c2.2,0,3.9,1.2,3.9,3.9
							v2.9c0,1.5-0.6,2.6-2,3c1.5,0.5,2.1,1.5,2.1,3v3.4C141.5,26.4,139.8,27.5,137.6,27.5L137.6,27.5z"/>
						<path class="st1" d="M148.3,27.5l-0.2-1.8c-0.5,1.3-1.5,2-2.6,2c-1.7,0-2.6-1.3-2.6-3.2V13h2.7v11.2c0,0.8,0.5,1.3,1.1,1.3
							c0.8,0,1.2-0.9,1.2-1.6V13h2.7v14.5H148.3L148.3,27.5z"/>
						<path class="st1" d="M155.7,27.8c-2.4,0-3.7-1.5-3.7-3.9V23h2.3v1.1c0,1,0.5,1.5,1.3,1.5c0.8,0,1.3-0.4,1.3-1.3
							c0-1.3-0.7-1.8-2.2-3.3c-1.4-1.1-2.5-2.4-2.5-4.3c0-2.4,1.5-3.8,3.6-3.8c2.3,0,3.5,1.6,3.5,3.8v0.9H157v-1.1
							c0-0.8-0.4-1.2-1.2-1.2c-0.7,0-1.1,0.5-1.1,1.1c0,1.1,0.6,1.7,1.9,2.9c1.5,1.2,2.8,2.5,2.8,4.7
							C159.4,26,158.1,27.8,155.7,27.8L155.7,27.8z"/>
						<path class="st1" d="M160.7,11.2V8.4h2.6v2.8H160.7L160.7,11.2z M160.6,27.5V13h2.7v14.5H160.6L160.6,27.5z"/>
						<path class="st1" d="M170,27.5V16.5c0-0.8-0.4-1.3-1-1.3c-0.7,0-1.2,0.9-1.2,1.6v10.7H165V13h2.4l0.2,1.9
							c0.5-1.4,1.5-2.1,2.5-2.1c1.6,0,2.6,1.3,2.6,3.2v11.5H170L170,27.5z"/>
						<path class="st1" d="M179.1,16.5c0-0.8-0.4-1.4-1.1-1.4c-0.7,0-1.1,0.5-1.1,1.4v2.6h2.3V16.5L179.1,16.5z M178,27.8
							c-2.2,0-3.8-1.6-3.8-4.1v-6.7c0-2.4,1.6-4.1,3.8-4.1c2.2,0,3.6,1.7,3.6,4.1v3.7h-4.7v3.4c0,0.8,0.4,1.3,1.1,1.3
							c0.8,0,1.2-0.5,1.2-1.3v-1.8h2.4v1.4C181.6,26.2,180.2,27.8,178,27.8L178,27.8z"/>
						<path class="st1" d="M186.4,27.8c-2.4,0-3.7-1.5-3.7-3.9V23h2.3v1.1c0,1,0.5,1.5,1.3,1.5c0.8,0,1.3-0.4,1.3-1.3
							c0-1.3-0.7-1.8-2.2-3.3c-1.4-1.1-2.5-2.4-2.5-4.3c0-2.4,1.5-3.8,3.6-3.8c2.3,0,3.5,1.6,3.5,3.8v0.9h-2.2v-1.1
							c0-0.8-0.4-1.2-1.2-1.2c-0.7,0-1.1,0.5-1.1,1.1c0,1.1,0.6,1.7,1.9,2.9c1.5,1.2,2.8,2.5,2.8,4.7C190,26,188.8,27.8,186.4,27.8
							L186.4,27.8z"/>
						<path class="st1" d="M194.4,27.8c-2.4,0-3.7-1.5-3.7-3.9V23h2.3v1.1c0,1,0.5,1.5,1.3,1.5c0.8,0,1.3-0.4,1.3-1.3
							c0-1.3-0.7-1.8-2.2-3.3c-1.4-1.1-2.5-2.4-2.5-4.3c0-2.4,1.5-3.8,3.6-3.8c2.3,0,3.5,1.6,3.5,3.8v0.9h-2.2v-1.1
							c0-0.8-0.4-1.2-1.2-1.2c-0.7,0-1.1,0.5-1.1,1.1c0,1.1,0.6,1.7,1.9,2.9c1.5,1.2,2.8,2.5,2.8,4.7
							C198.1,26,196.8,27.8,194.4,27.8L194.4,27.8z"/>
					</g>
				</g>
			</g>
		</g>
		<g>
			<path class="st1" d="M94.7,104.4l-0.8,2.9H83.1v-3.2c0.4-0.2,1.3-0.6,2.7-1.3c1.7-1,2.9-1.8,3.6-2.5c0.6-0.6,0.9-1.2,0.9-1.9
				c0-1.2-0.7-1.7-2.1-1.7c-1,0-2.2,0.6-3.5,1.7l-2.1-2.2c1.9-1.7,4.1-2.6,6.5-2.6c1.5,0,2.8,0.4,3.7,1.2c0.9,0.8,1.4,1.8,1.4,3.1
				c0,1.6-0.8,3-2.4,4.2c-0.4,0.3-1,0.6-1.7,1.1c-0.6,0.3-1.2,0.7-1.8,1l-0.7,0.3c0.6-0.1,1.5-0.1,2.5-0.1H94.7z"/>
			<path class="st1" d="M102.9,93.8c1.9,0,3.4,0.6,4.5,1.9c1.1,1.3,1.7,2.9,1.7,5c0,2.1-0.6,3.7-1.7,5c-1.1,1.3-2.6,1.9-4.5,1.9
				c-1.9,0-3.4-0.6-4.5-1.9s-1.7-2.9-1.7-5c0-2.1,0.6-3.7,1.7-5C99.6,94.4,101.1,93.8,102.9,93.8z M105.3,100.7
				c0-1.7-0.2-2.9-0.7-3.6c-0.4-0.6-0.9-0.9-1.7-0.9c-1.6,0-2.4,1.4-2.4,4.3c0,1.7,0.2,2.9,0.7,3.6c0.4,0.6,0.9,0.9,1.7,0.9
				C104.5,105.1,105.3,103.6,105.3,100.7z"/>
			<path class="st1" d="M115.3,93.8h2.3v10.7h2.1v2.8h-8.2v-2.8h2.8v-6.7c-1.1,0.7-2.1,1.2-3.1,1.5l-0.9-1.9L115.3,93.8z"/>
			<path class="st1" d="M126.1,93.8h2.3v10.7h2.1v2.8h-8.2v-2.8h2.8v-6.7c-1.1,0.7-2.1,1.2-3.1,1.5l-0.9-1.9L126.1,93.8z"/>
			<path class="st1" d="M138.7,98.7h6.2v3h-6.2V98.7z"/>
			<path class="st1" d="M159.1,104.4l-0.8,2.9h-10.8v-3.2c0.4-0.2,1.3-0.6,2.7-1.3c1.7-1,2.9-1.8,3.6-2.5c0.6-0.6,0.9-1.2,0.9-1.9
				c0-1.2-0.7-1.7-2.1-1.7c-1,0-2.2,0.6-3.5,1.7l-2.1-2.2c1.9-1.7,4.1-2.6,6.5-2.6c1.5,0,2.8,0.4,3.7,1.2c0.9,0.8,1.4,1.8,1.4,3.1
				c0,1.6-0.8,3-2.4,4.2c-0.4,0.3-1,0.6-1.7,1.1c-0.6,0.3-1.2,0.7-1.8,1l-0.7,0.3c0.6-0.1,1.5-0.1,2.5-0.1H159.1z"/>
			<path class="st1" d="M167.3,93.8c1.9,0,3.4,0.6,4.5,1.9c1.1,1.3,1.7,2.9,1.7,5c0,2.1-0.6,3.7-1.7,5c-1.1,1.3-2.6,1.9-4.5,1.9
				c-1.9,0-3.4-0.6-4.5-1.9c-1.1-1.3-1.7-2.9-1.7-5c0-2.1,0.6-3.7,1.7-5C164,94.4,165.5,93.8,167.3,93.8z M169.7,100.7
				c0-1.7-0.2-2.9-0.7-3.6c-0.4-0.6-0.9-0.9-1.7-0.9c-1.6,0-2.4,1.4-2.4,4.3c0,1.7,0.2,2.9,0.7,3.6c0.4,0.6,0.9,0.9,1.7,0.9
				C168.9,105.1,169.7,103.6,169.7,100.7z"/>
			<path class="st1" d="M179.7,93.8h2.3v10.7h2.1v2.8h-8.2v-2.8h2.8v-6.7c-1.1,0.7-2.1,1.2-3.1,1.5l-0.9-1.9L179.7,93.8z"/>
		</g>
	</g>
	<g>
		<path class="st1" d="M196.5,93.7l0.7,2.5c-3.5,1.1-5.8,3.1-6.7,6c0.7-0.6,1.6-0.9,2.8-0.9c1.6,0,2.9,0.5,3.9,1.6
			c1.1,1,1.6,2.3,1.6,3.9c0,1.7-0.6,3.1-1.7,4.2c-1.2,1.1-2.6,1.7-4.3,1.7c-1.9,0-3.4-0.7-4.7-2c-1.2-1.4-1.8-3.1-1.8-5.2
			c0-1.3,0.2-2.6,0.7-3.7c0.6-1.5,1.6-2.9,2.9-4.2c0.8-0.7,1.8-1.4,3.1-2.2C194.3,94.5,195.5,94,196.5,93.7z M190.2,104.9
			c-0.1,0.3-0.1,0.8-0.1,1.5c0,1.1,0.2,2,0.7,2.6c0.4,0.6,1.1,0.9,1.9,0.9c0.8,0,1.4-0.3,1.9-0.9c0.5-0.6,0.7-1.3,0.7-2.3
			c0-0.8-0.2-1.5-0.6-2c-0.4-0.5-1-0.7-1.7-0.7C192.1,104,191.2,104.3,190.2,104.9z"/>
	</g>
</g>
</svg>
