<?xml version="1.0" encoding="utf-8"?>
<!-- Generator: Adobe Illustrator 20.1.0, SVG Export Plug-In . SVG Version: 6.00 Build 0)  -->
<svg version="1.1" id="Layer_1" xmlns="http://www.w3.org/2000/svg" xmlns:xlink="http://www.w3.org/1999/xlink" x="0px" y="0px"
	 viewBox="0 0 212.7 120" style="enable-background:new 0 0 212.7 120;" xml:space="preserve">
<style type="text/css">
	.st0{fill:#65666B;}
	.st1{fill:#989898;}
</style>
<g>
	<g>
		<g>
			<path class="st0" d="M140.9,76.5h-30.6l-0.5-9.7c15.4-8.5,18.8-12.8,18.8-18.1c0-4.2-2.1-6.2-5.4-6.2c-1.1,0-2.2,0.2-2.9,0.3
				l-0.7,4.2c-1.4,0.2-3.1,0.2-4.5,0.2c-1.3,0-3.3-0.1-4.7-0.2V35.8c3.8-1.5,8.6-2.3,12.8-2.3c10,0,16.8,4.6,16.8,14.1
				c0,6.4-3.4,12.1-14.1,18.6v0.5h15.6C141.6,69.5,141.5,73.4,140.9,76.5L140.9,76.5z"/>
			<path class="st0" d="M158.1,87.3c-4.6,0-9.1-0.8-12.9-2.3V73.7c1.3-0.2,3.4-0.2,4.7-0.2c1.4,0,3.1,0.1,4.4,0.2l0.7,4.1
				c1.1,0.2,2,0.4,3.2,0.4c4.5,0,6.9-2.4,6.9-7.1c0-5.2-3.6-7.3-12.1-7.3H146c0.3-9.9,1.3-21.2,2.4-29.6h27.2c0,2.9-0.3,6.7-0.8,9.8
				h-17.4l-0.9,10.6h0.8c10.2,0,19.4,4,19.4,15.9C176.6,80.8,168.9,87.3,158.1,87.3L158.1,87.3z"/>
			<path class="st0" d="M193.2,52h-8.4l6.8,4.9l-2.6,8l6.8-4.9l6.8,4.9l-2.6-8l6.8-4.9h-8.4l-2.6-8L193.2,52L193.2,52z M195.8,77.3
				c-10.4,0-16.9-6.1-16.9-21.9c0-15.4,7.1-21.9,16.9-21.9c10.6,0,16.9,6.1,16.9,22C212.7,70.6,206,77.3,195.8,77.3L195.8,77.3z"/>
			<path class="st0" d="M33,45.6c-1,0.1-2.6,0.2-3.7,0.2c-1.1,0-2.8-0.1-3.9-0.2l-0.4-3.4h-4v26.9l4,0.6c0.1,1,0.2,2.4,0.2,3.4
				c0,1-0.1,2.4-0.2,3.5H7.9c-0.1-1.1-0.2-2.4-0.2-3.5c0-1.1,0.1-2.4,0.2-3.4l4-0.6V42.2H8.1l-0.6,3.6c-2.4,0-5.1-0.2-7.5-0.6
				c0.1-2.2,0.4-7.2,0.8-10.4H33V45.6L33,45.6z"/>
			<path class="st0" d="M51.9,41.9c-5.6,0-8.4,3.3-8.4,13.9c0,10.4,2.8,13.9,8.4,13.9c5.7,0,8.3-3.5,8.3-13.9
				C60.2,45.1,57.2,41.9,51.9,41.9L51.9,41.9z M51.9,77.3c-11,0-18-6.6-18-21.4c0-14.4,7.2-21.6,17.9-21.6c11.1,0,18,6.7,18,21.5
				C69.8,70.3,62.5,77.3,51.9,77.3L51.9,77.3z"/>
			<path class="st0" d="M89.9,41.7c-1.5,0-2.8,0-3.9,0.1v13.5h3.5c4.1,0,6.4-2.1,6.4-7.2C95.9,43.4,93.5,41.7,89.9,41.7L89.9,41.7z
				 M90.2,62.5H86v6.6l4.3,0.6c0.1,1,0.2,2.4,0.2,3.4c0,1-0.1,2.4-0.2,3.5H72.8c-0.1-1.1-0.2-2.4-0.2-3.5c0-1.1,0.1-2.4,0.2-3.4
				l4-0.6V42.4l-4-0.6c-0.1-1-0.2-2.3-0.2-3.4c0-1.1,0.1-2.4,0.2-3.5c5.4-0.2,11.5-0.3,15.8-0.3c10.2,0,16.3,3.7,16.3,13.5
				C105,58.3,97.9,62.5,90.2,62.5L90.2,62.5z"/>
			<path class="st0" d="M140.5,76.1h-30.6l-0.5-9.7c15.4-8.5,18.8-12.8,18.8-18.1c0-4.2-2.1-6.2-5.4-6.2c-1.1,0-2.2,0.2-2.9,0.3
				l-0.7,4.2c-1.4,0.2-3.1,0.2-4.5,0.2c-1.3,0-3.3-0.1-4.7-0.2V35.4c3.8-1.5,8.6-2.3,12.8-2.3c10,0,16.8,4.6,16.8,14.1
				c0,6.4-3.4,12.1-14.1,18.6v0.5h15.6C141.2,69.1,141.1,73,140.5,76.1L140.5,76.1z"/>
			<path class="st0" d="M157.7,86.9c-4.6,0-9.2-0.8-12.9-2.2V73.3c1.3-0.2,3.4-0.2,4.7-0.2c1.4,0,3.1,0.1,4.4,0.2l0.7,4.1
				c1.1,0.2,2,0.4,3.2,0.4c4.5,0,6.9-2.4,6.9-7.1c0-5.2-3.6-7.3-12.1-7.3h-7.1c0.3-9.9,1.3-21.2,2.4-29.5h27.2
				c0,2.9-0.3,6.7-0.8,9.8H157L156,54.2h0.8c10.2,0,19.4,4,19.4,15.9C176.2,80.4,168.4,86.9,157.7,86.9L157.7,86.9z"/>
			<path class="st0" d="M192.8,51.6h-8.4l6.8,4.9l-2.6,8l6.8-4.9l6.8,4.9l-2.6-8l6.8-4.9H198l-2.6-8L192.8,51.6L192.8,51.6z
				 M195.4,76.9c-10.4,0-16.9-6.1-16.9-22c0-15.4,7.1-21.9,16.9-21.9c10.6,0,16.9,6.1,16.9,22C212.3,70.1,205.6,76.9,195.4,76.9
				L195.4,76.9z"/>
			<polygon class="st0" points="52,26.1 52,17.6 48.6,17.6 48.6,26.1 45.4,26.1 45.4,5.8 48.6,5.8 48.6,14.6 52,14.6 52,5.8 
				55.2,5.8 55.2,26.1 52,26.1 			"/>
			<path class="st0" d="M61.5,19.2c-1.5,0.5-2.3,1.4-2.3,2.5v1.2c0,0.7,0.3,1.3,1,1.3c0.7,0,1.3-0.6,1.3-1.4V19.2L61.5,19.2z
				 M64,26.3c-0.9,0-1.7-0.5-2-1.6c-0.6,1-1.5,1.6-2.6,1.6c-1.7,0-2.9-1.3-2.9-3.6v-0.7c0-2.7,2.1-4,4.9-5v-2.3c0-0.7-0.3-1.2-1-1.2
				c-0.7,0-1,0.4-1,1.2v1.3H57V15c0-2.2,1.2-3.7,3.6-3.7c2.4,0,3.5,1.6,3.5,4v8.3c0,0.5,0.2,0.7,0.6,0.7v2H64L64,26.3z"/>
			<polygon class="st0" points="74.8,26.1 72.5,26.1 71.6,20.3 71.2,17.3 70.8,20.3 69.9,26.1 67.6,26.1 65.1,11.5 67.7,11.5 
				68.6,18.6 68.9,21.7 69.2,18.6 70.2,11.5 72.4,11.5 73.3,18.6 73.7,21.7 74,18.6 74.9,11.5 77.4,11.5 74.8,26.1 			"/>
			<path class="st0" d="M82.7,19.2c-1.5,0.5-2.3,1.4-2.3,2.5v1.2c0,0.7,0.3,1.3,1,1.3c0.7,0,1.3-0.6,1.3-1.4V19.2L82.7,19.2z
				 M85.3,26.3c-0.9,0-1.7-0.5-2-1.6c-0.6,1-1.5,1.6-2.6,1.6c-1.7,0-2.9-1.3-2.9-3.6v-0.7c0-2.7,2.1-4,4.9-5v-2.3
				c0-0.7-0.3-1.2-1-1.2c-0.7,0-1,0.4-1,1.2v1.3h-2.5V15c0-2.2,1.2-3.7,3.6-3.7c2.4,0,3.5,1.6,3.5,4v8.3c0,0.5,0.2,0.7,0.6,0.7v2
				H85.3L85.3,26.3z"/>
			<path class="st0" d="M87.2,9.6V6.8h2.6v2.8H87.2L87.2,9.6z M87.1,26.1V11.5h2.7v14.6H87.1L87.1,26.1z"/>
			<path class="st0" d="M91.7,9.6V6.8h2.6v2.8H91.7L91.7,9.6z M91.6,26.1V11.5h2.7v14.6H91.6L91.6,26.1z"/>
			<path class="st1" d="M102.2,18.5c0-0.9-0.5-1.4-1.2-1.4h-1.6v6.2h1.7c0.8,0,1.1-0.5,1.1-1.3V18.5L102.2,18.5z M102.2,9.9
				c0-0.9-0.4-1.3-1.1-1.3h-1.6v6h1.5c0.8,0,1.2-0.4,1.2-1.4V9.9L102.2,9.9z M101.5,26.1h-5.3V5.8h5.2c2.3,0,3.9,1.2,3.9,3.9v2.9
				c0,1.5-0.6,2.6-2,3c1.5,0.5,2.1,1.6,2.1,3v3.4C105.4,24.9,103.7,26.1,101.5,26.1L101.5,26.1z"/>
			<path class="st1" d="M112.2,26.1l-0.2-1.8c-0.5,1.3-1.5,2-2.6,2c-1.7,0-2.6-1.3-2.6-3.2V11.5h2.7v11.2c0,0.8,0.5,1.3,1.1,1.3
				c0.8,0,1.2-0.9,1.2-1.6V11.5h2.7v14.6H112.2L112.2,26.1z"/>
			<path class="st1" d="M119.7,26.3c-2.4,0-3.7-1.5-3.7-4v-0.9h2.4v1.1c0,1,0.5,1.5,1.3,1.5c0.8,0,1.3-0.4,1.3-1.3
				c0-1.3-0.7-1.9-2.3-3.3c-1.4-1.1-2.5-2.4-2.5-4.3c0-2.4,1.5-3.8,3.6-3.8c2.3,0,3.6,1.6,3.6,3.8V16H121v-1.1
				c0-0.8-0.4-1.2-1.2-1.2c-0.7,0-1.1,0.5-1.1,1.2c0,1.1,0.6,1.7,1.9,2.9c1.6,1.2,2.8,2.5,2.8,4.7C123.4,24.6,122.1,26.3,119.7,26.3
				L119.7,26.3z"/>
			<path class="st1" d="M124.7,9.6V6.8h2.6v2.8H124.7L124.7,9.6z M124.6,26.1V11.5h2.7v14.6H124.6L124.6,26.1z"/>
			<path class="st1" d="M134.1,26.1V14.9c0-0.8-0.4-1.3-1-1.3c-0.8,0-1.2,0.9-1.2,1.6v10.8h-2.7V11.5h2.4l0.2,1.9
				c0.5-1.4,1.5-2.1,2.6-2.1c1.6,0,2.6,1.3,2.6,3.2v11.6H134.1L134.1,26.1z"/>
			<path class="st1" d="M143.3,15c0-0.8-0.4-1.4-1.1-1.4c-0.7,0-1.2,0.6-1.2,1.4v2.6h2.3V15L143.3,15z M142.1,26.3
				c-2.2,0-3.8-1.6-3.8-4.1v-6.8c0-2.5,1.6-4.1,3.8-4.1c2.2,0,3.6,1.7,3.6,4.1v3.7H141v3.5c0,0.8,0.4,1.3,1.2,1.3
				c0.8,0,1.2-0.6,1.2-1.3v-1.8h2.4v1.4C145.7,24.7,144.3,26.3,142.1,26.3L142.1,26.3z"/>
			<path class="st1" d="M150.6,26.3c-2.4,0-3.7-1.5-3.7-4v-0.9h2.3v1.1c0,1,0.5,1.5,1.3,1.5c0.8,0,1.3-0.4,1.3-1.3
				c0-1.3-0.7-1.9-2.3-3.3c-1.4-1.1-2.5-2.4-2.5-4.3c0-2.4,1.5-3.8,3.6-3.8c2.3,0,3.6,1.6,3.6,3.8V16h-2.3v-1.1
				c0-0.8-0.4-1.2-1.3-1.2c-0.7,0-1.1,0.5-1.1,1.2c0,1.1,0.6,1.7,1.9,2.9c1.6,1.2,2.8,2.5,2.8,4.7C154.2,24.6,153,26.3,150.6,26.3
				L150.6,26.3z"/>
			<path class="st1" d="M158.7,26.3c-2.4,0-3.7-1.5-3.7-4v-0.9h2.3v1.1c0,1,0.5,1.5,1.3,1.5c0.8,0,1.3-0.4,1.3-1.3
				c0-1.3-0.7-1.9-2.3-3.3c-1.4-1.1-2.5-2.4-2.5-4.3c0-2.4,1.5-3.8,3.6-3.8c2.3,0,3.6,1.6,3.6,3.8V16h-2.3v-1.1
				c0-0.8-0.4-1.2-1.2-1.2c-0.7,0-1.1,0.5-1.1,1.2c0,1.1,0.6,1.7,1.9,2.9c1.5,1.2,2.8,2.5,2.8,4.7C162.3,24.6,161.1,26.3,158.7,26.3
				L158.7,26.3z"/>
		</g>
	</g>
	<g>
		<path class="st1" d="M59.6,106.2l-0.8,3H47.6V106c0.4-0.2,1.3-0.6,2.8-1.4c1.8-1,3-1.9,3.7-2.6c0.6-0.6,0.9-1.3,0.9-1.9
			c0-1.2-0.7-1.8-2.1-1.8c-1,0-2.3,0.6-3.7,1.7l-2.1-2.2c2-1.8,4.2-2.7,6.8-2.7c1.6,0,2.9,0.4,3.8,1.2c1,0.8,1.4,1.9,1.4,3.2
			c0,1.6-0.8,3.1-2.5,4.4c-0.4,0.3-1,0.7-1.8,1.1c-0.6,0.4-1.3,0.7-1.9,1.1l-0.7,0.3c0.7-0.1,1.5-0.1,2.6-0.1H59.6z"/>
		<path class="st1" d="M68.1,95.2c2,0,3.5,0.6,4.6,1.9s1.7,3,1.7,5.2c0,2.1-0.6,3.9-1.8,5.2s-2.7,2-4.6,2c-2,0-3.5-0.6-4.6-1.9
			c-1.1-1.3-1.7-3-1.7-5.2c0-2.1,0.6-3.9,1.8-5.2S66.2,95.2,68.1,95.2z M70.5,102.4c0-1.8-0.2-3-0.7-3.7c-0.4-0.6-1-0.9-1.7-0.9
			c-1.6,0-2.4,1.5-2.4,4.5c0,1.8,0.2,3,0.7,3.7c0.4,0.6,0.9,0.9,1.7,0.9C69.7,106.9,70.5,105.4,70.5,102.4z"/>
		<path class="st1" d="M81,95.2h2.4v11.1h2.1v2.9H77v-2.9h2.9v-7c-1.1,0.7-2.2,1.2-3.2,1.6L75.8,99L81,95.2z"/>
		<path class="st1" d="M92.1,95.2h2.4v11.1h2.1v2.9h-8.5v-2.9h2.9v-7c-1.1,0.7-2.2,1.2-3.2,1.6L86.9,99L92.1,95.2z"/>
		<path class="st1" d="M105.1,100.3h6.4v3.1h-6.4V100.3z"/>
		<path class="st1" d="M126.3,106.2l-0.8,3h-11.2V106c0.4-0.2,1.3-0.6,2.8-1.4c1.8-1,3-1.9,3.7-2.6c0.6-0.6,0.9-1.3,0.9-1.9
			c0-1.2-0.7-1.8-2.1-1.8c-1,0-2.3,0.6-3.7,1.7l-2.1-2.2c2-1.8,4.2-2.7,6.8-2.7c1.6,0,2.9,0.4,3.8,1.2c1,0.8,1.4,1.9,1.4,3.2
			c0,1.6-0.8,3.1-2.5,4.4c-0.4,0.3-1,0.7-1.8,1.1c-0.6,0.4-1.3,0.7-1.9,1.1l-0.7,0.3c0.7-0.1,1.5-0.1,2.6-0.1H126.3z"/>
		<path class="st1" d="M134.8,95.2c2,0,3.5,0.6,4.6,1.9c1.1,1.3,1.7,3,1.7,5.2c0,2.1-0.6,3.9-1.8,5.2c-1.2,1.3-2.7,2-4.6,2
			c-2,0-3.5-0.6-4.6-1.9c-1.1-1.3-1.7-3-1.7-5.2c0-2.1,0.6-3.9,1.8-5.2S132.9,95.2,134.8,95.2z M137.3,102.4c0-1.8-0.2-3-0.7-3.7
			c-0.4-0.6-1-0.9-1.7-0.9c-1.6,0-2.4,1.5-2.4,4.5c0,1.8,0.2,3,0.7,3.7c0.4,0.6,0.9,0.9,1.7,0.9
			C136.4,106.9,137.3,105.4,137.3,102.4z"/>
		<path class="st1" d="M147.7,95.2h2.4v11.1h2.1v2.9h-8.5v-2.9h2.9v-7c-1.1,0.7-2.2,1.2-3.2,1.6l-0.9-1.9L147.7,95.2z"/>
		<path class="st1" d="M155.6,95.5h9.2l-0.5,3.1h-5.3l-0.4,3.7c0.5-0.1,0.9-0.1,1.3-0.1c1.7,0,3,0.5,4.1,1.5c1,1,1.6,2.2,1.6,3.8
			c0,2-0.8,3.6-2.4,4.9c-1.6,1.3-3.6,1.9-6.1,1.9c-0.7,0-1.4-0.1-2-0.2l-0.8-2.7c0.9,0.3,1.8,0.4,2.5,0.4c1.4,0,2.6-0.4,3.5-1.1
			c0.9-0.7,1.4-1.7,1.4-2.8c0-0.9-0.3-1.5-0.8-2.1c-0.5-0.5-1.2-0.8-2.1-0.8c-1,0-2.3,0.3-3.9,0.8L155.6,95.5z"/>
	</g>
</g>
</svg>
