<?xml version="1.0" encoding="utf-8"?>
<!-- Generator: Adobe Illustrator 19.1.0, SVG Export Plug-In . SVG Version: 6.00 Build 0)  -->
<svg version="1.1" id="Layer_1" xmlns="http://www.w3.org/2000/svg" xmlns:xlink="http://www.w3.org/1999/xlink" x="0px" y="0px"
	 viewBox="0 0 360 70" style="enable-background:new 0 0 360 70;" xml:space="preserve">
<style type="text/css">
	.st0{fill:#82BC00;}
	.st1{fill:#646569;}
</style>
<g>
	<path class="st0" d="M43.1,27.9c4.1,0,7.5,3.2,7.5,7.1c0,3.9-3.4,7.1-7.5,7.1c-0.4,0-0.7,0-1.1-0.1c1.5,1.1,3.4,1.7,5.3,1.7
		c1.9-0.1,3.7-0.8,5-2.1c-1.1,2.9-3.9,4.9-6.9,5.1c-0.2,3.1-2.2,5.8-5.1,6.9c1.3-1.3,2-3.2,2.1-5c0.1-1.9-0.6-3.8-1.7-5.3
		c0,0.3,0.1,0.7,0.1,1c0,4.2-3.2,7.5-7.1,7.5c-3.9,0-7.1-3.4-7.1-7.5c0-0.3,0-0.7,0.1-1c-1.1,1.5-1.7,3.4-1.7,5.3
		c0.1,1.8,0.8,3.7,2.1,5c-1.7-0.7-3.1-1.9-4-3.4c-0.5-0.9-0.8-1.9-1-2.9c0-0.2,0-0.3,0-0.4c0-0.1,0-0.1-0.1-0.1c0,0-0.1,0-0.2,0
		c-0.2,0-0.5-0.1-0.7-0.1c-0.5-0.1-1-0.2-1.5-0.4c-2-0.8-3.7-2.5-4.4-4.5c1.4,1.3,3.2,2.1,5,2.1c1.9,0.1,3.8-0.5,5.3-1.7
		c-0.3,0-0.7,0.1-1,0.1c-4.1,0-7.5-3.2-7.5-7.1c0-3.9,3.4-7.1,7.5-7.1c0.4,0,0.7,0,1,0.1c-1.5-1.1-3.4-1.7-5.3-1.7
		c-1.9,0.1-3.7,0.8-5,2.1c0.6-1.7,1.9-3.1,3.4-4c0.9-0.5,1.9-0.8,2.9-1c0.2,0,0.3,0,0.5,0c0.1,0,0.1,0,0.1-0.1v-0.2
		c0-0.3,0.1-0.5,0.1-0.7c0.1-0.5,0.2-1,0.4-1.5c0.8-2,2.5-3.7,4.5-4.5c-1.3,1.4-2,3.2-2.1,5c-0.1,1.9,0.5,3.8,1.6,5.3
		c0-0.4-0.1-0.7-0.1-1c0-4.2,3.2-7.5,7.1-7.5c3.9,0,7.1,3.4,7.1,7.5c0,0.4,0,0.7-0.1,1.1c1.1-1.5,1.7-3.4,1.7-5.3
		c-0.1-1.9-0.8-3.7-2.1-5c1.7,0.7,3.1,1.9,4,3.4c0.5,0.9,0.9,1.9,1,2.9c0,0.2,0,0.3,0,0.4c0,0.1,0,0.1,0.1,0.1c0.1,0,0.1,0,0.2,0
		c0.2,0,0.5,0.1,0.8,0.1c0.5,0.1,1,0.3,1.5,0.4c2,0.8,3.7,2.5,4.5,4.5c-1.3-1.3-3.2-2-5-2.1c-1.9-0.1-3.8,0.5-5.3,1.6
		C42.4,27.9,42.7,27.9,43.1,27.9 M33.7,1.5l-29,16.7v33.5l29,16.7l29-16.7V18.3L33.7,1.5L33.7,1.5z M39.8,33.3
		c-1.2,1.2-3.2,1.2-4.4,0c-1.2-1.2-1.2-3.2,0-4.4c0.8-0.7,1.8-1,2.7-0.8c0.1-0.5,0.2-1,0.2-1.5c0-2.8-2.1-5.1-4.7-5.1
		c-0.3,0-0.6,0-0.9,0.1c0,0-0.1,0-0.2,0c-0.1,0-0.1,0-0.2,0c-0.1,0-0.1,0.1-0.2,0.1c-0.1,0-0.1,0-0.2,0.1c-0.1,0-0.2,0-0.2,0.1
		c-0.1,0.1-0.2,0.1-0.4,0.2c0,0,0,0-0.1,0c-1.4,0.9-2.4,2.5-2.4,4.4c0,0.6,0.1,1,0.2,1.5c1-0.2,2,0.1,2.7,0.9c1.2,1.2,1.2,3.2,0,4.4
		c-1.2,1.2-3.2,1.2-4.4,0c-0.7-0.7-1-1.8-0.8-2.8c-0.5-0.1-1-0.2-1.5-0.2c-1.7,0-3.3,0.8-4.2,2c-0.1,0.1-0.1,0.1-0.1,0.2
		c0,0-0.1,0.1-0.1,0.1c-0.1,0.1-0.1,0.1-0.1,0.2c0,0,0,0.1-0.1,0.1c0,0.1-0.1,0.2-0.1,0.2c0,0.1-0.1,0.1-0.1,0.2
		c0,0.1-0.1,0.1-0.1,0.2c-0.1,0.4-0.2,0.9-0.2,1.3c0,2.6,2.3,4.6,5.1,4.6c0.5,0,1.1-0.1,1.5-0.2c-0.2-1,0.1-2,0.9-2.7
		c1.2-1.2,3.2-1.2,4.4,0c1.2,1.2,1.2,3.2,0,4.4c-0.7,0.7-1.8,1-2.7,0.9c-0.1,0.5-0.2,1-0.2,1.5c0,2.8,2.1,5.1,4.7,5.1
		c2.6,0,4.6-2.3,4.6-5.1c0-0.5-0.1-1-0.2-1.5c-1,0.2-2-0.1-2.7-0.9c-1.2-1.2-1.2-3.2,0-4.4c1.2-1.2,3.2-1.2,4.4,0
		c0.8,0.8,1,1.8,0.9,2.7c0.5,0.1,1,0.2,1.5,0.2c2.8,0,5.1-2.1,5.1-4.6c0-0.3,0-0.6-0.1-0.9c0-0.1,0-0.1,0-0.1c0-0.1-0.1-0.2-0.1-0.3
		c0,0,0-0.1,0-0.1c-0.6-1.9-2.6-3.2-4.8-3.2c-0.5,0-1.1,0.1-1.5,0.2C40.8,31.5,40.5,32.6,39.8,33.3"/>
	<path class="st1" d="M80.9,26.8c0-2-0.2-3.5-2.8-3.7l-0.6,0v-1.2h10.8v1.2h-0.4c-1.1,0.1-2.2,0.2-2.7,1.3c-0.4,0.8-0.4,2.1-0.4,3.1
		v5.7h13.7v-6.3c0-2-0.2-3.6-2.9-3.7l-0.6,0v-1.2h10.7v1.2h-0.4c-1,0.1-2.1,0.2-2.6,1.3c-0.4,0.7-0.4,1.8-0.4,2.8v16
		c0,2,0.2,3.5,2.9,3.7l0.6,0V48H95v-1.1h0.4c1-0.1,2.1-0.2,2.6-1.3c0.4-0.8,0.4-2.1,0.4-3.1v-7.7H84.7V43c0,2.1,0.2,3.6,2.9,3.8
		l0.7,0V48H77.5v-1.1h0.4c1-0.1,2.1-0.2,2.6-1.3c0.3-0.7,0.4-1.8,0.4-2.7V42V26.8L80.9,26.8z"/>
	<path class="st1" d="M112.9,27.6c-1.3,0-2.3-1.1-2.3-2.4c0-1.2,1.1-2.2,2.3-2.2c1.3,0,2.3,1.1,2.3,2.4
		C115.3,26.6,114.2,27.6,112.9,27.6 M114.8,43.1c0,2.1,0.3,3.5,2.7,3.7h0.5V48h-10.1v-1.1h0.3c2.5-0.2,2.9-1.4,2.9-3.7v-8
		c0-2.2-0.4-3.6-2.8-3.7h-0.6v-1.1l5.9-0.8h1.2V43.1L114.8,43.1z"/>
	<path class="st1" d="M144.2,28.8l-1.2,0.5c-3.1-3.9-6.3-5.7-11.3-5.7c-1.1,0-2.9,0-3.8,0.7c-1,0.7-1,1.8-1,3v5.9h2.6
		c3.9,0,4.6-0.9,5.1-4.7h1.3v11.5h-1.3c-0.1-1.2-0.3-2.3-1-3.3c-1-1.5-2.5-1.6-4.1-1.6h-2.5v7.6c0,0.8,0.1,2,0.6,2.7
		c0.8,1.1,2.7,1.1,3.9,1.1c5.9,0,9.4-2.4,12.8-7l1.2,0.5l-3.5,8.1h-22.3v-1.1l0.4,0c1-0.1,2.1-0.2,2.7-1.2c0.3-0.7,0.4-1.8,0.4-2.7
		v-16c0-2-0.2-3.5-2.9-3.7l-0.6,0v-1.1h21.9L144.2,28.8L144.2,28.8z"/>
	<path class="st1" d="M153.7,43.1c0,2.1,0.3,3.5,2.7,3.7h0.4V48h-9.8v-1.1c2.6-0.2,3-1.5,3-3.7v-8c0-2.1-0.4-3.6-2.8-3.7h-0.6v-1.1
		l5.9-0.8h1.2v2.6c1.7-1.8,4.3-3,7.2-3c2.4,0,4.2,0.7,5.3,3c1.9-1.7,4.6-3,7-3h0.2c1.6,0,3.3,0.6,4.3,1.9c0.8,1.1,0.9,2.4,0.9,3.7
		v8.4c0,2.1,0.3,3.5,2.9,3.7V48h-9.7v-1.1h0.3c2.4-0.2,2.8-1.5,2.8-3.7v-7.6c0-0.8,0-1.8-0.3-2.6c-0.5-1.1-1.5-1.9-2.7-1.9
		c-2,0-4.1,1.2-5.7,2.5v9.5c0,2.3,0.4,3.5,2.8,3.7h0.3V48l-10,0v-1.1h0.3c2.4-0.2,2.8-1.5,2.8-3.7v-7.7c0-2.1-0.2-4.4-2.9-4.4
		c-2.2,0-4.4,1.2-5.9,2.5V43.1L153.7,43.1z"/>
	<path class="st1" d="M189.8,44.5c1.2,1.2,2.8,2,4.6,2c4.4,0,5.9-3.7,5.9-7.6c0-3.6-1-7.9-5.5-7.9c-2.1,0-3.9,1.2-5,2.9V44.5
		L189.8,44.5z M189.8,51.9c0,2.3,0.4,3.6,2.9,3.7l0.8,0v1.2h-10.6v-1.2h0.3c2.5-0.1,2.9-1.4,2.9-3.7V35.2c0-2.1-0.4-3.6-2.8-3.7
		h-0.6v-1.1l5.9-0.8h1.2v2.4c1.5-1.8,3.6-2.8,6.1-2.8c5.6,0,8.4,4.4,8.4,9.5c0,5.3-3.1,9.7-8.7,9.7c-2.1,0-4.1-0.6-5.8-1.9V51.9
		L189.8,51.9z"/>
	<path class="st1" d="M213.5,43.1c0,2.1,0.3,3.5,2.6,3.7l0.5,0V48h-10v-1.1h0.4c2.5-0.2,2.9-1.4,2.9-3.7V26.7c0-2-0.2-3.5-2.9-3.7
		l-0.5,0v-1.2c1.9-0.2,3.8-0.5,5.6-1.3h1.5V43.1L213.5,43.1z"/>
	<path class="st1" d="M227.9,30.6c-4.3,0-5.4,4.7-5.4,8.2c0,3.7,1.1,8,5.6,8c4.2,0,5.1-4.3,5.1-7.7c0-1.8-0.2-4-1-5.6
		c-0.8-1.6-2.4-2.9-4.3-2.9H227.9L227.9,30.6z M234.5,31.5c1.9,1.8,2.8,4.7,2.8,7.3c0,5.8-3.6,9.5-9.4,9.5c-5.7,0-9.3-3.7-9.3-9.4
		c0-5.7,3.3-9.8,9.2-9.8C230.2,29.1,232.7,29.8,234.5,31.5"/>
	<path class="st1" d="M252.8,35.8c0.3-1,0.9-2.4,0.9-3.4c0-1.5-1.5-1.7-2.6-1.8v-1.1h8.5v1.1c-2.6,0.4-3.3,1.7-4.2,3.9l-6.1,14.7
		c-0.7,1.6-1.7,4-2.8,5.4c-1.3,1.4-3.2,2.4-5.1,2.4c-1.4,0-3.4-0.7-3.4-2.4c0-1.1,0.9-1.9,2-1.9c1.8,0,1.8,2,3.5,2
		c1.9,0,3.2-3.2,3.8-4.6l0.5-1.1l-6.5-15.6c-0.9-2-1-2.6-3.4-2.8v-1.1h9.1v1.1c-0.8,0-2.1,0.3-2.1,1.3c0,0.5,0.1,0.8,0.3,1.2
		l4.5,11.2L252.8,35.8L252.8,35.8z"/>
	<path class="st1" d="M267,43.1c0,2.1,0.3,3.5,2.7,3.7h0.4V48h-9.8v-1.1c2.6-0.2,3-1.5,3-3.7v-8c0-2.1-0.4-3.6-2.8-3.7h-0.6v-1.1
		l5.9-0.8h1.2v2.6c1.7-1.8,4.3-3,7.2-3c2.4,0,4.2,0.7,5.3,3c1.9-1.7,4.6-3,7-3h0.2c1.6,0,3.3,0.6,4.3,1.9c0.8,1.1,0.9,2.4,0.9,3.7
		v8.4c0,2.1,0.3,3.5,2.9,3.7V48h-9.7v-1.1h0.3c2.5-0.2,2.8-1.5,2.8-3.7v-7.6c0-0.8,0-1.8-0.3-2.6c-0.5-1.1-1.5-1.9-2.7-1.9
		c-2,0-4.1,1.2-5.7,2.5v9.5c0,2.3,0.4,3.5,2.8,3.7h0.3V48h-10v-1.1h0.3c2.4-0.2,2.8-1.5,2.8-3.7v-7.7c0-2.1-0.2-4.4-2.9-4.4
		c-2.2,0-4.4,1.2-5.9,2.5V43.1L267,43.1z"/>
	<path class="st1" d="M310,35.4c0-2.8-1.8-4.7-4.4-4.7c-2.7,0-4.5,2.3-4.8,4.7H310L310,35.4z M300.7,36.9l-0.1,2
		c0,1.8,0.6,3.8,1.6,5.3c1.1,1.6,3,2.4,4.9,2.4c2.6,0,4.4-1.3,5.6-3.5l1.3,0.6c-1.4,3-4.6,4.6-7.8,4.6c-2.6,0-4.8-0.7-6.7-2.5
		c-1.9-1.9-2.9-4.6-2.9-7.2c0-5.5,3.5-9.5,9.1-9.6h0.1c4.5,0,8.2,3,8.2,7.7v0.2H300.7L300.7,36.9z"/>
	<path class="st1" d="M336.8,43.2c0,2.1,0.3,3.5,2.7,3.7h0.5V48h-10.2v-1.1h0.5c2.4-0.2,2.8-1.6,2.8-3.7v-7.9c0-1-0.1-2-0.6-2.8
		c-0.6-0.9-1.7-1.4-2.7-1.4c-2.5,0-5,1.5-6.8,3.1v9c0,2.2,0.3,3.6,2.8,3.7h0.5V48l-10.4,0v-1.1h0.4c2.5-0.1,3-1.3,3-3.7v-8
		c0-2.1-0.4-3.6-2.8-3.7h-0.6v-1.1l5.9-0.8h1.2v3c2.3-2.1,5-3.4,8.2-3.4c1.5,0,3,0.5,4.1,1.5c1.3,1.1,1.5,2.4,1.5,4V43.2L336.8,43.2
		z"/>
	<path class="st1" d="M353.5,30.7H348v10.8c0,2.1,0,5.2,2.9,5.2c1.4,0,2.4-0.8,3.3-1.7l1,0.8c-1.3,1.7-3.3,2.5-5.4,2.5
		c-1.3,0-2.7-0.3-3.8-0.9c-1.5-1-1.7-2.5-1.7-4.2V30.7h-3.2v-1.2c4.4-0.2,5.2-3.3,5.2-7h1.6v7h5.4V30.7L353.5,30.7z"/>
</g>
</svg>
