<?xml version="1.0" encoding="utf-8"?>
<!-- Generator: Adobe Illustrator 16.0.4, SVG Export Plug-In . SVG Version: 6.00 Build 0)  -->
<!DOCTYPE svg PUBLIC "-//W3C//DTD SVG 1.1//EN" "http://www.w3.org/Graphics/SVG/1.1/DTD/svg11.dtd">
<svg version="1.1" id="Layer_1" xmlns="http://www.w3.org/2000/svg" xmlns:xlink="http://www.w3.org/1999/xlink" x="0px" y="0px"
	 width="30px" height="30px" viewBox="0 0 30 30" style="enable-background:new 0 0 30 30;" xml:space="preserve">
<style type="text/css">
<![CDATA[
	.st0{fill:#A5A5A5;}
]]>
</style>
<path class="st0" d="M24.2,0H5.8C2.6,0,0,2.6,0,5.8v18.4C0,27.4,2.6,30,5.8,30h18.4c3.2,0,5.8-2.6,5.8-5.8V5.8C30,2.6,27.4,0,24.2,0
	z M9.7,24.6h-4V11.8h4V24.6z M7.7,10c-1.3,0-2.3-1-2.3-2.3c0-1.3,1-2.3,2.3-2.3c1.3,0,2.3,1,2.3,2.3C10,9,9,10,7.7,10z M24.6,24.6
	h-4v-6.2c0-1.5,0-3.4-2.1-3.4c-2.1,0-2.4,1.6-2.4,3.3v6.3h-4V11.8H16v1.7h0.1c0.5-1,1.8-2.1,3.8-2.1c4,0,4.8,2.7,4.8,6.1V24.6z"/>
</svg>
