<svg xmlns="http://www.w3.org/2000/svg" viewBox="0 0 87.09 41.15"><defs><style>.cls-1{fill:#89211c;}.cls-2{fill:#adaeb0;}</style></defs><title>Asset 1</title><g id="Layer_2" data-name="Layer 2"><g id="Layer_1-2" data-name="Layer 1"><path class="cls-1" d="M57.7,29H45.19L45,25c6.32-3.46,7.72-5.24,7.72-7.4,0-1.71-.86-2.54-2.22-2.54a5.78,5.78,0,0,0-1.18.13L49,16.88a16.21,16.21,0,0,1-1.84.1,17.46,17.46,0,0,1-1.91-.1v-4.6a15.43,15.43,0,0,1,5.24-.95c4.1,0,6.89,1.87,6.89,5.78,0,2.63-1.4,4.95-5.78,7.62V25H58a25.5,25.5,0,0,1-.28,4Z"/><path class="cls-1" d="M64.75,33.37a14.48,14.48,0,0,1-5.26-.93V27.81c.53-.06,1.39-.1,1.93-.1a17.8,17.8,0,0,1,1.81.1l.29,1.68a5.51,5.51,0,0,0,1.3.16c1.84,0,2.82-1,2.82-2.92,0-2.13-1.46-3-5-3H59.77c.13-4.06.54-8.67,1-12.09H71.9a28.59,28.59,0,0,1-.32,4H64.44L64.05,20h.32c4.16,0,7.94,1.62,7.94,6.51,0,4.19-3.17,6.86-7.56,6.86Z"/><path class="cls-1" d="M79.11,18.92H75.68l2.78,2L77.39,24.2l2.78-2,2.78,2-1.06-3.27,2.77-2H81.23l-1.06-3.27-1.06,3.27Zm1.06,10.35c-4.25,0-6.92-2.48-6.92-9,0-6.32,2.89-9,6.92-9,4.35,0,6.92,2.51,6.92,9,0,6.2-2.73,9-6.92,9Z"/><path class="cls-1" d="M13.53,16.31c-.4,0-1.06.1-1.52.1s-1.17-.06-1.6-.1l-.15-1.4H8.64v11l1.65.25a12.56,12.56,0,0,1,.07,1.39A13.5,13.5,0,0,1,10.29,29h-7a13.5,13.5,0,0,1-.07-1.42,12.56,12.56,0,0,1,.07-1.39l1.65-.25v-11H3.32l-.25,1.5A21,21,0,0,1,0,16.18c0-.89.18-3,.33-4.26h13.2v4.39Z"/><path class="cls-1" d="M21.23,14.79c-2.3,0-3.42,1.34-3.42,5.67s1.17,5.68,3.45,5.68,3.39-1.42,3.39-5.68-1.24-5.67-3.42-5.67Zm0,14.47c-4.51,0-7.38-2.72-7.38-8.75s3-8.84,7.35-8.84c4.54,0,7.35,2.73,7.35,8.79s-3,8.8-7.32,8.8Z"/><path class="cls-1" d="M36.82,14.71c-.64,0-1.17,0-1.6,0v5.53h1.42c1.7,0,2.61-.86,2.61-2.94s-1-2.61-2.43-2.61Zm.1,8.51h-1.7v2.72l1.75.25a12.52,12.52,0,0,1,.08,1.39A13.52,13.52,0,0,1,37,29H29.83a11.27,11.27,0,0,1-.08-1.42,10.49,10.49,0,0,1,.08-1.39l1.64-.25V15l-1.64-.26a10.49,10.49,0,0,1-.08-1.39,11.27,11.27,0,0,1,.08-1.42c2.22-.08,4.71-.13,6.48-.13,4.16,0,6.69,1.52,6.69,5.53,0,4.18-2.91,5.9-6.08,5.9Z"/><path class="cls-1" d="M57.53,28.78H45l-.23-4c6.33-3.46,7.72-5.24,7.72-7.4,0-1.71-.85-2.54-2.22-2.54a5.87,5.87,0,0,0-1.18.13l-.28,1.72c-.57.06-1.27.09-1.84.09s-1.37,0-1.91-.09V12.11a15.43,15.43,0,0,1,5.24-.95c4.1,0,6.89,1.87,6.89,5.78,0,2.63-1.39,4.95-5.78,7.62v.22h6.39a25.55,25.55,0,0,1-.29,4Z"/><path class="cls-1" d="M64.59,33.2a14.81,14.81,0,0,1-5.28-.92V27.64c.54-.06,1.4-.1,1.94-.1a17.8,17.8,0,0,1,1.81.1l.29,1.68a5.51,5.51,0,0,0,1.3.16c1.84,0,2.83-1,2.83-2.92,0-2.13-1.46-3-5-3H59.6c.13-4.07.54-8.67,1-12.1H71.73a28.86,28.86,0,0,1-.32,4H64.27l-.38,4.35h.31c4.17,0,7.94,1.62,7.94,6.51,0,4.19-3.17,6.86-7.55,6.86Z"/><path class="cls-1" d="M78.94,18.75H75.51l2.77,2-1,3.26L80,22l2.78,2-1.06-3.26,2.77-2H81.06L80,15.49l-1.06,3.26ZM80,29.1c-4.25,0-6.92-2.48-6.92-9,0-6.32,2.89-8.95,6.92-8.95,4.35,0,6.92,2.51,6.92,9,0,6.19-2.73,9-6.92,9Z"/><polygon class="cls-1" points="21.3 8.3 21.3 4.81 19.9 4.81 19.9 8.3 18.58 8.3 18.58 0 19.9 0 19.9 3.6 21.3 3.6 21.3 0 22.62 0 22.62 8.3 21.3 8.3 21.3 8.3"/><path class="cls-1" d="M25.16,5.46c-.62.21-.93.56-.93,1V7c0,.29.13.52.41.52a.54.54,0,0,0,.52-.58V5.46ZM26.22,8.4a.79.79,0,0,1-.81-.65,1.16,1.16,0,0,1-1.07.65c-.7,0-1.17-.54-1.17-1.46V6.66c0-1.1.85-1.62,2-2V3.69c0-.3-.12-.48-.41-.48s-.4.18-.4.5v.53h-1V3.76A1.38,1.38,0,0,1,24.8,2.23c1,0,1.43.67,1.43,1.62V7.26c0,.19.08.29.25.3V8.4Z"/><polygon class="cls-1" points="30.64 8.3 29.7 8.3 29.31 5.93 29.16 4.7 29 5.93 28.61 8.3 27.68 8.3 26.64 2.32 27.73 2.32 28.08 5.22 28.21 6.52 28.35 5.22 28.75 2.32 29.66 2.32 30.02 5.22 30.17 6.52 30.31 5.22 30.68 2.32 31.69 2.32 30.64 8.3 30.64 8.3"/><path class="cls-1" d="M33.85,5.46c-.62.21-.93.56-.93,1V7c0,.29.13.52.41.52a.54.54,0,0,0,.52-.58V5.46ZM34.91,8.4a.79.79,0,0,1-.81-.65A1.16,1.16,0,0,1,33,8.4c-.7,0-1.17-.54-1.17-1.46V6.66c0-1.1.84-1.62,2-2V3.69c0-.3-.13-.48-.41-.48s-.4.18-.4.5v.53H32V3.76a1.38,1.38,0,0,1,1.46-1.53c1,0,1.43.67,1.43,1.62V7.26c0,.19.08.29.25.3V8.4Z"/><path class="cls-1" d="M35.69,1.56V.4h1.06V1.56Zm0,6.74v-6h1.11v6Z"/><path class="cls-1" d="M37.53,1.56V.4h1.06V1.56Zm0,6.74v-6h1.11v6Z"/><path class="cls-2" d="M41.85,5.2c0-.38-.18-.59-.51-.59h-.63V7.16h.7c.31,0,.44-.18.44-.53V5.2Zm0-3.53c0-.35-.15-.54-.46-.54h-.67V3.6h.62c.33,0,.51-.18.51-.57V1.67Zm-.3,6.63H39.37V0h2.15a1.45,1.45,0,0,1,1.59,1.61v1.2a1.14,1.14,0,0,1-.82,1.25,1.17,1.17,0,0,1,.85,1.25V6.69a1.45,1.45,0,0,1-1.6,1.61Z"/><path class="cls-2" d="M46,8.3l-.06-.72a1.12,1.12,0,0,1-1.06.82c-.68,0-1.07-.52-1.07-1.31V2.32h1.11v4.6a.47.47,0,0,0,.44.52c.31,0,.49-.39.49-.67V2.32h1.12v6Z"/><path class="cls-2" d="M49,8.4a1.45,1.45,0,0,1-1.53-1.62V6.42h1v.45c0,.41.18.6.52.6a.47.47,0,0,0,.52-.53c0-.55-.27-.76-.92-1.36a2.18,2.18,0,0,1-1-1.78A1.43,1.43,0,0,1,49,2.23,1.4,1.4,0,0,1,50.46,3.8v.37h-.93V3.71A.46.46,0,0,0,49,3.2a.43.43,0,0,0-.46.48c0,.43.24.71.79,1.18a2.36,2.36,0,0,1,1.16,1.93A1.47,1.47,0,0,1,49,8.4Z"/><path class="cls-2" d="M51,1.56V.4H52.1V1.56ZM51,8.3v-6h1.12v6Z"/><path class="cls-2" d="M54.89,8.3V3.73c0-.31-.17-.53-.42-.53s-.51.39-.51.67V8.3H52.85v-6h1l.07.78a1.13,1.13,0,0,1,1-.87c.68,0,1.06.52,1.06,1.31V8.3Z"/><path class="cls-2" d="M58.66,3.76c0-.33-.15-.56-.46-.56s-.48.23-.48.56V4.82h.94V3.76ZM58.19,8.4a1.55,1.55,0,0,1-1.55-1.7V3.93a1.56,1.56,0,0,1,1.55-1.7,1.51,1.51,0,0,1,1.48,1.7V5.46h-2V6.88c0,.32.17.55.48.55s.47-.23.47-.55V6.14h1v.58A1.49,1.49,0,0,1,58.19,8.4Z"/><path class="cls-2" d="M61.65,8.4a1.45,1.45,0,0,1-1.53-1.62V6.42h1v.45c0,.41.18.6.52.6a.47.47,0,0,0,.52-.53c0-.55-.27-.76-.92-1.36a2.18,2.18,0,0,1-1-1.78,1.43,1.43,0,0,1,1.47-1.57A1.4,1.4,0,0,1,63.1,3.8v.37h-.93V3.71a.46.46,0,0,0-.51-.51.43.43,0,0,0-.46.48c0,.43.24.71.79,1.18a2.36,2.36,0,0,1,1.16,1.93,1.47,1.47,0,0,1-1.5,1.61Z"/><path class="cls-2" d="M65,8.4a1.44,1.44,0,0,1-1.53-1.62V6.42h1v.45c0,.41.18.6.52.6a.47.47,0,0,0,.52-.53c0-.55-.27-.76-.92-1.36a2.17,2.17,0,0,1-1-1.78A1.44,1.44,0,0,1,65,2.23,1.39,1.39,0,0,1,66.41,3.8v.37h-.92V3.71A.46.46,0,0,0,65,3.2a.43.43,0,0,0-.46.48c0,.43.24.71.79,1.18a2.35,2.35,0,0,1,1.15,1.93A1.46,1.46,0,0,1,65,8.4Z"/><path class="cls-2" d="M20.91,35.77c1.22,0,2.47.5,2.47,1.55,0,.87-.82,1.36-2,1.73-.95.31-1.66.65-1.82,1h3.9V41H18.17v-.51c.14-.95,1.06-1.76,2.56-2.24.84-.29,1.47-.47,1.47-.89s-.66-.66-1.32-.66a2.56,2.56,0,0,0-1.92.88L18.28,37A3.23,3.23,0,0,1,20.91,35.77Z"/><path class="cls-2" d="M24.2,38.46c0-1.69,1.17-2.7,3.08-2.7s3.09,1,3.09,2.7-1.17,2.69-3.09,2.69S24.2,40.14,24.2,38.46Zm5,0c0-1.12-.73-1.7-1.9-1.7s-1.91.58-1.91,1.7.73,1.69,1.91,1.69S29.19,39.57,29.19,38.46Z"/><path class="cls-2" d="M32.44,37.2a3.52,3.52,0,0,1-1.54.57v-1a3.74,3.74,0,0,0,1.82-.88h.88V41H32.44Z"/><path class="cls-2" d="M36,37.2a3.48,3.48,0,0,1-1.53.57v-1a3.83,3.83,0,0,0,1.82-.88h.87V41H36Z"/><path class="cls-2" d="M39.11,39.27v-.94h3.33v.94Z"/><path class="cls-2" d="M47,35.77c1.21,0,2.46.5,2.46,1.55,0,.87-.82,1.36-2,1.73-.94.31-1.65.65-1.82,1h3.9V41H44.28v-.51c.14-.95,1.06-1.76,2.56-2.24.84-.29,1.48-.47,1.48-.89s-.66-.66-1.33-.66a2.52,2.52,0,0,0-1.91.88L44.39,37A3.24,3.24,0,0,1,47,35.77Z"/><path class="cls-2" d="M50.31,38.46c0-1.69,1.17-2.7,3.08-2.7s3.09,1,3.09,2.7-1.17,2.69-3.09,2.69S50.31,40.14,50.31,38.46Zm5,0c0-1.12-.73-1.7-1.9-1.7s-1.91.58-1.91,1.7.73,1.69,1.91,1.69S55.3,39.57,55.3,38.46Z"/><path class="cls-2" d="M58.55,37.2a3.48,3.48,0,0,1-1.53.57v-1a3.83,3.83,0,0,0,1.82-.88h.87V41H58.55Z"/><path class="cls-2" d="M66.48,39.59c0,1-1.18,1.56-2.87,1.56s-2.86-.58-2.86-1.56c0-.78.74-1.16,1.43-1.26a1.23,1.23,0,0,1-1.24-1.14c0-.95,1.2-1.43,2.67-1.43s2.67.48,2.67,1.43A1.23,1.23,0,0,1,65,38.33C65.72,38.43,66.48,38.81,66.48,39.59Zm-1.21-.08c0-.53-.71-.77-1.66-.77S62,39,62,39.51s.71.78,1.66.78S65.27,40.07,65.27,39.51ZM63.61,38c.8,0,1.51-.18,1.51-.67s-.71-.68-1.51-.68-1.5.18-1.5.68S62.81,38,63.61,38Z"/></g></g></svg>