<svg id="Layer_1" data-name="Layer 1" xmlns="http://www.w3.org/2000/svg" viewBox="0 0 266 150"><defs><style>.cls-1{fill:#65656a;}.cls-2{fill:#999;}</style></defs><title>24c74c98c2df4be76e597dce030686ef</title><path class="cls-1" d="M167.55,91H137l-0.55-9.69c15.43-8.45,18.84-12.79,18.84-18.07,0-4.18-2.09-6.2-5.43-6.2a13.62,13.62,0,0,0-2.87.31l-0.73,4.18a42.65,42.65,0,0,1-4.49.25,45.62,45.62,0,0,1-4.65-.25V50.25a37.26,37.26,0,0,1,12.79-2.33c10,0,16.83,4.57,16.83,14.11,0,6.43-3.41,12.09-14.11,18.6v0.54h15.58a61.82,61.82,0,0,1-.73,9.77h0.07Z"/><path class="cls-1" d="M184.77,101.72a35.72,35.72,0,0,1-12.86-2.25V88.16c1.31-.15,3.4-0.23,4.72-0.23a41.55,41.55,0,0,1,4.42.23l0.73,4.11a14.58,14.58,0,0,0,3.18.39c4.49,0,6.9-2.4,6.9-7.13,0-5.19-3.56-7.29-12.09-7.29h-7.14c0.31-9.92,1.32-21.14,2.41-29.53h27.2a69.57,69.57,0,0,1-.77,9.76H184l-0.93,10.62h0.78c10.15,0,19.38,4,19.38,15.89,0,10.21-7.75,16.77-18.45,16.77h0v0Z"/><path class="cls-1" d="M219.81,66.42h-8.38l6.78,4.92-2.59,8,6.78-4.92,6.78,4.92-2.6-7.93,6.78-4.92H225l-2.59-8-2.6,7.93h0Zm2.59,25.27c-10.39,0-16.9-6.05-16.9-21.94,0-15.43,7.06-21.87,16.9-21.87,10.62,0,16.9,6.13,16.9,21.94,0,15.12-6.67,21.87-16.9,21.87h0Z"/><path class="cls-1" d="M59.73,60.08a36.16,36.16,0,0,1-3.71.25c-1.06,0-2.84-.12-3.9-0.25l-0.37-3.4h-4V83.59l4,0.62a30.43,30.43,0,0,1,.18,3.4,32.5,32.5,0,0,1-.18,3.46H34.61a32.51,32.51,0,0,1-.18-3.46,30.42,30.42,0,0,1,.18-3.4l4-.62V56.67H34.8l-0.62,3.65a50.3,50.3,0,0,1-7.48-.55c0.06-2.19.43-7.24,0.8-10.39H59.73v10.7h0Z"/><path class="cls-1" d="M78.53,56.37c-5.63,0-8.35,3.28-8.35,13.85,0,10.39,2.84,13.85,8.41,13.85s8.29-3.46,8.29-13.85c0-10.71-3-13.85-8.35-13.85h0Zm0.07,35.33c-11,0-18-6.62-18-21.35,0-14.41,7.24-21.59,17.94-21.59,11.07,0,17.94,6.69,17.94,21.47,0,14.47-7.29,21.47-17.88,21.47h0Z"/><path class="cls-1" d="M116.59,56.21c-1.55,0-2.84,0-3.9.06V69.73h3.46c4.14,0,6.37-2.1,6.37-7.17,0-4.77-2.35-6.38-5.94-6.38h0v0ZM116.84,77h-4.15v6.63L117,84.24a29.85,29.85,0,0,1,.19,3.4,31.88,31.88,0,0,1-.19,3.46H99.5a31.35,31.35,0,0,1-.19-3.46,29.35,29.35,0,0,1,.19-3.4l4-.62V56.86l-4-.65a29.28,29.28,0,0,1-.19-3.4,31.14,31.14,0,0,1,.19-3.46C104.94,49.16,111,49,115.34,49c10.15,0,16.33,3.71,16.33,13.49,0,10.21-7.12,14.41-14.85,14.41h0Z"/><path class="cls-1" d="M167.13,90.54H136.59L136,80.84c15.44-8.44,18.85-12.79,18.85-18.07,0-4.18-2.09-6.2-5.42-6.2a13.79,13.79,0,0,0-2.87.31l-0.73,4.18a43.56,43.56,0,0,1-4.48.25c-1.31,0-3.33-.08-4.66-0.23V49.83a37.38,37.38,0,0,1,12.8-2.33c10,0,16.83,4.58,16.83,14.11,0,6.43-3.41,12.09-14.11,18.6v0.54h15.58a61.62,61.62,0,0,1-.73,9.77h0.05Z"/><path class="cls-1" d="M184.39,101.31a36,36,0,0,1-12.87-2.25V87.74a46.58,46.58,0,0,1,4.72-.23,40.47,40.47,0,0,1,4.42.23l0.73,4.11a14.39,14.39,0,0,0,3.18.38c4.49,0,6.9-2.4,6.9-7.13,0-5.19-3.56-7.29-12.09-7.29h-7.13c0.31-9.93,1.32-21.14,2.41-29.53h27.21a69.26,69.26,0,0,1-.78,9.76h-17.5l-0.92,10.64h0.77c10.16,0,19.39,4,19.39,15.89,0,10.21-7.76,16.77-18.45,16.77h0Z"/><path class="cls-1" d="M219.38,66H211L217.8,71l-2.58,8L222,74l6.78,4.92-2.59-8L233,66h-8.38l-2.59-8-2.61,8h0ZM222,91.32c-10.39,0-16.9-6.05-16.9-21.94,0-15.43,7-21.87,16.9-21.87,10.62,0,16.9,6.13,16.9,21.94,0,15.11-6.66,21.87-16.9,21.87h0Z"/><polygon class="cls-1" points="78.68 40.54 78.68 32.02 75.28 32.02 75.28 40.54 72.05 40.54 72.05 20.27 75.28 20.27 75.28 29.06 78.68 29.06 78.68 20.27 81.92 20.27 81.92 40.54 78.68 40.54 78.68 40.54"/><path class="cls-1" d="M88.12,33.61c-1.52.52-2.28,1.37-2.28,2.52v1.12a1.09,1.09,0,0,0,.87,1.27l0.13,0a1.35,1.35,0,0,0,1.29-1.41V33.61h0Zm2.59,7.18a1.94,1.94,0,0,1-2-1.58,2.85,2.85,0,0,1-2.62,1.58c-1.71,0-2.87-1.31-2.87-3.56V36.53c0-2.68,2.07-4,4.87-5V29.27a1,1,0,0,0-1-1.16c-0.73,0-1,.43-1,1.22v1.28H83.67V29.46c0-2.19,1.19-3.74,3.56-3.74s3.5,1.64,3.5,4V38a0.61,0.61,0,0,0,.48.72h0.12v2H90.7v0Z"/><polygon class="cls-1" points="101.48 40.54 99.2 40.54 98.25 34.76 97.88 31.74 97.49 34.76 96.55 40.54 94.27 40.54 91.74 25.93 94.39 25.93 95.24 33.02 95.57 36.19 95.91 33.02 96.88 25.93 99.1 25.93 99.99 33.02 100.35 36.19 100.69 33.02 101.6 25.93 104.06 25.93 101.48 40.54 101.48 40.54"/><path class="cls-1" d="M109.3,33.61c-1.52.52-2.28,1.37-2.28,2.52v1.12a1.09,1.09,0,0,0,1,1.28,1.34,1.34,0,0,0,1.29-1.39V33.61h0Zm2.59,7.18a1.93,1.93,0,0,1-2-1.58,2.85,2.85,0,0,1-2.62,1.58c-1.71,0-2.87-1.31-2.87-3.56V36.53c0-2.68,2.07-4,4.87-5V29.27a1,1,0,0,0-1-1.16c-0.73,0-1,.43-1,1.22v1.28h-2.46V29.46c0-2.19,1.19-3.74,3.56-3.74s3.5,1.64,3.5,4V38a0.61,0.61,0,0,0,.48.72h0.12v2h-0.63v0Z"/><path class="cls-1" d="M113.83,24.08V21.22h2.59v2.84h-2.59v0Zm-0.06,16.46V26h2.7V40.54h-2.7Z"/><path class="cls-1" d="M118.31,24.08V21.22h2.58v2.84h-2.58v0Zm-0.06,16.46V26H121V40.54h-2.71Z"/><path class="cls-2" d="M128.87,33a1.22,1.22,0,0,0-1.25-1.46h-1.55v6.23h1.71a1.08,1.08,0,0,0,1.09-1.31V33h0Zm0-8.61A1.09,1.09,0,0,0,127.74,23h-1.67v6h1.52a1.18,1.18,0,0,0,1.25-1.4V24.35h0Zm-0.73,16.19h-5.3V20.27h5.23c2.25,0,3.89,1.18,3.89,3.92v2.92a2.8,2.8,0,0,1-2,3,2.84,2.84,0,0,1,2.07,3v3.38c0,2.77-1.68,3.93-3.89,3.93h0v0Z"/><path class="cls-2" d="M138.88,40.54l-0.15-1.76a2.75,2.75,0,0,1-2.58,2c-1.68,0-2.62-1.28-2.62-3.19V25.93h2.7V37.16a1.14,1.14,0,0,0,1,1.27h0.06a1.57,1.57,0,0,0,1.21-1.64V25.93h2.71V40.51h-2.35v0Z"/><path class="cls-2" d="M146.33,40.78c-2.4,0-3.75-1.52-3.75-4V35.94h2.35V37a1.21,1.21,0,0,0,1.27,1.46,1.14,1.14,0,0,0,1.29-1.24c0-1.34-.67-1.86-2.25-3.32a5.28,5.28,0,0,1-2.52-4.37,3.5,3.5,0,0,1,3.59-3.83c2.34,0,3.56,1.58,3.56,3.83v0.9h-2.25V29.33a1.14,1.14,0,0,0-1-1.25h-0.23a1,1,0,0,0-1.12,1.15c0,1.06.58,1.74,1.92,2.92,1.55,1.19,2.84,2.46,2.84,4.71s-1.25,3.93-3.65,3.93h0Z"/><path class="cls-2" d="M151.29,24.08V21.22h2.59v2.84h-2.59v0Zm-0.06,16.46V26h2.71V40.54h-2.71Z"/><path class="cls-2" d="M160.7,40.54V29.37a1.12,1.12,0,0,0-.95-1.27h-0.09a1.6,1.6,0,0,0-1.24,1.64V40.54h-2.71V26h2.43l0.15,1.92a2.7,2.7,0,0,1,2.55-2.13c1.64,0,2.59,1.28,2.59,3.19v11.6H160.7Z"/><path class="cls-2" d="M169.89,29.46a1.15,1.15,0,0,0-1.12-1.37,1.19,1.19,0,0,0-1.14,1.37v2.6h2.28v-2.6h0Zm-1.15,11.32c-2.19,0-3.78-1.64-3.78-4.14V29.86c0-2.46,1.59-4.14,3.78-4.14s3.65,1.68,3.65,4.14v3.75h-4.76v3.47a1.16,1.16,0,0,0,1,1.32h0.19a1.13,1.13,0,0,0,1.15-1.33V35.27h2.43v1.4c0,2.47-1.41,4.11-3.65,4.11h0Z"/><path class="cls-2" d="M177.19,40.78c-2.41,0-3.74-1.52-3.74-4V35.94h2.34V37a1.21,1.21,0,0,0,1.28,1.46,1.14,1.14,0,0,0,1.28-1.24c0-1.34-.67-1.86-2.25-3.32a5.28,5.28,0,0,1-2.52-4.37,3.5,3.5,0,0,1,3.59-3.83c2.35,0,3.56,1.58,3.56,3.83v0.9h-2.25V29.33a1.14,1.14,0,0,0-1-1.25h-0.24a1,1,0,0,0-1.12,1.15c0,1.06.58,1.74,1.92,2.92,1.55,1.19,2.83,2.46,2.83,4.71s-1.25,3.93-3.65,3.93h0Z"/><path class="cls-2" d="M185.29,40.78c-2.41,0-3.74-1.52-3.74-4V35.94h2.34V37a1.21,1.21,0,0,0,1.28,1.46,1.14,1.14,0,0,0,1.28-1.24c0-1.34-.67-1.86-2.25-3.32a5.28,5.28,0,0,1-2.53-4.37,3.5,3.5,0,0,1,3.59-3.83c2.34,0,3.56,1.58,3.56,3.83v0.9h-2.24V29.33a1.14,1.14,0,0,0-1-1.25h-0.22a1,1,0,0,0-1.14,1.15c0,1.06.58,1.74,1.92,2.92,1.55,1.19,2.82,2.46,2.82,4.71s-1.25,3.93-3.65,3.93h0Z"/><path class="cls-2" d="M84,120.63l-0.78,3H72.07v-3.27q0.59-.24,2.76-1.4a16.77,16.77,0,0,0,3.7-2.6,2.75,2.75,0,0,0,.94-1.93q0-1.8-2.14-1.8a6.14,6.14,0,0,0-3.65,1.72l-2.15-2.23a9.89,9.89,0,0,1,6.77-2.66,5.69,5.69,0,0,1,3.81,1.21,4,4,0,0,1,1.46,3.19,5.45,5.45,0,0,1-2.52,4.37q-0.59.43-1.8,1.13l-1.88,1.07-0.73.35a20.34,20.34,0,0,1,2.6-.13H84v0Z"/><path class="cls-2" d="M92.58,109.62a5.89,5.89,0,0,1,4.64,1.95A8.6,8.6,0,0,1,97.18,122a6.44,6.44,0,0,1-9.11.19L87.91,122A8.6,8.6,0,0,1,88,111.6,5.91,5.91,0,0,1,92.58,109.62ZM95,116.85a6.91,6.91,0,0,0-.73-3.7,1.9,1.9,0,0,0-1.72-.89q-2.44,0-2.44,4.48a6.91,6.91,0,0,0,.73,3.7,1.9,1.9,0,0,0,1.72.88q2.44,0,2.44-4.48h0Z"/><path class="cls-2" d="M105.42,109.62h2.41v11.09H110v2.92h-8.52v-2.92h2.92v-7a15.62,15.62,0,0,1-3.22,1.56l-0.91-1.93Z"/><path class="cls-2" d="M116.58,109.62H119v11.09h2.15v2.92h-8.52v-2.92h2.92v-7a15.62,15.62,0,0,1-3.22,1.56l-0.91-1.93Z"/><path class="cls-2" d="M128.49,114.72h6.44v3.11h-6.44v-3.11Z"/><path class="cls-2" d="M154.95,124.15H143.32v-3.4c1-.5,1.23-0.5,2.87-1.45,3.85-2.17,4.82-3.43,4.82-4.71s-0.92-1.87-2.23-1.87-2.23.5-3.79,1.78l-2.23-2.31a10,10,0,0,1,7-2.76c3.32,0,5.44,1.84,5.44,4.57a5.48,5.48,0,0,1-2.62,4.52c-1,.75-2.7,1.62-3.82,2.29-0.14.08-.45,0.22-0.73,0.36a24.57,24.57,0,0,1,2.7-.14h5Z"/><path class="cls-2" d="M164.59,124.49c-4.07,0-6.61-2.93-6.61-7.42s2.7-7.47,6.63-7.47,6.61,2.93,6.61,7.42S168.52,124.49,164.59,124.49Zm0-12.16c-1.9,0-2.54,1.84-2.54,4.66,0,3.93,1.09,4.77,2.51,4.77,1.9,0,2.54-1.84,2.54-4.66C167.12,113.17,166,112.33,164.61,112.33Z"/><path class="cls-2" d="M174.23,124.15v-3h3v-7.22a16.13,16.13,0,0,1-3.35,1.62l-0.95-2,5.38-3.9h2.51v11.51h2.23v3h-8.84Z"/><path class="cls-2" d="M195.66,113.14a47.89,47.89,0,0,0-5.86,11.68,37.7,37.7,0,0,0-.81,3.88l-4.1,1a52.42,52.42,0,0,1,2-6.69,45,45,0,0,1,2.45-5.6,28.3,28.3,0,0,1,2.59-4.29,4.56,4.56,0,0,1-1.12.11h-7l0.84-3.37h11.63Z"/></svg>