<svg id="Layer_1" data-name="Layer 1" xmlns="http://www.w3.org/2000/svg" viewBox="0 0 125.39 79.3"><defs><style>.cls-1{fill:#8a221d;}.cls-2,.cls-3{fill:#aeafb1;}.cls-3{font-size:11px;font-family:MetaBold-Roman, Meta;}</style></defs><path class="cls-1" d="M76.85,46.2H64.34l-.23-4c6.32-3.46,7.72-5.24,7.72-7.4,0-1.71-.86-2.54-2.22-2.54a5.15,5.15,0,0,0-1.18.13l-.28,1.71a16.21,16.21,0,0,1-1.84.1,17.46,17.46,0,0,1-1.91-.1v-4.6a15.15,15.15,0,0,1,5.24-1c4.09,0,6.89,1.87,6.89,5.78,0,2.63-1.4,5-5.78,7.62v.22h6.38a25.5,25.5,0,0,1-.28,4Z"/><path class="cls-1" d="M83.9,50.61a14.58,14.58,0,0,1-5.27-.92V45.06a18,18,0,0,1,1.94-.1,15.32,15.32,0,0,1,1.81.1l.29,1.68a6.09,6.09,0,0,0,1.3.16c1.84,0,2.82-1,2.82-2.92,0-2.13-1.46-3-5-3H78.92c.13-4.06.54-8.67,1-12.1H91.05a28.61,28.61,0,0,1-.32,4H83.59l-.39,4.35h.32c4.16,0,7.94,1.62,7.94,6.52,0,4.19-3.17,6.85-7.56,6.85Z"/><path class="cls-1" d="M98.26,36.17H94.83l2.77,2-1.06,3.27,2.78-2,2.78,2L101,38.18l2.77-2h-3.43L99.32,32.9l-1.06,3.27Zm1.06,10.35c-4.26,0-6.92-2.48-6.92-9,0-6.32,2.89-9,6.92-9,4.35,0,6.92,2.51,6.92,9,0,6.2-2.73,9-6.92,9Z"/><path class="cls-1" d="M32.68,33.55a14.55,14.55,0,0,1-1.52.1c-.43,0-1.17,0-1.6-.1l-.15-1.39H27.79v11l1.65.25a12.56,12.56,0,0,1,.07,1.39,13.5,13.5,0,0,1-.07,1.42h-7a13.52,13.52,0,0,1-.08-1.42,12.52,12.52,0,0,1,.08-1.39L24,43.19v-11H22.47l-.26,1.49a21,21,0,0,1-3.06-.22c0-.89.17-3,.33-4.26h13.2v4.38Z"/><path class="cls-1" d="M40.38,32C38.08,32,37,33.38,37,37.71s1.17,5.68,3.45,5.68S43.8,42,43.8,37.71,42.56,32,40.38,32Zm0,14.48c-4.51,0-7.38-2.72-7.38-8.75s3-8.84,7.35-8.84c4.54,0,7.35,2.73,7.35,8.79s-3,8.8-7.32,8.8Z"/><path class="cls-1" d="M56,32c-.64,0-1.17,0-1.6,0v5.53h1.42c1.7,0,2.61-.86,2.61-2.94S57.44,32,56,32Zm.1,8.51h-1.7v2.72l1.75.25a12.52,12.52,0,0,1,.08,1.39,13.52,13.52,0,0,1-.08,1.42H49a13.5,13.5,0,0,1-.07-1.42A12.56,12.56,0,0,1,49,43.44l1.65-.25V32.24L49,32a12.56,12.56,0,0,1-.07-1.39A13.5,13.5,0,0,1,49,29.17c2.23-.08,4.72-.13,6.49-.13,4.16,0,6.69,1.52,6.69,5.53,0,4.18-2.91,5.9-6.08,5.9Z"/><path class="cls-1" d="M76.68,46H64.17l-.23-4c6.32-3.46,7.72-5.24,7.72-7.4,0-1.71-.86-2.54-2.22-2.54a5.78,5.78,0,0,0-1.18.13L68,34a16.21,16.21,0,0,1-1.84.1,17.46,17.46,0,0,1-1.91-.1v-4.6a15.19,15.19,0,0,1,5.24-.95c4.1,0,6.89,1.87,6.89,5.78,0,2.63-1.4,5-5.78,7.62V42H77a25.55,25.55,0,0,1-.29,4Z"/><path class="cls-1" d="M83.73,50.44a14.79,14.79,0,0,1-5.27-.91V44.89a18,18,0,0,1,1.94-.1,15.32,15.32,0,0,1,1.81.1l.29,1.68a5.51,5.51,0,0,0,1.3.16c1.84,0,2.82-1,2.82-2.92,0-2.13-1.46-3-5-3H78.75c.13-4.06.54-8.66,1-12.09H90.88a28.59,28.59,0,0,1-.32,4H83.42L83,37.08h.31c4.16,0,7.94,1.62,7.94,6.51,0,4.19-3.17,6.85-7.56,6.85Z"/><path class="cls-1" d="M98.09,36H94.66l2.77,2-1.06,3.26,2.78-2,2.78,2L100.87,38l2.77-2h-3.43l-1.06-3.27L98.09,36Zm1.06,10.35c-4.26,0-6.92-2.48-6.92-9,0-6.32,2.89-8.95,6.92-8.95,4.35,0,6.92,2.51,6.92,9,0,6.2-2.73,9-6.92,9Z"/><polygon class="cls-1" points="40.45 25.55 40.45 22.06 39.05 22.06 39.05 25.55 37.73 25.55 37.73 17.25 39.05 17.25 39.05 20.85 40.45 20.85 40.45 17.25 41.77 17.25 41.77 25.55 40.45 25.55 40.45 25.55"/><path class="cls-1" d="M44.31,22.71c-.62.21-.94.56-.94,1v.47c0,.3.14.53.41.53a.55.55,0,0,0,.53-.59V22.71Zm1.06,2.94a.79.79,0,0,1-.81-.65,1.16,1.16,0,0,1-1.07.65c-.7,0-1.18-.54-1.18-1.46V23.9c0-1.09.85-1.62,2-2v-.92c0-.3-.13-.48-.41-.48s-.4.18-.4.5v.52h-1V21A1.38,1.38,0,0,1,44,19.48c1,0,1.43.67,1.43,1.62v3.41c0,.19.08.29.25.3v.84Z"/><polygon class="cls-1" points="49.78 25.55 48.85 25.55 48.46 23.18 48.31 21.95 48.15 23.18 47.76 25.55 46.83 25.55 45.79 19.57 46.88 19.57 47.23 22.47 47.36 23.77 47.5 22.47 47.9 19.57 48.81 19.57 49.17 22.47 49.32 23.77 49.46 22.47 49.83 19.57 50.84 19.57 49.78 25.55 49.78 25.55"/><path class="cls-1" d="M53,22.71c-.62.21-.94.56-.94,1v.47c0,.3.14.53.41.53a.55.55,0,0,0,.53-.59V22.71Zm1.06,2.94a.79.79,0,0,1-.81-.65,1.16,1.16,0,0,1-1.07.65c-.7,0-1.18-.54-1.18-1.46V23.9c0-1.09.85-1.62,2-2v-.92c0-.3-.13-.48-.41-.48s-.4.18-.4.5v.52h-1V21a1.38,1.38,0,0,1,1.46-1.53c1,0,1.43.67,1.43,1.62v3.41c0,.19.07.29.25.3v.84Z"/><path class="cls-1" d="M54.84,18.81V17.64H55.9v1.17Zm0,6.74v-6h1.11v6Z"/><path class="cls-1" d="M56.68,18.81V17.64h1.06v1.17Zm0,6.74v-6h1.11v6Z"/><path class="cls-2" d="M61,22.44c0-.37-.18-.58-.51-.58h-.64v2.55h.7c.32,0,.45-.18.45-.53V22.44Zm0-3.52c0-.35-.15-.54-.46-.54h-.68v2.47h.63c.32,0,.51-.19.51-.58V18.92Zm-.3,6.63H58.52v-8.3h2.15a1.45,1.45,0,0,1,1.59,1.61v1.2a1.14,1.14,0,0,1-.82,1.25,1.17,1.17,0,0,1,.85,1.25v1.38a1.45,1.45,0,0,1-1.6,1.61Z"/><path class="cls-2" d="M65.1,25.55,65,24.83a1.14,1.14,0,0,1-1.06.82c-.68,0-1.07-.53-1.07-1.31V19.57H64v4.6a.47.47,0,0,0,.44.52c.31,0,.49-.39.49-.67V19.57h1.11v6Z"/><path class="cls-2" d="M68.16,25.65A1.45,1.45,0,0,1,66.62,24v-.36h1v.45c0,.41.18.6.52.6a.47.47,0,0,0,.52-.53c0-.55-.27-.76-.92-1.36a2.19,2.19,0,0,1-1-1.78,1.43,1.43,0,0,1,1.47-1.57,1.39,1.39,0,0,1,1.45,1.57v.37h-.92V21a.46.46,0,0,0-.51-.51.43.43,0,0,0-.46.47c0,.44.24.72.78,1.19A2.35,2.35,0,0,1,69.66,24a1.47,1.47,0,0,1-1.5,1.61Z"/><path class="cls-2" d="M70.19,18.81V17.64h1.06v1.17Zm0,6.74v-6h1.12v6Z"/><path class="cls-2" d="M74,25.55V21c0-.32-.17-.53-.42-.53s-.51.39-.51.67v4.43H72v-6h1l.07.78a1.11,1.11,0,0,1,1-.87c.67,0,1.06.52,1.06,1.31v4.76Z"/><path class="cls-2" d="M77.81,21c0-.33-.15-.56-.46-.56s-.48.23-.48.56v1.06h.94V21Zm-.47,4.64A1.55,1.55,0,0,1,75.79,24V21.17a1.55,1.55,0,0,1,1.55-1.69,1.5,1.5,0,0,1,1.48,1.69v1.54H76.87v1.42c0,.32.16.55.48.55s.47-.23.47-.55v-.74h1V24a1.5,1.5,0,0,1-1.48,1.69Z"/><path class="cls-2" d="M80.8,25.65A1.45,1.45,0,0,1,79.27,24v-.36h1v.45c0,.41.18.6.52.6a.47.47,0,0,0,.52-.53c0-.55-.27-.76-.92-1.36a2.19,2.19,0,0,1-1-1.78,1.43,1.43,0,0,1,1.47-1.57,1.4,1.4,0,0,1,1.46,1.57v.37h-.93V21a.46.46,0,0,0-.51-.51.43.43,0,0,0-.46.47c0,.44.24.72.79,1.19A2.36,2.36,0,0,1,82.3,24a1.47,1.47,0,0,1-1.5,1.61Z"/><path class="cls-2" d="M84.12,25.65A1.45,1.45,0,0,1,82.58,24v-.36h1v.45c0,.41.19.6.53.6a.47.47,0,0,0,.52-.53c0-.55-.28-.76-.92-1.36a2.18,2.18,0,0,1-1-1.78,1.44,1.44,0,0,1,1.48-1.57,1.4,1.4,0,0,1,1.45,1.57v.37h-.92V21a.46.46,0,0,0-.51-.51.43.43,0,0,0-.46.47c0,.44.24.72.79,1.19A2.35,2.35,0,0,1,85.61,24a1.46,1.46,0,0,1-1.49,1.61Z"/><text class="cls-3" transform="translate(37.44 59.59)">2011 -2021</text></svg>