<?xml version="1.0" encoding="utf-8"?>
<!-- Generator: Adobe Illustrator 20.1.0, SVG Export Plug-In . SVG Version: 6.00 Build 0)  -->
<svg version="1.1" id="Layer_1" xmlns="http://www.w3.org/2000/svg" xmlns:xlink="http://www.w3.org/1999/xlink" x="0px" y="0px"
	 viewBox="0 0 158.1 130" style="enable-background:new 0 0 158.1 130;" xml:space="preserve">
<style type="text/css">
	.st0{fill:#848487;}
	.st1{fill:#FFFFFF;}
	.st2{fill:#989898;}
	.st3{fill:#65666B;}
</style>
<g>
	<g>
		<rect x="93.8" y="5.2" class="st0" width="64.3" height="66.6"/>
		<path class="st1" d="M152.5,38c0,14.7-11.9,26.6-26.6,26.6c-14.7,0-26.6-11.9-26.6-26.6c0-14.7,11.9-26.6,26.6-26.6
			C140.6,11.5,152.5,23.4,152.5,38"/>
		<path class="st2" d="M112.1,43.2c0.3-0.1,0.9-0.4,1.2-0.5c0.3-0.2,0.3-0.3,0.2-0.6c-0.4-1.3-0.6-2.6-0.6-4
			c0-7.2,5.9-13.1,13.1-13.1c7.2,0,13,5.9,13,13.1c0,1.8-0.4,3.6-1.1,5.2c-0.1,0.1-0.1,0.3,0.1,0.4c0.2,0.1,1,0.4,1.2,0.5
			c0.2,0.1,0.4,0,0.5-0.2c0.8-1.8,1.2-3.8,1.2-6c0-8.3-6.8-15.1-15.1-15.1c-8.3,0-15.1,6.8-15.1,15.1c0,1.7,0.3,3.3,0.8,4.9
			C111.7,43.2,111.9,43.3,112.1,43.2"/>
		<path class="st2" d="M108.3,45c0.3-0.2,1.4-0.6,1.7-0.8c0.3-0.1,0.2-0.4,0.2-0.5c-0.6-1.8-1-3.6-1-5.6c0-9.2,7.5-16.7,16.7-16.7
			c9.2,0,16.7,7.5,16.7,16.7c0,2.4-0.5,4.6-1.4,6.7c-0.1,0.1-0.1,0.4,0.1,0.5c0.3,0.1,1.5,0.7,1.7,0.7c0.2,0.1,0.4,0.1,0.5-0.2
			c1-2.3,1.6-4.9,1.6-7.6c0-10.6-8.6-19.3-19.3-19.3c-10.6,0-19.3,8.7-19.3,19.3c0,2.3,0.4,4.6,1.2,6.7
			C107.9,44.9,108,45.1,108.3,45"/>
		<path class="st2" d="M103.1,47.4c0.4-0.2,2.6-1.2,3-1.4c0.4-0.2,0.2-0.5,0.2-0.6c-0.8-2.3-1.3-4.7-1.3-7.2
			c0-11.5,9.4-20.9,20.9-20.9c11.5,0,20.9,9.4,20.9,20.9c0,2.9-0.6,5.7-1.7,8.2c-0.1,0.2-0.1,0.5,0.2,0.6c0.4,0.2,2.6,1.1,2.9,1.3
			c0.3,0.2,0.5,0.1,0.7-0.3c1.3-3,2-6.3,2-9.8c0-13.8-11.2-25.1-25-25.1c-13.8,0-25,11.2-25,25.1c0,3.2,0.6,6.2,1.7,9
			C102.6,47.3,102.7,47.6,103.1,47.4"/>
		<path class="st3" d="M125.9,32.7c1.5,0,2.7-1.2,2.7-2.7c0-1.5-1.2-2.7-2.7-2.7c-1.5,0-2.7,1.2-2.7,2.7
			C123.2,31.5,124.4,32.7,125.9,32.7"/>
		<path class="st3" d="M126.9,46.7c0.5,0,0.9-0.4,0.9-0.9v-5.9c0-0.7,0.6-1.7,1.1-2.3l5.5-5.5c0.4-0.4,0.4-1,0-1.3l-1-1
			c-0.4-0.4-1-0.4-1.3,0l-5,5c-0.3,0.3-0.6,0.5-1.2,0.5c-0.6,0-0.9-0.2-1.2-0.5l-5-5c-0.4-0.4-1-0.4-1.3,0l-1,1
			c-0.4,0.4-0.4,1,0,1.3l5.5,5.5c0.5,0.6,1,1.5,1.1,2.3v5.9c0,0.5,0.4,0.9,0.9,0.9H126.9z"/>
		<path class="st3" d="M144.4,48.8c-0.9,0.3-2.7,2.1-3.5,2.8l-0.2,0c0.3-0.3,1.5-1.8,1.8-2.4c1-1.6-0.8-3.1-2.8-1.9
			c-0.7,0.4-2,1.7-2.6,2.2l-0.2,0c0.3-0.3,1.4-1.7,1.7-2.2c0.9-1.3-1-2.5-2.5-1.6c-1.1,0.7-2,1.6-2.9,2.3l-0.2,0
			c0.3-0.2,0.9-1,1.1-1.2c0.9-1-0.4-2.2-1.8-1.5c-1.3,0.7-3.3,2.6-5.4,4c1,0.5,2.7,0.6,5.4,1.8c2.7,1.2,3.6,3.9,1.8,6
			c-1.7,2-4.2,1.3-6.3,0.6c-2.5-0.8-3.4-1.6-6.4-2.6c-2-0.7-2.8-0.7-2.7-1.2c0-0.6,1.7-0.3,3.3,0.3c4.4,1.6,10.3,5.2,11.7,1.3
			c1.1-3.1-4-4.4-5.9-4.8c-2.7-0.5-4.6-2.5-6.9-3.8c-3.6-1.9-6.3-2-8.3-1.6c-2.2,0.4-5.3,2.2-7.2,3.3c-1.3,0.8-1.2,1.9,0.1,3.8
			c4.5,6.4,12,10.7,20.5,10.7c9,0,16.9-4.8,21.3-11.9C148.2,49.7,146.6,48,144.4,48.8"/>
		<rect y="5.2" class="st3" width="93.8" height="66.6"/>
		<path class="st1" d="M149.1,65.1v2.5h-0.5v-2.5h-0.9v-0.5h2.4v0.5H149.1z M153.5,67.6v-2.4l-0.1,0l-0.9,2.4h-0.4l-0.9-2.4l0,0v2.4
			h-0.6v-3h0.8l0.9,2.2l0.9-2.2h0.8v3H153.5z"/>
		<path class="st1" d="M72.6,66c0,0.7,2.6,1.5,3.9,1.5c1.3,0,3.2-0.5,4.2-2.9c1-2.5,5.3-17,5.3-17l0.5,0c1-0.2,1.3-0.7,1.3-2.2
			c0-0.5-0.1-0.6-0.5-0.6h-3.5c-0.3,0-0.4,0.1-0.5,0.4l-2.9,11.2l-3-11.2c-0.1-0.3-0.1-0.4-0.5-0.4h-3.5c-0.4,0-0.5,0-0.5,0.6
			c0,1.5,0.4,2,1.3,2.2l0.5,0c0,0,2.8,9.7,4.2,13.8c0,0-0.2,0.8-0.2,0.8c-0.5,1.5-1.3,2.2-2.6,2.2c-0.3,0-2-0.3-2-0.3
			c-1-0.1-1.2,0.3-1.3,0.7C72.8,65.4,72.6,65.9,72.6,66"/>
		<path class="st1" d="M60.8,39.4h-4.1c-0.4,0-0.4,0-0.4,0.4l-2.3,14.5l-2.8-14.4c-0.1-0.4-0.1-0.5-0.6-0.5h-1.9
			c-0.7,0-0.7,0.1-0.8,0.5l-2.9,14.4l-2.2-14.5c0-0.4-0.1-0.4-0.4-0.4H38c-0.4,0-0.5,0-0.5,0.6c0,1.6,0.4,2.2,1.5,2.3l0.4,0
			l3.2,17.8c0.1,0.4,0.2,0.5,0.5,0.5H46c0.4,0,0.5,0,0.5-0.5l2.8-13.8l2.4,13.9c0.1,0.5,0.1,0.5,0.5,0.5h2.9c0.4,0,0.4-0.1,0.5-0.5
			l3.7-17.8l0.4,0c1.1-0.1,1.5-0.7,1.5-2.3C61.2,39.5,61.1,39.4,60.8,39.4"/>
		<path class="st1" d="M67.9,57.1c-0.4,0.4-1.2,1.3-2.3,1.3c-1.2,0-2.1-1-2.1-2.3c0-2.9,3.5-2.7,4.4-2.7V57.1z M71.6,57.8
			c-0.2-0.6-0.3-1.4-0.3-2.8v-5.6c0-3.5-1.5-5.1-5-5.1c-2.4,0-5,1-5,1.7c0,0.1,0.1,0.6,0.3,1.1c0.1,0.2,0.2,0.7,1.3,0.6
			c0.4,0,2.2-0.4,3-0.4c2,0,2.2,1.1,2.2,2.5v1.1c-2.5,0-7.8,0-7.8,5.4c0,3,1.7,4.9,4.4,4.9c2,0,3.1-1.1,3.7-1.8l0.2-0.3l0.1,0.4
			c0.1,0.7,0.2,1.1,0.8,1.1h3.6c0.5,0,0.5,0,0.5-0.6C73.3,58.5,72.9,57.9,71.6,57.8"/>
		<path class="st1" d="M46.5,31.6l-0.4,0V18.9c0-0.3,0-0.3-0.3-0.3h-5c-0.4,0-0.5,0-0.5,0.5c0,1.7,0.5,2.2,1.9,2.2h0.4v10.2l-0.4,0
			c-1.5,0-1.9,0.5-1.9,2.3c0,0.5,0.1,0.6,0.5,0.6h7.1c0.4,0,0.5,0,0.5-0.6C48.4,32.1,47.9,31.6,46.5,31.6"/>
		<path class="st1" d="M44.3,12.6c-1.2,0-2.1,1-2.1,2.3c0,1.3,0.9,2.3,2.1,2.3c1.2,0,2.1-1,2.1-2.3C46.4,13.6,45.5,12.6,44.3,12.6"
			/>
		<path class="st1" d="M20.7,16.6L20.7,16.6c1.6,0,2.1-0.6,2.1-2.3c0-0.5-0.1-0.6-0.5-0.6h-6.9c-0.4,0-0.5,0.1-0.5,0.3l0,0.3
			c0,1.7,0.5,2.3,2,2.3h0.1V27c0,2,0,4.7-3.2,4.7c-2.9,0-3.2-2.1-3.2-4.7V16.6h0.1c1.5,0,2-0.6,2-2.3l0-0.3c0-0.2-0.1-0.2-0.5-0.2
			H5.3c-0.4,0-0.5,0-0.5,0.6c0,1.8,0.5,2.3,2,2.3h0.1V27c0,5.6,2.1,8,6.9,8c4.8,0,6.9-2.4,6.9-8V16.6z"/>
		<path class="st1" d="M36.6,31.6v-8.5c0-3.5-1.1-5-3.7-5c-2.3,0-3.5,1.3-4.5,2.3c-0.1-0.4-0.2-0.7-0.2-0.7
			c-0.2-0.7-0.3-1.1-0.7-1.1h-3.9c-0.4,0-0.5,0-0.5,0.5c0,1.6,0.4,2.2,1.8,2.2c0.2,0.7,0.3,1.2,0.3,2.9v7.3c-1.5,0-1.9,0.5-1.9,2.3
			c0,0.5,0.1,0.6,0.5,0.6h4.6c0.3,0,0.3,0,0.3-0.3l0-11.4c0.4-0.4,1.4-1.4,2.6-1.4c1.7,0,1.7,2,1.7,2.8v10c0,0.3,0,0.3,0.3,0.3H38
			c0.4,0,0.5,0,0.5-0.6C38.5,32.2,38,31.6,36.6,31.6"/>
		<path class="st1" d="M55.1,34.9c2,0,3.7-0.5,3.7-1c0-0.1-0.1-0.7-0.2-1c-0.3-1.2-0.4-1.6-2.6-1.4c-0.3,0-0.5,0-0.7-0.2
			c-0.4-0.4-0.4-1.4-0.4-2.1v-7.9h1.9c1.5,0,1.9-0.5,1.9-2.3c0-0.5-0.1-0.5-0.5-0.5h-3.4v-4.4c0-0.4,0-0.4-0.2-0.4
			c-0.2,0-0.9,0.1-1.2,0.1c-1,0.2-2.1,0.9-2.1,2.7v2h-2c-0.4,0-0.5,0-0.5,0.5c0,1.7,0.5,2.3,1.9,2.3h0.6v7.4
			C51.4,31.8,51.4,34.9,55.1,34.9"/>
		<path class="st1" d="M63.7,24.7l0-0.3c0.1-1.1,0.3-3.6,2.6-3.6c2.2,0,2.2,2.6,2.2,3.9H63.7z M72,26.8c0-5.8-1.9-8.7-5.7-8.7
			c-3.8,0-6.3,3.5-6.3,8.6c0,6.8,3.5,8.3,6.4,8.3c2.4,0,5.1-1.1,5.1-1.8c0-0.1-0.1-0.6-0.3-1.1c-0.1-0.4-0.3-0.7-1.3-0.7
			c-0.8,0-2,0.4-3.1,0.4c-2.2,0-3.3-1.4-3.3-4.3h7.9C71.9,27.5,72,27.4,72,26.8"/>
		<path class="st1" d="M79.8,31.9c-2.1,0-2.6-1.9-2.6-5.3c0-3.6,0.4-5.5,2.7-5.5c0.9,0,1.6,0.2,2.3,0.7v9
			C81.9,31.2,81.2,31.9,79.8,31.9 M86.2,31.6c-0.2-0.6-0.3-1.3-0.3-2.8V13c0-0.3,0-0.3-0.3-0.3h-4.6c-0.4,0-0.5,0-0.5,0.6
			c0,1.7,0.4,2.2,1.8,2.2l0.1,0v3.6l-0.3-0.2c-0.5-0.4-1.2-0.9-2.8-0.9c-3.6,0-5.5,3.2-5.5,9.1c0,5,1.7,7.8,4.9,7.8
			c2.5,0,4.1-1.8,4.1-1.8l0.2,0.7c0.2,0.5,0.2,0.6,0.6,0.6h4.1c0.4,0,0.5,0,0.5-0.6C88.2,32.1,87.7,31.6,86.2,31.6"/>
		<path class="st3" d="M8.6,86.5c-0.1-0.5-0.4-1.8-0.4-1.8s-0.3,1.2-0.5,1.9c-0.2,0.7-0.3,1.2-0.5,1.9h2C9.1,88.5,8.8,87.5,8.6,86.5
			 M10.3,92.6l-0.7-2.4h-3l-0.7,2.4H3.8l3.3-10.1h2.2l3.2,10.1H10.3z"/>
		<path class="st3" d="M15.2,92.8c-0.8,0-1.5-0.4-1.7-1c-0.1-0.4-0.2-0.6-0.2-1.7v-5.5c0-1,0-1.6-0.1-2.2l2-0.5
			c0.1,0.4,0.1,0.9,0.1,1.9v5.8c0,1.3,0,1.5,0.1,1.7c0.1,0.1,0.2,0.2,0.4,0.2c0.1,0,0.1,0,0.2,0l0.3,1.2
			C16.1,92.7,15.7,92.8,15.2,92.8"/>
		<path class="st3" d="M21.1,86.8c-0.2-0.2-0.5-0.4-0.8-0.4c-0.5,0-0.8,0.3-1,0.8c-0.1,0.4-0.2,0.9-0.2,1.7c0,0.9,0.1,1.5,0.2,1.9
			c0.2,0.4,0.6,0.6,1,0.6c0.8,0,1.2-0.8,1.2-2.5C21.5,87.8,21.4,87.2,21.1,86.8 M22.7,91.7c-0.6,0.6-1.3,1-2.5,1
			c-2,0-3.3-1.5-3.3-3.8c0-2.3,1.3-3.9,3.3-3.9c1.1,0,1.9,0.4,2.5,1.1c0.6,0.7,0.9,1.5,0.9,2.7C23.6,90.1,23.3,91,22.7,91.7"/>
		<path class="st3" d="M29.4,92.6v-5c0-0.7-0.2-1-0.8-1c-0.5,0-1.1,0.3-1.5,0.7v5.3h-2V84c0-0.7-0.1-1.4-0.1-1.7l2-0.5
			c0.1,0.4,0.1,1.1,0.1,1.8v1.5c0,0.2,0,0.5,0,0.6c0.5-0.5,1.4-0.8,2.1-0.8c0.9,0,1.7,0.4,1.9,1.1c0.1,0.4,0.2,0.7,0.2,1.4v5.2H29.4
			z"/>
		<path class="st3" d="M36.6,89.3c-1.3,0-1.8,0.2-1.8,1.1c0,0.6,0.4,1,0.9,1c0.4,0,0.7-0.2,1-0.5L36.6,89.3L36.6,89.3z M38.2,93
			c-0.4-0.2-0.9-0.5-1-0.9c-0.1,0.1-0.3,0.3-0.5,0.4c-0.4,0.3-0.9,0.4-1.5,0.4c-1.7,0-2.6-0.8-2.6-2.3c0-1.7,1.2-2.6,3.6-2.6
			c0.1,0,0.3,0,0.4,0v-0.3c0-0.8-0.2-1.1-0.9-1.1c-0.6,0-1.4,0.3-2.1,0.8L32.9,86c0.4-0.2,0.7-0.4,1.2-0.6c0.7-0.3,1.4-0.4,2-0.4
			c1.2,0,2.1,0.5,2.4,1.3c0.1,0.3,0.1,0.5,0.1,1.3l0,2.5c0,0.8,0,1.2,0.7,1.7L38.2,93z"/>
		<path class="st3" d="M51,90.9c-0.3,0.8-1.2,1.9-3.4,1.9c-1.5,0-2.7-0.5-3.2-1.3c-0.3-0.5-0.4-0.9-0.4-1.9v-7H46v6.6
			c0,0.6,0.1,1,0.2,1.2c0.2,0.4,0.7,0.7,1.4,0.7c0.9,0,1.5-0.4,1.5-1.2c0-0.2,0-0.4,0-0.9v-6.5h2.1v6.8C51.1,90.3,51.1,90.4,51,90.9
			"/>
		<path class="st3" d="M57.1,92.6v-4.8c0-0.8-0.1-1.1-0.7-1.1c-0.4,0-0.9,0.3-1.3,0.7v5.3h-1.9v-5.4c0-0.6-0.1-1.2-0.3-1.7l1.7-0.5
			c0.2,0.3,0.3,0.6,0.3,0.9c0.3-0.2,0.5-0.4,0.9-0.6c0.4-0.2,0.9-0.3,1.3-0.3c0.8,0,1.6,0.4,1.8,1.1c0.1,0.3,0.1,0.6,0.1,1.1v5.4
			H57.1z"/>
		<path class="st3" d="M61,92.6v-7.3L63,85v7.6H61z M62,84.3c-0.7,0-1.2-0.5-1.2-1.2c0-0.7,0.6-1.2,1.2-1.2c0.7,0,1.2,0.5,1.2,1.2
			C63.2,83.8,62.7,84.3,62,84.3"/>
		<path class="st3" d="M67.2,92.8c-1,0-1.8-0.4-2-1.1C65,91.4,65,91.2,65,90.5v-4h-0.7v-1.3H65c0-0.7,0-1.2,0.1-1.8l2-0.5
			c-0.1,0.7-0.1,1.5-0.1,2.3h1.7l-0.5,1.3h-1.2v3.7c0,0.9,0.2,1.2,0.8,1.2c0.2,0,0.3,0,0.7-0.1l0.2,1.2
			C68.2,92.7,67.7,92.8,67.2,92.8"/>
		<path class="st3" d="M73.6,88c0-0.5-0.1-0.8-0.2-1.1c-0.2-0.3-0.5-0.4-0.9-0.4c-0.7,0-1.2,0.6-1.2,1.6v0L73.6,88L73.6,88z
			 M71.3,89.5L71.3,89.5c0,1.2,0.6,1.9,1.6,1.9c0.7,0,1.3-0.2,1.9-0.7l0.8,1.2c-0.9,0.7-1.8,1-2.8,1c-2.1,0-3.5-1.5-3.5-3.8
			c0-1.3,0.3-2.2,0.9-2.9c0.6-0.7,1.3-1,2.3-1c0.9,0,1.7,0.3,2.1,0.8c0.7,0.7,1,1.7,1,3.3v0.5H71.3z"/>
		<path class="st3" d="M81.1,87.1c-0.4-0.3-0.7-0.5-1.1-0.5c-0.9,0-1.2,0.7-1.2,2.4c0,1.6,0.3,2.1,1.3,2.1c0.4,0,0.8-0.2,1-0.5V87.1
			z M81.5,92.6c-0.1-0.1-0.1-0.2-0.1-0.4c-0.5,0.4-1,0.6-1.7,0.6c-1.9,0-3.1-1.5-3.1-3.8c0-2.3,1.3-3.9,3.2-3.9c0.5,0,1,0.1,1.3,0.4
			c0-0.2-0.1-0.7-0.1-1.1v-2.6l1.9,0.3v7.7c0,1.8,0.1,2.4,0.3,2.7H81.5z"/>
		<path class="st3" d="M96.9,92.7h-2.2l-0.9-4.1c-0.3-1.3-0.4-2.5-0.5-2.9c0,0.2-0.2,1.5-0.5,2.8L92,92.7h-2.3l-2.4-10.2h2.1l0.9,4
			c0.4,1.9,0.5,3.3,0.5,3.3c0-0.4,0.2-1.8,0.5-3.2l0.9-4.1h2.2l0.9,4.5c0.2,0.9,0.4,2.7,0.4,2.7c0-0.3,0.3-2.4,0.6-3.4l0.8-3.8h2.1
			L96.9,92.7z"/>
		<path class="st3" d="M103.3,89.3c-1.3,0-1.8,0.2-1.8,1.1c0,0.6,0.4,1,0.9,1c0.4,0,0.7-0.2,1-0.5L103.3,89.3L103.3,89.3z M104.9,93
			c-0.5-0.2-0.9-0.5-1-0.9c-0.1,0.1-0.3,0.3-0.5,0.4c-0.4,0.3-0.9,0.4-1.5,0.4c-1.7,0-2.6-0.8-2.6-2.3c0-1.7,1.2-2.6,3.6-2.6
			c0.1,0,0.3,0,0.4,0v-0.3c0-0.8-0.2-1.1-0.9-1.1c-0.6,0-1.3,0.3-2.1,0.8L99.6,86c0.4-0.2,0.7-0.4,1.2-0.6c0.7-0.3,1.3-0.4,2-0.4
			c1.2,0,2.1,0.5,2.4,1.3c0.1,0.3,0.1,0.5,0.1,1.3l0,2.5c0,0.8,0,1.2,0.7,1.7L104.9,93z"/>
		<path class="st3" d="M110.8,92.7c-0.5,1.4-0.9,2.1-1.4,2.5c-0.5,0.4-1.1,0.6-1.8,0.7l-0.7-1.3c0.4-0.1,0.9-0.3,1.2-0.5
			c0.2-0.2,0.4-0.4,0.6-0.6c0.2-0.3,0.2-0.4,0.4-0.9h-0.5c-0.2-0.7-0.6-1.9-0.7-2.1l-1.8-5.2l2-0.2l1.3,4.3c0.1,0.4,0.4,1.4,0.4,1.5
			c0,0,0.1-0.8,0.2-1.2c0.1-0.2,0.2-0.7,0.3-1l1.1-3.5h2L110.8,92.7z"/>
	</g>
	<g>
		<g>
			<path class="st3" d="M1.1,124.6V109h3.5c0.9,0,1.8,0.2,2.5,0.7c0.6,0.4,1.1,1.1,1.4,1.9c0.2,0.5,0.2,1,0.2,1.7
				c0,1-0.3,1.9-0.8,2.5c-0.2,0.3-0.5,0.5-0.8,0.6c0.5,0.2,1,0.6,1.3,1.2c0.2,0.4,0.4,0.9,0.5,1.5c0.1,0.3,0.1,0.7,0.1,1.1
				c0,1-0.2,1.8-0.6,2.5c-0.3,0.5-0.7,1-1.2,1.3c-0.6,0.4-1.2,0.5-1.8,0.5H1.1z M3.7,115.4h1c0.7,0,1.2-0.4,1.5-1.1
				c0.1-0.3,0.1-0.6,0.1-1c0-0.6-0.2-1.1-0.5-1.5c-0.3-0.3-0.7-0.5-1.1-0.5h-1V115.4z M3.7,122.3h1c0.8,0,1.3-0.4,1.7-1.2
				c0.1-0.3,0.2-0.6,0.2-1c0-0.9-0.2-1.5-0.5-1.9c-0.3-0.4-0.7-0.5-1.3-0.5h-1V122.3z"/>
			<path class="st3" d="M11.5,124.6V109h6.7v2.4h-4.3v4.3H17v2.4h-3.2v4.3h4.3v2.4H11.5z"/>
			<path class="st3" d="M28.2,120.7c0,1.1-0.3,2-0.8,2.8c-0.4,0.5-0.9,0.9-1.6,1.1c-0.4,0.1-0.8,0.2-1.3,0.2c-0.9,0-1.7-0.2-2.3-0.7
				c-0.5-0.4-0.9-0.9-1.2-1.5c-0.3-0.6-0.5-1.4-0.5-2.2l2.2-0.2c0.1,0.9,0.3,1.6,0.7,2c0.3,0.3,0.6,0.5,1,0.4c0.5,0,0.9-0.3,1.2-0.8
				c0.2-0.2,0.2-0.6,0.2-1c0-0.6-0.3-1.3-0.9-1.9c-0.5-0.4-1.2-1.1-2.1-2c-0.8-0.8-1.3-1.4-1.7-2c-0.3-0.7-0.5-1.4-0.5-2.2
				c0-1.4,0.5-2.5,1.4-3.2c0.6-0.4,1.3-0.7,2.2-0.7c0.8,0,1.6,0.2,2.2,0.6c0.5,0.3,0.8,0.7,1.1,1.2c0.3,0.5,0.5,1.1,0.5,1.8
				l-2.3,0.4c-0.1-0.6-0.2-1.1-0.5-1.5c-0.2-0.3-0.5-0.4-0.9-0.4c-0.4,0-0.8,0.2-1,0.6c-0.2,0.3-0.3,0.7-0.3,1.1
				c0,0.7,0.3,1.4,0.9,2.2c0.2,0.3,0.6,0.6,1,1c0.5,0.5,0.9,0.8,1.1,1c0.6,0.6,1,1.2,1.3,1.7c0.1,0.3,0.3,0.5,0.4,0.7
				C28.1,119.8,28.2,120.3,28.2,120.7z"/>
			<path class="st3" d="M33,111.4h-2.5V109h7.3v2.4h-2.5v13.2H33V111.4z"/>
			<path class="st3" d="M45.3,109l3.1,10.5V109h2.4v15.6h-2.5l-3.2-10v10h-2.4V109H45.3z"/>
			<path class="st3" d="M53.3,124.6V109H60v2.4h-4.3v4.3h3.2v2.4h-3.2v4.3H60v2.4H53.3z"/>
			<path class="st3" d="M72,109h2.5l-2.4,15.6h-2.2l-1.3-8.6l-1.3,8.6H65L62.4,109h2.5l1.2,8.4l1.1-8.4h2.5l1.2,8.4L72,109z"/>
			<path class="st3" d="M83.1,124.8c-1,0-1.9-0.4-2.6-1.1c-0.7-0.7-1.1-1.6-1.1-2.6v-8.5c0-1,0.4-1.9,1.1-2.6
				c0.7-0.7,1.6-1.1,2.6-1.1c1,0,1.9,0.4,2.6,1.1c0.7,0.7,1.1,1.6,1.1,2.6v1.8h-2.4v-1.8c0-0.4-0.1-0.7-0.4-1
				c-0.3-0.3-0.6-0.4-1-0.4c-0.4,0-0.7,0.1-1,0.4c-0.3,0.3-0.4,0.6-0.4,1v8.5c0,0.4,0.1,0.7,0.4,1c0.3,0.3,0.6,0.4,1,0.4
				c0.4,0,0.7-0.1,1-0.4c0.3-0.3,0.4-0.6,0.4-1v-2.2h2.4v2.2c0,1-0.4,1.9-1.1,2.6C85,124.4,84.1,124.8,83.1,124.8z"/>
			<path class="st3" d="M92,121l-0.6,3.6h-2.5l2.7-15.6h3.2l2.6,15.6H95l-0.5-3.6H92z M93.2,112.6l-0.9,6.2h1.7L93.2,112.6z"/>
			<path class="st3" d="M102.2,124.6h-2.4V109h3.4l2.2,11.2l2.1-11.2h3.2v15.6h-2.4v-9.8l-2,9.8h-1.9l-2.3-9.8V124.6z"/>
			<path class="st3" d="M116.9,109c1.1,0,2.1,0.4,2.7,1.1c0.6,0.7,0.9,1.6,0.9,2.6v2.3c0,1-0.4,1.9-1.1,2.6
				c-0.7,0.7-1.6,1.1-2.6,1.1h-1.4v5.9h-2.4V109H116.9z M118.3,112.8c0-0.4-0.1-0.7-0.4-1c-0.2-0.2-0.6-0.4-1-0.4h-1.4v5h1.4
				c0.4,0,0.7-0.1,1-0.4c0.3-0.3,0.4-0.6,0.4-1V112.8z"/>
			<path class="st3" d="M125.3,121l-0.6,3.6h-2.4l2.7-15.6h3.2l2.6,15.6h-2.5l-0.6-3.6H125.3z M126.5,112.6l-0.9,6.2h1.7
				L126.5,112.6z"/>
			<path class="st3" d="M135.5,124.6h-2.4V109h2.4V124.6z"/>
			<path class="st3" d="M141.7,124.8c-1,0-1.9-0.4-2.6-1.1c-0.7-0.7-1.1-1.6-1.1-2.6v-8.5c0-1,0.4-1.9,1.1-2.6
				c0.7-0.7,1.6-1.1,2.6-1.1c1,0,1.9,0.4,2.6,1.1c0.7,0.7,1.1,1.6,1.1,2.6v1.8H143v-1.8c0-0.4-0.1-0.7-0.4-1c-0.3-0.3-0.6-0.4-1-0.4
				c-0.4,0-0.7,0.1-1,0.4c-0.3,0.3-0.4,0.6-0.4,1v8.5c0,0.4,0.1,0.7,0.4,1c0.3,0.3,0.6,0.4,1,0.4c0.4,0,0.7-0.1,1-0.4
				c0.3-0.3,0.4-0.6,0.4-0.9V118h-1.3v-2.4h3.7v5.5c0,1-0.4,1.9-1.1,2.6C143.6,124.4,142.7,124.8,141.7,124.8z"/>
			<path class="st3" d="M150.5,109l3.1,10.5V109h2.4v15.6h-2.5l-3.2-10v10h-2.4V109H150.5z"/>
		</g>
	</g>
</g>
</svg>
