<svg xmlns="http://www.w3.org/2000/svg" viewBox="0 0 100 100"><defs><style>.cls-1,.cls-2,.cls-4{fill:#fff;}.cls-1,.cls-2,.cls-3,.cls-4,.cls-5{stroke:#636569;stroke-miterlimit:10;}.cls-1{stroke-width:0.693px;}.cls-2,.cls-3{stroke-width:0.673px;}.cls-3,.cls-5{fill:none;}.cls-4{stroke-width:0.761px;stroke-dasharray:3.145 1.887;}.cls-5{stroke-width:0.653px;stroke-dasharray:3.619 2.171;}</style></defs><g id="Layer_2" data-name="Layer 2"><path class="cls-1" d="M74.76,26.714H88.936a0,0,0,0,1,0,0V75.27A10.383,10.383,0,0,1,78.553,85.653H74.76a0,0,0,0,1,0,0V26.714a0,0,0,0,1,0,0Z"/><path class="cls-2" d="M21.447,21.569V14.347H18.286a7.221,7.221,0,0,0-7.222,7.222h0v46.8a9.086,9.086,0,0,0,9.086,9.086H88.936V21.569Z"/><polyline class="cls-3" points="21.447 21.569 21.406 68.61 11.064 68.61"/><rect class="cls-4" x="31.572" y="30.854" width="37.197" height="27.707"/><circle class="cls-5" cx="68.769" cy="58.56" r="10.05"/></g></svg>