<svg xmlns="http://www.w3.org/2000/svg" viewBox="0 0 100 100"><defs><style>.cls-1{fill:#fff;stroke:#636569;stroke-miterlimit:10;stroke-width:1.042px;}</style></defs><g id="Layer_2" data-name="Layer 2"><path class="cls-1" d="M73.089,11.787h6.522A1.584,1.584,0,0,1,81.2,13.371V27.587a0,0,0,0,1,0,0H71.5a0,0,0,0,1,0,0V13.371A1.584,1.584,0,0,1,73.089,11.787Z"/><path class="cls-1" d="M23.967,38.622h65.1a0,0,0,0,1,0,0v38.52a2.633,2.633,0,0,1-2.633,2.633H26.6a2.633,2.633,0,0,1-2.633-2.633V38.622A0,0,0,0,1,23.967,38.622Z"/><rect class="cls-1" x="49.606" y="57.159" width="13.821" height="22.616"/><circle class="cls-1" cx="60.362" cy="68.467" r="0.837"/><path class="cls-1" d="M56.516,38.622H15.988a.944.944,0,0,1-.576-1.692L34.866,21.953,55.941,5.728a.944.944,0,0,1,1.151,0L78.167,21.953,97.621,36.93a.944.944,0,0,1-.576,1.692Z"/><rect class="cls-1" x="31.86" y="59.612" width="9.691" height="9.691"/><rect class="cls-1" x="31.86" y="43.005" width="9.691" height="9.691"/><rect class="cls-1" x="71.504" y="43.005" width="9.691" height="9.691"/><rect class="cls-1" x="51.671" y="43.005" width="9.691" height="9.691"/><rect class="cls-1" x="71.504" y="59.612" width="9.691" height="9.691"/><circle class="cls-1" cx="20.067" cy="76.411" r="18.057"/><rect class="cls-1" x="8.274" y="79.465" width="23.586" height="3.618" rx="1.809"/><path class="cls-1" d="M29.076,79.465a9.01,9.01,0,1,0-18.019,0Z"/><rect class="cls-1" x="18.735" y="69.738" width="2.663" height="6.41" rx="0.915"/></g></svg>