<svg xmlns="http://www.w3.org/2000/svg" viewBox="0 0 149.6 149.6"><defs><style>.cls-1,.cls-2,.cls-3{fill:#fff;stroke:#636569;stroke-miterlimit:10;}.cls-1{stroke-width:0.903px;}.cls-2{stroke-width:0.883px;}.cls-3{stroke-width:1.042px;}</style></defs><g id="Layer_2" data-name="Layer 2"><rect class="cls-1" x="98.326" y="25.396" width="41.235" height="89.432" rx="4.006"/><rect class="cls-2" x="122.237" y="73.09" width="7.535" height="7.535"/><rect class="cls-2" x="122.237" y="86.582" width="7.535" height="7.535"/><rect class="cls-2" x="122.237" y="100.073" width="7.535" height="7.535"/><rect class="cls-2" x="122.237" y="59.599" width="7.535" height="7.535"/><rect class="cls-2" x="122.237" y="46.108" width="7.535" height="7.535"/><rect class="cls-2" x="122.237" y="32.616" width="7.535" height="7.535"/><rect class="cls-2" x="108.739" y="73.09" width="7.535" height="7.535"/><rect class="cls-2" x="108.739" y="86.582" width="7.535" height="7.535"/><rect class="cls-2" x="108.739" y="100.073" width="7.535" height="7.535"/><rect class="cls-2" x="108.739" y="59.599" width="7.535" height="7.535"/><rect class="cls-2" x="108.739" y="46.108" width="7.535" height="7.535"/><rect class="cls-2" x="108.739" y="32.616" width="7.535" height="7.535"/><rect class="cls-3" x="28.096" y="55.185" width="82.47" height="59.643" rx="4.627"/><path class="cls-3" d="M57.411,94.195H81.252a2.438,2.438,0,0,1,2.438,2.438v18.2a0,0,0,0,1,0,0H54.973a0,0,0,0,1,0,0v-18.2A2.438,2.438,0,0,1,57.411,94.195Z"/><line class="cls-3" x1="69.331" y1="94.195" x2="69.331" y2="114.828"/><rect class="cls-3" x="39.18" y="64.144" width="8.899" height="8.899"/><rect class="cls-3" x="56.314" y="64.144" width="8.899" height="8.899"/><rect class="cls-3" x="73.449" y="64.144" width="8.899" height="8.899"/><rect class="cls-3" x="90.584" y="64.144" width="8.899" height="8.899"/><rect class="cls-3" x="39.18" y="79.169" width="8.899" height="8.899"/><rect class="cls-3" x="56.314" y="79.169" width="8.899" height="8.899"/><rect class="cls-3" x="73.449" y="79.169" width="8.899" height="8.899"/><rect class="cls-3" x="90.584" y="79.169" width="8.899" height="8.899"/><rect class="cls-3" x="90.584" y="94.195" width="8.899" height="8.899"/><rect class="cls-3" x="39.18" y="94.195" width="8.899" height="8.899"/><circle class="cls-3" cx="28.096" cy="106.147" r="18.057"/><rect class="cls-3" x="16.303" y="109.202" width="23.586" height="3.618" rx="1.809"/><path class="cls-3" d="M37.106,109.2a9.01,9.01,0,1,0-18.019,0Z"/><rect class="cls-3" x="26.765" y="99.475" width="2.663" height="6.41" rx="0.915"/></g></svg>